<?xml version="1.0" encoding="UTF-8" standalone="no"?>
<!DOCTYPE svg PUBLIC "-//W3C//DTD SVG 1.1//EN"
 "http://www.w3.org/Graphics/SVG/1.1/DTD/svg11.dtd">
<!-- Generated by graphviz version 2.40.1 (20161225.0304)
 -->
<!-- Title: get_u64 Pages: 1 -->
<svg width="475pt" height="85pt"
 viewBox="0.00 0.00 475.00 85.00" xmlns="http://www.w3.org/2000/svg" xmlns:xlink="http://www.w3.org/1999/xlink">
<g id="graph0" class="graph" transform="scale(1 1) rotate(0) translate(4 81)">
<title>get_u64</title>
<!-- Node2969 -->
<g id="node1" class="node">
<title>Node2969</title>
<polygon fill="#bfbfbf" stroke="#000000" points="0,-19.5 0,-38.5 51,-38.5 51,-19.5 0,-19.5"/>
<text text-anchor="middle" x="25.5" y="-26.5" font-family="Helvetica,sans-Serif" font-size="10.00" fill="#000000">get_u64</text>
</g>
<!-- Node2970 -->
<g id="node2" class="node">
<title>Node2970</title>
<g id="a_node2"><a xlink:href="quickjs_8c.html#acde90ec09be2051ca056c973ac9c2a38" target="_top" xlink:title="bc_get_u64">
<polygon fill="none" stroke="#000000" points="109.5,-38.5 109.5,-57.5 176.5,-57.5 176.5,-38.5 109.5,-38.5"/>
<text text-anchor="middle" x="143" y="-45.5" font-family="Helvetica,sans-Serif" font-size="10.00" fill="#000000">bc_get_u64</text>
</a>
</g>
</g>
<!-- Node2969&#45;&gt;Node2970 -->
<g id="edge1" class="edge">
<title>Node2969&#45;&gt;Node2970</title>
<path fill="none" stroke="#191970" d="M61.375,-34.8011C76.599,-37.2628 94.2517,-40.1173 109.2382,-42.5406"/>
<polygon fill="#191970" stroke="#191970" points="61.7164,-31.3109 51.2859,-33.1696 60.5989,-38.2211 61.7164,-31.3109"/>
</g>
<!-- Node2975 -->
<g id="node5" class="node">
<title>Node2975</title>
<g id="a_node5"><a xlink:href="quickjs_8c.html#a351e921aea7f22e239884fdc941a8e52" target="_top" xlink:title="js_dataview_getValue">
<polygon fill="none" stroke="#000000" points="87,-.5 87,-19.5 199,-19.5 199,-.5 87,-.5"/>
<text text-anchor="middle" x="143" y="-7.5" font-family="Helvetica,sans-Serif" font-size="10.00" fill="#000000">js_dataview_getValue</text>
</a>
</g>
</g>
<!-- Node2969&#45;&gt;Node2975 -->
<g id="edge6" class="edge">
<title>Node2969&#45;&gt;Node2975</title>
<path fill="none" stroke="#191970" d="M61.166,-23.2327C69.3098,-21.9159 78.1573,-20.4852 86.9251,-19.0674"/>
<polygon fill="#191970" stroke="#191970" points="60.5989,-19.7789 51.2859,-24.8304 61.7164,-26.6891 60.5989,-19.7789"/>
</g>
<!-- Node2971 -->
<g id="node3" class="node">
<title>Node2971</title>
<g id="a_node3"><a xlink:href="quickjs_8c.html#a9521065b30ddae4ec518a195486c83c8" target="_top" xlink:title="JS_ReadBigNum">
<polygon fill="none" stroke="#000000" points="235,-57.5 235,-76.5 327,-76.5 327,-57.5 235,-57.5"/>
<text text-anchor="middle" x="281" y="-64.5" font-family="Helvetica,sans-Serif" font-size="10.00" fill="#000000">JS_ReadBigNum</text>
</a>
</g>
</g>
<!-- Node2970&#45;&gt;Node2971 -->
<g id="edge2" class="edge">
<title>Node2970&#45;&gt;Node2971</title>
<path fill="none" stroke="#191970" d="M186.9787,-54.055C202.2411,-56.1564 219.3926,-58.5178 234.8269,-60.6428"/>
<polygon fill="#191970" stroke="#191970" points="187.1426,-50.5447 176.7586,-52.6479 186.1877,-57.4792 187.1426,-50.5447"/>
</g>
<!-- Node2972 -->
<g id="node4" class="node">
<title>Node2972</title>
<g id="a_node4"><a xlink:href="quickjs_8c.html#a4b8ef2bb3b35e4a5f6ed8bd837a50e7c" target="_top" xlink:title="JS_ReadObjectRec">
<polygon fill="none" stroke="#ff0000" points="363,-38.5 363,-57.5 467,-57.5 467,-38.5 363,-38.5"/>
<text text-anchor="middle" x="415" y="-45.5" font-family="Helvetica,sans-Serif" font-size="10.00" fill="#000000">JS_ReadObjectRec</text>
</a>
</g>
</g>
<!-- Node2970&#45;&gt;Node2972 -->
<g id="edge5" class="edge">
<title>Node2970&#45;&gt;Node2972</title>
<path fill="none" stroke="#191970" d="M186.6986,-48C234.689,-48 311.7139,-48 362.8323,-48"/>
<polygon fill="#191970" stroke="#191970" points="186.6254,-44.5001 176.6253,-48 186.6253,-51.5001 186.6254,-44.5001"/>
</g>
<!-- Node2971&#45;&gt;Node2972 -->
<g id="edge3" class="edge">
<title>Node2971&#45;&gt;Node2972</title>
<path fill="none" stroke="#191970" d="M337.2855,-59.0192C345.7494,-57.8191 354.4474,-56.5858 362.8204,-55.3986"/>
<polygon fill="#191970" stroke="#191970" points="336.5248,-55.592 327.1152,-60.4613 337.5075,-62.5227 336.5248,-55.592"/>
</g>
<!-- Node2972&#45;&gt;Node2972 -->
<g id="edge4" class="edge">
<title>Node2972&#45;&gt;Node2972</title>
<path fill="none" stroke="#191970" d="M390.0745,-67.0292C391.4341,-72.128 399.7426,-76 415,-76 438.8164,-76 445.7008,-66.5653 435.6533,-57.7571"/>
<polygon fill="#191970" stroke="#191970" points="393.3407,-68.304 394.3467,-57.7571 386.9831,-65.3747 393.3407,-68.304"/>
</g>
</g>
</svg>
