<?xml version="1.0" encoding="UTF-8" standalone="no"?>
<!DOCTYPE svg PUBLIC "-//W3C//DTD SVG 1.1//EN"
 "http://www.w3.org/Graphics/SVG/1.1/DTD/svg11.dtd">
<!-- Generated by graphviz version 2.40.1 (20161225.0304)
 -->
<!-- Title: bf_tan Pages: 1 -->
<svg width="696pt" height="968pt"
 viewBox="0.00 0.00 696.00 968.00" xmlns="http://www.w3.org/2000/svg" xmlns:xlink="http://www.w3.org/1999/xlink">
<g id="graph0" class="graph" transform="scale(1 1) rotate(0) translate(4 964)">
<title>bf_tan</title>
<!-- Node4147 -->
<g id="node1" class="node">
<title>Node4147</title>
<polygon fill="#bfbfbf" stroke="#000000" points="0,-114.5 0,-133.5 44,-133.5 44,-114.5 0,-114.5"/>
<text text-anchor="middle" x="22" y="-121.5" font-family="Helvetica,sans-Serif" font-size="10.00" fill="#000000">bf_tan</text>
</g>
<!-- Node4148 -->
<g id="node2" class="node">
<title>Node4148</title>
<g id="a_node2"><a xlink:href="libbf_8c.html#a524a1cfe269d6d10ba833368695f8699" target="_top" xlink:title="bf_tan_internal">
<polygon fill="none" stroke="#000000" points="80,-228.5 80,-247.5 160,-247.5 160,-228.5 80,-228.5"/>
<text text-anchor="middle" x="120" y="-235.5" font-family="Helvetica,sans-Serif" font-size="10.00" fill="#000000">bf_tan_internal</text>
</a>
</g>
</g>
<!-- Node4147&#45;&gt;Node4148 -->
<g id="edge1" class="edge">
<title>Node4147&#45;&gt;Node4148</title>
<path fill="none" stroke="#191970" d="M30.3554,-133.7196C46.9176,-152.9858 84.1127,-196.2536 105.0131,-220.5662"/>
<polygon fill="#191970" stroke="#191970" points="102.4927,-223.0034 111.6657,-228.305 107.8009,-218.4402 102.4927,-223.0034"/>
</g>
<!-- Node4244 -->
<g id="node26" class="node">
<title>Node4244</title>
<g id="a_node26"><a xlink:href="libbf_8c.html#a39e7dd6286a6f0541a12366ebd93dbfd" target="_top" xlink:title="bf_ziv_rounding">
<polygon fill="none" stroke="#000000" points="196,-.5 196,-19.5 281,-19.5 281,-.5 196,-.5"/>
<text text-anchor="middle" x="238.5" y="-7.5" font-family="Helvetica,sans-Serif" font-size="10.00" fill="#000000">bf_ziv_rounding</text>
</a>
</g>
</g>
<!-- Node4147&#45;&gt;Node4244 -->
<g id="edge58" class="edge">
<title>Node4147&#45;&gt;Node4244</title>
<path fill="none" stroke="#191970" d="M40.0863,-114.4765C78.1329,-94.4427 166.6213,-47.8483 211.4447,-24.2462"/>
<polygon fill="#191970" stroke="#191970" points="213.0953,-27.3327 220.3129,-19.5766 209.8339,-21.1389 213.0953,-27.3327"/>
</g>
<!-- Node4149 -->
<g id="node3" class="node">
<title>Node4149</title>
<g id="a_node3"><a xlink:href="libbf_8h.html#a2b9d906b21e903f2f7f1c9044674ab7d" target="_top" xlink:title="bf_delete">
<polygon fill="none" stroke="#000000" points="528,-722.5 528,-741.5 584,-741.5 584,-722.5 528,-722.5"/>
<text text-anchor="middle" x="556" y="-729.5" font-family="Helvetica,sans-Serif" font-size="10.00" fill="#000000">bf_delete</text>
</a>
</g>
</g>
<!-- Node4148&#45;&gt;Node4149 -->
<g id="edge2" class="edge">
<title>Node4148&#45;&gt;Node4149</title>
<path fill="none" stroke="#191970" d="M120.6428,-247.8552C124.8965,-304.3307 154.1099,-588.7738 317,-715 379.5627,-763.4809 413.4445,-757.6706 492,-748 500.5787,-746.9439 509.6615,-745.12 518.2055,-743.0727"/>
<polygon fill="#191970" stroke="#191970" points="519.0975,-746.4574 527.9256,-740.5994 517.3713,-739.6735 519.0975,-746.4574"/>
</g>
<!-- Node4151 -->
<g id="node5" class="node">
<title>Node4151</title>
<g id="a_node5"><a xlink:href="libbf_8h.html#a030665e68e114717678fb0d0453bb3c6" target="_top" xlink:title="bf_div">
<polygon fill="none" stroke="#000000" points="329,-228.5 329,-247.5 372,-247.5 372,-228.5 329,-228.5"/>
<text text-anchor="middle" x="350.5" y="-235.5" font-family="Helvetica,sans-Serif" font-size="10.00" fill="#000000">bf_div</text>
</a>
</g>
</g>
<!-- Node4148&#45;&gt;Node4151 -->
<g id="edge4" class="edge">
<title>Node4148&#45;&gt;Node4151</title>
<path fill="none" stroke="#191970" d="M160.15,-238C205.239,-238 277.4909,-238 318.7961,-238"/>
<polygon fill="#191970" stroke="#191970" points="318.8411,-241.5001 328.841,-238 318.841,-234.5001 318.8411,-241.5001"/>
</g>
<!-- Node4154 -->
<g id="node7" class="node">
<title>Node4154</title>
<g id="a_node7"><a xlink:href="libbf_8h.html#abacc1410890af049e02ebd788364ac48" target="_top" xlink:title="bf_init">
<polygon fill="none" stroke="#000000" points="632.5,-494.5 632.5,-513.5 675.5,-513.5 675.5,-494.5 632.5,-494.5"/>
<text text-anchor="middle" x="654" y="-501.5" font-family="Helvetica,sans-Serif" font-size="10.00" fill="#000000">bf_init</text>
</a>
</g>
</g>
<!-- Node4148&#45;&gt;Node4154 -->
<g id="edge18" class="edge">
<title>Node4148&#45;&gt;Node4154</title>
<path fill="none" stroke="#191970" d="M127.1764,-228.4917C153.1876,-195.2152 246.4811,-86 350.5,-86 350.5,-86 350.5,-86 456,-86 518.2746,-86 545.246,-94.2532 584,-143 626.9079,-196.9718 647.2432,-416.8748 652.55,-484.2704"/>
<polygon fill="#191970" stroke="#191970" points="649.0702,-484.6698 653.3216,-494.3743 656.0499,-484.1368 649.0702,-484.6698"/>
</g>
<!-- Node4172 -->
<g id="node10" class="node">
<title>Node4172</title>
<g id="a_node10"><a xlink:href="libbf_8h.html#aa6282c789c16c8cf2fe6a8ebd671c6fc" target="_top" xlink:title="bf_set_nan">
<polygon fill="none" stroke="#ff0000" points="621.5,-152.5 621.5,-171.5 686.5,-171.5 686.5,-152.5 621.5,-152.5"/>
<text text-anchor="middle" x="654" y="-159.5" font-family="Helvetica,sans-Serif" font-size="10.00" fill="#000000">bf_set_nan</text>
</a>
</g>
</g>
<!-- Node4148&#45;&gt;Node4172 -->
<g id="edge19" class="edge">
<title>Node4148&#45;&gt;Node4172</title>
<path fill="none" stroke="#191970" d="M121.2758,-228.1564C125.6212,-198.9575 142.6688,-112.356 196,-72 251.4133,-30.0685 281.0098,-48 350.5,-48 350.5,-48 350.5,-48 456,-48 513.8803,-48 534.5817,-41.8677 584,-72 612.3048,-89.2586 633.5342,-122.4545 644.8318,-143.3487"/>
<polygon fill="#191970" stroke="#191970" points="641.7305,-144.9714 649.4407,-152.238 647.9449,-141.7493 641.7305,-144.9714"/>
</g>
<!-- Node4169 -->
<g id="node11" class="node">
<title>Node4169</title>
<g id="a_node11"><a xlink:href="libbf_8h.html#a66631c65c00e92a5840a5085a009602d" target="_top" xlink:title="bf_set_zero">
<polygon fill="none" stroke="#ff0000" points="620,-836.5 620,-855.5 688,-855.5 688,-836.5 620,-836.5"/>
<text text-anchor="middle" x="654" y="-843.5" font-family="Helvetica,sans-Serif" font-size="10.00" fill="#000000">bf_set_zero</text>
</a>
</g>
</g>
<!-- Node4148&#45;&gt;Node4169 -->
<g id="edge20" class="edge">
<title>Node4148&#45;&gt;Node4169</title>
<path fill="none" stroke="#191970" d="M120.8844,-247.6605C128.9841,-333.337 193.5908,-960 350.5,-960 350.5,-960 350.5,-960 456,-960 532.7899,-960 606.6705,-894.806 638.1276,-863.0208"/>
<polygon fill="#191970" stroke="#191970" points="640.7521,-865.3415 645.1871,-855.7196 635.7198,-860.4758 640.7521,-865.3415"/>
</g>
<!-- Node4225 -->
<g id="node14" class="node">
<title>Node4225</title>
<g id="a_node14"><a xlink:href="libbf_8c.html#ab769247f7a6429c42dfeba4f8334cb75" target="_top" xlink:title="bf_sincos">
<polygon fill="none" stroke="#000000" points="209,-494.5 209,-513.5 268,-513.5 268,-494.5 209,-494.5"/>
<text text-anchor="middle" x="238.5" y="-501.5" font-family="Helvetica,sans-Serif" font-size="10.00" fill="#000000">bf_sincos</text>
</a>
</g>
</g>
<!-- Node4148&#45;&gt;Node4225 -->
<g id="edge21" class="edge">
<title>Node4148&#45;&gt;Node4225</title>
<path fill="none" stroke="#191970" d="M124.358,-247.7825C141.8172,-286.9735 206.8836,-433.0299 230.1565,-485.2711"/>
<polygon fill="#191970" stroke="#191970" points="226.9608,-486.6987 234.2273,-494.409 233.355,-483.8501 226.9608,-486.6987"/>
</g>
<!-- Node4150 -->
<g id="node4" class="node">
<title>Node4150</title>
<g id="a_node4"><a xlink:href="libbf_8h.html#a524c9e60866c08c75061626a4b5e2f29" target="_top" xlink:title="bf_realloc">
<polygon fill="none" stroke="#000000" points="624.5,-722.5 624.5,-741.5 683.5,-741.5 683.5,-722.5 624.5,-722.5"/>
<text text-anchor="middle" x="654" y="-729.5" font-family="Helvetica,sans-Serif" font-size="10.00" fill="#000000">bf_realloc</text>
</a>
</g>
</g>
<!-- Node4149&#45;&gt;Node4150 -->
<g id="edge3" class="edge">
<title>Node4149&#45;&gt;Node4150</title>
<path fill="none" stroke="#191970" d="M584.0829,-732C593.402,-732 603.9639,-732 614.0035,-732"/>
<polygon fill="#191970" stroke="#191970" points="614.2029,-735.5001 624.2028,-732 614.2028,-728.5001 614.2029,-735.5001"/>
</g>
<!-- Node4152 -->
<g id="node6" class="node">
<title>Node4152</title>
<g id="a_node6"><a xlink:href="libbf_8c.html#ad7a540de8355f07757e52b48d35dd708" target="_top" xlink:title="__bf_div">
<polygon fill="none" stroke="#ff0000" points="429.5,-190.5 429.5,-209.5 482.5,-209.5 482.5,-190.5 429.5,-190.5"/>
<text text-anchor="middle" x="456" y="-197.5" font-family="Helvetica,sans-Serif" font-size="10.00" fill="#000000">__bf_div</text>
</a>
</g>
</g>
<!-- Node4151&#45;&gt;Node4152 -->
<g id="edge5" class="edge">
<title>Node4151&#45;&gt;Node4152</title>
<path fill="none" stroke="#191970" d="M372.1041,-230.2184C385.8827,-225.2555 404.0785,-218.7016 420.0019,-212.9661"/>
<polygon fill="#191970" stroke="#191970" points="421.3407,-216.2041 429.563,-209.5223 418.9686,-209.6183 421.3407,-216.2041"/>
</g>
<!-- Node4210 -->
<g id="node13" class="node">
<title>Node4210</title>
<g id="a_node13"><a xlink:href="libbf_8c.html#a3ebbc1c7473b2ad84ced2b263bf38bae" target="_top" xlink:title="bf_op2">
<polygon fill="none" stroke="#ff0000" points="533,-418.5 533,-437.5 579,-437.5 579,-418.5 533,-418.5"/>
<text text-anchor="middle" x="556" y="-425.5" font-family="Helvetica,sans-Serif" font-size="10.00" fill="#000000">bf_op2</text>
</a>
</g>
</g>
<!-- Node4151&#45;&gt;Node4210 -->
<g id="edge16" class="edge">
<title>Node4151&#45;&gt;Node4210</title>
<path fill="none" stroke="#191970" d="M372.0657,-241.6242C402.3136,-247.7223 457.4944,-262.6855 492,-295 525.6836,-326.5448 543.6486,-379.5283 551.3407,-408.1751"/>
<polygon fill="#191970" stroke="#191970" points="548.0284,-409.3531 553.8737,-418.1896 554.8147,-407.6366 548.0284,-409.3531"/>
</g>
<!-- Node4152&#45;&gt;Node4149 -->
<g id="edge6" class="edge">
<title>Node4152&#45;&gt;Node4149</title>
<path fill="none" stroke="#191970" d="M460.682,-209.7112C468.5975,-226.6076 484.4942,-262.7021 492,-295 530.4012,-460.2417 481.8468,-511.7537 528,-675 531.8122,-688.484 538.7404,-702.6284 544.7511,-713.454"/>
<polygon fill="#191970" stroke="#191970" points="541.8599,-715.4459 549.8975,-722.3488 547.9189,-711.9403 541.8599,-715.4459"/>
</g>
<!-- Node4152&#45;&gt;Node4154 -->
<g id="edge7" class="edge">
<title>Node4152&#45;&gt;Node4154</title>
<path fill="none" stroke="#191970" d="M482.5389,-205.9831C511.599,-213.9001 557.5741,-230.6674 584,-262 613.0983,-296.5013 640.7763,-432.6669 650.4109,-484.1455"/>
<polygon fill="#191970" stroke="#191970" points="647.0261,-485.0913 652.28,-494.2916 653.9103,-483.823 647.0261,-485.0913"/>
</g>
<!-- Node4155 -->
<g id="node8" class="node">
<title>Node4155</title>
<g id="a_node8"><a xlink:href="libbf_8h.html#a4954f3435332238433d15977d55ae566" target="_top" xlink:title="bf_max">
<polygon fill="none" stroke="#000000" points="531.5,-304.5 531.5,-323.5 580.5,-323.5 580.5,-304.5 531.5,-304.5"/>
<text text-anchor="middle" x="556" y="-311.5" font-family="Helvetica,sans-Serif" font-size="10.00" fill="#000000">bf_max</text>
</a>
</g>
</g>
<!-- Node4152&#45;&gt;Node4155 -->
<g id="edge8" class="edge">
<title>Node4152&#45;&gt;Node4155</title>
<path fill="none" stroke="#191970" d="M474.163,-209.7012C480.3267,-213.584 486.9291,-218.4584 492,-224 514.5565,-248.6505 506.9703,-264.0347 528,-290 530.1357,-292.6369 532.5872,-295.2107 535.1322,-297.6344"/>
<polygon fill="#191970" stroke="#191970" points="532.9957,-300.4157 542.8255,-304.3686 537.6063,-295.1485 532.9957,-300.4157"/>
</g>
<!-- Node4156 -->
<g id="node9" class="node">
<title>Node4156</title>
<g id="a_node9"><a xlink:href="libbf_8h.html#ac290278d0c37a0e7786873f98aadba47" target="_top" xlink:title="bf_mul">
<polygon fill="none" stroke="#ff0000" points="533,-456.5 533,-475.5 579,-475.5 579,-456.5 533,-456.5"/>
<text text-anchor="middle" x="556" y="-463.5" font-family="Helvetica,sans-Serif" font-size="10.00" fill="#000000">bf_mul</text>
</a>
</g>
</g>
<!-- Node4152&#45;&gt;Node4156 -->
<g id="edge9" class="edge">
<title>Node4152&#45;&gt;Node4156</title>
<path fill="none" stroke="#191970" d="M460.0997,-209.5661C467.2649,-226.5365 482.2319,-263.1283 492,-295 512.3433,-361.377 488.5953,-389.8421 528,-447 528.6335,-447.919 529.3273,-448.8062 530.0688,-449.6613"/>
<polygon fill="#191970" stroke="#191970" points="527.9089,-452.4251 537.6966,-456.4813 532.5746,-447.2068 527.9089,-452.4251"/>
</g>
<!-- Node4152&#45;&gt;Node4172 -->
<g id="edge14" class="edge">
<title>Node4152&#45;&gt;Node4172</title>
<path fill="none" stroke="#191970" d="M482.6373,-196.9738C508.6414,-193.8017 549.2561,-188.2676 584,-181 593.1422,-179.0877 602.863,-176.6885 612.0597,-174.2451"/>
<polygon fill="#191970" stroke="#191970" points="613.0524,-177.6024 621.7811,-171.5974 611.2128,-170.8484 613.0524,-177.6024"/>
</g>
<!-- Node4152&#45;&gt;Node4169 -->
<g id="edge15" class="edge">
<title>Node4152&#45;&gt;Node4169</title>
<path fill="none" stroke="#191970" d="M468.08,-209.7104C482.2637,-221.0381 506.5768,-240.2258 528,-256 552.4234,-273.9833 568.9132,-268.6886 584,-295 634.5625,-383.1809 598.6873,-651.6108 620,-751 625.8261,-778.1695 637.4861,-808.1433 645.5135,-827.0147"/>
<polygon fill="#191970" stroke="#191970" points="642.3404,-828.4947 649.5392,-836.2682 648.7593,-825.7021 642.3404,-828.4947"/>
</g>
<!-- Node4214 -->
<g id="node12" class="node">
<title>Node4214</title>
<g id="a_node12"><a xlink:href="libbf_8h.html#abd4ca8358212228a53981a32a10286b5" target="_top" xlink:title="bf_round">
<polygon fill="none" stroke="#ff0000" points="529,-152.5 529,-171.5 583,-171.5 583,-152.5 529,-152.5"/>
<text text-anchor="middle" x="556" y="-159.5" font-family="Helvetica,sans-Serif" font-size="10.00" fill="#000000">bf_round</text>
</a>
</g>
</g>
<!-- Node4152&#45;&gt;Node4214 -->
<g id="edge13" class="edge">
<title>Node4152&#45;&gt;Node4214</title>
<path fill="none" stroke="#191970" d="M481.2342,-190.411C493.3142,-185.8206 507.9745,-180.2497 521.102,-175.2612"/>
<polygon fill="#191970" stroke="#191970" points="522.6693,-178.4099 530.7739,-171.5859 520.1827,-171.8664 522.6693,-178.4099"/>
</g>
<!-- Node4156&#45;&gt;Node4154 -->
<g id="edge10" class="edge">
<title>Node4156&#45;&gt;Node4154</title>
<path fill="none" stroke="#191970" d="M579.2246,-475.0055C592.2854,-480.0699 608.7617,-486.4586 622.922,-491.9493"/>
<polygon fill="#191970" stroke="#191970" points="621.6958,-495.2278 632.2848,-495.5798 624.2266,-488.7012 621.6958,-495.2278"/>
</g>
<!-- Node4156&#45;&gt;Node4172 -->
<g id="edge11" class="edge">
<title>Node4156&#45;&gt;Node4172</title>
<path fill="none" stroke="#191970" d="M574.2808,-456.4656C577.9472,-453.8289 581.4507,-450.6653 584,-447 614.615,-402.9833 642.2046,-238.7055 651.0501,-181.6621"/>
<polygon fill="#191970" stroke="#191970" points="654.5138,-182.1646 652.5646,-171.7507 647.5942,-181.1072 654.5138,-182.1646"/>
</g>
<!-- Node4156&#45;&gt;Node4169 -->
<g id="edge12" class="edge">
<title>Node4156&#45;&gt;Node4169</title>
<path fill="none" stroke="#191970" d="M557.7306,-475.7042C564.3341,-512.2033 589.1344,-644.5814 620,-751 627.7815,-777.8293 639.0617,-808.0967 646.4621,-827.1081"/>
<polygon fill="#191970" stroke="#191970" points="643.2076,-828.3959 650.1275,-836.4187 649.721,-825.8316 643.2076,-828.3959"/>
</g>
<!-- Node4210&#45;&gt;Node4154 -->
<g id="edge17" class="edge">
<title>Node4210&#45;&gt;Node4154</title>
<path fill="none" stroke="#191970" d="M570.701,-437.6244C575.0387,-440.558 579.7585,-443.8434 584,-447 601.6997,-460.1726 621.1017,-476.0952 634.981,-487.7595"/>
<polygon fill="#191970" stroke="#191970" points="632.9487,-490.6246 642.8445,-494.4093 637.4687,-485.2795 632.9487,-490.6246"/>
</g>
<!-- Node4225&#45;&gt;Node4149 -->
<g id="edge29" class="edge">
<title>Node4225&#45;&gt;Node4149</title>
<path fill="none" stroke="#191970" d="M240.4274,-513.6485C246.6182,-542.4058 268.4913,-628.7118 317,-680 352.3762,-717.4032 369.9638,-720.8817 420,-733 451.1009,-740.5323 460.001,-733.25 492,-733 500.374,-732.9346 509.3638,-732.821 517.8812,-732.6933"/>
<polygon fill="#191970" stroke="#191970" points="518.0201,-736.1917 527.9631,-732.5329 517.9086,-729.1926 518.0201,-736.1917"/>
</g>
<!-- Node4225&#45;&gt;Node4151 -->
<g id="edge30" class="edge">
<title>Node4225&#45;&gt;Node4151</title>
<path fill="none" stroke="#191970" d="M239.4714,-494.2486C243.358,-459.455 260.4237,-339.3675 317,-262 319.134,-259.0818 321.7308,-256.3805 324.5245,-253.9242"/>
<polygon fill="#191970" stroke="#191970" points="326.8808,-256.5285 332.6987,-247.6739 322.6288,-250.9678 326.8808,-256.5285"/>
</g>
<!-- Node4225&#45;&gt;Node4154 -->
<g id="edge31" class="edge">
<title>Node4225&#45;&gt;Node4154</title>
<path fill="none" stroke="#191970" d="M239.1787,-513.574C242.0345,-546.5661 255.9431,-656.6958 317,-715 403.5989,-797.6946 488.4826,-823.2094 584,-751 621.0104,-723.0208 644.1196,-577.1908 651.4602,-523.6984"/>
<polygon fill="#191970" stroke="#191970" points="654.9327,-524.1361 652.7866,-513.7609 647.9943,-523.2099 654.9327,-524.1361"/>
</g>
<!-- Node4225&#45;&gt;Node4155 -->
<g id="edge33" class="edge">
<title>Node4225&#45;&gt;Node4155</title>
<path fill="none" stroke="#191970" d="M239.1317,-494.3063C241.8009,-461.9816 255.0914,-357.2053 317,-309 376.4031,-262.7456 471.6294,-284.5553 522.0802,-301.1924"/>
<polygon fill="#191970" stroke="#191970" points="520.955,-304.5065 531.5495,-304.4291 523.2191,-297.8828 520.955,-304.5065"/>
</g>
<!-- Node4225&#45;&gt;Node4156 -->
<g id="edge34" class="edge">
<title>Node4225&#45;&gt;Node4156</title>
<path fill="none" stroke="#191970" d="M242.8287,-494.3732C252.7581,-473.4241 279.2574,-423.5375 317,-398 356.1953,-371.4796 373.0638,-377.0496 420,-371 451.7375,-366.9093 464.9597,-353.888 492,-371 523.5828,-390.9866 503.6802,-418.6189 528,-447 528.8601,-448.0037 529.7852,-448.9777 530.7574,-449.9196"/>
<polygon fill="#191970" stroke="#191970" points="528.8589,-452.8862 538.8303,-456.4671 533.2683,-447.4496 528.8589,-452.8862"/>
</g>
<!-- Node4225&#45;&gt;Node4172 -->
<g id="edge47" class="edge">
<title>Node4225&#45;&gt;Node4172</title>
<path fill="none" stroke="#191970" d="M239.9561,-494.3451C246.9003,-449.4529 277.9382,-261.5174 317,-219 384.4353,-145.5991 429.7472,-159.781 528,-143 552.5336,-138.8098 559.3293,-139.7113 584,-143 594.4849,-144.3977 605.6258,-146.9238 615.8632,-149.6873"/>
<polygon fill="#191970" stroke="#191970" points="615.1656,-153.1277 625.7417,-152.497 617.0807,-146.3947 615.1656,-153.1277"/>
</g>
<!-- Node4225&#45;&gt;Node4169 -->
<g id="edge49" class="edge">
<title>Node4225&#45;&gt;Node4169</title>
<path fill="none" stroke="#191970" d="M239.4872,-513.7554C244.83,-564.8694 271.7302,-801.5646 317,-857 392.4998,-949.4537 471.9104,-927.0345 584,-886 600.9803,-879.7837 618.6489,-869.655 631.987,-861.1456"/>
<polygon fill="#191970" stroke="#191970" points="634.0268,-863.9935 640.4676,-855.5812 630.1866,-858.1408 634.0268,-863.9935"/>
</g>
<!-- Node4203 -->
<g id="node15" class="node">
<title>Node4203</title>
<g id="a_node15"><a xlink:href="libbf_8h.html#a17dc09166f82ffa408f54a2edc4d7855" target="_top" xlink:title="bf_add">
<polygon fill="none" stroke="#ff0000" points="433,-418.5 433,-437.5 479,-437.5 479,-418.5 433,-418.5"/>
<text text-anchor="middle" x="456" y="-425.5" font-family="Helvetica,sans-Serif" font-size="10.00" fill="#000000">bf_add</text>
</a>
</g>
</g>
<!-- Node4225&#45;&gt;Node4203 -->
<g id="edge22" class="edge">
<title>Node4225&#45;&gt;Node4203</title>
<path fill="none" stroke="#191970" d="M248.174,-494.4619C262.0962,-481.3664 289.181,-458.174 317,-447 351.2701,-433.2348 393.7077,-429.1103 422.615,-428.0352"/>
<polygon fill="#191970" stroke="#191970" points="423.0832,-431.5241 432.9863,-427.7587 422.8966,-424.5266 423.0832,-431.5241"/>
</g>
<!-- Node4211 -->
<g id="node16" class="node">
<title>Node4211</title>
<g id="a_node16"><a xlink:href="libbf_8h.html#a50a5aa2767f2389a32daf115aaef07af" target="_top" xlink:title="bf_add_si">
<polygon fill="none" stroke="#ff0000" points="321,-608.5 321,-627.5 380,-627.5 380,-608.5 321,-608.5"/>
<text text-anchor="middle" x="350.5" y="-615.5" font-family="Helvetica,sans-Serif" font-size="10.00" fill="#000000">bf_add_si</text>
</a>
</g>
</g>
<!-- Node4225&#45;&gt;Node4211 -->
<g id="edge24" class="edge">
<title>Node4225&#45;&gt;Node4211</title>
<path fill="none" stroke="#191970" d="M245.6492,-513.579C258.7261,-530.7639 287.8455,-567.5073 317,-594 320.2167,-596.923 323.7932,-599.8102 327.3776,-602.5141"/>
<polygon fill="#191970" stroke="#191970" points="325.4281,-605.4231 335.59,-608.4208 329.5154,-599.7403 325.4281,-605.4231"/>
</g>
<!-- Node4226 -->
<g id="node17" class="node">
<title>Node4226</title>
<g id="a_node17"><a xlink:href="libbf_8h.html#aff86bca731f3c8ffe45f0f1129175961" target="_top" xlink:title="bf_const_pi">
<polygon fill="none" stroke="#ff0000" points="317,-532.5 317,-551.5 384,-551.5 384,-532.5 317,-532.5"/>
<text text-anchor="middle" x="350.5" y="-539.5" font-family="Helvetica,sans-Serif" font-size="10.00" fill="#000000">bf_const_pi</text>
</a>
</g>
</g>
<!-- Node4225&#45;&gt;Node4226 -->
<g id="edge28" class="edge">
<title>Node4225&#45;&gt;Node4226</title>
<path fill="none" stroke="#191970" d="M266.7623,-513.589C280.6899,-518.3144 297.6798,-524.0789 312.707,-529.1774"/>
<polygon fill="#191970" stroke="#191970" points="311.6524,-532.5155 322.2467,-532.4141 313.9015,-525.8866 311.6524,-532.5155"/>
</g>
<!-- Node4233 -->
<g id="node18" class="node">
<title>Node4233</title>
<g id="a_node18"><a xlink:href="libbf_8c.html#aa66b0740c67d6282af8593704eeb3de7" target="_top" xlink:title="bf_isqrt">
<polygon fill="none" stroke="#ff0000" points="326,-456.5 326,-475.5 375,-475.5 375,-456.5 326,-456.5"/>
<text text-anchor="middle" x="350.5" y="-463.5" font-family="Helvetica,sans-Serif" font-size="10.00" fill="#000000">bf_isqrt</text>
</a>
</g>
</g>
<!-- Node4225&#45;&gt;Node4233 -->
<g id="edge32" class="edge">
<title>Node4225&#45;&gt;Node4233</title>
<path fill="none" stroke="#191970" d="M266.7623,-494.411C281.6467,-489.3609 300.0288,-483.1242 315.7748,-477.7818"/>
<polygon fill="#191970" stroke="#191970" points="317.3331,-480.9491 325.6783,-474.4216 315.084,-474.3202 317.3331,-480.9491"/>
</g>
<!-- Node4234 -->
<g id="node19" class="node">
<title>Node4234</title>
<g id="a_node19"><a xlink:href="libbf_8h.html#ae1d5fe9356228cc3a566786637f26680" target="_top" xlink:title="bf_mul_2exp">
<polygon fill="none" stroke="#ff0000" points="420,-304.5 420,-323.5 492,-323.5 492,-304.5 420,-304.5"/>
<text text-anchor="middle" x="456" y="-311.5" font-family="Helvetica,sans-Serif" font-size="10.00" fill="#000000">bf_mul_2exp</text>
</a>
</g>
</g>
<!-- Node4225&#45;&gt;Node4234 -->
<g id="edge35" class="edge">
<title>Node4225&#45;&gt;Node4234</title>
<path fill="none" stroke="#191970" d="M239.9602,-494.1892C244.8466,-465.0818 263.4519,-378.7094 317,-338 343.3327,-317.9808 380.5746,-312.4057 409.8826,-311.6056"/>
<polygon fill="#191970" stroke="#191970" points="409.9228,-315.1054 419.8874,-311.5058 409.853,-308.1058 409.9228,-315.1054"/>
</g>
<!-- Node4229 -->
<g id="node20" class="node">
<title>Node4229</title>
<g id="a_node20"><a xlink:href="libbf_8h.html#acee0d550162528b5ca5513d4479549c2" target="_top" xlink:title="bf_mul_ui">
<polygon fill="none" stroke="#000000" points="426.5,-608.5 426.5,-627.5 485.5,-627.5 485.5,-608.5 426.5,-608.5"/>
<text text-anchor="middle" x="456" y="-615.5" font-family="Helvetica,sans-Serif" font-size="10.00" fill="#000000">bf_mul_ui</text>
</a>
</g>
</g>
<!-- Node4225&#45;&gt;Node4229 -->
<g id="edge37" class="edge">
<title>Node4225&#45;&gt;Node4229</title>
<path fill="none" stroke="#191970" d="M240.7295,-513.7279C247.2239,-539.5066 268.8017,-609.4804 317,-637 351.3959,-656.6389 398.1813,-643.6609 427.737,-631.5797"/>
<polygon fill="#191970" stroke="#191970" points="429.2573,-634.7358 437.057,-627.5653 426.4881,-628.3068 429.2573,-634.7358"/>
</g>
<!-- Node4213 -->
<g id="node21" class="node">
<title>Node4213</title>
<g id="a_node21"><a xlink:href="libbf_8h.html#a5bcb10b6c7836aea03e8167384299774" target="_top" xlink:title="bf_set_ui">
<polygon fill="none" stroke="#ff0000" points="528,-646.5 528,-665.5 584,-665.5 584,-646.5 528,-646.5"/>
<text text-anchor="middle" x="556" y="-653.5" font-family="Helvetica,sans-Serif" font-size="10.00" fill="#000000">bf_set_ui</text>
</a>
</g>
</g>
<!-- Node4225&#45;&gt;Node4213 -->
<g id="edge48" class="edge">
<title>Node4225&#45;&gt;Node4213</title>
<path fill="none" stroke="#191970" d="M240.0331,-513.8169C245.0329,-542.0582 263.7312,-623.5572 317,-656 378.9977,-693.7589 467.8759,-679.9099 517.941,-667.3552"/>
<polygon fill="#191970" stroke="#191970" points="518.927,-670.7151 527.7143,-664.7962 517.1539,-663.9434 518.927,-670.7151"/>
</g>
<!-- Node4235 -->
<g id="node22" class="node">
<title>Node4235</title>
<g id="a_node22"><a xlink:href="libbf_8h.html#aa561bc5220ec0489f4d3e59789d43d26" target="_top" xlink:title="bf_neg">
<polygon fill="none" stroke="#000000" points="433,-380.5 433,-399.5 479,-399.5 479,-380.5 433,-380.5"/>
<text text-anchor="middle" x="456" y="-387.5" font-family="Helvetica,sans-Serif" font-size="10.00" fill="#000000">bf_neg</text>
</a>
</g>
</g>
<!-- Node4225&#45;&gt;Node4235 -->
<g id="edge42" class="edge">
<title>Node4225&#45;&gt;Node4235</title>
<path fill="none" stroke="#191970" d="M245.5733,-494.3488C258.0988,-477.9665 285.8177,-444.7691 317,-427 350.2367,-408.0601 393.4681,-398.5385 422.8317,-393.9454"/>
<polygon fill="#191970" stroke="#191970" points="423.587,-397.3724 432.9782,-392.4678 422.5782,-390.4455 423.587,-397.3724"/>
</g>
<!-- Node4236 -->
<g id="node23" class="node">
<title>Node4236</title>
<g id="a_node23"><a xlink:href="libbf_8h.html#ac05bdf08f7852acc28d905777ef1416c" target="_top" xlink:title="bf_remquo">
<polygon fill="none" stroke="#ff0000" points="425,-874.5 425,-893.5 487,-893.5 487,-874.5 425,-874.5"/>
<text text-anchor="middle" x="456" y="-881.5" font-family="Helvetica,sans-Serif" font-size="10.00" fill="#000000">bf_remquo</text>
</a>
</g>
</g>
<!-- Node4225&#45;&gt;Node4236 -->
<g id="edge43" class="edge">
<title>Node4225&#45;&gt;Node4236</title>
<path fill="none" stroke="#191970" d="M239.7408,-513.7272C246.0261,-561.6822 275.6786,-772.6043 317,-822 341.8603,-851.7181 383.844,-867.733 415.1793,-875.9928"/>
<polygon fill="#191970" stroke="#191970" points="414.3957,-879.4044 424.9437,-878.4096 416.0776,-872.6095 414.3957,-879.4044"/>
</g>
<!-- Node4208 -->
<g id="node24" class="node">
<title>Node4208</title>
<g id="a_node24"><a xlink:href="libbf_8h.html#ad7826160be73aad5e1f346a024fcbb78" target="_top" xlink:title="bf_set">
<polygon fill="none" stroke="#ff0000" points="434,-532.5 434,-551.5 478,-551.5 478,-532.5 434,-532.5"/>
<text text-anchor="middle" x="456" y="-539.5" font-family="Helvetica,sans-Serif" font-size="10.00" fill="#000000">bf_set</text>
</a>
</g>
</g>
<!-- Node4225&#45;&gt;Node4208 -->
<g id="edge46" class="edge">
<title>Node4225&#45;&gt;Node4208</title>
<path fill="none" stroke="#191970" d="M247.5241,-513.6123C261.0708,-527.2601 288.1663,-551.6358 317,-561 352.642,-572.5753 395.6505,-563.3736 424.2963,-554.1883"/>
<polygon fill="#191970" stroke="#191970" points="425.4438,-557.4951 433.7941,-550.9741 423.1998,-550.8645 425.4438,-557.4951"/>
</g>
<!-- Node4240 -->
<g id="node25" class="node">
<title>Node4240</title>
<g id="a_node25"><a xlink:href="libbf_8c.html#a15b40c4ae7e9b401fd0c6dc398eacef7" target="_top" xlink:title="bf_sqrt_sin">
<polygon fill="none" stroke="#ff0000" points="318,-494.5 318,-513.5 383,-513.5 383,-494.5 318,-494.5"/>
<text text-anchor="middle" x="350.5" y="-501.5" font-family="Helvetica,sans-Serif" font-size="10.00" fill="#000000">bf_sqrt_sin</text>
</a>
</g>
</g>
<!-- Node4225&#45;&gt;Node4240 -->
<g id="edge50" class="edge">
<title>Node4225&#45;&gt;Node4240</title>
<path fill="none" stroke="#191970" d="M268.2199,-504C280.2879,-504 294.4618,-504 307.6133,-504"/>
<polygon fill="#191970" stroke="#191970" points="307.8816,-507.5001 317.8816,-504 307.8815,-500.5001 307.8816,-507.5001"/>
</g>
<!-- Node4203&#45;&gt;Node4210 -->
<g id="edge23" class="edge">
<title>Node4203&#45;&gt;Node4210</title>
<path fill="none" stroke="#191970" d="M479.1934,-428C492.0671,-428 508.3069,-428 522.5342,-428"/>
<polygon fill="#191970" stroke="#191970" points="522.9325,-431.5001 532.9324,-428 522.9324,-424.5001 522.9325,-431.5001"/>
</g>
<!-- Node4211&#45;&gt;Node4149 -->
<g id="edge26" class="edge">
<title>Node4211&#45;&gt;Node4149</title>
<path fill="none" stroke="#191970" d="M354.8469,-627.5013C363.9771,-646.2863 387.06,-688.0776 420,-708 449.6001,-725.9024 489.0345,-731.2487 517.8158,-732.5055"/>
<polygon fill="#191970" stroke="#191970" points="517.8018,-736.0065 527.8995,-732.7992 518.0057,-729.0095 517.8018,-736.0065"/>
</g>
<!-- Node4211&#45;&gt;Node4154 -->
<g id="edge27" class="edge">
<title>Node4211&#45;&gt;Node4154</title>
<path fill="none" stroke="#191970" d="M375.8542,-608.4765C431.1854,-587.6931 562.619,-538.3243 622.862,-515.696"/>
<polygon fill="#191970" stroke="#191970" points="624.1052,-518.9679 632.2359,-512.175 621.6437,-512.4149 624.1052,-518.9679"/>
</g>
<!-- Node4211&#45;&gt;Node4203 -->
<g id="edge25" class="edge">
<title>Node4211&#45;&gt;Node4203</title>
<path fill="none" stroke="#191970" d="M356.2945,-608.3779C363.0573,-597.0939 374.5229,-577.7942 384,-561 406.7836,-520.6255 432.3887,-472.6776 446.0857,-446.8085"/>
<polygon fill="#191970" stroke="#191970" points="449.2985,-448.2198 450.8762,-437.7431 443.1095,-444.9492 449.2985,-448.2198"/>
</g>
<!-- Node4234&#45;&gt;Node4155 -->
<g id="edge36" class="edge">
<title>Node4234&#45;&gt;Node4155</title>
<path fill="none" stroke="#191970" d="M492.1023,-314C501.5325,-314 511.6792,-314 521.0484,-314"/>
<polygon fill="#191970" stroke="#191970" points="521.2167,-317.5001 531.2167,-314 521.2166,-310.5001 521.2167,-317.5001"/>
</g>
<!-- Node4229&#45;&gt;Node4149 -->
<g id="edge38" class="edge">
<title>Node4229&#45;&gt;Node4149</title>
<path fill="none" stroke="#191970" d="M464.5259,-627.7196C481.4262,-646.9858 519.3803,-690.2536 540.7072,-714.5662"/>
<polygon fill="#191970" stroke="#191970" points="538.2701,-717.0955 547.4956,-722.305 543.5324,-712.4794 538.2701,-717.0955"/>
</g>
<!-- Node4229&#45;&gt;Node4154 -->
<g id="edge39" class="edge">
<title>Node4229&#45;&gt;Node4154</title>
<path fill="none" stroke="#191970" d="M485.5497,-618.2801C512.942,-617.2573 553.8857,-612.3619 584,-594 612.3048,-576.7414 633.5342,-543.5455 644.8318,-522.6513"/>
<polygon fill="#191970" stroke="#191970" points="647.9449,-524.2507 649.4407,-513.762 641.7305,-521.0286 647.9449,-524.2507"/>
</g>
<!-- Node4229&#45;&gt;Node4156 -->
<g id="edge40" class="edge">
<title>Node4229&#45;&gt;Node4156</title>
<path fill="none" stroke="#191970" d="M462.2554,-608.4917C478.6006,-583.6471 522.7948,-516.4719 544.1419,-484.0243"/>
<polygon fill="#191970" stroke="#191970" points="547.1747,-485.7825 549.7469,-475.5047 541.3267,-481.9352 547.1747,-485.7825"/>
</g>
<!-- Node4229&#45;&gt;Node4213 -->
<g id="edge41" class="edge">
<title>Node4229&#45;&gt;Node4213</title>
<path fill="none" stroke="#191970" d="M481.2342,-627.589C493.3142,-632.1794 507.9745,-637.7503 521.102,-642.7388"/>
<polygon fill="#191970" stroke="#191970" points="520.1827,-646.1336 530.7739,-646.4141 522.6693,-639.5901 520.1827,-646.1336"/>
</g>
<!-- Node4236&#45;&gt;Node4149 -->
<g id="edge44" class="edge">
<title>Node4236&#45;&gt;Node4149</title>
<path fill="none" stroke="#191970" d="M462.2554,-874.4917C478.6006,-849.6471 522.7948,-782.4719 544.1419,-750.0243"/>
<polygon fill="#191970" stroke="#191970" points="547.1747,-751.7825 549.7469,-741.5047 541.3267,-747.9352 547.1747,-751.7825"/>
</g>
<!-- Node4236&#45;&gt;Node4154 -->
<g id="edge45" class="edge">
<title>Node4236&#45;&gt;Node4154</title>
<path fill="none" stroke="#191970" d="M487.0343,-887.2089C516.0884,-888.3756 558.7094,-885.0689 584,-860 596.2349,-847.8723 638.6882,-596.4323 650.7695,-523.6037"/>
<polygon fill="#191970" stroke="#191970" points="654.2597,-523.9498 652.4384,-513.5127 647.3535,-522.8076 654.2597,-523.9498"/>
</g>
<!-- Node4240&#45;&gt;Node4149 -->
<g id="edge52" class="edge">
<title>Node4240&#45;&gt;Node4149</title>
<path fill="none" stroke="#191970" d="M372.8473,-513.5369C376.9966,-516.1177 380.9715,-519.2578 384,-523 417.4251,-564.3022 388.5483,-594.1759 420,-637 447.5016,-674.4457 494.3444,-702.421 525.2337,-717.9928"/>
<polygon fill="#191970" stroke="#191970" points="523.7493,-721.163 534.2688,-722.424 526.8317,-714.8782 523.7493,-721.163"/>
</g>
<!-- Node4240&#45;&gt;Node4154 -->
<g id="edge53" class="edge">
<title>Node4240&#45;&gt;Node4154</title>
<path fill="none" stroke="#191970" d="M383.2682,-504C441.9971,-504 564.4422,-504 622.3508,-504"/>
<polygon fill="#191970" stroke="#191970" points="622.3827,-507.5001 632.3827,-504 622.3826,-500.5001 622.3827,-507.5001"/>
</g>
<!-- Node4240&#45;&gt;Node4156 -->
<g id="edge54" class="edge">
<title>Node4240&#45;&gt;Node4156</title>
<path fill="none" stroke="#191970" d="M383.3474,-497.2142C394.92,-494.8683 408.0266,-492.2621 420,-490 455.0958,-483.3695 495.3986,-476.3288 522.9642,-471.6006"/>
<polygon fill="#191970" stroke="#191970" points="523.6009,-475.0426 532.868,-469.9074 522.4212,-468.1427 523.6009,-475.0426"/>
</g>
<!-- Node4240&#45;&gt;Node4203 -->
<g id="edge51" class="edge">
<title>Node4240&#45;&gt;Node4203</title>
<path fill="none" stroke="#191970" d="M369.0467,-494.4672C374.0437,-491.637 379.3501,-488.3828 384,-485 401.5519,-472.2312 402.9196,-465.3929 420,-452 423.7591,-449.0525 427.8721,-446.0883 431.9312,-443.2977"/>
<polygon fill="#191970" stroke="#191970" points="434.1917,-445.9974 440.5728,-437.5397 430.3102,-440.1721 434.1917,-445.9974"/>
</g>
<!-- Node4240&#45;&gt;Node4234 -->
<g id="edge55" class="edge">
<title>Node4240&#45;&gt;Node4234</title>
<path fill="none" stroke="#191970" d="M372.8473,-494.4631C376.9966,-491.8823 380.9715,-488.7422 384,-485 417.4251,-443.6978 397.6286,-419.1937 420,-371 426.391,-357.2321 435.5457,-342.7854 443.0237,-331.881"/>
<polygon fill="#191970" stroke="#191970" points="445.9245,-333.8404 448.8134,-323.6471 440.1983,-329.814 445.9245,-333.8404"/>
</g>
<!-- Node4240&#45;&gt;Node4235 -->
<g id="edge56" class="edge">
<title>Node4240&#45;&gt;Node4235</title>
<path fill="none" stroke="#191970" d="M372.1144,-494.3414C376.4125,-491.7418 380.6323,-488.6249 384,-485 409.439,-457.6176 394.1491,-435.9938 420,-409 421.3564,-407.5836 422.8418,-406.2511 424.4122,-405.0008"/>
<polygon fill="#191970" stroke="#191970" points="426.3914,-407.8878 432.7697,-399.428 422.508,-402.0638 426.3914,-407.8878"/>
</g>
<!-- Node4240&#45;&gt;Node4208 -->
<g id="edge57" class="edge">
<title>Node4240&#45;&gt;Node4208</title>
<path fill="none" stroke="#191970" d="M377.1221,-513.589C391.4431,-518.7473 409.2015,-525.1437 424.2401,-530.5604"/>
<polygon fill="#191970" stroke="#191970" points="423.0721,-533.8598 433.6665,-533.9557 425.4443,-527.2739 423.0721,-533.8598"/>
</g>
<!-- Node4244&#45;&gt;Node4214 -->
<g id="edge59" class="edge">
<title>Node4244&#45;&gt;Node4214</title>
<path fill="none" stroke="#191970" d="M258.361,-19.5083C312.5956,-45.4725 463.3997,-117.6685 527.0568,-148.1437"/>
<polygon fill="#191970" stroke="#191970" points="525.6154,-151.3341 536.1465,-152.4953 528.6381,-145.0203 525.6154,-151.3341"/>
</g>
</g>
</svg>
