<?xml version="1.0" encoding="UTF-8" standalone="no"?>
<!DOCTYPE svg PUBLIC "-//W3C//DTD SVG 1.1//EN"
 "http://www.w3.org/Graphics/SVG/1.1/DTD/svg11.dtd">
<!-- Generated by graphviz version 2.40.1 (20161225.0304)
 -->
<!-- Title: __bfdec_add Pages: 1 -->
<svg width="641pt" height="142pt"
 viewBox="0.00 0.00 641.00 142.00" xmlns="http://www.w3.org/2000/svg" xmlns:xlink="http://www.w3.org/1999/xlink">
<g id="graph0" class="graph" transform="scale(1 1) rotate(0) translate(4 138)">
<title>__bfdec_add</title>
<!-- Node28988 -->
<g id="node1" class="node">
<title>Node28988</title>
<polygon fill="#bfbfbf" stroke="#000000" points="0,-38.5 0,-57.5 72,-57.5 72,-38.5 0,-38.5"/>
<text text-anchor="middle" x="36" y="-45.5" font-family="Helvetica,sans-Serif" font-size="10.00" fill="#000000">__bfdec_add</text>
</g>
<!-- Node28989 -->
<g id="node2" class="node">
<title>Node28989</title>
<g id="a_node2"><a xlink:href="libbf_8h.html#a2ab5a868db6e2d3d41c9b95e561054d3" target="_top" xlink:title="bfdec_add">
<polygon fill="none" stroke="#000000" points="108,-38.5 108,-57.5 170,-57.5 170,-38.5 108,-38.5"/>
<text text-anchor="middle" x="139" y="-45.5" font-family="Helvetica,sans-Serif" font-size="10.00" fill="#000000">bfdec_add</text>
</a>
</g>
</g>
<!-- Node28988&#45;&gt;Node28989 -->
<g id="edge1" class="edge">
<title>Node28988&#45;&gt;Node28989</title>
<path fill="none" stroke="#191970" d="M82.1302,-48C90.8728,-48 99.824,-48 107.9613,-48"/>
<polygon fill="#191970" stroke="#191970" points="82.0244,-44.5001 72.0244,-48 82.0244,-51.5001 82.0244,-44.5001"/>
</g>
<!-- Node28990 -->
<g id="node3" class="node">
<title>Node28990</title>
<g id="a_node3"><a xlink:href="libbf_8h.html#a7cb137686dce1e04af24aa61a1a177a6" target="_top" xlink:title="bfdec_add_si">
<polygon fill="none" stroke="#000000" points="216.5,-76.5 216.5,-95.5 290.5,-95.5 290.5,-76.5 216.5,-76.5"/>
<text text-anchor="middle" x="253.5" y="-83.5" font-family="Helvetica,sans-Serif" font-size="10.00" fill="#000000">bfdec_add_si</text>
</a>
</g>
</g>
<!-- Node28989&#45;&gt;Node28990 -->
<g id="edge2" class="edge">
<title>Node28989&#45;&gt;Node28990</title>
<path fill="none" stroke="#191970" d="M177.6465,-60.8259C193.01,-65.9247 210.379,-71.6891 224.6161,-76.4141"/>
<polygon fill="#191970" stroke="#191970" points="178.4866,-57.4171 167.8932,-57.589 176.2817,-64.0608 178.4866,-57.4171"/>
</g>
<!-- Node28993 -->
<g id="node5" class="node">
<title>Node28993</title>
<g id="a_node5"><a xlink:href="quickjs_8c.html#a80ce79e773dd1474e32dc0a781decc4b" target="_top" xlink:title="js_binary_arith_bigdecimal">
<polygon fill="none" stroke="#ff0000" points="502,-76.5 502,-95.5 633,-95.5 633,-76.5 502,-76.5"/>
<text text-anchor="middle" x="567.5" y="-83.5" font-family="Helvetica,sans-Serif" font-size="10.00" fill="#000000">js_binary_arith_bigdecimal</text>
</a>
</g>
</g>
<!-- Node28989&#45;&gt;Node28993 -->
<g id="edge6" class="edge">
<title>Node28989&#45;&gt;Node28993</title>
<path fill="none" stroke="#191970" d="M180.4187,-48.7227C242.6336,-50.1884 363.8154,-54.5185 466,-67 484.952,-69.3149 505.7019,-72.9921 523.4737,-76.4974"/>
<polygon fill="#191970" stroke="#191970" points="180.3036,-45.2194 170.2282,-48.4961 180.1478,-52.2177 180.3036,-45.2194"/>
</g>
<!-- Node28996 -->
<g id="node7" class="node">
<title>Node28996</title>
<g id="a_node7"><a xlink:href="quickjs_8c.html#aba37b9c695bb91e9f06fb58c0f51c1ec" target="_top" xlink:title="js_bigdecimal_fop">
<polygon fill="none" stroke="#000000" points="206,-.5 206,-19.5 301,-19.5 301,-.5 206,-.5"/>
<text text-anchor="middle" x="253.5" y="-7.5" font-family="Helvetica,sans-Serif" font-size="10.00" fill="#000000">js_bigdecimal_fop</text>
</a>
</g>
</g>
<!-- Node28989&#45;&gt;Node28996 -->
<g id="edge7" class="edge">
<title>Node28989&#45;&gt;Node28996</title>
<path fill="none" stroke="#191970" d="M177.6465,-35.1741C193.01,-30.0753 210.379,-24.3109 224.6161,-19.5859"/>
<polygon fill="#191970" stroke="#191970" points="176.2817,-31.9392 167.8932,-38.411 178.4866,-38.5829 176.2817,-31.9392"/>
</g>
<!-- Node28991 -->
<g id="node4" class="node">
<title>Node28991</title>
<g id="a_node4"><a xlink:href="libbf_8h.html#a318508be097917ddd5d1ce187edea68b" target="_top" xlink:title="bfdec_divrem">
<polygon fill="none" stroke="#ff0000" points="364,-114.5 364,-133.5 439,-133.5 439,-114.5 364,-114.5"/>
<text text-anchor="middle" x="401.5" y="-121.5" font-family="Helvetica,sans-Serif" font-size="10.00" fill="#000000">bfdec_divrem</text>
</a>
</g>
</g>
<!-- Node28990&#45;&gt;Node28991 -->
<g id="edge3" class="edge">
<title>Node28990&#45;&gt;Node28991</title>
<path fill="none" stroke="#191970" d="M300.6735,-98.1121C321.2856,-103.4044 345.1093,-109.5213 364.4219,-114.4799"/>
<polygon fill="#191970" stroke="#191970" points="301.4029,-94.6859 290.8466,-95.589 299.662,-101.466 301.4029,-94.6859"/>
</g>
<!-- Node28995 -->
<g id="node6" class="node">
<title>Node28995</title>
<g id="a_node6"><a xlink:href="quickjs_8c.html#a572d2550c3d770ff6581399832c83e62" target="_top" xlink:title="js_unary_arith_bigdecimal">
<polygon fill="none" stroke="#ff0000" points="337,-76.5 337,-95.5 466,-95.5 466,-76.5 337,-76.5"/>
<text text-anchor="middle" x="401.5" y="-83.5" font-family="Helvetica,sans-Serif" font-size="10.00" fill="#000000">js_unary_arith_bigdecimal</text>
</a>
</g>
</g>
<!-- Node28990&#45;&gt;Node28995 -->
<g id="edge5" class="edge">
<title>Node28990&#45;&gt;Node28995</title>
<path fill="none" stroke="#191970" d="M301.0072,-86C312.4074,-86 324.774,-86 336.8071,-86"/>
<polygon fill="#191970" stroke="#191970" points="300.8467,-82.5001 290.8466,-86 300.8466,-89.5001 300.8467,-82.5001"/>
</g>
<!-- Node28991&#45;&gt;Node28993 -->
<g id="edge4" class="edge">
<title>Node28991&#45;&gt;Node28993</title>
<path fill="none" stroke="#191970" d="M449.2179,-113.0766C473.4451,-107.5306 502.6001,-100.8566 525.9024,-95.5223"/>
<polygon fill="#191970" stroke="#191970" points="448.1348,-109.7339 439.168,-115.3772 449.6969,-116.5574 448.1348,-109.7339"/>
</g>
</g>
</svg>
