<?xml version="1.0" encoding="UTF-8" standalone="no"?>
<!DOCTYPE svg PUBLIC "-//W3C//DTD SVG 1.1//EN"
 "http://www.w3.org/Graphics/SVG/1.1/DTD/svg11.dtd">
<!-- Generated by graphviz version 2.40.1 (20161225.0304)
 -->
<!-- Title: fft_mul Pages: 1 -->
<!--zoomable 1003 -->
<svg id="main" version="1.1" xmlns="http://www.w3.org/2000/svg" xmlns:xlink="http://www.w3.org/1999/xlink" xml:space="preserve" onload="init(evt)">
<style type="text/css"><![CDATA[
.edge:hover path { stroke: red; }
.edge:hover polygon { stroke: red; fill: red; }
]]></style>
<script type="text/javascript"><![CDATA[
var edges = document.getElementsByTagName('g');
if (edges && edges.length) {
  for (var i=0;i<edges.length;i++) {
    if (edges[i].id.substr(0,4)=='edge') {
      edges[i].setAttribute('class','edge');
    }
  }
}
]]></script>
        <defs>
                <circle id="rim" cx="0" cy="0" r="7"/>
                <circle id="rim2" cx="0" cy="0" r="3.5"/>
                <g id="zoomPlus">
                        <use xlink:href="#rim" fill="#404040">
                                <set attributeName="fill" to="#808080" begin="zoomplus.mouseover" end="zoomplus.mouseout"/>
                        </use>
                        <path d="M-4,0h8M0,-4v8" fill="none" stroke="white" stroke-width="1.5" pointer-events="none"/>
                </g>
                <g id="zoomMin">
                        <use xlink:href="#rim" fill="#404040">
                                <set attributeName="fill" to="#808080" begin="zoomminus.mouseover" end="zoomminus.mouseout"/>
                        </use>
                        <path d="M-4,0h8" fill="none" stroke="white" stroke-width="1.5" pointer-events="none"/>
                </g>
                <g id="dirArrow">
                        <path fill="none" stroke="white" stroke-width="1.5" d="M0,-3.0v7 M-2.5,-0.5L0,-3.0L2.5,-0.5"/>
                </g>
               <g id="resetDef">
                       <use xlink:href="#rim2" fill="#404040">
                               <set attributeName="fill" to="#808080" begin="reset.mouseover" end="reset.mouseout"/>
                       </use>
               </g>
        </defs>

<script type="text/javascript">
var viewWidth = 555;
var viewHeight = 1003;
var sectionId = 'dynsection-2';
</script>
<script xlink:href="svgpan.js"/>
<svg id="graph" class="graph">
<g id="viewport">
<title>fft_mul</title>
<!-- Node31 -->
<g id="node1" class="node">
<title>Node31</title>
<polygon fill="#bfbfbf" stroke="#000000" points="0,-435.5 0,-454.5 47,-454.5 47,-435.5 0,-435.5"/>
<text text-anchor="middle" x="23.5" y="-442.5" font-family="Helvetica,sans-Serif" font-size="10.00" fill="#000000">fft_mul</text>
</g>
<!-- Node32 -->
<g id="node2" class="node">
<title>Node32</title>
<g id="a_node2"><a xlink:href="libbf_8h.html#ac290278d0c37a0e7786873f98aadba47" target="_top" xlink:title="bf_mul">
<polygon fill="none" stroke="#000000" points="83,-435.5 83,-454.5 129,-454.5 129,-435.5 83,-435.5"/>
<text text-anchor="middle" x="106" y="-442.5" font-family="Helvetica,sans-Serif" font-size="10.00" fill="#000000">bf_mul</text>
</a>
</g>
</g>
<!-- Node31&#45;&gt;Node32 -->
<g id="edge1" class="edge">
<title>Node31&#45;&gt;Node32</title>
<path fill="none" stroke="#191970" d="M57.436,-445C65.9528,-445 74.8993,-445 82.7601,-445"/>
<polygon fill="#191970" stroke="#191970" points="57.3625,-441.5001 47.3624,-445 57.3624,-448.5001 57.3625,-441.5001"/>
</g>
<!-- Node33 -->
<g id="node3" class="node">
<title>Node33</title>
<g id="a_node3"><a xlink:href="libbf_8c.html#a0b349466a7fc3b0a980c4ea6e3a8d03f" target="_top" xlink:title="bf_recip_rec">
<polygon fill="none" stroke="#000000" points="178,-872.5 178,-891.5 248,-891.5 248,-872.5 178,-872.5"/>
<text text-anchor="middle" x="213" y="-879.5" font-family="Helvetica,sans-Serif" font-size="10.00" fill="#000000">bf_recip_rec</text>
</a>
</g>
</g>
<!-- Node32&#45;&gt;Node33 -->
<g id="edge2" class="edge">
<title>Node32&#45;&gt;Node33</title>
<path fill="none" stroke="#191970" d="M106.4537,-465.0391C108.4811,-538.7477 118.7705,-793.86 165,-858 169.4671,-864.1978 175.9973,-868.8875 182.8106,-872.3994"/>
<polygon fill="#191970" stroke="#191970" points="109.9472,-464.7321 106.195,-454.8239 102.9494,-464.9093 109.9472,-464.7321"/>
</g>
<!-- Node35 -->
<g id="node5" class="node">
<title>Node35</title>
<g id="a_node5"><a xlink:href="libbf_8c.html#ad7a540de8355f07757e52b48d35dd708" target="_top" xlink:title="__bf_div">
<polygon fill="none" stroke="#ff0000" points="456,-928.5 456,-947.5 509,-947.5 509,-928.5 456,-928.5"/>
<text text-anchor="middle" x="482.5" y="-935.5" font-family="Helvetica,sans-Serif" font-size="10.00" fill="#000000">__bf_div</text>
</a>
</g>
</g>
<!-- Node32&#45;&gt;Node35 -->
<g id="edge10" class="edge">
<title>Node32&#45;&gt;Node35</title>
<path fill="none" stroke="#191970" d="M106.7621,-464.9482C110.4156,-555.3452 127.5286,-923.5986 165,-957 250.9457,-1033.6105 407.5024,-972.8263 462.6407,-947.6322"/>
<polygon fill="#191970" stroke="#191970" points="110.2581,-464.7764 106.3666,-454.9222 103.2635,-465.0524 110.2581,-464.7764"/>
</g>
<!-- Node72 -->
<g id="node6" class="node">
<title>Node72</title>
<g id="a_node6"><a xlink:href="libbf_8c.html#a7cdab316b6ccee264a2effe61e1a6a27" target="_top" xlink:title="bf_integer_to_radix_rec">
<polygon fill="none" stroke="#ff0000" points="423.5,-834.5 423.5,-853.5 541.5,-853.5 541.5,-834.5 423.5,-834.5"/>
<text text-anchor="middle" x="482.5" y="-841.5" font-family="Helvetica,sans-Serif" font-size="10.00" fill="#000000">bf_integer_to_radix_rec</text>
</a>
</g>
</g>
<!-- Node32&#45;&gt;Node72 -->
<g id="edge43" class="edge">
<title>Node32&#45;&gt;Node72</title>
<path fill="none" stroke="#191970" d="M107.018,-464.6264C110.6443,-527.0969 124.9278,-719.8589 165,-765 229.86,-838.0646 350.889,-848.6105 423.331,-847.6647"/>
<polygon fill="#191970" stroke="#191970" points="110.5073,-464.3347 106.4611,-454.543 103.518,-464.7208 110.5073,-464.3347"/>
</g>
<!-- Node37 -->
<g id="node7" class="node">
<title>Node37</title>
<g id="a_node7"><a xlink:href="libbf_8c.html#a4f1865c8160fb851cce8015c3edb4d4f" target="_top" xlink:title="bf_tdivremu">
<polygon fill="none" stroke="#ff0000" points="179,-928.5 179,-947.5 247,-947.5 247,-928.5 179,-928.5"/>
<text text-anchor="middle" x="213" y="-935.5" font-family="Helvetica,sans-Serif" font-size="10.00" fill="#000000">bf_tdivremu</text>
</a>
</g>
</g>
<!-- Node32&#45;&gt;Node37 -->
<g id="edge8" class="edge">
<title>Node32&#45;&gt;Node37</title>
<path fill="none" stroke="#191970" d="M107.2957,-465.0511C112.9845,-550.6157 136.7266,-882.4843 165,-919 168.6214,-923.6771 173.5659,-927.2054 178.9107,-929.8665"/>
<polygon fill="#191970" stroke="#191970" points="110.7747,-464.615 106.627,-454.8658 103.7898,-465.0737 110.7747,-464.615"/>
</g>
<!-- Node75 -->
<g id="node8" class="node">
<title>Node75</title>
<g id="a_node8"><a xlink:href="libbf_8c.html#a5527d62eeb1da227fff469a53f9290c9" target="_top" xlink:title="__bf_rsqrt">
<polygon fill="none" stroke="#000000" points="183,-360.5 183,-379.5 243,-379.5 243,-360.5 183,-360.5"/>
<text text-anchor="middle" x="213" y="-367.5" font-family="Helvetica,sans-Serif" font-size="10.00" fill="#000000">__bf_rsqrt</text>
</a>
</g>
</g>
<!-- Node32&#45;&gt;Node75 -->
<g id="edge11" class="edge">
<title>Node32&#45;&gt;Node75</title>
<path fill="none" stroke="#191970" d="M128.1943,-429.4433C149.6246,-414.422 181.3937,-392.1539 199.3465,-379.5702"/>
<polygon fill="#191970" stroke="#191970" points="126.1682,-426.5892 119.9884,-435.1951 130.1861,-432.3213 126.1682,-426.5892"/>
</g>
<!-- Node76 -->
<g id="node9" class="node">
<title>Node76</title>
<g id="a_node9"><a xlink:href="libbf_8c.html#a662e03ccb9ec7e7f83eac12e084af566" target="_top" xlink:title="__bf_sqrt">
<polygon fill="none" stroke="#ff0000" points="311,-416.5 311,-435.5 368,-435.5 368,-416.5 311,-416.5"/>
<text text-anchor="middle" x="339.5" y="-423.5" font-family="Helvetica,sans-Serif" font-size="10.00" fill="#000000">__bf_sqrt</text>
</a>
</g>
</g>
<!-- Node32&#45;&gt;Node76 -->
<g id="edge16" class="edge">
<title>Node32&#45;&gt;Node76</title>
<path fill="none" stroke="#191970" d="M139.3012,-442.2903C185.3197,-438.5457 267.5736,-431.8527 310.9377,-428.3241"/>
<polygon fill="#191970" stroke="#191970" points="138.9257,-438.8092 129.2425,-443.1087 139.4935,-445.7861 138.9257,-438.8092"/>
</g>
<!-- Node62 -->
<g id="node11" class="node">
<title>Node62</title>
<g id="a_node11"><a xlink:href="libbf_8c.html#a11d2dea6becda91c288fd883eefc8e5c" target="_top" xlink:title="bf_const_pi_internal">
<polygon fill="none" stroke="#ff0000" points="430.5,-283.5 430.5,-302.5 534.5,-302.5 534.5,-283.5 430.5,-283.5"/>
<text text-anchor="middle" x="482.5" y="-290.5" font-family="Helvetica,sans-Serif" font-size="10.00" fill="#000000">bf_const_pi_internal</text>
</a>
</g>
</g>
<!-- Node32&#45;&gt;Node62 -->
<g id="edge48" class="edge">
<title>Node32&#45;&gt;Node62</title>
<path fill="none" stroke="#191970" d="M112.5557,-425.9204C121.0784,-404.1465 138.1321,-369.2038 165,-351 207.5039,-322.2023 351.8441,-304.9134 430.4486,-297.4128"/>
<polygon fill="#191970" stroke="#191970" points="109.2285,-424.8271 109.0515,-435.4205 115.796,-427.2497 109.2285,-424.8271"/>
</g>
<!-- Node78 -->
<g id="node12" class="node">
<title>Node78</title>
<g id="a_node12"><a xlink:href="libbf_8h.html#ae080fd42a2c7fc561d7084762204357e" target="_top" xlink:title="bf_sqrtrem">
<polygon fill="none" stroke="#ff0000" points="181.5,-132.5 181.5,-151.5 244.5,-151.5 244.5,-132.5 181.5,-132.5"/>
<text text-anchor="middle" x="213" y="-139.5" font-family="Helvetica,sans-Serif" font-size="10.00" fill="#000000">bf_sqrtrem</text>
</a>
</g>
</g>
<!-- Node32&#45;&gt;Node78 -->
<g id="edge17" class="edge">
<title>Node32&#45;&gt;Node78</title>
<path fill="none" stroke="#191970" d="M107.6956,-425.117C112.981,-367.4331 130.8814,-201.5597 165,-161 169.2693,-155.9247 175.0812,-152.1959 181.1871,-149.4594"/>
<polygon fill="#191970" stroke="#191970" points="104.1788,-425.1522 106.7816,-435.4223 111.1514,-425.7706 104.1788,-425.1522"/>
</g>
<!-- Node82 -->
<g id="node13" class="node">
<title>Node82</title>
<g id="a_node13"><a xlink:href="libbf_8h.html#acee0d550162528b5ca5513d4479549c2" target="_top" xlink:title="bf_mul_ui">
<polygon fill="none" stroke="#000000" points="183.5,-284.5 183.5,-303.5 242.5,-303.5 242.5,-284.5 183.5,-284.5"/>
<text text-anchor="middle" x="213" y="-291.5" font-family="Helvetica,sans-Serif" font-size="10.00" fill="#000000">bf_mul_ui</text>
</a>
</g>
</g>
<!-- Node32&#45;&gt;Node82 -->
<g id="edge18" class="edge">
<title>Node32&#45;&gt;Node82</title>
<path fill="none" stroke="#191970" d="M110.6432,-425.6493C118.0204,-398.5438 134.7722,-349.1095 165,-318 170.8434,-311.9861 178.5108,-307.2344 185.9975,-303.6008"/>
<polygon fill="#191970" stroke="#191970" points="107.2173,-424.9184 108.1171,-435.4749 113.9969,-426.6614 107.2173,-424.9184"/>
</g>
<!-- Node83 -->
<g id="node14" class="node">
<title>Node83</title>
<g id="a_node14"><a xlink:href="libbf_8c.html#a81e50b3d7e7a931a93d6ea7e1d630631" target="_top" xlink:title="chud_bs">
<polygon fill="none" stroke="#000000" points="313,-208.5 313,-227.5 366,-227.5 366,-208.5 313,-208.5"/>
<text text-anchor="middle" x="339.5" y="-215.5" font-family="Helvetica,sans-Serif" font-size="10.00" fill="#000000">chud_bs</text>
</a>
</g>
</g>
<!-- Node32&#45;&gt;Node83 -->
<g id="edge47" class="edge">
<title>Node32&#45;&gt;Node83</title>
<path fill="none" stroke="#191970" d="M107.3199,-424.9813C110.7153,-389.7535 122.7407,-316.4917 165,-275 186.2632,-254.1231 269.5727,-233.3317 312.937,-223.6405"/>
<polygon fill="#191970" stroke="#191970" points="103.7972,-425.1165 106.4681,-435.3691 110.7738,-425.6887 103.7972,-425.1165"/>
</g>
<!-- Node42 -->
<g id="node16" class="node">
<title>Node42</title>
<g id="a_node16"><a xlink:href="libbf_8c.html#ab769247f7a6429c42dfeba4f8334cb75" target="_top" xlink:title="bf_sincos">
<polygon fill="none" stroke="#ff0000" points="310,-170.5 310,-189.5 369,-189.5 369,-170.5 310,-170.5"/>
<text text-anchor="middle" x="339.5" y="-177.5" font-family="Helvetica,sans-Serif" font-size="10.00" fill="#000000">bf_sincos</text>
</a>
</g>
</g>
<!-- Node32&#45;&gt;Node42 -->
<g id="edge53" class="edge">
<title>Node32&#45;&gt;Node42</title>
<path fill="none" stroke="#191970" d="M109.028,-425.2381C116.6305,-378.0707 137.8711,-260.7723 165,-233 175.2878,-222.4682 262.7435,-199.2621 309.8016,-187.3587"/>
<polygon fill="#191970" stroke="#191970" points="105.5283,-424.9627 107.4299,-435.3854 112.4431,-426.0517 105.5283,-424.9627"/>
</g>
<!-- Node84 -->
<g id="node17" class="node">
<title>Node84</title>
<g id="a_node17"><a xlink:href="libbf_8h.html#a6fbb1ec8880c203fc01baf940a54cc62" target="_top" xlink:title="bf_mul_si">
<polygon fill="none" stroke="#000000" points="183.5,-492.5 183.5,-511.5 242.5,-511.5 242.5,-492.5 183.5,-492.5"/>
<text text-anchor="middle" x="213" y="-499.5" font-family="Helvetica,sans-Serif" font-size="10.00" fill="#000000">bf_mul_si</text>
</a>
</g>
</g>
<!-- Node32&#45;&gt;Node84 -->
<g id="edge25" class="edge">
<title>Node32&#45;&gt;Node84</title>
<path fill="none" stroke="#191970" d="M131.5829,-459.6485C141.9038,-465.4691 153.9609,-472.157 165,-478 174.2227,-482.8816 184.5631,-488.0855 193.2778,-492.3954"/>
<polygon fill="#191970" stroke="#191970" points="133.0969,-456.4836 122.6715,-454.596 129.6444,-462.5729 133.0969,-456.4836"/>
</g>
<!-- Node56 -->
<g id="node18" class="node">
<title>Node56</title>
<g id="a_node18"><a xlink:href="libbf_8c.html#a157194b3c7faaa17e39ae78cd98c4385" target="_top" xlink:title="bf_exp_internal">
<polygon fill="none" stroke="#000000" points="298,-454.5 298,-473.5 381,-473.5 381,-454.5 298,-454.5"/>
<text text-anchor="middle" x="339.5" y="-461.5" font-family="Helvetica,sans-Serif" font-size="10.00" fill="#000000">bf_exp_internal</text>
</a>
</g>
</g>
<!-- Node32&#45;&gt;Node56 -->
<g id="edge49" class="edge">
<title>Node32&#45;&gt;Node56</title>
<path fill="none" stroke="#191970" d="M139.4278,-447.8591C147.7789,-448.5662 156.716,-449.3167 165,-450 210.4344,-453.7478 262.5352,-457.9101 297.8915,-460.7145"/>
<polygon fill="#191970" stroke="#191970" points="139.5168,-444.3542 129.2564,-446.9951 138.9242,-451.3291 139.5168,-444.3542"/>
</g>
<!-- Node60 -->
<g id="node19" class="node">
<title>Node60</title>
<g id="a_node19"><a xlink:href="libbf_8c.html#aab7bc918fdd8dbef25c31c6881c73fdd" target="_top" xlink:title="bf_log_internal">
<polygon fill="none" stroke="#ff0000" points="299.5,-568.5 299.5,-587.5 379.5,-587.5 379.5,-568.5 299.5,-568.5"/>
<text text-anchor="middle" x="339.5" y="-575.5" font-family="Helvetica,sans-Serif" font-size="10.00" fill="#000000">bf_log_internal</text>
</a>
</g>
</g>
<!-- Node32&#45;&gt;Node60 -->
<g id="edge50" class="edge">
<title>Node32&#45;&gt;Node60</title>
<path fill="none" stroke="#191970" d="M116.1567,-463.7598C126.3715,-480.9604 143.6458,-505.9734 165,-521 205.7903,-549.7034 261.9226,-564.6146 299.3946,-571.8696"/>
<polygon fill="#191970" stroke="#191970" points="118.9704,-461.6277 110.9807,-454.6696 112.8874,-465.0915 118.9704,-461.6277"/>
</g>
<!-- Node85 -->
<g id="node21" class="node">
<title>Node85</title>
<g id="a_node21"><a xlink:href="libbf_8h.html#a113957d698d1dc9dae1e3d5325ba1f15" target="_top" xlink:title="bf_pow_ui">
<polygon fill="none" stroke="#000000" points="182.5,-625.5 182.5,-644.5 243.5,-644.5 243.5,-625.5 182.5,-625.5"/>
<text text-anchor="middle" x="213" y="-632.5" font-family="Helvetica,sans-Serif" font-size="10.00" fill="#000000">bf_pow_ui</text>
</a>
</g>
</g>
<!-- Node32&#45;&gt;Node85 -->
<g id="edge31" class="edge">
<title>Node32&#45;&gt;Node85</title>
<path fill="none" stroke="#191970" d="M113.3109,-464.3389C123.3729,-490.0185 142.7875,-536.3903 165,-573 177.0041,-592.7847 194.2323,-613.6335 204.4527,-625.4086"/>
<polygon fill="#191970" stroke="#191970" points="116.4535,-462.7604 109.5903,-454.689 109.9222,-465.2787 116.4535,-462.7604"/>
</g>
<!-- Node87 -->
<g id="node23" class="node">
<title>Node87</title>
<g id="a_node23"><a xlink:href="libbf_8c.html#a9f41435b46d8ef0a2509a803a7c45950" target="_top" xlink:title="bf_integer_from_radix_rec">
<polygon fill="none" stroke="#ff0000" points="418,-773.5 418,-792.5 547,-792.5 547,-773.5 418,-773.5"/>
<text text-anchor="middle" x="482.5" y="-780.5" font-family="Helvetica,sans-Serif" font-size="10.00" fill="#000000">bf_integer_from_radix_rec</text>
</a>
</g>
</g>
<!-- Node32&#45;&gt;Node87 -->
<g id="edge41" class="edge">
<title>Node32&#45;&gt;Node87</title>
<path fill="none" stroke="#191970" d="M107.9767,-464.567C113.9727,-520.6107 133.4969,-680.3141 165,-721 223.1954,-796.1585 343.2192,-799.0375 417.8808,-792.3582"/>
<polygon fill="#191970" stroke="#191970" points="111.4487,-464.1158 106.9305,-454.5327 104.4864,-464.8417 111.4487,-464.1158"/>
</g>
<!-- Node49 -->
<g id="node24" class="node">
<title>Node49</title>
<g id="a_node24"><a xlink:href="libbf_8h.html#a0b4d56fc6808de8feed2a234525df692" target="_top" xlink:title="bf_mul_pow_radix">
<polygon fill="none" stroke="#ff0000" points="435,-730.5 435,-749.5 530,-749.5 530,-730.5 435,-730.5"/>
<text text-anchor="middle" x="482.5" y="-737.5" font-family="Helvetica,sans-Serif" font-size="10.00" fill="#000000">bf_mul_pow_radix</text>
</a>
</g>
</g>
<!-- Node32&#45;&gt;Node49 -->
<g id="edge42" class="edge">
<title>Node32&#45;&gt;Node49</title>
<path fill="none" stroke="#191970" d="M107.9774,-464.5637C113.6935,-517.1201 131.9717,-659.5269 165,-691 202.9043,-727.1195 355.9855,-736.6148 434.9147,-739.1105"/>
<polygon fill="#191970" stroke="#191970" points="111.4484,-464.1041 106.9211,-454.5253 104.4869,-464.8367 111.4484,-464.1041"/>
</g>
<!-- Node53 -->
<g id="node25" class="node">
<title>Node53</title>
<g id="a_node25"><a xlink:href="libbf_8c.html#ad00b7ad7fdff6f2750b91c0fdb530152" target="_top" xlink:title="bf_convert_to_radix">
<polygon fill="none" stroke="#000000" points="431.5,-692.5 431.5,-711.5 533.5,-711.5 533.5,-692.5 431.5,-692.5"/>
<text text-anchor="middle" x="482.5" y="-699.5" font-family="Helvetica,sans-Serif" font-size="10.00" fill="#000000">bf_convert_to_radix</text>
</a>
</g>
</g>
<!-- Node32&#45;&gt;Node53 -->
<g id="edge44" class="edge">
<title>Node32&#45;&gt;Node53</title>
<path fill="none" stroke="#191970" d="M108.8237,-464.7414C115.9696,-511.8204 136.2675,-628.6543 165,-654 238.8931,-719.1831 362.1003,-717.2388 431.3014,-709.7882"/>
<polygon fill="#191970" stroke="#191970" points="112.2508,-463.9903 107.327,-454.6091 105.3259,-465.0132 112.2508,-463.9903"/>
</g>
<!-- Node89 -->
<g id="node27" class="node">
<title>Node89</title>
<g id="a_node27"><a xlink:href="libbf_8c.html#a829c2ed2112548096d41c6ceb017e542" target="_top" xlink:title="bf_const_log2_rec">
<polygon fill="none" stroke="#ff0000" points="165,-76.5 165,-95.5 261,-95.5 261,-76.5 165,-76.5"/>
<text text-anchor="middle" x="213" y="-83.5" font-family="Helvetica,sans-Serif" font-size="10.00" fill="#000000">bf_const_log2_rec</text>
</a>
</g>
</g>
<!-- Node32&#45;&gt;Node89 -->
<g id="edge45" class="edge">
<title>Node32&#45;&gt;Node89</title>
<path fill="none" stroke="#191970" d="M107.7484,-425.3703C113.5256,-363.6774 133.4502,-174.7307 165,-123 172.1221,-111.3222 184.3888,-101.9634 194.7384,-95.5797"/>
<polygon fill="#191970" stroke="#191970" points="104.2614,-425.0695 106.8347,-435.347 111.2323,-425.7079 104.2614,-425.0695"/>
</g>
<!-- Node80 -->
<g id="node28" class="node">
<title>Node80</title>
<g id="a_node28"><a xlink:href="libbf_8c.html#a15b40c4ae7e9b401fd0c6dc398eacef7" target="_top" xlink:title="bf_sqrt_sin">
<polygon fill="none" stroke="#000000" points="180.5,-170.5 180.5,-189.5 245.5,-189.5 245.5,-170.5 180.5,-170.5"/>
<text text-anchor="middle" x="213" y="-177.5" font-family="Helvetica,sans-Serif" font-size="10.00" fill="#000000">bf_sqrt_sin</text>
</a>
</g>
</g>
<!-- Node32&#45;&gt;Node80 -->
<g id="edge51" class="edge">
<title>Node32&#45;&gt;Node80</title>
<path fill="none" stroke="#191970" d="M108.6641,-425.2707C115.9037,-374.1104 137.2698,-238.7425 165,-204 169.8822,-197.8833 176.7284,-193.1966 183.7241,-189.6602"/>
<polygon fill="#191970" stroke="#191970" points="105.1727,-424.9679 107.2673,-435.3536 112.1065,-425.9285 105.1727,-424.9679"/>
</g>
<!-- Node64 -->
<g id="node29" class="node">
<title>Node64</title>
<g id="a_node29"><a xlink:href="libbf_8c.html#aa4b535a5b33344704c576607ab4f0463" target="_top" xlink:title="bf_atan_internal">
<polygon fill="none" stroke="#ff0000" points="170,-.5 170,-19.5 256,-19.5 256,-.5 170,-.5"/>
<text text-anchor="middle" x="213" y="-7.5" font-family="Helvetica,sans-Serif" font-size="10.00" fill="#000000">bf_atan_internal</text>
</a>
</g>
</g>
<!-- Node32&#45;&gt;Node64 -->
<g id="edge54" class="edge">
<title>Node32&#45;&gt;Node64</title>
<path fill="none" stroke="#191970" d="M106.4666,-425.0573C108.5393,-351.7036 118.9681,-97.82 165,-34 169.4692,-27.8037 176.0002,-23.1145 182.8135,-19.6027"/>
<polygon fill="#191970" stroke="#191970" points="102.9634,-425.1355 106.2015,-435.2234 109.961,-425.318 102.9634,-425.1355"/>
</g>
<!-- Node68 -->
<g id="node30" class="node">
<title>Node68</title>
<g id="a_node30"><a xlink:href="libbf_8c.html#a4a0919b7e170befaf75d114d48d350cc" target="_top" xlink:title="bf_asin_internal">
<polygon fill="none" stroke="#ff0000" points="297,-19.5 297,-38.5 382,-38.5 382,-19.5 297,-19.5"/>
<text text-anchor="middle" x="339.5" y="-26.5" font-family="Helvetica,sans-Serif" font-size="10.00" fill="#000000">bf_asin_internal</text>
</a>
</g>
</g>
<!-- Node32&#45;&gt;Node68 -->
<g id="edge56" class="edge">
<title>Node32&#45;&gt;Node68</title>
<path fill="none" stroke="#191970" d="M106.2429,-425.3918C107.5211,-355.4447 115.4921,-119.5492 165,-67 182.6999,-48.2128 251.191,-37.7893 296.9179,-32.7973"/>
<polygon fill="#191970" stroke="#191970" points="102.7422,-425.4171 106.0857,-435.4705 109.7413,-425.5264 102.7422,-425.4171"/>
</g>
<!-- Node33&#45;&gt;Node33 -->
<g id="edge3" class="edge">
<title>Node33&#45;&gt;Node33</title>
<path fill="none" stroke="#191970" d="M193.3713,-901.4C194.6822,-906.3146 201.2251,-910 213,-910 231.8398,-910 237.2857,-900.5653 229.3377,-891.7571"/>
<polygon fill="#191970" stroke="#191970" points="196.7447,-902.3516 196.6623,-891.7571 190.1199,-900.0906 196.7447,-902.3516"/>
</g>
<!-- Node34 -->
<g id="node4" class="node">
<title>Node34</title>
<g id="a_node4"><a xlink:href="libbf_8h.html#a6b93880f2b2e6beaa16de4ae6596e908" target="_top" xlink:title="bf_recip">
<polygon fill="none" stroke="#000000" points="314,-872.5 314,-891.5 365,-891.5 365,-872.5 314,-872.5"/>
<text text-anchor="middle" x="339.5" y="-879.5" font-family="Helvetica,sans-Serif" font-size="10.00" fill="#000000">bf_recip</text>
</a>
</g>
</g>
<!-- Node33&#45;&gt;Node34 -->
<g id="edge4" class="edge">
<title>Node33&#45;&gt;Node34</title>
<path fill="none" stroke="#191970" d="M258.2934,-882C276.8952,-882 297.7563,-882 313.6768,-882"/>
<polygon fill="#191970" stroke="#191970" points="258.2373,-878.5001 248.2373,-882 258.2373,-885.5001 258.2373,-878.5001"/>
</g>
<!-- Node34&#45;&gt;Node35 -->
<g id="edge5" class="edge">
<title>Node34&#45;&gt;Node35</title>
<path fill="none" stroke="#191970" d="M373.5798,-895.3459C399.6573,-905.5581 434.9815,-919.3914 458.2382,-928.4989"/>
<polygon fill="#191970" stroke="#191970" points="374.6703,-892.0142 364.0826,-891.6267 372.1178,-898.5323 374.6703,-892.0142"/>
</g>
<!-- Node34&#45;&gt;Node72 -->
<g id="edge6" class="edge">
<title>Node34&#45;&gt;Node72</title>
<path fill="none" stroke="#191970" d="M374.9449,-872.5811C396.8043,-866.7723 424.7535,-859.3452 446.6817,-853.5181"/>
<polygon fill="#191970" stroke="#191970" points="373.8312,-869.2555 365.0655,-875.2064 375.629,-876.0207 373.8312,-869.2555"/>
</g>
<!-- Node72&#45;&gt;Node72 -->
<g id="edge7" class="edge">
<title>Node72&#45;&gt;Node72</title>
<path fill="none" stroke="#191970" d="M455.9941,-862.6539C457.1021,-867.9368 465.9374,-872 482.5,-872 507.7383,-872 515.0337,-862.5653 504.3863,-853.7571"/>
<polygon fill="#191970" stroke="#191970" points="459.1117,-864.2449 460.6137,-853.7571 452.8992,-861.0192 459.1117,-864.2449"/>
</g>
<!-- Node37&#45;&gt;Node35 -->
<g id="edge9" class="edge">
<title>Node37&#45;&gt;Node35</title>
<path fill="none" stroke="#191970" d="M257.1948,-938C313.6572,-938 409.604,-938 455.9217,-938"/>
<polygon fill="#191970" stroke="#191970" points="257.1324,-934.5001 247.1324,-938 257.1323,-941.5001 257.1324,-934.5001"/>
</g>
<!-- Node75&#45;&gt;Node75 -->
<g id="edge12" class="edge">
<title>Node75&#45;&gt;Node75</title>
<path fill="none" stroke="#191970" d="M193.3713,-389.4C194.6822,-394.3146 201.2251,-398 213,-398 231.8398,-398 237.2857,-388.5653 229.3377,-379.7571"/>
<polygon fill="#191970" stroke="#191970" points="196.7447,-390.3516 196.6623,-379.7571 190.1199,-388.0906 196.7447,-390.3516"/>
</g>
<!-- Node75&#45;&gt;Node76 -->
<g id="edge13" class="edge">
<title>Node75&#45;&gt;Node76</title>
<path fill="none" stroke="#191970" d="M244.0664,-383.7527C267.0401,-393.9229 297.7363,-407.5117 318.0376,-416.4989"/>
<polygon fill="#191970" stroke="#191970" points="245.307,-380.4743 234.7461,-379.6267 242.4734,-386.8752 245.307,-380.4743"/>
</g>
<!-- Node81 -->
<g id="node10" class="node">
<title>Node81</title>
<g id="a_node10"><a xlink:href="libbf_8h.html#aed3d33145533a66bedc5b688e0e20714" target="_top" xlink:title="bf_rsqrt">
<polygon fill="none" stroke="#000000" points="314.5,-340.5 314.5,-359.5 364.5,-359.5 364.5,-340.5 314.5,-340.5"/>
<text text-anchor="middle" x="339.5" y="-347.5" font-family="Helvetica,sans-Serif" font-size="10.00" fill="#000000">bf_rsqrt</text>
</a>
</g>
</g>
<!-- Node75&#45;&gt;Node81 -->
<g id="edge14" class="edge">
<title>Node75&#45;&gt;Node81</title>
<path fill="none" stroke="#191970" d="M253.3556,-363.6197C273.2935,-360.4674 296.7398,-356.7605 314.1337,-354.0105"/>
<polygon fill="#191970" stroke="#191970" points="252.6306,-360.1907 243.2999,-365.2095 253.7238,-367.1048 252.6306,-360.1907"/>
</g>
<!-- Node81&#45;&gt;Node62 -->
<g id="edge15" class="edge">
<title>Node81&#45;&gt;Node62</title>
<path fill="none" stroke="#191970" d="M372.9693,-336.6591C399.1962,-326.205 435.0526,-311.9126 458.4869,-302.5716"/>
<polygon fill="#191970" stroke="#191970" points="371.4283,-333.5055 363.435,-340.4595 374.0202,-340.008 371.4283,-333.5055"/>
</g>
<!-- Node82&#45;&gt;Node62 -->
<g id="edge22" class="edge">
<title>Node82&#45;&gt;Node62</title>
<path fill="none" stroke="#191970" d="M252.7366,-293.8526C299.8574,-293.6777 378.5365,-293.3858 430.4731,-293.193"/>
<polygon fill="#191970" stroke="#191970" points="252.599,-290.3529 242.6121,-293.8901 252.6251,-297.3529 252.599,-290.3529"/>
</g>
<!-- Node82&#45;&gt;Node83 -->
<g id="edge19" class="edge">
<title>Node82&#45;&gt;Node83</title>
<path fill="none" stroke="#191970" d="M242.6978,-279.8567C248.8226,-276.7438 255.1779,-273.3672 261,-270 284.6323,-256.3321 310.8377,-238.3678 326.2023,-227.529"/>
<polygon fill="#191970" stroke="#191970" points="240.7692,-276.9067 233.3724,-284.4921 243.885,-283.175 240.7692,-276.9067"/>
</g>
<!-- Node57 -->
<g id="node15" class="node">
<title>Node57</title>
<g id="a_node15"><a xlink:href="libbf_8h.html#a36f22f93ba4258209be035a63b80b87f" target="_top" xlink:title="bf_exp">
<polygon fill="none" stroke="#ff0000" points="459.5,-454.5 459.5,-473.5 505.5,-473.5 505.5,-454.5 459.5,-454.5"/>
<text text-anchor="middle" x="482.5" y="-461.5" font-family="Helvetica,sans-Serif" font-size="10.00" fill="#000000">bf_exp</text>
</a>
</g>
</g>
<!-- Node82&#45;&gt;Node57 -->
<g id="edge23" class="edge">
<title>Node82&#45;&gt;Node57</title>
<path fill="none" stroke="#191970" d="M229.0676,-311.1378C245.1102,-327.5377 271.051,-352.1975 297,-369 331.735,-391.4916 345.0716,-388.3268 382,-407 412.6098,-422.4782 447.1681,-442.7108 466.7425,-454.4402"/>
<polygon fill="#191970" stroke="#191970" points="231.4852,-308.6023 222.0306,-303.821 226.4399,-313.4547 231.4852,-308.6023"/>
</g>
<!-- Node82&#45;&gt;Node42 -->
<g id="edge24" class="edge">
<title>Node82&#45;&gt;Node42</title>
<path fill="none" stroke="#191970" d="M227.2034,-276.198C246.7184,-252.0559 281.1979,-210.6086 297,-199 301.9503,-195.3634 307.7071,-192.2114 313.3552,-189.5769"/>
<polygon fill="#191970" stroke="#191970" points="224.2904,-274.2354 220.753,-284.2223 229.7462,-278.6211 224.2904,-274.2354"/>
</g>
<!-- Node83&#45;&gt;Node62 -->
<g id="edge21" class="edge">
<title>Node83&#45;&gt;Node62</title>
<path fill="none" stroke="#191970" d="M366.9585,-232.4013C395.5516,-247.3977 439.5364,-270.4666 464.1686,-283.3856"/>
<polygon fill="#191970" stroke="#191970" points="368.3836,-229.1966 357.902,-227.6514 365.1322,-235.3957 368.3836,-229.1966"/>
</g>
<!-- Node83&#45;&gt;Node83 -->
<g id="edge20" class="edge">
<title>Node83&#45;&gt;Node83</title>
<path fill="none" stroke="#191970" d="M316.0626,-237.0292C317.341,-242.128 325.1535,-246 339.5,-246 361.8945,-246 368.368,-236.5653 358.9203,-227.7571"/>
<polygon fill="#191970" stroke="#191970" points="319.3158,-238.3243 320.0797,-227.7571 312.8927,-235.5415 319.3158,-238.3243"/>
</g>
<!-- Node84&#45;&gt;Node57 -->
<g id="edge28" class="edge">
<title>Node84&#45;&gt;Node57</title>
<path fill="none" stroke="#191970" d="M252.7947,-498.3749C287.1114,-495.0462 337.9456,-489.6313 382,-483 408.69,-478.9825 439.1158,-473.0375 459.4318,-468.8703"/>
<polygon fill="#191970" stroke="#191970" points="252.3222,-494.904 242.7007,-499.34 252.9885,-501.8722 252.3222,-494.904"/>
</g>
<!-- Node84&#45;&gt;Node56 -->
<g id="edge26" class="edge">
<title>Node84&#45;&gt;Node56</title>
<path fill="none" stroke="#191970" d="M252.7278,-490.066C270.483,-484.7324 291.122,-478.5325 307.8159,-473.5178"/>
<polygon fill="#191970" stroke="#191970" points="251.2289,-486.8616 242.6586,-493.0907 253.2428,-493.5657 251.2289,-486.8616"/>
</g>
<!-- Node84&#45;&gt;Node60 -->
<g id="edge29" class="edge">
<title>Node84&#45;&gt;Node60</title>
<path fill="none" stroke="#191970" d="M236.6623,-517.0008C253.4073,-527.5296 276.4485,-541.8427 297,-554 305.1683,-558.832 314.3241,-564.0297 322.0399,-568.3483"/>
<polygon fill="#191970" stroke="#191970" points="238.3887,-513.9517 228.063,-511.5786 234.6551,-519.8729 238.3887,-513.9517"/>
</g>
<!-- Node59 -->
<g id="node20" class="node">
<title>Node59</title>
<g id="a_node20"><a xlink:href="libbf_8h.html#a93fe073491f8c5f086a75e7bf8865b34" target="_top" xlink:title="bf_pow">
<polygon fill="none" stroke="#000000" points="458.5,-606.5 458.5,-625.5 506.5,-625.5 506.5,-606.5 458.5,-606.5"/>
<text text-anchor="middle" x="482.5" y="-613.5" font-family="Helvetica,sans-Serif" font-size="10.00" fill="#000000">bf_pow</text>
</a>
</g>
</g>
<!-- Node84&#45;&gt;Node59 -->
<g id="edge30" class="edge">
<title>Node84&#45;&gt;Node59</title>
<path fill="none" stroke="#191970" d="M252.4318,-512.9724C287.2073,-523.193 338.9092,-539.7252 382,-559 413.6772,-573.1694 448.437,-594.2187 467.6468,-606.3785"/>
<polygon fill="#191970" stroke="#191970" points="253.2322,-509.5603 242.6529,-510.1336 251.2806,-516.2828 253.2322,-509.5603"/>
</g>
<!-- Node56&#45;&gt;Node57 -->
<g id="edge27" class="edge">
<title>Node56&#45;&gt;Node57</title>
<path fill="none" stroke="#191970" d="M391.3335,-464C414.5807,-464 440.8354,-464 459.1789,-464"/>
<polygon fill="#191970" stroke="#191970" points="391.246,-460.5001 381.2459,-464 391.2459,-467.5001 391.246,-460.5001"/>
</g>
<!-- Node85&#45;&gt;Node59 -->
<g id="edge40" class="edge">
<title>Node85&#45;&gt;Node59</title>
<path fill="none" stroke="#191970" d="M253.7136,-637.1238C288.0068,-638.4044 338.3184,-639.0929 382,-635 408.3425,-632.5318 438.0661,-626.5003 458.3112,-621.8895"/>
<polygon fill="#191970" stroke="#191970" points="253.7446,-633.6222 243.6103,-636.712 253.4594,-640.6164 253.7446,-633.6222"/>
</g>
<!-- Node86 -->
<g id="node22" class="node">
<title>Node86</title>
<g id="a_node22"><a xlink:href="libbf_8h.html#a2f679fedbb75750ed2a1123c6d550831" target="_top" xlink:title="bf_pow_ui_ui">
<polygon fill="none" stroke="#000000" points="302.5,-758.5 302.5,-777.5 376.5,-777.5 376.5,-758.5 302.5,-758.5"/>
<text text-anchor="middle" x="339.5" y="-765.5" font-family="Helvetica,sans-Serif" font-size="10.00" fill="#000000">bf_pow_ui_ui</text>
</a>
</g>
</g>
<!-- Node85&#45;&gt;Node86 -->
<g id="edge32" class="edge">
<title>Node85&#45;&gt;Node86</title>
<path fill="none" stroke="#191970" d="M229.2252,-652.0589C256.0363,-680.2477 308.7484,-735.6683 330.1436,-758.1628"/>
<polygon fill="#191970" stroke="#191970" points="231.5255,-649.3988 222.0976,-644.565 226.4533,-654.2231 231.5255,-649.3988"/>
</g>
<!-- Node71 -->
<g id="node26" class="node">
<title>Node71</title>
<g id="a_node26"><a xlink:href="libbf_8c.html#afb959ebe491ad24167b5eff3b811f211" target="_top" xlink:title="bf_pow_int">
<polygon fill="none" stroke="#000000" points="307.5,-606.5 307.5,-625.5 371.5,-625.5 371.5,-606.5 307.5,-606.5"/>
<text text-anchor="middle" x="339.5" y="-613.5" font-family="Helvetica,sans-Serif" font-size="10.00" fill="#000000">bf_pow_int</text>
</a>
</g>
</g>
<!-- Node85&#45;&gt;Node71 -->
<g id="edge38" class="edge">
<title>Node85&#45;&gt;Node71</title>
<path fill="none" stroke="#191970" d="M253.5261,-628.9131C270.9495,-626.2961 291.0263,-623.2806 307.3947,-620.8221"/>
<polygon fill="#191970" stroke="#191970" points="252.9913,-625.4541 243.6221,-630.4006 254.0311,-632.3764 252.9913,-625.4541"/>
</g>
<!-- Node86&#45;&gt;Node72 -->
<g id="edge36" class="edge">
<title>Node86&#45;&gt;Node72</title>
<path fill="none" stroke="#191970" d="M360.2646,-783.6605C375.6447,-794.7777 397.4164,-809.5277 418,-820 428.862,-825.5262 441.3078,-830.4588 452.3511,-834.3935"/>
<polygon fill="#191970" stroke="#191970" points="362.1367,-780.6929 352.005,-777.5945 357.9931,-786.3348 362.1367,-780.6929"/>
</g>
<!-- Node86&#45;&gt;Node87 -->
<g id="edge33" class="edge">
<title>Node86&#45;&gt;Node87</title>
<path fill="none" stroke="#191970" d="M386.7593,-772.9573C396.6964,-773.9996 407.3419,-775.1163 417.7922,-776.2125"/>
<polygon fill="#191970" stroke="#191970" points="387.0089,-769.4643 376.6983,-771.9019 386.2785,-776.4261 387.0089,-769.4643"/>
</g>
<!-- Node86&#45;&gt;Node49 -->
<g id="edge35" class="edge">
<title>Node86&#45;&gt;Node49</title>
<path fill="none" stroke="#191970" d="M386.6128,-758.7751C402.1371,-755.7354 419.404,-752.3545 434.9599,-749.3085"/>
<polygon fill="#191970" stroke="#191970" points="385.8393,-755.36 376.6983,-760.7164 387.1845,-762.2296 385.8393,-755.36"/>
</g>
<!-- Node86&#45;&gt;Node53 -->
<g id="edge37" class="edge">
<title>Node86&#45;&gt;Node53</title>
<path fill="none" stroke="#191970" d="M361.8168,-752.5568C377.0981,-742.5128 398.1201,-729.7109 418,-721 426.233,-717.3925 435.3487,-714.2362 444.0711,-711.5861"/>
<polygon fill="#191970" stroke="#191970" points="359.4652,-749.9194 353.1054,-758.3931 363.3614,-755.7349 359.4652,-749.9194"/>
</g>
<!-- Node87&#45;&gt;Node87 -->
<g id="edge34" class="edge">
<title>Node87&#45;&gt;Node87</title>
<path fill="none" stroke="#191970" d="M455.9941,-801.6539C457.1021,-806.9368 465.9374,-811 482.5,-811 507.7383,-811 515.0337,-801.5653 504.3863,-792.7571"/>
<polygon fill="#191970" stroke="#191970" points="459.1117,-803.2449 460.6137,-792.7571 452.8992,-800.0192 459.1117,-803.2449"/>
</g>
<!-- Node71&#45;&gt;Node59 -->
<g id="edge39" class="edge">
<title>Node71&#45;&gt;Node59</title>
<path fill="none" stroke="#191970" d="M381.8479,-616C406.6918,-616 437.2017,-616 458.0761,-616"/>
<polygon fill="#191970" stroke="#191970" points="381.592,-612.5001 371.592,-616 381.592,-619.5001 381.592,-612.5001"/>
</g>
<!-- Node89&#45;&gt;Node89 -->
<g id="edge46" class="edge">
<title>Node89&#45;&gt;Node89</title>
<path fill="none" stroke="#191970" d="M193.3713,-105.4C194.6822,-110.3146 201.2251,-114 213,-114 231.8398,-114 237.2857,-104.5653 229.3377,-95.7571"/>
<polygon fill="#191970" stroke="#191970" points="196.7447,-106.3516 196.6623,-95.7571 190.1199,-104.0906 196.7447,-106.3516"/>
</g>
<!-- Node80&#45;&gt;Node42 -->
<g id="edge52" class="edge">
<title>Node80&#45;&gt;Node42</title>
<path fill="none" stroke="#191970" d="M255.6821,-180C273.4023,-180 293.5393,-180 309.6339,-180"/>
<polygon fill="#191970" stroke="#191970" points="255.5769,-176.5001 245.5769,-180 255.5769,-183.5001 255.5769,-176.5001"/>
</g>
<!-- Node64&#45;&gt;Node68 -->
<g id="edge55" class="edge">
<title>Node64&#45;&gt;Node68</title>
<path fill="none" stroke="#191970" d="M266.2593,-17.9994C276.4988,-19.5374 287.0968,-21.1292 296.9429,-22.608"/>
<polygon fill="#191970" stroke="#191970" points="266.5893,-14.5098 256.1803,-16.4856 265.5495,-21.4322 266.5893,-14.5098"/>
</g>
</g>
</svg>
        <g id="navigator" transform="translate(0 0)" fill="#404254">
                <rect fill="#f2f5e9" fill-opacity="0.5" stroke="#606060" stroke-width=".5" x="0" y="0" width="60" height="60"/>
                <use id="zoomplus" xlink:href="#zoomPlus" x="17" y="9" onmousedown="handleZoom(evt,'in')"/>
                <use id="zoomminus" xlink:href="#zoomMin" x="42" y="9" onmousedown="handleZoom(evt,'out')"/>
                <use id="reset" xlink:href="#resetDef" x="30" y="36" onmousedown="handleReset()"/>
                <g id="arrowUp" xlink:href="#dirArrow" transform="translate(30 24)" onmousedown="handlePan(0,-1)">
                  <use xlink:href="#rim" fill="#404040">
                        <set attributeName="fill" to="#808080" begin="arrowUp.mouseover" end="arrowUp.mouseout"/>
                  </use>
                  <path fill="none" stroke="white" stroke-width="1.5" d="M0,-3.0v7 M-2.5,-0.5L0,-3.0L2.5,-0.5"/>
                </g>
                <g id="arrowRight" xlink:href="#dirArrow" transform="rotate(90) translate(36 -43)" onmousedown="handlePan(1,0)">
                  <use xlink:href="#rim" fill="#404040">
                        <set attributeName="fill" to="#808080" begin="arrowRight.mouseover" end="arrowRight.mouseout"/>
                  </use>
                  <path fill="none" stroke="white" stroke-width="1.5" d="M0,-3.0v7 M-2.5,-0.5L0,-3.0L2.5,-0.5"/>
                </g>
                <g id="arrowDown" xlink:href="#dirArrow" transform="rotate(180) translate(-30 -48)" onmousedown="handlePan(0,1)">
                  <use xlink:href="#rim" fill="#404040">
                        <set attributeName="fill" to="#808080" begin="arrowDown.mouseover" end="arrowDown.mouseout"/>
                  </use>
                  <path fill="none" stroke="white" stroke-width="1.5" d="M0,-3.0v7 M-2.5,-0.5L0,-3.0L2.5,-0.5"/>
                </g>
                <g id="arrowLeft" xlink:href="#dirArrow" transform="rotate(270) translate(-36 17)" onmousedown="handlePan(-1,0)">
                  <use xlink:href="#rim" fill="#404040">
                        <set attributeName="fill" to="#808080" begin="arrowLeft.mouseover" end="arrowLeft.mouseout"/>
                  </use>
                  <path fill="none" stroke="white" stroke-width="1.5" d="M0,-3.0v7 M-2.5,-0.5L0,-3.0L2.5,-0.5"/>
                </g>
        </g>
        <svg viewBox="0 0 15 15" width="100%" height="30px" preserveAspectRatio="xMaxYMin meet">
         <g id="arrow_out" transform="scale(0.3 0.3)">
          <a xlink:href="libbf_8c_a2f9f07876fb472f11c33a5e066ae9765_icgraph_org.svg" target="_base">
           <rect id="button" ry="5" rx="5" y="6" x="6" height="38" width="38"
                fill="#f2f5e9" fill-opacity="0.5" stroke="#606060" stroke-width="1.0"/>
           <path id="arrow"
             d="M 11.500037,31.436501 C 11.940474,20.09759 22.043105,11.32322 32.158766,21.979434 L 37.068811,17.246167 C 37.068811,17.246167 37.088388,32 37.088388,32 L 22.160133,31.978069 C 22.160133,31.978069 26.997745,27.140456 26.997745,27.140456 C 18.528582,18.264221 13.291696,25.230495 11.500037,31.436501 z"
             style="fill:#404040;"/>
          </a>
         </g>
        </svg>
</svg>
