<?xml version="1.0" encoding="UTF-8" standalone="no"?>
<!DOCTYPE svg PUBLIC "-//W3C//DTD SVG 1.1//EN"
 "http://www.w3.org/Graphics/SVG/1.1/DTD/svg11.dtd">
<!-- Generated by graphviz version 2.40.1 (20161225.0304)
 -->
<!-- Title: bf_const_pi_internal Pages: 1 -->
<svg width="1037pt" height="1379pt"
 viewBox="0.00 0.00 1037.00 1378.54" xmlns="http://www.w3.org/2000/svg" xmlns:xlink="http://www.w3.org/1999/xlink">
<g id="graph0" class="graph" transform="scale(1 1) rotate(0) translate(4 1374.5382)">
<title>bf_const_pi_internal</title>
<!-- Node6003 -->
<g id="node1" class="node">
<title>Node6003</title>
<polygon fill="#bfbfbf" stroke="#000000" points="0,-981.0382 0,-1000.0382 104,-1000.0382 104,-981.0382 0,-981.0382"/>
<text text-anchor="middle" x="52" y="-988.0382" font-family="Helvetica,sans-Serif" font-size="10.00" fill="#000000">bf_const_pi_internal</text>
</g>
<!-- Node6004 -->
<g id="node2" class="node">
<title>Node6004</title>
<g id="a_node2"><a xlink:href="libbf_8h.html#a17dc09166f82ffa408f54a2edc4d7855" target="_top" xlink:title="bf_add">
<polygon fill="none" stroke="#000000" points="514,-791.0382 514,-810.0382 560,-810.0382 560,-791.0382 514,-791.0382"/>
<text text-anchor="middle" x="537" y="-798.0382" font-family="Helvetica,sans-Serif" font-size="10.00" fill="#000000">bf_add</text>
</a>
</g>
</g>
<!-- Node6003&#45;&gt;Node6004 -->
<g id="edge1" class="edge">
<title>Node6003&#45;&gt;Node6004</title>
<path fill="none" stroke="#191970" d="M54.774,-981.0316C68.0063,-937.8809 128.9462,-762.5382 245.5,-762.5382 245.5,-762.5382 245.5,-762.5382 343,-762.5382 400.4092,-762.5382 465.6225,-778.7622 503.9305,-790.0083"/>
<polygon fill="#191970" stroke="#191970" points="503.4089,-793.506 513.993,-793.0306 505.4226,-786.8019 503.4089,-793.506"/>
</g>
<!-- Node6006 -->
<g id="node4" class="node">
<title>Node6006</title>
<g id="a_node4"><a xlink:href="libbf_8h.html#abacc1410890af049e02ebd788364ac48" target="_top" xlink:title="bf_init">
<polygon fill="none" stroke="#000000" points="713,-934.0382 713,-953.0382 756,-953.0382 756,-934.0382 713,-934.0382"/>
<text text-anchor="middle" x="734.5" y="-941.0382" font-family="Helvetica,sans-Serif" font-size="10.00" fill="#000000">bf_init</text>
</a>
</g>
</g>
<!-- Node6003&#45;&gt;Node6006 -->
<g id="edge59" class="edge">
<title>Node6003&#45;&gt;Node6006</title>
<path fill="none" stroke="#191970" d="M104.1507,-990.5382C143.0961,-990.5382 197.6289,-990.5382 245.5,-990.5382 245.5,-990.5382 245.5,-990.5382 343,-990.5382 477.557,-990.5382 636.2852,-962.8307 702.7428,-949.9635"/>
<polygon fill="#191970" stroke="#191970" points="703.8241,-953.3182 712.964,-947.9598 702.4774,-946.449 703.8241,-953.3182"/>
</g>
<!-- Node6033 -->
<g id="node16" class="node">
<title>Node6033</title>
<g id="a_node16"><a xlink:href="libbf_8h.html#a2b9d906b21e903f2f7f1c9044674ab7d" target="_top" xlink:title="bf_delete">
<polygon fill="none" stroke="#000000" points="509,-1228.0382 509,-1247.0382 565,-1247.0382 565,-1228.0382 509,-1228.0382"/>
<text text-anchor="middle" x="537" y="-1235.0382" font-family="Helvetica,sans-Serif" font-size="10.00" fill="#000000">bf_delete</text>
</a>
</g>
</g>
<!-- Node6003&#45;&gt;Node6033 -->
<g id="edge19" class="edge">
<title>Node6003&#45;&gt;Node6033</title>
<path fill="none" stroke="#191970" d="M52.6966,-1000.0422C57.3025,-1055.2777 88.2535,-1332.5382 245.5,-1332.5382 245.5,-1332.5382 245.5,-1332.5382 343,-1332.5382 413.5726,-1332.5382 485.2204,-1281.2039 518.228,-1254.0062"/>
<polygon fill="#191970" stroke="#191970" points="520.7356,-1256.47 526.1228,-1247.347 516.2223,-1251.1193 520.7356,-1256.47"/>
</g>
<!-- Node6034 -->
<g id="node17" class="node">
<title>Node6034</title>
<g id="a_node17"><a xlink:href="libbf_8h.html#a030665e68e114717678fb0d0453bb3c6" target="_top" xlink:title="bf_div">
<polygon fill="none" stroke="#000000" points="140,-905.0382 140,-924.0382 183,-924.0382 183,-905.0382 140,-905.0382"/>
<text text-anchor="middle" x="161.5" y="-912.0382" font-family="Helvetica,sans-Serif" font-size="10.00" fill="#000000">bf_div</text>
</a>
</g>
</g>
<!-- Node6003&#45;&gt;Node6034 -->
<g id="edge21" class="edge">
<title>Node6003&#45;&gt;Node6034</title>
<path fill="none" stroke="#191970" d="M65.8683,-980.9127C84.3805,-968.0641 117.3803,-945.1601 139.3557,-929.9077"/>
<polygon fill="#191970" stroke="#191970" points="141.5248,-932.6627 147.7444,-924.0855 137.5335,-926.9121 141.5248,-932.6627"/>
</g>
<!-- Node6036 -->
<g id="node19" class="node">
<title>Node6036</title>
<g id="a_node19"><a xlink:href="libbf_8h.html#ac290278d0c37a0e7786873f98aadba47" target="_top" xlink:title="bf_mul">
<polygon fill="none" stroke="#ff0000" points="606,-487.0382 606,-506.0382 652,-506.0382 652,-487.0382 606,-487.0382"/>
<text text-anchor="middle" x="629" y="-494.0382" font-family="Helvetica,sans-Serif" font-size="10.00" fill="#000000">bf_mul</text>
</a>
</g>
</g>
<!-- Node6003&#45;&gt;Node6036 -->
<g id="edge60" class="edge">
<title>Node6003&#45;&gt;Node6036</title>
<path fill="none" stroke="#191970" d="M52.2364,-980.9797C54.464,-914.9815 77.3358,-526.4004 308,-419.5382 411.9232,-371.3926 462.883,-386.6716 565,-438.5382 584.7073,-448.5478 602.9388,-466.2602 614.86,-479.4861"/>
<polygon fill="#191970" stroke="#191970" points="612.2202,-481.7844 621.424,-487.0324 617.5018,-477.1903 612.2202,-481.7844"/>
</g>
<!-- Node6068 -->
<g id="node25" class="node">
<title>Node6068</title>
<g id="a_node25"><a xlink:href="libbf_8h.html#a5bcb10b6c7836aea03e8167384299774" target="_top" xlink:title="bf_set_ui">
<polygon fill="none" stroke="#ff0000" points="509,-1095.0382 509,-1114.0382 565,-1114.0382 565,-1095.0382 509,-1095.0382"/>
<text text-anchor="middle" x="537" y="-1102.0382" font-family="Helvetica,sans-Serif" font-size="10.00" fill="#000000">bf_set_ui</text>
</a>
</g>
</g>
<!-- Node6003&#45;&gt;Node6068 -->
<g id="edge78" class="edge">
<title>Node6003&#45;&gt;Node6068</title>
<path fill="none" stroke="#191970" d="M65.6042,-1000.0441C111.7241,-1031.5694 267.4439,-1132.3291 414,-1161.5382 439.7164,-1166.6636 448.494,-1170.8689 473,-1161.5382 493.7274,-1153.6462 512.0155,-1135.6193 523.6775,-1121.9358"/>
<polygon fill="#191970" stroke="#191970" points="526.4507,-1124.0731 530.0451,-1114.1066 521.02,-1119.6563 526.4507,-1124.0731"/>
</g>
<!-- Node6080 -->
<g id="node27" class="node">
<title>Node6080</title>
<g id="a_node27"><a xlink:href="libbf_8h.html#acee0d550162528b5ca5513d4479549c2" target="_top" xlink:title="bf_mul_ui">
<polygon fill="none" stroke="#000000" points="414,-1133.0382 414,-1152.0382 473,-1152.0382 473,-1133.0382 414,-1133.0382"/>
<text text-anchor="middle" x="443.5" y="-1140.0382" font-family="Helvetica,sans-Serif" font-size="10.00" fill="#000000">bf_mul_ui</text>
</a>
</g>
</g>
<!-- Node6003&#45;&gt;Node6080 -->
<g id="edge61" class="edge">
<title>Node6003&#45;&gt;Node6080</title>
<path fill="none" stroke="#191970" d="M76.4901,-1000.0465C143.7771,-1026.1707 331.6128,-1099.0979 409.2493,-1129.2403"/>
<polygon fill="#191970" stroke="#191970" points="408.4303,-1132.6769 419.0192,-1133.0335 410.9639,-1126.1514 408.4303,-1132.6769"/>
</g>
<!-- Node6081 -->
<g id="node28" class="node">
<title>Node6081</title>
<g id="a_node28"><a xlink:href="libbf_8h.html#aed3d33145533a66bedc5b688e0e20714" target="_top" xlink:title="bf_rsqrt">
<polygon fill="none" stroke="#000000" points="220.5,-107.0382 220.5,-126.0382 270.5,-126.0382 270.5,-107.0382 220.5,-107.0382"/>
<text text-anchor="middle" x="245.5" y="-114.0382" font-family="Helvetica,sans-Serif" font-size="10.00" fill="#000000">bf_rsqrt</text>
</a>
</g>
</g>
<!-- Node6003&#45;&gt;Node6081 -->
<g id="edge66" class="edge">
<title>Node6003&#45;&gt;Node6081</title>
<path fill="none" stroke="#191970" d="M52.325,-980.9506C55.4373,-891.6371 81.1463,-206.9494 140,-140.5382 157.1778,-121.1546 186.4565,-115.6889 209.8178,-114.7717"/>
<polygon fill="#191970" stroke="#191970" points="210.1172,-118.2682 220.0702,-114.6367 210.0249,-111.2688 210.1172,-118.2682"/>
</g>
<!-- Node6083 -->
<g id="node30" class="node">
<title>Node6083</title>
<g id="a_node30"><a xlink:href="libbf_8c.html#a81e50b3d7e7a931a93d6ea7e1d630631" target="_top" xlink:title="chud_bs">
<polygon fill="none" stroke="#000000" points="316.5,-1019.0382 316.5,-1038.0382 369.5,-1038.0382 369.5,-1019.0382 316.5,-1019.0382"/>
<text text-anchor="middle" x="343" y="-1026.0382" font-family="Helvetica,sans-Serif" font-size="10.00" fill="#000000">chud_bs</text>
</a>
</g>
</g>
<!-- Node6003&#45;&gt;Node6083 -->
<g id="edge79" class="edge">
<title>Node6003&#45;&gt;Node6083</title>
<path fill="none" stroke="#191970" d="M104.0649,-999.1751C115.8672,-1001.0344 128.3542,-1002.9241 140,-1004.5382 198.0458,-1012.5835 265.669,-1020.2353 306.3641,-1024.6539"/>
<polygon fill="#191970" stroke="#191970" points="306.0373,-1028.1389 316.3552,-1025.7325 306.7886,-1021.1793 306.0373,-1028.1389"/>
</g>
<!-- Node6005 -->
<g id="node3" class="node">
<title>Node6005</title>
<g id="a_node3"><a xlink:href="libbf_8c.html#a3ebbc1c7473b2ad84ced2b263bf38bae" target="_top" xlink:title="bf_op2">
<polygon fill="none" stroke="#000000" points="606,-896.0382 606,-915.0382 652,-915.0382 652,-896.0382 606,-896.0382"/>
<text text-anchor="middle" x="629" y="-903.0382" font-family="Helvetica,sans-Serif" font-size="10.00" fill="#000000">bf_op2</text>
</a>
</g>
</g>
<!-- Node6004&#45;&gt;Node6005 -->
<g id="edge2" class="edge">
<title>Node6004&#45;&gt;Node6005</title>
<path fill="none" stroke="#191970" d="M545.4902,-810.2281C561.0312,-827.9651 594.2463,-865.8737 613.7794,-888.1668"/>
<polygon fill="#191970" stroke="#191970" points="611.3077,-890.6569 620.5303,-895.8717 616.5726,-886.0438 611.3077,-890.6569"/>
</g>
<!-- Node6010 -->
<g id="node8" class="node">
<title>Node6010</title>
<g id="a_node8"><a xlink:href="libbf_8c.html#a951a1d3ebb338129d86e00f51b47f2ee" target="_top" xlink:title="__bf_add">
<polygon fill="none" stroke="#000000" points="601,-525.0382 601,-544.0382 657,-544.0382 657,-525.0382 601,-525.0382"/>
<text text-anchor="middle" x="629" y="-532.0382" font-family="Helvetica,sans-Serif" font-size="10.00" fill="#000000">__bf_add</text>
</a>
</g>
</g>
<!-- Node6004&#45;&gt;Node6010 -->
<g id="edge7" class="edge">
<title>Node6004&#45;&gt;Node6010</title>
<path fill="none" stroke="#191970" d="M540.3834,-790.7556C553.91,-751.6463 604.2436,-606.1164 622.409,-553.5948"/>
<polygon fill="#191970" stroke="#191970" points="625.7218,-554.7239 625.6828,-544.1292 619.1063,-552.4358 625.7218,-554.7239"/>
</g>
<!-- Node6005&#45;&gt;Node6006 -->
<g id="edge3" class="edge">
<title>Node6005&#45;&gt;Node6006</title>
<path fill="none" stroke="#191970" d="M652.1524,-913.8774C667.1211,-919.269 686.791,-926.3539 703.1527,-932.2472"/>
<polygon fill="#191970" stroke="#191970" points="702.2467,-935.6409 712.8411,-935.7369 704.6189,-929.0551 702.2467,-935.6409"/>
</g>
<!-- Node6007 -->
<g id="node5" class="node">
<title>Node6007</title>
<g id="a_node5"><a xlink:href="libbf_8h.html#ad7ab5aff92f4e7e10b2a30e0e6b9226d" target="_top" xlink:title="bf_move">
<polygon fill="none" stroke="#000000" points="707.5,-896.0382 707.5,-915.0382 761.5,-915.0382 761.5,-896.0382 707.5,-896.0382"/>
<text text-anchor="middle" x="734.5" y="-903.0382" font-family="Helvetica,sans-Serif" font-size="10.00" fill="#000000">bf_move</text>
</a>
</g>
</g>
<!-- Node6005&#45;&gt;Node6007 -->
<g id="edge4" class="edge">
<title>Node6005&#45;&gt;Node6007</title>
<path fill="none" stroke="#191970" d="M652.1524,-905.5382C665.3602,-905.5382 682.2281,-905.5382 697.2541,-905.5382"/>
<polygon fill="#191970" stroke="#191970" points="697.2947,-909.0383 707.2947,-905.5382 697.2947,-902.0383 697.2947,-909.0383"/>
</g>
<!-- Node6008 -->
<g id="node6" class="node">
<title>Node6008</title>
<g id="a_node6"><a xlink:href="libbf_8c.html#ab8c991bf0d1ab72d676d3c9c3d63c2a7" target="_top" xlink:title="bf_free">
<polygon fill="none" stroke="#000000" points="849.5,-1190.0382 849.5,-1209.0382 896.5,-1209.0382 896.5,-1190.0382 849.5,-1190.0382"/>
<text text-anchor="middle" x="873" y="-1197.0382" font-family="Helvetica,sans-Serif" font-size="10.00" fill="#000000">bf_free</text>
</a>
</g>
</g>
<!-- Node6007&#45;&gt;Node6008 -->
<g id="edge5" class="edge">
<title>Node6007&#45;&gt;Node6008</title>
<path fill="none" stroke="#191970" d="M761.6048,-914.129C766.9087,-916.7951 772.0449,-920.209 776,-924.5382 845.7055,-1000.8362 865.9218,-1130.3124 871.2523,-1179.6441"/>
<polygon fill="#191970" stroke="#191970" points="867.7987,-1180.2873 872.2651,-1189.8947 874.7648,-1179.5989 867.7987,-1180.2873"/>
</g>
<!-- Node6009 -->
<g id="node7" class="node">
<title>Node6009</title>
<g id="a_node7"><a xlink:href="libbf_8h.html#a524c9e60866c08c75061626a4b5e2f29" target="_top" xlink:title="bf_realloc">
<polygon fill="none" stroke="#000000" points="970,-1209.0382 970,-1228.0382 1029,-1228.0382 1029,-1209.0382 970,-1209.0382"/>
<text text-anchor="middle" x="999.5" y="-1216.0382" font-family="Helvetica,sans-Serif" font-size="10.00" fill="#000000">bf_realloc</text>
</a>
</g>
</g>
<!-- Node6008&#45;&gt;Node6009 -->
<g id="edge6" class="edge">
<title>Node6008&#45;&gt;Node6009</title>
<path fill="none" stroke="#191970" d="M896.7937,-1203.1119C914.4268,-1205.7604 938.8719,-1209.432 959.49,-1212.5288"/>
<polygon fill="#191970" stroke="#191970" points="959.1524,-1216.0172 969.5613,-1214.0415 960.1921,-1209.0949 959.1524,-1216.0172"/>
</g>
<!-- Node6011 -->
<g id="node9" class="node">
<title>Node6011</title>
<g id="a_node9"><a xlink:href="libbf_8c.html#aaebd1df91497246cd81f23918af58d33" target="_top" xlink:title="bf_add_internal">
<polygon fill="none" stroke="#ff0000" points="693,-411.0382 693,-430.0382 776,-430.0382 776,-411.0382 693,-411.0382"/>
<text text-anchor="middle" x="734.5" y="-418.0382" font-family="Helvetica,sans-Serif" font-size="10.00" fill="#000000">bf_add_internal</text>
</a>
</g>
</g>
<!-- Node6010&#45;&gt;Node6011 -->
<g id="edge8" class="edge">
<title>Node6010&#45;&gt;Node6011</title>
<path fill="none" stroke="#191970" d="M645.0055,-524.8455C649.0946,-522.0616 653.3604,-518.8705 657,-515.5382 683.1388,-491.6063 708.0598,-458.6188 722.2903,-438.4785"/>
<polygon fill="#191970" stroke="#191970" points="725.2062,-440.4157 728.0423,-430.2075 719.4593,-436.419 725.2062,-440.4157"/>
</g>
<!-- Node6013 -->
<g id="node10" class="node">
<title>Node6013</title>
<g id="a_node10"><a xlink:href="libbf_8h.html#a4954f3435332238433d15977d55ae566" target="_top" xlink:title="bf_max">
<polygon fill="none" stroke="#000000" points="848.5,-601.0382 848.5,-620.0382 897.5,-620.0382 897.5,-601.0382 848.5,-601.0382"/>
<text text-anchor="middle" x="873" y="-608.0382" font-family="Helvetica,sans-Serif" font-size="10.00" fill="#000000">bf_max</text>
</a>
</g>
</g>
<!-- Node6011&#45;&gt;Node6013 -->
<g id="edge9" class="edge">
<title>Node6011&#45;&gt;Node6013</title>
<path fill="none" stroke="#191970" d="M741.5586,-430.2215C763.5028,-460.3255 830.7828,-552.6229 859.6345,-592.2029"/>
<polygon fill="#191970" stroke="#191970" points="857.0706,-594.6273 865.7895,-600.6465 862.7272,-590.5039 857.0706,-594.6273"/>
</g>
<!-- Node6016 -->
<g id="node11" class="node">
<title>Node6016</title>
<g id="a_node11"><a xlink:href="libbf_8h.html#ae822c0888d26739bb681dfef282b9150" target="_top" xlink:title="bf_normalize_and_round">
<polygon fill="none" stroke="#ff0000" points="812,-449.0382 812,-468.0382 934,-468.0382 934,-449.0382 812,-449.0382"/>
<text text-anchor="middle" x="873" y="-456.0382" font-family="Helvetica,sans-Serif" font-size="10.00" fill="#000000">bf_normalize_and_round</text>
</a>
</g>
</g>
<!-- Node6011&#45;&gt;Node6016 -->
<g id="edge10" class="edge">
<title>Node6011&#45;&gt;Node6016</title>
<path fill="none" stroke="#191970" d="M769.4494,-430.1272C787.3284,-435.0326 809.2884,-441.0578 828.3778,-446.2953"/>
<polygon fill="#191970" stroke="#191970" points="827.4921,-449.6815 838.0618,-448.9522 829.3443,-442.931 827.4921,-449.6815"/>
</g>
<!-- Node6017 -->
<g id="node12" class="node">
<title>Node6017</title>
<g id="a_node12"><a xlink:href="libbf_8h.html#ad5f9a8c0c9455250d53b259b1a01c0c0" target="_top" xlink:title="bf_resize">
<polygon fill="none" stroke="#000000" points="971.5,-411.0382 971.5,-430.0382 1027.5,-430.0382 1027.5,-411.0382 971.5,-411.0382"/>
<text text-anchor="middle" x="999.5" y="-418.0382" font-family="Helvetica,sans-Serif" font-size="10.00" fill="#000000">bf_resize</text>
</a>
</g>
</g>
<!-- Node6011&#45;&gt;Node6017 -->
<g id="edge12" class="edge">
<title>Node6011&#45;&gt;Node6017</title>
<path fill="none" stroke="#191970" d="M776.1978,-420.5382C826.9845,-420.5382 912.0643,-420.5382 961.2412,-420.5382"/>
<polygon fill="#191970" stroke="#191970" points="961.4587,-424.0383 971.4587,-420.5382 961.4587,-417.0383 961.4587,-424.0383"/>
</g>
<!-- Node6027 -->
<g id="node13" class="node">
<title>Node6027</title>
<g id="a_node13"><a xlink:href="libbf_8h.html#a88d3dcee173f1e4fd4e55000edb04595" target="_top" xlink:title="bf_set_inf">
<polygon fill="none" stroke="#000000" points="843.5,-145.0382 843.5,-164.0382 902.5,-164.0382 902.5,-145.0382 843.5,-145.0382"/>
<text text-anchor="middle" x="873" y="-152.0382" font-family="Helvetica,sans-Serif" font-size="10.00" fill="#000000">bf_set_inf</text>
</a>
</g>
</g>
<!-- Node6011&#45;&gt;Node6027 -->
<g id="edge13" class="edge">
<title>Node6011&#45;&gt;Node6027</title>
<path fill="none" stroke="#191970" d="M738.3878,-410.6563C748.9875,-384.0312 779.7619,-308.8079 812,-249.5382 827.0621,-221.8465 847.2746,-191.4541 860.2214,-172.6836"/>
<polygon fill="#191970" stroke="#191970" points="863.2622,-174.4415 866.1015,-164.2341 857.5165,-170.443 863.2622,-174.4415"/>
</g>
<!-- Node6030 -->
<g id="node14" class="node">
<title>Node6030</title>
<g id="a_node14"><a xlink:href="libbf_8h.html#aa6282c789c16c8cf2fe6a8ebd671c6fc" target="_top" xlink:title="bf_set_nan">
<polygon fill="none" stroke="#000000" points="840.5,-354.0382 840.5,-373.0382 905.5,-373.0382 905.5,-354.0382 840.5,-354.0382"/>
<text text-anchor="middle" x="873" y="-361.0382" font-family="Helvetica,sans-Serif" font-size="10.00" fill="#000000">bf_set_nan</text>
</a>
</g>
</g>
<!-- Node6011&#45;&gt;Node6030 -->
<g id="edge15" class="edge">
<title>Node6011&#45;&gt;Node6030</title>
<path fill="none" stroke="#191970" d="M757.6818,-410.9977C780.252,-401.7088 814.7712,-387.5024 840.1627,-377.0524"/>
<polygon fill="#191970" stroke="#191970" points="841.8272,-380.1523 849.7426,-373.1098 839.163,-373.6791 841.8272,-380.1523"/>
</g>
<!-- Node6028 -->
<g id="node15" class="node">
<title>Node6028</title>
<g id="a_node15"><a xlink:href="libbf_8h.html#a66631c65c00e92a5840a5085a009602d" target="_top" xlink:title="bf_set_zero">
<polygon fill="none" stroke="#000000" points="839,-259.0382 839,-278.0382 907,-278.0382 907,-259.0382 839,-259.0382"/>
<text text-anchor="middle" x="873" y="-266.0382" font-family="Helvetica,sans-Serif" font-size="10.00" fill="#000000">bf_set_zero</text>
</a>
</g>
</g>
<!-- Node6011&#45;&gt;Node6028 -->
<g id="edge17" class="edge">
<title>Node6011&#45;&gt;Node6028</title>
<path fill="none" stroke="#191970" d="M743.1638,-411.0299C765.9962,-385.972 828.0645,-317.8537 857.3308,-285.7347"/>
<polygon fill="#191970" stroke="#191970" points="860.1914,-287.7919 864.3395,-278.0429 855.0172,-283.0773 860.1914,-287.7919"/>
</g>
<!-- Node6016&#45;&gt;Node6017 -->
<g id="edge11" class="edge">
<title>Node6016&#45;&gt;Node6017</title>
<path fill="none" stroke="#191970" d="M904.9213,-448.9492C922.213,-443.7548 943.6842,-437.305 961.7961,-431.8643"/>
<polygon fill="#191970" stroke="#191970" points="962.8945,-435.1889 971.4648,-428.9598 960.8806,-428.4848 962.8945,-435.1889"/>
</g>
<!-- Node6027&#45;&gt;Node6017 -->
<g id="edge14" class="edge">
<title>Node6027&#45;&gt;Node6017</title>
<path fill="none" stroke="#191970" d="M880.1048,-164.1259C892.2663,-180.8358 917.3675,-216.6568 934,-249.5382 960.6991,-302.3206 983.1883,-368.7082 993.4834,-401.0421"/>
<polygon fill="#191970" stroke="#191970" points="990.2688,-402.488 996.6033,-410.9807 996.9475,-400.3914 990.2688,-402.488"/>
</g>
<!-- Node6030&#45;&gt;Node6017 -->
<g id="edge16" class="edge">
<title>Node6030&#45;&gt;Node6017</title>
<path fill="none" stroke="#191970" d="M894.1733,-373.0787C914.6055,-382.2853 945.7591,-396.3229 968.8902,-406.7456"/>
<polygon fill="#191970" stroke="#191970" points="967.7026,-410.0494 978.2577,-410.9665 970.5783,-403.6673 967.7026,-410.0494"/>
</g>
<!-- Node6028&#45;&gt;Node6017 -->
<g id="edge18" class="edge">
<title>Node6028&#45;&gt;Node6017</title>
<path fill="none" stroke="#191970" d="M880.9131,-278.0465C901.7673,-303.1044 958.4578,-371.2227 985.1884,-403.3417"/>
<polygon fill="#191970" stroke="#191970" points="982.5027,-405.586 991.5898,-411.0335 987.8832,-401.1082 982.5027,-405.586"/>
</g>
<!-- Node6033&#45;&gt;Node6009 -->
<g id="edge20" class="edge">
<title>Node6033&#45;&gt;Node6009</title>
<path fill="none" stroke="#191970" d="M565.2352,-1236.3783C644.2815,-1233.1309 867.9797,-1223.9412 959.6096,-1220.1769"/>
<polygon fill="#191970" stroke="#191970" points="960.0074,-1223.6636 969.8553,-1219.756 959.72,-1216.6695 960.0074,-1223.6636"/>
</g>
<!-- Node6034&#45;&gt;Node6005 -->
<g id="edge22" class="edge">
<title>Node6034&#45;&gt;Node6005</title>
<path fill="none" stroke="#191970" d="M183.0509,-917.2561C233.6927,-923.2609 364.2111,-936.5148 473,-928.5382 515.682,-925.4087 564.4085,-917.5245 595.8812,-911.8597"/>
<polygon fill="#191970" stroke="#191970" points="596.6528,-915.2767 605.8594,-910.0337 595.3927,-908.391 596.6528,-915.2767"/>
</g>
<!-- Node6035 -->
<g id="node18" class="node">
<title>Node6035</title>
<g id="a_node18"><a xlink:href="libbf_8c.html#ad7a540de8355f07757e52b48d35dd708" target="_top" xlink:title="__bf_div">
<polygon fill="none" stroke="#000000" points="219,-534.0382 219,-553.0382 272,-553.0382 272,-534.0382 219,-534.0382"/>
<text text-anchor="middle" x="245.5" y="-541.0382" font-family="Helvetica,sans-Serif" font-size="10.00" fill="#000000">__bf_div</text>
</a>
</g>
</g>
<!-- Node6034&#45;&gt;Node6035 -->
<g id="edge23" class="edge">
<title>Node6034&#45;&gt;Node6035</title>
<path fill="none" stroke="#191970" d="M163.6608,-904.9945C174.7775,-855.8958 225.6013,-631.4242 241.0396,-563.2382"/>
<polygon fill="#191970" stroke="#191970" points="244.4813,-563.8868 243.276,-553.3608 237.6541,-562.341 244.4813,-563.8868"/>
</g>
<!-- Node6035&#45;&gt;Node6006 -->
<g id="edge26" class="edge">
<title>Node6035&#45;&gt;Node6006</title>
<path fill="none" stroke="#191970" d="M247.1048,-553.3129C251.7723,-578.708 267.6607,-647.4402 308,-685.5382 396.6457,-769.2586 464.3035,-712.7822 565,-781.5382 582.6107,-793.5628 675.8326,-911.8887 693,-924.5382 696.2794,-926.9545 699.9151,-929.1666 703.6319,-931.159"/>
<polygon fill="#191970" stroke="#191970" points="702.3565,-934.4304 712.8809,-935.6502 705.4142,-928.1336 702.3565,-934.4304"/>
</g>
<!-- Node6035&#45;&gt;Node6008 -->
<g id="edge25" class="edge">
<title>Node6035&#45;&gt;Node6008</title>
<path fill="none" stroke="#191970" d="M246.0086,-553.1998C249.5186,-618.2579 271.108,-993.0877 308,-1100.5382 359.0964,-1249.3598 379.651,-1370.5382 537,-1370.5382 537,-1370.5382 537,-1370.5382 629,-1370.5382 734.762,-1370.5382 827.2256,-1261.4644 860.1714,-1217.5427"/>
<polygon fill="#191970" stroke="#191970" points="863.1839,-1219.3537 866.2817,-1209.2218 857.5417,-1215.2104 863.1839,-1219.3537"/>
</g>
<!-- Node6035&#45;&gt;Node6013 -->
<g id="edge27" class="edge">
<title>Node6035&#45;&gt;Node6013</title>
<path fill="none" stroke="#191970" d="M261.8212,-533.9256C274.0654,-527.2965 291.4895,-519.0675 308,-515.5382 338.4238,-509.0347 347.2576,-510.7623 378,-515.5382 480.7804,-531.5052 499.0214,-566.0653 601,-586.5382 685.1389,-603.4296 786.295,-608.433 838.3276,-609.9148"/>
<polygon fill="#191970" stroke="#191970" points="838.2736,-613.4145 848.3606,-610.1737 838.4542,-606.4168 838.2736,-613.4145"/>
</g>
<!-- Node6035&#45;&gt;Node6016 -->
<g id="edge36" class="edge">
<title>Node6035&#45;&gt;Node6016</title>
<path fill="none" stroke="#191970" d="M246.9428,-533.8205C251.1549,-509.3785 265.9183,-445.4525 308,-419.5382 370.4431,-381.0851 399.7532,-415.9759 473,-419.5382 504.9001,-421.0896 695.7798,-440.3713 801.9138,-451.228"/>
<polygon fill="#191970" stroke="#191970" points="801.6076,-454.7149 811.9121,-452.2515 802.3205,-447.7512 801.6076,-454.7149"/>
</g>
<!-- Node6035&#45;&gt;Node6017 -->
<g id="edge42" class="edge">
<title>Node6035&#45;&gt;Node6017</title>
<path fill="none" stroke="#191970" d="M257.5169,-533.7361C269.4804,-524.6605 288.7842,-511.7996 308,-506.5382 338.0066,-498.3221 346.9503,-504.5849 378,-506.5382 420.4738,-509.2101 431.2594,-510.2384 473,-518.5382 530.8448,-530.0402 542.5471,-545.6906 601,-553.5382 719.0061,-569.381 917.5293,-514.4516 934,-504.5382 960.0243,-488.8747 979.6174,-458.7318 990.3188,-439.1375"/>
<polygon fill="#191970" stroke="#191970" points="993.4438,-440.7145 994.9696,-430.2301 987.2386,-437.4746 993.4438,-440.7145"/>
</g>
<!-- Node6035&#45;&gt;Node6027 -->
<g id="edge44" class="edge">
<title>Node6035&#45;&gt;Node6027</title>
<path fill="none" stroke="#191970" d="M245.9559,-533.7978C248.4884,-483.8174 262.4006,-256.5598 308,-206.5382 445.1153,-56.1254 728.951,-114.6373 833.3486,-142.8067"/>
<polygon fill="#191970" stroke="#191970" points="832.5985,-146.2304 843.1689,-145.5111 834.4571,-139.4816 832.5985,-146.2304"/>
</g>
<!-- Node6035&#45;&gt;Node6030 -->
<g id="edge45" class="edge">
<title>Node6035&#45;&gt;Node6030</title>
<path fill="none" stroke="#191970" d="M246.9875,-533.904C251.4442,-508.1996 267.0093,-437.2525 308,-397.5382 354.4425,-352.5419 378.8349,-344.5382 443.5,-344.5382 443.5,-344.5382 443.5,-344.5382 629,-344.5382 699.6589,-344.5382 781.4811,-352.5558 830.1464,-358.1746"/>
<polygon fill="#191970" stroke="#191970" points="829.9657,-361.6773 840.3059,-359.3686 830.7828,-354.7252 829.9657,-361.6773"/>
</g>
<!-- Node6035&#45;&gt;Node6028 -->
<g id="edge46" class="edge">
<title>Node6035&#45;&gt;Node6028</title>
<path fill="none" stroke="#191970" d="M247.3131,-533.5896C254.1019,-497.4173 279.1134,-373.6368 308,-347.5382 456.8254,-213.0763 723.7434,-241.9103 828.7948,-259.8316"/>
<polygon fill="#191970" stroke="#191970" points="828.2857,-263.2957 838.7406,-261.5792 829.4972,-256.4013 828.2857,-263.2957"/>
</g>
<!-- Node6035&#45;&gt;Node6033 -->
<g id="edge24" class="edge">
<title>Node6035&#45;&gt;Node6033</title>
<path fill="none" stroke="#191970" d="M246.1675,-553.4446C250.8318,-621.6734 279.2069,-1020.5726 308,-1065.5382 327.6893,-1096.2866 356.4641,-1079.0536 378,-1108.5382 417.4196,-1162.5073 361.3888,-1213.3238 414,-1254.5382 441.5074,-1276.0868 483.4932,-1263.5316 510.5944,-1251.4211"/>
<polygon fill="#191970" stroke="#191970" points="512.3075,-1254.4826 519.8512,-1247.0434 509.3148,-1248.1546 512.3075,-1254.4826"/>
</g>
<!-- Node6035&#45;&gt;Node6036 -->
<g id="edge28" class="edge">
<title>Node6035&#45;&gt;Node6036</title>
<path fill="none" stroke="#191970" d="M248.1474,-533.9041C254.4594,-513.0564 272.5775,-464.0664 308,-444.5382 406.6141,-390.1729 546.4271,-452.0919 603.374,-482.0939"/>
<polygon fill="#191970" stroke="#191970" points="601.9368,-485.2951 612.4013,-486.9518 605.2539,-479.1309 601.9368,-485.2951"/>
</g>
<!-- Node6062 -->
<g id="node20" class="node">
<title>Node6062</title>
<g id="a_node20"><a xlink:href="libbf_8c.html#a65ea78f9810fbcbf75b1cbea5bbec252" target="_top" xlink:title="bf_or_one">
<polygon fill="none" stroke="#ff0000" points="313.5,-657.0382 313.5,-676.0382 372.5,-676.0382 372.5,-657.0382 313.5,-657.0382"/>
<text text-anchor="middle" x="343" y="-664.0382" font-family="Helvetica,sans-Serif" font-size="10.00" fill="#000000">bf_or_one</text>
</a>
</g>
</g>
<!-- Node6035&#45;&gt;Node6062 -->
<g id="edge37" class="edge">
<title>Node6035&#45;&gt;Node6062</title>
<path fill="none" stroke="#191970" d="M249.275,-553.2943C257.3823,-573.1931 278.1731,-618.9894 308,-647.5382 309.4235,-648.9007 310.9639,-650.1953 312.5774,-651.4203"/>
<polygon fill="#191970" stroke="#191970" points="310.7665,-654.4179 321.0527,-656.9564 314.5946,-648.5574 310.7665,-654.4179"/>
</g>
<!-- Node6064 -->
<g id="node21" class="node">
<title>Node6064</title>
<g id="a_node21"><a xlink:href="libbf_8h.html#a6b93880f2b2e6beaa16de4ae6596e908" target="_top" xlink:title="bf_recip">
<polygon fill="none" stroke="#ff0000" points="709,-183.0382 709,-202.0382 760,-202.0382 760,-183.0382 709,-183.0382"/>
<text text-anchor="middle" x="734.5" y="-190.0382" font-family="Helvetica,sans-Serif" font-size="10.00" fill="#000000">bf_recip</text>
</a>
</g>
</g>
<!-- Node6035&#45;&gt;Node6064 -->
<g id="edge38" class="edge">
<title>Node6035&#45;&gt;Node6064</title>
<path fill="none" stroke="#191970" d="M246.1847,-533.9289C249.6269,-488.4008 266.5424,-294.9262 308,-254.5382 415.5851,-149.7286 616.6865,-171.1664 698.4966,-185.3061"/>
<polygon fill="#191970" stroke="#191970" points="698.3137,-188.8292 708.7753,-187.1544 699.5526,-181.9397 698.3137,-188.8292"/>
</g>
<!-- Node6069 -->
<g id="node22" class="node">
<title>Node6069</title>
<g id="a_node22"><a xlink:href="libbf_8h.html#abd4ca8358212228a53981a32a10286b5" target="_top" xlink:title="bf_round">
<polygon fill="none" stroke="#ff0000" points="316,-619.0382 316,-638.0382 370,-638.0382 370,-619.0382 316,-619.0382"/>
<text text-anchor="middle" x="343" y="-626.0382" font-family="Helvetica,sans-Serif" font-size="10.00" fill="#000000">bf_round</text>
</a>
</g>
</g>
<!-- Node6035&#45;&gt;Node6069 -->
<g id="edge43" class="edge">
<title>Node6035&#45;&gt;Node6069</title>
<path fill="none" stroke="#191970" d="M253.1666,-553.4203C264.2089,-567.203 285.7233,-592.4274 308,-609.5382 309.8266,-610.9412 311.7705,-612.3008 313.7701,-613.6045"/>
<polygon fill="#191970" stroke="#191970" points="312.3211,-616.8151 322.7039,-618.9239 315.9023,-610.8006 312.3211,-616.8151"/>
</g>
<!-- Node6070 -->
<g id="node23" class="node">
<title>Node6070</title>
<g id="a_node23"><a xlink:href="libbf_8c.html#a4f1865c8160fb851cce8015c3edb4d4f" target="_top" xlink:title="bf_tdivremu">
<polygon fill="none" stroke="#ff0000" points="309,-829.0382 309,-848.0382 377,-848.0382 377,-829.0382 309,-829.0382"/>
<text text-anchor="middle" x="343" y="-836.0382" font-family="Helvetica,sans-Serif" font-size="10.00" fill="#000000">bf_tdivremu</text>
</a>
</g>
</g>
<!-- Node6035&#45;&gt;Node6070 -->
<g id="edge47" class="edge">
<title>Node6035&#45;&gt;Node6070</title>
<path fill="none" stroke="#191970" d="M248.5305,-553.3073C257.4162,-581.8817 284.2733,-667.7527 308,-738.5382 317.4644,-766.7741 328.9566,-799.2924 336.1262,-819.3829"/>
<polygon fill="#191970" stroke="#191970" points="332.872,-820.6774 339.5361,-828.9139 339.4628,-818.3193 332.872,-820.6774"/>
</g>
<!-- Node6074 -->
<g id="node26" class="node">
<title>Node6074</title>
<g id="a_node26"><a xlink:href="libbf_8c.html#aa6e1a65d3bcb4a514541ed5154239bf6" target="_top" xlink:title="mp_divnorm">
<polygon fill="none" stroke="#ff0000" points="308,-581.0382 308,-600.0382 378,-600.0382 378,-581.0382 308,-581.0382"/>
<text text-anchor="middle" x="343" y="-588.0382" font-family="Helvetica,sans-Serif" font-size="10.00" fill="#000000">mp_divnorm</text>
</a>
</g>
</g>
<!-- Node6035&#45;&gt;Node6074 -->
<g id="edge58" class="edge">
<title>Node6035&#45;&gt;Node6074</title>
<path fill="none" stroke="#191970" d="M265.2306,-553.0493C279.1468,-559.7577 298.0235,-568.8572 313.6942,-576.4113"/>
<polygon fill="#191970" stroke="#191970" points="312.4363,-579.6903 322.9641,-580.8799 315.4759,-573.3847 312.4363,-579.6903"/>
</g>
<!-- Node6036&#45;&gt;Node6006 -->
<g id="edge32" class="edge">
<title>Node6036&#45;&gt;Node6006</title>
<path fill="none" stroke="#191970" d="M648.2807,-506.2228C651.7051,-508.7929 654.8574,-511.8913 657,-515.5382 703.2191,-594.2058 640.3864,-849.9956 693,-924.5382 695.6945,-928.3558 699.3497,-931.4227 703.3799,-933.8824"/>
<polygon fill="#191970" stroke="#191970" points="702.0507,-937.1278 712.5746,-938.3523 705.1113,-930.8323 702.0507,-937.1278"/>
</g>
<!-- Node6036&#45;&gt;Node6007 -->
<g id="edge35" class="edge">
<title>Node6036&#45;&gt;Node6007</title>
<path fill="none" stroke="#191970" d="M647.6918,-506.1991C651.2452,-508.7985 654.5981,-511.9148 657,-515.5382 698.4592,-578.0818 725.3929,-815.6509 732.573,-885.8755"/>
<polygon fill="#191970" stroke="#191970" points="729.1067,-886.3881 733.5875,-895.9887 736.0718,-885.6893 729.1067,-886.3881"/>
</g>
<!-- Node6036&#45;&gt;Node6016 -->
<g id="edge34" class="edge">
<title>Node6036&#45;&gt;Node6016</title>
<path fill="none" stroke="#191970" d="M652.3957,-492.8946C686.5023,-487.5829 751.3182,-477.4886 801.9053,-469.6103"/>
<polygon fill="#191970" stroke="#191970" points="802.4774,-473.0635 811.8196,-468.0663 801.4001,-466.1469 802.4774,-473.0635"/>
</g>
<!-- Node6036&#45;&gt;Node6017 -->
<g id="edge33" class="edge">
<title>Node6036&#45;&gt;Node6017</title>
<path fill="none" stroke="#191970" d="M652.0255,-500.2047C704.5835,-507.5153 836.3802,-519.7953 934,-477.5382 954.3921,-468.7109 973.0171,-451.1508 985.149,-437.8413"/>
<polygon fill="#191970" stroke="#191970" points="987.8678,-440.0492 991.8214,-430.2197 982.601,-435.4383 987.8678,-440.0492"/>
</g>
<!-- Node6036&#45;&gt;Node6027 -->
<g id="edge30" class="edge">
<title>Node6036&#45;&gt;Node6027</title>
<path fill="none" stroke="#191970" d="M629.4335,-486.7271C631.8248,-437.4176 645.0929,-217.2972 693,-173.5382 730.5648,-139.2259 792.6121,-140.7152 833.1486,-146.4454"/>
<polygon fill="#191970" stroke="#191970" points="832.795,-149.9326 843.2153,-148.0175 833.8751,-143.0164 832.795,-149.9326"/>
</g>
<!-- Node6036&#45;&gt;Node6030 -->
<g id="edge29" class="edge">
<title>Node6036&#45;&gt;Node6030</title>
<path fill="none" stroke="#191970" d="M632.5723,-486.9186C640.333,-467.4362 660.6771,-423.3211 693,-401.5382 733.9143,-373.9655 790.9929,-365.8322 829.8303,-363.7178"/>
<polygon fill="#191970" stroke="#191970" points="830.4313,-367.1953 840.2721,-363.2699 830.1313,-360.2018 830.4313,-367.1953"/>
</g>
<!-- Node6036&#45;&gt;Node6028 -->
<g id="edge31" class="edge">
<title>Node6036&#45;&gt;Node6028</title>
<path fill="none" stroke="#191970" d="M631.5468,-486.8668C638.1154,-463.5379 657.6396,-403.3824 693,-366.5382 732.861,-325.0046 794.2323,-296.8264 834.0045,-281.7116"/>
<polygon fill="#191970" stroke="#191970" points="835.4617,-284.9043 843.6245,-278.1501 833.0314,-278.3397 835.4617,-284.9043"/>
</g>
<!-- Node6064&#45;&gt;Node6027 -->
<g id="edge41" class="edge">
<title>Node6064&#45;&gt;Node6027</title>
<path fill="none" stroke="#191970" d="M760.2262,-185.4797C780.7613,-179.8456 809.8832,-171.8554 833.3893,-165.4061"/>
<polygon fill="#191970" stroke="#191970" points="834.3606,-168.769 843.0781,-162.7478 832.5084,-162.0185 834.3606,-168.769"/>
</g>
<!-- Node6064&#45;&gt;Node6030 -->
<g id="edge39" class="edge">
<title>Node6064&#45;&gt;Node6030</title>
<path fill="none" stroke="#191970" d="M742.3432,-202.2218C764.8162,-229.9683 829.6841,-310.0579 858.689,-345.869"/>
<polygon fill="#191970" stroke="#191970" points="856.229,-348.3927 865.2428,-353.9607 861.6687,-343.987 856.229,-348.3927"/>
</g>
<!-- Node6064&#45;&gt;Node6028 -->
<g id="edge40" class="edge">
<title>Node6064&#45;&gt;Node6028</title>
<path fill="none" stroke="#191970" d="M752.0411,-202.1636C775.9765,-215.2978 819.0598,-238.9392 846.823,-254.1739"/>
<polygon fill="#191970" stroke="#191970" points="845.1507,-257.2485 855.6013,-258.9909 848.5182,-251.1118 845.1507,-257.2485"/>
</g>
<!-- Node6070&#45;&gt;Node6004 -->
<g id="edge48" class="edge">
<title>Node6070&#45;&gt;Node6004</title>
<path fill="none" stroke="#191970" d="M375.6959,-828.9951C387.6766,-825.7087 401.3884,-822.1916 414,-819.5382 444.1574,-813.1933 478.8899,-808.0208 503.7391,-804.6837"/>
<polygon fill="#191970" stroke="#191970" points="504.2835,-808.1423 513.7415,-803.3679 503.3704,-801.2021 504.2835,-808.1423"/>
</g>
<!-- Node6070&#45;&gt;Node6013 -->
<g id="edge54" class="edge">
<title>Node6070&#45;&gt;Node6013</title>
<path fill="none" stroke="#191970" d="M370.7815,-848.0659C397.1982,-855.8373 437.986,-864.4847 473,-857.5382 642.0814,-823.9936 804.43,-677.6816 856.0726,-627.5011"/>
<polygon fill="#191970" stroke="#191970" points="858.7159,-629.8106 863.3945,-620.3048 853.8091,-624.8182 858.7159,-629.8106"/>
</g>
<!-- Node6070&#45;&gt;Node6034 -->
<g id="edge53" class="edge">
<title>Node6070&#45;&gt;Node6034</title>
<path fill="none" stroke="#191970" d="M320.069,-848.1402C287.7789,-861.661 228.8175,-886.3502 192.6032,-901.5143"/>
<polygon fill="#191970" stroke="#191970" points="190.9053,-898.4307 183.0332,-905.5215 193.609,-904.8875 190.9053,-898.4307"/>
</g>
<!-- Node6070&#45;&gt;Node6036 -->
<g id="edge55" class="edge">
<title>Node6070&#45;&gt;Node6036</title>
<path fill="none" stroke="#191970" d="M344.0945,-828.9562C348.0845,-797.7716 364.3199,-697.5627 414,-634.5382 463.4743,-571.7749 549.814,-528.9981 596.6151,-509.1658"/>
<polygon fill="#191970" stroke="#191970" points="598.0788,-512.3479 605.9743,-505.2831 595.3964,-505.8822 598.0788,-512.3479"/>
</g>
<!-- Node6066 -->
<g id="node24" class="node">
<title>Node6066</title>
<g id="a_node24"><a xlink:href="libbf_8h.html#a50a5aa2767f2389a32daf115aaef07af" target="_top" xlink:title="bf_add_si">
<polygon fill="none" stroke="#ff0000" points="414,-829.0382 414,-848.0382 473,-848.0382 473,-829.0382 414,-829.0382"/>
<text text-anchor="middle" x="443.5" y="-836.0382" font-family="Helvetica,sans-Serif" font-size="10.00" fill="#000000">bf_add_si</text>
</a>
</g>
</g>
<!-- Node6070&#45;&gt;Node6066 -->
<g id="edge49" class="edge">
<title>Node6070&#45;&gt;Node6066</title>
<path fill="none" stroke="#191970" d="M377.0247,-838.5382C385.6198,-838.5382 394.9245,-838.5382 403.7733,-838.5382"/>
<polygon fill="#191970" stroke="#191970" points="403.8818,-842.0383 413.8818,-838.5382 403.8817,-835.0383 403.8818,-842.0383"/>
</g>
<!-- Node6070&#45;&gt;Node6068 -->
<g id="edge56" class="edge">
<title>Node6070&#45;&gt;Node6068</title>
<path fill="none" stroke="#191970" d="M350.1346,-848.3207C378.8962,-887.7567 486.5744,-1035.3979 524.0469,-1086.7778"/>
<polygon fill="#191970" stroke="#191970" points="521.2847,-1088.9301 530.0051,-1094.9472 526.9403,-1084.8053 521.2847,-1088.9301"/>
</g>
<!-- Node6066&#45;&gt;Node6004 -->
<g id="edge51" class="edge">
<title>Node6066&#45;&gt;Node6004</title>
<path fill="none" stroke="#191970" d="M467.094,-828.9492C478.3635,-824.3691 492.0346,-818.8129 504.2877,-813.833"/>
<polygon fill="#191970" stroke="#191970" points="505.7911,-817.0001 513.7374,-809.9925 503.1555,-810.5152 505.7911,-817.0001"/>
</g>
<!-- Node6066&#45;&gt;Node6006 -->
<g id="edge50" class="edge">
<title>Node6066&#45;&gt;Node6006</title>
<path fill="none" stroke="#191970" d="M457.053,-848.1572C483.3944,-866.3322 543.9352,-905.5907 601,-924.5382 634.5404,-935.6748 674.9465,-940.2841 702.4579,-942.1916"/>
<polygon fill="#191970" stroke="#191970" points="702.4908,-945.7001 712.6859,-942.8174 702.9183,-938.7131 702.4908,-945.7001"/>
</g>
<!-- Node6066&#45;&gt;Node6033 -->
<g id="edge52" class="edge">
<title>Node6066&#45;&gt;Node6033</title>
<path fill="none" stroke="#191970" d="M445.7093,-848.3952C453.9035,-884.9015 483.4048,-1015.8618 509,-1123.5382 516.8981,-1156.7646 526.4541,-1195.3403 532.1131,-1218.0243"/>
<polygon fill="#191970" stroke="#191970" points="528.7336,-1218.9375 534.5537,-1227.7905 535.5247,-1217.2402 528.7336,-1218.9375"/>
</g>
<!-- Node6068&#45;&gt;Node6017 -->
<g id="edge57" class="edge">
<title>Node6068&#45;&gt;Node6017</title>
<path fill="none" stroke="#191970" d="M563.3927,-1094.9033C611.4337,-1076.1889 713.9189,-1030.6846 776,-962.5382 926.6086,-797.2152 983.3289,-516.4153 996.3805,-440.1479"/>
<polygon fill="#191970" stroke="#191970" points="999.8697,-440.5004 998.0521,-430.0626 992.964,-439.3557 999.8697,-440.5004"/>
</g>
<!-- Node6080&#45;&gt;Node6006 -->
<g id="edge62" class="edge">
<title>Node6080&#45;&gt;Node6006</title>
<path fill="none" stroke="#191970" d="M473.1847,-1140.8754C498.2379,-1138.7752 534.7529,-1134.0606 565,-1123.5382 609.3607,-1108.1059 623.2943,-1104.2483 657,-1071.5382 690.2449,-1039.2753 714.7798,-989.8495 726.6074,-962.8274"/>
<polygon fill="#191970" stroke="#191970" points="729.9478,-963.9156 730.6365,-953.3432 723.5051,-961.1786 729.9478,-963.9156"/>
</g>
<!-- Node6080&#45;&gt;Node6033 -->
<g id="edge65" class="edge">
<title>Node6080&#45;&gt;Node6033</title>
<path fill="none" stroke="#191970" d="M453.154,-1152.347C469.0535,-1168.5017 500.93,-1200.8895 520.4733,-1220.7463"/>
<polygon fill="#191970" stroke="#191970" points="518.0287,-1223.2521 527.5378,-1227.9242 523.0177,-1218.3419 518.0287,-1223.2521"/>
</g>
<!-- Node6080&#45;&gt;Node6036 -->
<g id="edge64" class="edge">
<title>Node6080&#45;&gt;Node6036</title>
<path fill="none" stroke="#191970" d="M448.0584,-1133.032C466.1933,-1094.7665 533.7479,-947.8954 565,-819.5382 597.186,-687.3449 530.3229,-631.7955 601,-515.5382 601.494,-514.7256 602.0375,-513.9398 602.6222,-513.1807"/>
<polygon fill="#191970" stroke="#191970" points="605.2677,-515.4943 610.0904,-506.0607 600.4375,-510.4278 605.2677,-515.4943"/>
</g>
<!-- Node6080&#45;&gt;Node6068 -->
<g id="edge63" class="edge">
<title>Node6080&#45;&gt;Node6068</title>
<path fill="none" stroke="#191970" d="M467.094,-1132.9492C478.2781,-1128.4038 491.8276,-1122.897 504.009,-1117.9463"/>
<polygon fill="#191970" stroke="#191970" points="505.4672,-1121.1317 513.4136,-1114.1241 502.8316,-1114.6468 505.4672,-1121.1317"/>
</g>
<!-- Node6081&#45;&gt;Node6027 -->
<g id="edge69" class="edge">
<title>Node6081&#45;&gt;Node6027</title>
<path fill="none" stroke="#191970" d="M254.3129,-106.8186C280.3283,-79.2502 360.2025,-2.5382 443.5,-2.5382 443.5,-2.5382 443.5,-2.5382 629,-2.5382 695.1984,-2.5382 719.2919,7.6146 776,-26.5382 819.6089,-52.8019 850.3533,-106.7102 864.4014,-135.4722"/>
<polygon fill="#191970" stroke="#191970" points="861.3844,-137.2804 868.8146,-144.8331 867.7161,-134.2954 861.3844,-137.2804"/>
</g>
<!-- Node6081&#45;&gt;Node6030 -->
<g id="edge67" class="edge">
<title>Node6081&#45;&gt;Node6030</title>
<path fill="none" stroke="#191970" d="M270.8469,-119.2628C297.8435,-122.5939 341.61,-129.2323 378,-140.5382 564.9321,-198.6154 774.3324,-309.2205 846.7271,-348.9081"/>
<polygon fill="#191970" stroke="#191970" points="845.1872,-352.0557 855.6352,-353.8138 848.5639,-345.924 845.1872,-352.0557"/>
</g>
<!-- Node6081&#45;&gt;Node6028 -->
<g id="edge68" class="edge">
<title>Node6081&#45;&gt;Node6028</title>
<path fill="none" stroke="#191970" d="M270.5215,-108.5721C307.8014,-97.4293 380.3208,-78.5382 443.5,-78.5382 443.5,-78.5382 443.5,-78.5382 537,-78.5382 651.3061,-78.5382 680.1786,-111.2153 776,-173.5382 809.6918,-195.4516 841.5339,-230.318 859.044,-251.1616"/>
<polygon fill="#191970" stroke="#191970" points="856.3699,-253.4201 865.4327,-258.9079 861.7702,-248.9662 856.3699,-253.4201"/>
</g>
<!-- Node6082 -->
<g id="node29" class="node">
<title>Node6082</title>
<g id="a_node29"><a xlink:href="libbf_8c.html#a5527d62eeb1da227fff469a53f9290c9" target="_top" xlink:title="__bf_rsqrt">
<polygon fill="none" stroke="#ff0000" points="313,-525.0382 313,-544.0382 373,-544.0382 373,-525.0382 313,-525.0382"/>
<text text-anchor="middle" x="343" y="-532.0382" font-family="Helvetica,sans-Serif" font-size="10.00" fill="#000000">__bf_rsqrt</text>
</a>
</g>
</g>
<!-- Node6081&#45;&gt;Node6082 -->
<g id="edge70" class="edge">
<title>Node6081&#45;&gt;Node6082</title>
<path fill="none" stroke="#191970" d="M247.7196,-126.0541C260.1488,-179.3404 321.1736,-440.9643 338.4404,-514.9905"/>
<polygon fill="#191970" stroke="#191970" points="335.061,-515.9107 340.7412,-524.8542 341.878,-514.3205 335.061,-515.9107"/>
</g>
<!-- Node6082&#45;&gt;Node6004 -->
<g id="edge72" class="edge">
<title>Node6082&#45;&gt;Node6004</title>
<path fill="none" stroke="#191970" d="M352.9303,-544.2176C360.18,-551.4747 370.0828,-561.7929 378,-571.5382 438.4898,-645.9948 500.6234,-742.4285 525.5958,-782.1768"/>
<polygon fill="#191970" stroke="#191970" points="522.8514,-784.3894 531.1204,-791.0131 528.7868,-780.6784 522.8514,-784.3894"/>
</g>
<!-- Node6082&#45;&gt;Node6006 -->
<g id="edge75" class="edge">
<title>Node6082&#45;&gt;Node6006</title>
<path fill="none" stroke="#191970" d="M361.0595,-544.1199C386.9483,-558.2183 435.6077,-586.0842 473,-615.5382 563.1133,-686.5206 598.6243,-697.7901 657,-796.5382 687.0733,-847.41 654.5775,-879.6377 693,-924.5382 695.9785,-928.0189 699.7282,-930.8964 703.7489,-933.2658"/>
<polygon fill="#191970" stroke="#191970" points="702.2674,-936.4373 712.7894,-937.6778 705.3375,-930.1465 702.2674,-936.4373"/>
</g>
<!-- Node6082&#45;&gt;Node6017 -->
<g id="edge77" class="edge">
<title>Node6082&#45;&gt;Node6017</title>
<path fill="none" stroke="#191970" d="M347.7106,-524.9792C373.5806,-473.699 504.1374,-230.1975 693,-140.5382 789.7819,-94.5926 850.189,-68.8041 934,-135.5382 975.9817,-168.9659 993.294,-341.5412 998.0515,-400.6502"/>
<polygon fill="#191970" stroke="#191970" points="994.582,-401.1823 998.8392,-410.8842 1001.5614,-400.6451 994.582,-401.1823"/>
</g>
<!-- Node6082&#45;&gt;Node6033 -->
<g id="edge74" class="edge">
<title>Node6082&#45;&gt;Node6033</title>
<path fill="none" stroke="#191970" d="M356.0578,-544.3323C363.9163,-551.0402 373.2848,-560.6682 378,-571.5382 430.2731,-692.044 346.5632,-1048.8155 414,-1161.5382 432.9883,-1193.2776 470.865,-1213.6577 499.5971,-1225.24"/>
<polygon fill="#191970" stroke="#191970" points="498.3599,-1228.5141 508.9499,-1228.8344 500.871,-1221.98 498.3599,-1228.5141"/>
</g>
<!-- Node6082&#45;&gt;Node6036 -->
<g id="edge76" class="edge">
<title>Node6082&#45;&gt;Node6036</title>
<path fill="none" stroke="#191970" d="M373.0665,-530.5433C426.9598,-523.3827 539.6095,-508.4153 595.7361,-500.9579"/>
<polygon fill="#191970" stroke="#191970" points="596.4009,-504.4004 605.8528,-499.6137 595.4789,-497.4614 596.4009,-504.4004"/>
</g>
<!-- Node6082&#45;&gt;Node6066 -->
<g id="edge73" class="edge">
<title>Node6082&#45;&gt;Node6066</title>
<path fill="none" stroke="#191970" d="M354.7308,-544.0458C362.4453,-550.9096 372.1596,-560.8244 378,-571.5382 390.0469,-593.6373 426.7113,-760.5936 439.2458,-818.686"/>
<polygon fill="#191970" stroke="#191970" points="435.8918,-819.7374 441.4165,-828.7778 442.7353,-818.2653 435.8918,-819.7374"/>
</g>
<!-- Node6082&#45;&gt;Node6082 -->
<g id="edge71" class="edge">
<title>Node6082&#45;&gt;Node6082</title>
<path fill="none" stroke="#191970" d="M328.2036,-544.2952C321.0054,-553.1035 325.9375,-562.5382 343,-562.5382 353.6641,-562.5382 359.5897,-558.8527 360.7769,-553.9382"/>
<polygon fill="#191970" stroke="#191970" points="364.0934,-552.8157 357.7964,-544.2952 357.4056,-554.8829 364.0934,-552.8157"/>
</g>
<!-- Node6083&#45;&gt;Node6004 -->
<g id="edge80" class="edge">
<title>Node6083&#45;&gt;Node6004</title>
<path fill="none" stroke="#191970" d="M351.0889,-1019.0316C380.7313,-984.1942 483.6878,-863.1938 522.2582,-817.8636"/>
<polygon fill="#191970" stroke="#191970" points="525.0618,-819.9696 528.8765,-810.0854 519.7305,-815.4333 525.0618,-819.9696"/>
</g>
<!-- Node6083&#45;&gt;Node6006 -->
<g id="edge82" class="edge">
<title>Node6083&#45;&gt;Node6006</title>
<path fill="none" stroke="#191970" d="M369.592,-1029.9689C424.9291,-1032.0478 555.741,-1032.2533 657,-995.5382 679.1562,-987.5047 701.154,-971.8132 716.0209,-959.7593"/>
<polygon fill="#191970" stroke="#191970" points="718.4747,-962.2698 723.8975,-953.1679 713.9823,-956.9014 718.4747,-962.2698"/>
</g>
<!-- Node6083&#45;&gt;Node6033 -->
<g id="edge81" class="edge">
<title>Node6083&#45;&gt;Node6033</title>
<path fill="none" stroke="#191970" d="M353.448,-1038.2486C361.3642,-1046.1889 371.8888,-1058.1007 378,-1070.5382 410.526,-1136.7353 357.4163,-1185.2277 414,-1232.5382 437.0867,-1251.8413 471.9885,-1251.4224 498.7235,-1247.1371"/>
<polygon fill="#191970" stroke="#191970" points="499.6916,-1250.5177 508.8917,-1245.2633 498.4229,-1243.6336 499.6916,-1250.5177"/>
</g>
<!-- Node6083&#45;&gt;Node6036 -->
<g id="edge83" class="edge">
<title>Node6083&#45;&gt;Node6036</title>
<path fill="none" stroke="#191970" d="M345.508,-1018.654C353.427,-988.1414 379.4347,-893.0593 414,-819.5382 481.4903,-675.9849 491.3702,-630.1845 601,-515.5382 602.0404,-514.4502 603.153,-513.3896 604.3131,-512.3619"/>
<polygon fill="#191970" stroke="#191970" points="606.6231,-515 612.3921,-506.1136 602.3406,-509.4628 606.6231,-515"/>
</g>
<!-- Node6083&#45;&gt;Node6068 -->
<g id="edge85" class="edge">
<title>Node6083&#45;&gt;Node6068</title>
<path fill="none" stroke="#191970" d="M353.1398,-1038.2577C366.1496,-1050.1519 389.924,-1070.0047 414,-1080.5382 440.8592,-1092.2894 473.5215,-1098.3192 498.4361,-1101.3949"/>
<polygon fill="#191970" stroke="#191970" points="498.2708,-1104.8983 508.5999,-1102.5403 499.0548,-1097.9424 498.2708,-1104.8983"/>
</g>
<!-- Node6083&#45;&gt;Node6080 -->
<g id="edge84" class="edge">
<title>Node6083&#45;&gt;Node6080</title>
<path fill="none" stroke="#191970" d="M351.2049,-1038.0983C358.3899,-1046.5371 369.0508,-1059.2219 378,-1070.5382 394.5412,-1091.4547 395.5194,-1099.3137 414,-1118.5382 416.6252,-1121.2691 419.5555,-1123.9814 422.5223,-1126.5463"/>
<polygon fill="#191970" stroke="#191970" points="420.3236,-1129.2697 430.276,-1132.9029 424.7616,-1123.8563 420.3236,-1129.2697"/>
</g>
<!-- Node6083&#45;&gt;Node6083 -->
<g id="edge86" class="edge">
<title>Node6083&#45;&gt;Node6083</title>
<path fill="none" stroke="#191970" d="M328.2036,-1038.2952C321.0054,-1047.1035 325.9375,-1056.5382 343,-1056.5382 353.6641,-1056.5382 359.5897,-1052.8527 360.7769,-1047.9382"/>
<polygon fill="#191970" stroke="#191970" points="364.0934,-1046.8157 357.7964,-1038.2952 357.4056,-1048.8829 364.0934,-1046.8157"/>
</g>
</g>
</svg>
