<?xml version="1.0" encoding="UTF-8" standalone="no"?>
<!DOCTYPE svg PUBLIC "-//W3C//DTD SVG 1.1//EN"
 "http://www.w3.org/Graphics/SVG/1.1/DTD/svg11.dtd">
<!-- Generated by graphviz version 2.40.1 (20161225.0304)
 -->
<!-- Title: ceil_log2 Pages: 1 -->
<!--zoomable 443 -->
<svg id="main" version="1.1" xmlns="http://www.w3.org/2000/svg" xmlns:xlink="http://www.w3.org/1999/xlink" xml:space="preserve" onload="init(evt)">
<style type="text/css"><![CDATA[
.edge:hover path { stroke: red; }
.edge:hover polygon { stroke: red; fill: red; }
]]></style>
<script type="text/javascript"><![CDATA[
var edges = document.getElementsByTagName('g');
if (edges && edges.length) {
  for (var i=0;i<edges.length;i++) {
    if (edges[i].id.substr(0,4)=='edge') {
      edges[i].setAttribute('class','edge');
    }
  }
}
]]></script>
        <defs>
                <circle id="rim" cx="0" cy="0" r="7"/>
                <circle id="rim2" cx="0" cy="0" r="3.5"/>
                <g id="zoomPlus">
                        <use xlink:href="#rim" fill="#404040">
                                <set attributeName="fill" to="#808080" begin="zoomplus.mouseover" end="zoomplus.mouseout"/>
                        </use>
                        <path d="M-4,0h8M0,-4v8" fill="none" stroke="white" stroke-width="1.5" pointer-events="none"/>
                </g>
                <g id="zoomMin">
                        <use xlink:href="#rim" fill="#404040">
                                <set attributeName="fill" to="#808080" begin="zoomminus.mouseover" end="zoomminus.mouseout"/>
                        </use>
                        <path d="M-4,0h8" fill="none" stroke="white" stroke-width="1.5" pointer-events="none"/>
                </g>
                <g id="dirArrow">
                        <path fill="none" stroke="white" stroke-width="1.5" d="M0,-3.0v7 M-2.5,-0.5L0,-3.0L2.5,-0.5"/>
                </g>
               <g id="resetDef">
                       <use xlink:href="#rim2" fill="#404040">
                               <set attributeName="fill" to="#808080" begin="reset.mouseover" end="reset.mouseout"/>
                       </use>
               </g>
        </defs>

<script type="text/javascript">
var viewWidth = 784;
var viewHeight = 443;
var sectionId = 'dynsection-10';
</script>
<script xlink:href="svgpan.js"/>
<svg id="graph" class="graph">
<g id="viewport">
<title>ceil_log2</title>
<!-- Node186 -->
<g id="node1" class="node">
<title>Node186</title>
<polygon fill="#bfbfbf" stroke="#000000" points="0,-204.5 0,-223.5 55,-223.5 55,-204.5 0,-204.5"/>
<text text-anchor="middle" x="27.5" y="-211.5" font-family="Helvetica,sans-Serif" font-size="10.00" fill="#000000">ceil_log2</text>
</g>
<!-- Node187 -->
<g id="node2" class="node">
<title>Node187</title>
<g id="a_node2"><a xlink:href="libbf_8h.html#ac6017f5cde57dab006383297ea94ef40" target="_top" xlink:title="bf_atof2">
<polygon fill="none" stroke="#000000" points="641,-385.5 641,-404.5 693,-404.5 693,-385.5 641,-385.5"/>
<text text-anchor="middle" x="667" y="-392.5" font-family="Helvetica,sans-Serif" font-size="10.00" fill="#000000">bf_atof2</text>
</a>
</g>
</g>
<!-- Node186&#45;&gt;Node187 -->
<g id="edge1" class="edge">
<title>Node186&#45;&gt;Node187</title>
<path fill="none" stroke="#191970" d="M28.7511,-234.0279C32.1521,-270.5536 44.7278,-347.9934 91,-389 155.8712,-446.4892 194.3208,-433 281,-433 281,-433 281,-433 419.5,-433 501.0105,-433 595.8902,-412.6152 640.8297,-401.7062"/>
<polygon fill="#191970" stroke="#191970" points="32.2125,-233.3989 27.9382,-223.7045 25.2341,-233.9485 32.2125,-233.3989"/>
</g>
<!-- Node189 -->
<g id="node4" class="node">
<title>Node189</title>
<g id="a_node4"><a xlink:href="libbf_8c.html#ad00b7ad7fdff6f2750b91c0fdb530152" target="_top" xlink:title="bf_convert_to_radix">
<polygon fill="none" stroke="#000000" points="503,-271.5 503,-290.5 605,-290.5 605,-271.5 503,-271.5"/>
<text text-anchor="middle" x="554" y="-278.5" font-family="Helvetica,sans-Serif" font-size="10.00" fill="#000000">bf_convert_to_radix</text>
</a>
</g>
</g>
<!-- Node186&#45;&gt;Node189 -->
<g id="edge3" class="edge">
<title>Node186&#45;&gt;Node189</title>
<path fill="none" stroke="#191970" d="M64.7469,-226.4296C73.2951,-228.922 82.4003,-231.295 91,-233 255.7554,-265.6654 300.0087,-252.9653 467,-271 478.6391,-272.257 491.1474,-273.6625 502.949,-275.0135"/>
<polygon fill="#191970" stroke="#191970" points="65.6171,-223.0361 55.0316,-223.4818 63.5846,-229.7346 65.6171,-223.0361"/>
</g>
<!-- Node190 -->
<g id="node5" class="node">
<title>Node190</title>
<g id="a_node5"><a xlink:href="libbf_8h.html#a50551c6578db85d68392a0cb9374e280" target="_top" xlink:title="bf_ftoa">
<polygon fill="none" stroke="#000000" points="643.5,-195.5 643.5,-214.5 690.5,-214.5 690.5,-195.5 643.5,-195.5"/>
<text text-anchor="middle" x="667" y="-202.5" font-family="Helvetica,sans-Serif" font-size="10.00" fill="#000000">bf_ftoa</text>
</a>
</g>
</g>
<!-- Node186&#45;&gt;Node190 -->
<g id="edge4" class="edge">
<title>Node186&#45;&gt;Node190</title>
<path fill="none" stroke="#191970" d="M50.101,-198.593C61.8282,-191.2848 76.669,-183.0639 91,-178 265.9853,-116.168 318.0319,-125.1618 503,-110 548.1818,-106.2965 565.1358,-88.4139 605,-110 639.291,-128.5683 657.6269,-175.2433 664.1751,-195.4398"/>
<polygon fill="#191970" stroke="#191970" points="47.9414,-195.8209 41.4326,-204.1807 51.734,-201.7044 47.9414,-195.8209"/>
</g>
<!-- Node191 -->
<g id="node6" class="node">
<title>Node191</title>
<g id="a_node6"><a xlink:href="libbf_8h.html#a45f0d9e009bdecc62435c9cb87454c3c" target="_top" xlink:title="bf_get_fft_size">
<polygon fill="none" stroke="#000000" points="100,-204.5 100,-223.5 181,-223.5 181,-204.5 100,-204.5"/>
<text text-anchor="middle" x="140.5" y="-211.5" font-family="Helvetica,sans-Serif" font-size="10.00" fill="#000000">bf_get_fft_size</text>
</a>
</g>
</g>
<!-- Node186&#45;&gt;Node191 -->
<g id="edge5" class="edge">
<title>Node186&#45;&gt;Node191</title>
<path fill="none" stroke="#191970" d="M65.3828,-214C76.4754,-214 88.6459,-214 99.9002,-214"/>
<polygon fill="#191970" stroke="#191970" points="65.1429,-210.5001 55.1429,-214 65.1429,-217.5001 65.1429,-210.5001"/>
</g>
<!-- Node210 -->
<g id="node9" class="node">
<title>Node210</title>
<g id="a_node9"><a xlink:href="libbf_8h.html#a0b4d56fc6808de8feed2a234525df692" target="_top" xlink:title="bf_mul_pow_radix">
<polygon fill="none" stroke="#000000" points="506.5,-347.5 506.5,-366.5 601.5,-366.5 601.5,-347.5 506.5,-347.5"/>
<text text-anchor="middle" x="554" y="-354.5" font-family="Helvetica,sans-Serif" font-size="10.00" fill="#000000">bf_mul_pow_radix</text>
</a>
</g>
</g>
<!-- Node186&#45;&gt;Node210 -->
<g id="edge29" class="edge">
<title>Node186&#45;&gt;Node210</title>
<path fill="none" stroke="#191970" d="M37.1173,-232.5263C47.6988,-250.8779 66.5064,-278.1811 91,-292 226.3809,-368.3799 418.3021,-366.8606 506.4184,-361.2464"/>
<polygon fill="#191970" stroke="#191970" points="40.1099,-230.7047 32.2239,-223.6294 33.9764,-234.0783 40.1099,-230.7047"/>
</g>
<!-- Node245 -->
<g id="node14" class="node">
<title>Node245</title>
<g id="a_node14"><a xlink:href="libbf_8c.html#a0bf05f50640dc8837693199c565dcc47" target="_top" xlink:title="bf_integer_from_radix">
<polygon fill="none" stroke="#000000" points="226,-385.5 226,-404.5 336,-404.5 336,-385.5 226,-385.5"/>
<text text-anchor="middle" x="281" y="-392.5" font-family="Helvetica,sans-Serif" font-size="10.00" fill="#000000">bf_integer_from_radix</text>
</a>
</g>
</g>
<!-- Node186&#45;&gt;Node245 -->
<g id="edge16" class="edge">
<title>Node186&#45;&gt;Node245</title>
<path fill="none" stroke="#191970" d="M30.451,-233.975C36.1876,-265.3186 51.9072,-325.6998 91,-357 128.9449,-387.3811 184.5889,-395.5719 225.8619,-396.9435"/>
<polygon fill="#191970" stroke="#191970" points="33.8598,-233.1378 28.7643,-223.8488 26.9549,-234.288 33.8598,-233.1378"/>
</g>
<!-- Node230 -->
<g id="node15" class="node">
<title>Node230</title>
<g id="a_node15"><a xlink:href="libbf_8c.html#a64e5cf2e3c2868e064ccfd82cc89c1bd" target="_top" xlink:title="bf_integer_to_radix">
<polygon fill="none" stroke="#000000" points="91,-38.5 91,-57.5 190,-57.5 190,-38.5 91,-38.5"/>
<text text-anchor="middle" x="140.5" y="-45.5" font-family="Helvetica,sans-Serif" font-size="10.00" fill="#000000">bf_integer_to_radix</text>
</a>
</g>
</g>
<!-- Node186&#45;&gt;Node230 -->
<g id="edge18" class="edge">
<title>Node186&#45;&gt;Node230</title>
<path fill="none" stroke="#191970" d="M31.694,-194.4364C38.9974,-164.5875 56.6628,-107.4165 91,-72 96.9167,-65.8973 104.7023,-61.1371 112.3421,-57.5236"/>
<polygon fill="#191970" stroke="#191970" points="28.2247,-193.9056 29.3892,-204.4363 35.0458,-195.4779 28.2247,-193.9056"/>
</g>
<!-- Node231 -->
<g id="node16" class="node">
<title>Node231</title>
<g id="a_node16"><a xlink:href="libbf_8c.html#ad822be23230b2b31b63bbc893881aa25" target="_top" xlink:title="output_digits">
<polygon fill="none" stroke="#000000" points="245,-43.5 245,-62.5 317,-62.5 317,-43.5 245,-43.5"/>
<text text-anchor="middle" x="281" y="-50.5" font-family="Helvetica,sans-Serif" font-size="10.00" fill="#000000">output_digits</text>
</a>
</g>
</g>
<!-- Node186&#45;&gt;Node231 -->
<g id="edge31" class="edge">
<title>Node186&#45;&gt;Node231</title>
<path fill="none" stroke="#191970" d="M34.2656,-194.8135C43.4926,-171.3964 62.2387,-132.186 91,-110 115.1325,-91.3846 196.7224,-71.2624 244.7805,-60.6159"/>
<polygon fill="#191970" stroke="#191970" points="30.926,-193.7512 30.6942,-204.3435 37.4809,-196.2077 30.926,-193.7512"/>
</g>
<!-- Node247 -->
<g id="node17" class="node">
<title>Node247</title>
<g id="a_node17"><a xlink:href="libbf_8c.html#aa66b0740c67d6282af8593704eeb3de7" target="_top" xlink:title="bf_isqrt">
<polygon fill="none" stroke="#000000" points="395,-166.5 395,-185.5 444,-185.5 444,-166.5 395,-166.5"/>
<text text-anchor="middle" x="419.5" y="-173.5" font-family="Helvetica,sans-Serif" font-size="10.00" fill="#000000">bf_isqrt</text>
</a>
</g>
</g>
<!-- Node186&#45;&gt;Node247 -->
<g id="edge21" class="edge">
<title>Node186&#45;&gt;Node247</title>
<path fill="none" stroke="#191970" d="M63.9291,-201.5196C72.6999,-198.9564 82.1072,-196.5655 91,-195 203.2416,-175.241 340.0434,-174.7395 394.9613,-175.4806"/>
<polygon fill="#191970" stroke="#191970" points="62.8943,-198.176 54.3584,-204.452 64.945,-204.8689 62.8943,-198.176"/>
</g>
<!-- Node248 -->
<g id="node18" class="node">
<title>Node248</title>
<g id="a_node18"><a xlink:href="libbf_8h.html#a5ca5a63aa9b1b1d723f0634adf318c71" target="_top" xlink:title="bf_mul_log2_radix">
<polygon fill="none" stroke="#000000" points="372,-280.5 372,-299.5 467,-299.5 467,-280.5 372,-280.5"/>
<text text-anchor="middle" x="419.5" y="-287.5" font-family="Helvetica,sans-Serif" font-size="10.00" fill="#000000">bf_mul_log2_radix</text>
</a>
</g>
</g>
<!-- Node186&#45;&gt;Node248 -->
<g id="edge26" class="edge">
<title>Node186&#45;&gt;Node248</title>
<path fill="none" stroke="#191970" d="M42.6979,-231.1052C54.5435,-243.1669 72.1091,-258.4647 91,-266 185.0113,-303.4996 306.0596,-300.6173 371.8164,-295.2673"/>
<polygon fill="#191970" stroke="#191970" points="45.1863,-228.6423 35.7833,-223.7603 40.0895,-233.4406 45.1863,-228.6423"/>
</g>
<!-- Node228 -->
<g id="node19" class="node">
<title>Node228</title>
<g id="a_node19"><a xlink:href="libbf_8c.html#afb959ebe491ad24167b5eff3b811f211" target="_top" xlink:title="bf_pow_int">
<polygon fill="none" stroke="#ff0000" points="108.5,-.5 108.5,-19.5 172.5,-19.5 172.5,-.5 108.5,-.5"/>
<text text-anchor="middle" x="140.5" y="-7.5" font-family="Helvetica,sans-Serif" font-size="10.00" fill="#000000">bf_pow_int</text>
</a>
</g>
</g>
<!-- Node186&#45;&gt;Node228 -->
<g id="edge30" class="edge">
<title>Node186&#45;&gt;Node228</title>
<path fill="none" stroke="#191970" d="M28.9268,-193.9644C32.6301,-156.628 45.7023,-75.9517 91,-29 95.7934,-24.0315 102.0268,-20.3435 108.445,-17.6121"/>
<polygon fill="#191970" stroke="#191970" points="25.4272,-193.8105 28.053,-204.0748 32.4012,-194.4133 25.4272,-193.8105"/>
</g>
<!-- Node188 -->
<g id="node3" class="node">
<title>Node188</title>
<g id="a_node3"><a xlink:href="libbf_8h.html#a85c6215e124f35f5dcadac77990a61c9" target="_top" xlink:title="bf_atof">
<polygon fill="none" stroke="#000000" points="729,-385.5 729,-404.5 776,-404.5 776,-385.5 729,-385.5"/>
<text text-anchor="middle" x="752.5" y="-392.5" font-family="Helvetica,sans-Serif" font-size="10.00" fill="#000000">bf_atof</text>
</a>
</g>
</g>
<!-- Node187&#45;&gt;Node188 -->
<g id="edge2" class="edge">
<title>Node187&#45;&gt;Node188</title>
<path fill="none" stroke="#191970" d="M703.3683,-395C711.9963,-395 720.979,-395 728.8679,-395"/>
<polygon fill="#191970" stroke="#191970" points="703.1174,-391.5001 693.1174,-395 703.1174,-398.5001 703.1174,-391.5001"/>
</g>
<!-- Node192 -->
<g id="node7" class="node">
<title>Node192</title>
<g id="a_node7"><a xlink:href="libbf_8c.html#a2f9f07876fb472f11c33a5e066ae9765" target="_top" xlink:title="fft_mul">
<polygon fill="none" stroke="#000000" points="257.5,-204.5 257.5,-223.5 304.5,-223.5 304.5,-204.5 257.5,-204.5"/>
<text text-anchor="middle" x="281" y="-211.5" font-family="Helvetica,sans-Serif" font-size="10.00" fill="#000000">fft_mul</text>
</a>
</g>
</g>
<!-- Node191&#45;&gt;Node192 -->
<g id="edge6" class="edge">
<title>Node191&#45;&gt;Node192</title>
<path fill="none" stroke="#191970" d="M191.2328,-214C213.7275,-214 239.1221,-214 257.1462,-214"/>
<polygon fill="#191970" stroke="#191970" points="191.1385,-210.5001 181.1384,-214 191.1384,-217.5001 191.1385,-210.5001"/>
</g>
<!-- Node193 -->
<g id="node8" class="node">
<title>Node193</title>
<g id="a_node8"><a xlink:href="libbf_8h.html#ac290278d0c37a0e7786873f98aadba47" target="_top" xlink:title="bf_mul">
<polygon fill="none" stroke="#ff0000" points="396.5,-204.5 396.5,-223.5 442.5,-223.5 442.5,-204.5 396.5,-204.5"/>
<text text-anchor="middle" x="419.5" y="-211.5" font-family="Helvetica,sans-Serif" font-size="10.00" fill="#000000">bf_mul</text>
</a>
</g>
</g>
<!-- Node192&#45;&gt;Node193 -->
<g id="edge7" class="edge">
<title>Node192&#45;&gt;Node193</title>
<path fill="none" stroke="#191970" d="M315.0788,-214C340.399,-214 374.2596,-214 396.4619,-214"/>
<polygon fill="#191970" stroke="#191970" points="314.809,-210.5001 304.809,-214 314.809,-217.5001 314.809,-210.5001"/>
</g>
<!-- Node193&#45;&gt;Node189 -->
<g id="edge11" class="edge">
<title>Node193&#45;&gt;Node189</title>
<path fill="none" stroke="#191970" d="M448.8881,-228.1548C454.9492,-231.2669 461.2384,-234.6402 467,-238 483.6116,-247.6868 485.8757,-253.2516 503,-262 509.8997,-265.5249 517.6118,-268.741 524.9081,-271.4846"/>
<polygon fill="#191970" stroke="#191970" points="450.1669,-224.8804 439.6599,-223.5189 447.0245,-231.1355 450.1669,-224.8804"/>
</g>
<!-- Node193&#45;&gt;Node210 -->
<g id="edge8" class="edge">
<title>Node193&#45;&gt;Node210</title>
<path fill="none" stroke="#191970" d="M435.6329,-231.1524C464.1801,-261.5038 522.6892,-323.7104 545.0448,-347.4789"/>
<polygon fill="#191970" stroke="#191970" points="438.1455,-228.7153 428.7447,-223.829 433.0465,-233.5112 438.1455,-228.7153"/>
</g>
<!-- Node213 -->
<g id="node10" class="node">
<title>Node213</title>
<g id="a_node10"><a xlink:href="libbf_8c.html#a157194b3c7faaa17e39ae78cd98c4385" target="_top" xlink:title="bf_exp_internal">
<polygon fill="none" stroke="#ff0000" points="512.5,-233.5 512.5,-252.5 595.5,-252.5 595.5,-233.5 512.5,-233.5"/>
<text text-anchor="middle" x="554" y="-240.5" font-family="Helvetica,sans-Serif" font-size="10.00" fill="#000000">bf_exp_internal</text>
</a>
</g>
</g>
<!-- Node193&#45;&gt;Node213 -->
<g id="edge12" class="edge">
<title>Node193&#45;&gt;Node213</title>
<path fill="none" stroke="#191970" d="M452.427,-221.0995C470.5264,-225.002 493.1576,-229.8816 512.4613,-234.0437"/>
<polygon fill="#191970" stroke="#191970" points="453.1345,-217.6717 442.6214,-218.9853 451.659,-224.5144 453.1345,-217.6717"/>
</g>
<!-- Node217 -->
<g id="node11" class="node">
<title>Node217</title>
<g id="a_node11"><a xlink:href="libbf_8c.html#aab7bc918fdd8dbef25c31c6881c73fdd" target="_top" xlink:title="bf_log_internal">
<polygon fill="none" stroke="#ff0000" points="514,-195.5 514,-214.5 594,-214.5 594,-195.5 514,-195.5"/>
<text text-anchor="middle" x="554" y="-202.5" font-family="Helvetica,sans-Serif" font-size="10.00" fill="#000000">bf_log_internal</text>
</a>
</g>
</g>
<!-- Node193&#45;&gt;Node217 -->
<g id="edge13" class="edge">
<title>Node193&#45;&gt;Node217</title>
<path fill="none" stroke="#191970" d="M452.6302,-211.7831C471.119,-210.5459 494.2884,-208.9956 513.8078,-207.6894"/>
<polygon fill="#191970" stroke="#191970" points="452.3654,-208.2929 442.6214,-212.4528 452.8328,-215.2773 452.3654,-208.2929"/>
</g>
<!-- Node203 -->
<g id="node12" class="node">
<title>Node203</title>
<g id="a_node12"><a xlink:href="libbf_8c.html#ab769247f7a6429c42dfeba4f8334cb75" target="_top" xlink:title="bf_sincos">
<polygon fill="none" stroke="#ff0000" points="524.5,-157.5 524.5,-176.5 583.5,-176.5 583.5,-157.5 524.5,-157.5"/>
<text text-anchor="middle" x="554" y="-164.5" font-family="Helvetica,sans-Serif" font-size="10.00" fill="#000000">bf_sincos</text>
</a>
</g>
</g>
<!-- Node193&#45;&gt;Node203 -->
<g id="edge14" class="edge">
<title>Node193&#45;&gt;Node203</title>
<path fill="none" stroke="#191970" d="M452.2044,-202.5717C474.9793,-194.6132 505.0105,-184.119 526.5424,-176.5948"/>
<polygon fill="#191970" stroke="#191970" points="450.907,-199.3175 442.6214,-205.9204 453.2162,-205.9256 450.907,-199.3175"/>
</g>
<!-- Node221 -->
<g id="node13" class="node">
<title>Node221</title>
<g id="a_node13"><a xlink:href="libbf_8c.html#aa4b535a5b33344704c576607ab4f0463" target="_top" xlink:title="bf_atan_internal">
<polygon fill="none" stroke="#ff0000" points="511,-119.5 511,-138.5 597,-138.5 597,-119.5 511,-119.5"/>
<text text-anchor="middle" x="554" y="-126.5" font-family="Helvetica,sans-Serif" font-size="10.00" fill="#000000">bf_atan_internal</text>
</a>
</g>
</g>
<!-- Node193&#45;&gt;Node221 -->
<g id="edge15" class="edge">
<title>Node193&#45;&gt;Node221</title>
<path fill="none" stroke="#191970" d="M451.9972,-203.7365C457.2783,-201.317 462.4885,-198.4214 467,-195 487.9655,-179.1005 481.8461,-163.648 503,-148 508.1654,-144.179 514.1851,-141.0473 520.2408,-138.5084"/>
<polygon fill="#191970" stroke="#191970" points="450.4887,-200.5718 442.5502,-207.5883 453.1316,-207.0537 450.4887,-200.5718"/>
</g>
<!-- Node210&#45;&gt;Node187 -->
<g id="edge9" class="edge">
<title>Node210&#45;&gt;Node187</title>
<path fill="none" stroke="#191970" d="M592.1436,-369.827C608.1516,-375.2103 626.3652,-381.3352 640.8182,-386.1955"/>
<polygon fill="#191970" stroke="#191970" points="593.1087,-366.4591 582.5147,-366.589 590.8775,-373.0939 593.1087,-366.4591"/>
</g>
<!-- Node210&#45;&gt;Node190 -->
<g id="edge10" class="edge">
<title>Node210&#45;&gt;Node190</title>
<path fill="none" stroke="#191970" d="M592.2286,-342.6355C596.8628,-339.8867 601.2687,-336.6897 605,-333 640.6418,-297.7561 658.7435,-237.9205 664.7111,-214.6554"/>
<polygon fill="#191970" stroke="#191970" points="590.3929,-339.6457 583.1529,-347.3809 593.6364,-345.8489 590.3929,-339.6457"/>
</g>
<!-- Node245&#45;&gt;Node187 -->
<g id="edge17" class="edge">
<title>Node245&#45;&gt;Node187</title>
<path fill="none" stroke="#191970" d="M346.5239,-395C432.9122,-395 580.9424,-395 640.7698,-395"/>
<polygon fill="#191970" stroke="#191970" points="346.3044,-391.5001 336.3044,-395 346.3044,-398.5001 346.3044,-391.5001"/>
</g>
<!-- Node230&#45;&gt;Node231 -->
<g id="edge19" class="edge">
<title>Node230&#45;&gt;Node231</title>
<path fill="none" stroke="#191970" d="M200.3427,-50.1296C215.4337,-50.6667 231.1799,-51.227 244.7122,-51.7086"/>
<polygon fill="#191970" stroke="#191970" points="200.1532,-46.6208 190.035,-49.7628 199.9042,-53.6163 200.1532,-46.6208"/>
</g>
<!-- Node231&#45;&gt;Node190 -->
<g id="edge20" class="edge">
<title>Node231&#45;&gt;Node190</title>
<path fill="none" stroke="#191970" d="M326.9648,-43.0976C394.2795,-31.3163 520.7985,-19.7853 605,-77 646.8674,-105.4488 661.4391,-170.4151 665.5833,-195.1711"/>
<polygon fill="#191970" stroke="#191970" points="326.2874,-39.6633 317.0799,-44.9046 327.5463,-46.5492 326.2874,-39.6633"/>
</g>
<!-- Node247&#45;&gt;Node213 -->
<g id="edge22" class="edge">
<title>Node247&#45;&gt;Node213</title>
<path fill="none" stroke="#191970" d="M453.6611,-188.2263C458.249,-190.2808 462.8123,-192.5502 467,-195 484.7341,-205.3743 485.1433,-213.8382 503,-224 509.3233,-227.5984 516.4566,-230.7511 523.3407,-233.4006"/>
<polygon fill="#191970" stroke="#191970" points="454.8979,-184.9499 444.3216,-184.3222 452.1981,-191.4083 454.8979,-184.9499"/>
</g>
<!-- Node247&#45;&gt;Node217 -->
<g id="edge23" class="edge">
<title>Node247&#45;&gt;Node217</title>
<path fill="none" stroke="#191970" d="M454.104,-183.4611C472.3724,-187.4 494.8844,-192.2539 513.9102,-196.3561"/>
<polygon fill="#191970" stroke="#191970" points="454.6825,-180.0054 444.1694,-181.319 453.207,-186.8482 454.6825,-180.0054"/>
</g>
<!-- Node247&#45;&gt;Node203 -->
<g id="edge24" class="edge">
<title>Node247&#45;&gt;Node203</title>
<path fill="none" stroke="#191970" d="M454.2936,-173.6718C476.0038,-172.2191 503.6502,-170.3691 524.3221,-168.9859"/>
<polygon fill="#191970" stroke="#191970" points="453.9134,-170.1893 444.1694,-174.3493 454.3808,-177.1737 453.9134,-170.1893"/>
</g>
<!-- Node247&#45;&gt;Node221 -->
<g id="edge25" class="edge">
<title>Node247&#45;&gt;Node221</title>
<path fill="none" stroke="#191970" d="M453.7347,-164.037C476.3713,-156.1268 505.6454,-145.8971 526.711,-138.5359"/>
<polygon fill="#191970" stroke="#191970" points="452.455,-160.7765 444.1694,-167.3795 454.7642,-167.3847 452.455,-160.7765"/>
</g>
<!-- Node248&#45;&gt;Node189 -->
<g id="edge27" class="edge">
<title>Node248&#45;&gt;Node189</title>
<path fill="none" stroke="#191970" d="M477.422,-286.1242C485.8321,-285.5614 494.4406,-284.9854 502.7076,-284.4322"/>
<polygon fill="#191970" stroke="#191970" points="477.0424,-282.6417 467.2984,-286.8016 477.5098,-289.626 477.0424,-282.6417"/>
</g>
<!-- Node248&#45;&gt;Node190 -->
<g id="edge28" class="edge">
<title>Node248&#45;&gt;Node190</title>
<path fill="none" stroke="#191970" d="M455.3256,-302.4718C494.5741,-313.8428 558.1691,-325.3585 605,-300 639.291,-281.4317 657.6269,-234.7567 664.1751,-214.5602"/>
<polygon fill="#191970" stroke="#191970" points="456.2424,-299.0924 445.6566,-299.53 454.2048,-305.7893 456.2424,-299.0924"/>
</g>
</g>
</svg>
        <g id="navigator" transform="translate(0 0)" fill="#404254">
                <rect fill="#f2f5e9" fill-opacity="0.5" stroke="#606060" stroke-width=".5" x="0" y="0" width="60" height="60"/>
                <use id="zoomplus" xlink:href="#zoomPlus" x="17" y="9" onmousedown="handleZoom(evt,'in')"/>
                <use id="zoomminus" xlink:href="#zoomMin" x="42" y="9" onmousedown="handleZoom(evt,'out')"/>
                <use id="reset" xlink:href="#resetDef" x="30" y="36" onmousedown="handleReset()"/>
                <g id="arrowUp" xlink:href="#dirArrow" transform="translate(30 24)" onmousedown="handlePan(0,-1)">
                  <use xlink:href="#rim" fill="#404040">
                        <set attributeName="fill" to="#808080" begin="arrowUp.mouseover" end="arrowUp.mouseout"/>
                  </use>
                  <path fill="none" stroke="white" stroke-width="1.5" d="M0,-3.0v7 M-2.5,-0.5L0,-3.0L2.5,-0.5"/>
                </g>
                <g id="arrowRight" xlink:href="#dirArrow" transform="rotate(90) translate(36 -43)" onmousedown="handlePan(1,0)">
                  <use xlink:href="#rim" fill="#404040">
                        <set attributeName="fill" to="#808080" begin="arrowRight.mouseover" end="arrowRight.mouseout"/>
                  </use>
                  <path fill="none" stroke="white" stroke-width="1.5" d="M0,-3.0v7 M-2.5,-0.5L0,-3.0L2.5,-0.5"/>
                </g>
                <g id="arrowDown" xlink:href="#dirArrow" transform="rotate(180) translate(-30 -48)" onmousedown="handlePan(0,1)">
                  <use xlink:href="#rim" fill="#404040">
                        <set attributeName="fill" to="#808080" begin="arrowDown.mouseover" end="arrowDown.mouseout"/>
                  </use>
                  <path fill="none" stroke="white" stroke-width="1.5" d="M0,-3.0v7 M-2.5,-0.5L0,-3.0L2.5,-0.5"/>
                </g>
                <g id="arrowLeft" xlink:href="#dirArrow" transform="rotate(270) translate(-36 17)" onmousedown="handlePan(-1,0)">
                  <use xlink:href="#rim" fill="#404040">
                        <set attributeName="fill" to="#808080" begin="arrowLeft.mouseover" end="arrowLeft.mouseout"/>
                  </use>
                  <path fill="none" stroke="white" stroke-width="1.5" d="M0,-3.0v7 M-2.5,-0.5L0,-3.0L2.5,-0.5"/>
                </g>
        </g>
        <svg viewBox="0 0 15 15" width="100%" height="30px" preserveAspectRatio="xMaxYMin meet">
         <g id="arrow_out" transform="scale(0.3 0.3)">
          <a xlink:href="libbf_8c_a6894718ef8656587ffa22bdfebf1a78f_icgraph_org.svg" target="_base">
           <rect id="button" ry="5" rx="5" y="6" x="6" height="38" width="38"
                fill="#f2f5e9" fill-opacity="0.5" stroke="#606060" stroke-width="1.0"/>
           <path id="arrow"
             d="M 11.500037,31.436501 C 11.940474,20.09759 22.043105,11.32322 32.158766,21.979434 L 37.068811,17.246167 C 37.068811,17.246167 37.088388,32 37.088388,32 L 22.160133,31.978069 C 22.160133,31.978069 26.997745,27.140456 26.997745,27.140456 C 18.528582,18.264221 13.291696,25.230495 11.500037,31.436501 z"
             style="fill:#404040;"/>
          </a>
         </g>
        </svg>
</svg>
