<?xml version="1.0" encoding="UTF-8" standalone="no"?>
<!DOCTYPE svg PUBLIC "-//W3C//DTD SVG 1.1//EN"
 "http://www.w3.org/Graphics/SVG/1.1/DTD/svg11.dtd">
<!-- Generated by graphviz version 2.40.1 (20161225.0304)
 -->
<!-- Title: bf_mul_pow_radix Pages: 1 -->
<svg width="274pt" height="66pt"
 viewBox="0.00 0.00 274.00 66.00" xmlns="http://www.w3.org/2000/svg" xmlns:xlink="http://www.w3.org/1999/xlink">
<g id="graph0" class="graph" transform="scale(1 1) rotate(0) translate(4 62)">
<title>bf_mul_pow_radix</title>
<!-- Node2915 -->
<g id="node1" class="node">
<title>Node2915</title>
<polygon fill="#bfbfbf" stroke="#000000" points="0,-19.5 0,-38.5 95,-38.5 95,-19.5 0,-19.5"/>
<text text-anchor="middle" x="47.5" y="-26.5" font-family="Helvetica,sans-Serif" font-size="10.00" fill="#000000">bf_mul_pow_radix</text>
</g>
<!-- Node2916 -->
<g id="node2" class="node">
<title>Node2916</title>
<g id="a_node2"><a xlink:href="libbf_8h.html#ac6017f5cde57dab006383297ea94ef40" target="_top" xlink:title="bf_atof2">
<polygon fill="none" stroke="#000000" points="131,-38.5 131,-57.5 183,-57.5 183,-38.5 131,-38.5"/>
<text text-anchor="middle" x="157" y="-45.5" font-family="Helvetica,sans-Serif" font-size="10.00" fill="#000000">bf_atof2</text>
</a>
</g>
</g>
<!-- Node2915&#45;&gt;Node2916 -->
<g id="edge1" class="edge">
<title>Node2915&#45;&gt;Node2916</title>
<path fill="none" stroke="#191970" d="M105.2883,-39.0272C114.2193,-40.5769 123.0422,-42.1078 130.8025,-43.4543"/>
<polygon fill="#191970" stroke="#191970" points="105.6609,-35.5396 95.2098,-37.2784 104.4641,-42.4366 105.6609,-35.5396"/>
</g>
<!-- Node2918 -->
<g id="node4" class="node">
<title>Node2918</title>
<g id="a_node4"><a xlink:href="libbf_8h.html#a50551c6578db85d68392a0cb9374e280" target="_top" xlink:title="bf_ftoa">
<polygon fill="none" stroke="#000000" points="133.5,-.5 133.5,-19.5 180.5,-19.5 180.5,-.5 133.5,-.5"/>
<text text-anchor="middle" x="157" y="-7.5" font-family="Helvetica,sans-Serif" font-size="10.00" fill="#000000">bf_ftoa</text>
</a>
</g>
</g>
<!-- Node2915&#45;&gt;Node2918 -->
<g id="edge3" class="edge">
<title>Node2915&#45;&gt;Node2918</title>
<path fill="none" stroke="#191970" d="M105.2067,-18.987C115.2094,-17.2513 125.08,-15.5386 133.478,-14.0814"/>
<polygon fill="#191970" stroke="#191970" points="104.4641,-15.5634 95.2098,-20.7216 105.6609,-22.4604 104.4641,-15.5634"/>
</g>
<!-- Node2917 -->
<g id="node3" class="node">
<title>Node2917</title>
<g id="a_node3"><a xlink:href="libbf_8h.html#a85c6215e124f35f5dcadac77990a61c9" target="_top" xlink:title="bf_atof">
<polygon fill="none" stroke="#000000" points="219,-38.5 219,-57.5 266,-57.5 266,-38.5 219,-38.5"/>
<text text-anchor="middle" x="242.5" y="-45.5" font-family="Helvetica,sans-Serif" font-size="10.00" fill="#000000">bf_atof</text>
</a>
</g>
</g>
<!-- Node2916&#45;&gt;Node2917 -->
<g id="edge2" class="edge">
<title>Node2916&#45;&gt;Node2917</title>
<path fill="none" stroke="#191970" d="M193.3683,-48C201.9963,-48 210.979,-48 218.8679,-48"/>
<polygon fill="#191970" stroke="#191970" points="193.1174,-44.5001 183.1174,-48 193.1174,-51.5001 193.1174,-44.5001"/>
</g>
</g>
</svg>
