<?xml version="1.0" encoding="UTF-8" standalone="no"?>
<!DOCTYPE svg PUBLIC "-//W3C//DTD SVG 1.1//EN"
 "http://www.w3.org/Graphics/SVG/1.1/DTD/svg11.dtd">
<!-- Generated by graphviz version 2.40.1 (20161225.0304)
 -->
<!-- Title: bf_add_si Pages: 1 -->
<svg width="465pt" height="180pt"
 viewBox="0.00 0.00 465.00 180.00" xmlns="http://www.w3.org/2000/svg" xmlns:xlink="http://www.w3.org/1999/xlink">
<g id="graph0" class="graph" transform="scale(1 1) rotate(0) translate(4 176)">
<title>bf_add_si</title>
<!-- Node4463 -->
<g id="node1" class="node">
<title>Node4463</title>
<polygon fill="#bfbfbf" stroke="#000000" points="0,-57.5 0,-76.5 59,-76.5 59,-57.5 0,-57.5"/>
<text text-anchor="middle" x="29.5" y="-64.5" font-family="Helvetica,sans-Serif" font-size="10.00" fill="#000000">bf_add_si</text>
</g>
<!-- Node4464 -->
<g id="node2" class="node">
<title>Node4464</title>
<g id="a_node2"><a xlink:href="libbf_8h.html#a17dc09166f82ffa408f54a2edc4d7855" target="_top" xlink:title="bf_add">
<polygon fill="none" stroke="#000000" points="100,-114.5 100,-133.5 146,-133.5 146,-114.5 100,-114.5"/>
<text text-anchor="middle" x="123" y="-121.5" font-family="Helvetica,sans-Serif" font-size="10.00" fill="#000000">bf_add</text>
</a>
</g>
</g>
<!-- Node4463&#45;&gt;Node4464 -->
<g id="edge1" class="edge">
<title>Node4463&#45;&gt;Node4464</title>
<path fill="none" stroke="#191970" d="M45.361,-76.6693C59.9559,-85.5667 81.8209,-98.8962 98.632,-109.1446"/>
<polygon fill="#191970" stroke="#191970" points="97.0129,-112.2567 107.3732,-114.4735 100.6566,-106.2798 97.0129,-112.2567"/>
</g>
<!-- Node4466 -->
<g id="node4" class="node">
<title>Node4466</title>
<g id="a_node4"><a xlink:href="libbf_8h.html#abacc1410890af049e02ebd788364ac48" target="_top" xlink:title="bf_init">
<polygon fill="none" stroke="#000000" points="302,-76.5 302,-95.5 345,-95.5 345,-76.5 302,-76.5"/>
<text text-anchor="middle" x="323.5" y="-83.5" font-family="Helvetica,sans-Serif" font-size="10.00" fill="#000000">bf_init</text>
</a>
</g>
</g>
<!-- Node4463&#45;&gt;Node4466 -->
<g id="edge10" class="edge">
<title>Node4463&#45;&gt;Node4466</title>
<path fill="none" stroke="#191970" d="M59.0359,-68.9088C114.5758,-72.4981 234.1332,-80.2246 291.5051,-83.9323"/>
<polygon fill="#191970" stroke="#191970" points="291.5842,-87.4446 301.7892,-84.5969 292.0357,-80.4592 291.5842,-87.4446"/>
</g>
<!-- Node4493 -->
<g id="node9" class="node">
<title>Node4493</title>
<g id="a_node9"><a xlink:href="libbf_8h.html#a2b9d906b21e903f2f7f1c9044674ab7d" target="_top" xlink:title="bf_delete">
<polygon fill="none" stroke="#000000" points="95,-38.5 95,-57.5 151,-57.5 151,-38.5 95,-38.5"/>
<text text-anchor="middle" x="123" y="-45.5" font-family="Helvetica,sans-Serif" font-size="10.00" fill="#000000">bf_delete</text>
</a>
</g>
</g>
<!-- Node4463&#45;&gt;Node4493 -->
<g id="edge8" class="edge">
<title>Node4463&#45;&gt;Node4493</title>
<path fill="none" stroke="#191970" d="M59.084,-60.9883C67.3131,-59.316 76.3663,-57.4764 85.0058,-55.7208"/>
<polygon fill="#191970" stroke="#191970" points="85.7808,-59.1349 94.8835,-53.7135 84.3868,-52.2751 85.7808,-59.1349"/>
</g>
<!-- Node4494 -->
<g id="node11" class="node">
<title>Node4494</title>
<g id="a_node11"><a xlink:href="libbf_8h.html#a6ffae8e39e8ba06fd097c4adc301ba6e" target="_top" xlink:title="bf_set_si">
<polygon fill="none" stroke="#000000" points="95,-.5 95,-19.5 151,-19.5 151,-.5 95,-.5"/>
<text text-anchor="middle" x="123" y="-7.5" font-family="Helvetica,sans-Serif" font-size="10.00" fill="#000000">bf_set_si</text>
</a>
</g>
</g>
<!-- Node4463&#45;&gt;Node4494 -->
<g id="edge11" class="edge">
<title>Node4463&#45;&gt;Node4494</title>
<path fill="none" stroke="#191970" d="M45.361,-57.3307C59.9559,-48.4333 81.8209,-35.1038 98.632,-24.8554"/>
<polygon fill="#191970" stroke="#191970" points="100.6566,-27.7202 107.3732,-19.5265 97.0129,-21.7433 100.6566,-27.7202"/>
</g>
<!-- Node4465 -->
<g id="node3" class="node">
<title>Node4465</title>
<g id="a_node3"><a xlink:href="libbf_8c.html#a3ebbc1c7473b2ad84ced2b263bf38bae" target="_top" xlink:title="bf_op2">
<polygon fill="none" stroke="#000000" points="193.5,-114.5 193.5,-133.5 239.5,-133.5 239.5,-114.5 193.5,-114.5"/>
<text text-anchor="middle" x="216.5" y="-121.5" font-family="Helvetica,sans-Serif" font-size="10.00" fill="#000000">bf_op2</text>
</a>
</g>
</g>
<!-- Node4464&#45;&gt;Node4465 -->
<g id="edge2" class="edge">
<title>Node4464&#45;&gt;Node4465</title>
<path fill="none" stroke="#191970" d="M146.1124,-124C157.2381,-124 170.7877,-124 183.0167,-124"/>
<polygon fill="#191970" stroke="#191970" points="183.3295,-127.5001 193.3295,-124 183.3294,-120.5001 183.3295,-127.5001"/>
</g>
<!-- Node4470 -->
<g id="node6" class="node">
<title>Node4470</title>
<g id="a_node6"><a xlink:href="libbf_8c.html#a951a1d3ebb338129d86e00f51b47f2ee" target="_top" xlink:title="__bf_add">
<polygon fill="none" stroke="#000000" points="188.5,-152.5 188.5,-171.5 244.5,-171.5 244.5,-152.5 188.5,-152.5"/>
<text text-anchor="middle" x="216.5" y="-159.5" font-family="Helvetica,sans-Serif" font-size="10.00" fill="#000000">__bf_add</text>
</a>
</g>
</g>
<!-- Node4464&#45;&gt;Node4470 -->
<g id="edge5" class="edge">
<title>Node4464&#45;&gt;Node4470</title>
<path fill="none" stroke="#191970" d="M146.1124,-133.3933C157.3775,-137.9716 171.1276,-143.5599 183.4759,-148.5784"/>
<polygon fill="#191970" stroke="#191970" points="182.4221,-151.9281 193.0041,-152.4509 185.0577,-145.4432 182.4221,-151.9281"/>
</g>
<!-- Node4465&#45;&gt;Node4466 -->
<g id="edge3" class="edge">
<title>Node4465&#45;&gt;Node4466</title>
<path fill="none" stroke="#191970" d="M239.7174,-115.7546C254.9874,-110.3316 275.1649,-103.1657 291.8921,-97.2252"/>
<polygon fill="#191970" stroke="#191970" points="293.5345,-100.3562 301.7865,-93.7113 291.1918,-93.7598 293.5345,-100.3562"/>
</g>
<!-- Node4467 -->
<g id="node5" class="node">
<title>Node4467</title>
<g id="a_node5"><a xlink:href="libbf_8h.html#ad7ab5aff92f4e7e10b2a30e0e6b9226d" target="_top" xlink:title="bf_move">
<polygon fill="none" stroke="#ff0000" points="296.5,-114.5 296.5,-133.5 350.5,-133.5 350.5,-114.5 296.5,-114.5"/>
<text text-anchor="middle" x="323.5" y="-121.5" font-family="Helvetica,sans-Serif" font-size="10.00" fill="#000000">bf_move</text>
</a>
</g>
</g>
<!-- Node4465&#45;&gt;Node4467 -->
<g id="edge4" class="edge">
<title>Node4465&#45;&gt;Node4467</title>
<path fill="none" stroke="#191970" d="M239.7174,-124C253.2011,-124 270.5113,-124 285.8935,-124"/>
<polygon fill="#191970" stroke="#191970" points="286.1641,-127.5001 296.164,-124 286.164,-120.5001 286.1641,-127.5001"/>
</g>
<!-- Node4471 -->
<g id="node7" class="node">
<title>Node4471</title>
<g id="a_node7"><a xlink:href="libbf_8c.html#aaebd1df91497246cd81f23918af58d33" target="_top" xlink:title="bf_add_internal">
<polygon fill="none" stroke="#ff0000" points="282,-152.5 282,-171.5 365,-171.5 365,-152.5 282,-152.5"/>
<text text-anchor="middle" x="323.5" y="-159.5" font-family="Helvetica,sans-Serif" font-size="10.00" fill="#000000">bf_add_internal</text>
</a>
</g>
</g>
<!-- Node4470&#45;&gt;Node4471 -->
<g id="edge6" class="edge">
<title>Node4470&#45;&gt;Node4471</title>
<path fill="none" stroke="#191970" d="M244.613,-162C252.9797,-162 262.4248,-162 271.7964,-162"/>
<polygon fill="#191970" stroke="#191970" points="271.8821,-165.5001 281.8821,-162 271.8821,-158.5001 271.8821,-165.5001"/>
</g>
<!-- Node4477 -->
<g id="node8" class="node">
<title>Node4477</title>
<g id="a_node8"><a xlink:href="libbf_8h.html#ad5f9a8c0c9455250d53b259b1a01c0c0" target="_top" xlink:title="bf_resize">
<polygon fill="none" stroke="#000000" points="401,-76.5 401,-95.5 457,-95.5 457,-76.5 401,-76.5"/>
<text text-anchor="middle" x="429" y="-83.5" font-family="Helvetica,sans-Serif" font-size="10.00" fill="#000000">bf_resize</text>
</a>
</g>
</g>
<!-- Node4471&#45;&gt;Node4477 -->
<g id="edge7" class="edge">
<title>Node4471&#45;&gt;Node4477</title>
<path fill="none" stroke="#191970" d="M347.8484,-152.3214C353.649,-149.6212 359.6922,-146.466 365,-143 382.5776,-131.5219 400.2204,-115.3815 412.517,-103.2047"/>
<polygon fill="#191970" stroke="#191970" points="415.2317,-105.437 419.7713,-95.864 410.2527,-100.5167 415.2317,-105.437"/>
</g>
<!-- Node4469 -->
<g id="node10" class="node">
<title>Node4469</title>
<g id="a_node10"><a xlink:href="libbf_8h.html#a524c9e60866c08c75061626a4b5e2f29" target="_top" xlink:title="bf_realloc">
<polygon fill="none" stroke="#000000" points="187,-38.5 187,-57.5 246,-57.5 246,-38.5 187,-38.5"/>
<text text-anchor="middle" x="216.5" y="-45.5" font-family="Helvetica,sans-Serif" font-size="10.00" fill="#000000">bf_realloc</text>
</a>
</g>
</g>
<!-- Node4493&#45;&gt;Node4469 -->
<g id="edge9" class="edge">
<title>Node4493&#45;&gt;Node4469</title>
<path fill="none" stroke="#191970" d="M151.0531,-48C159.0839,-48 167.9961,-48 176.5927,-48"/>
<polygon fill="#191970" stroke="#191970" points="176.8418,-51.5001 186.8418,-48 176.8417,-44.5001 176.8418,-51.5001"/>
</g>
<!-- Node4495 -->
<g id="node12" class="node">
<title>Node4495</title>
<g id="a_node12"><a xlink:href="libbf_8h.html#a5bcb10b6c7836aea03e8167384299774" target="_top" xlink:title="bf_set_ui">
<polygon fill="none" stroke="#000000" points="188.5,-.5 188.5,-19.5 244.5,-19.5 244.5,-.5 188.5,-.5"/>
<text text-anchor="middle" x="216.5" y="-7.5" font-family="Helvetica,sans-Serif" font-size="10.00" fill="#000000">bf_set_ui</text>
</a>
</g>
</g>
<!-- Node4494&#45;&gt;Node4495 -->
<g id="edge12" class="edge">
<title>Node4494&#45;&gt;Node4495</title>
<path fill="none" stroke="#191970" d="M151.0531,-10C159.6512,-10 169.2596,-10 178.4094,-10"/>
<polygon fill="#191970" stroke="#191970" points="178.4668,-13.5001 188.4667,-10 178.4667,-6.5001 178.4668,-13.5001"/>
</g>
<!-- Node4495&#45;&gt;Node4477 -->
<g id="edge13" class="edge">
<title>Node4495&#45;&gt;Node4477</title>
<path fill="none" stroke="#191970" d="M244.658,-8.7565C275.5639,-8.4682 325.9725,-11.2223 365,-29 384.7711,-38.0061 402.8092,-55.2821 414.6592,-68.4642"/>
<polygon fill="#191970" stroke="#191970" points="412.3277,-71.1199 421.5088,-76.4075 417.6289,-66.5486 412.3277,-71.1199"/>
</g>
<!-- Node4478 -->
<g id="node13" class="node">
<title>Node4478</title>
<g id="a_node13"><a xlink:href="libbf_8c.html#a3ac3b86cc31b99a551947240e979c5d7" target="_top" xlink:title="clz">
<polygon fill="none" stroke="#ff0000" points="309,-38.5 309,-57.5 338,-57.5 338,-38.5 309,-38.5"/>
<text text-anchor="middle" x="323.5" y="-45.5" font-family="Helvetica,sans-Serif" font-size="10.00" fill="#000000">clz</text>
</a>
</g>
</g>
<!-- Node4495&#45;&gt;Node4478 -->
<g id="edge14" class="edge">
<title>Node4495&#45;&gt;Node4478</title>
<path fill="none" stroke="#191970" d="M243.5006,-19.589C260.6245,-25.6704 282.594,-33.4726 299.1763,-39.3617"/>
<polygon fill="#191970" stroke="#191970" points="298.1187,-42.7002 308.7134,-42.7487 300.4614,-36.1038 298.1187,-42.7002"/>
</g>
</g>
</svg>
