<?xml version="1.0" encoding="UTF-8" standalone="no"?>
<!DOCTYPE svg PUBLIC "-//W3C//DTD SVG 1.1//EN"
 "http://www.w3.org/Graphics/SVG/1.1/DTD/svg11.dtd">
<!-- Generated by graphviz version 2.40.1 (20161225.0304)
 -->
<!-- Title: bf_round Pages: 1 -->
<svg width="603pt" height="692pt"
 viewBox="0.00 0.00 603.00 692.00" xmlns="http://www.w3.org/2000/svg" xmlns:xlink="http://www.w3.org/1999/xlink">
<g id="graph0" class="graph" transform="scale(1 1) rotate(0) translate(4 688)">
<title>bf_round</title>
<!-- Node13261 -->
<g id="node1" class="node">
<title>Node13261</title>
<polygon fill="#bfbfbf" stroke="#000000" points="0,-190.5 0,-209.5 54,-209.5 54,-190.5 0,-190.5"/>
<text text-anchor="middle" x="27" y="-197.5" font-family="Helvetica,sans-Serif" font-size="10.00" fill="#000000">bf_round</text>
</g>
<!-- Node13262 -->
<g id="node2" class="node">
<title>Node13262</title>
<g id="a_node2"><a xlink:href="libbf_8c.html#a238895e8f2744e0cef713d82f472162e" target="_top" xlink:title="bf_const_get">
<polygon fill="none" stroke="#000000" points="101,-626.5 101,-645.5 174,-645.5 174,-626.5 101,-626.5"/>
<text text-anchor="middle" x="137.5" y="-633.5" font-family="Helvetica,sans-Serif" font-size="10.00" fill="#000000">bf_const_get</text>
</a>
</g>
</g>
<!-- Node13261&#45;&gt;Node13262 -->
<g id="edge1" class="edge">
<title>Node13261&#45;&gt;Node13262</title>
<path fill="none" stroke="#191970" d="M27.6794,-219.993C30.532,-293.5316 43.6348,-548.0525 90,-612 94.4473,-618.1337 100.919,-622.8004 107.662,-626.3106"/>
<polygon fill="#191970" stroke="#191970" points="31.1698,-219.6665 27.306,-209.8013 24.1745,-219.9228 31.1698,-219.6665"/>
</g>
<!-- Node13293 -->
<g id="node5" class="node">
<title>Node13293</title>
<g id="a_node5"><a xlink:href="libbf_8h.html#a951ec20cd7fa3bf021d165b213e15ce4" target="_top" xlink:title="bf_divrem">
<polygon fill="none" stroke="#000000" points="384,-474.5 384,-493.5 443,-493.5 443,-474.5 384,-474.5"/>
<text text-anchor="middle" x="413.5" y="-481.5" font-family="Helvetica,sans-Serif" font-size="10.00" fill="#000000">bf_divrem</text>
</a>
</g>
</g>
<!-- Node13261&#45;&gt;Node13293 -->
<g id="edge4" class="edge">
<title>Node13261&#45;&gt;Node13293</title>
<path fill="none" stroke="#191970" d="M29.0039,-219.8124C35.3705,-279.5858 56.6988,-456.8483 90,-503 159.9462,-599.9376 242.1688,-634.58 348,-579 383.1176,-560.5571 403.0951,-513.8135 410.3448,-493.5795"/>
<polygon fill="#191970" stroke="#191970" points="32.4768,-219.3698 27.9602,-209.786 25.5145,-220.0947 32.4768,-219.3698"/>
</g>
<!-- Node13298 -->
<g id="node12" class="node">
<title>Node13298</title>
<g id="a_node12"><a xlink:href="libbf_8h.html#a74f8125e45e931d1ecec220cea9c952e" target="_top" xlink:title="bf_get_float64">
<polygon fill="none" stroke="#000000" points="98.5,-398.5 98.5,-417.5 176.5,-417.5 176.5,-398.5 98.5,-398.5"/>
<text text-anchor="middle" x="137.5" y="-405.5" font-family="Helvetica,sans-Serif" font-size="10.00" fill="#000000">bf_get_float64</text>
</a>
</g>
</g>
<!-- Node13261&#45;&gt;Node13298 -->
<g id="edge11" class="edge">
<title>Node13261&#45;&gt;Node13298</title>
<path fill="none" stroke="#191970" d="M37.0002,-218.8239C59.7782,-261.7002 114.8855,-365.4315 132.2012,-398.0258"/>
<polygon fill="#191970" stroke="#191970" points="39.9639,-216.9424 32.1814,-209.7533 33.7821,-220.2265 39.9639,-216.9424"/>
</g>
<!-- Node13300 -->
<g id="node14" class="node">
<title>Node13300</title>
<g id="a_node14"><a xlink:href="libbf_8h.html#a0b4d56fc6808de8feed2a234525df692" target="_top" xlink:title="bf_mul_pow_radix">
<polygon fill="none" stroke="#000000" points="90,-474.5 90,-493.5 185,-493.5 185,-474.5 90,-474.5"/>
<text text-anchor="middle" x="137.5" y="-481.5" font-family="Helvetica,sans-Serif" font-size="10.00" fill="#000000">bf_mul_pow_radix</text>
</a>
</g>
</g>
<!-- Node13261&#45;&gt;Node13300 -->
<g id="edge14" class="edge">
<title>Node13261&#45;&gt;Node13300</title>
<path fill="none" stroke="#191970" d="M29.5798,-219.5369C35.5362,-260.1449 52.6893,-355.8078 90,-427 99.8065,-445.7116 116.5424,-463.8418 127.3049,-474.4563"/>
<polygon fill="#191970" stroke="#191970" points="33.0427,-219.0271 28.1893,-209.6093 26.1103,-219.9982 33.0427,-219.0271"/>
</g>
<!-- Node13324 -->
<g id="node18" class="node">
<title>Node13324</title>
<g id="a_node18"><a xlink:href="libbf_8h.html#aaf7d6961c71cf6614ec51fd78755a031" target="_top" xlink:title="bf_rint">
<polygon fill="none" stroke="#000000" points="115.5,-190.5 115.5,-209.5 159.5,-209.5 159.5,-190.5 115.5,-190.5"/>
<text text-anchor="middle" x="137.5" y="-197.5" font-family="Helvetica,sans-Serif" font-size="10.00" fill="#000000">bf_rint</text>
</a>
</g>
</g>
<!-- Node13261&#45;&gt;Node13324 -->
<g id="edge19" class="edge">
<title>Node13261&#45;&gt;Node13324</title>
<path fill="none" stroke="#191970" d="M64.1782,-200C81.1091,-200 100.5843,-200 115.2062,-200"/>
<polygon fill="#191970" stroke="#191970" points="64.0314,-196.5001 54.0313,-200 64.0313,-203.5001 64.0314,-196.5001"/>
</g>
<!-- Node13274 -->
<g id="node26" class="node">
<title>Node13274</title>
<g id="a_node26"><a xlink:href="quickjs_8c.html#af8435aca7fa84b4be13710a0311d990b" target="_top" xlink:title="js_bigfloat_fop">
<polygon fill="none" stroke="#000000" points="244.5,-.5 244.5,-19.5 324.5,-19.5 324.5,-.5 244.5,-.5"/>
<text text-anchor="middle" x="284.5" y="-7.5" font-family="Helvetica,sans-Serif" font-size="10.00" fill="#000000">js_bigfloat_fop</text>
</a>
</g>
</g>
<!-- Node13261&#45;&gt;Node13274 -->
<g id="edge36" class="edge">
<title>Node13261&#45;&gt;Node13274</title>
<path fill="none" stroke="#191970" d="M42.5964,-182.9456C54.6112,-170.5833 72.1401,-154.1469 90,-143 128.5776,-118.9226 151.8654,-136.1456 185,-105 212.2333,-79.4015 192.6455,-53.3507 221,-29 227.6346,-23.3022 235.9265,-19.3129 244.3069,-16.5199"/>
<polygon fill="#191970" stroke="#191970" points="39.8857,-180.7178 35.5491,-190.3845 44.9674,-185.532 39.8857,-180.7178"/>
</g>
<!-- Node13941 -->
<g id="node28" class="node">
<title>Node13941</title>
<g id="a_node28"><a xlink:href="libbf_8h.html#a1a8b9ac1fea38b97fc6be8663ce9e867" target="_top" xlink:title="bf_sqrt">
<polygon fill="none" stroke="#ff0000" points="114,-152.5 114,-171.5 161,-171.5 161,-152.5 114,-152.5"/>
<text text-anchor="middle" x="137.5" y="-159.5" font-family="Helvetica,sans-Serif" font-size="10.00" fill="#000000">bf_sqrt</text>
</a>
</g>
</g>
<!-- Node13261&#45;&gt;Node13941 -->
<g id="edge32" class="edge">
<title>Node13261&#45;&gt;Node13941</title>
<path fill="none" stroke="#191970" d="M63.8916,-187.3133C80.3336,-181.659 99.2228,-175.1632 113.7494,-170.1676"/>
<polygon fill="#191970" stroke="#191970" points="62.3496,-184.1423 54.0313,-190.7042 64.626,-190.7619 62.3496,-184.1423"/>
</g>
<!-- Node13944 -->
<g id="node29" class="node">
<title>Node13944</title>
<g id="a_node29"><a xlink:href="libbf_8c.html#a39e7dd6286a6f0541a12366ebd93dbfd" target="_top" xlink:title="bf_ziv_rounding">
<polygon fill="none" stroke="#ff0000" points="95,-76.5 95,-95.5 180,-95.5 180,-76.5 95,-76.5"/>
<text text-anchor="middle" x="137.5" y="-83.5" font-family="Helvetica,sans-Serif" font-size="10.00" fill="#000000">bf_ziv_rounding</text>
</a>
</g>
</g>
<!-- Node13261&#45;&gt;Node13944 -->
<g id="edge35" class="edge">
<title>Node13261&#45;&gt;Node13944</title>
<path fill="none" stroke="#191970" d="M36.3528,-181.5101C47.0949,-161.753 66.3239,-130.5139 90,-110 96.7036,-104.1918 105.0592,-99.3647 112.8851,-95.5997"/>
<polygon fill="#191970" stroke="#191970" points="33.2164,-179.9546 31.6545,-190.4337 39.4103,-183.2158 33.2164,-179.9546"/>
</g>
<!-- Node13315 -->
<g id="node30" class="node">
<title>Node13315</title>
<g id="a_node30"><a xlink:href="quickjs_8c.html#a1fee789102995207275aacbbaee299cf" target="_top" xlink:title="js_ftoa">
<polygon fill="none" stroke="#ff0000" points="114.5,-38.5 114.5,-57.5 160.5,-57.5 160.5,-38.5 114.5,-38.5"/>
<text text-anchor="middle" x="137.5" y="-45.5" font-family="Helvetica,sans-Serif" font-size="10.00" fill="#000000">js_ftoa</text>
</a>
</g>
</g>
<!-- Node13261&#45;&gt;Node13315 -->
<g id="edge37" class="edge">
<title>Node13261&#45;&gt;Node13315</title>
<path fill="none" stroke="#191970" d="M31.4889,-180.1671C38.9391,-151.5104 56.4728,-98.5146 90,-67 96.7305,-60.6736 105.8318,-56.3516 114.2669,-53.4496"/>
<polygon fill="#191970" stroke="#191970" points="28.0147,-179.6403 29.0412,-190.1853 34.8147,-181.3018 28.0147,-179.6403"/>
</g>
<!-- Node13263 -->
<g id="node3" class="node">
<title>Node13263</title>
<g id="a_node3"><a xlink:href="libbf_8h.html#a9660e7199a5e3dd436970b5e2e481516" target="_top" xlink:title="bf_const_log2">
<polygon fill="none" stroke="#ff0000" points="246,-664.5 246,-683.5 323,-683.5 323,-664.5 246,-664.5"/>
<text text-anchor="middle" x="284.5" y="-671.5" font-family="Helvetica,sans-Serif" font-size="10.00" fill="#000000">bf_const_log2</text>
</a>
</g>
</g>
<!-- Node13262&#45;&gt;Node13263 -->
<g id="edge2" class="edge">
<title>Node13262&#45;&gt;Node13263</title>
<path fill="none" stroke="#191970" d="M184.0181,-648.0251C204.5931,-653.3438 228.4436,-659.5092 247.7435,-664.4983"/>
<polygon fill="#191970" stroke="#191970" points="184.7729,-644.6052 174.2151,-645.491 183.0209,-651.3824 184.7729,-644.6052"/>
</g>
<!-- Node13278 -->
<g id="node4" class="node">
<title>Node13278</title>
<g id="a_node4"><a xlink:href="libbf_8h.html#aff86bca731f3c8ffe45f0f1129175961" target="_top" xlink:title="bf_const_pi">
<polygon fill="none" stroke="#ff0000" points="251,-626.5 251,-645.5 318,-645.5 318,-626.5 251,-626.5"/>
<text text-anchor="middle" x="284.5" y="-633.5" font-family="Helvetica,sans-Serif" font-size="10.00" fill="#000000">bf_const_pi</text>
</a>
</g>
</g>
<!-- Node13262&#45;&gt;Node13278 -->
<g id="edge3" class="edge">
<title>Node13262&#45;&gt;Node13278</title>
<path fill="none" stroke="#191970" d="M184.4778,-636C206.0384,-636 231.1156,-636 250.7666,-636"/>
<polygon fill="#191970" stroke="#191970" points="184.2151,-632.5001 174.2151,-636 184.2151,-639.5001 184.2151,-632.5001"/>
</g>
<!-- Node13294 -->
<g id="node6" class="node">
<title>Node13294</title>
<g id="a_node6"><a xlink:href="libbf_8h.html#ae77a04e5fc238cfb6ed7b1db3a34594b" target="_top" xlink:title="bf_fmod">
<polygon fill="none" stroke="#ff0000" points="511,-493.5 511,-512.5 563,-512.5 563,-493.5 511,-493.5"/>
<text text-anchor="middle" x="537" y="-500.5" font-family="Helvetica,sans-Serif" font-size="10.00" fill="#000000">bf_fmod</text>
</a>
</g>
</g>
<!-- Node13293&#45;&gt;Node13294 -->
<g id="edge5" class="edge">
<title>Node13293&#45;&gt;Node13294</title>
<path fill="none" stroke="#191970" d="M453.1449,-490.0992C471.9377,-492.9904 493.8775,-496.3658 510.6009,-498.9386"/>
<polygon fill="#191970" stroke="#191970" points="453.4973,-486.6123 443.0813,-488.551 452.4328,-493.5309 453.4973,-486.6123"/>
</g>
<!-- Node13295 -->
<g id="node7" class="node">
<title>Node13295</title>
<g id="a_node7"><a xlink:href="libbf_8h.html#a6ba75f960fe4a2b08604b89e49b4e94b" target="_top" xlink:title="bf_remainder">
<polygon fill="none" stroke="#ff0000" points="500.5,-455.5 500.5,-474.5 573.5,-474.5 573.5,-455.5 500.5,-455.5"/>
<text text-anchor="middle" x="537" y="-462.5" font-family="Helvetica,sans-Serif" font-size="10.00" fill="#000000">bf_remainder</text>
</a>
</g>
</g>
<!-- Node13293&#45;&gt;Node13295 -->
<g id="edge6" class="edge">
<title>Node13293&#45;&gt;Node13295</title>
<path fill="none" stroke="#191970" d="M453.1449,-477.9008C468.2256,-475.5807 485.3327,-472.9488 500.1446,-470.6701"/>
<polygon fill="#191970" stroke="#191970" points="452.4328,-474.4691 443.0813,-479.449 453.4973,-481.3877 452.4328,-474.4691"/>
</g>
<!-- Node13296 -->
<g id="node8" class="node">
<title>Node13296</title>
<g id="a_node8"><a xlink:href="libbf_8h.html#ac05bdf08f7852acc28d905777ef1416c" target="_top" xlink:title="bf_remquo">
<polygon fill="none" stroke="#ff0000" points="506,-417.5 506,-436.5 568,-436.5 568,-417.5 506,-417.5"/>
<text text-anchor="middle" x="537" y="-424.5" font-family="Helvetica,sans-Serif" font-size="10.00" fill="#000000">bf_remquo</text>
</a>
</g>
</g>
<!-- Node13293&#45;&gt;Node13296 -->
<g id="edge7" class="edge">
<title>Node13293&#45;&gt;Node13296</title>
<path fill="none" stroke="#191970" d="M436.5432,-469.0398C448.8204,-461.4828 464.3718,-452.5524 479,-446 487.5097,-442.1882 497.0225,-438.7519 505.8433,-435.8834"/>
<polygon fill="#191970" stroke="#191970" points="434.4712,-466.2079 427.8624,-474.4889 438.1928,-472.1367 434.4712,-466.2079"/>
</g>
<!-- Node13268 -->
<g id="node9" class="node">
<title>Node13268</title>
<g id="a_node9"><a xlink:href="quickjs_8c.html#a916e386a73c9738a5e33109c83a4e3a8" target="_top" xlink:title="js_binary_arith_bigfloat">
<polygon fill="none" stroke="#ff0000" points="479,-569.5 479,-588.5 595,-588.5 595,-569.5 479,-569.5"/>
<text text-anchor="middle" x="537" y="-576.5" font-family="Helvetica,sans-Serif" font-size="10.00" fill="#000000">js_binary_arith_bigfloat</text>
</a>
</g>
</g>
<!-- Node13293&#45;&gt;Node13268 -->
<g id="edge8" class="edge">
<title>Node13293&#45;&gt;Node13268</title>
<path fill="none" stroke="#191970" d="M424.9284,-502.245C436.572,-519.4319 456.1329,-544.7547 479,-560 484.7306,-563.8205 491.2903,-566.9258 497.8886,-569.4328"/>
<polygon fill="#191970" stroke="#191970" points="427.7079,-500.1005 419.3035,-493.6494 421.8506,-503.9335 427.7079,-500.1005"/>
</g>
<!-- Node13270 -->
<g id="node10" class="node">
<title>Node13270</title>
<g id="a_node10"><a xlink:href="quickjs_8c.html#a69d448a344a95318ee4ce862ccc21251" target="_top" xlink:title="js_binary_arith_bigint">
<polygon fill="none" stroke="#ff0000" points="483,-379.5 483,-398.5 591,-398.5 591,-379.5 483,-379.5"/>
<text text-anchor="middle" x="537" y="-386.5" font-family="Helvetica,sans-Serif" font-size="10.00" fill="#000000">js_binary_arith_bigint</text>
</a>
</g>
</g>
<!-- Node13293&#45;&gt;Node13270 -->
<g id="edge9" class="edge">
<title>Node13293&#45;&gt;Node13270</title>
<path fill="none" stroke="#191970" d="M424.9284,-465.755C436.572,-448.5681 456.1329,-423.2453 479,-408 484.7306,-404.1795 491.2903,-401.0742 497.8886,-398.5672"/>
<polygon fill="#191970" stroke="#191970" points="421.8506,-464.0665 419.3035,-474.3506 427.7079,-467.8995 421.8506,-464.0665"/>
</g>
<!-- Node13297 -->
<g id="node11" class="node">
<title>Node13297</title>
<g id="a_node11"><a xlink:href="quickjs_8c.html#a00c02de2b16f15d8ed2218711defcc91" target="_top" xlink:title="js_bigint_div">
<polygon fill="none" stroke="#000000" points="501.5,-531.5 501.5,-550.5 572.5,-550.5 572.5,-531.5 501.5,-531.5"/>
<text text-anchor="middle" x="537" y="-538.5" font-family="Helvetica,sans-Serif" font-size="10.00" fill="#000000">js_bigint_div</text>
</a>
</g>
</g>
<!-- Node13293&#45;&gt;Node13297 -->
<g id="edge10" class="edge">
<title>Node13293&#45;&gt;Node13297</title>
<path fill="none" stroke="#191970" d="M436.5432,-498.9602C448.8204,-506.5172 464.3718,-515.4476 479,-522 486.8328,-525.5086 495.5155,-528.699 503.726,-531.4214"/>
<polygon fill="#191970" stroke="#191970" points="438.1928,-495.8633 427.8624,-493.5111 434.4712,-501.7921 438.1928,-495.8633"/>
</g>
<!-- Node13298&#45;&gt;Node13270 -->
<g id="edge12" class="edge">
<title>Node13298&#45;&gt;Node13270</title>
<path fill="none" stroke="#191970" d="M186.6821,-405.6609C261.8966,-402.0838 404.9651,-395.2795 482.9781,-391.5693"/>
<polygon fill="#191970" stroke="#191970" points="186.3555,-402.1724 176.5331,-406.1436 186.6881,-409.1645 186.3555,-402.1724"/>
</g>
<!-- Node13299 -->
<g id="node13" class="node">
<title>Node13299</title>
<g id="a_node13"><a xlink:href="quickjs_8c.html#a39b3fcf371c5080c1887bb3753d7c122" target="_top" xlink:title="js_mul_pow10_to_float64">
<polygon fill="none" stroke="#ff0000" points="221,-436.5 221,-455.5 348,-455.5 348,-436.5 221,-436.5"/>
<text text-anchor="middle" x="284.5" y="-443.5" font-family="Helvetica,sans-Serif" font-size="10.00" fill="#000000">js_mul_pow10_to_float64</text>
</a>
</g>
</g>
<!-- Node13298&#45;&gt;Node13299 -->
<g id="edge13" class="edge">
<title>Node13298&#45;&gt;Node13299</title>
<path fill="none" stroke="#191970" d="M184.3548,-420.1121C204.8276,-425.4044 228.4903,-431.5213 247.6724,-436.4799"/>
<polygon fill="#191970" stroke="#191970" points="185.152,-416.7032 174.5943,-417.589 183.4001,-423.4805 185.152,-416.7032"/>
</g>
<!-- Node13300&#45;&gt;Node13299 -->
<g id="edge17" class="edge">
<title>Node13300&#45;&gt;Node13299</title>
<path fill="none" stroke="#191970" d="M184.3548,-471.8879C204.8276,-466.5956 228.4903,-460.4787 247.6724,-455.5201"/>
<polygon fill="#191970" stroke="#191970" points="183.4001,-468.5195 174.5943,-474.411 185.152,-475.2968 183.4001,-468.5195"/>
</g>
<!-- Node13301 -->
<g id="node15" class="node">
<title>Node13301</title>
<g id="a_node15"><a xlink:href="libbf_8c.html#aaaeb6c790a8b174f3c5631ee33c81910" target="_top" xlink:title="bf_atof_internal">
<polygon fill="none" stroke="#ff0000" points="243,-550.5 243,-569.5 326,-569.5 326,-550.5 243,-550.5"/>
<text text-anchor="middle" x="284.5" y="-557.5" font-family="Helvetica,sans-Serif" font-size="10.00" fill="#000000">bf_atof_internal</text>
</a>
</g>
</g>
<!-- Node13300&#45;&gt;Node13301 -->
<g id="edge15" class="edge">
<title>Node13300&#45;&gt;Node13301</title>
<path fill="none" stroke="#191970" d="M157.1379,-499.9939C173.4196,-512.5973 197.6056,-529.8473 221,-541 228.6866,-544.6644 237.2352,-547.7979 245.5053,-550.4012"/>
<polygon fill="#191970" stroke="#191970" points="158.9785,-496.9878 148.9609,-493.5383 154.6409,-502.482 158.9785,-496.9878"/>
</g>
<!-- Node13310 -->
<g id="node16" class="node">
<title>Node13310</title>
<g id="a_node16"><a xlink:href="libbf_8c.html#ad79aefc435021a0743c89cb4aec7fa56" target="_top" xlink:title="bf_ftoa_internal">
<polygon fill="none" stroke="#ff0000" points="243,-512.5 243,-531.5 326,-531.5 326,-512.5 243,-512.5"/>
<text text-anchor="middle" x="284.5" y="-519.5" font-family="Helvetica,sans-Serif" font-size="10.00" fill="#000000">bf_ftoa_internal</text>
</a>
</g>
</g>
<!-- Node13300&#45;&gt;Node13310 -->
<g id="edge16" class="edge">
<title>Node13300&#45;&gt;Node13310</title>
<path fill="none" stroke="#191970" d="M184.3548,-496.1121C204.8276,-501.4044 228.4903,-507.5213 247.6724,-512.4799"/>
<polygon fill="#191970" stroke="#191970" points="185.152,-492.7032 174.5943,-493.589 183.4001,-499.4805 185.152,-492.7032"/>
</g>
<!-- Node13323 -->
<g id="node17" class="node">
<title>Node13323</title>
<g id="a_node17"><a xlink:href="quickjs_8c.html#ab7eba1c350d05ba7a0319119d85b70a0" target="_top" xlink:title="js_mul_pow10">
<polygon fill="none" stroke="#ff0000" points="245,-474.5 245,-493.5 324,-493.5 324,-474.5 245,-474.5"/>
<text text-anchor="middle" x="284.5" y="-481.5" font-family="Helvetica,sans-Serif" font-size="10.00" fill="#000000">js_mul_pow10</text>
</a>
</g>
</g>
<!-- Node13300&#45;&gt;Node13323 -->
<g id="edge18" class="edge">
<title>Node13300&#45;&gt;Node13323</title>
<path fill="none" stroke="#191970" d="M195.3769,-484C211.9613,-484 229.6582,-484 244.8755,-484"/>
<polygon fill="#191970" stroke="#191970" points="195.2267,-480.5001 185.2267,-484 195.2267,-487.5001 195.2267,-480.5001"/>
</g>
<!-- Node13324&#45;&gt;Node13270 -->
<g id="edge29" class="edge">
<title>Node13324&#45;&gt;Node13270</title>
<path fill="none" stroke="#191970" d="M169.5758,-207.2554C220.2232,-218.9506 316.2294,-242.1573 348,-257 421.9723,-291.5586 498.0681,-354.8607 525.9299,-379.1513"/>
<polygon fill="#191970" stroke="#191970" points="170.3194,-203.8351 159.7897,-205.0086 168.753,-210.6576 170.3194,-203.8351"/>
</g>
<!-- Node13325 -->
<g id="node19" class="node">
<title>Node13325</title>
<g id="a_node19"><a xlink:href="libbf_8c.html#a4f1865c8160fb851cce8015c3edb4d4f" target="_top" xlink:title="bf_tdivremu">
<polygon fill="none" stroke="#000000" points="250.5,-360.5 250.5,-379.5 318.5,-379.5 318.5,-360.5 250.5,-360.5"/>
<text text-anchor="middle" x="284.5" y="-367.5" font-family="Helvetica,sans-Serif" font-size="10.00" fill="#000000">bf_tdivremu</text>
</a>
</g>
</g>
<!-- Node13324&#45;&gt;Node13325 -->
<g id="edge20" class="edge">
<title>Node13324&#45;&gt;Node13325</title>
<path fill="none" stroke="#191970" d="M142.9412,-219.4006C152.9635,-251.569 177.4073,-315.8778 221,-351 229.3335,-357.7142 239.9924,-362.0576 250.1875,-364.8666"/>
<polygon fill="#191970" stroke="#191970" points="146.2948,-218.3987 140.0884,-209.812 139.5855,-220.3949 146.2948,-218.3987"/>
</g>
<!-- Node13326 -->
<g id="node20" class="node">
<title>Node13326</title>
<g id="a_node20"><a xlink:href="libbf_8h.html#ae080fd42a2c7fc561d7084762204357e" target="_top" xlink:title="bf_sqrtrem">
<polygon fill="none" stroke="#ff0000" points="253,-38.5 253,-57.5 316,-57.5 316,-38.5 253,-38.5"/>
<text text-anchor="middle" x="284.5" y="-45.5" font-family="Helvetica,sans-Serif" font-size="10.00" fill="#000000">bf_sqrtrem</text>
</a>
</g>
</g>
<!-- Node13324&#45;&gt;Node13326 -->
<g id="edge22" class="edge">
<title>Node13324&#45;&gt;Node13326</title>
<path fill="none" stroke="#191970" d="M169.4753,-191.7553C175.2297,-189.0894 180.7425,-185.5877 185,-181 221.1429,-142.0539 183.1459,-104.2851 221,-67 229.5261,-58.602 241.6048,-53.8916 252.9424,-51.2587"/>
<polygon fill="#191970" stroke="#191970" points="167.8201,-188.6419 159.7419,-195.4971 170.3319,-195.1757 167.8201,-188.6419"/>
</g>
<!-- Node13329 -->
<g id="node21" class="node">
<title>Node13329</title>
<g id="a_node21"><a xlink:href="libbf_8c.html#a7cdab316b6ccee264a2effe61e1a6a27" target="_top" xlink:title="bf_integer_to_radix_rec">
<polygon fill="none" stroke="#ff0000" points="225.5,-266.5 225.5,-285.5 343.5,-285.5 343.5,-266.5 225.5,-266.5"/>
<text text-anchor="middle" x="284.5" y="-273.5" font-family="Helvetica,sans-Serif" font-size="10.00" fill="#000000">bf_integer_to_radix_rec</text>
</a>
</g>
</g>
<!-- Node13324&#45;&gt;Node13329 -->
<g id="edge23" class="edge">
<title>Node13324&#45;&gt;Node13329</title>
<path fill="none" stroke="#191970" d="M159.2892,-215.2187C175.753,-226.3044 199.1705,-241.2072 221,-252 231.9873,-257.4323 244.5274,-262.4118 255.5453,-266.4098"/>
<polygon fill="#191970" stroke="#191970" points="161.1454,-212.2481 150.9123,-209.503 157.2,-218.0304 161.1454,-212.2481"/>
</g>
<!-- Node13332 -->
<g id="node22" class="node">
<title>Node13332</title>
<g id="a_node22"><a xlink:href="libbf_8c.html#a13930fbd670b65bf9f8c07a0fbcfc63b" target="_top" xlink:title="bf_convert_to_radix">
<polygon fill="none" stroke="#000000" points="233.5,-190.5 233.5,-209.5 335.5,-209.5 335.5,-190.5 233.5,-190.5"/>
<text text-anchor="middle" x="284.5" y="-197.5" font-family="Helvetica,sans-Serif" font-size="10.00" fill="#000000">bf_convert_to_radix</text>
</a>
</g>
</g>
<!-- Node13324&#45;&gt;Node13332 -->
<g id="edge25" class="edge">
<title>Node13324&#45;&gt;Node13332</title>
<path fill="none" stroke="#191970" d="M169.5478,-200C188.2054,-200 212.1577,-200 233.3646,-200"/>
<polygon fill="#191970" stroke="#191970" points="169.5074,-196.5001 159.5074,-200 169.5074,-203.5001 169.5074,-196.5001"/>
</g>
<!-- Node13333 -->
<g id="node23" class="node">
<title>Node13333</title>
<g id="a_node23"><a xlink:href="quickjs_8c.html#a4985d9fd12208519be70abef27263906" target="_top" xlink:title="JS_ToIntegerFree">
<polygon fill="none" stroke="#ff0000" points="237,-152.5 237,-171.5 332,-171.5 332,-152.5 237,-152.5"/>
<text text-anchor="middle" x="284.5" y="-159.5" font-family="Helvetica,sans-Serif" font-size="10.00" fill="#000000">JS_ToIntegerFree</text>
</a>
</g>
</g>
<!-- Node13324&#45;&gt;Node13333 -->
<g id="edge26" class="edge">
<title>Node13324&#45;&gt;Node13333</title>
<path fill="none" stroke="#191970" d="M169.4375,-191.744C192.4029,-185.8074 223.4325,-177.7861 247.4813,-171.5695"/>
<polygon fill="#191970" stroke="#191970" points="168.3131,-188.4196 159.5074,-194.311 170.0651,-195.1968 168.3131,-188.4196"/>
</g>
<!-- Node13335 -->
<g id="node24" class="node">
<title>Node13335</title>
<g id="a_node24"><a xlink:href="quickjs_8c.html#a4623c0fbf1417b8c089ba0f5037c5362" target="_top" xlink:title="JS_ToUint8ClampFree">
<polygon fill="none" stroke="#ff0000" points="226.5,-114.5 226.5,-133.5 342.5,-133.5 342.5,-114.5 226.5,-114.5"/>
<text text-anchor="middle" x="284.5" y="-121.5" font-family="Helvetica,sans-Serif" font-size="10.00" fill="#000000">JS_ToUint8ClampFree</text>
</a>
</g>
</g>
<!-- Node13324&#45;&gt;Node13335 -->
<g id="edge27" class="edge">
<title>Node13324&#45;&gt;Node13335</title>
<path fill="none" stroke="#191970" d="M169.392,-189.4682C174.8106,-187.0639 180.2237,-184.2429 185,-181 204.2473,-167.9319 201.1857,-155.1913 221,-143 227.2724,-139.1407 234.3774,-136.0236 241.5066,-133.5187"/>
<polygon fill="#191970" stroke="#191970" points="167.7354,-186.3623 159.769,-193.347 170.3524,-192.8547 167.7354,-186.3623"/>
</g>
<!-- Node13826 -->
<g id="node25" class="node">
<title>Node13826</title>
<g id="a_node25"><a xlink:href="quickjs_8c.html#a3edc603bab6d2519f647b4762a5dad09" target="_top" xlink:title="JS_ToBigIntFree">
<polygon fill="none" stroke="#ff0000" points="239.5,-76.5 239.5,-95.5 329.5,-95.5 329.5,-76.5 239.5,-76.5"/>
<text text-anchor="middle" x="284.5" y="-83.5" font-family="Helvetica,sans-Serif" font-size="10.00" fill="#000000">JS_ToBigIntFree</text>
</a>
</g>
</g>
<!-- Node13324&#45;&gt;Node13826 -->
<g id="edge28" class="edge">
<title>Node13324&#45;&gt;Node13826</title>
<path fill="none" stroke="#191970" d="M169.3137,-191.137C174.9956,-188.5304 180.5225,-185.2088 185,-181 212.2333,-155.4015 192.6455,-129.3507 221,-105 226.3252,-100.4268 232.718,-96.9542 239.3673,-94.3174"/>
<polygon fill="#191970" stroke="#191970" points="167.797,-187.9721 159.763,-194.879 170.3507,-194.4897 167.797,-187.9721"/>
</g>
<!-- Node13324&#45;&gt;Node13274 -->
<g id="edge30" class="edge">
<title>Node13324&#45;&gt;Node13274</title>
<path fill="none" stroke="#191970" d="M169.0034,-192.338C175.0074,-189.6161 180.7377,-185.9446 185,-181 230.3281,-128.4156 173.358,-79.4975 221,-29 227.2384,-22.3877 235.6737,-18.047 244.3558,-15.2057"/>
<polygon fill="#191970" stroke="#191970" points="167.6593,-189.1038 159.5148,-195.88 170.1074,-195.6617 167.6593,-189.1038"/>
</g>
<!-- Node13833 -->
<g id="node27" class="node">
<title>Node13833</title>
<g id="a_node27"><a xlink:href="quickjs_8c.html#af88b18f6dfaf5dc49b89df9460bdb416" target="_top" xlink:title="JS_ToBigIntCtorFree">
<polygon fill="none" stroke="#ff0000" points="230,-322.5 230,-341.5 339,-341.5 339,-322.5 230,-322.5"/>
<text text-anchor="middle" x="284.5" y="-329.5" font-family="Helvetica,sans-Serif" font-size="10.00" fill="#000000">JS_ToBigIntCtorFree</text>
</a>
</g>
</g>
<!-- Node13324&#45;&gt;Node13833 -->
<g id="edge31" class="edge">
<title>Node13324&#45;&gt;Node13833</title>
<path fill="none" stroke="#191970" d="M146.43,-218.6941C159.3827,-243.8305 185.7428,-288.2228 221,-313 226.5548,-316.9037 232.922,-320.0172 239.4321,-322.4974"/>
<polygon fill="#191970" stroke="#191970" points="149.4432,-216.8931 141.8516,-209.5026 143.1775,-220.0142 149.4432,-216.8931"/>
</g>
<!-- Node13325&#45;&gt;Node13293 -->
<g id="edge21" class="edge">
<title>Node13325&#45;&gt;Node13293</title>
<path fill="none" stroke="#191970" d="M303.192,-386.5185C330.5054,-410.6559 380.4659,-454.8071 402.5294,-474.305"/>
<polygon fill="#191970" stroke="#191970" points="305.3095,-383.7189 295.4985,-379.7196 300.6741,-388.9642 305.3095,-383.7189"/>
</g>
<!-- Node13329&#45;&gt;Node13329 -->
<g id="edge24" class="edge">
<title>Node13329&#45;&gt;Node13329</title>
<path fill="none" stroke="#191970" d="M260.6906,-295.0292C261.9893,-300.128 269.9258,-304 284.5,-304 307.25,-304 313.8262,-294.5653 304.2285,-285.7571"/>
<polygon fill="#191970" stroke="#191970" points="263.9465,-296.3197 264.7715,-285.7571 257.5396,-293.4998 263.9465,-296.3197"/>
</g>
<!-- Node13941&#45;&gt;Node13326 -->
<g id="edge33" class="edge">
<title>Node13941&#45;&gt;Node13326</title>
<path fill="none" stroke="#191970" d="M170.1871,-148.9912C175.542,-145.9179 180.7279,-142.266 185,-138 210.0352,-113.0002 193.8518,-89.6877 221,-67 230.0064,-59.4734 241.9166,-54.9282 252.9869,-52.1836"/>
<polygon fill="#191970" stroke="#191970" points="168.4507,-145.9482 161.1471,-153.6235 171.6429,-152.178 168.4507,-145.9482"/>
</g>
<!-- Node13941&#45;&gt;Node13274 -->
<g id="edge34" class="edge">
<title>Node13941&#45;&gt;Node13274</title>
<path fill="none" stroke="#191970" d="M170.4281,-149.688C175.8395,-146.5265 180.9829,-142.6644 185,-138 218.293,-99.342 184.4185,-64.562 221,-29 227.4358,-22.7436 235.8447,-18.5358 244.427,-15.7091"/>
<polygon fill="#191970" stroke="#191970" points="168.5505,-146.716 161.2196,-154.365 171.7205,-152.9571 168.5505,-146.716"/>
</g>
</g>
</svg>
