<?xml version="1.0" encoding="UTF-8" standalone="no"?>
<!DOCTYPE svg PUBLIC "-//W3C//DTD SVG 1.1//EN"
 "http://www.w3.org/Graphics/SVG/1.1/DTD/svg11.dtd">
<!-- Generated by graphviz version 2.40.1 (20161225.0304)
 -->
<!-- Title: limb_mask Pages: 1 -->
<!--zoomable 626 -->
<svg id="main" version="1.1" xmlns="http://www.w3.org/2000/svg" xmlns:xlink="http://www.w3.org/1999/xlink" xml:space="preserve" onload="init(evt)">
<style type="text/css"><![CDATA[
.edge:hover path { stroke: red; }
.edge:hover polygon { stroke: red; fill: red; }
]]></style>
<script type="text/javascript"><![CDATA[
var edges = document.getElementsByTagName('g');
if (edges && edges.length) {
  for (var i=0;i<edges.length;i++) {
    if (edges[i].id.substr(0,4)=='edge') {
      edges[i].setAttribute('class','edge');
    }
  }
}
]]></script>
        <defs>
                <circle id="rim" cx="0" cy="0" r="7"/>
                <circle id="rim2" cx="0" cy="0" r="3.5"/>
                <g id="zoomPlus">
                        <use xlink:href="#rim" fill="#404040">
                                <set attributeName="fill" to="#808080" begin="zoomplus.mouseover" end="zoomplus.mouseout"/>
                        </use>
                        <path d="M-4,0h8M0,-4v8" fill="none" stroke="white" stroke-width="1.5" pointer-events="none"/>
                </g>
                <g id="zoomMin">
                        <use xlink:href="#rim" fill="#404040">
                                <set attributeName="fill" to="#808080" begin="zoomminus.mouseover" end="zoomminus.mouseout"/>
                        </use>
                        <path d="M-4,0h8" fill="none" stroke="white" stroke-width="1.5" pointer-events="none"/>
                </g>
                <g id="dirArrow">
                        <path fill="none" stroke="white" stroke-width="1.5" d="M0,-3.0v7 M-2.5,-0.5L0,-3.0L2.5,-0.5"/>
                </g>
               <g id="resetDef">
                       <use xlink:href="#rim2" fill="#404040">
                               <set attributeName="fill" to="#808080" begin="reset.mouseover" end="reset.mouseout"/>
                       </use>
               </g>
        </defs>

<script type="text/javascript">
var viewWidth = 948;
var viewHeight = 626;
var sectionId = 'dynsection-34';
</script>
<script xlink:href="svgpan.js"/>
<svg id="graph" class="graph">
<g id="viewport">
<title>limb_mask</title>
<!-- Node1231 -->
<g id="node1" class="node">
<title>Node1231</title>
<polygon fill="#bfbfbf" stroke="#000000" points="0,-161.5 0,-180.5 64,-180.5 64,-161.5 0,-161.5"/>
<text text-anchor="middle" x="32" y="-168.5" font-family="Helvetica,sans-Serif" font-size="10.00" fill="#000000">limb_mask</text>
</g>
<!-- Node1232 -->
<g id="node2" class="node">
<title>Node1232</title>
<g id="a_node2"><a xlink:href="libbf_8c.html#a06fc3e6aa8ac367eef1039c9d97fc1f8" target="_top" xlink:title="__bf_round">
<polygon fill="none" stroke="#000000" points="348.5,-218.5 348.5,-237.5 413.5,-237.5 413.5,-218.5 348.5,-218.5"/>
<text text-anchor="middle" x="381" y="-225.5" font-family="Helvetica,sans-Serif" font-size="10.00" fill="#000000">__bf_round</text>
</a>
</g>
</g>
<!-- Node1231&#45;&gt;Node1232 -->
<g id="edge1" class="edge">
<title>Node1231&#45;&gt;Node1232</title>
<path fill="none" stroke="#191970" d="M53.5703,-186.3161C66.4197,-194.5821 83.4122,-204.0761 100,-209 186.718,-234.7411 294.8486,-233.2007 348.157,-230.3662"/>
<polygon fill="#191970" stroke="#191970" points="55.2705,-183.2428 45.0113,-180.5971 51.3815,-189.063 55.2705,-183.2428"/>
</g>
<!-- Node1237 -->
<g id="node6" class="node">
<title>Node1237</title>
<g id="a_node6"><a xlink:href="libbf_8c.html#a0b349466a7fc3b0a980c4ea6e3a8d03f" target="_top" xlink:title="bf_recip_rec">
<polygon fill="none" stroke="#ff0000" points="762.5,-198.5 762.5,-217.5 832.5,-217.5 832.5,-198.5 762.5,-198.5"/>
<text text-anchor="middle" x="797.5" y="-205.5" font-family="Helvetica,sans-Serif" font-size="10.00" fill="#000000">bf_recip_rec</text>
</a>
</g>
</g>
<!-- Node1231&#45;&gt;Node1237 -->
<g id="edge45" class="edge">
<title>Node1231&#45;&gt;Node1237</title>
<path fill="none" stroke="#191970" d="M74.051,-165.1014C117.5099,-159.523 187.3595,-152 248,-152 248,-152 248,-152 532,-152 613.3285,-152 635.4168,-150.0476 714,-171 737.9004,-177.3725 763.6789,-189.718 780.1714,-198.3906"/>
<polygon fill="#191970" stroke="#191970" points="73.5871,-161.6321 64.1261,-166.4006 74.4958,-168.5729 73.5871,-161.6321"/>
</g>
<!-- Node1279 -->
<g id="node8" class="node">
<title>Node1279</title>
<g id="a_node8"><a xlink:href="libbf_8c.html#a5527d62eeb1da227fff469a53f9290c9" target="_top" xlink:title="__bf_rsqrt">
<polygon fill="none" stroke="#ff0000" points="767.5,-104.5 767.5,-123.5 827.5,-123.5 827.5,-104.5 767.5,-104.5"/>
<text text-anchor="middle" x="797.5" y="-111.5" font-family="Helvetica,sans-Serif" font-size="10.00" fill="#000000">__bf_rsqrt</text>
</a>
</g>
</g>
<!-- Node1231&#45;&gt;Node1279 -->
<g id="edge44" class="edge">
<title>Node1231&#45;&gt;Node1279</title>
<path fill="none" stroke="#191970" d="M62.7582,-157.5107C104.0563,-140.656 180.1031,-114 248,-114 248,-114 248,-114 532,-114 617.2734,-114 717.9527,-114 767.2391,-114"/>
<polygon fill="#191970" stroke="#191970" points="61.1617,-154.3841 53.2756,-161.4595 63.8527,-160.8462 61.1617,-154.3841"/>
</g>
<!-- Node1308 -->
<g id="node27" class="node">
<title>Node1308</title>
<g id="a_node27"><a xlink:href="libbf_8c.html#af464f3c1421a7305372819f949667273" target="_top" xlink:title="bf_set_overflow">
<polygon fill="none" stroke="#000000" points="205,-66.5 205,-85.5 291,-85.5 291,-66.5 205,-66.5"/>
<text text-anchor="middle" x="248" y="-73.5" font-family="Helvetica,sans-Serif" font-size="10.00" fill="#000000">bf_set_overflow</text>
</a>
</g>
</g>
<!-- Node1231&#45;&gt;Node1308 -->
<g id="edge46" class="edge">
<title>Node1231&#45;&gt;Node1308</title>
<path fill="none" stroke="#191970" d="M44.0152,-152.9311C56.0942,-136.3267 76.2891,-112.461 100,-100 132.489,-82.9257 174.0866,-77.3792 204.9033,-75.8415"/>
<polygon fill="#191970" stroke="#191970" points="41.0321,-151.0895 38.1689,-161.2902 46.7684,-155.1015 41.0321,-151.0895"/>
</g>
<!-- Node1309 -->
<g id="node28" class="node">
<title>Node1309</title>
<g id="a_node28"><a xlink:href="libbf_8c.html#ad6bddd5fff6d7452fe82c4a9e3a49cfa" target="_top" xlink:title="count_cancelled_bits">
<polygon fill="none" stroke="#000000" points="327,-455.5 327,-474.5 435,-474.5 435,-455.5 327,-455.5"/>
<text text-anchor="middle" x="381" y="-462.5" font-family="Helvetica,sans-Serif" font-size="10.00" fill="#000000">count_cancelled_bits</text>
</a>
</g>
</g>
<!-- Node1231&#45;&gt;Node1309 -->
<g id="edge50" class="edge">
<title>Node1231&#45;&gt;Node1309</title>
<path fill="none" stroke="#191970" d="M50.7453,-187.4251C64.3578,-199.3133 83.2497,-215.7312 100,-230 203.8441,-318.4598 330.9473,-423.6646 369.4275,-455.4493"/>
<polygon fill="#191970" stroke="#191970" points="52.85,-184.6161 43.0182,-180.6681 48.242,-189.8856 52.85,-184.6161"/>
</g>
<!-- Node1310 -->
<g id="node29" class="node">
<title>Node1310</title>
<g id="a_node29"><a xlink:href="libbf_8c.html#ad3d895c95a9ac95ae5fe9ea75ce7291f" target="_top" xlink:title="scan_bit_nz">
<polygon fill="none" stroke="#000000" points="100,-180.5 100,-199.5 169,-199.5 169,-180.5 100,-180.5"/>
<text text-anchor="middle" x="134.5" y="-187.5" font-family="Helvetica,sans-Serif" font-size="10.00" fill="#000000">scan_bit_nz</text>
</a>
</g>
</g>
<!-- Node1231&#45;&gt;Node1310 -->
<g id="edge52" class="edge">
<title>Node1231&#45;&gt;Node1310</title>
<path fill="none" stroke="#191970" d="M74.048,-178.7943C82.672,-180.3929 91.6555,-182.0581 99.9779,-183.6008"/>
<polygon fill="#191970" stroke="#191970" points="74.6209,-175.3409 64.1504,-176.9596 73.345,-182.2237 74.6209,-175.3409"/>
</g>
<!-- Node1233 -->
<g id="node3" class="node">
<title>Node1233</title>
<g id="a_node3"><a xlink:href="libbf_8h.html#ae822c0888d26739bb681dfef282b9150" target="_top" xlink:title="bf_normalize_and_round">
<polygon fill="none" stroke="#000000" points="471,-503.5 471,-522.5 593,-522.5 593,-503.5 471,-503.5"/>
<text text-anchor="middle" x="532" y="-510.5" font-family="Helvetica,sans-Serif" font-size="10.00" fill="#000000">bf_normalize_and_round</text>
</a>
</g>
</g>
<!-- Node1232&#45;&gt;Node1233 -->
<g id="edge2" class="edge">
<title>Node1232&#45;&gt;Node1233</title>
<path fill="none" stroke="#191970" d="M390.9841,-246.8441C420.2265,-302.0367 504.9945,-462.0294 526.8241,-503.2309"/>
<polygon fill="#191970" stroke="#191970" points="393.9723,-245.0081 386.1978,-237.8103 387.7868,-248.2853 393.9723,-245.0081"/>
</g>
<!-- Node1302 -->
<g id="node18" class="node">
<title>Node1302</title>
<g id="a_node18"><a xlink:href="libbf_8h.html#abd4ca8358212228a53981a32a10286b5" target="_top" xlink:title="bf_round">
<polygon fill="none" stroke="#000000" points="505,-275.5 505,-294.5 559,-294.5 559,-275.5 505,-275.5"/>
<text text-anchor="middle" x="532" y="-282.5" font-family="Helvetica,sans-Serif" font-size="10.00" fill="#000000">bf_round</text>
</a>
</g>
</g>
<!-- Node1232&#45;&gt;Node1302 -->
<g id="edge22" class="edge">
<title>Node1232&#45;&gt;Node1302</title>
<path fill="none" stroke="#191970" d="M415.9763,-241.203C443.702,-251.669 481.7892,-266.0462 506.6435,-275.4284"/>
<polygon fill="#191970" stroke="#191970" points="416.8657,-237.7977 406.274,-237.5405 414.3936,-244.3466 416.8657,-237.7977"/>
</g>
<!-- Node1306 -->
<g id="node25" class="node">
<title>Node1306</title>
<g id="a_node25"><a xlink:href="libbf_8h.html#ae1d5fe9356228cc3a566786637f26680" target="_top" xlink:title="bf_mul_2exp">
<polygon fill="none" stroke="#ff0000" points="635.5,-180.5 635.5,-199.5 707.5,-199.5 707.5,-180.5 635.5,-180.5"/>
<text text-anchor="middle" x="671.5" y="-187.5" font-family="Helvetica,sans-Serif" font-size="10.00" fill="#000000">bf_mul_2exp</text>
</a>
</g>
</g>
<!-- Node1232&#45;&gt;Node1306 -->
<g id="edge35" class="edge">
<title>Node1232&#45;&gt;Node1306</title>
<path fill="none" stroke="#191970" d="M423.9284,-222.3846C481.1886,-214.8944 581.5589,-201.7651 635.2278,-194.7447"/>
<polygon fill="#191970" stroke="#191970" points="423.2209,-218.9472 413.7593,-223.7148 424.1289,-225.8881 423.2209,-218.9472"/>
</g>
<!-- Node1307 -->
<g id="node26" class="node">
<title>Node1307</title>
<g id="a_node26"><a xlink:href="libbf_8h.html#aae12fa8e1a145cf60336847431ba8e9c" target="_top" xlink:title="bf_rint">
<polygon fill="none" stroke="#ff0000" points="510,-332.5 510,-351.5 554,-351.5 554,-332.5 510,-332.5"/>
<text text-anchor="middle" x="532" y="-339.5" font-family="Helvetica,sans-Serif" font-size="10.00" fill="#000000">bf_rint</text>
</a>
</g>
</g>
<!-- Node1232&#45;&gt;Node1307 -->
<g id="edge42" class="edge">
<title>Node1232&#45;&gt;Node1307</title>
<path fill="none" stroke="#191970" d="M399.232,-244.7485C416.9773,-260.7189 444.9969,-285.0729 471,-304 485.4255,-314.5 502.7686,-325.1266 515.2687,-332.462"/>
<polygon fill="#191970" stroke="#191970" points="401.1577,-241.7698 391.3999,-237.6425 396.4541,-246.9541 401.1577,-241.7698"/>
</g>
<!-- Node1234 -->
<g id="node4" class="node">
<title>Node1234</title>
<g id="a_node4"><a xlink:href="libbf_8c.html#aaebd1df91497246cd81f23918af58d33" target="_top" xlink:title="bf_add_internal">
<polygon fill="none" stroke="#ff0000" points="630,-598.5 630,-617.5 713,-617.5 713,-598.5 630,-598.5"/>
<text text-anchor="middle" x="671.5" y="-605.5" font-family="Helvetica,sans-Serif" font-size="10.00" fill="#000000">bf_add_internal</text>
</a>
</g>
</g>
<!-- Node1233&#45;&gt;Node1234 -->
<g id="edge3" class="edge">
<title>Node1233&#45;&gt;Node1234</title>
<path fill="none" stroke="#191970" d="M552.2819,-528.9312C571.5714,-543.8193 601.6264,-566.3399 629,-584 636.8325,-589.0531 645.7807,-594.1949 653.4398,-598.4161"/>
<polygon fill="#191970" stroke="#191970" points="554.2695,-526.0433 544.225,-522.6727 549.9753,-531.5714 554.2695,-526.0433"/>
</g>
<!-- Node1297 -->
<g id="node5" class="node">
<title>Node1297</title>
<g id="a_node5"><a xlink:href="libbf_8h.html#ac290278d0c37a0e7786873f98aadba47" target="_top" xlink:title="bf_mul">
<polygon fill="none" stroke="#ff0000" points="648.5,-370.5 648.5,-389.5 694.5,-389.5 694.5,-370.5 648.5,-370.5"/>
<text text-anchor="middle" x="671.5" y="-377.5" font-family="Helvetica,sans-Serif" font-size="10.00" fill="#000000">bf_mul</text>
</a>
</g>
</g>
<!-- Node1233&#45;&gt;Node1297 -->
<g id="edge4" class="edge">
<title>Node1233&#45;&gt;Node1297</title>
<path fill="none" stroke="#191970" d="M549.5135,-496.3026C578.9594,-468.2287 637.4869,-412.4283 661.182,-389.8372"/>
<polygon fill="#191970" stroke="#191970" points="546.855,-494.0013 542.0325,-503.435 551.6854,-499.0677 546.855,-494.0013"/>
</g>
<!-- Node1239 -->
<g id="node7" class="node">
<title>Node1239</title>
<g id="a_node7"><a xlink:href="libbf_8c.html#ad7a540de8355f07757e52b48d35dd708" target="_top" xlink:title="__bf_div">
<polygon fill="none" stroke="#ff0000" points="771,-482.5 771,-501.5 824,-501.5 824,-482.5 771,-482.5"/>
<text text-anchor="middle" x="797.5" y="-489.5" font-family="Helvetica,sans-Serif" font-size="10.00" fill="#000000">__bf_div</text>
</a>
</g>
</g>
<!-- Node1233&#45;&gt;Node1239 -->
<g id="edge19" class="edge">
<title>Node1233&#45;&gt;Node1239</title>
<path fill="none" stroke="#191970" d="M603.3339,-507.3578C658.5693,-502.9889 732.0013,-497.1807 770.8186,-494.1104"/>
<polygon fill="#191970" stroke="#191970" points="602.9373,-503.8781 593.2444,-508.1558 603.4893,-510.8563 602.9373,-503.8781"/>
</g>
<!-- Node1254 -->
<g id="node10" class="node">
<title>Node1254</title>
<g id="a_node10"><a xlink:href="libbf_8h.html#ac6017f5cde57dab006383297ea94ef40" target="_top" xlink:title="bf_atof2">
<polygon fill="none" stroke="#ff0000" points="884.5,-502.5 884.5,-521.5 936.5,-521.5 936.5,-502.5 884.5,-502.5"/>
<text text-anchor="middle" x="910.5" y="-509.5" font-family="Helvetica,sans-Serif" font-size="10.00" fill="#000000">bf_atof2</text>
</a>
</g>
</g>
<!-- Node1233&#45;&gt;Node1254 -->
<g id="edge21" class="edge">
<title>Node1233&#45;&gt;Node1254</title>
<path fill="none" stroke="#191970" d="M587.459,-525.7832C589.3434,-526.4883 591.1956,-527.2268 593,-528 610.452,-535.478 610.7753,-545.6752 629,-551 722.2959,-578.2587 838.7018,-540.4696 887.4021,-521.6033"/>
<polygon fill="#191970" stroke="#191970" points="588.4355,-522.4188 577.8413,-522.5325 586.1941,-529.0503 588.4355,-522.4188"/>
</g>
<!-- Node1287 -->
<g id="node17" class="node">
<title>Node1287</title>
<g id="a_node17"><a xlink:href="libbf_8c.html#a88eb12d0cdf3192e9edc470c54c76baf" target="_top" xlink:title="bf_logic_op">
<polygon fill="none" stroke="#ff0000" points="638.5,-522.5 638.5,-541.5 704.5,-541.5 704.5,-522.5 638.5,-522.5"/>
<text text-anchor="middle" x="671.5" y="-529.5" font-family="Helvetica,sans-Serif" font-size="10.00" fill="#000000">bf_logic_op</text>
</a>
</g>
</g>
<!-- Node1233&#45;&gt;Node1287 -->
<g id="edge20" class="edge">
<title>Node1233&#45;&gt;Node1287</title>
<path fill="none" stroke="#191970" d="M603.4212,-522.7276C615.6252,-524.3898 627.7608,-526.0427 638.3327,-527.4826"/>
<polygon fill="#191970" stroke="#191970" points="603.5676,-519.2153 593.1867,-521.3337 602.6229,-526.1513 603.5676,-519.2153"/>
</g>
<!-- Node1297&#45;&gt;Node1237 -->
<g id="edge5" class="edge">
<title>Node1297&#45;&gt;Node1237</title>
<path fill="none" stroke="#191970" d="M703.7148,-369.2778C707.5382,-366.9978 711.1037,-364.2649 714,-361 749.8234,-320.6185 719.2987,-289.4005 750,-245 757.8475,-233.6508 770.2311,-224.1683 780.3865,-217.6449"/>
<polygon fill="#191970" stroke="#191970" points="701.939,-366.2511 694.5187,-373.8135 705.0354,-372.529 701.939,-366.2511"/>
</g>
<!-- Node1297&#45;&gt;Node1239 -->
<g id="edge7" class="edge">
<title>Node1297&#45;&gt;Node1239</title>
<path fill="none" stroke="#191970" d="M682.6898,-397.9628C696.335,-418.5736 721.1763,-452.1986 750,-473 756.1938,-477.4699 763.5868,-481.0809 770.6741,-483.9055"/>
<polygon fill="#191970" stroke="#191970" points="685.5948,-396.0094 677.2342,-389.5016 679.7117,-399.8027 685.5948,-396.0094"/>
</g>
<!-- Node1297&#45;&gt;Node1279 -->
<g id="edge8" class="edge">
<title>Node1297&#45;&gt;Node1279</title>
<path fill="none" stroke="#191970" d="M704.0091,-369.5268C707.7869,-367.2081 711.2613,-364.3982 714,-361 763.0095,-300.1903 720.6362,-261.3707 750,-189 760.3146,-163.5785 779.2498,-137.2493 789.8309,-123.5649"/>
<polygon fill="#191970" stroke="#191970" points="702.2371,-366.4993 694.847,-374.0912 705.3585,-372.7648 702.2371,-366.4993"/>
</g>
<!-- Node1253 -->
<g id="node9" class="node">
<title>Node1253</title>
<g id="a_node9"><a xlink:href="libbf_8h.html#a0b4d56fc6808de8feed2a234525df692" target="_top" xlink:title="bf_mul_pow_radix">
<polygon fill="none" stroke="#ff0000" points="750,-444.5 750,-463.5 845,-463.5 845,-444.5 750,-444.5"/>
<text text-anchor="middle" x="797.5" y="-451.5" font-family="Helvetica,sans-Serif" font-size="10.00" fill="#000000">bf_mul_pow_radix</text>
</a>
</g>
</g>
<!-- Node1297&#45;&gt;Node1253 -->
<g id="edge10" class="edge">
<title>Node1297&#45;&gt;Node1253</title>
<path fill="none" stroke="#191970" d="M698.5776,-394.693C703.7589,-397.6718 709.0947,-400.8574 714,-404 730.6186,-414.6467 733.1398,-419.7401 750,-430 758.5243,-435.1873 768.3102,-440.2693 776.7761,-444.4116"/>
<polygon fill="#191970" stroke="#191970" points="699.9757,-391.4636 689.5445,-389.6082 696.542,-397.5635 699.9757,-391.4636"/>
</g>
<!-- Node1260 -->
<g id="node11" class="node">
<title>Node1260</title>
<g id="a_node11"><a xlink:href="libbf_8c.html#a157194b3c7faaa17e39ae78cd98c4385" target="_top" xlink:title="bf_exp_internal">
<polygon fill="none" stroke="#000000" points="756,-292.5 756,-311.5 839,-311.5 839,-292.5 756,-292.5"/>
<text text-anchor="middle" x="797.5" y="-299.5" font-family="Helvetica,sans-Serif" font-size="10.00" fill="#000000">bf_exp_internal</text>
</a>
</g>
</g>
<!-- Node1297&#45;&gt;Node1260 -->
<g id="edge12" class="edge">
<title>Node1297&#45;&gt;Node1260</title>
<path fill="none" stroke="#191970" d="M703.596,-367.419C707.2333,-365.4842 710.7838,-363.341 714,-361 733.3374,-346.9247 730.3857,-334.6868 750,-321 755.2443,-317.3405 761.296,-314.2366 767.2862,-311.6652"/>
<polygon fill="#191970" stroke="#191970" points="702.0061,-364.2999 694.5164,-371.7936 705.0445,-370.6061 702.0061,-364.2999"/>
</g>
<!-- Node1264 -->
<g id="node13" class="node">
<title>Node1264</title>
<g id="a_node13"><a xlink:href="libbf_8c.html#aab7bc918fdd8dbef25c31c6881c73fdd" target="_top" xlink:title="bf_log_internal">
<polygon fill="none" stroke="#ff0000" points="757.5,-254.5 757.5,-273.5 837.5,-273.5 837.5,-254.5 757.5,-254.5"/>
<text text-anchor="middle" x="797.5" y="-261.5" font-family="Helvetica,sans-Serif" font-size="10.00" fill="#000000">bf_log_internal</text>
</a>
</g>
</g>
<!-- Node1297&#45;&gt;Node1264 -->
<g id="edge14" class="edge">
<title>Node1297&#45;&gt;Node1264</title>
<path fill="none" stroke="#191970" d="M703.5683,-368.7698C707.3629,-366.577 710.9601,-364.0036 714,-361 741.1595,-334.1646 722.3106,-309.2883 750,-283 753.9936,-279.2085 758.8388,-276.1391 763.889,-273.6644"/>
<polygon fill="#191970" stroke="#191970" points="701.953,-365.6638 694.5252,-373.2188 705.0432,-371.9448 701.953,-365.6638"/>
</g>
<!-- Node1284 -->
<g id="node14" class="node">
<title>Node1284</title>
<g id="a_node14"><a xlink:href="libbf_8c.html#a15b40c4ae7e9b401fd0c6dc398eacef7" target="_top" xlink:title="bf_sqrt_sin">
<polygon fill="none" stroke="#000000" points="765,-368.5 765,-387.5 830,-387.5 830,-368.5 765,-368.5"/>
<text text-anchor="middle" x="797.5" y="-375.5" font-family="Helvetica,sans-Serif" font-size="10.00" fill="#000000">bf_sqrt_sin</text>
</a>
</g>
</g>
<!-- Node1297&#45;&gt;Node1284 -->
<g id="edge15" class="edge">
<title>Node1297&#45;&gt;Node1284</title>
<path fill="none" stroke="#191970" d="M704.6433,-379.4739C723.1413,-379.1803 746.1064,-378.8158 764.5698,-378.5227"/>
<polygon fill="#191970" stroke="#191970" points="704.5535,-375.9748 694.6103,-379.6332 704.6647,-382.9739 704.5535,-375.9748"/>
</g>
<!-- Node1246 -->
<g id="node15" class="node">
<title>Node1246</title>
<g id="a_node15"><a xlink:href="libbf_8c.html#ab769247f7a6429c42dfeba4f8334cb75" target="_top" xlink:title="bf_sincos">
<polygon fill="none" stroke="#ff0000" points="881,-368.5 881,-387.5 940,-387.5 940,-368.5 881,-368.5"/>
<text text-anchor="middle" x="910.5" y="-375.5" font-family="Helvetica,sans-Serif" font-size="10.00" fill="#000000">bf_sincos</text>
</a>
</g>
</g>
<!-- Node1297&#45;&gt;Node1246 -->
<g id="edge17" class="edge">
<title>Node1297&#45;&gt;Node1246</title>
<path fill="none" stroke="#191970" d="M704.7155,-388.8349C718.6013,-392.0983 734.9736,-395.3916 750,-397 791.9824,-401.4938 803.1978,-402.9405 845,-397 858.1292,-395.1342 872.3075,-391.2643 884.1039,-387.5009"/>
<polygon fill="#191970" stroke="#191970" points="705.1903,-385.348 694.6452,-386.3737 703.5283,-392.1479 705.1903,-385.348"/>
</g>
<!-- Node1268 -->
<g id="node16" class="node">
<title>Node1268</title>
<g id="a_node16"><a xlink:href="libbf_8c.html#aa4b535a5b33344704c576607ab4f0463" target="_top" xlink:title="bf_atan_internal">
<polygon fill="none" stroke="#ff0000" points="754.5,-330.5 754.5,-349.5 840.5,-349.5 840.5,-330.5 754.5,-330.5"/>
<text text-anchor="middle" x="797.5" y="-337.5" font-family="Helvetica,sans-Serif" font-size="10.00" fill="#000000">bf_atan_internal</text>
</a>
</g>
</g>
<!-- Node1297&#45;&gt;Node1268 -->
<g id="edge18" class="edge">
<title>Node1297&#45;&gt;Node1268</title>
<path fill="none" stroke="#191970" d="M704.296,-369.5886C723.8079,-363.3943 748.3835,-355.5926 767.3999,-349.5556"/>
<polygon fill="#191970" stroke="#191970" points="703.0825,-366.3016 694.6103,-372.6634 705.2006,-372.9735 703.0825,-366.3016"/>
</g>
<!-- Node1237&#45;&gt;Node1237 -->
<g id="edge6" class="edge">
<title>Node1237&#45;&gt;Node1237</title>
<path fill="none" stroke="#191970" d="M776.7603,-227.4C778.1454,-232.3146 785.0586,-236 797.5,-236 817.4063,-236 823.1604,-226.5653 814.7625,-217.7571"/>
<polygon fill="#191970" stroke="#191970" points="780.1378,-228.3514 780.2375,-217.7571 773.5528,-225.9768 780.1378,-228.3514"/>
</g>
<!-- Node1279&#45;&gt;Node1279 -->
<g id="edge9" class="edge">
<title>Node1279&#45;&gt;Node1279</title>
<path fill="none" stroke="#191970" d="M776.7603,-133.4C778.1454,-138.3146 785.0586,-142 797.5,-142 817.4063,-142 823.1604,-132.5653 814.7625,-123.7571"/>
<polygon fill="#191970" stroke="#191970" points="780.1378,-134.3514 780.2375,-123.7571 773.5528,-131.9768 780.1378,-134.3514"/>
</g>
<!-- Node1253&#45;&gt;Node1254 -->
<g id="edge11" class="edge">
<title>Node1253&#45;&gt;Node1254</title>
<path fill="none" stroke="#191970" d="M832.9508,-467.4663C837.0552,-469.2352 841.1477,-471.0973 845,-473 863.1552,-481.9673 883.0054,-494.1464 896.0396,-502.4951"/>
<polygon fill="#191970" stroke="#191970" points="834.0379,-464.1282 823.4598,-463.533 831.3579,-470.5949 834.0379,-464.1282"/>
</g>
<!-- Node1261 -->
<g id="node12" class="node">
<title>Node1261</title>
<g id="a_node12"><a xlink:href="libbf_8h.html#a36f22f93ba4258209be035a63b80b87f" target="_top" xlink:title="bf_exp">
<polygon fill="none" stroke="#ff0000" points="887.5,-28.5 887.5,-47.5 933.5,-47.5 933.5,-28.5 887.5,-28.5"/>
<text text-anchor="middle" x="910.5" y="-35.5" font-family="Helvetica,sans-Serif" font-size="10.00" fill="#000000">bf_exp</text>
</a>
</g>
</g>
<!-- Node1260&#45;&gt;Node1261 -->
<g id="edge13" class="edge">
<title>Node1260&#45;&gt;Node1261</title>
<path fill="none" stroke="#191970" d="M841.1825,-286.7066C842.5444,-285.558 843.8247,-284.3245 845,-283 877.5095,-246.362 902.9874,-88.3368 909.0987,-47.6061"/>
<polygon fill="#191970" stroke="#191970" points="839.0286,-283.9362 832.6543,-292.399 842.9148,-289.7583 839.0286,-283.9362"/>
</g>
<!-- Node1284&#45;&gt;Node1246 -->
<g id="edge16" class="edge">
<title>Node1284&#45;&gt;Node1246</title>
<path fill="none" stroke="#191970" d="M840.287,-378C853.8581,-378 868.5526,-378 880.9743,-378"/>
<polygon fill="#191970" stroke="#191970" points="840.1843,-374.5001 830.1843,-378 840.1842,-381.5001 840.1843,-374.5001"/>
</g>
<!-- Node1302&#45;&gt;Node1239 -->
<g id="edge23" class="edge">
<title>Node1302&#45;&gt;Node1239</title>
<path fill="none" stroke="#191970" d="M564.0878,-299.3786C574.5286,-305.3944 585.3781,-313.2796 593,-323 624.741,-363.48 593.0012,-396.2548 629,-433 667.6094,-472.41 733.9906,-485.5396 770.8573,-489.8818"/>
<polygon fill="#191970" stroke="#191970" points="565.5775,-296.2062 555.1091,-294.5742 562.2748,-302.3782 565.5775,-296.2062"/>
</g>
<!-- Node1302&#45;&gt;Node1253 -->
<g id="edge30" class="edge">
<title>Node1302&#45;&gt;Node1253</title>
<path fill="none" stroke="#191970" d="M562.6849,-299.5186C573.2796,-305.6435 584.5882,-313.563 593,-323 617.8696,-350.9006 600.9492,-374.2999 629,-399 662.8341,-428.7926 713.1258,-442.4985 749.9585,-448.7727"/>
<polygon fill="#191970" stroke="#191970" points="564.1061,-296.3075 553.6489,-294.6051 560.762,-302.4571 564.1061,-296.3075"/>
</g>
<!-- Node1242 -->
<g id="node19" class="node">
<title>Node1242</title>
<g id="a_node19"><a xlink:href="libbf_8h.html#a951ec20cd7fa3bf021d165b213e15ce4" target="_top" xlink:title="bf_divrem">
<polygon fill="none" stroke="#ff0000" points="642,-294.5 642,-313.5 701,-313.5 701,-294.5 642,-294.5"/>
<text text-anchor="middle" x="671.5" y="-301.5" font-family="Helvetica,sans-Serif" font-size="10.00" fill="#000000">bf_divrem</text>
</a>
</g>
</g>
<!-- Node1302&#45;&gt;Node1242 -->
<g id="edge24" class="edge">
<title>Node1302&#45;&gt;Node1242</title>
<path fill="none" stroke="#191970" d="M569.2221,-290.0697C591.9917,-293.1709 620.7206,-297.0838 641.929,-299.9724"/>
<polygon fill="#191970" stroke="#191970" points="569.6091,-286.5901 559.2282,-288.7085 568.6643,-293.5261 569.6091,-286.5901"/>
</g>
<!-- Node1281 -->
<g id="node20" class="node">
<title>Node1281</title>
<g id="a_node20"><a xlink:href="libbf_8h.html#a1a8b9ac1fea38b97fc6be8663ce9e867" target="_top" xlink:title="bf_sqrt">
<polygon fill="none" stroke="#ff0000" points="648,-332.5 648,-351.5 695,-351.5 695,-332.5 648,-332.5"/>
<text text-anchor="middle" x="671.5" y="-339.5" font-family="Helvetica,sans-Serif" font-size="10.00" fill="#000000">bf_sqrt</text>
</a>
</g>
</g>
<!-- Node1302&#45;&gt;Node1281 -->
<g id="edge25" class="edge">
<title>Node1302&#45;&gt;Node1281</title>
<path fill="none" stroke="#191970" d="M564.6501,-298.3409C590.2351,-308.795 625.2139,-323.0874 648.0747,-332.4284"/>
<polygon fill="#191970" stroke="#191970" points="565.9301,-295.0831 555.3492,-294.5405 563.2823,-301.563 565.9301,-295.0831"/>
</g>
<!-- Node1303 -->
<g id="node21" class="node">
<title>Node1303</title>
<g id="a_node21"><a xlink:href="libbf_8h.html#a74f8125e45e931d1ecec220cea9c952e" target="_top" xlink:title="bf_get_float64">
<polygon fill="none" stroke="#000000" points="632.5,-256.5 632.5,-275.5 710.5,-275.5 710.5,-256.5 632.5,-256.5"/>
<text text-anchor="middle" x="671.5" y="-263.5" font-family="Helvetica,sans-Serif" font-size="10.00" fill="#000000">bf_get_float64</text>
</a>
</g>
</g>
<!-- Node1302&#45;&gt;Node1303 -->
<g id="edge29" class="edge">
<title>Node1302&#45;&gt;Node1303</title>
<path fill="none" stroke="#191970" d="M569.2806,-279.9224C588.8011,-277.2636 612.6892,-274.0101 632.4625,-271.3169"/>
<polygon fill="#191970" stroke="#191970" points="568.6643,-276.4739 559.2282,-281.2915 569.6091,-283.4099 568.6643,-276.4739"/>
</g>
<!-- Node1304 -->
<g id="node22" class="node">
<title>Node1304</title>
<g id="a_node22"><a xlink:href="libbf_8c.html#a238895e8f2744e0cef713d82f472162e" target="_top" xlink:title="bf_const_get">
<polygon fill="none" stroke="#ff0000" points="635,-218.5 635,-237.5 708,-237.5 708,-218.5 635,-218.5"/>
<text text-anchor="middle" x="671.5" y="-225.5" font-family="Helvetica,sans-Serif" font-size="10.00" fill="#000000">bf_const_get</text>
</a>
</g>
</g>
<!-- Node1302&#45;&gt;Node1304 -->
<g id="edge31" class="edge">
<title>Node1302&#45;&gt;Node1304</title>
<path fill="none" stroke="#191970" d="M564.6501,-271.6591C590.2351,-261.205 625.2139,-246.9126 648.0747,-237.5716"/>
<polygon fill="#191970" stroke="#191970" points="563.2823,-268.437 555.3492,-275.4595 565.9301,-274.9169 563.2823,-268.437"/>
</g>
<!-- Node1305 -->
<g id="node23" class="node">
<title>Node1305</title>
<g id="a_node23"><a xlink:href="libbf_8c.html#a39e7dd6286a6f0541a12366ebd93dbfd" target="_top" xlink:title="bf_ziv_rounding">
<polygon fill="none" stroke="#ff0000" points="629,-28.5 629,-47.5 714,-47.5 714,-28.5 629,-28.5"/>
<text text-anchor="middle" x="671.5" y="-35.5" font-family="Helvetica,sans-Serif" font-size="10.00" fill="#000000">bf_ziv_rounding</text>
</a>
</g>
</g>
<!-- Node1302&#45;&gt;Node1305 -->
<g id="edge32" class="edge">
<title>Node1302&#45;&gt;Node1305</title>
<path fill="none" stroke="#191970" d="M542.5197,-266.3738C570.3608,-217.0781 645.2572,-84.4658 666.0692,-47.6158"/>
<polygon fill="#191970" stroke="#191970" points="539.3387,-264.8888 537.4686,-275.3173 545.4338,-268.3312 539.3387,-264.8888"/>
</g>
<!-- Node1281&#45;&gt;Node1264 -->
<g id="edge26" class="edge">
<title>Node1281&#45;&gt;Node1264</title>
<path fill="none" stroke="#191970" d="M704.3774,-328.9994C707.7411,-327.1756 711.0145,-325.1731 714,-323 733.3374,-308.9247 730.3857,-296.6868 750,-283 755.2443,-279.3405 761.296,-276.2366 767.2862,-273.6652"/>
<polygon fill="#191970" stroke="#191970" points="702.8358,-325.8571 695.3991,-333.4034 705.9186,-332.1417 702.8358,-325.8571"/>
</g>
<!-- Node1281&#45;&gt;Node1284 -->
<g id="edge27" class="edge">
<title>Node1281&#45;&gt;Node1284</title>
<path fill="none" stroke="#191970" d="M704.9893,-351.5684C723.5285,-356.8653 746.4725,-363.4207 764.8726,-368.6779"/>
<polygon fill="#191970" stroke="#191970" points="705.7764,-348.1533 695.1996,-348.7713 703.8533,-354.8839 705.7764,-348.1533"/>
</g>
<!-- Node1281&#45;&gt;Node1268 -->
<g id="edge28" class="edge">
<title>Node1281&#45;&gt;Node1268</title>
<path fill="none" stroke="#191970" d="M705.5597,-341.4594C720.5579,-341.2213 738.3519,-340.9389 754.2716,-340.6862"/>
<polygon fill="#191970" stroke="#191970" points="705.1428,-337.9655 695.1996,-341.6238 705.254,-344.9646 705.1428,-337.9655"/>
</g>
<!-- Node1305&#45;&gt;Node1261 -->
<g id="edge33" class="edge">
<title>Node1305&#45;&gt;Node1261</title>
<path fill="none" stroke="#191970" d="M724.3933,-38C775.304,-38 849.9132,-38 887.3172,-38"/>
<polygon fill="#191970" stroke="#191970" points="724.2284,-34.5001 714.2284,-38 724.2284,-41.5001 724.2284,-34.5001"/>
</g>
<!-- Node1263 -->
<g id="node24" class="node">
<title>Node1263</title>
<g id="a_node24"><a xlink:href="libbf_8h.html#a93fe073491f8c5f086a75e7bf8865b34" target="_top" xlink:title="bf_pow">
<polygon fill="none" stroke="#000000" points="773.5,-66.5 773.5,-85.5 821.5,-85.5 821.5,-66.5 773.5,-66.5"/>
<text text-anchor="middle" x="797.5" y="-73.5" font-family="Helvetica,sans-Serif" font-size="10.00" fill="#000000">bf_pow</text>
</a>
</g>
</g>
<!-- Node1305&#45;&gt;Node1263 -->
<g id="edge34" class="edge">
<title>Node1305&#45;&gt;Node1263</title>
<path fill="none" stroke="#191970" d="M713.0846,-50.5414C733.0384,-56.5592 756.2454,-63.5581 773.2712,-68.6929"/>
<polygon fill="#191970" stroke="#191970" points="713.8798,-47.1256 703.2951,-47.589 711.8586,-53.8274 713.8798,-47.1256"/>
</g>
<!-- Node1306&#45;&gt;Node1260 -->
<g id="edge36" class="edge">
<title>Node1306&#45;&gt;Node1260</title>
<path fill="none" stroke="#191970" d="M708.7923,-204.6762C710.6431,-206.0079 712.3959,-207.447 714,-209 740.2771,-234.4399 723.2206,-258.0893 750,-283 754.032,-286.7506 758.897,-289.799 763.9552,-292.2652"/>
<polygon fill="#191970" stroke="#191970" points="710.5805,-201.6674 700.2085,-199.5055 706.9684,-207.6636 710.5805,-201.6674"/>
</g>
<!-- Node1306&#45;&gt;Node1264 -->
<g id="edge37" class="edge">
<title>Node1306&#45;&gt;Node1264</title>
<path fill="none" stroke="#191970" d="M706.0134,-204.1063C708.7863,-205.6343 711.4848,-207.2685 714,-209 732.6381,-221.8305 731.1097,-232.5438 750,-245 755.487,-248.6181 761.7708,-251.7321 767.9323,-254.3311"/>
<polygon fill="#191970" stroke="#191970" points="707.5438,-200.9583 697.0365,-199.5987 704.4025,-207.2139 707.5438,-200.9583"/>
</g>
<!-- Node1306&#45;&gt;Node1284 -->
<g id="edge39" class="edge">
<title>Node1306&#45;&gt;Node1284</title>
<path fill="none" stroke="#191970" d="M710.7425,-205.6021C711.9073,-206.664 712.9996,-207.7952 714,-209 757.7976,-261.7467 705.1589,-307.1375 750,-359 753.9502,-363.5687 759.1533,-367.0509 764.6649,-369.7013"/>
<polygon fill="#191970" stroke="#191970" points="712.3958,-202.4838 702.2139,-199.5546 708.3468,-208.1939 712.3958,-202.4838"/>
</g>
<!-- Node1306&#45;&gt;Node1246 -->
<g id="edge40" class="edge">
<title>Node1306&#45;&gt;Node1246</title>
<path fill="none" stroke="#191970" d="M710.1854,-177.8051C748.1375,-168.3842 805.8573,-161.1387 845,-189 875.8383,-210.9503 901.653,-332.5715 908.6373,-368.1941"/>
<polygon fill="#191970" stroke="#191970" points="708.8078,-174.5492 700.037,-180.4926 710.5998,-181.3159 708.8078,-174.5492"/>
</g>
<!-- Node1306&#45;&gt;Node1268 -->
<g id="edge41" class="edge">
<title>Node1306&#45;&gt;Node1268</title>
<path fill="none" stroke="#191970" d="M710.1379,-205.2841C711.5167,-206.4389 712.8133,-207.6758 714,-209 748.895,-247.938 714.3352,-282.7659 750,-321 753.635,-324.8969 758.1754,-328.0108 762.997,-330.4947"/>
<polygon fill="#191970" stroke="#191970" points="711.7922,-202.1799 701.5339,-199.5308 707.9012,-207.9989 711.7922,-202.1799"/>
</g>
<!-- Node1306&#45;&gt;Node1263 -->
<g id="edge38" class="edge">
<title>Node1306&#45;&gt;Node1263</title>
<path fill="none" stroke="#191970" d="M682.6007,-171.6395C696.1615,-150.5746 720.9234,-116.2162 750,-95 756.8878,-89.9742 765.2895,-86.0458 773.101,-83.0986"/>
<polygon fill="#191970" stroke="#191970" points="679.5259,-169.955 677.1829,-180.2875 685.4579,-173.6713 679.5259,-169.955"/>
</g>
<!-- Node1307&#45;&gt;Node1281 -->
<g id="edge43" class="edge">
<title>Node1307&#45;&gt;Node1281</title>
<path fill="none" stroke="#191970" d="M564.3702,-342C589.8148,-342 624.6788,-342 647.6306,-342"/>
<polygon fill="#191970" stroke="#191970" points="564.1042,-338.5001 554.1042,-342 564.1042,-345.5001 564.1042,-338.5001"/>
</g>
<!-- Node1308&#45;&gt;Node1232 -->
<g id="edge47" class="edge">
<title>Node1308&#45;&gt;Node1232</title>
<path fill="none" stroke="#191970" d="M263.051,-93.2011C291.1581,-125.3236 350.7613,-193.4415 372.6834,-218.4953"/>
<polygon fill="#191970" stroke="#191970" points="265.5389,-90.7293 256.3197,-85.5083 260.2708,-95.3388 265.5389,-90.7293"/>
</g>
<!-- Node1308&#45;&gt;Node1261 -->
<g id="edge48" class="edge">
<title>Node1308&#45;&gt;Node1261</title>
<path fill="none" stroke="#191970" d="M278.3311,-62.259C329.5139,-40.3629 436.7776,0 532,0 532,0 532,0 671.5,0 751.5371,0 844.8016,-21.0423 887.2873,-31.8101"/>
<polygon fill="#191970" stroke="#191970" points="276.6384,-59.1783 268.8625,-66.3745 279.4288,-65.5981 276.6384,-59.1783"/>
</g>
<!-- Node1308&#45;&gt;Node1263 -->
<g id="edge49" class="edge">
<title>Node1308&#45;&gt;Node1263</title>
<path fill="none" stroke="#191970" d="M301.2172,-76C417.5951,-76 690.9121,-76 773.4688,-76"/>
<polygon fill="#191970" stroke="#191970" points="301.1184,-72.5001 291.1183,-76 301.1183,-79.5001 301.1184,-72.5001"/>
</g>
<!-- Node1309&#45;&gt;Node1234 -->
<g id="edge51" class="edge">
<title>Node1309&#45;&gt;Node1234</title>
<path fill="none" stroke="#191970" d="M399.4226,-481.1288C416.9186,-495.8411 444.4261,-517.4437 471,-532 526.6658,-562.4919 597.1202,-586.0795 637.9722,-598.434"/>
<polygon fill="#191970" stroke="#191970" points="401.563,-478.3541 391.6858,-474.521 397.0168,-483.6769 401.563,-478.3541"/>
</g>
<!-- Node1311 -->
<g id="node30" class="node">
<title>Node1311</title>
<g id="a_node30"><a xlink:href="libbf_8c.html#a3d7fdccc1995b3a88b68c5e7a57dce16" target="_top" xlink:title="bf_get_rnd_add">
<polygon fill="none" stroke="#000000" points="206.5,-180.5 206.5,-199.5 289.5,-199.5 289.5,-180.5 206.5,-180.5"/>
<text text-anchor="middle" x="248" y="-187.5" font-family="Helvetica,sans-Serif" font-size="10.00" fill="#000000">bf_get_rnd_add</text>
</a>
</g>
</g>
<!-- Node1310&#45;&gt;Node1311 -->
<g id="edge53" class="edge">
<title>Node1310&#45;&gt;Node1311</title>
<path fill="none" stroke="#191970" d="M179.37,-190C188.2654,-190 197.5684,-190 206.3511,-190"/>
<polygon fill="#191970" stroke="#191970" points="179.1705,-186.5001 169.1705,-190 179.1704,-193.5001 179.1705,-186.5001"/>
</g>
<!-- Node1311&#45;&gt;Node1232 -->
<g id="edge54" class="edge">
<title>Node1311&#45;&gt;Node1232</title>
<path fill="none" stroke="#191970" d="M291.2646,-202.3613C309.8319,-207.6663 331.1634,-213.761 348.3688,-218.6768"/>
<polygon fill="#191970" stroke="#191970" points="292.1383,-198.971 281.5615,-199.589 290.2152,-205.7016 292.1383,-198.971"/>
</g>
</g>
</svg>
        <g id="navigator" transform="translate(0 0)" fill="#404254">
                <rect fill="#f2f5e9" fill-opacity="0.5" stroke="#606060" stroke-width=".5" x="0" y="0" width="60" height="60"/>
                <use id="zoomplus" xlink:href="#zoomPlus" x="17" y="9" onmousedown="handleZoom(evt,'in')"/>
                <use id="zoomminus" xlink:href="#zoomMin" x="42" y="9" onmousedown="handleZoom(evt,'out')"/>
                <use id="reset" xlink:href="#resetDef" x="30" y="36" onmousedown="handleReset()"/>
                <g id="arrowUp" xlink:href="#dirArrow" transform="translate(30 24)" onmousedown="handlePan(0,-1)">
                  <use xlink:href="#rim" fill="#404040">
                        <set attributeName="fill" to="#808080" begin="arrowUp.mouseover" end="arrowUp.mouseout"/>
                  </use>
                  <path fill="none" stroke="white" stroke-width="1.5" d="M0,-3.0v7 M-2.5,-0.5L0,-3.0L2.5,-0.5"/>
                </g>
                <g id="arrowRight" xlink:href="#dirArrow" transform="rotate(90) translate(36 -43)" onmousedown="handlePan(1,0)">
                  <use xlink:href="#rim" fill="#404040">
                        <set attributeName="fill" to="#808080" begin="arrowRight.mouseover" end="arrowRight.mouseout"/>
                  </use>
                  <path fill="none" stroke="white" stroke-width="1.5" d="M0,-3.0v7 M-2.5,-0.5L0,-3.0L2.5,-0.5"/>
                </g>
                <g id="arrowDown" xlink:href="#dirArrow" transform="rotate(180) translate(-30 -48)" onmousedown="handlePan(0,1)">
                  <use xlink:href="#rim" fill="#404040">
                        <set attributeName="fill" to="#808080" begin="arrowDown.mouseover" end="arrowDown.mouseout"/>
                  </use>
                  <path fill="none" stroke="white" stroke-width="1.5" d="M0,-3.0v7 M-2.5,-0.5L0,-3.0L2.5,-0.5"/>
                </g>
                <g id="arrowLeft" xlink:href="#dirArrow" transform="rotate(270) translate(-36 17)" onmousedown="handlePan(-1,0)">
                  <use xlink:href="#rim" fill="#404040">
                        <set attributeName="fill" to="#808080" begin="arrowLeft.mouseover" end="arrowLeft.mouseout"/>
                  </use>
                  <path fill="none" stroke="white" stroke-width="1.5" d="M0,-3.0v7 M-2.5,-0.5L0,-3.0L2.5,-0.5"/>
                </g>
        </g>
        <svg viewBox="0 0 15 15" width="100%" height="30px" preserveAspectRatio="xMaxYMin meet">
         <g id="arrow_out" transform="scale(0.3 0.3)">
          <a xlink:href="libbf_8c_a450dfcc66e1b45403f642a8499219f94_icgraph_org.svg" target="_base">
           <rect id="button" ry="5" rx="5" y="6" x="6" height="38" width="38"
                fill="#f2f5e9" fill-opacity="0.5" stroke="#606060" stroke-width="1.0"/>
           <path id="arrow"
             d="M 11.500037,31.436501 C 11.940474,20.09759 22.043105,11.32322 32.158766,21.979434 L 37.068811,17.246167 C 37.068811,17.246167 37.088388,32 37.088388,32 L 22.160133,31.978069 C 22.160133,31.978069 26.997745,27.140456 26.997745,27.140456 C 18.528582,18.264221 13.291696,25.230495 11.500037,31.436501 z"
             style="fill:#404040;"/>
          </a>
         </g>
        </svg>
</svg>
