<?xml version="1.0" encoding="UTF-8" standalone="no"?>
<!DOCTYPE svg PUBLIC "-//W3C//DTD SVG 1.1//EN"
 "http://www.w3.org/Graphics/SVG/1.1/DTD/svg11.dtd">
<!-- Generated by graphviz version 2.40.1 (20161225.0304)
 -->
<!-- Title: bf_mul_2exp Pages: 1 -->
<svg width="739pt" height="417pt"
 viewBox="0.00 0.00 739.00 417.00" xmlns="http://www.w3.org/2000/svg" xmlns:xlink="http://www.w3.org/1999/xlink">
<g id="graph0" class="graph" transform="scale(1 1) rotate(0) translate(4 413)">
<title>bf_mul_2exp</title>
<!-- Node13930 -->
<g id="node1" class="node">
<title>Node13930</title>
<polygon fill="#bfbfbf" stroke="#000000" points="0,-190.5 0,-209.5 72,-209.5 72,-190.5 0,-190.5"/>
<text text-anchor="middle" x="36" y="-197.5" font-family="Helvetica,sans-Serif" font-size="10.00" fill="#000000">bf_mul_2exp</text>
</g>
<!-- Node13931 -->
<g id="node2" class="node">
<title>Node13931</title>
<g id="a_node2"><a xlink:href="libbf_8c.html#a4a0919b7e170befaf75d114d48d350cc" target="_top" xlink:title="bf_asin_internal">
<polygon fill="none" stroke="#000000" points="375,-190.5 375,-209.5 460,-209.5 460,-190.5 375,-190.5"/>
<text text-anchor="middle" x="417.5" y="-197.5" font-family="Helvetica,sans-Serif" font-size="10.00" fill="#000000">bf_asin_internal</text>
</a>
</g>
</g>
<!-- Node13930&#45;&gt;Node13931 -->
<g id="edge1" class="edge">
<title>Node13930&#45;&gt;Node13931</title>
<path fill="none" stroke="#191970" d="M82.4163,-202.9583C90.9229,-203.3925 99.7258,-203.7703 108,-204 203.3467,-206.6465 315.2656,-203.7 374.9381,-201.6442"/>
<polygon fill="#191970" stroke="#191970" points="82.4174,-199.4533 72.2426,-202.407 82.0385,-206.4431 82.4174,-199.4533"/>
</g>
<!-- Node13935 -->
<g id="node6" class="node">
<title>Node13935</title>
<g id="a_node6"><a xlink:href="libbf_8c.html#aa4b535a5b33344704c576607ab4f0463" target="_top" xlink:title="bf_atan_internal">
<polygon fill="none" stroke="#000000" points="253,-171.5 253,-190.5 339,-190.5 339,-171.5 253,-171.5"/>
<text text-anchor="middle" x="296" y="-178.5" font-family="Helvetica,sans-Serif" font-size="10.00" fill="#000000">bf_atan_internal</text>
</a>
</g>
</g>
<!-- Node13930&#45;&gt;Node13935 -->
<g id="edge6" class="edge">
<title>Node13930&#45;&gt;Node13935</title>
<path fill="none" stroke="#191970" d="M82.3284,-196.6145C130.6227,-193.0853 205.7057,-187.5984 252.8018,-184.1568"/>
<polygon fill="#191970" stroke="#191970" points="81.8702,-193.1385 72.1519,-197.3581 82.3804,-200.1199 81.8702,-193.1385"/>
</g>
<!-- Node13940 -->
<g id="node9" class="node">
<title>Node13940</title>
<g id="a_node9"><a xlink:href="libbf_8c.html#a157194b3c7faaa17e39ae78cd98c4385" target="_top" xlink:title="bf_exp_internal">
<polygon fill="none" stroke="#000000" points="121,-285.5 121,-304.5 204,-304.5 204,-285.5 121,-285.5"/>
<text text-anchor="middle" x="162.5" y="-292.5" font-family="Helvetica,sans-Serif" font-size="10.00" fill="#000000">bf_exp_internal</text>
</a>
</g>
</g>
<!-- Node13930&#45;&gt;Node13940 -->
<g id="edge11" class="edge">
<title>Node13930&#45;&gt;Node13940</title>
<path fill="none" stroke="#191970" d="M48.6651,-217.6292C61.7679,-234.7144 83.6946,-260.2858 108,-276 113.8062,-279.7539 120.4418,-282.8645 127.0378,-285.4059"/>
<polygon fill="#191970" stroke="#191970" points="51.4356,-215.4896 42.6517,-209.5655 45.8241,-219.6743 51.4356,-215.4896"/>
</g>
<!-- Node13943 -->
<g id="node12" class="node">
<title>Node13943</title>
<g id="a_node12"><a xlink:href="libbf_8h.html#a93fe073491f8c5f086a75e7bf8865b34" target="_top" xlink:title="bf_pow">
<polygon fill="none" stroke="#ff0000" points="517.5,-361.5 517.5,-380.5 565.5,-380.5 565.5,-361.5 517.5,-361.5"/>
<text text-anchor="middle" x="541.5" y="-368.5" font-family="Helvetica,sans-Serif" font-size="10.00" fill="#000000">bf_pow</text>
</a>
</g>
</g>
<!-- Node13930&#45;&gt;Node13943 -->
<g id="edge21" class="edge">
<title>Node13930&#45;&gt;Node13943</title>
<path fill="none" stroke="#191970" d="M42.2785,-219.2505C51.9114,-245.4428 72.9912,-291.6044 108,-314 242.1219,-399.7994 447.4755,-383.2665 517.2979,-374.4922"/>
<polygon fill="#191970" stroke="#191970" points="45.5379,-217.9674 38.9424,-209.6759 38.9277,-220.2708 45.5379,-217.9674"/>
</g>
<!-- Node13946 -->
<g id="node13" class="node">
<title>Node13946</title>
<g id="a_node13"><a xlink:href="quickjs_8c.html#a69d448a344a95318ee4ce862ccc21251" target="_top" xlink:title="js_binary_arith_bigint">
<polygon fill="none" stroke="#ff0000" points="623,-380.5 623,-399.5 731,-399.5 731,-380.5 623,-380.5"/>
<text text-anchor="middle" x="677" y="-387.5" font-family="Helvetica,sans-Serif" font-size="10.00" fill="#000000">js_binary_arith_bigint</text>
</a>
</g>
</g>
<!-- Node13930&#45;&gt;Node13946 -->
<g id="edge36" class="edge">
<title>Node13930&#45;&gt;Node13946</title>
<path fill="none" stroke="#191970" d="M40.0295,-219.7416C47.6243,-251.9316 67.1098,-315.6716 108,-351 174.1665,-408.1666 208.5584,-409 296,-409 296,-409 296,-409 417.5,-409 488.647,-409 570.474,-401.8082 622.9096,-396.274"/>
<polygon fill="#191970" stroke="#191970" points="43.4009,-218.7776 37.8234,-209.7697 36.5662,-220.2897 43.4009,-218.7776"/>
</g>
<!-- Node13949 -->
<g id="node14" class="node">
<title>Node13949</title>
<g id="a_node14"><a xlink:href="libbf_8c.html#aab7bc918fdd8dbef25c31c6881c73fdd" target="_top" xlink:title="bf_log_internal">
<polygon fill="none" stroke="#000000" points="122.5,-247.5 122.5,-266.5 202.5,-266.5 202.5,-247.5 122.5,-247.5"/>
<text text-anchor="middle" x="162.5" y="-254.5" font-family="Helvetica,sans-Serif" font-size="10.00" fill="#000000">bf_log_internal</text>
</a>
</g>
</g>
<!-- Node13930&#45;&gt;Node13949 -->
<g id="edge17" class="edge">
<title>Node13930&#45;&gt;Node13949</title>
<path fill="none" stroke="#191970" d="M66.0923,-213.9136C78.9783,-219.8402 94.2072,-226.8026 108,-233 118.7507,-237.8305 130.734,-243.1181 140.7204,-247.4978"/>
<polygon fill="#191970" stroke="#191970" points="67.3045,-210.6186 56.7575,-209.6133 64.3756,-216.9764 67.3045,-210.6186"/>
</g>
<!-- Node13951 -->
<g id="node16" class="node">
<title>Node13951</title>
<g id="a_node16"><a xlink:href="libbf_8c.html#ab769247f7a6429c42dfeba4f8334cb75" target="_top" xlink:title="bf_sincos">
<polygon fill="none" stroke="#000000" points="266.5,-76.5 266.5,-95.5 325.5,-95.5 325.5,-76.5 266.5,-76.5"/>
<text text-anchor="middle" x="296" y="-83.5" font-family="Helvetica,sans-Serif" font-size="10.00" fill="#000000">bf_sincos</text>
</a>
</g>
</g>
<!-- Node13930&#45;&gt;Node13951 -->
<g id="edge22" class="edge">
<title>Node13930&#45;&gt;Node13951</title>
<path fill="none" stroke="#191970" d="M69.5297,-186.5172C106.0297,-171.7016 166.0085,-146.9514 217,-124 237.5401,-114.7549 260.7347,-103.4987 276.6496,-95.6468"/>
<polygon fill="#191970" stroke="#191970" points="67.8397,-183.4253 59.8844,-190.4227 70.467,-189.9136 67.8397,-183.4253"/>
</g>
<!-- Node13958 -->
<g id="node23" class="node">
<title>Node13958</title>
<g id="a_node23"><a xlink:href="libbf_8c.html#a15b40c4ae7e9b401fd0c6dc398eacef7" target="_top" xlink:title="bf_sqrt_sin">
<polygon fill="none" stroke="#000000" points="130,-95.5 130,-114.5 195,-114.5 195,-95.5 130,-95.5"/>
<text text-anchor="middle" x="162.5" y="-102.5" font-family="Helvetica,sans-Serif" font-size="10.00" fill="#000000">bf_sqrt_sin</text>
</a>
</g>
</g>
<!-- Node13930&#45;&gt;Node13958 -->
<g id="edge32" class="edge">
<title>Node13930&#45;&gt;Node13958</title>
<path fill="none" stroke="#191970" d="M50.6468,-182.2686C64.2451,-166.669 85.6988,-144.1463 108,-129 116.467,-123.2494 126.5359,-118.3573 135.7014,-114.5197"/>
<polygon fill="#191970" stroke="#191970" points="47.7677,-180.2509 43.9448,-190.1319 53.0952,-184.7916 47.7677,-180.2509"/>
</g>
<!-- Node13959 -->
<g id="node24" class="node">
<title>Node13959</title>
<g id="a_node24"><a xlink:href="quickjs_8c.html#a647ac2d4e992bc02c73781b039f825c2" target="_top" xlink:title="js_bigfloat_get_const">
<polygon fill="none" stroke="#000000" points="108,-57.5 108,-76.5 217,-76.5 217,-57.5 108,-57.5"/>
<text text-anchor="middle" x="162.5" y="-64.5" font-family="Helvetica,sans-Serif" font-size="10.00" fill="#000000">js_bigfloat_get_const</text>
</a>
</g>
</g>
<!-- Node13930&#45;&gt;Node13959 -->
<g id="edge34" class="edge">
<title>Node13930&#45;&gt;Node13959</title>
<path fill="none" stroke="#191970" d="M43.4305,-180.6379C54.0588,-155.3999 75.9281,-111.4857 108,-86 112.8639,-82.1349 118.5685,-79.0276 124.4214,-76.5376"/>
<polygon fill="#191970" stroke="#191970" points="40.0672,-179.6196 39.5668,-190.2026 46.5576,-182.2415 40.0672,-179.6196"/>
</g>
<!-- Node13960 -->
<g id="node25" class="node">
<title>Node13960</title>
<g id="a_node25"><a xlink:href="quickjs_8c.html#a6cbbaf7f4f0b365649ed66611005f58d" target="_top" xlink:title="js_bigint_asUintN">
<polygon fill="none" stroke="#000000" points="115.5,-19.5 115.5,-38.5 209.5,-38.5 209.5,-19.5 115.5,-19.5"/>
<text text-anchor="middle" x="162.5" y="-26.5" font-family="Helvetica,sans-Serif" font-size="10.00" fill="#000000">js_bigint_asUintN</text>
</a>
</g>
</g>
<!-- Node13930&#45;&gt;Node13960 -->
<g id="edge35" class="edge">
<title>Node13930&#45;&gt;Node13960</title>
<path fill="none" stroke="#191970" d="M40.1359,-180.2948C47.884,-148.1325 67.5851,-84.3091 108,-48 112.3233,-44.1159 117.4851,-41.0165 122.8836,-38.5457"/>
<polygon fill="#191970" stroke="#191970" points="36.6758,-179.7274 37.8795,-190.2536 43.5028,-181.2743 36.6758,-179.7274"/>
</g>
<!-- Node13932 -->
<g id="node3" class="node">
<title>Node13932</title>
<g id="a_node3"><a xlink:href="libbf_8h.html#a45cd74dd3a694c26e716762b7fd36955" target="_top" xlink:title="bf_acos">
<polygon fill="none" stroke="#000000" points="516,-228.5 516,-247.5 567,-247.5 567,-228.5 516,-228.5"/>
<text text-anchor="middle" x="541.5" y="-235.5" font-family="Helvetica,sans-Serif" font-size="10.00" fill="#000000">bf_acos</text>
</a>
</g>
</g>
<!-- Node13931&#45;&gt;Node13932 -->
<g id="edge2" class="edge">
<title>Node13931&#45;&gt;Node13932</title>
<path fill="none" stroke="#191970" d="M458.6106,-212.5984C477.4346,-218.3671 499.1677,-225.0272 515.6565,-230.0802"/>
<polygon fill="#191970" stroke="#191970" points="459.3771,-209.1727 448.7904,-209.589 457.326,-215.8655 459.3771,-209.1727"/>
</g>
<!-- Node13934 -->
<g id="node5" class="node">
<title>Node13934</title>
<g id="a_node5"><a xlink:href="libbf_8h.html#a8ee86879e3da22442956f47356855edd" target="_top" xlink:title="bf_asin">
<polygon fill="none" stroke="#000000" points="517.5,-190.5 517.5,-209.5 565.5,-209.5 565.5,-190.5 517.5,-190.5"/>
<text text-anchor="middle" x="541.5" y="-197.5" font-family="Helvetica,sans-Serif" font-size="10.00" fill="#000000">bf_asin</text>
</a>
</g>
</g>
<!-- Node13931&#45;&gt;Node13934 -->
<g id="edge4" class="edge">
<title>Node13931&#45;&gt;Node13934</title>
<path fill="none" stroke="#191970" d="M470.1971,-200C486.5457,-200 503.7774,-200 517.2049,-200"/>
<polygon fill="#191970" stroke="#191970" points="470.1738,-196.5001 460.1738,-200 470.1737,-203.5001 470.1738,-196.5001"/>
</g>
<!-- Node13933 -->
<g id="node4" class="node">
<title>Node13933</title>
<g id="a_node4"><a xlink:href="quickjs_8c.html#af8435aca7fa84b4be13710a0311d990b" target="_top" xlink:title="js_bigfloat_fop">
<polygon fill="none" stroke="#000000" points="637,-152.5 637,-171.5 717,-171.5 717,-152.5 637,-152.5"/>
<text text-anchor="middle" x="677" y="-159.5" font-family="Helvetica,sans-Serif" font-size="10.00" fill="#000000">js_bigfloat_fop</text>
</a>
</g>
</g>
<!-- Node13932&#45;&gt;Node13933 -->
<g id="edge3" class="edge">
<title>Node13932&#45;&gt;Node13933</title>
<path fill="none" stroke="#191970" d="M575.819,-224.4051C579.6345,-222.6769 583.429,-220.8594 587,-219 615.2156,-204.3081 646.144,-183.6277 663.4028,-171.6381"/>
<polygon fill="#191970" stroke="#191970" points="574.1867,-221.298 566.407,-228.4901 576.9737,-227.7193 574.1867,-221.298"/>
</g>
<!-- Node13934&#45;&gt;Node13933 -->
<g id="edge5" class="edge">
<title>Node13934&#45;&gt;Node13933</title>
<path fill="none" stroke="#191970" d="M575.3674,-190.5021C596.0383,-184.7051 622.3762,-177.3189 643.0603,-171.5181"/>
<polygon fill="#191970" stroke="#191970" points="574.4081,-187.136 565.7247,-193.2064 576.2983,-193.876 574.4081,-187.136"/>
</g>
<!-- Node13935&#45;&gt;Node13931 -->
<g id="edge7" class="edge">
<title>Node13935&#45;&gt;Node13931</title>
<path fill="none" stroke="#191970" d="M349.1416,-189.3102C357.7456,-190.6557 366.5565,-192.0335 374.8692,-193.3335"/>
<polygon fill="#191970" stroke="#191970" points="349.5992,-185.8393 339.1785,-187.7522 348.5176,-192.7553 349.5992,-185.8393"/>
</g>
<!-- Node13936 -->
<g id="node7" class="node">
<title>Node13936</title>
<g id="a_node7"><a xlink:href="libbf_8h.html#a0bb2c5b98e3f978b84df9849c7ec50d6" target="_top" xlink:title="bf_atan">
<polygon fill="none" stroke="#000000" points="393,-152.5 393,-171.5 442,-171.5 442,-152.5 393,-152.5"/>
<text text-anchor="middle" x="417.5" y="-159.5" font-family="Helvetica,sans-Serif" font-size="10.00" fill="#000000">bf_atan</text>
</a>
</g>
</g>
<!-- Node13935&#45;&gt;Node13936 -->
<g id="edge8" class="edge">
<title>Node13935&#45;&gt;Node13936</title>
<path fill="none" stroke="#191970" d="M349.0624,-172.7022C364.3097,-170.3178 380.2136,-167.8308 392.8486,-165.8549"/>
<polygon fill="#191970" stroke="#191970" points="348.5176,-169.2447 339.1785,-174.2478 349.5992,-176.1607 348.5176,-169.2447"/>
</g>
<!-- Node13936&#45;&gt;Node13933 -->
<g id="edge10" class="edge">
<title>Node13936&#45;&gt;Node13933</title>
<path fill="none" stroke="#191970" d="M452.1931,-151.7258C465.7315,-148.2131 481.4654,-144.7339 496,-143 536.1597,-138.2091 546.7742,-138.8002 587,-143 604.789,-144.8573 624.2392,-148.7261 640.4921,-152.491"/>
<polygon fill="#191970" stroke="#191970" points="451.0665,-148.4046 442.3245,-154.3903 452.8911,-155.1626 451.0665,-148.4046"/>
</g>
<!-- Node13937 -->
<g id="node8" class="node">
<title>Node13937</title>
<g id="a_node8"><a xlink:href="libbf_8c.html#af760cf2a93bf130e8e44a62c7e7d0adf" target="_top" xlink:title="bf_atan2_internal">
<polygon fill="none" stroke="#ff0000" points="496,-152.5 496,-171.5 587,-171.5 587,-152.5 496,-152.5"/>
<text text-anchor="middle" x="541.5" y="-159.5" font-family="Helvetica,sans-Serif" font-size="10.00" fill="#000000">bf_atan2_internal</text>
</a>
</g>
</g>
<!-- Node13936&#45;&gt;Node13937 -->
<g id="edge9" class="edge">
<title>Node13936&#45;&gt;Node13937</title>
<path fill="none" stroke="#191970" d="M452.5797,-162C466.0457,-162 481.6142,-162 495.9246,-162"/>
<polygon fill="#191970" stroke="#191970" points="452.2953,-158.5001 442.2952,-162 452.2952,-165.5001 452.2953,-158.5001"/>
</g>
<!-- Node13941 -->
<g id="node10" class="node">
<title>Node13941</title>
<g id="a_node10"><a xlink:href="libbf_8h.html#a36f22f93ba4258209be035a63b80b87f" target="_top" xlink:title="bf_exp">
<polygon fill="none" stroke="#000000" points="273,-285.5 273,-304.5 319,-304.5 319,-285.5 273,-285.5"/>
<text text-anchor="middle" x="296" y="-292.5" font-family="Helvetica,sans-Serif" font-size="10.00" fill="#000000">bf_exp</text>
</a>
</g>
</g>
<!-- Node13940&#45;&gt;Node13941 -->
<g id="edge12" class="edge">
<title>Node13940&#45;&gt;Node13941</title>
<path fill="none" stroke="#191970" d="M214.0784,-295C234.356,-295 256.6058,-295 272.7937,-295"/>
<polygon fill="#191970" stroke="#191970" points="214.0085,-291.5001 204.0084,-295 214.0084,-298.5001 214.0085,-291.5001"/>
</g>
<!-- Node13941&#45;&gt;Node13933 -->
<g id="edge16" class="edge">
<title>Node13941&#45;&gt;Node13933</title>
<path fill="none" stroke="#191970" d="M328.9579,-304.7648C343.0094,-308.4466 359.6697,-312.1824 375,-314 470.0581,-325.2703 507.8135,-329.7825 587,-276 628.9281,-247.523 660.4983,-193.4862 672.1283,-171.5817"/>
<polygon fill="#191970" stroke="#191970" points="329.8116,-301.3699 319.2435,-302.1216 327.9738,-308.1244 329.8116,-301.3699"/>
</g>
<!-- Node13942 -->
<g id="node11" class="node">
<title>Node13942</title>
<g id="a_node11"><a xlink:href="libbf_8c.html#aa28c1603087e2aec25b9bb0dae387875" target="_top" xlink:title="bf_pow_generic">
<polygon fill="none" stroke="#000000" points="375,-285.5 375,-304.5 460,-304.5 460,-285.5 375,-285.5"/>
<text text-anchor="middle" x="417.5" y="-292.5" font-family="Helvetica,sans-Serif" font-size="10.00" fill="#000000">bf_pow_generic</text>
</a>
</g>
</g>
<!-- Node13941&#45;&gt;Node13942 -->
<g id="edge13" class="edge">
<title>Node13941&#45;&gt;Node13942</title>
<path fill="none" stroke="#191970" d="M329.3217,-295C343.3554,-295 359.8608,-295 374.7731,-295"/>
<polygon fill="#191970" stroke="#191970" points="329.1392,-291.5001 319.1392,-295 329.1392,-298.5001 329.1392,-291.5001"/>
</g>
<!-- Node13942&#45;&gt;Node13943 -->
<g id="edge14" class="edge">
<title>Node13942&#45;&gt;Node13943</title>
<path fill="none" stroke="#191970" d="M441.7376,-309.8553C466.6651,-325.1335 504.7473,-348.4742 525.9228,-361.4527"/>
<polygon fill="#191970" stroke="#191970" points="443.5597,-306.867 433.2047,-304.6255 439.9017,-312.8352 443.5597,-306.867"/>
</g>
<!-- Node13943&#45;&gt;Node13946 -->
<g id="edge15" class="edge">
<title>Node13943&#45;&gt;Node13946</title>
<path fill="none" stroke="#191970" d="M575.6287,-375.7856C589.9559,-377.7945 606.9702,-380.1803 622.9281,-382.418"/>
<polygon fill="#191970" stroke="#191970" points="576.1139,-372.3194 565.7247,-374.3968 575.1418,-379.2516 576.1139,-372.3194"/>
</g>
<!-- Node13950 -->
<g id="node15" class="node">
<title>Node13950</title>
<g id="a_node15"><a xlink:href="libbf_8h.html#a4137b2308536cbc92addaeb3f0c79d35" target="_top" xlink:title="bf_log">
<polygon fill="none" stroke="#000000" points="274.5,-247.5 274.5,-266.5 317.5,-266.5 317.5,-247.5 274.5,-247.5"/>
<text text-anchor="middle" x="296" y="-254.5" font-family="Helvetica,sans-Serif" font-size="10.00" fill="#000000">bf_log</text>
</a>
</g>
</g>
<!-- Node13949&#45;&gt;Node13950 -->
<g id="edge18" class="edge">
<title>Node13949&#45;&gt;Node13950</title>
<path fill="none" stroke="#191970" d="M212.7419,-257C233.9664,-257 257.5667,-257 274.2049,-257"/>
<polygon fill="#191970" stroke="#191970" points="212.5544,-253.5001 202.5544,-257 212.5544,-260.5001 212.5544,-253.5001"/>
</g>
<!-- Node13950&#45;&gt;Node13933 -->
<g id="edge20" class="edge">
<title>Node13950&#45;&gt;Node13933</title>
<path fill="none" stroke="#191970" d="M327.93,-260.1304C393.5581,-266.06 541.2792,-276.666 587,-257 628.3234,-239.2255 659.5632,-192.1164 671.5975,-171.6825"/>
<polygon fill="#191970" stroke="#191970" points="328.0444,-256.6261 317.7644,-259.1896 327.3993,-263.5963 328.0444,-256.6261"/>
</g>
<!-- Node13950&#45;&gt;Node13942 -->
<g id="edge19" class="edge">
<title>Node13950&#45;&gt;Node13942</title>
<path fill="none" stroke="#191970" d="M327.3481,-266.8043C345.6533,-272.5294 368.6519,-279.7224 386.838,-285.4102"/>
<polygon fill="#191970" stroke="#191970" points="328.3106,-263.4383 317.7218,-263.7936 326.2211,-270.1191 328.3106,-263.4383"/>
</g>
<!-- Node13952 -->
<g id="node17" class="node">
<title>Node13952</title>
<g id="a_node17"><a xlink:href="libbf_8c.html#a525aef36dca12b641b625b99bb853dc4" target="_top" xlink:title="bf_cos_internal">
<polygon fill="none" stroke="#000000" points="376,-38.5 376,-57.5 459,-57.5 459,-38.5 376,-38.5"/>
<text text-anchor="middle" x="417.5" y="-45.5" font-family="Helvetica,sans-Serif" font-size="10.00" fill="#000000">bf_cos_internal</text>
</a>
</g>
</g>
<!-- Node13951&#45;&gt;Node13952 -->
<g id="edge23" class="edge">
<title>Node13951&#45;&gt;Node13952</title>
<path fill="none" stroke="#191970" d="M335.7003,-73.5834C352.3073,-68.3895 371.3089,-62.4466 386.8159,-57.5967"/>
<polygon fill="#191970" stroke="#191970" points="334.2216,-70.3787 325.7222,-76.7042 336.3111,-77.0595 334.2216,-70.3787"/>
</g>
<!-- Node13954 -->
<g id="node19" class="node">
<title>Node13954</title>
<g id="a_node19"><a xlink:href="libbf_8c.html#a988e995c3b0dbcc6a26b8eea2891b2e2" target="_top" xlink:title="bf_sin_internal">
<polygon fill="none" stroke="#000000" points="377.5,-.5 377.5,-19.5 457.5,-19.5 457.5,-.5 377.5,-.5"/>
<text text-anchor="middle" x="417.5" y="-7.5" font-family="Helvetica,sans-Serif" font-size="10.00" fill="#000000">bf_sin_internal</text>
</a>
</g>
</g>
<!-- Node13951&#45;&gt;Node13954 -->
<g id="edge26" class="edge">
<title>Node13951&#45;&gt;Node13954</title>
<path fill="none" stroke="#191970" d="M315.6525,-70.0808C331.1902,-57.9321 353.7331,-41.2534 375,-29 380.8825,-25.6107 387.4804,-22.3999 393.6909,-19.6155"/>
<polygon fill="#191970" stroke="#191970" points="313.4584,-67.3538 307.7938,-76.3072 317.8054,-72.8405 313.4584,-67.3538"/>
</g>
<!-- Node13956 -->
<g id="node21" class="node">
<title>Node13956</title>
<g id="a_node21"><a xlink:href="libbf_8c.html#a524a1cfe269d6d10ba833368695f8699" target="_top" xlink:title="bf_tan_internal">
<polygon fill="none" stroke="#000000" points="377.5,-76.5 377.5,-95.5 457.5,-95.5 457.5,-76.5 377.5,-76.5"/>
<text text-anchor="middle" x="417.5" y="-83.5" font-family="Helvetica,sans-Serif" font-size="10.00" fill="#000000">bf_tan_internal</text>
</a>
</g>
</g>
<!-- Node13951&#45;&gt;Node13956 -->
<g id="edge29" class="edge">
<title>Node13951&#45;&gt;Node13956</title>
<path fill="none" stroke="#191970" d="M335.9355,-86C349.1396,-86 363.8361,-86 377.0766,-86"/>
<polygon fill="#191970" stroke="#191970" points="335.7223,-82.5001 325.7222,-86 335.7222,-89.5001 335.7223,-82.5001"/>
</g>
<!-- Node13953 -->
<g id="node18" class="node">
<title>Node13953</title>
<g id="a_node18"><a xlink:href="libbf_8h.html#a69ea68a6b21d496bd89afeaa9c067ebe" target="_top" xlink:title="bf_cos">
<polygon fill="none" stroke="#000000" points="518.5,-38.5 518.5,-57.5 564.5,-57.5 564.5,-38.5 518.5,-38.5"/>
<text text-anchor="middle" x="541.5" y="-45.5" font-family="Helvetica,sans-Serif" font-size="10.00" fill="#000000">bf_cos</text>
</a>
</g>
</g>
<!-- Node13952&#45;&gt;Node13953 -->
<g id="edge24" class="edge">
<title>Node13952&#45;&gt;Node13953</title>
<path fill="none" stroke="#191970" d="M469.5195,-48C486.4855,-48 504.4755,-48 518.2266,-48"/>
<polygon fill="#191970" stroke="#191970" points="469.1352,-44.5001 459.1352,-48 469.1351,-51.5001 469.1352,-44.5001"/>
</g>
<!-- Node13953&#45;&gt;Node13933 -->
<g id="edge25" class="edge">
<title>Node13953&#45;&gt;Node13933</title>
<path fill="none" stroke="#191970" d="M573.957,-59.5701C578.5005,-61.7497 582.9839,-64.2288 587,-67 623.2771,-92.0319 656.2569,-133.6814 670.1037,-152.3871"/>
<polygon fill="#191970" stroke="#191970" points="575.2421,-56.3121 564.677,-55.5188 572.4414,-62.7275 575.2421,-56.3121"/>
</g>
<!-- Node13955 -->
<g id="node20" class="node">
<title>Node13955</title>
<g id="a_node20"><a xlink:href="libbf_8h.html#a9a518cd74072443dc50e179d2a9ea610" target="_top" xlink:title="bf_sin">
<polygon fill="none" stroke="#000000" points="520,-.5 520,-19.5 563,-19.5 563,-.5 520,-.5"/>
<text text-anchor="middle" x="541.5" y="-7.5" font-family="Helvetica,sans-Serif" font-size="10.00" fill="#000000">bf_sin</text>
</a>
</g>
</g>
<!-- Node13954&#45;&gt;Node13955 -->
<g id="edge27" class="edge">
<title>Node13954&#45;&gt;Node13955</title>
<path fill="none" stroke="#191970" d="M467.9193,-10C486.0174,-10 505.4806,-10 519.841,-10"/>
<polygon fill="#191970" stroke="#191970" points="467.7593,-6.5001 457.7592,-10 467.7592,-13.5001 467.7593,-6.5001"/>
</g>
<!-- Node13955&#45;&gt;Node13933 -->
<g id="edge28" class="edge">
<title>Node13955&#45;&gt;Node13933</title>
<path fill="none" stroke="#191970" d="M572.8835,-20.2482C577.8928,-22.6657 582.8012,-25.5646 587,-29 631.0192,-65.0156 662.0337,-128.0877 672.8171,-152.2247"/>
<polygon fill="#191970" stroke="#191970" points="573.8589,-16.8602 563.2861,-16.1782 571.1259,-23.3047 573.8589,-16.8602"/>
</g>
<!-- Node13957 -->
<g id="node22" class="node">
<title>Node13957</title>
<g id="a_node22"><a xlink:href="libbf_8h.html#a3291f57ed40cdf116203afa57f73e91e" target="_top" xlink:title="bf_tan">
<polygon fill="none" stroke="#000000" points="519.5,-76.5 519.5,-95.5 563.5,-95.5 563.5,-76.5 519.5,-76.5"/>
<text text-anchor="middle" x="541.5" y="-83.5" font-family="Helvetica,sans-Serif" font-size="10.00" fill="#000000">bf_tan</text>
</a>
</g>
</g>
<!-- Node13956&#45;&gt;Node13957 -->
<g id="edge30" class="edge">
<title>Node13956&#45;&gt;Node13957</title>
<path fill="none" stroke="#191970" d="M467.8484,-86C485.819,-86 505.1443,-86 519.4887,-86"/>
<polygon fill="#191970" stroke="#191970" points="467.7593,-82.5001 457.7592,-86 467.7592,-89.5001 467.7593,-82.5001"/>
</g>
<!-- Node13957&#45;&gt;Node13933 -->
<g id="edge31" class="edge">
<title>Node13957&#45;&gt;Node13933</title>
<path fill="none" stroke="#191970" d="M569.1413,-100.362C575.0569,-103.4965 581.2541,-106.8262 587,-110 613.0635,-124.3963 642.9173,-141.8368 660.8483,-152.4167"/>
<polygon fill="#191970" stroke="#191970" points="570.6618,-97.2072 560.1824,-95.6476 567.402,-103.4018 570.6618,-97.2072"/>
</g>
<!-- Node13958&#45;&gt;Node13951 -->
<g id="edge33" class="edge">
<title>Node13958&#45;&gt;Node13951</title>
<path fill="none" stroke="#191970" d="M205.2431,-98.9167C225.1912,-96.0777 248.4395,-92.7689 266.4121,-90.211"/>
<polygon fill="#191970" stroke="#191970" points="204.5648,-95.4779 195.1578,-100.3521 205.5512,-102.4081 204.5648,-95.4779"/>
</g>
</g>
</svg>
