<?xml version="1.0" encoding="UTF-8" standalone="no"?>
<!DOCTYPE svg PUBLIC "-//W3C//DTD SVG 1.1//EN"
 "http://www.w3.org/Graphics/SVG/1.1/DTD/svg11.dtd">
<!-- Generated by graphviz version 2.40.1 (20161225.0304)
 -->
<!-- Title: bf_remainder Pages: 1 -->
<svg width="672pt" height="584pt"
 viewBox="0.00 0.00 672.00 583.75" xmlns="http://www.w3.org/2000/svg" xmlns:xlink="http://www.w3.org/1999/xlink">
<g id="graph0" class="graph" transform="scale(1 1) rotate(0) translate(4 579.7544)">
<title>bf_remainder</title>
<!-- Node14288 -->
<g id="node1" class="node">
<title>Node14288</title>
<polygon fill="#bfbfbf" stroke="#000000" points="0,-525.2934 0,-544.2934 73,-544.2934 73,-525.2934 0,-525.2934"/>
<text text-anchor="middle" x="36.5" y="-532.2934" font-family="Helvetica,sans-Serif" font-size="10.00" fill="#000000">bf_remainder</text>
</g>
<!-- Node14289 -->
<g id="node2" class="node">
<title>Node14289</title>
<g id="a_node2"><a xlink:href="libbf_8h.html#a2b9d906b21e903f2f7f1c9044674ab7d" target="_top" xlink:title="bf_delete">
<polygon fill="none" stroke="#000000" points="308,-525.2934 308,-544.2934 364,-544.2934 364,-525.2934 308,-525.2934"/>
<text text-anchor="middle" x="336" y="-532.2934" font-family="Helvetica,sans-Serif" font-size="10.00" fill="#000000">bf_delete</text>
</a>
</g>
</g>
<!-- Node14288&#45;&gt;Node14289 -->
<g id="edge1" class="edge">
<title>Node14288&#45;&gt;Node14289</title>
<path fill="none" stroke="#191970" d="M73.2246,-534.7934C130.2796,-534.7934 239.6678,-534.7934 297.6809,-534.7934"/>
<polygon fill="#191970" stroke="#191970" points="297.8911,-538.2935 307.8911,-534.7934 297.8911,-531.2935 297.8911,-538.2935"/>
</g>
<!-- Node14291 -->
<g id="node4" class="node">
<title>Node14291</title>
<g id="a_node4"><a xlink:href="libbf_8h.html#a951ec20cd7fa3bf021d165b213e15ce4" target="_top" xlink:title="bf_divrem">
<polygon fill="none" stroke="#000000" points="109,-278.2934 109,-297.2934 168,-297.2934 168,-278.2934 109,-278.2934"/>
<text text-anchor="middle" x="138.5" y="-285.2934" font-family="Helvetica,sans-Serif" font-size="10.00" fill="#000000">bf_divrem</text>
</a>
</g>
</g>
<!-- Node14288&#45;&gt;Node14291 -->
<g id="edge3" class="edge">
<title>Node14288&#45;&gt;Node14291</title>
<path fill="none" stroke="#191970" d="M40.4985,-525.1107C55.7,-488.2993 110.0731,-356.631 130.5888,-306.9509"/>
<polygon fill="#191970" stroke="#191970" points="133.9472,-307.988 134.5291,-297.4092 127.4771,-305.3161 133.9472,-307.988"/>
</g>
<!-- Node14318 -->
<g id="node8" class="node">
<title>Node14318</title>
<g id="a_node8"><a xlink:href="libbf_8h.html#abacc1410890af049e02ebd788364ac48" target="_top" xlink:title="bf_init">
<polygon fill="none" stroke="#000000" points="506,-430.2934 506,-449.2934 549,-449.2934 549,-430.2934 506,-430.2934"/>
<text text-anchor="middle" x="527.5" y="-437.2934" font-family="Helvetica,sans-Serif" font-size="10.00" fill="#000000">bf_init</text>
</a>
</g>
</g>
<!-- Node14288&#45;&gt;Node14318 -->
<g id="edge41" class="edge">
<title>Node14288&#45;&gt;Node14318</title>
<path fill="none" stroke="#191970" d="M67.5695,-544.3824C106.857,-555.6396 176.7692,-572.7934 238,-572.7934 238,-572.7934 238,-572.7934 336,-572.7934 391.315,-572.7934 413.0826,-584.6373 459,-553.7934 493.0289,-530.9353 512.8046,-484.9526 521.7301,-458.9135"/>
<polygon fill="#191970" stroke="#191970" points="525.0601,-459.991 524.8103,-449.3991 518.4004,-457.8349 525.0601,-459.991"/>
</g>
<!-- Node14290 -->
<g id="node3" class="node">
<title>Node14290</title>
<g id="a_node3"><a xlink:href="libbf_8h.html#a524c9e60866c08c75061626a4b5e2f29" target="_top" xlink:title="bf_realloc">
<polygon fill="none" stroke="#000000" points="400,-525.2934 400,-544.2934 459,-544.2934 459,-525.2934 400,-525.2934"/>
<text text-anchor="middle" x="429.5" y="-532.2934" font-family="Helvetica,sans-Serif" font-size="10.00" fill="#000000">bf_realloc</text>
</a>
</g>
</g>
<!-- Node14289&#45;&gt;Node14290 -->
<g id="edge2" class="edge">
<title>Node14289&#45;&gt;Node14290</title>
<path fill="none" stroke="#191970" d="M364.0531,-534.7934C372.0839,-534.7934 380.9961,-534.7934 389.5927,-534.7934"/>
<polygon fill="#191970" stroke="#191970" points="389.8418,-538.2935 399.8418,-534.7934 389.8417,-531.2935 389.8418,-538.2935"/>
</g>
<!-- Node14292 -->
<g id="node5" class="node">
<title>Node14292</title>
<g id="a_node5"><a xlink:href="libbf_8h.html#a50a5aa2767f2389a32daf115aaef07af" target="_top" xlink:title="bf_add_si">
<polygon fill="none" stroke="#000000" points="208.5,-411.2934 208.5,-430.2934 267.5,-430.2934 267.5,-411.2934 208.5,-411.2934"/>
<text text-anchor="middle" x="238" y="-418.2934" font-family="Helvetica,sans-Serif" font-size="10.00" fill="#000000">bf_add_si</text>
</a>
</g>
</g>
<!-- Node14291&#45;&gt;Node14292 -->
<g id="edge4" class="edge">
<title>Node14291&#45;&gt;Node14292</title>
<path fill="none" stroke="#191970" d="M145.6558,-297.3584C162.1411,-319.394 203.0174,-374.0327 224.4285,-402.6526"/>
<polygon fill="#191970" stroke="#191970" points="221.8477,-405.0456 230.6406,-410.9562 227.4527,-400.8523 221.8477,-405.0456"/>
</g>
<!-- Node14312 -->
<g id="node11" class="node">
<title>Node14312</title>
<g id="a_node11"><a xlink:href="libbf_8h.html#aa6282c789c16c8cf2fe6a8ebd671c6fc" target="_top" xlink:title="bf_set_nan">
<polygon fill="none" stroke="#ff0000" points="495,-240.2934 495,-259.2934 560,-259.2934 560,-240.2934 495,-240.2934"/>
<text text-anchor="middle" x="527.5" y="-247.2934" font-family="Helvetica,sans-Serif" font-size="10.00" fill="#000000">bf_set_nan</text>
</a>
</g>
</g>
<!-- Node14291&#45;&gt;Node14312 -->
<g id="edge21" class="edge">
<title>Node14291&#45;&gt;Node14312</title>
<path fill="none" stroke="#191970" d="M142.8253,-278.1876C158.739,-244.2879 217.8365,-130.5334 308,-97.7934 375.4258,-73.3099 406.1846,-106.2525 459,-154.7934 483.8308,-177.6145 505.2399,-210.7417 517.2381,-231.2412"/>
<polygon fill="#191970" stroke="#191970" points="514.349,-233.24 522.346,-240.1897 520.4283,-229.7699 514.349,-233.24"/>
</g>
<!-- Node14296 -->
<g id="node12" class="node">
<title>Node14296</title>
<g id="a_node12"><a xlink:href="libbf_8h.html#a165ae2c6d3fee618014b7c9ea4f944dc" target="_top" xlink:title="bf_cmpu">
<polygon fill="none" stroke="#ff0000" points="309,-145.2934 309,-164.2934 363,-164.2934 363,-145.2934 309,-145.2934"/>
<text text-anchor="middle" x="336" y="-152.2934" font-family="Helvetica,sans-Serif" font-size="10.00" fill="#000000">bf_cmpu</text>
</a>
</g>
</g>
<!-- Node14291&#45;&gt;Node14296 -->
<g id="edge13" class="edge">
<title>Node14291&#45;&gt;Node14296</title>
<path fill="none" stroke="#191970" d="M148.2088,-278.2709C160.5766,-266.4004 182.8866,-245.8429 204,-230.7934 237.9014,-206.6286 280.0289,-183.4419 307.4425,-169.1696"/>
<polygon fill="#191970" stroke="#191970" points="309.2035,-172.1996 316.4878,-164.5061 305.9957,-165.9778 309.2035,-172.1996"/>
</g>
<!-- Node14323 -->
<g id="node14" class="node">
<title>Node14323</title>
<g id="a_node14"><a xlink:href="libbf_8h.html#a3d010062b7a451656d79e48df9c0639e" target="_top" xlink:title="bf_is_nan">
<polygon fill="none" stroke="#000000" points="208.5,-487.2934 208.5,-506.2934 267.5,-506.2934 267.5,-487.2934 208.5,-487.2934"/>
<text text-anchor="middle" x="238" y="-494.2934" font-family="Helvetica,sans-Serif" font-size="10.00" fill="#000000">bf_is_nan</text>
</a>
</g>
</g>
<!-- Node14291&#45;&gt;Node14323 -->
<g id="edge15" class="edge">
<title>Node14291&#45;&gt;Node14323</title>
<path fill="none" stroke="#191970" d="M139.4337,-297.6742C142.7666,-327.9898 156.5408,-421.0564 204,-477.7934 204.9762,-478.9604 206.0434,-480.069 207.1781,-481.1205"/>
<polygon fill="#191970" stroke="#191970" points="205.2867,-484.076 215.3967,-487.2443 209.4691,-478.4628 205.2867,-484.076"/>
</g>
<!-- Node14324 -->
<g id="node15" class="node">
<title>Node14324</title>
<g id="a_node15"><a xlink:href="libbf_8h.html#abd4ca8358212228a53981a32a10286b5" target="_top" xlink:title="bf_round">
<polygon fill="none" stroke="#000000" points="402.5,-31.2934 402.5,-50.2934 456.5,-50.2934 456.5,-31.2934 402.5,-31.2934"/>
<text text-anchor="middle" x="429.5" y="-38.2934" font-family="Helvetica,sans-Serif" font-size="10.00" fill="#000000">bf_round</text>
</a>
</g>
</g>
<!-- Node14291&#45;&gt;Node14324 -->
<g id="edge16" class="edge">
<title>Node14291&#45;&gt;Node14324</title>
<path fill="none" stroke="#191970" d="M139.9188,-278.0305C145.8262,-238.798 169.7706,-93.3662 204,-64.7934 257.0482,-20.5117 343.354,-25.6684 392.3783,-33.2877"/>
<polygon fill="#191970" stroke="#191970" points="391.8087,-36.741 402.2483,-34.9341 392.9605,-29.8364 391.8087,-36.741"/>
</g>
<!-- Node14313 -->
<g id="node17" class="node">
<title>Node14313</title>
<g id="a_node17"><a xlink:href="libbf_8h.html#a66631c65c00e92a5840a5085a009602d" target="_top" xlink:title="bf_set_zero">
<polygon fill="none" stroke="#ff0000" points="596,-31.2934 596,-50.2934 664,-50.2934 664,-31.2934 596,-31.2934"/>
<text text-anchor="middle" x="630" y="-38.2934" font-family="Helvetica,sans-Serif" font-size="10.00" fill="#000000">bf_set_zero</text>
</a>
</g>
</g>
<!-- Node14291&#45;&gt;Node14313 -->
<g id="edge22" class="edge">
<title>Node14291&#45;&gt;Node14313</title>
<path fill="none" stroke="#191970" d="M139.5925,-278.0983C144.5887,-235.4959 166.6377,-65.4447 204,-29.7934 247.3229,11.5455 276.1186,-2.7934 336,-2.7934 336,-2.7934 336,-2.7934 429.5,-2.7934 485.6766,-2.7934 549.1827,-17.3716 589.3872,-28.469"/>
<polygon fill="#191970" stroke="#191970" points="588.5134,-31.859 599.088,-31.2044 590.4132,-25.1218 588.5134,-31.859"/>
</g>
<!-- Node14314 -->
<g id="node18" class="node">
<title>Node14314</title>
<g id="a_node18"><a xlink:href="libbf_8h.html#ae019ee8073f4359da157d3b1e5fdba7e" target="_top" xlink:title="bf_set">
<polygon fill="none" stroke="#ff0000" points="314,-259.2934 314,-278.2934 358,-278.2934 358,-259.2934 314,-259.2934"/>
<text text-anchor="middle" x="336" y="-266.2934" font-family="Helvetica,sans-Serif" font-size="10.00" fill="#000000">bf_set</text>
</a>
</g>
</g>
<!-- Node14291&#45;&gt;Node14314 -->
<g id="edge19" class="edge">
<title>Node14291&#45;&gt;Node14314</title>
<path fill="none" stroke="#191970" d="M168.0677,-284.9489C204.4039,-281.4533 265.8543,-275.5416 303.4885,-271.9211"/>
<polygon fill="#191970" stroke="#191970" points="304.2712,-275.362 313.8901,-270.9204 303.6008,-268.3942 304.2712,-275.362"/>
</g>
<!-- Node14325 -->
<g id="node19" class="node">
<title>Node14325</title>
<g id="a_node19"><a xlink:href="libbf_8h.html#abf69a9bc02b7c299bb75d172fa102d84" target="_top" xlink:title="bf_sub">
<polygon fill="none" stroke="#000000" points="313,-373.2934 313,-392.2934 359,-392.2934 359,-373.2934 313,-373.2934"/>
<text text-anchor="middle" x="336" y="-380.2934" font-family="Helvetica,sans-Serif" font-size="10.00" fill="#000000">bf_sub</text>
</a>
</g>
</g>
<!-- Node14291&#45;&gt;Node14325 -->
<g id="edge23" class="edge">
<title>Node14291&#45;&gt;Node14325</title>
<path fill="none" stroke="#191970" d="M158.5242,-297.4253C193.6594,-314.3258 266.5258,-349.3754 307.1133,-368.8985"/>
<polygon fill="#191970" stroke="#191970" points="305.6876,-372.0965 316.2164,-373.2772 308.7219,-365.7884 305.6876,-372.0965"/>
</g>
<!-- Node14327 -->
<g id="node21" class="node">
<title>Node14327</title>
<g id="a_node21"><a xlink:href="libbf_8c.html#a4f1865c8160fb851cce8015c3edb4d4f" target="_top" xlink:title="bf_tdivremu">
<polygon fill="none" stroke="#000000" points="204,-240.2934 204,-259.2934 272,-259.2934 272,-240.2934 204,-240.2934"/>
<text text-anchor="middle" x="238" y="-247.2934" font-family="Helvetica,sans-Serif" font-size="10.00" fill="#000000">bf_tdivremu</text>
</a>
</g>
</g>
<!-- Node14291&#45;&gt;Node14327 -->
<g id="edge26" class="edge">
<title>Node14291&#45;&gt;Node14327</title>
<path fill="none" stroke="#191970" d="M163.6081,-278.2044C175.6277,-273.614 190.2147,-268.0431 203.2765,-263.0546"/>
<polygon fill="#191970" stroke="#191970" points="204.8068,-266.2168 212.9,-259.3793 202.3093,-259.6775 204.8068,-266.2168"/>
</g>
<!-- Node14307 -->
<g id="node25" class="node">
<title>Node14307</title>
<g id="a_node25"><a xlink:href="libbf_8c.html#a7e1a60c84d638cde1ac9aabd01d266e1" target="_top" xlink:title="get_bit">
<polygon fill="none" stroke="#000000" points="215,-449.2934 215,-468.2934 261,-468.2934 261,-449.2934 215,-449.2934"/>
<text text-anchor="middle" x="238" y="-456.2934" font-family="Helvetica,sans-Serif" font-size="10.00" fill="#000000">get_bit</text>
</a>
</g>
</g>
<!-- Node14291&#45;&gt;Node14307 -->
<g id="edge40" class="edge">
<title>Node14291&#45;&gt;Node14307</title>
<path fill="none" stroke="#191970" d="M140.4011,-297.5139C145.9215,-323.506 164.1553,-395.6303 204,-439.7934 205.1522,-441.0705 206.4112,-442.2814 207.7442,-443.4266"/>
<polygon fill="#191970" stroke="#191970" points="205.7852,-446.3282 215.9629,-449.2717 209.8422,-440.6237 205.7852,-446.3282"/>
</g>
<!-- Node14292&#45;&gt;Node14289 -->
<g id="edge8" class="edge">
<title>Node14292&#45;&gt;Node14289</title>
<path fill="none" stroke="#191970" d="M259.8638,-430.4764C264.2306,-433.0745 268.5338,-436.1845 272,-439.7934 296.508,-465.3102 286.1484,-482.9679 308,-510.7934 310.0958,-513.4621 312.5239,-516.0545 315.057,-518.4878"/>
<polygon fill="#191970" stroke="#191970" points="312.9169,-521.2663 322.7434,-525.2276 317.5319,-516.003 312.9169,-521.2663"/>
</g>
<!-- Node14293 -->
<g id="node6" class="node">
<title>Node14293</title>
<g id="a_node6"><a xlink:href="libbf_8h.html#a17dc09166f82ffa408f54a2edc4d7855" target="_top" xlink:title="bf_add">
<polygon fill="none" stroke="#ff0000" points="313,-449.2934 313,-468.2934 359,-468.2934 359,-449.2934 313,-449.2934"/>
<text text-anchor="middle" x="336" y="-456.2934" font-family="Helvetica,sans-Serif" font-size="10.00" fill="#000000">bf_add</text>
</a>
</g>
</g>
<!-- Node14292&#45;&gt;Node14293 -->
<g id="edge5" class="edge">
<title>Node14292&#45;&gt;Node14293</title>
<path fill="none" stroke="#191970" d="M262.7295,-430.3824C275.0198,-435.148 290.0354,-440.9704 303.2663,-446.1007"/>
<polygon fill="#191970" stroke="#191970" points="302.3724,-449.508 312.9614,-449.8601 304.9032,-442.9815 302.3724,-449.508"/>
</g>
<!-- Node14292&#45;&gt;Node14318 -->
<g id="edge9" class="edge">
<title>Node14292&#45;&gt;Node14318</title>
<path fill="none" stroke="#191970" d="M257.7035,-430.4763C262.5617,-433.2167 267.6231,-436.3894 272,-439.7934 290.3644,-454.0757 286.6287,-468.6009 308,-477.7934 373.2607,-505.8641 457.8805,-474.0858 500.4766,-453.8943"/>
<polygon fill="#191970" stroke="#191970" points="502.187,-456.9541 509.6366,-449.4206 499.115,-450.6642 502.187,-456.9541"/>
</g>
<!-- Node14321 -->
<g id="node9" class="node">
<title>Node14321</title>
<g id="a_node9"><a xlink:href="libbf_8h.html#a60ee3eaad83309aaf8a8b8fb81d8b44d" target="_top" xlink:title="bf_set_si">
<polygon fill="none" stroke="#000000" points="308,-411.2934 308,-430.2934 364,-430.2934 364,-411.2934 308,-411.2934"/>
<text text-anchor="middle" x="336" y="-418.2934" font-family="Helvetica,sans-Serif" font-size="10.00" fill="#000000">bf_set_si</text>
</a>
</g>
</g>
<!-- Node14292&#45;&gt;Node14321 -->
<g id="edge10" class="edge">
<title>Node14292&#45;&gt;Node14321</title>
<path fill="none" stroke="#191970" d="M267.6692,-420.7934C277.1186,-420.7934 287.7103,-420.7934 297.6817,-420.7934"/>
<polygon fill="#191970" stroke="#191970" points="297.7746,-424.2935 307.7745,-420.7934 297.7745,-417.2935 297.7746,-424.2935"/>
</g>
<!-- Node14317 -->
<g id="node7" class="node">
<title>Node14317</title>
<g id="a_node7"><a xlink:href="libbf_8c.html#a3ebbc1c7473b2ad84ced2b263bf38bae" target="_top" xlink:title="bf_op2">
<polygon fill="none" stroke="#ff0000" points="406.5,-373.2934 406.5,-392.2934 452.5,-392.2934 452.5,-373.2934 406.5,-373.2934"/>
<text text-anchor="middle" x="429.5" y="-380.2934" font-family="Helvetica,sans-Serif" font-size="10.00" fill="#000000">bf_op2</text>
</a>
</g>
</g>
<!-- Node14293&#45;&gt;Node14317 -->
<g id="edge6" class="edge">
<title>Node14293&#45;&gt;Node14317</title>
<path fill="none" stroke="#191970" d="M351.5499,-449.1132C355.7267,-446.2824 360.1499,-443.0647 364,-439.7934 381.7289,-424.7295 382.0916,-416.6434 400,-401.7934 401.5123,-400.5394 403.1118,-399.2997 404.7524,-398.0908"/>
<polygon fill="#191970" stroke="#191970" points="406.8174,-400.9187 413.086,-392.3773 402.8591,-395.1453 406.8174,-400.9187"/>
</g>
<!-- Node14317&#45;&gt;Node14318 -->
<g id="edge7" class="edge">
<title>Node14317&#45;&gt;Node14318</title>
<path fill="none" stroke="#191970" d="M446.1244,-392.4627C461.5634,-401.4425 484.7641,-414.9368 502.4473,-425.2219"/>
<polygon fill="#191970" stroke="#191970" points="500.7172,-428.2646 511.1212,-430.2669 504.2367,-422.2137 500.7172,-428.2646"/>
</g>
<!-- Node14322 -->
<g id="node10" class="node">
<title>Node14322</title>
<g id="a_node10"><a xlink:href="libbf_8h.html#a2378f025beace5741c19bf995c2971d3" target="_top" xlink:title="bf_set_ui">
<polygon fill="none" stroke="#ff0000" points="401.5,-297.2934 401.5,-316.2934 457.5,-316.2934 457.5,-297.2934 401.5,-297.2934"/>
<text text-anchor="middle" x="429.5" y="-304.2934" font-family="Helvetica,sans-Serif" font-size="10.00" fill="#000000">bf_set_ui</text>
</a>
</g>
</g>
<!-- Node14321&#45;&gt;Node14322 -->
<g id="edge11" class="edge">
<title>Node14321&#45;&gt;Node14322</title>
<path fill="none" stroke="#191970" d="M352.4836,-411.096C356.4796,-408.356 360.5811,-405.187 364,-401.7934 387.46,-378.507 407.8886,-345.7733 419.4478,-325.4441"/>
<polygon fill="#191970" stroke="#191970" points="422.5883,-326.998 424.3842,-316.5565 416.4688,-323.5991 422.5883,-326.998"/>
</g>
<!-- Node14322&#45;&gt;Node14312 -->
<g id="edge12" class="edge">
<title>Node14322&#45;&gt;Node14312</title>
<path fill="none" stroke="#191970" d="M446.1244,-297.1241C461.5634,-288.1443 484.7641,-274.65 502.4473,-264.3649"/>
<polygon fill="#191970" stroke="#191970" points="504.2367,-267.3731 511.1212,-259.3199 500.7172,-261.3222 504.2367,-267.3731"/>
</g>
<!-- Node14297 -->
<g id="node13" class="node">
<title>Node14297</title>
<g id="a_node13"><a xlink:href="libbf_8h.html#a4954f3435332238433d15977d55ae566" target="_top" xlink:title="bf_max">
<polygon fill="none" stroke="#000000" points="405,-164.2934 405,-183.2934 454,-183.2934 454,-164.2934 405,-164.2934"/>
<text text-anchor="middle" x="429.5" y="-171.2934" font-family="Helvetica,sans-Serif" font-size="10.00" fill="#000000">bf_max</text>
</a>
</g>
</g>
<!-- Node14296&#45;&gt;Node14297 -->
<g id="edge14" class="edge">
<title>Node14296&#45;&gt;Node14297</title>
<path fill="none" stroke="#191970" d="M363.0441,-160.289C372.914,-162.2946 384.2182,-164.5917 394.6706,-166.7158"/>
<polygon fill="#191970" stroke="#191970" points="394.2576,-170.2033 404.7543,-168.7649 395.6516,-163.3435 394.2576,-170.2033"/>
</g>
<!-- Node14304 -->
<g id="node16" class="node">
<title>Node14304</title>
<g id="a_node16"><a xlink:href="libbf_8c.html#a06fc3e6aa8ac367eef1039c9d97fc1f8" target="_top" xlink:title="__bf_round">
<polygon fill="none" stroke="#ff0000" points="495,-31.2934 495,-50.2934 560,-50.2934 560,-31.2934 495,-31.2934"/>
<text text-anchor="middle" x="527.5" y="-38.2934" font-family="Helvetica,sans-Serif" font-size="10.00" fill="#000000">__bf_round</text>
</a>
</g>
</g>
<!-- Node14324&#45;&gt;Node14304 -->
<g id="edge17" class="edge">
<title>Node14324&#45;&gt;Node14304</title>
<path fill="none" stroke="#191970" d="M456.5384,-40.7934C465.2756,-40.7934 475.1875,-40.7934 484.7737,-40.7934"/>
<polygon fill="#191970" stroke="#191970" points="484.977,-44.2935 494.977,-40.7934 484.9769,-37.2935 484.977,-44.2935"/>
</g>
<!-- Node14304&#45;&gt;Node14313 -->
<g id="edge18" class="edge">
<title>Node14304&#45;&gt;Node14313</title>
<path fill="none" stroke="#191970" d="M560.2135,-40.7934C568.2941,-40.7934 577.0853,-40.7934 585.6178,-40.7934"/>
<polygon fill="#191970" stroke="#191970" points="585.8323,-44.2935 595.8323,-40.7934 585.8322,-37.2935 585.8323,-44.2935"/>
</g>
<!-- Node14314&#45;&gt;Node14312 -->
<g id="edge20" class="edge">
<title>Node14314&#45;&gt;Node14312</title>
<path fill="none" stroke="#191970" d="M358.3423,-266.5767C389.2266,-263.5124 445.5757,-257.9217 484.7081,-254.0391"/>
<polygon fill="#191970" stroke="#191970" points="485.1504,-257.5125 494.756,-253.0422 484.4592,-250.5467 485.1504,-257.5125"/>
</g>
<!-- Node14325&#45;&gt;Node14317 -->
<g id="edge25" class="edge">
<title>Node14325&#45;&gt;Node14317</title>
<path fill="none" stroke="#191970" d="M359.1124,-382.7934C370.2381,-382.7934 383.7877,-382.7934 396.0167,-382.7934"/>
<polygon fill="#191970" stroke="#191970" points="396.3295,-386.2935 406.3295,-382.7934 396.3294,-379.2935 396.3295,-386.2935"/>
</g>
<!-- Node14326 -->
<g id="node20" class="node">
<title>Node14326</title>
<g id="a_node20"><a xlink:href="libbf_8c.html#aa3b3bc85aee9c531439d5fbc92986dfe" target="_top" xlink:title="__bf_sub">
<polygon fill="none" stroke="#ff0000" points="401.5,-411.2934 401.5,-430.2934 457.5,-430.2934 457.5,-411.2934 401.5,-411.2934"/>
<text text-anchor="middle" x="429.5" y="-418.2934" font-family="Helvetica,sans-Serif" font-size="10.00" fill="#000000">__bf_sub</text>
</a>
</g>
</g>
<!-- Node14325&#45;&gt;Node14326 -->
<g id="edge24" class="edge">
<title>Node14325&#45;&gt;Node14326</title>
<path fill="none" stroke="#191970" d="M359.1124,-392.1867C370.3775,-396.765 384.1276,-402.3533 396.4759,-407.3718"/>
<polygon fill="#191970" stroke="#191970" points="395.4221,-410.7215 406.0041,-411.2443 398.0577,-404.2366 395.4221,-410.7215"/>
</g>
<!-- Node14327&#45;&gt;Node14322 -->
<g id="edge38" class="edge">
<title>Node14327&#45;&gt;Node14322</title>
<path fill="none" stroke="#191970" d="M252.0825,-259.3253C265.7664,-268.1199 287.4351,-280.8359 308,-287.7934 334.954,-296.9125 366.7741,-301.6863 391.0878,-304.1676"/>
<polygon fill="#191970" stroke="#191970" points="391.0666,-307.6807 401.3486,-305.1252 391.7172,-300.711 391.0666,-307.6807"/>
</g>
<!-- Node14327&#45;&gt;Node14296 -->
<g id="edge27" class="edge">
<title>Node14327&#45;&gt;Node14296</title>
<path fill="none" stroke="#191970" d="M247.2598,-239.8889C260.427,-225.925 285.4673,-199.8083 308,-178.7934 310.7859,-176.1952 313.7893,-173.5082 316.7587,-170.9142"/>
<polygon fill="#191970" stroke="#191970" points="319.0544,-173.5562 324.3664,-164.3892 314.4972,-168.2428 319.0544,-173.5562"/>
</g>
<!-- Node14327&#45;&gt;Node14297 -->
<g id="edge30" class="edge">
<title>Node14327&#45;&gt;Node14297</title>
<path fill="none" stroke="#191970" d="M262.2536,-240.1679C296.0678,-226.7482 357.5209,-202.3595 395.7789,-187.1762"/>
<polygon fill="#191970" stroke="#191970" points="397.4396,-190.2827 405.4433,-183.3407 394.8574,-183.7764 397.4396,-190.2827"/>
</g>
<!-- Node14327&#45;&gt;Node14314 -->
<g id="edge37" class="edge">
<title>Node14327&#45;&gt;Node14314</title>
<path fill="none" stroke="#191970" d="M272.0006,-256.3854C282.2581,-258.3741 293.4862,-260.5509 303.6342,-262.5184"/>
<polygon fill="#191970" stroke="#191970" points="303.2492,-266.0089 313.7326,-264.4763 304.5816,-259.1368 303.2492,-266.0089"/>
</g>
<!-- Node14327&#45;&gt;Node14325 -->
<g id="edge39" class="edge">
<title>Node14327&#45;&gt;Node14325</title>
<path fill="none" stroke="#191970" d="M242.2592,-259.5769C251.7307,-280.5323 276.2319,-330.5451 308,-363.7934 309.04,-364.8818 310.1523,-365.9427 311.312,-366.9707"/>
<polygon fill="#191970" stroke="#191970" points="309.339,-369.8694 319.3902,-373.2198 313.6222,-364.3327 309.339,-369.8694"/>
</g>
<!-- Node14328 -->
<g id="node22" class="node">
<title>Node14328</title>
<g id="a_node22"><a xlink:href="libbf_8h.html#a030665e68e114717678fb0d0453bb3c6" target="_top" xlink:title="bf_div">
<polygon fill="none" stroke="#ff0000" points="314.5,-335.2934 314.5,-354.2934 357.5,-354.2934 357.5,-335.2934 314.5,-335.2934"/>
<text text-anchor="middle" x="336" y="-342.2934" font-family="Helvetica,sans-Serif" font-size="10.00" fill="#000000">bf_div</text>
</a>
</g>
</g>
<!-- Node14327&#45;&gt;Node14328 -->
<g id="edge28" class="edge">
<title>Node14327&#45;&gt;Node14328</title>
<path fill="none" stroke="#191970" d="M247.2598,-259.6979C260.427,-273.6618 285.4673,-299.7785 308,-320.7934 310.7859,-323.3916 313.7893,-326.0786 316.7587,-328.6726"/>
<polygon fill="#191970" stroke="#191970" points="314.4972,-331.344 324.3664,-335.1976 319.0544,-326.0306 314.4972,-331.344"/>
</g>
<!-- Node14372 -->
<g id="node23" class="node">
<title>Node14372</title>
<g id="a_node23"><a xlink:href="libbf_8h.html#ac290278d0c37a0e7786873f98aadba47" target="_top" xlink:title="bf_mul">
<polygon fill="none" stroke="#ff0000" points="406.5,-221.2934 406.5,-240.2934 452.5,-240.2934 452.5,-221.2934 406.5,-221.2934"/>
<text text-anchor="middle" x="429.5" y="-228.2934" font-family="Helvetica,sans-Serif" font-size="10.00" fill="#000000">bf_mul</text>
</a>
</g>
</g>
<!-- Node14327&#45;&gt;Node14372 -->
<g id="edge31" class="edge">
<title>Node14327&#45;&gt;Node14372</title>
<path fill="none" stroke="#191970" d="M272.2364,-246.3966C307.3351,-242.9142 361.5577,-237.5344 396.2812,-234.0893"/>
<polygon fill="#191970" stroke="#191970" points="396.7832,-237.5567 406.3887,-233.0864 396.092,-230.5909 396.7832,-237.5567"/>
</g>
<!-- Node14373 -->
<g id="node24" class="node">
<title>Node14373</title>
<g id="a_node24"><a xlink:href="libbf_8h.html#aaf7d6961c71cf6614ec51fd78755a031" target="_top" xlink:title="bf_rint">
<polygon fill="none" stroke="#000000" points="314,-107.2934 314,-126.2934 358,-126.2934 358,-107.2934 314,-107.2934"/>
<text text-anchor="middle" x="336" y="-114.2934" font-family="Helvetica,sans-Serif" font-size="10.00" fill="#000000">bf_rint</text>
</a>
</g>
</g>
<!-- Node14327&#45;&gt;Node14373 -->
<g id="edge35" class="edge">
<title>Node14327&#45;&gt;Node14373</title>
<path fill="none" stroke="#191970" d="M242.2592,-240.0099C251.7307,-219.0545 276.2319,-169.0417 308,-135.7934 309.04,-134.705 310.1523,-133.6441 311.312,-132.6161"/>
<polygon fill="#191970" stroke="#191970" points="313.6222,-135.2541 319.3902,-126.367 309.339,-129.7174 313.6222,-135.2541"/>
</g>
<!-- Node14328&#45;&gt;Node14317 -->
<g id="edge29" class="edge">
<title>Node14328&#45;&gt;Node14317</title>
<path fill="none" stroke="#191970" d="M357.6858,-353.6069C369.2928,-358.3242 383.8264,-364.2309 396.7772,-369.4943"/>
<polygon fill="#191970" stroke="#191970" points="395.7156,-372.8408 406.2976,-373.3635 398.3512,-366.3559 395.7156,-372.8408"/>
</g>
<!-- Node14372&#45;&gt;Node14318 -->
<g id="edge32" class="edge">
<title>Node14372&#45;&gt;Node14318</title>
<path fill="none" stroke="#191970" d="M434.6717,-240.395C440.6918,-251.6598 450.8493,-270.9414 459,-287.7934 481.8978,-335.1358 506.797,-391.8409 519.3232,-420.7727"/>
<polygon fill="#191970" stroke="#191970" points="516.1754,-422.312 523.3516,-430.1064 522.6023,-419.5381 516.1754,-422.312"/>
</g>
<!-- Node14372&#45;&gt;Node14312 -->
<g id="edge33" class="edge">
<title>Node14372&#45;&gt;Node14312</title>
<path fill="none" stroke="#191970" d="M452.7246,-235.2961C462.3451,-237.1613 473.8187,-239.3858 484.8549,-241.5255"/>
<polygon fill="#191970" stroke="#191970" points="484.318,-244.9865 494.8014,-243.4539 485.6504,-238.1145 484.318,-244.9865"/>
</g>
<!-- Node14372&#45;&gt;Node14313 -->
<g id="edge34" class="edge">
<title>Node14372&#45;&gt;Node14313</title>
<path fill="none" stroke="#191970" d="M439.7185,-221.1101C471.8882,-190.6251 571.3604,-96.3621 612.2106,-57.6512"/>
<polygon fill="#191970" stroke="#191970" points="614.7105,-60.1041 619.5617,-50.6851 609.8956,-55.0231 614.7105,-60.1041"/>
</g>
<!-- Node14373&#45;&gt;Node14324 -->
<g id="edge36" class="edge">
<title>Node14373&#45;&gt;Node14324</title>
<path fill="none" stroke="#191970" d="M347.8418,-107.1679C363.4383,-94.4906 391.0778,-72.0243 409.8359,-56.7771"/>
<polygon fill="#191970" stroke="#191970" points="412.2021,-59.3642 417.7543,-50.3407 407.7868,-53.9323 412.2021,-59.3642"/>
</g>
</g>
</svg>
