<?xml version="1.0" encoding="UTF-8" standalone="no"?>
<!DOCTYPE svg PUBLIC "-//W3C//DTD SVG 1.1//EN"
 "http://www.w3.org/Graphics/SVG/1.1/DTD/svg11.dtd">
<!-- Generated by graphviz version 2.40.1 (20161225.0304)
 -->
<!-- Title: bf_tan_internal Pages: 1 -->
<svg width="834pt" height="978pt"
 viewBox="0.00 0.00 834.00 978.47" xmlns="http://www.w3.org/2000/svg" xmlns:xlink="http://www.w3.org/1999/xlink">
<g id="graph0" class="graph" transform="scale(1 1) rotate(0) translate(4 974.4694)">
<title>bf_tan_internal</title>
<!-- Node7678 -->
<g id="node1" class="node">
<title>Node7678</title>
<polygon fill="#bfbfbf" stroke="#000000" points="0,-332.5 0,-351.5 80,-351.5 80,-332.5 0,-332.5"/>
<text text-anchor="middle" x="40" y="-339.5" font-family="Helvetica,sans-Serif" font-size="10.00" fill="#000000">bf_tan_internal</text>
</g>
<!-- Node7679 -->
<g id="node2" class="node">
<title>Node7679</title>
<g id="a_node2"><a xlink:href="libbf_8h.html#a2b9d906b21e903f2f7f1c9044674ab7d" target="_top" xlink:title="bf_delete">
<polygon fill="none" stroke="#000000" points="423.5,-940.5 423.5,-959.5 479.5,-959.5 479.5,-940.5 423.5,-940.5"/>
<text text-anchor="middle" x="451.5" y="-947.5" font-family="Helvetica,sans-Serif" font-size="10.00" fill="#000000">bf_delete</text>
</a>
</g>
</g>
<!-- Node7678&#45;&gt;Node7679 -->
<g id="edge1" class="edge">
<title>Node7678&#45;&gt;Node7679</title>
<path fill="none" stroke="#191970" d="M41.5911,-351.8267C53.0319,-421.384 124.7661,-839.2614 211,-929 262.9726,-983.0848 359.8158,-971.813 413.3929,-960.1319"/>
<polygon fill="#191970" stroke="#191970" points="414.2243,-963.5321 423.1891,-957.8856 412.6598,-956.7092 414.2243,-963.5321"/>
</g>
<!-- Node7681 -->
<g id="node4" class="node">
<title>Node7681</title>
<g id="a_node4"><a xlink:href="libbf_8h.html#a030665e68e114717678fb0d0453bb3c6" target="_top" xlink:title="bf_div">
<polygon fill="none" stroke="#000000" points="223,-313.5 223,-332.5 266,-332.5 266,-313.5 223,-313.5"/>
<text text-anchor="middle" x="244.5" y="-320.5" font-family="Helvetica,sans-Serif" font-size="10.00" fill="#000000">bf_div</text>
</a>
</g>
</g>
<!-- Node7678&#45;&gt;Node7681 -->
<g id="edge3" class="edge">
<title>Node7678&#45;&gt;Node7681</title>
<path fill="none" stroke="#191970" d="M80.4026,-338.2462C119.117,-334.6493 176.7791,-329.2919 212.4356,-325.9791"/>
<polygon fill="#191970" stroke="#191970" points="213.1163,-329.431 222.7496,-325.0208 212.4687,-322.461 213.1163,-329.431"/>
</g>
<!-- Node7683 -->
<g id="node6" class="node">
<title>Node7683</title>
<g id="a_node6"><a xlink:href="libbf_8h.html#abacc1410890af049e02ebd788364ac48" target="_top" xlink:title="bf_init">
<polygon fill="none" stroke="#000000" points="556.5,-598.5 556.5,-617.5 599.5,-617.5 599.5,-598.5 556.5,-598.5"/>
<text text-anchor="middle" x="578" y="-605.5" font-family="Helvetica,sans-Serif" font-size="10.00" fill="#000000">bf_init</text>
</a>
</g>
</g>
<!-- Node7678&#45;&gt;Node7683 -->
<g id="edge33" class="edge">
<title>Node7678&#45;&gt;Node7683</title>
<path fill="none" stroke="#191970" d="M75.7397,-351.5544C154.8793,-373.3512 341.4334,-428.4631 386,-475 411.8509,-501.9938 394.3833,-525.8155 422,-551 457.2377,-583.1344 512.0571,-597.5387 546.4485,-603.7096"/>
<polygon fill="#191970" stroke="#191970" points="545.9824,-607.1801 556.4216,-605.3709 547.1326,-600.2753 545.9824,-607.1801"/>
</g>
<!-- Node7689 -->
<g id="node12" class="node">
<title>Node7689</title>
<g id="a_node12"><a xlink:href="libbf_8h.html#aa6282c789c16c8cf2fe6a8ebd671c6fc" target="_top" xlink:title="bf_set_nan">
<polygon fill="none" stroke="#000000" points="545.5,-256.5 545.5,-275.5 610.5,-275.5 610.5,-256.5 545.5,-256.5"/>
<text text-anchor="middle" x="578" y="-263.5" font-family="Helvetica,sans-Serif" font-size="10.00" fill="#000000">bf_set_nan</text>
</a>
</g>
</g>
<!-- Node7678&#45;&gt;Node7689 -->
<g id="edge34" class="edge">
<title>Node7678&#45;&gt;Node7689</title>
<path fill="none" stroke="#191970" d="M43.1047,-332.4934C57.8531,-289.3427 125.1273,-114 244.5,-114 244.5,-114 244.5,-114 350,-114 445.9753,-114 532.278,-208.3968 564.5496,-248.4105"/>
<polygon fill="#191970" stroke="#191970" points="561.9835,-250.8088 570.9253,-256.4917 567.4791,-246.473 561.9835,-250.8088"/>
</g>
<!-- Node7692 -->
<g id="node14" class="node">
<title>Node7692</title>
<g id="a_node14"><a xlink:href="libbf_8h.html#a66631c65c00e92a5840a5085a009602d" target="_top" xlink:title="bf_set_zero">
<polygon fill="none" stroke="#000000" points="544,-161.5 544,-180.5 612,-180.5 612,-161.5 544,-161.5"/>
<text text-anchor="middle" x="578" y="-168.5" font-family="Helvetica,sans-Serif" font-size="10.00" fill="#000000">bf_set_zero</text>
</a>
</g>
</g>
<!-- Node7678&#45;&gt;Node7692 -->
<g id="edge35" class="edge">
<title>Node7678&#45;&gt;Node7692</title>
<path fill="none" stroke="#191970" d="M40.9364,-332.496C46.9437,-277.2605 85.0399,0 244.5,0 244.5,0 244.5,0 350,0 451.1636,0 536.1682,-109.0738 566.2968,-152.9955"/>
<polygon fill="#191970" stroke="#191970" points="563.4014,-154.9619 571.8791,-161.3163 569.2144,-151.0621 563.4014,-154.9619"/>
</g>
<!-- Node7755 -->
<g id="node19" class="node">
<title>Node7755</title>
<g id="a_node19"><a xlink:href="libbf_8c.html#ab769247f7a6429c42dfeba4f8334cb75" target="_top" xlink:title="bf_sincos">
<polygon fill="none" stroke="#000000" points="116,-579.5 116,-598.5 175,-598.5 175,-579.5 116,-579.5"/>
<text text-anchor="middle" x="145.5" y="-586.5" font-family="Helvetica,sans-Serif" font-size="10.00" fill="#000000">bf_sincos</text>
</a>
</g>
</g>
<!-- Node7678&#45;&gt;Node7755 -->
<g id="edge36" class="edge">
<title>Node7678&#45;&gt;Node7755</title>
<path fill="none" stroke="#191970" d="M44.1357,-351.6827C59.8918,-388.5713 116.3337,-520.7149 137.4503,-570.1539"/>
<polygon fill="#191970" stroke="#191970" points="134.2462,-571.5628 141.3929,-579.3842 140.6835,-568.8132 134.2462,-571.5628"/>
</g>
<!-- Node7680 -->
<g id="node3" class="node">
<title>Node7680</title>
<g id="a_node3"><a xlink:href="libbf_8h.html#a524c9e60866c08c75061626a4b5e2f29" target="_top" xlink:title="bf_realloc">
<polygon fill="none" stroke="#000000" points="767,-655.5 767,-674.5 826,-674.5 826,-655.5 767,-655.5"/>
<text text-anchor="middle" x="796.5" y="-662.5" font-family="Helvetica,sans-Serif" font-size="10.00" fill="#000000">bf_realloc</text>
</a>
</g>
</g>
<!-- Node7679&#45;&gt;Node7680 -->
<g id="edge2" class="edge">
<title>Node7679&#45;&gt;Node7680</title>
<path fill="none" stroke="#191970" d="M479.5098,-942.1506C518.2729,-930.3018 589.1257,-905.0017 639,-866 707.6039,-812.3518 763.663,-722.6805 786.0329,-683.8625"/>
<polygon fill="#191970" stroke="#191970" points="789.3198,-685.1615 791.2078,-674.7362 783.2306,-681.7087 789.3198,-685.1615"/>
</g>
<!-- Node7682 -->
<g id="node5" class="node">
<title>Node7682</title>
<g id="a_node5"><a xlink:href="libbf_8c.html#a3ebbc1c7473b2ad84ced2b263bf38bae" target="_top" xlink:title="bf_op2">
<polygon fill="none" stroke="#000000" points="428.5,-522.5 428.5,-541.5 474.5,-541.5 474.5,-522.5 428.5,-522.5"/>
<text text-anchor="middle" x="451.5" y="-529.5" font-family="Helvetica,sans-Serif" font-size="10.00" fill="#000000">bf_op2</text>
</a>
</g>
</g>
<!-- Node7681&#45;&gt;Node7682 -->
<g id="edge4" class="edge">
<title>Node7681&#45;&gt;Node7682</title>
<path fill="none" stroke="#191970" d="M258.4198,-332.5057C264.5307,-336.7973 271.727,-342.0143 278,-347 328.046,-386.7758 346.0844,-392.0654 386,-442 406.8628,-468.0995 400.6387,-482.3068 422,-508 424.307,-510.7748 426.9736,-513.4588 429.7411,-515.9642"/>
<polygon fill="#191970" stroke="#191970" points="427.6623,-518.7873 437.593,-522.4795 432.1323,-513.4003 427.6623,-518.7873"/>
</g>
<!-- Node7686 -->
<g id="node9" class="node">
<title>Node7686</title>
<g id="a_node9"><a xlink:href="libbf_8c.html#ad7a540de8355f07757e52b48d35dd708" target="_top" xlink:title="__bf_div">
<polygon fill="none" stroke="#ff0000" points="323.5,-332.5 323.5,-351.5 376.5,-351.5 376.5,-332.5 323.5,-332.5"/>
<text text-anchor="middle" x="350" y="-339.5" font-family="Helvetica,sans-Serif" font-size="10.00" fill="#000000">__bf_div</text>
</a>
</g>
</g>
<!-- Node7681&#45;&gt;Node7686 -->
<g id="edge9" class="edge">
<title>Node7681&#45;&gt;Node7686</title>
<path fill="none" stroke="#191970" d="M266.1041,-326.8908C279.6539,-329.331 297.4752,-332.5406 313.2065,-335.3737"/>
<polygon fill="#191970" stroke="#191970" points="312.7144,-338.8413 323.1764,-337.1692 313.9552,-331.9521 312.7144,-338.8413"/>
</g>
<!-- Node7682&#45;&gt;Node7683 -->
<g id="edge5" class="edge">
<title>Node7682&#45;&gt;Node7683</title>
<path fill="none" stroke="#191970" d="M467.5213,-541.6255C489.1927,-554.6454 528.0503,-577.9907 553.4264,-593.2364"/>
<polygon fill="#191970" stroke="#191970" points="551.7343,-596.3029 562.1088,-598.4527 555.3393,-590.3025 551.7343,-596.3029"/>
</g>
<!-- Node7684 -->
<g id="node7" class="node">
<title>Node7684</title>
<g id="a_node7"><a xlink:href="libbf_8h.html#ad7ab5aff92f4e7e10b2a30e0e6b9226d" target="_top" xlink:title="bf_move">
<polygon fill="none" stroke="#000000" points="551,-446.5 551,-465.5 605,-465.5 605,-446.5 551,-446.5"/>
<text text-anchor="middle" x="578" y="-453.5" font-family="Helvetica,sans-Serif" font-size="10.00" fill="#000000">bf_move</text>
</a>
</g>
</g>
<!-- Node7682&#45;&gt;Node7684 -->
<g id="edge6" class="edge">
<title>Node7682&#45;&gt;Node7684</title>
<path fill="none" stroke="#191970" d="M467.5213,-522.3745C489.1927,-509.3546 528.0503,-486.0093 553.4264,-470.7636"/>
<polygon fill="#191970" stroke="#191970" points="555.3393,-473.6975 562.1088,-465.5473 551.7343,-467.6971 555.3393,-473.6975"/>
</g>
<!-- Node7685 -->
<g id="node8" class="node">
<title>Node7685</title>
<g id="a_node8"><a xlink:href="libbf_8c.html#ab8c991bf0d1ab72d676d3c9c3d63c2a7" target="_top" xlink:title="bf_free">
<polygon fill="none" stroke="#000000" points="679.5,-408.5 679.5,-427.5 726.5,-427.5 726.5,-408.5 679.5,-408.5"/>
<text text-anchor="middle" x="703" y="-415.5" font-family="Helvetica,sans-Serif" font-size="10.00" fill="#000000">bf_free</text>
</a>
</g>
</g>
<!-- Node7684&#45;&gt;Node7685 -->
<g id="edge7" class="edge">
<title>Node7684&#45;&gt;Node7685</title>
<path fill="none" stroke="#191970" d="M605.1231,-447.7546C624.0423,-442.0031 649.4101,-434.2913 669.5789,-428.16"/>
<polygon fill="#191970" stroke="#191970" points="670.7505,-431.4621 679.3001,-425.2048 668.7144,-424.7647 670.7505,-431.4621"/>
</g>
<!-- Node7685&#45;&gt;Node7680 -->
<g id="edge8" class="edge">
<title>Node7685&#45;&gt;Node7680</title>
<path fill="none" stroke="#191970" d="M721.1758,-427.6089C724.8476,-430.2418 728.3798,-433.385 731,-437 778.8213,-502.9793 791.8484,-603.1666 795.299,-645.2708"/>
<polygon fill="#191970" stroke="#191970" points="791.8132,-645.5946 796.026,-655.3158 798.7949,-645.0892 791.8132,-645.5946"/>
</g>
<!-- Node7686&#45;&gt;Node7679 -->
<g id="edge10" class="edge">
<title>Node7686&#45;&gt;Node7679</title>
<path fill="none" stroke="#191970" d="M353.2418,-351.5412C360.4539,-373.1995 377.8322,-427.86 386,-475 403.3537,-575.1563 369.8527,-843.7469 422,-931 422.4922,-931.8236 423.0355,-932.6178 423.6218,-933.383"/>
<polygon fill="#191970" stroke="#191970" points="421.4963,-936.1891 431.1752,-940.4984 426.2961,-931.0938 421.4963,-936.1891"/>
</g>
<!-- Node7686&#45;&gt;Node7683 -->
<g id="edge12" class="edge">
<title>Node7686&#45;&gt;Node7683</title>
<path fill="none" stroke="#191970" d="M365.7185,-351.7009C372.7505,-356.7169 380.6442,-363.3851 386,-371 414.1393,-411.0084 391.7822,-436.5373 422,-475 441.269,-499.5264 456.622,-493.5436 481,-513 512.0892,-537.8126 544.3399,-571.1925 562.712,-591.0634"/>
<polygon fill="#191970" stroke="#191970" points="560.1412,-593.4385 569.4761,-598.4496 565.3036,-588.711 560.1412,-593.4385"/>
</g>
<!-- Node7686&#45;&gt;Node7685 -->
<g id="edge11" class="edge">
<title>Node7686&#45;&gt;Node7685</title>
<path fill="none" stroke="#191970" d="M352.1885,-332.0766C360.3576,-296.0289 390.2327,-172.9744 422,-151 454.6565,-128.4106 564.6119,-93.0044 639,-152 678.0818,-182.9949 696.1146,-342.1778 701.3307,-398.3471"/>
<polygon fill="#191970" stroke="#191970" points="697.8539,-398.7645 702.2289,-408.4138 704.8262,-398.1423 697.8539,-398.7645"/>
</g>
<!-- Node7687 -->
<g id="node10" class="node">
<title>Node7687</title>
<g id="a_node10"><a xlink:href="libbf_8h.html#a4954f3435332238433d15977d55ae566" target="_top" xlink:title="bf_max">
<polygon fill="none" stroke="#000000" points="427,-636.5 427,-655.5 476,-655.5 476,-636.5 427,-636.5"/>
<text text-anchor="middle" x="451.5" y="-643.5" font-family="Helvetica,sans-Serif" font-size="10.00" fill="#000000">bf_max</text>
</a>
</g>
</g>
<!-- Node7686&#45;&gt;Node7687 -->
<g id="edge13" class="edge">
<title>Node7686&#45;&gt;Node7687</title>
<path fill="none" stroke="#191970" d="M353.2621,-351.7703C367.639,-394.83 425.4946,-568.112 445.0241,-626.6043"/>
<polygon fill="#191970" stroke="#191970" points="441.8138,-628.0408 448.3006,-636.4177 448.4535,-625.8239 441.8138,-628.0408"/>
</g>
<!-- Node7688 -->
<g id="node11" class="node">
<title>Node7688</title>
<g id="a_node11"><a xlink:href="libbf_8h.html#ac290278d0c37a0e7786873f98aadba47" target="_top" xlink:title="bf_mul">
<polygon fill="none" stroke="#ff0000" points="428.5,-446.5 428.5,-465.5 474.5,-465.5 474.5,-446.5 428.5,-446.5"/>
<text text-anchor="middle" x="451.5" y="-453.5" font-family="Helvetica,sans-Serif" font-size="10.00" fill="#000000">bf_mul</text>
</a>
</g>
</g>
<!-- Node7686&#45;&gt;Node7688 -->
<g id="edge14" class="edge">
<title>Node7686&#45;&gt;Node7688</title>
<path fill="none" stroke="#191970" d="M368.163,-351.7012C374.3267,-355.584 380.9291,-360.4584 386,-366 408.5565,-390.6505 400.6387,-406.3068 422,-432 424.307,-434.7748 426.9736,-437.4588 429.7411,-439.9642"/>
<polygon fill="#191970" stroke="#191970" points="427.6623,-442.7873 437.593,-446.4795 432.1323,-437.4003 427.6623,-442.7873"/>
</g>
<!-- Node7686&#45;&gt;Node7689 -->
<g id="edge31" class="edge">
<title>Node7686&#45;&gt;Node7689</title>
<path fill="none" stroke="#191970" d="M376.6007,-333.1331C416.8741,-319.7086 493.5167,-294.1611 539.7637,-278.7454"/>
<polygon fill="#191970" stroke="#191970" points="541.0465,-282.0072 549.4265,-275.5245 538.8328,-275.3665 541.0465,-282.0072"/>
</g>
<!-- Node7690 -->
<g id="node13" class="node">
<title>Node7690</title>
<g id="a_node13"><a xlink:href="libbf_8h.html#ad5f9a8c0c9455250d53b259b1a01c0c0" target="_top" xlink:title="bf_resize">
<polygon fill="none" stroke="#000000" points="675,-446.5 675,-465.5 731,-465.5 731,-446.5 675,-446.5"/>
<text text-anchor="middle" x="703" y="-453.5" font-family="Helvetica,sans-Serif" font-size="10.00" fill="#000000">bf_resize</text>
</a>
</g>
</g>
<!-- Node7686&#45;&gt;Node7690 -->
<g id="edge29" class="edge">
<title>Node7686&#45;&gt;Node7690</title>
<path fill="none" stroke="#191970" d="M376.7014,-341.6644C430.1752,-342.1399 552.6681,-349.0846 639,-399 659.1404,-410.6448 657.2711,-421.9361 675,-437 676.3235,-438.1245 677.7146,-439.2427 679.1403,-440.341"/>
<polygon fill="#191970" stroke="#191970" points="677.2886,-443.3205 687.4501,-446.3198 681.3768,-437.6384 677.2886,-443.3205"/>
</g>
<!-- Node7686&#45;&gt;Node7692 -->
<g id="edge32" class="edge">
<title>Node7686&#45;&gt;Node7692</title>
<path fill="none" stroke="#191970" d="M350.5738,-332.3595C352.9544,-302.1287 364.8412,-208.952 422,-171 455.5338,-148.7344 502.7113,-152.3221 536.3876,-159.2488"/>
<polygon fill="#191970" stroke="#191970" points="535.8528,-162.7155 546.3754,-161.4807 537.3794,-155.884 535.8528,-162.7155"/>
</g>
<!-- Node7722 -->
<g id="node15" class="node">
<title>Node7722</title>
<g id="a_node15"><a xlink:href="libbf_8h.html#ae822c0888d26739bb681dfef282b9150" target="_top" xlink:title="bf_normalize_and_round">
<polygon fill="none" stroke="#ff0000" points="517,-408.5 517,-427.5 639,-427.5 639,-408.5 517,-408.5"/>
<text text-anchor="middle" x="578" y="-415.5" font-family="Helvetica,sans-Serif" font-size="10.00" fill="#000000">bf_normalize_and_round</text>
</a>
</g>
</g>
<!-- Node7686&#45;&gt;Node7722 -->
<g id="edge24" class="edge">
<title>Node7686&#45;&gt;Node7722</title>
<path fill="none" stroke="#191970" d="M365.4272,-351.5397C371.9367,-355.7535 379.4978,-360.9016 386,-366 403.0804,-379.3929 402.2851,-389.9208 422,-399 448.0398,-410.992 478.985,-416.3406 506.4218,-418.4792"/>
<polygon fill="#191970" stroke="#191970" points="506.5423,-421.9943 516.7478,-419.1488 506.9953,-415.009 506.5423,-421.9943"/>
</g>
<!-- Node7730 -->
<g id="node16" class="node">
<title>Node7730</title>
<g id="a_node16"><a xlink:href="libbf_8c.html#a65ea78f9810fbcbf75b1cbea5bbec252" target="_top" xlink:title="bf_or_one">
<polygon fill="none" stroke="#ff0000" points="422,-256.5 422,-275.5 481,-275.5 481,-256.5 422,-256.5"/>
<text text-anchor="middle" x="451.5" y="-263.5" font-family="Helvetica,sans-Serif" font-size="10.00" fill="#000000">bf_or_one</text>
</a>
</g>
</g>
<!-- Node7686&#45;&gt;Node7730 -->
<g id="edge25" class="edge">
<title>Node7686&#45;&gt;Node7730</title>
<path fill="none" stroke="#191970" d="M362.855,-332.3745C379.9385,-319.583 410.332,-296.8253 430.7014,-281.5734"/>
<polygon fill="#191970" stroke="#191970" points="432.8424,-284.3427 438.7493,-275.5473 428.6468,-278.7394 432.8424,-284.3427"/>
</g>
<!-- Node7732 -->
<g id="node17" class="node">
<title>Node7732</title>
<g id="a_node17"><a xlink:href="libbf_8h.html#a6b93880f2b2e6beaa16de4ae6596e908" target="_top" xlink:title="bf_recip">
<polygon fill="none" stroke="#ff0000" points="426,-180.5 426,-199.5 477,-199.5 477,-180.5 426,-180.5"/>
<text text-anchor="middle" x="451.5" y="-187.5" font-family="Helvetica,sans-Serif" font-size="10.00" fill="#000000">bf_recip</text>
</a>
</g>
</g>
<!-- Node7686&#45;&gt;Node7732 -->
<g id="edge26" class="edge">
<title>Node7686&#45;&gt;Node7732</title>
<path fill="none" stroke="#191970" d="M356.3493,-332.4917C372.9396,-307.6471 417.7967,-240.4719 439.464,-208.0243"/>
<polygon fill="#191970" stroke="#191970" points="442.5105,-209.7647 445.1531,-199.5047 436.6891,-205.8773 442.5105,-209.7647"/>
</g>
<!-- Node7744 -->
<g id="node18" class="node">
<title>Node7744</title>
<g id="a_node18"><a xlink:href="libbf_8h.html#abd4ca8358212228a53981a32a10286b5" target="_top" xlink:title="bf_round">
<polygon fill="none" stroke="#ff0000" points="424.5,-370.5 424.5,-389.5 478.5,-389.5 478.5,-370.5 424.5,-370.5"/>
<text text-anchor="middle" x="451.5" y="-377.5" font-family="Helvetica,sans-Serif" font-size="10.00" fill="#000000">bf_round</text>
</a>
</g>
</g>
<!-- Node7686&#45;&gt;Node7744 -->
<g id="edge30" class="edge">
<title>Node7686&#45;&gt;Node7744</title>
<path fill="none" stroke="#191970" d="M375.6127,-351.589C387.9942,-356.2244 403.0462,-361.8596 416.47,-366.8853"/>
<polygon fill="#191970" stroke="#191970" points="415.3031,-370.1856 425.8955,-370.4141 417.7575,-363.63 415.3031,-370.1856"/>
</g>
<!-- Node7688&#45;&gt;Node7683 -->
<g id="edge19" class="edge">
<title>Node7688&#45;&gt;Node7683</title>
<path fill="none" stroke="#191970" d="M464.7112,-465.6476C470.0211,-469.799 476.0456,-474.8718 481,-480 515.6807,-515.8973 549.2906,-564.1811 566.3687,-589.9746"/>
<polygon fill="#191970" stroke="#191970" points="563.477,-591.9476 571.884,-598.3954 569.3328,-588.1123 563.477,-591.9476"/>
</g>
<!-- Node7688&#45;&gt;Node7684 -->
<g id="edge23" class="edge">
<title>Node7688&#45;&gt;Node7684</title>
<path fill="none" stroke="#191970" d="M474.702,-456C493.2137,-456 519.5002,-456 540.923,-456"/>
<polygon fill="#191970" stroke="#191970" points="540.9935,-459.5001 550.9935,-456 540.9935,-452.5001 540.9935,-459.5001"/>
</g>
<!-- Node7688&#45;&gt;Node7689 -->
<g id="edge15" class="edge">
<title>Node7688&#45;&gt;Node7689</title>
<path fill="none" stroke="#191970" d="M457.9471,-446.3167C477.9899,-416.2127 539.4406,-323.9153 565.7926,-284.3353"/>
<polygon fill="#191970" stroke="#191970" points="568.7856,-286.1553 571.4142,-275.8917 562.9589,-282.2759 568.7856,-286.1553"/>
</g>
<!-- Node7688&#45;&gt;Node7690 -->
<g id="edge20" class="edge">
<title>Node7688&#45;&gt;Node7690</title>
<path fill="none" stroke="#191970" d="M474.7958,-464.497C487.1523,-468.5572 502.6985,-472.9676 517,-475 570.6829,-482.6288 585.3413,-482.7968 639,-475 648.434,-473.6292 658.4125,-471.1779 667.6117,-468.482"/>
<polygon fill="#191970" stroke="#191970" points="668.711,-471.8056 677.2253,-465.5001 666.6372,-465.1198 668.711,-471.8056"/>
</g>
<!-- Node7688&#45;&gt;Node7692 -->
<g id="edge17" class="edge">
<title>Node7688&#45;&gt;Node7692</title>
<path fill="none" stroke="#191970" d="M457.4903,-446.2491C464.0747,-435.1611 474.5695,-416.3429 481,-399 505.1359,-333.9061 486.5249,-309.378 517,-247 528.0289,-224.4256 546.7884,-202.4677 560.5988,-188.0072"/>
<polygon fill="#191970" stroke="#191970" points="563.1762,-190.3778 567.6815,-180.7886 558.1796,-185.4753 563.1762,-190.3778"/>
</g>
<!-- Node7688&#45;&gt;Node7722 -->
<g id="edge21" class="edge">
<title>Node7688&#45;&gt;Node7722</title>
<path fill="none" stroke="#191970" d="M474.702,-449.0302C491.9877,-443.8377 516.0526,-436.6087 536.6064,-430.4344"/>
<polygon fill="#191970" stroke="#191970" points="537.7991,-433.7307 546.3694,-427.5017 535.7852,-427.0267 537.7991,-433.7307"/>
</g>
<!-- Node7689&#45;&gt;Node7690 -->
<g id="edge16" class="edge">
<title>Node7689&#45;&gt;Node7690</title>
<path fill="none" stroke="#191970" d="M590.4738,-275.6682C604.1671,-286.8881 625.9381,-306.6059 639,-328 665.5853,-371.5441 644.2547,-396.2865 675,-437 675.6726,-437.8907 676.3997,-438.7539 677.1693,-439.5887"/>
<polygon fill="#191970" stroke="#191970" points="675.0795,-442.4091 684.9286,-446.3138 679.6642,-437.1194 675.0795,-442.4091"/>
</g>
<!-- Node7692&#45;&gt;Node7690 -->
<g id="edge18" class="edge">
<title>Node7692&#45;&gt;Node7690</title>
<path fill="none" stroke="#191970" d="M588.497,-180.7039C602.3793,-194.1756 626.5381,-219.9559 639,-247 674.9692,-325.0582 627.8325,-365.1523 675,-437 675.5219,-437.795 676.0897,-438.5653 676.6956,-439.3111"/>
<polygon fill="#191970" stroke="#191970" points="674.5736,-442.1168 684.2837,-446.3553 679.3361,-436.9866 674.5736,-442.1168"/>
</g>
<!-- Node7722&#45;&gt;Node7690 -->
<g id="edge22" class="edge">
<title>Node7722&#45;&gt;Node7690</title>
<path fill="none" stroke="#191970" d="M609.5428,-427.589C626.3503,-432.6985 647.1539,-439.0228 664.8634,-444.4065"/>
<polygon fill="#191970" stroke="#191970" points="664.2937,-447.8914 674.8794,-447.4513 666.3298,-441.194 664.2937,-447.8914"/>
</g>
<!-- Node7732&#45;&gt;Node7689 -->
<g id="edge27" class="edge">
<title>Node7732&#45;&gt;Node7689</title>
<path fill="none" stroke="#191970" d="M467.5213,-199.6255C489.1927,-212.6454 528.0503,-235.9907 553.4264,-251.2364"/>
<polygon fill="#191970" stroke="#191970" points="551.7343,-254.3029 562.1088,-256.4527 555.3393,-248.3025 551.7343,-254.3029"/>
</g>
<!-- Node7732&#45;&gt;Node7692 -->
<g id="edge28" class="edge">
<title>Node7732&#45;&gt;Node7692</title>
<path fill="none" stroke="#191970" d="M477.0992,-186.1551C493.3774,-183.7101 514.8868,-180.4795 533.8629,-177.6293"/>
<polygon fill="#191970" stroke="#191970" points="534.4346,-181.0828 543.8037,-176.1362 533.3948,-174.1604 534.4346,-181.0828"/>
</g>
<!-- Node7755&#45;&gt;Node7679 -->
<g id="edge44" class="edge">
<title>Node7755&#45;&gt;Node7679</title>
<path fill="none" stroke="#191970" d="M146.2948,-598.7155C150.3213,-645.6663 169.9088,-848.6473 211,-894 262.5425,-950.8878 359.6451,-955.5917 413.3555,-953.2808"/>
<polygon fill="#191970" stroke="#191970" points="413.694,-956.7678 423.4927,-952.7385 413.3199,-949.7778 413.694,-956.7678"/>
</g>
<!-- Node7755&#45;&gt;Node7681 -->
<g id="edge45" class="edge">
<title>Node7755&#45;&gt;Node7681</title>
<path fill="none" stroke="#191970" d="M147.8986,-579.4212C155.4488,-549.8371 180.0709,-457.5402 211,-385 217.4368,-369.9033 226.3258,-353.6047 233.3299,-341.5087"/>
<polygon fill="#191970" stroke="#191970" points="236.3937,-343.2036 238.4601,-332.8123 230.3646,-339.6469 236.3937,-343.2036"/>
</g>
<!-- Node7755&#45;&gt;Node7683 -->
<g id="edge46" class="edge">
<title>Node7755&#45;&gt;Node7683</title>
<path fill="none" stroke="#191970" d="M146.8085,-598.659C150.8573,-624.2664 165.7631,-693.8531 211,-722 313.6004,-785.8391 384.996,-763.3859 481,-690 507.8564,-669.4708 490.2833,-643.7107 517,-623 525.4038,-616.4854 536.2545,-612.7573 546.4694,-610.6381"/>
<polygon fill="#191970" stroke="#191970" points="547.0587,-614.0883 556.358,-609.0117 545.9225,-607.1811 547.0587,-614.0883"/>
</g>
<!-- Node7755&#45;&gt;Node7687 -->
<g id="edge48" class="edge">
<title>Node7755&#45;&gt;Node7687</title>
<path fill="none" stroke="#191970" d="M174.2525,-598.5156C185.5935,-601.9584 198.8039,-605.5881 211,-608 287.7485,-623.1775 309.2515,-611.8225 386,-627 396.2796,-629.0329 407.2797,-631.9309 417.2737,-634.853"/>
<polygon fill="#191970" stroke="#191970" points="416.2835,-638.21 426.8684,-637.7519 418.3081,-631.5091 416.2835,-638.21"/>
</g>
<!-- Node7755&#45;&gt;Node7688 -->
<g id="edge49" class="edge">
<title>Node7755&#45;&gt;Node7688</title>
<path fill="none" stroke="#191970" d="M147.7257,-579.2053C155.5294,-545.8177 182.7113,-437.4572 211,-418 277.9593,-371.9447 379.987,-416.4959 426.646,-441.5383"/>
<polygon fill="#191970" stroke="#191970" points="425.0238,-444.6406 435.4715,-446.4003 428.4015,-438.5094 425.0238,-444.6406"/>
</g>
<!-- Node7755&#45;&gt;Node7689 -->
<g id="edge64" class="edge">
<title>Node7755&#45;&gt;Node7689</title>
<path fill="none" stroke="#191970" d="M146.4062,-579.2847C150.809,-534.1206 171.3869,-345.1454 211,-304 295.9297,-215.7851 458.6677,-238.1285 535.6485,-255.1035"/>
<polygon fill="#191970" stroke="#191970" points="534.956,-258.5354 545.484,-257.347 536.5128,-251.7107 534.956,-258.5354"/>
</g>
<!-- Node7755&#45;&gt;Node7692 -->
<g id="edge66" class="edge">
<title>Node7755&#45;&gt;Node7692</title>
<path fill="none" stroke="#191970" d="M146.2776,-579.2275C150.3562,-530.0683 170.6443,-310.0829 211,-257 274.5139,-173.4553 319.884,-175.2084 422,-151 461.7969,-141.5654 508.4302,-150.0186 540.275,-158.6568"/>
<polygon fill="#191970" stroke="#191970" points="539.4909,-162.0726 550.0672,-161.4455 541.4082,-155.3403 539.4909,-162.0726"/>
</g>
<!-- Node7734 -->
<g id="node20" class="node">
<title>Node7734</title>
<g id="a_node20"><a xlink:href="libbf_8h.html#a17dc09166f82ffa408f54a2edc4d7855" target="_top" xlink:title="bf_add">
<polygon fill="none" stroke="#ff0000" points="327,-484.5 327,-503.5 373,-503.5 373,-484.5 327,-484.5"/>
<text text-anchor="middle" x="350" y="-491.5" font-family="Helvetica,sans-Serif" font-size="10.00" fill="#000000">bf_add</text>
</a>
</g>
</g>
<!-- Node7755&#45;&gt;Node7734 -->
<g id="edge37" class="edge">
<title>Node7755&#45;&gt;Node7734</title>
<path fill="none" stroke="#191970" d="M151.3678,-579.3216C161.4388,-563.6337 183.6003,-532.9089 211,-518 243.9518,-500.07 287.2393,-495.0046 316.6938,-493.8279"/>
<polygon fill="#191970" stroke="#191970" points="316.9728,-497.3217 326.8749,-493.5536 316.7843,-490.3242 316.9728,-497.3217"/>
</g>
<!-- Node7741 -->
<g id="node21" class="node">
<title>Node7741</title>
<g id="a_node21"><a xlink:href="libbf_8h.html#a50a5aa2767f2389a32daf115aaef07af" target="_top" xlink:title="bf_add_si">
<polygon fill="none" stroke="#ff0000" points="215,-579.5 215,-598.5 274,-598.5 274,-579.5 215,-579.5"/>
<text text-anchor="middle" x="244.5" y="-586.5" font-family="Helvetica,sans-Serif" font-size="10.00" fill="#000000">bf_add_si</text>
</a>
</g>
</g>
<!-- Node7755&#45;&gt;Node7741 -->
<g id="edge39" class="edge">
<title>Node7755&#45;&gt;Node7741</title>
<path fill="none" stroke="#191970" d="M175.2033,-589C184.503,-589 194.9188,-589 204.7932,-589"/>
<polygon fill="#191970" stroke="#191970" points="204.8177,-592.5001 214.8177,-589 204.8177,-585.5001 204.8177,-592.5001"/>
</g>
<!-- Node7756 -->
<g id="node22" class="node">
<title>Node7756</title>
<g id="a_node22"><a xlink:href="libbf_8h.html#aff86bca731f3c8ffe45f0f1129175961" target="_top" xlink:title="bf_const_pi">
<polygon fill="none" stroke="#ff0000" points="211,-541.5 211,-560.5 278,-560.5 278,-541.5 211,-541.5"/>
<text text-anchor="middle" x="244.5" y="-548.5" font-family="Helvetica,sans-Serif" font-size="10.00" fill="#000000">bf_const_pi</text>
</a>
</g>
</g>
<!-- Node7755&#45;&gt;Node7756 -->
<g id="edge43" class="edge">
<title>Node7755&#45;&gt;Node7756</title>
<path fill="none" stroke="#191970" d="M170.4819,-579.411C182.4411,-574.8206 196.9548,-569.2497 209.951,-564.2612"/>
<polygon fill="#191970" stroke="#191970" points="211.4445,-567.437 219.5261,-560.5859 208.936,-560.9019 211.4445,-567.437"/>
</g>
<!-- Node7763 -->
<g id="node23" class="node">
<title>Node7763</title>
<g id="a_node23"><a xlink:href="libbf_8c.html#aa66b0740c67d6282af8593704eeb3de7" target="_top" xlink:title="bf_isqrt">
<polygon fill="none" stroke="#ff0000" points="220,-427.5 220,-446.5 269,-446.5 269,-427.5 220,-427.5"/>
<text text-anchor="middle" x="244.5" y="-434.5" font-family="Helvetica,sans-Serif" font-size="10.00" fill="#000000">bf_isqrt</text>
</a>
</g>
</g>
<!-- Node7755&#45;&gt;Node7763 -->
<g id="edge47" class="edge">
<title>Node7755&#45;&gt;Node7763</title>
<path fill="none" stroke="#191970" d="M148.6209,-579.4166C156.3349,-556.8132 178.091,-499.2054 211,-461 213.5302,-458.0626 216.4901,-455.2935 219.5846,-452.7529"/>
<polygon fill="#191970" stroke="#191970" points="221.9346,-455.3679 227.8872,-446.6033 217.7682,-449.7428 221.9346,-455.3679"/>
</g>
<!-- Node7764 -->
<g id="node24" class="node">
<title>Node7764</title>
<g id="a_node24"><a xlink:href="libbf_8h.html#ae1d5fe9356228cc3a566786637f26680" target="_top" xlink:title="bf_mul_2exp">
<polygon fill="none" stroke="#ff0000" points="314,-636.5 314,-655.5 386,-655.5 386,-636.5 314,-636.5"/>
<text text-anchor="middle" x="350" y="-643.5" font-family="Helvetica,sans-Serif" font-size="10.00" fill="#000000">bf_mul_2exp</text>
</a>
</g>
</g>
<!-- Node7755&#45;&gt;Node7764 -->
<g id="edge50" class="edge">
<title>Node7755&#45;&gt;Node7764</title>
<path fill="none" stroke="#191970" d="M154.0603,-598.8959C165.5567,-611.3748 187.2982,-632.2546 211,-641 240.5297,-651.8958 276.0245,-652.9923 303.7542,-651.4436"/>
<polygon fill="#191970" stroke="#191970" points="304.2389,-654.9185 313.973,-650.7355 303.755,-647.9353 304.2389,-654.9185"/>
</g>
<!-- Node7759 -->
<g id="node25" class="node">
<title>Node7759</title>
<g id="a_node25"><a xlink:href="libbf_8h.html#acee0d550162528b5ca5513d4479549c2" target="_top" xlink:title="bf_mul_ui">
<polygon fill="none" stroke="#000000" points="320.5,-826.5 320.5,-845.5 379.5,-845.5 379.5,-826.5 320.5,-826.5"/>
<text text-anchor="middle" x="350" y="-833.5" font-family="Helvetica,sans-Serif" font-size="10.00" fill="#000000">bf_mul_ui</text>
</a>
</g>
</g>
<!-- Node7755&#45;&gt;Node7759 -->
<g id="edge52" class="edge">
<title>Node7755&#45;&gt;Node7759</title>
<path fill="none" stroke="#191970" d="M147.21,-598.6169C154.0385,-635.9822 180.4646,-770.8837 211,-800 237.5014,-825.2698 279.3558,-833.3928 310.2181,-835.7267"/>
<polygon fill="#191970" stroke="#191970" points="310.0375,-839.222 320.225,-836.3126 310.4468,-832.234 310.0375,-839.222"/>
</g>
<!-- Node7743 -->
<g id="node26" class="node">
<title>Node7743</title>
<g id="a_node26"><a xlink:href="libbf_8h.html#a5bcb10b6c7836aea03e8167384299774" target="_top" xlink:title="bf_set_ui">
<polygon fill="none" stroke="#ff0000" points="423.5,-902.5 423.5,-921.5 479.5,-921.5 479.5,-902.5 423.5,-902.5"/>
<text text-anchor="middle" x="451.5" y="-909.5" font-family="Helvetica,sans-Serif" font-size="10.00" fill="#000000">bf_set_ui</text>
</a>
</g>
</g>
<!-- Node7755&#45;&gt;Node7743 -->
<g id="edge65" class="edge">
<title>Node7755&#45;&gt;Node7743</title>
<path fill="none" stroke="#191970" d="M146.5843,-598.7834C151.6238,-642.5894 174.089,-820.2949 211,-860 262.9448,-915.877 359.4619,-919.0987 413.0802,-915.9384"/>
<polygon fill="#191970" stroke="#191970" points="413.4726,-919.4197 423.2059,-915.235 412.9874,-912.4365 413.4726,-919.4197"/>
</g>
<!-- Node7765 -->
<g id="node27" class="node">
<title>Node7765</title>
<g id="a_node27"><a xlink:href="libbf_8h.html#aa561bc5220ec0489f4d3e59789d43d26" target="_top" xlink:title="bf_neg">
<polygon fill="none" stroke="#000000" points="327,-522.5 327,-541.5 373,-541.5 373,-522.5 327,-522.5"/>
<text text-anchor="middle" x="350" y="-529.5" font-family="Helvetica,sans-Serif" font-size="10.00" fill="#000000">bf_neg</text>
</a>
</g>
</g>
<!-- Node7755&#45;&gt;Node7765 -->
<g id="edge58" class="edge">
<title>Node7755&#45;&gt;Node7765</title>
<path fill="none" stroke="#191970" d="M152.6715,-579.4261C163.5288,-565.8261 185.5869,-541.5093 211,-532 245.4213,-519.1199 288.082,-521.5648 316.9964,-525.6592"/>
<polygon fill="#191970" stroke="#191970" points="316.5665,-529.1344 326.9864,-527.217 317.6451,-522.218 316.5665,-529.1344"/>
</g>
<!-- Node7766 -->
<g id="node28" class="node">
<title>Node7766</title>
<g id="a_node28"><a xlink:href="libbf_8h.html#ac05bdf08f7852acc28d905777ef1416c" target="_top" xlink:title="bf_remquo">
<polygon fill="none" stroke="#ff0000" points="319,-864.5 319,-883.5 381,-883.5 381,-864.5 319,-864.5"/>
<text text-anchor="middle" x="350" y="-871.5" font-family="Helvetica,sans-Serif" font-size="10.00" fill="#000000">bf_remquo</text>
</a>
</g>
</g>
<!-- Node7755&#45;&gt;Node7766 -->
<g id="edge59" class="edge">
<title>Node7755&#45;&gt;Node7766</title>
<path fill="none" stroke="#191970" d="M146.9077,-598.7404C152.951,-639.3044 177.9004,-794.3186 211,-829 236.4102,-855.6245 277.6695,-866.5243 308.6488,-870.9714"/>
<polygon fill="#191970" stroke="#191970" points="308.3628,-874.4631 318.723,-872.2456 309.2413,-867.5184 308.3628,-874.4631"/>
</g>
<!-- Node7739 -->
<g id="node29" class="node">
<title>Node7739</title>
<g id="a_node29"><a xlink:href="libbf_8h.html#ad7826160be73aad5e1f346a024fcbb78" target="_top" xlink:title="bf_set">
<polygon fill="none" stroke="#000000" points="328,-788.5 328,-807.5 372,-807.5 372,-788.5 328,-788.5"/>
<text text-anchor="middle" x="350" y="-795.5" font-family="Helvetica,sans-Serif" font-size="10.00" fill="#000000">bf_set</text>
</a>
</g>
</g>
<!-- Node7755&#45;&gt;Node7739 -->
<g id="edge62" class="edge">
<title>Node7755&#45;&gt;Node7739</title>
<path fill="none" stroke="#191970" d="M147.6299,-598.913C155.3274,-633.8109 182.7432,-750.1636 211,-774 240.6373,-799.001 286.7849,-802.2571 317.6831,-801.1026"/>
<polygon fill="#191970" stroke="#191970" points="318.1317,-804.5833 327.9242,-800.5387 317.7468,-797.5939 318.1317,-804.5833"/>
</g>
<!-- Node7770 -->
<g id="node30" class="node">
<title>Node7770</title>
<g id="a_node30"><a xlink:href="libbf_8c.html#a15b40c4ae7e9b401fd0c6dc398eacef7" target="_top" xlink:title="bf_sqrt_sin">
<polygon fill="none" stroke="#ff0000" points="212,-693.5 212,-712.5 277,-712.5 277,-693.5 212,-693.5"/>
<text text-anchor="middle" x="244.5" y="-700.5" font-family="Helvetica,sans-Serif" font-size="10.00" fill="#000000">bf_sqrt_sin</text>
</a>
</g>
</g>
<!-- Node7755&#45;&gt;Node7770 -->
<g id="edge67" class="edge">
<title>Node7755&#45;&gt;Node7770</title>
<path fill="none" stroke="#191970" d="M151.1196,-598.7039C161.4827,-616.0871 184.9402,-653.134 211,-679 213.9436,-681.9217 217.2718,-684.7508 220.6595,-687.3794"/>
<polygon fill="#191970" stroke="#191970" points="218.8674,-690.4033 229.018,-693.4393 222.9762,-684.736 218.8674,-690.4033"/>
</g>
<!-- Node7734&#45;&gt;Node7682 -->
<g id="edge38" class="edge">
<title>Node7734&#45;&gt;Node7682</title>
<path fill="none" stroke="#191970" d="M373.0319,-502.6228C386.5622,-507.6883 403.8843,-514.1734 418.8097,-519.7613"/>
<polygon fill="#191970" stroke="#191970" points="417.6155,-523.0514 428.2079,-523.2798 420.0699,-516.4957 417.6155,-523.0514"/>
</g>
<!-- Node7741&#45;&gt;Node7679 -->
<g id="edge42" class="edge">
<title>Node7741&#45;&gt;Node7679</title>
<path fill="none" stroke="#191970" d="M248.4709,-598.5426C255.3798,-615.4767 269.669,-652.0139 278,-684 301.7573,-775.2137 255.1585,-819.3656 314,-893 317.4484,-897.3153 377.6454,-921.3001 417.2362,-936.7503"/>
<polygon fill="#191970" stroke="#191970" points="416.2221,-940.1114 426.8106,-940.4773 418.7614,-933.5882 416.2221,-940.1114"/>
</g>
<!-- Node7741&#45;&gt;Node7683 -->
<g id="edge40" class="edge">
<title>Node7741&#45;&gt;Node7683</title>
<path fill="none" stroke="#191970" d="M274.0548,-589.722C302.691,-590.4978 347.341,-591.9083 386,-594 442.345,-597.0487 507.8806,-602.1654 545.9769,-605.2964"/>
<polygon fill="#191970" stroke="#191970" points="546.1665,-608.824 556.4213,-606.1616 546.7444,-601.8479 546.1665,-608.824"/>
</g>
<!-- Node7741&#45;&gt;Node7734 -->
<g id="edge41" class="edge">
<title>Node7741&#45;&gt;Node7734</title>
<path fill="none" stroke="#191970" d="M265.0914,-579.4372C269.6417,-576.7692 274.2259,-573.5994 278,-570 299.683,-549.3209 292.0061,-533.3482 314,-513 315.4784,-511.6322 317.0739,-510.3335 318.7419,-509.1054"/>
<polygon fill="#191970" stroke="#191970" points="320.9127,-511.8732 327.482,-503.5608 317.1629,-505.9622 320.9127,-511.8732"/>
</g>
<!-- Node7764&#45;&gt;Node7687 -->
<g id="edge51" class="edge">
<title>Node7764&#45;&gt;Node7687</title>
<path fill="none" stroke="#191970" d="M386.0709,-646C396.03,-646 406.8143,-646 416.6999,-646"/>
<polygon fill="#191970" stroke="#191970" points="416.9924,-649.5001 426.9924,-646 416.9923,-642.5001 416.9924,-649.5001"/>
</g>
<!-- Node7759&#45;&gt;Node7679 -->
<g id="edge57" class="edge">
<title>Node7759&#45;&gt;Node7679</title>
<path fill="none" stroke="#191970" d="M373.6046,-845.6412C378.0933,-848.2144 382.4807,-851.3251 386,-855 411.8509,-881.9938 397.3414,-902.9128 422,-931 422.9797,-932.1159 424.0402,-933.1915 425.1574,-934.2244"/>
<polygon fill="#191970" stroke="#191970" points="423.0511,-937.0202 433.0938,-940.3957 427.348,-931.4942 423.0511,-937.0202"/>
</g>
<!-- Node7759&#45;&gt;Node7683 -->
<g id="edge53" class="edge">
<title>Node7759&#45;&gt;Node7683</title>
<path fill="none" stroke="#191970" d="M379.7395,-827.5982C408.3909,-818.2955 451.6031,-800.9505 481,-774 527.6227,-731.2572 558.3713,-660.8395 571.2012,-627.1359"/>
<polygon fill="#191970" stroke="#191970" points="574.5547,-628.1581 574.7346,-617.5648 567.9879,-625.7338 574.5547,-628.1581"/>
</g>
<!-- Node7759&#45;&gt;Node7688 -->
<g id="edge56" class="edge">
<title>Node7759&#45;&gt;Node7688</title>
<path fill="none" stroke="#191970" d="M375.6935,-826.4924C379.6892,-823.9711 383.3605,-820.8456 386,-817 462.9935,-704.826 382.0884,-643.0695 422,-513 426.1967,-499.3233 433.6039,-485.028 439.9458,-474.1745"/>
<polygon fill="#191970" stroke="#191970" points="442.9387,-475.989 445.1373,-465.6248 436.9554,-472.3559 442.9387,-475.989"/>
</g>
<!-- Node7759&#45;&gt;Node7743 -->
<g id="edge54" class="edge">
<title>Node7759&#45;&gt;Node7743</title>
<path fill="none" stroke="#191970" d="M370.2845,-845.6604C375.5443,-848.4445 381.1035,-851.6438 386,-855 403.5437,-867.0247 421.6456,-883.1092 434.3612,-895.1257"/>
<polygon fill="#191970" stroke="#191970" points="432.2441,-897.9454 441.8794,-902.3512 437.0947,-892.8983 432.2441,-897.9454"/>
</g>
<!-- Node7743&#45;&gt;Node7690 -->
<g id="edge55" class="edge">
<title>Node7743&#45;&gt;Node7690</title>
<path fill="none" stroke="#191970" d="M479.5362,-905.3699C521.3824,-893.9237 599.4773,-866.2797 639,-812 678.834,-757.2928 696.959,-542.3611 701.6939,-475.7749"/>
<polygon fill="#191970" stroke="#191970" points="705.1877,-475.9846 702.3829,-465.7678 698.2042,-475.5038 705.1877,-475.9846"/>
</g>
<!-- Node7766&#45;&gt;Node7679 -->
<g id="edge61" class="edge">
<title>Node7766&#45;&gt;Node7679</title>
<path fill="none" stroke="#191970" d="M365.4272,-883.5397C371.9367,-887.7535 379.4978,-892.9016 386,-898 403.0804,-911.3929 404.8142,-917.7425 422,-931 423.5917,-932.2279 425.2633,-933.455 426.9677,-934.661"/>
<polygon fill="#191970" stroke="#191970" points="425.2923,-937.7519 435.545,-940.4223 429.1954,-931.941 425.2923,-937.7519"/>
</g>
<!-- Node7766&#45;&gt;Node7683 -->
<g id="edge60" class="edge">
<title>Node7766&#45;&gt;Node7683</title>
<path fill="none" stroke="#191970" d="M379.8935,-864.4042C408.8654,-853.8145 452.4964,-834.2913 481,-805 532.5422,-752.0335 561.6475,-666.3141 572.7399,-627.8226"/>
<polygon fill="#191970" stroke="#191970" points="576.1971,-628.4534 575.5024,-617.8814 569.4527,-626.5791 576.1971,-628.4534"/>
</g>
<!-- Node7739&#45;&gt;Node7690 -->
<g id="edge63" class="edge">
<title>Node7739&#45;&gt;Node7690</title>
<path fill="none" stroke="#191970" d="M372.0493,-797.6864C399.0855,-796.4884 445.665,-791.7393 481,-774 566.7188,-730.9664 585.6537,-706.7106 639,-627 672.1051,-577.5341 691.0782,-508.6344 698.8398,-475.4229"/>
<polygon fill="#191970" stroke="#191970" points="702.2677,-476.1319 701.0464,-465.6077 695.4382,-474.5964 702.2677,-476.1319"/>
</g>
<!-- Node7770&#45;&gt;Node7679 -->
<g id="edge69" class="edge">
<title>Node7770&#45;&gt;Node7679</title>
<path fill="none" stroke="#191970" d="M246.1542,-712.7069C252.9991,-751.7222 280.3336,-896.4281 314,-926 340.9534,-949.6753 382.7168,-953.9941 413.1469,-953.4264"/>
<polygon fill="#191970" stroke="#191970" points="413.5318,-956.9146 423.3949,-953.0455 413.2717,-949.9194 413.5318,-956.9146"/>
</g>
<!-- Node7770&#45;&gt;Node7683 -->
<g id="edge70" class="edge">
<title>Node7770&#45;&gt;Node7683</title>
<path fill="none" stroke="#191970" d="M277.0862,-703.4499C305.9428,-703.306 349.0912,-701.7612 386,-695 429.5527,-687.0217 440.5451,-682.997 481,-665 507.6858,-653.1284 536.2914,-635.6781 555.4694,-623.2165"/>
<polygon fill="#191970" stroke="#191970" points="557.6516,-625.9702 564.077,-617.5461 553.8007,-620.1246 557.6516,-625.9702"/>
</g>
<!-- Node7770&#45;&gt;Node7688 -->
<g id="edge71" class="edge">
<title>Node7770&#45;&gt;Node7688</title>
<path fill="none" stroke="#191970" d="M277.0121,-703.3112C309.1657,-701.7934 357.5655,-694.2949 386,-665 434.3535,-615.1834 397.8641,-578.0939 422,-513 426.9234,-499.7218 434.2292,-485.5789 440.3383,-474.7025"/>
<polygon fill="#191970" stroke="#191970" points="443.538,-476.1606 445.5097,-465.7509 437.4768,-472.659 443.538,-476.1606"/>
</g>
<!-- Node7770&#45;&gt;Node7734 -->
<g id="edge68" class="edge">
<title>Node7770&#45;&gt;Node7734</title>
<path fill="none" stroke="#191970" d="M247.9551,-693.2626C261.5558,-654.9695 310.8158,-516.6457 314,-513 315.3249,-511.483 316.801,-510.0683 318.3782,-508.7519"/>
<polygon fill="#191970" stroke="#191970" points="320.576,-511.4899 326.8749,-502.9708 316.6382,-505.7025 320.576,-511.4899"/>
</g>
<!-- Node7770&#45;&gt;Node7764 -->
<g id="edge72" class="edge">
<title>Node7770&#45;&gt;Node7764</title>
<path fill="none" stroke="#191970" d="M262.3966,-693.3307C279.1697,-684.2685 304.4525,-670.6086 323.5524,-660.2892"/>
<polygon fill="#191970" stroke="#191970" points="325.2334,-663.3593 332.3677,-655.5265 321.9059,-657.2006 325.2334,-663.3593"/>
</g>
<!-- Node7770&#45;&gt;Node7765 -->
<g id="edge73" class="edge">
<title>Node7770&#45;&gt;Node7765</title>
<path fill="none" stroke="#191970" d="M250.4744,-693.3163C267.5203,-665.6874 316.5867,-586.1581 338.8165,-550.1268"/>
<polygon fill="#191970" stroke="#191970" points="341.8191,-551.9258 344.0911,-541.5774 335.8617,-548.2503 341.8191,-551.9258"/>
</g>
<!-- Node7770&#45;&gt;Node7739 -->
<g id="edge74" class="edge">
<title>Node7770&#45;&gt;Node7739</title>
<path fill="none" stroke="#191970" d="M255.393,-712.8089C273.4125,-729.035 309.6193,-761.6383 331.6441,-781.471"/>
<polygon fill="#191970" stroke="#191970" points="329.5501,-784.2953 339.3234,-788.386 334.2342,-779.0934 329.5501,-784.2953"/>
</g>
</g>
</svg>
