<?xml version="1.0" encoding="UTF-8" standalone="no"?>
<!DOCTYPE svg PUBLIC "-//W3C//DTD SVG 1.1//EN"
 "http://www.w3.org/Graphics/SVG/1.1/DTD/svg11.dtd">
<!-- Generated by graphviz version 2.40.1 (20161225.0304)
 -->
<!-- Title: bf_context_init Pages: 1 -->
<svg width="381pt" height="28pt"
 viewBox="0.00 0.00 381.00 28.00" xmlns="http://www.w3.org/2000/svg" xmlns:xlink="http://www.w3.org/1999/xlink">
<g id="graph0" class="graph" transform="scale(1 1) rotate(0) translate(4 24)">
<title>bf_context_init</title>
<!-- Node1632 -->
<g id="node1" class="node">
<title>Node1632</title>
<polygon fill="#bfbfbf" stroke="#000000" points="0,-.5 0,-19.5 80,-19.5 80,-.5 0,-.5"/>
<text text-anchor="middle" x="40" y="-7.5" font-family="Helvetica,sans-Serif" font-size="10.00" fill="#000000">bf_context_init</text>
</g>
<!-- Node1633 -->
<g id="node2" class="node">
<title>Node1633</title>
<g id="a_node2"><a xlink:href="libbf_8c.html#a076abee59b98c6b979e670c04c9941d2" target="_top" xlink:title="mp_pow_init">
<polygon fill="none" stroke="#000000" points="116,-.5 116,-19.5 187,-19.5 187,-.5 116,-.5"/>
<text text-anchor="middle" x="151.5" y="-7.5" font-family="Helvetica,sans-Serif" font-size="10.00" fill="#000000">mp_pow_init</text>
</a>
</g>
</g>
<!-- Node1632&#45;&gt;Node1633 -->
<g id="edge1" class="edge">
<title>Node1632&#45;&gt;Node1633</title>
<path fill="none" stroke="#191970" d="M80.2541,-10C88.5027,-10 97.2429,-10 105.6706,-10"/>
<polygon fill="#191970" stroke="#191970" points="105.7415,-13.5001 115.7414,-10 105.7414,-6.5001 105.7415,-13.5001"/>
</g>
<!-- Node1634 -->
<g id="node3" class="node">
<title>Node1634</title>
<g id="a_node3"><a xlink:href="libbf_8c.html#ab76c7e53bbf0deef2642b48fd692a691" target="_top" xlink:title="fast_udiv_init">
<polygon fill="none" stroke="#000000" points="223,-.5 223,-19.5 297,-19.5 297,-.5 223,-.5"/>
<text text-anchor="middle" x="260" y="-7.5" font-family="Helvetica,sans-Serif" font-size="10.00" fill="#000000">fast_udiv_init</text>
</a>
</g>
</g>
<!-- Node1633&#45;&gt;Node1634 -->
<g id="edge2" class="edge">
<title>Node1633&#45;&gt;Node1634</title>
<path fill="none" stroke="#191970" d="M187.027,-10C195.2893,-10 204.212,-10 212.8869,-10"/>
<polygon fill="#191970" stroke="#191970" points="212.9024,-13.5001 222.9023,-10 212.9023,-6.5001 212.9024,-13.5001"/>
</g>
<!-- Node1635 -->
<g id="node4" class="node">
<title>Node1635</title>
<g id="a_node4"><a xlink:href="cutils_8h.html#a28eb00e6774a2dd724b86fb6f83c1bf6" target="_top" xlink:title="clz64">
<polygon fill="none" stroke="#000000" points="333,-.5 333,-19.5 373,-19.5 373,-.5 333,-.5"/>
<text text-anchor="middle" x="353" y="-7.5" font-family="Helvetica,sans-Serif" font-size="10.00" fill="#000000">clz64</text>
</a>
</g>
</g>
<!-- Node1634&#45;&gt;Node1635 -->
<g id="edge3" class="edge">
<title>Node1634&#45;&gt;Node1635</title>
<path fill="none" stroke="#191970" d="M297.0233,-10C305.5466,-10 314.5135,-10 322.7118,-10"/>
<polygon fill="#191970" stroke="#191970" points="322.9447,-13.5001 332.9447,-10 322.9447,-6.5001 322.9447,-13.5001"/>
</g>
</g>
</svg>
