<?xml version="1.0" encoding="UTF-8" standalone="no"?>
<!DOCTYPE svg PUBLIC "-//W3C//DTD SVG 1.1//EN"
 "http://www.w3.org/Graphics/SVG/1.1/DTD/svg11.dtd">
<!-- Generated by graphviz version 2.40.1 (20161225.0304)
 -->
<!-- Title: bf_is_nan Pages: 1 -->
<!--zoomable 294 -->
<svg id="main" version="1.1" xmlns="http://www.w3.org/2000/svg" xmlns:xlink="http://www.w3.org/1999/xlink" xml:space="preserve" onload="init(evt)">
<style type="text/css"><![CDATA[
.edge:hover path { stroke: red; }
.edge:hover polygon { stroke: red; fill: red; }
]]></style>
<script type="text/javascript"><![CDATA[
var edges = document.getElementsByTagName('g');
if (edges && edges.length) {
  for (var i=0;i<edges.length;i++) {
    if (edges[i].id.substr(0,4)=='edge') {
      edges[i].setAttribute('class','edge');
    }
  }
}
]]></script>
        <defs>
                <circle id="rim" cx="0" cy="0" r="7"/>
                <circle id="rim2" cx="0" cy="0" r="3.5"/>
                <g id="zoomPlus">
                        <use xlink:href="#rim" fill="#404040">
                                <set attributeName="fill" to="#808080" begin="zoomplus.mouseover" end="zoomplus.mouseout"/>
                        </use>
                        <path d="M-4,0h8M0,-4v8" fill="none" stroke="white" stroke-width="1.5" pointer-events="none"/>
                </g>
                <g id="zoomMin">
                        <use xlink:href="#rim" fill="#404040">
                                <set attributeName="fill" to="#808080" begin="zoomminus.mouseover" end="zoomminus.mouseout"/>
                        </use>
                        <path d="M-4,0h8" fill="none" stroke="white" stroke-width="1.5" pointer-events="none"/>
                </g>
                <g id="dirArrow">
                        <path fill="none" stroke="white" stroke-width="1.5" d="M0,-3.0v7 M-2.5,-0.5L0,-3.0L2.5,-0.5"/>
                </g>
               <g id="resetDef">
                       <use xlink:href="#rim2" fill="#404040">
                               <set attributeName="fill" to="#808080" begin="reset.mouseover" end="reset.mouseout"/>
                       </use>
               </g>
        </defs>

<script type="text/javascript">
var viewWidth = 768;
var viewHeight = 294;
var sectionId = 'dynsection-20';
</script>
<script xlink:href="svgpan.js"/>
<svg id="graph" class="graph">
<g id="viewport">
<title>bf_is_nan</title>
<!-- Node4770 -->
<g id="node1" class="node">
<title>Node4770</title>
<polygon fill="#bfbfbf" stroke="#000000" points="0,-76.5 0,-95.5 59,-95.5 59,-76.5 0,-76.5"/>
<text text-anchor="middle" x="29.5" y="-83.5" font-family="Helvetica,sans-Serif" font-size="10.00" fill="#000000">bf_is_nan</text>
</g>
<!-- Node4771 -->
<g id="node2" class="node">
<title>Node4771</title>
<g id="a_node2"><a xlink:href="libbf_8h.html#a951ec20cd7fa3bf021d165b213e15ce4" target="_top" xlink:title="bf_divrem">
<polygon fill="none" stroke="#000000" points="254.5,-152.5 254.5,-171.5 313.5,-171.5 313.5,-152.5 254.5,-152.5"/>
<text text-anchor="middle" x="284" y="-159.5" font-family="Helvetica,sans-Serif" font-size="10.00" fill="#000000">bf_divrem</text>
</a>
</g>
</g>
<!-- Node4770&#45;&gt;Node4771 -->
<g id="edge1" class="edge">
<title>Node4770&#45;&gt;Node4771</title>
<path fill="none" stroke="#191970" d="M43.8493,-103.3072C55.9802,-116.6189 74.6047,-134.1802 95,-143 147.6679,-165.7758 216.0536,-166.3683 254.4596,-164.411"/>
<polygon fill="#191970" stroke="#191970" points="46.3972,-100.904 37.1775,-95.684 41.1297,-105.5141 46.3972,-100.904"/>
</g>
<!-- Node4790 -->
<g id="node13" class="node">
<title>Node4790</title>
<g id="a_node13"><a xlink:href="libbf_8h.html#ae080fd42a2c7fc561d7084762204357e" target="_top" xlink:title="bf_sqrtrem">
<polygon fill="none" stroke="#000000" points="111.5,-114.5 111.5,-133.5 174.5,-133.5 174.5,-114.5 111.5,-114.5"/>
<text text-anchor="middle" x="143" y="-121.5" font-family="Helvetica,sans-Serif" font-size="10.00" fill="#000000">bf_sqrtrem</text>
</a>
</g>
</g>
<!-- Node4770&#45;&gt;Node4790 -->
<g id="edge13" class="edge">
<title>Node4770&#45;&gt;Node4790</title>
<path fill="none" stroke="#191970" d="M67.809,-98.8259C83.0383,-103.9247 100.2556,-109.6891 114.3683,-114.4141"/>
<polygon fill="#191970" stroke="#191970" points="68.7347,-95.445 58.1408,-95.589 66.5123,-102.0828 68.7347,-95.445"/>
</g>
<!-- Node4779 -->
<g id="node17" class="node">
<title>Node4779</title>
<g id="a_node17"><a xlink:href="quickjs_8c.html#af8435aca7fa84b4be13710a0311d990b" target="_top" xlink:title="js_bigfloat_fop">
<polygon fill="none" stroke="#000000" points="103,-76.5 103,-95.5 183,-95.5 183,-76.5 103,-76.5"/>
<text text-anchor="middle" x="143" y="-83.5" font-family="Helvetica,sans-Serif" font-size="10.00" fill="#000000">js_bigfloat_fop</text>
</a>
</g>
</g>
<!-- Node4770&#45;&gt;Node4779 -->
<g id="edge20" class="edge">
<title>Node4770&#45;&gt;Node4779</title>
<path fill="none" stroke="#191970" d="M69.1666,-86C80.1063,-86 91.98,-86 102.9417,-86"/>
<polygon fill="#191970" stroke="#191970" points="69.0245,-82.5001 59.0245,-86 69.0245,-89.5001 69.0245,-82.5001"/>
</g>
<!-- Node4794 -->
<g id="node18" class="node">
<title>Node4794</title>
<g id="a_node18"><a xlink:href="quickjs_8c.html#af5a7bd13b47d5c2de41e92111bf21305" target="_top" xlink:title="js_math_min_max">
<polygon fill="none" stroke="#000000" points="95,-38.5 95,-57.5 191,-57.5 191,-38.5 95,-38.5"/>
<text text-anchor="middle" x="143" y="-45.5" font-family="Helvetica,sans-Serif" font-size="10.00" fill="#000000">js_math_min_max</text>
</a>
</g>
</g>
<!-- Node4770&#45;&gt;Node4794 -->
<g id="edge21" class="edge">
<title>Node4770&#45;&gt;Node4794</title>
<path fill="none" stroke="#191970" d="M67.809,-73.1741C83.0383,-68.0753 100.2556,-62.3109 114.3683,-57.5859"/>
<polygon fill="#191970" stroke="#191970" points="66.5123,-69.9172 58.1408,-76.411 68.7347,-76.555 66.5123,-69.9172"/>
</g>
<!-- Node4795 -->
<g id="node19" class="node">
<title>Node4795</title>
<g id="a_node19"><a xlink:href="quickjs_8c.html#a4985d9fd12208519be70abef27263906" target="_top" xlink:title="JS_ToIntegerFree">
<polygon fill="none" stroke="#000000" points="95.5,-.5 95.5,-19.5 190.5,-19.5 190.5,-.5 95.5,-.5"/>
<text text-anchor="middle" x="143" y="-7.5" font-family="Helvetica,sans-Serif" font-size="10.00" fill="#000000">JS_ToIntegerFree</text>
</a>
</g>
</g>
<!-- Node4770&#45;&gt;Node4795 -->
<g id="edge22" class="edge">
<title>Node4770&#45;&gt;Node4795</title>
<path fill="none" stroke="#191970" d="M45.8247,-68.9664C58.3718,-56.6147 76.6176,-40.1824 95,-29 100.9724,-25.3668 107.7615,-22.1838 114.3151,-19.5138"/>
<polygon fill="#191970" stroke="#191970" points="43.0125,-66.8317 38.4582,-76.3978 47.984,-71.7597 43.0125,-66.8317"/>
</g>
<!-- Node4772 -->
<g id="node3" class="node">
<title>Node4772</title>
<g id="a_node3"><a xlink:href="libbf_8h.html#ae77a04e5fc238cfb6ed7b1db3a34594b" target="_top" xlink:title="bf_fmod">
<polygon fill="none" stroke="#000000" points="387.5,-190.5 387.5,-209.5 439.5,-209.5 439.5,-190.5 387.5,-190.5"/>
<text text-anchor="middle" x="413.5" y="-197.5" font-family="Helvetica,sans-Serif" font-size="10.00" fill="#000000">bf_fmod</text>
</a>
</g>
</g>
<!-- Node4771&#45;&gt;Node4772 -->
<g id="edge2" class="edge">
<title>Node4771&#45;&gt;Node4772</title>
<path fill="none" stroke="#191970" d="M323.52,-173.5966C344.2687,-179.685 369.1148,-186.9758 387.4361,-192.3519"/>
<polygon fill="#191970" stroke="#191970" points="324.2908,-170.1753 313.7099,-170.718 322.3198,-176.8921 324.2908,-170.1753"/>
</g>
<!-- Node4774 -->
<g id="node5" class="node">
<title>Node4774</title>
<g id="a_node5"><a xlink:href="libbf_8h.html#a6ba75f960fe4a2b08604b89e49b4e94b" target="_top" xlink:title="bf_remainder">
<polygon fill="none" stroke="#000000" points="377,-152.5 377,-171.5 450,-171.5 450,-152.5 377,-152.5"/>
<text text-anchor="middle" x="413.5" y="-159.5" font-family="Helvetica,sans-Serif" font-size="10.00" fill="#000000">bf_remainder</text>
</a>
</g>
</g>
<!-- Node4771&#45;&gt;Node4774 -->
<g id="edge4" class="edge">
<title>Node4771&#45;&gt;Node4774</title>
<path fill="none" stroke="#191970" d="M323.8622,-162C340.8065,-162 360.4328,-162 376.9934,-162"/>
<polygon fill="#191970" stroke="#191970" points="323.71,-158.5001 313.7099,-162 323.7099,-165.5001 323.71,-158.5001"/>
</g>
<!-- Node4775 -->
<g id="node6" class="node">
<title>Node4775</title>
<g id="a_node6"><a xlink:href="libbf_8h.html#ac05bdf08f7852acc28d905777ef1416c" target="_top" xlink:title="bf_remquo">
<polygon fill="none" stroke="#000000" points="382.5,-266.5 382.5,-285.5 444.5,-285.5 444.5,-266.5 382.5,-266.5"/>
<text text-anchor="middle" x="413.5" y="-273.5" font-family="Helvetica,sans-Serif" font-size="10.00" fill="#000000">bf_remquo</text>
</a>
</g>
</g>
<!-- Node4771&#45;&gt;Node4775 -->
<g id="edge6" class="edge">
<title>Node4771&#45;&gt;Node4775</title>
<path fill="none" stroke="#191970" d="M298.1039,-179.4543C315.2183,-199.8586 345.6899,-233.7858 377,-257 381.7057,-260.489 387.1417,-263.6922 392.3574,-266.4348"/>
<polygon fill="#191970" stroke="#191970" points="300.6902,-177.0895 291.6234,-171.6082 295.2931,-181.5473 300.6902,-177.0895"/>
</g>
<!-- Node4784 -->
<g id="node8" class="node">
<title>Node4784</title>
<g id="a_node8"><a xlink:href="quickjs_8c.html#a916e386a73c9738a5e33109c83a4e3a8" target="_top" xlink:title="js_binary_arith_bigfloat">
<polygon fill="none" stroke="#000000" points="486,-105.5 486,-124.5 602,-124.5 602,-105.5 486,-105.5"/>
<text text-anchor="middle" x="544" y="-112.5" font-family="Helvetica,sans-Serif" font-size="10.00" fill="#000000">js_binary_arith_bigfloat</text>
</a>
</g>
</g>
<!-- Node4771&#45;&gt;Node4784 -->
<g id="edge8" class="edge">
<title>Node4771&#45;&gt;Node4784</title>
<path fill="none" stroke="#191970" d="M323.5437,-153.5994C340.0431,-150.1781 359.4237,-146.2678 377,-143 413.1281,-136.283 453.7907,-129.4498 485.9461,-124.2154"/>
<polygon fill="#191970" stroke="#191970" points="322.7591,-150.1876 313.6848,-155.6564 324.1889,-157.0401 322.7591,-150.1876"/>
</g>
<!-- Node4786 -->
<g id="node10" class="node">
<title>Node4786</title>
<g id="a_node10"><a xlink:href="quickjs_8c.html#a69d448a344a95318ee4ce862ccc21251" target="_top" xlink:title="js_binary_arith_bigint">
<polygon fill="none" stroke="#000000" points="490,-48.5 490,-67.5 598,-67.5 598,-48.5 490,-48.5"/>
<text text-anchor="middle" x="544" y="-55.5" font-family="Helvetica,sans-Serif" font-size="10.00" fill="#000000">js_binary_arith_bigint</text>
</a>
</g>
</g>
<!-- Node4771&#45;&gt;Node4786 -->
<g id="edge10" class="edge">
<title>Node4771&#45;&gt;Node4786</title>
<path fill="none" stroke="#191970" d="M323.1188,-153.6638C329.5926,-151.0238 335.8595,-147.555 341,-143 368.9735,-118.2125 345.9666,-87.8295 377,-67 412.1979,-43.3753 461.566,-43.7702 497.4931,-48.4715"/>
<polygon fill="#191970" stroke="#191970" points="321.8932,-150.3843 313.5929,-156.9687 324.1877,-156.9976 321.8932,-150.3843"/>
</g>
<!-- Node4789 -->
<g id="node12" class="node">
<title>Node4789</title>
<g id="a_node12"><a xlink:href="quickjs_8c.html#a00c02de2b16f15d8ed2218711defcc91" target="_top" xlink:title="js_bigint_div">
<polygon fill="none" stroke="#000000" points="378,-228.5 378,-247.5 449,-247.5 449,-228.5 378,-228.5"/>
<text text-anchor="middle" x="413.5" y="-235.5" font-family="Helvetica,sans-Serif" font-size="10.00" fill="#000000">js_bigint_div</text>
</a>
</g>
</g>
<!-- Node4771&#45;&gt;Node4789 -->
<g id="edge12" class="edge">
<title>Node4771&#45;&gt;Node4789</title>
<path fill="none" stroke="#191970" d="M307.6464,-177.1246C326.2815,-188.8895 353.0306,-205.4378 377,-219 382.5959,-222.1662 388.7684,-225.4545 394.4205,-228.3877"/>
<polygon fill="#191970" stroke="#191970" points="309.268,-174.0086 298.9485,-171.6087 305.519,-179.9201 309.268,-174.0086"/>
</g>
<!-- Node4773 -->
<g id="node4" class="node">
<title>Node4773</title>
<g id="a_node4"><a xlink:href="quickjs_8c.html#aa8ee7b99edb58d78277e8de851c48279" target="_top" xlink:title="js_bigfloat_fop2">
<polygon fill="none" stroke="#000000" points="501.5,-152.5 501.5,-171.5 586.5,-171.5 586.5,-152.5 501.5,-152.5"/>
<text text-anchor="middle" x="544" y="-159.5" font-family="Helvetica,sans-Serif" font-size="10.00" fill="#000000">js_bigfloat_fop2</text>
</a>
</g>
</g>
<!-- Node4772&#45;&gt;Node4773 -->
<g id="edge3" class="edge">
<title>Node4772&#45;&gt;Node4773</title>
<path fill="none" stroke="#191970" d="M449.2309,-189.5956C468.5094,-183.9819 492.1439,-177.0998 510.9877,-171.6128"/>
<polygon fill="#191970" stroke="#191970" points="448.2177,-186.2452 439.595,-192.4015 450.1748,-192.9661 448.2177,-186.2452"/>
</g>
<!-- Node4774&#45;&gt;Node4773 -->
<g id="edge5" class="edge">
<title>Node4774&#45;&gt;Node4773</title>
<path fill="none" stroke="#191970" d="M460.5435,-162C473.7914,-162 488.1277,-162 501.1183,-162"/>
<polygon fill="#191970" stroke="#191970" points="460.1988,-158.5001 450.1988,-162 460.1988,-165.5001 460.1988,-158.5001"/>
</g>
<!-- Node4776 -->
<g id="node7" class="node">
<title>Node4776</title>
<g id="a_node7"><a xlink:href="libbf_8c.html#ab769247f7a6429c42dfeba4f8334cb75" target="_top" xlink:title="bf_sincos">
<polygon fill="none" stroke="#ff0000" points="514.5,-266.5 514.5,-285.5 573.5,-285.5 573.5,-266.5 514.5,-266.5"/>
<text text-anchor="middle" x="544" y="-273.5" font-family="Helvetica,sans-Serif" font-size="10.00" fill="#000000">bf_sincos</text>
</a>
</g>
</g>
<!-- Node4775&#45;&gt;Node4776 -->
<g id="edge7" class="edge">
<title>Node4775&#45;&gt;Node4776</title>
<path fill="none" stroke="#191970" d="M454.8183,-276C474.1507,-276 496.7366,-276 514.3416,-276"/>
<polygon fill="#191970" stroke="#191970" points="454.758,-272.5001 444.758,-276 454.758,-279.5001 454.758,-272.5001"/>
</g>
<!-- Node4785 -->
<g id="node9" class="node">
<title>Node4785</title>
<g id="a_node9"><a xlink:href="quickjs_8c.html#af801f296acb2c259e3202ec2dece219d" target="_top" xlink:title="JS_AddIntrinsicBigFloat">
<polygon fill="none" stroke="#000000" points="638,-105.5 638,-124.5 760,-124.5 760,-105.5 638,-105.5"/>
<text text-anchor="middle" x="699" y="-112.5" font-family="Helvetica,sans-Serif" font-size="10.00" fill="#000000">JS_AddIntrinsicBigFloat</text>
</a>
</g>
</g>
<!-- Node4784&#45;&gt;Node4785 -->
<g id="edge9" class="edge">
<title>Node4784&#45;&gt;Node4785</title>
<path fill="none" stroke="#191970" d="M612.4174,-115C620.9118,-115 629.5538,-115 637.9276,-115"/>
<polygon fill="#191970" stroke="#191970" points="612.1573,-111.5001 602.1573,-115 612.1572,-118.5001 612.1573,-111.5001"/>
</g>
<!-- Node4787 -->
<g id="node11" class="node">
<title>Node4787</title>
<g id="a_node11"><a xlink:href="quickjs_8c.html#a0f5b03638045aa0856f9b8fb0d5c0fb4" target="_top" xlink:title="JS_AddIntrinsicBigInt">
<polygon fill="none" stroke="#ff0000" points="643.5,-48.5 643.5,-67.5 754.5,-67.5 754.5,-48.5 643.5,-48.5"/>
<text text-anchor="middle" x="699" y="-55.5" font-family="Helvetica,sans-Serif" font-size="10.00" fill="#000000">JS_AddIntrinsicBigInt</text>
</a>
</g>
</g>
<!-- Node4786&#45;&gt;Node4787 -->
<g id="edge11" class="edge">
<title>Node4786&#45;&gt;Node4787</title>
<path fill="none" stroke="#191970" d="M608.2801,-58C619.888,-58 631.9035,-58 643.2433,-58"/>
<polygon fill="#191970" stroke="#191970" points="608.2115,-54.5001 598.2115,-58 608.2114,-61.5001 608.2115,-54.5001"/>
</g>
<!-- Node4791 -->
<g id="node14" class="node">
<title>Node4791</title>
<g id="a_node14"><a xlink:href="libbf_8c.html#ace5bdd7550302e2fb4b14c3a907dee7b" target="_top" xlink:title="check_exact_power2n">
<polygon fill="none" stroke="#000000" points="227,-76.5 227,-95.5 341,-95.5 341,-76.5 227,-76.5"/>
<text text-anchor="middle" x="284" y="-83.5" font-family="Helvetica,sans-Serif" font-size="10.00" fill="#000000">check_exact_power2n</text>
</a>
</g>
</g>
<!-- Node4790&#45;&gt;Node4791 -->
<g id="edge14" class="edge">
<title>Node4790&#45;&gt;Node4791</title>
<path fill="none" stroke="#191970" d="M184.3229,-112.8633C204.7704,-107.3527 229.194,-100.7704 248.7473,-95.5007"/>
<polygon fill="#191970" stroke="#191970" points="183.3879,-109.4904 174.6432,-115.4721 185.2094,-116.2492 183.3879,-109.4904"/>
</g>
<!-- Node4793 -->
<g id="node16" class="node">
<title>Node4793</title>
<g id="a_node16"><a xlink:href="quickjs_8c.html#a4f87265a4db5dcaba49c1e93314983f1" target="_top" xlink:title="js_bigint_sqrt">
<polygon fill="none" stroke="#000000" points="247,-114.5 247,-133.5 321,-133.5 321,-114.5 247,-114.5"/>
<text text-anchor="middle" x="284" y="-121.5" font-family="Helvetica,sans-Serif" font-size="10.00" fill="#000000">js_bigint_sqrt</text>
</a>
</g>
</g>
<!-- Node4790&#45;&gt;Node4793 -->
<g id="edge19" class="edge">
<title>Node4790&#45;&gt;Node4793</title>
<path fill="none" stroke="#191970" d="M184.8794,-124C204.5957,-124 227.9091,-124 246.9712,-124"/>
<polygon fill="#191970" stroke="#191970" points="184.6432,-120.5001 174.6432,-124 184.6431,-127.5001 184.6432,-120.5001"/>
</g>
<!-- Node4792 -->
<g id="node15" class="node">
<title>Node4792</title>
<g id="a_node15"><a xlink:href="libbf_8h.html#a93fe073491f8c5f086a75e7bf8865b34" target="_top" xlink:title="bf_pow">
<polygon fill="none" stroke="#000000" points="389.5,-76.5 389.5,-95.5 437.5,-95.5 437.5,-76.5 389.5,-76.5"/>
<text text-anchor="middle" x="413.5" y="-83.5" font-family="Helvetica,sans-Serif" font-size="10.00" fill="#000000">bf_pow</text>
</a>
</g>
</g>
<!-- Node4791&#45;&gt;Node4792 -->
<g id="edge15" class="edge">
<title>Node4791&#45;&gt;Node4792</title>
<path fill="none" stroke="#191970" d="M351.547,-86C365.1169,-86 378.5228,-86 389.3745,-86"/>
<polygon fill="#191970" stroke="#191970" points="351.1776,-82.5001 341.1775,-86 351.1775,-89.5001 351.1776,-82.5001"/>
</g>
<!-- Node4792&#45;&gt;Node4773 -->
<g id="edge18" class="edge">
<title>Node4792&#45;&gt;Node4773</title>
<path fill="none" stroke="#191970" d="M435.3159,-101.5618C449.4609,-111.3691 468.4566,-124.0184 486,-134 497.7594,-140.6907 511.3599,-147.3119 522.434,-152.4346"/>
<polygon fill="#191970" stroke="#191970" points="436.9832,-98.4564 426.7851,-95.584 432.9661,-104.189 436.9832,-98.4564"/>
</g>
<!-- Node4792&#45;&gt;Node4784 -->
<g id="edge16" class="edge">
<title>Node4792&#45;&gt;Node4784</title>
<path fill="none" stroke="#191970" d="M447.9167,-93.6482C464.225,-97.2722 483.8703,-101.6378 501.136,-105.4747"/>
<polygon fill="#191970" stroke="#191970" points="448.2614,-90.1394 437.7402,-91.3867 446.7428,-96.9727 448.2614,-90.1394"/>
</g>
<!-- Node4792&#45;&gt;Node4786 -->
<g id="edge17" class="edge">
<title>Node4792&#45;&gt;Node4786</title>
<path fill="none" stroke="#191970" d="M447.6502,-78.6728C463.5169,-75.2684 482.586,-71.1769 499.5576,-67.5355"/>
<polygon fill="#191970" stroke="#191970" points="446.7834,-75.279 437.7402,-80.799 448.252,-82.1232 446.7834,-75.279"/>
</g>
<!-- Node4796 -->
<g id="node20" class="node">
<title>Node4796</title>
<g id="a_node20"><a xlink:href="quickjs_8c.html#a0586dbbd419acfaca58bb867e3a39ed3" target="_top" xlink:title="js_atomics_store">
<polygon fill="none" stroke="#000000" points="238.5,-.5 238.5,-19.5 329.5,-19.5 329.5,-.5 238.5,-.5"/>
<text text-anchor="middle" x="284" y="-7.5" font-family="Helvetica,sans-Serif" font-size="10.00" fill="#000000">js_atomics_store</text>
</a>
</g>
</g>
<!-- Node4795&#45;&gt;Node4796 -->
<g id="edge23" class="edge">
<title>Node4795&#45;&gt;Node4796</title>
<path fill="none" stroke="#191970" d="M200.9987,-10C213.4073,-10 226.3497,-10 238.2213,-10"/>
<polygon fill="#191970" stroke="#191970" points="200.7362,-6.5001 190.7362,-10 200.7361,-13.5001 200.7362,-6.5001"/>
</g>
</g>
</svg>
        <g id="navigator" transform="translate(0 0)" fill="#404254">
                <rect fill="#f2f5e9" fill-opacity="0.5" stroke="#606060" stroke-width=".5" x="0" y="0" width="60" height="60"/>
                <use id="zoomplus" xlink:href="#zoomPlus" x="17" y="9" onmousedown="handleZoom(evt,'in')"/>
                <use id="zoomminus" xlink:href="#zoomMin" x="42" y="9" onmousedown="handleZoom(evt,'out')"/>
                <use id="reset" xlink:href="#resetDef" x="30" y="36" onmousedown="handleReset()"/>
                <g id="arrowUp" xlink:href="#dirArrow" transform="translate(30 24)" onmousedown="handlePan(0,-1)">
                  <use xlink:href="#rim" fill="#404040">
                        <set attributeName="fill" to="#808080" begin="arrowUp.mouseover" end="arrowUp.mouseout"/>
                  </use>
                  <path fill="none" stroke="white" stroke-width="1.5" d="M0,-3.0v7 M-2.5,-0.5L0,-3.0L2.5,-0.5"/>
                </g>
                <g id="arrowRight" xlink:href="#dirArrow" transform="rotate(90) translate(36 -43)" onmousedown="handlePan(1,0)">
                  <use xlink:href="#rim" fill="#404040">
                        <set attributeName="fill" to="#808080" begin="arrowRight.mouseover" end="arrowRight.mouseout"/>
                  </use>
                  <path fill="none" stroke="white" stroke-width="1.5" d="M0,-3.0v7 M-2.5,-0.5L0,-3.0L2.5,-0.5"/>
                </g>
                <g id="arrowDown" xlink:href="#dirArrow" transform="rotate(180) translate(-30 -48)" onmousedown="handlePan(0,1)">
                  <use xlink:href="#rim" fill="#404040">
                        <set attributeName="fill" to="#808080" begin="arrowDown.mouseover" end="arrowDown.mouseout"/>
                  </use>
                  <path fill="none" stroke="white" stroke-width="1.5" d="M0,-3.0v7 M-2.5,-0.5L0,-3.0L2.5,-0.5"/>
                </g>
                <g id="arrowLeft" xlink:href="#dirArrow" transform="rotate(270) translate(-36 17)" onmousedown="handlePan(-1,0)">
                  <use xlink:href="#rim" fill="#404040">
                        <set attributeName="fill" to="#808080" begin="arrowLeft.mouseover" end="arrowLeft.mouseout"/>
                  </use>
                  <path fill="none" stroke="white" stroke-width="1.5" d="M0,-3.0v7 M-2.5,-0.5L0,-3.0L2.5,-0.5"/>
                </g>
        </g>
        <svg viewBox="0 0 15 15" width="100%" height="30px" preserveAspectRatio="xMaxYMin meet">
         <g id="arrow_out" transform="scale(0.3 0.3)">
          <a xlink:href="libbf_8h_a3d010062b7a451656d79e48df9c0639e_icgraph_org.svg" target="_base">
           <rect id="button" ry="5" rx="5" y="6" x="6" height="38" width="38"
                fill="#f2f5e9" fill-opacity="0.5" stroke="#606060" stroke-width="1.0"/>
           <path id="arrow"
             d="M 11.500037,31.436501 C 11.940474,20.09759 22.043105,11.32322 32.158766,21.979434 L 37.068811,17.246167 C 37.068811,17.246167 37.088388,32 37.088388,32 L 22.160133,31.978069 C 22.160133,31.978069 26.997745,27.140456 26.997745,27.140456 C 18.528582,18.264221 13.291696,25.230495 11.500037,31.436501 z"
             style="fill:#404040;"/>
          </a>
         </g>
        </svg>
</svg>
