<?xml version="1.0" encoding="UTF-8" standalone="no"?>
<!DOCTYPE svg PUBLIC "-//W3C//DTD SVG 1.1//EN"
 "http://www.w3.org/Graphics/SVG/1.1/DTD/svg11.dtd">
<!-- Generated by graphviz version 2.40.1 (20161225.0304)
 -->
<!-- Title: bf_const_log2 Pages: 1 -->
<!--zoomable 120 -->
<svg id="main" version="1.1" xmlns="http://www.w3.org/2000/svg" xmlns:xlink="http://www.w3.org/1999/xlink" xml:space="preserve" onload="init(evt)">
<style type="text/css"><![CDATA[
.edge:hover path { stroke: red; }
.edge:hover polygon { stroke: red; fill: red; }
]]></style>
<script type="text/javascript"><![CDATA[
var edges = document.getElementsByTagName('g');
if (edges && edges.length) {
  for (var i=0;i<edges.length;i++) {
    if (edges[i].id.substr(0,4)=='edge') {
      edges[i].setAttribute('class','edge');
    }
  }
}
]]></script>
        <defs>
                <circle id="rim" cx="0" cy="0" r="7"/>
                <circle id="rim2" cx="0" cy="0" r="3.5"/>
                <g id="zoomPlus">
                        <use xlink:href="#rim" fill="#404040">
                                <set attributeName="fill" to="#808080" begin="zoomplus.mouseover" end="zoomplus.mouseout"/>
                        </use>
                        <path d="M-4,0h8M0,-4v8" fill="none" stroke="white" stroke-width="1.5" pointer-events="none"/>
                </g>
                <g id="zoomMin">
                        <use xlink:href="#rim" fill="#404040">
                                <set attributeName="fill" to="#808080" begin="zoomminus.mouseover" end="zoomminus.mouseout"/>
                        </use>
                        <path d="M-4,0h8" fill="none" stroke="white" stroke-width="1.5" pointer-events="none"/>
                </g>
                <g id="dirArrow">
                        <path fill="none" stroke="white" stroke-width="1.5" d="M0,-3.0v7 M-2.5,-0.5L0,-3.0L2.5,-0.5"/>
                </g>
               <g id="resetDef">
                       <use xlink:href="#rim2" fill="#404040">
                               <set attributeName="fill" to="#808080" begin="reset.mouseover" end="reset.mouseout"/>
                       </use>
               </g>
        </defs>

<script type="text/javascript">
var viewWidth = 517;
var viewHeight = 120;
var sectionId = 'dynsection-123';
</script>
<script xlink:href="svgpan.js"/>
<svg id="graph" class="graph">
<g id="viewport">
<title>bf_const_log2</title>
<!-- Node19544 -->
<g id="node1" class="node">
<title>Node19544</title>
<polygon fill="#bfbfbf" stroke="#000000" points="0,-57.5 0,-76.5 77,-76.5 77,-57.5 0,-57.5"/>
<text text-anchor="middle" x="38.5" y="-64.5" font-family="Helvetica,sans-Serif" font-size="10.00" fill="#000000">bf_const_log2</text>
</g>
<!-- Node19545 -->
<g id="node2" class="node">
<title>Node19545</title>
<g id="a_node2"><a xlink:href="libbf_8h.html#a36f22f93ba4258209be035a63b80b87f" target="_top" xlink:title="bf_exp">
<polygon fill="none" stroke="#000000" points="258,-76.5 258,-95.5 304,-95.5 304,-76.5 258,-76.5"/>
<text text-anchor="middle" x="281" y="-83.5" font-family="Helvetica,sans-Serif" font-size="10.00" fill="#000000">bf_exp</text>
</a>
</g>
</g>
<!-- Node19544&#45;&gt;Node19545 -->
<g id="edge1" class="edge">
<title>Node19544&#45;&gt;Node19545</title>
<path fill="none" stroke="#191970" d="M60.8653,-81.944C75.1195,-90.5482 94.355,-100.5195 113,-105 160.1035,-116.3193 174.1421,-112.5159 222,-105 234.1191,-103.0967 247.1445,-99.1208 257.8658,-95.2956"/>
<polygon fill="#191970" stroke="#191970" points="62.6057,-78.9042 52.2738,-76.5586 58.8879,-84.8353 62.6057,-78.9042"/>
</g>
<!-- Node19555 -->
<g id="node6" class="node">
<title>Node19555</title>
<g id="a_node6"><a xlink:href="libbf_8c.html#a157194b3c7faaa17e39ae78cd98c4385" target="_top" xlink:title="bf_exp_internal">
<polygon fill="none" stroke="#000000" points="126,-76.5 126,-95.5 209,-95.5 209,-76.5 126,-76.5"/>
<text text-anchor="middle" x="167.5" y="-83.5" font-family="Helvetica,sans-Serif" font-size="10.00" fill="#000000">bf_exp_internal</text>
</a>
</g>
</g>
<!-- Node19544&#45;&gt;Node19555 -->
<g id="edge5" class="edge">
<title>Node19544&#45;&gt;Node19555</title>
<path fill="none" stroke="#191970" d="M87.1471,-74.1651C99.8287,-76.0329 113.382,-78.0291 125.6759,-79.8399"/>
<polygon fill="#191970" stroke="#191970" points="87.6076,-70.6952 77.2043,-72.7006 86.5875,-77.6205 87.6076,-70.6952"/>
</g>
<!-- Node19556 -->
<g id="node7" class="node">
<title>Node19556</title>
<g id="a_node7"><a xlink:href="libbf_8c.html#aab7bc918fdd8dbef25c31c6881c73fdd" target="_top" xlink:title="bf_log_internal">
<polygon fill="none" stroke="#000000" points="127.5,-38.5 127.5,-57.5 207.5,-57.5 207.5,-38.5 127.5,-38.5"/>
<text text-anchor="middle" x="167.5" y="-45.5" font-family="Helvetica,sans-Serif" font-size="10.00" fill="#000000">bf_log_internal</text>
</a>
</g>
</g>
<!-- Node19544&#45;&gt;Node19556 -->
<g id="edge7" class="edge">
<title>Node19544&#45;&gt;Node19556</title>
<path fill="none" stroke="#191970" d="M87.1507,-59.8344C100.4555,-57.8748 114.7194,-55.7739 127.4817,-53.8942"/>
<polygon fill="#191970" stroke="#191970" points="86.5875,-56.3795 77.2043,-61.2994 87.6076,-63.3048 86.5875,-56.3795"/>
</g>
<!-- Node19558 -->
<g id="node9" class="node">
<title>Node19558</title>
<g id="a_node9"><a xlink:href="quickjs_8c.html#a647ac2d4e992bc02c73781b039f825c2" target="_top" xlink:title="js_bigfloat_get_const">
<polygon fill="none" stroke="#000000" points="113,-.5 113,-19.5 222,-19.5 222,-.5 113,-.5"/>
<text text-anchor="middle" x="167.5" y="-7.5" font-family="Helvetica,sans-Serif" font-size="10.00" fill="#000000">js_bigfloat_get_const</text>
</a>
</g>
</g>
<!-- Node19544&#45;&gt;Node19558 -->
<g id="edge11" class="edge">
<title>Node19544&#45;&gt;Node19558</title>
<path fill="none" stroke="#191970" d="M64.7398,-52.5088C78.8265,-45.0134 96.6175,-35.9952 113,-29 120.9252,-25.616 129.6762,-22.3614 137.8038,-19.5311"/>
<polygon fill="#191970" stroke="#191970" points="62.785,-49.5862 55.642,-57.4111 66.1056,-55.7485 62.785,-49.5862"/>
</g>
<!-- Node19546 -->
<g id="node3" class="node">
<title>Node19546</title>
<g id="a_node3"><a xlink:href="libbf_8c.html#aa28c1603087e2aec25b9bb0dae387875" target="_top" xlink:title="bf_pow_generic">
<polygon fill="none" stroke="#000000" points="340,-76.5 340,-95.5 425,-95.5 425,-76.5 340,-76.5"/>
<text text-anchor="middle" x="382.5" y="-83.5" font-family="Helvetica,sans-Serif" font-size="10.00" fill="#000000">bf_pow_generic</text>
</a>
</g>
</g>
<!-- Node19545&#45;&gt;Node19546 -->
<g id="edge2" class="edge">
<title>Node19545&#45;&gt;Node19546</title>
<path fill="none" stroke="#191970" d="M314.0545,-86C322.3324,-86 331.3284,-86 339.9948,-86"/>
<polygon fill="#191970" stroke="#191970" points="314.032,-82.5001 304.0319,-86 314.0319,-89.5001 314.032,-82.5001"/>
</g>
<!-- Node19554 -->
<g id="node5" class="node">
<title>Node19554</title>
<g id="a_node5"><a xlink:href="quickjs_8c.html#af8435aca7fa84b4be13710a0311d990b" target="_top" xlink:title="js_bigfloat_fop">
<polygon fill="none" stroke="#000000" points="342.5,-38.5 342.5,-57.5 422.5,-57.5 422.5,-38.5 342.5,-38.5"/>
<text text-anchor="middle" x="382.5" y="-45.5" font-family="Helvetica,sans-Serif" font-size="10.00" fill="#000000">js_bigfloat_fop</text>
</a>
</g>
</g>
<!-- Node19545&#45;&gt;Node19554 -->
<g id="edge4" class="edge">
<title>Node19545&#45;&gt;Node19554</title>
<path fill="none" stroke="#191970" d="M313.803,-73.7191C327.8324,-68.4667 343.9622,-62.4279 357.0653,-57.5223"/>
<polygon fill="#191970" stroke="#191970" points="312.1699,-70.5932 304.0319,-77.3772 314.6243,-77.1488 312.1699,-70.5932"/>
</g>
<!-- Node19547 -->
<g id="node4" class="node">
<title>Node19547</title>
<g id="a_node4"><a xlink:href="libbf_8h.html#a93fe073491f8c5f086a75e7bf8865b34" target="_top" xlink:title="bf_pow">
<polygon fill="none" stroke="#ff0000" points="461,-76.5 461,-95.5 509,-95.5 509,-76.5 461,-76.5"/>
<text text-anchor="middle" x="485" y="-83.5" font-family="Helvetica,sans-Serif" font-size="10.00" fill="#000000">bf_pow</text>
</a>
</g>
</g>
<!-- Node19546&#45;&gt;Node19547 -->
<g id="edge3" class="edge">
<title>Node19546&#45;&gt;Node19547</title>
<path fill="none" stroke="#191970" d="M435.1882,-86C444.1722,-86 453.0973,-86 460.858,-86"/>
<polygon fill="#191970" stroke="#191970" points="435.0788,-82.5001 425.0788,-86 435.0787,-89.5001 435.0788,-82.5001"/>
</g>
<!-- Node19555&#45;&gt;Node19545 -->
<g id="edge6" class="edge">
<title>Node19555&#45;&gt;Node19545</title>
<path fill="none" stroke="#191970" d="M219.318,-86C232.818,-86 246.693,-86 257.8562,-86"/>
<polygon fill="#191970" stroke="#191970" points="219.1188,-82.5001 209.1187,-86 219.1187,-89.5001 219.1188,-82.5001"/>
</g>
<!-- Node19557 -->
<g id="node8" class="node">
<title>Node19557</title>
<g id="a_node8"><a xlink:href="libbf_8h.html#a4137b2308536cbc92addaeb3f0c79d35" target="_top" xlink:title="bf_log">
<polygon fill="none" stroke="#000000" points="259.5,-38.5 259.5,-57.5 302.5,-57.5 302.5,-38.5 259.5,-38.5"/>
<text text-anchor="middle" x="281" y="-45.5" font-family="Helvetica,sans-Serif" font-size="10.00" fill="#000000">bf_log</text>
</a>
</g>
</g>
<!-- Node19556&#45;&gt;Node19557 -->
<g id="edge8" class="edge">
<title>Node19556&#45;&gt;Node19557</title>
<path fill="none" stroke="#191970" d="M217.5487,-48C232.2524,-48 247.5647,-48 259.4627,-48"/>
<polygon fill="#191970" stroke="#191970" points="217.5159,-44.5001 207.5159,-48 217.5158,-51.5001 217.5159,-44.5001"/>
</g>
<!-- Node19557&#45;&gt;Node19546 -->
<g id="edge9" class="edge">
<title>Node19557&#45;&gt;Node19546</title>
<path fill="none" stroke="#191970" d="M312.0389,-59.6205C326.4638,-65.0209 343.4043,-71.3632 357.0592,-76.4754"/>
<polygon fill="#191970" stroke="#191970" points="313.1179,-56.2872 302.5255,-56.0588 310.6635,-62.8429 313.1179,-56.2872"/>
</g>
<!-- Node19557&#45;&gt;Node19554 -->
<g id="edge10" class="edge">
<title>Node19557&#45;&gt;Node19554</title>
<path fill="none" stroke="#191970" d="M312.5776,-48C321.9388,-48 332.3202,-48 342.1567,-48"/>
<polygon fill="#191970" stroke="#191970" points="312.5256,-44.5001 302.5255,-48 312.5255,-51.5001 312.5256,-44.5001"/>
</g>
</g>
</svg>
        <g id="navigator" transform="translate(0 0)" fill="#404254">
                <rect fill="#f2f5e9" fill-opacity="0.5" stroke="#606060" stroke-width=".5" x="0" y="0" width="60" height="60"/>
                <use id="zoomplus" xlink:href="#zoomPlus" x="17" y="9" onmousedown="handleZoom(evt,'in')"/>
                <use id="zoomminus" xlink:href="#zoomMin" x="42" y="9" onmousedown="handleZoom(evt,'out')"/>
                <use id="reset" xlink:href="#resetDef" x="30" y="36" onmousedown="handleReset()"/>
                <g id="arrowUp" xlink:href="#dirArrow" transform="translate(30 24)" onmousedown="handlePan(0,-1)">
                  <use xlink:href="#rim" fill="#404040">
                        <set attributeName="fill" to="#808080" begin="arrowUp.mouseover" end="arrowUp.mouseout"/>
                  </use>
                  <path fill="none" stroke="white" stroke-width="1.5" d="M0,-3.0v7 M-2.5,-0.5L0,-3.0L2.5,-0.5"/>
                </g>
                <g id="arrowRight" xlink:href="#dirArrow" transform="rotate(90) translate(36 -43)" onmousedown="handlePan(1,0)">
                  <use xlink:href="#rim" fill="#404040">
                        <set attributeName="fill" to="#808080" begin="arrowRight.mouseover" end="arrowRight.mouseout"/>
                  </use>
                  <path fill="none" stroke="white" stroke-width="1.5" d="M0,-3.0v7 M-2.5,-0.5L0,-3.0L2.5,-0.5"/>
                </g>
                <g id="arrowDown" xlink:href="#dirArrow" transform="rotate(180) translate(-30 -48)" onmousedown="handlePan(0,1)">
                  <use xlink:href="#rim" fill="#404040">
                        <set attributeName="fill" to="#808080" begin="arrowDown.mouseover" end="arrowDown.mouseout"/>
                  </use>
                  <path fill="none" stroke="white" stroke-width="1.5" d="M0,-3.0v7 M-2.5,-0.5L0,-3.0L2.5,-0.5"/>
                </g>
                <g id="arrowLeft" xlink:href="#dirArrow" transform="rotate(270) translate(-36 17)" onmousedown="handlePan(-1,0)">
                  <use xlink:href="#rim" fill="#404040">
                        <set attributeName="fill" to="#808080" begin="arrowLeft.mouseover" end="arrowLeft.mouseout"/>
                  </use>
                  <path fill="none" stroke="white" stroke-width="1.5" d="M0,-3.0v7 M-2.5,-0.5L0,-3.0L2.5,-0.5"/>
                </g>
        </g>
        <svg viewBox="0 0 15 15" width="100%" height="30px" preserveAspectRatio="xMaxYMin meet">
         <g id="arrow_out" transform="scale(0.3 0.3)">
          <a xlink:href="libbf_8h_a9660e7199a5e3dd436970b5e2e481516_icgraph_org.svg" target="_base">
           <rect id="button" ry="5" rx="5" y="6" x="6" height="38" width="38"
                fill="#f2f5e9" fill-opacity="0.5" stroke="#606060" stroke-width="1.0"/>
           <path id="arrow"
             d="M 11.500037,31.436501 C 11.940474,20.09759 22.043105,11.32322 32.158766,21.979434 L 37.068811,17.246167 C 37.068811,17.246167 37.088388,32 37.088388,32 L 22.160133,31.978069 C 22.160133,31.978069 26.997745,27.140456 26.997745,27.140456 C 18.528582,18.264221 13.291696,25.230495 11.500037,31.436501 z"
             style="fill:#404040;"/>
          </a>
         </g>
        </svg>
</svg>
