<?xml version="1.0" encoding="UTF-8" standalone="no"?>
<!DOCTYPE svg PUBLIC "-//W3C//DTD SVG 1.1//EN"
 "http://www.w3.org/Graphics/SVG/1.1/DTD/svg11.dtd">
<!-- Generated by graphviz version 2.40.1 (20161225.0304)
 -->
<!-- Title: bf_ftoa Pages: 1 -->
<!--zoomable 256 -->
<svg id="main" version="1.1" xmlns="http://www.w3.org/2000/svg" xmlns:xlink="http://www.w3.org/1999/xlink" xml:space="preserve" onload="init(evt)">
<style type="text/css"><![CDATA[
.edge:hover path { stroke: red; }
.edge:hover polygon { stroke: red; fill: red; }
]]></style>
<script type="text/javascript"><![CDATA[
var edges = document.getElementsByTagName('g');
if (edges && edges.length) {
  for (var i=0;i<edges.length;i++) {
    if (edges[i].id.substr(0,4)=='edge') {
      edges[i].setAttribute('class','edge');
    }
  }
}
]]></script>
        <defs>
                <circle id="rim" cx="0" cy="0" r="7"/>
                <circle id="rim2" cx="0" cy="0" r="3.5"/>
                <g id="zoomPlus">
                        <use xlink:href="#rim" fill="#404040">
                                <set attributeName="fill" to="#808080" begin="zoomplus.mouseover" end="zoomplus.mouseout"/>
                        </use>
                        <path d="M-4,0h8M0,-4v8" fill="none" stroke="white" stroke-width="1.5" pointer-events="none"/>
                </g>
                <g id="zoomMin">
                        <use xlink:href="#rim" fill="#404040">
                                <set attributeName="fill" to="#808080" begin="zoomminus.mouseover" end="zoomminus.mouseout"/>
                        </use>
                        <path d="M-4,0h8" fill="none" stroke="white" stroke-width="1.5" pointer-events="none"/>
                </g>
                <g id="dirArrow">
                        <path fill="none" stroke="white" stroke-width="1.5" d="M0,-3.0v7 M-2.5,-0.5L0,-3.0L2.5,-0.5"/>
                </g>
               <g id="resetDef">
                       <use xlink:href="#rim2" fill="#404040">
                               <set attributeName="fill" to="#808080" begin="reset.mouseover" end="reset.mouseout"/>
                       </use>
               </g>
        </defs>

<script type="text/javascript">
var viewWidth = 511;
var viewHeight = 256;
var sectionId = 'dynsection-98';
</script>
<script xlink:href="svgpan.js"/>
<svg id="graph" class="graph">
<g id="viewport">
<title>bf_ftoa</title>
<!-- Node16597 -->
<g id="node1" class="node">
<title>Node16597</title>
<polygon fill="#bfbfbf" stroke="#000000" points="0,-133.5 0,-152.5 47,-152.5 47,-133.5 0,-133.5"/>
<text text-anchor="middle" x="23.5" y="-140.5" font-family="Helvetica,sans-Serif" font-size="10.00" fill="#000000">bf_ftoa</text>
</g>
<!-- Node16598 -->
<g id="node2" class="node">
<title>Node16598</title>
<g id="a_node2"><a xlink:href="quickjs_8c.html#a1c70a5b8ab7b883612cb9dcbd40d1e62" target="_top" xlink:title="js_bigint_to_string1">
<polygon fill="none" stroke="#000000" points="83,-190.5 83,-209.5 184,-209.5 184,-190.5 83,-190.5"/>
<text text-anchor="middle" x="133.5" y="-197.5" font-family="Helvetica,sans-Serif" font-size="10.00" fill="#000000">js_bigint_to_string1</text>
</a>
</g>
</g>
<!-- Node16597&#45;&gt;Node16598 -->
<g id="edge1" class="edge">
<title>Node16597&#45;&gt;Node16598</title>
<path fill="none" stroke="#191970" d="M51.1188,-157.3116C71.1333,-167.6827 97.6419,-181.419 115.1156,-190.4735"/>
<polygon fill="#191970" stroke="#191970" points="52.6491,-154.1626 42.16,-152.6693 49.4285,-160.3777 52.6491,-154.1626"/>
</g>
<!-- Node16603 -->
<g id="node6" class="node">
<title>Node16603</title>
<g id="a_node6"><a xlink:href="quickjs_8c.html#a1fee789102995207275aacbbaee299cf" target="_top" xlink:title="js_ftoa">
<polygon fill="none" stroke="#000000" points="110.5,-95.5 110.5,-114.5 156.5,-114.5 156.5,-95.5 110.5,-95.5"/>
<text text-anchor="middle" x="133.5" y="-102.5" font-family="Helvetica,sans-Serif" font-size="10.00" fill="#000000">js_ftoa</text>
</a>
</g>
</g>
<!-- Node16597&#45;&gt;Node16603 -->
<g id="edge5" class="edge">
<title>Node16597&#45;&gt;Node16603</title>
<path fill="none" stroke="#191970" d="M56.8173,-131.4904C74.1026,-125.5191 94.7899,-118.3726 110.3188,-113.008"/>
<polygon fill="#191970" stroke="#191970" points="55.4068,-128.2746 47.0978,-134.848 57.6925,-134.8909 55.4068,-128.2746"/>
</g>
<!-- Node16599 -->
<g id="node3" class="node">
<title>Node16599</title>
<g id="a_node3"><a xlink:href="quickjs_8c.html#aeda50211bf9acfe8955578d83e2592b2" target="_top" xlink:title="js_bigint_to_string">
<polygon fill="none" stroke="#000000" points="235,-228.5 235,-247.5 330,-247.5 330,-228.5 235,-228.5"/>
<text text-anchor="middle" x="282.5" y="-235.5" font-family="Helvetica,sans-Serif" font-size="10.00" fill="#000000">js_bigint_to_string</text>
</a>
</g>
</g>
<!-- Node16598&#45;&gt;Node16599 -->
<g id="edge2" class="edge">
<title>Node16598&#45;&gt;Node16599</title>
<path fill="none" stroke="#191970" d="M180.9922,-212.1121C201.7436,-217.4044 225.7282,-223.5213 245.1714,-228.4799"/>
<polygon fill="#191970" stroke="#191970" points="181.6538,-208.6689 171.099,-209.589 179.9239,-215.4518 181.6538,-208.6689"/>
</g>
<!-- Node16602 -->
<g id="node5" class="node">
<title>Node16602</title>
<g id="a_node5"><a xlink:href="quickjs_8c.html#a9df5808a0ad682d04bb1e75092255f06" target="_top" xlink:title="js_bigint_toString">
<polygon fill="none" stroke="#000000" points="236.5,-190.5 236.5,-209.5 328.5,-209.5 328.5,-190.5 236.5,-190.5"/>
<text text-anchor="middle" x="282.5" y="-197.5" font-family="Helvetica,sans-Serif" font-size="10.00" fill="#000000">js_bigint_toString</text>
</a>
</g>
</g>
<!-- Node16598&#45;&gt;Node16602 -->
<g id="edge4" class="edge">
<title>Node16598&#45;&gt;Node16602</title>
<path fill="none" stroke="#191970" d="M194.4167,-200C208.4288,-200 223.1045,-200 236.3695,-200"/>
<polygon fill="#191970" stroke="#191970" points="194.3606,-196.5001 184.3606,-200 194.3606,-203.5001 194.3606,-196.5001"/>
</g>
<!-- Node16600 -->
<g id="node4" class="node">
<title>Node16600</title>
<g id="a_node4"><a xlink:href="quickjs_8c.html#a0f5b03638045aa0856f9b8fb0d5c0fb4" target="_top" xlink:title="JS_AddIntrinsicBigInt">
<polygon fill="none" stroke="#ff0000" points="386.5,-228.5 386.5,-247.5 497.5,-247.5 497.5,-228.5 386.5,-228.5"/>
<text text-anchor="middle" x="442" y="-235.5" font-family="Helvetica,sans-Serif" font-size="10.00" fill="#000000">JS_AddIntrinsicBigInt</text>
</a>
</g>
</g>
<!-- Node16599&#45;&gt;Node16600 -->
<g id="edge3" class="edge">
<title>Node16599&#45;&gt;Node16600</title>
<path fill="none" stroke="#191970" d="M340.4991,-238C355.4474,-238 371.4996,-238 386.3266,-238"/>
<polygon fill="#191970" stroke="#191970" points="340.3553,-234.5001 330.3553,-238 340.3552,-241.5001 340.3553,-234.5001"/>
</g>
<!-- Node16604 -->
<g id="node7" class="node">
<title>Node16604</title>
<g id="a_node7"><a xlink:href="quickjs_8c.html#aec77b0aa1b12eeae8997db64e6ae8037" target="_top" xlink:title="js_bigfloat_to_string">
<polygon fill="none" stroke="#000000" points="230.5,-152.5 230.5,-171.5 334.5,-171.5 334.5,-152.5 230.5,-152.5"/>
<text text-anchor="middle" x="282.5" y="-159.5" font-family="Helvetica,sans-Serif" font-size="10.00" fill="#000000">js_bigfloat_to_string</text>
</a>
</g>
</g>
<!-- Node16603&#45;&gt;Node16604 -->
<g id="edge6" class="edge">
<title>Node16603&#45;&gt;Node16604</title>
<path fill="none" stroke="#191970" d="M162.6798,-118.8539C179.2842,-126.4744 200.5832,-135.8126 220,-143 229.1467,-146.3858 239.2014,-149.641 248.5217,-152.4712"/>
<polygon fill="#191970" stroke="#191970" points="164.0401,-115.6267 153.4956,-114.5947 161.0951,-121.9771 164.0401,-115.6267"/>
</g>
<!-- Node16606 -->
<g id="node9" class="node">
<title>Node16606</title>
<g id="a_node9"><a xlink:href="quickjs_8c.html#a44eef76354aab5c9e67f1ea759e6f05b" target="_top" xlink:title="js_bigfloat_toString">
<polygon fill="none" stroke="#000000" points="232.5,-114.5 232.5,-133.5 332.5,-133.5 332.5,-114.5 232.5,-114.5"/>
<text text-anchor="middle" x="282.5" y="-121.5" font-family="Helvetica,sans-Serif" font-size="10.00" fill="#000000">js_bigfloat_toString</text>
</a>
</g>
</g>
<!-- Node16603&#45;&gt;Node16606 -->
<g id="edge8" class="edge">
<title>Node16603&#45;&gt;Node16606</title>
<path fill="none" stroke="#191970" d="M166.8747,-109.2558C186.1269,-111.7108 210.715,-114.8462 232.2631,-117.594"/>
<polygon fill="#191970" stroke="#191970" points="167.1437,-105.7619 156.7813,-107.9688 166.2582,-112.7056 167.1437,-105.7619"/>
</g>
<!-- Node16607 -->
<g id="node10" class="node">
<title>Node16607</title>
<g id="a_node10"><a xlink:href="quickjs_8c.html#afba0734d966eb748c6ad908bcd7c8605" target="_top" xlink:title="js_bigfloat_toFixed">
<polygon fill="none" stroke="#000000" points="233.5,-76.5 233.5,-95.5 331.5,-95.5 331.5,-76.5 233.5,-76.5"/>
<text text-anchor="middle" x="282.5" y="-83.5" font-family="Helvetica,sans-Serif" font-size="10.00" fill="#000000">js_bigfloat_toFixed</text>
</a>
</g>
</g>
<!-- Node16603&#45;&gt;Node16607 -->
<g id="edge9" class="edge">
<title>Node16603&#45;&gt;Node16607</title>
<path fill="none" stroke="#191970" d="M166.7346,-100.762C186.2853,-98.269 211.3748,-95.0697 233.1955,-92.2871"/>
<polygon fill="#191970" stroke="#191970" points="166.2582,-97.2944 156.7813,-102.0313 167.1437,-104.2381 166.2582,-97.2944"/>
</g>
<!-- Node16608 -->
<g id="node11" class="node">
<title>Node16608</title>
<g id="a_node11"><a xlink:href="quickjs_8c.html#a438f60abbdc18727b147b7fed1cfb4aa" target="_top" xlink:title="js_bigfloat_toExponential">
<polygon fill="none" stroke="#000000" points="220,-38.5 220,-57.5 345,-57.5 345,-38.5 220,-38.5"/>
<text text-anchor="middle" x="282.5" y="-45.5" font-family="Helvetica,sans-Serif" font-size="10.00" fill="#000000">js_bigfloat_toExponential</text>
</a>
</g>
</g>
<!-- Node16603&#45;&gt;Node16608 -->
<g id="edge10" class="edge">
<title>Node16603&#45;&gt;Node16608</title>
<path fill="none" stroke="#191970" d="M162.6798,-91.1461C179.2842,-83.5256 200.5832,-74.1874 220,-67 229.1467,-63.6142 239.2014,-60.359 248.5217,-57.5288"/>
<polygon fill="#191970" stroke="#191970" points="161.0951,-88.0229 153.4956,-95.4053 164.0401,-94.3733 161.0951,-88.0229"/>
</g>
<!-- Node16609 -->
<g id="node12" class="node">
<title>Node16609</title>
<g id="a_node12"><a xlink:href="quickjs_8c.html#af4145aac5df2033bb9254a9745a8b4c3" target="_top" xlink:title="js_bigfloat_toPrecision">
<polygon fill="none" stroke="#000000" points="225,-.5 225,-19.5 340,-19.5 340,-.5 225,-.5"/>
<text text-anchor="middle" x="282.5" y="-7.5" font-family="Helvetica,sans-Serif" font-size="10.00" fill="#000000">js_bigfloat_toPrecision</text>
</a>
</g>
</g>
<!-- Node16603&#45;&gt;Node16609 -->
<g id="edge11" class="edge">
<title>Node16603&#45;&gt;Node16609</title>
<path fill="none" stroke="#191970" d="M148.867,-87.7425C165.0162,-70.5831 191.9316,-44.6266 220,-29 226.8371,-25.1936 234.529,-22.0587 242.1183,-19.51"/>
<polygon fill="#191970" stroke="#191970" points="146.0398,-85.6461 141.8462,-95.3757 151.1919,-90.3849 146.0398,-85.6461"/>
</g>
<!-- Node16605 -->
<g id="node8" class="node">
<title>Node16605</title>
<g id="a_node8"><a xlink:href="quickjs_8c.html#af801f296acb2c259e3202ec2dece219d" target="_top" xlink:title="JS_AddIntrinsicBigFloat">
<polygon fill="none" stroke="#000000" points="381,-152.5 381,-171.5 503,-171.5 503,-152.5 381,-152.5"/>
<text text-anchor="middle" x="442" y="-159.5" font-family="Helvetica,sans-Serif" font-size="10.00" fill="#000000">JS_AddIntrinsicBigFloat</text>
</a>
</g>
</g>
<!-- Node16604&#45;&gt;Node16605 -->
<g id="edge7" class="edge">
<title>Node16604&#45;&gt;Node16605</title>
<path fill="none" stroke="#191970" d="M344.922,-162C356.7109,-162 369.0307,-162 380.7822,-162"/>
<polygon fill="#191970" stroke="#191970" points="344.7263,-158.5001 334.7263,-162 344.7262,-165.5001 344.7263,-158.5001"/>
</g>
</g>
</svg>
        <g id="navigator" transform="translate(0 0)" fill="#404254">
                <rect fill="#f2f5e9" fill-opacity="0.5" stroke="#606060" stroke-width=".5" x="0" y="0" width="60" height="60"/>
                <use id="zoomplus" xlink:href="#zoomPlus" x="17" y="9" onmousedown="handleZoom(evt,'in')"/>
                <use id="zoomminus" xlink:href="#zoomMin" x="42" y="9" onmousedown="handleZoom(evt,'out')"/>
                <use id="reset" xlink:href="#resetDef" x="30" y="36" onmousedown="handleReset()"/>
                <g id="arrowUp" xlink:href="#dirArrow" transform="translate(30 24)" onmousedown="handlePan(0,-1)">
                  <use xlink:href="#rim" fill="#404040">
                        <set attributeName="fill" to="#808080" begin="arrowUp.mouseover" end="arrowUp.mouseout"/>
                  </use>
                  <path fill="none" stroke="white" stroke-width="1.5" d="M0,-3.0v7 M-2.5,-0.5L0,-3.0L2.5,-0.5"/>
                </g>
                <g id="arrowRight" xlink:href="#dirArrow" transform="rotate(90) translate(36 -43)" onmousedown="handlePan(1,0)">
                  <use xlink:href="#rim" fill="#404040">
                        <set attributeName="fill" to="#808080" begin="arrowRight.mouseover" end="arrowRight.mouseout"/>
                  </use>
                  <path fill="none" stroke="white" stroke-width="1.5" d="M0,-3.0v7 M-2.5,-0.5L0,-3.0L2.5,-0.5"/>
                </g>
                <g id="arrowDown" xlink:href="#dirArrow" transform="rotate(180) translate(-30 -48)" onmousedown="handlePan(0,1)">
                  <use xlink:href="#rim" fill="#404040">
                        <set attributeName="fill" to="#808080" begin="arrowDown.mouseover" end="arrowDown.mouseout"/>
                  </use>
                  <path fill="none" stroke="white" stroke-width="1.5" d="M0,-3.0v7 M-2.5,-0.5L0,-3.0L2.5,-0.5"/>
                </g>
                <g id="arrowLeft" xlink:href="#dirArrow" transform="rotate(270) translate(-36 17)" onmousedown="handlePan(-1,0)">
                  <use xlink:href="#rim" fill="#404040">
                        <set attributeName="fill" to="#808080" begin="arrowLeft.mouseover" end="arrowLeft.mouseout"/>
                  </use>
                  <path fill="none" stroke="white" stroke-width="1.5" d="M0,-3.0v7 M-2.5,-0.5L0,-3.0L2.5,-0.5"/>
                </g>
        </g>
        <svg viewBox="0 0 15 15" width="100%" height="30px" preserveAspectRatio="xMaxYMin meet">
         <g id="arrow_out" transform="scale(0.3 0.3)">
          <a xlink:href="libbf_8h_a3ab9f99dbc84f8cce63cf3867b8986e5_icgraph_org.svg" target="_base">
           <rect id="button" ry="5" rx="5" y="6" x="6" height="38" width="38"
                fill="#f2f5e9" fill-opacity="0.5" stroke="#606060" stroke-width="1.0"/>
           <path id="arrow"
             d="M 11.500037,31.436501 C 11.940474,20.09759 22.043105,11.32322 32.158766,21.979434 L 37.068811,17.246167 C 37.068811,17.246167 37.088388,32 37.088388,32 L 22.160133,31.978069 C 22.160133,31.978069 26.997745,27.140456 26.997745,27.140456 C 18.528582,18.264221 13.291696,25.230495 11.500037,31.436501 z"
             style="fill:#404040;"/>
          </a>
         </g>
        </svg>
</svg>
