<?xml version="1.0" encoding="UTF-8" standalone="no"?>
<!DOCTYPE svg PUBLIC "-//W3C//DTD SVG 1.1//EN"
 "http://www.w3.org/Graphics/SVG/1.1/DTD/svg11.dtd">
<!-- Generated by graphviz version 2.40.1 (20161225.0304)
 -->
<!-- Title: __bf_round Pages: 1 -->
<svg width="417pt" height="370pt"
 viewBox="0.00 0.00 417.00 370.00" xmlns="http://www.w3.org/2000/svg" xmlns:xlink="http://www.w3.org/1999/xlink">
<g id="graph0" class="graph" transform="scale(1 1) rotate(0) translate(4 366)">
<title>__bf_round</title>
<!-- Node1556 -->
<g id="node1" class="node">
<title>Node1556</title>
<polygon fill="#bfbfbf" stroke="#000000" points="0,-171.5 0,-190.5 65,-190.5 65,-171.5 0,-171.5"/>
<text text-anchor="middle" x="32.5" y="-178.5" font-family="Helvetica,sans-Serif" font-size="10.00" fill="#000000">__bf_round</text>
</g>
<!-- Node1557 -->
<g id="node2" class="node">
<title>Node1557</title>
<g id="a_node2"><a xlink:href="libbf_8h.html#a933c9dd8c3450f560876d02e3b36b1a5" target="_top" xlink:title="bf_get_exp_bits">
<polygon fill="none" stroke="#000000" points="223,-190.5 223,-209.5 309,-209.5 309,-190.5 223,-190.5"/>
<text text-anchor="middle" x="266" y="-197.5" font-family="Helvetica,sans-Serif" font-size="10.00" fill="#000000">bf_get_exp_bits</text>
</a>
</g>
</g>
<!-- Node1556&#45;&gt;Node1557 -->
<g id="edge1" class="edge">
<title>Node1556&#45;&gt;Node1557</title>
<path fill="none" stroke="#191970" d="M65.4596,-183.6819C103.7133,-186.7947 167.3328,-191.9714 212.6546,-195.6593"/>
<polygon fill="#191970" stroke="#191970" points="212.6409,-199.1696 222.8919,-196.4923 213.2087,-192.1927 212.6409,-199.1696"/>
</g>
<!-- Node1558 -->
<g id="node3" class="node">
<title>Node1558</title>
<g id="a_node3"><a xlink:href="libbf_8c.html#a3d7fdccc1995b3a88b68c5e7a57dce16" target="_top" xlink:title="bf_get_rnd_add">
<polygon fill="none" stroke="#000000" points="102.5,-285.5 102.5,-304.5 185.5,-304.5 185.5,-285.5 102.5,-285.5"/>
<text text-anchor="middle" x="144" y="-292.5" font-family="Helvetica,sans-Serif" font-size="10.00" fill="#000000">bf_get_rnd_add</text>
</a>
</g>
</g>
<!-- Node1556&#45;&gt;Node1558 -->
<g id="edge2" class="edge">
<title>Node1556&#45;&gt;Node1558</title>
<path fill="none" stroke="#191970" d="M41.7524,-190.6996C54.8643,-204.4202 79.6359,-230.2496 101,-252 109.5448,-260.6993 119.1322,-270.3018 127.082,-278.2216"/>
<polygon fill="#191970" stroke="#191970" points="124.8277,-280.9158 134.3867,-285.4848 129.7633,-275.952 124.8277,-280.9158"/>
</g>
<!-- Node1562 -->
<g id="node7" class="node">
<title>Node1562</title>
<g id="a_node7"><a xlink:href="libbf_8c.html#a450dfcc66e1b45403f642a8499219f94" target="_top" xlink:title="limb_mask">
<polygon fill="none" stroke="#000000" points="345,-228.5 345,-247.5 409,-247.5 409,-228.5 345,-228.5"/>
<text text-anchor="middle" x="377" y="-235.5" font-family="Helvetica,sans-Serif" font-size="10.00" fill="#000000">limb_mask</text>
</a>
</g>
</g>
<!-- Node1556&#45;&gt;Node1562 -->
<g id="edge16" class="edge">
<title>Node1556&#45;&gt;Node1562</title>
<path fill="none" stroke="#191970" d="M58.542,-190.5864C71.2065,-194.9324 86.74,-199.8025 101,-203 182.6902,-221.3175 280.2847,-230.8753 334.7986,-235.1382"/>
<polygon fill="#191970" stroke="#191970" points="334.5496,-238.6292 344.7861,-235.8973 335.0802,-231.6494 334.5496,-238.6292"/>
</g>
<!-- Node1563 -->
<g id="node8" class="node">
<title>Node1563</title>
<g id="a_node8"><a xlink:href="libbf_8h.html#ad5f9a8c0c9455250d53b259b1a01c0c0" target="_top" xlink:title="bf_resize">
<polygon fill="none" stroke="#000000" points="349,-57.5 349,-76.5 405,-76.5 405,-57.5 349,-57.5"/>
<text text-anchor="middle" x="377" y="-64.5" font-family="Helvetica,sans-Serif" font-size="10.00" fill="#000000">bf_resize</text>
</a>
</g>
</g>
<!-- Node1556&#45;&gt;Node1563 -->
<g id="edge7" class="edge">
<title>Node1556&#45;&gt;Node1563</title>
<path fill="none" stroke="#191970" d="M43.5061,-171.3925C71.2426,-147.8997 147.214,-87.9442 223,-67 261.318,-56.4104 307.077,-58.1223 338.7063,-61.418"/>
<polygon fill="#191970" stroke="#191970" points="338.5266,-64.9202 348.8599,-62.581 339.3232,-57.9657 338.5266,-64.9202"/>
</g>
<!-- Node1564 -->
<g id="node9" class="node">
<title>Node1564</title>
<g id="a_node9"><a xlink:href="libbf_8c.html#af464f3c1421a7305372819f949667273" target="_top" xlink:title="bf_set_overflow">
<polygon fill="none" stroke="#000000" points="101,-152.5 101,-171.5 187,-171.5 187,-152.5 101,-152.5"/>
<text text-anchor="middle" x="144" y="-159.5" font-family="Helvetica,sans-Serif" font-size="10.00" fill="#000000">bf_set_overflow</text>
</a>
</g>
</g>
<!-- Node1556&#45;&gt;Node1564 -->
<g id="edge8" class="edge">
<title>Node1556&#45;&gt;Node1564</title>
<path fill="none" stroke="#191970" d="M65.0502,-175.4533C73.1764,-174.0686 82.1031,-172.5475 90.9394,-171.0417"/>
<polygon fill="#191970" stroke="#191970" points="91.5602,-174.4865 100.8301,-169.3563 90.3842,-167.5859 91.5602,-174.4865"/>
</g>
<!-- Node1566 -->
<g id="node11" class="node">
<title>Node1566</title>
<g id="a_node11"><a xlink:href="libbf_8h.html#a66631c65c00e92a5840a5085a009602d" target="_top" xlink:title="bf_set_zero">
<polygon fill="none" stroke="#000000" points="110,-.5 110,-19.5 178,-19.5 178,-.5 110,-.5"/>
<text text-anchor="middle" x="144" y="-7.5" font-family="Helvetica,sans-Serif" font-size="10.00" fill="#000000">bf_set_zero</text>
</a>
</g>
</g>
<!-- Node1556&#45;&gt;Node1566 -->
<g id="edge14" class="edge">
<title>Node1556&#45;&gt;Node1566</title>
<path fill="none" stroke="#191970" d="M34.7994,-171.2293C41.2195,-145.7803 61.5113,-76.482 101,-34 104.1632,-30.5971 107.9211,-27.5574 111.8787,-24.88"/>
<polygon fill="#191970" stroke="#191970" points="113.9238,-27.7351 120.7082,-19.5974 110.3298,-21.7281 113.9238,-27.7351"/>
</g>
<!-- Node1559 -->
<g id="node4" class="node">
<title>Node1559</title>
<g id="a_node4"><a xlink:href="libbf_8h.html#a4954f3435332238433d15977d55ae566" target="_top" xlink:title="bf_max">
<polygon fill="none" stroke="#000000" points="241.5,-342.5 241.5,-361.5 290.5,-361.5 290.5,-342.5 241.5,-342.5"/>
<text text-anchor="middle" x="266" y="-349.5" font-family="Helvetica,sans-Serif" font-size="10.00" fill="#000000">bf_max</text>
</a>
</g>
</g>
<!-- Node1558&#45;&gt;Node1559 -->
<g id="edge3" class="edge">
<title>Node1558&#45;&gt;Node1559</title>
<path fill="none" stroke="#191970" d="M163.3967,-304.5454C179.3383,-312.3385 202.5465,-323.565 223,-333 226.8352,-334.7692 230.877,-336.5995 234.8852,-338.3939"/>
<polygon fill="#191970" stroke="#191970" points="233.5035,-341.6099 244.0634,-342.4702 236.3449,-335.2125 233.5035,-341.6099"/>
</g>
<!-- Node1560 -->
<g id="node5" class="node">
<title>Node1560</title>
<g id="a_node5"><a xlink:href="libbf_8c.html#a7e1a60c84d638cde1ac9aabd01d266e1" target="_top" xlink:title="get_bit">
<polygon fill="none" stroke="#000000" points="243,-304.5 243,-323.5 289,-323.5 289,-304.5 243,-304.5"/>
<text text-anchor="middle" x="266" y="-311.5" font-family="Helvetica,sans-Serif" font-size="10.00" fill="#000000">get_bit</text>
</a>
</g>
</g>
<!-- Node1558&#45;&gt;Node1560 -->
<g id="edge4" class="edge">
<title>Node1558&#45;&gt;Node1560</title>
<path fill="none" stroke="#191970" d="M185.6443,-301.4856C200.975,-303.8732 218.1254,-306.5441 232.6322,-308.8034"/>
<polygon fill="#191970" stroke="#191970" points="232.2448,-312.2852 242.6643,-310.3658 233.322,-305.3685 232.2448,-312.2852"/>
</g>
<!-- Node1561 -->
<g id="node6" class="node">
<title>Node1561</title>
<g id="a_node6"><a xlink:href="libbf_8c.html#ad3d895c95a9ac95ae5fe9ea75ce7291f" target="_top" xlink:title="scan_bit_nz">
<polygon fill="none" stroke="#000000" points="231.5,-266.5 231.5,-285.5 300.5,-285.5 300.5,-266.5 231.5,-266.5"/>
<text text-anchor="middle" x="266" y="-273.5" font-family="Helvetica,sans-Serif" font-size="10.00" fill="#000000">scan_bit_nz</text>
</a>
</g>
</g>
<!-- Node1558&#45;&gt;Node1561 -->
<g id="edge5" class="edge">
<title>Node1558&#45;&gt;Node1561</title>
<path fill="none" stroke="#191970" d="M185.6443,-288.5144C197.1763,-286.7184 209.7379,-284.7621 221.4295,-282.9413"/>
<polygon fill="#191970" stroke="#191970" points="222.0899,-286.3807 231.4322,-281.3835 221.0127,-279.4641 222.0899,-286.3807"/>
</g>
<!-- Node1561&#45;&gt;Node1562 -->
<g id="edge6" class="edge">
<title>Node1561&#45;&gt;Node1562</title>
<path fill="none" stroke="#191970" d="M294.01,-266.411C307.6817,-261.7306 324.331,-256.0308 339.1184,-250.9685"/>
<polygon fill="#191970" stroke="#191970" points="340.6716,-254.1362 348.999,-247.5859 338.4044,-247.5136 340.6716,-254.1362"/>
</g>
<!-- Node1564&#45;&gt;Node1557 -->
<g id="edge9" class="edge">
<title>Node1564&#45;&gt;Node1557</title>
<path fill="none" stroke="#191970" d="M174.7858,-171.589C190.1013,-176.3594 208.8166,-182.1888 225.2998,-187.3229"/>
<polygon fill="#191970" stroke="#191970" points="224.6356,-190.7818 235.2241,-190.4141 226.7174,-184.0985 224.6356,-190.7818"/>
</g>
<!-- Node1564&#45;&gt;Node1562 -->
<g id="edge13" class="edge">
<title>Node1564&#45;&gt;Node1562</title>
<path fill="none" stroke="#191970" d="M187.0877,-160.2928C221.4355,-160.4751 270.0604,-164.2543 309,-181 329.8601,-189.9708 349.243,-207.5092 361.9337,-220.7743"/>
<polygon fill="#191970" stroke="#191970" points="359.5757,-223.3806 368.924,-228.3668 364.7255,-218.6393 359.5757,-223.3806"/>
</g>
<!-- Node1564&#45;&gt;Node1563 -->
<g id="edge10" class="edge">
<title>Node1564&#45;&gt;Node1563</title>
<path fill="none" stroke="#191970" d="M177.2206,-152.4225C211.022,-142.2401 264.6069,-124.8837 309,-105 324.0963,-98.2384 340.2899,-89.2634 353.0861,-81.7336"/>
<polygon fill="#191970" stroke="#191970" points="354.9533,-84.6952 361.739,-76.5585 351.3603,-78.6876 354.9533,-84.6952"/>
</g>
<!-- Node1565 -->
<g id="node10" class="node">
<title>Node1565</title>
<g id="a_node10"><a xlink:href="libbf_8h.html#a88d3dcee173f1e4fd4e55000edb04595" target="_top" xlink:title="bf_set_inf">
<polygon fill="none" stroke="#000000" points="236.5,-76.5 236.5,-95.5 295.5,-95.5 295.5,-76.5 236.5,-76.5"/>
<text text-anchor="middle" x="266" y="-83.5" font-family="Helvetica,sans-Serif" font-size="10.00" fill="#000000">bf_set_inf</text>
</a>
</g>
</g>
<!-- Node1564&#45;&gt;Node1565 -->
<g id="edge11" class="edge">
<title>Node1564&#45;&gt;Node1565</title>
<path fill="none" stroke="#191970" d="M157.7877,-152.4826C173.4003,-141.8099 199.7005,-124.1445 223,-110 228.2436,-106.8168 233.9257,-103.5326 239.3886,-100.4542"/>
<polygon fill="#191970" stroke="#191970" points="241.2203,-103.4403 248.2592,-95.5217 237.8185,-97.3225 241.2203,-103.4403"/>
</g>
<!-- Node1565&#45;&gt;Node1563 -->
<g id="edge12" class="edge">
<title>Node1565&#45;&gt;Node1563</title>
<path fill="none" stroke="#191970" d="M295.746,-80.9083C308.9748,-78.6439 324.712,-75.9502 338.7977,-73.5391"/>
<polygon fill="#191970" stroke="#191970" points="339.4367,-76.9807 348.7028,-71.8437 338.2556,-70.0811 339.4367,-76.9807"/>
</g>
<!-- Node1566&#45;&gt;Node1563 -->
<g id="edge15" class="edge">
<title>Node1566&#45;&gt;Node1563</title>
<path fill="none" stroke="#191970" d="M178.1658,-11.903C212.0094,-14.4967 265.0041,-20.4807 309,-34 323.7934,-38.5458 339.3886,-45.907 351.9071,-52.5248"/>
<polygon fill="#191970" stroke="#191970" points="350.3607,-55.6681 360.816,-57.3816 353.7113,-49.522 350.3607,-55.6681"/>
</g>
</g>
</svg>
