<?xml version="1.0" encoding="UTF-8" standalone="no"?>
<!DOCTYPE svg PUBLIC "-//W3C//DTD SVG 1.1//EN"
 "http://www.w3.org/Graphics/SVG/1.1/DTD/svg11.dtd">
<!-- Generated by graphviz version 2.40.1 (20161225.0304)
 -->
<!-- Title: bf_log Pages: 1 -->
<svg width="668pt" height="809pt"
 viewBox="0.00 0.00 668.00 809.28" xmlns="http://www.w3.org/2000/svg" xmlns:xlink="http://www.w3.org/1999/xlink">
<g id="graph0" class="graph" transform="scale(1 1) rotate(0) translate(4 805.2826)">
<title>bf_log</title>
<!-- Node26046 -->
<g id="node1" class="node">
<title>Node26046</title>
<polygon fill="#bfbfbf" stroke="#000000" points="0,-221.7826 0,-240.7826 43,-240.7826 43,-221.7826 0,-221.7826"/>
<text text-anchor="middle" x="21.5" y="-228.7826" font-family="Helvetica,sans-Serif" font-size="10.00" fill="#000000">bf_log</text>
</g>
<!-- Node26047 -->
<g id="node2" class="node">
<title>Node26047</title>
<g id="a_node2"><a xlink:href="libbf_8h.html#ace98bda0a4b63feec215a740f713b1e7" target="_top" xlink:title="bf_cmp_eq">
<polygon fill="none" stroke="#000000" points="89,-563.7826 89,-582.7826 154,-582.7826 154,-563.7826 89,-563.7826"/>
<text text-anchor="middle" x="121.5" y="-570.7826" font-family="Helvetica,sans-Serif" font-size="10.00" fill="#000000">bf_cmp_eq</text>
</a>
</g>
</g>
<!-- Node26046&#45;&gt;Node26047 -->
<g id="edge1" class="edge">
<title>Node26046&#45;&gt;Node26047</title>
<path fill="none" stroke="#191970" d="M23.9977,-240.905C31.7541,-270.6638 56.2715,-363.8069 79,-440.2826 91.085,-480.9457 106.5078,-528.1657 115.0577,-553.9762"/>
<polygon fill="#191970" stroke="#191970" points="111.796,-555.2598 118.2714,-563.6455 118.4387,-553.052 111.796,-555.2598"/>
</g>
<!-- Node26052 -->
<g id="node5" class="node">
<title>Node26052</title>
<g id="a_node5"><a xlink:href="libbf_8h.html#a2b9d906b21e903f2f7f1c9044674ab7d" target="_top" xlink:title="bf_delete">
<polygon fill="none" stroke="#000000" points="313,-297.7826 313,-316.7826 369,-316.7826 369,-297.7826 313,-297.7826"/>
<text text-anchor="middle" x="341" y="-304.7826" font-family="Helvetica,sans-Serif" font-size="10.00" fill="#000000">bf_delete</text>
</a>
</g>
</g>
<!-- Node26046&#45;&gt;Node26052 -->
<g id="edge4" class="edge">
<title>Node26046&#45;&gt;Node26052</title>
<path fill="none" stroke="#191970" d="M43.1021,-228.3958C88.5112,-223.2684 196.3227,-216.0853 277,-250.2826 297.1934,-258.8421 315.3512,-276.4429 327.1224,-289.835"/>
<polygon fill="#191970" stroke="#191970" points="324.4685,-292.1171 333.5875,-297.5111 329.8226,-287.6077 324.4685,-292.1171"/>
</g>
<!-- Node26054 -->
<g id="node7" class="node">
<title>Node26054</title>
<g id="a_node7"><a xlink:href="libbf_8h.html#abacc1410890af049e02ebd788364ac48" target="_top" xlink:title="bf_init">
<polygon fill="none" stroke="#000000" points="512.5,-439.7826 512.5,-458.7826 555.5,-458.7826 555.5,-439.7826 512.5,-439.7826"/>
<text text-anchor="middle" x="534" y="-446.7826" font-family="Helvetica,sans-Serif" font-size="10.00" fill="#000000">bf_init</text>
</a>
</g>
</g>
<!-- Node26046&#45;&gt;Node26054 -->
<g id="edge6" class="edge">
<title>Node26046&#45;&gt;Node26054</title>
<path fill="none" stroke="#191970" d="M43.1775,-225.6582C53.8785,-223.1644 67.0303,-220.5183 79,-219.2826 116.5781,-215.4032 126.2355,-218.2807 164,-219.2826 214.2753,-220.6164 227.6026,-215.8337 277,-225.2826 320.0696,-233.5212 431.7011,-258.6238 464,-288.2826 506.3567,-327.177 524.3014,-396.1912 530.8106,-429.8024"/>
<polygon fill="#191970" stroke="#191970" points="527.3845,-430.5261 532.5984,-439.7492 534.2741,-429.2877 527.3845,-430.5261"/>
</g>
<!-- Node26055 -->
<g id="node8" class="node">
<title>Node26055</title>
<g id="a_node8"><a xlink:href="libbf_8c.html#aab7bc918fdd8dbef25c31c6881c73fdd" target="_top" xlink:title="bf_log_internal">
<polygon fill="none" stroke="#000000" points="81.5,-411.7826 81.5,-430.7826 161.5,-430.7826 161.5,-411.7826 81.5,-411.7826"/>
<text text-anchor="middle" x="121.5" y="-418.7826" font-family="Helvetica,sans-Serif" font-size="10.00" fill="#000000">bf_log_internal</text>
</a>
</g>
</g>
<!-- Node26046&#45;&gt;Node26055 -->
<g id="edge7" class="edge">
<title>Node26046&#45;&gt;Node26055</title>
<path fill="none" stroke="#191970" d="M26.5965,-240.966C42.3738,-270.9429 90.6089,-362.5895 111.5847,-402.4435"/>
<polygon fill="#191970" stroke="#191970" points="108.5391,-404.1719 116.2939,-411.3909 114.7336,-400.9116 108.5391,-404.1719"/>
</g>
<!-- Node26082 -->
<g id="node14" class="node">
<title>Node26082</title>
<g id="a_node14"><a xlink:href="libbf_8h.html#a2378f025beace5741c19bf995c2971d3" target="_top" xlink:title="bf_set_ui">
<polygon fill="none" stroke="#000000" points="406.5,-221.7826 406.5,-240.7826 462.5,-240.7826 462.5,-221.7826 406.5,-221.7826"/>
<text text-anchor="middle" x="434.5" y="-228.7826" font-family="Helvetica,sans-Serif" font-size="10.00" fill="#000000">bf_set_ui</text>
</a>
</g>
</g>
<!-- Node26046&#45;&gt;Node26082 -->
<g id="edge56" class="edge">
<title>Node26046&#45;&gt;Node26082</title>
<path fill="none" stroke="#191970" d="M28.3599,-221.7162C38.0061,-209.1815 56.8942,-187.7958 79,-179.2826 161.1208,-147.657 190.1162,-165.3108 277,-179.2826 322.2791,-186.564 372.1782,-204.9115 403.4243,-217.738"/>
<polygon fill="#191970" stroke="#191970" points="402.3076,-221.0645 412.8841,-221.6874 405.0045,-214.6049 402.3076,-221.0645"/>
</g>
<!-- Node26075 -->
<g id="node17" class="node">
<title>Node26075</title>
<g id="a_node17"><a xlink:href="libbf_8h.html#aa6282c789c16c8cf2fe6a8ebd671c6fc" target="_top" xlink:title="bf_set_nan">
<polygon fill="none" stroke="#000000" points="501.5,-145.7826 501.5,-164.7826 566.5,-164.7826 566.5,-145.7826 501.5,-145.7826"/>
<text text-anchor="middle" x="534" y="-152.7826" font-family="Helvetica,sans-Serif" font-size="10.00" fill="#000000">bf_set_nan</text>
</a>
</g>
</g>
<!-- Node26046&#45;&gt;Node26075 -->
<g id="edge55" class="edge">
<title>Node26046&#45;&gt;Node26075</title>
<path fill="none" stroke="#191970" d="M23.117,-221.6686C29.1847,-186.7085 51.6527,-67.0368 79,-41.2826 132.051,8.6779 165.627,-3.2826 238.5,-3.2826 238.5,-3.2826 238.5,-3.2826 341,-3.2826 396.315,-3.2826 418.9735,9.8479 464,-22.2826 502.7975,-49.9682 521.8674,-105.8586 529.6094,-135.6083"/>
<polygon fill="#191970" stroke="#191970" points="526.2788,-136.7251 532.0395,-145.617 533.0812,-135.0735 526.2788,-136.7251"/>
</g>
<!-- Node26074 -->
<g id="node23" class="node">
<title>Node26074</title>
<g id="a_node23"><a xlink:href="libbf_8h.html#a88d3dcee173f1e4fd4e55000edb04595" target="_top" xlink:title="bf_set_inf">
<polygon fill="none" stroke="#000000" points="504.5,-658.7826 504.5,-677.7826 563.5,-677.7826 563.5,-658.7826 504.5,-658.7826"/>
<text text-anchor="middle" x="534" y="-665.7826" font-family="Helvetica,sans-Serif" font-size="10.00" fill="#000000">bf_set_inf</text>
</a>
</g>
</g>
<!-- Node26046&#45;&gt;Node26074 -->
<g id="edge54" class="edge">
<title>Node26046&#45;&gt;Node26074</title>
<path fill="none" stroke="#191970" d="M21.7502,-241.0371C23.391,-299.3008 33.9895,-601.4595 79,-680.2826 123.1229,-757.5513 149.5209,-801.2826 238.5,-801.2826 238.5,-801.2826 238.5,-801.2826 341,-801.2826 421.2786,-801.2826 492.444,-722.2979 520.8669,-686.0644"/>
<polygon fill="#191970" stroke="#191970" points="523.8564,-687.917 527.1517,-677.8477 518.2963,-683.6642 523.8564,-687.917"/>
</g>
<!-- Node26076 -->
<g id="node24" class="node">
<title>Node26076</title>
<g id="a_node24"><a xlink:href="libbf_8h.html#a66631c65c00e92a5840a5085a009602d" target="_top" xlink:title="bf_set_zero">
<polygon fill="none" stroke="#000000" points="500,-620.7826 500,-639.7826 568,-639.7826 568,-620.7826 500,-620.7826"/>
<text text-anchor="middle" x="534" y="-627.7826" font-family="Helvetica,sans-Serif" font-size="10.00" fill="#000000">bf_set_zero</text>
</a>
</g>
</g>
<!-- Node26046&#45;&gt;Node26076 -->
<g id="edge57" class="edge">
<title>Node26046&#45;&gt;Node26076</title>
<path fill="none" stroke="#191970" d="M22.2737,-240.9606C26.4454,-291.7117 47.252,-527.272 79,-592.2826 124.6061,-685.6706 134.571,-763.2826 238.5,-763.2826 238.5,-763.2826 238.5,-763.2826 341,-763.2826 427.9534,-763.2826 426.598,-695.8985 500,-649.2826 502.1976,-647.887 504.5032,-646.4814 506.8346,-645.1004"/>
<polygon fill="#191970" stroke="#191970" points="508.8475,-647.9808 515.7805,-639.9692 505.3647,-641.9087 508.8475,-647.9808"/>
</g>
<!-- Node26143 -->
<g id="node30" class="node">
<title>Node26143</title>
<g id="a_node30"><a xlink:href="libbf_8c.html#a39e7dd6286a6f0541a12366ebd93dbfd" target="_top" xlink:title="bf_ziv_rounding">
<polygon fill="none" stroke="#000000" points="79,-50.7826 79,-69.7826 164,-69.7826 164,-50.7826 79,-50.7826"/>
<text text-anchor="middle" x="121.5" y="-57.7826" font-family="Helvetica,sans-Serif" font-size="10.00" fill="#000000">bf_ziv_rounding</text>
</a>
</g>
</g>
<!-- Node26046&#45;&gt;Node26143 -->
<g id="edge58" class="edge">
<title>Node26046&#45;&gt;Node26143</title>
<path fill="none" stroke="#191970" d="M24.4883,-221.6896C31.6575,-199.5457 51.316,-143.6722 79,-103.2826 85.587,-93.6725 94.452,-84.312 102.3812,-76.7914"/>
<polygon fill="#191970" stroke="#191970" points="104.8559,-79.2712 109.8793,-69.943 100.1352,-74.1026 104.8559,-79.2712"/>
</g>
<!-- Node26048 -->
<g id="node3" class="node">
<title>Node26048</title>
<g id="a_node3"><a xlink:href="libbf_8c.html#aa27d25901c756808d764fdae65daae0b" target="_top" xlink:title="bf_cmp">
<polygon fill="none" stroke="#000000" points="316.5,-601.7826 316.5,-620.7826 365.5,-620.7826 365.5,-601.7826 316.5,-601.7826"/>
<text text-anchor="middle" x="341" y="-608.7826" font-family="Helvetica,sans-Serif" font-size="10.00" fill="#000000">bf_cmp</text>
</a>
</g>
</g>
<!-- Node26047&#45;&gt;Node26048 -->
<g id="edge2" class="edge">
<title>Node26047&#45;&gt;Node26048</title>
<path fill="none" stroke="#191970" d="M125.8607,-582.923C135.6745,-603.2751 161.6743,-650.2346 200,-668.2826 230.9611,-682.8625 245.0176,-680.46 277,-668.2826 297.7274,-660.3906 316.0155,-642.3637 327.6775,-628.6802"/>
<polygon fill="#191970" stroke="#191970" points="330.4507,-630.8176 334.0451,-620.8511 325.02,-626.4007 330.4507,-630.8176"/>
</g>
<!-- Node26049 -->
<g id="node4" class="node">
<title>Node26049</title>
<g id="a_node4"><a xlink:href="libbf_8h.html#a165ae2c6d3fee618014b7c9ea4f944dc" target="_top" xlink:title="bf_cmpu">
<polygon fill="none" stroke="#ff0000" points="407.5,-601.7826 407.5,-620.7826 461.5,-620.7826 461.5,-601.7826 407.5,-601.7826"/>
<text text-anchor="middle" x="434.5" y="-608.7826" font-family="Helvetica,sans-Serif" font-size="10.00" fill="#000000">bf_cmpu</text>
</a>
</g>
</g>
<!-- Node26048&#45;&gt;Node26049 -->
<g id="edge3" class="edge">
<title>Node26048&#45;&gt;Node26049</title>
<path fill="none" stroke="#191970" d="M365.566,-611.2826C375.224,-611.2826 386.5264,-611.2826 397.1527,-611.2826"/>
<polygon fill="#191970" stroke="#191970" points="397.4677,-614.7827 407.4677,-611.2826 397.4677,-607.7827 397.4677,-614.7827"/>
</g>
<!-- Node26053 -->
<g id="node6" class="node">
<title>Node26053</title>
<g id="a_node6"><a xlink:href="libbf_8h.html#a524c9e60866c08c75061626a4b5e2f29" target="_top" xlink:title="bf_realloc">
<polygon fill="none" stroke="#000000" points="405,-297.7826 405,-316.7826 464,-316.7826 464,-297.7826 405,-297.7826"/>
<text text-anchor="middle" x="434.5" y="-304.7826" font-family="Helvetica,sans-Serif" font-size="10.00" fill="#000000">bf_realloc</text>
</a>
</g>
</g>
<!-- Node26052&#45;&gt;Node26053 -->
<g id="edge5" class="edge">
<title>Node26052&#45;&gt;Node26053</title>
<path fill="none" stroke="#191970" d="M369.0531,-307.2826C377.0839,-307.2826 385.9961,-307.2826 394.5927,-307.2826"/>
<polygon fill="#191970" stroke="#191970" points="394.8418,-310.7827 404.8418,-307.2826 394.8417,-303.7827 394.8418,-310.7827"/>
</g>
<!-- Node26055&#45;&gt;Node26052 -->
<g id="edge25" class="edge">
<title>Node26055&#45;&gt;Node26052</title>
<path fill="none" stroke="#191970" d="M132.8679,-411.6471C147.6255,-399.4725 174.5155,-378.4075 200,-364.2826 233.3628,-345.7911 273.9738,-330.0177 303.0275,-319.7835"/>
<polygon fill="#191970" stroke="#191970" points="304.4892,-322.9812 312.7914,-316.3991 302.1966,-316.3673 304.4892,-322.9812"/>
</g>
<!-- Node26055&#45;&gt;Node26054 -->
<g id="edge28" class="edge">
<title>Node26055&#45;&gt;Node26054</title>
<path fill="none" stroke="#191970" d="M130.7562,-430.8314C144.5919,-444.5764 172.044,-469.8658 200,-484.2826 246.3916,-508.2067 261.2989,-509.1033 313,-516.2826 379.4733,-525.5133 404.5544,-547.4293 464,-516.2826 488.8985,-503.237 478.3276,-482.1832 500,-464.2826 501.1503,-463.3325 502.3702,-462.4316 503.6378,-461.5789"/>
<polygon fill="#191970" stroke="#191970" points="505.4472,-464.5771 512.4619,-456.6371 502.0267,-458.4697 505.4472,-464.5771"/>
</g>
<!-- Node26056 -->
<g id="node9" class="node">
<title>Node26056</title>
<g id="a_node9"><a xlink:href="libbf_8h.html#a17dc09166f82ffa408f54a2edc4d7855" target="_top" xlink:title="bf_add">
<polygon fill="none" stroke="#000000" points="318,-449.7826 318,-468.7826 364,-468.7826 364,-449.7826 318,-449.7826"/>
<text text-anchor="middle" x="341" y="-456.7826" font-family="Helvetica,sans-Serif" font-size="10.00" fill="#000000">bf_add</text>
</a>
</g>
</g>
<!-- Node26055&#45;&gt;Node26056 -->
<g id="edge8" class="edge">
<title>Node26055&#45;&gt;Node26056</title>
<path fill="none" stroke="#191970" d="M157.6773,-430.868C170.9264,-434.1586 186.0813,-437.6677 200,-440.2826 236.5937,-447.1576 278.9807,-452.5239 307.6503,-455.7746"/>
<polygon fill="#191970" stroke="#191970" points="307.6007,-459.2905 317.9259,-456.9156 308.3733,-452.3333 307.6007,-459.2905"/>
</g>
<!-- Node26080 -->
<g id="node12" class="node">
<title>Node26080</title>
<g id="a_node12"><a xlink:href="libbf_8h.html#a50a5aa2767f2389a32daf115aaef07af" target="_top" xlink:title="bf_add_si">
<polygon fill="none" stroke="#000000" points="209,-373.7826 209,-392.7826 268,-392.7826 268,-373.7826 209,-373.7826"/>
<text text-anchor="middle" x="238.5" y="-380.7826" font-family="Helvetica,sans-Serif" font-size="10.00" fill="#000000">bf_add_si</text>
</a>
</g>
</g>
<!-- Node26055&#45;&gt;Node26080 -->
<g id="edge12" class="edge">
<title>Node26055&#45;&gt;Node26080</title>
<path fill="none" stroke="#191970" d="M151.024,-411.6936C165.7119,-406.9232 183.6601,-401.0939 199.4678,-395.9597"/>
<polygon fill="#191970" stroke="#191970" points="200.5556,-399.2865 208.9854,-392.8686 198.3933,-392.6288 200.5556,-399.2865"/>
</g>
<!-- Node26055&#45;&gt;Node26082 -->
<g id="edge48" class="edge">
<title>Node26055&#45;&gt;Node26082</title>
<path fill="none" stroke="#191970" d="M126.9829,-411.7602C138.3257,-392.8236 166.1589,-350.1279 200,-325.2826 216.7874,-312.9578 337.7385,-267.1813 399.0549,-244.3726"/>
<polygon fill="#191970" stroke="#191970" points="400.5564,-247.5487 408.7127,-240.7866 398.1197,-240.9865 400.5564,-247.5487"/>
</g>
<!-- Node26083 -->
<g id="node18" class="node">
<title>Node26083</title>
<g id="a_node18"><a xlink:href="libbf_8h.html#aea49a0532c6bc29ed0c686717fd19aff" target="_top" xlink:title="bf_cmp_lt">
<polygon fill="none" stroke="#000000" points="209,-601.7826 209,-620.7826 268,-620.7826 268,-601.7826 209,-601.7826"/>
<text text-anchor="middle" x="238.5" y="-608.7826" font-family="Helvetica,sans-Serif" font-size="10.00" fill="#000000">bf_cmp_lt</text>
</a>
</g>
</g>
<!-- Node26055&#45;&gt;Node26083 -->
<g id="edge22" class="edge">
<title>Node26055&#45;&gt;Node26083</title>
<path fill="none" stroke="#191970" d="M123.5608,-431.098C129.9906,-459.5394 152.1787,-543.0997 200,-592.2826 201.364,-593.6854 202.853,-595.0003 204.4271,-596.2306"/>
<polygon fill="#191970" stroke="#191970" points="202.5308,-599.1723 212.8217,-601.6917 206.348,-593.3047 202.5308,-599.1723"/>
</g>
<!-- Node26084 -->
<g id="node19" class="node">
<title>Node26084</title>
<g id="a_node19"><a xlink:href="libbf_8h.html#a9660e7199a5e3dd436970b5e2e481516" target="_top" xlink:title="bf_const_log2">
<polygon fill="none" stroke="#ff0000" points="200,-639.7826 200,-658.7826 277,-658.7826 277,-639.7826 200,-639.7826"/>
<text text-anchor="middle" x="238.5" y="-646.7826" font-family="Helvetica,sans-Serif" font-size="10.00" fill="#000000">bf_const_log2</text>
</a>
</g>
</g>
<!-- Node26055&#45;&gt;Node26084 -->
<g id="edge24" class="edge">
<title>Node26055&#45;&gt;Node26084</title>
<path fill="none" stroke="#191970" d="M124.6947,-431.0441C137.5672,-470.1838 185.6264,-614.4084 200,-630.2826 201.1694,-631.5741 202.4463,-632.7882 203.8012,-633.9282"/>
<polygon fill="#191970" stroke="#191970" points="201.9784,-636.9217 212.2103,-639.6709 205.9261,-631.141 201.9784,-636.9217"/>
</g>
<!-- Node26117 -->
<g id="node20" class="node">
<title>Node26117</title>
<g id="a_node20"><a xlink:href="libbf_8h.html#a030665e68e114717678fb0d0453bb3c6" target="_top" xlink:title="bf_div">
<polygon fill="none" stroke="#ff0000" points="319.5,-487.7826 319.5,-506.7826 362.5,-506.7826 362.5,-487.7826 319.5,-487.7826"/>
<text text-anchor="middle" x="341" y="-494.7826" font-family="Helvetica,sans-Serif" font-size="10.00" fill="#000000">bf_div</text>
</a>
</g>
</g>
<!-- Node26055&#45;&gt;Node26117 -->
<g id="edge26" class="edge">
<title>Node26055&#45;&gt;Node26117</title>
<path fill="none" stroke="#191970" d="M138.8562,-430.855C154.4944,-439.1941 178.2948,-451.186 200,-459.2826 236.5993,-472.9351 280.2192,-483.9189 309.1509,-490.5009"/>
<polygon fill="#191970" stroke="#191970" points="308.5828,-493.9601 319.1052,-492.7234 310.1082,-487.1284 308.5828,-493.9601"/>
</g>
<!-- Node26134 -->
<g id="node21" class="node">
<title>Node26134</title>
<g id="a_node21"><a xlink:href="libbf_8h.html#adeb14e044b992b09438bbd872831103b" target="_top" xlink:title="bf_isqrt">
<polygon fill="none" stroke="#ff0000" points="214,-259.7826 214,-278.7826 263,-278.7826 263,-259.7826 214,-259.7826"/>
<text text-anchor="middle" x="238.5" y="-266.7826" font-family="Helvetica,sans-Serif" font-size="10.00" fill="#000000">bf_isqrt</text>
</a>
</g>
</g>
<!-- Node26055&#45;&gt;Node26134 -->
<g id="edge29" class="edge">
<title>Node26055&#45;&gt;Node26134</title>
<path fill="none" stroke="#191970" d="M125.5529,-411.5878C135.4733,-388.7437 162.9012,-330.6533 200,-293.2826 203.2081,-290.0511 206.9306,-287.0551 210.7717,-284.3531"/>
<polygon fill="#191970" stroke="#191970" points="212.693,-287.2789 219.2161,-278.9303 208.9104,-281.3888 212.693,-287.2789"/>
</g>
<!-- Node26089 -->
<g id="node22" class="node">
<title>Node26089</title>
<g id="a_node22"><a xlink:href="libbf_8h.html#ac290278d0c37a0e7786873f98aadba47" target="_top" xlink:title="bf_mul">
<polygon fill="none" stroke="#ff0000" points="411.5,-639.7826 411.5,-658.7826 457.5,-658.7826 457.5,-639.7826 411.5,-639.7826"/>
<text text-anchor="middle" x="434.5" y="-646.7826" font-family="Helvetica,sans-Serif" font-size="10.00" fill="#000000">bf_mul</text>
</a>
</g>
</g>
<!-- Node26055&#45;&gt;Node26089 -->
<g id="edge31" class="edge">
<title>Node26055&#45;&gt;Node26089</title>
<path fill="none" stroke="#191970" d="M124.6042,-430.958C131.6384,-452.8909 149.3219,-508.0769 164,-554.2826 180.0865,-604.9219 157.1442,-636.8742 200,-668.2826 261.2065,-713.1401 357.0802,-682.8825 405.0676,-662.9101"/>
<polygon fill="#191970" stroke="#191970" points="406.7451,-665.9988 414.551,-658.8351 403.9815,-659.5674 406.7451,-665.9988"/>
</g>
<!-- Node26136 -->
<g id="node25" class="node">
<title>Node26136</title>
<g id="a_node25"><a xlink:href="libbf_8h.html#ae1d5fe9356228cc3a566786637f26680" target="_top" xlink:title="bf_mul_2exp">
<polygon fill="none" stroke="#ff0000" points="202.5,-563.7826 202.5,-582.7826 274.5,-582.7826 274.5,-563.7826 202.5,-563.7826"/>
<text text-anchor="middle" x="238.5" y="-570.7826" font-family="Helvetica,sans-Serif" font-size="10.00" fill="#000000">bf_mul_2exp</text>
</a>
</g>
</g>
<!-- Node26055&#45;&gt;Node26136 -->
<g id="edge39" class="edge">
<title>Node26055&#45;&gt;Node26136</title>
<path fill="none" stroke="#191970" d="M125.5529,-430.9775C135.4733,-453.8216 162.9012,-511.9119 200,-549.2826 203.2081,-552.5142 206.9306,-555.5102 210.7717,-558.2122"/>
<polygon fill="#191970" stroke="#191970" points="208.9104,-561.1764 219.2161,-563.635 212.693,-555.2863 208.9104,-561.1764"/>
</g>
<!-- Node26137 -->
<g id="node26" class="node">
<title>Node26137</title>
<g id="a_node26"><a xlink:href="libbf_8h.html#a6fbb1ec8880c203fc01baf940a54cc62" target="_top" xlink:title="bf_mul_si">
<polygon fill="none" stroke="#000000" points="209,-411.7826 209,-430.7826 268,-430.7826 268,-411.7826 209,-411.7826"/>
<text text-anchor="middle" x="238.5" y="-418.7826" font-family="Helvetica,sans-Serif" font-size="10.00" fill="#000000">bf_mul_si</text>
</a>
</g>
</g>
<!-- Node26055&#45;&gt;Node26137 -->
<g id="edge40" class="edge">
<title>Node26055&#45;&gt;Node26137</title>
<path fill="none" stroke="#191970" d="M161.7648,-421.2826C173.7281,-421.2826 186.8219,-421.2826 198.7521,-421.2826"/>
<polygon fill="#191970" stroke="#191970" points="198.8791,-424.7827 208.8791,-421.2826 198.8791,-417.7827 198.8791,-424.7827"/>
</g>
<!-- Node26077 -->
<g id="node27" class="node">
<title>Node26077</title>
<g id="a_node27"><a xlink:href="libbf_8h.html#ae019ee8073f4359da157d3b1e5fdba7e" target="_top" xlink:title="bf_set">
<polygon fill="none" stroke="#000000" points="412.5,-107.7826 412.5,-126.7826 456.5,-126.7826 456.5,-107.7826 412.5,-107.7826"/>
<text text-anchor="middle" x="434.5" y="-114.7826" font-family="Helvetica,sans-Serif" font-size="10.00" fill="#000000">bf_set</text>
</a>
</g>
</g>
<!-- Node26055&#45;&gt;Node26077 -->
<g id="edge45" class="edge">
<title>Node26055&#45;&gt;Node26077</title>
<path fill="none" stroke="#191970" d="M123.6996,-411.5984C130.5057,-383.5124 153.612,-300.8196 200,-250.2826 258.1833,-186.8954 353.729,-145.9608 402.9731,-127.9193"/>
<polygon fill="#191970" stroke="#191970" points="404.2321,-131.1861 412.4643,-124.5166 401.8697,-124.5968 404.2321,-131.1861"/>
</g>
<!-- Node26138 -->
<g id="node28" class="node">
<title>Node26138</title>
<g id="a_node28"><a xlink:href="libbf_8h.html#a1a8b9ac1fea38b97fc6be8663ce9e867" target="_top" xlink:title="bf_sqrt">
<polygon fill="none" stroke="#ff0000" points="317.5,-69.7826 317.5,-88.7826 364.5,-88.7826 364.5,-69.7826 317.5,-69.7826"/>
<text text-anchor="middle" x="341" y="-76.7826" font-family="Helvetica,sans-Serif" font-size="10.00" fill="#000000">bf_sqrt</text>
</a>
</g>
</g>
<!-- Node26055&#45;&gt;Node26138 -->
<g id="edge49" class="edge">
<title>Node26055&#45;&gt;Node26138</title>
<path fill="none" stroke="#191970" d="M123.0857,-411.5516C130.4872,-367.1469 162.8491,-184.0761 200,-141.2826 227.8409,-109.2132 275.4025,-93.0725 307.5024,-85.4392"/>
<polygon fill="#191970" stroke="#191970" points="308.3359,-88.8394 317.3366,-83.2504 306.815,-82.0066 308.3359,-88.8394"/>
</g>
<!-- Node26057 -->
<g id="node10" class="node">
<title>Node26057</title>
<g id="a_node10"><a xlink:href="libbf_8c.html#a3ebbc1c7473b2ad84ced2b263bf38bae" target="_top" xlink:title="bf_op2">
<polygon fill="none" stroke="#ff0000" points="411.5,-487.7826 411.5,-506.7826 457.5,-506.7826 457.5,-487.7826 411.5,-487.7826"/>
<text text-anchor="middle" x="434.5" y="-494.7826" font-family="Helvetica,sans-Serif" font-size="10.00" fill="#000000">bf_op2</text>
</a>
</g>
</g>
<!-- Node26056&#45;&gt;Node26057 -->
<g id="edge9" class="edge">
<title>Node26056&#45;&gt;Node26057</title>
<path fill="none" stroke="#191970" d="M364.1124,-468.6759C375.4629,-473.2889 389.3361,-478.9272 401.7563,-483.975"/>
<polygon fill="#191970" stroke="#191970" points="400.7475,-487.343 411.3295,-487.8657 403.3831,-480.8581 400.7475,-487.343"/>
</g>
<!-- Node26060 -->
<g id="node11" class="node">
<title>Node26060</title>
<g id="a_node11"><a xlink:href="libbf_8c.html#a951a1d3ebb338129d86e00f51b47f2ee" target="_top" xlink:title="__bf_add">
<polygon fill="none" stroke="#ff0000" points="406.5,-449.7826 406.5,-468.7826 462.5,-468.7826 462.5,-449.7826 406.5,-449.7826"/>
<text text-anchor="middle" x="434.5" y="-456.7826" font-family="Helvetica,sans-Serif" font-size="10.00" fill="#000000">__bf_add</text>
</a>
</g>
</g>
<!-- Node26056&#45;&gt;Node26060 -->
<g id="edge11" class="edge">
<title>Node26056&#45;&gt;Node26060</title>
<path fill="none" stroke="#191970" d="M364.1124,-459.2826C373.7839,-459.2826 385.2871,-459.2826 396.1622,-459.2826"/>
<polygon fill="#191970" stroke="#191970" points="396.3162,-462.7827 406.3162,-459.2826 396.3161,-455.7827 396.3162,-462.7827"/>
</g>
<!-- Node26057&#45;&gt;Node26054 -->
<g id="edge10" class="edge">
<title>Node26057&#45;&gt;Node26054</title>
<path fill="none" stroke="#191970" d="M454.6353,-487.5691C469.1609,-480.5618 488.9821,-470.9998 505.1819,-463.1848"/>
<polygon fill="#191970" stroke="#191970" points="506.7482,-466.3153 514.2342,-458.8179 503.7067,-460.0105 506.7482,-466.3153"/>
</g>
<!-- Node26080&#45;&gt;Node26052 -->
<g id="edge21" class="edge">
<title>Node26080&#45;&gt;Node26052</title>
<path fill="none" stroke="#191970" d="M255.4333,-373.6527C262.316,-369.5041 270.2265,-364.4285 277,-359.2826 294.2832,-346.1524 295.9746,-339.7454 313,-326.2826 314.3939,-325.1804 315.8494,-324.0733 317.3324,-322.978"/>
<polygon fill="#191970" stroke="#191970" points="319.7317,-325.569 325.8902,-316.948 315.6997,-319.8469 319.7317,-325.569"/>
</g>
<!-- Node26080&#45;&gt;Node26054 -->
<g id="edge13" class="edge">
<title>Node26080&#45;&gt;Node26054</title>
<path fill="none" stroke="#191970" d="M268.1748,-388.8827C311.4149,-397.1751 394.1943,-413.55 464,-430.2826 476.5967,-433.3021 490.3725,-436.9628 502.3459,-440.2618"/>
<polygon fill="#191970" stroke="#191970" points="501.7566,-443.7308 512.3291,-443.0427 503.635,-436.9876 501.7566,-443.7308"/>
</g>
<!-- Node26080&#45;&gt;Node26056 -->
<g id="edge20" class="edge">
<title>Node26080&#45;&gt;Node26056</title>
<path fill="none" stroke="#191970" d="M260.6558,-392.9492C266.16,-395.6898 271.9316,-398.8668 277,-402.2826 294.4088,-414.0152 312.0688,-430.1295 324.415,-442.2317"/>
<polygon fill="#191970" stroke="#191970" points="322.158,-444.9244 331.7048,-449.5188 327.1068,-439.9737 322.158,-444.9244"/>
</g>
<!-- Node26081 -->
<g id="node13" class="node">
<title>Node26081</title>
<g id="a_node13"><a xlink:href="libbf_8h.html#a60ee3eaad83309aaf8a8b8fb81d8b44d" target="_top" xlink:title="bf_set_si">
<polygon fill="none" stroke="#000000" points="313,-335.7826 313,-354.7826 369,-354.7826 369,-335.7826 313,-335.7826"/>
<text text-anchor="middle" x="341" y="-342.7826" font-family="Helvetica,sans-Serif" font-size="10.00" fill="#000000">bf_set_si</text>
</a>
</g>
</g>
<!-- Node26080&#45;&gt;Node26081 -->
<g id="edge14" class="edge">
<title>Node26080&#45;&gt;Node26081</title>
<path fill="none" stroke="#191970" d="M264.3651,-373.6936C276.8685,-369.0582 292.0688,-363.423 305.6249,-358.3973"/>
<polygon fill="#191970" stroke="#191970" points="306.9835,-361.6265 315.1432,-354.8686 304.5501,-355.063 306.9835,-361.6265"/>
</g>
<!-- Node26081&#45;&gt;Node26082 -->
<g id="edge15" class="edge">
<title>Node26081&#45;&gt;Node26082</title>
<path fill="none" stroke="#191970" d="M357.4836,-335.5853C361.4796,-332.8452 365.5811,-329.6762 369,-326.2826 392.46,-302.9962 412.8886,-270.2625 424.4478,-249.9333"/>
<polygon fill="#191970" stroke="#191970" points="427.5883,-251.4872 429.3842,-241.0457 421.4688,-248.0883 427.5883,-251.4872"/>
</g>
<!-- Node26064 -->
<g id="node15" class="node">
<title>Node26064</title>
<g id="a_node15"><a xlink:href="libbf_8h.html#ab51c43b22c1a81c789ee0e3d53c0e585" target="_top" xlink:title="bf_resize">
<polygon fill="none" stroke="#000000" points="604,-221.7826 604,-240.7826 660,-240.7826 660,-221.7826 604,-221.7826"/>
<text text-anchor="middle" x="632" y="-228.7826" font-family="Helvetica,sans-Serif" font-size="10.00" fill="#000000">bf_resize</text>
</a>
</g>
</g>
<!-- Node26082&#45;&gt;Node26064 -->
<g id="edge16" class="edge">
<title>Node26082&#45;&gt;Node26064</title>
<path fill="none" stroke="#191970" d="M462.7969,-231.2826C497.1152,-231.2826 555.1208,-231.2826 593.4902,-231.2826"/>
<polygon fill="#191970" stroke="#191970" points="593.7556,-234.7827 603.7556,-231.2826 593.7555,-227.7827 593.7556,-234.7827"/>
</g>
<!-- Node26065 -->
<g id="node16" class="node">
<title>Node26065</title>
<g id="a_node16"><a xlink:href="libbf_8c.html#a3ac3b86cc31b99a551947240e979c5d7" target="_top" xlink:title="clz">
<polygon fill="none" stroke="#ff0000" points="519.5,-183.7826 519.5,-202.7826 548.5,-202.7826 548.5,-183.7826 519.5,-183.7826"/>
<text text-anchor="middle" x="534" y="-190.7826" font-family="Helvetica,sans-Serif" font-size="10.00" fill="#000000">clz</text>
</a>
</g>
</g>
<!-- Node26082&#45;&gt;Node26065 -->
<g id="edge17" class="edge">
<title>Node26082&#45;&gt;Node26065</title>
<path fill="none" stroke="#191970" d="M459.6081,-221.6936C474.9506,-215.8342 494.4762,-208.3771 509.6735,-202.5732"/>
<polygon fill="#191970" stroke="#191970" points="511.3054,-205.6965 519.3986,-198.859 508.808,-199.1572 511.3054,-205.6965"/>
</g>
<!-- Node26082&#45;&gt;Node26075 -->
<g id="edge18" class="edge">
<title>Node26082&#45;&gt;Node26075</title>
<path fill="none" stroke="#191970" d="M444.1778,-221.7163C456.5136,-209.8006 478.7906,-189.1966 500,-174.2826 502.0812,-172.8192 504.285,-171.3755 506.5305,-169.9774"/>
<polygon fill="#191970" stroke="#191970" points="508.3793,-172.9506 515.2262,-164.8654 504.8317,-166.9161 508.3793,-172.9506"/>
</g>
<!-- Node26075&#45;&gt;Node26064 -->
<g id="edge19" class="edge">
<title>Node26075&#45;&gt;Node26064</title>
<path fill="none" stroke="#191970" d="M552.7993,-164.8293C557.8708,-167.6596 563.2624,-170.9104 568,-174.2826 585.1031,-186.4566 602.7944,-202.5258 615.2302,-214.4985"/>
<polygon fill="#191970" stroke="#191970" points="612.9885,-217.2017 622.5844,-221.6926 617.8835,-212.1978 612.9885,-217.2017"/>
</g>
<!-- Node26083&#45;&gt;Node26048 -->
<g id="edge23" class="edge">
<title>Node26083&#45;&gt;Node26048</title>
<path fill="none" stroke="#191970" d="M268.1472,-611.2826C279.9455,-611.2826 293.6134,-611.2826 305.9015,-611.2826"/>
<polygon fill="#191970" stroke="#191970" points="306.2632,-614.7827 316.2632,-611.2826 306.2631,-607.7827 306.2632,-614.7827"/>
</g>
<!-- Node26117&#45;&gt;Node26057 -->
<g id="edge27" class="edge">
<title>Node26117&#45;&gt;Node26057</title>
<path fill="none" stroke="#191970" d="M362.6858,-497.2826C374.0652,-497.2826 388.2576,-497.2826 401.0136,-497.2826"/>
<polygon fill="#191970" stroke="#191970" points="401.2976,-500.7827 411.2976,-497.2826 401.2975,-493.7827 401.2976,-500.7827"/>
</g>
<!-- Node26134&#45;&gt;Node26065 -->
<g id="edge30" class="edge">
<title>Node26134&#45;&gt;Node26065</title>
<path fill="none" stroke="#191970" d="M261.8072,-259.7771C293.6419,-247.1487 352.7426,-224.9622 405,-212.2826 440.6111,-203.6421 482.7653,-198.3319 508.9493,-195.5952"/>
<polygon fill="#191970" stroke="#191970" points="509.5254,-199.0551 519.1276,-194.5777 508.829,-192.0899 509.5254,-199.0551"/>
</g>
<!-- Node26089&#45;&gt;Node26054 -->
<g id="edge37" class="edge">
<title>Node26089&#45;&gt;Node26054</title>
<path fill="none" stroke="#191970" d="M453.4685,-639.6855C457.3464,-637.052 461.1174,-633.9056 464,-630.2826 493.4103,-593.3185 482.853,-574.2973 500,-530.2826 508.3108,-508.9497 518.566,-484.7832 525.6274,-468.4419"/>
<polygon fill="#191970" stroke="#191970" points="528.9801,-469.5082 529.7541,-458.9417 522.5597,-466.7193 528.9801,-469.5082"/>
</g>
<!-- Node26089&#45;&gt;Node26064 -->
<g id="edge38" class="edge">
<title>Node26089&#45;&gt;Node26064</title>
<path fill="none" stroke="#191970" d="M451.9671,-639.781C456.1752,-637.0372 460.4704,-633.8175 464,-630.2826 524.4552,-569.7379 533.3284,-546.5027 568,-468.2826 602.0138,-391.5466 621.5709,-292.6126 628.784,-251.0501"/>
<polygon fill="#191970" stroke="#191970" points="632.2458,-251.5693 630.4584,-241.1264 625.3434,-250.4047 632.2458,-251.5693"/>
</g>
<!-- Node26089&#45;&gt;Node26075 -->
<g id="edge32" class="edge">
<title>Node26089&#45;&gt;Node26075</title>
<path fill="none" stroke="#191970" d="M454.8248,-639.781C458.4319,-637.1977 461.7498,-634.0476 464,-630.2826 516.1473,-543.0295 445.1477,-259.861 500,-174.2826 500.6021,-173.3433 501.2678,-172.4461 501.9864,-171.5896"/>
<polygon fill="#191970" stroke="#191970" points="504.3709,-174.1539 509.5942,-164.9361 499.7626,-168.8847 504.3709,-174.1539"/>
</g>
<!-- Node26089&#45;&gt;Node26074 -->
<g id="edge33" class="edge">
<title>Node26089&#45;&gt;Node26074</title>
<path fill="none" stroke="#191970" d="M457.5774,-653.6894C468.4312,-655.762 481.6899,-658.2938 494.0973,-660.663"/>
<polygon fill="#191970" stroke="#191970" points="493.7688,-664.1634 504.2478,-662.6013 495.0818,-657.2877 493.7688,-664.1634"/>
</g>
<!-- Node26089&#45;&gt;Node26076 -->
<g id="edge35" class="edge">
<title>Node26089&#45;&gt;Node26076</title>
<path fill="none" stroke="#191970" d="M457.5774,-644.8759C467.1593,-643.0462 478.6153,-640.8586 489.7054,-638.7409"/>
<polygon fill="#191970" stroke="#191970" points="490.5569,-642.1416 499.7229,-636.828 489.2439,-635.2658 490.5569,-642.1416"/>
</g>
<!-- Node26074&#45;&gt;Node26064 -->
<g id="edge34" class="edge">
<title>Node26074&#45;&gt;Node26064</title>
<path fill="none" stroke="#191970" d="M557.8368,-658.7044C561.7513,-656.1719 565.3788,-653.0605 568,-649.2826 613.7832,-583.2956 628.0568,-324.7716 631.2386,-251.0215"/>
<polygon fill="#191970" stroke="#191970" points="634.7438,-250.9646 631.6572,-240.8294 627.7497,-250.6773 634.7438,-250.9646"/>
</g>
<!-- Node26076&#45;&gt;Node26064 -->
<g id="edge36" class="edge">
<title>Node26076&#45;&gt;Node26064</title>
<path fill="none" stroke="#191970" d="M539.6623,-620.3556C547.1864,-606.7611 560.4108,-581.3983 568,-558.2826 605.1587,-445.1026 623.9482,-302.4189 629.8771,-250.9307"/>
<polygon fill="#191970" stroke="#191970" points="633.3695,-251.1929 631.004,-240.8656 626.4129,-250.414 633.3695,-251.1929"/>
</g>
<!-- Node26137&#45;&gt;Node26052 -->
<g id="edge44" class="edge">
<title>Node26137&#45;&gt;Node26052</title>
<path fill="none" stroke="#191970" d="M264.1428,-411.657C268.8035,-409.1072 273.3404,-406.0015 277,-402.2826 303.2154,-375.6426 288.6802,-354.6637 313,-326.2826 313.8601,-325.2789 314.7852,-324.3049 315.7574,-323.363"/>
<polygon fill="#191970" stroke="#191970" points="318.2683,-325.8331 323.8303,-316.8156 313.8589,-320.3964 318.2683,-325.8331"/>
</g>
<!-- Node26137&#45;&gt;Node26054 -->
<g id="edge41" class="edge">
<title>Node26137&#45;&gt;Node26054</title>
<path fill="none" stroke="#191970" d="M268.0889,-423.3604C311.2232,-426.4836 393.8735,-432.8238 464,-440.2826 476.5334,-441.6157 490.2968,-443.3306 502.278,-444.9053"/>
<polygon fill="#191970" stroke="#191970" points="501.8971,-448.3854 512.2724,-446.2398 502.8237,-441.447 501.8971,-448.3854"/>
</g>
<!-- Node26137&#45;&gt;Node26081 -->
<g id="edge42" class="edge">
<title>Node26137&#45;&gt;Node26081</title>
<path fill="none" stroke="#191970" d="M260.6558,-411.6161C266.16,-408.8754 271.9316,-405.6985 277,-402.2826 294.4088,-390.55 312.0688,-374.4357 324.415,-362.3335"/>
<polygon fill="#191970" stroke="#191970" points="327.1068,-364.5916 331.7048,-355.0464 322.158,-359.6409 327.1068,-364.5916"/>
</g>
<!-- Node26137&#45;&gt;Node26089 -->
<g id="edge43" class="edge">
<title>Node26137&#45;&gt;Node26089</title>
<path fill="none" stroke="#191970" d="M245.5608,-430.9905C272.2283,-467.5168 367.2138,-596.3313 405,-630.2826 406.3084,-631.4583 407.697,-632.6104 409.131,-633.7295"/>
<polygon fill="#191970" stroke="#191970" points="407.4112,-636.7997 417.5989,-639.7088 411.4489,-631.0815 407.4112,-636.7997"/>
</g>
<!-- Node26077&#45;&gt;Node26064 -->
<g id="edge46" class="edge">
<title>Node26077&#45;&gt;Node26064</title>
<path fill="none" stroke="#191970" d="M456.6766,-115.1986C484.7779,-113.6632 533.6786,-114.781 568,-136.2826 596.5151,-154.1468 615.2948,-189.8975 624.7514,-212.0865"/>
<polygon fill="#191970" stroke="#191970" points="621.5557,-213.5205 628.5444,-221.4834 628.0469,-210.9003 621.5557,-213.5205"/>
</g>
<!-- Node26077&#45;&gt;Node26075 -->
<g id="edge47" class="edge">
<title>Node26077&#45;&gt;Node26075</title>
<path fill="none" stroke="#191970" d="M456.5823,-125.7161C469.1421,-130.5128 485.1517,-136.627 499.349,-142.0491"/>
<polygon fill="#191970" stroke="#191970" points="498.233,-145.3694 508.8236,-145.6675 500.7305,-138.83 498.233,-145.3694"/>
</g>
<!-- Node26138&#45;&gt;Node26064 -->
<g id="edge52" class="edge">
<title>Node26138&#45;&gt;Node26064</title>
<path fill="none" stroke="#191970" d="M364.7248,-76.2158C408.9954,-71.7919 505.3657,-68.4261 568,-112.2826 602.2844,-136.2886 619.867,-184.635 627.3752,-211.7335"/>
<polygon fill="#191970" stroke="#191970" points="624.0348,-212.7966 629.9222,-221.605 630.8128,-211.0476 624.0348,-212.7966"/>
</g>
<!-- Node26138&#45;&gt;Node26075 -->
<g id="edge50" class="edge">
<title>Node26138&#45;&gt;Node26075</title>
<path fill="none" stroke="#191970" d="M352.5179,-89.0057C357.6039,-93.3376 363.6341,-98.5259 369,-103.2826 385.2421,-117.6807 385.4003,-126.9573 405,-136.2826 431.8596,-149.0621 465.1311,-153.7284 491.1565,-155.2434"/>
<polygon fill="#191970" stroke="#191970" points="491.3192,-158.754 501.4652,-155.7031 491.6311,-151.761 491.3192,-158.754"/>
</g>
<!-- Node26138&#45;&gt;Node26077 -->
<g id="edge51" class="edge">
<title>Node26138&#45;&gt;Node26077</title>
<path fill="none" stroke="#191970" d="M364.594,-88.8716C376.1196,-93.5558 390.1573,-99.261 402.6209,-104.3264"/>
<polygon fill="#191970" stroke="#191970" points="401.619,-107.6972 412.201,-108.2199 404.2546,-101.2123 401.619,-107.6972"/>
</g>
<!-- Node26086 -->
<g id="node29" class="node">
<title>Node26086</title>
<g id="a_node29"><a xlink:href="libbf_8h.html#abd4ca8358212228a53981a32a10286b5" target="_top" xlink:title="bf_round">
<polygon fill="none" stroke="#ff0000" points="407.5,-31.7826 407.5,-50.7826 461.5,-50.7826 461.5,-31.7826 407.5,-31.7826"/>
<text text-anchor="middle" x="434.5" y="-38.7826" font-family="Helvetica,sans-Serif" font-size="10.00" fill="#000000">bf_round</text>
</a>
</g>
</g>
<!-- Node26138&#45;&gt;Node26086 -->
<g id="edge53" class="edge">
<title>Node26138&#45;&gt;Node26086</title>
<path fill="none" stroke="#191970" d="M364.594,-69.6936C375.7781,-65.1482 389.3276,-59.6414 401.509,-54.6907"/>
<polygon fill="#191970" stroke="#191970" points="402.9672,-57.8762 410.9136,-50.8686 400.3316,-51.3913 402.9672,-57.8762"/>
</g>
<!-- Node26143&#45;&gt;Node26086 -->
<g id="edge59" class="edge">
<title>Node26143&#45;&gt;Node26086</title>
<path fill="none" stroke="#191970" d="M164.0383,-57.7004C225.564,-53.9656 338.4141,-47.1153 396.9919,-43.5595"/>
<polygon fill="#191970" stroke="#191970" points="397.504,-47.0349 407.2735,-42.9353 397.0798,-40.0478 397.504,-47.0349"/>
</g>
</g>
</svg>
