<?xml version="1.0" encoding="UTF-8" standalone="no"?>
<!DOCTYPE svg PUBLIC "-//W3C//DTD SVG 1.1//EN"
 "http://www.w3.org/Graphics/SVG/1.1/DTD/svg11.dtd">
<!-- Generated by graphviz version 2.40.1 (20161225.0304)
 -->
<!-- Title: bf_get_fft_size Pages: 1 -->
<!--zoomable 992 -->
<svg id="main" version="1.1" xmlns="http://www.w3.org/2000/svg" xmlns:xlink="http://www.w3.org/1999/xlink" xml:space="preserve" onload="init(evt)">
<style type="text/css"><![CDATA[
.edge:hover path { stroke: red; }
.edge:hover polygon { stroke: red; fill: red; }
]]></style>
<script type="text/javascript"><![CDATA[
var edges = document.getElementsByTagName('g');
if (edges && edges.length) {
  for (var i=0;i<edges.length;i++) {
    if (edges[i].id.substr(0,4)=='edge') {
      edges[i].setAttribute('class','edge');
    }
  }
}
]]></script>
        <defs>
                <circle id="rim" cx="0" cy="0" r="7"/>
                <circle id="rim2" cx="0" cy="0" r="3.5"/>
                <g id="zoomPlus">
                        <use xlink:href="#rim" fill="#404040">
                                <set attributeName="fill" to="#808080" begin="zoomplus.mouseover" end="zoomplus.mouseout"/>
                        </use>
                        <path d="M-4,0h8M0,-4v8" fill="none" stroke="white" stroke-width="1.5" pointer-events="none"/>
                </g>
                <g id="zoomMin">
                        <use xlink:href="#rim" fill="#404040">
                                <set attributeName="fill" to="#808080" begin="zoomminus.mouseover" end="zoomminus.mouseout"/>
                        </use>
                        <path d="M-4,0h8" fill="none" stroke="white" stroke-width="1.5" pointer-events="none"/>
                </g>
                <g id="dirArrow">
                        <path fill="none" stroke="white" stroke-width="1.5" d="M0,-3.0v7 M-2.5,-0.5L0,-3.0L2.5,-0.5"/>
                </g>
               <g id="resetDef">
                       <use xlink:href="#rim2" fill="#404040">
                               <set attributeName="fill" to="#808080" begin="reset.mouseover" end="reset.mouseout"/>
                       </use>
               </g>
        </defs>

<script type="text/javascript">
var viewWidth = 696;
var viewHeight = 992;
var sectionId = 'dynsection-105';
</script>
<script xlink:href="svgpan.js"/>
<svg id="graph" class="graph">
<g id="viewport">
<title>bf_get_fft_size</title>
<!-- Node18703 -->
<g id="node1" class="node">
<title>Node18703</title>
<polygon fill="#bfbfbf" stroke="#000000" points="0,-292.5 0,-311.5 81,-311.5 81,-292.5 0,-292.5"/>
<text text-anchor="middle" x="40.5" y="-299.5" font-family="Helvetica,sans-Serif" font-size="10.00" fill="#000000">bf_get_fft_size</text>
</g>
<!-- Node18704 -->
<g id="node2" class="node">
<title>Node18704</title>
<g id="a_node2"><a xlink:href="libbf_8c.html#aced93436f1e8ca41feb00d8070cfcbde" target="_top" xlink:title="fft_mul">
<polygon fill="none" stroke="#000000" points="117,-292.5 117,-311.5 164,-311.5 164,-292.5 117,-292.5"/>
<text text-anchor="middle" x="140.5" y="-299.5" font-family="Helvetica,sans-Serif" font-size="10.00" fill="#000000">fft_mul</text>
</a>
</g>
</g>
<!-- Node18703&#45;&gt;Node18704 -->
<g id="edge1" class="edge">
<title>Node18703&#45;&gt;Node18704</title>
<path fill="none" stroke="#191970" d="M91.2187,-302C100.158,-302 109.0666,-302 116.8014,-302"/>
<polygon fill="#191970" stroke="#191970" points="91.1739,-298.5001 81.1738,-302 91.1738,-305.5001 91.1739,-298.5001"/>
</g>
<!-- Node18705 -->
<g id="node3" class="node">
<title>Node18705</title>
<g id="a_node3"><a xlink:href="libbf_8h.html#ac290278d0c37a0e7786873f98aadba47" target="_top" xlink:title="bf_mul">
<polygon fill="none" stroke="#000000" points="202.5,-547.5 202.5,-566.5 248.5,-566.5 248.5,-547.5 202.5,-547.5"/>
<text text-anchor="middle" x="225.5" y="-554.5" font-family="Helvetica,sans-Serif" font-size="10.00" fill="#000000">bf_mul</text>
</a>
</g>
</g>
<!-- Node18704&#45;&gt;Node18705 -->
<g id="edge2" class="edge">
<title>Node18704&#45;&gt;Node18705</title>
<path fill="none" stroke="#191970" d="M146.8929,-321.1786C163.8782,-372.1346 209.6927,-509.5781 222.2685,-547.3054"/>
<polygon fill="#191970" stroke="#191970" points="150.211,-320.0649 143.7283,-311.6849 143.5703,-322.2786 150.211,-320.0649"/>
</g>
<!-- Node18786 -->
<g id="node25" class="node">
<title>Node18786</title>
<g id="a_node25"><a xlink:href="libbf_8h.html#a6cd295d156fefc2f73a5f9de76595262" target="_top" xlink:title="mp_mul">
<polygon fill="none" stroke="#000000" points="200,-84.5 200,-103.5 251,-103.5 251,-84.5 200,-84.5"/>
<text text-anchor="middle" x="225.5" y="-91.5" font-family="Helvetica,sans-Serif" font-size="10.00" fill="#000000">mp_mul</text>
</a>
</g>
</g>
<!-- Node18704&#45;&gt;Node18786 -->
<g id="edge36" class="edge">
<title>Node18704&#45;&gt;Node18786</title>
<path fill="none" stroke="#191970" d="M148.3037,-282.9039C165.8927,-239.8625 208.1323,-136.4998 221.424,-103.9742"/>
<polygon fill="#191970" stroke="#191970" points="145.0287,-281.6658 144.4857,-292.2467 151.5086,-284.3138 145.0287,-281.6658"/>
</g>
<!-- Node18706 -->
<g id="node4" class="node">
<title>Node18706</title>
<g id="a_node4"><a xlink:href="libbf_8c.html#a4a0919b7e170befaf75d114d48d350cc" target="_top" xlink:title="bf_asin_internal">
<polygon fill="none" stroke="#ff0000" points="457.5,-717.5 457.5,-736.5 542.5,-736.5 542.5,-717.5 457.5,-717.5"/>
<text text-anchor="middle" x="500" y="-724.5" font-family="Helvetica,sans-Serif" font-size="10.00" fill="#000000">bf_asin_internal</text>
</a>
</g>
</g>
<!-- Node18705&#45;&gt;Node18706 -->
<g id="edge3" class="edge">
<title>Node18705&#45;&gt;Node18706</title>
<path fill="none" stroke="#191970" d="M229.6426,-576.5631C238.7175,-617.3487 261.5828,-709.1657 287,-727 342.2444,-765.7628 426.9717,-749.2583 471.0699,-736.5859"/>
<polygon fill="#191970" stroke="#191970" points="233.0488,-575.7555 227.5029,-566.7282 226.2088,-577.2437 233.0488,-575.7555"/>
</g>
<!-- Node18710 -->
<g id="node5" class="node">
<title>Node18710</title>
<g id="a_node5"><a xlink:href="libbf_8c.html#aa4b535a5b33344704c576607ab4f0463" target="_top" xlink:title="bf_atan_internal">
<polygon fill="none" stroke="#ff0000" points="308.5,-698.5 308.5,-717.5 394.5,-717.5 394.5,-698.5 308.5,-698.5"/>
<text text-anchor="middle" x="351.5" y="-705.5" font-family="Helvetica,sans-Serif" font-size="10.00" fill="#000000">bf_atan_internal</text>
</a>
</g>
</g>
<!-- Node18705&#45;&gt;Node18710 -->
<g id="edge4" class="edge">
<title>Node18705&#45;&gt;Node18710</title>
<path fill="none" stroke="#191970" d="M229.3146,-576.6756C235.9382,-605.5378 252.3205,-659.1539 287,-689 293.1052,-694.2543 300.605,-698.0564 308.3042,-700.8076"/>
<polygon fill="#191970" stroke="#191970" points="232.6763,-575.6571 227.1727,-566.6038 225.8294,-577.1131 232.6763,-575.6571"/>
</g>
<!-- Node18715 -->
<g id="node6" class="node">
<title>Node18715</title>
<g id="a_node6"><a xlink:href="libbf_8c.html#a829c2ed2112548096d41c6ceb017e542" target="_top" xlink:title="bf_const_log2_rec">
<polygon fill="none" stroke="#ff0000" points="303.5,-642.5 303.5,-661.5 399.5,-661.5 399.5,-642.5 303.5,-642.5"/>
<text text-anchor="middle" x="351.5" y="-649.5" font-family="Helvetica,sans-Serif" font-size="10.00" fill="#000000">bf_const_log2_rec</text>
</a>
</g>
</g>
<!-- Node18705&#45;&gt;Node18715 -->
<g id="edge6" class="edge">
<title>Node18705&#45;&gt;Node18715</title>
<path fill="none" stroke="#191970" d="M237.2236,-575.0719C248.3463,-590.9535 266.3918,-613.7007 287,-628 295.7366,-634.062 306.1943,-638.8098 316.1205,-642.4244"/>
<polygon fill="#191970" stroke="#191970" points="240.0125,-572.9482 231.5076,-566.6302 234.2163,-576.873 240.0125,-572.9482"/>
</g>
<!-- Node18730 -->
<g id="node7" class="node">
<title>Node18730</title>
<g id="a_node7"><a xlink:href="libbf_8c.html#a11d2dea6becda91c288fd883eefc8e5c" target="_top" xlink:title="bf_const_pi_internal">
<polygon fill="none" stroke="#ff0000" points="584,-548.5 584,-567.5 688,-567.5 688,-548.5 584,-548.5"/>
<text text-anchor="middle" x="636" y="-555.5" font-family="Helvetica,sans-Serif" font-size="10.00" fill="#000000">bf_const_pi_internal</text>
</a>
</g>
</g>
<!-- Node18705&#45;&gt;Node18730 -->
<g id="edge8" class="edge">
<title>Node18705&#45;&gt;Node18730</title>
<path fill="none" stroke="#191970" d="M258.6105,-567.7349C317.3543,-585.2672 443.4713,-616.081 548,-595 573.8314,-589.7904 601.522,-576.7791 618.7977,-567.6669"/>
<polygon fill="#191970" stroke="#191970" points="259.3634,-564.3054 248.7773,-564.7346 257.3205,-571.0007 259.3634,-564.3054"/>
</g>
<!-- Node18739 -->
<g id="node8" class="node">
<title>Node18739</title>
<g id="a_node8"><a xlink:href="libbf_8c.html#a13930fbd670b65bf9f8c07a0fbcfc63b" target="_top" xlink:title="bf_convert_to_radix">
<polygon fill="none" stroke="#000000" points="300.5,-414.5 300.5,-433.5 402.5,-433.5 402.5,-414.5 300.5,-414.5"/>
<text text-anchor="middle" x="351.5" y="-421.5" font-family="Helvetica,sans-Serif" font-size="10.00" fill="#000000">bf_convert_to_radix</text>
</a>
</g>
</g>
<!-- Node18705&#45;&gt;Node18739 -->
<g id="edge9" class="edge">
<title>Node18705&#45;&gt;Node18739</title>
<path fill="none" stroke="#191970" d="M230.7739,-537.808C238.7417,-512.3983 256.278,-467.9083 287,-443 291.8059,-439.1035 297.3865,-436.0061 303.215,-433.5438"/>
<polygon fill="#191970" stroke="#191970" points="227.4119,-536.835 227.9344,-547.4169 234.1249,-538.8187 227.4119,-536.835"/>
</g>
<!-- Node18718 -->
<g id="node9" class="node">
<title>Node18718</title>
<g id="a_node9"><a xlink:href="libbf_8c.html#a157194b3c7faaa17e39ae78cd98c4385" target="_top" xlink:title="bf_exp_internal">
<polygon fill="none" stroke="#ff0000" points="458.5,-357.5 458.5,-376.5 541.5,-376.5 541.5,-357.5 458.5,-357.5"/>
<text text-anchor="middle" x="500" y="-364.5" font-family="Helvetica,sans-Serif" font-size="10.00" fill="#000000">bf_exp_internal</text>
</a>
</g>
</g>
<!-- Node18705&#45;&gt;Node18718 -->
<g id="edge10" class="edge">
<title>Node18705&#45;&gt;Node18718</title>
<path fill="none" stroke="#191970" d="M227.4873,-537.1108C231.9035,-504.1506 245.6648,-438.5245 287,-405 312.6732,-384.1781 403.7215,-374.0253 458.1196,-369.7133"/>
<polygon fill="#191970" stroke="#191970" points="223.9809,-536.9595 226.2851,-547.3007 230.9327,-537.7797 223.9809,-536.9595"/>
</g>
<!-- Node18740 -->
<g id="node10" class="node">
<title>Node18740</title>
<g id="a_node10"><a xlink:href="libbf_8c.html#a5d5227218ea18d8ca58be002abc729bf" target="_top" xlink:title="bf_integer_from_radix_rec">
<polygon fill="none" stroke="#ff0000" points="287,-244.5 287,-263.5 416,-263.5 416,-244.5 287,-244.5"/>
<text text-anchor="middle" x="351.5" y="-251.5" font-family="Helvetica,sans-Serif" font-size="10.00" fill="#000000">bf_integer_from_radix_rec</text>
</a>
</g>
</g>
<!-- Node18705&#45;&gt;Node18740 -->
<g id="edge11" class="edge">
<title>Node18705&#45;&gt;Node18740</title>
<path fill="none" stroke="#191970" d="M228.2185,-537.2403C235.9195,-483.4277 259.1393,-335.6505 287,-296 297.2945,-281.3491 314.4841,-270.5284 328.53,-263.5424"/>
<polygon fill="#191970" stroke="#191970" points="224.7412,-536.8344 226.8147,-547.2244 231.6731,-537.8091 224.7412,-536.8344"/>
</g>
<!-- Node18751 -->
<g id="node11" class="node">
<title>Node18751</title>
<g id="a_node11"><a xlink:href="libbf_8c.html#a7cdab316b6ccee264a2effe61e1a6a27" target="_top" xlink:title="bf_integer_to_radix_rec">
<polygon fill="none" stroke="#ff0000" points="292.5,-188.5 292.5,-207.5 410.5,-207.5 410.5,-188.5 292.5,-188.5"/>
<text text-anchor="middle" x="351.5" y="-195.5" font-family="Helvetica,sans-Serif" font-size="10.00" fill="#000000">bf_integer_to_radix_rec</text>
</a>
</g>
</g>
<!-- Node18705&#45;&gt;Node18751 -->
<g id="edge13" class="edge">
<title>Node18705&#45;&gt;Node18751</title>
<path fill="none" stroke="#191970" d="M227.1268,-537.1757C232.5635,-474.9009 251.7762,-284.4071 287,-235 295.9929,-222.386 310.7273,-213.4678 323.8446,-207.5521"/>
<polygon fill="#191970" stroke="#191970" points="223.6302,-536.9883 226.2712,-547.2487 230.6051,-537.5808 223.6302,-536.9883"/>
</g>
<!-- Node18727 -->
<g id="node12" class="node">
<title>Node18727</title>
<g id="a_node12"><a xlink:href="libbf_8c.html#aab7bc918fdd8dbef25c31c6881c73fdd" target="_top" xlink:title="bf_log_internal">
<polygon fill="none" stroke="#ff0000" points="460,-310.5 460,-329.5 540,-329.5 540,-310.5 460,-310.5"/>
<text text-anchor="middle" x="500" y="-317.5" font-family="Helvetica,sans-Serif" font-size="10.00" fill="#000000">bf_log_internal</text>
</a>
</g>
</g>
<!-- Node18705&#45;&gt;Node18727 -->
<g id="edge15" class="edge">
<title>Node18705&#45;&gt;Node18727</title>
<path fill="none" stroke="#191970" d="M227.8552,-537.2695C234.3113,-486.8453 254.0384,-355.3714 287,-329 338.2989,-287.9577 420.8598,-299.5028 466.6693,-310.4423"/>
<polygon fill="#191970" stroke="#191970" points="224.3762,-536.884 226.618,-547.239 231.3229,-537.7461 224.3762,-536.884"/>
</g>
<!-- Node18767 -->
<g id="node13" class="node">
<title>Node18767</title>
<g id="a_node13"><a xlink:href="libbf_8h.html#a0b4d56fc6808de8feed2a234525df692" target="_top" xlink:title="bf_mul_pow_radix">
<polygon fill="none" stroke="#ff0000" points="304,-150.5 304,-169.5 399,-169.5 399,-150.5 304,-150.5"/>
<text text-anchor="middle" x="351.5" y="-157.5" font-family="Helvetica,sans-Serif" font-size="10.00" fill="#000000">bf_mul_pow_radix</text>
</a>
</g>
</g>
<!-- Node18705&#45;&gt;Node18767 -->
<g id="edge16" class="edge">
<title>Node18705&#45;&gt;Node18767</title>
<path fill="none" stroke="#191970" d="M226.027,-537.0474C228.2791,-466.9207 239.2972,-233.0822 287,-179 291.556,-173.8347 297.4379,-170.0411 303.7926,-167.2613"/>
<polygon fill="#191970" stroke="#191970" points="222.5246,-537.0789 225.7275,-547.178 229.5215,-537.2858 222.5246,-537.0789"/>
</g>
<!-- Node18770 -->
<g id="node14" class="node">
<title>Node18770</title>
<g id="a_node14"><a xlink:href="libbf_8h.html#a6fbb1ec8880c203fc01baf940a54cc62" target="_top" xlink:title="bf_mul_si">
<polygon fill="none" stroke="#ff0000" points="322,-338.5 322,-357.5 381,-357.5 381,-338.5 322,-338.5"/>
<text text-anchor="middle" x="351.5" y="-345.5" font-family="Helvetica,sans-Serif" font-size="10.00" fill="#000000">bf_mul_si</text>
</a>
</g>
</g>
<!-- Node18705&#45;&gt;Node18770 -->
<g id="edge17" class="edge">
<title>Node18705&#45;&gt;Node18770</title>
<path fill="none" stroke="#191970" d="M226.5962,-537.4594C229.7112,-500.3075 241.6241,-419.0057 287,-372 296.211,-362.4582 309.5605,-356.6788 321.728,-353.1931"/>
<polygon fill="#191970" stroke="#191970" points="223.1014,-537.2624 225.8845,-547.4851 230.0839,-537.758 223.1014,-537.2624"/>
</g>
<!-- Node18771 -->
<g id="node15" class="node">
<title>Node18771</title>
<g id="a_node15"><a xlink:href="libbf_8h.html#acee0d550162528b5ca5513d4479549c2" target="_top" xlink:title="bf_mul_ui">
<polygon fill="none" stroke="#ff0000" points="322,-528.5 322,-547.5 381,-547.5 381,-528.5 322,-528.5"/>
<text text-anchor="middle" x="351.5" y="-535.5" font-family="Helvetica,sans-Serif" font-size="10.00" fill="#000000">bf_mul_ui</text>
</a>
</g>
</g>
<!-- Node18705&#45;&gt;Node18771 -->
<g id="edge20" class="edge">
<title>Node18705&#45;&gt;Node18771</title>
<path fill="none" stroke="#191970" d="M258.6377,-552.003C278.2538,-549.0451 302.8949,-545.3293 321.8641,-542.4689"/>
<polygon fill="#191970" stroke="#191970" points="257.9766,-548.5631 248.6103,-553.5151 259.0205,-555.4848 257.9766,-548.5631"/>
</g>
<!-- Node18732 -->
<g id="node16" class="node">
<title>Node18732</title>
<g id="a_node16"><a xlink:href="libbf_8c.html#ab769247f7a6429c42dfeba4f8334cb75" target="_top" xlink:title="bf_sincos">
<polygon fill="none" stroke="#ff0000" points="470.5,-472.5 470.5,-491.5 529.5,-491.5 529.5,-472.5 470.5,-472.5"/>
<text text-anchor="middle" x="500" y="-479.5" font-family="Helvetica,sans-Serif" font-size="10.00" fill="#000000">bf_sincos</text>
</a>
</g>
</g>
<!-- Node18705&#45;&gt;Node18732 -->
<g id="edge27" class="edge">
<title>Node18705&#45;&gt;Node18732</title>
<path fill="none" stroke="#191970" d="M246.3377,-541.3407C257.7834,-533.4776 272.556,-524.4818 287,-519 349.637,-495.2278 428.4809,-486.6181 470.4779,-483.5838"/>
<polygon fill="#191970" stroke="#191970" points="244.0602,-538.6657 237.9416,-547.3151 248.1186,-544.3691 244.0602,-538.6657"/>
</g>
<!-- Node18772 -->
<g id="node17" class="node">
<title>Node18772</title>
<g id="a_node17"><a xlink:href="libbf_8c.html#a81e50b3d7e7a931a93d6ea7e1d630631" target="_top" xlink:title="chud_bs">
<polygon fill="none" stroke="#000000" points="473.5,-548.5 473.5,-567.5 526.5,-567.5 526.5,-548.5 473.5,-548.5"/>
<text text-anchor="middle" x="500" y="-555.5" font-family="Helvetica,sans-Serif" font-size="10.00" fill="#000000">chud_bs</text>
</a>
</g>
</g>
<!-- Node18705&#45;&gt;Node18772 -->
<g id="edge32" class="edge">
<title>Node18705&#45;&gt;Node18772</title>
<path fill="none" stroke="#191970" d="M259.2128,-557.1228C314.4904,-557.3242 423.2619,-557.7204 473.4616,-557.9033"/>
<polygon fill="#191970" stroke="#191970" points="258.9164,-553.6218 248.9037,-557.0853 258.8909,-560.6218 258.9164,-553.6218"/>
</g>
<!-- Node18773 -->
<g id="node18" class="node">
<title>Node18773</title>
<g id="a_node18"><a xlink:href="libbf_8c.html#a3ae2be576639444cdfcb0a232471e77d" target="_top" xlink:title="bf_pow_ui">
<polygon fill="none" stroke="#ff0000" points="321,-964.5 321,-983.5 382,-983.5 382,-964.5 321,-964.5"/>
<text text-anchor="middle" x="351.5" y="-971.5" font-family="Helvetica,sans-Serif" font-size="10.00" fill="#000000">bf_pow_ui</text>
</a>
</g>
</g>
<!-- Node18705&#45;&gt;Node18773 -->
<g id="edge26" class="edge">
<title>Node18705&#45;&gt;Node18773</title>
<path fill="none" stroke="#191970" d="M225.8487,-577.0423C227.5154,-649.6533 236.8459,-897.6795 287,-955 295.4558,-964.664 308.5536,-969.5309 320.743,-971.9391"/>
<polygon fill="#191970" stroke="#191970" points="229.3392,-576.5361 225.6358,-566.6096 222.3406,-576.679 229.3392,-576.5361"/>
</g>
<!-- Node18776 -->
<g id="node19" class="node">
<title>Node18776</title>
<g id="a_node19"><a xlink:href="libbf_8c.html#a15b40c4ae7e9b401fd0c6dc398eacef7" target="_top" xlink:title="bf_sqrt_sin">
<polygon fill="none" stroke="#000000" points="319,-452.5 319,-471.5 384,-471.5 384,-452.5 319,-452.5"/>
<text text-anchor="middle" x="351.5" y="-459.5" font-family="Helvetica,sans-Serif" font-size="10.00" fill="#000000">bf_sqrt_sin</text>
</a>
</g>
</g>
<!-- Node18705&#45;&gt;Node18776 -->
<g id="edge28" class="edge">
<title>Node18705&#45;&gt;Node18776</title>
<path fill="none" stroke="#191970" d="M237.2236,-538.9281C248.3463,-523.0465 266.3918,-500.2993 287,-486 296.5219,-479.3931 308.0882,-474.3473 318.7827,-470.6281"/>
<polygon fill="#191970" stroke="#191970" points="234.2163,-537.127 231.5076,-547.3698 240.0125,-541.0518 234.2163,-537.127"/>
</g>
<!-- Node18777 -->
<g id="node20" class="node">
<title>Node18777</title>
<g id="a_node20"><a xlink:href="libbf_8h.html#ae080fd42a2c7fc561d7084762204357e" target="_top" xlink:title="bf_sqrtrem">
<polygon fill="none" stroke="#ff0000" points="320,-926.5 320,-945.5 383,-945.5 383,-926.5 320,-926.5"/>
<text text-anchor="middle" x="351.5" y="-933.5" font-family="Helvetica,sans-Serif" font-size="10.00" fill="#000000">bf_sqrtrem</text>
</a>
</g>
</g>
<!-- Node18705&#45;&gt;Node18777 -->
<g id="edge30" class="edge">
<title>Node18705&#45;&gt;Node18777</title>
<path fill="none" stroke="#191970" d="M226.2025,-576.8687C228.998,-644.7106 241.4988,-865.8235 287,-917 295.2996,-926.3347 307.9292,-931.1855 319.8194,-933.6698"/>
<polygon fill="#191970" stroke="#191970" points="229.693,-576.5537 225.8103,-566.696 222.6982,-576.8234 229.693,-576.5537"/>
</g>
<!-- Node18780 -->
<g id="node21" class="node">
<title>Node18780</title>
<g id="a_node21"><a xlink:href="libbf_8c.html#a4f1865c8160fb851cce8015c3edb4d4f" target="_top" xlink:title="bf_tdivremu">
<polygon fill="none" stroke="#ff0000" points="317.5,-888.5 317.5,-907.5 385.5,-907.5 385.5,-888.5 317.5,-888.5"/>
<text text-anchor="middle" x="351.5" y="-895.5" font-family="Helvetica,sans-Serif" font-size="10.00" fill="#000000">bf_tdivremu</text>
</a>
</g>
</g>
<!-- Node18705&#45;&gt;Node18780 -->
<g id="edge31" class="edge">
<title>Node18705&#45;&gt;Node18780</title>
<path fill="none" stroke="#191970" d="M226.6367,-576.7796C230.6458,-639.7334 246.1519,-833.9502 287,-879 294.763,-887.5615 306.1678,-892.3426 317.2368,-894.987"/>
<polygon fill="#191970" stroke="#191970" points="230.1193,-576.3868 226.0184,-566.6179 223.1323,-576.812 230.1193,-576.3868"/>
</g>
<!-- Node18714 -->
<g id="node22" class="node">
<title>Node18714</title>
<g id="a_node22"><a xlink:href="quickjs_8c.html#aa8ee7b99edb58d78277e8de851c48279" target="_top" xlink:title="js_bigfloat_fop2">
<polygon fill="none" stroke="#000000" points="309,-850.5 309,-869.5 394,-869.5 394,-850.5 309,-850.5"/>
<text text-anchor="middle" x="351.5" y="-857.5" font-family="Helvetica,sans-Serif" font-size="10.00" fill="#000000">js_bigfloat_fop2</text>
</a>
</g>
</g>
<!-- Node18705&#45;&gt;Node18714 -->
<g id="edge33" class="edge">
<title>Node18705&#45;&gt;Node18714</title>
<path fill="none" stroke="#191970" d="M227.1789,-576.6783C232.4939,-634.4615 250.779,-802.025 287,-841 292.8807,-847.3278 300.751,-851.5849 308.9694,-854.4398"/>
<polygon fill="#191970" stroke="#191970" points="230.6598,-576.3065 226.2874,-566.656 223.6873,-576.9268 230.6598,-576.3065"/>
</g>
<!-- Node18722 -->
<g id="node23" class="node">
<title>Node18722</title>
<g id="a_node23"><a xlink:href="quickjs_8c.html#a916e386a73c9738a5e33109c83a4e3a8" target="_top" xlink:title="js_binary_arith_bigfloat">
<polygon fill="none" stroke="#ff0000" points="293.5,-812.5 293.5,-831.5 409.5,-831.5 409.5,-812.5 293.5,-812.5"/>
<text text-anchor="middle" x="351.5" y="-819.5" font-family="Helvetica,sans-Serif" font-size="10.00" fill="#000000">js_binary_arith_bigfloat</text>
</a>
</g>
</g>
<!-- Node18705&#45;&gt;Node18722 -->
<g id="edge34" class="edge">
<title>Node18705&#45;&gt;Node18722</title>
<path fill="none" stroke="#191970" d="M227.9016,-576.7532C234.6567,-629.1785 255.4128,-770.0742 287,-803 290.7175,-806.875 295.1816,-809.9709 300.0039,-812.4426"/>
<polygon fill="#191970" stroke="#191970" points="231.3604,-576.2057 226.642,-566.7195 224.4149,-577.0777 231.3604,-576.2057"/>
</g>
<!-- Node18724 -->
<g id="node24" class="node">
<title>Node18724</title>
<g id="a_node24"><a xlink:href="quickjs_8c.html#a69d448a344a95318ee4ce862ccc21251" target="_top" xlink:title="js_binary_arith_bigint">
<polygon fill="none" stroke="#ff0000" points="297.5,-774.5 297.5,-793.5 405.5,-793.5 405.5,-774.5 297.5,-774.5"/>
<text text-anchor="middle" x="351.5" y="-781.5" font-family="Helvetica,sans-Serif" font-size="10.00" fill="#000000">js_binary_arith_bigint</text>
</a>
</g>
</g>
<!-- Node18705&#45;&gt;Node18724 -->
<g id="edge35" class="edge">
<title>Node18705&#45;&gt;Node18724</title>
<path fill="none" stroke="#191970" d="M229.1692,-576.7429C237.9888,-622.2941 261.5428,-732.9119 287,-760 292.9731,-766.3558 300.7844,-771.0383 308.8999,-774.485"/>
<polygon fill="#191970" stroke="#191970" points="232.5575,-575.8252 227.2522,-566.6544 225.6806,-577.132 232.5575,-575.8252"/>
</g>
<!-- Node18710&#45;&gt;Node18706 -->
<g id="edge5" class="edge">
<title>Node18710&#45;&gt;Node18706</title>
<path fill="none" stroke="#191970" d="M404.7961,-714.819C422.0629,-717.0282 440.9763,-719.4481 457.3635,-721.5448"/>
<polygon fill="#191970" stroke="#191970" points="405.2149,-711.3442 394.8515,-713.5467 404.3265,-718.2876 405.2149,-711.3442"/>
</g>
<!-- Node18715&#45;&gt;Node18715 -->
<g id="edge7" class="edge">
<title>Node18715&#45;&gt;Node18715</title>
<path fill="none" stroke="#191970" d="M328.0626,-671.0292C329.341,-676.128 337.1535,-680 351.5,-680 373.8945,-680 380.368,-670.5653 370.9203,-661.7571"/>
<polygon fill="#191970" stroke="#191970" points="331.3158,-672.3243 332.0797,-661.7571 324.8927,-669.5415 331.3158,-672.3243"/>
</g>
<!-- Node18740&#45;&gt;Node18740 -->
<g id="edge12" class="edge">
<title>Node18740&#45;&gt;Node18740</title>
<path fill="none" stroke="#191970" d="M328.0626,-273.0292C329.341,-278.128 337.1535,-282 351.5,-282 373.8945,-282 380.368,-272.5653 370.9203,-263.7571"/>
<polygon fill="#191970" stroke="#191970" points="331.3158,-274.3243 332.0797,-263.7571 324.8927,-271.5415 331.3158,-274.3243"/>
</g>
<!-- Node18751&#45;&gt;Node18751 -->
<g id="edge14" class="edge">
<title>Node18751&#45;&gt;Node18751</title>
<path fill="none" stroke="#191970" d="M328.0626,-217.0292C329.341,-222.128 337.1535,-226 351.5,-226 373.8945,-226 380.368,-216.5653 370.9203,-207.7571"/>
<polygon fill="#191970" stroke="#191970" points="331.3158,-218.3243 332.0797,-207.7571 324.8927,-215.5415 331.3158,-218.3243"/>
</g>
<!-- Node18770&#45;&gt;Node18718 -->
<g id="edge18" class="edge">
<title>Node18770&#45;&gt;Node18718</title>
<path fill="none" stroke="#191970" d="M391.2532,-353.0863C411.9617,-355.7358 437.2735,-358.9744 458.2648,-361.6601"/>
<polygon fill="#191970" stroke="#191970" points="391.5576,-349.5968 381.1943,-351.7993 390.6692,-356.5402 391.5576,-349.5968"/>
</g>
<!-- Node18770&#45;&gt;Node18727 -->
<g id="edge19" class="edge">
<title>Node18770&#45;&gt;Node18727</title>
<path fill="none" stroke="#191970" d="M391.2043,-340.5137C412.4781,-336.5024 438.6209,-331.5732 459.9475,-327.552"/>
<polygon fill="#191970" stroke="#191970" points="390.3726,-337.1087 381.1943,-342.4011 391.6697,-343.9875 390.3726,-337.1087"/>
</g>
<!-- Node18771&#45;&gt;Node18730 -->
<g id="edge21" class="edge">
<title>Node18771&#45;&gt;Node18730</title>
<path fill="none" stroke="#191970" d="M391.3301,-535.7917C431.1249,-534.1515 493.9875,-533.0965 548,-539 565.2464,-540.885 584.0812,-544.7074 599.8847,-548.4328"/>
<polygon fill="#191970" stroke="#191970" points="391.0715,-532.2997 381.2371,-536.2409 391.3828,-539.2928 391.0715,-532.2997"/>
</g>
<!-- Node18771&#45;&gt;Node18732 -->
<g id="edge22" class="edge">
<title>Node18771&#45;&gt;Node18732</title>
<path fill="none" stroke="#191970" d="M386.7989,-524.9218C396.2866,-521.3913 406.5393,-517.5621 416,-514 435.8625,-506.5214 458.3281,-497.9576 475.0253,-491.5722"/>
<polygon fill="#191970" stroke="#191970" points="385.4082,-521.7047 377.2539,-528.4692 387.8468,-528.2662 385.4082,-521.7047"/>
</g>
<!-- Node18771&#45;&gt;Node18772 -->
<g id="edge23" class="edge">
<title>Node18771&#45;&gt;Node18772</title>
<path fill="none" stroke="#191970" d="M391.1261,-543.3368C417.1399,-546.8404 450.4598,-551.3279 473.3481,-554.4105"/>
<polygon fill="#191970" stroke="#191970" points="391.572,-539.8654 381.1943,-541.9992 390.6376,-546.8027 391.572,-539.8654"/>
</g>
<!-- Node18772&#45;&gt;Node18730 -->
<g id="edge24" class="edge">
<title>Node18772&#45;&gt;Node18730</title>
<path fill="none" stroke="#191970" d="M536.6387,-558C551.1659,-558 568.1383,-558 583.9027,-558"/>
<polygon fill="#191970" stroke="#191970" points="536.5451,-554.5001 526.545,-558 536.545,-561.5001 536.5451,-554.5001"/>
</g>
<!-- Node18772&#45;&gt;Node18772 -->
<g id="edge25" class="edge">
<title>Node18772&#45;&gt;Node18772</title>
<path fill="none" stroke="#191970" d="M474.7025,-577.0292C476.0824,-582.128 484.5149,-586 500,-586 524.1719,-586 531.1591,-576.5653 520.9615,-567.7571"/>
<polygon fill="#191970" stroke="#191970" points="477.9728,-578.2982 479.0385,-567.7571 471.6319,-575.3329 477.9728,-578.2982"/>
</g>
<!-- Node18776&#45;&gt;Node18732 -->
<g id="edge29" class="edge">
<title>Node18776&#45;&gt;Node18732</title>
<path fill="none" stroke="#191970" d="M394.1128,-467.7391C418.3868,-471.0083 448.2097,-475.0249 470.013,-477.9614"/>
<polygon fill="#191970" stroke="#191970" points="394.4667,-464.2552 384.089,-466.3891 393.5323,-471.1926 394.4667,-464.2552"/>
</g>
<!-- Node18787 -->
<g id="node26" class="node">
<title>Node18787</title>
<g id="a_node26"><a xlink:href="libbf_8h.html#a01be6db77710375febf385d07ad4f1fe" target="_top" xlink:title="mp_recip">
<polygon fill="none" stroke="#000000" points="323.5,-56.5 323.5,-75.5 379.5,-75.5 379.5,-56.5 323.5,-56.5"/>
<text text-anchor="middle" x="351.5" y="-63.5" font-family="Helvetica,sans-Serif" font-size="10.00" fill="#000000">mp_recip</text>
</a>
</g>
</g>
<!-- Node18786&#45;&gt;Node18787 -->
<g id="edge37" class="edge">
<title>Node18786&#45;&gt;Node18787</title>
<path fill="none" stroke="#191970" d="M261.1079,-86.0871C280.7288,-81.7269 304.7517,-76.3885 323.0992,-72.3113"/>
<polygon fill="#191970" stroke="#191970" points="260.3046,-82.6802 251.302,-88.2662 261.8232,-89.5135 260.3046,-82.6802"/>
</g>
<!-- Node18788 -->
<g id="node27" class="node">
<title>Node18788</title>
<g id="a_node27"><a xlink:href="libbf_8c.html#ae8bc748c521cf9e366c02ba403b2d8c0" target="_top" xlink:title="mp_divnorm_large">
<polygon fill="none" stroke="#ff0000" points="452,-84.5 452,-103.5 548,-103.5 548,-84.5 452,-84.5"/>
<text text-anchor="middle" x="500" y="-91.5" font-family="Helvetica,sans-Serif" font-size="10.00" fill="#000000">mp_divnorm_large</text>
</a>
</g>
</g>
<!-- Node18786&#45;&gt;Node18788 -->
<g id="edge40" class="edge">
<title>Node18786&#45;&gt;Node18788</title>
<path fill="none" stroke="#191970" d="M261.1098,-100.1071C269.5701,-101.3092 278.5835,-102.3874 287,-103 344.1821,-107.1619 358.7483,-106.0583 416,-103 427.5703,-102.3819 439.9989,-101.2883 451.6542,-100.0714"/>
<polygon fill="#191970" stroke="#191970" points="261.5523,-96.6343 251.1419,-98.6022 260.5073,-103.5559 261.5523,-96.6343"/>
</g>
<!-- Node18792 -->
<g id="node28" class="node">
<title>Node18792</title>
<g id="a_node28"><a xlink:href="libbf_8c.html#ad6e0bb87edc2953629f7fc6f16e3e7d7" target="_top" xlink:title="mp_sqrtrem_rec">
<polygon fill="none" stroke="#ff0000" points="308,-.5 308,-19.5 395,-19.5 395,-.5 308,-.5"/>
<text text-anchor="middle" x="351.5" y="-7.5" font-family="Helvetica,sans-Serif" font-size="10.00" fill="#000000">mp_sqrtrem_rec</text>
</a>
</g>
</g>
<!-- Node18786&#45;&gt;Node18792 -->
<g id="edge41" class="edge">
<title>Node18786&#45;&gt;Node18792</title>
<path fill="none" stroke="#191970" d="M245.2997,-77.8062C257.1203,-68.4101 272.5916,-56.5781 287,-47 302.1587,-36.9231 320.1859,-26.7223 333.3232,-19.5909"/>
<polygon fill="#191970" stroke="#191970" points="243.0076,-75.158 237.4051,-84.1504 247.3925,-80.6145 243.0076,-75.158"/>
</g>
<!-- Node18787&#45;&gt;Node18787 -->
<g id="edge38" class="edge">
<title>Node18787&#45;&gt;Node18787</title>
<path fill="none" stroke="#191970" d="M328.0626,-85.0292C329.341,-90.128 337.1535,-94 351.5,-94 373.8945,-94 380.368,-84.5653 370.9203,-75.7571"/>
<polygon fill="#191970" stroke="#191970" points="331.3158,-86.3243 332.0797,-75.7571 324.8927,-83.5415 331.3158,-86.3243"/>
</g>
<!-- Node18787&#45;&gt;Node18788 -->
<g id="edge39" class="edge">
<title>Node18787&#45;&gt;Node18788</title>
<path fill="none" stroke="#191970" d="M389.8396,-73.229C408.7861,-76.8014 431.8417,-81.1486 451.9545,-84.9409"/>
<polygon fill="#191970" stroke="#191970" points="390.2566,-69.746 379.7813,-71.3325 388.9596,-76.6248 390.2566,-69.746"/>
</g>
<!-- Node18792&#45;&gt;Node18792 -->
<g id="edge42" class="edge">
<title>Node18792&#45;&gt;Node18792</title>
<path fill="none" stroke="#191970" d="M328.0626,-29.0292C329.341,-34.128 337.1535,-38 351.5,-38 373.8945,-38 380.368,-28.5653 370.9203,-19.7571"/>
<polygon fill="#191970" stroke="#191970" points="331.3158,-30.3243 332.0797,-19.7571 324.8927,-27.5415 331.3158,-30.3243"/>
</g>
</g>
</svg>
        <g id="navigator" transform="translate(0 0)" fill="#404254">
                <rect fill="#f2f5e9" fill-opacity="0.5" stroke="#606060" stroke-width=".5" x="0" y="0" width="60" height="60"/>
                <use id="zoomplus" xlink:href="#zoomPlus" x="17" y="9" onmousedown="handleZoom(evt,'in')"/>
                <use id="zoomminus" xlink:href="#zoomMin" x="42" y="9" onmousedown="handleZoom(evt,'out')"/>
                <use id="reset" xlink:href="#resetDef" x="30" y="36" onmousedown="handleReset()"/>
                <g id="arrowUp" xlink:href="#dirArrow" transform="translate(30 24)" onmousedown="handlePan(0,-1)">
                  <use xlink:href="#rim" fill="#404040">
                        <set attributeName="fill" to="#808080" begin="arrowUp.mouseover" end="arrowUp.mouseout"/>
                  </use>
                  <path fill="none" stroke="white" stroke-width="1.5" d="M0,-3.0v7 M-2.5,-0.5L0,-3.0L2.5,-0.5"/>
                </g>
                <g id="arrowRight" xlink:href="#dirArrow" transform="rotate(90) translate(36 -43)" onmousedown="handlePan(1,0)">
                  <use xlink:href="#rim" fill="#404040">
                        <set attributeName="fill" to="#808080" begin="arrowRight.mouseover" end="arrowRight.mouseout"/>
                  </use>
                  <path fill="none" stroke="white" stroke-width="1.5" d="M0,-3.0v7 M-2.5,-0.5L0,-3.0L2.5,-0.5"/>
                </g>
                <g id="arrowDown" xlink:href="#dirArrow" transform="rotate(180) translate(-30 -48)" onmousedown="handlePan(0,1)">
                  <use xlink:href="#rim" fill="#404040">
                        <set attributeName="fill" to="#808080" begin="arrowDown.mouseover" end="arrowDown.mouseout"/>
                  </use>
                  <path fill="none" stroke="white" stroke-width="1.5" d="M0,-3.0v7 M-2.5,-0.5L0,-3.0L2.5,-0.5"/>
                </g>
                <g id="arrowLeft" xlink:href="#dirArrow" transform="rotate(270) translate(-36 17)" onmousedown="handlePan(-1,0)">
                  <use xlink:href="#rim" fill="#404040">
                        <set attributeName="fill" to="#808080" begin="arrowLeft.mouseover" end="arrowLeft.mouseout"/>
                  </use>
                  <path fill="none" stroke="white" stroke-width="1.5" d="M0,-3.0v7 M-2.5,-0.5L0,-3.0L2.5,-0.5"/>
                </g>
        </g>
        <svg viewBox="0 0 15 15" width="100%" height="30px" preserveAspectRatio="xMaxYMin meet">
         <g id="arrow_out" transform="scale(0.3 0.3)">
          <a xlink:href="libbf_8h_a45f0d9e009bdecc62435c9cb87454c3c_icgraph_org.svg" target="_base">
           <rect id="button" ry="5" rx="5" y="6" x="6" height="38" width="38"
                fill="#f2f5e9" fill-opacity="0.5" stroke="#606060" stroke-width="1.0"/>
           <path id="arrow"
             d="M 11.500037,31.436501 C 11.940474,20.09759 22.043105,11.32322 32.158766,21.979434 L 37.068811,17.246167 C 37.068811,17.246167 37.088388,32 37.088388,32 L 22.160133,31.978069 C 22.160133,31.978069 26.997745,27.140456 26.997745,27.140456 C 18.528582,18.264221 13.291696,25.230495 11.500037,31.436501 z"
             style="fill:#404040;"/>
          </a>
         </g>
        </svg>
</svg>
