<?xml version="1.0" encoding="UTF-8" standalone="no"?>
<!DOCTYPE svg PUBLIC "-//W3C//DTD SVG 1.1//EN"
 "http://www.w3.org/Graphics/SVG/1.1/DTD/svg11.dtd">
<!-- Generated by graphviz version 2.40.1 (20161225.0304)
 -->
<!-- Title: ntt_static_init Pages: 1 -->
<!--zoomable 992 -->
<svg id="main" version="1.1" xmlns="http://www.w3.org/2000/svg" xmlns:xlink="http://www.w3.org/1999/xlink" xml:space="preserve" onload="init(evt)">
<style type="text/css"><![CDATA[
.edge:hover path { stroke: red; }
.edge:hover polygon { stroke: red; fill: red; }
]]></style>
<script type="text/javascript"><![CDATA[
var edges = document.getElementsByTagName('g');
if (edges && edges.length) {
  for (var i=0;i<edges.length;i++) {
    if (edges[i].id.substr(0,4)=='edge') {
      edges[i].setAttribute('class','edge');
    }
  }
}
]]></script>
        <defs>
                <circle id="rim" cx="0" cy="0" r="7"/>
                <circle id="rim2" cx="0" cy="0" r="3.5"/>
                <g id="zoomPlus">
                        <use xlink:href="#rim" fill="#404040">
                                <set attributeName="fill" to="#808080" begin="zoomplus.mouseover" end="zoomplus.mouseout"/>
                        </use>
                        <path d="M-4,0h8M0,-4v8" fill="none" stroke="white" stroke-width="1.5" pointer-events="none"/>
                </g>
                <g id="zoomMin">
                        <use xlink:href="#rim" fill="#404040">
                                <set attributeName="fill" to="#808080" begin="zoomminus.mouseover" end="zoomminus.mouseout"/>
                        </use>
                        <path d="M-4,0h8" fill="none" stroke="white" stroke-width="1.5" pointer-events="none"/>
                </g>
                <g id="dirArrow">
                        <path fill="none" stroke="white" stroke-width="1.5" d="M0,-3.0v7 M-2.5,-0.5L0,-3.0L2.5,-0.5"/>
                </g>
               <g id="resetDef">
                       <use xlink:href="#rim2" fill="#404040">
                               <set attributeName="fill" to="#808080" begin="reset.mouseover" end="reset.mouseout"/>
                       </use>
               </g>
        </defs>

<script type="text/javascript">
var viewWidth = 690;
var viewHeight = 992;
var sectionId = 'dynsection-379';
</script>
<script xlink:href="svgpan.js"/>
<svg id="graph" class="graph">
<g id="viewport">
<title>ntt_static_init</title>
<!-- Node31886 -->
<g id="node1" class="node">
<title>Node31886</title>
<polygon fill="#bfbfbf" stroke="#000000" points="0,-301.5 0,-320.5 75,-320.5 75,-301.5 0,-301.5"/>
<text text-anchor="middle" x="37.5" y="-308.5" font-family="Helvetica,sans-Serif" font-size="10.00" fill="#000000">ntt_static_init</text>
</g>
<!-- Node31887 -->
<g id="node2" class="node">
<title>Node31887</title>
<g id="a_node2"><a xlink:href="libbf_8c.html#aced93436f1e8ca41feb00d8070cfcbde" target="_top" xlink:title="fft_mul">
<polygon fill="none" stroke="#000000" points="111,-301.5 111,-320.5 158,-320.5 158,-301.5 111,-301.5"/>
<text text-anchor="middle" x="134.5" y="-308.5" font-family="Helvetica,sans-Serif" font-size="10.00" fill="#000000">fft_mul</text>
</a>
</g>
</g>
<!-- Node31886&#45;&gt;Node31887 -->
<g id="edge1" class="edge">
<title>Node31886&#45;&gt;Node31887</title>
<path fill="none" stroke="#191970" d="M85.0354,-311C93.9959,-311 103.0002,-311 110.8245,-311"/>
<polygon fill="#191970" stroke="#191970" points="85.0028,-307.5001 75.0027,-311 85.0027,-314.5001 85.0028,-307.5001"/>
</g>
<!-- Node31888 -->
<g id="node3" class="node">
<title>Node31888</title>
<g id="a_node3"><a xlink:href="libbf_8h.html#ac290278d0c37a0e7786873f98aadba47" target="_top" xlink:title="bf_mul">
<polygon fill="none" stroke="#000000" points="196.5,-565.5 196.5,-584.5 242.5,-584.5 242.5,-565.5 196.5,-565.5"/>
<text text-anchor="middle" x="219.5" y="-572.5" font-family="Helvetica,sans-Serif" font-size="10.00" fill="#000000">bf_mul</text>
</a>
</g>
</g>
<!-- Node31887&#45;&gt;Node31888 -->
<g id="edge2" class="edge">
<title>Node31887&#45;&gt;Node31888</title>
<path fill="none" stroke="#191970" d="M140.7785,-330.5001C157.7469,-383.2021 204.0754,-527.0931 216.4352,-565.4811"/>
<polygon fill="#191970" stroke="#191970" points="144.0224,-329.1551 137.626,-320.709 137.3593,-331.3005 144.0224,-329.1551"/>
</g>
<!-- Node31969 -->
<g id="node25" class="node">
<title>Node31969</title>
<g id="a_node25"><a xlink:href="libbf_8h.html#a6cd295d156fefc2f73a5f9de76595262" target="_top" xlink:title="mp_mul">
<polygon fill="none" stroke="#000000" points="194,-75.5 194,-94.5 245,-94.5 245,-75.5 194,-75.5"/>
<text text-anchor="middle" x="219.5" y="-82.5" font-family="Helvetica,sans-Serif" font-size="10.00" fill="#000000">mp_mul</text>
</a>
</g>
</g>
<!-- Node31887&#45;&gt;Node31969 -->
<g id="edge36" class="edge">
<title>Node31887&#45;&gt;Node31969</title>
<path fill="none" stroke="#191970" d="M141.7117,-291.8253C159.117,-245.5476 202.9412,-129.027 215.8613,-94.6748"/>
<polygon fill="#191970" stroke="#191970" points="138.3968,-290.697 138.1523,-301.2891 144.9487,-293.1613 138.3968,-290.697"/>
</g>
<!-- Node31889 -->
<g id="node4" class="node">
<title>Node31889</title>
<g id="a_node4"><a xlink:href="libbf_8c.html#a4f1865c8160fb851cce8015c3edb4d4f" target="_top" xlink:title="bf_tdivremu">
<polygon fill="none" stroke="#ff0000" points="311.5,-850.5 311.5,-869.5 379.5,-869.5 379.5,-850.5 311.5,-850.5"/>
<text text-anchor="middle" x="345.5" y="-857.5" font-family="Helvetica,sans-Serif" font-size="10.00" fill="#000000">bf_tdivremu</text>
</a>
</g>
</g>
<!-- Node31888&#45;&gt;Node31889 -->
<g id="edge3" class="edge">
<title>Node31888&#45;&gt;Node31889</title>
<path fill="none" stroke="#191970" d="M221.5118,-594.8612C227.512,-650.2853 247.0085,-804.932 281,-841 288.9263,-849.4105 300.3681,-854.1575 311.4211,-856.8166"/>
<polygon fill="#191970" stroke="#191970" points="224.9615,-594.1984 220.4359,-584.6187 217.9998,-594.9297 224.9615,-594.1984"/>
</g>
<!-- Node31909 -->
<g id="node5" class="node">
<title>Node31909</title>
<g id="a_node5"><a xlink:href="libbf_8h.html#ae080fd42a2c7fc561d7084762204357e" target="_top" xlink:title="bf_sqrtrem">
<polygon fill="none" stroke="#ff0000" points="314,-812.5 314,-831.5 377,-831.5 377,-812.5 314,-812.5"/>
<text text-anchor="middle" x="345.5" y="-819.5" font-family="Helvetica,sans-Serif" font-size="10.00" fill="#000000">bf_sqrtrem</text>
</a>
</g>
</g>
<!-- Node31888&#45;&gt;Node31909 -->
<g id="edge4" class="edge">
<title>Node31888&#45;&gt;Node31909</title>
<path fill="none" stroke="#191970" d="M222.5854,-594.6981C230.5707,-643.3987 253.242,-767.7118 281,-798 289.5569,-807.3369 302.086,-813.0564 313.8308,-816.5534"/>
<polygon fill="#191970" stroke="#191970" points="225.994,-593.8493 220.953,-584.5306 219.0825,-594.959 225.994,-593.8493"/>
</g>
<!-- Node31913 -->
<g id="node6" class="node">
<title>Node31913</title>
<g id="a_node6"><a xlink:href="libbf_8h.html#acee0d550162528b5ca5513d4479549c2" target="_top" xlink:title="bf_mul_ui">
<polygon fill="none" stroke="#ff0000" points="316,-660.5 316,-679.5 375,-679.5 375,-660.5 316,-660.5"/>
<text text-anchor="middle" x="345.5" y="-667.5" font-family="Helvetica,sans-Serif" font-size="10.00" fill="#000000">bf_mul_ui</text>
</a>
</g>
</g>
<!-- Node31888&#45;&gt;Node31913 -->
<g id="edge5" class="edge">
<title>Node31888&#45;&gt;Node31913</title>
<path fill="none" stroke="#191970" d="M231.2236,-593.0719C242.3463,-608.9535 260.3918,-631.7007 281,-646 291.4054,-653.2199 304.2522,-658.5756 315.7346,-662.373"/>
<polygon fill="#191970" stroke="#191970" points="234.0125,-590.9482 225.5076,-584.6302 228.2163,-594.873 234.0125,-590.9482"/>
</g>
<!-- Node31914 -->
<g id="node7" class="node">
<title>Node31914</title>
<g id="a_node7"><a xlink:href="libbf_8c.html#a81e50b3d7e7a931a93d6ea7e1d630631" target="_top" xlink:title="chud_bs">
<polygon fill="none" stroke="#000000" points="467.5,-622.5 467.5,-641.5 520.5,-641.5 520.5,-622.5 467.5,-622.5"/>
<text text-anchor="middle" x="494" y="-629.5" font-family="Helvetica,sans-Serif" font-size="10.00" fill="#000000">chud_bs</text>
</a>
</g>
</g>
<!-- Node31888&#45;&gt;Node31914 -->
<g id="edge23" class="edge">
<title>Node31888&#45;&gt;Node31914</title>
<path fill="none" stroke="#191970" d="M252.1418,-587.9127C261.3672,-591.2225 271.4868,-594.5384 281,-597 347.03,-614.0856 426.8306,-624.5677 467.4481,-629.2001"/>
<polygon fill="#191970" stroke="#191970" points="253.1464,-584.5525 242.5532,-584.3643 250.7169,-591.1174 253.1464,-584.5525"/>
</g>
<!-- Node31915 -->
<g id="node8" class="node">
<title>Node31915</title>
<g id="a_node8"><a xlink:href="libbf_8c.html#a11d2dea6becda91c288fd883eefc8e5c" target="_top" xlink:title="bf_const_pi_internal">
<polygon fill="none" stroke="#ff0000" points="578,-678.5 578,-697.5 682,-697.5 682,-678.5 578,-678.5"/>
<text text-anchor="middle" x="630" y="-685.5" font-family="Helvetica,sans-Serif" font-size="10.00" fill="#000000">bf_const_pi_internal</text>
</a>
</g>
</g>
<!-- Node31888&#45;&gt;Node31915 -->
<g id="edge24" class="edge">
<title>Node31888&#45;&gt;Node31915</title>
<path fill="none" stroke="#191970" d="M223.3397,-594.5009C232.0462,-636.4981 254.5956,-733.2215 281,-752 375.5655,-819.2536 431.6277,-780.8278 542,-745 572.9909,-734.9401 603.6668,-711.0806 619.3165,-697.6378"/>
<polygon fill="#191970" stroke="#191970" points="226.7596,-593.7542 221.3444,-584.6478 219.8989,-595.1436 226.7596,-593.7542"/>
</g>
<!-- Node31895 -->
<g id="node9" class="node">
<title>Node31895</title>
<g id="a_node9"><a xlink:href="libbf_8c.html#ab769247f7a6429c42dfeba4f8334cb75" target="_top" xlink:title="bf_sincos">
<polygon fill="none" stroke="#ff0000" points="464.5,-716.5 464.5,-735.5 523.5,-735.5 523.5,-716.5 464.5,-716.5"/>
<text text-anchor="middle" x="494" y="-723.5" font-family="Helvetica,sans-Serif" font-size="10.00" fill="#000000">bf_sincos</text>
</a>
</g>
</g>
<!-- Node31888&#45;&gt;Node31895 -->
<g id="edge29" class="edge">
<title>Node31888&#45;&gt;Node31895</title>
<path fill="none" stroke="#191970" d="M220.7829,-594.781C224.1699,-628.6464 236.4655,-696.9772 281,-727 336.9592,-764.7247 421.3822,-748.154 465.2467,-735.5291"/>
<polygon fill="#191970" stroke="#191970" points="224.263,-594.3962 219.9421,-584.7226 217.2874,-594.9794 224.263,-594.3962"/>
</g>
<!-- Node31927 -->
<g id="node10" class="node">
<title>Node31927</title>
<g id="a_node10"><a xlink:href="libbf_8h.html#a6fbb1ec8880c203fc01baf940a54cc62" target="_top" xlink:title="bf_mul_si">
<polygon fill="none" stroke="#ff0000" points="316,-546.5 316,-565.5 375,-565.5 375,-546.5 316,-546.5"/>
<text text-anchor="middle" x="345.5" y="-553.5" font-family="Helvetica,sans-Serif" font-size="10.00" fill="#000000">bf_mul_si</text>
</a>
</g>
</g>
<!-- Node31888&#45;&gt;Node31927 -->
<g id="edge11" class="edge">
<title>Node31888&#45;&gt;Node31927</title>
<path fill="none" stroke="#191970" d="M252.6377,-570.003C272.2538,-567.0451 296.8949,-563.3293 315.8641,-560.4689"/>
<polygon fill="#191970" stroke="#191970" points="251.9766,-566.5631 242.6103,-571.5151 253.0205,-573.4848 251.9766,-566.5631"/>
</g>
<!-- Node31928 -->
<g id="node11" class="node">
<title>Node31928</title>
<g id="a_node11"><a xlink:href="libbf_8c.html#a157194b3c7faaa17e39ae78cd98c4385" target="_top" xlink:title="bf_exp_internal">
<polygon fill="none" stroke="#ff0000" points="452.5,-584.5 452.5,-603.5 535.5,-603.5 535.5,-584.5 452.5,-584.5"/>
<text text-anchor="middle" x="494" y="-591.5" font-family="Helvetica,sans-Serif" font-size="10.00" fill="#000000">bf_exp_internal</text>
</a>
</g>
</g>
<!-- Node31888&#45;&gt;Node31928 -->
<g id="edge25" class="edge">
<title>Node31888&#45;&gt;Node31928</title>
<path fill="none" stroke="#191970" d="M252.8856,-577.3108C302.9656,-580.7772 397.4746,-587.3188 452.1134,-591.1007"/>
<polygon fill="#191970" stroke="#191970" points="253.1216,-573.8189 242.9037,-576.6199 252.6381,-580.8022 253.1216,-573.8189"/>
</g>
<!-- Node31929 -->
<g id="node12" class="node">
<title>Node31929</title>
<g id="a_node12"><a xlink:href="libbf_8c.html#aab7bc918fdd8dbef25c31c6881c73fdd" target="_top" xlink:title="bf_log_internal">
<polygon fill="none" stroke="#ff0000" points="454,-386.5 454,-405.5 534,-405.5 534,-386.5 454,-386.5"/>
<text text-anchor="middle" x="494" y="-393.5" font-family="Helvetica,sans-Serif" font-size="10.00" fill="#000000">bf_log_internal</text>
</a>
</g>
</g>
<!-- Node31888&#45;&gt;Node31929 -->
<g id="edge26" class="edge">
<title>Node31888&#45;&gt;Node31929</title>
<path fill="none" stroke="#191970" d="M220.1654,-554.8295C222.7443,-490.7079 234.3981,-293.4984 281,-255 325.2012,-218.4848 360.1529,-226.6738 410,-255 461.7763,-284.4225 484.9992,-359.7828 491.7812,-386.4624"/>
<polygon fill="#191970" stroke="#191970" points="216.6545,-555.063 219.7831,-565.1854 223.6497,-555.3214 216.6545,-555.063"/>
</g>
<!-- Node31931 -->
<g id="node13" class="node">
<title>Node31931</title>
<g id="a_node13"><a xlink:href="libbf_8c.html#a3ae2be576639444cdfcb0a232471e77d" target="_top" xlink:title="bf_pow_ui">
<polygon fill="none" stroke="#ff0000" points="315,-508.5 315,-527.5 376,-527.5 376,-508.5 315,-508.5"/>
<text text-anchor="middle" x="345.5" y="-515.5" font-family="Helvetica,sans-Serif" font-size="10.00" fill="#000000">bf_pow_ui</text>
</a>
</g>
</g>
<!-- Node31888&#45;&gt;Node31931 -->
<g id="edge14" class="edge">
<title>Node31888&#45;&gt;Node31931</title>
<path fill="none" stroke="#191970" d="M241.0552,-559.7058C252.5119,-552.0953 267.0741,-543.2184 281,-537 291.6592,-532.2403 303.8329,-528.2999 314.7113,-525.2651"/>
<polygon fill="#191970" stroke="#191970" points="238.8984,-556.94 232.6044,-565.4627 242.8395,-562.7252 238.8984,-556.94"/>
</g>
<!-- Node31935 -->
<g id="node14" class="node">
<title>Node31935</title>
<g id="a_node14"><a xlink:href="libbf_8c.html#a5d5227218ea18d8ca58be002abc729bf" target="_top" xlink:title="bf_integer_from_radix_rec">
<polygon fill="none" stroke="#ff0000" points="281,-452.5 281,-471.5 410,-471.5 410,-452.5 281,-452.5"/>
<text text-anchor="middle" x="345.5" y="-459.5" font-family="Helvetica,sans-Serif" font-size="10.00" fill="#000000">bf_integer_from_radix_rec</text>
</a>
</g>
</g>
<!-- Node31888&#45;&gt;Node31935 -->
<g id="edge15" class="edge">
<title>Node31888&#45;&gt;Node31935</title>
<path fill="none" stroke="#191970" d="M231.5752,-556.432C242.9336,-539.9524 261.1274,-515.931 281,-499 294.1678,-487.7814 311.2227,-478.1697 324.4876,-471.5565"/>
<polygon fill="#191970" stroke="#191970" points="228.3878,-554.9002 225.7164,-565.1528 234.1983,-558.8039 228.3878,-554.9002"/>
</g>
<!-- Node31962 -->
<g id="node15" class="node">
<title>Node31962</title>
<g id="a_node15"><a xlink:href="libbf_8h.html#a0b4d56fc6808de8feed2a234525df692" target="_top" xlink:title="bf_mul_pow_radix">
<polygon fill="none" stroke="#ff0000" points="298,-414.5 298,-433.5 393,-433.5 393,-414.5 298,-414.5"/>
<text text-anchor="middle" x="345.5" y="-421.5" font-family="Helvetica,sans-Serif" font-size="10.00" fill="#000000">bf_mul_pow_radix</text>
</a>
</g>
</g>
<!-- Node31888&#45;&gt;Node31962 -->
<g id="edge17" class="edge">
<title>Node31888&#45;&gt;Node31962</title>
<path fill="none" stroke="#191970" d="M223.3146,-555.3244C229.9382,-526.4622 246.3205,-472.8461 281,-443 285.9549,-438.7357 291.8285,-435.4278 297.9817,-432.862"/>
<polygon fill="#191970" stroke="#191970" points="219.8294,-554.8869 221.1727,-565.3962 226.6763,-556.3429 219.8294,-554.8869"/>
</g>
<!-- Node31946 -->
<g id="node16" class="node">
<title>Node31946</title>
<g id="a_node16"><a xlink:href="libbf_8c.html#a7cdab316b6ccee264a2effe61e1a6a27" target="_top" xlink:title="bf_integer_to_radix_rec">
<polygon fill="none" stroke="#ff0000" points="286.5,-358.5 286.5,-377.5 404.5,-377.5 404.5,-358.5 286.5,-358.5"/>
<text text-anchor="middle" x="345.5" y="-365.5" font-family="Helvetica,sans-Serif" font-size="10.00" fill="#000000">bf_integer_to_radix_rec</text>
</a>
</g>
</g>
<!-- Node31888&#45;&gt;Node31946 -->
<g id="edge18" class="edge">
<title>Node31888&#45;&gt;Node31946</title>
<path fill="none" stroke="#191970" d="M222.1218,-555.3185C227.5638,-521.1908 242.9176,-450.3463 281,-405 291.2948,-392.7416 306.7494,-383.6776 319.9499,-377.5895"/>
<polygon fill="#191970" stroke="#191970" points="218.6323,-554.9915 220.6377,-565.3948 225.5575,-556.0115 218.6323,-554.9915"/>
</g>
<!-- Node31934 -->
<g id="node17" class="node">
<title>Node31934</title>
<g id="a_node17"><a xlink:href="libbf_8c.html#a13930fbd670b65bf9f8c07a0fbcfc63b" target="_top" xlink:title="bf_convert_to_radix">
<polygon fill="none" stroke="#000000" points="294.5,-320.5 294.5,-339.5 396.5,-339.5 396.5,-320.5 294.5,-320.5"/>
<text text-anchor="middle" x="345.5" y="-327.5" font-family="Helvetica,sans-Serif" font-size="10.00" fill="#000000">bf_convert_to_radix</text>
</a>
</g>
</g>
<!-- Node31888&#45;&gt;Node31934 -->
<g id="edge20" class="edge">
<title>Node31888&#45;&gt;Node31934</title>
<path fill="none" stroke="#191970" d="M222.3743,-555.2318C229.9368,-505.823 251.8318,-378.7807 281,-349 284.8391,-345.0803 289.4426,-341.9594 294.4005,-339.4762"/>
<polygon fill="#191970" stroke="#191970" points="218.8889,-554.8743 220.8713,-565.282 225.8119,-555.9097 218.8889,-554.8743"/>
</g>
<!-- Node31965 -->
<g id="node18" class="node">
<title>Node31965</title>
<g id="a_node18"><a xlink:href="libbf_8c.html#a829c2ed2112548096d41c6ceb017e542" target="_top" xlink:title="bf_const_log2_rec">
<polygon fill="none" stroke="#ff0000" points="297.5,-264.5 297.5,-283.5 393.5,-283.5 393.5,-264.5 297.5,-264.5"/>
<text text-anchor="middle" x="345.5" y="-271.5" font-family="Helvetica,sans-Serif" font-size="10.00" fill="#000000">bf_const_log2_rec</text>
</a>
</g>
</g>
<!-- Node31888&#45;&gt;Node31965 -->
<g id="edge21" class="edge">
<title>Node31888&#45;&gt;Node31965</title>
<path fill="none" stroke="#191970" d="M222.0259,-555.296C229.3068,-500.9576 251.7015,-350.398 281,-311 290.3213,-298.4655 305.2407,-289.5141 318.3837,-283.5588"/>
<polygon fill="#191970" stroke="#191970" points="218.5367,-554.9854 220.7046,-565.356 225.4771,-555.897 218.5367,-554.9854"/>
</g>
<!-- Node31968 -->
<g id="node19" class="node">
<title>Node31968</title>
<g id="a_node19"><a xlink:href="libbf_8c.html#a15b40c4ae7e9b401fd0c6dc398eacef7" target="_top" xlink:title="bf_sqrt_sin">
<polygon fill="none" stroke="#000000" points="313,-698.5 313,-717.5 378,-717.5 378,-698.5 313,-698.5"/>
<text text-anchor="middle" x="345.5" y="-705.5" font-family="Helvetica,sans-Serif" font-size="10.00" fill="#000000">bf_sqrt_sin</text>
</a>
</g>
</g>
<!-- Node31888&#45;&gt;Node31968 -->
<g id="edge27" class="edge">
<title>Node31888&#45;&gt;Node31968</title>
<path fill="none" stroke="#191970" d="M224.7739,-594.192C232.7417,-619.6017 250.278,-664.0917 281,-689 290.0678,-696.3518 301.8933,-700.8592 312.9384,-703.6226"/>
<polygon fill="#191970" stroke="#191970" points="228.1249,-593.1813 221.9344,-584.5831 221.4119,-595.165 228.1249,-593.1813"/>
</g>
<!-- Node31917 -->
<g id="node20" class="node">
<title>Node31917</title>
<g id="a_node20"><a xlink:href="libbf_8c.html#aa4b535a5b33344704c576607ab4f0463" target="_top" xlink:title="bf_atan_internal">
<polygon fill="none" stroke="#ff0000" points="302.5,-188.5 302.5,-207.5 388.5,-207.5 388.5,-188.5 302.5,-188.5"/>
<text text-anchor="middle" x="345.5" y="-195.5" font-family="Helvetica,sans-Serif" font-size="10.00" fill="#000000">bf_atan_internal</text>
</a>
</g>
</g>
<!-- Node31888&#45;&gt;Node31917 -->
<g id="edge30" class="edge">
<title>Node31888&#45;&gt;Node31917</title>
<path fill="none" stroke="#191970" d="M220.4119,-555.1898C223.858,-488.515 238.145,-273.5522 281,-222 286.5756,-215.2928 294.2162,-210.4593 302.2906,-206.9762"/>
<polygon fill="#191970" stroke="#191970" points="216.9145,-555.0524 219.9192,-565.2122 223.9061,-555.3962 216.9145,-555.0524"/>
</g>
<!-- Node31918 -->
<g id="node21" class="node">
<title>Node31918</title>
<g id="a_node21"><a xlink:href="libbf_8c.html#a4a0919b7e170befaf75d114d48d350cc" target="_top" xlink:title="bf_asin_internal">
<polygon fill="none" stroke="#ff0000" points="451.5,-169.5 451.5,-188.5 536.5,-188.5 536.5,-169.5 451.5,-169.5"/>
<text text-anchor="middle" x="494" y="-176.5" font-family="Helvetica,sans-Serif" font-size="10.00" fill="#000000">bf_asin_internal</text>
</a>
</g>
</g>
<!-- Node31888&#45;&gt;Node31918 -->
<g id="edge32" class="edge">
<title>Node31888&#45;&gt;Node31918</title>
<path fill="none" stroke="#191970" d="M221.1067,-554.8931C227.4698,-477.7611 251.9768,-203.8638 281,-179 333.7961,-133.7704 423.9202,-154.9718 468.0736,-169.4263"/>
<polygon fill="#191970" stroke="#191970" points="217.5942,-554.905 220.272,-565.1558 224.5712,-555.4725 217.5942,-554.905"/>
</g>
<!-- Node31903 -->
<g id="node22" class="node">
<title>Node31903</title>
<g id="a_node22"><a xlink:href="quickjs_8c.html#a916e386a73c9738a5e33109c83a4e3a8" target="_top" xlink:title="js_binary_arith_bigfloat">
<polygon fill="none" stroke="#ff0000" points="287.5,-964.5 287.5,-983.5 403.5,-983.5 403.5,-964.5 287.5,-964.5"/>
<text text-anchor="middle" x="345.5" y="-971.5" font-family="Helvetica,sans-Serif" font-size="10.00" fill="#000000">js_binary_arith_bigfloat</text>
</a>
</g>
</g>
<!-- Node31888&#45;&gt;Node31903 -->
<g id="edge33" class="edge">
<title>Node31888&#45;&gt;Node31903</title>
<path fill="none" stroke="#191970" d="M219.9971,-594.5979C222.1637,-664.5247 232.9693,-900.5003 281,-955 284.3961,-958.8535 288.5302,-961.9436 293.0482,-964.4189"/>
<polygon fill="#191970" stroke="#191970" points="223.4935,-594.4196 219.7106,-584.5231 216.4963,-594.6186 223.4935,-594.4196"/>
</g>
<!-- Node31905 -->
<g id="node23" class="node">
<title>Node31905</title>
<g id="a_node23"><a xlink:href="quickjs_8c.html#a69d448a344a95318ee4ce862ccc21251" target="_top" xlink:title="js_binary_arith_bigint">
<polygon fill="none" stroke="#ff0000" points="291.5,-926.5 291.5,-945.5 399.5,-945.5 399.5,-926.5 291.5,-926.5"/>
<text text-anchor="middle" x="345.5" y="-933.5" font-family="Helvetica,sans-Serif" font-size="10.00" fill="#000000">js_binary_arith_bigint</text>
</a>
</g>
</g>
<!-- Node31888&#45;&gt;Node31905 -->
<g id="edge34" class="edge">
<title>Node31888&#45;&gt;Node31905</title>
<path fill="none" stroke="#191970" d="M220.391,-594.7136C223.7404,-660.1441 237.6806,-868.7034 281,-917 284.4296,-920.8237 288.5857,-923.8942 293.1172,-926.3576"/>
<polygon fill="#191970" stroke="#191970" points="223.8781,-594.3605 219.8982,-584.5416 216.8863,-594.6993 223.8781,-594.3605"/>
</g>
<!-- Node31892 -->
<g id="node24" class="node">
<title>Node31892</title>
<g id="a_node24"><a xlink:href="quickjs_8c.html#aa8ee7b99edb58d78277e8de851c48279" target="_top" xlink:title="js_bigfloat_fop2">
<polygon fill="none" stroke="#000000" points="303,-888.5 303,-907.5 388,-907.5 388,-888.5 303,-888.5"/>
<text text-anchor="middle" x="345.5" y="-895.5" font-family="Helvetica,sans-Serif" font-size="10.00" fill="#000000">js_bigfloat_fop2</text>
</a>
</g>
</g>
<!-- Node31888&#45;&gt;Node31892 -->
<g id="edge35" class="edge">
<title>Node31888&#45;&gt;Node31892</title>
<path fill="none" stroke="#191970" d="M220.8869,-594.8536C225.5152,-655.5163 242.3728,-836.8629 281,-879 286.8374,-885.3678 294.6895,-889.6418 302.9037,-892.5004"/>
<polygon fill="#191970" stroke="#191970" points="224.3642,-594.4151 220.1418,-584.6981 217.383,-594.9274 224.3642,-594.4151"/>
</g>
<!-- Node31913&#45;&gt;Node31914 -->
<g id="edge6" class="edge">
<title>Node31913&#45;&gt;Node31914</title>
<path fill="none" stroke="#191970" d="M385.1261,-659.86C411.1399,-653.2033 444.4598,-644.6769 467.3481,-638.82"/>
<polygon fill="#191970" stroke="#191970" points="384.0144,-656.5316 375.1943,-662.4015 385.7498,-663.3131 384.0144,-656.5316"/>
</g>
<!-- Node31913&#45;&gt;Node31915 -->
<g id="edge9" class="edge">
<title>Node31913&#45;&gt;Node31915</title>
<path fill="none" stroke="#191970" d="M385.2973,-672.5179C435.5941,-675.7002 522.2916,-681.1854 577.841,-684.7"/>
<polygon fill="#191970" stroke="#191970" points="385.3424,-669.0139 375.1414,-671.8754 384.9004,-675.9999 385.3424,-669.0139"/>
</g>
<!-- Node31913&#45;&gt;Node31895 -->
<g id="edge10" class="edge">
<title>Node31913&#45;&gt;Node31895</title>
<path fill="none" stroke="#191970" d="M385.1539,-680.8082C393.4285,-683.3067 402.05,-686.0918 410,-689 432.4482,-697.2118 457.4291,-708.5033 474.2676,-716.4462"/>
<polygon fill="#191970" stroke="#191970" points="385.8821,-677.3743 375.301,-677.9138 383.9091,-684.0905 385.8821,-677.3743"/>
</g>
<!-- Node31914&#45;&gt;Node31914 -->
<g id="edge8" class="edge">
<title>Node31914&#45;&gt;Node31914</title>
<path fill="none" stroke="#191970" d="M468.7025,-651.0292C470.0824,-656.128 478.5149,-660 494,-660 518.1719,-660 525.1591,-650.5653 514.9615,-641.7571"/>
<polygon fill="#191970" stroke="#191970" points="471.9728,-652.2982 473.0385,-641.7571 465.6319,-649.3329 471.9728,-652.2982"/>
</g>
<!-- Node31914&#45;&gt;Node31915 -->
<g id="edge7" class="edge">
<title>Node31914&#45;&gt;Node31915</title>
<path fill="none" stroke="#191970" d="M526.7399,-645.4811C551.5083,-655.6799 584.905,-669.4315 606.9258,-678.4989"/>
<polygon fill="#191970" stroke="#191970" points="527.9587,-642.1979 517.3792,-641.6267 525.2934,-648.6707 527.9587,-642.1979"/>
</g>
<!-- Node31927&#45;&gt;Node31928 -->
<g id="edge12" class="edge">
<title>Node31927&#45;&gt;Node31928</title>
<path fill="none" stroke="#191970" d="M384.9936,-566.1061C407.2311,-571.7965 434.8398,-578.8614 456.7076,-584.4572"/>
<polygon fill="#191970" stroke="#191970" points="385.7498,-562.6869 375.1943,-563.5985 384.0144,-569.4684 385.7498,-562.6869"/>
</g>
<!-- Node31927&#45;&gt;Node31929 -->
<g id="edge13" class="edge">
<title>Node31927&#45;&gt;Node31929</title>
<path fill="none" stroke="#191970" d="M385.0945,-549.3638C393.9032,-546.5746 402.7635,-542.6162 410,-537 456.596,-500.8373 482.7587,-430.9673 491.067,-405.5451"/>
<polygon fill="#191970" stroke="#191970" points="383.9892,-546.0372 375.2604,-552.0421 385.8287,-552.7912 383.9892,-546.0372"/>
</g>
<!-- Node31935&#45;&gt;Node31935 -->
<g id="edge16" class="edge">
<title>Node31935&#45;&gt;Node31935</title>
<path fill="none" stroke="#191970" d="M322.0626,-481.0292C323.341,-486.128 331.1535,-490 345.5,-490 367.8945,-490 374.368,-480.5653 364.9203,-471.7571"/>
<polygon fill="#191970" stroke="#191970" points="325.3158,-482.3243 326.0797,-471.7571 318.8927,-479.5415 325.3158,-482.3243"/>
</g>
<!-- Node31946&#45;&gt;Node31946 -->
<g id="edge19" class="edge">
<title>Node31946&#45;&gt;Node31946</title>
<path fill="none" stroke="#191970" d="M322.0626,-387.0292C323.341,-392.128 331.1535,-396 345.5,-396 367.8945,-396 374.368,-386.5653 364.9203,-377.7571"/>
<polygon fill="#191970" stroke="#191970" points="325.3158,-388.3243 326.0797,-377.7571 318.8927,-385.5415 325.3158,-388.3243"/>
</g>
<!-- Node31965&#45;&gt;Node31965 -->
<g id="edge22" class="edge">
<title>Node31965&#45;&gt;Node31965</title>
<path fill="none" stroke="#191970" d="M322.0626,-293.0292C323.341,-298.128 331.1535,-302 345.5,-302 367.8945,-302 374.368,-292.5653 364.9203,-283.7571"/>
<polygon fill="#191970" stroke="#191970" points="325.3158,-294.3243 326.0797,-283.7571 318.8927,-291.5415 325.3158,-294.3243"/>
</g>
<!-- Node31968&#45;&gt;Node31895 -->
<g id="edge28" class="edge">
<title>Node31968&#45;&gt;Node31895</title>
<path fill="none" stroke="#191970" d="M388.1128,-713.1652C412.3868,-716.1075 442.2097,-719.7224 464.013,-722.3652"/>
<polygon fill="#191970" stroke="#191970" points="388.4375,-709.679 378.089,-711.9502 387.5951,-716.6281 388.4375,-709.679"/>
</g>
<!-- Node31917&#45;&gt;Node31918 -->
<g id="edge31" class="edge">
<title>Node31917&#45;&gt;Node31918</title>
<path fill="none" stroke="#191970" d="M398.7961,-191.181C416.0629,-188.9718 434.9763,-186.5519 451.3635,-184.4552"/>
<polygon fill="#191970" stroke="#191970" points="398.3265,-187.7124 388.8515,-192.4533 399.2149,-194.6558 398.3265,-187.7124"/>
</g>
<!-- Node31970 -->
<g id="node26" class="node">
<title>Node31970</title>
<g id="a_node26"><a xlink:href="libbf_8h.html#a01be6db77710375febf385d07ad4f1fe" target="_top" xlink:title="mp_recip">
<polygon fill="none" stroke="#000000" points="317.5,-94.5 317.5,-113.5 373.5,-113.5 373.5,-94.5 317.5,-94.5"/>
<text text-anchor="middle" x="345.5" y="-101.5" font-family="Helvetica,sans-Serif" font-size="10.00" fill="#000000">mp_recip</text>
</a>
</g>
</g>
<!-- Node31969&#45;&gt;Node31970 -->
<g id="edge37" class="edge">
<title>Node31969&#45;&gt;Node31970</title>
<path fill="none" stroke="#191970" d="M255.3782,-90.4102C274.9491,-93.3614 298.8359,-96.9633 317.0992,-99.7173"/>
<polygon fill="#191970" stroke="#191970" points="255.7121,-86.9211 245.302,-88.8908 254.6683,-93.8428 255.7121,-86.9211"/>
</g>
<!-- Node31971 -->
<g id="node27" class="node">
<title>Node31971</title>
<g id="a_node27"><a xlink:href="libbf_8c.html#ae8bc748c521cf9e366c02ba403b2d8c0" target="_top" xlink:title="mp_divnorm_large">
<polygon fill="none" stroke="#ff0000" points="446,-75.5 446,-94.5 542,-94.5 542,-75.5 446,-75.5"/>
<text text-anchor="middle" x="494" y="-82.5" font-family="Helvetica,sans-Serif" font-size="10.00" fill="#000000">mp_divnorm_large</text>
</a>
</g>
</g>
<!-- Node31969&#45;&gt;Node31971 -->
<g id="edge40" class="edge">
<title>Node31969&#45;&gt;Node31971</title>
<path fill="none" stroke="#191970" d="M255.4046,-85C304.1525,-85 391.4211,-85 445.8231,-85"/>
<polygon fill="#191970" stroke="#191970" points="255.3243,-81.5001 245.3243,-85 255.3243,-88.5001 255.3243,-81.5001"/>
</g>
<!-- Node31975 -->
<g id="node28" class="node">
<title>Node31975</title>
<g id="a_node28"><a xlink:href="libbf_8c.html#ad6e0bb87edc2953629f7fc6f16e3e7d7" target="_top" xlink:title="mp_sqrtrem_rec">
<polygon fill="none" stroke="#ff0000" points="302,-.5 302,-19.5 389,-19.5 389,-.5 302,-.5"/>
<text text-anchor="middle" x="345.5" y="-7.5" font-family="Helvetica,sans-Serif" font-size="10.00" fill="#000000">mp_sqrtrem_rec</text>
</a>
</g>
</g>
<!-- Node31969&#45;&gt;Node31975 -->
<g id="edge41" class="edge">
<title>Node31969&#45;&gt;Node31975</title>
<path fill="none" stroke="#191970" d="M244.3545,-70.2057C269.5608,-55.2019 307.8327,-32.421 329.3479,-19.6144"/>
<polygon fill="#191970" stroke="#191970" points="242.5171,-67.2262 235.7143,-75.3486 246.0975,-73.2412 242.5171,-67.2262"/>
</g>
<!-- Node31970&#45;&gt;Node31970 -->
<g id="edge38" class="edge">
<title>Node31970&#45;&gt;Node31970</title>
<path fill="none" stroke="#191970" d="M322.0626,-123.0292C323.341,-128.128 331.1535,-132 345.5,-132 367.8945,-132 374.368,-122.5653 364.9203,-113.7571"/>
<polygon fill="#191970" stroke="#191970" points="325.3158,-124.3243 326.0797,-113.7571 318.8927,-121.5415 325.3158,-124.3243"/>
</g>
<!-- Node31970&#45;&gt;Node31971 -->
<g id="edge39" class="edge">
<title>Node31970&#45;&gt;Node31971</title>
<path fill="none" stroke="#191970" d="M383.8396,-99.0946C402.7861,-96.6705 425.8417,-93.7206 445.9545,-91.1472"/>
<polygon fill="#191970" stroke="#191970" points="383.2562,-95.6406 373.7813,-100.3815 384.1446,-102.584 383.2562,-95.6406"/>
</g>
<!-- Node31975&#45;&gt;Node31975 -->
<g id="edge42" class="edge">
<title>Node31975&#45;&gt;Node31975</title>
<path fill="none" stroke="#191970" d="M322.0626,-29.0292C323.341,-34.128 331.1535,-38 345.5,-38 367.8945,-38 374.368,-28.5653 364.9203,-19.7571"/>
<polygon fill="#191970" stroke="#191970" points="325.3158,-30.3243 326.0797,-19.7571 318.8927,-27.5415 325.3158,-30.3243"/>
</g>
</g>
</svg>
        <g id="navigator" transform="translate(0 0)" fill="#404254">
                <rect fill="#f2f5e9" fill-opacity="0.5" stroke="#606060" stroke-width=".5" x="0" y="0" width="60" height="60"/>
                <use id="zoomplus" xlink:href="#zoomPlus" x="17" y="9" onmousedown="handleZoom(evt,'in')"/>
                <use id="zoomminus" xlink:href="#zoomMin" x="42" y="9" onmousedown="handleZoom(evt,'out')"/>
                <use id="reset" xlink:href="#resetDef" x="30" y="36" onmousedown="handleReset()"/>
                <g id="arrowUp" xlink:href="#dirArrow" transform="translate(30 24)" onmousedown="handlePan(0,-1)">
                  <use xlink:href="#rim" fill="#404040">
                        <set attributeName="fill" to="#808080" begin="arrowUp.mouseover" end="arrowUp.mouseout"/>
                  </use>
                  <path fill="none" stroke="white" stroke-width="1.5" d="M0,-3.0v7 M-2.5,-0.5L0,-3.0L2.5,-0.5"/>
                </g>
                <g id="arrowRight" xlink:href="#dirArrow" transform="rotate(90) translate(36 -43)" onmousedown="handlePan(1,0)">
                  <use xlink:href="#rim" fill="#404040">
                        <set attributeName="fill" to="#808080" begin="arrowRight.mouseover" end="arrowRight.mouseout"/>
                  </use>
                  <path fill="none" stroke="white" stroke-width="1.5" d="M0,-3.0v7 M-2.5,-0.5L0,-3.0L2.5,-0.5"/>
                </g>
                <g id="arrowDown" xlink:href="#dirArrow" transform="rotate(180) translate(-30 -48)" onmousedown="handlePan(0,1)">
                  <use xlink:href="#rim" fill="#404040">
                        <set attributeName="fill" to="#808080" begin="arrowDown.mouseover" end="arrowDown.mouseout"/>
                  </use>
                  <path fill="none" stroke="white" stroke-width="1.5" d="M0,-3.0v7 M-2.5,-0.5L0,-3.0L2.5,-0.5"/>
                </g>
                <g id="arrowLeft" xlink:href="#dirArrow" transform="rotate(270) translate(-36 17)" onmousedown="handlePan(-1,0)">
                  <use xlink:href="#rim" fill="#404040">
                        <set attributeName="fill" to="#808080" begin="arrowLeft.mouseover" end="arrowLeft.mouseout"/>
                  </use>
                  <path fill="none" stroke="white" stroke-width="1.5" d="M0,-3.0v7 M-2.5,-0.5L0,-3.0L2.5,-0.5"/>
                </g>
        </g>
        <svg viewBox="0 0 15 15" width="100%" height="30px" preserveAspectRatio="xMaxYMin meet">
         <g id="arrow_out" transform="scale(0.3 0.3)">
          <a xlink:href="libbf_8c_a268123299eb28c41ec2ead834aa13ae6_icgraph_org.svg" target="_base">
           <rect id="button" ry="5" rx="5" y="6" x="6" height="38" width="38"
                fill="#f2f5e9" fill-opacity="0.5" stroke="#606060" stroke-width="1.0"/>
           <path id="arrow"
             d="M 11.500037,31.436501 C 11.940474,20.09759 22.043105,11.32322 32.158766,21.979434 L 37.068811,17.246167 C 37.068811,17.246167 37.088388,32 37.088388,32 L 22.160133,31.978069 C 22.160133,31.978069 26.997745,27.140456 26.997745,27.140456 C 18.528582,18.264221 13.291696,25.230495 11.500037,31.436501 z"
             style="fill:#404040;"/>
          </a>
         </g>
        </svg>
</svg>
