<?xml version="1.0" encoding="UTF-8" standalone="no"?>
<!DOCTYPE svg PUBLIC "-//W3C//DTD SVG 1.1//EN"
 "http://www.w3.org/Graphics/SVG/1.1/DTD/svg11.dtd">
<!-- Generated by graphviz version 2.40.1 (20161225.0304)
 -->
<!-- Title: bf_cmp_eq Pages: 1 -->
<svg width="644pt" height="370pt"
 viewBox="0.00 0.00 644.00 370.00" xmlns="http://www.w3.org/2000/svg" xmlns:xlink="http://www.w3.org/1999/xlink">
<g id="graph0" class="graph" transform="scale(1 1) rotate(0) translate(4 366)">
<title>bf_cmp_eq</title>
<!-- Node15983 -->
<g id="node1" class="node">
<title>Node15983</title>
<polygon fill="#bfbfbf" stroke="#000000" points="0,-228.5 0,-247.5 65,-247.5 65,-228.5 0,-228.5"/>
<text text-anchor="middle" x="32.5" y="-235.5" font-family="Helvetica,sans-Serif" font-size="10.00" fill="#000000">bf_cmp_eq</text>
</g>
<!-- Node15984 -->
<g id="node2" class="node">
<title>Node15984</title>
<g id="a_node2"><a xlink:href="libbf_8h.html#a4137b2308536cbc92addaeb3f0c79d35" target="_top" xlink:title="bf_log">
<polygon fill="none" stroke="#000000" points="131.5,-304.5 131.5,-323.5 174.5,-323.5 174.5,-304.5 131.5,-304.5"/>
<text text-anchor="middle" x="153" y="-311.5" font-family="Helvetica,sans-Serif" font-size="10.00" fill="#000000">bf_log</text>
</a>
</g>
</g>
<!-- Node15983&#45;&gt;Node15984 -->
<g id="edge1" class="edge">
<title>Node15983&#45;&gt;Node15984</title>
<path fill="none" stroke="#191970" d="M51.5403,-254.2419C64.8615,-265.1483 83.3605,-279.4057 101,-290 110.6318,-295.7849 121.8922,-301.1389 131.4668,-305.3154"/>
<polygon fill="#191970" stroke="#191970" points="53.5208,-251.3367 43.5951,-247.631 49.0435,-256.7176 53.5208,-251.3367"/>
</g>
<!-- Node15986 -->
<g id="node4" class="node">
<title>Node15986</title>
<g id="a_node4"><a xlink:href="libbf_8h.html#a93fe073491f8c5f086a75e7bf8865b34" target="_top" xlink:title="bf_pow">
<polygon fill="none" stroke="#ff0000" points="443,-342.5 443,-361.5 491,-361.5 491,-342.5 443,-342.5"/>
<text text-anchor="middle" x="467" y="-349.5" font-family="Helvetica,sans-Serif" font-size="10.00" fill="#000000">bf_pow</text>
</a>
</g>
</g>
<!-- Node15983&#45;&gt;Node15986 -->
<g id="edge5" class="edge">
<title>Node15983&#45;&gt;Node15986</title>
<path fill="none" stroke="#191970" d="M73.5469,-250.2941C82.5409,-252.7327 92.0497,-255.1175 101,-257 216.1436,-281.2174 258.5374,-240.851 363,-295 383.6545,-305.7064 379.0751,-320.9902 399,-333 412.3326,-341.0363 429.1722,-345.7751 442.7579,-348.5104"/>
<polygon fill="#191970" stroke="#191970" points="74.241,-246.8543 63.6685,-247.542 72.3622,-253.5974 74.241,-246.8543"/>
</g>
<!-- Node15994 -->
<g id="node6" class="node">
<title>Node15994</title>
<g id="a_node6"><a xlink:href="libbf_8h.html#a79d38aeb3ad23b5f22209373e2a8eab1" target="_top" xlink:title="bfdec_cmp_eq">
<polygon fill="none" stroke="#000000" points="113,-228.5 113,-247.5 193,-247.5 193,-228.5 113,-228.5"/>
<text text-anchor="middle" x="153" y="-235.5" font-family="Helvetica,sans-Serif" font-size="10.00" fill="#000000">bfdec_cmp_eq</text>
</a>
</g>
</g>
<!-- Node15983&#45;&gt;Node15994 -->
<g id="edge6" class="edge">
<title>Node15983&#45;&gt;Node15994</title>
<path fill="none" stroke="#191970" d="M75.4304,-238C87.5369,-238 100.663,-238 112.6147,-238"/>
<polygon fill="#191970" stroke="#191970" points="75.1091,-234.5001 65.109,-238 75.109,-241.5001 75.1091,-234.5001"/>
</g>
<!-- Node15997 -->
<g id="node9" class="node">
<title>Node15997</title>
<g id="a_node9"><a xlink:href="quickjs_8c.html#a6b7e8c810c238daa5ac20c70c2f22b24" target="_top" xlink:title="js_strict_eq2">
<polygon fill="none" stroke="#000000" points="266,-190.5 266,-209.5 338,-209.5 338,-190.5 266,-190.5"/>
<text text-anchor="middle" x="302" y="-197.5" font-family="Helvetica,sans-Serif" font-size="10.00" fill="#000000">js_strict_eq2</text>
</a>
</g>
</g>
<!-- Node15983&#45;&gt;Node15997 -->
<g id="edge22" class="edge">
<title>Node15983&#45;&gt;Node15997</title>
<path fill="none" stroke="#191970" d="M72.3901,-225.6618C81.706,-223.1364 91.6415,-220.7263 101,-219 158.0476,-208.477 225.3408,-203.619 265.7898,-201.4994"/>
<polygon fill="#191970" stroke="#191970" points="71.2601,-222.3437 62.5812,-228.4205 73.1553,-229.0823 71.2601,-222.3437"/>
</g>
<!-- Node16626 -->
<g id="node18" class="node">
<title>Node16626</title>
<g id="a_node18"><a xlink:href="quickjs_8c.html#a4a822a726548bdc455b2f83b85e5880e" target="_top" xlink:title="js_compare_bigfloat">
<polygon fill="none" stroke="#000000" points="101,-152.5 101,-171.5 205,-171.5 205,-152.5 101,-152.5"/>
<text text-anchor="middle" x="153" y="-159.5" font-family="Helvetica,sans-Serif" font-size="10.00" fill="#000000">js_compare_bigfloat</text>
</a>
</g>
</g>
<!-- Node15983&#45;&gt;Node16626 -->
<g id="edge19" class="edge">
<title>Node15983&#45;&gt;Node16626</title>
<path fill="none" stroke="#191970" d="M51.5403,-221.7581C64.8615,-210.8517 83.3605,-196.5943 101,-186 109.9499,-180.6247 120.306,-175.6213 129.4091,-171.5891"/>
<polygon fill="#191970" stroke="#191970" points="49.0435,-219.2824 43.5951,-228.369 53.5208,-224.6633 49.0435,-219.2824"/>
</g>
<!-- Node15985 -->
<g id="node3" class="node">
<title>Node15985</title>
<g id="a_node3"><a xlink:href="libbf_8c.html#aa28c1603087e2aec25b9bb0dae387875" target="_top" xlink:title="bf_pow_generic">
<polygon fill="none" stroke="#000000" points="259.5,-342.5 259.5,-361.5 344.5,-361.5 344.5,-342.5 259.5,-342.5"/>
<text text-anchor="middle" x="302" y="-349.5" font-family="Helvetica,sans-Serif" font-size="10.00" fill="#000000">bf_pow_generic</text>
</a>
</g>
</g>
<!-- Node15984&#45;&gt;Node15985 -->
<g id="edge2" class="edge">
<title>Node15984&#45;&gt;Node15985</title>
<path fill="none" stroke="#191970" d="M184.4527,-322.0215C207.8958,-328.0003 239.9959,-336.1869 264.7284,-342.4945"/>
<polygon fill="#191970" stroke="#191970" points="185.2207,-318.6054 174.6659,-319.5255 183.4908,-325.3883 185.2207,-318.6054"/>
</g>
<!-- Node15993 -->
<g id="node5" class="node">
<title>Node15993</title>
<g id="a_node5"><a xlink:href="quickjs_8c.html#af8435aca7fa84b4be13710a0311d990b" target="_top" xlink:title="js_bigfloat_fop">
<polygon fill="none" stroke="#000000" points="262,-304.5 262,-323.5 342,-323.5 342,-304.5 262,-304.5"/>
<text text-anchor="middle" x="302" y="-311.5" font-family="Helvetica,sans-Serif" font-size="10.00" fill="#000000">js_bigfloat_fop</text>
</a>
</g>
</g>
<!-- Node15984&#45;&gt;Node15993 -->
<g id="edge4" class="edge">
<title>Node15984&#45;&gt;Node15993</title>
<path fill="none" stroke="#191970" d="M184.7057,-314C207.2023,-314 237.5761,-314 261.7782,-314"/>
<polygon fill="#191970" stroke="#191970" points="184.6659,-310.5001 174.6659,-314 184.6658,-317.5001 184.6659,-310.5001"/>
</g>
<!-- Node15985&#45;&gt;Node15986 -->
<g id="edge3" class="edge">
<title>Node15985&#45;&gt;Node15986</title>
<path fill="none" stroke="#191970" d="M355.0695,-352C384.5234,-352 419.7369,-352 442.6966,-352"/>
<polygon fill="#191970" stroke="#191970" points="354.9211,-348.5001 344.9211,-352 354.921,-355.5001 354.9211,-348.5001"/>
</g>
<!-- Node15995 -->
<g id="node7" class="node">
<title>Node15995</title>
<g id="a_node7"><a xlink:href="quickjs_8c.html#a4f02870ac042616bfadc95102f6ae09e" target="_top" xlink:title="js_compare_bigdecimal">
<polygon fill="none" stroke="#000000" points="242.5,-228.5 242.5,-247.5 361.5,-247.5 361.5,-228.5 242.5,-228.5"/>
<text text-anchor="middle" x="302" y="-235.5" font-family="Helvetica,sans-Serif" font-size="10.00" fill="#000000">js_compare_bigdecimal</text>
</a>
</g>
</g>
<!-- Node15994&#45;&gt;Node15995 -->
<g id="edge7" class="edge">
<title>Node15994&#45;&gt;Node15995</title>
<path fill="none" stroke="#191970" d="M203.5264,-238C215.9983,-238 229.4735,-238 242.3341,-238"/>
<polygon fill="#191970" stroke="#191970" points="203.3216,-234.5001 193.3215,-238 203.3215,-241.5001 203.3216,-234.5001"/>
</g>
<!-- Node15994&#45;&gt;Node15997 -->
<g id="edge9" class="edge">
<title>Node15994&#45;&gt;Node15997</title>
<path fill="none" stroke="#191970" d="M200.3976,-225.912C221.6295,-220.4972 246.2618,-214.2151 265.955,-209.1927"/>
<polygon fill="#191970" stroke="#191970" points="199.4239,-222.5482 190.599,-228.411 201.1538,-229.3311 199.4239,-222.5482"/>
</g>
<!-- Node15996 -->
<g id="node8" class="node">
<title>Node15996</title>
<g id="a_node8"><a xlink:href="quickjs_8c.html#a8ddfb9bc049f684d92a334f12676237e" target="_top" xlink:title="JS_AddIntrinsicBigDecimal">
<polygon fill="none" stroke="#000000" points="399,-304.5 399,-323.5 535,-323.5 535,-304.5 399,-304.5"/>
<text text-anchor="middle" x="467" y="-311.5" font-family="Helvetica,sans-Serif" font-size="10.00" fill="#000000">JS_AddIntrinsicBigDecimal</text>
</a>
</g>
</g>
<!-- Node15995&#45;&gt;Node15996 -->
<g id="edge8" class="edge">
<title>Node15995&#45;&gt;Node15996</title>
<path fill="none" stroke="#191970" d="M340.7494,-251.3101C348.3127,-254.4424 356.0476,-258.0383 363,-262 380.6112,-272.0354 381.2132,-280.2792 399,-290 409.6561,-295.8238 421.9997,-300.6799 433.222,-304.4656"/>
<polygon fill="#191970" stroke="#191970" points="341.9199,-248.0094 331.333,-247.5979 339.3525,-254.5216 341.9199,-248.0094"/>
</g>
<!-- Node15998 -->
<g id="node10" class="node">
<title>Node15998</title>
<g id="a_node10"><a xlink:href="quickjs_8c.html#a404705cd4008db4015ea19f234721fc2" target="_top" xlink:title="js_eq_slow">
<polygon fill="none" stroke="#ff0000" points="571,-247.5 571,-266.5 636,-266.5 636,-247.5 571,-247.5"/>
<text text-anchor="middle" x="603.5" y="-254.5" font-family="Helvetica,sans-Serif" font-size="10.00" fill="#000000">js_eq_slow</text>
</a>
</g>
</g>
<!-- Node15997&#45;&gt;Node15998 -->
<g id="edge10" class="edge">
<title>Node15997&#45;&gt;Node15998</title>
<path fill="none" stroke="#191970" d="M347.784,-211.4117C353.0974,-213.5553 358.2928,-216.0673 363,-219 382.7456,-231.3022 377.6287,-247.8075 399,-257 455.4229,-281.2693 528.9778,-272.7371 570.7426,-264.6534"/>
<polygon fill="#191970" stroke="#191970" points="348.7669,-208.0454 338.1726,-207.9396 346.3886,-214.629 348.7669,-208.0454"/>
</g>
<!-- Node16618 -->
<g id="node11" class="node">
<title>Node16618</title>
<g id="a_node11"><a xlink:href="quickjs_8c.html#a2c7ed6633056510dfefd7919259f189d" target="_top" xlink:title="js_strict_eq">
<polygon fill="none" stroke="#ff0000" points="433.5,-228.5 433.5,-247.5 500.5,-247.5 500.5,-228.5 433.5,-228.5"/>
<text text-anchor="middle" x="467" y="-235.5" font-family="Helvetica,sans-Serif" font-size="10.00" fill="#000000">js_strict_eq</text>
</a>
</g>
</g>
<!-- Node15997&#45;&gt;Node16618 -->
<g id="edge11" class="edge">
<title>Node15997&#45;&gt;Node16618</title>
<path fill="none" stroke="#191970" d="M348.2326,-210.6475C375.2987,-216.8809 408.867,-224.6118 433.4039,-230.2627"/>
<polygon fill="#191970" stroke="#191970" points="348.7404,-207.1729 338.21,-208.3393 347.1693,-213.9943 348.7404,-207.1729"/>
</g>
<!-- Node16620 -->
<g id="node12" class="node">
<title>Node16620</title>
<g id="a_node12"><a xlink:href="quickjs_8c.html#a24be89a128d1cd7c0908604815b2b854" target="_top" xlink:title="js_same_value">
<polygon fill="none" stroke="#ff0000" points="426,-190.5 426,-209.5 508,-209.5 508,-190.5 426,-190.5"/>
<text text-anchor="middle" x="467" y="-197.5" font-family="Helvetica,sans-Serif" font-size="10.00" fill="#000000">js_same_value</text>
</a>
</g>
</g>
<!-- Node15997&#45;&gt;Node16620 -->
<g id="edge13" class="edge">
<title>Node15997&#45;&gt;Node16620</title>
<path fill="none" stroke="#191970" d="M348.3103,-200C372.7075,-200 402.3708,-200 425.9393,-200"/>
<polygon fill="#191970" stroke="#191970" points="348.21,-196.5001 338.21,-200 348.2099,-203.5001 348.21,-196.5001"/>
</g>
<!-- Node16624 -->
<g id="node13" class="node">
<title>Node16624</title>
<g id="a_node13"><a xlink:href="quickjs_8c.html#a28a2815f15eb2c3477a05e9c7e4394b8" target="_top" xlink:title="js_same_value_zero">
<polygon fill="none" stroke="#ff0000" points="414,-152.5 414,-171.5 520,-171.5 520,-152.5 414,-152.5"/>
<text text-anchor="middle" x="467" y="-159.5" font-family="Helvetica,sans-Serif" font-size="10.00" fill="#000000">js_same_value_zero</text>
</a>
</g>
</g>
<!-- Node15997&#45;&gt;Node16624 -->
<g id="edge14" class="edge">
<title>Node15997&#45;&gt;Node16624</title>
<path fill="none" stroke="#191970" d="M348.272,-189.3434C372.5743,-183.7465 402.1101,-176.9443 425.643,-171.5246"/>
<polygon fill="#191970" stroke="#191970" points="347.1693,-186.0057 338.21,-191.6607 348.7404,-192.8271 347.1693,-186.0057"/>
</g>
<!-- Node16345 -->
<g id="node14" class="node">
<title>Node16345</title>
<g id="a_node14"><a xlink:href="quickjs_8c.html#a04be55d1144f71bce472514bd31f0796" target="_top" xlink:title="js_object_isPrototypeOf">
<polygon fill="none" stroke="#000000" points="406.5,-114.5 406.5,-133.5 527.5,-133.5 527.5,-114.5 406.5,-114.5"/>
<text text-anchor="middle" x="467" y="-121.5" font-family="Helvetica,sans-Serif" font-size="10.00" fill="#000000">js_object_isPrototypeOf</text>
</a>
</g>
</g>
<!-- Node15997&#45;&gt;Node16345 -->
<g id="edge15" class="edge">
<title>Node15997&#45;&gt;Node16345</title>
<path fill="none" stroke="#191970" d="M347.784,-188.5883C353.0974,-186.4447 358.2928,-183.9327 363,-181 382.7456,-168.6978 379.0751,-155.0098 399,-143 405.4039,-139.1401 412.6168,-136.0408 419.8896,-133.559"/>
<polygon fill="#191970" stroke="#191970" points="346.3886,-185.371 338.1726,-192.0604 348.7669,-191.9546 346.3886,-185.371"/>
</g>
<!-- Node16156 -->
<g id="node15" class="node">
<title>Node16156</title>
<g id="a_node15"><a xlink:href="quickjs_8c.html#a2ef89587b2e4287d4bd0417788c8e21e" target="_top" xlink:title="js_array_includes">
<polygon fill="none" stroke="#ff0000" points="421,-76.5 421,-95.5 513,-95.5 513,-76.5 421,-76.5"/>
<text text-anchor="middle" x="467" y="-83.5" font-family="Helvetica,sans-Serif" font-size="10.00" fill="#000000">js_array_includes</text>
</a>
</g>
</g>
<!-- Node15997&#45;&gt;Node16156 -->
<g id="edge16" class="edge">
<title>Node15997&#45;&gt;Node16156</title>
<path fill="none" stroke="#191970" d="M347.6142,-190.4904C353.1864,-188.0223 358.4936,-184.9142 363,-181 391.2175,-156.4906 370.4242,-129.0907 399,-105 405.2791,-99.7065 412.9292,-95.8823 420.8027,-93.121"/>
<polygon fill="#191970" stroke="#191970" points="346.213,-187.2778 338.0809,-194.0689 348.6731,-193.8313 346.213,-187.2778"/>
</g>
<!-- Node16119 -->
<g id="node16" class="node">
<title>Node16119</title>
<g id="a_node16"><a xlink:href="quickjs_8c.html#af4bd013e63a5d5d55e4d4700d80de12e" target="_top" xlink:title="js_array_indexOf">
<polygon fill="none" stroke="#000000" points="422,-38.5 422,-57.5 512,-57.5 512,-38.5 422,-38.5"/>
<text text-anchor="middle" x="467" y="-45.5" font-family="Helvetica,sans-Serif" font-size="10.00" fill="#000000">js_array_indexOf</text>
</a>
</g>
</g>
<!-- Node15997&#45;&gt;Node16119 -->
<g id="edge17" class="edge">
<title>Node15997&#45;&gt;Node16119</title>
<path fill="none" stroke="#191970" d="M347.7405,-191.2297C353.379,-188.6491 358.6704,-185.3127 363,-181 400.6444,-143.5032 360.8069,-103.9377 399,-67 405.344,-60.8645 413.4984,-56.6773 421.9431,-53.8278"/>
<polygon fill="#191970" stroke="#191970" points="346.1493,-188.0893 338.0319,-194.898 348.6236,-194.6375 346.1493,-188.0893"/>
</g>
<!-- Node16120 -->
<g id="node17" class="node">
<title>Node16120</title>
<g id="a_node17"><a xlink:href="quickjs_8c.html#acb566d2d7d0ce8fed7bb7f73d3baa508" target="_top" xlink:title="js_array_lastIndexOf">
<polygon fill="none" stroke="#000000" points="413.5,-.5 413.5,-19.5 520.5,-19.5 520.5,-.5 413.5,-.5"/>
<text text-anchor="middle" x="467" y="-7.5" font-family="Helvetica,sans-Serif" font-size="10.00" fill="#000000">js_array_lastIndexOf</text>
</a>
</g>
</g>
<!-- Node15997&#45;&gt;Node16120 -->
<g id="edge18" class="edge">
<title>Node15997&#45;&gt;Node16120</title>
<path fill="none" stroke="#191970" d="M347.4272,-191.8001C353.2528,-189.1409 358.68,-185.6307 363,-181 410.358,-130.2361 350.8987,-79.0602 399,-29 403.0766,-24.7574 408.0151,-21.4378 413.3489,-18.8443"/>
<polygon fill="#191970" stroke="#191970" points="346.1814,-188.5293 338.0466,-195.3172 348.6388,-195.0837 346.1814,-188.5293"/>
</g>
<!-- Node16618&#45;&gt;Node15998 -->
<g id="edge12" class="edge">
<title>Node16618&#45;&gt;Node15998</title>
<path fill="none" stroke="#191970" d="M510.8643,-244.1057C530.264,-246.806 552.6901,-249.9276 570.6176,-252.423"/>
<polygon fill="#191970" stroke="#191970" points="511.1286,-240.6088 500.7416,-242.6966 510.1635,-247.5419 511.1286,-240.6088"/>
</g>
<!-- Node15990 -->
<g id="node19" class="node">
<title>Node15990</title>
<g id="a_node19"><a xlink:href="quickjs_8c.html#a0f5b03638045aa0856f9b8fb0d5c0fb4" target="_top" xlink:title="JS_AddIntrinsicBigInt">
<polygon fill="none" stroke="#ff0000" points="246.5,-152.5 246.5,-171.5 357.5,-171.5 357.5,-152.5 246.5,-152.5"/>
<text text-anchor="middle" x="302" y="-159.5" font-family="Helvetica,sans-Serif" font-size="10.00" fill="#000000">JS_AddIntrinsicBigInt</text>
</a>
</g>
</g>
<!-- Node16626&#45;&gt;Node15990 -->
<g id="edge20" class="edge">
<title>Node16626&#45;&gt;Node15990</title>
<path fill="none" stroke="#191970" d="M215.2882,-162C225.6007,-162 236.2342,-162 246.3689,-162"/>
<polygon fill="#191970" stroke="#191970" points="215.113,-158.5001 205.113,-162 215.1129,-165.5001 215.113,-158.5001"/>
</g>
<!-- Node15988 -->
<g id="node20" class="node">
<title>Node15988</title>
<g id="a_node20"><a xlink:href="quickjs_8c.html#af801f296acb2c259e3202ec2dece219d" target="_top" xlink:title="JS_AddIntrinsicBigFloat">
<polygon fill="none" stroke="#000000" points="241,-114.5 241,-133.5 363,-133.5 363,-114.5 241,-114.5"/>
<text text-anchor="middle" x="302" y="-121.5" font-family="Helvetica,sans-Serif" font-size="10.00" fill="#000000">JS_AddIntrinsicBigFloat</text>
</a>
</g>
</g>
<!-- Node16626&#45;&gt;Node15988 -->
<g id="edge21" class="edge">
<title>Node16626&#45;&gt;Node15988</title>
<path fill="none" stroke="#191970" d="M200.4922,-149.8879C221.2436,-144.5956 245.2282,-138.4787 264.6714,-133.5201"/>
<polygon fill="#191970" stroke="#191970" points="199.4239,-146.5482 190.599,-152.411 201.1538,-153.3311 199.4239,-146.5482"/>
</g>
</g>
</svg>
