<?xml version="1.0" encoding="UTF-8" standalone="no"?>
<!DOCTYPE svg PUBLIC "-//W3C//DTD SVG 1.1//EN"
 "http://www.w3.org/Graphics/SVG/1.1/DTD/svg11.dtd">
<!-- Generated by graphviz version 2.40.1 (20161225.0304)
 -->
<!-- Title: output_digits Pages: 1 -->
<svg width="452pt" height="104pt"
 viewBox="0.00 0.00 452.00 104.00" xmlns="http://www.w3.org/2000/svg" xmlns:xlink="http://www.w3.org/1999/xlink">
<g id="graph0" class="graph" transform="scale(1 1) rotate(0) translate(4 100)">
<title>output_digits</title>
<!-- Node24785 -->
<g id="node1" class="node">
<title>Node24785</title>
<polygon fill="#bfbfbf" stroke="#000000" points="0,-19.5 0,-38.5 72,-38.5 72,-19.5 0,-19.5"/>
<text text-anchor="middle" x="36" y="-26.5" font-family="Helvetica,sans-Serif" font-size="10.00" fill="#000000">output_digits</text>
</g>
<!-- Node24786 -->
<g id="node2" class="node">
<title>Node24786</title>
<g id="a_node2"><a xlink:href="libbf_8c.html#ad79aefc435021a0743c89cb4aec7fa56" target="_top" xlink:title="bf_ftoa_internal">
<polygon fill="none" stroke="#000000" points="108,-19.5 108,-38.5 191,-38.5 191,-19.5 108,-19.5"/>
<text text-anchor="middle" x="149.5" y="-26.5" font-family="Helvetica,sans-Serif" font-size="10.00" fill="#000000">bf_ftoa_internal</text>
</a>
</g>
</g>
<!-- Node24785&#45;&gt;Node24786 -->
<g id="edge1" class="edge">
<title>Node24785&#45;&gt;Node24786</title>
<path fill="none" stroke="#191970" d="M82.2752,-29C90.6873,-29 99.4174,-29 107.6914,-29"/>
<polygon fill="#191970" stroke="#191970" points="82.2242,-25.5001 72.2242,-29 82.2241,-32.5001 82.2242,-25.5001"/>
</g>
<!-- Node24787 -->
<g id="node3" class="node">
<title>Node24787</title>
<g id="a_node3"><a xlink:href="libbf_8h.html#a3ab9f99dbc84f8cce63cf3867b8986e5" target="_top" xlink:title="bf_ftoa">
<polygon fill="none" stroke="#000000" points="234.5,-38.5 234.5,-57.5 281.5,-57.5 281.5,-38.5 234.5,-38.5"/>
<text text-anchor="middle" x="258" y="-45.5" font-family="Helvetica,sans-Serif" font-size="10.00" fill="#000000">bf_ftoa</text>
</a>
</g>
</g>
<!-- Node24786&#45;&gt;Node24787 -->
<g id="edge2" class="edge">
<title>Node24786&#45;&gt;Node24787</title>
<path fill="none" stroke="#191970" d="M201.195,-38.0526C212.7438,-40.075 224.4474,-42.1244 234.206,-43.8333"/>
<polygon fill="#191970" stroke="#191970" points="201.5925,-34.569 191.1386,-36.2916 200.385,-41.4641 201.5925,-34.569"/>
</g>
<!-- Node24800 -->
<g id="node6" class="node">
<title>Node24800</title>
<g id="a_node6"><a xlink:href="libbf_8h.html#a076d088aa44d1cfa2d6f85f718fb88bc" target="_top" xlink:title="bfdec_ftoa">
<polygon fill="none" stroke="#000000" points="227,-.5 227,-19.5 289,-19.5 289,-.5 227,-.5"/>
<text text-anchor="middle" x="258" y="-7.5" font-family="Helvetica,sans-Serif" font-size="10.00" fill="#000000">bfdec_ftoa</text>
</a>
</g>
</g>
<!-- Node24786&#45;&gt;Node24800 -->
<g id="edge5" class="edge">
<title>Node24786&#45;&gt;Node24800</title>
<path fill="none" stroke="#191970" d="M201.2696,-19.9344C209.979,-18.4092 218.7739,-16.8691 226.7538,-15.4717"/>
<polygon fill="#191970" stroke="#191970" points="200.385,-16.5359 191.1386,-21.7084 201.5925,-23.431 200.385,-16.5359"/>
</g>
<!-- Node24788 -->
<g id="node4" class="node">
<title>Node24788</title>
<g id="a_node4"><a xlink:href="quickjs_8c.html#a1c70a5b8ab7b883612cb9dcbd40d1e62" target="_top" xlink:title="js_bigint_to_string1">
<polygon fill="none" stroke="#ff0000" points="334,-76.5 334,-95.5 435,-95.5 435,-76.5 334,-76.5"/>
<text text-anchor="middle" x="384.5" y="-83.5" font-family="Helvetica,sans-Serif" font-size="10.00" fill="#000000">js_bigint_to_string1</text>
</a>
</g>
</g>
<!-- Node24787&#45;&gt;Node24788 -->
<g id="edge3" class="edge">
<title>Node24787&#45;&gt;Node24788</title>
<path fill="none" stroke="#191970" d="M291.5098,-58.0662C310.4617,-63.7592 334.0258,-70.8378 352.691,-76.4447"/>
<polygon fill="#191970" stroke="#191970" points="292.3779,-54.6725 281.7937,-55.1475 290.3639,-61.3766 292.3779,-54.6725"/>
</g>
<!-- Node24793 -->
<g id="node5" class="node">
<title>Node24793</title>
<g id="a_node5"><a xlink:href="quickjs_8c.html#a1fee789102995207275aacbbaee299cf" target="_top" xlink:title="js_ftoa">
<polygon fill="none" stroke="#ff0000" points="361.5,-38.5 361.5,-57.5 407.5,-57.5 407.5,-38.5 361.5,-38.5"/>
<text text-anchor="middle" x="384.5" y="-45.5" font-family="Helvetica,sans-Serif" font-size="10.00" fill="#000000">js_ftoa</text>
</a>
</g>
</g>
<!-- Node24787&#45;&gt;Node24793 -->
<g id="edge4" class="edge">
<title>Node24787&#45;&gt;Node24793</title>
<path fill="none" stroke="#191970" d="M292.0049,-48C313.9178,-48 341.836,-48 361.2404,-48"/>
<polygon fill="#191970" stroke="#191970" points="291.7937,-44.5001 281.7937,-48 291.7936,-51.5001 291.7937,-44.5001"/>
</g>
<!-- Node24801 -->
<g id="node7" class="node">
<title>Node24801</title>
<g id="a_node7"><a xlink:href="quickjs_8c.html#a2f6e4a35f244cc899894a560d9721671" target="_top" xlink:title="js_bigdecimal_to_string">
<polygon fill="none" stroke="#ff0000" points="325,-.5 325,-19.5 444,-19.5 444,-.5 325,-.5"/>
<text text-anchor="middle" x="384.5" y="-7.5" font-family="Helvetica,sans-Serif" font-size="10.00" fill="#000000">js_bigdecimal_to_string</text>
</a>
</g>
</g>
<!-- Node24800&#45;&gt;Node24801 -->
<g id="edge6" class="edge">
<title>Node24800&#45;&gt;Node24801</title>
<path fill="none" stroke="#191970" d="M299.313,-10C307.5183,-10 316.2858,-10 324.96,-10"/>
<polygon fill="#191970" stroke="#191970" points="299.2697,-6.5001 289.2697,-10 299.2696,-13.5001 299.2697,-6.5001"/>
</g>
</g>
</svg>
