<?xml version="1.0" encoding="UTF-8" standalone="no"?>
<!DOCTYPE svg PUBLIC "-//W3C//DTD SVG 1.1//EN"
 "http://www.w3.org/Graphics/SVG/1.1/DTD/svg11.dtd">
<!-- Generated by graphviz version 2.40.1 (20161225.0304)
 -->
<!-- Title: bf_const_pi Pages: 1 -->
<!--zoomable 256 -->
<svg id="main" version="1.1" xmlns="http://www.w3.org/2000/svg" xmlns:xlink="http://www.w3.org/1999/xlink" xml:space="preserve" onload="init(evt)">
<style type="text/css"><![CDATA[
.edge:hover path { stroke: red; }
.edge:hover polygon { stroke: red; fill: red; }
]]></style>
<script type="text/javascript"><![CDATA[
var edges = document.getElementsByTagName('g');
if (edges && edges.length) {
  for (var i=0;i<edges.length;i++) {
    if (edges[i].id.substr(0,4)=='edge') {
      edges[i].setAttribute('class','edge');
    }
  }
}
]]></script>
        <defs>
                <circle id="rim" cx="0" cy="0" r="7"/>
                <circle id="rim2" cx="0" cy="0" r="3.5"/>
                <g id="zoomPlus">
                        <use xlink:href="#rim" fill="#404040">
                                <set attributeName="fill" to="#808080" begin="zoomplus.mouseover" end="zoomplus.mouseout"/>
                        </use>
                        <path d="M-4,0h8M0,-4v8" fill="none" stroke="white" stroke-width="1.5" pointer-events="none"/>
                </g>
                <g id="zoomMin">
                        <use xlink:href="#rim" fill="#404040">
                                <set attributeName="fill" to="#808080" begin="zoomminus.mouseover" end="zoomminus.mouseout"/>
                        </use>
                        <path d="M-4,0h8" fill="none" stroke="white" stroke-width="1.5" pointer-events="none"/>
                </g>
                <g id="dirArrow">
                        <path fill="none" stroke="white" stroke-width="1.5" d="M0,-3.0v7 M-2.5,-0.5L0,-3.0L2.5,-0.5"/>
                </g>
               <g id="resetDef">
                       <use xlink:href="#rim2" fill="#404040">
                               <set attributeName="fill" to="#808080" begin="reset.mouseover" end="reset.mouseout"/>
                       </use>
               </g>
        </defs>

<script type="text/javascript">
var viewWidth = 705;
var viewHeight = 256;
var sectionId = 'dynsection-125';
</script>
<script xlink:href="svgpan.js"/>
<svg id="graph" class="graph">
<g id="viewport">
<title>bf_const_pi</title>
<!-- Node19647 -->
<g id="node1" class="node">
<title>Node19647</title>
<polygon fill="#bfbfbf" stroke="#000000" points="0,-133.5 0,-152.5 67,-152.5 67,-133.5 0,-133.5"/>
<text text-anchor="middle" x="33.5" y="-140.5" font-family="Helvetica,sans-Serif" font-size="10.00" fill="#000000">bf_const_pi</text>
</g>
<!-- Node19648 -->
<g id="node2" class="node">
<title>Node19648</title>
<g id="a_node2"><a xlink:href="libbf_8c.html#a4a0919b7e170befaf75d114d48d350cc" target="_top" xlink:title="bf_asin_internal">
<polygon fill="none" stroke="#000000" points="248,-152.5 248,-171.5 333,-171.5 333,-152.5 248,-152.5"/>
<text text-anchor="middle" x="290.5" y="-159.5" font-family="Helvetica,sans-Serif" font-size="10.00" fill="#000000">bf_asin_internal</text>
</a>
</g>
</g>
<!-- Node19647&#45;&gt;Node19648 -->
<g id="edge1" class="edge">
<title>Node19647&#45;&gt;Node19648</title>
<path fill="none" stroke="#191970" d="M77.1136,-146.2243C124.7829,-149.7485 200.6533,-155.3576 247.913,-158.8515"/>
<polygon fill="#191970" stroke="#191970" points="77.3291,-142.7308 67.0983,-145.4839 76.813,-149.7118 77.3291,-142.7308"/>
</g>
<!-- Node19652 -->
<g id="node6" class="node">
<title>Node19652</title>
<g id="a_node6"><a xlink:href="libbf_8c.html#af760cf2a93bf130e8e44a62c7e7d0adf" target="_top" xlink:title="bf_atan2_internal">
<polygon fill="none" stroke="#000000" points="369,-228.5 369,-247.5 460,-247.5 460,-228.5 369,-228.5"/>
<text text-anchor="middle" x="414.5" y="-235.5" font-family="Helvetica,sans-Serif" font-size="10.00" fill="#000000">bf_atan2_internal</text>
</a>
</g>
</g>
<!-- Node19647&#45;&gt;Node19652 -->
<g id="edge6" class="edge">
<title>Node19647&#45;&gt;Node19652</title>
<path fill="none" stroke="#191970" d="M49.0126,-160.1346C62.0484,-173.3477 81.8909,-190.8605 103,-200 191.3677,-238.2601 306.2019,-241.8027 368.8319,-240.3295"/>
<polygon fill="#191970" stroke="#191970" points="51.2527,-157.4111 41.8252,-152.5765 46.1801,-162.2349 51.2527,-157.4111"/>
</g>
<!-- Node19655 -->
<g id="node9" class="node">
<title>Node19655</title>
<g id="a_node9"><a xlink:href="libbf_8c.html#aa4b535a5b33344704c576607ab4f0463" target="_top" xlink:title="bf_atan_internal">
<polygon fill="none" stroke="#000000" points="114.5,-171.5 114.5,-190.5 200.5,-190.5 200.5,-171.5 114.5,-171.5"/>
<text text-anchor="middle" x="157.5" y="-178.5" font-family="Helvetica,sans-Serif" font-size="10.00" fill="#000000">bf_atan_internal</text>
</a>
</g>
</g>
<!-- Node19647&#45;&gt;Node19655 -->
<g id="edge9" class="edge">
<title>Node19647&#45;&gt;Node19655</title>
<path fill="none" stroke="#191970" d="M74.4047,-155.5353C91.2734,-160.7048 110.5076,-166.5991 126.2196,-171.4141"/>
<polygon fill="#191970" stroke="#191970" points="75.3771,-152.1727 64.7904,-152.589 73.326,-158.8655 75.3771,-152.1727"/>
</g>
<!-- Node19657 -->
<g id="node11" class="node">
<title>Node19657</title>
<g id="a_node11"><a xlink:href="libbf_8c.html#ab769247f7a6429c42dfeba4f8334cb75" target="_top" xlink:title="bf_sincos">
<polygon fill="none" stroke="#000000" points="128,-76.5 128,-95.5 187,-95.5 187,-76.5 128,-76.5"/>
<text text-anchor="middle" x="157.5" y="-83.5" font-family="Helvetica,sans-Serif" font-size="10.00" fill="#000000">bf_sincos</text>
</a>
</g>
</g>
<!-- Node19647&#45;&gt;Node19657 -->
<g id="edge14" class="edge">
<title>Node19647&#45;&gt;Node19657</title>
<path fill="none" stroke="#191970" d="M63.4283,-129.2426C86.0845,-118.8281 116.6253,-104.7892 136.6775,-95.5716"/>
<polygon fill="#191970" stroke="#191970" points="61.879,-126.1027 54.2548,-133.4595 64.8027,-132.4629 61.879,-126.1027"/>
</g>
<!-- Node19664 -->
<g id="node18" class="node">
<title>Node19664</title>
<g id="a_node18"><a xlink:href="quickjs_8c.html#a647ac2d4e992bc02c73781b039f825c2" target="_top" xlink:title="js_bigfloat_get_const">
<polygon fill="none" stroke="#000000" points="103,-38.5 103,-57.5 212,-57.5 212,-38.5 103,-38.5"/>
<text text-anchor="middle" x="157.5" y="-45.5" font-family="Helvetica,sans-Serif" font-size="10.00" fill="#000000">js_bigfloat_get_const</text>
</a>
</g>
</g>
<!-- Node19647&#45;&gt;Node19664 -->
<g id="edge24" class="edge">
<title>Node19647&#45;&gt;Node19664</title>
<path fill="none" stroke="#191970" d="M45.9394,-124.8785C58.525,-107.7826 79.4453,-82.5249 103,-67 108.7729,-63.1951 115.3931,-60.061 121.9845,-57.5125"/>
<polygon fill="#191970" stroke="#191970" points="42.8016,-123.25 39.841,-133.4228 48.4993,-127.3166 42.8016,-123.25"/>
</g>
<!-- Node19649 -->
<g id="node3" class="node">
<title>Node19649</title>
<g id="a_node3"><a xlink:href="libbf_8h.html#a45cd74dd3a694c26e716762b7fd36955" target="_top" xlink:title="bf_acos">
<polygon fill="none" stroke="#000000" points="389,-152.5 389,-171.5 440,-171.5 440,-152.5 389,-152.5"/>
<text text-anchor="middle" x="414.5" y="-159.5" font-family="Helvetica,sans-Serif" font-size="10.00" fill="#000000">bf_acos</text>
</a>
</g>
</g>
<!-- Node19648&#45;&gt;Node19649 -->
<g id="edge2" class="edge">
<title>Node19648&#45;&gt;Node19649</title>
<path fill="none" stroke="#191970" d="M343.3468,-162C359.07,-162 375.5963,-162 388.7601,-162"/>
<polygon fill="#191970" stroke="#191970" points="343.1738,-158.5001 333.1738,-162 343.1737,-165.5001 343.1738,-158.5001"/>
</g>
<!-- Node19651 -->
<g id="node5" class="node">
<title>Node19651</title>
<g id="a_node5"><a xlink:href="libbf_8h.html#a8ee86879e3da22442956f47356855edd" target="_top" xlink:title="bf_asin">
<polygon fill="none" stroke="#000000" points="390.5,-114.5 390.5,-133.5 438.5,-133.5 438.5,-114.5 390.5,-114.5"/>
<text text-anchor="middle" x="414.5" y="-121.5" font-family="Helvetica,sans-Serif" font-size="10.00" fill="#000000">bf_asin</text>
</a>
</g>
</g>
<!-- Node19648&#45;&gt;Node19651 -->
<g id="edge4" class="edge">
<title>Node19648&#45;&gt;Node19651</title>
<path fill="none" stroke="#191970" d="M331.3577,-149.4791C350.8558,-143.5039 373.523,-136.5575 390.2603,-131.4283"/>
<polygon fill="#191970" stroke="#191970" points="330.326,-146.1345 321.7904,-152.411 332.3771,-152.8273 330.326,-146.1345"/>
</g>
<!-- Node19650 -->
<g id="node4" class="node">
<title>Node19650</title>
<g id="a_node4"><a xlink:href="quickjs_8c.html#af8435aca7fa84b4be13710a0311d990b" target="_top" xlink:title="js_bigfloat_fop">
<polygon fill="none" stroke="#000000" points="496,-95.5 496,-114.5 576,-114.5 576,-95.5 496,-95.5"/>
<text text-anchor="middle" x="536" y="-102.5" font-family="Helvetica,sans-Serif" font-size="10.00" fill="#000000">js_bigfloat_fop</text>
</a>
</g>
</g>
<!-- Node19649&#45;&gt;Node19650 -->
<g id="edge3" class="edge">
<title>Node19649&#45;&gt;Node19650</title>
<path fill="none" stroke="#191970" d="M447.7586,-148.4204C451.8991,-146.6392 456.0601,-144.805 460,-143 479.9829,-133.8449 502.4502,-122.474 517.7405,-114.568"/>
<polygon fill="#191970" stroke="#191970" points="446.0955,-145.3235 438.248,-152.4417 448.8216,-151.7709 446.0955,-145.3235"/>
</g>
<!-- Node19651&#45;&gt;Node19650 -->
<g id="edge5" class="edge">
<title>Node19651&#45;&gt;Node19650</title>
<path fill="none" stroke="#191970" d="M448.6516,-118.6594C463.2999,-116.3687 480.5191,-113.676 495.7795,-111.2896"/>
<polygon fill="#191970" stroke="#191970" points="447.8436,-115.2431 438.5045,-120.2462 448.9252,-122.1591 447.8436,-115.2431"/>
</g>
<!-- Node19653 -->
<g id="node7" class="node">
<title>Node19653</title>
<g id="a_node7"><a xlink:href="libbf_8h.html#a78e29a7f1f858b99cbf3a0f97382c233" target="_top" xlink:title="bf_atan2">
<polygon fill="none" stroke="#000000" points="509,-228.5 509,-247.5 563,-247.5 563,-228.5 509,-228.5"/>
<text text-anchor="middle" x="536" y="-235.5" font-family="Helvetica,sans-Serif" font-size="10.00" fill="#000000">bf_atan2</text>
</a>
</g>
</g>
<!-- Node19652&#45;&gt;Node19653 -->
<g id="edge7" class="edge">
<title>Node19652&#45;&gt;Node19653</title>
<path fill="none" stroke="#191970" d="M470.2516,-238C483.6838,-238 497.4441,-238 508.8819,-238"/>
<polygon fill="#191970" stroke="#191970" points="470.0878,-234.5001 460.0878,-238 470.0878,-241.5001 470.0878,-234.5001"/>
</g>
<!-- Node19654 -->
<g id="node8" class="node">
<title>Node19654</title>
<g id="a_node8"><a xlink:href="quickjs_8c.html#aa8ee7b99edb58d78277e8de851c48279" target="_top" xlink:title="js_bigfloat_fop2">
<polygon fill="none" stroke="#000000" points="612,-228.5 612,-247.5 697,-247.5 697,-228.5 612,-228.5"/>
<text text-anchor="middle" x="654.5" y="-235.5" font-family="Helvetica,sans-Serif" font-size="10.00" fill="#000000">js_bigfloat_fop2</text>
</a>
</g>
</g>
<!-- Node19653&#45;&gt;Node19654 -->
<g id="edge8" class="edge">
<title>Node19653&#45;&gt;Node19654</title>
<path fill="none" stroke="#191970" d="M573.43,-238C585.574,-238 599.1394,-238 611.6468,-238"/>
<polygon fill="#191970" stroke="#191970" points="573.1863,-234.5001 563.1863,-238 573.1863,-241.5001 573.1863,-234.5001"/>
</g>
<!-- Node19655&#45;&gt;Node19648 -->
<g id="edge10" class="edge">
<title>Node19655&#45;&gt;Node19648</title>
<path fill="none" stroke="#191970" d="M210.8633,-173.3767C223.2078,-171.6132 236.1812,-169.7598 247.9894,-168.0729"/>
<polygon fill="#191970" stroke="#191970" points="210.0858,-169.9521 200.6813,-174.8312 211.0758,-176.8818 210.0858,-169.9521"/>
</g>
<!-- Node19656 -->
<g id="node10" class="node">
<title>Node19656</title>
<g id="a_node10"><a xlink:href="libbf_8h.html#a0bb2c5b98e3f978b84df9849c7ec50d6" target="_top" xlink:title="bf_atan">
<polygon fill="none" stroke="#000000" points="266,-190.5 266,-209.5 315,-209.5 315,-190.5 266,-190.5"/>
<text text-anchor="middle" x="290.5" y="-197.5" font-family="Helvetica,sans-Serif" font-size="10.00" fill="#000000">bf_atan</text>
</a>
</g>
</g>
<!-- Node19655&#45;&gt;Node19656 -->
<g id="edge11" class="edge">
<title>Node19655&#45;&gt;Node19656</title>
<path fill="none" stroke="#191970" d="M210.7485,-188.6069C229.7616,-191.3231 250.281,-194.2544 265.7444,-196.4635"/>
<polygon fill="#191970" stroke="#191970" points="211.0758,-185.1182 200.6813,-187.1688 210.0858,-192.0479 211.0758,-185.1182"/>
</g>
<!-- Node19656&#45;&gt;Node19650 -->
<g id="edge13" class="edge">
<title>Node19656&#45;&gt;Node19650</title>
<path fill="none" stroke="#191970" d="M325.5474,-202.6362C361.173,-203.8542 417.0785,-201.6548 460,-181 491.7788,-165.7073 518.0587,-131.5707 529.6379,-114.7499"/>
<polygon fill="#191970" stroke="#191970" points="325.3277,-199.1227 315.1791,-202.1652 325.0099,-206.1155 325.3277,-199.1227"/>
</g>
<!-- Node19656&#45;&gt;Node19652 -->
<g id="edge12" class="edge">
<title>Node19656&#45;&gt;Node19652</title>
<path fill="none" stroke="#191970" d="M324.9564,-210.5592C343.1811,-216.1442 365.3911,-222.9505 383.1319,-228.3872"/>
<polygon fill="#191970" stroke="#191970" points="325.8819,-207.1822 315.2952,-207.5985 323.8308,-213.875 325.8819,-207.1822"/>
</g>
<!-- Node19658 -->
<g id="node12" class="node">
<title>Node19658</title>
<g id="a_node12"><a xlink:href="libbf_8c.html#a525aef36dca12b641b625b99bb853dc4" target="_top" xlink:title="bf_cos_internal">
<polygon fill="none" stroke="#000000" points="249,-.5 249,-19.5 332,-19.5 332,-.5 249,-.5"/>
<text text-anchor="middle" x="290.5" y="-7.5" font-family="Helvetica,sans-Serif" font-size="10.00" fill="#000000">bf_cos_internal</text>
</a>
</g>
</g>
<!-- Node19657&#45;&gt;Node19658 -->
<g id="edge15" class="edge">
<title>Node19657&#45;&gt;Node19658</title>
<path fill="none" stroke="#191970" d="M196.7961,-74.8633C202.0996,-72.6344 207.3193,-70.0262 212,-67 231.5368,-54.3688 229.0172,-42.4494 248,-29 253.012,-25.4489 258.7939,-22.3318 264.4468,-19.7038"/>
<polygon fill="#191970" stroke="#191970" points="195.3708,-71.6604 187.2576,-78.4741 197.8491,-78.207 195.3708,-71.6604"/>
</g>
<!-- Node19660 -->
<g id="node14" class="node">
<title>Node19660</title>
<g id="a_node14"><a xlink:href="libbf_8c.html#a988e995c3b0dbcc6a26b8eea2891b2e2" target="_top" xlink:title="bf_sin_internal">
<polygon fill="none" stroke="#000000" points="250.5,-76.5 250.5,-95.5 330.5,-95.5 330.5,-76.5 250.5,-76.5"/>
<text text-anchor="middle" x="290.5" y="-83.5" font-family="Helvetica,sans-Serif" font-size="10.00" fill="#000000">bf_sin_internal</text>
</a>
</g>
</g>
<!-- Node19657&#45;&gt;Node19660 -->
<g id="edge18" class="edge">
<title>Node19657&#45;&gt;Node19660</title>
<path fill="none" stroke="#191970" d="M197.1017,-86C213.9525,-86 233.5746,-86 250.4716,-86"/>
<polygon fill="#191970" stroke="#191970" points="197.017,-82.5001 187.017,-86 197.017,-89.5001 197.017,-82.5001"/>
</g>
<!-- Node19662 -->
<g id="node16" class="node">
<title>Node19662</title>
<g id="a_node16"><a xlink:href="libbf_8c.html#a524a1cfe269d6d10ba833368695f8699" target="_top" xlink:title="bf_tan_internal">
<polygon fill="none" stroke="#000000" points="250.5,-38.5 250.5,-57.5 330.5,-57.5 330.5,-38.5 250.5,-38.5"/>
<text text-anchor="middle" x="290.5" y="-45.5" font-family="Helvetica,sans-Serif" font-size="10.00" fill="#000000">bf_tan_internal</text>
</a>
</g>
</g>
<!-- Node19657&#45;&gt;Node19662 -->
<g id="edge21" class="edge">
<title>Node19657&#45;&gt;Node19662</title>
<path fill="none" stroke="#191970" d="M196.6373,-74.8179C215.7528,-69.3564 238.5219,-62.8509 256.8472,-57.6151"/>
<polygon fill="#191970" stroke="#191970" points="195.6707,-71.4539 187.017,-77.5666 197.5938,-78.1846 195.6707,-71.4539"/>
</g>
<!-- Node19659 -->
<g id="node13" class="node">
<title>Node19659</title>
<g id="a_node13"><a xlink:href="libbf_8h.html#a69ea68a6b21d496bd89afeaa9c067ebe" target="_top" xlink:title="bf_cos">
<polygon fill="none" stroke="#000000" points="391.5,-.5 391.5,-19.5 437.5,-19.5 437.5,-.5 391.5,-.5"/>
<text text-anchor="middle" x="414.5" y="-7.5" font-family="Helvetica,sans-Serif" font-size="10.00" fill="#000000">bf_cos</text>
</a>
</g>
</g>
<!-- Node19658&#45;&gt;Node19659 -->
<g id="edge16" class="edge">
<title>Node19658&#45;&gt;Node19659</title>
<path fill="none" stroke="#191970" d="M342.5195,-10C359.4855,-10 377.4755,-10 391.2266,-10"/>
<polygon fill="#191970" stroke="#191970" points="342.1352,-6.5001 332.1352,-10 342.1351,-13.5001 342.1352,-6.5001"/>
</g>
<!-- Node19659&#45;&gt;Node19650 -->
<g id="edge17" class="edge">
<title>Node19659&#45;&gt;Node19650</title>
<path fill="none" stroke="#191970" d="M446.8898,-21.6689C451.4429,-23.8345 455.9468,-26.2833 460,-29 488.8302,-48.3237 515.8864,-79.6875 528.5272,-95.3948"/>
<polygon fill="#191970" stroke="#191970" points="448.1697,-18.4088 437.6038,-17.6264 445.3757,-24.827 448.1697,-18.4088"/>
</g>
<!-- Node19661 -->
<g id="node15" class="node">
<title>Node19661</title>
<g id="a_node15"><a xlink:href="libbf_8h.html#a9a518cd74072443dc50e179d2a9ea610" target="_top" xlink:title="bf_sin">
<polygon fill="none" stroke="#000000" points="393,-76.5 393,-95.5 436,-95.5 436,-76.5 393,-76.5"/>
<text text-anchor="middle" x="414.5" y="-83.5" font-family="Helvetica,sans-Serif" font-size="10.00" fill="#000000">bf_sin</text>
</a>
</g>
</g>
<!-- Node19660&#45;&gt;Node19661 -->
<g id="edge19" class="edge">
<title>Node19660&#45;&gt;Node19661</title>
<path fill="none" stroke="#191970" d="M340.9193,-86C359.0174,-86 378.4806,-86 392.841,-86"/>
<polygon fill="#191970" stroke="#191970" points="340.7593,-82.5001 330.7592,-86 340.7592,-89.5001 340.7593,-82.5001"/>
</g>
<!-- Node19661&#45;&gt;Node19650 -->
<g id="edge20" class="edge">
<title>Node19661&#45;&gt;Node19650</title>
<path fill="none" stroke="#191970" d="M446.1515,-90.9496C461.3209,-93.3218 479.6597,-96.1896 495.8032,-98.7141"/>
<polygon fill="#191970" stroke="#191970" points="446.6425,-87.4839 436.2218,-89.3968 445.5609,-94.3999 446.6425,-87.4839"/>
</g>
<!-- Node19663 -->
<g id="node17" class="node">
<title>Node19663</title>
<g id="a_node17"><a xlink:href="libbf_8h.html#a3291f57ed40cdf116203afa57f73e91e" target="_top" xlink:title="bf_tan">
<polygon fill="none" stroke="#000000" points="392.5,-38.5 392.5,-57.5 436.5,-57.5 436.5,-38.5 392.5,-38.5"/>
<text text-anchor="middle" x="414.5" y="-45.5" font-family="Helvetica,sans-Serif" font-size="10.00" fill="#000000">bf_tan</text>
</a>
</g>
</g>
<!-- Node19662&#45;&gt;Node19663 -->
<g id="edge22" class="edge">
<title>Node19662&#45;&gt;Node19663</title>
<path fill="none" stroke="#191970" d="M340.8484,-48C358.819,-48 378.1443,-48 392.4887,-48"/>
<polygon fill="#191970" stroke="#191970" points="340.7593,-44.5001 330.7592,-48 340.7592,-51.5001 340.7593,-44.5001"/>
</g>
<!-- Node19663&#45;&gt;Node19650 -->
<g id="edge23" class="edge">
<title>Node19663&#45;&gt;Node19650</title>
<path fill="none" stroke="#191970" d="M446.1958,-60.9094C450.8477,-62.8984 455.564,-64.9676 460,-67 479.9829,-76.1551 502.4502,-87.526 517.7405,-95.432"/>
<polygon fill="#191970" stroke="#191970" points="447.423,-57.6286 436.8482,-56.9771 444.7086,-64.0809 447.423,-57.6286"/>
</g>
</g>
</svg>
        <g id="navigator" transform="translate(0 0)" fill="#404254">
                <rect fill="#f2f5e9" fill-opacity="0.5" stroke="#606060" stroke-width=".5" x="0" y="0" width="60" height="60"/>
                <use id="zoomplus" xlink:href="#zoomPlus" x="17" y="9" onmousedown="handleZoom(evt,'in')"/>
                <use id="zoomminus" xlink:href="#zoomMin" x="42" y="9" onmousedown="handleZoom(evt,'out')"/>
                <use id="reset" xlink:href="#resetDef" x="30" y="36" onmousedown="handleReset()"/>
                <g id="arrowUp" xlink:href="#dirArrow" transform="translate(30 24)" onmousedown="handlePan(0,-1)">
                  <use xlink:href="#rim" fill="#404040">
                        <set attributeName="fill" to="#808080" begin="arrowUp.mouseover" end="arrowUp.mouseout"/>
                  </use>
                  <path fill="none" stroke="white" stroke-width="1.5" d="M0,-3.0v7 M-2.5,-0.5L0,-3.0L2.5,-0.5"/>
                </g>
                <g id="arrowRight" xlink:href="#dirArrow" transform="rotate(90) translate(36 -43)" onmousedown="handlePan(1,0)">
                  <use xlink:href="#rim" fill="#404040">
                        <set attributeName="fill" to="#808080" begin="arrowRight.mouseover" end="arrowRight.mouseout"/>
                  </use>
                  <path fill="none" stroke="white" stroke-width="1.5" d="M0,-3.0v7 M-2.5,-0.5L0,-3.0L2.5,-0.5"/>
                </g>
                <g id="arrowDown" xlink:href="#dirArrow" transform="rotate(180) translate(-30 -48)" onmousedown="handlePan(0,1)">
                  <use xlink:href="#rim" fill="#404040">
                        <set attributeName="fill" to="#808080" begin="arrowDown.mouseover" end="arrowDown.mouseout"/>
                  </use>
                  <path fill="none" stroke="white" stroke-width="1.5" d="M0,-3.0v7 M-2.5,-0.5L0,-3.0L2.5,-0.5"/>
                </g>
                <g id="arrowLeft" xlink:href="#dirArrow" transform="rotate(270) translate(-36 17)" onmousedown="handlePan(-1,0)">
                  <use xlink:href="#rim" fill="#404040">
                        <set attributeName="fill" to="#808080" begin="arrowLeft.mouseover" end="arrowLeft.mouseout"/>
                  </use>
                  <path fill="none" stroke="white" stroke-width="1.5" d="M0,-3.0v7 M-2.5,-0.5L0,-3.0L2.5,-0.5"/>
                </g>
        </g>
        <svg viewBox="0 0 15 15" width="100%" height="30px" preserveAspectRatio="xMaxYMin meet">
         <g id="arrow_out" transform="scale(0.3 0.3)">
          <a xlink:href="libbf_8h_aff86bca731f3c8ffe45f0f1129175961_icgraph_org.svg" target="_base">
           <rect id="button" ry="5" rx="5" y="6" x="6" height="38" width="38"
                fill="#f2f5e9" fill-opacity="0.5" stroke="#606060" stroke-width="1.0"/>
           <path id="arrow"
             d="M 11.500037,31.436501 C 11.940474,20.09759 22.043105,11.32322 32.158766,21.979434 L 37.068811,17.246167 C 37.068811,17.246167 37.088388,32 37.088388,32 L 22.160133,31.978069 C 22.160133,31.978069 26.997745,27.140456 26.997745,27.140456 C 18.528582,18.264221 13.291696,25.230495 11.500037,31.436501 z"
             style="fill:#404040;"/>
          </a>
         </g>
        </svg>
</svg>
