<?xml version="1.0" encoding="UTF-8" standalone="no"?>
<!DOCTYPE svg PUBLIC "-//W3C//DTD SVG 1.1//EN"
 "http://www.w3.org/Graphics/SVG/1.1/DTD/svg11.dtd">
<!-- Generated by graphviz version 2.40.1 (20161225.0304)
 -->
<!-- Title: bf_get_float64 Pages: 1 -->
<svg width="553pt" height="237pt"
 viewBox="0.00 0.00 553.00 237.00" xmlns="http://www.w3.org/2000/svg" xmlns:xlink="http://www.w3.org/1999/xlink">
<g id="graph0" class="graph" transform="scale(1 1) rotate(0) translate(4 233)">
<title>bf_get_float64</title>
<!-- Node1023 -->
<g id="node1" class="node">
<title>Node1023</title>
<polygon fill="#bfbfbf" stroke="#000000" points="0,-95.5 0,-114.5 78,-114.5 78,-95.5 0,-95.5"/>
<text text-anchor="middle" x="39" y="-102.5" font-family="Helvetica,sans-Serif" font-size="10.00" fill="#000000">bf_get_float64</text>
</g>
<!-- Node1024 -->
<g id="node2" class="node">
<title>Node1024</title>
<g id="a_node2"><a xlink:href="libbf_8h.html#a2b9d906b21e903f2f7f1c9044674ab7d" target="_top" xlink:title="bf_delete">
<polygon fill="none" stroke="#000000" points="129,-190.5 129,-209.5 185,-209.5 185,-190.5 129,-190.5"/>
<text text-anchor="middle" x="157" y="-197.5" font-family="Helvetica,sans-Serif" font-size="10.00" fill="#000000">bf_delete</text>
</a>
</g>
</g>
<!-- Node1023&#45;&gt;Node1024 -->
<g id="edge1" class="edge">
<title>Node1023&#45;&gt;Node1024</title>
<path fill="none" stroke="#191970" d="M46.3908,-114.5469C58.8886,-130.1704 85.6217,-161.4165 114,-181 116.5379,-182.7514 119.2633,-184.3996 122.0655,-185.9371"/>
<polygon fill="#191970" stroke="#191970" points="120.6311,-189.1328 131.1424,-190.4609 123.7536,-182.8677 120.6311,-189.1328"/>
</g>
<!-- Node1026 -->
<g id="node4" class="node">
<title>Node1026</title>
<g id="a_node4"><a xlink:href="libbf_8h.html#abacc1410890af049e02ebd788364ac48" target="_top" xlink:title="bf_init">
<polygon fill="none" stroke="#000000" points="135.5,-152.5 135.5,-171.5 178.5,-171.5 178.5,-152.5 135.5,-152.5"/>
<text text-anchor="middle" x="157" y="-159.5" font-family="Helvetica,sans-Serif" font-size="10.00" fill="#000000">bf_init</text>
</a>
</g>
</g>
<!-- Node1023&#45;&gt;Node1026 -->
<g id="edge3" class="edge">
<title>Node1023&#45;&gt;Node1026</title>
<path fill="none" stroke="#191970" d="M57.3588,-114.6438C72.4609,-122.494 94.4777,-133.7492 114,-143 117.8998,-144.8479 122.023,-146.743 126.1109,-148.587"/>
<polygon fill="#191970" stroke="#191970" points="124.9048,-151.8812 135.4639,-152.7506 127.7516,-145.4862 124.9048,-151.8812"/>
</g>
<!-- Node1027 -->
<g id="node5" class="node">
<title>Node1027</title>
<g id="a_node5"><a xlink:href="libbf_8h.html#a40cbb5188b372acb906090d5ccf98a17" target="_top" xlink:title="bf_is_finite">
<polygon fill="none" stroke="#000000" points="125,-114.5 125,-133.5 189,-133.5 189,-114.5 125,-114.5"/>
<text text-anchor="middle" x="157" y="-121.5" font-family="Helvetica,sans-Serif" font-size="10.00" fill="#000000">bf_is_finite</text>
</a>
</g>
</g>
<!-- Node1023&#45;&gt;Node1027 -->
<g id="edge4" class="edge">
<title>Node1023&#45;&gt;Node1027</title>
<path fill="none" stroke="#191970" d="M78.2923,-111.3267C90.0113,-113.2137 102.9022,-115.2893 114.7991,-117.2049"/>
<polygon fill="#191970" stroke="#191970" points="114.5142,-120.7041 124.9435,-118.8384 115.6271,-113.7931 114.5142,-120.7041"/>
</g>
<!-- Node1028 -->
<g id="node6" class="node">
<title>Node1028</title>
<g id="a_node6"><a xlink:href="libbf_8h.html#abd4ca8358212228a53981a32a10286b5" target="_top" xlink:title="bf_round">
<polygon fill="none" stroke="#000000" points="130,-76.5 130,-95.5 184,-95.5 184,-76.5 130,-76.5"/>
<text text-anchor="middle" x="157" y="-83.5" font-family="Helvetica,sans-Serif" font-size="10.00" fill="#000000">bf_round</text>
</a>
</g>
</g>
<!-- Node1023&#45;&gt;Node1028 -->
<g id="edge5" class="edge">
<title>Node1023&#45;&gt;Node1028</title>
<path fill="none" stroke="#191970" d="M78.2923,-98.6733C91.6235,-96.5267 106.4713,-94.136 119.6469,-92.0145"/>
<polygon fill="#191970" stroke="#191970" points="120.4777,-95.4259 129.7942,-90.3806 119.3649,-88.5149 120.4777,-95.4259"/>
</g>
<!-- Node1040 -->
<g id="node14" class="node">
<title>Node1040</title>
<g id="a_node14"><a xlink:href="libbf_8h.html#ad7826160be73aad5e1f346a024fcbb78" target="_top" xlink:title="bf_set">
<polygon fill="none" stroke="#000000" points="246.5,-38.5 246.5,-57.5 290.5,-57.5 290.5,-38.5 246.5,-38.5"/>
<text text-anchor="middle" x="268.5" y="-45.5" font-family="Helvetica,sans-Serif" font-size="10.00" fill="#000000">bf_set</text>
</a>
</g>
</g>
<!-- Node1023&#45;&gt;Node1040 -->
<g id="edge17" class="edge">
<title>Node1023&#45;&gt;Node1040</title>
<path fill="none" stroke="#191970" d="M54.1383,-95.3424C68.8358,-86.4569 92.0775,-73.6774 114,-67 154.9951,-54.5132 204.4837,-50.2056 236.214,-48.7355"/>
<polygon fill="#191970" stroke="#191970" points="236.4023,-52.2308 246.256,-48.3379 236.1253,-45.2363 236.4023,-52.2308"/>
</g>
<!-- Node1041 -->
<g id="node15" class="node">
<title>Node1041</title>
<g id="a_node15"><a xlink:href="libbf_8h.html#a4c95d4c8b5efb651dd6eb3041ce91df6" target="_top" xlink:title="bf_set_exp_bits">
<polygon fill="none" stroke="#000000" points="114,-.5 114,-19.5 200,-19.5 200,-.5 114,-.5"/>
<text text-anchor="middle" x="157" y="-7.5" font-family="Helvetica,sans-Serif" font-size="10.00" fill="#000000">bf_set_exp_bits</text>
</a>
</g>
</g>
<!-- Node1023&#45;&gt;Node1041 -->
<g id="edge19" class="edge">
<title>Node1023&#45;&gt;Node1041</title>
<path fill="none" stroke="#191970" d="M47.5848,-95.4747C60.8881,-81.0542 87.7003,-53.3184 114,-34 118.5648,-30.6469 123.6467,-27.422 128.6724,-24.4835"/>
<polygon fill="#191970" stroke="#191970" points="130.5078,-27.4674 137.5342,-19.5376 127.0963,-21.355 130.5078,-27.4674"/>
</g>
<!-- Node1025 -->
<g id="node3" class="node">
<title>Node1025</title>
<g id="a_node3"><a xlink:href="libbf_8h.html#a524c9e60866c08c75061626a4b5e2f29" target="_top" xlink:title="bf_realloc">
<polygon fill="none" stroke="#000000" points="239,-190.5 239,-209.5 298,-209.5 298,-190.5 239,-190.5"/>
<text text-anchor="middle" x="268.5" y="-197.5" font-family="Helvetica,sans-Serif" font-size="10.00" fill="#000000">bf_realloc</text>
</a>
</g>
</g>
<!-- Node1024&#45;&gt;Node1025 -->
<g id="edge2" class="edge">
<title>Node1024&#45;&gt;Node1025</title>
<path fill="none" stroke="#191970" d="M185.1362,-200C198.3221,-200 214.2654,-200 228.6631,-200"/>
<polygon fill="#191970" stroke="#191970" points="228.8123,-203.5001 238.8122,-200 228.8122,-196.5001 228.8123,-203.5001"/>
</g>
<!-- Node1029 -->
<g id="node7" class="node">
<title>Node1029</title>
<g id="a_node7"><a xlink:href="libbf_8c.html#a06fc3e6aa8ac367eef1039c9d97fc1f8" target="_top" xlink:title="__bf_round">
<polygon fill="none" stroke="#000000" points="236,-114.5 236,-133.5 301,-133.5 301,-114.5 236,-114.5"/>
<text text-anchor="middle" x="268.5" y="-121.5" font-family="Helvetica,sans-Serif" font-size="10.00" fill="#000000">__bf_round</text>
</a>
</g>
</g>
<!-- Node1028&#45;&gt;Node1029 -->
<g id="edge6" class="edge">
<title>Node1028&#45;&gt;Node1029</title>
<path fill="none" stroke="#191970" d="M184.276,-95.2958C198.2381,-100.0542 215.4572,-105.9226 230.6802,-111.1107"/>
<polygon fill="#191970" stroke="#191970" points="229.7469,-114.4903 240.3413,-114.4033 232.005,-107.8645 229.7469,-114.4903"/>
</g>
<!-- Node1030 -->
<g id="node8" class="node">
<title>Node1030</title>
<g id="a_node8"><a xlink:href="libbf_8h.html#a933c9dd8c3450f560876d02e3b36b1a5" target="_top" xlink:title="bf_get_exp_bits">
<polygon fill="none" stroke="#000000" points="459,-209.5 459,-228.5 545,-228.5 545,-209.5 459,-209.5"/>
<text text-anchor="middle" x="502" y="-216.5" font-family="Helvetica,sans-Serif" font-size="10.00" fill="#000000">bf_get_exp_bits</text>
</a>
</g>
</g>
<!-- Node1029&#45;&gt;Node1030 -->
<g id="edge7" class="edge">
<title>Node1029&#45;&gt;Node1030</title>
<path fill="none" stroke="#191970" d="M274.2374,-133.702C284.5108,-150.0905 307.7356,-182.9396 337,-198 371.4383,-215.723 415.0826,-220.6394 448.8331,-221.3037"/>
<polygon fill="#191970" stroke="#191970" points="448.9416,-224.8045 458.9686,-221.3828 448.9963,-217.8047 448.9416,-224.8045"/>
</g>
<!-- Node1031 -->
<g id="node9" class="node">
<title>Node1031</title>
<g id="a_node9"><a xlink:href="libbf_8c.html#a3d7fdccc1995b3a88b68c5e7a57dce16" target="_top" xlink:title="bf_get_rnd_add">
<polygon fill="none" stroke="#ff0000" points="338.5,-152.5 338.5,-171.5 421.5,-171.5 421.5,-152.5 338.5,-152.5"/>
<text text-anchor="middle" x="380" y="-159.5" font-family="Helvetica,sans-Serif" font-size="10.00" fill="#000000">bf_get_rnd_add</text>
</a>
</g>
</g>
<!-- Node1029&#45;&gt;Node1031 -->
<g id="edge8" class="edge">
<title>Node1029&#45;&gt;Node1031</title>
<path fill="none" stroke="#191970" d="M296.6362,-133.589C310.5015,-138.3144 327.4156,-144.0789 342.3758,-149.1774"/>
<polygon fill="#191970" stroke="#191970" points="341.2784,-152.501 351.8728,-152.4141 343.5365,-145.8752 341.2784,-152.501"/>
</g>
<!-- Node1036 -->
<g id="node10" class="node">
<title>Node1036</title>
<g id="a_node10"><a xlink:href="libbf_8h.html#ad5f9a8c0c9455250d53b259b1a01c0c0" target="_top" xlink:title="bf_resize">
<polygon fill="none" stroke="#000000" points="474,-57.5 474,-76.5 530,-76.5 530,-57.5 474,-57.5"/>
<text text-anchor="middle" x="502" y="-64.5" font-family="Helvetica,sans-Serif" font-size="10.00" fill="#000000">bf_resize</text>
</a>
</g>
</g>
<!-- Node1029&#45;&gt;Node1036 -->
<g id="edge9" class="edge">
<title>Node1029&#45;&gt;Node1036</title>
<path fill="none" stroke="#191970" d="M301.1738,-114.6201C312.4909,-111.4557 325.2769,-107.9742 337,-105 380.3806,-93.9941 430.5225,-82.6386 464.0397,-75.2421"/>
<polygon fill="#191970" stroke="#191970" points="464.8666,-78.644 473.8819,-73.0786 463.3637,-71.8072 464.8666,-78.644"/>
</g>
<!-- Node1037 -->
<g id="node11" class="node">
<title>Node1037</title>
<g id="a_node11"><a xlink:href="libbf_8c.html#af464f3c1421a7305372819f949667273" target="_top" xlink:title="bf_set_overflow">
<polygon fill="none" stroke="#ff0000" points="337,-114.5 337,-133.5 423,-133.5 423,-114.5 337,-114.5"/>
<text text-anchor="middle" x="380" y="-121.5" font-family="Helvetica,sans-Serif" font-size="10.00" fill="#000000">bf_set_overflow</text>
</a>
</g>
</g>
<!-- Node1029&#45;&gt;Node1037 -->
<g id="edge10" class="edge">
<title>Node1029&#45;&gt;Node1037</title>
<path fill="none" stroke="#191970" d="M301.0502,-124C309.089,-124 317.9112,-124 326.6543,-124"/>
<polygon fill="#191970" stroke="#191970" points="326.8301,-127.5001 336.8301,-124 326.8301,-120.5001 326.8301,-127.5001"/>
</g>
<!-- Node1035 -->
<g id="node12" class="node">
<title>Node1035</title>
<g id="a_node12"><a xlink:href="libbf_8c.html#a450dfcc66e1b45403f642a8499219f94" target="_top" xlink:title="limb_mask">
<polygon fill="none" stroke="#000000" points="470,-152.5 470,-171.5 534,-171.5 534,-152.5 470,-152.5"/>
<text text-anchor="middle" x="502" y="-159.5" font-family="Helvetica,sans-Serif" font-size="10.00" fill="#000000">limb_mask</text>
</a>
</g>
</g>
<!-- Node1029&#45;&gt;Node1035 -->
<g id="edge16" class="edge">
<title>Node1029&#45;&gt;Node1035</title>
<path fill="none" stroke="#191970" d="M276.1028,-133.5841C287.5855,-147.1968 310.8119,-171.5292 337,-181 380.3136,-196.6641 433.8135,-185.3838 467.9253,-174.6848"/>
<polygon fill="#191970" stroke="#191970" points="469.0248,-178.0077 477.4318,-171.56 466.8389,-171.3578 469.0248,-178.0077"/>
</g>
<!-- Node1039 -->
<g id="node13" class="node">
<title>Node1039</title>
<g id="a_node13"><a xlink:href="libbf_8h.html#a66631c65c00e92a5840a5085a009602d" target="_top" xlink:title="bf_set_zero">
<polygon fill="none" stroke="#000000" points="346,-38.5 346,-57.5 414,-57.5 414,-38.5 346,-38.5"/>
<text text-anchor="middle" x="380" y="-45.5" font-family="Helvetica,sans-Serif" font-size="10.00" fill="#000000">bf_set_zero</text>
</a>
</g>
</g>
<!-- Node1029&#45;&gt;Node1039 -->
<g id="edge14" class="edge">
<title>Node1029&#45;&gt;Node1039</title>
<path fill="none" stroke="#191970" d="M280.2549,-114.2681C293.6129,-103.4032 316.2572,-85.5661 337,-72 341.8296,-68.8414 347.1019,-65.6798 352.2475,-62.7366"/>
<polygon fill="#191970" stroke="#191970" points="354.217,-65.646 361.2501,-57.7222 350.8107,-59.5306 354.217,-65.646"/>
</g>
<!-- Node1037&#45;&gt;Node1030 -->
<g id="edge11" class="edge">
<title>Node1037&#45;&gt;Node1030</title>
<path fill="none" stroke="#191970" d="M406.3627,-133.6684C412.0819,-136.2982 417.931,-139.4251 423,-143 442.012,-156.4082 442.2672,-164.8368 459,-181 466.5776,-188.3196 475.2323,-196.0763 482.7812,-202.6599"/>
<polygon fill="#191970" stroke="#191970" points="480.5785,-205.3821 490.4353,-209.2672 485.1526,-200.0833 480.5785,-205.3821"/>
</g>
<!-- Node1037&#45;&gt;Node1036 -->
<g id="edge12" class="edge">
<title>Node1037&#45;&gt;Node1036</title>
<path fill="none" stroke="#191970" d="M400.4201,-114.4595C420.0375,-105.2939 449.9028,-91.3405 472.1798,-80.9324"/>
<polygon fill="#191970" stroke="#191970" points="473.9349,-83.9756 481.5133,-76.5716 470.9718,-77.6336 473.9349,-83.9756"/>
</g>
<!-- Node1037&#45;&gt;Node1035 -->
<g id="edge13" class="edge">
<title>Node1037&#45;&gt;Node1035</title>
<path fill="none" stroke="#191970" d="M410.7858,-133.589C426.1013,-138.3594 444.8166,-144.1888 461.2998,-149.3229"/>
<polygon fill="#191970" stroke="#191970" points="460.6356,-152.7818 471.2241,-152.4141 462.7174,-146.0985 460.6356,-152.7818"/>
</g>
<!-- Node1039&#45;&gt;Node1036 -->
<g id="edge15" class="edge">
<title>Node1039&#45;&gt;Node1036</title>
<path fill="none" stroke="#191970" d="M414.3085,-53.3431C429.6869,-55.7381 447.8847,-58.5722 463.7055,-61.0361"/>
<polygon fill="#191970" stroke="#191970" points="463.2858,-64.5128 473.7053,-62.5934 464.363,-57.5962 463.2858,-64.5128"/>
</g>
<!-- Node1040&#45;&gt;Node1036 -->
<g id="edge18" class="edge">
<title>Node1040&#45;&gt;Node1036</title>
<path fill="none" stroke="#191970" d="M290.7016,-40.1967C303.9547,-35.955 321.2251,-31.1472 337,-29 374.873,-23.8449 385.7341,-20.5033 423,-29 442.7841,-33.5108 463.389,-43.6304 478.5934,-52.293"/>
<polygon fill="#191970" stroke="#191970" points="476.9158,-55.3669 487.3068,-57.4352 480.4735,-49.3385 476.9158,-55.3669"/>
</g>
</g>
</svg>
