<?xml version="1.0" encoding="UTF-8" standalone="no"?>
<!DOCTYPE svg PUBLIC "-//W3C//DTD SVG 1.1//EN"
 "http://www.w3.org/Graphics/SVG/1.1/DTD/svg11.dtd">
<!-- Generated by graphviz version 2.40.1 (20161225.0304)
 -->
<!-- Title: bf_cmp Pages: 1 -->
<!--zoomable 104 -->
<svg id="main" version="1.1" xmlns="http://www.w3.org/2000/svg" xmlns:xlink="http://www.w3.org/1999/xlink" xml:space="preserve" onload="init(evt)">
<style type="text/css"><![CDATA[
.edge:hover path { stroke: red; }
.edge:hover polygon { stroke: red; fill: red; }
]]></style>
<script type="text/javascript"><![CDATA[
var edges = document.getElementsByTagName('g');
if (edges && edges.length) {
  for (var i=0;i<edges.length;i++) {
    if (edges[i].id.substr(0,4)=='edge') {
      edges[i].setAttribute('class','edge');
    }
  }
}
]]></script>
        <defs>
                <circle id="rim" cx="0" cy="0" r="7"/>
                <circle id="rim2" cx="0" cy="0" r="3.5"/>
                <g id="zoomPlus">
                        <use xlink:href="#rim" fill="#404040">
                                <set attributeName="fill" to="#808080" begin="zoomplus.mouseover" end="zoomplus.mouseout"/>
                        </use>
                        <path d="M-4,0h8M0,-4v8" fill="none" stroke="white" stroke-width="1.5" pointer-events="none"/>
                </g>
                <g id="zoomMin">
                        <use xlink:href="#rim" fill="#404040">
                                <set attributeName="fill" to="#808080" begin="zoomminus.mouseover" end="zoomminus.mouseout"/>
                        </use>
                        <path d="M-4,0h8" fill="none" stroke="white" stroke-width="1.5" pointer-events="none"/>
                </g>
                <g id="dirArrow">
                        <path fill="none" stroke="white" stroke-width="1.5" d="M0,-3.0v7 M-2.5,-0.5L0,-3.0L2.5,-0.5"/>
                </g>
               <g id="resetDef">
                       <use xlink:href="#rim2" fill="#404040">
                               <set attributeName="fill" to="#808080" begin="reset.mouseover" end="reset.mouseout"/>
                       </use>
               </g>
        </defs>

<script type="text/javascript">
var viewWidth = 558;
var viewHeight = 104;
var sectionId = 'dynsection-53';
</script>
<script xlink:href="svgpan.js"/>
<svg id="graph" class="graph">
<g id="viewport">
<title>bf_cmp</title>
<!-- Node1872 -->
<g id="node1" class="node">
<title>Node1872</title>
<polygon fill="#bfbfbf" stroke="#000000" points="0,-38.5 0,-57.5 49,-57.5 49,-38.5 0,-38.5"/>
<text text-anchor="middle" x="24.5" y="-45.5" font-family="Helvetica,sans-Serif" font-size="10.00" fill="#000000">bf_cmp</text>
</g>
<!-- Node1873 -->
<g id="node2" class="node">
<title>Node1873</title>
<g id="a_node2"><a xlink:href="libbf_8h.html#ace98bda0a4b63feec215a740f713b1e7" target="_top" xlink:title="bf_cmp_eq">
<polygon fill="none" stroke="#000000" points="190.5,-76.5 190.5,-95.5 255.5,-95.5 255.5,-76.5 190.5,-76.5"/>
<text text-anchor="middle" x="223" y="-83.5" font-family="Helvetica,sans-Serif" font-size="10.00" fill="#000000">bf_cmp_eq</text>
</a>
</g>
</g>
<!-- Node1872&#45;&gt;Node1873 -->
<g id="edge1" class="edge">
<title>Node1872&#45;&gt;Node1873</title>
<path fill="none" stroke="#191970" d="M58.8516,-59.8827C67.3249,-62.5092 76.4294,-65.0784 85,-67 120.6337,-74.9893 162.2431,-80.1641 190.3813,-83.0651"/>
<polygon fill="#191970" stroke="#191970" points="59.8556,-56.5291 49.2645,-56.8084 57.7181,-63.1948 59.8556,-56.5291"/>
</g>
<!-- Node1877 -->
<g id="node6" class="node">
<title>Node1877</title>
<g id="a_node6"><a xlink:href="libbf_8h.html#aeb8475365c33fba38e5978c96b37fdc7" target="_top" xlink:title="bf_cmp_le">
<polygon fill="none" stroke="#000000" points="85,-38.5 85,-57.5 147,-57.5 147,-38.5 85,-38.5"/>
<text text-anchor="middle" x="116" y="-45.5" font-family="Helvetica,sans-Serif" font-size="10.00" fill="#000000">bf_cmp_le</text>
</a>
</g>
</g>
<!-- Node1872&#45;&gt;Node1877 -->
<g id="edge6" class="edge">
<title>Node1872&#45;&gt;Node1877</title>
<path fill="none" stroke="#191970" d="M59.2918,-48C67.695,-48 76.6224,-48 84.8467,-48"/>
<polygon fill="#191970" stroke="#191970" points="59.0204,-44.5001 49.0203,-48 59.0203,-51.5001 59.0204,-44.5001"/>
</g>
<!-- Node1878 -->
<g id="node7" class="node">
<title>Node1878</title>
<g id="a_node7"><a xlink:href="libbf_8h.html#aea49a0532c6bc29ed0c686717fd19aff" target="_top" xlink:title="bf_cmp_lt">
<polygon fill="none" stroke="#000000" points="86.5,-.5 86.5,-19.5 145.5,-19.5 145.5,-.5 86.5,-.5"/>
<text text-anchor="middle" x="116" y="-7.5" font-family="Helvetica,sans-Serif" font-size="10.00" fill="#000000">bf_cmp_lt</text>
</a>
</g>
</g>
<!-- Node1872&#45;&gt;Node1878 -->
<g id="edge7" class="edge">
<title>Node1872&#45;&gt;Node1878</title>
<path fill="none" stroke="#191970" d="M57.1478,-34.4413C68.9771,-29.5286 82.0826,-24.0859 92.9181,-19.5859"/>
<polygon fill="#191970" stroke="#191970" points="55.4822,-31.3432 47.5893,-38.411 58.167,-37.8079 55.4822,-31.3432"/>
</g>
<!-- Node1874 -->
<g id="node3" class="node">
<title>Node1874</title>
<g id="a_node3"><a xlink:href="libbf_8h.html#a4137b2308536cbc92addaeb3f0c79d35" target="_top" xlink:title="bf_log">
<polygon fill="none" stroke="#000000" points="300.5,-38.5 300.5,-57.5 343.5,-57.5 343.5,-38.5 300.5,-38.5"/>
<text text-anchor="middle" x="322" y="-45.5" font-family="Helvetica,sans-Serif" font-size="10.00" fill="#000000">bf_log</text>
</a>
</g>
</g>
<!-- Node1873&#45;&gt;Node1874 -->
<g id="edge2" class="edge">
<title>Node1873&#45;&gt;Node1874</title>
<path fill="none" stroke="#191970" d="M257.4935,-72.7601C271.7513,-67.2874 287.8437,-61.1105 300.3887,-56.2952"/>
<polygon fill="#191970" stroke="#191970" points="256.0635,-69.5599 247.9819,-76.411 258.572,-76.095 256.0635,-69.5599"/>
</g>
<!-- Node1876 -->
<g id="node5" class="node">
<title>Node1876</title>
<g id="a_node5"><a xlink:href="libbf_8h.html#a93fe073491f8c5f086a75e7bf8865b34" target="_top" xlink:title="bf_pow">
<polygon fill="none" stroke="#000000" points="502,-57.5 502,-76.5 550,-76.5 550,-57.5 502,-57.5"/>
<text text-anchor="middle" x="526" y="-64.5" font-family="Helvetica,sans-Serif" font-size="10.00" fill="#000000">bf_pow</text>
</a>
</g>
</g>
<!-- Node1873&#45;&gt;Node1876 -->
<g id="edge5" class="edge">
<title>Node1873&#45;&gt;Node1876</title>
<path fill="none" stroke="#191970" d="M265.9549,-83.3065C330.4799,-79.2603 450.3203,-71.7456 501.6447,-68.5272"/>
<polygon fill="#191970" stroke="#191970" points="265.4755,-79.8296 255.7142,-83.9486 265.9137,-86.8158 265.4755,-79.8296"/>
</g>
<!-- Node1875 -->
<g id="node4" class="node">
<title>Node1875</title>
<g id="a_node4"><a xlink:href="libbf_8c.html#aa28c1603087e2aec25b9bb0dae387875" target="_top" xlink:title="bf_pow_generic">
<polygon fill="none" stroke="#000000" points="381,-38.5 381,-57.5 466,-57.5 466,-38.5 381,-38.5"/>
<text text-anchor="middle" x="423.5" y="-45.5" font-family="Helvetica,sans-Serif" font-size="10.00" fill="#000000">bf_pow_generic</text>
</a>
</g>
</g>
<!-- Node1874&#45;&gt;Node1875 -->
<g id="edge3" class="edge">
<title>Node1874&#45;&gt;Node1875</title>
<path fill="none" stroke="#191970" d="M353.7883,-48C362.3122,-48 371.6697,-48 380.6847,-48"/>
<polygon fill="#191970" stroke="#191970" points="353.5256,-44.5001 343.5255,-48 353.5255,-51.5001 353.5256,-44.5001"/>
</g>
<!-- Node1875&#45;&gt;Node1876 -->
<g id="edge4" class="edge">
<title>Node1875&#45;&gt;Node1876</title>
<path fill="none" stroke="#191970" d="M476.1882,-57.7666C485.1722,-59.4319 494.0973,-61.0863 501.858,-62.5249"/>
<polygon fill="#191970" stroke="#191970" points="476.5492,-54.274 466.0788,-55.8926 475.2733,-61.1567 476.5492,-54.274"/>
</g>
<!-- Node1879 -->
<g id="node8" class="node">
<title>Node1879</title>
<g id="a_node8"><a xlink:href="libbf_8h.html#a36f22f93ba4258209be035a63b80b87f" target="_top" xlink:title="bf_exp">
<polygon fill="none" stroke="#000000" points="299,-.5 299,-19.5 345,-19.5 345,-.5 299,-.5"/>
<text text-anchor="middle" x="322" y="-7.5" font-family="Helvetica,sans-Serif" font-size="10.00" fill="#000000">bf_exp</text>
</a>
</g>
</g>
<!-- Node1878&#45;&gt;Node1879 -->
<g id="edge8" class="edge">
<title>Node1878&#45;&gt;Node1879</title>
<path fill="none" stroke="#191970" d="M155.5161,-10C198.0231,-10 264.1769,-10 298.9129,-10"/>
<polygon fill="#191970" stroke="#191970" points="155.5148,-6.5001 145.5148,-10 155.5147,-13.5001 155.5148,-6.5001"/>
</g>
<!-- Node1880 -->
<g id="node9" class="node">
<title>Node1880</title>
<g id="a_node9"><a xlink:href="libbf_8c.html#aab7bc918fdd8dbef25c31c6881c73fdd" target="_top" xlink:title="bf_log_internal">
<polygon fill="none" stroke="#000000" points="183,-38.5 183,-57.5 263,-57.5 263,-38.5 183,-38.5"/>
<text text-anchor="middle" x="223" y="-45.5" font-family="Helvetica,sans-Serif" font-size="10.00" fill="#000000">bf_log_internal</text>
</a>
</g>
</g>
<!-- Node1878&#45;&gt;Node1880 -->
<g id="edge10" class="edge">
<title>Node1878&#45;&gt;Node1880</title>
<path fill="none" stroke="#191970" d="M152.5258,-22.9718C166.7812,-28.0344 182.8302,-33.7341 196.008,-38.4141"/>
<polygon fill="#191970" stroke="#191970" points="153.5953,-19.6375 143.0006,-19.589 151.2527,-26.2339 153.5953,-19.6375"/>
</g>
<!-- Node1879&#45;&gt;Node1875 -->
<g id="edge9" class="edge">
<title>Node1879&#45;&gt;Node1875</title>
<path fill="none" stroke="#191970" d="M354.803,-22.2809C368.8324,-27.5333 384.9622,-33.5721 398.0653,-38.4777"/>
<polygon fill="#191970" stroke="#191970" points="355.6243,-18.8512 345.0319,-18.6228 353.1699,-25.4068 355.6243,-18.8512"/>
</g>
<!-- Node1880&#45;&gt;Node1874 -->
<g id="edge11" class="edge">
<title>Node1880&#45;&gt;Node1874</title>
<path fill="none" stroke="#191970" d="M273.5326,-48C283.0358,-48 292.4882,-48 300.488,-48"/>
<polygon fill="#191970" stroke="#191970" points="273.2671,-44.5001 263.2671,-48 273.2671,-51.5001 273.2671,-44.5001"/>
</g>
</g>
</svg>
        <g id="navigator" transform="translate(0 0)" fill="#404254">
                <rect fill="#f2f5e9" fill-opacity="0.5" stroke="#606060" stroke-width=".5" x="0" y="0" width="60" height="60"/>
                <use id="zoomplus" xlink:href="#zoomPlus" x="17" y="9" onmousedown="handleZoom(evt,'in')"/>
                <use id="zoomminus" xlink:href="#zoomMin" x="42" y="9" onmousedown="handleZoom(evt,'out')"/>
                <use id="reset" xlink:href="#resetDef" x="30" y="36" onmousedown="handleReset()"/>
                <g id="arrowUp" xlink:href="#dirArrow" transform="translate(30 24)" onmousedown="handlePan(0,-1)">
                  <use xlink:href="#rim" fill="#404040">
                        <set attributeName="fill" to="#808080" begin="arrowUp.mouseover" end="arrowUp.mouseout"/>
                  </use>
                  <path fill="none" stroke="white" stroke-width="1.5" d="M0,-3.0v7 M-2.5,-0.5L0,-3.0L2.5,-0.5"/>
                </g>
                <g id="arrowRight" xlink:href="#dirArrow" transform="rotate(90) translate(36 -43)" onmousedown="handlePan(1,0)">
                  <use xlink:href="#rim" fill="#404040">
                        <set attributeName="fill" to="#808080" begin="arrowRight.mouseover" end="arrowRight.mouseout"/>
                  </use>
                  <path fill="none" stroke="white" stroke-width="1.5" d="M0,-3.0v7 M-2.5,-0.5L0,-3.0L2.5,-0.5"/>
                </g>
                <g id="arrowDown" xlink:href="#dirArrow" transform="rotate(180) translate(-30 -48)" onmousedown="handlePan(0,1)">
                  <use xlink:href="#rim" fill="#404040">
                        <set attributeName="fill" to="#808080" begin="arrowDown.mouseover" end="arrowDown.mouseout"/>
                  </use>
                  <path fill="none" stroke="white" stroke-width="1.5" d="M0,-3.0v7 M-2.5,-0.5L0,-3.0L2.5,-0.5"/>
                </g>
                <g id="arrowLeft" xlink:href="#dirArrow" transform="rotate(270) translate(-36 17)" onmousedown="handlePan(-1,0)">
                  <use xlink:href="#rim" fill="#404040">
                        <set attributeName="fill" to="#808080" begin="arrowLeft.mouseover" end="arrowLeft.mouseout"/>
                  </use>
                  <path fill="none" stroke="white" stroke-width="1.5" d="M0,-3.0v7 M-2.5,-0.5L0,-3.0L2.5,-0.5"/>
                </g>
        </g>
        <svg viewBox="0 0 15 15" width="100%" height="30px" preserveAspectRatio="xMaxYMin meet">
         <g id="arrow_out" transform="scale(0.3 0.3)">
          <a xlink:href="libbf_8c_aa27d25901c756808d764fdae65daae0b_icgraph_org.svg" target="_base">
           <rect id="button" ry="5" rx="5" y="6" x="6" height="38" width="38"
                fill="#f2f5e9" fill-opacity="0.5" stroke="#606060" stroke-width="1.0"/>
           <path id="arrow"
             d="M 11.500037,31.436501 C 11.940474,20.09759 22.043105,11.32322 32.158766,21.979434 L 37.068811,17.246167 C 37.068811,17.246167 37.088388,32 37.088388,32 L 22.160133,31.978069 C 22.160133,31.978069 26.997745,27.140456 26.997745,27.140456 C 18.528582,18.264221 13.291696,25.230495 11.500037,31.436501 z"
             style="fill:#404040;"/>
          </a>
         </g>
        </svg>
</svg>
