<?xml version="1.0" encoding="UTF-8" standalone="no"?>
<!DOCTYPE svg PUBLIC "-//W3C//DTD SVG 1.1//EN"
 "http://www.w3.org/Graphics/SVG/1.1/DTD/svg11.dtd">
<!-- Generated by graphviz version 2.40.1 (20161225.0304)
 -->
<!-- Title: fft_clear_cache Pages: 1 -->
<svg width="455pt" height="28pt"
 viewBox="0.00 0.00 455.00 28.00" xmlns="http://www.w3.org/2000/svg" xmlns:xlink="http://www.w3.org/1999/xlink">
<g id="graph0" class="graph" transform="scale(1 1) rotate(0) translate(4 24)">
<title>fft_clear_cache</title>
<!-- Node126 -->
<g id="node1" class="node">
<title>Node126</title>
<polygon fill="#bfbfbf" stroke="#000000" points="0,-.5 0,-19.5 83,-19.5 83,-.5 0,-.5"/>
<text text-anchor="middle" x="41.5" y="-7.5" font-family="Helvetica,sans-Serif" font-size="10.00" fill="#000000">fft_clear_cache</text>
</g>
<!-- Node127 -->
<g id="node2" class="node">
<title>Node127</title>
<g id="a_node2"><a xlink:href="libbf_8h.html#a6e8875c235e27adc6d68815417a275a0" target="_top" xlink:title="bf_clear_cache">
<polygon fill="none" stroke="#000000" points="119,-.5 119,-19.5 202,-19.5 202,-.5 119,-.5"/>
<text text-anchor="middle" x="160.5" y="-7.5" font-family="Helvetica,sans-Serif" font-size="10.00" fill="#000000">bf_clear_cache</text>
</a>
</g>
</g>
<!-- Node126&#45;&gt;Node127 -->
<g id="edge1" class="edge">
<title>Node126&#45;&gt;Node127</title>
<path fill="none" stroke="#191970" d="M93.3174,-10C101.8022,-10 110.499,-10 118.7019,-10"/>
<polygon fill="#191970" stroke="#191970" points="93.1205,-6.5001 83.1204,-10 93.1204,-13.5001 93.1205,-6.5001"/>
</g>
<!-- Node128 -->
<g id="node3" class="node">
<title>Node128</title>
<g id="a_node3"><a xlink:href="libbf_8h.html#abadda448cf54db0ada02511cd7d4c617" target="_top" xlink:title="bf_context_end">
<polygon fill="none" stroke="#000000" points="238,-.5 238,-19.5 321,-19.5 321,-.5 238,-.5"/>
<text text-anchor="middle" x="279.5" y="-7.5" font-family="Helvetica,sans-Serif" font-size="10.00" fill="#000000">bf_context_end</text>
</a>
</g>
</g>
<!-- Node127&#45;&gt;Node128 -->
<g id="edge2" class="edge">
<title>Node127&#45;&gt;Node128</title>
<path fill="none" stroke="#191970" d="M212.3174,-10C220.8022,-10 229.499,-10 237.7019,-10"/>
<polygon fill="#191970" stroke="#191970" points="212.1205,-6.5001 202.1204,-10 212.1204,-13.5001 212.1205,-6.5001"/>
</g>
<!-- Node129 -->
<g id="node4" class="node">
<title>Node129</title>
<g id="a_node4"><a xlink:href="quickjs_8c.html#ad80a65b72c3a346d8a0047858a5f0b13" target="_top" xlink:title="JS_FreeRuntime">
<polygon fill="none" stroke="#ff0000" points="357,-.5 357,-19.5 447,-19.5 447,-.5 357,-.5"/>
<text text-anchor="middle" x="402" y="-7.5" font-family="Helvetica,sans-Serif" font-size="10.00" fill="#000000">JS_FreeRuntime</text>
</a>
</g>
</g>
<!-- Node128&#45;&gt;Node129 -->
<g id="edge3" class="edge">
<title>Node128&#45;&gt;Node129</title>
<path fill="none" stroke="#191970" d="M331.3784,-10C339.762,-10 348.3854,-10 356.6004,-10"/>
<polygon fill="#191970" stroke="#191970" points="331.315,-6.5001 321.3149,-10 331.3149,-13.5001 331.315,-6.5001"/>
</g>
</g>
</svg>
