<?xml version="1.0" encoding="UTF-8" standalone="no"?>
<!DOCTYPE svg PUBLIC "-//W3C//DTD SVG 1.1//EN"
 "http://www.w3.org/Graphics/SVG/1.1/DTD/svg11.dtd">
<!-- Generated by graphviz version 2.40.1 (20161225.0304)
 -->
<!-- Title: bf_get_float64 Pages: 1 -->
<!--zoomable 66 -->
<svg id="main" version="1.1" xmlns="http://www.w3.org/2000/svg" xmlns:xlink="http://www.w3.org/1999/xlink" xml:space="preserve" onload="init(evt)">
<style type="text/css"><![CDATA[
.edge:hover path { stroke: red; }
.edge:hover polygon { stroke: red; fill: red; }
]]></style>
<script type="text/javascript"><![CDATA[
var edges = document.getElementsByTagName('g');
if (edges && edges.length) {
  for (var i=0;i<edges.length;i++) {
    if (edges[i].id.substr(0,4)=='edge') {
      edges[i].setAttribute('class','edge');
    }
  }
}
]]></script>
        <defs>
                <circle id="rim" cx="0" cy="0" r="7"/>
                <circle id="rim2" cx="0" cy="0" r="3.5"/>
                <g id="zoomPlus">
                        <use xlink:href="#rim" fill="#404040">
                                <set attributeName="fill" to="#808080" begin="zoomplus.mouseover" end="zoomplus.mouseout"/>
                        </use>
                        <path d="M-4,0h8M0,-4v8" fill="none" stroke="white" stroke-width="1.5" pointer-events="none"/>
                </g>
                <g id="zoomMin">
                        <use xlink:href="#rim" fill="#404040">
                                <set attributeName="fill" to="#808080" begin="zoomminus.mouseover" end="zoomminus.mouseout"/>
                        </use>
                        <path d="M-4,0h8" fill="none" stroke="white" stroke-width="1.5" pointer-events="none"/>
                </g>
                <g id="dirArrow">
                        <path fill="none" stroke="white" stroke-width="1.5" d="M0,-3.0v7 M-2.5,-0.5L0,-3.0L2.5,-0.5"/>
                </g>
               <g id="resetDef">
                       <use xlink:href="#rim2" fill="#404040">
                               <set attributeName="fill" to="#808080" begin="reset.mouseover" end="reset.mouseout"/>
                       </use>
               </g>
        </defs>

<script type="text/javascript">
var viewWidth = 532;
var viewHeight = 66;
var sectionId = 'dynsection-162';
</script>
<script xlink:href="svgpan.js"/>
<svg id="graph" class="graph">
<g id="viewport">
<title>bf_get_float64</title>
<!-- Node21713 -->
<g id="node1" class="node">
<title>Node21713</title>
<polygon fill="#bfbfbf" stroke="#000000" points="0,-19.5 0,-38.5 78,-38.5 78,-19.5 0,-19.5"/>
<text text-anchor="middle" x="39" y="-26.5" font-family="Helvetica,sans-Serif" font-size="10.00" fill="#000000">bf_get_float64</text>
</g>
<!-- Node21714 -->
<g id="node2" class="node">
<title>Node21714</title>
<g id="a_node2"><a xlink:href="quickjs_8c.html#a69d448a344a95318ee4ce862ccc21251" target="_top" xlink:title="js_binary_arith_bigint">
<polygon fill="none" stroke="#000000" points="123.5,-38.5 123.5,-57.5 231.5,-57.5 231.5,-38.5 123.5,-38.5"/>
<text text-anchor="middle" x="177.5" y="-45.5" font-family="Helvetica,sans-Serif" font-size="10.00" fill="#000000">js_binary_arith_bigint</text>
</a>
</g>
</g>
<!-- Node21713&#45;&gt;Node21714 -->
<g id="edge1" class="edge">
<title>Node21713&#45;&gt;Node21714</title>
<path fill="none" stroke="#191970" d="M88.4526,-35.7841C99.7659,-37.3361 111.8488,-38.9937 123.3479,-40.5712"/>
<polygon fill="#191970" stroke="#191970" points="88.701,-32.2855 78.3181,-34.3938 87.7496,-39.2205 88.701,-32.2855"/>
</g>
<!-- Node21717 -->
<g id="node5" class="node">
<title>Node21717</title>
<g id="a_node5"><a xlink:href="quickjs_8c.html#a39b3fcf371c5080c1887bb3753d7c122" target="_top" xlink:title="js_mul_pow10_to_float64">
<polygon fill="none" stroke="#000000" points="114,-.5 114,-19.5 241,-19.5 241,-.5 114,-.5"/>
<text text-anchor="middle" x="177.5" y="-7.5" font-family="Helvetica,sans-Serif" font-size="10.00" fill="#000000">js_mul_pow10_to_float64</text>
</a>
</g>
</g>
<!-- Node21713&#45;&gt;Node21717 -->
<g id="edge4" class="edge">
<title>Node21713&#45;&gt;Node21717</title>
<path fill="none" stroke="#191970" d="M88.241,-22.2449C96.578,-21.1012 105.3382,-19.8994 113.9787,-18.7141"/>
<polygon fill="#191970" stroke="#191970" points="87.7496,-18.7795 78.3181,-23.6062 88.701,-25.7145 87.7496,-18.7795"/>
</g>
<!-- Node21715 -->
<g id="node3" class="node">
<title>Node21715</title>
<g id="a_node3"><a xlink:href="quickjs_8c.html#a0f5b03638045aa0856f9b8fb0d5c0fb4" target="_top" xlink:title="JS_AddIntrinsicBigInt">
<polygon fill="none" stroke="#000000" points="282.5,-38.5 282.5,-57.5 393.5,-57.5 393.5,-38.5 282.5,-38.5"/>
<text text-anchor="middle" x="338" y="-45.5" font-family="Helvetica,sans-Serif" font-size="10.00" fill="#000000">JS_AddIntrinsicBigInt</text>
</a>
</g>
</g>
<!-- Node21714&#45;&gt;Node21715 -->
<g id="edge2" class="edge">
<title>Node21714&#45;&gt;Node21715</title>
<path fill="none" stroke="#191970" d="M241.929,-48C255.3148,-48 269.3122,-48 282.3505,-48"/>
<polygon fill="#191970" stroke="#191970" points="241.838,-44.5001 231.838,-48 241.8379,-51.5001 241.838,-44.5001"/>
</g>
<!-- Node21716 -->
<g id="node4" class="node">
<title>Node21716</title>
<g id="a_node4"><a xlink:href="quickjs_8c.html#ad8aedb643b8753b7a15f6cb2df61945e" target="_top" xlink:title="JS_NewContext">
<polygon fill="none" stroke="#000000" points="435,-38.5 435,-57.5 524,-57.5 524,-38.5 435,-38.5"/>
<text text-anchor="middle" x="479.5" y="-45.5" font-family="Helvetica,sans-Serif" font-size="10.00" fill="#000000">JS_NewContext</text>
</a>
</g>
</g>
<!-- Node21715&#45;&gt;Node21716 -->
<g id="edge3" class="edge">
<title>Node21715&#45;&gt;Node21716</title>
<path fill="none" stroke="#191970" d="M403.5279,-48C414.0493,-48 424.7256,-48 434.6192,-48"/>
<polygon fill="#191970" stroke="#191970" points="403.5185,-44.5001 393.5184,-48 403.5184,-51.5001 403.5185,-44.5001"/>
</g>
<!-- Node21718 -->
<g id="node6" class="node">
<title>Node21718</title>
<g id="a_node6"><a xlink:href="quickjs_8c.html#af801f296acb2c259e3202ec2dece219d" target="_top" xlink:title="JS_AddIntrinsicBigFloat">
<polygon fill="none" stroke="#000000" points="277,-.5 277,-19.5 399,-19.5 399,-.5 277,-.5"/>
<text text-anchor="middle" x="338" y="-7.5" font-family="Helvetica,sans-Serif" font-size="10.00" fill="#000000">JS_AddIntrinsicBigFloat</text>
</a>
</g>
</g>
<!-- Node21717&#45;&gt;Node21718 -->
<g id="edge5" class="edge">
<title>Node21717&#45;&gt;Node21718</title>
<path fill="none" stroke="#191970" d="M251.6495,-10C260.1143,-10 268.6701,-10 276.9373,-10"/>
<polygon fill="#191970" stroke="#191970" points="251.3951,-6.5001 241.395,-10 251.395,-13.5001 251.3951,-6.5001"/>
</g>
</g>
</svg>
        <g id="navigator" transform="translate(0 0)" fill="#404254">
                <rect fill="#f2f5e9" fill-opacity="0.5" stroke="#606060" stroke-width=".5" x="0" y="0" width="60" height="60"/>
                <use id="zoomplus" xlink:href="#zoomPlus" x="17" y="9" onmousedown="handleZoom(evt,'in')"/>
                <use id="zoomminus" xlink:href="#zoomMin" x="42" y="9" onmousedown="handleZoom(evt,'out')"/>
                <use id="reset" xlink:href="#resetDef" x="30" y="36" onmousedown="handleReset()"/>
                <g id="arrowUp" xlink:href="#dirArrow" transform="translate(30 24)" onmousedown="handlePan(0,-1)">
                  <use xlink:href="#rim" fill="#404040">
                        <set attributeName="fill" to="#808080" begin="arrowUp.mouseover" end="arrowUp.mouseout"/>
                  </use>
                  <path fill="none" stroke="white" stroke-width="1.5" d="M0,-3.0v7 M-2.5,-0.5L0,-3.0L2.5,-0.5"/>
                </g>
                <g id="arrowRight" xlink:href="#dirArrow" transform="rotate(90) translate(36 -43)" onmousedown="handlePan(1,0)">
                  <use xlink:href="#rim" fill="#404040">
                        <set attributeName="fill" to="#808080" begin="arrowRight.mouseover" end="arrowRight.mouseout"/>
                  </use>
                  <path fill="none" stroke="white" stroke-width="1.5" d="M0,-3.0v7 M-2.5,-0.5L0,-3.0L2.5,-0.5"/>
                </g>
                <g id="arrowDown" xlink:href="#dirArrow" transform="rotate(180) translate(-30 -48)" onmousedown="handlePan(0,1)">
                  <use xlink:href="#rim" fill="#404040">
                        <set attributeName="fill" to="#808080" begin="arrowDown.mouseover" end="arrowDown.mouseout"/>
                  </use>
                  <path fill="none" stroke="white" stroke-width="1.5" d="M0,-3.0v7 M-2.5,-0.5L0,-3.0L2.5,-0.5"/>
                </g>
                <g id="arrowLeft" xlink:href="#dirArrow" transform="rotate(270) translate(-36 17)" onmousedown="handlePan(-1,0)">
                  <use xlink:href="#rim" fill="#404040">
                        <set attributeName="fill" to="#808080" begin="arrowLeft.mouseover" end="arrowLeft.mouseout"/>
                  </use>
                  <path fill="none" stroke="white" stroke-width="1.5" d="M0,-3.0v7 M-2.5,-0.5L0,-3.0L2.5,-0.5"/>
                </g>
        </g>
        <svg viewBox="0 0 15 15" width="100%" height="30px" preserveAspectRatio="xMaxYMin meet">
         <g id="arrow_out" transform="scale(0.3 0.3)">
          <a xlink:href="libbf_8c_a74f8125e45e931d1ecec220cea9c952e_icgraph_org.svg" target="_base">
           <rect id="button" ry="5" rx="5" y="6" x="6" height="38" width="38"
                fill="#f2f5e9" fill-opacity="0.5" stroke="#606060" stroke-width="1.0"/>
           <path id="arrow"
             d="M 11.500037,31.436501 C 11.940474,20.09759 22.043105,11.32322 32.158766,21.979434 L 37.068811,17.246167 C 37.068811,17.246167 37.088388,32 37.088388,32 L 22.160133,31.978069 C 22.160133,31.978069 26.997745,27.140456 26.997745,27.140456 C 18.528582,18.264221 13.291696,25.230495 11.500037,31.436501 z"
             style="fill:#404040;"/>
          </a>
         </g>
        </svg>
</svg>
