<?xml version="1.0" encoding="UTF-8" standalone="no"?>
<!DOCTYPE svg PUBLIC "-//W3C//DTD SVG 1.1//EN"
 "http://www.w3.org/Graphics/SVG/1.1/DTD/svg11.dtd">
<!-- Generated by graphviz version 2.40.1 (20161225.0304)
 -->
<!-- Title: bf_pow Pages: 1 -->
<svg width="554pt" height="915pt"
 viewBox="0.00 0.00 554.00 915.05" xmlns="http://www.w3.org/2000/svg" xmlns:xlink="http://www.w3.org/1999/xlink">
<g id="graph0" class="graph" transform="scale(1 1) rotate(0) translate(4 911.0542)">
<title>bf_pow</title>
<!-- Node6996 -->
<g id="node1" class="node">
<title>Node6996</title>
<polygon fill="#bfbfbf" stroke="#000000" points="0,-393.5542 0,-412.5542 48,-412.5542 48,-393.5542 0,-393.5542"/>
<text text-anchor="middle" x="24" y="-400.5542" font-family="Helvetica,sans-Serif" font-size="10.00" fill="#000000">bf_pow</text>
</g>
<!-- Node6997 -->
<g id="node2" class="node">
<title>Node6997</title>
<g id="a_node2"><a xlink:href="libbf_8h.html#ace98bda0a4b63feec215a740f713b1e7" target="_top" xlink:title="bf_cmp_eq">
<polygon fill="none" stroke="#000000" points="108.5,-887.5542 108.5,-906.5542 173.5,-906.5542 173.5,-887.5542 108.5,-887.5542"/>
<text text-anchor="middle" x="141" y="-894.5542" font-family="Helvetica,sans-Serif" font-size="10.00" fill="#000000">bf_cmp_eq</text>
</a>
</g>
</g>
<!-- Node6996&#45;&gt;Node6997 -->
<g id="edge1" class="edge">
<title>Node6996&#45;&gt;Node6997</title>
<path fill="none" stroke="#191970" d="M24.6641,-412.8299C29.0889,-476.8574 55.0162,-834.8981 84,-873.0542 87.9639,-878.2725 93.2774,-882.3668 99.0718,-885.5763"/>
<polygon fill="#191970" stroke="#191970" points="97.9038,-888.8928 108.4481,-889.9261 100.8497,-882.5428 97.9038,-888.8928"/>
</g>
<!-- Node6999 -->
<g id="node4" class="node">
<title>Node6999</title>
<g id="a_node4"><a xlink:href="libbf_8h.html#a165ae2c6d3fee618014b7c9ea4f944dc" target="_top" xlink:title="bf_cmpu">
<polygon fill="none" stroke="#ff0000" points="372,-849.5542 372,-868.5542 426,-868.5542 426,-849.5542 372,-849.5542"/>
<text text-anchor="middle" x="399" y="-856.5542" font-family="Helvetica,sans-Serif" font-size="10.00" fill="#000000">bf_cmpu</text>
</a>
</g>
</g>
<!-- Node6996&#45;&gt;Node6999 -->
<g id="edge5" class="edge">
<title>Node6996&#45;&gt;Node6999</title>
<path fill="none" stroke="#191970" d="M24.8279,-412.8687C29.8425,-471.3226 56.8432,-772.0708 84,-802.0542 155.0045,-880.4493 294.5324,-873.785 361.4554,-865.2048"/>
<polygon fill="#191970" stroke="#191970" points="362.1176,-868.6469 371.5511,-863.824 361.169,-861.7114 362.1176,-868.6469"/>
</g>
<!-- Node7002 -->
<g id="node6" class="node">
<title>Node7002</title>
<g id="a_node6"><a xlink:href="libbf_8h.html#a2b9d906b21e903f2f7f1c9044674ab7d" target="_top" xlink:title="bf_delete">
<polygon fill="none" stroke="#000000" points="249,-279.5542 249,-298.5542 305,-298.5542 305,-279.5542 249,-279.5542"/>
<text text-anchor="middle" x="277" y="-286.5542" font-family="Helvetica,sans-Serif" font-size="10.00" fill="#000000">bf_delete</text>
</a>
</g>
</g>
<!-- Node6996&#45;&gt;Node7002 -->
<g id="edge6" class="edge">
<title>Node6996&#45;&gt;Node7002</title>
<path fill="none" stroke="#191970" d="M31.4997,-393.5374C41.9524,-380.8962 62.0988,-358.6951 84,-346.0542 133.4091,-317.5365 198.3076,-302.2084 238.8347,-294.8464"/>
<polygon fill="#191970" stroke="#191970" points="239.5881,-298.2679 248.8379,-293.1014 238.3851,-291.372 239.5881,-298.2679"/>
</g>
<!-- Node7004 -->
<g id="node8" class="node">
<title>Node7004</title>
<g id="a_node8"><a xlink:href="libbf_8h.html#aedb4166210550b5f012ecea90f97f9b2" target="_top" xlink:title="bf_get_exp_min">
<polygon fill="none" stroke="#000000" points="234,-165.5542 234,-184.5542 320,-184.5542 320,-165.5542 234,-165.5542"/>
<text text-anchor="middle" x="277" y="-172.5542" font-family="Helvetica,sans-Serif" font-size="10.00" fill="#000000">bf_get_exp_min</text>
</a>
</g>
</g>
<!-- Node6996&#45;&gt;Node7004 -->
<g id="edge8" class="edge">
<title>Node6996&#45;&gt;Node7004</title>
<path fill="none" stroke="#191970" d="M25.3332,-393.3945C30.716,-355.8822 52.0978,-220.6363 84,-194.0542 122.3533,-162.0969 181.0239,-160.7848 223.61,-165.3394"/>
<polygon fill="#191970" stroke="#191970" points="223.4475,-168.8452 233.7956,-166.5718 224.2884,-161.8959 223.4475,-168.8452"/>
</g>
<!-- Node7007 -->
<g id="node10" class="node">
<title>Node7007</title>
<g id="a_node10"><a xlink:href="libbf_8c.html#a84f2988a2124a8168b5933335c4215c2" target="_top" xlink:title="bf_get_limb">
<polygon fill="none" stroke="#000000" points="107.5,-773.5542 107.5,-792.5542 174.5,-792.5542 174.5,-773.5542 107.5,-773.5542"/>
<text text-anchor="middle" x="141" y="-780.5542" font-family="Helvetica,sans-Serif" font-size="10.00" fill="#000000">bf_get_limb</text>
</a>
</g>
</g>
<!-- Node6996&#45;&gt;Node7007 -->
<g id="edge10" class="edge">
<title>Node6996&#45;&gt;Node7007</title>
<path fill="none" stroke="#191970" d="M24.6719,-412.6916C28.2713,-462.1783 46.5231,-687.6312 84,-745.0542 90.3205,-754.7386 100.0627,-762.5484 109.7156,-768.5104"/>
<polygon fill="#191970" stroke="#191970" points="108.0296,-771.5779 118.4546,-773.4671 111.4831,-765.4891 108.0296,-771.5779"/>
</g>
<!-- Node7010 -->
<g id="node12" class="node">
<title>Node7010</title>
<g id="a_node12"><a xlink:href="libbf_8h.html#abacc1410890af049e02ebd788364ac48" target="_top" xlink:title="bf_init">
<polygon fill="none" stroke="#000000" points="490.5,-260.5542 490.5,-279.5542 533.5,-279.5542 533.5,-260.5542 490.5,-260.5542"/>
<text text-anchor="middle" x="512" y="-267.5542" font-family="Helvetica,sans-Serif" font-size="10.00" fill="#000000">bf_init</text>
</a>
</g>
</g>
<!-- Node6996&#45;&gt;Node7010 -->
<g id="edge12" class="edge">
<title>Node6996&#45;&gt;Node7010</title>
<path fill="none" stroke="#191970" d="M24.7964,-393.2385C29.5286,-336.1025 54.7399,-48.0568 84,-23.0542 154.1389,36.8791 391.9671,-35.848 442,-80.0542 493.3109,-125.3897 507.0644,-211.7246 510.7082,-250.4281"/>
<polygon fill="#191970" stroke="#191970" points="507.2209,-250.7279 511.5181,-260.4121 514.198,-250.1618 507.2209,-250.7279"/>
</g>
<!-- Node7011 -->
<g id="node13" class="node">
<title>Node7011</title>
<g id="a_node13"><a xlink:href="libbf_8h.html#ae1d5fe9356228cc3a566786637f26680" target="_top" xlink:title="bf_mul_2exp">
<polygon fill="none" stroke="#000000" points="105,-716.5542 105,-735.5542 177,-735.5542 177,-716.5542 105,-716.5542"/>
<text text-anchor="middle" x="141" y="-723.5542" font-family="Helvetica,sans-Serif" font-size="10.00" fill="#000000">bf_mul_2exp</text>
</a>
</g>
</g>
<!-- Node6996&#45;&gt;Node7011 -->
<g id="edge13" class="edge">
<title>Node6996&#45;&gt;Node7011</title>
<path fill="none" stroke="#191970" d="M25.1386,-412.592C30.4719,-456.1428 53.9897,-636.0059 84,-683.0542 91.239,-694.4032 102.5932,-703.8613 113.2686,-710.9905"/>
<polygon fill="#191970" stroke="#191970" points="111.6346,-714.0964 121.9712,-716.4218 115.3408,-708.158 111.6346,-714.0964"/>
</g>
<!-- Node7020 -->
<g id="node16" class="node">
<title>Node7020</title>
<g id="a_node16"><a xlink:href="libbf_8c.html#af464f3c1421a7305372819f949667273" target="_top" xlink:title="bf_set_overflow">
<polygon fill="none" stroke="#ff0000" points="356,-621.5542 356,-640.5542 442,-640.5542 442,-621.5542 356,-621.5542"/>
<text text-anchor="middle" x="399" y="-628.5542" font-family="Helvetica,sans-Serif" font-size="10.00" fill="#000000">bf_set_overflow</text>
</a>
</g>
</g>
<!-- Node6996&#45;&gt;Node7020 -->
<g id="edge47" class="edge">
<title>Node6996&#45;&gt;Node7020</title>
<path fill="none" stroke="#191970" d="M25.3906,-412.7583C30.9089,-449.8108 52.5058,-581.5655 84,-607.0542 160.2367,-668.7537 283.6648,-655.9671 351.1585,-642.6493"/>
<polygon fill="#191970" stroke="#191970" points="352.0074,-646.048 361.0966,-640.6041 350.5963,-639.1917 352.0074,-646.048"/>
</g>
<!-- Node7021 -->
<g id="node17" class="node">
<title>Node7021</title>
<g id="a_node17"><a xlink:href="libbf_8h.html#a88d3dcee173f1e4fd4e55000edb04595" target="_top" xlink:title="bf_set_inf">
<polygon fill="none" stroke="#ff0000" points="482.5,-583.5542 482.5,-602.5542 541.5,-602.5542 541.5,-583.5542 482.5,-583.5542"/>
<text text-anchor="middle" x="512" y="-590.5542" font-family="Helvetica,sans-Serif" font-size="10.00" fill="#000000">bf_set_inf</text>
</a>
</g>
</g>
<!-- Node6996&#45;&gt;Node7021 -->
<g id="edge45" class="edge">
<title>Node6996&#45;&gt;Node7021</title>
<path fill="none" stroke="#191970" d="M25.9512,-412.7476C31.0567,-435.4106 47.0551,-491.9852 84,-519.0542 203.1941,-606.3861 390.68,-603.3799 472.0762,-597.1648"/>
<polygon fill="#191970" stroke="#191970" points="472.7034,-600.6251 482.3824,-596.3161 472.1289,-593.6487 472.7034,-600.6251"/>
</g>
<!-- Node7022 -->
<g id="node18" class="node">
<title>Node7022</title>
<g id="a_node18"><a xlink:href="libbf_8h.html#a66631c65c00e92a5840a5085a009602d" target="_top" xlink:title="bf_set_zero">
<polygon fill="none" stroke="#ff0000" points="478,-659.5542 478,-678.5542 546,-678.5542 546,-659.5542 478,-659.5542"/>
<text text-anchor="middle" x="512" y="-666.5542" font-family="Helvetica,sans-Serif" font-size="10.00" fill="#000000">bf_set_zero</text>
</a>
</g>
</g>
<!-- Node6996&#45;&gt;Node7022 -->
<g id="edge49" class="edge">
<title>Node6996&#45;&gt;Node7022</title>
<path fill="none" stroke="#191970" d="M24.9523,-412.6755C29.1942,-453.4343 47.7721,-611.1888 84,-642.0542 140.6632,-690.3301 369.9422,-679.6621 467.6016,-672.6788"/>
<polygon fill="#191970" stroke="#191970" points="468.0217,-676.1574 477.738,-671.9331 467.5081,-669.1763 468.0217,-676.1574"/>
</g>
<!-- Node7023 -->
<g id="node19" class="node">
<title>Node7023</title>
<g id="a_node19"><a xlink:href="libbf_8h.html#a6fbb1ec8880c203fc01baf940a54cc62" target="_top" xlink:title="bf_mul_si">
<polygon fill="none" stroke="#000000" points="111.5,-355.5542 111.5,-374.5542 170.5,-374.5542 170.5,-355.5542 111.5,-355.5542"/>
<text text-anchor="middle" x="141" y="-362.5542" font-family="Helvetica,sans-Serif" font-size="10.00" fill="#000000">bf_mul_si</text>
</a>
</g>
</g>
<!-- Node6996&#45;&gt;Node7023 -->
<g id="edge20" class="edge">
<title>Node6996&#45;&gt;Node7023</title>
<path fill="none" stroke="#191970" d="M48.2425,-395.1806C63.7167,-390.1548 84.1285,-383.5253 101.864,-377.7651"/>
<polygon fill="#191970" stroke="#191970" points="102.9635,-381.088 111.3933,-374.6701 100.8011,-374.4304 102.9635,-381.088"/>
</g>
<!-- Node7025 -->
<g id="node21" class="node">
<title>Node7025</title>
<g id="a_node21"><a xlink:href="libbf_8h.html#a5bcb10b6c7836aea03e8167384299774" target="_top" xlink:title="bf_set_ui">
<polygon fill="none" stroke="#ff0000" points="371,-507.5542 371,-526.5542 427,-526.5542 427,-507.5542 371,-507.5542"/>
<text text-anchor="middle" x="399" y="-514.5542" font-family="Helvetica,sans-Serif" font-size="10.00" fill="#000000">bf_set_ui</text>
</a>
</g>
</g>
<!-- Node6996&#45;&gt;Node7025 -->
<g id="edge48" class="edge">
<title>Node6996&#45;&gt;Node7025</title>
<path fill="none" stroke="#191970" d="M28.2043,-412.6352C36.3284,-429.9724 55.8946,-466.4725 84,-485.0542 169.5678,-541.6268 297.7674,-532.726 360.9778,-523.7446"/>
<polygon fill="#191970" stroke="#191970" points="361.5413,-527.1993 370.9118,-522.2551 360.5033,-520.2767 361.5413,-527.1993"/>
</g>
<!-- Node7029 -->
<g id="node23" class="node">
<title>Node7029</title>
<g id="a_node23"><a xlink:href="libbf_8h.html#aa6282c789c16c8cf2fe6a8ebd671c6fc" target="_top" xlink:title="bf_set_nan">
<polygon fill="none" stroke="#ff0000" points="479.5,-412.5542 479.5,-431.5542 544.5,-431.5542 544.5,-412.5542 479.5,-412.5542"/>
<text text-anchor="middle" x="512" y="-419.5542" font-family="Helvetica,sans-Serif" font-size="10.00" fill="#000000">bf_set_nan</text>
</a>
</g>
</g>
<!-- Node6996&#45;&gt;Node7029 -->
<g id="edge46" class="edge">
<title>Node6996&#45;&gt;Node7029</title>
<path fill="none" stroke="#191970" d="M26.932,-393.2785C33.5435,-373.006 51.6187,-326.3413 84,-303.0542 139.4184,-263.2 166.1388,-277.4308 234,-270.0542 325.9031,-260.0643 364.1516,-220.1985 442,-270.0542 488.1598,-299.6159 504.3019,-368.1653 509.5998,-402.1776"/>
<polygon fill="#191970" stroke="#191970" points="506.1611,-402.861 511.0084,-412.2819 513.0941,-401.8944 506.1611,-402.861"/>
</g>
<!-- Node7058 -->
<g id="node24" class="node">
<title>Node7058</title>
<g id="a_node24"><a xlink:href="libbf_8h.html#aa561bc5220ec0489f4d3e59789d43d26" target="_top" xlink:title="bf_neg">
<polygon fill="none" stroke="#000000" points="118,-241.5542 118,-260.5542 164,-260.5542 164,-241.5542 118,-241.5542"/>
<text text-anchor="middle" x="141" y="-248.5542" font-family="Helvetica,sans-Serif" font-size="10.00" fill="#000000">bf_neg</text>
</a>
</g>
</g>
<!-- Node6996&#45;&gt;Node7058 -->
<g id="edge31" class="edge">
<title>Node6996&#45;&gt;Node7058</title>
<path fill="none" stroke="#191970" d="M26.0311,-393.3058C31.3976,-369.8343 48.0768,-309.5749 84,-275.0542 90.8063,-268.5136 99.6601,-263.6349 108.3523,-260.048"/>
<polygon fill="#191970" stroke="#191970" points="109.7901,-263.249 117.9798,-256.5274 107.386,-256.6747 109.7901,-263.249"/>
</g>
<!-- Node7059 -->
<g id="node25" class="node">
<title>Node7059</title>
<g id="a_node25"><a xlink:href="libbf_8c.html#aa28c1603087e2aec25b9bb0dae387875" target="_top" xlink:title="bf_pow_generic">
<polygon fill="none" stroke="#ff0000" points="98.5,-203.5542 98.5,-222.5542 183.5,-222.5542 183.5,-203.5542 98.5,-203.5542"/>
<text text-anchor="middle" x="141" y="-210.5542" font-family="Helvetica,sans-Serif" font-size="10.00" fill="#000000">bf_pow_generic</text>
</a>
</g>
</g>
<!-- Node6996&#45;&gt;Node7059 -->
<g id="edge32" class="edge">
<title>Node6996&#45;&gt;Node7059</title>
<path fill="none" stroke="#191970" d="M24.5247,-393.3776C26.608,-364.5934 36.6917,-278.6253 84,-232.0542 85.6609,-230.4192 87.4662,-228.9248 89.3778,-227.559"/>
<polygon fill="#191970" stroke="#191970" points="91.4387,-230.4094 98.3238,-222.3566 87.9197,-224.3582 91.4387,-230.4094"/>
</g>
<!-- Node7100 -->
<g id="node26" class="node">
<title>Node7100</title>
<g id="a_node26"><a xlink:href="libbf_8c.html#afb959ebe491ad24167b5eff3b811f211" target="_top" xlink:title="bf_pow_int">
<polygon fill="none" stroke="#ff0000" points="109,-431.5542 109,-450.5542 173,-450.5542 173,-431.5542 109,-431.5542"/>
<text text-anchor="middle" x="141" y="-438.5542" font-family="Helvetica,sans-Serif" font-size="10.00" fill="#000000">bf_pow_int</text>
</a>
</g>
</g>
<!-- Node6996&#45;&gt;Node7100 -->
<g id="edge35" class="edge">
<title>Node6996&#45;&gt;Node7100</title>
<path fill="none" stroke="#191970" d="M48.2425,-410.9279C63.7167,-415.9537 84.1285,-422.5832 101.864,-428.3434"/>
<polygon fill="#191970" stroke="#191970" points="100.8011,-431.6781 111.3933,-431.4384 102.9635,-425.0205 100.8011,-431.6781"/>
</g>
<!-- Node7101 -->
<g id="node27" class="node">
<title>Node7101</title>
<g id="a_node27"><a xlink:href="libbf_8h.html#a113957d698d1dc9dae1e3d5325ba1f15" target="_top" xlink:title="bf_pow_ui">
<polygon fill="none" stroke="#ff0000" points="246.5,-469.5542 246.5,-488.5542 307.5,-488.5542 307.5,-469.5542 246.5,-469.5542"/>
<text text-anchor="middle" x="277" y="-476.5542" font-family="Helvetica,sans-Serif" font-size="10.00" fill="#000000">bf_pow_ui</text>
</a>
</g>
</g>
<!-- Node6996&#45;&gt;Node7101 -->
<g id="edge43" class="edge">
<title>Node6996&#45;&gt;Node7101</title>
<path fill="none" stroke="#191970" d="M30.8386,-412.742C40.8197,-426.0152 60.7422,-449.4174 84,-460.0542 132.8694,-482.4044 195.8225,-484.271 236.3022,-482.5079"/>
<polygon fill="#191970" stroke="#191970" points="236.5376,-486.0004 246.3383,-481.976 236.1671,-479.0102 236.5376,-486.0004"/>
</g>
<!-- Node7064 -->
<g id="node28" class="node">
<title>Node7064</title>
<g id="a_node28"><a xlink:href="libbf_8h.html#ad7826160be73aad5e1f346a024fcbb78" target="_top" xlink:title="bf_set">
<polygon fill="none" stroke="#ff0000" points="377,-89.5542 377,-108.5542 421,-108.5542 421,-89.5542 377,-89.5542"/>
<text text-anchor="middle" x="399" y="-96.5542" font-family="Helvetica,sans-Serif" font-size="10.00" fill="#000000">bf_set</text>
</a>
</g>
</g>
<!-- Node6996&#45;&gt;Node7064 -->
<g id="edge44" class="edge">
<title>Node6996&#45;&gt;Node7064</title>
<path fill="none" stroke="#191970" d="M24.5241,-393.4795C27.2166,-348.1291 41.0734,-155.5712 84,-118.0542 164.3028,-47.8713 304.6175,-73.4369 367.2457,-89.7168"/>
<polygon fill="#191970" stroke="#191970" points="366.3931,-93.1118 376.9592,-92.3313 368.2125,-86.3524 366.3931,-93.1118"/>
</g>
<!-- Node7091 -->
<g id="node29" class="node">
<title>Node7091</title>
<g id="a_node29"><a xlink:href="libbf_8c.html#a39e7dd6286a6f0541a12366ebd93dbfd" target="_top" xlink:title="bf_ziv_rounding">
<polygon fill="none" stroke="#ff0000" points="98.5,-32.5542 98.5,-51.5542 183.5,-51.5542 183.5,-32.5542 98.5,-32.5542"/>
<text text-anchor="middle" x="141" y="-39.5542" font-family="Helvetica,sans-Serif" font-size="10.00" fill="#000000">bf_ziv_rounding</text>
</a>
</g>
</g>
<!-- Node6996&#45;&gt;Node7091 -->
<g id="edge50" class="edge">
<title>Node6996&#45;&gt;Node7091</title>
<path fill="none" stroke="#191970" d="M24.4962,-393.4174C27.2193,-343.9536 41.7985,-118.861 84,-66.0542 86.9065,-62.4173 90.4636,-59.3239 94.3675,-56.6943"/>
<polygon fill="#191970" stroke="#191970" points="96.3464,-59.5971 103.35,-51.6472 92.9174,-53.4944 96.3464,-59.5971"/>
</g>
<!-- Node7102 -->
<g id="node30" class="node">
<title>Node7102</title>
<g id="a_node30"><a xlink:href="libbf_8c.html#ace5bdd7550302e2fb4b14c3a907dee7b" target="_top" xlink:title="check_exact_power2n">
<polygon fill="none" stroke="#ff0000" points="84,-127.5542 84,-146.5542 198,-146.5542 198,-127.5542 84,-127.5542"/>
<text text-anchor="middle" x="141" y="-134.5542" font-family="Helvetica,sans-Serif" font-size="10.00" fill="#000000">check_exact_power2n</text>
</a>
</g>
</g>
<!-- Node6996&#45;&gt;Node7102 -->
<g id="edge51" class="edge">
<title>Node6996&#45;&gt;Node7102</title>
<path fill="none" stroke="#191970" d="M25.2411,-393.3141C30.5828,-352.7398 52.7667,-197.5649 84,-161.0542 87.1911,-157.324 91.0603,-154.1606 95.2637,-151.4807"/>
<polygon fill="#191970" stroke="#191970" points="97.112,-154.4605 104.2509,-146.6319 93.7882,-148.2999 97.112,-154.4605"/>
</g>
<!-- Node6998 -->
<g id="node3" class="node">
<title>Node6998</title>
<g id="a_node3"><a xlink:href="libbf_8c.html#aa27d25901c756808d764fdae65daae0b" target="_top" xlink:title="bf_cmp">
<polygon fill="none" stroke="#000000" points="252.5,-887.5542 252.5,-906.5542 301.5,-906.5542 301.5,-887.5542 252.5,-887.5542"/>
<text text-anchor="middle" x="277" y="-894.5542" font-family="Helvetica,sans-Serif" font-size="10.00" fill="#000000">bf_cmp</text>
</a>
</g>
</g>
<!-- Node6997&#45;&gt;Node6998 -->
<g id="edge2" class="edge">
<title>Node6997&#45;&gt;Node6998</title>
<path fill="none" stroke="#191970" d="M173.5754,-897.0542C194.2807,-897.0542 221.0655,-897.0542 242.1891,-897.0542"/>
<polygon fill="#191970" stroke="#191970" points="242.3542,-900.5543 252.3542,-897.0542 242.3542,-893.5543 242.3542,-900.5543"/>
</g>
<!-- Node6998&#45;&gt;Node6999 -->
<g id="edge3" class="edge">
<title>Node6998&#45;&gt;Node6999</title>
<path fill="none" stroke="#191970" d="M301.6885,-889.3644C319.0016,-883.9718 342.4504,-876.6681 361.9916,-870.5814"/>
<polygon fill="#191970" stroke="#191970" points="363.2944,-873.8416 371.8011,-867.526 361.2127,-867.1583 363.2944,-873.8416"/>
</g>
<!-- Node7000 -->
<g id="node5" class="node">
<title>Node7000</title>
<g id="a_node5"><a xlink:href="libbf_8h.html#a4954f3435332238433d15977d55ae566" target="_top" xlink:title="bf_max">
<polygon fill="none" stroke="#000000" points="487.5,-782.5542 487.5,-801.5542 536.5,-801.5542 536.5,-782.5542 487.5,-782.5542"/>
<text text-anchor="middle" x="512" y="-789.5542" font-family="Helvetica,sans-Serif" font-size="10.00" fill="#000000">bf_max</text>
</a>
</g>
</g>
<!-- Node6999&#45;&gt;Node7000 -->
<g id="edge4" class="edge">
<title>Node6999&#45;&gt;Node7000</title>
<path fill="none" stroke="#191970" d="M415.1901,-849.4548C433.9863,-838.3102 465.2016,-819.802 487.0924,-806.8225"/>
<polygon fill="#191970" stroke="#191970" points="489.0233,-809.7466 495.8399,-801.6359 485.4531,-803.7255 489.0233,-809.7466"/>
</g>
<!-- Node7003 -->
<g id="node7" class="node">
<title>Node7003</title>
<g id="a_node7"><a xlink:href="libbf_8h.html#a524c9e60866c08c75061626a4b5e2f29" target="_top" xlink:title="bf_realloc">
<polygon fill="none" stroke="#000000" points="369.5,-279.5542 369.5,-298.5542 428.5,-298.5542 428.5,-279.5542 369.5,-279.5542"/>
<text text-anchor="middle" x="399" y="-286.5542" font-family="Helvetica,sans-Serif" font-size="10.00" fill="#000000">bf_realloc</text>
</a>
</g>
</g>
<!-- Node7002&#45;&gt;Node7003 -->
<g id="edge7" class="edge">
<title>Node7002&#45;&gt;Node7003</title>
<path fill="none" stroke="#191970" d="M305.2959,-289.0542C321.1514,-289.0542 341.1922,-289.0542 358.6669,-289.0542"/>
<polygon fill="#191970" stroke="#191970" points="359.1555,-292.5543 369.1554,-289.0542 359.1554,-285.5543 359.1555,-292.5543"/>
</g>
<!-- Node7005 -->
<g id="node9" class="node">
<title>Node7005</title>
<g id="a_node9"><a xlink:href="libbf_8c.html#afd88d8b29be2493c1e2ed530d61a45d1" target="_top" xlink:title="ctz">
<polygon fill="none" stroke="#ff0000" points="384,-165.5542 384,-184.5542 414,-184.5542 414,-165.5542 384,-165.5542"/>
<text text-anchor="middle" x="399" y="-172.5542" font-family="Helvetica,sans-Serif" font-size="10.00" fill="#000000">ctz</text>
</a>
</g>
</g>
<!-- Node7004&#45;&gt;Node7005 -->
<g id="edge9" class="edge">
<title>Node7004&#45;&gt;Node7005</title>
<path fill="none" stroke="#191970" d="M320.0126,-175.0542C337.8986,-175.0542 358.0505,-175.0542 373.5227,-175.0542"/>
<polygon fill="#191970" stroke="#191970" points="373.8625,-178.5543 383.8625,-175.0542 373.8624,-171.5543 373.8625,-178.5543"/>
</g>
<!-- Node7008 -->
<g id="node11" class="node">
<title>Node7008</title>
<g id="a_node11"><a xlink:href="libbf_8h.html#af13de179dd890536edc12e703add2c64" target="_top" xlink:title="bf_get_int64">
<polygon fill="none" stroke="#ff0000" points="242,-811.5542 242,-830.5542 312,-830.5542 312,-811.5542 242,-811.5542"/>
<text text-anchor="middle" x="277" y="-818.5542" font-family="Helvetica,sans-Serif" font-size="10.00" fill="#000000">bf_get_int64</text>
</a>
</g>
</g>
<!-- Node7007&#45;&gt;Node7008 -->
<g id="edge11" class="edge">
<title>Node7007&#45;&gt;Node7008</title>
<path fill="none" stroke="#191970" d="M174.618,-792.4475C192.3015,-797.3885 214.1948,-803.5057 233.1917,-808.8137"/>
<polygon fill="#191970" stroke="#191970" points="232.2511,-812.1849 242.8241,-811.5051 234.1349,-805.4431 232.2511,-812.1849"/>
</g>
<!-- Node7011&#45;&gt;Node7000 -->
<g id="edge14" class="edge">
<title>Node7011&#45;&gt;Node7000</title>
<path fill="none" stroke="#191970" d="M177.2061,-732.7275C194.4082,-735.8841 215.2601,-739.6899 234,-743.0542 321.5477,-758.7713 424.6913,-776.8318 477.3121,-786.0128"/>
<polygon fill="#191970" stroke="#191970" points="476.9941,-789.5101 487.4467,-787.7803 478.1968,-782.6142 476.9941,-789.5101"/>
</g>
<!-- Node7012 -->
<g id="node14" class="node">
<title>Node7012</title>
<g id="a_node14"><a xlink:href="libbf_8h.html#a970a1725f8bc59eda655058c5ff6bc52" target="_top" xlink:title="bf_min">
<polygon fill="none" stroke="#000000" points="489,-725.5542 489,-744.5542 535,-744.5542 535,-725.5542 489,-725.5542"/>
<text text-anchor="middle" x="512" y="-732.5542" font-family="Helvetica,sans-Serif" font-size="10.00" fill="#000000">bf_min</text>
</a>
</g>
</g>
<!-- Node7011&#45;&gt;Node7012 -->
<g id="edge15" class="edge">
<title>Node7011&#45;&gt;Node7012</title>
<path fill="none" stroke="#191970" d="M177.2485,-726.9336C249.0732,-728.676 408.5339,-732.5443 478.2618,-734.2358"/>
<polygon fill="#191970" stroke="#191970" points="478.5731,-737.7443 488.655,-734.4879 478.7429,-730.7463 478.5731,-737.7443"/>
</g>
<!-- Node7013 -->
<g id="node15" class="node">
<title>Node7013</title>
<g id="a_node15"><a xlink:href="libbf_8c.html#a06fc3e6aa8ac367eef1039c9d97fc1f8" target="_top" xlink:title="__bf_round">
<polygon fill="none" stroke="#ff0000" points="244.5,-697.5542 244.5,-716.5542 309.5,-716.5542 309.5,-697.5542 244.5,-697.5542"/>
<text text-anchor="middle" x="277" y="-704.5542" font-family="Helvetica,sans-Serif" font-size="10.00" fill="#000000">__bf_round</text>
</a>
</g>
</g>
<!-- Node7011&#45;&gt;Node7013 -->
<g id="edge16" class="edge">
<title>Node7011&#45;&gt;Node7013</title>
<path fill="none" stroke="#191970" d="M177.0884,-721.0125C194.6683,-718.5565 215.9282,-715.5863 234.3099,-713.0183"/>
<polygon fill="#191970" stroke="#191970" points="235.047,-716.4494 244.4665,-711.5994 234.0784,-709.5167 235.047,-716.4494"/>
</g>
<!-- Node7013&#45;&gt;Node7020 -->
<g id="edge17" class="edge">
<title>Node7013&#45;&gt;Node7020</title>
<path fill="none" stroke="#191970" d="M292.4514,-697.4288C313.2602,-684.4659 350.4987,-661.2681 374.9778,-646.0189"/>
<polygon fill="#191970" stroke="#191970" points="377.0369,-648.8598 383.6741,-640.6015 373.3356,-642.9183 377.0369,-648.8598"/>
</g>
<!-- Node7013&#45;&gt;Node7022 -->
<g id="edge19" class="edge">
<title>Node7013&#45;&gt;Node7022</title>
<path fill="none" stroke="#191970" d="M309.6401,-702.8255C342.9847,-698.3838 396.2166,-690.9566 442,-683.0542 450.4269,-681.5997 459.3964,-679.9122 468.004,-678.223"/>
<polygon fill="#191970" stroke="#191970" points="468.7649,-681.6403 477.8879,-676.2531 467.3967,-674.7753 468.7649,-681.6403"/>
</g>
<!-- Node7020&#45;&gt;Node7021 -->
<g id="edge18" class="edge">
<title>Node7020&#45;&gt;Node7021</title>
<path fill="none" stroke="#191970" d="M427.5147,-621.4652C441.5666,-616.7398 458.7082,-610.9754 473.8696,-605.8768"/>
<polygon fill="#191970" stroke="#191970" points="475.1317,-609.1451 483.4945,-602.6402 472.9004,-602.5102 475.1317,-609.1451"/>
</g>
<!-- Node7023&#45;&gt;Node7002 -->
<g id="edge30" class="edge">
<title>Node7023&#45;&gt;Node7002</title>
<path fill="none" stroke="#191970" d="M167.8042,-355.4568C177.5808,-351.523 188.5493,-346.5888 198,-341.0542 215.4911,-330.811 217.1015,-324.2482 234,-313.0542 238.811,-309.8673 244.0745,-306.6925 249.2173,-303.7448"/>
<polygon fill="#191970" stroke="#191970" points="251.1866,-306.6543 258.2202,-298.7311 247.7807,-300.5387 251.1866,-306.6543"/>
</g>
<!-- Node7023&#45;&gt;Node7010 -->
<g id="edge21" class="edge">
<title>Node7023&#45;&gt;Node7010</title>
<path fill="none" stroke="#191970" d="M170.8533,-362.4898C225.8525,-357.0961 346.307,-342.1466 442,-308.0542 458.3517,-302.2286 475.4985,-292.9792 488.729,-285.0645"/>
<polygon fill="#191970" stroke="#191970" points="490.9197,-287.8261 497.6032,-279.6053 487.2519,-281.8639 490.9197,-287.8261"/>
</g>
<!-- Node7024 -->
<g id="node20" class="node">
<title>Node7024</title>
<g id="a_node20"><a xlink:href="libbf_8h.html#a6ffae8e39e8ba06fd097c4adc301ba6e" target="_top" xlink:title="bf_set_si">
<polygon fill="none" stroke="#000000" points="249,-393.5542 249,-412.5542 305,-412.5542 305,-393.5542 249,-393.5542"/>
<text text-anchor="middle" x="277" y="-400.5542" font-family="Helvetica,sans-Serif" font-size="10.00" fill="#000000">bf_set_si</text>
</a>
</g>
</g>
<!-- Node7023&#45;&gt;Node7024 -->
<g id="edge22" class="edge">
<title>Node7023&#45;&gt;Node7024</title>
<path fill="none" stroke="#191970" d="M170.51,-373.2997C190.6076,-378.9152 217.3936,-386.3995 239.0729,-392.4569"/>
<polygon fill="#191970" stroke="#191970" points="238.3688,-395.8942 248.9418,-395.2145 240.2526,-389.1524 238.3688,-395.8942"/>
</g>
<!-- Node7028 -->
<g id="node22" class="node">
<title>Node7028</title>
<g id="a_node22"><a xlink:href="libbf_8h.html#ac290278d0c37a0e7786873f98aadba47" target="_top" xlink:title="bf_mul">
<polygon fill="none" stroke="#ff0000" points="376,-469.5542 376,-488.5542 422,-488.5542 422,-469.5542 376,-469.5542"/>
<text text-anchor="middle" x="399" y="-476.5542" font-family="Helvetica,sans-Serif" font-size="10.00" fill="#000000">bf_mul</text>
</a>
</g>
</g>
<!-- Node7023&#45;&gt;Node7028 -->
<g id="edge24" class="edge">
<title>Node7023&#45;&gt;Node7028</title>
<path fill="none" stroke="#191970" d="M170.5381,-361.6808C207.7211,-358.833 272.4714,-358.6162 320,-384.0542 352.4544,-401.4244 376.8967,-438.1949 389.4851,-460.5512"/>
<polygon fill="#191970" stroke="#191970" points="386.4461,-462.2893 394.2825,-469.4196 392.603,-458.9587 386.4461,-462.2893"/>
</g>
<!-- Node7024&#45;&gt;Node7025 -->
<g id="edge23" class="edge">
<title>Node7024&#45;&gt;Node7025</title>
<path fill="none" stroke="#191970" d="M284.2292,-412.8479C300.2919,-434.417 338.8792,-485.1311 356,-498.0542 358.1843,-499.703 360.5341,-501.2458 362.9685,-502.6821"/>
<polygon fill="#191970" stroke="#191970" points="361.5283,-505.8787 372.011,-507.4164 364.7752,-499.6772 361.5283,-505.8787"/>
</g>
<!-- Node7028&#45;&gt;Node7010 -->
<g id="edge29" class="edge">
<title>Node7028&#45;&gt;Node7010</title>
<path fill="none" stroke="#191970" d="M422.1126,-469.9311C429.2524,-466.1979 436.6394,-461.2691 442,-455.0542 484.9063,-405.31 502.776,-326.6071 509.0681,-290.0011"/>
<polygon fill="#191970" stroke="#191970" points="512.5947,-290.1131 510.7212,-279.6853 505.6829,-289.0054 512.5947,-290.1131"/>
</g>
<!-- Node7028&#45;&gt;Node7012 -->
<g id="edge28" class="edge">
<title>Node7028&#45;&gt;Node7012</title>
<path fill="none" stroke="#191970" d="M422.2372,-484.6743C429.5599,-487.5373 437.0269,-491.7899 442,-498.0542 495.4387,-565.3682 443.9965,-609.1199 478,-688.0542 482.554,-698.6258 489.8191,-709.1264 496.4665,-717.5121"/>
<polygon fill="#191970" stroke="#191970" points="493.9436,-719.9522 503.0308,-725.3996 499.3241,-715.4743 493.9436,-719.9522"/>
</g>
<!-- Node7028&#45;&gt;Node7021 -->
<g id="edge26" class="edge">
<title>Node7028&#45;&gt;Node7021</title>
<path fill="none" stroke="#191970" d="M422.1191,-486.6728C428.9413,-489.5817 436.1423,-493.3567 442,-498.0542 468.7669,-519.5194 490.4706,-553.5579 502.2801,-574.5318"/>
<polygon fill="#191970" stroke="#191970" points="499.2639,-576.3113 507.1272,-583.412 505.4082,-572.9575 499.2639,-576.3113"/>
</g>
<!-- Node7028&#45;&gt;Node7022 -->
<g id="edge27" class="edge">
<title>Node7028&#45;&gt;Node7022</title>
<path fill="none" stroke="#191970" d="M422.2694,-485.2024C429.4197,-488.0862 436.7732,-492.2173 442,-498.0542 477.4448,-537.6367 456.2444,-563.5794 478,-612.0542 484.0575,-625.5512 492.5909,-639.8471 499.5932,-650.7457"/>
<polygon fill="#191970" stroke="#191970" points="496.8305,-652.9144 505.2519,-659.3433 502.6777,-649.0659 496.8305,-652.9144"/>
</g>
<!-- Node7028&#45;&gt;Node7029 -->
<g id="edge25" class="edge">
<title>Node7028&#45;&gt;Node7029</title>
<path fill="none" stroke="#191970" d="M417.9137,-469.5137C435.921,-460.4304 463.2506,-446.6446 483.8228,-436.2675"/>
<polygon fill="#191970" stroke="#191970" points="485.6725,-439.2546 493.0246,-431.6259 482.5199,-433.0047 485.6725,-439.2546"/>
</g>
<!-- Node7059&#45;&gt;Node7002 -->
<g id="edge33" class="edge">
<title>Node7059&#45;&gt;Node7002</title>
<path fill="none" stroke="#191970" d="M175.1467,-222.5607C182.8463,-225.2145 190.8513,-228.3924 198,-232.0542 220.0993,-243.3742 242.8333,-260.457 258.2059,-272.9699"/>
<polygon fill="#191970" stroke="#191970" points="256.0074,-275.6936 265.9381,-279.3857 260.4773,-270.3065 256.0074,-275.6936"/>
</g>
<!-- Node7059&#45;&gt;Node7010 -->
<g id="edge34" class="edge">
<title>Node7059&#45;&gt;Node7010</title>
<path fill="none" stroke="#191970" d="M183.6841,-211.6841C242.7669,-210.8561 352.3314,-213.1958 442,-237.0542 457.6718,-241.2241 474.1269,-248.798 487.1426,-255.639"/>
<polygon fill="#191970" stroke="#191970" points="485.4949,-258.727 495.9518,-260.4316 488.8403,-252.5781 485.4949,-258.727"/>
</g>
<!-- Node7100&#45;&gt;Node7002 -->
<g id="edge36" class="edge">
<title>Node7100&#45;&gt;Node7002</title>
<path fill="none" stroke="#191970" d="M151.376,-431.2365C163.0244,-420.0886 182.3431,-401.2169 198,-384.0542 221.8198,-357.9436 247.7031,-326.0905 263.1265,-306.7029"/>
<polygon fill="#191970" stroke="#191970" points="265.9693,-308.7507 269.4319,-298.7377 260.4808,-304.4059 265.9693,-308.7507"/>
</g>
<!-- Node7100&#45;&gt;Node7010 -->
<g id="edge37" class="edge">
<title>Node7100&#45;&gt;Node7010</title>
<path fill="none" stroke="#191970" d="M173.205,-442.5695C209.9679,-443.1943 271.3051,-440.8294 320,-422.0542 396.7949,-392.4446 467.2417,-320.6928 497.0243,-287.4698"/>
<polygon fill="#191970" stroke="#191970" points="499.7089,-289.7173 503.6991,-279.9025 494.4593,-285.0868 499.7089,-289.7173"/>
</g>
<!-- Node7100&#45;&gt;Node7025 -->
<g id="edge42" class="edge">
<title>Node7100&#45;&gt;Node7025</title>
<path fill="none" stroke="#191970" d="M152.7653,-450.6423C169.6207,-463.7972 202.1353,-487.0596 234,-498.0542 275.7476,-512.4588 326.6001,-516.4284 360.7207,-517.293"/>
<polygon fill="#191970" stroke="#191970" points="360.6839,-520.7928 370.7441,-517.4698 360.8074,-513.7939 360.6839,-520.7928"/>
</g>
<!-- Node7100&#45;&gt;Node7101 -->
<g id="edge38" class="edge">
<title>Node7100&#45;&gt;Node7101</title>
<path fill="none" stroke="#191970" d="M173.2301,-450.0597C192.1794,-455.3544 216.3094,-462.0966 236.5312,-467.7468"/>
<polygon fill="#191970" stroke="#191970" points="235.8291,-471.1846 246.4021,-470.5048 237.7129,-464.4428 235.8291,-471.1846"/>
</g>
<!-- Node7101&#45;&gt;Node7025 -->
<g id="edge39" class="edge">
<title>Node7101&#45;&gt;Node7025</title>
<path fill="none" stroke="#191970" d="M307.7858,-488.6432C323.9539,-493.6792 343.9107,-499.8953 361.0308,-505.2278"/>
<polygon fill="#191970" stroke="#191970" points="360.1444,-508.6175 370.7329,-508.2497 362.2262,-501.9342 360.1444,-508.6175"/>
</g>
<!-- Node7101&#45;&gt;Node7028 -->
<g id="edge41" class="edge">
<title>Node7101&#45;&gt;Node7028</title>
<path fill="none" stroke="#191970" d="M307.7858,-479.0542C325.4881,-479.0542 347.7323,-479.0542 365.8221,-479.0542"/>
<polygon fill="#191970" stroke="#191970" points="365.9273,-482.5543 375.9273,-479.0542 365.9272,-475.5543 365.9273,-482.5543"/>
</g>
<!-- Node7101&#45;&gt;Node7064 -->
<g id="edge40" class="edge">
<title>Node7101&#45;&gt;Node7064</title>
<path fill="none" stroke="#191970" d="M286.6713,-469.5445C296.792,-458.9592 312.2633,-440.8538 320,-422.0542 365.4019,-311.7312 310.5981,-266.3772 356,-156.0542 362.1047,-141.2202 373.0252,-126.8184 382.3328,-116.2022"/>
<polygon fill="#191970" stroke="#191970" points="385.1555,-118.3023 389.3287,-108.5639 379.9935,-113.5743 385.1555,-118.3023"/>
</g>
<!-- Node7102&#45;&gt;Node7004 -->
<g id="edge52" class="edge">
<title>Node7102&#45;&gt;Node7004</title>
<path fill="none" stroke="#191970" d="M175.3185,-146.6432C192.7943,-151.5262 214.2407,-157.5186 232.9251,-162.7392"/>
<polygon fill="#191970" stroke="#191970" points="232.1194,-166.1481 242.6924,-165.4683 234.0032,-159.4063 232.1194,-166.1481"/>
</g>
<!-- Node7102&#45;&gt;Node7010 -->
<g id="edge53" class="edge">
<title>Node7102&#45;&gt;Node7010</title>
<path fill="none" stroke="#191970" d="M198.2782,-134.5314C273.9652,-132.2282 402.348,-132.2004 442,-156.0542 477.5076,-177.4149 497.5228,-224.3747 506.3931,-250.8756"/>
<polygon fill="#191970" stroke="#191970" points="503.0952,-252.0559 509.4362,-260.5438 509.7723,-249.9543 503.0952,-252.0559"/>
</g>
<!-- Node7102&#45;&gt;Node7064 -->
<g id="edge54" class="edge">
<title>Node7102&#45;&gt;Node7064</title>
<path fill="none" stroke="#191970" d="M198.0455,-128.4209C209.9264,-126.6357 222.3707,-124.7753 234,-123.0542 280.1225,-116.2283 333.5237,-108.4912 366.7864,-103.6915"/>
<polygon fill="#191970" stroke="#191970" points="367.4455,-107.1328 376.8436,-102.2413 366.4464,-100.2044 367.4455,-107.1328"/>
</g>
</g>
</svg>
