<?xml version="1.0" encoding="UTF-8" standalone="no"?>
<!DOCTYPE svg PUBLIC "-//W3C//DTD SVG 1.1//EN"
 "http://www.w3.org/Graphics/SVG/1.1/DTD/svg11.dtd">
<!-- Generated by graphviz version 2.40.1 (20161225.0304)
 -->
<!-- Title: bf_free Pages: 1 -->
<!--zoomable 664 -->
<svg id="main" version="1.1" xmlns="http://www.w3.org/2000/svg" xmlns:xlink="http://www.w3.org/1999/xlink" xml:space="preserve" onload="init(evt)">
<style type="text/css"><![CDATA[
.edge:hover path { stroke: red; }
.edge:hover polygon { stroke: red; fill: red; }
]]></style>
<script type="text/javascript"><![CDATA[
var edges = document.getElementsByTagName('g');
if (edges && edges.length) {
  for (var i=0;i<edges.length;i++) {
    if (edges[i].id.substr(0,4)=='edge') {
      edges[i].setAttribute('class','edge');
    }
  }
}
]]></script>
        <defs>
                <circle id="rim" cx="0" cy="0" r="7"/>
                <circle id="rim2" cx="0" cy="0" r="3.5"/>
                <g id="zoomPlus">
                        <use xlink:href="#rim" fill="#404040">
                                <set attributeName="fill" to="#808080" begin="zoomplus.mouseover" end="zoomplus.mouseout"/>
                        </use>
                        <path d="M-4,0h8M0,-4v8" fill="none" stroke="white" stroke-width="1.5" pointer-events="none"/>
                </g>
                <g id="zoomMin">
                        <use xlink:href="#rim" fill="#404040">
                                <set attributeName="fill" to="#808080" begin="zoomminus.mouseover" end="zoomminus.mouseout"/>
                        </use>
                        <path d="M-4,0h8" fill="none" stroke="white" stroke-width="1.5" pointer-events="none"/>
                </g>
                <g id="dirArrow">
                        <path fill="none" stroke="white" stroke-width="1.5" d="M0,-3.0v7 M-2.5,-0.5L0,-3.0L2.5,-0.5"/>
                </g>
               <g id="resetDef">
                       <use xlink:href="#rim2" fill="#404040">
                               <set attributeName="fill" to="#808080" begin="reset.mouseover" end="reset.mouseout"/>
                       </use>
               </g>
        </defs>

<script type="text/javascript">
var viewWidth = 951;
var viewHeight = 664;
var sectionId = 'dynsection-15';
</script>
<script xlink:href="svgpan.js"/>
<svg id="graph" class="graph">
<g id="viewport">
<title>bf_free</title>
<!-- Node266 -->
<g id="node1" class="node">
<title>Node266</title>
<polygon fill="#bfbfbf" stroke="#000000" points="0,-472.6345 0,-491.6345 47,-491.6345 47,-472.6345 0,-472.6345"/>
<text text-anchor="middle" x="23.5" y="-479.6345" font-family="Helvetica,sans-Serif" font-size="10.00" fill="#000000">bf_free</text>
</g>
<!-- Node267 -->
<g id="node2" class="node">
<title>Node267</title>
<g id="a_node2"><a xlink:href="libbf_8c.html#ad7a540de8355f07757e52b48d35dd708" target="_top" xlink:title="__bf_div">
<polygon fill="none" stroke="#000000" points="464.5,-491.6345 464.5,-510.6345 517.5,-510.6345 517.5,-491.6345 464.5,-491.6345"/>
<text text-anchor="middle" x="491" y="-498.6345" font-family="Helvetica,sans-Serif" font-size="10.00" fill="#000000">__bf_div</text>
</a>
</g>
</g>
<!-- Node266&#45;&gt;Node267 -->
<g id="edge1" class="edge">
<title>Node266&#45;&gt;Node267</title>
<path fill="none" stroke="#191970" d="M57.4123,-485.2766C65.7716,-485.9705 74.7053,-486.644 83,-487.1345 226.6254,-495.6282 399.0201,-499.4546 464.2462,-500.675"/>
<polygon fill="#191970" stroke="#191970" points="57.4859,-481.7701 47.2224,-484.3991 56.8852,-488.7443 57.4859,-481.7701"/>
</g>
<!-- Node304 -->
<g id="node18" class="node">
<title>Node304</title>
<g id="a_node18"><a xlink:href="libbf_8c.html#a0bf05f50640dc8837693199c565dcc47" target="_top" xlink:title="bf_integer_from_radix">
<polygon fill="none" stroke="#000000" points="562,-636.6345 562,-655.6345 672,-655.6345 672,-636.6345 562,-636.6345"/>
<text text-anchor="middle" x="617" y="-643.6345" font-family="Helvetica,sans-Serif" font-size="10.00" fill="#000000">bf_integer_from_radix</text>
</a>
</g>
</g>
<!-- Node266&#45;&gt;Node304 -->
<g id="edge20" class="edge">
<title>Node266&#45;&gt;Node304</title>
<path fill="none" stroke="#191970" d="M28.8563,-501.3278C36.7019,-525.9302 53.6668,-568.2516 83,-592.1345 146.5147,-643.848 177.5952,-645.1345 259.5,-645.1345 259.5,-645.1345 259.5,-645.1345 378.5,-645.1345 441.231,-645.1345 513.2423,-645.4848 561.5799,-645.7707"/>
<polygon fill="#191970" stroke="#191970" points="32.1895,-500.2581 25.9618,-491.6868 25.4852,-502.2709 32.1895,-500.2581"/>
</g>
<!-- Node305 -->
<g id="node19" class="node">
<title>Node305</title>
<g id="a_node19"><a xlink:href="libbf_8c.html#a64e5cf2e3c2868e064ccfd82cc89c1bd" target="_top" xlink:title="bf_integer_to_radix">
<polygon fill="none" stroke="#000000" points="83,-563.6345 83,-582.6345 182,-582.6345 182,-563.6345 83,-563.6345"/>
<text text-anchor="middle" x="132.5" y="-570.6345" font-family="Helvetica,sans-Serif" font-size="10.00" fill="#000000">bf_integer_to_radix</text>
</a>
</g>
</g>
<!-- Node266&#45;&gt;Node305 -->
<g id="edge22" class="edge">
<title>Node266&#45;&gt;Node305</title>
<path fill="none" stroke="#191970" d="M43.1087,-498.5052C65.7862,-517.4377 102.3703,-547.9804 120.919,-563.466"/>
<polygon fill="#191970" stroke="#191970" points="45.0845,-495.5952 35.1649,-491.8731 40.5983,-500.9687 45.0845,-495.5952"/>
</g>
<!-- Node307 -->
<g id="node21" class="node">
<title>Node307</title>
<g id="a_node21"><a xlink:href="libbf_8h.html#ad7ab5aff92f4e7e10b2a30e0e6b9226d" target="_top" xlink:title="bf_move">
<polygon fill="none" stroke="#000000" points="232.5,-453.6345 232.5,-472.6345 286.5,-472.6345 286.5,-453.6345 232.5,-453.6345"/>
<text text-anchor="middle" x="259.5" y="-460.6345" font-family="Helvetica,sans-Serif" font-size="10.00" fill="#000000">bf_move</text>
</a>
</g>
</g>
<!-- Node266&#45;&gt;Node307 -->
<g id="edge25" class="edge">
<title>Node266&#45;&gt;Node307</title>
<path fill="none" stroke="#191970" d="M57.4531,-479.401C104.6037,-475.605 188.9792,-468.8121 232.2577,-465.3278"/>
<polygon fill="#191970" stroke="#191970" points="57.1145,-475.9169 47.4277,-480.2082 57.6763,-482.8943 57.1145,-475.9169"/>
</g>
<!-- Node334 -->
<g id="node26" class="node">
<title>Node334</title>
<g id="a_node26"><a xlink:href="libbf_8c.html#a3297974836c2935c213c6ffb9a945d51" target="_top" xlink:title="fft_clear_cache">
<polygon fill="none" stroke="#000000" points="218,-318.6345 218,-337.6345 301,-337.6345 301,-318.6345 218,-318.6345"/>
<text text-anchor="middle" x="259.5" y="-325.6345" font-family="Helvetica,sans-Serif" font-size="10.00" fill="#000000">fft_clear_cache</text>
</a>
</g>
</g>
<!-- Node266&#45;&gt;Node334 -->
<g id="edge43" class="edge">
<title>Node266&#45;&gt;Node334</title>
<path fill="none" stroke="#191970" d="M29.1895,-462.8349C37.2451,-438.9017 54.2835,-398.533 83,-376.1345 122.1865,-345.5696 179.4233,-334.4364 217.9963,-330.3994"/>
<polygon fill="#191970" stroke="#191970" points="25.795,-461.9609 26.1107,-472.551 32.468,-464.0755 25.795,-461.9609"/>
</g>
<!-- Node337 -->
<g id="node28" class="node">
<title>Node337</title>
<g id="a_node28"><a xlink:href="libbf_8c.html#a2606c1668b90ca572fe599c352d3ed83" target="_top" xlink:title="ntt_free">
<polygon fill="none" stroke="#000000" points="107.5,-385.6345 107.5,-404.6345 157.5,-404.6345 157.5,-385.6345 107.5,-385.6345"/>
<text text-anchor="middle" x="132.5" y="-392.6345" font-family="Helvetica,sans-Serif" font-size="10.00" fill="#000000">ntt_free</text>
</a>
</g>
</g>
<!-- Node266&#45;&gt;Node337 -->
<g id="edge45" class="edge">
<title>Node266&#45;&gt;Node337</title>
<path fill="none" stroke="#191970" d="M43.4809,-466.1865C65.9593,-448.245 101.7526,-419.6761 120.3645,-404.8207"/>
<polygon fill="#191970" stroke="#191970" points="41.2137,-463.5179 35.5814,-472.4916 45.5805,-468.9889 41.2137,-463.5179"/>
</g>
<!-- Node268 -->
<g id="node3" class="node">
<title>Node268</title>
<g id="a_node3"><a xlink:href="libbf_8h.html#a030665e68e114717678fb0d0453bb3c6" target="_top" xlink:title="bf_div">
<polygon fill="none" stroke="#000000" points="595.5,-410.6345 595.5,-429.6345 638.5,-429.6345 638.5,-410.6345 595.5,-410.6345"/>
<text text-anchor="middle" x="617" y="-417.6345" font-family="Helvetica,sans-Serif" font-size="10.00" fill="#000000">bf_div</text>
</a>
</g>
</g>
<!-- Node267&#45;&gt;Node268 -->
<g id="edge2" class="edge">
<title>Node267&#45;&gt;Node268</title>
<path fill="none" stroke="#191970" d="M514.6837,-485.9093C540.3387,-469.4168 580.4845,-443.6088 602.0708,-429.7319"/>
<polygon fill="#191970" stroke="#191970" points="512.4678,-483.173 505.9486,-491.5247 516.2531,-489.0612 512.4678,-483.173"/>
</g>
<!-- Node269 -->
<g id="node4" class="node">
<title>Node269</title>
<g id="a_node4"><a xlink:href="libbf_8c.html#a4f1865c8160fb851cce8015c3edb4d4f" target="_top" xlink:title="bf_tdivremu">
<polygon fill="none" stroke="#ff0000" points="731,-524.6345 731,-543.6345 799,-543.6345 799,-524.6345 731,-524.6345"/>
<text text-anchor="middle" x="765" y="-531.6345" font-family="Helvetica,sans-Serif" font-size="10.00" fill="#000000">bf_tdivremu</text>
</a>
</g>
</g>
<!-- Node268&#45;&gt;Node269 -->
<g id="edge3" class="edge">
<title>Node268&#45;&gt;Node269</title>
<path fill="none" stroke="#191970" d="M647.9658,-429.2798C656.4829,-432.8906 665.2291,-437.7441 672,-444.1345 697.7301,-468.4186 681.2069,-492.0286 708,-515.1345 714.4775,-520.7207 722.6536,-524.6776 730.7755,-527.4758"/>
<polygon fill="#191970" stroke="#191970" points="649.1558,-425.9879 638.5644,-425.7153 646.6741,-432.5333 649.1558,-425.9879"/>
</g>
<!-- Node281 -->
<g id="node5" class="node">
<title>Node281</title>
<g id="a_node5"><a xlink:href="libbf_8h.html#a0b4d56fc6808de8feed2a234525df692" target="_top" xlink:title="bf_mul_pow_radix">
<polygon fill="none" stroke="#000000" points="717.5,-562.6345 717.5,-581.6345 812.5,-581.6345 812.5,-562.6345 717.5,-562.6345"/>
<text text-anchor="middle" x="765" y="-569.6345" font-family="Helvetica,sans-Serif" font-size="10.00" fill="#000000">bf_mul_pow_radix</text>
</a>
</g>
</g>
<!-- Node268&#45;&gt;Node281 -->
<g id="edge5" class="edge">
<title>Node268&#45;&gt;Node281</title>
<path fill="none" stroke="#191970" d="M625.0989,-439.0887C638.3208,-467.8396 667.2193,-522.3736 708,-553.1345 713.0799,-556.9663 718.9752,-560.0508 725.009,-562.5265"/>
<polygon fill="#191970" stroke="#191970" points="628.2083,-437.4671 620.944,-429.7546 621.8132,-440.3138 628.2083,-437.4671"/>
</g>
<!-- Node285 -->
<g id="node8" class="node">
<title>Node285</title>
<g id="a_node8"><a xlink:href="libbf_8c.html#ad00b7ad7fdff6f2750b91c0fdb530152" target="_top" xlink:title="bf_convert_to_radix">
<polygon fill="none" stroke="#000000" points="714,-258.6345 714,-277.6345 816,-277.6345 816,-258.6345 714,-258.6345"/>
<text text-anchor="middle" x="765" y="-265.6345" font-family="Helvetica,sans-Serif" font-size="10.00" fill="#000000">bf_convert_to_radix</text>
</a>
</g>
</g>
<!-- Node268&#45;&gt;Node285 -->
<g id="edge8" class="edge">
<title>Node268&#45;&gt;Node285</title>
<path fill="none" stroke="#191970" d="M625.0989,-401.1804C638.3208,-372.4295 667.2193,-317.8955 708,-287.1345 713.0799,-283.3028 718.9752,-280.2183 725.009,-277.7426"/>
<polygon fill="#191970" stroke="#191970" points="621.8132,-399.9553 620.944,-410.5145 628.2083,-402.802 621.8132,-399.9553"/>
</g>
<!-- Node286 -->
<g id="node9" class="node">
<title>Node286</title>
<g id="a_node9"><a xlink:href="libbf_8c.html#ae2d577a0090338aba89d1bfa786d6a7a" target="_top" xlink:title="bf_const_log2_internal">
<polygon fill="none" stroke="#ff0000" points="708,-486.6345 708,-505.6345 822,-505.6345 822,-486.6345 708,-486.6345"/>
<text text-anchor="middle" x="765" y="-493.6345" font-family="Helvetica,sans-Serif" font-size="10.00" fill="#000000">bf_const_log2_internal</text>
</a>
</g>
</g>
<!-- Node268&#45;&gt;Node286 -->
<g id="edge9" class="edge">
<title>Node268&#45;&gt;Node286</title>
<path fill="none" stroke="#191970" d="M647.9648,-432.0371C655.9917,-435.5532 664.487,-439.6692 672,-444.1345 689.4245,-454.4907 690.5089,-461.8913 708,-472.1345 717.4507,-477.6691 728.4192,-482.6034 738.1958,-486.5371"/>
<polygon fill="#191970" stroke="#191970" points="649.0786,-428.7087 638.5035,-428.0625 646.3675,-435.1624 649.0786,-428.7087"/>
</g>
<!-- Node294 -->
<g id="node10" class="node">
<title>Node294</title>
<g id="a_node10"><a xlink:href="libbf_8c.html#a11d2dea6becda91c288fd883eefc8e5c" target="_top" xlink:title="bf_const_pi_internal">
<polygon fill="none" stroke="#ff0000" points="713,-182.6345 713,-201.6345 817,-201.6345 817,-182.6345 713,-182.6345"/>
<text text-anchor="middle" x="765" y="-189.6345" font-family="Helvetica,sans-Serif" font-size="10.00" fill="#000000">bf_const_pi_internal</text>
</a>
</g>
</g>
<!-- Node268&#45;&gt;Node294 -->
<g id="edge10" class="edge">
<title>Node268&#45;&gt;Node294</title>
<path fill="none" stroke="#191970" d="M620.113,-400.2978C627.6104,-359.1013 650.4934,-263.7432 708,-211.1345 712.233,-207.2621 717.2782,-204.1765 722.5911,-201.7186"/>
<polygon fill="#191970" stroke="#191970" points="616.6573,-399.742 618.4239,-410.1885 623.5574,-400.9204 616.6573,-399.742"/>
</g>
<!-- Node288 -->
<g id="node11" class="node">
<title>Node288</title>
<g id="a_node11"><a xlink:href="libbf_8c.html#a157194b3c7faaa17e39ae78cd98c4385" target="_top" xlink:title="bf_exp_internal">
<polygon fill="none" stroke="#ff0000" points="723.5,-107.6345 723.5,-126.6345 806.5,-126.6345 806.5,-107.6345 723.5,-107.6345"/>
<text text-anchor="middle" x="765" y="-114.6345" font-family="Helvetica,sans-Serif" font-size="10.00" fill="#000000">bf_exp_internal</text>
</a>
</g>
</g>
<!-- Node268&#45;&gt;Node288 -->
<g id="edge11" class="edge">
<title>Node268&#45;&gt;Node288</title>
<path fill="none" stroke="#191970" d="M621.0932,-400.6222C630.8622,-357.0729 658.4934,-249.76 708,-173.1345 720.0453,-154.491 739.2996,-137.2769 752.0465,-126.9881"/>
<polygon fill="#191970" stroke="#191970" points="617.6539,-399.9673 618.9455,-410.4831 624.4935,-401.4571 617.6539,-399.9673"/>
</g>
<!-- Node292 -->
<g id="node12" class="node">
<title>Node292</title>
<g id="a_node12"><a xlink:href="libbf_8c.html#aab7bc918fdd8dbef25c31c6881c73fdd" target="_top" xlink:title="bf_log_internal">
<polygon fill="none" stroke="#ff0000" points="725,-296.6345 725,-315.6345 805,-315.6345 805,-296.6345 725,-296.6345"/>
<text text-anchor="middle" x="765" y="-303.6345" font-family="Helvetica,sans-Serif" font-size="10.00" fill="#000000">bf_log_internal</text>
</a>
</g>
</g>
<!-- Node268&#45;&gt;Node292 -->
<g id="edge12" class="edge">
<title>Node268&#45;&gt;Node292</title>
<path fill="none" stroke="#191970" d="M631.0875,-402.6301C647.736,-382.8679 677.103,-350.786 708,-330.1345 716.659,-324.3469 726.9396,-319.4995 736.3697,-315.7108"/>
<polygon fill="#191970" stroke="#191970" points="628.2416,-400.5795 624.5683,-410.5172 633.6371,-405.0393 628.2416,-400.5795"/>
</g>
<!-- Node303 -->
<g id="node13" class="node">
<title>Node303</title>
<g id="a_node13"><a xlink:href="libbf_8c.html#afb959ebe491ad24167b5eff3b811f211" target="_top" xlink:title="bf_pow_int">
<polygon fill="none" stroke="#ff0000" points="733,-410.6345 733,-429.6345 797,-429.6345 797,-410.6345 733,-410.6345"/>
<text text-anchor="middle" x="765" y="-417.6345" font-family="Helvetica,sans-Serif" font-size="10.00" fill="#000000">bf_pow_int</text>
</a>
</g>
</g>
<!-- Node268&#45;&gt;Node303 -->
<g id="edge13" class="edge">
<title>Node268&#45;&gt;Node303</title>
<path fill="none" stroke="#191970" d="M648.8453,-420.1345C673.6423,-420.1345 707.915,-420.1345 732.8014,-420.1345"/>
<polygon fill="#191970" stroke="#191970" points="648.5205,-416.6346 638.5205,-420.1345 648.5204,-423.6346 648.5205,-416.6346"/>
</g>
<!-- Node274 -->
<g id="node14" class="node">
<title>Node274</title>
<g id="a_node14"><a xlink:href="libbf_8c.html#ab769247f7a6429c42dfeba4f8334cb75" target="_top" xlink:title="bf_sincos">
<polygon fill="none" stroke="#ff0000" points="735.5,-372.6345 735.5,-391.6345 794.5,-391.6345 794.5,-372.6345 735.5,-372.6345"/>
<text text-anchor="middle" x="765" y="-379.6345" font-family="Helvetica,sans-Serif" font-size="10.00" fill="#000000">bf_sincos</text>
</a>
</g>
</g>
<!-- Node268&#45;&gt;Node274 -->
<g id="edge14" class="edge">
<title>Node268&#45;&gt;Node274</title>
<path fill="none" stroke="#191970" d="M648.48,-412.0518C674.1308,-405.4658 710.0983,-396.2309 735.2655,-389.7691"/>
<polygon fill="#191970" stroke="#191970" points="647.3359,-408.732 638.5205,-414.609 649.0767,-415.5121 647.3359,-408.732"/>
</g>
<!-- Node279 -->
<g id="node15" class="node">
<title>Node279</title>
<g id="a_node15"><a xlink:href="libbf_8c.html#a524a1cfe269d6d10ba833368695f8699" target="_top" xlink:title="bf_tan_internal">
<polygon fill="none" stroke="#ff0000" points="860.5,-410.6345 860.5,-429.6345 940.5,-429.6345 940.5,-410.6345 860.5,-410.6345"/>
<text text-anchor="middle" x="900.5" y="-417.6345" font-family="Helvetica,sans-Serif" font-size="10.00" fill="#000000">bf_tan_internal</text>
</a>
</g>
</g>
<!-- Node268&#45;&gt;Node279 -->
<g id="edge16" class="edge">
<title>Node268&#45;&gt;Node279</title>
<path fill="none" stroke="#191970" d="M649.0106,-428.5005C666.3366,-432.6009 688.191,-437.0886 708,-439.1345 758.3986,-444.3398 771.6901,-445.1364 822,-439.1345 837.5941,-437.2742 854.5687,-433.405 868.7311,-429.6407"/>
<polygon fill="#191970" stroke="#191970" points="649.4116,-424.9957 638.8667,-426.0228 647.7506,-431.7958 649.4116,-424.9957"/>
</g>
<!-- Node296 -->
<g id="node16" class="node">
<title>Node296</title>
<g id="a_node16"><a xlink:href="libbf_8c.html#aa4b535a5b33344704c576607ab4f0463" target="_top" xlink:title="bf_atan_internal">
<polygon fill="none" stroke="#ff0000" points="722,-220.6345 722,-239.6345 808,-239.6345 808,-220.6345 722,-220.6345"/>
<text text-anchor="middle" x="765" y="-227.6345" font-family="Helvetica,sans-Serif" font-size="10.00" fill="#000000">bf_atan_internal</text>
</a>
</g>
</g>
<!-- Node268&#45;&gt;Node296 -->
<g id="edge17" class="edge">
<title>Node268&#45;&gt;Node296</title>
<path fill="none" stroke="#191970" d="M622.2317,-400.3432C632.6018,-364.9057 659.1004,-290.4686 708,-249.1345 712.6205,-245.2289 718.0732,-242.1177 723.7438,-239.6415"/>
<polygon fill="#191970" stroke="#191970" points="618.7454,-399.814 619.4235,-410.3871 625.4869,-401.6989 618.7454,-399.814"/>
</g>
<!-- Node300 -->
<g id="node17" class="node">
<title>Node300</title>
<g id="a_node17"><a xlink:href="libbf_8c.html#a4a0919b7e170befaf75d114d48d350cc" target="_top" xlink:title="bf_asin_internal">
<polygon fill="none" stroke="#ff0000" points="858,-220.6345 858,-239.6345 943,-239.6345 943,-220.6345 858,-220.6345"/>
<text text-anchor="middle" x="900.5" y="-227.6345" font-family="Helvetica,sans-Serif" font-size="10.00" fill="#000000">bf_asin_internal</text>
</a>
</g>
</g>
<!-- Node268&#45;&gt;Node300 -->
<g id="edge19" class="edge">
<title>Node268&#45;&gt;Node300</title>
<path fill="none" stroke="#191970" d="M638.5363,-404.5867C656.4684,-392.1552 683.0167,-374.9166 708,-363.1345 756.3052,-340.3539 777.9506,-355.3339 822,-325.1345 856.4104,-301.5435 883.9456,-258.7714 895.1141,-239.7274"/>
<polygon fill="#191970" stroke="#191970" points="636.162,-401.9777 629.9982,-410.5951 640.1905,-407.7024 636.162,-401.9777"/>
</g>
<!-- Node269&#45;&gt;Node267 -->
<g id="edge4" class="edge">
<title>Node269&#45;&gt;Node267</title>
<path fill="none" stroke="#191970" d="M720.6654,-528.795C663.2402,-521.8788 564.9292,-510.0384 517.7712,-504.3588"/>
<polygon fill="#191970" stroke="#191970" points="720.5437,-532.3055 730.8905,-530.0265 721.3808,-525.3558 720.5437,-532.3055"/>
</g>
<!-- Node282 -->
<g id="node6" class="node">
<title>Node282</title>
<g id="a_node6"><a xlink:href="libbf_8h.html#ac6017f5cde57dab006383297ea94ef40" target="_top" xlink:title="bf_atof2">
<polygon fill="none" stroke="#ff0000" points="874.5,-628.6345 874.5,-647.6345 926.5,-647.6345 926.5,-628.6345 874.5,-628.6345"/>
<text text-anchor="middle" x="900.5" y="-635.6345" font-family="Helvetica,sans-Serif" font-size="10.00" fill="#000000">bf_atof2</text>
</a>
</g>
</g>
<!-- Node281&#45;&gt;Node282 -->
<g id="edge6" class="edge">
<title>Node281&#45;&gt;Node282</title>
<path fill="none" stroke="#191970" d="M793.7642,-586.1451C819.9392,-598.8946 857.8829,-617.3764 880.7734,-628.526"/>
<polygon fill="#191970" stroke="#191970" points="795.2258,-582.964 784.7029,-581.7315 792.1604,-589.2572 795.2258,-582.964"/>
</g>
<!-- Node284 -->
<g id="node7" class="node">
<title>Node284</title>
<g id="a_node7"><a xlink:href="libbf_8h.html#a50551c6578db85d68392a0cb9374e280" target="_top" xlink:title="bf_ftoa">
<polygon fill="none" stroke="#000000" points="877,-581.6345 877,-600.6345 924,-600.6345 924,-581.6345 877,-581.6345"/>
<text text-anchor="middle" x="900.5" y="-588.6345" font-family="Helvetica,sans-Serif" font-size="10.00" fill="#000000">bf_ftoa</text>
</a>
</g>
</g>
<!-- Node281&#45;&gt;Node284 -->
<g id="edge7" class="edge">
<title>Node281&#45;&gt;Node284</title>
<path fill="none" stroke="#191970" d="M822.8346,-580.2442C841.7522,-582.8968 861.7239,-585.6973 876.6771,-587.7941"/>
<polygon fill="#191970" stroke="#191970" points="823.1614,-576.7559 812.7722,-578.8332 822.1893,-583.688 823.1614,-576.7559"/>
</g>
<!-- Node274&#45;&gt;Node279 -->
<g id="edge15" class="edge">
<title>Node274&#45;&gt;Node279</title>
<path fill="none" stroke="#191970" d="M804.6119,-393.2434C824.2523,-398.7514 847.7293,-405.3354 866.5371,-410.6099"/>
<polygon fill="#191970" stroke="#191970" points="805.3097,-389.8041 794.7361,-390.4738 803.4195,-396.5441 805.3097,-389.8041"/>
</g>
<!-- Node296&#45;&gt;Node300 -->
<g id="edge18" class="edge">
<title>Node296&#45;&gt;Node300</title>
<path fill="none" stroke="#191970" d="M818.4795,-230.1345C831.4852,-230.1345 845.2259,-230.1345 857.6647,-230.1345"/>
<polygon fill="#191970" stroke="#191970" points="818.2456,-226.6346 808.2456,-230.1345 818.2456,-233.6346 818.2456,-226.6346"/>
</g>
<!-- Node304&#45;&gt;Node282 -->
<g id="edge21" class="edge">
<title>Node304&#45;&gt;Node282</title>
<path fill="none" stroke="#191970" d="M682.623,-644.2828C743.5246,-642.5642 831.0822,-640.0934 874.3115,-638.8736"/>
<polygon fill="#191970" stroke="#191970" points="682.2319,-640.7923 672.3347,-644.5731 682.4294,-647.7895 682.2319,-640.7923"/>
</g>
<!-- Node306 -->
<g id="node20" class="node">
<title>Node306</title>
<g id="a_node20"><a xlink:href="libbf_8c.html#ad822be23230b2b31b63bbc893881aa25" target="_top" xlink:title="output_digits">
<polygon fill="none" stroke="#000000" points="581,-598.6345 581,-617.6345 653,-617.6345 653,-598.6345 581,-598.6345"/>
<text text-anchor="middle" x="617" y="-605.6345" font-family="Helvetica,sans-Serif" font-size="10.00" fill="#000000">output_digits</text>
</a>
</g>
</g>
<!-- Node305&#45;&gt;Node306 -->
<g id="edge23" class="edge">
<title>Node305&#45;&gt;Node306</title>
<path fill="none" stroke="#191970" d="M192.1826,-577.446C293.9033,-584.7942 497.8812,-599.5295 580.7517,-605.516"/>
<polygon fill="#191970" stroke="#191970" points="192.2993,-573.9454 182.0731,-576.7157 191.7949,-580.9272 192.2993,-573.9454"/>
</g>
<!-- Node306&#45;&gt;Node284 -->
<g id="edge24" class="edge">
<title>Node306&#45;&gt;Node284</title>
<path fill="none" stroke="#191970" d="M663.3515,-605.3551C724.5579,-601.6849 830.0457,-595.3593 876.8966,-592.5499"/>
<polygon fill="#191970" stroke="#191970" points="662.966,-601.8718 653.1934,-605.9642 663.385,-608.8593 662.966,-601.8718"/>
</g>
<!-- Node308 -->
<g id="node22" class="node">
<title>Node308</title>
<g id="a_node22"><a xlink:href="libbf_8h.html#ac290278d0c37a0e7786873f98aadba47" target="_top" xlink:title="bf_mul">
<polygon fill="none" stroke="#ff0000" points="355.5,-334.6345 355.5,-353.6345 401.5,-353.6345 401.5,-334.6345 355.5,-334.6345"/>
<text text-anchor="middle" x="378.5" y="-341.6345" font-family="Helvetica,sans-Serif" font-size="10.00" fill="#000000">bf_mul</text>
</a>
</g>
</g>
<!-- Node307&#45;&gt;Node308 -->
<g id="edge26" class="edge">
<title>Node307&#45;&gt;Node308</title>
<path fill="none" stroke="#191970" d="M277.2371,-446.2485C284.6297,-439.1564 293.2756,-430.7911 301,-423.1345 325.9712,-398.3826 354.844,-368.6491 369.28,-353.7044"/>
<polygon fill="#191970" stroke="#191970" points="274.6186,-443.9098 269.8102,-453.3507 279.4565,-448.9689 274.6186,-443.9098"/>
</g>
<!-- Node326 -->
<g id="node25" class="node">
<title>Node326</title>
<g id="a_node25"><a xlink:href="libbf_8c.html#a3ebbc1c7473b2ad84ced2b263bf38bae" target="_top" xlink:title="bf_op2">
<polygon fill="none" stroke="#ff0000" points="355.5,-453.6345 355.5,-472.6345 401.5,-472.6345 401.5,-453.6345 355.5,-453.6345"/>
<text text-anchor="middle" x="378.5" y="-460.6345" font-family="Helvetica,sans-Serif" font-size="10.00" fill="#000000">bf_op2</text>
</a>
</g>
</g>
<!-- Node307&#45;&gt;Node326 -->
<g id="edge41" class="edge">
<title>Node307&#45;&gt;Node326</title>
<path fill="none" stroke="#191970" d="M296.7038,-463.1345C315.8426,-463.1345 338.5795,-463.1345 355.2178,-463.1345"/>
<polygon fill="#191970" stroke="#191970" points="296.503,-459.6346 286.5029,-463.1345 296.5029,-466.6346 296.503,-459.6346"/>
</g>
<!-- Node308&#45;&gt;Node267 -->
<g id="edge30" class="edge">
<title>Node308&#45;&gt;Node267</title>
<path fill="none" stroke="#191970" d="M391.536,-362.327C415.4344,-395.6786 465.5011,-465.5494 483.9653,-491.3172"/>
<polygon fill="#191970" stroke="#191970" points="394.207,-360.0456 385.5374,-353.9556 388.517,-364.1228 394.207,-360.0456"/>
</g>
<!-- Node308&#45;&gt;Node269 -->
<g id="edge29" class="edge">
<title>Node308&#45;&gt;Node269</title>
<path fill="none" stroke="#191970" d="M403.7798,-359.0084C458.1289,-390.5895 590.692,-465.5059 708,-515.1345 716.0697,-518.5485 724.9806,-521.7677 733.3119,-524.5524"/>
<polygon fill="#191970" stroke="#191970" points="405.2577,-355.8186 394.8563,-353.8034 401.7308,-361.8651 405.2577,-355.8186"/>
</g>
<!-- Node308&#45;&gt;Node281 -->
<g id="edge33" class="edge">
<title>Node308&#45;&gt;Node281</title>
<path fill="none" stroke="#191970" d="M386.299,-363.1397C404.6118,-407.5804 449.3227,-514.9377 456,-520.1345 532.3084,-579.5247 651.6191,-581.5108 717.4276,-577.176"/>
<polygon fill="#191970" stroke="#191970" points="389.4776,-361.6665 382.4368,-353.7496 383.0038,-364.3292 389.4776,-361.6665"/>
</g>
<!-- Node308&#45;&gt;Node285 -->
<g id="edge34" class="edge">
<title>Node308&#45;&gt;Node285</title>
<path fill="none" stroke="#191970" d="M411.7131,-337.6036C480.1136,-324.1536 636.9495,-293.314 716.63,-277.6459"/>
<polygon fill="#191970" stroke="#191970" points="410.6567,-334.2443 401.5199,-339.608 412.0073,-341.1127 410.6567,-334.2443"/>
</g>
<!-- Node308&#45;&gt;Node294 -->
<g id="edge35" class="edge">
<title>Node308&#45;&gt;Node294</title>
<path fill="none" stroke="#191970" d="M410.8071,-330.8002C414.0065,-329.0533 417.1284,-327.1596 420,-325.1345 438.7502,-311.9115 436.8079,-300.7077 456,-288.1345 536.7045,-235.2634 648.2023,-210.1246 712.8496,-199.3044"/>
<polygon fill="#191970" stroke="#191970" points="409.1191,-327.7307 401.7288,-335.3224 412.2403,-333.9964 409.1191,-327.7307"/>
</g>
<!-- Node308&#45;&gt;Node288 -->
<g id="edge36" class="edge">
<title>Node308&#45;&gt;Node288</title>
<path fill="none" stroke="#191970" d="M410.93,-333.3403C414.3878,-331.0851 417.5357,-328.3781 420,-325.1345 481.5303,-244.1462 378.6293,-165.1562 456,-99.1345 540.6158,-26.9306 690.4236,-83.2628 744.6718,-107.4728"/>
<polygon fill="#191970" stroke="#191970" points="409.1451,-330.3241 401.9097,-338.0637 412.3923,-336.5254 409.1451,-330.3241"/>
</g>
<!-- Node308&#45;&gt;Node292 -->
<g id="edge37" class="edge">
<title>Node308&#45;&gt;Node292</title>
<path fill="none" stroke="#191970" d="M411.8869,-342.1443C466.4232,-338.7273 577.9697,-331.0439 672,-320.1345 689.3543,-318.1211 708.4484,-315.345 724.7961,-312.7955"/>
<polygon fill="#191970" stroke="#191970" points="411.5267,-338.6598 401.7619,-342.7705 411.9589,-345.6464 411.5267,-338.6598"/>
</g>
<!-- Node308&#45;&gt;Node274 -->
<g id="edge38" class="edge">
<title>Node308&#45;&gt;Node274</title>
<path fill="none" stroke="#191970" d="M411.6975,-347.3985C485.9827,-354.7021 664.6303,-372.2664 735.4035,-379.2247"/>
<polygon fill="#191970" stroke="#191970" points="411.8144,-343.8932 401.5199,-346.3978 411.1294,-350.8596 411.8144,-343.8932"/>
</g>
<!-- Node308&#45;&gt;Node296 -->
<g id="edge39" class="edge">
<title>Node308&#45;&gt;Node296</title>
<path fill="none" stroke="#191970" d="M408.8601,-330.5076C423.0198,-324.4355 440.1991,-317.4672 456,-312.1345 549.3445,-280.6317 661.7974,-253.3932 721.9855,-239.6505"/>
<polygon fill="#191970" stroke="#191970" points="407.3685,-327.3395 399.5937,-334.537 410.16,-333.7589 407.3685,-327.3395"/>
</g>
<!-- Node308&#45;&gt;Node300 -->
<g id="edge40" class="edge">
<title>Node308&#45;&gt;Node300</title>
<path fill="none" stroke="#191970" d="M410.4711,-333.7284C414.1248,-331.3993 417.4472,-328.5686 420,-325.1345 489.8608,-231.1586 369.1898,-142.722 456,-64.1345 577.1113,45.505 691.0811,-.4154 822,-98.1345 865.8025,-130.8291 889.7907,-195.8064 897.6101,-220.3982"/>
<polygon fill="#191970" stroke="#191970" points="408.8534,-330.6245 401.5507,-338.3006 412.0463,-336.854 408.8534,-330.6245"/>
</g>
<!-- Node309 -->
<g id="node23" class="node">
<title>Node309</title>
<g id="a_node23"><a xlink:href="libbf_8c.html#a0b349466a7fc3b0a980c4ea6e3a8d03f" target="_top" xlink:title="bf_recip_rec">
<polygon fill="none" stroke="#ff0000" points="456,-164.6345 456,-183.6345 526,-183.6345 526,-164.6345 456,-164.6345"/>
<text text-anchor="middle" x="491" y="-171.6345" font-family="Helvetica,sans-Serif" font-size="10.00" fill="#000000">bf_recip_rec</text>
</a>
</g>
</g>
<!-- Node308&#45;&gt;Node309 -->
<g id="edge27" class="edge">
<title>Node308&#45;&gt;Node309</title>
<path fill="none" stroke="#191970" d="M410.6709,-332.8002C414.1237,-330.6415 417.3407,-328.1048 420,-325.1345 454.031,-287.1246 431.2337,-260.7383 456,-216.1345 462.8193,-203.8532 473.4518,-191.7345 481.2092,-183.6953"/>
<polygon fill="#191970" stroke="#191970" points="409.044,-329.7012 401.786,-337.4195 412.2731,-335.912 409.044,-329.7012"/>
</g>
<!-- Node312 -->
<g id="node24" class="node">
<title>Node312</title>
<g id="a_node24"><a xlink:href="libbf_8c.html#a5527d62eeb1da227fff469a53f9290c9" target="_top" xlink:title="__bf_rsqrt">
<polygon fill="none" stroke="#ff0000" points="461,-108.6345 461,-127.6345 521,-127.6345 521,-108.6345 461,-108.6345"/>
<text text-anchor="middle" x="491" y="-115.6345" font-family="Helvetica,sans-Serif" font-size="10.00" fill="#000000">__bf_rsqrt</text>
</a>
</g>
</g>
<!-- Node308&#45;&gt;Node312 -->
<g id="edge31" class="edge">
<title>Node308&#45;&gt;Node312</title>
<path fill="none" stroke="#191970" d="M410.7739,-333.2186C414.2576,-330.9836 417.4543,-328.3146 420,-325.1345 468.2654,-264.8429 420.1204,-223.5253 456,-155.1345 461.5867,-144.4856 471.1155,-134.7088 478.8211,-127.8829"/>
<polygon fill="#191970" stroke="#191970" points="408.9861,-330.2033 401.7308,-337.9242 412.2173,-336.413 408.9861,-330.2033"/>
</g>
<!-- Node309&#45;&gt;Node309 -->
<g id="edge28" class="edge">
<title>Node309&#45;&gt;Node309</title>
<path fill="none" stroke="#191970" d="M470.2603,-193.5346C471.6454,-198.4491 478.5586,-202.1345 491,-202.1345 510.9063,-202.1345 516.6604,-192.6998 508.2625,-183.8916"/>
<polygon fill="#191970" stroke="#191970" points="473.6378,-194.486 473.7375,-183.8916 467.0528,-192.1114 473.6378,-194.486"/>
</g>
<!-- Node312&#45;&gt;Node312 -->
<g id="edge32" class="edge">
<title>Node312&#45;&gt;Node312</title>
<path fill="none" stroke="#191970" d="M470.2603,-137.5346C471.6454,-142.4491 478.5586,-146.1345 491,-146.1345 510.9063,-146.1345 516.6604,-136.6998 508.2625,-127.8916"/>
<polygon fill="#191970" stroke="#191970" points="473.6378,-138.486 473.7375,-127.8916 467.0528,-136.1114 473.6378,-138.486"/>
</g>
<!-- Node326&#45;&gt;Node268 -->
<g id="edge42" class="edge">
<title>Node326&#45;&gt;Node268</title>
<path fill="none" stroke="#191970" d="M411.7151,-457.1461C461.3484,-448.1975 553.5005,-431.5831 595.3365,-424.0403"/>
<polygon fill="#191970" stroke="#191970" points="411.0229,-453.7144 401.8026,-458.9332 412.265,-460.6033 411.0229,-453.7144"/>
</g>
<!-- Node335 -->
<g id="node27" class="node">
<title>Node335</title>
<g id="a_node27"><a xlink:href="libbf_8h.html#a6e8875c235e27adc6d68815417a275a0" target="_top" xlink:title="bf_clear_cache">
<polygon fill="none" stroke="#ff0000" points="337,-296.6345 337,-315.6345 420,-315.6345 420,-296.6345 337,-296.6345"/>
<text text-anchor="middle" x="378.5" y="-303.6345" font-family="Helvetica,sans-Serif" font-size="10.00" fill="#000000">bf_clear_cache</text>
</a>
</g>
</g>
<!-- Node334&#45;&gt;Node335 -->
<g id="edge44" class="edge">
<title>Node334&#45;&gt;Node335</title>
<path fill="none" stroke="#191970" d="M311.0378,-318.6066C319.611,-317.0216 328.4089,-315.3951 336.7019,-313.8619"/>
<polygon fill="#191970" stroke="#191970" points="310.3175,-315.1803 301.1204,-320.44 311.5901,-322.0637 310.3175,-315.1803"/>
</g>
<!-- Node337&#45;&gt;Node334 -->
<g id="edge46" class="edge">
<title>Node337&#45;&gt;Node334</title>
<path fill="none" stroke="#191970" d="M157.3889,-380.4473C174.2922,-370.6501 197.2595,-357.6818 218,-347.1345 224.3569,-343.9018 231.3734,-340.5938 237.7999,-337.663"/>
<polygon fill="#191970" stroke="#191970" points="155.5505,-377.4676 148.6747,-385.5283 159.0765,-383.5148 155.5505,-377.4676"/>
</g>
<!-- Node338 -->
<g id="node29" class="node">
<title>Node338</title>
<g id="a_node29"><a xlink:href="libbf_8c.html#a20b78e3fafb87d40811e48a2ecb92102" target="_top" xlink:title="ntt_fft_partial">
<polygon fill="none" stroke="#ff0000" points="222.5,-394.6345 222.5,-413.6345 296.5,-413.6345 296.5,-394.6345 222.5,-394.6345"/>
<text text-anchor="middle" x="259.5" y="-401.6345" font-family="Helvetica,sans-Serif" font-size="10.00" fill="#000000">ntt_fft_partial</text>
</a>
</g>
</g>
<!-- Node337&#45;&gt;Node338 -->
<g id="edge47" class="edge">
<title>Node337&#45;&gt;Node338</title>
<path fill="none" stroke="#191970" d="M167.6921,-397.6285C184.7181,-398.835 205.1579,-400.2835 222.4249,-401.5072"/>
<polygon fill="#191970" stroke="#191970" points="167.8135,-394.1284 157.5911,-396.9127 167.3187,-401.1109 167.8135,-394.1284"/>
</g>
<!-- Node340 -->
<g id="node30" class="node">
<title>Node340</title>
<g id="a_node30"><a xlink:href="libbf_8c.html#a2f9f07876fb472f11c33a5e066ae9765" target="_top" xlink:title="fft_mul">
<polygon fill="none" stroke="#000000" points="236,-356.6345 236,-375.6345 283,-375.6345 283,-356.6345 236,-356.6345"/>
<text text-anchor="middle" x="259.5" y="-363.6345" font-family="Helvetica,sans-Serif" font-size="10.00" fill="#000000">fft_mul</text>
</a>
</g>
</g>
<!-- Node337&#45;&gt;Node340 -->
<g id="edge48" class="edge">
<title>Node337&#45;&gt;Node340</title>
<path fill="none" stroke="#191970" d="M167.4345,-387.1574C189.1602,-382.1964 216.5216,-375.9485 235.7496,-371.5579"/>
<polygon fill="#191970" stroke="#191970" points="166.561,-383.7667 157.5911,-389.4051 168.1194,-390.591 166.561,-383.7667"/>
</g>
<!-- Node340&#45;&gt;Node308 -->
<g id="edge49" class="edge">
<title>Node340&#45;&gt;Node308</title>
<path fill="none" stroke="#191970" d="M292.9312,-359.954C312.8716,-356.2675 337.681,-351.6809 355.4432,-348.3972"/>
<polygon fill="#191970" stroke="#191970" points="292.2076,-356.5284 283.0106,-361.7881 293.4802,-363.4117 292.2076,-356.5284"/>
</g>
</g>
</svg>
        <g id="navigator" transform="translate(0 0)" fill="#404254">
                <rect fill="#f2f5e9" fill-opacity="0.5" stroke="#606060" stroke-width=".5" x="0" y="0" width="60" height="60"/>
                <use id="zoomplus" xlink:href="#zoomPlus" x="17" y="9" onmousedown="handleZoom(evt,'in')"/>
                <use id="zoomminus" xlink:href="#zoomMin" x="42" y="9" onmousedown="handleZoom(evt,'out')"/>
                <use id="reset" xlink:href="#resetDef" x="30" y="36" onmousedown="handleReset()"/>
                <g id="arrowUp" xlink:href="#dirArrow" transform="translate(30 24)" onmousedown="handlePan(0,-1)">
                  <use xlink:href="#rim" fill="#404040">
                        <set attributeName="fill" to="#808080" begin="arrowUp.mouseover" end="arrowUp.mouseout"/>
                  </use>
                  <path fill="none" stroke="white" stroke-width="1.5" d="M0,-3.0v7 M-2.5,-0.5L0,-3.0L2.5,-0.5"/>
                </g>
                <g id="arrowRight" xlink:href="#dirArrow" transform="rotate(90) translate(36 -43)" onmousedown="handlePan(1,0)">
                  <use xlink:href="#rim" fill="#404040">
                        <set attributeName="fill" to="#808080" begin="arrowRight.mouseover" end="arrowRight.mouseout"/>
                  </use>
                  <path fill="none" stroke="white" stroke-width="1.5" d="M0,-3.0v7 M-2.5,-0.5L0,-3.0L2.5,-0.5"/>
                </g>
                <g id="arrowDown" xlink:href="#dirArrow" transform="rotate(180) translate(-30 -48)" onmousedown="handlePan(0,1)">
                  <use xlink:href="#rim" fill="#404040">
                        <set attributeName="fill" to="#808080" begin="arrowDown.mouseover" end="arrowDown.mouseout"/>
                  </use>
                  <path fill="none" stroke="white" stroke-width="1.5" d="M0,-3.0v7 M-2.5,-0.5L0,-3.0L2.5,-0.5"/>
                </g>
                <g id="arrowLeft" xlink:href="#dirArrow" transform="rotate(270) translate(-36 17)" onmousedown="handlePan(-1,0)">
                  <use xlink:href="#rim" fill="#404040">
                        <set attributeName="fill" to="#808080" begin="arrowLeft.mouseover" end="arrowLeft.mouseout"/>
                  </use>
                  <path fill="none" stroke="white" stroke-width="1.5" d="M0,-3.0v7 M-2.5,-0.5L0,-3.0L2.5,-0.5"/>
                </g>
        </g>
        <svg viewBox="0 0 15 15" width="100%" height="30px" preserveAspectRatio="xMaxYMin meet">
         <g id="arrow_out" transform="scale(0.3 0.3)">
          <a xlink:href="libbf_8c_ab8c991bf0d1ab72d676d3c9c3d63c2a7_icgraph_org.svg" target="_base">
           <rect id="button" ry="5" rx="5" y="6" x="6" height="38" width="38"
                fill="#f2f5e9" fill-opacity="0.5" stroke="#606060" stroke-width="1.0"/>
           <path id="arrow"
             d="M 11.500037,31.436501 C 11.940474,20.09759 22.043105,11.32322 32.158766,21.979434 L 37.068811,17.246167 C 37.068811,17.246167 37.088388,32 37.088388,32 L 22.160133,31.978069 C 22.160133,31.978069 26.997745,27.140456 26.997745,27.140456 C 18.528582,18.264221 13.291696,25.230495 11.500037,31.436501 z"
             style="fill:#404040;"/>
          </a>
         </g>
        </svg>
</svg>
