<?xml version="1.0" encoding="UTF-8" standalone="no"?>
<!DOCTYPE svg PUBLIC "-//W3C//DTD SVG 1.1//EN"
 "http://www.w3.org/Graphics/SVG/1.1/DTD/svg11.dtd">
<!-- Generated by graphviz version 2.40.1 (20161225.0304)
 -->
<!-- Title: bf_logic_xor Pages: 1 -->
<svg width="429pt" height="360pt"
 viewBox="0.00 0.00 429.00 360.00" xmlns="http://www.w3.org/2000/svg" xmlns:xlink="http://www.w3.org/1999/xlink">
<g id="graph0" class="graph" transform="scale(1 1) rotate(0) translate(4 356)">
<title>bf_logic_xor</title>
<!-- Node4817 -->
<g id="node1" class="node">
<title>Node4817</title>
<polygon fill="#bfbfbf" stroke="#000000" points="0,-152.5 0,-171.5 69,-171.5 69,-152.5 0,-152.5"/>
<text text-anchor="middle" x="34.5" y="-159.5" font-family="Helvetica,sans-Serif" font-size="10.00" fill="#000000">bf_logic_xor</text>
</g>
<!-- Node4818 -->
<g id="node2" class="node">
<title>Node4818</title>
<g id="a_node2"><a xlink:href="libbf_8c.html#a88eb12d0cdf3192e9edc470c54c76baf" target="_top" xlink:title="bf_logic_op">
<polygon fill="none" stroke="#000000" points="105,-152.5 105,-171.5 171,-171.5 171,-152.5 105,-152.5"/>
<text text-anchor="middle" x="138" y="-159.5" font-family="Helvetica,sans-Serif" font-size="10.00" fill="#000000">bf_logic_op</text>
</a>
</g>
</g>
<!-- Node4817&#45;&gt;Node4818 -->
<g id="edge1" class="edge">
<title>Node4817&#45;&gt;Node4818</title>
<path fill="none" stroke="#191970" d="M69.2519,-162C77.4351,-162 86.2561,-162 94.7617,-162"/>
<polygon fill="#191970" stroke="#191970" points="94.9162,-165.5001 104.9162,-162 94.9162,-158.5001 94.9162,-165.5001"/>
</g>
<!-- Node4819 -->
<g id="node3" class="node">
<title>Node4819</title>
<g id="a_node3"><a xlink:href="libbf_8h.html#a50a5aa2767f2389a32daf115aaef07af" target="_top" xlink:title="bf_add_si">
<polygon fill="none" stroke="#000000" points="238.5,-266.5 238.5,-285.5 297.5,-285.5 297.5,-266.5 238.5,-266.5"/>
<text text-anchor="middle" x="268" y="-273.5" font-family="Helvetica,sans-Serif" font-size="10.00" fill="#000000">bf_add_si</text>
</a>
</g>
</g>
<!-- Node4818&#45;&gt;Node4819 -->
<g id="edge2" class="edge">
<title>Node4818&#45;&gt;Node4819</title>
<path fill="none" stroke="#191970" d="M142.9659,-171.5142C152.8456,-189.5907 176.6528,-229.1315 207,-252 213.5908,-256.9666 221.3423,-261.0452 229.0681,-264.3404"/>
<polygon fill="#191970" stroke="#191970" points="227.811,-267.6068 238.3993,-267.9782 230.3536,-261.0849 227.811,-267.6068"/>
</g>
<!-- Node4820 -->
<g id="node4" class="node">
<title>Node4820</title>
<g id="a_node4"><a xlink:href="libbf_8h.html#abacc1410890af049e02ebd788364ac48" target="_top" xlink:title="bf_init">
<polygon fill="none" stroke="#000000" points="371.5,-332.5 371.5,-351.5 414.5,-351.5 414.5,-332.5 371.5,-332.5"/>
<text text-anchor="middle" x="393" y="-339.5" font-family="Helvetica,sans-Serif" font-size="10.00" fill="#000000">bf_init</text>
</a>
</g>
</g>
<!-- Node4818&#45;&gt;Node4820 -->
<g id="edge8" class="edge">
<title>Node4818&#45;&gt;Node4820</title>
<path fill="none" stroke="#191970" d="M140.1471,-171.7903C146.098,-196.5218 165.1974,-261.8909 207,-295 252.1787,-330.7831 321.2614,-339.6659 361.2924,-341.6652"/>
<polygon fill="#191970" stroke="#191970" points="361.1629,-345.1627 371.2904,-342.0506 361.4326,-338.1679 361.1629,-345.1627"/>
</g>
<!-- Node4851 -->
<g id="node7" class="node">
<title>Node4851</title>
<g id="a_node7"><a xlink:href="libbf_8h.html#a2b9d906b21e903f2f7f1c9044674ab7d" target="_top" xlink:title="bf_delete">
<polygon fill="none" stroke="#ff0000" points="365,-218.5 365,-237.5 421,-237.5 421,-218.5 365,-218.5"/>
<text text-anchor="middle" x="393" y="-225.5" font-family="Helvetica,sans-Serif" font-size="10.00" fill="#000000">bf_delete</text>
</a>
</g>
</g>
<!-- Node4818&#45;&gt;Node4851 -->
<g id="edge7" class="edge">
<title>Node4818&#45;&gt;Node4851</title>
<path fill="none" stroke="#191970" d="M146.1302,-171.869C157.9244,-185.3577 181.2081,-209.0141 207,-219 255.2261,-237.6717 315.8051,-236.5234 354.4705,-233.034"/>
<polygon fill="#191970" stroke="#191970" points="355.1654,-236.4819 364.7665,-232.0022 354.4673,-229.5168 355.1654,-236.4819"/>
</g>
<!-- Node4852 -->
<g id="node8" class="node">
<title>Node4852</title>
<g id="a_node8"><a xlink:href="libbf_8c.html#a900239b7676c1dd839184666fc520865" target="_top" xlink:title="bf_logic_op1">
<polygon fill="none" stroke="#000000" points="232.5,-190.5 232.5,-209.5 303.5,-209.5 303.5,-190.5 232.5,-190.5"/>
<text text-anchor="middle" x="268" y="-197.5" font-family="Helvetica,sans-Serif" font-size="10.00" fill="#000000">bf_logic_op1</text>
</a>
</g>
</g>
<!-- Node4818&#45;&gt;Node4852 -->
<g id="edge9" class="edge">
<title>Node4818&#45;&gt;Node4852</title>
<path fill="none" stroke="#191970" d="M170.8045,-171.589C187.2783,-176.4044 207.4434,-182.2988 225.1273,-187.468"/>
<polygon fill="#191970" stroke="#191970" points="224.6256,-190.9677 235.206,-190.4141 226.5897,-184.2489 224.6256,-190.9677"/>
</g>
<!-- Node4834 -->
<g id="node9" class="node">
<title>Node4834</title>
<g id="a_node9"><a xlink:href="libbf_8h.html#a4954f3435332238433d15977d55ae566" target="_top" xlink:title="bf_max">
<polygon fill="none" stroke="#000000" points="243.5,-152.5 243.5,-171.5 292.5,-171.5 292.5,-152.5 243.5,-152.5"/>
<text text-anchor="middle" x="268" y="-159.5" font-family="Helvetica,sans-Serif" font-size="10.00" fill="#000000">bf_max</text>
</a>
</g>
</g>
<!-- Node4818&#45;&gt;Node4834 -->
<g id="edge10" class="edge">
<title>Node4818&#45;&gt;Node4834</title>
<path fill="none" stroke="#191970" d="M171.1409,-162C190.0555,-162 213.752,-162 232.972,-162"/>
<polygon fill="#191970" stroke="#191970" points="233.1305,-165.5001 243.1305,-162 233.1305,-158.5001 233.1305,-165.5001"/>
</g>
<!-- Node4836 -->
<g id="node10" class="node">
<title>Node4836</title>
<g id="a_node10"><a xlink:href="libbf_8h.html#a970a1725f8bc59eda655058c5ff6bc52" target="_top" xlink:title="bf_min">
<polygon fill="none" stroke="#000000" points="245,-114.5 245,-133.5 291,-133.5 291,-114.5 245,-114.5"/>
<text text-anchor="middle" x="268" y="-121.5" font-family="Helvetica,sans-Serif" font-size="10.00" fill="#000000">bf_min</text>
</a>
</g>
</g>
<!-- Node4818&#45;&gt;Node4836 -->
<g id="edge11" class="edge">
<title>Node4818&#45;&gt;Node4836</title>
<path fill="none" stroke="#191970" d="M170.8045,-152.411C190.4046,-146.6817 215.2298,-139.4251 234.8847,-133.6799"/>
<polygon fill="#191970" stroke="#191970" points="236.0203,-136.9945 244.6366,-130.8293 234.0563,-130.2756 236.0203,-136.9945"/>
</g>
<!-- Node4837 -->
<g id="node11" class="node">
<title>Node4837</title>
<g id="a_node11"><a xlink:href="libbf_8h.html#ae822c0888d26739bb681dfef282b9150" target="_top" xlink:title="bf_normalize_and_round">
<polygon fill="none" stroke="#ff0000" points="207,-76.5 207,-95.5 329,-95.5 329,-76.5 207,-76.5"/>
<text text-anchor="middle" x="268" y="-83.5" font-family="Helvetica,sans-Serif" font-size="10.00" fill="#000000">bf_normalize_and_round</text>
</a>
</g>
</g>
<!-- Node4818&#45;&gt;Node4837 -->
<g id="edge12" class="edge">
<title>Node4818&#45;&gt;Node4837</title>
<path fill="none" stroke="#191970" d="M147.3849,-152.1637C159.8926,-139.5784 183.2245,-117.8715 207,-105 211.0039,-102.8324 215.292,-100.8714 219.6703,-99.1066"/>
<polygon fill="#191970" stroke="#191970" points="221.1492,-102.2918 229.324,-95.5521 218.7305,-95.723 221.1492,-102.2918"/>
</g>
<!-- Node4823 -->
<g id="node12" class="node">
<title>Node4823</title>
<g id="a_node12"><a xlink:href="libbf_8h.html#ad5f9a8c0c9455250d53b259b1a01c0c0" target="_top" xlink:title="bf_resize">
<polygon fill="none" stroke="#000000" points="365,-57.5 365,-76.5 421,-76.5 421,-57.5 365,-57.5"/>
<text text-anchor="middle" x="393" y="-64.5" font-family="Helvetica,sans-Serif" font-size="10.00" fill="#000000">bf_resize</text>
</a>
</g>
</g>
<!-- Node4818&#45;&gt;Node4823 -->
<g id="edge14" class="edge">
<title>Node4818&#45;&gt;Node4823</title>
<path fill="none" stroke="#191970" d="M141.4829,-152.4025C149.4292,-132.1336 171.0395,-85.3262 207,-67 253.4831,-43.3113 315.3772,-49.5227 354.7165,-57.329"/>
<polygon fill="#191970" stroke="#191970" points="354.1875,-60.7945 364.6954,-59.4398 355.6362,-53.946 354.1875,-60.7945"/>
</g>
<!-- Node4850 -->
<g id="node13" class="node">
<title>Node4850</title>
<g id="a_node13"><a xlink:href="libbf_8c.html#a9efaad53187f85b1afc28c3f67cc72b6" target="_top" xlink:title="get_bits">
<polygon fill="none" stroke="#000000" points="242.5,-.5 242.5,-19.5 293.5,-19.5 293.5,-.5 242.5,-.5"/>
<text text-anchor="middle" x="268" y="-7.5" font-family="Helvetica,sans-Serif" font-size="10.00" fill="#000000">get_bits</text>
</a>
</g>
</g>
<!-- Node4818&#45;&gt;Node4850 -->
<g id="edge15" class="edge">
<title>Node4818&#45;&gt;Node4850</title>
<path fill="none" stroke="#191970" d="M140.7181,-152.1856C147.7384,-128.5678 168.6618,-68.008 207,-34 214.3151,-27.5112 223.5914,-22.6745 232.6884,-19.1119"/>
<polygon fill="#191970" stroke="#191970" points="234.0988,-22.3268 242.388,-15.7282 231.7931,-15.7174 234.0988,-22.3268"/>
</g>
<!-- Node4819&#45;&gt;Node4820 -->
<g id="edge3" class="edge">
<title>Node4819&#45;&gt;Node4820</title>
<path fill="none" stroke="#191970" d="M286.1761,-285.597C307.098,-296.6437 341.6724,-314.899 365.8016,-327.6392"/>
<polygon fill="#191970" stroke="#191970" points="364.3247,-330.8173 374.802,-332.3915 367.5932,-324.6272 364.3247,-330.8173"/>
</g>
<!-- Node4821 -->
<g id="node5" class="node">
<title>Node4821</title>
<g id="a_node5"><a xlink:href="libbf_8h.html#a6ffae8e39e8ba06fd097c4adc301ba6e" target="_top" xlink:title="bf_set_si">
<polygon fill="none" stroke="#ff0000" points="365,-294.5 365,-313.5 421,-313.5 421,-294.5 365,-294.5"/>
<text text-anchor="middle" x="393" y="-301.5" font-family="Helvetica,sans-Serif" font-size="10.00" fill="#000000">bf_set_si</text>
</a>
</g>
</g>
<!-- Node4819&#45;&gt;Node4821 -->
<g id="edge4" class="edge">
<title>Node4819&#45;&gt;Node4821</title>
<path fill="none" stroke="#191970" d="M297.6233,-282.6356C314.8013,-286.4835 336.6115,-291.369 355.0386,-295.4967"/>
<polygon fill="#191970" stroke="#191970" points="354.3537,-298.9299 364.877,-297.7004 355.8839,-292.0992 354.3537,-298.9299"/>
</g>
<!-- Node4826 -->
<g id="node6" class="node">
<title>Node4826</title>
<g id="a_node6"><a xlink:href="libbf_8h.html#a17dc09166f82ffa408f54a2edc4d7855" target="_top" xlink:title="bf_add">
<polygon fill="none" stroke="#ff0000" points="370,-256.5 370,-275.5 416,-275.5 416,-256.5 370,-256.5"/>
<text text-anchor="middle" x="393" y="-263.5" font-family="Helvetica,sans-Serif" font-size="10.00" fill="#000000">bf_add</text>
</a>
</g>
</g>
<!-- Node4819&#45;&gt;Node4826 -->
<g id="edge5" class="edge">
<title>Node4819&#45;&gt;Node4826</title>
<path fill="none" stroke="#191970" d="M297.6233,-273.6301C316.2633,-272.1389 340.3574,-270.2114 359.665,-268.6668"/>
<polygon fill="#191970" stroke="#191970" points="360.1449,-272.1397 369.8339,-267.8533 359.5866,-265.162 360.1449,-272.1397"/>
</g>
<!-- Node4819&#45;&gt;Node4851 -->
<g id="edge6" class="edge">
<title>Node4819&#45;&gt;Node4851</title>
<path fill="none" stroke="#191970" d="M292.9952,-266.4018C311.8159,-259.1747 337.837,-249.1826 358.6183,-241.2026"/>
<polygon fill="#191970" stroke="#191970" points="359.9674,-244.4338 368.0481,-237.5815 357.4581,-237.899 359.9674,-244.4338"/>
</g>
<!-- Node4837&#45;&gt;Node4823 -->
<g id="edge13" class="edge">
<title>Node4837&#45;&gt;Node4823</title>
<path fill="none" stroke="#191970" d="M329.0353,-76.7226C337.8375,-75.3847 346.6784,-74.0409 354.8593,-72.7974"/>
<polygon fill="#191970" stroke="#191970" points="355.4556,-76.247 364.8161,-71.284 354.4036,-69.3265 355.4556,-76.247"/>
</g>
</g>
</svg>
