<?xml version="1.0" encoding="UTF-8" standalone="no"?>
<!DOCTYPE svg PUBLIC "-//W3C//DTD SVG 1.1//EN"
 "http://www.w3.org/Graphics/SVG/1.1/DTD/svg11.dtd">
<!-- Generated by graphviz version 2.40.1 (20161225.0304)
 -->
<!-- Title: bf_set_ui Pages: 1 -->
<svg width="1117pt" height="781pt"
 viewBox="0.00 0.00 1117.00 780.85" xmlns="http://www.w3.org/2000/svg" xmlns:xlink="http://www.w3.org/1999/xlink">
<g id="graph0" class="graph" transform="scale(1 1) rotate(0) translate(4 776.8484)">
<title>bf_set_ui</title>
<!-- Node525 -->
<g id="node1" class="node">
<title>Node525</title>
<polygon fill="#bfbfbf" stroke="#000000" points="0,-370.5 0,-389.5 56,-389.5 56,-370.5 0,-370.5"/>
<text text-anchor="middle" x="28" y="-377.5" font-family="Helvetica,sans-Serif" font-size="10.00" fill="#000000">bf_set_ui</text>
</g>
<!-- Node526 -->
<g id="node2" class="node">
<title>Node526</title>
<g id="a_node2"><a xlink:href="libbf_8c.html#a4a0919b7e170befaf75d114d48d350cc" target="_top" xlink:title="bf_asin_internal">
<polygon fill="none" stroke="#000000" points="807,-720.5 807,-739.5 892,-739.5 892,-720.5 807,-720.5"/>
<text text-anchor="middle" x="849.5" y="-727.5" font-family="Helvetica,sans-Serif" font-size="10.00" fill="#000000">bf_asin_internal</text>
</a>
</g>
</g>
<!-- Node525&#45;&gt;Node526 -->
<g id="edge1" class="edge">
<title>Node525&#45;&gt;Node526</title>
<path fill="none" stroke="#191970" d="M28.7935,-399.8896C31.8809,-466.8455 45.3383,-682.5119 92,-730 152.0515,-791.115 195.319,-768 281,-768 281,-768 281,-768 594,-768 671.1343,-768 759.9562,-750.8462 809.9408,-739.589"/>
<polygon fill="#191970" stroke="#191970" points="32.2733,-399.3455 28.3446,-389.5061 25.2799,-399.6479 32.2733,-399.3455"/>
</g>
<!-- Node529 -->
<g id="node5" class="node">
<title>Node529</title>
<g id="a_node5"><a xlink:href="libbf_8c.html#af760cf2a93bf130e8e44a62c7e7d0adf" target="_top" xlink:title="bf_atan2_internal">
<polygon fill="none" stroke="#000000" points="928,-644.5 928,-663.5 1019,-663.5 1019,-644.5 928,-644.5"/>
<text text-anchor="middle" x="973.5" y="-651.5" font-family="Helvetica,sans-Serif" font-size="10.00" fill="#000000">bf_atan2_internal</text>
</a>
</g>
</g>
<!-- Node525&#45;&gt;Node529 -->
<g id="edge4" class="edge">
<title>Node525&#45;&gt;Node529</title>
<path fill="none" stroke="#191970" d="M31.1012,-399.556C39.2295,-448.4266 62.5714,-574.0362 92,-603 154.0092,-664.0298 193.9955,-654 281,-654 281,-654 281,-654 728,-654 797.6862,-654 878.499,-654 927.8009,-654"/>
<polygon fill="#191970" stroke="#191970" points="34.5442,-398.9223 29.483,-389.6145 27.6351,-400.0469 34.5442,-398.9223"/>
</g>
<!-- Node531 -->
<g id="node7" class="node">
<title>Node531</title>
<g id="a_node7"><a xlink:href="libbf_8c.html#aa4b535a5b33344704c576607ab4f0463" target="_top" xlink:title="bf_atan_internal">
<polygon fill="none" stroke="#000000" points="685,-682.5 685,-701.5 771,-701.5 771,-682.5 685,-682.5"/>
<text text-anchor="middle" x="728" y="-689.5" font-family="Helvetica,sans-Serif" font-size="10.00" fill="#000000">bf_atan_internal</text>
</a>
</g>
</g>
<!-- Node525&#45;&gt;Node531 -->
<g id="edge6" class="edge">
<title>Node525&#45;&gt;Node531</title>
<path fill="none" stroke="#191970" d="M29.1447,-399.6767C33.2007,-462.2726 49.0248,-655.1427 92,-697 153.0848,-756.4958 195.7292,-730 281,-730 281,-730 281,-730 438.5,-730 532.4359,-730 556.3096,-726.2457 649,-711 663.6153,-708.5961 679.5315,-704.9678 693.2228,-701.5239"/>
<polygon fill="#191970" stroke="#191970" points="32.6304,-399.3356 28.5204,-389.5705 25.6437,-399.7673 32.6304,-399.3356"/>
</g>
<!-- Node533 -->
<g id="node9" class="node">
<title>Node533</title>
<g id="a_node9"><a xlink:href="libbf_8c.html#a829c2ed2112548096d41c6ceb017e542" target="_top" xlink:title="bf_const_log2_rec">
<polygon fill="none" stroke="#000000" points="92,-342.5 92,-361.5 188,-361.5 188,-342.5 92,-342.5"/>
<text text-anchor="middle" x="140" y="-349.5" font-family="Helvetica,sans-Serif" font-size="10.00" fill="#000000">bf_const_log2_rec</text>
</a>
</g>
</g>
<!-- Node525&#45;&gt;Node533 -->
<g id="edge10" class="edge">
<title>Node525&#45;&gt;Node533</title>
<path fill="none" stroke="#191970" d="M66.0028,-370.4993C77.4812,-367.6297 90.0885,-364.4779 101.5931,-361.6017"/>
<polygon fill="#191970" stroke="#191970" points="65.1149,-367.1135 56.2623,-372.9344 66.8127,-373.9045 65.1149,-367.1135"/>
</g>
<!-- Node542 -->
<g id="node11" class="node">
<title>Node542</title>
<g id="a_node11"><a xlink:href="libbf_8c.html#a11d2dea6becda91c288fd883eefc8e5c" target="_top" xlink:title="bf_const_pi_internal">
<polygon fill="none" stroke="#000000" points="386.5,-559.5 386.5,-578.5 490.5,-578.5 490.5,-559.5 386.5,-559.5"/>
<text text-anchor="middle" x="438.5" y="-566.5" font-family="Helvetica,sans-Serif" font-size="10.00" fill="#000000">bf_const_pi_internal</text>
</a>
</g>
</g>
<!-- Node525&#45;&gt;Node542 -->
<g id="edge13" class="edge">
<title>Node525&#45;&gt;Node542</title>
<path fill="none" stroke="#191970" d="M32.0539,-399.5165C41.4768,-443.0175 66.0378,-545.9218 92,-569 184.3943,-651.1308 351.731,-601.4032 414.1551,-578.588"/>
<polygon fill="#191970" stroke="#191970" points="35.4485,-398.6526 29.9463,-389.5985 28.6014,-400.1076 35.4485,-398.6526"/>
</g>
<!-- Node544 -->
<g id="node13" class="node">
<title>Node544</title>
<g id="a_node13"><a xlink:href="libbf_8c.html#ab769247f7a6429c42dfeba4f8334cb75" target="_top" xlink:title="bf_sincos">
<polygon fill="none" stroke="#ff0000" points="698.5,-474.5 698.5,-493.5 757.5,-493.5 757.5,-474.5 698.5,-474.5"/>
<text text-anchor="middle" x="728" y="-481.5" font-family="Helvetica,sans-Serif" font-size="10.00" fill="#000000">bf_sincos</text>
</a>
</g>
</g>
<!-- Node525&#45;&gt;Node544 -->
<g id="edge49" class="edge">
<title>Node525&#45;&gt;Node544</title>
<path fill="none" stroke="#191970" d="M39.8542,-397.9781C51.1972,-413.478 69.8303,-434.9076 92,-445 147.5641,-470.2946 580.2119,-480.9651 698.3056,-483.4241"/>
<polygon fill="#191970" stroke="#191970" points="42.6436,-395.8594 34.0463,-389.6676 36.9059,-399.8693 42.6436,-395.8594"/>
</g>
<!-- Node537 -->
<g id="node14" class="node">
<title>Node537</title>
<g id="a_node14"><a xlink:href="libbf_8h.html#a36f22f93ba4258209be035a63b80b87f" target="_top" xlink:title="bf_exp">
<polygon fill="none" stroke="#ff0000" points="258,-398.5 258,-417.5 304,-417.5 304,-398.5 258,-398.5"/>
<text text-anchor="middle" x="281" y="-405.5" font-family="Helvetica,sans-Serif" font-size="10.00" fill="#000000">bf_exp</text>
</a>
</g>
</g>
<!-- Node525&#45;&gt;Node537 -->
<g id="edge19" class="edge">
<title>Node525&#45;&gt;Node537</title>
<path fill="none" stroke="#191970" d="M44.7025,-396.9456C56.7058,-407.8564 73.9059,-421.0697 92,-427 149.5047,-445.8469 221.6788,-427.9128 257.9465,-416.2433"/>
<polygon fill="#191970" stroke="#191970" points="46.9324,-394.2361 37.2756,-389.8776 42.1067,-399.3069 46.9324,-394.2361"/>
</g>
<!-- Node536 -->
<g id="node15" class="node">
<title>Node536</title>
<g id="a_node15"><a xlink:href="libbf_8c.html#a157194b3c7faaa17e39ae78cd98c4385" target="_top" xlink:title="bf_exp_internal">
<polygon fill="none" stroke="#000000" points="98.5,-398.5 98.5,-417.5 181.5,-417.5 181.5,-398.5 98.5,-398.5"/>
<text text-anchor="middle" x="140" y="-405.5" font-family="Helvetica,sans-Serif" font-size="10.00" fill="#000000">bf_exp_internal</text>
</a>
</g>
</g>
<!-- Node525&#45;&gt;Node536 -->
<g id="edge20" class="edge">
<title>Node525&#45;&gt;Node536</title>
<path fill="none" stroke="#191970" d="M66.0028,-389.5007C77.4812,-392.3703 90.0885,-395.5221 101.5931,-398.3983"/>
<polygon fill="#191970" stroke="#191970" points="66.8127,-386.0955 56.2623,-387.0656 65.1149,-392.8865 66.8127,-386.0955"/>
</g>
<!-- Node551 -->
<g id="node16" class="node">
<title>Node551</title>
<g id="a_node16"><a xlink:href="libbf_8c.html#a9f41435b46d8ef0a2509a803a7c45950" target="_top" xlink:title="bf_integer_from_radix_rec">
<polygon fill="none" stroke="#000000" points="374,-304.5 374,-323.5 503,-323.5 503,-304.5 374,-304.5"/>
<text text-anchor="middle" x="438.5" y="-311.5" font-family="Helvetica,sans-Serif" font-size="10.00" fill="#000000">bf_integer_from_radix_rec</text>
</a>
</g>
</g>
<!-- Node525&#45;&gt;Node551 -->
<g id="edge22" class="edge">
<title>Node525&#45;&gt;Node551</title>
<path fill="none" stroke="#191970" d="M44.8101,-363.3682C56.8616,-352.5979 74.0751,-339.4236 92,-333 185.5795,-299.4649 302.4724,-301.2656 373.7514,-306.7833"/>
<polygon fill="#191970" stroke="#191970" points="42.273,-360.9484 37.3461,-370.3279 47.0468,-366.068 42.273,-360.9484"/>
</g>
<!-- Node541 -->
<g id="node18" class="node">
<title>Node541</title>
<g id="a_node18"><a xlink:href="libbf_8h.html#a4137b2308536cbc92addaeb3f0c79d35" target="_top" xlink:title="bf_log">
<polygon fill="none" stroke="#ff0000" points="259.5,-95.5 259.5,-114.5 302.5,-114.5 302.5,-95.5 259.5,-95.5"/>
<text text-anchor="middle" x="281" y="-102.5" font-family="Helvetica,sans-Serif" font-size="10.00" fill="#000000">bf_log</text>
</a>
</g>
</g>
<!-- Node525&#45;&gt;Node541 -->
<g id="edge25" class="edge">
<title>Node525&#45;&gt;Node541</title>
<path fill="none" stroke="#191970" d="M30.818,-360.2547C38.4206,-309.7437 60.8966,-177.7206 92,-148 138.3478,-103.7128 220.3749,-101.5264 259.3156,-103.3067"/>
<polygon fill="#191970" stroke="#191970" points="27.3422,-359.8342 29.3509,-370.2369 34.2679,-360.8521 27.3422,-359.8342"/>
</g>
<!-- Node540 -->
<g id="node19" class="node">
<title>Node540</title>
<g id="a_node19"><a xlink:href="libbf_8c.html#aab7bc918fdd8dbef25c31c6881c73fdd" target="_top" xlink:title="bf_log_internal">
<polygon fill="none" stroke="#000000" points="100,-76.5 100,-95.5 180,-95.5 180,-76.5 100,-76.5"/>
<text text-anchor="middle" x="140" y="-83.5" font-family="Helvetica,sans-Serif" font-size="10.00" fill="#000000">bf_log_internal</text>
</a>
</g>
</g>
<!-- Node525&#45;&gt;Node540 -->
<g id="edge26" class="edge">
<title>Node525&#45;&gt;Node540</title>
<path fill="none" stroke="#191970" d="M30.5055,-360.1292C37.8374,-304.6351 60.722,-149.4842 92,-110 96.8596,-103.8654 103.6981,-99.1726 110.6936,-95.636"/>
<polygon fill="#191970" stroke="#191970" points="26.9912,-360.0145 29.1796,-370.3809 33.9334,-360.9125 26.9912,-360.0145"/>
</g>
<!-- Node555 -->
<g id="node20" class="node">
<title>Node555</title>
<g id="a_node20"><a xlink:href="libbf_8h.html#acee0d550162528b5ca5513d4479549c2" target="_top" xlink:title="bf_mul_ui">
<polygon fill="none" stroke="#000000" points="110.5,-512.5 110.5,-531.5 169.5,-531.5 169.5,-512.5 110.5,-512.5"/>
<text text-anchor="middle" x="140" y="-519.5" font-family="Helvetica,sans-Serif" font-size="10.00" fill="#000000">bf_mul_ui</text>
</a>
</g>
</g>
<!-- Node525&#45;&gt;Node555 -->
<g id="edge28" class="edge">
<title>Node525&#45;&gt;Node555</title>
<path fill="none" stroke="#191970" d="M34.3626,-399.4484C43.5417,-424.9155 62.6847,-469.6456 92,-498 98.1612,-503.9592 106.0932,-508.7349 113.7276,-512.408"/>
<polygon fill="#191970" stroke="#191970" points="37.6095,-398.1279 31.0381,-389.8172 30.9926,-400.412 37.6095,-398.1279"/>
</g>
<!-- Node556 -->
<g id="node21" class="node">
<title>Node556</title>
<g id="a_node21"><a xlink:href="libbf_8c.html#a81e50b3d7e7a931a93d6ea7e1d630631" target="_top" xlink:title="chud_bs">
<polygon fill="none" stroke="#000000" points="254.5,-550.5 254.5,-569.5 307.5,-569.5 307.5,-550.5 254.5,-550.5"/>
<text text-anchor="middle" x="281" y="-557.5" font-family="Helvetica,sans-Serif" font-size="10.00" fill="#000000">chud_bs</text>
</a>
</g>
</g>
<!-- Node525&#45;&gt;Node556 -->
<g id="edge52" class="edge">
<title>Node525&#45;&gt;Node556</title>
<path fill="none" stroke="#191970" d="M29.4965,-399.9598C33.2813,-434.893 46.4799,-506.6595 92,-541 139.7827,-577.0474 214.8136,-571.5312 254.4371,-565.2678"/>
<polygon fill="#191970" stroke="#191970" points="32.9475,-399.2671 28.5408,-389.6322 25.9773,-399.9122 32.9475,-399.2671"/>
</g>
<!-- Node539 -->
<g id="node22" class="node">
<title>Node539</title>
<g id="a_node22"><a xlink:href="libbf_8h.html#a93fe073491f8c5f086a75e7bf8865b34" target="_top" xlink:title="bf_pow">
<polygon fill="none" stroke="#000000" points="414.5,-172.5 414.5,-191.5 462.5,-191.5 462.5,-172.5 414.5,-172.5"/>
<text text-anchor="middle" x="438.5" y="-179.5" font-family="Helvetica,sans-Serif" font-size="10.00" fill="#000000">bf_pow</text>
</a>
</g>
</g>
<!-- Node525&#45;&gt;Node539 -->
<g id="edge35" class="edge">
<title>Node525&#45;&gt;Node539</title>
<path fill="none" stroke="#191970" d="M31.5346,-360.5476C40.1017,-315.7561 63.3913,-207.5237 92,-186 190.5517,-111.855 353.46,-153.8928 414.4575,-173.585"/>
<polygon fill="#191970" stroke="#191970" points="28.0757,-360.0043 29.6795,-370.477 34.9566,-361.2899 28.0757,-360.0043"/>
</g>
<!-- Node557 -->
<g id="node23" class="node">
<title>Node557</title>
<g id="a_node23"><a xlink:href="libbf_8c.html#afb959ebe491ad24167b5eff3b811f211" target="_top" xlink:title="bf_pow_int">
<polygon fill="none" stroke="#000000" points="249,-190.5 249,-209.5 313,-209.5 313,-190.5 249,-190.5"/>
<text text-anchor="middle" x="281" y="-197.5" font-family="Helvetica,sans-Serif" font-size="10.00" fill="#000000">bf_pow_int</text>
</a>
</g>
</g>
<!-- Node525&#45;&gt;Node557 -->
<g id="edge36" class="edge">
<title>Node525&#45;&gt;Node557</title>
<path fill="none" stroke="#191970" d="M29.4965,-360.0402C33.2813,-325.107 46.4799,-253.3405 92,-219 137.6766,-184.5414 208.2522,-188.0632 248.9966,-193.9118"/>
<polygon fill="#191970" stroke="#191970" points="25.9773,-360.0878 28.5408,-370.3678 32.9475,-360.7329 25.9773,-360.0878"/>
</g>
<!-- Node558 -->
<g id="node24" class="node">
<title>Node558</title>
<g id="a_node24"><a xlink:href="libbf_8h.html#a113957d698d1dc9dae1e3d5325ba1f15" target="_top" xlink:title="bf_pow_ui">
<polygon fill="none" stroke="#000000" points="109.5,-228.5 109.5,-247.5 170.5,-247.5 170.5,-228.5 109.5,-228.5"/>
<text text-anchor="middle" x="140" y="-235.5" font-family="Helvetica,sans-Serif" font-size="10.00" fill="#000000">bf_pow_ui</text>
</a>
</g>
</g>
<!-- Node525&#45;&gt;Node558 -->
<g id="edge38" class="edge">
<title>Node525&#45;&gt;Node558</title>
<path fill="none" stroke="#191970" d="M34.3626,-360.5516C43.5417,-335.0845 62.6847,-290.3544 92,-262 98.1612,-256.0408 106.0932,-251.2651 113.7276,-247.592"/>
<polygon fill="#191970" stroke="#191970" points="30.9926,-359.588 31.0381,-370.1828 37.6095,-361.8721 30.9926,-359.588"/>
</g>
<!-- Node559 -->
<g id="node25" class="node">
<title>Node559</title>
<g id="a_node25"><a xlink:href="libbf_8h.html#a2f679fedbb75750ed2a1123c6d550831" target="_top" xlink:title="bf_pow_ui_ui">
<polygon fill="none" stroke="#ff0000" points="244,-266.5 244,-285.5 318,-285.5 318,-266.5 244,-266.5"/>
<text text-anchor="middle" x="281" y="-273.5" font-family="Helvetica,sans-Serif" font-size="10.00" fill="#000000">bf_pow_ui_ui</text>
</a>
</g>
</g>
<!-- Node525&#45;&gt;Node559 -->
<g id="edge46" class="edge">
<title>Node525&#45;&gt;Node559</title>
<path fill="none" stroke="#191970" d="M37.259,-361.4905C47.7641,-342.6147 66.7687,-314.1525 92,-300 139.3104,-273.4631 203.57,-271.077 243.6465,-272.7892"/>
<polygon fill="#191970" stroke="#191970" points="34.1477,-359.8869 32.5522,-370.3609 40.3311,-363.1679 34.1477,-359.8869"/>
</g>
<!-- Node566 -->
<g id="node28" class="node">
<title>Node566</title>
<g id="a_node28"><a xlink:href="libbf_8h.html#a6ffae8e39e8ba06fd097c4adc301ba6e" target="_top" xlink:title="bf_set_si">
<polygon fill="none" stroke="#ff0000" points="566,-682.5 566,-701.5 622,-701.5 622,-682.5 566,-682.5"/>
<text text-anchor="middle" x="594" y="-689.5" font-family="Helvetica,sans-Serif" font-size="10.00" fill="#000000">bf_set_si</text>
</a>
</g>
</g>
<!-- Node525&#45;&gt;Node566 -->
<g id="edge47" class="edge">
<title>Node525&#45;&gt;Node566</title>
<path fill="none" stroke="#191970" d="M29.3797,-399.9975C33.9278,-459.4464 50.5891,-633.1236 92,-668 163.9092,-728.5621 470.4808,-704.1692 565.6821,-694.9353"/>
<polygon fill="#191970" stroke="#191970" points="32.8473,-399.4242 28.6279,-389.7058 25.8659,-399.9342 32.8473,-399.4242"/>
</g>
<!-- Node581 -->
<g id="node29" class="node">
<title>Node581</title>
<g id="a_node29"><a xlink:href="libbf_8h.html#ae080fd42a2c7fc561d7084762204357e" target="_top" xlink:title="bf_sqrtrem">
<polygon fill="none" stroke="#ff0000" points="108.5,-38.5 108.5,-57.5 171.5,-57.5 171.5,-38.5 108.5,-38.5"/>
<text text-anchor="middle" x="140" y="-45.5" font-family="Helvetica,sans-Serif" font-size="10.00" fill="#000000">bf_sqrtrem</text>
</a>
</g>
</g>
<!-- Node525&#45;&gt;Node581 -->
<g id="edge50" class="edge">
<title>Node525&#45;&gt;Node581</title>
<path fill="none" stroke="#191970" d="M29.6141,-360.1198C34.9826,-298.5133 54.0842,-112.2176 92,-67 96.2614,-61.918 102.0699,-58.1864 108.175,-55.4492"/>
<polygon fill="#191970" stroke="#191970" points="26.0994,-360.1474 28.7459,-370.4064 33.0746,-360.7362 26.0994,-360.1474"/>
</g>
<!-- Node573 -->
<g id="node30" class="node">
<title>Node573</title>
<g id="a_node30"><a xlink:href="libbf_8c.html#a4f1865c8160fb851cce8015c3edb4d4f" target="_top" xlink:title="bf_tdivremu">
<polygon fill="none" stroke="#ff0000" points="106,-.5 106,-19.5 174,-19.5 174,-.5 106,-.5"/>
<text text-anchor="middle" x="140" y="-7.5" font-family="Helvetica,sans-Serif" font-size="10.00" fill="#000000">bf_tdivremu</text>
</a>
</g>
</g>
<!-- Node525&#45;&gt;Node573 -->
<g id="edge51" class="edge">
<title>Node525&#45;&gt;Node573</title>
<path fill="none" stroke="#191970" d="M29.1438,-359.9155C33.316,-293.2323 49.7455,-80.498 92,-29 95.6384,-24.5657 100.4576,-21.161 105.6398,-18.5483"/>
<polygon fill="#191970" stroke="#191970" points="25.6272,-360.0891 28.5219,-370.2808 32.6146,-360.5084 25.6272,-360.0891"/>
</g>
<!-- Node527 -->
<g id="node3" class="node">
<title>Node527</title>
<g id="a_node3"><a xlink:href="libbf_8h.html#a45cd74dd3a694c26e716762b7fd36955" target="_top" xlink:title="bf_acos">
<polygon fill="none" stroke="#000000" points="948,-739.5 948,-758.5 999,-758.5 999,-739.5 948,-739.5"/>
<text text-anchor="middle" x="973.5" y="-746.5" font-family="Helvetica,sans-Serif" font-size="10.00" fill="#000000">bf_acos</text>
</a>
</g>
</g>
<!-- Node526&#45;&gt;Node527 -->
<g id="edge2" class="edge">
<title>Node526&#45;&gt;Node527</title>
<path fill="none" stroke="#191970" d="M902.3468,-738.0975C918.07,-740.5067 934.5963,-743.0389 947.7601,-745.056"/>
<polygon fill="#191970" stroke="#191970" points="902.5885,-734.5938 892.1738,-736.5387 901.5283,-741.513 902.5885,-734.5938"/>
</g>
<!-- Node528 -->
<g id="node4" class="node">
<title>Node528</title>
<g id="a_node4"><a xlink:href="libbf_8h.html#a8ee86879e3da22442956f47356855edd" target="_top" xlink:title="bf_asin">
<polygon fill="none" stroke="#000000" points="949.5,-701.5 949.5,-720.5 997.5,-720.5 997.5,-701.5 949.5,-701.5"/>
<text text-anchor="middle" x="973.5" y="-708.5" font-family="Helvetica,sans-Serif" font-size="10.00" fill="#000000">bf_asin</text>
</a>
</g>
</g>
<!-- Node526&#45;&gt;Node528 -->
<g id="edge3" class="edge">
<title>Node526&#45;&gt;Node528</title>
<path fill="none" stroke="#191970" d="M902.1971,-721.9254C918.5457,-719.4204 935.7774,-716.7801 949.2049,-714.7226"/>
<polygon fill="#191970" stroke="#191970" points="901.5283,-718.487 892.1738,-723.4613 902.5885,-725.4062 901.5283,-718.487"/>
</g>
<!-- Node530 -->
<g id="node6" class="node">
<title>Node530</title>
<g id="a_node6"><a xlink:href="libbf_8h.html#a78e29a7f1f858b99cbf3a0f97382c233" target="_top" xlink:title="bf_atan2">
<polygon fill="none" stroke="#000000" points="1055,-644.5 1055,-663.5 1109,-663.5 1109,-644.5 1055,-644.5"/>
<text text-anchor="middle" x="1082" y="-651.5" font-family="Helvetica,sans-Serif" font-size="10.00" fill="#000000">bf_atan2</text>
</a>
</g>
</g>
<!-- Node529&#45;&gt;Node530 -->
<g id="edge5" class="edge">
<title>Node529&#45;&gt;Node530</title>
<path fill="none" stroke="#191970" d="M1029.2562,-654C1038.1891,-654 1047.0674,-654 1054.9215,-654"/>
<polygon fill="#191970" stroke="#191970" points="1029.1993,-650.5001 1019.1993,-654 1029.1993,-657.5001 1029.1993,-650.5001"/>
</g>
<!-- Node531&#45;&gt;Node526 -->
<g id="edge7" class="edge">
<title>Node531&#45;&gt;Node526</title>
<path fill="none" stroke="#191970" d="M768.544,-704.6804C784.9606,-709.8148 803.5989,-715.6441 818.8502,-720.4141"/>
<polygon fill="#191970" stroke="#191970" points="769.2485,-701.2336 758.6596,-701.589 767.1589,-707.9145 769.2485,-701.2336"/>
</g>
<!-- Node532 -->
<g id="node8" class="node">
<title>Node532</title>
<g id="a_node8"><a xlink:href="libbf_8h.html#a0bb2c5b98e3f978b84df9849c7ec50d6" target="_top" xlink:title="bf_atan">
<polygon fill="none" stroke="#000000" points="825,-682.5 825,-701.5 874,-701.5 874,-682.5 825,-682.5"/>
<text text-anchor="middle" x="849.5" y="-689.5" font-family="Helvetica,sans-Serif" font-size="10.00" fill="#000000">bf_atan</text>
</a>
</g>
</g>
<!-- Node531&#45;&gt;Node532 -->
<g id="edge8" class="edge">
<title>Node531&#45;&gt;Node532</title>
<path fill="none" stroke="#191970" d="M781.4982,-692C796.6123,-692 812.334,-692 824.8486,-692"/>
<polygon fill="#191970" stroke="#191970" points="781.1785,-688.5001 771.1785,-692 781.1784,-695.5001 781.1785,-688.5001"/>
</g>
<!-- Node532&#45;&gt;Node529 -->
<g id="edge9" class="edge">
<title>Node532&#45;&gt;Node529</title>
<path fill="none" stroke="#191970" d="M883.9564,-681.4408C902.1811,-675.8558 924.3911,-669.0495 942.1319,-663.6128"/>
<polygon fill="#191970" stroke="#191970" points="882.8308,-678.125 874.2952,-684.4015 884.8819,-684.8178 882.8308,-678.125"/>
</g>
<!-- Node533&#45;&gt;Node533 -->
<g id="edge12" class="edge">
<title>Node533&#45;&gt;Node533</title>
<path fill="none" stroke="#191970" d="M119.2603,-371.4C120.6454,-376.3146 127.5586,-380 140,-380 159.9063,-380 165.6604,-370.5653 157.2625,-361.7571"/>
<polygon fill="#191970" stroke="#191970" points="122.6378,-372.3514 122.7375,-361.7571 116.0528,-369.9768 122.6378,-372.3514"/>
</g>
<!-- Node534 -->
<g id="node10" class="node">
<title>Node534</title>
<g id="a_node10"><a xlink:href="libbf_8c.html#ae2d577a0090338aba89d1bfa786d6a7a" target="_top" xlink:title="bf_const_log2_internal">
<polygon fill="none" stroke="#ff0000" points="224,-342.5 224,-361.5 338,-361.5 338,-342.5 224,-342.5"/>
<text text-anchor="middle" x="281" y="-349.5" font-family="Helvetica,sans-Serif" font-size="10.00" fill="#000000">bf_const_log2_internal</text>
</a>
</g>
</g>
<!-- Node533&#45;&gt;Node534 -->
<g id="edge11" class="edge">
<title>Node533&#45;&gt;Node534</title>
<path fill="none" stroke="#191970" d="M198.2798,-352C206.727,-352 215.4156,-352 223.8405,-352"/>
<polygon fill="#191970" stroke="#191970" points="198.1299,-348.5001 188.1298,-352 198.1298,-355.5001 198.1299,-348.5001"/>
</g>
<!-- Node543 -->
<g id="node12" class="node">
<title>Node543</title>
<g id="a_node12"><a xlink:href="libbf_8h.html#aff86bca731f3c8ffe45f0f1129175961" target="_top" xlink:title="bf_const_pi">
<polygon fill="none" stroke="#000000" points="560.5,-568.5 560.5,-587.5 627.5,-587.5 627.5,-568.5 560.5,-568.5"/>
<text text-anchor="middle" x="594" y="-575.5" font-family="Helvetica,sans-Serif" font-size="10.00" fill="#000000">bf_const_pi</text>
</a>
</g>
</g>
<!-- Node542&#45;&gt;Node543 -->
<g id="edge14" class="edge">
<title>Node542&#45;&gt;Node543</title>
<path fill="none" stroke="#191970" d="M500.8395,-572.6081C521.1229,-573.782 542.8641,-575.0404 560.2379,-576.0459"/>
<polygon fill="#191970" stroke="#191970" points="500.8974,-569.1057 490.7118,-572.0219 500.4929,-576.094 500.8974,-569.1057"/>
</g>
<!-- Node543&#45;&gt;Node526 -->
<g id="edge18" class="edge">
<title>Node543&#45;&gt;Node526</title>
<path fill="none" stroke="#191970" d="M626.4778,-591.6196C663.4486,-607.9589 724.7034,-637.6217 771,-673 789.4851,-687.1257 788.0172,-697.5506 807,-711 812.012,-714.5511 817.7939,-717.6682 823.4468,-720.2962"/>
<polygon fill="#191970" stroke="#191970" points="627.7417,-588.3525 617.1763,-587.5639 624.9439,-594.769 627.7417,-588.3525"/>
</g>
<!-- Node543&#45;&gt;Node529 -->
<g id="edge17" class="edge">
<title>Node543&#45;&gt;Node529</title>
<path fill="none" stroke="#191970" d="M637.8219,-586.7759C710.2029,-601.2712 854.0398,-630.0765 927.6998,-644.8279"/>
<polygon fill="#191970" stroke="#191970" points="638.1707,-583.2764 627.6781,-584.7445 636.7961,-590.1401 638.1707,-583.2764"/>
</g>
<!-- Node543&#45;&gt;Node531 -->
<g id="edge16" class="edge">
<title>Node543&#45;&gt;Node531</title>
<path fill="none" stroke="#191970" d="M613.0509,-594.2075C641.3406,-618.2749 693.5868,-662.7231 716.6042,-682.305"/>
<polygon fill="#191970" stroke="#191970" points="615.3093,-591.5336 605.4248,-587.7196 610.7734,-596.8652 615.3093,-591.5336"/>
</g>
<!-- Node543&#45;&gt;Node544 -->
<g id="edge15" class="edge">
<title>Node543&#45;&gt;Node544</title>
<path fill="none" stroke="#191970" d="M616.1832,-562.4387C644.1443,-542.8242 691.3381,-509.718 714.4392,-493.5128"/>
<polygon fill="#191970" stroke="#191970" points="614.0122,-559.6862 607.8356,-568.2944 618.0322,-565.4168 614.0122,-559.6862"/>
</g>
<!-- Node536&#45;&gt;Node537 -->
<g id="edge21" class="edge">
<title>Node536&#45;&gt;Node537</title>
<path fill="none" stroke="#191970" d="M191.7167,-408C214.3697,-408 239.8136,-408 257.7266,-408"/>
<polygon fill="#191970" stroke="#191970" points="191.5421,-404.5001 181.542,-408 191.542,-411.5001 191.5421,-404.5001"/>
</g>
<!-- Node551&#45;&gt;Node551 -->
<g id="edge24" class="edge">
<title>Node551&#45;&gt;Node551</title>
<path fill="none" stroke="#191970" d="M409.7542,-332.6539C410.9558,-337.9368 420.5377,-342 438.5,-342 465.8711,-342 473.7831,-332.5653 462.2359,-323.7571"/>
<polygon fill="#191970" stroke="#191970" points="412.9072,-334.1879 414.7641,-323.7571 406.8077,-330.7532 412.9072,-334.1879"/>
</g>
<!-- Node552 -->
<g id="node17" class="node">
<title>Node552</title>
<g id="a_node17"><a xlink:href="libbf_8c.html#a0bf05f50640dc8837693199c565dcc47" target="_top" xlink:title="bf_integer_from_radix">
<polygon fill="none" stroke="#ff0000" points="539,-304.5 539,-323.5 649,-323.5 649,-304.5 539,-304.5"/>
<text text-anchor="middle" x="594" y="-311.5" font-family="Helvetica,sans-Serif" font-size="10.00" fill="#000000">bf_integer_from_radix</text>
</a>
</g>
</g>
<!-- Node551&#45;&gt;Node552 -->
<g id="edge23" class="edge">
<title>Node551&#45;&gt;Node552</title>
<path fill="none" stroke="#191970" d="M513.1669,-314C521.7881,-314 530.4599,-314 538.7575,-314"/>
<polygon fill="#191970" stroke="#191970" points="513.0951,-310.5001 503.0951,-314 513.0951,-317.5001 513.0951,-310.5001"/>
</g>
<!-- Node540&#45;&gt;Node541 -->
<g id="edge27" class="edge">
<title>Node540&#45;&gt;Node541</title>
<path fill="none" stroke="#191970" d="M189.9547,-92.7315C213.6861,-95.9293 240.8207,-99.5858 259.2489,-102.069"/>
<polygon fill="#191970" stroke="#191970" points="190.4057,-89.2607 180.0278,-91.3938 189.4708,-96.198 190.4057,-89.2607"/>
</g>
<!-- Node555&#45;&gt;Node542 -->
<g id="edge32" class="edge">
<title>Node555&#45;&gt;Node542</title>
<path fill="none" stroke="#191970" d="M179.9371,-523.7655C220.1319,-526.0255 283.7698,-530.9248 338,-541 362.3966,-545.5325 389.4636,-553.2328 409.3559,-559.4123"/>
<polygon fill="#191970" stroke="#191970" points="179.9191,-520.2597 169.7466,-523.2211 179.5456,-527.2497 179.9191,-520.2597"/>
</g>
<!-- Node555&#45;&gt;Node544 -->
<g id="edge34" class="edge">
<title>Node555&#45;&gt;Node544</title>
<path fill="none" stroke="#191970" d="M179.6348,-519.4386C290.3138,-512.2858 600.9443,-492.2111 698.3792,-485.9143"/>
<polygon fill="#191970" stroke="#191970" points="179.3154,-515.9518 169.562,-520.0895 179.7669,-522.9372 179.3154,-515.9518"/>
</g>
<!-- Node555&#45;&gt;Node537 -->
<g id="edge33" class="edge">
<title>Node555&#45;&gt;Node537</title>
<path fill="none" stroke="#191970" d="M160.0461,-505.7925C189.8136,-481.7251 244.7891,-437.2769 269.0088,-417.695"/>
<polygon fill="#191970" stroke="#191970" points="157.5974,-503.2715 152.0216,-512.2804 161.9984,-508.7149 157.5974,-503.2715"/>
</g>
<!-- Node555&#45;&gt;Node556 -->
<g id="edge29" class="edge">
<title>Node555&#45;&gt;Node556</title>
<path fill="none" stroke="#191970" d="M179.397,-532.6176C203.3069,-539.0614 233.1866,-547.1141 254.3378,-552.8145"/>
<polygon fill="#191970" stroke="#191970" points="180.1245,-529.1889 169.5582,-529.966 178.3029,-535.9477 180.1245,-529.1889"/>
</g>
<!-- Node556&#45;&gt;Node542 -->
<g id="edge30" class="edge">
<title>Node556&#45;&gt;Node542</title>
<path fill="none" stroke="#191970" d="M317.8668,-562.1067C338.285,-563.2734 364.0013,-564.7429 386.4392,-566.0251"/>
<polygon fill="#191970" stroke="#191970" points="317.9011,-558.603 307.7177,-561.5267 317.5017,-565.5916 317.9011,-558.603"/>
</g>
<!-- Node556&#45;&gt;Node556 -->
<g id="edge31" class="edge">
<title>Node556&#45;&gt;Node556</title>
<path fill="none" stroke="#191970" d="M254.9584,-579.0292C256.3789,-584.128 265.0594,-588 281,-588 305.8828,-588 313.0755,-578.5653 302.5781,-569.7571"/>
<polygon fill="#191970" stroke="#191970" points="258.238,-580.2855 259.4219,-569.7571 251.9308,-577.2493 258.238,-580.2855"/>
</g>
<!-- Node557&#45;&gt;Node539 -->
<g id="edge37" class="edge">
<title>Node557&#45;&gt;Node539</title>
<path fill="none" stroke="#191970" d="M323.5159,-195.141C352.5116,-191.8272 389.8882,-187.5556 414.023,-184.7974"/>
<polygon fill="#191970" stroke="#191970" points="322.7904,-191.7011 313.2525,-196.314 323.5853,-198.6558 322.7904,-191.7011"/>
</g>
<!-- Node558&#45;&gt;Node539 -->
<g id="edge45" class="edge">
<title>Node558&#45;&gt;Node539</title>
<path fill="none" stroke="#191970" d="M180.8958,-238.4131C221.5099,-237.8214 285.1772,-234.1698 338,-219 355.1936,-214.0623 357.355,-207.5531 374,-201 387.0346,-195.8683 402.0216,-191.3728 414.2666,-188.0446"/>
<polygon fill="#191970" stroke="#191970" points="180.804,-234.9137 170.8359,-238.5037 180.8671,-241.9134 180.804,-234.9137"/>
</g>
<!-- Node558&#45;&gt;Node557 -->
<g id="edge44" class="edge">
<title>Node558&#45;&gt;Node557</title>
<path fill="none" stroke="#191970" d="M180.5336,-227.0761C202.283,-221.2145 228.7074,-214.093 248.9967,-208.625"/>
<polygon fill="#191970" stroke="#191970" points="179.3396,-223.7729 170.5949,-229.7546 181.1612,-230.5317 179.3396,-223.7729"/>
</g>
<!-- Node558&#45;&gt;Node559 -->
<g id="edge39" class="edge">
<title>Node558&#45;&gt;Node559</title>
<path fill="none" stroke="#191970" d="M180.3458,-248.8733C200.987,-254.4362 225.8775,-261.1443 245.7423,-266.4979"/>
<polygon fill="#191970" stroke="#191970" points="181.1612,-245.4683 170.5949,-246.2454 179.3396,-252.2271 181.1612,-245.4683"/>
</g>
<!-- Node559&#45;&gt;Node551 -->
<g id="edge40" class="edge">
<title>Node559&#45;&gt;Node551</title>
<path fill="none" stroke="#191970" d="M328.0538,-287.3527C350.6549,-292.8056 377.4369,-299.2673 398.9673,-304.462"/>
<polygon fill="#191970" stroke="#191970" points="328.8673,-283.9486 318.3253,-285.0055 327.2255,-290.7533 328.8673,-283.9486"/>
</g>
<!-- Node560 -->
<g id="node26" class="node">
<title>Node560</title>
<g id="a_node26"><a xlink:href="libbf_8h.html#a0b4d56fc6808de8feed2a234525df692" target="_top" xlink:title="bf_mul_pow_radix">
<polygon fill="none" stroke="#ff0000" points="391,-266.5 391,-285.5 486,-285.5 486,-266.5 391,-266.5"/>
<text text-anchor="middle" x="438.5" y="-273.5" font-family="Helvetica,sans-Serif" font-size="10.00" fill="#000000">bf_mul_pow_radix</text>
</a>
</g>
</g>
<!-- Node559&#45;&gt;Node560 -->
<g id="edge41" class="edge">
<title>Node559&#45;&gt;Node560</title>
<path fill="none" stroke="#191970" d="M328.3626,-276C348.1731,-276 371.1522,-276 390.9795,-276"/>
<polygon fill="#191970" stroke="#191970" points="328.3253,-272.5001 318.3253,-276 328.3253,-279.5001 328.3253,-272.5001"/>
</g>
<!-- Node562 -->
<g id="node27" class="node">
<title>Node562</title>
<g id="a_node27"><a xlink:href="libbf_8c.html#a7cdab316b6ccee264a2effe61e1a6a27" target="_top" xlink:title="bf_integer_to_radix_rec">
<polygon fill="none" stroke="#ff0000" points="379.5,-210.5 379.5,-229.5 497.5,-229.5 497.5,-210.5 379.5,-210.5"/>
<text text-anchor="middle" x="438.5" y="-217.5" font-family="Helvetica,sans-Serif" font-size="10.00" fill="#000000">bf_integer_to_radix_rec</text>
</a>
</g>
</g>
<!-- Node559&#45;&gt;Node562 -->
<g id="edge42" class="edge">
<title>Node559&#45;&gt;Node562</title>
<path fill="none" stroke="#191970" d="M317.7787,-262.9231C346.5705,-252.686 385.9375,-238.6889 411.7781,-229.5011"/>
<polygon fill="#191970" stroke="#191970" points="316.3248,-259.7253 308.0752,-266.3733 318.6699,-266.3208 316.3248,-259.7253"/>
</g>
<!-- Node562&#45;&gt;Node562 -->
<g id="edge43" class="edge">
<title>Node562&#45;&gt;Node562</title>
<path fill="none" stroke="#191970" d="M409.7542,-238.6539C410.9558,-243.9368 420.5377,-248 438.5,-248 465.8711,-248 473.7831,-238.5653 462.2359,-229.7571"/>
<polygon fill="#191970" stroke="#191970" points="412.9072,-240.1879 414.7641,-229.7571 406.8077,-236.7532 412.9072,-240.1879"/>
</g>
<!-- Node566&#45;&gt;Node531 -->
<g id="edge48" class="edge">
<title>Node566&#45;&gt;Node531</title>
<path fill="none" stroke="#191970" d="M632.4085,-692C648.8078,-692 668.02,-692 684.9022,-692"/>
<polygon fill="#191970" stroke="#191970" points="632.0908,-688.5001 622.0908,-692 632.0908,-695.5001 632.0908,-688.5001"/>
</g>
</g>
</svg>
