<?xml version="1.0" encoding="UTF-8" standalone="no"?>
<!DOCTYPE svg PUBLIC "-//W3C//DTD SVG 1.1//EN"
 "http://www.w3.org/Graphics/SVG/1.1/DTD/svg11.dtd">
<!-- Generated by graphviz version 2.40.1 (20161225.0304)
 -->
<!-- Title: lre_js_is_ident_next Pages: 1 -->
<svg width="1986pt" height="1624pt"
 viewBox="0.00 0.00 1986.00 1623.54" xmlns="http://www.w3.org/2000/svg" xmlns:xlink="http://www.w3.org/1999/xlink">
<g id="graph0" class="graph" transform="scale(1 1) rotate(0) translate(4 1619.5374)">
<title>lre_js_is_ident_next</title>
<!-- Node888 -->
<g id="node1" class="node">
<title>Node888</title>
<polygon fill="#bfbfbf" stroke="#000000" points="0,-549.192 0,-568.192 103,-568.192 103,-549.192 0,-549.192"/>
<text text-anchor="middle" x="51.5" y="-556.192" font-family="Helvetica,sans-Serif" font-size="10.00" fill="#000000">lre_js_is_ident_next</text>
</g>
<!-- Node889 -->
<g id="node2" class="node">
<title>Node889</title>
<g id="a_node2"><a xlink:href="quickjs_8c.html#acb789e8ccb230adfd9262642ff338177" target="_top" xlink:title="js_parse_regexp">
<polygon fill="none" stroke="#000000" points="298.5,-359.192 298.5,-378.192 386.5,-378.192 386.5,-359.192 298.5,-359.192"/>
<text text-anchor="middle" x="342.5" y="-366.192" font-family="Helvetica,sans-Serif" font-size="10.00" fill="#000000">js_parse_regexp</text>
</a>
</g>
</g>
<!-- Node888&#45;&gt;Node889 -->
<g id="edge1" class="edge">
<title>Node888&#45;&gt;Node889</title>
<path fill="none" stroke="#191970" d="M88.0382,-571.1144C132.0273,-583.5474 205.745,-595.9911 252,-558.692 310.7667,-511.3039 240.2511,-451.166 288,-392.692 293.1005,-386.4459 300.1524,-381.7779 307.493,-378.3063"/>
<polygon fill="#191970" stroke="#191970" points="88.9094,-567.7221 78.3269,-568.2327 86.918,-574.4329 88.9094,-567.7221"/>
</g>
<!-- Node921 -->
<g id="node21" class="node">
<title>Node921</title>
<g id="a_node21"><a xlink:href="quickjs_8c.html#a75a3798e2045f6e403c1ef467126d1fb" target="_top" xlink:title="next_token">
<polygon fill="none" stroke="#ff0000" points="163,-856.192 163,-875.192 228,-875.192 228,-856.192 163,-856.192"/>
<text text-anchor="middle" x="195.5" y="-863.192" font-family="Helvetica,sans-Serif" font-size="10.00" fill="#000000">next_token</text>
</a>
</g>
</g>
<!-- Node888&#45;&gt;Node921 -->
<g id="edge50" class="edge">
<title>Node888&#45;&gt;Node921</title>
<path fill="none" stroke="#191970" d="M60.2589,-577.3656C87.5687,-635.5885 170.5581,-812.5172 190.9419,-855.9743"/>
<polygon fill="#191970" stroke="#191970" points="63.3829,-575.7838 55.9675,-568.2166 57.0455,-578.7564 63.3829,-575.7838"/>
</g>
<!-- Node933 -->
<g id="node29" class="node">
<title>Node933</title>
<g id="a_node29"><a xlink:href="libregexp_8c.html#a6e0ee9170c3faaca126dbcc40c07aed7" target="_top" xlink:title="re_parse_group_name">
<polygon fill="none" stroke="#ff0000" points="139,-530.192 139,-549.192 252,-549.192 252,-530.192 139,-530.192"/>
<text text-anchor="middle" x="195.5" y="-537.192" font-family="Helvetica,sans-Serif" font-size="10.00" fill="#000000">re_parse_group_name</text>
</a>
</g>
</g>
<!-- Node888&#45;&gt;Node933 -->
<g id="edge99" class="edge">
<title>Node888&#45;&gt;Node933</title>
<path fill="none" stroke="#191970" d="M113.0393,-550.5723C121.6277,-549.4391 130.419,-548.2791 138.9103,-547.1587"/>
<polygon fill="#191970" stroke="#191970" points="112.5368,-547.1081 103.0806,-551.8863 113.4525,-554.048 112.5368,-547.1081"/>
</g>
<!-- Node946 -->
<g id="node30" class="node">
<title>Node946</title>
<g id="a_node30"><a xlink:href="quickjs_8c.html#abd9d73eefa041a1741277e91ed026746" target="_top" xlink:title="simple_next_token">
<polygon fill="none" stroke="#ff0000" points="146.5,-492.192 146.5,-511.192 244.5,-511.192 244.5,-492.192 146.5,-492.192"/>
<text text-anchor="middle" x="195.5" y="-499.192" font-family="Helvetica,sans-Serif" font-size="10.00" fill="#000000">simple_next_token</text>
</a>
</g>
</g>
<!-- Node888&#45;&gt;Node946 -->
<g id="edge100" class="edge">
<title>Node888&#45;&gt;Node946</title>
<path fill="none" stroke="#191970" d="M81.4513,-544.9307C98.2292,-537.4131 119.6165,-528.1446 139,-520.692 147.5003,-517.4238 156.8329,-514.1574 165.4212,-511.2777"/>
<polygon fill="#191970" stroke="#191970" points="79.8293,-541.8228 72.1553,-549.1277 82.7097,-548.2027 79.8293,-541.8228"/>
</g>
<!-- Node890 -->
<g id="node3" class="node">
<title>Node890</title>
<g id="a_node3"><a xlink:href="quickjs_8c.html#ac00298085baf11a4a7bd600cf5de2e6d" target="_top" xlink:title="js_parse_skip_parens\l_token">
<polygon fill="none" stroke="#000000" points="446.5,-369.692 446.5,-399.692 557.5,-399.692 557.5,-369.692 446.5,-369.692"/>
<text text-anchor="start" x="454.5" y="-387.692" font-family="Helvetica,sans-Serif" font-size="10.00" fill="#000000">js_parse_skip_parens</text>
<text text-anchor="middle" x="502" y="-376.692" font-family="Helvetica,sans-Serif" font-size="10.00" fill="#000000">_token</text>
</a>
</g>
</g>
<!-- Node889&#45;&gt;Node890 -->
<g id="edge2" class="edge">
<title>Node889&#45;&gt;Node890</title>
<path fill="none" stroke="#191970" d="M396.7805,-374.1371C412.7984,-375.7439 430.3478,-377.5044 446.4447,-379.1191"/>
<polygon fill="#191970" stroke="#191970" points="396.8057,-370.6221 386.5063,-373.1065 396.107,-377.5872 396.8057,-370.6221"/>
</g>
<!-- Node892 -->
<g id="node5" class="node">
<title>Node892</title>
<g id="a_node5"><a xlink:href="quickjs_8c.html#acdcc62310b4f6f73fa7bc7267b18b1d4" target="_top" xlink:title="js_parse_postfix_expr">
<polygon fill="none" stroke="#000000" points="750,-780.192 750,-799.192 862,-799.192 862,-780.192 750,-780.192"/>
<text text-anchor="middle" x="806" y="-787.192" font-family="Helvetica,sans-Serif" font-size="10.00" fill="#000000">js_parse_postfix_expr</text>
</a>
</g>
</g>
<!-- Node889&#45;&gt;Node892 -->
<g id="edge49" class="edge">
<title>Node889&#45;&gt;Node892</title>
<path fill="none" stroke="#191970" d="M350.7691,-387.7124C364.7336,-418.4761 395.1983,-480.0997 433,-523.692 543.4694,-651.0834 726.7739,-749.9032 786.5214,-780.1093"/>
<polygon fill="#191970" stroke="#191970" points="353.7979,-385.9097 346.5329,-378.198 347.4031,-388.757 353.7979,-385.9097"/>
</g>
<!-- Node891 -->
<g id="node4" class="node">
<title>Node891</title>
<g id="a_node4"><a xlink:href="quickjs_8c.html#aff9f2e2a1548acfc8307a4070bb444ec" target="_top" xlink:title="js_parse_destructing\l_element">
<polygon fill="none" stroke="#ff0000" points="607,-451.692 607,-481.692 714,-481.692 714,-451.692 607,-451.692"/>
<text text-anchor="start" x="615" y="-469.692" font-family="Helvetica,sans-Serif" font-size="10.00" fill="#000000">js_parse_destructing</text>
<text text-anchor="middle" x="660.5" y="-458.692" font-family="Helvetica,sans-Serif" font-size="10.00" fill="#000000">_element</text>
</a>
</g>
</g>
<!-- Node890&#45;&gt;Node891 -->
<g id="edge3" class="edge">
<title>Node890&#45;&gt;Node891</title>
<path fill="none" stroke="#191970" d="M548.1601,-403.8753C555.8583,-407.3266 563.7074,-411.0038 571,-414.692 593.6111,-426.1274 618.4654,-440.7407 636.2325,-451.5623"/>
<polygon fill="#191970" stroke="#191970" points="549.4549,-400.6211 538.8926,-399.7918 546.6324,-407.0269 549.4549,-400.6211"/>
</g>
<!-- Node890&#45;&gt;Node892 -->
<g id="edge45" class="edge">
<title>Node890&#45;&gt;Node892</title>
<path fill="none" stroke="#191970" d="M529.5942,-406.5617C543.0011,-417.9782 558.8068,-432.675 571,-447.692 590.8433,-472.1309 588.1681,-483.4656 607,-508.692 648.763,-564.636 672.9983,-567.1877 714,-623.692 754.0575,-678.8952 789.4863,-753.3593 801.5813,-779.8426"/>
<polygon fill="#191970" stroke="#191970" points="531.5319,-403.6203 521.6102,-399.9038 527.0487,-408.9963 531.5319,-403.6203"/>
</g>
<!-- Node894 -->
<g id="node7" class="node">
<title>Node894</title>
<g id="a_node7"><a xlink:href="quickjs_8c.html#a9d844c16dcc71701436848074337d32c" target="_top" xlink:title="js_parse_statement\l_or_decl">
<polygon fill="none" stroke="#ff0000" points="1758,-403.692 1758,-433.692 1860,-433.692 1860,-403.692 1758,-403.692"/>
<text text-anchor="start" x="1766" y="-421.692" font-family="Helvetica,sans-Serif" font-size="10.00" fill="#000000">js_parse_statement</text>
<text text-anchor="middle" x="1809" y="-410.692" font-family="Helvetica,sans-Serif" font-size="10.00" fill="#000000">_or_decl</text>
</a>
</g>
</g>
<!-- Node890&#45;&gt;Node894 -->
<g id="edge48" class="edge">
<title>Node890&#45;&gt;Node894</title>
<path fill="none" stroke="#191970" d="M515.2405,-360.5141C532.7504,-330.4882 566.2077,-279.369 607,-247.692 682.9612,-188.705 709.8253,-162.692 806,-162.692 806,-162.692 806,-162.692 1071.5,-162.692 1361.7189,-162.692 1488.2302,-47.7075 1722,-219.692 1784.2626,-265.4986 1802.5965,-365.552 1807.4304,-403.599"/>
<polygon fill="#191970" stroke="#191970" points="512.0458,-359.0505 510.1268,-369.4701 518.1247,-362.5215 512.0458,-359.0505"/>
</g>
<!-- Node920 -->
<g id="node19" class="node">
<title>Node920</title>
<g id="a_node19"><a xlink:href="quickjs_8c.html#a42924858317b848c3aea0a0a978fab3a" target="_top" xlink:title="js_parse_var">
<polygon fill="none" stroke="#ff0000" points="1629.5,-229.192 1629.5,-248.192 1701.5,-248.192 1701.5,-229.192 1629.5,-229.192"/>
<text text-anchor="middle" x="1665.5" y="-236.192" font-family="Helvetica,sans-Serif" font-size="10.00" fill="#000000">js_parse_var</text>
</a>
</g>
</g>
<!-- Node890&#45;&gt;Node920 -->
<g id="edge46" class="edge">
<title>Node890&#45;&gt;Node920</title>
<path fill="none" stroke="#191970" d="M525.7894,-362.8707C546.106,-345.1815 576.7621,-320.6524 607,-304.692 689.407,-261.1955 712.8181,-238.692 806,-238.692 806,-238.692 806,-238.692 1222.5,-238.692 1373.6276,-238.692 1553.7558,-238.692 1629.3233,-238.692"/>
<polygon fill="#191970" stroke="#191970" points="523.4446,-360.272 518.2705,-369.5175 528.0808,-365.5166 523.4446,-360.272"/>
</g>
<!-- Node896 -->
<g id="node20" class="node">
<title>Node896</title>
<g id="a_node20"><a xlink:href="quickjs_8c.html#ac188b916dd086803591a67de7e7a85f6" target="_top" xlink:title="js_parse_for_in_of">
<polygon fill="none" stroke="#000000" points="1617.5,-552.192 1617.5,-571.192 1713.5,-571.192 1713.5,-552.192 1617.5,-552.192"/>
<text text-anchor="middle" x="1665.5" y="-559.192" font-family="Helvetica,sans-Serif" font-size="10.00" fill="#000000">js_parse_for_in_of</text>
</a>
</g>
</g>
<!-- Node890&#45;&gt;Node896 -->
<g id="edge47" class="edge">
<title>Node890&#45;&gt;Node896</title>
<path fill="none" stroke="#191970" d="M568.0932,-386.7479C629.6684,-388.4849 724.0373,-390.692 806,-390.692 806,-390.692 806,-390.692 1071.5,-390.692 1129.0086,-390.692 1518.8321,-499.3769 1573,-518.692 1599.6891,-528.2088 1629.1496,-542.6265 1647.4919,-552.1014"/>
<polygon fill="#191970" stroke="#191970" points="567.8406,-383.2393 557.7446,-386.4517 567.6403,-390.2365 567.8406,-383.2393"/>
</g>
<!-- Node891&#45;&gt;Node891 -->
<g id="edge4" class="edge">
<title>Node891&#45;&gt;Node891</title>
<path fill="none" stroke="#191970" d="M634.9129,-492.1499C638.0887,-496.871 646.6177,-500.192 660.5,-500.192 683.2813,-500.192 691.6462,-491.2486 685.595,-481.851"/>
<polygon fill="#191970" stroke="#191970" points="638.4237,-492.0067 635.405,-481.851 631.4317,-491.6726 638.4237,-492.0067"/>
</g>
<!-- Node891&#45;&gt;Node892 -->
<g id="edge5" class="edge">
<title>Node891&#45;&gt;Node892</title>
<path fill="none" stroke="#191970" d="M682.1085,-490.1542C692.49,-505.1743 704.6702,-525.0206 714,-543.692 757.7977,-631.3432 794.8191,-745.2017 803.8803,-779.7685"/>
<polygon fill="#191970" stroke="#191970" points="684.8914,-488.0283 676.2391,-481.9136 679.1898,-492.0893 684.8914,-488.0283"/>
</g>
<!-- Node891&#45;&gt;Node894 -->
<g id="edge44" class="edge">
<title>Node891&#45;&gt;Node894</title>
<path fill="none" stroke="#191970" d="M724.0443,-453.0489C780.3773,-442.1507 865.0229,-428.692 939.5,-428.692 939.5,-428.692 939.5,-428.692 1071.5,-428.692 1245.266,-428.692 1285.8374,-391.1602 1459,-376.692 1525.4721,-371.1381 1542.3056,-372.8033 1609,-371.692 1659.2153,-370.8553 1673.3101,-359.381 1722,-371.692 1746.2996,-377.8361 1771.1797,-392.2591 1788.0747,-403.5195"/>
<polygon fill="#191970" stroke="#191970" points="723.3495,-449.6184 714.2119,-454.9807 724.6991,-456.487 723.3495,-449.6184"/>
</g>
<!-- Node891&#45;&gt;Node920 -->
<g id="edge42" class="edge">
<title>Node891&#45;&gt;Node920</title>
<path fill="none" stroke="#191970" d="M689.8999,-445.7443C739.0737,-412.8251 842.2134,-352.692 939.5,-352.692 939.5,-352.692 939.5,-352.692 1071.5,-352.692 1248.3064,-352.692 1284.8012,-292.9457 1459,-262.692 1518.2069,-252.4094 1587.7497,-245.35 1629.1387,-241.6708"/>
<polygon fill="#191970" stroke="#191970" points="687.6595,-443.0353 681.3597,-451.5537 691.5966,-448.8231 687.6595,-443.0353"/>
</g>
<!-- Node891&#45;&gt;Node896 -->
<g id="edge43" class="edge">
<title>Node891&#45;&gt;Node896</title>
<path fill="none" stroke="#191970" d="M724.4686,-466.692C781.0181,-466.692 865.743,-466.692 939.5,-466.692 939.5,-466.692 939.5,-466.692 1071.5,-466.692 1178.9381,-466.692 1497.3729,-528.0574 1618.2439,-552.1481"/>
<polygon fill="#191970" stroke="#191970" points="724.2465,-463.1921 714.2464,-466.692 724.2464,-470.1921 724.2465,-463.1921"/>
</g>
<!-- Node892&#45;&gt;Node891 -->
<g id="edge12" class="edge">
<title>Node892&#45;&gt;Node891</title>
<path fill="none" stroke="#191970" d="M798.0788,-770.2655C783.6978,-730.0316 751.3073,-636.3541 714,-561.692 699.4595,-532.5925 677.9951,-500.6389 667.2076,-481.7565"/>
<polygon fill="#191970" stroke="#191970" points="794.8045,-771.5032 801.4934,-779.7196 801.3882,-769.1253 794.8045,-771.5032"/>
</g>
<!-- Node892&#45;&gt;Node892 -->
<g id="edge13" class="edge">
<title>Node892&#45;&gt;Node892</title>
<path fill="none" stroke="#191970" d="M781.4465,-808.7212C782.7858,-813.82 790.9703,-817.692 806,-817.692 829.4609,-817.692 836.2426,-808.2573 826.345,-799.4491"/>
<polygon fill="#191970" stroke="#191970" points="784.709,-810.0016 785.655,-799.4491 778.3348,-807.1085 784.709,-810.0016"/>
</g>
<!-- Node893 -->
<g id="node6" class="node">
<title>Node893</title>
<g id="a_node6"><a xlink:href="quickjs_8c.html#a00eb789430243c24dab4a63ad6a79653" target="_top" xlink:title="js_parse_class">
<polygon fill="none" stroke="#ff0000" points="1624.5,-1305.192 1624.5,-1324.192 1706.5,-1324.192 1706.5,-1305.192 1624.5,-1305.192"/>
<text text-anchor="middle" x="1665.5" y="-1312.192" font-family="Helvetica,sans-Serif" font-size="10.00" fill="#000000">js_parse_class</text>
</a>
</g>
</g>
<!-- Node892&#45;&gt;Node893 -->
<g id="edge6" class="edge">
<title>Node892&#45;&gt;Node893</title>
<path fill="none" stroke="#191970" d="M810.0409,-809.4183C821.5901,-870.0976 856.5878,-1050.8237 898,-1092.692 1003.3877,-1199.2406 1480.5112,-1278.0567 1624.3393,-1305.1829"/>
<polygon fill="#191970" stroke="#191970" points="813.4138,-808.4199 808.1047,-799.2513 806.5374,-809.7296 813.4138,-808.4199"/>
</g>
<!-- Node908 -->
<g id="node9" class="node">
<title>Node908</title>
<g id="a_node9"><a xlink:href="quickjs_8c.html#af99673e7430294cf15dc24dc5dac227f" target="_top" xlink:title="js_parse_unary">
<polygon fill="none" stroke="#000000" points="898,-1027.192 898,-1046.192 981,-1046.192 981,-1027.192 898,-1027.192"/>
<text text-anchor="middle" x="939.5" y="-1034.192" font-family="Helvetica,sans-Serif" font-size="10.00" fill="#000000">js_parse_unary</text>
</a>
</g>
</g>
<!-- Node892&#45;&gt;Node908 -->
<g id="edge14" class="edge">
<title>Node892&#45;&gt;Node908</title>
<path fill="none" stroke="#191970" d="M816.0672,-808.3183C842.7108,-857.6139 914.3859,-990.2263 934.3028,-1027.0763"/>
<polygon fill="#191970" stroke="#191970" points="819.0673,-806.5078 811.2334,-799.3747 812.9092,-809.8362 819.0673,-806.5078"/>
</g>
<!-- Node892&#45;&gt;Node896 -->
<g id="edge41" class="edge">
<title>Node892&#45;&gt;Node896</title>
<path fill="none" stroke="#191970" d="M872.413,-787.2179C1009.9893,-779.7712 1333.2865,-750.1106 1573,-632.692 1606.6338,-616.2172 1639.9627,-586.4752 1655.8627,-571.2449"/>
<polygon fill="#191970" stroke="#191970" points="871.8487,-783.7424 862.0434,-787.7559 872.2114,-790.733 871.8487,-783.7424"/>
</g>
<!-- Node893&#45;&gt;Node892 -->
<g id="edge7" class="edge">
<title>Node893&#45;&gt;Node892</title>
<path fill="none" stroke="#191970" d="M1614.1513,-1311.0716C1459.2654,-1292.5022 1001.0206,-1214.8474 898,-1110.692 852.2311,-1064.4189 814.2973,-848.5341 807.1943,-799.4154"/>
<polygon fill="#191970" stroke="#191970" points="1614.0016,-1314.5778 1624.3393,-1312.2577 1614.8111,-1307.6247 1614.0016,-1314.5778"/>
</g>
<!-- Node893&#45;&gt;Node894 -->
<g id="edge8" class="edge">
<title>Node893&#45;&gt;Node894</title>
<path fill="none" stroke="#191970" d="M1679.6828,-1296.5823C1693.0361,-1278.4726 1712.3808,-1249.2752 1722,-1220.692 1773.9299,-1066.3842 1803.2945,-530.8461 1808.248,-433.8249"/>
<polygon fill="#191970" stroke="#191970" points="1676.5717,-1294.8934 1673.3292,-1304.9799 1682.154,-1299.1169 1676.5717,-1294.8934"/>
</g>
<!-- Node894&#45;&gt;Node894 -->
<g id="edge11" class="edge">
<title>Node894&#45;&gt;Node894</title>
<path fill="none" stroke="#191970" d="M1786.2559,-444.1499C1789.0788,-448.871 1796.6602,-452.192 1809,-452.192 1829.25,-452.192 1836.6855,-443.2486 1831.3066,-433.851"/>
<polygon fill="#191970" stroke="#191970" points="1789.7658,-443.9906 1786.6934,-433.851 1782.7721,-443.6935 1789.7658,-443.9906"/>
</g>
<!-- Node897 -->
<g id="node8" class="node">
<title>Node897</title>
<g id="a_node8"><a xlink:href="quickjs_8c.html#acc0cac53be5317d9cab6a79afcd7da48" target="_top" xlink:title="js_parse_block">
<polygon fill="none" stroke="#000000" points="1896,-153.192 1896,-172.192 1978,-172.192 1978,-153.192 1896,-153.192"/>
<text text-anchor="middle" x="1937" y="-160.192" font-family="Helvetica,sans-Serif" font-size="10.00" fill="#000000">js_parse_block</text>
</a>
</g>
</g>
<!-- Node894&#45;&gt;Node897 -->
<g id="edge9" class="edge">
<title>Node894&#45;&gt;Node897</title>
<path fill="none" stroke="#191970" d="M1819.2584,-394.2976C1844.6396,-339.4821 1909.8176,-209.3624 1930.5592,-172.4048"/>
<polygon fill="#191970" stroke="#191970" points="1815.9728,-393.0669 1815.002,-403.6171 1822.3402,-395.975 1815.9728,-393.0669"/>
</g>
<!-- Node897&#45;&gt;Node894 -->
<g id="edge10" class="edge">
<title>Node897&#45;&gt;Node894</title>
<path fill="none" stroke="#191970" d="M1929.2567,-181.6148C1906.9616,-230.5204 1842.6674,-359.2095 1818.4121,-403.606"/>
<polygon fill="#191970" stroke="#191970" points="1932.468,-183.0072 1933.3472,-172.4489 1926.0757,-180.1544 1932.468,-183.0072"/>
</g>
<!-- Node908&#45;&gt;Node908 -->
<g id="edge17" class="edge">
<title>Node908&#45;&gt;Node908</title>
<path fill="none" stroke="#191970" d="M914.9465,-1055.7212C916.2858,-1060.82 924.4703,-1064.692 939.5,-1064.692 962.9609,-1064.692 969.7426,-1055.2573 959.845,-1046.4491"/>
<polygon fill="#191970" stroke="#191970" points="918.209,-1057.0016 919.155,-1046.4491 911.8348,-1054.1085 918.209,-1057.0016"/>
</g>
<!-- Node909 -->
<g id="node10" class="node">
<title>Node909</title>
<g id="a_node10"><a xlink:href="quickjs_8c.html#a2ecfb6abb190101748202a8aa5821fba" target="_top" xlink:title="js_parse_delete">
<polygon fill="none" stroke="#000000" points="1029,-1045.192 1029,-1064.192 1114,-1064.192 1114,-1045.192 1029,-1045.192"/>
<text text-anchor="middle" x="1071.5" y="-1052.192" font-family="Helvetica,sans-Serif" font-size="10.00" fill="#000000">js_parse_delete</text>
</a>
</g>
</g>
<!-- Node908&#45;&gt;Node909 -->
<g id="edge15" class="edge">
<title>Node908&#45;&gt;Node909</title>
<path fill="none" stroke="#191970" d="M991.3953,-1037.1576C1008.9413,-1039.1998 1027.8825,-1042.0953 1042.9393,-1045.1242"/>
<polygon fill="#191970" stroke="#191970" points="991.5847,-1033.6577 981.2656,-1036.0592 990.83,-1040.6169 991.5847,-1033.6577"/>
</g>
<!-- Node910 -->
<g id="node11" class="node">
<title>Node910</title>
<g id="a_node11"><a xlink:href="quickjs_8c.html#ab1c84e1eb8a5f06b9257c3c9b5a6f024" target="_top" xlink:title="js_parse_expr_binary">
<polygon fill="none" stroke="#000000" points="1017,-951.192 1017,-970.192 1126,-970.192 1126,-951.192 1017,-951.192"/>
<text text-anchor="middle" x="1071.5" y="-958.192" font-family="Helvetica,sans-Serif" font-size="10.00" fill="#000000">js_parse_expr_binary</text>
</a>
</g>
</g>
<!-- Node908&#45;&gt;Node910 -->
<g id="edge18" class="edge">
<title>Node908&#45;&gt;Node910</title>
<path fill="none" stroke="#191970" d="M964.953,-1022.0373C991.4811,-1006.7635 1032.2773,-983.2748 1054.9179,-970.2393"/>
<polygon fill="#191970" stroke="#191970" points="963.1377,-1019.0437 956.2179,-1027.0666 966.6305,-1025.1101 963.1377,-1019.0437"/>
</g>
<!-- Node909&#45;&gt;Node908 -->
<g id="edge16" class="edge">
<title>Node909&#45;&gt;Node908</title>
<path fill="none" stroke="#191970" d="M1018.8529,-1054.1386C1001.4241,-1052.0905 982.6988,-1049.2143 967.8173,-1046.2108"/>
<polygon fill="#191970" stroke="#191970" points="1018.604,-1057.6322 1028.926,-1055.2434 1019.3673,-1050.6739 1018.604,-1057.6322"/>
</g>
<!-- Node910&#45;&gt;Node910 -->
<g id="edge19" class="edge">
<title>Node910&#45;&gt;Node910</title>
<path fill="none" stroke="#191970" d="M1046.9465,-979.7212C1048.2858,-984.82 1056.4703,-988.692 1071.5,-988.692 1094.9609,-988.692 1101.7426,-979.2573 1091.845,-970.4491"/>
<polygon fill="#191970" stroke="#191970" points="1050.209,-981.0016 1051.155,-970.4491 1043.8348,-978.1085 1050.209,-981.0016"/>
</g>
<!-- Node911 -->
<g id="node12" class="node">
<title>Node911</title>
<g id="a_node12"><a xlink:href="quickjs_8c.html#a2af8c0e05d949d0ae23d94c8e73e5494" target="_top" xlink:title="js_parse_logical_and_or">
<polygon fill="none" stroke="#000000" points="1162,-913.192 1162,-932.192 1283,-932.192 1283,-913.192 1162,-913.192"/>
<text text-anchor="middle" x="1222.5" y="-920.192" font-family="Helvetica,sans-Serif" font-size="10.00" fill="#000000">js_parse_logical_and_or</text>
</a>
</g>
</g>
<!-- Node910&#45;&gt;Node911 -->
<g id="edge20" class="edge">
<title>Node910&#45;&gt;Node911</title>
<path fill="none" stroke="#191970" d="M1119.3431,-948.652C1140.4386,-943.3433 1164.8766,-937.1933 1184.6703,-932.2121"/>
<polygon fill="#191970" stroke="#191970" points="1118.4471,-945.2683 1109.6037,-951.103 1120.1555,-952.0567 1118.4471,-945.2683"/>
</g>
<!-- Node911&#45;&gt;Node911 -->
<g id="edge21" class="edge">
<title>Node911&#45;&gt;Node911</title>
<path fill="none" stroke="#191970" d="M1194.8742,-941.346C1196.0289,-946.6288 1205.2375,-950.692 1222.5,-950.692 1248.8047,-950.692 1256.4084,-941.2573 1245.3111,-932.4491"/>
<polygon fill="#191970" stroke="#191970" points="1198.0076,-942.9097 1199.6889,-932.4491 1191.8512,-939.578 1198.0076,-942.9097"/>
</g>
<!-- Node912 -->
<g id="node13" class="node">
<title>Node912</title>
<g id="a_node13"><a xlink:href="quickjs_8c.html#abd2cbff624ea609dbf883fb1a2f048cd" target="_top" xlink:title="js_parse_cond_expr">
<polygon fill="none" stroke="#000000" points="1319,-875.192 1319,-894.192 1423,-894.192 1423,-875.192 1319,-875.192"/>
<text text-anchor="middle" x="1371" y="-882.192" font-family="Helvetica,sans-Serif" font-size="10.00" fill="#000000">js_parse_cond_expr</text>
</a>
</g>
</g>
<!-- Node911&#45;&gt;Node912 -->
<g id="edge22" class="edge">
<title>Node911&#45;&gt;Node912</title>
<path fill="none" stroke="#191970" d="M1269.8329,-910.5799C1290.5146,-905.2876 1314.4188,-899.1707 1333.7966,-894.2121"/>
<polygon fill="#191970" stroke="#191970" points="1268.793,-907.2332 1259.9728,-913.103 1270.5284,-914.0147 1268.793,-907.2332"/>
</g>
<!-- Node913 -->
<g id="node14" class="node">
<title>Node913</title>
<g id="a_node14"><a xlink:href="quickjs_8c.html#a4fa2fc1719feb03edf64eaf034103fd2" target="_top" xlink:title="js_parse_assign_expr">
<polygon fill="none" stroke="#ff0000" points="1460.5,-856.192 1460.5,-875.192 1571.5,-875.192 1571.5,-856.192 1460.5,-856.192"/>
<text text-anchor="middle" x="1516" y="-863.192" font-family="Helvetica,sans-Serif" font-size="10.00" fill="#000000">js_parse_assign_expr</text>
</a>
</g>
</g>
<!-- Node912&#45;&gt;Node913 -->
<g id="edge23" class="edge">
<title>Node912&#45;&gt;Node913</title>
<path fill="none" stroke="#191970" d="M1411.1246,-873.3221C1426.2983,-870.6944 1443.8531,-868.2355 1460.2082,-866.4146"/>
<polygon fill="#191970" stroke="#191970" points="1410.2529,-869.9233 1401.0441,-875.1625 1411.5101,-876.8095 1410.2529,-869.9233"/>
</g>
<!-- Node913&#45;&gt;Node891 -->
<g id="edge31" class="edge">
<title>Node913&#45;&gt;Node891</title>
<path fill="none" stroke="#191970" d="M1486.4086,-851.8908C1355.4907,-790.8315 828.8369,-545.2033 692.7331,-481.7254"/>
<polygon fill="#191970" stroke="#191970" points="1484.9393,-855.0674 1495.4815,-856.1223 1487.8981,-848.7235 1484.9393,-855.0674"/>
</g>
<!-- Node913&#45;&gt;Node892 -->
<g id="edge32" class="edge">
<title>Node913&#45;&gt;Node892</title>
<path fill="none" stroke="#191970" d="M1450.3501,-859.0054C1390.92,-853.5332 1300.9373,-846.692 1222.5,-846.692 1071.5,-846.692 1071.5,-846.692 1071.5,-846.692 993.6546,-846.692 973.597,-841.2663 898,-822.692 873.7765,-816.7403 847.0373,-806.7428 828.6586,-799.3082"/>
<polygon fill="#191970" stroke="#191970" points="1450.0672,-862.4942 1460.3495,-859.9398 1450.7185,-855.5245 1450.0672,-862.4942"/>
</g>
<!-- Node913&#45;&gt;Node893 -->
<g id="edge28" class="edge">
<title>Node913&#45;&gt;Node893</title>
<path fill="none" stroke="#191970" d="M1522.2651,-885.1282C1537.1236,-931.1563 1575.746,-1050.4048 1609,-1149.692 1628.8093,-1208.837 1653.323,-1279.6367 1662.143,-1305.0366"/>
<polygon fill="#191970" stroke="#191970" points="1525.566,-883.9603 1519.1647,-875.5179 1518.9041,-886.1095 1525.566,-883.9603"/>
</g>
<!-- Node913&#45;&gt;Node912 -->
<g id="edge33" class="edge">
<title>Node913&#45;&gt;Node912</title>
<path fill="none" stroke="#191970" d="M1475.8542,-877.0656C1459.6143,-879.8774 1440.6497,-882.4956 1423.3483,-884.3453"/>
<polygon fill="#191970" stroke="#191970" points="1476.8796,-880.4363 1486.0878,-875.1961 1475.6216,-873.5503 1476.8796,-880.4363"/>
</g>
<!-- Node913&#45;&gt;Node913 -->
<g id="edge34" class="edge">
<title>Node913&#45;&gt;Node913</title>
<path fill="none" stroke="#191970" d="M1489.1208,-884.346C1490.2444,-889.6288 1499.2041,-893.692 1516,-893.692 1541.5938,-893.692 1548.9919,-884.2573 1538.1946,-875.4491"/>
<polygon fill="#191970" stroke="#191970" points="1492.2433,-885.9281 1493.8054,-875.4491 1486.0494,-882.6668 1492.2433,-885.9281"/>
</g>
<!-- Node914 -->
<g id="node15" class="node">
<title>Node914</title>
<g id="a_node15"><a xlink:href="quickjs_8c.html#a035daca514f14aacc1e0cff81d8e423a" target="_top" xlink:title="js_parse_template">
<polygon fill="none" stroke="#000000" points="1617.5,-1121.192 1617.5,-1140.192 1713.5,-1140.192 1713.5,-1121.192 1617.5,-1121.192"/>
<text text-anchor="middle" x="1665.5" y="-1128.192" font-family="Helvetica,sans-Serif" font-size="10.00" fill="#000000">js_parse_template</text>
</a>
</g>
</g>
<!-- Node913&#45;&gt;Node914 -->
<g id="edge24" class="edge">
<title>Node913&#45;&gt;Node914</title>
<path fill="none" stroke="#191970" d="M1526.4869,-884.2808C1555.862,-936.3504 1638.2345,-1082.3618 1660.1096,-1121.1371"/>
<polygon fill="#191970" stroke="#191970" points="1529.46,-882.4277 1521.4981,-875.4378 1523.3633,-885.8672 1529.46,-882.4277"/>
</g>
<!-- Node903 -->
<g id="node16" class="node">
<title>Node903</title>
<g id="a_node16"><a xlink:href="quickjs_8c.html#aee6d0acd87f136d43f157ae1426436e6" target="_top" xlink:title="js_parse_object_literal">
<polygon fill="none" stroke="#000000" points="1609,-381.192 1609,-400.192 1722,-400.192 1722,-381.192 1609,-381.192"/>
<text text-anchor="middle" x="1665.5" y="-388.192" font-family="Helvetica,sans-Serif" font-size="10.00" fill="#000000">js_parse_object_literal</text>
</a>
</g>
</g>
<!-- Node913&#45;&gt;Node903 -->
<g id="edge26" class="edge">
<title>Node913&#45;&gt;Node903</title>
<path fill="none" stroke="#191970" d="M1521.058,-846.2118C1534.2887,-795.7125 1571.4996,-656.5723 1609,-542.692 1626.9633,-488.1415 1652.1757,-424.0094 1661.677,-400.2065"/>
<polygon fill="#191970" stroke="#191970" points="1517.6163,-845.5395 1518.4778,-856.0993 1524.3895,-847.3071 1517.6163,-845.5395"/>
</g>
<!-- Node915 -->
<g id="node17" class="node">
<title>Node915</title>
<g id="a_node17"><a xlink:href="quickjs_8c.html#a253917187cfb6b3db09d355b31edb3d5" target="_top" xlink:title="js_parse_array_literal">
<polygon fill="none" stroke="#000000" points="1611,-828.192 1611,-847.192 1720,-847.192 1720,-828.192 1611,-828.192"/>
<text text-anchor="middle" x="1665.5" y="-835.192" font-family="Helvetica,sans-Serif" font-size="10.00" fill="#000000">js_parse_array_literal</text>
</a>
</g>
</g>
<!-- Node913&#45;&gt;Node915 -->
<g id="edge29" class="edge">
<title>Node913&#45;&gt;Node915</title>
<path fill="none" stroke="#191970" d="M1576.9451,-854.2776C1589.4855,-851.9289 1602.5629,-849.4796 1614.6987,-847.2067"/>
<polygon fill="#191970" stroke="#191970" points="1576.216,-850.8532 1567.0313,-856.1343 1577.5047,-857.7335 1576.216,-850.8532"/>
</g>
<!-- Node916 -->
<g id="node18" class="node">
<title>Node916</title>
<g id="a_node18"><a xlink:href="quickjs_8c.html#a1cef6995e7ec0c736babe92589cf441f" target="_top" xlink:title="js_parse_expr2">
<polygon fill="none" stroke="#ff0000" points="1624,-1381.192 1624,-1400.192 1707,-1400.192 1707,-1381.192 1624,-1381.192"/>
<text text-anchor="middle" x="1665.5" y="-1388.192" font-family="Helvetica,sans-Serif" font-size="10.00" fill="#000000">js_parse_expr2</text>
</a>
</g>
</g>
<!-- Node913&#45;&gt;Node916 -->
<g id="edge35" class="edge">
<title>Node913&#45;&gt;Node916</title>
<path fill="none" stroke="#191970" d="M1518.3765,-885.3841C1528.0644,-963.7341 1566.1037,-1252.9935 1609,-1333.692 1619.464,-1353.3774 1638.9183,-1370.7217 1652.0376,-1380.9616"/>
<polygon fill="#191970" stroke="#191970" points="1521.8442,-884.9055 1517.1557,-875.4045 1514.896,-885.7555 1521.8442,-884.9055"/>
</g>
<!-- Node913&#45;&gt;Node920 -->
<g id="edge37" class="edge">
<title>Node913&#45;&gt;Node920</title>
<path fill="none" stroke="#191970" d="M1518.1524,-846.057C1525.852,-778.7715 1554.5119,-551.7221 1609,-371.692 1623.4621,-323.9087 1649.5811,-270.0465 1660.4952,-248.4299"/>
<polygon fill="#191970" stroke="#191970" points="1514.6636,-845.7624 1517.0256,-856.0906 1521.6199,-846.5437 1514.6636,-845.7624"/>
</g>
<!-- Node913&#45;&gt;Node896 -->
<g id="edge39" class="edge">
<title>Node913&#45;&gt;Node896</title>
<path fill="none" stroke="#191970" d="M1525.3069,-846.767C1553.8851,-788.6549 1639.7121,-614.1303 1660.7876,-571.2744"/>
<polygon fill="#191970" stroke="#191970" points="1522.0771,-845.4035 1520.8048,-855.9217 1528.3586,-848.4927 1522.0771,-845.4035"/>
</g>
<!-- Node914&#45;&gt;Node892 -->
<g id="edge25" class="edge">
<title>Node914&#45;&gt;Node892</title>
<path fill="none" stroke="#191970" d="M1607.5214,-1122.5317C1523.0275,-1111.3651 1361.0252,-1092.692 1222.5,-1092.692 1071.5,-1092.692 1071.5,-1092.692 1071.5,-1092.692 993.9279,-1092.692 958.1568,-1122.6675 898,-1073.692 852.6831,-1036.7981 815.8178,-844.5415 807.6768,-799.2541"/>
<polygon fill="#191970" stroke="#191970" points="1607.0594,-1126.001 1617.4345,-1123.8545 1607.9854,-1119.0625 1607.0594,-1126.001"/>
</g>
<!-- Node903&#45;&gt;Node892 -->
<g id="edge27" class="edge">
<title>Node903&#45;&gt;Node892</title>
<path fill="none" stroke="#191970" d="M1635.55,-404.5955C1499.5588,-467.7258 941.8697,-726.6181 826.8203,-780.0268"/>
<polygon fill="#191970" stroke="#191970" points="1637.3571,-407.6154 1644.9537,-400.2301 1634.4096,-401.2662 1637.3571,-407.6154"/>
</g>
<!-- Node915&#45;&gt;Node892 -->
<g id="edge30" class="edge">
<title>Node915&#45;&gt;Node892</title>
<path fill="none" stroke="#191970" d="M1600.8259,-827.6402C1541.2773,-819.2627 1450.4057,-808.692 1371,-808.692 1071.5,-808.692 1071.5,-808.692 1071.5,-808.692 999.0633,-808.692 915.7928,-801.5686 862.1134,-796.0452"/>
<polygon fill="#191970" stroke="#191970" points="1600.4437,-831.121 1610.838,-829.0696 1601.4331,-824.1913 1600.4437,-831.121"/>
</g>
<!-- Node916&#45;&gt;Node894 -->
<g id="edge36" class="edge">
<title>Node916&#45;&gt;Node894</title>
<path fill="none" stroke="#191970" d="M1712.6507,-1375.8226C1716.2152,-1373.2459 1719.4207,-1370.2273 1722,-1366.692 1779.4736,-1287.9175 1804.9175,-548.7224 1808.5423,-433.7039"/>
<polygon fill="#191970" stroke="#191970" points="1710.6228,-1372.9561 1703.8079,-1381.0684 1714.1942,-1378.9765 1710.6228,-1372.9561"/>
</g>
<!-- Node920&#45;&gt;Node894 -->
<g id="edge38" class="edge">
<title>Node920&#45;&gt;Node894</title>
<path fill="none" stroke="#191970" d="M1707.2053,-252.586C1712.5273,-255.4219 1717.6321,-258.7683 1722,-262.692 1766.9852,-303.1022 1793.917,-372.4636 1804.1975,-403.2243"/>
<polygon fill="#191970" stroke="#191970" points="1708.6703,-249.4071 1698.1352,-248.2835 1705.6702,-255.7316 1708.6703,-249.4071"/>
</g>
<!-- Node896&#45;&gt;Node894 -->
<g id="edge40" class="edge">
<title>Node896&#45;&gt;Node894</title>
<path fill="none" stroke="#191970" d="M1682.5259,-544.7255C1710.6907,-516.6588 1766.5521,-460.992 1793.6047,-434.0337"/>
<polygon fill="#191970" stroke="#191970" points="1679.9762,-542.3251 1675.3633,-551.8631 1684.9173,-547.2835 1679.9762,-542.3251"/>
</g>
<!-- Node921&#45;&gt;Node890 -->
<g id="edge78" class="edge">
<title>Node921&#45;&gt;Node890</title>
<path fill="none" stroke="#191970" d="M199.3893,-845.9807C215.9895,-762.04 280.4073,-438.3015 288,-430.692 309.8757,-408.768 390.652,-396.1139 446.454,-389.8134"/>
<polygon fill="#191970" stroke="#191970" points="195.9181,-845.4931 197.4135,-855.9819 202.7853,-846.8499 195.9181,-845.4931"/>
</g>
<!-- Node921&#45;&gt;Node891 -->
<g id="edge85" class="edge">
<title>Node921&#45;&gt;Node891</title>
<path fill="none" stroke="#191970" d="M199.3242,-845.7265C213.4892,-772.5879 263.4178,-522.1827 288,-495.692 369.4057,-407.9663 526.954,-431.626 608.6094,-451.6854"/>
<polygon fill="#191970" stroke="#191970" points="195.8228,-845.3996 197.3672,-855.8813 202.6964,-846.7243 195.8228,-845.3996"/>
</g>
<!-- Node921&#45;&gt;Node892 -->
<g id="edge86" class="edge">
<title>Node921&#45;&gt;Node892</title>
<path fill="none" stroke="#191970" d="M238.1327,-862.2258C278.957,-858.7758 342.2594,-853.0841 397,-846.692 523.3966,-831.9327 671.1423,-810.2378 749.8671,-798.3205"/>
<polygon fill="#191970" stroke="#191970" points="237.6757,-858.7518 228.003,-863.0748 238.2604,-865.7273 237.6757,-858.7518"/>
</g>
<!-- Node921&#45;&gt;Node893 -->
<g id="edge81" class="edge">
<title>Node921&#45;&gt;Node893</title>
<path fill="none" stroke="#191970" d="M196.9951,-885.5226C204.9001,-987.9568 243.1602,-1454.1126 288,-1498.692 356.1088,-1566.4054 405.9589,-1528.692 502,-1528.692 502,-1528.692 502,-1528.692 1371,-1528.692 1464.2836,-1528.692 1507.9262,-1538.5294 1573,-1471.692 1618.4185,-1425.0426 1563.2207,-1375.9875 1609,-1329.692 1613.2816,-1325.3622 1618.6598,-1322.238 1624.3854,-1319.9921"/>
<polygon fill="#191970" stroke="#191970" points="200.4692,-885.0493 196.2178,-875.3449 193.4896,-885.5825 200.4692,-885.0493"/>
</g>
<!-- Node921&#45;&gt;Node894 -->
<g id="edge98" class="edge">
<title>Node921&#45;&gt;Node894</title>
<path fill="none" stroke="#191970" d="M199.8257,-846.1485C210.3869,-797.7116 237.6694,-668.1165 252,-558.692 258.6285,-508.0784 254.9037,-139.5548 288,-100.692 351.461,-26.174 404.1213,-48.692 502,-48.692 502,-48.692 502,-48.692 1371,-48.692 1533.4534,-48.692 1605.3566,-37.6193 1722,-150.692 1759.8458,-187.3793 1795.6247,-352.2108 1805.9982,-403.4463"/>
<polygon fill="#191970" stroke="#191970" points="196.4014,-845.4243 197.6761,-855.9422 203.2387,-846.9251 196.4014,-845.4243"/>
</g>
<!-- Node921&#45;&gt;Node897 -->
<g id="edge94" class="edge">
<title>Node921&#45;&gt;Node897</title>
<path fill="none" stroke="#191970" d="M199.8861,-846.1562C210.5836,-797.7369 238.1503,-668.1784 252,-558.692 259.2126,-501.6737 248.9925,-84.9002 288,-42.692 353.2709,27.9345 405.8314,-10.692 502,-10.692 502,-10.692 502,-10.692 1665.5,-10.692 1782.7226,-10.692 1896.2947,-119.9072 1928.1782,-153.1837"/>
<polygon fill="#191970" stroke="#191970" points="196.4633,-845.4248 197.7077,-855.9463 203.2962,-846.9452 196.4633,-845.4248"/>
</g>
<!-- Node921&#45;&gt;Node908 -->
<g id="edge88" class="edge">
<title>Node921&#45;&gt;Node908</title>
<path fill="none" stroke="#191970" d="M202.7096,-884.9577C230.0183,-954.2455 334.1423,-1186.692 502,-1186.692 502,-1186.692 502,-1186.692 660.5,-1186.692 779.2874,-1186.692 896.2451,-1079.9049 929.8943,-1046.5339"/>
<polygon fill="#191970" stroke="#191970" points="205.8495,-883.372 198.9882,-875.2989 199.3175,-885.8886 205.8495,-883.372"/>
</g>
<!-- Node921&#45;&gt;Node909 -->
<g id="edge87" class="edge">
<title>Node921&#45;&gt;Node909</title>
<path fill="none" stroke="#191970" d="M196.0476,-885.3538C198.8196,-968.7333 214.2427,-1291.6254 288,-1352.692 551.9877,-1571.258 993.3211,-1135.5124 1062.3105,-1064.3234"/>
<polygon fill="#191970" stroke="#191970" points="199.5421,-885.1178 195.7357,-875.2304 192.5454,-885.3335 199.5421,-885.1178"/>
</g>
<!-- Node921&#45;&gt;Node910 -->
<g id="edge89" class="edge">
<title>Node921&#45;&gt;Node910</title>
<path fill="none" stroke="#191970" d="M238.5148,-870.3569C383.6588,-886.0974 855.2713,-937.2426 1016.7097,-954.7502"/>
<polygon fill="#191970" stroke="#191970" points="238.5606,-866.8414 228.2415,-869.2428 237.8058,-873.8006 238.5606,-866.8414"/>
</g>
<!-- Node921&#45;&gt;Node911 -->
<g id="edge90" class="edge">
<title>Node921&#45;&gt;Node911</title>
<path fill="none" stroke="#191970" d="M238.1054,-872.4248C337.3723,-887.507 591.8938,-922.692 806,-922.692 806,-922.692 806,-922.692 939.5,-922.692 1016.1458,-922.692 1104.4682,-922.692 1161.7748,-922.692"/>
<polygon fill="#191970" stroke="#191970" points="238.5731,-868.9557 228.1585,-870.9015 237.5134,-875.875 238.5731,-868.9557"/>
</g>
<!-- Node921&#45;&gt;Node912 -->
<g id="edge91" class="edge">
<title>Node921&#45;&gt;Node912</title>
<path fill="none" stroke="#191970" d="M215.6881,-881.4486C262.9016,-916.6664 385.3837,-998.692 502,-998.692 502,-998.692 502,-998.692 806,-998.692 1018.7074,-998.692 1093.5152,-1056.3355 1283,-959.692 1316.4395,-942.6368 1347.9814,-910.4793 1362.5552,-894.3835"/>
<polygon fill="#191970" stroke="#191970" points="217.6028,-878.5081 207.5191,-875.2571 213.3745,-884.0868 217.6028,-878.5081"/>
</g>
<!-- Node921&#45;&gt;Node913 -->
<g id="edge92" class="edge">
<title>Node921&#45;&gt;Node913</title>
<path fill="none" stroke="#191970" d="M198.619,-885.6946C211.3422,-959.5343 266.7951,-1217.5226 433,-1314.692 530.8932,-1371.924 826.1043,-1376.692 939.5,-1376.692 939.5,-1376.692 939.5,-1376.692 1071.5,-1376.692 1347.8187,-1376.692 1491.3989,-946.0894 1513.0956,-875.4436"/>
<polygon fill="#191970" stroke="#191970" points="202.0146,-884.7746 196.9334,-875.4777 195.108,-885.9141 202.0146,-884.7746"/>
</g>
<!-- Node921&#45;&gt;Node914 -->
<g id="edge69" class="edge">
<title>Node921&#45;&gt;Node914</title>
<path fill="none" stroke="#191970" d="M196.2275,-885.3336C199.8146,-971.5672 218.3531,-1315.7381 288,-1392.692 354.2834,-1465.9296 403.2213,-1452.692 502,-1452.692 502,-1452.692 502,-1452.692 1071.5,-1452.692 1340.7093,-1452.692 1604.6232,-1193.9057 1656.3769,-1140.3289"/>
<polygon fill="#191970" stroke="#191970" points="199.7243,-885.1796 195.8315,-875.3259 192.7298,-885.4565 199.7243,-885.1796"/>
</g>
<!-- Node921&#45;&gt;Node903 -->
<g id="edge79" class="edge">
<title>Node921&#45;&gt;Node903</title>
<path fill="none" stroke="#191970" d="M199.3974,-846.1108C208.9981,-797.5527 234.2922,-667.6397 252,-558.692 261.1812,-502.2047 254.2272,-349.8927 288,-303.692 350.2918,-218.4778 396.4456,-200.692 502,-200.692 502,-200.692 502,-200.692 1222.5,-200.692 1407.444,-200.692 1603.2184,-342.2904 1653.2935,-381.0087"/>
<polygon fill="#191970" stroke="#191970" points="195.9151,-845.6782 197.4029,-856.168 202.7814,-847.0399 195.9151,-845.6782"/>
</g>
<!-- Node921&#45;&gt;Node915 -->
<g id="edge82" class="edge">
<title>Node921&#45;&gt;Node915</title>
<path fill="none" stroke="#191970" d="M196.039,-885.5035C198.4958,-943.8429 212.1478,-1118.2086 288,-1234.692 420.9978,-1438.9317 562.2742,-1414.692 806,-1414.692 806,-1414.692 806,-1414.692 1071.5,-1414.692 1411.5136,-1414.692 1630.2532,-922.2465 1661.604,-847.2255"/>
<polygon fill="#191970" stroke="#191970" points="199.5342,-885.3037 195.6818,-875.4341 192.5386,-885.552 199.5342,-885.3037"/>
</g>
<!-- Node921&#45;&gt;Node916 -->
<g id="edge93" class="edge">
<title>Node921&#45;&gt;Node916</title>
<path fill="none" stroke="#191970" d="M196.6674,-885.4525C203.3182,-994.947 237.9054,-1524.1169 288,-1574.692 355.5864,-1642.9268 405.9589,-1604.692 502,-1604.692 502,-1604.692 502,-1604.692 1371,-1604.692 1461.174,-1604.692 1499.1318,-1637.4109 1573,-1585.692 1638.993,-1539.487 1659.3821,-1433.3512 1664.2203,-1400.5397"/>
<polygon fill="#191970" stroke="#191970" points="200.1596,-885.2167 196.0668,-875.4444 193.1722,-885.6361 200.1596,-885.2167"/>
</g>
<!-- Node921&#45;&gt;Node920 -->
<g id="edge95" class="edge">
<title>Node921&#45;&gt;Node920</title>
<path fill="none" stroke="#191970" d="M199.6515,-846.1497C209.827,-797.6795 236.3198,-667.95 252,-558.692 263.0446,-481.7345 245.761,-275.9631 288,-210.692 347.7213,-118.406 392.0757,-86.692 502,-86.692 502,-86.692 502,-86.692 1071.5,-86.692 1302.4918,-86.692 1568.6819,-195.9072 1644.4256,-229.1837"/>
<polygon fill="#191970" stroke="#191970" points="196.1735,-845.6806 197.5329,-856.1879 203.0226,-847.1262 196.1735,-845.6806"/>
</g>
<!-- Node921&#45;&gt;Node896 -->
<g id="edge97" class="edge">
<title>Node921&#45;&gt;Node896</title>
<path fill="none" stroke="#191970" d="M199.1906,-846.0756C208.3236,-797.4378 232.6423,-667.3587 252,-558.692 260.2652,-512.2941 254.5345,-382.8756 288,-349.692 356.4349,-281.8336 405.6252,-314.692 502,-314.692 502,-314.692 502,-314.692 1071.5,-314.692 1306.5629,-314.692 1368.4316,-366.9063 1573,-482.692 1607.5526,-502.2488 1641.2419,-535.6868 1656.7015,-552.0709"/>
<polygon fill="#191970" stroke="#191970" points="195.7046,-845.6755 197.2972,-856.15 202.5841,-846.9685 195.7046,-845.6755"/>
</g>
<!-- Node922 -->
<g id="node22" class="node">
<title>Node922</title>
<g id="a_node22"><a xlink:href="quickjs_8c.html#aeca8ed71e1eef8ec809afab744958c28" target="_top" xlink:title="js_parse_expect">
<polygon fill="none" stroke="#ff0000" points="298.5,-742.192 298.5,-761.192 386.5,-761.192 386.5,-742.192 298.5,-742.192"/>
<text text-anchor="middle" x="342.5" y="-749.192" font-family="Helvetica,sans-Serif" font-size="10.00" fill="#000000">js_parse_expect</text>
</a>
</g>
</g>
<!-- Node921&#45;&gt;Node922 -->
<g id="edge51" class="edge">
<title>Node921&#45;&gt;Node922</title>
<path fill="none" stroke="#191970" d="M215.7131,-850.0166C246.5591,-826.0952 304.4766,-781.1795 329.943,-761.4301"/>
<polygon fill="#191970" stroke="#191970" points="213.5376,-847.2745 207.7803,-856.1685 217.8274,-852.806 213.5376,-847.2745"/>
</g>
<!-- Node918 -->
<g id="node23" class="node">
<title>Node918</title>
<g id="a_node23"><a xlink:href="quickjs_8c.html#a42234753f3193f37ce45b3c0ca4c25cd" target="_top" xlink:title="js_parse_property_name">
<polygon fill="none" stroke="#000000" points="440.5,-495.192 440.5,-514.192 563.5,-514.192 563.5,-495.192 440.5,-495.192"/>
<text text-anchor="middle" x="502" y="-502.192" font-family="Helvetica,sans-Serif" font-size="10.00" fill="#000000">js_parse_property_name</text>
</a>
</g>
</g>
<!-- Node921&#45;&gt;Node918 -->
<g id="edge70" class="edge">
<title>Node921&#45;&gt;Node918</title>
<path fill="none" stroke="#191970" d="M202.7273,-846.3341C216.3076,-811.3368 247.9136,-736.0397 288,-680.692 328.003,-625.4596 353.4148,-625.1439 397,-572.692 415.1989,-550.7908 409.4035,-535.6316 433,-519.692 436.0475,-517.6334 439.3284,-515.8513 442.746,-514.3091"/>
<polygon fill="#191970" stroke="#191970" points="199.3971,-845.244 199.1019,-855.8348 205.9371,-847.7397 199.3971,-845.244"/>
</g>
<!-- Node927 -->
<g id="node24" class="node">
<title>Node927</title>
<g id="a_node24"><a xlink:href="quickjs_8c.html#a02cbd69384985a4e904190810cf45641" target="_top" xlink:title="js_parse_expect_semi">
<polygon fill="none" stroke="#ff0000" points="1459,-1557.192 1459,-1576.192 1573,-1576.192 1573,-1557.192 1459,-1557.192"/>
<text text-anchor="middle" x="1516" y="-1564.192" font-family="Helvetica,sans-Serif" font-size="10.00" fill="#000000">js_parse_expect_semi</text>
</a>
</g>
</g>
<!-- Node921&#45;&gt;Node927 -->
<g id="edge66" class="edge">
<title>Node921&#45;&gt;Node927</title>
<path fill="none" stroke="#191970" d="M196.7786,-885.5755C203.8352,-992.4205 239.4728,-1495.3208 288,-1542.692 356.4862,-1609.5467 406.2926,-1566.692 502,-1566.692 502,-1566.692 502,-1566.692 1222.5,-1566.692 1304.6647,-1566.692 1399.768,-1566.692 1458.9112,-1566.692"/>
<polygon fill="#191970" stroke="#191970" points="200.2659,-885.2655 196.1218,-875.5147 193.2808,-885.7215 200.2659,-885.2655"/>
</g>
<!-- Node928 -->
<g id="node25" class="node">
<title>Node928</title>
<g id="a_node25"><a xlink:href="quickjs_8c.html#aba7eb7aae2eb61bfccb4565ee626cd18" target="_top" xlink:title="js_parse_seek_token">
<polygon fill="none" stroke="#ff0000" points="288,-818.192 288,-837.192 397,-837.192 397,-818.192 288,-818.192"/>
<text text-anchor="middle" x="342.5" y="-825.192" font-family="Helvetica,sans-Serif" font-size="10.00" fill="#000000">js_parse_seek_token</text>
</a>
</g>
</g>
<!-- Node921&#45;&gt;Node928 -->
<g id="edge71" class="edge">
<title>Node921&#45;&gt;Node928</title>
<path fill="none" stroke="#191970" d="M237.9245,-854.7251C259.3125,-849.1963 285.0034,-842.5551 305.5688,-837.2389"/>
<polygon fill="#191970" stroke="#191970" points="236.9298,-851.3671 228.1241,-857.2586 238.6818,-858.1444 236.9298,-851.3671"/>
</g>
<!-- Node900 -->
<g id="node26" class="node">
<title>Node900</title>
<g id="a_node26"><a xlink:href="quickjs_8c.html#adf95ddf430ef93fd9efea1cc2f8a2fbe" target="_top" xlink:title="js_parse_class_default_ctor">
<polygon fill="none" stroke="#000000" points="433,-1481.192 433,-1500.192 571,-1500.192 571,-1481.192 433,-1481.192"/>
<text text-anchor="middle" x="502" y="-1488.192" font-family="Helvetica,sans-Serif" font-size="10.00" fill="#000000">js_parse_class_default_ctor</text>
</a>
</g>
</g>
<!-- Node921&#45;&gt;Node900 -->
<g id="edge80" class="edge">
<title>Node921&#45;&gt;Node900</title>
<path fill="none" stroke="#191970" d="M197.1268,-885.4695C205.4732,-984.6992 244.7747,-1425.2048 288,-1466.692 331.965,-1508.8892 406.7012,-1507.0808 455.1996,-1500.1979"/>
<polygon fill="#191970" stroke="#191970" points="200.6007,-885.0088 196.2827,-875.3338 193.6248,-885.5898 200.6007,-885.0088"/>
</g>
<!-- Node929 -->
<g id="node27" class="node">
<title>Node929</title>
<g id="a_node27"><a xlink:href="quickjs_8c.html#a08f5927b79691c477c726fc5d309cfef" target="_top" xlink:title="is_let">
<polygon fill="none" stroke="#000000" points="640.5,-633.192 640.5,-652.192 680.5,-652.192 680.5,-633.192 640.5,-633.192"/>
<text text-anchor="middle" x="660.5" y="-640.192" font-family="Helvetica,sans-Serif" font-size="10.00" fill="#000000">is_let</text>
</a>
</g>
</g>
<!-- Node921&#45;&gt;Node929 -->
<g id="edge96" class="edge">
<title>Node921&#45;&gt;Node929</title>
<path fill="none" stroke="#191970" d="M203.5038,-846.303C216.6408,-816.9762 245.6204,-761.6908 288,-732.692 403.5795,-653.6052 580.9399,-643.7283 640.3349,-642.7156"/>
<polygon fill="#191970" stroke="#191970" points="200.1382,-845.2683 199.3852,-855.8364 206.5641,-848.0445 200.1382,-845.2683"/>
</g>
<!-- Node931 -->
<g id="node28" class="node">
<title>Node931</title>
<g id="a_node28"><a xlink:href="quickjs_8c.html#acff617b3121403c880313b762407e5c7" target="_top" xlink:title="js_parse_destructing_var">
<polygon fill="none" stroke="#000000" points="439.5,-457.192 439.5,-476.192 564.5,-476.192 564.5,-457.192 439.5,-457.192"/>
<text text-anchor="middle" x="502" y="-464.192" font-family="Helvetica,sans-Serif" font-size="10.00" fill="#000000">js_parse_destructing_var</text>
</a>
</g>
</g>
<!-- Node921&#45;&gt;Node931 -->
<g id="edge83" class="edge">
<title>Node921&#45;&gt;Node931</title>
<path fill="none" stroke="#191970" d="M196.983,-845.6821C201.6879,-794.8204 220.2479,-658.547 288,-572.692 331.1496,-518.0131 409.8275,-489.4499 458.8198,-476.2737"/>
<polygon fill="#191970" stroke="#191970" points="193.47,-845.6904 196.119,-855.9487 200.4454,-846.2775 193.47,-845.6904"/>
</g>
<!-- Node922&#45;&gt;Node891 -->
<g id="edge60" class="edge">
<title>Node922&#45;&gt;Node891</title>
<path fill="none" stroke="#191970" d="M352.7576,-733.2933C364.0332,-712.8477 382.4749,-678.7472 397,-648.692 414.319,-612.8556 403.3295,-593.2224 433,-566.692 480.8892,-523.8711 512.7295,-550.7394 571,-523.692 596.0642,-512.058 622.4837,-494.4882 640.0651,-481.9328"/>
<polygon fill="#191970" stroke="#191970" points="349.6321,-731.7125 347.8465,-742.1558 355.7549,-735.1054 349.6321,-731.7125"/>
</g>
<!-- Node922&#45;&gt;Node892 -->
<g id="edge61" class="edge">
<title>Node922&#45;&gt;Node892</title>
<path fill="none" stroke="#191970" d="M396.6193,-756.129C485.1269,-763.3853 659.959,-777.7189 749.7994,-785.0844"/>
<polygon fill="#191970" stroke="#191970" points="396.7754,-752.6301 386.5228,-755.3012 396.2034,-759.6067 396.7754,-752.6301"/>
</g>
<!-- Node922&#45;&gt;Node893 -->
<g id="edge58" class="edge">
<title>Node922&#45;&gt;Node893</title>
<path fill="none" stroke="#191970" d="M363.7985,-767.7304C375.7497,-778.0186 389.6895,-792.4639 397,-808.692 436.3847,-896.1203 367.1716,-1168.9676 433,-1238.692 590.1097,-1405.1002 1230.1649,-1324.5862 1459,-1327.692 1509.662,-1328.3796 1522.4568,-1331.2264 1573,-1327.692 1589.8244,-1326.5156 1608.2451,-1324.1495 1624.1884,-1321.7545"/>
<polygon fill="#191970" stroke="#191970" points="365.9025,-764.9295 355.9483,-761.301 361.4671,-770.345 365.9025,-764.9295"/>
</g>
<!-- Node922&#45;&gt;Node894 -->
<g id="edge65" class="edge">
<title>Node922&#45;&gt;Node894</title>
<path fill="none" stroke="#191970" d="M361.1594,-768.462C372.4397,-779.2275 386.6002,-793.9168 397,-808.692 417.5926,-837.9486 410.9383,-852.5268 433,-880.692 547.1201,-1026.3844 579.9043,-1077.7733 750,-1150.692 948.5268,-1235.7989 1570.9201,-1304.0647 1722,-1149.692 1774.1271,-1096.4288 1803.489,-533.3762 1808.2959,-433.723"/>
<polygon fill="#191970" stroke="#191970" points="363.2519,-765.6278 353.5496,-761.3714 358.4799,-770.7492 363.2519,-765.6278"/>
</g>
<!-- Node922&#45;&gt;Node897 -->
<g id="edge63" class="edge">
<title>Node922&#45;&gt;Node897</title>
<path fill="none" stroke="#191970" d="M343.4862,-731.6167C347.1697,-671.6115 363.7294,-489.7225 433,-359.692 525.1234,-186.7638 610.064,-124.692 806,-124.692 806,-124.692 806,-124.692 1071.5,-124.692 1294.3929,-124.692 1350.4576,-109.1982 1573,-121.692 1690.6228,-128.2955 1828.6207,-146.8114 1895.9131,-156.5414"/>
<polygon fill="#191970" stroke="#191970" points="339.9727,-731.7615 342.9094,-741.9412 346.9618,-732.152 339.9727,-731.7615"/>
</g>
<!-- Node922&#45;&gt;Node912 -->
<g id="edge62" class="edge">
<title>Node922&#45;&gt;Node912</title>
<path fill="none" stroke="#191970" d="M381.9508,-764.1996C397.7143,-768.8884 416.1052,-773.975 433,-777.692 688.9796,-834.01 756.0507,-835.1412 1017,-859.692 1124.0392,-869.7626 1249.6343,-877.72 1318.7543,-881.7659"/>
<polygon fill="#191970" stroke="#191970" points="382.5986,-760.739 372.0135,-761.1942 380.5721,-767.4392 382.5986,-760.739"/>
</g>
<!-- Node922&#45;&gt;Node914 -->
<g id="edge52" class="edge">
<title>Node922&#45;&gt;Node914</title>
<path fill="none" stroke="#191970" d="M363.4923,-767.5994C465.0017,-843.8978 906.7901,-1168.692 1071.5,-1168.692 1071.5,-1168.692 1071.5,-1168.692 1371,-1168.692 1459.67,-1168.692 1562.1317,-1151.5382 1619.8255,-1140.281"/>
<polygon fill="#191970" stroke="#191970" points="365.3406,-764.6097 355.2481,-761.3859 361.1274,-770.1998 365.3406,-764.6097"/>
</g>
<!-- Node922&#45;&gt;Node903 -->
<g id="edge57" class="edge">
<title>Node922&#45;&gt;Node903</title>
<path fill="none" stroke="#191970" d="M351.6475,-732.9614C365.5268,-706.5355 394.4263,-658.643 433,-632.692 529.3242,-567.8885 823.4059,-504.692 939.5,-504.692 939.5,-504.692 939.5,-504.692 1071.5,-504.692 1085.315,-504.692 1478.0265,-427.6143 1617.1868,-400.2155"/>
<polygon fill="#191970" stroke="#191970" points="348.4906,-731.448 347.0747,-741.9478 354.7293,-734.6226 348.4906,-731.448"/>
</g>
<!-- Node922&#45;&gt;Node915 -->
<g id="edge59" class="edge">
<title>Node922&#45;&gt;Node915</title>
<path fill="none" stroke="#191970" d="M396.6533,-747.7705C570.2116,-736.5499 1127.2925,-711.0087 1573,-807.692 1596.4283,-812.7741 1622.3261,-821.4486 1640.7454,-828.1665"/>
<polygon fill="#191970" stroke="#191970" points="396.2494,-744.2894 386.5011,-748.4391 396.7095,-751.2743 396.2494,-744.2894"/>
</g>
<!-- Node922&#45;&gt;Node896 -->
<g id="edge64" class="edge">
<title>Node922&#45;&gt;Node896</title>
<path fill="none" stroke="#191970" d="M367.1169,-736.8718C412.7535,-710.07 514.2956,-653.5594 607,-623.692 806.4633,-559.4292 861.9402,-542.692 1071.5,-542.692 1071.5,-542.692 1071.5,-542.692 1222.5,-542.692 1366.2609,-542.692 1536.0233,-552.803 1617.3477,-558.2733"/>
<polygon fill="#191970" stroke="#191970" points="365.0732,-734.0143 358.2504,-742.1199 368.6387,-740.0382 365.0732,-734.0143"/>
</g>
<!-- Node922&#45;&gt;Node918 -->
<g id="edge53" class="edge">
<title>Node922&#45;&gt;Node918</title>
<path fill="none" stroke="#191970" d="M353.6501,-733.2921C365.5551,-713.0859 384.4037,-679.4174 397,-648.692 418.1214,-597.1718 394.4883,-568.9076 433,-528.692 439.0528,-522.3714 446.8554,-517.7145 455.0248,-514.2836"/>
<polygon fill="#191970" stroke="#191970" points="350.5383,-731.6769 348.4215,-742.0581 356.5501,-735.2627 350.5383,-731.6769"/>
</g>
<!-- Node918&#45;&gt;Node891 -->
<g id="edge56" class="edge">
<title>Node918&#45;&gt;Node891</title>
<path fill="none" stroke="#191970" d="M551.9716,-492.7115C569.3978,-488.5336 589.0217,-483.8288 606.7424,-479.5803"/>
<polygon fill="#191970" stroke="#191970" points="550.9047,-489.368 541.9962,-495.103 552.5367,-496.1751 550.9047,-489.368"/>
</g>
<!-- Node918&#45;&gt;Node893 -->
<g id="edge55" class="edge">
<title>Node918&#45;&gt;Node893</title>
<path fill="none" stroke="#191970" d="M505.3007,-524.23C523.2541,-623.89 618.8437,-1078.5993 898,-1276.692 961.4854,-1321.742 993.6546,-1300.692 1071.5,-1300.692 1071.5,-1300.692 1071.5,-1300.692 1222.5,-1300.692 1327.7698,-1300.692 1353.7772,-1310.5473 1459,-1313.692 1516.3362,-1315.4056 1582.6662,-1315.3678 1624.3508,-1315.0985"/>
<polygon fill="#191970" stroke="#191970" points="508.7385,-523.5703 503.5648,-514.3246 501.8436,-524.7786 508.7385,-523.5703"/>
</g>
<!-- Node918&#45;&gt;Node903 -->
<g id="edge54" class="edge">
<title>Node918&#45;&gt;Node903</title>
<path fill="none" stroke="#191970" d="M560.9772,-491.2127C564.4735,-489.5766 567.8464,-487.7441 571,-485.692 592.1779,-471.911 589.192,-459.6167 607,-441.692 687.9752,-360.1861 691.1079,-276.692 806,-276.692 806,-276.692 806,-276.692 1071.5,-276.692 1292.5398,-276.692 1551.6885,-353.7698 1636.8252,-381.1685"/>
<polygon fill="#191970" stroke="#191970" points="559.4233,-488.067 551.5002,-495.1008 562.0803,-494.5432 559.4233,-488.067"/>
</g>
<!-- Node927&#45;&gt;Node893 -->
<g id="edge67" class="edge">
<title>Node927&#45;&gt;Node893</title>
<path fill="none" stroke="#191970" d="M1562.6382,-1552.0566C1566.541,-1549.426 1570.0963,-1546.3311 1573,-1542.692 1630.423,-1470.7264 1551.6908,-1410.7483 1609,-1338.692 1614.0417,-1332.353 1621.0695,-1327.6625 1628.4598,-1324.2004"/>
<polygon fill="#191970" stroke="#191970" points="1560.6594,-1549.1538 1553.6572,-1557.1048 1564.0895,-1555.2558 1560.6594,-1549.1538"/>
</g>
<!-- Node927&#45;&gt;Node894 -->
<g id="edge68" class="edge">
<title>Node927&#45;&gt;Node894</title>
<path fill="none" stroke="#191970" d="M1562.034,-1552.2736C1566.1487,-1549.5946 1569.9163,-1546.4292 1573,-1542.692 1622.4304,-1482.7868 1557.384,-1429.7247 1609,-1371.692 1644.2139,-1332.1005 1689.0718,-1375.2039 1722,-1333.692 1780.3837,-1260.0889 1804.9748,-547.5796 1808.5388,-433.9387"/>
<polygon fill="#191970" stroke="#191970" points="1560.2914,-1549.2375 1553.2088,-1557.1171 1563.6593,-1555.3741 1560.2914,-1549.2375"/>
</g>
<!-- Node928&#45;&gt;Node890 -->
<g id="edge72" class="edge">
<title>Node928&#45;&gt;Node890</title>
<path fill="none" stroke="#191970" d="M363.637,-811.5796C375.5309,-801.2651 389.4673,-786.8182 397,-770.692 458.1308,-639.821 367.466,-576.4146 433,-447.692 443.1562,-427.7432 462.4133,-410.9946 478.0082,-399.7929"/>
<polygon fill="#191970" stroke="#191970" points="361.311,-808.9614 355.8329,-818.0301 365.7707,-814.3569 361.311,-808.9614"/>
</g>
<!-- Node928&#45;&gt;Node900 -->
<g id="edge73" class="edge">
<title>Node928&#45;&gt;Node900</title>
<path fill="none" stroke="#191970" d="M344.8,-847.4325C352.8593,-914.1331 382.1244,-1136.8854 433,-1314.692 451.6888,-1380.008 485.2681,-1454.7688 497.4381,-1480.9952"/>
<polygon fill="#191970" stroke="#191970" points="348.2708,-846.9786 343.6141,-837.462 341.3198,-847.8054 348.2708,-846.9786"/>
</g>
<!-- Node928&#45;&gt;Node929 -->
<g id="edge75" class="edge">
<title>Node928&#45;&gt;Node929</title>
<path fill="none" stroke="#191970" d="M372.6961,-813.8171C417.2178,-792.9513 502.5896,-751.37 571,-708.692 600.1565,-690.5027 632.0369,-665.6996 648.7572,-652.2738"/>
<polygon fill="#191970" stroke="#191970" points="371.1629,-810.6702 363.5784,-818.0679 374.1208,-817.0146 371.1629,-810.6702"/>
</g>
<!-- Node900&#45;&gt;Node893 -->
<g id="edge74" class="edge">
<title>Node900&#45;&gt;Node893</title>
<path fill="none" stroke="#191970" d="M581.1222,-1490.692C642.4757,-1490.692 729.6333,-1490.692 806,-1490.692 806,-1490.692 806,-1490.692 1371,-1490.692 1464.9114,-1490.692 1504.9241,-1493.3838 1573,-1428.692 1606.9387,-1396.4405 1574.4499,-1361.2877 1609,-1329.692 1613.4187,-1325.6512 1618.8017,-1322.6761 1624.4699,-1320.4903"/>
<polygon fill="#191970" stroke="#191970" points="581.1218,-1487.1921 571.1217,-1490.692 581.1217,-1494.1921 581.1218,-1487.1921"/>
</g>
<!-- Node929&#45;&gt;Node894 -->
<g id="edge77" class="edge">
<title>Node929&#45;&gt;Node894</title>
<path fill="none" stroke="#191970" d="M691.0492,-643.4267C806.7195,-645.8264 1228.6944,-651.1152 1573,-610.692 1640.0904,-602.8153 1667.7499,-620.9424 1722,-580.692 1772.7636,-543.0285 1797.0461,-466.7164 1805.4434,-434.0708"/>
<polygon fill="#191970" stroke="#191970" points="690.8979,-639.9227 680.8244,-643.2051 690.7462,-646.921 690.8979,-639.9227"/>
</g>
<!-- Node929&#45;&gt;Node896 -->
<g id="edge76" class="edge">
<title>Node929&#45;&gt;Node896</title>
<path fill="none" stroke="#191970" d="M690.6741,-636.4338C735.6136,-627.4392 822.9004,-611.2221 898,-604.692 972.7263,-598.1944 1499.1869,-608.0283 1573,-594.692 1598.5037,-590.0841 1626.3316,-579.3143 1644.7327,-571.3243"/>
<polygon fill="#191970" stroke="#191970" points="689.8181,-633.0359 680.7104,-638.449 691.2059,-639.897 689.8181,-633.0359"/>
</g>
<!-- Node931&#45;&gt;Node891 -->
<g id="edge84" class="edge">
<title>Node931&#45;&gt;Node891</title>
<path fill="none" stroke="#191970" d="M574.8656,-466.692C585.6048,-466.692 596.5014,-466.692 606.7597,-466.692"/>
<polygon fill="#191970" stroke="#191970" points="574.6434,-463.1921 564.6434,-466.692 574.6434,-470.1921 574.6434,-463.1921"/>
</g>
</g>
</svg>
