<?xml version="1.0" encoding="UTF-8" standalone="no"?>
<!DOCTYPE svg PUBLIC "-//W3C//DTD SVG 1.1//EN"
 "http://www.w3.org/Graphics/SVG/1.1/DTD/svg11.dtd">
<!-- Generated by graphviz version 2.40.1 (20161225.0304)
 -->
<!-- Title: is_digit Pages: 1 -->
<!--zoomable 190 -->
<svg id="main" version="1.1" xmlns="http://www.w3.org/2000/svg" xmlns:xlink="http://www.w3.org/1999/xlink" xml:space="preserve" onload="init(evt)">
<style type="text/css"><![CDATA[
.edge:hover path { stroke: red; }
.edge:hover polygon { stroke: red; fill: red; }
]]></style>
<script type="text/javascript"><![CDATA[
var edges = document.getElementsByTagName('g');
if (edges && edges.length) {
  for (var i=0;i<edges.length;i++) {
    if (edges[i].id.substr(0,4)=='edge') {
      edges[i].setAttribute('class','edge');
    }
  }
}
]]></script>
        <defs>
                <circle id="rim" cx="0" cy="0" r="7"/>
                <circle id="rim2" cx="0" cy="0" r="3.5"/>
                <g id="zoomPlus">
                        <use xlink:href="#rim" fill="#404040">
                                <set attributeName="fill" to="#808080" begin="zoomplus.mouseover" end="zoomplus.mouseout"/>
                        </use>
                        <path d="M-4,0h8M0,-4v8" fill="none" stroke="white" stroke-width="1.5" pointer-events="none"/>
                </g>
                <g id="zoomMin">
                        <use xlink:href="#rim" fill="#404040">
                                <set attributeName="fill" to="#808080" begin="zoomminus.mouseover" end="zoomminus.mouseout"/>
                        </use>
                        <path d="M-4,0h8" fill="none" stroke="white" stroke-width="1.5" pointer-events="none"/>
                </g>
                <g id="dirArrow">
                        <path fill="none" stroke="white" stroke-width="1.5" d="M0,-3.0v7 M-2.5,-0.5L0,-3.0L2.5,-0.5"/>
                </g>
               <g id="resetDef">
                       <use xlink:href="#rim2" fill="#404040">
                               <set attributeName="fill" to="#808080" begin="reset.mouseover" end="reset.mouseout"/>
                       </use>
               </g>
        </defs>

<script type="text/javascript">
var viewWidth = 608;
var viewHeight = 190;
var sectionId = 'dynsection-1';
</script>
<script xlink:href="svgpan.js"/>
<svg id="graph" class="graph">
<g id="viewport">
<title>is_digit</title>
<!-- Node1 -->
<g id="node1" class="node">
<title>Node1</title>
<polygon fill="#bfbfbf" stroke="#000000" points="0,-10.799 0,-29.799 47,-29.799 47,-10.799 0,-10.799"/>
<text text-anchor="middle" x="23.5" y="-17.799" font-family="Helvetica,sans-Serif" font-size="10.00" fill="#000000">is_digit</text>
</g>
<!-- Node2 -->
<g id="node2" class="node">
<title>Node2</title>
<g id="a_node2"><a xlink:href="libregexp_8h.html#adca92c15688d39a0e06cd92f870d25d2" target="_top" xlink:title="lre_parse_escape">
<polygon fill="none" stroke="#000000" points="83,-67.799 83,-86.799 176,-86.799 176,-67.799 83,-67.799"/>
<text text-anchor="middle" x="129.5" y="-74.799" font-family="Helvetica,sans-Serif" font-size="10.00" fill="#000000">lre_parse_escape</text>
</a>
</g>
</g>
<!-- Node1&#45;&gt;Node2 -->
<g id="edge1" class="edge">
<title>Node1&#45;&gt;Node2</title>
<path fill="none" stroke="#191970" d="M50.3767,-34.7516C69.6321,-45.1059 95.022,-58.759 111.7841,-67.7726"/>
<polygon fill="#191970" stroke="#191970" points="51.9465,-31.6218 41.4815,-29.9683 48.6312,-37.787 51.9465,-31.6218"/>
</g>
<!-- Node5 -->
<g id="node5" class="node">
<title>Node5</title>
<g id="a_node5"><a xlink:href="libregexp_8c.html#acca34590a18d70f866ad56d67ce309e8" target="_top" xlink:title="re_parse_term">
<polygon fill="none" stroke="#ff0000" points="512.5,-29.799 512.5,-48.799 591.5,-48.799 591.5,-29.799 512.5,-29.799"/>
<text text-anchor="middle" x="552" y="-36.799" font-family="Helvetica,sans-Serif" font-size="10.00" fill="#000000">re_parse_term</text>
</a>
</g>
</g>
<!-- Node1&#45;&gt;Node5 -->
<g id="edge15" class="edge">
<title>Node1&#45;&gt;Node5</title>
<path fill="none" stroke="#191970" d="M57.5365,-15.71C132.3399,-6.4908 316.4683,11.4558 468,-12.299 489.1867,-15.6204 512.3225,-23.3839 528.9392,-29.7377"/>
<polygon fill="#191970" stroke="#191970" points="56.793,-12.276 47.31,-17.0008 57.6697,-19.2208 56.793,-12.276"/>
</g>
<!-- Node3 -->
<g id="node3" class="node">
<title>Node3</title>
<g id="a_node3"><a xlink:href="libregexp_8c.html#ac654c01af0eedad21af5da6e5035f37c" target="_top" xlink:title="get_class_atom">
<polygon fill="none" stroke="#000000" points="225.5,-67.799 225.5,-86.799 311.5,-86.799 311.5,-67.799 225.5,-67.799"/>
<text text-anchor="middle" x="268.5" y="-74.799" font-family="Helvetica,sans-Serif" font-size="10.00" fill="#000000">get_class_atom</text>
</a>
</g>
</g>
<!-- Node2&#45;&gt;Node3 -->
<g id="edge2" class="edge">
<title>Node2&#45;&gt;Node3</title>
<path fill="none" stroke="#191970" d="M186.4571,-77.299C199.4904,-77.299 213.1325,-77.299 225.467,-77.299"/>
<polygon fill="#191970" stroke="#191970" points="186.1717,-73.7991 176.1717,-77.299 186.1716,-80.7991 186.1717,-73.7991"/>
</g>
<!-- Node15 -->
<g id="node6" class="node">
<title>Node15</title>
<g id="a_node6"><a xlink:href="libregexp_8c.html#a6e0ee9170c3faaca126dbcc40c07aed7" target="_top" xlink:title="re_parse_group_name">
<polygon fill="none" stroke="#000000" points="212,-29.799 212,-48.799 325,-48.799 325,-29.799 212,-29.799"/>
<text text-anchor="middle" x="268.5" y="-36.799" font-family="Helvetica,sans-Serif" font-size="10.00" fill="#000000">re_parse_group_name</text>
</a>
</g>
</g>
<!-- Node2&#45;&gt;Node15 -->
<g id="edge6" class="edge">
<title>Node2&#45;&gt;Node15</title>
<path fill="none" stroke="#191970" d="M174.2953,-65.0528C193.4547,-59.815 215.4938,-53.7899 233.4357,-48.885"/>
<polygon fill="#191970" stroke="#191970" points="173.2986,-61.6968 164.5756,-67.71 175.1446,-68.449 173.2986,-61.6968"/>
</g>
<!-- Node19 -->
<g id="node8" class="node">
<title>Node19</title>
<g id="a_node8"><a xlink:href="quickjs_8c.html#ace438176f9f0e0fea6d6f5cdffb1577e" target="_top" xlink:title="js_parse_string">
<polygon fill="none" stroke="#000000" points="227,-143.799 227,-162.799 310,-162.799 310,-143.799 227,-143.799"/>
<text text-anchor="middle" x="268.5" y="-150.799" font-family="Helvetica,sans-Serif" font-size="10.00" fill="#000000">js_parse_string</text>
</a>
</g>
</g>
<!-- Node2&#45;&gt;Node19 -->
<g id="edge10" class="edge">
<title>Node2&#45;&gt;Node19</title>
<path fill="none" stroke="#191970" d="M151.4229,-92.4778C167.7256,-103.4254 190.7355,-118.1732 212,-129.299 222.1039,-134.5855 233.632,-139.6456 243.6286,-143.7449"/>
<polygon fill="#191970" stroke="#191970" points="153.3489,-89.555 143.1095,-86.8339 149.4171,-95.3465 153.3489,-89.555"/>
</g>
<!-- Node20 -->
<g id="node9" class="node">
<title>Node20</title>
<g id="a_node9"><a xlink:href="quickjs_8c.html#a75a3798e2045f6e403c1ef467126d1fb" target="_top" xlink:title="next_token">
<polygon fill="none" stroke="#ff0000" points="382,-143.799 382,-162.799 447,-162.799 447,-143.799 382,-143.799"/>
<text text-anchor="middle" x="414.5" y="-150.799" font-family="Helvetica,sans-Serif" font-size="10.00" fill="#000000">next_token</text>
</a>
</g>
</g>
<!-- Node2&#45;&gt;Node20 -->
<g id="edge14" class="edge">
<title>Node2&#45;&gt;Node20</title>
<path fill="none" stroke="#191970" d="M175.2545,-89.5002C232.9964,-104.8981 330.8915,-131.0034 381.7031,-144.5532"/>
<polygon fill="#191970" stroke="#191970" points="175.8711,-86.0424 165.3069,-86.8475 174.0674,-92.8061 175.8711,-86.0424"/>
</g>
<!-- Node4 -->
<g id="node4" class="node">
<title>Node4</title>
<g id="a_node4"><a xlink:href="libregexp_8c.html#ab2f98b8a2e66fd9197d2677f47ccffa8" target="_top" xlink:title="re_parse_char_class">
<polygon fill="none" stroke="#000000" points="361,-105.799 361,-124.799 468,-124.799 468,-105.799 361,-105.799"/>
<text text-anchor="middle" x="414.5" y="-112.799" font-family="Helvetica,sans-Serif" font-size="10.00" fill="#000000">re_parse_char_class</text>
</a>
</g>
</g>
<!-- Node3&#45;&gt;Node4 -->
<g id="edge3" class="edge">
<title>Node3&#45;&gt;Node4</title>
<path fill="none" stroke="#191970" d="M315.036,-89.4111C335.3696,-94.7034 358.8713,-100.8203 377.923,-105.779"/>
<polygon fill="#191970" stroke="#191970" points="315.9012,-86.0198 305.342,-86.888 314.1379,-92.7941 315.9012,-86.0198"/>
</g>
<!-- Node3&#45;&gt;Node5 -->
<g id="edge5" class="edge">
<title>Node3&#45;&gt;Node5</title>
<path fill="none" stroke="#191970" d="M321.6514,-74.0879C361.9789,-71.2043 418.698,-66.1896 468,-58.299 483.3544,-55.8416 500.0966,-52.2451 514.565,-48.8406"/>
<polygon fill="#191970" stroke="#191970" points="321.2415,-70.6078 311.5084,-74.7929 321.727,-77.591 321.2415,-70.6078"/>
</g>
<!-- Node4&#45;&gt;Node5 -->
<g id="edge4" class="edge">
<title>Node4&#45;&gt;Node5</title>
<path fill="none" stroke="#191970" d="M446.8189,-101.6322C453.8843,-98.415 461.2619,-94.8758 468,-91.299 493.2996,-77.8695 521.3375,-59.8326 537.7748,-48.9145"/>
<polygon fill="#191970" stroke="#191970" points="445.1811,-98.5301 437.4674,-105.793 448.0267,-104.9256 445.1811,-98.5301"/>
</g>
<!-- Node15&#45;&gt;Node5 -->
<g id="edge9" class="edge">
<title>Node15&#45;&gt;Node5</title>
<path fill="none" stroke="#191970" d="M316.1644,-27.5874C330.4863,-24.5901 346.3004,-21.7931 361,-20.299 408.3118,-15.4902 420.7383,-15.0206 468,-20.299 484.6425,-22.1577 502.8009,-26.0268 517.9634,-29.7914"/>
<polygon fill="#191970" stroke="#191970" points="315.0648,-24.2446 306.0369,-29.7895 316.5522,-31.0848 315.0648,-24.2446"/>
</g>
<!-- Node16 -->
<g id="node7" class="node">
<title>Node16</title>
<g id="a_node7"><a xlink:href="libregexp_8c.html#abe49cc9b1bcf935c4c8cfcbc932cb407" target="_top" xlink:title="re_parse_captures">
<polygon fill="none" stroke="#ff0000" points="366,-29.799 366,-48.799 463,-48.799 463,-29.799 366,-29.799"/>
<text text-anchor="middle" x="414.5" y="-36.799" font-family="Helvetica,sans-Serif" font-size="10.00" fill="#000000">re_parse_captures</text>
</a>
</g>
</g>
<!-- Node15&#45;&gt;Node16 -->
<g id="edge7" class="edge">
<title>Node15&#45;&gt;Node16</title>
<path fill="none" stroke="#191970" d="M335.4452,-39.299C345.6069,-39.299 355.9262,-39.299 365.6081,-39.299"/>
<polygon fill="#191970" stroke="#191970" points="335.3655,-35.7991 325.3655,-39.299 335.3654,-42.7991 335.3655,-35.7991"/>
</g>
<!-- Node16&#45;&gt;Node5 -->
<g id="edge8" class="edge">
<title>Node16&#45;&gt;Node5</title>
<path fill="none" stroke="#191970" d="M473.6991,-39.299C486.7568,-39.299 500.2832,-39.299 512.3446,-39.299"/>
<polygon fill="#191970" stroke="#191970" points="473.3645,-35.7991 463.3645,-39.299 473.3645,-42.7991 473.3645,-35.7991"/>
</g>
<!-- Node19&#45;&gt;Node20 -->
<g id="edge11" class="edge">
<title>Node19&#45;&gt;Node20</title>
<path fill="none" stroke="#191970" d="M320.4791,-153.299C340.9645,-153.299 363.8643,-153.299 381.9349,-153.299"/>
<polygon fill="#191970" stroke="#191970" points="320.3378,-149.7991 310.3377,-153.299 320.3377,-156.7991 320.3378,-149.7991"/>
</g>
<!-- Node22 -->
<g id="node10" class="node">
<title>Node22</title>
<g id="a_node10"><a xlink:href="quickjs_8c.html#a035daca514f14aacc1e0cff81d8e423a" target="_top" xlink:title="js_parse_template">
<polygon fill="none" stroke="#ff0000" points="504,-162.799 504,-181.799 600,-181.799 600,-162.799 504,-162.799"/>
<text text-anchor="middle" x="552" y="-169.799" font-family="Helvetica,sans-Serif" font-size="10.00" fill="#000000">js_parse_template</text>
</a>
</g>
</g>
<!-- Node19&#45;&gt;Node22 -->
<g id="edge13" class="edge">
<title>Node19&#45;&gt;Node22</title>
<path fill="none" stroke="#191970" d="M316.1644,-165.0107C330.4863,-168.008 346.3004,-170.8049 361,-172.299 409.4949,-177.2281 465.2744,-176.4965 503.9824,-174.9798"/>
<polygon fill="#191970" stroke="#191970" points="316.5522,-161.5133 306.0369,-162.8086 315.0648,-168.3535 316.5522,-161.5133"/>
</g>
<!-- Node20&#45;&gt;Node22 -->
<g id="edge12" class="edge">
<title>Node20&#45;&gt;Node22</title>
<path fill="none" stroke="#191970" d="M457.4171,-159.2294C472.1181,-161.2608 488.6632,-163.547 503.7568,-165.6327"/>
<polygon fill="#191970" stroke="#191970" points="457.4706,-155.7036 447.0856,-157.8018 456.5123,-162.6377 457.4706,-155.7036"/>
</g>
</g>
</svg>
        <g id="navigator" transform="translate(0 0)" fill="#404254">
                <rect fill="#f2f5e9" fill-opacity="0.5" stroke="#606060" stroke-width=".5" x="0" y="0" width="60" height="60"/>
                <use id="zoomplus" xlink:href="#zoomPlus" x="17" y="9" onmousedown="handleZoom(evt,'in')"/>
                <use id="zoomminus" xlink:href="#zoomMin" x="42" y="9" onmousedown="handleZoom(evt,'out')"/>
                <use id="reset" xlink:href="#resetDef" x="30" y="36" onmousedown="handleReset()"/>
                <g id="arrowUp" xlink:href="#dirArrow" transform="translate(30 24)" onmousedown="handlePan(0,-1)">
                  <use xlink:href="#rim" fill="#404040">
                        <set attributeName="fill" to="#808080" begin="arrowUp.mouseover" end="arrowUp.mouseout"/>
                  </use>
                  <path fill="none" stroke="white" stroke-width="1.5" d="M0,-3.0v7 M-2.5,-0.5L0,-3.0L2.5,-0.5"/>
                </g>
                <g id="arrowRight" xlink:href="#dirArrow" transform="rotate(90) translate(36 -43)" onmousedown="handlePan(1,0)">
                  <use xlink:href="#rim" fill="#404040">
                        <set attributeName="fill" to="#808080" begin="arrowRight.mouseover" end="arrowRight.mouseout"/>
                  </use>
                  <path fill="none" stroke="white" stroke-width="1.5" d="M0,-3.0v7 M-2.5,-0.5L0,-3.0L2.5,-0.5"/>
                </g>
                <g id="arrowDown" xlink:href="#dirArrow" transform="rotate(180) translate(-30 -48)" onmousedown="handlePan(0,1)">
                  <use xlink:href="#rim" fill="#404040">
                        <set attributeName="fill" to="#808080" begin="arrowDown.mouseover" end="arrowDown.mouseout"/>
                  </use>
                  <path fill="none" stroke="white" stroke-width="1.5" d="M0,-3.0v7 M-2.5,-0.5L0,-3.0L2.5,-0.5"/>
                </g>
                <g id="arrowLeft" xlink:href="#dirArrow" transform="rotate(270) translate(-36 17)" onmousedown="handlePan(-1,0)">
                  <use xlink:href="#rim" fill="#404040">
                        <set attributeName="fill" to="#808080" begin="arrowLeft.mouseover" end="arrowLeft.mouseout"/>
                  </use>
                  <path fill="none" stroke="white" stroke-width="1.5" d="M0,-3.0v7 M-2.5,-0.5L0,-3.0L2.5,-0.5"/>
                </g>
        </g>
        <svg viewBox="0 0 15 15" width="100%" height="30px" preserveAspectRatio="xMaxYMin meet">
         <g id="arrow_out" transform="scale(0.3 0.3)">
          <a xlink:href="libregexp_8c_ab3ca6381d29dea396b12acd7f755c51a_icgraph_org.svg" target="_base">
           <rect id="button" ry="5" rx="5" y="6" x="6" height="38" width="38"
                fill="#f2f5e9" fill-opacity="0.5" stroke="#606060" stroke-width="1.0"/>
           <path id="arrow"
             d="M 11.500037,31.436501 C 11.940474,20.09759 22.043105,11.32322 32.158766,21.979434 L 37.068811,17.246167 C 37.068811,17.246167 37.088388,32 37.088388,32 L 22.160133,31.978069 C 22.160133,31.978069 26.997745,27.140456 26.997745,27.140456 C 18.528582,18.264221 13.291696,25.230495 11.500037,31.436501 z"
             style="fill:#404040;"/>
          </a>
         </g>
        </svg>
</svg>
