<?xml version="1.0" encoding="UTF-8" standalone="no"?>
<!DOCTYPE svg PUBLIC "-//W3C//DTD SVG 1.1//EN"
 "http://www.w3.org/Graphics/SVG/1.1/DTD/svg11.dtd">
<!-- Generated by graphviz version 2.40.1 (20161225.0304)
 -->
<!-- Title: lre_is_id_continue Pages: 1 -->
<!--zoomable 1416 -->
<svg id="main" version="1.1" xmlns="http://www.w3.org/2000/svg" xmlns:xlink="http://www.w3.org/1999/xlink" xml:space="preserve" onload="init(evt)">
<style type="text/css"><![CDATA[
.edge:hover path { stroke: red; }
.edge:hover polygon { stroke: red; fill: red; }
]]></style>
<script type="text/javascript"><![CDATA[
var edges = document.getElementsByTagName('g');
if (edges && edges.length) {
  for (var i=0;i<edges.length;i++) {
    if (edges[i].id.substr(0,4)=='edge') {
      edges[i].setAttribute('class','edge');
    }
  }
}
]]></script>
        <defs>
                <circle id="rim" cx="0" cy="0" r="7"/>
                <circle id="rim2" cx="0" cy="0" r="3.5"/>
                <g id="zoomPlus">
                        <use xlink:href="#rim" fill="#404040">
                                <set attributeName="fill" to="#808080" begin="zoomplus.mouseover" end="zoomplus.mouseout"/>
                        </use>
                        <path d="M-4,0h8M0,-4v8" fill="none" stroke="white" stroke-width="1.5" pointer-events="none"/>
                </g>
                <g id="zoomMin">
                        <use xlink:href="#rim" fill="#404040">
                                <set attributeName="fill" to="#808080" begin="zoomminus.mouseover" end="zoomminus.mouseout"/>
                        </use>
                        <path d="M-4,0h8" fill="none" stroke="white" stroke-width="1.5" pointer-events="none"/>
                </g>
                <g id="dirArrow">
                        <path fill="none" stroke="white" stroke-width="1.5" d="M0,-3.0v7 M-2.5,-0.5L0,-3.0L2.5,-0.5"/>
                </g>
               <g id="resetDef">
                       <use xlink:href="#rim2" fill="#404040">
                               <set attributeName="fill" to="#808080" begin="reset.mouseover" end="reset.mouseout"/>
                       </use>
               </g>
        </defs>

<script type="text/javascript">
var viewWidth = 1881;
var viewHeight = 1416;
var sectionId = 'dynsection-29';
</script>
<script xlink:href="svgpan.js"/>
<svg id="graph" class="graph">
<g id="viewport">
<title>lre_is_id_continue</title>
<!-- Node550 -->
<g id="node1" class="node">
<title>Node550</title>
<polygon fill="#bfbfbf" stroke="#000000" points="0,-715.9996 0,-734.9996 95,-734.9996 95,-715.9996 0,-715.9996"/>
<text text-anchor="middle" x="47.5" y="-722.9996" font-family="Helvetica,sans-Serif" font-size="10.00" fill="#000000">lre_is_id_continue</text>
</g>
<!-- Node551 -->
<g id="node2" class="node">
<title>Node551</title>
<g id="a_node2"><a xlink:href="libregexp_8h.html#a3dd6ac80b2cc9f7fc7f18a4cb0acdce3" target="_top" xlink:title="lre_js_is_ident_next">
<polygon fill="none" stroke="#000000" points="131,-715.9996 131,-734.9996 234,-734.9996 234,-715.9996 131,-715.9996"/>
<text text-anchor="middle" x="182.5" y="-722.9996" font-family="Helvetica,sans-Serif" font-size="10.00" fill="#000000">lre_js_is_ident_next</text>
</a>
</g>
</g>
<!-- Node550&#45;&gt;Node551 -->
<g id="edge1" class="edge">
<title>Node550&#45;&gt;Node551</title>
<path fill="none" stroke="#191970" d="M105.279,-725.4996C113.7422,-725.4996 122.4135,-725.4996 130.7458,-725.4996"/>
<polygon fill="#191970" stroke="#191970" points="105.096,-721.9997 95.0959,-725.4996 105.0959,-728.9997 105.096,-721.9997"/>
</g>
<!-- Node552 -->
<g id="node3" class="node">
<title>Node552</title>
<g id="a_node3"><a xlink:href="quickjs_8c.html#acb789e8ccb230adfd9262642ff338177" target="_top" xlink:title="js_parse_regexp">
<polygon fill="none" stroke="#000000" points="437.5,-1114.9996 437.5,-1133.9996 525.5,-1133.9996 525.5,-1114.9996 437.5,-1114.9996"/>
<text text-anchor="middle" x="481.5" y="-1121.9996" font-family="Helvetica,sans-Serif" font-size="10.00" fill="#000000">js_parse_regexp</text>
</a>
</g>
</g>
<!-- Node551&#45;&gt;Node552 -->
<g id="edge2" class="edge">
<title>Node551&#45;&gt;Node552</title>
<path fill="none" stroke="#191970" d="M190.2484,-744.741C215.0503,-804.2096 298.0054,-987.4821 419,-1094.4996 428.917,-1103.271 441.8511,-1110.0434 453.3784,-1114.9153"/>
<polygon fill="#191970" stroke="#191970" points="193.3352,-743.0441 186.298,-735.124 186.8602,-745.7039 193.3352,-743.0441"/>
</g>
<!-- Node584 -->
<g id="node20" class="node">
<title>Node584</title>
<g id="a_node20"><a xlink:href="quickjs_8c.html#a75a3798e2045f6e403c1ef467126d1fb" target="_top" xlink:title="next_token">
<polygon fill="none" stroke="#ff0000" points="294,-734.9996 294,-753.9996 359,-753.9996 359,-734.9996 294,-734.9996"/>
<text text-anchor="middle" x="326.5" y="-741.9996" font-family="Helvetica,sans-Serif" font-size="10.00" fill="#000000">next_token</text>
</a>
</g>
</g>
<!-- Node551&#45;&gt;Node584 -->
<g id="edge42" class="edge">
<title>Node551&#45;&gt;Node584</title>
<path fill="none" stroke="#191970" d="M244.0043,-733.6147C261.0672,-735.8661 278.9338,-738.2235 293.6595,-740.1664"/>
<polygon fill="#191970" stroke="#191970" points="244.4525,-730.1436 234.0806,-732.3053 243.5368,-737.0835 244.4525,-730.1436"/>
</g>
<!-- Node596 -->
<g id="node29" class="node">
<title>Node596</title>
<g id="a_node29"><a xlink:href="libregexp_8c.html#a6e0ee9170c3faaca126dbcc40c07aed7" target="_top" xlink:title="re_parse_group_name">
<polygon fill="none" stroke="#ff0000" points="270,-696.9996 270,-715.9996 383,-715.9996 383,-696.9996 270,-696.9996"/>
<text text-anchor="middle" x="326.5" y="-703.9996" font-family="Helvetica,sans-Serif" font-size="10.00" fill="#000000">re_parse_group_name</text>
</a>
</g>
</g>
<!-- Node551&#45;&gt;Node596 -->
<g id="edge87" class="edge">
<title>Node551&#45;&gt;Node596</title>
<path fill="none" stroke="#191970" d="M244.0393,-717.3798C252.6277,-716.2466 261.419,-715.0866 269.9103,-713.9663"/>
<polygon fill="#191970" stroke="#191970" points="243.5368,-713.9157 234.0806,-718.6938 244.4525,-720.8555 243.5368,-713.9157"/>
</g>
<!-- Node609 -->
<g id="node30" class="node">
<title>Node609</title>
<g id="a_node30"><a xlink:href="quickjs_8c.html#abd9d73eefa041a1741277e91ed026746" target="_top" xlink:title="simple_next_token">
<polygon fill="none" stroke="#ff0000" points="277.5,-658.9996 277.5,-677.9996 375.5,-677.9996 375.5,-658.9996 277.5,-658.9996"/>
<text text-anchor="middle" x="326.5" y="-665.9996" font-family="Helvetica,sans-Serif" font-size="10.00" fill="#000000">simple_next_token</text>
</a>
</g>
</g>
<!-- Node551&#45;&gt;Node609 -->
<g id="edge88" class="edge">
<title>Node551&#45;&gt;Node609</title>
<path fill="none" stroke="#191970" d="M212.4513,-711.7383C229.2292,-704.2207 250.6165,-694.9521 270,-687.4996 278.5003,-684.2314 287.8329,-680.9649 296.4212,-678.0852"/>
<polygon fill="#191970" stroke="#191970" points="210.8293,-708.6303 203.1553,-715.9352 213.7097,-715.0103 210.8293,-708.6303"/>
</g>
<!-- Node553 -->
<g id="node4" class="node">
<title>Node553</title>
<g id="a_node4"><a xlink:href="quickjs_8c.html#ac00298085baf11a4a7bd600cf5de2e6d" target="_top" xlink:title="js_parse_skip_parens\l_token">
<polygon fill="none" stroke="#ff0000" points="593.5,-1030.4996 593.5,-1060.4996 704.5,-1060.4996 704.5,-1030.4996 593.5,-1030.4996"/>
<text text-anchor="start" x="601.5" y="-1048.4996" font-family="Helvetica,sans-Serif" font-size="10.00" fill="#000000">js_parse_skip_parens</text>
<text text-anchor="middle" x="649" y="-1037.4996" font-family="Helvetica,sans-Serif" font-size="10.00" fill="#000000">_token</text>
</a>
</g>
</g>
<!-- Node552&#45;&gt;Node553 -->
<g id="edge3" class="edge">
<title>Node552&#45;&gt;Node553</title>
<path fill="none" stroke="#191970" d="M505.7543,-1109.8323C525.3708,-1098.3075 553.9202,-1082.2885 580,-1070.4996 587.7788,-1066.9833 596.2121,-1063.5952 604.4246,-1060.5089"/>
<polygon fill="#191970" stroke="#191970" points="503.9669,-1106.8231 497.1517,-1114.9351 507.5381,-1112.8436 503.9669,-1106.8231"/>
</g>
<!-- Node555 -->
<g id="node6" class="node">
<title>Node555</title>
<g id="a_node6"><a xlink:href="quickjs_8c.html#acdcc62310b4f6f73fa7bc7267b18b1d4" target="_top" xlink:title="js_parse_postfix_expr">
<polygon fill="none" stroke="#000000" points="904,-944.9996 904,-963.9996 1016,-963.9996 1016,-944.9996 904,-944.9996"/>
<text text-anchor="middle" x="960" y="-951.9996" font-family="Helvetica,sans-Serif" font-size="10.00" fill="#000000">js_parse_postfix_expr</text>
</a>
</g>
</g>
<!-- Node552&#45;&gt;Node555 -->
<g id="edge41" class="edge">
<title>Node552&#45;&gt;Node555</title>
<path fill="none" stroke="#191970" d="M535.7986,-1126.8364C584.3922,-1127.5221 657.1427,-1125.0543 718,-1108.4996 789.922,-1088.9349 805.9241,-1074.7565 868,-1033.4996 900.6124,-1011.8247 934.4011,-979.9426 950.4409,-964.1276"/>
<polygon fill="#191970" stroke="#191970" points="535.5717,-1123.3315 525.5063,-1126.6389 535.4373,-1130.3302 535.5717,-1123.3315"/>
</g>
<!-- Node554 -->
<g id="node5" class="node">
<title>Node554</title>
<g id="a_node5"><a xlink:href="quickjs_8c.html#aff9f2e2a1548acfc8307a4070bb444ec" target="_top" xlink:title="js_parse_destructing\l_element">
<polygon fill="none" stroke="#ff0000" points="757.5,-948.4996 757.5,-978.4996 864.5,-978.4996 864.5,-948.4996 757.5,-948.4996"/>
<text text-anchor="start" x="765.5" y="-966.4996" font-family="Helvetica,sans-Serif" font-size="10.00" fill="#000000">js_parse_destructing</text>
<text text-anchor="middle" x="811" y="-955.4996" font-family="Helvetica,sans-Serif" font-size="10.00" fill="#000000">_element</text>
</a>
</g>
</g>
<!-- Node553&#45;&gt;Node554 -->
<g id="edge4" class="edge">
<title>Node553&#45;&gt;Node554</title>
<path fill="none" stroke="#191970" d="M687.6524,-1025.9348C716.3379,-1011.4149 754.8816,-991.9052 781.2012,-978.5829"/>
<polygon fill="#191970" stroke="#191970" points="686.0548,-1022.8206 678.7133,-1030.4595 689.2161,-1029.0661 686.0548,-1022.8206"/>
</g>
<!-- Node553&#45;&gt;Node555 -->
<g id="edge38" class="edge">
<title>Node553&#45;&gt;Node555</title>
<path fill="none" stroke="#191970" d="M714.8044,-1039.143C759.0649,-1033.5066 818.1994,-1023.3075 868,-1005.4996 897.4049,-994.9848 928.5755,-975.7618 946.0329,-964.1557"/>
<polygon fill="#191970" stroke="#191970" points="714.2424,-1035.6857 704.7436,-1040.3786 715.0957,-1042.6335 714.2424,-1035.6857"/>
</g>
<!-- Node583 -->
<g id="node18" class="node">
<title>Node583</title>
<g id="a_node18"><a xlink:href="quickjs_8c.html#a42924858317b848c3aea0a0a978fab3a" target="_top" xlink:title="js_parse_var">
<polygon fill="none" stroke="#ff0000" points="1780.5,-1322.9996 1780.5,-1341.9996 1852.5,-1341.9996 1852.5,-1322.9996 1780.5,-1322.9996"/>
<text text-anchor="middle" x="1816.5" y="-1329.9996" font-family="Helvetica,sans-Serif" font-size="10.00" fill="#000000">js_parse_var</text>
</a>
</g>
</g>
<!-- Node553&#45;&gt;Node583 -->
<g id="edge39" class="edge">
<title>Node553&#45;&gt;Node583</title>
<path fill="none" stroke="#191970" d="M711.6499,-1065.7608C713.8679,-1067.2352 715.9956,-1068.8125 718,-1070.4996 742.6731,-1091.2658 730.4541,-1111.4635 754,-1133.4996 871.1756,-1243.1616 933.0135,-1256.4996 1093.5,-1256.4996 1093.5,-1256.4996 1093.5,-1256.4996 1225.5,-1256.4996 1437.312,-1256.4996 1688.3629,-1305.1158 1780.3922,-1324.5813"/>
<polygon fill="#191970" stroke="#191970" points="713.1205,-1062.5675 702.7156,-1060.5705 709.6041,-1068.6202 713.1205,-1062.5675"/>
</g>
<!-- Node559 -->
<g id="node19" class="node">
<title>Node559</title>
<g id="a_node19"><a xlink:href="quickjs_8c.html#ac188b916dd086803591a67de7e7a85f6" target="_top" xlink:title="js_parse_for_in_of">
<polygon fill="none" stroke="#ff0000" points="1768.5,-1132.9996 1768.5,-1151.9996 1864.5,-1151.9996 1864.5,-1132.9996 1768.5,-1132.9996"/>
<text text-anchor="middle" x="1816.5" y="-1139.9996" font-family="Helvetica,sans-Serif" font-size="10.00" fill="#000000">js_parse_for_in_of</text>
</a>
</g>
</g>
<!-- Node553&#45;&gt;Node559 -->
<g id="edge40" class="edge">
<title>Node553&#45;&gt;Node559</title>
<path fill="none" stroke="#191970" d="M702.0124,-1064.1845C707.4368,-1066.2522 712.845,-1068.3785 718,-1070.4996 883.8901,-1138.757 914.116,-1218.4996 1093.5,-1218.4996 1093.5,-1218.4996 1093.5,-1218.4996 1525,-1218.4996 1629.0758,-1218.4996 1747.489,-1172.5756 1795.0602,-1152.125"/>
<polygon fill="#191970" stroke="#191970" points="702.8746,-1060.77 692.2822,-1060.5396 700.419,-1067.3252 702.8746,-1060.77"/>
</g>
<!-- Node554&#45;&gt;Node554 -->
<g id="edge5" class="edge">
<title>Node554&#45;&gt;Node554</title>
<path fill="none" stroke="#191970" d="M784.7022,-988.9575C787.9661,-993.6785 796.7321,-996.9996 811,-996.9996 834.4141,-996.9996 843.0114,-988.0561 836.7921,-978.6586"/>
<polygon fill="#191970" stroke="#191970" points="788.2132,-988.8182 785.2079,-978.6586 781.2216,-988.4748 788.2132,-988.8182"/>
</g>
<!-- Node554&#45;&gt;Node555 -->
<g id="edge6" class="edge">
<title>Node554&#45;&gt;Node555</title>
<path fill="none" stroke="#191970" d="M875.0423,-952.9407C884.6012,-952.254 894.3945,-951.7039 903.7757,-951.3295"/>
<polygon fill="#191970" stroke="#191970" points="874.491,-949.4729 864.7924,-953.7377 875.0337,-956.4518 874.491,-949.4729"/>
</g>
<!-- Node554&#45;&gt;Node583 -->
<g id="edge36" class="edge">
<title>Node554&#45;&gt;Node583</title>
<path fill="none" stroke="#191970" d="M820.755,-988.1243C834.6668,-1020.2845 863.1277,-1076.3765 904,-1109.4996 973.875,-1166.1266 1003.5604,-1180.4996 1093.5,-1180.4996 1093.5,-1180.4996 1093.5,-1180.4996 1525,-1180.4996 1648.8518,-1180.4996 1772.185,-1289.7148 1806.8887,-1322.9913"/>
<polygon fill="#191970" stroke="#191970" points="823.8483,-986.4504 816.752,-978.5831 817.3933,-989.1585 823.8483,-986.4504"/>
</g>
<!-- Node554&#45;&gt;Node559 -->
<g id="edge37" class="edge">
<title>Node554&#45;&gt;Node559</title>
<path fill="none" stroke="#191970" d="M829.9004,-986.5228C871.862,-1034.8623 978.2383,-1142.4996 1093.5,-1142.4996 1093.5,-1142.4996 1093.5,-1142.4996 1525,-1142.4996 1610.6534,-1142.4996 1710.4639,-1142.4996 1768.2733,-1142.4996"/>
<polygon fill="#191970" stroke="#191970" points="832.4296,-984.0948 823.2753,-978.761 827.1054,-988.6393 832.4296,-984.0948"/>
</g>
<!-- Node555&#45;&gt;Node554 -->
<g id="edge9" class="edge">
<title>Node555&#45;&gt;Node554</title>
<path fill="none" stroke="#191970" d="M898.6173,-964.8634C887.3984,-965.7031 875.7696,-966.3577 864.7924,-966.7631"/>
<polygon fill="#191970" stroke="#191970" points="899.0895,-968.3367 908.7748,-964.042 898.5252,-961.3595 899.0895,-968.3367"/>
</g>
<!-- Node555&#45;&gt;Node555 -->
<g id="edge10" class="edge">
<title>Node555&#45;&gt;Node555</title>
<path fill="none" stroke="#191970" d="M935.4465,-973.5287C936.7858,-978.6275 944.9703,-982.4996 960,-982.4996 983.4609,-982.4996 990.2426,-973.0648 980.345,-964.2566"/>
<polygon fill="#191970" stroke="#191970" points="938.709,-974.8091 939.655,-964.2566 932.3348,-971.916 938.709,-974.8091"/>
</g>
<!-- Node556 -->
<g id="node7" class="node">
<title>Node556</title>
<g id="a_node7"><a xlink:href="quickjs_8c.html#a00eb789430243c24dab4a63ad6a79653" target="_top" xlink:title="js_parse_class">
<polygon fill="none" stroke="#ff0000" points="1775.5,-739.9996 1775.5,-758.9996 1857.5,-758.9996 1857.5,-739.9996 1775.5,-739.9996"/>
<text text-anchor="middle" x="1816.5" y="-746.9996" font-family="Helvetica,sans-Serif" font-size="10.00" fill="#000000">js_parse_class</text>
</a>
</g>
</g>
<!-- Node555&#45;&gt;Node556 -->
<g id="edge7" class="edge">
<title>Node555&#45;&gt;Node556</title>
<path fill="none" stroke="#191970" d="M990.1629,-969.0136C1037.9315,-995.7045 1134.8842,-1048.4996 1225.5,-1048.4996 1225.5,-1048.4996 1225.5,-1048.4996 1525,-1048.4996 1621.3502,-1048.4996 1656.3188,-1031.0752 1724,-962.4996 1785.0058,-900.6875 1807.9416,-792.7653 1814.3978,-759.295"/>
<polygon fill="#191970" stroke="#191970" points="991.7177,-965.873 981.2814,-964.0468 988.301,-971.9825 991.7177,-965.873"/>
</g>
<!-- Node571 -->
<g id="node8" class="node">
<title>Node571</title>
<g id="a_node8"><a xlink:href="quickjs_8c.html#af99673e7430294cf15dc24dc5dac227f" target="_top" xlink:title="js_parse_unary">
<polygon fill="none" stroke="#000000" points="1052,-640.9996 1052,-659.9996 1135,-659.9996 1135,-640.9996 1052,-640.9996"/>
<text text-anchor="middle" x="1093.5" y="-647.9996" font-family="Helvetica,sans-Serif" font-size="10.00" fill="#000000">js_parse_unary</text>
</a>
</g>
</g>
<!-- Node555&#45;&gt;Node571 -->
<g id="edge11" class="edge">
<title>Node555&#45;&gt;Node571</title>
<path fill="none" stroke="#191970" d="M968.47,-935.2121C994.1476,-876.7403 1070.511,-702.8491 1089.292,-660.0819"/>
<polygon fill="#191970" stroke="#191970" points="965.1068,-934.1659 964.2906,-944.7292 971.5161,-936.9805 965.1068,-934.1659"/>
</g>
<!-- Node555&#45;&gt;Node559 -->
<g id="edge35" class="edge">
<title>Node555&#45;&gt;Node559</title>
<path fill="none" stroke="#191970" d="M967.8875,-973.386C980.8567,-1001.8553 1009.5535,-1055.1259 1052,-1080.4996 1118.8172,-1120.4416 1147.6546,-1104.4996 1225.5,-1104.4996 1225.5,-1104.4996 1225.5,-1104.4996 1525,-1104.4996 1612.7816,-1104.4996 1714.1945,-1121.6534 1771.2955,-1132.9106"/>
<polygon fill="#191970" stroke="#191970" points="971.0448,-971.8707 963.8246,-964.1171 964.6337,-974.681 971.0448,-971.8707"/>
</g>
<!-- Node556&#45;&gt;Node555 -->
<g id="edge8" class="edge">
<title>Node556&#45;&gt;Node555</title>
<path fill="none" stroke="#191970" d="M1814.1224,-769.4539C1807.3043,-813.7218 1784.1677,-919.5366 1724,-980.4996 1656.3188,-1049.0752 1621.3502,-1066.4996 1525,-1066.4996 1225.5,-1066.4996 1225.5,-1066.4996 1225.5,-1066.4996 1117.7189,-1066.4996 1000.9729,-991.8082 968.6887,-964.0766"/>
<polygon fill="#191970" stroke="#191970" points="1817.6147,-769.7537 1815.5456,-759.3628 1810.6833,-768.776 1817.6147,-769.7537"/>
</g>
<!-- Node571&#45;&gt;Node571 -->
<g id="edge14" class="edge">
<title>Node571&#45;&gt;Node571</title>
<path fill="none" stroke="#191970" d="M1068.9465,-669.5287C1070.2858,-674.6275 1078.4703,-678.4996 1093.5,-678.4996 1116.9609,-678.4996 1123.7426,-669.0648 1113.845,-660.2566"/>
<polygon fill="#191970" stroke="#191970" points="1072.209,-670.8091 1073.155,-660.2566 1065.8348,-667.916 1072.209,-670.8091"/>
</g>
<!-- Node572 -->
<g id="node9" class="node">
<title>Node572</title>
<g id="a_node9"><a xlink:href="quickjs_8c.html#a2ecfb6abb190101748202a8aa5821fba" target="_top" xlink:title="js_parse_delete">
<polygon fill="none" stroke="#000000" points="1183,-640.9996 1183,-659.9996 1268,-659.9996 1268,-640.9996 1183,-640.9996"/>
<text text-anchor="middle" x="1225.5" y="-647.9996" font-family="Helvetica,sans-Serif" font-size="10.00" fill="#000000">js_parse_delete</text>
</a>
</g>
</g>
<!-- Node571&#45;&gt;Node572 -->
<g id="edge12" class="edge">
<title>Node571&#45;&gt;Node572</title>
<path fill="none" stroke="#191970" d="M1145.4212,-643.888C1157.7516,-643.6422 1170.7696,-643.7238 1182.6434,-644.1328"/>
<polygon fill="#191970" stroke="#191970" points="1145.164,-640.3937 1135.2656,-644.1714 1145.3594,-647.3909 1145.164,-640.3937"/>
</g>
<!-- Node573 -->
<g id="node10" class="node">
<title>Node573</title>
<g id="a_node10"><a xlink:href="quickjs_8c.html#ab1c84e1eb8a5f06b9257c3c9b5a6f024" target="_top" xlink:title="js_parse_expr_binary">
<polygon fill="none" stroke="#000000" points="1171,-678.9996 1171,-697.9996 1280,-697.9996 1280,-678.9996 1171,-678.9996"/>
<text text-anchor="middle" x="1225.5" y="-685.9996" font-family="Helvetica,sans-Serif" font-size="10.00" fill="#000000">js_parse_expr_binary</text>
</a>
</g>
</g>
<!-- Node571&#45;&gt;Node573 -->
<g id="edge15" class="edge">
<title>Node571&#45;&gt;Node573</title>
<path fill="none" stroke="#191970" d="M1136.5409,-662.8901C1154.6177,-668.0941 1175.3195,-674.0537 1192.2015,-678.9136"/>
<polygon fill="#191970" stroke="#191970" points="1137.3872,-659.4917 1126.8092,-660.0886 1135.4506,-666.2185 1137.3872,-659.4917"/>
</g>
<!-- Node572&#45;&gt;Node571 -->
<g id="edge13" class="edge">
<title>Node572&#45;&gt;Node571</title>
<path fill="none" stroke="#191970" d="M1172.4405,-657.1329C1160.0696,-657.3586 1147.0673,-657.2568 1135.2656,-656.8277"/>
<polygon fill="#191970" stroke="#191970" points="1172.7382,-660.6264 1182.6434,-656.8663 1172.5553,-653.6288 1172.7382,-660.6264"/>
</g>
<!-- Node573&#45;&gt;Node573 -->
<g id="edge16" class="edge">
<title>Node573&#45;&gt;Node573</title>
<path fill="none" stroke="#191970" d="M1200.9465,-707.5287C1202.2858,-712.6275 1210.4703,-716.4996 1225.5,-716.4996 1248.9609,-716.4996 1255.7426,-707.0648 1245.845,-698.2566"/>
<polygon fill="#191970" stroke="#191970" points="1204.209,-708.8091 1205.155,-698.2566 1197.8348,-705.916 1204.209,-708.8091"/>
</g>
<!-- Node574 -->
<g id="node11" class="node">
<title>Node574</title>
<g id="a_node11"><a xlink:href="quickjs_8c.html#a2af8c0e05d949d0ae23d94c8e73e5494" target="_top" xlink:title="js_parse_logical_and_or">
<polygon fill="none" stroke="#000000" points="1316,-682.9996 1316,-701.9996 1437,-701.9996 1437,-682.9996 1316,-682.9996"/>
<text text-anchor="middle" x="1376.5" y="-689.9996" font-family="Helvetica,sans-Serif" font-size="10.00" fill="#000000">js_parse_logical_and_or</text>
</a>
</g>
</g>
<!-- Node573&#45;&gt;Node574 -->
<g id="edge17" class="edge">
<title>Node573&#45;&gt;Node574</title>
<path fill="none" stroke="#191970" d="M1290.2758,-690.2155C1298.7883,-690.441 1307.4864,-690.6714 1315.9254,-690.8949"/>
<polygon fill="#191970" stroke="#191970" points="1290.1037,-686.7098 1280.0145,-689.9437 1289.9182,-693.7073 1290.1037,-686.7098"/>
</g>
<!-- Node574&#45;&gt;Node574 -->
<g id="edge18" class="edge">
<title>Node574&#45;&gt;Node574</title>
<path fill="none" stroke="#191970" d="M1348.8742,-711.1535C1350.0289,-716.4364 1359.2375,-720.4996 1376.5,-720.4996 1402.8047,-720.4996 1410.4084,-711.0648 1399.3111,-702.2566"/>
<polygon fill="#191970" stroke="#191970" points="1352.0076,-712.7172 1353.6889,-702.2566 1345.8512,-709.3856 1352.0076,-712.7172"/>
</g>
<!-- Node575 -->
<g id="node12" class="node">
<title>Node575</title>
<g id="a_node12"><a xlink:href="quickjs_8c.html#abd2cbff624ea609dbf883fb1a2f048cd" target="_top" xlink:title="js_parse_cond_expr">
<polygon fill="none" stroke="#000000" points="1473,-682.9996 1473,-701.9996 1577,-701.9996 1577,-682.9996 1473,-682.9996"/>
<text text-anchor="middle" x="1525" y="-689.9996" font-family="Helvetica,sans-Serif" font-size="10.00" fill="#000000">js_parse_cond_expr</text>
</a>
</g>
</g>
<!-- Node574&#45;&gt;Node575 -->
<g id="edge19" class="edge">
<title>Node574&#45;&gt;Node575</title>
<path fill="none" stroke="#191970" d="M1447.5562,-692.4996C1455.9869,-692.4996 1464.4726,-692.4996 1472.5775,-692.4996"/>
<polygon fill="#191970" stroke="#191970" points="1447.3291,-688.9997 1437.3291,-692.4996 1447.3291,-695.9997 1447.3291,-688.9997"/>
</g>
<!-- Node576 -->
<g id="node13" class="node">
<title>Node576</title>
<g id="a_node13"><a xlink:href="quickjs_8c.html#a4fa2fc1719feb03edf64eaf034103fd2" target="_top" xlink:title="js_parse_assign_expr">
<polygon fill="none" stroke="#ff0000" points="1613,-924.9996 1613,-943.9996 1724,-943.9996 1724,-924.9996 1613,-924.9996"/>
<text text-anchor="middle" x="1668.5" y="-931.9996" font-family="Helvetica,sans-Serif" font-size="10.00" fill="#000000">js_parse_assign_expr</text>
</a>
</g>
</g>
<!-- Node575&#45;&gt;Node576 -->
<g id="edge20" class="edge">
<title>Node575&#45;&gt;Node576</title>
<path fill="none" stroke="#191970" d="M1538.3003,-710.8086C1569.3848,-759.2435 1645.5765,-888.2805 1664.2951,-924.927"/>
<polygon fill="#191970" stroke="#191970" points="1541.1105,-708.7105 1532.7152,-702.2476 1535.2478,-712.5353 1541.1105,-708.7105"/>
</g>
<!-- Node576&#45;&gt;Node554 -->
<g id="edge28" class="edge">
<title>Node576&#45;&gt;Node554</title>
<path fill="none" stroke="#191970" d="M1640.8344,-948.6267C1623.0101,-957.2138 1599.1147,-967.7823 1577,-974.4996 1490.372,-1000.8126 1467.0361,-1010.4996 1376.5,-1010.4996 1093.5,-1010.4996 1093.5,-1010.4996 1093.5,-1010.4996 1008.8555,-1010.4996 987.0208,-1007.9993 904,-991.4996 887.6271,-988.2456 870.0093,-983.3209 854.5581,-978.5043"/>
<polygon fill="#191970" stroke="#191970" points="1642.6278,-951.6454 1650.0624,-944.097 1639.5433,-945.3616 1642.6278,-951.6454"/>
</g>
<!-- Node576&#45;&gt;Node555 -->
<g id="edge29" class="edge">
<title>Node576&#45;&gt;Node555</title>
<path fill="none" stroke="#191970" d="M1613.081,-946.054C1554.5532,-957.2339 1459.4493,-972.4996 1376.5,-972.4996 1225.5,-972.4996 1225.5,-972.4996 1225.5,-972.4996 1153.0822,-972.4996 1069.8074,-965.7511 1016.1219,-960.5183"/>
<polygon fill="#191970" stroke="#191970" points="1614.0663,-949.4282 1623.2172,-944.0886 1612.7338,-942.5562 1614.0663,-949.4282"/>
</g>
<!-- Node576&#45;&gt;Node556 -->
<g id="edge25" class="edge">
<title>Node576&#45;&gt;Node556</title>
<path fill="none" stroke="#191970" d="M1709.6275,-920.3616C1714.7883,-917.5699 1719.7416,-914.3007 1724,-910.4996 1774.2621,-865.6339 1804.1086,-786.7159 1813.3737,-759.2504"/>
<polygon fill="#191970" stroke="#191970" points="1707.7164,-917.3967 1700.219,-924.8827 1710.7483,-923.7061 1707.7164,-917.3967"/>
</g>
<!-- Node576&#45;&gt;Node575 -->
<g id="edge30" class="edge">
<title>Node576&#45;&gt;Node575</title>
<path fill="none" stroke="#191970" d="M1655.2766,-916.3102C1624.2903,-868.0454 1548.1815,-739.1595 1529.2947,-702.2477"/>
<polygon fill="#191970" stroke="#191970" points="1652.4452,-918.3759 1660.8419,-924.8371 1658.3072,-914.5499 1652.4452,-918.3759"/>
</g>
<!-- Node576&#45;&gt;Node576 -->
<g id="edge31" class="edge">
<title>Node576&#45;&gt;Node576</title>
<path fill="none" stroke="#191970" d="M1641.9941,-953.1535C1643.1021,-958.4364 1651.9374,-962.4996 1668.5,-962.4996 1693.7383,-962.4996 1701.0337,-953.0648 1690.3863,-944.2566"/>
<polygon fill="#191970" stroke="#191970" points="1645.1117,-954.7445 1646.6137,-944.2566 1638.8992,-951.5187 1645.1117,-954.7445"/>
</g>
<!-- Node577 -->
<g id="node14" class="node">
<title>Node577</title>
<g id="a_node14"><a xlink:href="quickjs_8c.html#a035daca514f14aacc1e0cff81d8e423a" target="_top" xlink:title="js_parse_template">
<polygon fill="none" stroke="#000000" points="1768.5,-632.9996 1768.5,-651.9996 1864.5,-651.9996 1864.5,-632.9996 1768.5,-632.9996"/>
<text text-anchor="middle" x="1816.5" y="-639.9996" font-family="Helvetica,sans-Serif" font-size="10.00" fill="#000000">js_parse_template</text>
</a>
</g>
</g>
<!-- Node576&#45;&gt;Node577 -->
<g id="edge21" class="edge">
<title>Node576&#45;&gt;Node577</title>
<path fill="none" stroke="#191970" d="M1687.5198,-917.8779C1699.6425,-906.2979 1714.7555,-889.8642 1724,-872.4996 1754.5961,-815.0288 1734.0757,-790.2235 1760,-730.4996 1773.3016,-699.8556 1796.6701,-667.8014 1808.7628,-652.1949"/>
<polygon fill="#191970" stroke="#191970" points="1685.0514,-915.3932 1680.077,-924.7477 1689.7992,-920.537 1685.0514,-915.3932"/>
</g>
<!-- Node566 -->
<g id="node15" class="node">
<title>Node566</title>
<g id="a_node15"><a xlink:href="quickjs_8c.html#aee6d0acd87f136d43f157ae1426436e6" target="_top" xlink:title="js_parse_object_literal">
<polygon fill="none" stroke="#000000" points="1760,-164.9996 1760,-183.9996 1873,-183.9996 1873,-164.9996 1760,-164.9996"/>
<text text-anchor="middle" x="1816.5" y="-171.9996" font-family="Helvetica,sans-Serif" font-size="10.00" fill="#000000">js_parse_object_literal</text>
</a>
</g>
</g>
<!-- Node576&#45;&gt;Node566 -->
<g id="edge23" class="edge">
<title>Node576&#45;&gt;Node566</title>
<path fill="none" stroke="#191970" d="M1672.0974,-914.6333C1684.132,-848.3324 1724.2435,-628.6323 1760,-447.4996 1780.3406,-344.4596 1806.794,-219.9483 1814.3819,-184.4027"/>
<polygon fill="#191970" stroke="#191970" points="1668.5807,-914.4111 1670.2403,-924.8751 1675.4684,-915.66 1668.5807,-914.4111"/>
</g>
<!-- Node578 -->
<g id="node16" class="node">
<title>Node578</title>
<g id="a_node16"><a xlink:href="quickjs_8c.html#a253917187cfb6b3db09d355b31edb3d5" target="_top" xlink:title="js_parse_array_literal">
<polygon fill="none" stroke="#000000" points="1762,-456.9996 1762,-475.9996 1871,-475.9996 1871,-456.9996 1762,-456.9996"/>
<text text-anchor="middle" x="1816.5" y="-463.9996" font-family="Helvetica,sans-Serif" font-size="10.00" fill="#000000">js_parse_array_literal</text>
</a>
</g>
</g>
<!-- Node576&#45;&gt;Node578 -->
<g id="edge26" class="edge">
<title>Node576&#45;&gt;Node578</title>
<path fill="none" stroke="#191970" d="M1681.0412,-916.3794C1693.8445,-896.9982 1713.311,-864.9267 1724,-834.4996 1755.531,-744.744 1735.7992,-715.5028 1760,-623.4996 1775.0332,-566.3485 1801.9853,-500.5854 1812.3143,-476.2272"/>
<polygon fill="#191970" stroke="#191970" points="1678.0449,-914.5628 1675.3589,-924.8115 1683.8498,-918.4747 1678.0449,-914.5628"/>
</g>
<!-- Node579 -->
<g id="node17" class="node">
<title>Node579</title>
<g id="a_node17"><a xlink:href="quickjs_8c.html#a1cef6995e7ec0c736babe92589cf441f" target="_top" xlink:title="js_parse_expr2">
<polygon fill="none" stroke="#ff0000" points="1775,-1246.9996 1775,-1265.9996 1858,-1265.9996 1858,-1246.9996 1775,-1246.9996"/>
<text text-anchor="middle" x="1816.5" y="-1253.9996" font-family="Helvetica,sans-Serif" font-size="10.00" fill="#000000">js_parse_expr2</text>
</a>
</g>
</g>
<!-- Node576&#45;&gt;Node579 -->
<g id="edge32" class="edge">
<title>Node576&#45;&gt;Node579</title>
<path fill="none" stroke="#191970" d="M1675.1257,-953.7476C1689.029,-993.4272 1723.033,-1086.8585 1760,-1161.4996 1776.0112,-1193.8282 1798.9768,-1229.9083 1810.0475,-1246.7948"/>
<polygon fill="#191970" stroke="#191970" points="1678.4118,-952.5409 1671.8217,-944.245 1671.8,-954.8398 1678.4118,-952.5409"/>
</g>
<!-- Node576&#45;&gt;Node583 -->
<g id="edge33" class="edge">
<title>Node576&#45;&gt;Node583</title>
<path fill="none" stroke="#191970" d="M1673.0872,-953.8948C1689.2453,-1021.8572 1743.4378,-1246.6782 1760,-1275.4996 1771.1077,-1294.829 1790.4011,-1312.2623 1803.3091,-1322.619"/>
<polygon fill="#191970" stroke="#191970" points="1676.4688,-952.9858 1670.7553,-944.0636 1669.6578,-954.6014 1676.4688,-952.9858"/>
</g>
<!-- Node576&#45;&gt;Node559 -->
<g id="edge34" class="edge">
<title>Node576&#45;&gt;Node559</title>
<path fill="none" stroke="#191970" d="M1681.3199,-952.5167C1711.4657,-994.8838 1786.0641,-1099.7247 1809.403,-1132.5253"/>
<polygon fill="#191970" stroke="#191970" points="1684.0892,-950.3716 1675.4398,-944.2528 1678.3857,-954.4299 1684.0892,-950.3716"/>
</g>
<!-- Node577&#45;&gt;Node555 -->
<g id="edge22" class="edge">
<title>Node577&#45;&gt;Node555</title>
<path fill="none" stroke="#191970" d="M1802.8554,-660.8793C1790.4695,-678.1774 1772.311,-705.1436 1760,-730.4996 1738.6363,-774.5005 1760.8966,-802.3883 1724,-834.4996 1617.9725,-926.7759 1174.329,-948.3815 1016.2455,-953.1906"/>
<polygon fill="#191970" stroke="#191970" points="1806.0178,-662.4815 1809.0687,-652.3355 1800.3565,-658.3644 1806.0178,-662.4815"/>
</g>
<!-- Node566&#45;&gt;Node555 -->
<g id="edge24" class="edge">
<title>Node566&#45;&gt;Node555</title>
<path fill="none" stroke="#191970" d="M1806.8937,-192.9788C1776.3244,-252.1622 1679.4146,-442.7274 1613,-606.4996 1594.4603,-652.2167 1611.1737,-675.9195 1577,-711.4996 1533.6486,-756.635 1109.9829,-891.9508 1052,-915.4996 1028.0511,-925.226 1000.8143,-936.8419 982.2298,-944.8529"/>
<polygon fill="#191970" stroke="#191970" points="1810.0234,-194.5464 1811.5143,-184.057 1803.8075,-191.3272 1810.0234,-194.5464"/>
</g>
<!-- Node578&#45;&gt;Node555 -->
<g id="edge27" class="edge">
<title>Node578&#45;&gt;Node555</title>
<path fill="none" stroke="#191970" d="M1805.9541,-485.1562C1776.1135,-536.5281 1686.1268,-681.9687 1577,-768.4996 1523.0989,-811.2398 1501.7714,-811.3326 1437,-834.4996 1286.0405,-888.4937 1099.9424,-927.8342 1011.4439,-944.973"/>
<polygon fill="#191970" stroke="#191970" points="1809.1632,-486.5962 1811.1081,-476.1814 1803.0929,-483.1102 1809.1632,-486.5962"/>
</g>
<!-- Node584&#45;&gt;Node553 -->
<g id="edge67" class="edge">
<title>Node584&#45;&gt;Node553</title>
<path fill="none" stroke="#191970" d="M332.23,-764.1781C350.6874,-827.2752 408.0271,-1020.9269 419,-1029.4996 468.0481,-1067.8187 542.3715,-1065.4895 593.1679,-1057.755"/>
<polygon fill="#191970" stroke="#191970" points="335.5064,-762.9116 329.3443,-754.293 328.7869,-764.8732 335.5064,-762.9116"/>
</g>
<!-- Node584&#45;&gt;Node554 -->
<g id="edge74" class="edge">
<title>Node584&#45;&gt;Node554</title>
<path fill="none" stroke="#191970" d="M332.2221,-763.9973C346.5841,-811.4806 385.4108,-930.8837 419,-953.4996 472.7174,-989.6679 663.0919,-977.6012 757.3385,-969.017"/>
<polygon fill="#191970" stroke="#191970" points="335.5388,-762.8716 329.3253,-754.2901 328.8311,-764.8734 335.5388,-762.8716"/>
</g>
<!-- Node584&#45;&gt;Node555 -->
<g id="edge75" class="edge">
<title>Node584&#45;&gt;Node555</title>
<path fill="none" stroke="#191970" d="M369.0642,-754.5749C412.9276,-764.9815 483.2757,-781.7375 544,-796.4996 621.4054,-815.3168 642.9789,-812.713 718,-839.4996 805.6154,-870.783 904.0368,-923.3765 942.9037,-944.8892"/>
<polygon fill="#191970" stroke="#191970" points="369.8509,-751.1645 359.3132,-752.2626 368.2357,-757.9756 369.8509,-751.1645"/>
</g>
<!-- Node584&#45;&gt;Node556 -->
<g id="edge70" class="edge">
<title>Node584&#45;&gt;Node556</title>
<path fill="none" stroke="#191970" d="M368.7599,-736.6325C374.2591,-733.9335 379.2676,-730.3236 383,-725.4996 452.3892,-635.8154 351.3166,-307.478 419,-216.4996 562.9505,-23.0048 718.8321,-174.4996 960,-174.4996 960,-174.4996 960,-174.4996 1225.5,-174.4996 1346.7662,-174.4996 1651.2476,-299.4811 1724,-396.4996 1795.3085,-491.5927 1718.9205,-549.9645 1760,-661.4996 1771.5457,-692.8473 1795.6824,-724.5936 1808.3461,-739.9713"/>
<polygon fill="#191970" stroke="#191970" points="367.2253,-733.4742 359.1806,-740.3686 369.7688,-739.9958 367.2253,-733.4742"/>
</g>
<!-- Node584&#45;&gt;Node571 -->
<g id="edge77" class="edge">
<title>Node584&#45;&gt;Node571</title>
<path fill="none" stroke="#191970" d="M368.7289,-732.4959C373.6791,-730.4541 378.5466,-728.1279 383,-725.4996 401.6924,-714.4675 399.2076,-701.4087 419,-692.4996 512.7203,-650.3135 546.2228,-668.4996 649,-668.4996 649,-668.4996 649,-668.4996 811,-668.4996 896.7573,-668.4996 996.8624,-660.1362 1051.9094,-654.811"/>
<polygon fill="#191970" stroke="#191970" points="367.3254,-729.2843 359.1944,-736.0767 369.7865,-735.8374 367.3254,-729.2843"/>
</g>
<!-- Node584&#45;&gt;Node572 -->
<g id="edge76" class="edge">
<title>Node584&#45;&gt;Node572</title>
<path fill="none" stroke="#191970" d="M368.55,-734.3018C373.7385,-731.9413 378.7149,-729.0463 383,-725.4996 408.1409,-704.6904 391.2266,-678.6379 419,-661.4996 538.8437,-587.5466 911.2149,-634.8338 1052,-631.4996 1088.8785,-630.6262 1098.3084,-627.6895 1135,-631.4996 1152.8847,-633.3567 1172.4425,-637.2256 1188.7863,-640.9904"/>
<polygon fill="#191970" stroke="#191970" points="367.1262,-731.1004 359.0851,-737.999 369.6732,-737.6206 367.1262,-731.1004"/>
</g>
<!-- Node584&#45;&gt;Node573 -->
<g id="edge78" class="edge">
<title>Node584&#45;&gt;Node573</title>
<path fill="none" stroke="#191970" d="M369.4357,-736.1911C431.0619,-725.0084 548.2747,-706.4996 649,-706.4996 649,-706.4996 649,-706.4996 960,-706.4996 1033.1108,-706.4996 1117.2873,-699.6213 1170.9111,-694.3685"/>
<polygon fill="#191970" stroke="#191970" points="368.514,-732.8019 359.3123,-738.0534 369.7805,-739.6863 368.514,-732.8019"/>
</g>
<!-- Node584&#45;&gt;Node574 -->
<g id="edge79" class="edge">
<title>Node584&#45;&gt;Node574</title>
<path fill="none" stroke="#191970" d="M369.1354,-744.4996C430.8583,-744.4996 548.7021,-744.4996 649,-744.4996 649,-744.4996 649,-744.4996 1093.5,-744.4996 1176.8179,-744.4996 1198.6095,-743.3171 1280,-725.4996 1305.7716,-719.8578 1334.2338,-709.6043 1353.5242,-702.0186"/>
<polygon fill="#191970" stroke="#191970" points="369.0009,-740.9997 359.0009,-744.4996 369.0009,-747.9997 369.0009,-740.9997"/>
</g>
<!-- Node584&#45;&gt;Node575 -->
<g id="edge80" class="edge">
<title>Node584&#45;&gt;Node575</title>
<path fill="none" stroke="#191970" d="M368.7982,-735.1415C374.0251,-732.6494 378.9454,-729.4942 383,-725.4996 417.2456,-691.7601 380.3677,-652.1118 419,-623.4996 495.881,-566.5592 1185.2552,-618.221 1280,-631.4996 1359.0044,-642.5721 1449.5053,-668.7322 1495.2247,-682.9309"/>
<polygon fill="#191970" stroke="#191970" points="367.1893,-732.0141 359.1795,-738.9491 369.7658,-738.5227 367.1893,-732.0141"/>
</g>
<!-- Node584&#45;&gt;Node576 -->
<g id="edge81" class="edge">
<title>Node584&#45;&gt;Node576</title>
<path fill="none" stroke="#191970" d="M340.6455,-761.8109C357.4076,-781.2347 387.1106,-812.3881 419,-830.4996 483.8178,-867.3125 506.5094,-865.0224 580,-877.4996 971.0866,-943.8978 1451.5443,-939.7751 1612.7824,-936.1025"/>
<polygon fill="#191970" stroke="#191970" points="343.2123,-759.4254 334.089,-754.0386 337.8617,-763.939 343.2123,-759.4254"/>
</g>
<!-- Node584&#45;&gt;Node577 -->
<g id="edge59" class="edge">
<title>Node584&#45;&gt;Node577</title>
<path fill="none" stroke="#191970" d="M368.8079,-736.6695C374.3007,-733.9654 379.2946,-730.3444 383,-725.4996 464.8199,-618.5191 325.4913,-217.4296 419,-120.4996 490.2959,-46.595 546.3112,-98.4996 649,-98.4996 649,-98.4996 649,-98.4996 1093.5,-98.4996 1386.0414,-98.4996 1534.8601,-64.3256 1724,-287.4996 1781.8283,-355.7336 1736.7772,-399.1242 1760,-485.4996 1775.3434,-542.5681 1802.1113,-608.3802 1812.3527,-632.7617"/>
<polygon fill="#191970" stroke="#191970" points="367.2744,-733.5109 359.2325,-740.4085 369.8206,-740.0314 367.2744,-733.5109"/>
</g>
<!-- Node584&#45;&gt;Node566 -->
<g id="edge68" class="edge">
<title>Node584&#45;&gt;Node566</title>
<path fill="none" stroke="#191970" d="M368.8391,-736.6932C374.3277,-733.986 379.3122,-730.3577 383,-725.4996 429.3507,-664.4392 365.0266,-90.9387 419,-36.4996 491.104,36.2267 546.5886,-22.4996 649,-22.4996 649,-22.4996 649,-22.4996 1525,-22.4996 1616.0862,-22.4996 1645.8859,-24.65 1724,-71.4996 1764.811,-95.9763 1797.8265,-144.2057 1810.6918,-164.8033"/>
<polygon fill="#191970" stroke="#191970" points="367.3063,-733.5344 359.2662,-740.4342 369.8542,-740.0543 367.3063,-733.5344"/>
</g>
<!-- Node584&#45;&gt;Node578 -->
<g id="edge71" class="edge">
<title>Node584&#45;&gt;Node578</title>
<path fill="none" stroke="#191970" d="M368.8249,-736.6824C374.3154,-733.9767 379.3042,-730.3516 383,-725.4996 426.6949,-668.1344 368.478,-128.9537 419,-77.4996 490.8137,-4.3609 546.4989,-60.4996 649,-60.4996 649,-60.4996 649,-60.4996 1525,-60.4996 1627.8243,-60.4996 1659.8924,-98.1064 1724,-178.4996 1796.3593,-269.2407 1812.7218,-417.9449 1815.8434,-456.9101"/>
<polygon fill="#191970" stroke="#191970" points="367.2918,-733.5237 359.2508,-740.4225 369.8389,-740.0438 367.2918,-733.5237"/>
</g>
<!-- Node584&#45;&gt;Node579 -->
<g id="edge82" class="edge">
<title>Node584&#45;&gt;Node579</title>
<path fill="none" stroke="#191970" d="M327.9944,-764.2974C334.5557,-846.97 363.0098,-1164.0522 419,-1244.4996 485.5827,-1340.1663 532.4437,-1370.4996 649,-1370.4996 649,-1370.4996 649,-1370.4996 1376.5,-1370.4996 1534.0468,-1370.4996 1575.0778,-1351.9112 1724,-1300.4996 1751.2318,-1291.0985 1781.0402,-1275.9758 1799.2591,-1266.1375"/>
<polygon fill="#191970" stroke="#191970" points="331.477,-763.9357 327.2133,-754.2367 324.498,-764.4776 331.477,-763.9357"/>
</g>
<!-- Node584&#45;&gt;Node583 -->
<g id="edge84" class="edge">
<title>Node584&#45;&gt;Node583</title>
<path fill="none" stroke="#191970" d="M327.2192,-764.6065C330.8331,-855.2537 349.677,-1225.3049 419,-1313.4996 487.3469,-1400.4524 538.4012,-1408.4996 649,-1408.4996 649,-1408.4996 649,-1408.4996 1525,-1408.4996 1629.0758,-1408.4996 1747.489,-1362.5756 1795.0602,-1342.125"/>
<polygon fill="#191970" stroke="#191970" points="330.7065,-764.2039 326.8288,-754.3443 323.7116,-764.4701 330.7065,-764.2039"/>
</g>
<!-- Node584&#45;&gt;Node559 -->
<g id="edge86" class="edge">
<title>Node584&#45;&gt;Node559</title>
<path fill="none" stroke="#191970" d="M327.7303,-764.436C335.2373,-867.2204 383.8624,-1332.4996 649,-1332.4996 649,-1332.4996 649,-1332.4996 1376.5,-1332.4996 1455.0615,-1332.4996 1659.1471,-1311.8394 1724,-1267.4996 1769.4639,-1236.416 1801.2081,-1175.4956 1812.2284,-1152.0292"/>
<polygon fill="#191970" stroke="#191970" points="331.2058,-763.9544 327.0355,-754.2148 324.2219,-764.4292 331.2058,-763.9544"/>
</g>
<!-- Node585 -->
<g id="node21" class="node">
<title>Node585</title>
<g id="a_node21"><a xlink:href="quickjs_8c.html#aeca8ed71e1eef8ec809afab744958c28" target="_top" xlink:title="js_parse_expect">
<polygon fill="none" stroke="#ff0000" points="437.5,-354.9996 437.5,-373.9996 525.5,-373.9996 525.5,-354.9996 437.5,-354.9996"/>
<text text-anchor="middle" x="481.5" y="-361.9996" font-family="Helvetica,sans-Serif" font-size="10.00" fill="#000000">js_parse_expect</text>
</a>
</g>
</g>
<!-- Node584&#45;&gt;Node585 -->
<g id="edge43" class="edge">
<title>Node584&#45;&gt;Node585</title>
<path fill="none" stroke="#191970" d="M368.731,-736.3791C374.1882,-733.7123 379.1919,-730.1789 383,-725.4996 467.4862,-621.6847 360.2243,-546.753 419,-426.4996 430.0068,-403.9799 452.5612,-384.8687 467.3506,-374.041"/>
<polygon fill="#191970" stroke="#191970" points="367.281,-733.1882 359.2497,-740.0982 369.8372,-739.7048 367.281,-733.1882"/>
</g>
<!-- Node581 -->
<g id="node22" class="node">
<title>Node581</title>
<g id="a_node22"><a xlink:href="quickjs_8c.html#a42234753f3193f37ce45b3c0ca4c25cd" target="_top" xlink:title="js_parse_property_name">
<polygon fill="none" stroke="#000000" points="587.5,-544.9996 587.5,-563.9996 710.5,-563.9996 710.5,-544.9996 587.5,-544.9996"/>
<text text-anchor="middle" x="649" y="-551.9996" font-family="Helvetica,sans-Serif" font-size="10.00" fill="#000000">js_parse_property_name</text>
</a>
</g>
</g>
<!-- Node584&#45;&gt;Node581 -->
<g id="edge60" class="edge">
<title>Node584&#45;&gt;Node581</title>
<path fill="none" stroke="#191970" d="M368.4218,-735.8679C373.8774,-733.2706 378.9623,-729.8926 383,-725.4996 428.5181,-675.9763 368.3109,-622.7156 419,-578.4996 468.9198,-534.9546 550.0366,-537.5717 601.3978,-544.9346"/>
<polygon fill="#191970" stroke="#191970" points="367.0518,-732.6454 359.01,-739.5434 369.5982,-739.1659 367.0518,-732.6454"/>
</g>
<!-- Node560 -->
<g id="node23" class="node">
<title>Node560</title>
<g id="a_node23"><a xlink:href="quickjs_8c.html#acc0cac53be5317d9cab6a79afcd7da48" target="_top" xlink:title="js_parse_block">
<polygon fill="none" stroke="#ff0000" points="608,-164.9996 608,-183.9996 690,-183.9996 690,-164.9996 608,-164.9996"/>
<text text-anchor="middle" x="649" y="-171.9996" font-family="Helvetica,sans-Serif" font-size="10.00" fill="#000000">js_parse_block</text>
</a>
</g>
</g>
<!-- Node584&#45;&gt;Node560 -->
<g id="edge83" class="edge">
<title>Node584&#45;&gt;Node560</title>
<path fill="none" stroke="#191970" d="M368.6582,-736.5528C374.171,-733.8644 379.2104,-730.2787 383,-725.4996 435.7018,-659.0362 381.1428,-421.4054 419,-345.4996 462.2453,-258.7903 496.7609,-248.0968 580,-198.4996 590.024,-192.5269 601.7546,-187.7474 612.6706,-184.075"/>
<polygon fill="#191970" stroke="#191970" points="367.1213,-733.3951 359.0705,-740.2824 369.6591,-739.9189 367.1213,-733.3951"/>
</g>
<!-- Node590 -->
<g id="node24" class="node">
<title>Node590</title>
<g id="a_node24"><a xlink:href="quickjs_8c.html#a02cbd69384985a4e904190810cf45641" target="_top" xlink:title="js_parse_expect_semi">
<polygon fill="none" stroke="#ff0000" points="754,-430.9996 754,-449.9996 868,-449.9996 868,-430.9996 754,-430.9996"/>
<text text-anchor="middle" x="811" y="-437.9996" font-family="Helvetica,sans-Serif" font-size="10.00" fill="#000000">js_parse_expect_semi</text>
</a>
</g>
</g>
<!-- Node584&#45;&gt;Node590 -->
<g id="edge57" class="edge">
<title>Node584&#45;&gt;Node590</title>
<path fill="none" stroke="#191970" d="M368.6258,-736.0506C374.0529,-733.4278 379.0755,-729.994 383,-725.4996 438.9552,-661.4172 360.4705,-599.2396 419,-537.4996 506.7848,-444.8994 667.88,-434.9382 753.6781,-436.9168"/>
<polygon fill="#191970" stroke="#191970" points="367.2591,-732.8271 359.2331,-739.7432 369.8203,-739.3417 367.2591,-732.8271"/>
</g>
<!-- Node591 -->
<g id="node25" class="node">
<title>Node591</title>
<g id="a_node25"><a xlink:href="quickjs_8c.html#aba7eb7aae2eb61bfccb4565ee626cd18" target="_top" xlink:title="js_parse_seek_token">
<polygon fill="none" stroke="#ff0000" points="427,-1000.9996 427,-1019.9996 536,-1019.9996 536,-1000.9996 427,-1000.9996"/>
<text text-anchor="middle" x="481.5" y="-1007.9996" font-family="Helvetica,sans-Serif" font-size="10.00" fill="#000000">js_parse_seek_token</text>
</a>
</g>
</g>
<!-- Node584&#45;&gt;Node591 -->
<g id="edge61" class="edge">
<title>Node584&#45;&gt;Node591</title>
<path fill="none" stroke="#191970" d="M328.6316,-764.3726C334.5354,-809.8589 355.1321,-922.5331 419,-986.4996 425.3236,-992.8329 433.4975,-997.5277 441.8366,-1000.9965"/>
<polygon fill="#191970" stroke="#191970" points="332.0929,-763.8399 327.4298,-754.3265 325.1424,-764.6714 332.0929,-763.8399"/>
</g>
<!-- Node563 -->
<g id="node26" class="node">
<title>Node563</title>
<g id="a_node26"><a xlink:href="quickjs_8c.html#adf95ddf430ef93fd9efea1cc2f8a2fbe" target="_top" xlink:title="js_parse_class_default_ctor">
<polygon fill="none" stroke="#000000" points="580,-848.9996 580,-867.9996 718,-867.9996 718,-848.9996 580,-848.9996"/>
<text text-anchor="middle" x="649" y="-855.9996" font-family="Helvetica,sans-Serif" font-size="10.00" fill="#000000">js_parse_class_default_ctor</text>
</a>
</g>
</g>
<!-- Node584&#45;&gt;Node563 -->
<g id="edge69" class="edge">
<title>Node584&#45;&gt;Node563</title>
<path fill="none" stroke="#191970" d="M349.7308,-759.7094C367.9643,-771.1085 394.31,-786.4164 419,-796.4996 479.3008,-821.1259 552.4614,-838.9181 599.8336,-848.964"/>
<polygon fill="#191970" stroke="#191970" points="351.3043,-756.5625 340.9871,-754.1531 347.55,-762.4705 351.3043,-756.5625"/>
</g>
<!-- Node592 -->
<g id="node27" class="node">
<title>Node592</title>
<g id="a_node27"><a xlink:href="quickjs_8c.html#a08f5927b79691c477c726fc5d309cfef" target="_top" xlink:title="is_let">
<polygon fill="none" stroke="#ff0000" points="629,-1079.9996 629,-1098.9996 669,-1098.9996 669,-1079.9996 629,-1079.9996"/>
<text text-anchor="middle" x="649" y="-1086.9996" font-family="Helvetica,sans-Serif" font-size="10.00" fill="#000000">is_let</text>
</a>
</g>
</g>
<!-- Node584&#45;&gt;Node592 -->
<g id="edge85" class="edge">
<title>Node584&#45;&gt;Node592</title>
<path fill="none" stroke="#191970" d="M332.2046,-764.2518C352.1332,-833.2226 417.5253,-1059.2429 419,-1060.4996 479.9604,-1112.4456 585.127,-1101.1554 628.9368,-1093.5525"/>
<polygon fill="#191970" stroke="#191970" points="335.4557,-762.8948 329.3178,-754.2591 328.7307,-764.8376 335.4557,-762.8948"/>
</g>
<!-- Node594 -->
<g id="node28" class="node">
<title>Node594</title>
<g id="a_node28"><a xlink:href="quickjs_8c.html#acff617b3121403c880313b762407e5c7" target="_top" xlink:title="js_parse_destructing_var">
<polygon fill="none" stroke="#000000" points="419,-924.9996 419,-943.9996 544,-943.9996 544,-924.9996 419,-924.9996"/>
<text text-anchor="middle" x="481.5" y="-931.9996" font-family="Helvetica,sans-Serif" font-size="10.00" fill="#000000">js_parse_destructing_var</text>
</a>
</g>
</g>
<!-- Node584&#45;&gt;Node594 -->
<g id="edge72" class="edge">
<title>Node584&#45;&gt;Node594</title>
<path fill="none" stroke="#191970" d="M332.4234,-763.9954C343.7812,-798.2629 371.7748,-869.5348 419,-910.4996 426.1998,-916.7449 435.1997,-921.4517 444.1078,-924.9648"/>
<polygon fill="#191970" stroke="#191970" points="335.6901,-762.719 329.3171,-754.2552 329.021,-764.8459 335.6901,-762.719"/>
</g>
<!-- Node585&#45;&gt;Node554 -->
<g id="edge52" class="edge">
<title>Node585&#45;&gt;Node554</title>
<path fill="none" stroke="#191970" d="M489.8823,-383.8427C506.1821,-421.0866 543.7396,-505.1205 580,-573.4996 659.265,-722.9757 768.3225,-896.4603 801.2219,-948.1955"/>
<polygon fill="#191970" stroke="#191970" points="492.9018,-382.0106 485.6984,-374.2413 486.4846,-384.8069 492.9018,-382.0106"/>
</g>
<!-- Node585&#45;&gt;Node555 -->
<g id="edge53" class="edge">
<title>Node585&#45;&gt;Node555</title>
<path fill="none" stroke="#191970" d="M508.799,-379.1031C556.0143,-405.3914 654.0012,-464.5969 718,-535.4996 845.4887,-676.7411 936.8222,-896.0488 956.1788,-944.7168"/>
<polygon fill="#191970" stroke="#191970" points="510.2396,-375.9009 499.7912,-374.1455 506.8644,-382.0335 510.2396,-375.9009"/>
</g>
<!-- Node585&#45;&gt;Node556 -->
<g id="edge50" class="edge">
<title>Node585&#45;&gt;Node556</title>
<path fill="none" stroke="#191970" d="M536.1198,-355.3371C550.3613,-353.3328 565.7197,-351.5093 580,-350.4996 707.6812,-341.4711 740.0615,-346.5319 868,-350.4996 968.3669,-353.6122 993.0848,-364.4996 1093.5,-364.4996 1093.5,-364.4996 1093.5,-364.4996 1525,-364.4996 1598.721,-364.4996 1695.3473,-465.2653 1724,-511.4996 1760.1154,-569.7758 1733.1025,-598.4363 1760,-661.4996 1773.106,-692.2277 1796.5601,-724.2451 1808.7164,-739.8242"/>
<polygon fill="#191970" stroke="#191970" points="535.3671,-351.9099 525.9785,-356.8195 536.3797,-358.8362 535.3671,-351.9099"/>
</g>
<!-- Node585&#45;&gt;Node575 -->
<g id="edge54" class="edge">
<title>Node585&#45;&gt;Node575</title>
<path fill="none" stroke="#191970" d="M535.5827,-372.2516C634.1708,-386.4162 835.9533,-415.5719 868,-421.4996 1034.7114,-452.3362 1436.8241,-560.3754 1437,-560.4996 1483.1256,-593.063 1511.8082,-658.1192 1521.4058,-682.7476"/>
<polygon fill="#191970" stroke="#191970" points="535.9116,-368.763 525.5156,-370.8058 534.9165,-375.692 535.9116,-368.763"/>
</g>
<!-- Node585&#45;&gt;Node577 -->
<g id="edge44" class="edge">
<title>Node585&#45;&gt;Node577</title>
<path fill="none" stroke="#191970" d="M504.0827,-349.355C523.3786,-337.2251 552.3305,-320.8962 580,-312.4996 678.7716,-282.5263 707.7807,-288.4996 811,-288.4996 811,-288.4996 811,-288.4996 1525,-288.4996 1617.6376,-288.4996 1659.866,-283.6523 1724,-350.4996 1766.9902,-395.3085 1741.4699,-426.2321 1760,-485.4996 1777.6344,-541.9023 1803.042,-608.1097 1812.6363,-632.6793"/>
<polygon fill="#191970" stroke="#191970" points="501.9501,-346.5652 495.4338,-354.9192 505.7374,-352.4522 501.9501,-346.5652"/>
</g>
<!-- Node585&#45;&gt;Node566 -->
<g id="edge49" class="edge">
<title>Node585&#45;&gt;Node566</title>
<path fill="none" stroke="#191970" d="M498.7346,-347.589C511.7652,-334.442 529.7782,-315.4753 544,-297.4996 561.8969,-274.8787 556.6697,-260.4612 580,-243.4996 615.4787,-217.7057 916.1359,-136.4996 960,-136.4996 960,-136.4996 960,-136.4996 1093.5,-136.4996 1342.0601,-136.4996 1638.0254,-159.174 1759.8438,-169.4926"/>
<polygon fill="#191970" stroke="#191970" points="495.9514,-345.4217 491.3435,-354.962 500.8951,-350.3775 495.9514,-345.4217"/>
</g>
<!-- Node585&#45;&gt;Node578 -->
<g id="edge51" class="edge">
<title>Node585&#45;&gt;Node578</title>
<path fill="none" stroke="#191970" d="M497.4787,-347.5471C520.1526,-323.921 561.0137,-283.0223 580,-274.4996 674.167,-232.229 707.7807,-250.4996 811,-250.4996 811,-250.4996 811,-250.4996 1525,-250.4996 1614.0853,-250.4996 1651.5436,-222.6704 1724,-274.4996 1788.7011,-320.7812 1809.9683,-424.749 1815.1209,-456.864"/>
<polygon fill="#191970" stroke="#191970" points="494.9081,-345.1711 490.5444,-354.8256 499.9763,-349.9996 494.9081,-345.1711"/>
</g>
<!-- Node585&#45;&gt;Node559 -->
<g id="edge56" class="edge">
<title>Node585&#45;&gt;Node559</title>
<path fill="none" stroke="#191970" d="M535.6807,-367.6343C583.6189,-370.4252 655.4664,-374.6503 718,-378.4996 884.9135,-388.774 926.2706,-402.4996 1093.5,-402.4996 1093.5,-402.4996 1093.5,-402.4996 1376.5,-402.4996 1733.3524,-402.4996 1807.2924,-1046.1329 1815.6367,-1132.8726"/>
<polygon fill="#191970" stroke="#191970" points="535.7139,-364.1304 525.5275,-367.0438 535.3074,-371.1186 535.7139,-364.1304"/>
</g>
<!-- Node585&#45;&gt;Node581 -->
<g id="edge45" class="edge">
<title>Node585&#45;&gt;Node581</title>
<path fill="none" stroke="#191970" d="M493.8748,-382.6569C511.6583,-408.2404 546.0519,-455.8633 580,-492.4996 598.3895,-512.3452 622.3586,-532.8446 636.6644,-544.5929"/>
<polygon fill="#191970" stroke="#191970" points="496.6639,-380.536 488.1061,-374.2897 490.9008,-384.5093 496.6639,-380.536"/>
</g>
<!-- Node585&#45;&gt;Node560 -->
<g id="edge55" class="edge">
<title>Node585&#45;&gt;Node560</title>
<path fill="none" stroke="#191970" d="M493.3161,-346.3193C506.1357,-326.4303 527.0415,-293.5113 544,-264.4996 560.8619,-235.6531 554.5109,-220.1039 580,-198.4996 587.9337,-191.775 597.8643,-186.896 607.6985,-183.3701"/>
<polygon fill="#191970" stroke="#191970" points="490.218,-344.6646 487.7252,-354.962 496.0955,-348.4667 490.218,-344.6646"/>
</g>
<!-- Node581&#45;&gt;Node554 -->
<g id="edge48" class="edge">
<title>Node581&#45;&gt;Node554</title>
<path fill="none" stroke="#191970" d="M656.558,-573.5813C684.2875,-643.5896 780.1101,-885.512 805.0358,-948.4417"/>
<polygon fill="#191970" stroke="#191970" points="659.7814,-572.2147 652.8447,-564.2063 653.2733,-574.7925 659.7814,-572.2147"/>
</g>
<!-- Node581&#45;&gt;Node556 -->
<g id="edge47" class="edge">
<title>Node581&#45;&gt;Node556</title>
<path fill="none" stroke="#191970" d="M720.7045,-557.5237C859.9015,-564.3299 1175.9837,-584.3627 1437,-634.4996 1500.4318,-646.6837 1515.0961,-655.0617 1577,-673.4996 1653.2998,-696.2252 1742.5298,-725.1732 1787.4778,-739.9224"/>
<polygon fill="#191970" stroke="#191970" points="720.7468,-554.0218 710.5902,-557.0373 720.4105,-561.0137 720.7468,-554.0218"/>
</g>
<!-- Node581&#45;&gt;Node566 -->
<g id="edge46" class="edge">
<title>Node581&#45;&gt;Node566</title>
<path fill="none" stroke="#191970" d="M681.5833,-540.9962C724.5742,-523.0361 802.4652,-489.9986 868,-459.4996 1069.6471,-365.6555 1103.0357,-300.6437 1316,-236.4996 1471.9355,-189.5323 1665.4877,-178.085 1759.6776,-175.3364"/>
<polygon fill="#191970" stroke="#191970" points="680.0778,-537.8318 672.1946,-544.9104 682.7714,-544.2928 680.0778,-537.8318"/>
</g>
<!-- Node590&#45;&gt;Node556 -->
<g id="edge58" class="edge">
<title>Node590&#45;&gt;Node556</title>
<path fill="none" stroke="#191970" d="M878.1529,-450.7924C886.845,-452.0706 895.6309,-453.3359 904,-454.4996 1269.7599,-505.3551 1434.4,-359.3741 1724,-588.4996 1752.3697,-610.9451 1742.1995,-630.0069 1760,-661.4996 1776.6167,-690.8979 1798.9132,-724.0314 1809.8642,-739.9532"/>
<polygon fill="#191970" stroke="#191970" points="878.4279,-447.295 868.0228,-449.2911 877.4016,-454.2193 878.4279,-447.295"/>
</g>
<!-- Node591&#45;&gt;Node553 -->
<g id="edge62" class="edge">
<title>Node591&#45;&gt;Node553</title>
<path fill="none" stroke="#191970" d="M537.1056,-1022.1186C555.2231,-1025.9044 575.3291,-1030.1056 593.443,-1033.8906"/>
<polygon fill="#191970" stroke="#191970" points="537.7746,-1018.6829 527.2701,-1020.0635 536.3428,-1025.5349 537.7746,-1018.6829"/>
</g>
<!-- Node591&#45;&gt;Node563 -->
<g id="edge63" class="edge">
<title>Node591&#45;&gt;Node563</title>
<path fill="none" stroke="#191970" d="M499.56,-994.1107C534.5722,-962.3386 610.6825,-893.2713 638.5261,-868.0042"/>
<polygon fill="#191970" stroke="#191970" points="497.0312,-991.6792 491.9779,-1000.9913 501.7354,-996.863 497.0312,-991.6792"/>
</g>
<!-- Node591&#45;&gt;Node592 -->
<g id="edge65" class="edge">
<title>Node591&#45;&gt;Node592</title>
<path fill="none" stroke="#191970" d="M503.3317,-1025.8239C522.7302,-1038.8817 552.2342,-1057.402 580,-1069.4996 595.8934,-1076.4243 614.8698,-1081.7255 628.8956,-1085.1247"/>
<polygon fill="#191970" stroke="#191970" points="505.1539,-1022.8299 494.9227,-1020.0781 501.2048,-1028.6096 505.1539,-1022.8299"/>
</g>
<!-- Node563&#45;&gt;Node556 -->
<g id="edge64" class="edge">
<title>Node563&#45;&gt;Node556</title>
<path fill="none" stroke="#191970" d="M673.0401,-843.5987C693.7127,-831.5324 724.7381,-815.165 754,-806.4996 842.3809,-780.3269 867.8252,-782.4996 960,-782.4996 960,-782.4996 960,-782.4996 1225.5,-782.4996 1432.3125,-782.4996 1679.2017,-762.1054 1775.3452,-753.3821"/>
<polygon fill="#191970" stroke="#191970" points="671.1139,-840.6721 664.314,-848.7968 674.6964,-846.6859 671.1139,-840.6721"/>
</g>
<!-- Node592&#45;&gt;Node559 -->
<g id="edge66" class="edge">
<title>Node592&#45;&gt;Node559</title>
<path fill="none" stroke="#191970" d="M657.6066,-1108.5608C672.5953,-1139.5234 706.4915,-1200.4985 754,-1232.4996 881.2158,-1318.1903 940.1156,-1294.4996 1093.5,-1294.4996 1093.5,-1294.4996 1093.5,-1294.4996 1225.5,-1294.4996 1448.7626,-1294.4996 1522.7429,-1329.1523 1724,-1232.4996 1763.3855,-1213.5849 1796.4396,-1171.2661 1809.9557,-1152.1726"/>
<polygon fill="#191970" stroke="#191970" points="660.6747,-1106.8601 653.256,-1099.2962 654.3386,-1109.8356 660.6747,-1106.8601"/>
</g>
<!-- Node594&#45;&gt;Node554 -->
<g id="edge73" class="edge">
<title>Node594&#45;&gt;Node554</title>
<path fill="none" stroke="#191970" d="M554.2678,-940.904C615.6951,-946.3104 702.2283,-953.9263 757.4682,-958.7881"/>
<polygon fill="#191970" stroke="#191970" points="554.5204,-937.4128 544.252,-940.0225 553.9066,-944.3858 554.5204,-937.4128"/>
</g>
</g>
</svg>
        <g id="navigator" transform="translate(0 0)" fill="#404254">
                <rect fill="#f2f5e9" fill-opacity="0.5" stroke="#606060" stroke-width=".5" x="0" y="0" width="60" height="60"/>
                <use id="zoomplus" xlink:href="#zoomPlus" x="17" y="9" onmousedown="handleZoom(evt,'in')"/>
                <use id="zoomminus" xlink:href="#zoomMin" x="42" y="9" onmousedown="handleZoom(evt,'out')"/>
                <use id="reset" xlink:href="#resetDef" x="30" y="36" onmousedown="handleReset()"/>
                <g id="arrowUp" xlink:href="#dirArrow" transform="translate(30 24)" onmousedown="handlePan(0,-1)">
                  <use xlink:href="#rim" fill="#404040">
                        <set attributeName="fill" to="#808080" begin="arrowUp.mouseover" end="arrowUp.mouseout"/>
                  </use>
                  <path fill="none" stroke="white" stroke-width="1.5" d="M0,-3.0v7 M-2.5,-0.5L0,-3.0L2.5,-0.5"/>
                </g>
                <g id="arrowRight" xlink:href="#dirArrow" transform="rotate(90) translate(36 -43)" onmousedown="handlePan(1,0)">
                  <use xlink:href="#rim" fill="#404040">
                        <set attributeName="fill" to="#808080" begin="arrowRight.mouseover" end="arrowRight.mouseout"/>
                  </use>
                  <path fill="none" stroke="white" stroke-width="1.5" d="M0,-3.0v7 M-2.5,-0.5L0,-3.0L2.5,-0.5"/>
                </g>
                <g id="arrowDown" xlink:href="#dirArrow" transform="rotate(180) translate(-30 -48)" onmousedown="handlePan(0,1)">
                  <use xlink:href="#rim" fill="#404040">
                        <set attributeName="fill" to="#808080" begin="arrowDown.mouseover" end="arrowDown.mouseout"/>
                  </use>
                  <path fill="none" stroke="white" stroke-width="1.5" d="M0,-3.0v7 M-2.5,-0.5L0,-3.0L2.5,-0.5"/>
                </g>
                <g id="arrowLeft" xlink:href="#dirArrow" transform="rotate(270) translate(-36 17)" onmousedown="handlePan(-1,0)">
                  <use xlink:href="#rim" fill="#404040">
                        <set attributeName="fill" to="#808080" begin="arrowLeft.mouseover" end="arrowLeft.mouseout"/>
                  </use>
                  <path fill="none" stroke="white" stroke-width="1.5" d="M0,-3.0v7 M-2.5,-0.5L0,-3.0L2.5,-0.5"/>
                </g>
        </g>
        <svg viewBox="0 0 15 15" width="100%" height="30px" preserveAspectRatio="xMaxYMin meet">
         <g id="arrow_out" transform="scale(0.3 0.3)">
          <a xlink:href="libunicode_8c_a9992c7e1e84a9fc516edf3de2c77468a_icgraph_org.svg" target="_base">
           <rect id="button" ry="5" rx="5" y="6" x="6" height="38" width="38"
                fill="#f2f5e9" fill-opacity="0.5" stroke="#606060" stroke-width="1.0"/>
           <path id="arrow"
             d="M 11.500037,31.436501 C 11.940474,20.09759 22.043105,11.32322 32.158766,21.979434 L 37.068811,17.246167 C 37.068811,17.246167 37.088388,32 37.088388,32 L 22.160133,31.978069 C 22.160133,31.978069 26.997745,27.140456 26.997745,27.140456 C 18.528582,18.264221 13.291696,25.230495 11.500037,31.436501 z"
             style="fill:#404040;"/>
          </a>
         </g>
        </svg>
</svg>
