<?xml version="1.0" encoding="UTF-8" standalone="no"?>
<!DOCTYPE svg PUBLIC "-//W3C//DTD SVG 1.1//EN"
 "http://www.w3.org/Graphics/SVG/1.1/DTD/svg11.dtd">
<!-- Generated by graphviz version 2.40.1 (20161225.0304)
 -->
<!-- Title: js_reflect_deleteProperty Pages: 1 -->
<svg width="904pt" height="648pt"
 viewBox="0.00 0.00 904.00 648.00" xmlns="http://www.w3.org/2000/svg" xmlns:xlink="http://www.w3.org/1999/xlink">
<g id="graph0" class="graph" transform="scale(1 1) rotate(0) translate(4 644)">
<title>js_reflect_deleteProperty</title>
<!-- Node462319 -->
<g id="node1" class="node">
<title>Node462319</title>
<polygon fill="#bfbfbf" stroke="#000000" points="0,-240.5 0,-259.5 125,-259.5 125,-240.5 0,-240.5"/>
<text text-anchor="middle" x="62.5" y="-247.5" font-family="Helvetica,sans-Serif" font-size="10.00" fill="#000000">js_reflect_deleteProperty</text>
</g>
<!-- Node462320 -->
<g id="node2" class="node">
<title>Node462320</title>
<g id="a_node2"><a xlink:href="quickjs_8c.html#a2b88ed25233c441cbed7b0a027c9ee2f" target="_top" xlink:title="JS_DeleteProperty">
<polygon fill="none" stroke="#000000" points="191.5,-278.5 191.5,-297.5 290.5,-297.5 290.5,-278.5 191.5,-278.5"/>
<text text-anchor="middle" x="241" y="-285.5" font-family="Helvetica,sans-Serif" font-size="10.00" fill="#000000">JS_DeleteProperty</text>
</a>
</g>
</g>
<!-- Node462319&#45;&gt;Node462320 -->
<g id="edge1" class="edge">
<title>Node462319&#45;&gt;Node462320</title>
<path fill="none" stroke="#191970" d="M107.5431,-259.589C131.5225,-264.6939 161.1979,-271.0113 186.4721,-276.3918"/>
<polygon fill="#191970" stroke="#191970" points="185.7712,-279.821 196.2808,-278.4799 187.2288,-272.9744 185.7712,-279.821"/>
</g>
<!-- Node462378 -->
<g id="node9" class="node">
<title>Node462378</title>
<g id="a_node9"><a xlink:href="quickjs_8c.html#ab7fc45a99935a1c0ba50b0216d9401a9" target="_top" xlink:title="JS_FreeAtom">
<polygon fill="none" stroke="#ff0000" points="509.5,-.5 509.5,-19.5 586.5,-19.5 586.5,-.5 509.5,-.5"/>
<text text-anchor="middle" x="548" y="-7.5" font-family="Helvetica,sans-Serif" font-size="10.00" fill="#000000">JS_FreeAtom</text>
</a>
</g>
</g>
<!-- Node462319&#45;&gt;Node462378 -->
<g id="edge26" class="edge">
<title>Node462319&#45;&gt;Node462378</title>
<path fill="none" stroke="#191970" d="M78.3252,-240.3361C97.6104,-228.6778 131.3022,-208.6904 161,-193 302.6659,-118.1529 340.3042,-103.6637 486,-37 495.7684,-32.5304 506.4744,-27.8067 516.1999,-23.5814"/>
<polygon fill="#191970" stroke="#191970" points="517.7367,-26.7302 525.5275,-19.5501 514.9596,-20.3046 517.7367,-26.7302"/>
</g>
<!-- Node462542 -->
<g id="node20" class="node">
<title>Node462542</title>
<g id="a_node20"><a xlink:href="quickjs_8h.html#a93abffa925714e249a6aa2f4ae7900f6" target="_top" xlink:title="JS_NewBool">
<polygon fill="none" stroke="#000000" points="204,-240.5 204,-259.5 278,-259.5 278,-240.5 204,-240.5"/>
<text text-anchor="middle" x="241" y="-247.5" font-family="Helvetica,sans-Serif" font-size="10.00" fill="#000000">JS_NewBool</text>
</a>
</g>
</g>
<!-- Node462319&#45;&gt;Node462542 -->
<g id="edge27" class="edge">
<title>Node462319&#45;&gt;Node462542</title>
<path fill="none" stroke="#191970" d="M125.1814,-250C147.6967,-250 172.6941,-250 193.6859,-250"/>
<polygon fill="#191970" stroke="#191970" points="193.9512,-253.5001 203.9512,-250 193.9512,-246.5001 193.9512,-253.5001"/>
</g>
<!-- Node462555 -->
<g id="node21" class="node">
<title>Node462555</title>
<g id="a_node21"><a xlink:href="quickjs_8c.html#a726b00d108e0a0f4d958c36c2e426a64" target="_top" xlink:title="JS_ThrowTypeErrorNotAnObject">
<polygon fill="none" stroke="#000000" points="161,-202.5 161,-221.5 321,-221.5 321,-202.5 161,-202.5"/>
<text text-anchor="middle" x="241" y="-209.5" font-family="Helvetica,sans-Serif" font-size="10.00" fill="#000000">JS_ThrowTypeErrorNotAnObject</text>
</a>
</g>
</g>
<!-- Node462319&#45;&gt;Node462555 -->
<g id="edge28" class="edge">
<title>Node462319&#45;&gt;Node462555</title>
<path fill="none" stroke="#191970" d="M107.5431,-240.411C131.5225,-235.3061 161.1979,-228.9887 186.4721,-223.6082"/>
<polygon fill="#191970" stroke="#191970" points="187.2288,-227.0256 196.2808,-221.5201 185.7712,-220.179 187.2288,-227.0256"/>
</g>
<!-- Node462490 -->
<g id="node22" class="node">
<title>Node462490</title>
<g id="a_node22"><a xlink:href="quickjs_8c.html#a859d5c989a2aaecef1653b3ac279e108" target="_top" xlink:title="JS_ValueToAtom">
<polygon fill="none" stroke="#ff0000" points="357,-620.5 357,-639.5 450,-639.5 450,-620.5 357,-620.5"/>
<text text-anchor="middle" x="403.5" y="-627.5" font-family="Helvetica,sans-Serif" font-size="10.00" fill="#000000">JS_ValueToAtom</text>
</a>
</g>
</g>
<!-- Node462319&#45;&gt;Node462490 -->
<g id="edge29" class="edge">
<title>Node462319&#45;&gt;Node462490</title>
<path fill="none" stroke="#191970" d="M68.4093,-259.7128C96.003,-304.4206 216.758,-493.0401 357,-606 361.4219,-609.5617 366.4564,-612.8148 371.5406,-615.6977"/>
<polygon fill="#191970" stroke="#191970" points="370.1446,-618.918 380.6246,-620.4738 373.4022,-612.7221 370.1446,-618.918"/>
</g>
<!-- Node462321 -->
<g id="node3" class="node">
<title>Node462321</title>
<g id="a_node3"><a xlink:href="quickjs_8c.html#a2b9a2014cb970af5b5b7dde00afbdffa" target="_top" xlink:title="delete_property">
<polygon fill="none" stroke="#000000" points="362,-145.5 362,-164.5 445,-164.5 445,-145.5 362,-145.5"/>
<text text-anchor="middle" x="403.5" y="-152.5" font-family="Helvetica,sans-Serif" font-size="10.00" fill="#000000">delete_property</text>
</a>
</g>
</g>
<!-- Node462320&#45;&gt;Node462321 -->
<g id="edge2" class="edge">
<title>Node462320&#45;&gt;Node462321</title>
<path fill="none" stroke="#191970" d="M290.6524,-281.9653C301.2614,-279.1471 311.9775,-275.0249 321,-269 339.8013,-256.4451 374.5379,-202.4588 392.3417,-173.5099"/>
<polygon fill="#191970" stroke="#191970" points="395.4661,-175.1087 397.6828,-164.7483 389.4891,-171.465 395.4661,-175.1087"/>
</g>
<!-- Node462379 -->
<g id="node10" class="node">
<title>Node462379</title>
<g id="a_node10"><a xlink:href="quickjs_8h.html#afaa20c47565bc704c6c85f3d77254e7d" target="_top" xlink:title="JS_FreeValue">
<polygon fill="none" stroke="#ff0000" points="671,-297.5 671,-316.5 749,-316.5 749,-297.5 671,-297.5"/>
<text text-anchor="middle" x="710" y="-304.5" font-family="Helvetica,sans-Serif" font-size="10.00" fill="#000000">JS_FreeValue</text>
</a>
</g>
</g>
<!-- Node462320&#45;&gt;Node462379 -->
<g id="edge13" class="edge">
<title>Node462320&#45;&gt;Node462379</title>
<path fill="none" stroke="#191970" d="M290.7472,-290.0153C381.0013,-293.6717 570.6918,-301.3564 660.6519,-305.0008"/>
<polygon fill="#191970" stroke="#191970" points="660.7226,-308.5065 670.8561,-305.4142 661.006,-301.5122 660.7226,-308.5065"/>
</g>
<!-- Node462381 -->
<g id="node11" class="node">
<title>Node462381</title>
<g id="a_node11"><a xlink:href="quickjs_8c.html#a686cf78f8b0361621ee2ba6182195c31" target="_top" xlink:title="is_strict_mode">
<polygon fill="none" stroke="#000000" points="363.5,-240.5 363.5,-259.5 443.5,-259.5 443.5,-240.5 363.5,-240.5"/>
<text text-anchor="middle" x="403.5" y="-247.5" font-family="Helvetica,sans-Serif" font-size="10.00" fill="#000000">is_strict_mode</text>
</a>
</g>
</g>
<!-- Node462320&#45;&gt;Node462381 -->
<g id="edge12" class="edge">
<title>Node462320&#45;&gt;Node462381</title>
<path fill="none" stroke="#191970" d="M282.0056,-278.411C303.7096,-273.3356 330.5394,-267.0616 353.461,-261.7014"/>
<polygon fill="#191970" stroke="#191970" points="354.4107,-265.0739 363.351,-259.3887 352.8167,-258.2577 354.4107,-265.0739"/>
</g>
<!-- Node462382 -->
<g id="node12" class="node">
<title>Node462382</title>
<g id="a_node12"><a xlink:href="quickjs_8h.html#ad80a83d73e9b7d872b88fbf2943aebe9" target="_top" xlink:title="JS_IsException">
<polygon fill="none" stroke="#000000" points="667,-563.5 667,-582.5 753,-582.5 753,-563.5 667,-563.5"/>
<text text-anchor="middle" x="710" y="-570.5" font-family="Helvetica,sans-Serif" font-size="10.00" fill="#000000">JS_IsException</text>
</a>
</g>
</g>
<!-- Node462320&#45;&gt;Node462382 -->
<g id="edge14" class="edge">
<title>Node462320&#45;&gt;Node462382</title>
<path fill="none" stroke="#191970" d="M248.3941,-297.8557C272.0866,-329.4124 345.2557,-426.678 357,-440 410.2046,-500.352 411.9641,-535.5075 486,-567 540.6966,-590.2662 609.8945,-587.8976 656.8007,-582.2059"/>
<polygon fill="#191970" stroke="#191970" points="657.288,-585.6721 666.7514,-580.9082 656.3827,-578.7309 657.288,-585.6721"/>
</g>
<!-- Node462383 -->
<g id="node13" class="node">
<title>Node462383</title>
<g id="a_node13"><a xlink:href="quickjs_8c.html#a710289a14c2810467e5b448d3c28bd55" target="_top" xlink:title="JS_ToObject">
<polygon fill="none" stroke="#000000" points="366.5,-411.5 366.5,-430.5 440.5,-430.5 440.5,-411.5 366.5,-411.5"/>
<text text-anchor="middle" x="403.5" y="-418.5" font-family="Helvetica,sans-Serif" font-size="10.00" fill="#000000">JS_ToObject</text>
</a>
</g>
</g>
<!-- Node462320&#45;&gt;Node462383 -->
<g id="edge15" class="edge">
<title>Node462320&#45;&gt;Node462383</title>
<path fill="none" stroke="#191970" d="M252.6866,-297.565C280.1925,-320.0776 349.2762,-376.6199 383.5607,-404.6805"/>
<polygon fill="#191970" stroke="#191970" points="381.5255,-407.5376 391.4809,-411.1628 385.9591,-402.1206 381.5255,-407.5376"/>
</g>
<!-- Node462322 -->
<g id="node4" class="node">
<title>Node462322</title>
<g id="a_node4"><a xlink:href="quickjs_8c.html#ac93c982cb636a5430b191d104083af3e" target="_top" xlink:title="convert_fast_array\l_to_array">
<polygon fill="none" stroke="#ff0000" points="499,-77 499,-107 597,-107 597,-77 499,-77"/>
<text text-anchor="start" x="507" y="-95" font-family="Helvetica,sans-Serif" font-size="10.00" fill="#000000">convert_fast_array</text>
<text text-anchor="middle" x="548" y="-84" font-family="Helvetica,sans-Serif" font-size="10.00" fill="#000000">_to_array</text>
</a>
</g>
</g>
<!-- Node462321&#45;&gt;Node462322 -->
<g id="edge3" class="edge">
<title>Node462321&#45;&gt;Node462322</title>
<path fill="none" stroke="#191970" d="M425.4464,-145.4317C446.2602,-136.3572 478.1309,-122.4619 504.1543,-111.1161"/>
<polygon fill="#191970" stroke="#191970" points="505.6782,-114.27 513.4461,-107.065 502.8806,-107.8533 505.6782,-114.27"/>
</g>
<!-- Node462373 -->
<g id="node5" class="node">
<title>Node462373</title>
<g id="a_node5"><a xlink:href="quickjs_8c.html#a3dd8e78607dbc729614deacf55901b95" target="_top" xlink:title="js_shape_prepare_update">
<polygon fill="none" stroke="#ff0000" points="646,-82.5 646,-101.5 774,-101.5 774,-82.5 646,-82.5"/>
<text text-anchor="middle" x="710" y="-89.5" font-family="Helvetica,sans-Serif" font-size="10.00" fill="#000000">js_shape_prepare_update</text>
</a>
</g>
</g>
<!-- Node462321&#45;&gt;Node462373 -->
<g id="edge11" class="edge">
<title>Node462321&#45;&gt;Node462373</title>
<path fill="none" stroke="#191970" d="M445.1499,-147.7509C486.9414,-140.3322 553.0991,-128.1937 610,-116 627.0595,-112.3442 645.6658,-107.9824 662.1525,-103.9863"/>
<polygon fill="#191970" stroke="#191970" points="663.2265,-107.3269 672.111,-101.5549 661.5662,-100.5267 663.2265,-107.3269"/>
</g>
<!-- Node462327 -->
<g id="node6" class="node">
<title>Node462327</title>
<g id="a_node6"><a xlink:href="quickjs_8c.html#a643df594b75933007bcdbb071b5ea8c5" target="_top" xlink:title="get_shape_prop">
<polygon fill="none" stroke="#000000" points="810,-60.5 810,-79.5 896,-79.5 896,-60.5 810,-60.5"/>
<text text-anchor="middle" x="853" y="-67.5" font-family="Helvetica,sans-Serif" font-size="10.00" fill="#000000">get_shape_prop</text>
</a>
</g>
</g>
<!-- Node462321&#45;&gt;Node462327 -->
<g id="edge7" class="edge">
<title>Node462321&#45;&gt;Node462327</title>
<path fill="none" stroke="#191970" d="M408.7646,-145.4529C419.9854,-126.2325 448.3368,-83.3169 486,-67 593.1329,-20.5866 734.9261,-42.1533 806.8739,-58.1623"/>
<polygon fill="#191970" stroke="#191970" points="806.4408,-61.6537 816.9699,-60.4752 808.004,-54.8305 806.4408,-61.6537"/>
</g>
<!-- Node462370 -->
<g id="node7" class="node">
<title>Node462370</title>
<g id="a_node7"><a xlink:href="quickjs_8c.html#af4274494e2e45f9018154ffcbb7e89e4" target="_top" xlink:title="free_property">
<polygon fill="none" stroke="#ff0000" points="511,-240.5 511,-259.5 585,-259.5 585,-240.5 511,-240.5"/>
<text text-anchor="middle" x="548" y="-247.5" font-family="Helvetica,sans-Serif" font-size="10.00" fill="#000000">free_property</text>
</a>
</g>
</g>
<!-- Node462321&#45;&gt;Node462370 -->
<g id="edge6" class="edge">
<title>Node462321&#45;&gt;Node462370</title>
<path fill="none" stroke="#191970" d="M411.3653,-164.6376C424.952,-180.6783 454.4131,-212.8773 486,-231 490.7604,-233.7312 495.9561,-236.1113 501.2487,-238.1748"/>
<polygon fill="#191970" stroke="#191970" points="500.212,-241.5206 510.8068,-241.5548 502.5459,-234.9211 500.212,-241.5206"/>
</g>
<!-- Node462374 -->
<g id="node8" class="node">
<title>Node462374</title>
<g id="a_node8"><a xlink:href="quickjs_8c.html#aae16c5cdefab4e9dd9866993a7f0150e" target="_top" xlink:title="JS_AtomIsArrayIndex">
<polygon fill="none" stroke="#ff0000" points="491.5,-202.5 491.5,-221.5 604.5,-221.5 604.5,-202.5 491.5,-202.5"/>
<text text-anchor="middle" x="548" y="-209.5" font-family="Helvetica,sans-Serif" font-size="10.00" fill="#000000">JS_AtomIsArrayIndex</text>
</a>
</g>
</g>
<!-- Node462321&#45;&gt;Node462374 -->
<g id="edge8" class="edge">
<title>Node462321&#45;&gt;Node462374</title>
<path fill="none" stroke="#191970" d="M427.2995,-164.6014C443.7646,-171.2239 466.1905,-180.2043 486,-188 494.9918,-191.5386 504.7331,-195.3294 513.7721,-198.8291"/>
<polygon fill="#191970" stroke="#191970" points="512.6467,-202.1464 523.2361,-202.4867 515.1702,-195.6171 512.6467,-202.1464"/>
</g>
<!-- Node462321&#45;&gt;Node462378 -->
<g id="edge9" class="edge">
<title>Node462321&#45;&gt;Node462378</title>
<path fill="none" stroke="#191970" d="M407.5939,-145.3816C417.6623,-122.8064 445.7712,-65.9275 486,-34 491.1025,-29.9504 496.9685,-26.52 503.0134,-23.6324"/>
<polygon fill="#191970" stroke="#191970" points="504.7653,-26.6894 512.5758,-19.5308 502.0059,-20.2562 504.7653,-26.6894"/>
</g>
<!-- Node462321&#45;&gt;Node462379 -->
<g id="edge10" class="edge">
<title>Node462321&#45;&gt;Node462379</title>
<path fill="none" stroke="#191970" d="M445.4024,-154.8007C489.1671,-156.3259 558.4873,-163.7546 610,-193 651.0084,-216.2818 683.5863,-262.7925 699.4554,-288.6292"/>
<polygon fill="#191970" stroke="#191970" points="696.5742,-290.6313 704.702,-297.4275 702.5864,-287.046 696.5742,-290.6313"/>
</g>
<!-- Node462322&#45;&gt;Node462373 -->
<g id="edge4" class="edge">
<title>Node462322&#45;&gt;Node462373</title>
<path fill="none" stroke="#191970" d="M597.045,-92C609.1696,-92 622.4319,-92 635.4692,-92"/>
<polygon fill="#191970" stroke="#191970" points="635.8507,-95.5001 645.8506,-92 635.8506,-88.5001 635.8507,-95.5001"/>
</g>
<!-- Node462373&#45;&gt;Node462327 -->
<g id="edge5" class="edge">
<title>Node462373&#45;&gt;Node462327</title>
<path fill="none" stroke="#191970" d="M771.8902,-82.4784C781.2135,-81.0441 790.7589,-79.5756 799.8766,-78.1728"/>
<polygon fill="#191970" stroke="#191970" points="800.6029,-81.6024 809.9544,-76.6224 799.5385,-74.6838 800.6029,-81.6024"/>
</g>
<!-- Node462383&#45;&gt;Node462382 -->
<g id="edge20" class="edge">
<title>Node462383&#45;&gt;Node462382</title>
<path fill="none" stroke="#191970" d="M407.3693,-430.5994C416.9525,-453.0295 444.0887,-508.9452 486,-535 537.6509,-567.1095 608.3411,-574.3252 656.3996,-574.9858"/>
<polygon fill="#191970" stroke="#191970" points="656.5805,-578.4865 666.5965,-575.0326 656.6127,-571.4866 656.5805,-578.4865"/>
</g>
<!-- Node462384 -->
<g id="node14" class="node">
<title>Node462384</title>
<g id="a_node14"><a xlink:href="quickjs_8c.html#aaaa960ff4bdf4b4dd3017b555844c397" target="_top" xlink:title="is_bigint_mode">
<polygon fill="none" stroke="#000000" points="507,-430.5 507,-449.5 589,-449.5 589,-430.5 507,-430.5"/>
<text text-anchor="middle" x="548" y="-437.5" font-family="Helvetica,sans-Serif" font-size="10.00" fill="#000000">is_bigint_mode</text>
</a>
</g>
</g>
<!-- Node462383&#45;&gt;Node462384 -->
<g id="edge16" class="edge">
<title>Node462383&#45;&gt;Node462384</title>
<path fill="none" stroke="#191970" d="M440.7123,-425.893C457.7869,-428.1381 478.3061,-430.8361 496.8069,-433.2687"/>
<polygon fill="#191970" stroke="#191970" points="496.4719,-436.7547 506.8428,-434.5883 497.3845,-429.8145 496.4719,-436.7547"/>
</g>
<!-- Node462385 -->
<g id="node15" class="node">
<title>Node462385</title>
<g id="a_node15"><a xlink:href="quickjs_8c.html#a0a8765bd4012467d9139bc24aabcb3ca" target="_top" xlink:title="JS_DefinePropertyValue">
<polygon fill="none" stroke="#ff0000" points="486,-316.5 486,-335.5 610,-335.5 610,-316.5 486,-316.5"/>
<text text-anchor="middle" x="548" y="-323.5" font-family="Helvetica,sans-Serif" font-size="10.00" fill="#000000">JS_DefinePropertyValue</text>
</a>
</g>
</g>
<!-- Node462383&#45;&gt;Node462385 -->
<g id="edge17" class="edge">
<title>Node462383&#45;&gt;Node462385</title>
<path fill="none" stroke="#191970" d="M411.3653,-411.3624C424.952,-395.3217 454.4131,-363.1227 486,-345 489.7351,-342.857 493.7381,-340.9303 497.8457,-339.203"/>
<polygon fill="#191970" stroke="#191970" points="499.433,-342.3443 507.5428,-335.5266 496.9515,-335.7989 499.433,-342.3443"/>
</g>
<!-- Node462353 -->
<g id="node16" class="node">
<title>Node462353</title>
<g id="a_node16"><a xlink:href="quickjs_8h.html#a775522f2d084fc8fa0fcb33f390006b4" target="_top" xlink:title="JS_DupValue">
<polygon fill="none" stroke="#000000" points="509.5,-354.5 509.5,-373.5 586.5,-373.5 586.5,-354.5 509.5,-354.5"/>
<text text-anchor="middle" x="548" y="-361.5" font-family="Helvetica,sans-Serif" font-size="10.00" fill="#000000">JS_DupValue</text>
</a>
</g>
</g>
<!-- Node462383&#45;&gt;Node462353 -->
<g id="edge19" class="edge">
<title>Node462383&#45;&gt;Node462353</title>
<path fill="none" stroke="#191970" d="M422.5237,-411.35C439.0473,-403.184 463.7528,-391.4884 486,-383 491.8673,-380.7613 498.1213,-378.5962 504.315,-376.5788"/>
<polygon fill="#191970" stroke="#191970" points="505.4523,-379.89 513.9339,-373.5408 503.3441,-373.215 505.4523,-379.89"/>
</g>
<!-- Node462445 -->
<g id="node17" class="node">
<title>Node462445</title>
<g id="a_node17"><a xlink:href="quickjs_8h.html#a2050bc428da1c65ac7eb87c3fa3b0392" target="_top" xlink:title="JS_NewInt32">
<polygon fill="none" stroke="#000000" points="510,-506.5 510,-525.5 586,-525.5 586,-506.5 510,-506.5"/>
<text text-anchor="middle" x="548" y="-513.5" font-family="Helvetica,sans-Serif" font-size="10.00" fill="#000000">JS_NewInt32</text>
</a>
</g>
</g>
<!-- Node462383&#45;&gt;Node462445 -->
<g id="edge21" class="edge">
<title>Node462383&#45;&gt;Node462445</title>
<path fill="none" stroke="#191970" d="M411.3653,-430.6376C424.952,-446.6783 454.4131,-478.8773 486,-497 490.4629,-499.5605 495.3083,-501.8124 500.2575,-503.7842"/>
<polygon fill="#191970" stroke="#191970" points="499.2353,-507.1361 509.8296,-507.2383 501.6114,-500.5517 499.2353,-507.1361"/>
</g>
<!-- Node462575 -->
<g id="node18" class="node">
<title>Node462575</title>
<g id="a_node18"><a xlink:href="quickjs_8c.html#a659dc0db7e440fd6eb012d613627faa3" target="_top" xlink:title="JS_NewObjectClass">
<polygon fill="none" stroke="#ff0000" points="494,-468.5 494,-487.5 602,-487.5 602,-468.5 494,-468.5"/>
<text text-anchor="middle" x="548" y="-475.5" font-family="Helvetica,sans-Serif" font-size="10.00" fill="#000000">JS_NewObjectClass</text>
</a>
</g>
</g>
<!-- Node462383&#45;&gt;Node462575 -->
<g id="edge22" class="edge">
<title>Node462383&#45;&gt;Node462575</title>
<path fill="none" stroke="#191970" d="M422.5237,-430.65C439.0473,-438.816 463.7528,-450.5116 486,-459 491.8673,-461.2387 498.1213,-463.4038 504.315,-465.4212"/>
<polygon fill="#191970" stroke="#191970" points="503.3441,-468.785 513.9339,-468.4592 505.4523,-462.11 503.3441,-468.785"/>
</g>
<!-- Node462787 -->
<g id="node19" class="node">
<title>Node462787</title>
<g id="a_node19"><a xlink:href="quickjs_8c.html#a5cfd8b63940fcb5151b4df41e32dc68c" target="_top" xlink:title="JS_SetObjectData">
<polygon fill="none" stroke="#000000" points="499,-392.5 499,-411.5 597,-411.5 597,-392.5 499,-392.5"/>
<text text-anchor="middle" x="548" y="-399.5" font-family="Helvetica,sans-Serif" font-size="10.00" fill="#000000">JS_SetObjectData</text>
</a>
</g>
</g>
<!-- Node462383&#45;&gt;Node462787 -->
<g id="edge23" class="edge">
<title>Node462383&#45;&gt;Node462787</title>
<path fill="none" stroke="#191970" d="M440.7123,-416.107C455.3932,-414.1767 472.6206,-411.9115 488.9221,-409.768"/>
<polygon fill="#191970" stroke="#191970" points="489.463,-413.2271 498.9214,-408.4532 488.5504,-406.2869 489.463,-413.2271"/>
</g>
<!-- Node462385&#45;&gt;Node462379 -->
<g id="edge18" class="edge">
<title>Node462385&#45;&gt;Node462379</title>
<path fill="none" stroke="#191970" d="M610.1701,-318.7084C626.8586,-316.7512 644.676,-314.6615 660.5706,-312.7973"/>
<polygon fill="#191970" stroke="#191970" points="661.1826,-316.2496 670.7068,-311.6085 660.3671,-309.2972 661.1826,-316.2496"/>
</g>
<!-- Node462787&#45;&gt;Node462379 -->
<g id="edge24" class="edge">
<title>Node462787&#45;&gt;Node462379</title>
<path fill="none" stroke="#191970" d="M586.8663,-392.3932C594.7263,-389.8175 602.7865,-386.6971 610,-383 641.6108,-366.7987 673.4819,-340.444 692.4833,-323.417"/>
<polygon fill="#191970" stroke="#191970" points="695.0004,-325.8583 700.0308,-316.5338 690.2835,-320.6862 695.0004,-325.8583"/>
</g>
<!-- Node462787&#45;&gt;Node462382 -->
<g id="edge25" class="edge">
<title>Node462787&#45;&gt;Node462382</title>
<path fill="none" stroke="#191970" d="M592.8388,-411.6175C598.9429,-414.0751 604.8649,-417.1517 610,-421 657.2368,-456.4001 688.7969,-521.1139 702.3965,-553.4808"/>
<polygon fill="#191970" stroke="#191970" points="699.3096,-555.1816 706.3167,-563.1283 705.7946,-552.5463 699.3096,-555.1816"/>
</g>
<!-- Node462490&#45;&gt;Node462382 -->
<g id="edge30" class="edge">
<title>Node462490&#45;&gt;Node462382</title>
<path fill="none" stroke="#191970" d="M450.2858,-627.281C492.4351,-624.1902 555.9007,-617.9401 610,-606 632.4995,-601.0342 657.0825,-592.9596 676.2443,-586.0408"/>
<polygon fill="#191970" stroke="#191970" points="677.5543,-589.2883 685.7308,-582.5507 675.1372,-582.7188 677.5543,-589.2883"/>
</g>
</g>
</svg>
