<?xml version="1.0" encoding="UTF-8" standalone="no"?>
<!DOCTYPE svg PUBLIC "-//W3C//DTD SVG 1.1//EN"
 "http://www.w3.org/Graphics/SVG/1.1/DTD/svg11.dtd">
<!-- Generated by graphviz version 2.40.1 (20161225.0304)
 -->
<!-- Title: JS_ToFloat64 Pages: 1 -->
<svg width="496pt" height="104pt"
 viewBox="0.00 0.00 496.00 104.00" xmlns="http://www.w3.org/2000/svg" xmlns:xlink="http://www.w3.org/1999/xlink">
<g id="graph0" class="graph" transform="scale(1 1) rotate(0) translate(4 100)">
<title>JS_ToFloat64</title>
<!-- Node46330 -->
<g id="node1" class="node">
<title>Node46330</title>
<polygon fill="#bfbfbf" stroke="#000000" points="0,-57.5 0,-76.5 77,-76.5 77,-57.5 0,-57.5"/>
<text text-anchor="middle" x="38.5" y="-64.5" font-family="Helvetica,sans-Serif" font-size="10.00" fill="#000000">JS_ToFloat64</text>
</g>
<!-- Node46331 -->
<g id="node2" class="node">
<title>Node46331</title>
<g id="a_node2"><a xlink:href="quickjs_8h.html#a775522f2d084fc8fa0fcb33f390006b4" target="_top" xlink:title="JS_DupValue">
<polygon fill="none" stroke="#000000" points="123,-76.5 123,-95.5 200,-95.5 200,-76.5 123,-76.5"/>
<text text-anchor="middle" x="161.5" y="-83.5" font-family="Helvetica,sans-Serif" font-size="10.00" fill="#000000">JS_DupValue</text>
</a>
</g>
</g>
<!-- Node46330&#45;&gt;Node46331 -->
<g id="edge1" class="edge">
<title>Node46330&#45;&gt;Node46331</title>
<path fill="none" stroke="#191970" d="M77.0805,-72.9596C88.3056,-74.6936 100.7195,-76.6111 112.4953,-78.4302"/>
<polygon fill="#191970" stroke="#191970" points="112.2164,-81.9285 122.6335,-79.9962 113.285,-75.0106 112.2164,-81.9285"/>
</g>
<!-- Node46332 -->
<g id="node3" class="node">
<title>Node46332</title>
<g id="a_node3"><a xlink:href="quickjs_8c.html#ab1b614ef35f1cea05da0ad4927c53118" target="_top" xlink:title="JS_ToFloat64Free">
<polygon fill="none" stroke="#000000" points="113,-38.5 113,-57.5 210,-57.5 210,-38.5 113,-38.5"/>
<text text-anchor="middle" x="161.5" y="-45.5" font-family="Helvetica,sans-Serif" font-size="10.00" fill="#000000">JS_ToFloat64Free</text>
</a>
</g>
</g>
<!-- Node46330&#45;&gt;Node46332 -->
<g id="edge2" class="edge">
<title>Node46330&#45;&gt;Node46332</title>
<path fill="none" stroke="#191970" d="M77.0805,-61.0404C85.1826,-59.7889 93.904,-58.4417 102.5577,-57.1049"/>
<polygon fill="#191970" stroke="#191970" points="103.2958,-60.5325 112.6442,-55.5468 102.2271,-53.6145 103.2958,-60.5325"/>
</g>
<!-- Node46333 -->
<g id="node4" class="node">
<title>Node46333</title>
<g id="a_node4"><a xlink:href="quickjs_8c.html#a9a2e141f21d9ea38a3a23c9b4eb6e356" target="_top" xlink:title="__JS_ToFloat64Free">
<polygon fill="none" stroke="#000000" points="246,-38.5 246,-57.5 353,-57.5 353,-38.5 246,-38.5"/>
<text text-anchor="middle" x="299.5" y="-45.5" font-family="Helvetica,sans-Serif" font-size="10.00" fill="#000000">__JS_ToFloat64Free</text>
</a>
</g>
</g>
<!-- Node46332&#45;&gt;Node46333 -->
<g id="edge3" class="edge">
<title>Node46332&#45;&gt;Node46333</title>
<path fill="none" stroke="#191970" d="M210.1536,-48C218.3186,-48 226.901,-48 235.3844,-48"/>
<polygon fill="#191970" stroke="#191970" points="235.6485,-51.5001 245.6485,-48 235.6485,-44.5001 235.6485,-51.5001"/>
</g>
<!-- Node46334 -->
<g id="node5" class="node">
<title>Node46334</title>
<g id="a_node5"><a xlink:href="quickjs_8h.html#afaa20c47565bc704c6c85f3d77254e7d" target="_top" xlink:title="JS_FreeValue">
<polygon fill="none" stroke="#ff0000" points="399.5,-76.5 399.5,-95.5 477.5,-95.5 477.5,-76.5 399.5,-76.5"/>
<text text-anchor="middle" x="438.5" y="-83.5" font-family="Helvetica,sans-Serif" font-size="10.00" fill="#000000">JS_FreeValue</text>
</a>
</g>
</g>
<!-- Node46333&#45;&gt;Node46334 -->
<g id="edge4" class="edge">
<title>Node46333&#45;&gt;Node46334</title>
<path fill="none" stroke="#191970" d="M334.5756,-57.589C352.5191,-62.4944 374.5584,-68.5196 393.7167,-73.7571"/>
<polygon fill="#191970" stroke="#191970" points="392.8666,-77.1531 403.4357,-76.4141 394.7126,-70.4008 392.8666,-77.1531"/>
</g>
<!-- Node46363 -->
<g id="node6" class="node">
<title>Node46363</title>
<g id="a_node6"><a xlink:href="quickjs_8h.html#ad80a83d73e9b7d872b88fbf2943aebe9" target="_top" xlink:title="JS_IsException">
<polygon fill="none" stroke="#000000" points="395.5,-38.5 395.5,-57.5 481.5,-57.5 481.5,-38.5 395.5,-38.5"/>
<text text-anchor="middle" x="438.5" y="-45.5" font-family="Helvetica,sans-Serif" font-size="10.00" fill="#000000">JS_IsException</text>
</a>
</g>
</g>
<!-- Node46333&#45;&gt;Node46363 -->
<g id="edge5" class="edge">
<title>Node46333&#45;&gt;Node46363</title>
<path fill="none" stroke="#191970" d="M353.241,-48C363.669,-48 374.5967,-48 385.0164,-48"/>
<polygon fill="#191970" stroke="#191970" points="385.2295,-51.5001 395.2295,-48 385.2295,-44.5001 385.2295,-51.5001"/>
</g>
<!-- Node46364 -->
<g id="node7" class="node">
<title>Node46364</title>
<g id="a_node7"><a xlink:href="quickjs_8c.html#ae738291483438efefca5c9fa4d269504" target="_top" xlink:title="JS_ToNumberFree">
<polygon fill="none" stroke="#ff0000" points="389,-.5 389,-19.5 488,-19.5 488,-.5 389,-.5"/>
<text text-anchor="middle" x="438.5" y="-7.5" font-family="Helvetica,sans-Serif" font-size="10.00" fill="#000000">JS_ToNumberFree</text>
</a>
</g>
</g>
<!-- Node46333&#45;&gt;Node46364 -->
<g id="edge6" class="edge">
<title>Node46333&#45;&gt;Node46364</title>
<path fill="none" stroke="#191970" d="M334.5756,-38.411C352.5191,-33.5056 374.5584,-27.4804 393.7167,-22.2429"/>
<polygon fill="#191970" stroke="#191970" points="394.7126,-25.5992 403.4357,-19.5859 392.8666,-18.8469 394.7126,-25.5992"/>
</g>
</g>
</svg>
