<?xml version="1.0" encoding="UTF-8" standalone="no"?>
<!DOCTYPE svg PUBLIC "-//W3C//DTD SVG 1.1//EN"
 "http://www.w3.org/Graphics/SVG/1.1/DTD/svg11.dtd">
<!-- Generated by graphviz version 2.40.1 (20161225.0304)
 -->
<!-- Title: set_object_name Pages: 1 -->
<svg width="1245pt" height="663pt"
 viewBox="0.00 0.00 1245.00 663.00" xmlns="http://www.w3.org/2000/svg" xmlns:xlink="http://www.w3.org/1999/xlink">
<g id="graph0" class="graph" transform="scale(1 1) rotate(0) translate(4 659)">
<title>set_object_name</title>
<!-- Node294917 -->
<g id="node1" class="node">
<title>Node294917</title>
<polygon fill="#bfbfbf" stroke="#000000" points="0,-531.5 0,-550.5 91,-550.5 91,-531.5 0,-531.5"/>
<text text-anchor="middle" x="45.5" y="-538.5" font-family="Helvetica,sans-Serif" font-size="10.00" fill="#000000">set_object_name</text>
</g>
<!-- Node294918 -->
<g id="node2" class="node">
<title>Node294918</title>
<g id="a_node2"><a xlink:href="quickjs_8c.html#a4fa2fc1719feb03edf64eaf034103fd2" target="_top" xlink:title="js_parse_assign_expr">
<polygon fill="none" stroke="#000000" points="127,-284.5 127,-303.5 238,-303.5 238,-284.5 127,-284.5"/>
<text text-anchor="middle" x="182.5" y="-291.5" font-family="Helvetica,sans-Serif" font-size="10.00" fill="#000000">js_parse_assign_expr</text>
</a>
</g>
</g>
<!-- Node294917&#45;&gt;Node294918 -->
<g id="edge1" class="edge">
<title>Node294917&#45;&gt;Node294918</title>
<path fill="none" stroke="#191970" d="M55.8312,-522.3738C83.1733,-473.0781 156.7275,-340.4658 177.1666,-303.6158"/>
<polygon fill="#191970" stroke="#191970" points="52.6603,-520.8747 50.8706,-531.3173 58.7818,-524.27 52.6603,-520.8747"/>
</g>
<!-- Node294921 -->
<g id="node5" class="node">
<title>Node294921</title>
<g id="a_node5"><a xlink:href="quickjs_8c.html#a00eb789430243c24dab4a63ad6a79653" target="_top" xlink:title="js_parse_class">
<polygon fill="none" stroke="#000000" points="1017,-379.5 1017,-398.5 1099,-398.5 1099,-379.5 1017,-379.5"/>
<text text-anchor="middle" x="1058" y="-386.5" font-family="Helvetica,sans-Serif" font-size="10.00" fill="#000000">js_parse_class</text>
</a>
</g>
</g>
<!-- Node294917&#45;&gt;Node294921 -->
<g id="edge43" class="edge">
<title>Node294917&#45;&gt;Node294921</title>
<path fill="none" stroke="#191970" d="M99.577,-552.5544C156.6907,-563.7344 249.5057,-579 330.5,-579 330.5,-579 330.5,-579 624,-579 790.56,-579 838.4818,-551.202 981,-465 1011.0542,-446.8218 1038.2871,-414.6484 1050.784,-398.6255"/>
<polygon fill="#191970" stroke="#191970" points="100.1762,-549.1051 89.6858,-550.589 98.8119,-555.9709 100.1762,-549.1051"/>
</g>
<!-- Node294929 -->
<g id="node7" class="node">
<title>Node294929</title>
<g id="a_node7"><a xlink:href="quickjs_8c.html#a498e1d5c7de1b59c1630e9847cde1e41" target="_top" xlink:title="js_parse_export">
<polygon fill="none" stroke="#ff0000" points="1143,-436.5 1143,-455.5 1229,-455.5 1229,-436.5 1143,-436.5"/>
<text text-anchor="middle" x="1186" y="-443.5" font-family="Helvetica,sans-Serif" font-size="10.00" fill="#000000">js_parse_export</text>
</a>
</g>
</g>
<!-- Node294917&#45;&gt;Node294929 -->
<g id="edge45" class="edge">
<title>Node294917&#45;&gt;Node294929</title>
<path fill="none" stroke="#191970" d="M61.0285,-558.2725C76.274,-574.1439 100.9719,-597.1018 127,-610 209.9975,-651.1293 237.8706,-655 330.5,-655 330.5,-655 330.5,-655 920,-655 1050.9681,-655 1155.6072,-496.4099 1180.4081,-455.5234"/>
<polygon fill="#191970" stroke="#191970" points="63.3458,-555.6261 53.9608,-550.7096 58.2314,-560.4056 63.3458,-555.6261"/>
</g>
<!-- Node294936 -->
<g id="node8" class="node">
<title>Node294936</title>
<g id="a_node8"><a xlink:href="quickjs_8c.html#aff9f2e2a1548acfc8307a4070bb444ec" target="_top" xlink:title="js_parse_destructing\l_element">
<polygon fill="none" stroke="#000000" points="716,-237 716,-267 823,-267 823,-237 716,-237"/>
<text text-anchor="start" x="724" y="-255" font-family="Helvetica,sans-Serif" font-size="10.00" fill="#000000">js_parse_destructing</text>
<text text-anchor="middle" x="769.5" y="-244" font-family="Helvetica,sans-Serif" font-size="10.00" fill="#000000">_element</text>
</a>
</g>
</g>
<!-- Node294917&#45;&gt;Node294936 -->
<g id="edge44" class="edge">
<title>Node294917&#45;&gt;Node294936</title>
<path fill="none" stroke="#191970" d="M78.9993,-527.628C198.7974,-479.8081 605.5241,-317.4545 731.7917,-267.0521"/>
<polygon fill="#191970" stroke="#191970" points="77.5786,-524.4265 69.5888,-531.3845 80.1738,-530.9277 77.5786,-524.4265"/>
</g>
<!-- Node294937 -->
<g id="node9" class="node">
<title>Node294937</title>
<g id="a_node9"><a xlink:href="quickjs_8c.html#a42924858317b848c3aea0a0a978fab3a" target="_top" xlink:title="js_parse_var">
<polygon fill="none" stroke="#000000" points="884,-304.5 884,-323.5 956,-323.5 956,-304.5 884,-304.5"/>
<text text-anchor="middle" x="920" y="-311.5" font-family="Helvetica,sans-Serif" font-size="10.00" fill="#000000">js_parse_var</text>
</a>
</g>
</g>
<!-- Node294917&#45;&gt;Node294937 -->
<g id="edge48" class="edge">
<title>Node294917&#45;&gt;Node294937</title>
<path fill="none" stroke="#191970" d="M101.1564,-530.0111C139.7002,-522.1896 192.1243,-511.1319 238,-500 489.6517,-438.936 789.7788,-352.1756 887.5165,-323.5607"/>
<polygon fill="#191970" stroke="#191970" points="100.2795,-526.6174 91.1705,-532.0281 101.6655,-533.4789 100.2795,-526.6174"/>
</g>
<!-- Node294927 -->
<g id="node11" class="node">
<title>Node294927</title>
<g id="a_node11"><a xlink:href="quickjs_8c.html#acc9eb677cab8dfcf45f59381f8a19601" target="_top" xlink:title="js_parse_function_decl2">
<polygon fill="none" stroke="#ff0000" points="859,-436.5 859,-455.5 981,-455.5 981,-436.5 859,-436.5"/>
<text text-anchor="middle" x="920" y="-443.5" font-family="Helvetica,sans-Serif" font-size="10.00" fill="#000000">js_parse_function_decl2</text>
</a>
</g>
</g>
<!-- Node294917&#45;&gt;Node294927 -->
<g id="edge46" class="edge">
<title>Node294917&#45;&gt;Node294927</title>
<path fill="none" stroke="#191970" d="M63.8871,-557.1134C79.4818,-569.6381 103.0738,-586.0172 127,-593 174.3577,-606.8212 188.7685,-596.1684 238,-593 502.1756,-575.9981 569.9182,-558.6366 823,-481 847.989,-473.3342 876.0248,-463.0283 895.5043,-455.5869"/>
<polygon fill="#191970" stroke="#191970" points="66.0223,-554.337 56.0949,-550.636 61.5476,-559.72 66.0223,-554.337"/>
</g>
<!-- Node294931 -->
<g id="node15" class="node">
<title>Node294931</title>
<g id="a_node15"><a xlink:href="quickjs_8c.html#aee6d0acd87f136d43f157ae1426436e6" target="_top" xlink:title="js_parse_object_literal">
<polygon fill="none" stroke="#000000" points="274,-113.5 274,-132.5 387,-132.5 387,-113.5 274,-113.5"/>
<text text-anchor="middle" x="330.5" y="-120.5" font-family="Helvetica,sans-Serif" font-size="10.00" fill="#000000">js_parse_object_literal</text>
</a>
</g>
</g>
<!-- Node294917&#45;&gt;Node294931 -->
<g id="edge47" class="edge">
<title>Node294917&#45;&gt;Node294931</title>
<path fill="none" stroke="#191970" d="M47.447,-521.4396C52.8845,-474.9141 71.6528,-355.5336 127,-275 175.8288,-203.9511 268.7594,-152.7727 309.9564,-132.551"/>
<polygon fill="#191970" stroke="#191970" points="43.9656,-521.079 46.3608,-531.3995 50.9244,-521.8379 43.9656,-521.079"/>
</g>
<!-- Node294918&#45;&gt;Node294918 -->
<g id="edge23" class="edge">
<title>Node294918&#45;&gt;Node294918</title>
<path fill="none" stroke="#191970" d="M157.2025,-313.0292C158.5824,-318.128 167.0149,-322 182.5,-322 206.6719,-322 213.6591,-312.5653 203.4615,-303.7571"/>
<polygon fill="#191970" stroke="#191970" points="160.4728,-314.2982 161.5385,-303.7571 154.1319,-311.3329 160.4728,-314.2982"/>
</g>
<!-- Node294919 -->
<g id="node3" class="node">
<title>Node294919</title>
<g id="a_node3"><a xlink:href="quickjs_8c.html#a253917187cfb6b3db09d355b31edb3d5" target="_top" xlink:title="js_parse_array_literal">
<polygon fill="none" stroke="#000000" points="423,-189.5 423,-208.5 532,-208.5 532,-189.5 423,-189.5"/>
<text text-anchor="middle" x="477.5" y="-196.5" font-family="Helvetica,sans-Serif" font-size="10.00" fill="#000000">js_parse_array_literal</text>
</a>
</g>
</g>
<!-- Node294918&#45;&gt;Node294919 -->
<g id="edge2" class="edge">
<title>Node294918&#45;&gt;Node294919</title>
<path fill="none" stroke="#191970" d="M198.6673,-276.8992C215.6803,-260.0947 244.0974,-235.2444 274,-223 321.7363,-203.453 380.6824,-198.3495 422.8251,-197.5987"/>
<polygon fill="#191970" stroke="#191970" points="195.7939,-274.8291 191.2749,-284.4119 200.7835,-279.7387 195.7939,-274.8291"/>
</g>
<!-- Node294920 -->
<g id="node4" class="node">
<title>Node294920</title>
<g id="a_node4"><a xlink:href="quickjs_8c.html#acdcc62310b4f6f73fa7bc7267b18b1d4" target="_top" xlink:title="js_parse_postfix_expr">
<polygon fill="none" stroke="#ff0000" points="568,-189.5 568,-208.5 680,-208.5 680,-189.5 568,-189.5"/>
<text text-anchor="middle" x="624" y="-196.5" font-family="Helvetica,sans-Serif" font-size="10.00" fill="#000000">js_parse_postfix_expr</text>
</a>
</g>
</g>
<!-- Node294918&#45;&gt;Node294920 -->
<g id="edge39" class="edge">
<title>Node294918&#45;&gt;Node294920</title>
<path fill="none" stroke="#191970" d="M215.0608,-280.6305C232.3357,-273.9544 254.0598,-266.2116 274,-261 386.4704,-231.6046 417.7225,-239.3153 532,-218 547.5518,-215.0992 564.5267,-211.6689 579.6134,-208.5267"/>
<polygon fill="#191970" stroke="#191970" points="213.4754,-277.493 205.4508,-284.4107 216.0379,-284.0071 213.4754,-277.493"/>
</g>
<!-- Node294918&#45;&gt;Node294921 -->
<g id="edge24" class="edge">
<title>Node294918&#45;&gt;Node294921</title>
<path fill="none" stroke="#191970" d="M197.1053,-311.1119C213.695,-329.2277 242.5705,-356.9664 274,-370 357.9089,-404.7966 386.6622,-389 477.5,-389 477.5,-389 477.5,-389 769.5,-389 857.6528,-389 960.9568,-389 1016.9132,-389"/>
<polygon fill="#191970" stroke="#191970" points="199.6435,-308.6992 190.3824,-303.5529 194.4129,-313.3512 199.6435,-308.6992"/>
</g>
<!-- Node294918&#45;&gt;Node294929 -->
<g id="edge28" class="edge">
<title>Node294918&#45;&gt;Node294929</title>
<path fill="none" stroke="#191970" d="M189.4782,-313.4441C201.6486,-344.4989 229.7617,-405.0393 274,-437 329.3969,-477.0225 355.5991,-463.6978 423,-475 693.6227,-520.3797 1025.4654,-473.411 1142.5842,-453.7683"/>
<polygon fill="#191970" stroke="#191970" points="192.6396,-311.9078 185.8379,-303.7845 186.0893,-314.3764 192.6396,-311.9078"/>
</g>
<!-- Node294918&#45;&gt;Node294936 -->
<g id="edge27" class="edge">
<title>Node294918&#45;&gt;Node294936</title>
<path fill="none" stroke="#191970" d="M248.519,-289.2763C365.7575,-280.8879 608.0712,-263.5503 715.821,-255.8407"/>
<polygon fill="#191970" stroke="#191970" points="247.9774,-285.806 238.2527,-290.0109 248.4771,-292.7882 247.9774,-285.806"/>
</g>
<!-- Node294918&#45;&gt;Node294937 -->
<g id="edge42" class="edge">
<title>Node294918&#45;&gt;Node294937</title>
<path fill="none" stroke="#191970" d="M248.2377,-296.2065C256.9018,-296.4823 265.6643,-296.7537 274,-297 506.4156,-303.8681 785.9087,-310.7577 883.9281,-313.1325"/>
<polygon fill="#191970" stroke="#191970" points="248.2508,-292.7052 238.1435,-295.8819 248.0258,-299.7016 248.2508,-292.7052"/>
</g>
<!-- Node294924 -->
<g id="node10" class="node">
<title>Node294924</title>
<g id="a_node10"><a xlink:href="quickjs_8c.html#ac188b916dd086803591a67de7e7a85f6" target="_top" xlink:title="js_parse_for_in_of">
<polygon fill="none" stroke="#000000" points="872,-142.5 872,-161.5 968,-161.5 968,-142.5 872,-142.5"/>
<text text-anchor="middle" x="920" y="-149.5" font-family="Helvetica,sans-Serif" font-size="10.00" fill="#000000">js_parse_for_in_of</text>
</a>
</g>
</g>
<!-- Node294918&#45;&gt;Node294924 -->
<g id="edge35" class="edge">
<title>Node294918&#45;&gt;Node294924</title>
<path fill="none" stroke="#191970" d="M185.1565,-274.1971C191.7692,-233.7574 213.0773,-142.2801 274,-104 374.6998,-40.7264 749.9426,-114.7654 877.3554,-142.4174"/>
<polygon fill="#191970" stroke="#191970" points="181.6839,-273.7543 183.6604,-284.1631 188.6063,-274.7936 181.6839,-273.7543"/>
</g>
<!-- Node294918&#45;&gt;Node294927 -->
<g id="edge36" class="edge">
<title>Node294918&#45;&gt;Node294927</title>
<path fill="none" stroke="#191970" d="M192.0148,-312.8886C206.0435,-338.4583 234.9013,-383.1656 274,-403 473.7292,-504.3206 753.8873,-473.9701 868.283,-455.5348"/>
<polygon fill="#191970" stroke="#191970" points="194.9895,-311.0267 187.2227,-303.8206 188.8006,-314.2973 194.9895,-311.0267"/>
</g>
<!-- Node294943 -->
<g id="node12" class="node">
<title>Node294943</title>
<g id="a_node12"><a xlink:href="quickjs_8c.html#abd2cbff624ea609dbf883fb1a2f048cd" target="_top" xlink:title="js_parse_cond_expr">
<polygon fill="none" stroke="#000000" points="278.5,-341.5 278.5,-360.5 382.5,-360.5 382.5,-341.5 278.5,-341.5"/>
<text text-anchor="middle" x="330.5" y="-348.5" font-family="Helvetica,sans-Serif" font-size="10.00" fill="#000000">js_parse_cond_expr</text>
</a>
</g>
</g>
<!-- Node294918&#45;&gt;Node294943 -->
<g id="edge25" class="edge">
<title>Node294918&#45;&gt;Node294943</title>
<path fill="none" stroke="#191970" d="M233.0423,-307.0265C262.3817,-317.5234 297.2083,-331.6882 316.2703,-341.3362"/>
<polygon fill="#191970" stroke="#191970" points="233.9283,-303.6282 223.3334,-303.6192 231.6102,-310.2333 233.9283,-303.6282"/>
</g>
<!-- Node294944 -->
<g id="node13" class="node">
<title>Node294944</title>
<g id="a_node13"><a xlink:href="quickjs_8c.html#a1cef6995e7ec0c736babe92589cf441f" target="_top" xlink:title="js_parse_expr2">
<polygon fill="none" stroke="#000000" points="289,-37.5 289,-56.5 372,-56.5 372,-37.5 289,-37.5"/>
<text text-anchor="middle" x="330.5" y="-44.5" font-family="Helvetica,sans-Serif" font-size="10.00" fill="#000000">js_parse_expr2</text>
</a>
</g>
</g>
<!-- Node294918&#45;&gt;Node294944 -->
<g id="edge29" class="edge">
<title>Node294918&#45;&gt;Node294944</title>
<path fill="none" stroke="#191970" d="M185.4641,-274.1064C192.8148,-231.3987 215.6896,-130.033 274,-71 280.1412,-64.7827 288.1451,-60.0859 296.1884,-56.5735"/>
<polygon fill="#191970" stroke="#191970" points="181.9928,-273.6478 183.8511,-284.0784 188.903,-274.7656 181.9928,-273.6478"/>
</g>
<!-- Node294918&#45;&gt;Node294931 -->
<g id="edge37" class="edge">
<title>Node294918&#45;&gt;Node294931</title>
<path fill="none" stroke="#191970" d="M192.4063,-275.0751C211.1659,-239.7987 251.9657,-165.8572 274,-147 281.1253,-140.9021 290.0282,-136.1605 298.6447,-132.5634"/>
<polygon fill="#191970" stroke="#191970" points="189.1089,-273.8241 187.5343,-284.3013 195.2989,-277.0928 189.1089,-273.8241"/>
</g>
<!-- Node294948 -->
<g id="node16" class="node">
<title>Node294948</title>
<g id="a_node16"><a xlink:href="quickjs_8c.html#a035daca514f14aacc1e0cff81d8e423a" target="_top" xlink:title="js_parse_template">
<polygon fill="none" stroke="#000000" points="429.5,-151.5 429.5,-170.5 525.5,-170.5 525.5,-151.5 429.5,-151.5"/>
<text text-anchor="middle" x="477.5" y="-158.5" font-family="Helvetica,sans-Serif" font-size="10.00" fill="#000000">js_parse_template</text>
</a>
</g>
</g>
<!-- Node294918&#45;&gt;Node294948 -->
<g id="edge40" class="edge">
<title>Node294918&#45;&gt;Node294948</title>
<path fill="none" stroke="#191970" d="M193.6143,-276.0001C208.7662,-253.1422 238.1628,-214.3528 274,-195 322.5371,-168.7891 386.3201,-161.8093 429.4417,-160.4084"/>
<polygon fill="#191970" stroke="#191970" points="190.6468,-274.1438 188.183,-284.4482 196.5349,-277.9293 190.6468,-274.1438"/>
</g>
<!-- Node294919&#45;&gt;Node294920 -->
<g id="edge3" class="edge">
<title>Node294919&#45;&gt;Node294920</title>
<path fill="none" stroke="#191970" d="M542.0685,-199C550.6903,-199 559.4749,-199 567.9352,-199"/>
<polygon fill="#191970" stroke="#191970" points="542.0512,-195.5001 532.0512,-199 542.0512,-202.5001 542.0512,-195.5001"/>
</g>
<!-- Node294920&#45;&gt;Node294920 -->
<g id="edge21" class="edge">
<title>Node294920&#45;&gt;Node294920</title>
<path fill="none" stroke="#191970" d="M597.1208,-217.6539C598.2444,-222.9368 607.2041,-227 624,-227 649.5938,-227 656.9919,-217.5653 646.1946,-208.7571"/>
<polygon fill="#191970" stroke="#191970" points="600.2433,-219.2361 601.8054,-208.7571 594.0494,-215.9747 600.2433,-219.2361"/>
</g>
<!-- Node294920&#45;&gt;Node294921 -->
<g id="edge4" class="edge">
<title>Node294920&#45;&gt;Node294921</title>
<path fill="none" stroke="#191970" d="M690.3568,-195.8308C767.257,-200.112 894.4692,-221.1998 981,-286 1016.2912,-312.4285 1045.2805,-358.357 1054.7354,-379.2279"/>
<polygon fill="#191970" stroke="#191970" points="690.4662,-192.3322 680.3113,-195.3534 690.1338,-199.3243 690.4662,-192.3322"/>
</g>
<!-- Node294920&#45;&gt;Node294936 -->
<g id="edge9" class="edge">
<title>Node294920&#45;&gt;Node294936</title>
<path fill="none" stroke="#191970" d="M676.9569,-211.7673C699.263,-219.3687 724.256,-228.8549 742.6408,-236.8401"/>
<polygon fill="#191970" stroke="#191970" points="677.8546,-208.3771 667.2609,-208.5275 675.6362,-215.0163 677.8546,-208.3771"/>
</g>
<!-- Node294920&#45;&gt;Node294924 -->
<g id="edge22" class="edge">
<title>Node294920&#45;&gt;Node294924</title>
<path fill="none" stroke="#191970" d="M667.5359,-186.9031C682.7737,-182.9927 700.0583,-178.9181 716,-176 768.9679,-166.3043 830.425,-159.6965 871.9284,-155.9072"/>
<polygon fill="#191970" stroke="#191970" points="666.642,-183.5191 657.8528,-189.4352 668.413,-190.2913 666.642,-183.5191"/>
</g>
<!-- Node294921&#45;&gt;Node294920 -->
<g id="edge5" class="edge">
<title>Node294921&#45;&gt;Node294920</title>
<path fill="none" stroke="#191970" d="M1042.654,-371.3492C1028.7272,-352.3961 1006.51,-323.1036 981,-304 890.5842,-236.2904 755.7518,-216.3065 680.3113,-207.5043"/>
<polygon fill="#191970" stroke="#191970" points="1039.8911,-373.5002 1048.6271,-379.4945 1045.5359,-369.3607 1039.8911,-373.5002"/>
</g>
<!-- Node294922 -->
<g id="node6" class="node">
<title>Node294922</title>
<g id="a_node6"><a xlink:href="quickjs_8c.html#a9d844c16dcc71701436848074337d32c" target="_top" xlink:title="js_parse_statement\l_or_decl">
<polygon fill="none" stroke="#ff0000" points="1135,-201 1135,-231 1237,-231 1237,-201 1135,-201"/>
<text text-anchor="start" x="1143" y="-219" font-family="Helvetica,sans-Serif" font-size="10.00" fill="#000000">js_parse_statement</text>
<text text-anchor="middle" x="1186" y="-208" font-family="Helvetica,sans-Serif" font-size="10.00" fill="#000000">_or_decl</text>
</a>
</g>
</g>
<!-- Node294921&#45;&gt;Node294922 -->
<g id="edge6" class="edge">
<title>Node294921&#45;&gt;Node294922</title>
<path fill="none" stroke="#191970" d="M1071.0598,-371.3488C1096.2388,-337.3179 1151.0967,-263.174 1174.7622,-231.1886"/>
<polygon fill="#191970" stroke="#191970" points="1068.1984,-369.3317 1065.0642,-379.4523 1073.8256,-373.4952 1068.1984,-369.3317"/>
</g>
<!-- Node294921&#45;&gt;Node294929 -->
<g id="edge8" class="edge">
<title>Node294921&#45;&gt;Node294929</title>
<path fill="none" stroke="#191970" d="M1088.581,-402.6181C1111.9991,-413.0465 1143.7144,-427.1697 1164.5058,-436.4284"/>
<polygon fill="#191970" stroke="#191970" points="1089.9833,-399.4113 1079.4243,-398.5405 1087.1357,-405.8059 1089.9833,-399.4113"/>
</g>
<!-- Node294922&#45;&gt;Node294922 -->
<g id="edge7" class="edge">
<title>Node294922&#45;&gt;Node294922</title>
<path fill="none" stroke="#191970" d="M1163.2559,-241.4579C1166.0788,-246.179 1173.6602,-249.5 1186,-249.5 1206.25,-249.5 1213.6855,-240.5566 1208.3066,-231.159"/>
<polygon fill="#191970" stroke="#191970" points="1166.7658,-241.2985 1163.6934,-231.159 1159.7721,-241.0014 1166.7658,-241.2985"/>
</g>
<!-- Node294936&#45;&gt;Node294920 -->
<g id="edge11" class="edge">
<title>Node294936&#45;&gt;Node294920</title>
<path fill="none" stroke="#191970" d="M706.2668,-235.665C681.1142,-226.777 654.4174,-216.2341 638.483,-208.5191"/>
<polygon fill="#191970" stroke="#191970" points="705.2107,-239.0033 715.8056,-238.981 707.5093,-232.3914 705.2107,-239.0033"/>
</g>
<!-- Node294936&#45;&gt;Node294922 -->
<g id="edge17" class="edge">
<title>Node294936&#45;&gt;Node294922</title>
<path fill="none" stroke="#191970" d="M833.1285,-246.5003C915.8793,-239.3478 1058.8128,-226.9934 1134.8923,-220.4175"/>
<polygon fill="#191970" stroke="#191970" points="832.7589,-243.0191 823.0974,-247.3673 833.3617,-249.9931 832.7589,-243.0191"/>
</g>
<!-- Node294936&#45;&gt;Node294936 -->
<g id="edge10" class="edge">
<title>Node294936&#45;&gt;Node294936</title>
<path fill="none" stroke="#191970" d="M743.9129,-277.4579C747.0887,-282.179 755.6177,-285.5 769.5,-285.5 792.2813,-285.5 800.6462,-276.5566 794.595,-267.159"/>
<polygon fill="#191970" stroke="#191970" points="747.4237,-277.3147 744.405,-267.159 740.4317,-276.9805 747.4237,-277.3147"/>
</g>
<!-- Node294936&#45;&gt;Node294937 -->
<g id="edge12" class="edge">
<title>Node294936&#45;&gt;Node294937</title>
<path fill="none" stroke="#191970" d="M815.5082,-270.9535C842.3055,-281.993 874.9618,-295.446 896.5567,-304.3423"/>
<polygon fill="#191970" stroke="#191970" points="816.5112,-267.5814 805.9319,-267.0085 813.8448,-274.0537 816.5112,-267.5814"/>
</g>
<!-- Node294936&#45;&gt;Node294924 -->
<g id="edge15" class="edge">
<title>Node294936&#45;&gt;Node294924</title>
<path fill="none" stroke="#191970" d="M800.9578,-231.0978C833.1076,-209.7358 881.614,-177.5057 905.5673,-161.5898"/>
<polygon fill="#191970" stroke="#191970" points="798.7497,-228.3627 792.3577,-236.8122 802.6237,-234.193 798.7497,-228.3627"/>
</g>
<!-- Node294936&#45;&gt;Node294927 -->
<g id="edge18" class="edge">
<title>Node294936&#45;&gt;Node294927</title>
<path fill="none" stroke="#191970" d="M787.6073,-275.341C820.6739,-317.965 889.5336,-406.7277 912.4206,-436.2299"/>
<polygon fill="#191970" stroke="#191970" points="790.2045,-272.9787 781.3095,-267.2229 784.6736,-277.2694 790.2045,-272.9787"/>
</g>
<!-- Node294937&#45;&gt;Node294922 -->
<g id="edge13" class="edge">
<title>Node294937&#45;&gt;Node294922</title>
<path fill="none" stroke="#191970" d="M966.0095,-303.8198C1002.7214,-295.0046 1055.0902,-280.8667 1099,-263 1120.9439,-254.0711 1144.5107,-241.111 1161.5741,-231.0605"/>
<polygon fill="#191970" stroke="#191970" points="965.0172,-300.4578 956.0901,-306.1637 966.627,-307.2703 965.0172,-300.4578"/>
</g>
<!-- Node294937&#45;&gt;Node294929 -->
<g id="edge14" class="edge">
<title>Node294937&#45;&gt;Node294929</title>
<path fill="none" stroke="#191970" d="M966.1859,-322.9025C1003.6419,-331.3957 1056.9335,-346.4361 1099,-370 1131.7203,-388.3286 1163.0602,-420.4327 1177.5772,-436.4073"/>
<polygon fill="#191970" stroke="#191970" points="966.5818,-319.4061 956.0637,-320.6789 965.0799,-326.243 966.5818,-319.4061"/>
</g>
<!-- Node294924&#45;&gt;Node294922 -->
<g id="edge16" class="edge">
<title>Node294924&#45;&gt;Node294922</title>
<path fill="none" stroke="#191970" d="M969.5083,-163.9118C1016.6173,-175.2463 1087.1908,-192.2264 1134.8392,-203.6906"/>
<polygon fill="#191970" stroke="#191970" points="970.077,-160.4488 959.5357,-161.5123 968.4394,-167.2546 970.077,-160.4488"/>
</g>
<!-- Node294927&#45;&gt;Node294921 -->
<g id="edge19" class="edge">
<title>Node294927&#45;&gt;Node294921</title>
<path fill="none" stroke="#191970" d="M952.634,-432.5207C977.9136,-422.0792 1012.3112,-407.8715 1034.8265,-398.5716"/>
<polygon fill="#191970" stroke="#191970" points="951.0045,-429.4069 943.0981,-436.4595 953.6769,-435.8767 951.0045,-429.4069"/>
</g>
<!-- Node294927&#45;&gt;Node294929 -->
<g id="edge20" class="edge">
<title>Node294927&#45;&gt;Node294929</title>
<path fill="none" stroke="#191970" d="M991.1031,-446C1039.3838,-446 1101.6705,-446 1142.6728,-446"/>
<polygon fill="#191970" stroke="#191970" points="991.0258,-442.5001 981.0258,-446 991.0257,-449.5001 991.0258,-442.5001"/>
</g>
<!-- Node294943&#45;&gt;Node294918 -->
<g id="edge26" class="edge">
<title>Node294943&#45;&gt;Node294918</title>
<path fill="none" stroke="#191970" d="M280.0214,-337.9962C250.5109,-327.4407 215.4305,-313.1663 196.4235,-303.5086"/>
<polygon fill="#191970" stroke="#191970" points="279.1897,-341.4135 289.7845,-341.4213 281.507,-334.8082 279.1897,-341.4135"/>
</g>
<!-- Node294944&#45;&gt;Node294922 -->
<g id="edge34" class="edge">
<title>Node294944&#45;&gt;Node294922</title>
<path fill="none" stroke="#191970" d="M376.2027,-35.0649C433.6272,-21.1405 535.4003,0 624,0 624,0 624,0 920,0 1003.9059,0 1034.4348,-6.4133 1099,-60 1145.7702,-98.8175 1171.9213,-169.64 1181.6105,-200.7058"/>
<polygon fill="#191970" stroke="#191970" points="375.2253,-31.7009 366.3512,-37.4888 376.8978,-38.4982 375.2253,-31.7009"/>
</g>
<!-- Node294945 -->
<g id="node14" class="node">
<title>Node294945</title>
<g id="a_node14"><a xlink:href="quickjs_8c.html#af219bd55085ad700eb078affe3f65505" target="_top" xlink:title="js_parse_expr">
<polygon fill="none" stroke="#ff0000" points="439,-37.5 439,-56.5 516,-56.5 516,-37.5 439,-37.5"/>
<text text-anchor="middle" x="477.5" y="-44.5" font-family="Helvetica,sans-Serif" font-size="10.00" fill="#000000">js_parse_expr</text>
</a>
</g>
</g>
<!-- Node294944&#45;&gt;Node294945 -->
<g id="edge30" class="edge">
<title>Node294944&#45;&gt;Node294945</title>
<path fill="none" stroke="#191970" d="M382.2954,-47C400.8475,-47 421.4263,-47 438.6912,-47"/>
<polygon fill="#191970" stroke="#191970" points="382.2311,-43.5001 372.2311,-47 382.2311,-50.5001 382.2311,-43.5001"/>
</g>
<!-- Node294945&#45;&gt;Node294920 -->
<g id="edge32" class="edge">
<title>Node294945&#45;&gt;Node294920</title>
<path fill="none" stroke="#191970" d="M493.6853,-63.793C524.4793,-95.7431 590.5892,-164.3349 614.8392,-189.4953"/>
<polygon fill="#191970" stroke="#191970" points="496.1239,-61.2796 486.6642,-56.5083 491.0838,-66.1373 496.1239,-61.2796"/>
</g>
<!-- Node294945&#45;&gt;Node294922 -->
<g id="edge33" class="edge">
<title>Node294945&#45;&gt;Node294922</title>
<path fill="none" stroke="#191970" d="M526.5554,-44.565C584.5622,-41.8996 684.0334,-38 769.5,-38 769.5,-38 769.5,-38 920,-38 1036.6895,-38 1140.93,-157.7784 1174.6239,-200.8238"/>
<polygon fill="#191970" stroke="#191970" points="526.0456,-41.0849 516.2196,-45.0471 526.3718,-48.0773 526.0456,-41.0849"/>
</g>
<!-- Node294945&#45;&gt;Node294924 -->
<g id="edge31" class="edge">
<title>Node294945&#45;&gt;Node294924</title>
<path fill="none" stroke="#191970" d="M526.0644,-49.2645C594.0535,-53.5871 720.7511,-65.8711 823,-100 854.3554,-110.4659 887.63,-130.5338 905.9105,-142.4465"/>
<polygon fill="#191970" stroke="#191970" points="526.2623,-45.7702 516.0692,-48.6599 525.8396,-52.7574 526.2623,-45.7702"/>
</g>
<!-- Node294931&#45;&gt;Node294920 -->
<g id="edge38" class="edge">
<title>Node294931&#45;&gt;Node294920</title>
<path fill="none" stroke="#191970" d="M397.2668,-121.6936C437.2843,-122.7582 488.6463,-127.4235 532,-142 563.7012,-152.6586 595.7962,-176.0523 612.4111,-189.3183"/>
<polygon fill="#191970" stroke="#191970" points="397.154,-118.1908 387.087,-121.4932 397.0162,-125.1894 397.154,-118.1908"/>
</g>
<!-- Node294948&#45;&gt;Node294920 -->
<g id="edge41" class="edge">
<title>Node294948&#45;&gt;Node294920</title>
<path fill="none" stroke="#191970" d="M524.1954,-173.1121C544.5986,-178.4044 568.1808,-184.5213 587.2977,-189.4799"/>
<polygon fill="#191970" stroke="#191970" points="525.0266,-169.712 514.4681,-170.589 523.269,-176.4877 525.0266,-169.712"/>
</g>
</g>
</svg>
