<?xml version="1.0" encoding="UTF-8" standalone="no"?>
<!DOCTYPE svg PUBLIC "-//W3C//DTD SVG 1.1//EN"
 "http://www.w3.org/Graphics/SVG/1.1/DTD/svg11.dtd">
<!-- Generated by graphviz version 2.40.1 (20161225.0304)
 -->
<!-- Title: JS_IteratorNext2 Pages: 1 -->
<svg width="750pt" height="1087pt"
 viewBox="0.00 0.00 750.00 1086.59" xmlns="http://www.w3.org/2000/svg" xmlns:xlink="http://www.w3.org/1999/xlink">
<g id="graph0" class="graph" transform="scale(1 1) rotate(0) translate(4 1082.5855)">
<title>JS_IteratorNext2</title>
<!-- Node254112 -->
<g id="node1" class="node">
<title>Node254112</title>
<polygon fill="#bfbfbf" stroke="#000000" points="0,-703.5 0,-722.5 91,-722.5 91,-703.5 0,-703.5"/>
<text text-anchor="middle" x="45.5" y="-710.5" font-family="Helvetica,sans-Serif" font-size="10.00" fill="#000000">JS_IteratorNext2</text>
</g>
<!-- Node254113 -->
<g id="node2" class="node">
<title>Node254113</title>
<g id="a_node2"><a xlink:href="quickjs_8c.html#a1a4c02a29525d5cb2085dd8bca3af350" target="_top" xlink:title="JS_Call">
<polygon fill="none" stroke="#000000" points="127,-513.5 127,-532.5 178,-532.5 178,-513.5 127,-513.5"/>
<text text-anchor="middle" x="152.5" y="-520.5" font-family="Helvetica,sans-Serif" font-size="10.00" fill="#000000">JS_Call</text>
</a>
</g>
</g>
<!-- Node254112&#45;&gt;Node254113 -->
<g id="edge1" class="edge">
<title>Node254112&#45;&gt;Node254113</title>
<path fill="none" stroke="#191970" d="M50.9532,-703.3167C67.835,-673.3398 119.4465,-581.6931 141.8906,-541.8391"/>
<polygon fill="#191970" stroke="#191970" points="145.0721,-543.3225 146.9294,-532.8917 138.9727,-539.8875 145.0721,-543.3225"/>
</g>
<!-- Node254167 -->
<g id="node9" class="node">
<title>Node254167</title>
<g id="a_node9"><a xlink:href="quickjs_8h.html#afaa20c47565bc704c6c85f3d77254e7d" target="_top" xlink:title="JS_FreeValue">
<polygon fill="none" stroke="#ff0000" points="664,-741.5 664,-760.5 742,-760.5 742,-741.5 664,-741.5"/>
<text text-anchor="middle" x="703" y="-748.5" font-family="Helvetica,sans-Serif" font-size="10.00" fill="#000000">JS_FreeValue</text>
</a>
</g>
</g>
<!-- Node254112&#45;&gt;Node254167 -->
<g id="edge52" class="edge">
<title>Node254112&#45;&gt;Node254167</title>
<path fill="none" stroke="#191970" d="M46.3251,-722.6559C51.8,-780.065 88.01,-1074 255.5,-1074 255.5,-1074 255.5,-1074 403,-1074 505.0685,-1074 553.598,-1097.8736 628,-1028 666.2235,-992.1029 692.296,-827.9572 700.3567,-770.7401"/>
<polygon fill="#191970" stroke="#191970" points="703.868,-770.8977 701.7644,-760.5139 696.9333,-769.9431 703.868,-770.8977"/>
</g>
<!-- Node254177 -->
<g id="node10" class="node">
<title>Node254177</title>
<g id="a_node10"><a xlink:href="quickjs_8h.html#ad80a83d73e9b7d872b88fbf2943aebe9" target="_top" xlink:title="JS_IsException">
<polygon fill="none" stroke="#000000" points="525.5,-684.5 525.5,-703.5 611.5,-703.5 611.5,-684.5 525.5,-684.5"/>
<text text-anchor="middle" x="568.5" y="-691.5" font-family="Helvetica,sans-Serif" font-size="10.00" fill="#000000">JS_IsException</text>
</a>
</g>
</g>
<!-- Node254112&#45;&gt;Node254177 -->
<g id="edge53" class="edge">
<title>Node254112&#45;&gt;Node254177</title>
<path fill="none" stroke="#191970" d="M53.8947,-722.7447C100.1477,-775.3004 327.1144,-1018.3696 473,-903 527.4543,-859.9363 474.5221,-811.258 509,-751 518.3243,-734.7037 533.7275,-720.1346 546.5254,-709.8053"/>
<polygon fill="#191970" stroke="#191970" points="548.7053,-712.544 554.4692,-703.6542 544.4196,-707.0093 548.7053,-712.544"/>
</g>
<!-- Node254378 -->
<g id="node30" class="node">
<title>Node254378</title>
<g id="a_node30"><a xlink:href="quickjs_8h.html#a3d68fe446df2d9c7d1900b16371bff5b" target="_top" xlink:title="JS_IsObject">
<polygon fill="none" stroke="#000000" points="367.5,-.5 367.5,-19.5 438.5,-19.5 438.5,-.5 367.5,-.5"/>
<text text-anchor="middle" x="403" y="-7.5" font-family="Helvetica,sans-Serif" font-size="10.00" fill="#000000">JS_IsObject</text>
</a>
</g>
</g>
<!-- Node254112&#45;&gt;Node254378 -->
<g id="edge54" class="edge">
<title>Node254112&#45;&gt;Node254378</title>
<path fill="none" stroke="#191970" d="M49.1098,-703.3664C60.3042,-673.5754 95.5708,-580.3494 127,-504 214.5932,-291.2143 158.9925,-179.5712 333,-29 339.993,-22.9489 348.7343,-18.8059 357.6454,-15.9743"/>
<polygon fill="#191970" stroke="#191970" points="358.552,-19.3549 367.3069,-13.3882 356.7419,-12.593 358.552,-19.3549"/>
</g>
<!-- Node254114 -->
<g id="node3" class="node">
<title>Node254114</title>
<g id="a_node3"><a xlink:href="quickjs_8c.html#ac2894ff4edcdb4e6841bcce9c76081e3" target="_top" xlink:title="JS_CallInternal">
<polygon fill="none" stroke="#ff0000" points="214,-513.5 214,-532.5 297,-532.5 297,-513.5 214,-513.5"/>
<text text-anchor="middle" x="255.5" y="-520.5" font-family="Helvetica,sans-Serif" font-size="10.00" fill="#000000">JS_CallInternal</text>
</a>
</g>
</g>
<!-- Node254113&#45;&gt;Node254114 -->
<g id="edge2" class="edge">
<title>Node254113&#45;&gt;Node254114</title>
<path fill="none" stroke="#191970" d="M178.2256,-517.0658C185.9345,-516.5331 194.6815,-516.2613 203.4498,-516.2503"/>
<polygon fill="#191970" stroke="#191970" points="203.6557,-519.7526 213.6918,-516.3574 203.729,-512.753 203.6557,-519.7526"/>
</g>
<!-- Node254114&#45;&gt;Node254113 -->
<g id="edge47" class="edge">
<title>Node254114&#45;&gt;Node254113</title>
<path fill="none" stroke="#191970" d="M213.6918,-529.6426C205.2502,-529.8317 196.4481,-529.7711 188.2376,-529.4608"/>
<polygon fill="#191970" stroke="#191970" points="188.3956,-525.9643 178.2256,-528.9342 188.0279,-532.9547 188.3956,-525.9643"/>
</g>
<!-- Node254114&#45;&gt;Node254114 -->
<g id="edge48" class="edge">
<title>Node254114&#45;&gt;Node254114</title>
<path fill="none" stroke="#191970" d="M239.7788,-532.7571C232.1307,-541.5653 237.3711,-551 255.5,-551 266.8306,-551 273.1266,-547.3146 274.388,-542.4"/>
<polygon fill="#191970" stroke="#191970" points="277.6666,-541.1658 271.2212,-532.7571 271.0161,-543.3499 277.6666,-541.1658"/>
</g>
<!-- Node254115 -->
<g id="node4" class="node">
<title>Node254115</title>
<g id="a_node4"><a xlink:href="quickjs_8c.html#a853f0924d441ea4225488f37c8b69f9a" target="_top" xlink:title="__attribute__">
<polygon fill="none" stroke="#000000" points="532,-969.5 532,-988.5 605,-988.5 605,-969.5 532,-969.5"/>
<text text-anchor="middle" x="568.5" y="-976.5" font-family="Helvetica,sans-Serif" font-size="10.00" fill="#000000">__attribute__</text>
</a>
</g>
</g>
<!-- Node254114&#45;&gt;Node254115 -->
<g id="edge3" class="edge">
<title>Node254114&#45;&gt;Node254115</title>
<path fill="none" stroke="#191970" d="M256.3989,-532.6502C262.3783,-595.8342 297.2608,-948.8224 333,-979 389.0831,-1026.3556 482.3267,-1007.2908 533.0276,-991.676"/>
<polygon fill="#191970" stroke="#191970" points="534.1197,-995.0014 542.5769,-988.6197 531.9859,-988.3345 534.1197,-995.0014"/>
</g>
<!-- Node254116 -->
<g id="node5" class="node">
<title>Node254116</title>
<g id="a_node5"><a xlink:href="quickjs_8c.html#a877fcb7651d95b411ce70e62b7f4a1f0" target="_top" xlink:title="__JS_AtomFromUInt32">
<polygon fill="none" stroke="#000000" points="509,-486.5 509,-505.5 628,-505.5 628,-486.5 509,-486.5"/>
<text text-anchor="middle" x="568.5" y="-493.5" font-family="Helvetica,sans-Serif" font-size="10.00" fill="#000000">__JS_AtomFromUInt32</text>
</a>
</g>
</g>
<!-- Node254114&#45;&gt;Node254116 -->
<g id="edge4" class="edge">
<title>Node254114&#45;&gt;Node254116</title>
<path fill="none" stroke="#191970" d="M269.8872,-513.4372C284.904,-504.0761 309.4978,-490.4518 333,-485 392.93,-471.0981 463.6706,-477.3131 511.8669,-484.8145"/>
<polygon fill="#191970" stroke="#191970" points="511.3654,-488.2788 521.7973,-486.428 512.4881,-481.3695 511.3654,-488.2788"/>
</g>
<!-- Node254117 -->
<g id="node6" class="node">
<title>Node254117</title>
<g id="a_node6"><a xlink:href="quickjs_8c.html#a74547db03bf739a52c83a326b32db997" target="_top" xlink:title="add_property">
<polygon fill="none" stroke="#ff0000" points="532,-569.5 532,-588.5 605,-588.5 605,-569.5 532,-569.5"/>
<text text-anchor="middle" x="568.5" y="-576.5" font-family="Helvetica,sans-Serif" font-size="10.00" fill="#000000">add_property</text>
</a>
</g>
</g>
<!-- Node254114&#45;&gt;Node254117 -->
<g id="edge5" class="edge">
<title>Node254114&#45;&gt;Node254117</title>
<path fill="none" stroke="#191970" d="M297.2256,-530.12C341.032,-537.635 411.9007,-549.9051 473,-561 488.9324,-563.8931 506.3416,-567.147 521.8808,-570.0844"/>
<polygon fill="#191970" stroke="#191970" points="521.311,-573.5386 531.7879,-571.962 522.6146,-566.6611 521.311,-573.5386"/>
</g>
<!-- Node254165 -->
<g id="node7" class="node">
<title>Node254165</title>
<g id="a_node7"><a xlink:href="quickjs_8c.html#a4956f45ffd2849b96dc051277264f87a" target="_top" xlink:title="build_arg_list">
<polygon fill="none" stroke="#ff0000" points="366,-760.5 366,-779.5 440,-779.5 440,-760.5 366,-760.5"/>
<text text-anchor="middle" x="403" y="-767.5" font-family="Helvetica,sans-Serif" font-size="10.00" fill="#000000">build_arg_list</text>
</a>
</g>
</g>
<!-- Node254114&#45;&gt;Node254165 -->
<g id="edge6" class="edge">
<title>Node254114&#45;&gt;Node254165</title>
<path fill="none" stroke="#191970" d="M257.5044,-532.5794C265.8847,-571.7682 299.2508,-719.3005 333,-751 339.4688,-757.0759 347.6811,-761.2464 356.1868,-764.1001"/>
<polygon fill="#191970" stroke="#191970" points="355.2644,-767.4764 365.8372,-766.794 357.1465,-760.7342 355.2644,-767.4764"/>
</g>
<!-- Node254166 -->
<g id="node8" class="node">
<title>Node254166</title>
<g id="a_node8"><a xlink:href="quickjs_8c.html#ac864482356b3efc2d0b0a509fcfa4c7c" target="_top" xlink:title="free_arg_list">
<polygon fill="none" stroke="#ff0000" points="533.5,-760.5 533.5,-779.5 603.5,-779.5 603.5,-760.5 533.5,-760.5"/>
<text text-anchor="middle" x="568.5" y="-767.5" font-family="Helvetica,sans-Serif" font-size="10.00" fill="#000000">free_arg_list</text>
</a>
</g>
</g>
<!-- Node254114&#45;&gt;Node254166 -->
<g id="edge13" class="edge">
<title>Node254114&#45;&gt;Node254166</title>
<path fill="none" stroke="#191970" d="M256.4099,-532.6723C261.1069,-580.3031 284.2936,-789.1527 333,-827 398.725,-878.0716 503.5392,-816.1421 547.752,-785.383"/>
<polygon fill="#191970" stroke="#191970" points="549.8768,-788.1668 555.9945,-779.5167 545.8178,-782.4638 549.8768,-788.1668"/>
</g>
<!-- Node254114&#45;&gt;Node254167 -->
<g id="edge49" class="edge">
<title>Node254114&#45;&gt;Node254167</title>
<path fill="none" stroke="#191970" d="M256.3131,-532.8324C261.8671,-598.8295 295.1277,-975.699 333,-1008 382.9067,-1050.5651 576.5953,-1038.7434 628,-998 664.5597,-969.0228 691.2581,-823.818 699.955,-770.594"/>
<polygon fill="#191970" stroke="#191970" points="703.4129,-771.1346 701.5347,-760.7076 696.5006,-770.0301 703.4129,-771.1346"/>
</g>
<!-- Node254114&#45;&gt;Node254177 -->
<g id="edge50" class="edge">
<title>Node254114&#45;&gt;Node254177</title>
<path fill="none" stroke="#191970" d="M257.1006,-532.6077C262.2726,-560.282 281.3084,-640.3974 333,-675 386.8927,-711.076 464.0452,-709.8377 515.1698,-703.6155"/>
<polygon fill="#191970" stroke="#191970" points="515.8949,-707.0502 525.3496,-702.2691 514.977,-700.1107 515.8949,-707.0502"/>
</g>
<!-- Node254276 -->
<g id="node11" class="node">
<title>Node254276</title>
<g id="a_node11"><a xlink:href="quickjs_8c.html#a61c8dfb5e807af1b6ff7d8ca61576dda" target="_top" xlink:title="build_backtrace">
<polygon fill="none" stroke="#ff0000" points="360.5,-342.5 360.5,-361.5 445.5,-361.5 445.5,-342.5 360.5,-342.5"/>
<text text-anchor="middle" x="403" y="-349.5" font-family="Helvetica,sans-Serif" font-size="10.00" fill="#000000">build_backtrace</text>
</a>
</g>
</g>
<!-- Node254114&#45;&gt;Node254276 -->
<g id="edge10" class="edge">
<title>Node254114&#45;&gt;Node254276</title>
<path fill="none" stroke="#191970" d="M257.9446,-513.1734C264.9608,-486.9787 287.6309,-414.8352 333,-376 338.246,-371.5095 344.3749,-367.8467 350.7847,-364.8619"/>
<polygon fill="#191970" stroke="#191970" points="352.3828,-367.9895 360.3068,-360.9566 349.7265,-361.5131 352.3828,-367.9895"/>
</g>
<!-- Node254348 -->
<g id="node12" class="node">
<title>Node254348</title>
<g id="a_node12"><a xlink:href="quickjs_8c.html#a344894112559c2ba75043fd10bcfa02f" target="_top" xlink:title="close_lexical_var">
<polygon fill="none" stroke="#ff0000" points="357,-304.5 357,-323.5 449,-323.5 449,-304.5 357,-304.5"/>
<text text-anchor="middle" x="403" y="-311.5" font-family="Helvetica,sans-Serif" font-size="10.00" fill="#000000">close_lexical_var</text>
</a>
</g>
</g>
<!-- Node254114&#45;&gt;Node254348 -->
<g id="edge11" class="edge">
<title>Node254114&#45;&gt;Node254348</title>
<path fill="none" stroke="#191970" d="M256.4628,-513.4146C260.1077,-482.3452 275.9001,-383.5138 333,-333 337.1852,-329.2975 342.0228,-326.3077 347.1608,-323.8947"/>
<polygon fill="#191970" stroke="#191970" points="348.6418,-327.073 356.6577,-320.1451 346.0711,-320.5621 348.6418,-327.073"/>
</g>
<!-- Node254349 -->
<g id="node13" class="node">
<title>Node254349</title>
<g id="a_node13"><a xlink:href="quickjs_8c.html#a1782043fce951bd4f0d91c7796b31e24" target="_top" xlink:title="close_var_refs">
<polygon fill="none" stroke="#ff0000" points="363,-266.5 363,-285.5 443,-285.5 443,-266.5 363,-266.5"/>
<text text-anchor="middle" x="403" y="-273.5" font-family="Helvetica,sans-Serif" font-size="10.00" fill="#000000">close_var_refs</text>
</a>
</g>
</g>
<!-- Node254114&#45;&gt;Node254349 -->
<g id="edge12" class="edge">
<title>Node254114&#45;&gt;Node254349</title>
<path fill="none" stroke="#191970" d="M257.5044,-513.4206C265.8847,-474.2318 299.2508,-326.6995 333,-295 338.7438,-289.6051 345.8623,-285.7123 353.3401,-282.9098"/>
<polygon fill="#191970" stroke="#191970" points="354.4281,-286.2368 362.9279,-279.9119 352.339,-279.5558 354.4281,-286.2368"/>
</g>
<!-- Node254163 -->
<g id="node14" class="node">
<title>Node254163</title>
<g id="a_node14"><a xlink:href="quickjs_8c.html#a9e7b4bccf927d811b0f99b40b08c0472" target="_top" xlink:title="free_var_ref">
<polygon fill="none" stroke="#ff0000" points="534.5,-439.5 534.5,-458.5 602.5,-458.5 602.5,-439.5 534.5,-439.5"/>
<text text-anchor="middle" x="568.5" y="-446.5" font-family="Helvetica,sans-Serif" font-size="10.00" fill="#000000">free_var_ref</text>
</a>
</g>
</g>
<!-- Node254114&#45;&gt;Node254163 -->
<g id="edge14" class="edge">
<title>Node254114&#45;&gt;Node254163</title>
<path fill="none" stroke="#191970" d="M266.6621,-513.3265C280.9599,-501.5515 307.0108,-482.1134 333,-473 396.7709,-450.6381 475.781,-447.1014 524.1429,-447.4323"/>
<polygon fill="#191970" stroke="#191970" points="524.2315,-450.9336 534.2754,-447.5617 524.3209,-443.9342 524.2315,-450.9336"/>
</g>
<!-- Node254351 -->
<g id="node15" class="node">
<title>Node254351</title>
<g id="a_node15"><a xlink:href="cutils_8h.html#a7c82a3ee025fee89db5b11ff5b7691b8" target="_top" xlink:title="get_i16">
<polygon fill="none" stroke="#000000" points="379,-228.5 379,-247.5 427,-247.5 427,-228.5 379,-228.5"/>
<text text-anchor="middle" x="403" y="-235.5" font-family="Helvetica,sans-Serif" font-size="10.00" fill="#000000">get_i16</text>
</a>
</g>
</g>
<!-- Node254114&#45;&gt;Node254351 -->
<g id="edge15" class="edge">
<title>Node254114&#45;&gt;Node254351</title>
<path fill="none" stroke="#191970" d="M257.028,-513.3394C264.0531,-470.0914 294.5562,-294.7405 333,-257 342.5723,-247.6029 356.2985,-242.7364 369.0643,-240.2572"/>
<polygon fill="#191970" stroke="#191970" points="369.6418,-243.7097 378.9987,-238.7398 368.5848,-236.7899 369.6418,-243.7097"/>
</g>
<!-- Node254352 -->
<g id="node16" class="node">
<title>Node254352</title>
<g id="a_node16"><a xlink:href="cutils_8h.html#a288ee4e688944e23500af2ecc813c306" target="_top" xlink:title="get_i8">
<polygon fill="none" stroke="#000000" points="381.5,-190.5 381.5,-209.5 424.5,-209.5 424.5,-190.5 381.5,-190.5"/>
<text text-anchor="middle" x="403" y="-197.5" font-family="Helvetica,sans-Serif" font-size="10.00" fill="#000000">get_i8</text>
</a>
</g>
</g>
<!-- Node254114&#45;&gt;Node254352 -->
<g id="edge16" class="edge">
<title>Node254114&#45;&gt;Node254352</title>
<path fill="none" stroke="#191970" d="M256.6644,-513.2608C262.4788,-466.2031 289.8171,-262.8542 333,-219 342.8997,-208.9464 357.5432,-204.0537 370.8814,-201.73"/>
<polygon fill="#191970" stroke="#191970" points="371.7282,-205.1486 381.1831,-200.3678 370.8105,-198.209 371.7282,-205.1486"/>
</g>
<!-- Node254353 -->
<g id="node17" class="node">
<title>Node254353</title>
<g id="a_node17"><a xlink:href="cutils_8h.html#ad587834d17e95461893d59661e5e9676" target="_top" xlink:title="get_u16">
<polygon fill="none" stroke="#000000" points="377.5,-152.5 377.5,-171.5 428.5,-171.5 428.5,-152.5 377.5,-152.5"/>
<text text-anchor="middle" x="403" y="-159.5" font-family="Helvetica,sans-Serif" font-size="10.00" fill="#000000">get_u16</text>
</a>
</g>
</g>
<!-- Node254114&#45;&gt;Node254353 -->
<g id="edge17" class="edge">
<title>Node254114&#45;&gt;Node254353</title>
<path fill="none" stroke="#191970" d="M256.3548,-513.4191C261.0195,-463.2382 284.9705,-231.1003 333,-181 341.9186,-171.6968 354.894,-166.7955 367.257,-164.2632"/>
<polygon fill="#191970" stroke="#191970" points="368.0704,-167.6779 377.3955,-162.6488 366.9695,-160.765 368.0704,-167.6779"/>
</g>
<!-- Node254159 -->
<g id="node18" class="node">
<title>Node254159</title>
<g id="a_node18"><a xlink:href="cutils_8h.html#a941262a5f72fda2ec43ae7911e97a0dc" target="_top" xlink:title="get_u32">
<polygon fill="none" stroke="#000000" points="377.5,-114.5 377.5,-133.5 428.5,-133.5 428.5,-114.5 377.5,-114.5"/>
<text text-anchor="middle" x="403" y="-121.5" font-family="Helvetica,sans-Serif" font-size="10.00" fill="#000000">get_u32</text>
</a>
</g>
</g>
<!-- Node254114&#45;&gt;Node254159 -->
<g id="edge18" class="edge">
<title>Node254114&#45;&gt;Node254159</title>
<path fill="none" stroke="#191970" d="M256.8635,-513.2823C264.8822,-456.7045 306.4547,-171.2969 333,-143 341.8174,-133.6008 354.7724,-128.6802 367.1476,-126.1595"/>
<polygon fill="#191970" stroke="#191970" points="367.9687,-129.5734 377.3028,-124.5609 366.8802,-122.6585 367.9687,-129.5734"/>
</g>
<!-- Node254354 -->
<g id="node19" class="node">
<title>Node254354</title>
<g id="a_node19"><a xlink:href="quickjs_8c.html#a37fe43b6649456a848bd54846450b995" target="_top" xlink:title="get_var_ref">
<polygon fill="none" stroke="#ff0000" points="536,-382.5 536,-401.5 601,-401.5 601,-382.5 536,-382.5"/>
<text text-anchor="middle" x="568.5" y="-389.5" font-family="Helvetica,sans-Serif" font-size="10.00" fill="#000000">get_var_ref</text>
</a>
</g>
</g>
<!-- Node254114&#45;&gt;Node254354 -->
<g id="edge19" class="edge">
<title>Node254114&#45;&gt;Node254354</title>
<path fill="none" stroke="#191970" d="M262.1583,-513.3552C274.23,-496.6512 301.4242,-462.455 333,-445 394.4634,-411.0231 476.3728,-398.8182 525.6219,-394.4405"/>
<polygon fill="#191970" stroke="#191970" points="525.9361,-397.9266 535.6163,-393.6202 525.3634,-390.95 525.9361,-397.9266"/>
</g>
<!-- Node254310 -->
<g id="node20" class="node">
<title>Node254310</title>
<g id="a_node20"><a xlink:href="list_8h.html#a663527a4d757540b2177bef0db1ce5c0" target="_top" xlink:title="init_list_head">
<polygon fill="none" stroke="#000000" points="366,-76.5 366,-95.5 440,-95.5 440,-76.5 366,-76.5"/>
<text text-anchor="middle" x="403" y="-83.5" font-family="Helvetica,sans-Serif" font-size="10.00" fill="#000000">init_list_head</text>
</a>
</g>
</g>
<!-- Node254114&#45;&gt;Node254310 -->
<g id="edge20" class="edge">
<title>Node254114&#45;&gt;Node254310</title>
<path fill="none" stroke="#191970" d="M256.9719,-513.4784C266.4069,-452.6762 318.4648,-120.7743 333,-105 339.1378,-98.3389 347.3528,-93.9211 355.9931,-91.0117"/>
<polygon fill="#191970" stroke="#191970" points="357.1126,-94.3343 365.8409,-88.3287 355.2726,-87.5805 357.1126,-94.3343"/>
</g>
<!-- Node254355 -->
<g id="node21" class="node">
<title>Node254355</title>
<g id="a_node21"><a xlink:href="quickjs_8c.html#a2bb0a2ca3b8320f3ff778c65034fce49" target="_top" xlink:title="is_backtrace_needed">
<polygon fill="none" stroke="#ff0000" points="348.5,-38.5 348.5,-57.5 457.5,-57.5 457.5,-38.5 348.5,-38.5"/>
<text text-anchor="middle" x="403" y="-45.5" font-family="Helvetica,sans-Serif" font-size="10.00" fill="#000000">is_backtrace_needed</text>
</a>
</g>
</g>
<!-- Node254114&#45;&gt;Node254355 -->
<g id="edge21" class="edge">
<title>Node254114&#45;&gt;Node254355</title>
<path fill="none" stroke="#191970" d="M257.0082,-513.2528C267.1398,-447.8916 325.1235,-75.6774 333,-67 334.9836,-64.8146 337.1908,-62.8702 339.5639,-61.1408"/>
<polygon fill="#191970" stroke="#191970" points="341.3542,-64.1484 348.1882,-56.0523 337.797,-58.1196 341.3542,-64.1484"/>
</g>
<!-- Node254294 -->
<g id="node22" class="node">
<title>Node254294</title>
<g id="a_node22"><a xlink:href="quickjs_8c.html#a686cf78f8b0361621ee2ba6182195c31" target="_top" xlink:title="is_strict_mode">
<polygon fill="none" stroke="#000000" points="363,-874.5 363,-893.5 443,-893.5 443,-874.5 363,-874.5"/>
<text text-anchor="middle" x="403" y="-881.5" font-family="Helvetica,sans-Serif" font-size="10.00" fill="#000000">is_strict_mode</text>
</a>
</g>
</g>
<!-- Node254114&#45;&gt;Node254294 -->
<g id="edge22" class="edge">
<title>Node254114&#45;&gt;Node254294</title>
<path fill="none" stroke="#191970" d="M256.4683,-532.7138C261.6186,-582.5613 287.2941,-809.2621 333,-860 338.5629,-866.1754 345.7848,-870.7623 353.4718,-874.1692"/>
<polygon fill="#191970" stroke="#191970" points="352.407,-877.5083 362.9986,-877.7672 354.8801,-870.9598 352.407,-877.5083"/>
</g>
<!-- Node254357 -->
<g id="node23" class="node">
<title>Node254357</title>
<g id="a_node23"><a xlink:href="quickjs_8c.html#ae8ff05447c0d51fe277baccf616dc7c6" target="_top" xlink:title="js_add_slow">
<polygon fill="none" stroke="#ff0000" points="367.5,-722.5 367.5,-741.5 438.5,-741.5 438.5,-722.5 367.5,-722.5"/>
<text text-anchor="middle" x="403" y="-729.5" font-family="Helvetica,sans-Serif" font-size="10.00" fill="#000000">js_add_slow</text>
</a>
</g>
</g>
<!-- Node254114&#45;&gt;Node254357 -->
<g id="edge23" class="edge">
<title>Node254114&#45;&gt;Node254357</title>
<path fill="none" stroke="#191970" d="M256.741,-532.6157C261.1543,-562.9046 278.8403,-657.3228 333,-708 339.8891,-714.4462 348.5862,-719.169 357.487,-722.6267"/>
<polygon fill="#191970" stroke="#191970" points="356.555,-726.0064 367.1493,-725.9038 358.8034,-719.3773 356.555,-726.0064"/>
</g>
<!-- Node254364 -->
<g id="node24" class="node">
<title>Node254364</title>
<g id="a_node24"><a xlink:href="quickjs_8c.html#a6a21784a40b8684f2e779bd460dd13b2" target="_top" xlink:title="JS_AddBrand">
<polygon fill="none" stroke="#ff0000" points="364.5,-646.5 364.5,-665.5 441.5,-665.5 441.5,-646.5 364.5,-646.5"/>
<text text-anchor="middle" x="403" y="-653.5" font-family="Helvetica,sans-Serif" font-size="10.00" fill="#000000">JS_AddBrand</text>
</a>
</g>
</g>
<!-- Node254114&#45;&gt;Node254364 -->
<g id="edge26" class="edge">
<title>Node254114&#45;&gt;Node254364</title>
<path fill="none" stroke="#191970" d="M259.271,-532.658C268.3938,-554.723 293.8326,-609.0741 333,-637 339.4163,-641.5747 346.8784,-645.0482 354.4918,-647.6855"/>
<polygon fill="#191970" stroke="#191970" points="353.5641,-651.0614 364.1489,-650.5989 355.5859,-644.3597 353.5641,-651.0614"/>
</g>
<!-- Node254367 -->
<g id="node25" class="node">
<title>Node254367</title>
<g id="a_node25"><a xlink:href="quickjs_8c.html#a43208b0746998d2b6b9b8bd1ef8b5f99" target="_top" xlink:title="js_append_enumerate">
<polygon fill="none" stroke="#ff0000" points="347,-950.5 347,-969.5 459,-969.5 459,-950.5 347,-950.5"/>
<text text-anchor="middle" x="403" y="-957.5" font-family="Helvetica,sans-Serif" font-size="10.00" fill="#000000">js_append_enumerate</text>
</a>
</g>
</g>
<!-- Node254114&#45;&gt;Node254367 -->
<g id="edge30" class="edge">
<title>Node254114&#45;&gt;Node254367</title>
<path fill="none" stroke="#191970" d="M256.5722,-532.5884C262.5649,-585.0174 293.0799,-837.0474 333,-903 343.6507,-920.5962 361.7787,-935.1315 376.918,-945.1197"/>
<polygon fill="#191970" stroke="#191970" points="375.0799,-948.0983 385.4073,-950.4638 378.8092,-942.1744 375.0799,-948.0983"/>
</g>
<!-- Node254199 -->
<g id="node26" class="node">
<title>Node254199</title>
<g id="a_node26"><a xlink:href="quickjs_8c.html#a260bfa297ff6cb5bd18e229afaa54663" target="_top" xlink:title="JS_AtomToString">
<polygon fill="none" stroke="#ff0000" points="356,-798.5 356,-817.5 450,-817.5 450,-798.5 356,-798.5"/>
<text text-anchor="middle" x="403" y="-805.5" font-family="Helvetica,sans-Serif" font-size="10.00" fill="#000000">JS_AtomToString</text>
</a>
</g>
</g>
<!-- Node254114&#45;&gt;Node254199 -->
<g id="edge34" class="edge">
<title>Node254114&#45;&gt;Node254199</title>
<path fill="none" stroke="#191970" d="M257.028,-532.6606C264.0531,-575.9086 294.5562,-751.2595 333,-789 336.9314,-792.8595 341.5635,-795.9547 346.542,-798.4342"/>
<polygon fill="#191970" stroke="#191970" points="345.2223,-801.6759 355.8008,-802.2644 347.8982,-795.2075 345.2223,-801.6759"/>
</g>
<!-- Node254394 -->
<g id="node27" class="node">
<title>Node254394</title>
<g id="a_node27"><a xlink:href="quickjs_8c.html#afa67965c1017685fc6783776d6d0d4d7" target="_top" xlink:title="JS_AtomToValue">
<polygon fill="none" stroke="#ff0000" points="356.5,-608.5 356.5,-627.5 449.5,-627.5 449.5,-608.5 356.5,-608.5"/>
<text text-anchor="middle" x="403" y="-615.5" font-family="Helvetica,sans-Serif" font-size="10.00" fill="#000000">JS_AtomToValue</text>
</a>
</g>
</g>
<!-- Node254114&#45;&gt;Node254394 -->
<g id="edge35" class="edge">
<title>Node254114&#45;&gt;Node254394</title>
<path fill="none" stroke="#191970" d="M262.4929,-532.5099C274.8734,-548.6553 302.2606,-581.3861 333,-599 337.3943,-601.5179 342.1355,-603.7137 347.0063,-605.6263"/>
<polygon fill="#191970" stroke="#191970" points="345.8808,-608.9406 356.4756,-608.9657 348.2089,-602.3391 345.8808,-608.9406"/>
</g>
<!-- Node254395 -->
<g id="node28" class="node">
<title>Node254395</title>
<g id="a_node28"><a xlink:href="quickjs_8c.html#a04d312757919ff6b4d79cd0c2c3e5bb2" target="_top" xlink:title="js_build_arguments">
<polygon fill="none" stroke="#ff0000" points="352.5,-570.5 352.5,-589.5 453.5,-589.5 453.5,-570.5 352.5,-570.5"/>
<text text-anchor="middle" x="403" y="-577.5" font-family="Helvetica,sans-Serif" font-size="10.00" fill="#000000">js_build_arguments</text>
</a>
</g>
</g>
<!-- Node254114&#45;&gt;Node254395 -->
<g id="edge36" class="edge">
<title>Node254114&#45;&gt;Node254395</title>
<path fill="none" stroke="#191970" d="M276.7127,-532.5226C292.194,-539.3518 313.7492,-548.6124 333,-556 342.8953,-559.7974 353.6827,-563.6398 363.7594,-567.1038"/>
<polygon fill="#191970" stroke="#191970" points="362.9455,-570.5237 373.5399,-570.4259 365.197,-563.8956 362.9455,-570.5237"/>
</g>
<!-- Node254396 -->
<g id="node29" class="node">
<title>Node254396</title>
<g id="a_node29"><a xlink:href="quickjs_8c.html#a1c459034f2971c4abc3a8d6d4693ef5f" target="_top" xlink:title="js_build_mapped_arguments">
<polygon fill="none" stroke="#ff0000" points="333,-494.5 333,-513.5 473,-513.5 473,-494.5 333,-494.5"/>
<text text-anchor="middle" x="403" y="-501.5" font-family="Helvetica,sans-Serif" font-size="10.00" fill="#000000">js_build_mapped_arguments</text>
</a>
</g>
</g>
<!-- Node254114&#45;&gt;Node254396 -->
<g id="edge40" class="edge">
<title>Node254114&#45;&gt;Node254396</title>
<path fill="none" stroke="#191970" d="M297.373,-517.6062C305.4177,-516.5699 314.0889,-515.4529 322.8818,-514.3203"/>
<polygon fill="#191970" stroke="#191970" points="323.3632,-517.7873 332.8341,-513.0383 322.4688,-510.8447 323.3632,-517.7873"/>
</g>
<!-- Node254114&#45;&gt;Node254378 -->
<g id="edge51" class="edge">
<title>Node254114&#45;&gt;Node254378</title>
<path fill="none" stroke="#191970" d="M257.0032,-513.1823C267.6144,-443.9057 330.8771,-31.3689 333,-29 339.3568,-21.9065 348.0683,-17.3461 357.1881,-14.4412"/>
<polygon fill="#191970" stroke="#191970" points="358.3288,-17.7623 367.1522,-11.8972 356.5971,-10.9799 358.3288,-17.7623"/>
</g>
<!-- Node254165&#45;&gt;Node254166 -->
<g id="edge7" class="edge">
<title>Node254165&#45;&gt;Node254166</title>
<path fill="none" stroke="#191970" d="M440.1414,-770C464.7928,-770 497.2972,-770 523.4282,-770"/>
<polygon fill="#191970" stroke="#191970" points="523.4642,-773.5001 533.4642,-770 523.4641,-766.5001 523.4642,-773.5001"/>
</g>
<!-- Node254165&#45;&gt;Node254177 -->
<g id="edge9" class="edge">
<title>Node254165&#45;&gt;Node254177</title>
<path fill="none" stroke="#191970" d="M440.3314,-761.8851C451.0806,-759.0117 462.6843,-755.3806 473,-751 499.7281,-739.6499 528.011,-721.9639 546.7976,-709.3032"/>
<polygon fill="#191970" stroke="#191970" points="548.9368,-712.0803 555.2089,-703.5415 544.9809,-706.3053 548.9368,-712.0803"/>
</g>
<!-- Node254166&#45;&gt;Node254167 -->
<g id="edge8" class="edge">
<title>Node254166&#45;&gt;Node254167</title>
<path fill="none" stroke="#191970" d="M603.8383,-765.008C619.0496,-762.8592 637.0966,-760.3098 653.598,-757.9787"/>
<polygon fill="#191970" stroke="#191970" points="654.2215,-761.4255 663.6336,-756.5611 653.2423,-754.4943 654.2215,-761.4255"/>
</g>
<!-- Node254357&#45;&gt;Node254167 -->
<g id="edge24" class="edge">
<title>Node254357&#45;&gt;Node254167</title>
<path fill="none" stroke="#191970" d="M438.592,-734.2542C491.9984,-737.6366 593.0434,-744.0361 653.5736,-747.8697"/>
<polygon fill="#191970" stroke="#191970" points="653.4538,-751.369 663.655,-748.5082 653.8963,-744.383 653.4538,-751.369"/>
</g>
<!-- Node254357&#45;&gt;Node254177 -->
<g id="edge25" class="edge">
<title>Node254357&#45;&gt;Node254177</title>
<path fill="none" stroke="#191970" d="M438.5039,-723.848C461.3946,-718.5922 491.5392,-711.6708 517.0365,-705.8164"/>
<polygon fill="#191970" stroke="#191970" points="517.9537,-709.197 526.9168,-703.5478 516.3871,-702.3745 517.9537,-709.197"/>
</g>
<!-- Node254364&#45;&gt;Node254117 -->
<g id="edge27" class="edge">
<title>Node254364&#45;&gt;Node254117</title>
<path fill="none" stroke="#191970" d="M441.8074,-647.5437C452.1426,-644.7344 463.164,-641.2215 473,-637 499.9613,-625.4284 528.4001,-607.2843 547.1591,-594.3733"/>
<polygon fill="#191970" stroke="#191970" points="549.3553,-597.1084 555.5417,-588.5073 545.3418,-591.3732 549.3553,-597.1084"/>
</g>
<!-- Node254364&#45;&gt;Node254167 -->
<g id="edge28" class="edge">
<title>Node254364&#45;&gt;Node254167</title>
<path fill="none" stroke="#191970" d="M441.6846,-651.4198C488.2335,-647.6254 567.6521,-646.7269 628,-675 655.16,-687.7245 677.9473,-714.7228 691.0402,-732.8695"/>
<polygon fill="#191970" stroke="#191970" points="688.401,-735.2058 696.9751,-741.4297 694.1537,-731.2174 688.401,-735.2058"/>
</g>
<!-- Node254364&#45;&gt;Node254177 -->
<g id="edge29" class="edge">
<title>Node254364&#45;&gt;Node254177</title>
<path fill="none" stroke="#191970" d="M441.8024,-664.9093C464.3067,-670.0765 492.92,-676.6463 517.2584,-682.2346"/>
<polygon fill="#191970" stroke="#191970" points="516.518,-685.6556 527.0477,-684.4822 518.0846,-678.8331 516.518,-685.6556"/>
</g>
<!-- Node254367&#45;&gt;Node254115 -->
<g id="edge31" class="edge">
<title>Node254367&#45;&gt;Node254115</title>
<path fill="none" stroke="#191970" d="M459.0308,-966.4325C479.3799,-968.7687 502.144,-971.3821 521.6206,-973.6181"/>
<polygon fill="#191970" stroke="#191970" points="521.4362,-977.1198 531.7702,-974.7833 522.2347,-970.1655 521.4362,-977.1198"/>
</g>
<!-- Node254367&#45;&gt;Node254167 -->
<g id="edge33" class="edge">
<title>Node254367&#45;&gt;Node254167</title>
<path fill="none" stroke="#191970" d="M438.553,-950.454C449.9165,-946.7166 462.3118,-941.8924 473,-936 561.4492,-887.2378 650.0355,-803.9021 686.1202,-768.1324"/>
<polygon fill="#191970" stroke="#191970" points="688.7879,-770.4145 693.3838,-760.8684 683.8379,-765.4649 688.7879,-770.4145"/>
</g>
<!-- Node254367&#45;&gt;Node254177 -->
<g id="edge32" class="edge">
<title>Node254367&#45;&gt;Node254177</title>
<path fill="none" stroke="#191970" d="M452.5963,-950.3738C460.305,-946.9453 467.5167,-942.2982 473,-936 528.0025,-872.8239 468.8762,-824.5294 509,-751 517.9935,-734.5188 533.4051,-719.9545 546.2898,-709.6736"/>
<polygon fill="#191970" stroke="#191970" points="548.4744,-712.4092 554.2991,-703.5591 544.2267,-706.8453 548.4744,-712.4092"/>
</g>
<!-- Node254395&#45;&gt;Node254117 -->
<g id="edge37" class="edge">
<title>Node254395&#45;&gt;Node254117</title>
<path fill="none" stroke="#191970" d="M453.5547,-579.6945C475.2848,-579.5632 500.524,-579.4107 521.8073,-579.2821"/>
<polygon fill="#191970" stroke="#191970" points="521.9263,-582.7816 531.9049,-579.2211 521.8839,-575.7817 521.9263,-582.7816"/>
</g>
<!-- Node254395&#45;&gt;Node254167 -->
<g id="edge38" class="edge">
<title>Node254395&#45;&gt;Node254167</title>
<path fill="none" stroke="#191970" d="M449.6024,-589.6072C506.7089,-602.032 599.4113,-624.5142 628,-645 659.7651,-667.7619 682.9002,-708.3007 694.5279,-732.1048"/>
<polygon fill="#191970" stroke="#191970" points="691.5039,-733.8993 698.9247,-741.4613 697.8393,-730.9222 691.5039,-733.8993"/>
</g>
<!-- Node254395&#45;&gt;Node254177 -->
<g id="edge39" class="edge">
<title>Node254395&#45;&gt;Node254177</title>
<path fill="none" stroke="#191970" d="M451.3935,-589.5889C458.893,-592.067 466.3489,-595.1572 473,-599 482.3131,-604.3808 527.5596,-651.0885 552.2845,-676.947"/>
<polygon fill="#191970" stroke="#191970" points="549.8011,-679.4144 559.2364,-684.2338 554.8659,-674.5824 549.8011,-679.4144"/>
</g>
<!-- Node254396&#45;&gt;Node254116 -->
<g id="edge41" class="edge">
<title>Node254396&#45;&gt;Node254116</title>
<path fill="none" stroke="#191970" d="M473.1869,-500.6073C481.6424,-500.1986 490.2771,-499.7812 498.7266,-499.3727"/>
<polygon fill="#191970" stroke="#191970" points="499.0976,-502.859 508.917,-498.8801 498.7596,-495.8671 499.0976,-502.859"/>
</g>
<!-- Node254396&#45;&gt;Node254117 -->
<g id="edge42" class="edge">
<title>Node254396&#45;&gt;Node254117</title>
<path fill="none" stroke="#191970" d="M435.6426,-513.5538C447.6192,-517.4828 461.1408,-522.4253 473,-528 489.9697,-535.9771 492.5536,-540.9933 509,-550 518.4491,-555.1747 528.9571,-560.4486 538.4811,-565.055"/>
<polygon fill="#191970" stroke="#191970" points="537.0694,-568.2594 547.6015,-569.4105 540.086,-561.9427 537.0694,-568.2594"/>
</g>
<!-- Node254396&#45;&gt;Node254167 -->
<g id="edge45" class="edge">
<title>Node254396&#45;&gt;Node254167</title>
<path fill="none" stroke="#191970" d="M468.649,-513.5247C526.2629,-523.0774 604.4382,-539.3231 628,-560 680.1529,-605.7674 696.3615,-692.4558 701.1315,-731.3038"/>
<polygon fill="#191970" stroke="#191970" points="697.6612,-731.7667 702.2332,-741.3243 704.6193,-731.0016 697.6612,-731.7667"/>
</g>
<!-- Node254396&#45;&gt;Node254177 -->
<g id="edge46" class="edge">
<title>Node254396&#45;&gt;Node254177</title>
<path fill="none" stroke="#191970" d="M416.7988,-513.5416C431.6113,-524.1543 455.3851,-542.2829 473,-561 508.0487,-598.2418 541.0004,-648.8243 557.493,-675.6043"/>
<polygon fill="#191970" stroke="#191970" points="554.6105,-677.6005 562.7979,-684.3249 560.5909,-673.9625 554.6105,-677.6005"/>
</g>
<!-- Node254396&#45;&gt;Node254163 -->
<g id="edge43" class="edge">
<title>Node254396&#45;&gt;Node254163</title>
<path fill="none" stroke="#191970" d="M431.8279,-494.4197C459.036,-485.3778 500.0196,-471.7578 530.0113,-461.7908"/>
<polygon fill="#191970" stroke="#191970" points="531.3394,-465.0377 539.7253,-458.5626 529.1318,-458.3949 531.3394,-465.0377"/>
</g>
<!-- Node254396&#45;&gt;Node254354 -->
<g id="edge44" class="edge">
<title>Node254396&#45;&gt;Node254354</title>
<path fill="none" stroke="#191970" d="M416.2652,-494.4772C436.2185,-480.2133 475.2202,-452.5641 509,-430 520.6254,-422.2345 533.7032,-413.8452 544.6313,-406.9295"/>
<polygon fill="#191970" stroke="#191970" points="546.6321,-409.8057 553.2262,-401.513 542.9,-403.8836 546.6321,-409.8057"/>
</g>
</g>
</svg>
