<?xml version="1.0" encoding="UTF-8" standalone="no"?>
<!DOCTYPE svg PUBLIC "-//W3C//DTD SVG 1.1//EN"
 "http://www.w3.org/Graphics/SVG/1.1/DTD/svg11.dtd">
<!-- Generated by graphviz version 2.40.1 (20161225.0304)
 -->
<!-- Title: js_parse_get_pos Pages: 1 -->
<svg width="861pt" height="377pt"
 viewBox="0.00 0.00 861.00 376.57" xmlns="http://www.w3.org/2000/svg" xmlns:xlink="http://www.w3.org/1999/xlink">
<g id="graph0" class="graph" transform="scale(1 1) rotate(0) translate(4 372.5746)">
<title>js_parse_get_pos</title>
<!-- Node293874 -->
<g id="node1" class="node">
<title>Node293874</title>
<polygon fill="#bfbfbf" stroke="#000000" points="0,-91.0746 0,-110.0746 93,-110.0746 93,-91.0746 0,-91.0746"/>
<text text-anchor="middle" x="46.5" y="-98.0746" font-family="Helvetica,sans-Serif" font-size="10.00" fill="#000000">js_parse_get_pos</text>
</g>
<!-- Node293875 -->
<g id="node2" class="node">
<title>Node293875</title>
<g id="a_node2"><a xlink:href="quickjs_8c.html#a08f5927b79691c477c726fc5d309cfef" target="_top" xlink:title="is_let">
<polygon fill="none" stroke="#000000" points="460,-349.0746 460,-368.0746 500,-368.0746 500,-349.0746 460,-349.0746"/>
<text text-anchor="middle" x="480" y="-356.0746" font-family="Helvetica,sans-Serif" font-size="10.00" fill="#000000">is_let</text>
</a>
</g>
</g>
<!-- Node293874&#45;&gt;Node293875 -->
<g id="edge1" class="edge">
<title>Node293874&#45;&gt;Node293875</title>
<path fill="none" stroke="#191970" d="M54.4358,-119.4654C67.0427,-147.8355 93.8581,-202.0089 129,-238.5746 183.0703,-294.8355 202.6412,-307.9779 276,-334.5746 340.2014,-357.8511 422.5046,-359.7336 459.9022,-359.2045"/>
<polygon fill="#191970" stroke="#191970" points="57.6342,-118.0434 50.4449,-110.2611 51.2119,-120.8281 57.6342,-118.0434"/>
</g>
<!-- Node293901 -->
<g id="node5" class="node">
<title>Node293901</title>
<g id="a_node5"><a xlink:href="quickjs_8c.html#adf95ddf430ef93fd9efea1cc2f8a2fbe" target="_top" xlink:title="js_parse_class_default_ctor">
<polygon fill="none" stroke="#ff0000" points="577,-21.0746 577,-40.0746 715,-40.0746 715,-21.0746 577,-21.0746"/>
<text text-anchor="middle" x="646" y="-28.0746" font-family="Helvetica,sans-Serif" font-size="10.00" fill="#000000">js_parse_class_default_ctor</text>
</a>
</g>
</g>
<!-- Node293874&#45;&gt;Node293901 -->
<g id="edge6" class="edge">
<title>Node293874&#45;&gt;Node293901</title>
<path fill="none" stroke="#191970" d="M65.7607,-84.3306C81.7657,-71.5834 105.6216,-54.262 129,-43.5746 190.3721,-15.5184 209.0581,-14.087 276,-5.5746 389.8452,8.9022 524.5349,-8.9015 595.8472,-21.0512"/>
<polygon fill="#191970" stroke="#191970" points="63.2737,-81.8421 57.7296,-90.8706 67.6939,-87.27 63.2737,-81.8421"/>
</g>
<!-- Node293907 -->
<g id="node6" class="node">
<title>Node293907</title>
<g id="a_node6"><a xlink:href="quickjs_8c.html#a64f81788f15df1683a1f8c3919cfd6fd" target="_top" xlink:title="js_parse_directives">
<polygon fill="none" stroke="#000000" points="134,-53.0746 134,-72.0746 235,-72.0746 235,-53.0746 134,-53.0746"/>
<text text-anchor="middle" x="184.5" y="-60.0746" font-family="Helvetica,sans-Serif" font-size="10.00" fill="#000000">js_parse_directives</text>
</a>
</g>
</g>
<!-- Node293874&#45;&gt;Node293907 -->
<g id="edge7" class="edge">
<title>Node293874&#45;&gt;Node293907</title>
<path fill="none" stroke="#191970" d="M90.973,-88.3284C109.9946,-83.0905 131.8751,-77.0655 149.6879,-72.1605"/>
<polygon fill="#191970" stroke="#191970" points="90.0352,-84.9563 81.3232,-90.9855 91.8936,-91.7051 90.0352,-84.9563"/>
</g>
<!-- Node293881 -->
<g id="node7" class="node">
<title>Node293881</title>
<g id="a_node7"><a xlink:href="quickjs_8c.html#acc9eb677cab8dfcf45f59381f8a19601" target="_top" xlink:title="js_parse_function_decl2">
<polygon fill="none" stroke="#ff0000" points="419,-59.0746 419,-78.0746 541,-78.0746 541,-59.0746 419,-59.0746"/>
<text text-anchor="middle" x="480" y="-66.0746" font-family="Helvetica,sans-Serif" font-size="10.00" fill="#000000">js_parse_function_decl2</text>
</a>
</g>
</g>
<!-- Node293874&#45;&gt;Node293881 -->
<g id="edge11" class="edge">
<title>Node293874&#45;&gt;Node293881</title>
<path fill="none" stroke="#191970" d="M103.4266,-97.9017C170.3955,-94.5536 284.8953,-88.1928 383,-79.5746 394.6494,-78.5512 407.0658,-77.2803 418.9895,-75.9698"/>
<polygon fill="#191970" stroke="#191970" points="102.911,-94.4228 93.0963,-98.4131 103.2572,-101.4143 102.911,-94.4228"/>
</g>
<!-- Node293908 -->
<g id="node9" class="node">
<title>Node293908</title>
<g id="a_node9"><a xlink:href="quickjs_8c.html#ac00298085baf11a4a7bd600cf5de2e6d" target="_top" xlink:title="js_parse_skip_parens\l_token">
<polygon fill="none" stroke="#000000" points="129,-198.5746 129,-228.5746 240,-228.5746 240,-198.5746 129,-198.5746"/>
<text text-anchor="start" x="137" y="-216.5746" font-family="Helvetica,sans-Serif" font-size="10.00" fill="#000000">js_parse_skip_parens</text>
<text text-anchor="middle" x="184.5" y="-205.5746" font-family="Helvetica,sans-Serif" font-size="10.00" fill="#000000">_token</text>
</a>
</g>
</g>
<!-- Node293874&#45;&gt;Node293908 -->
<g id="edge12" class="edge">
<title>Node293874&#45;&gt;Node293908</title>
<path fill="none" stroke="#191970" d="M66.1196,-116.6399C92.693,-138.3992 139.7914,-176.9653 165.8528,-198.3055"/>
<polygon fill="#191970" stroke="#191970" points="68.2203,-113.8364 58.2658,-110.2089 63.7855,-119.2523 68.2203,-113.8364"/>
</g>
<!-- Node293876 -->
<g id="node3" class="node">
<title>Node293876</title>
<g id="a_node3"><a xlink:href="quickjs_8c.html#ac188b916dd086803591a67de7e7a85f6" target="_top" xlink:title="js_parse_for_in_of">
<polygon fill="none" stroke="#000000" points="598,-245.0746 598,-264.0746 694,-264.0746 694,-245.0746 598,-245.0746"/>
<text text-anchor="middle" x="646" y="-252.0746" font-family="Helvetica,sans-Serif" font-size="10.00" fill="#000000">js_parse_for_in_of</text>
</a>
</g>
</g>
<!-- Node293875&#45;&gt;Node293876 -->
<g id="edge2" class="edge">
<title>Node293875&#45;&gt;Node293876</title>
<path fill="none" stroke="#191970" d="M503.8757,-343.6163C538.5123,-321.9162 601.7172,-282.318 630.7177,-264.149"/>
<polygon fill="#191970" stroke="#191970" points="501.9354,-340.7017 495.3193,-348.9769 505.6518,-346.6337 501.9354,-340.7017"/>
</g>
<!-- Node293877 -->
<g id="node4" class="node">
<title>Node293877</title>
<g id="a_node4"><a xlink:href="quickjs_8c.html#a9d844c16dcc71701436848074337d32c" target="_top" xlink:title="js_parse_statement\l_or_decl">
<polygon fill="none" stroke="#ff0000" points="751,-239.5746 751,-269.5746 853,-269.5746 853,-239.5746 751,-239.5746"/>
<text text-anchor="start" x="759" y="-257.5746" font-family="Helvetica,sans-Serif" font-size="10.00" fill="#000000">js_parse_statement</text>
<text text-anchor="middle" x="802" y="-246.5746" font-family="Helvetica,sans-Serif" font-size="10.00" fill="#000000">_or_decl</text>
</a>
</g>
</g>
<!-- Node293875&#45;&gt;Node293877 -->
<g id="edge5" class="edge">
<title>Node293875&#45;&gt;Node293877</title>
<path fill="none" stroke="#191970" d="M510.2632,-361.3772C556.5725,-364.4015 646.8158,-365.24 715,-334.5746 747.3747,-320.0143 775.7241,-288.5987 790.7038,-269.7582"/>
<polygon fill="#191970" stroke="#191970" points="510.5016,-357.8854 500.2724,-360.6445 509.9896,-364.8666 510.5016,-357.8854"/>
</g>
<!-- Node293876&#45;&gt;Node293877 -->
<g id="edge3" class="edge">
<title>Node293876&#45;&gt;Node293877</title>
<path fill="none" stroke="#191970" d="M704.4328,-254.5746C719.6809,-254.5746 735.9955,-254.5746 750.8345,-254.5746"/>
<polygon fill="#191970" stroke="#191970" points="704.0781,-251.0747 694.0781,-254.5746 704.078,-258.0747 704.0781,-251.0747"/>
</g>
<!-- Node293877&#45;&gt;Node293877 -->
<g id="edge4" class="edge">
<title>Node293877&#45;&gt;Node293877</title>
<path fill="none" stroke="#191970" d="M774.2807,-280.0324C777.721,-284.7535 786.9608,-288.0746 802,-288.0746 826.6797,-288.0746 835.7418,-279.1311 829.1862,-269.7336"/>
<polygon fill="#191970" stroke="#191970" points="777.7921,-279.9011 774.8138,-269.7336 770.8014,-279.5392 777.7921,-279.9011"/>
</g>
<!-- Node293907&#45;&gt;Node293881 -->
<g id="edge8" class="edge">
<title>Node293907&#45;&gt;Node293881</title>
<path fill="none" stroke="#191970" d="M245.4705,-63.8125C296.2115,-64.8428 368.1038,-66.3025 418.885,-67.3336"/>
<polygon fill="#191970" stroke="#191970" points="245.3673,-60.3098 235.2983,-63.606 245.2251,-67.3084 245.3673,-60.3098"/>
</g>
<!-- Node293903 -->
<g id="node8" class="node">
<title>Node293903</title>
<g id="a_node8"><a xlink:href="quickjs_8c.html#aec05caae64451720670d1a56040110b3" target="_top" xlink:title="js_parse_program">
<polygon fill="none" stroke="#ff0000" points="282.5,-15.0746 282.5,-34.0746 376.5,-34.0746 376.5,-15.0746 282.5,-15.0746"/>
<text text-anchor="middle" x="329.5" y="-22.0746" font-family="Helvetica,sans-Serif" font-size="10.00" fill="#000000">js_parse_program</text>
</a>
</g>
</g>
<!-- Node293907&#45;&gt;Node293903 -->
<g id="edge10" class="edge">
<title>Node293907&#45;&gt;Node293903</title>
<path fill="none" stroke="#191970" d="M230.9928,-50.3902C251.1237,-45.1146 274.3383,-39.0307 293.1735,-34.0946"/>
<polygon fill="#191970" stroke="#191970" points="229.8757,-47.0647 221.0896,-52.9855 231.6503,-53.8361 229.8757,-47.0647"/>
</g>
<!-- Node293881&#45;&gt;Node293901 -->
<g id="edge9" class="edge">
<title>Node293881&#45;&gt;Node293901</title>
<path fill="none" stroke="#191970" d="M531.6534,-56.7503C555.0564,-51.393 582.3571,-45.1434 604.4124,-40.0946"/>
<polygon fill="#191970" stroke="#191970" points="530.8556,-53.3423 521.8888,-58.9855 532.4177,-60.1658 530.8556,-53.3423"/>
</g>
<!-- Node293908&#45;&gt;Node293876 -->
<g id="edge26" class="edge">
<title>Node293908&#45;&gt;Node293876</title>
<path fill="none" stroke="#191970" d="M241.1248,-231.5044C252.5985,-234.7917 264.632,-237.9941 276,-240.5746 391.2878,-266.7435 422.8875,-268.6273 541,-263.5746 559.6449,-262.777 580.1011,-261.1862 597.9654,-259.5609"/>
<polygon fill="#191970" stroke="#191970" points="241.7972,-228.0545 231.2168,-228.6072 239.8325,-234.7731 241.7972,-228.0545"/>
</g>
<!-- Node293908&#45;&gt;Node293877 -->
<g id="edge27" class="edge">
<title>Node293908&#45;&gt;Node293877</title>
<path fill="none" stroke="#191970" d="M237.5711,-233.1981C238.3917,-233.65 239.202,-234.1089 240,-234.5746 257.9885,-245.0717 256.7858,-256.5376 276,-264.5746 438.2039,-332.4211 653.8864,-292.5785 750.9051,-268.6384"/>
<polygon fill="#191970" stroke="#191970" points="238.973,-229.9857 228.4657,-228.6264 235.8321,-236.2414 238.973,-229.9857"/>
</g>
<!-- Node293884 -->
<g id="node10" class="node">
<title>Node293884</title>
<g id="a_node10"><a xlink:href="quickjs_8c.html#aff9f2e2a1548acfc8307a4070bb444ec" target="_top" xlink:title="js_parse_destructing\l_element">
<polygon fill="none" stroke="#000000" points="276,-167.5746 276,-197.5746 383,-197.5746 383,-167.5746 276,-167.5746"/>
<text text-anchor="start" x="284" y="-185.5746" font-family="Helvetica,sans-Serif" font-size="10.00" fill="#000000">js_parse_destructing</text>
<text text-anchor="middle" x="329.5" y="-174.5746" font-family="Helvetica,sans-Serif" font-size="10.00" fill="#000000">_element</text>
</a>
</g>
</g>
<!-- Node293908&#45;&gt;Node293884 -->
<g id="edge13" class="edge">
<title>Node293908&#45;&gt;Node293884</title>
<path fill="none" stroke="#191970" d="M250.1017,-199.5494C258.6575,-197.7202 267.3427,-195.8634 275.6748,-194.082"/>
<polygon fill="#191970" stroke="#191970" points="249.1933,-196.1644 240.1461,-201.6778 250.6569,-203.0097 249.1933,-196.1644"/>
</g>
<!-- Node293883 -->
<g id="node11" class="node">
<title>Node293883</title>
<g id="a_node11"><a xlink:href="quickjs_8c.html#acdcc62310b4f6f73fa7bc7267b18b1d4" target="_top" xlink:title="js_parse_postfix_expr">
<polygon fill="none" stroke="#ff0000" points="424,-217.0746 424,-236.0746 536,-236.0746 536,-217.0746 424,-217.0746"/>
<text text-anchor="middle" x="480" y="-224.0746" font-family="Helvetica,sans-Serif" font-size="10.00" fill="#000000">js_parse_postfix_expr</text>
</a>
</g>
</g>
<!-- Node293908&#45;&gt;Node293883 -->
<g id="edge24" class="edge">
<title>Node293908&#45;&gt;Node293883</title>
<path fill="none" stroke="#191970" d="M250.1405,-223.1913C258.8203,-224.1669 267.613,-225.0063 276,-225.5746 325.8239,-228.9504 382.6491,-228.9109 423.6486,-228.1942"/>
<polygon fill="#191970" stroke="#191970" points="250.3769,-219.6949 240.0341,-221.9917 249.5518,-226.6461 250.3769,-219.6949"/>
</g>
<!-- Node293885 -->
<g id="node12" class="node">
<title>Node293885</title>
<g id="a_node12"><a xlink:href="quickjs_8c.html#a42924858317b848c3aea0a0a978fab3a" target="_top" xlink:title="js_parse_var">
<polygon fill="none" stroke="#ff0000" points="444,-103.0746 444,-122.0746 516,-122.0746 516,-103.0746 444,-103.0746"/>
<text text-anchor="middle" x="480" y="-110.0746" font-family="Helvetica,sans-Serif" font-size="10.00" fill="#000000">js_parse_var</text>
</a>
</g>
</g>
<!-- Node293908&#45;&gt;Node293885 -->
<g id="edge25" class="edge">
<title>Node293908&#45;&gt;Node293885</title>
<path fill="none" stroke="#191970" d="M213.8444,-192.6273C231.2016,-181.1003 254.0273,-167.389 276,-158.5746 332.4404,-135.9332 402.3565,-123.2274 443.9518,-117.1484"/>
<polygon fill="#191970" stroke="#191970" points="211.614,-189.9108 205.2997,-198.4185 215.5413,-195.7053 211.614,-189.9108"/>
</g>
<!-- Node293884&#45;&gt;Node293876 -->
<g id="edge21" class="edge">
<title>Node293884&#45;&gt;Node293876</title>
<path fill="none" stroke="#191970" d="M393.5812,-185.099C436.0298,-187.996 492.5971,-194.217 541,-207.5746 573.3441,-216.5004 608.4563,-233.9523 628.774,-244.8958"/>
<polygon fill="#191970" stroke="#191970" points="393.5843,-181.5921 383.3816,-184.448 393.1384,-188.5779 393.5843,-181.5921"/>
</g>
<!-- Node293884&#45;&gt;Node293877 -->
<g id="edge22" class="edge">
<title>Node293884&#45;&gt;Node293877</title>
<path fill="none" stroke="#191970" d="M393.3432,-178.1307C435.4645,-176.2889 491.7539,-175.9065 541,-182.5746 620.4189,-193.328 709.8229,-221.6951 760.6831,-239.4439"/>
<polygon fill="#191970" stroke="#191970" points="393.047,-174.6407 383.225,-178.6129 393.3803,-181.6328 393.047,-174.6407"/>
</g>
<!-- Node293884&#45;&gt;Node293881 -->
<g id="edge23" class="edge">
<title>Node293884&#45;&gt;Node293881</title>
<path fill="none" stroke="#191970" d="M347.9867,-159.6575C364.8103,-140.0039 391.1995,-112.019 419,-93.5746 428.4417,-87.3104 439.7035,-82.1524 449.9656,-78.1818"/>
<polygon fill="#191970" stroke="#191970" points="345.1362,-157.6094 341.386,-167.5184 350.497,-162.1108 345.1362,-157.6094"/>
</g>
<!-- Node293884&#45;&gt;Node293884 -->
<g id="edge14" class="edge">
<title>Node293884&#45;&gt;Node293884</title>
<path fill="none" stroke="#191970" d="M303.9129,-208.0324C307.0887,-212.7535 315.6177,-216.0746 329.5,-216.0746 352.2813,-216.0746 360.6462,-207.1311 354.595,-197.7336"/>
<polygon fill="#191970" stroke="#191970" points="307.4237,-207.8892 304.405,-197.7336 300.4317,-207.5551 307.4237,-207.8892"/>
</g>
<!-- Node293884&#45;&gt;Node293883 -->
<g id="edge15" class="edge">
<title>Node293884&#45;&gt;Node293883</title>
<path fill="none" stroke="#191970" d="M393.3417,-194.5587C418.5857,-201.6296 445.5834,-210.2472 462.6129,-216.9846"/>
<polygon fill="#191970" stroke="#191970" points="393.9786,-191.1041 383.4089,-191.8326 392.1259,-197.8545 393.9786,-191.1041"/>
</g>
<!-- Node293884&#45;&gt;Node293885 -->
<g id="edge19" class="edge">
<title>Node293884&#45;&gt;Node293885</title>
<path fill="none" stroke="#191970" d="M366.0296,-162.7525C382.0964,-154.3078 401.3028,-144.5797 419,-136.5746 430.3022,-131.4621 443.0385,-126.3523 453.9388,-122.1697"/>
<polygon fill="#191970" stroke="#191970" points="364.1656,-159.7792 356.9677,-167.5536 367.4427,-165.9647 364.1656,-159.7792"/>
</g>
<!-- Node293883&#45;&gt;Node293876 -->
<g id="edge18" class="edge">
<title>Node293883&#45;&gt;Node293876</title>
<path fill="none" stroke="#191970" d="M546.2253,-237.7451C563.4912,-240.6574 581.7678,-243.7402 597.8954,-246.4605"/>
<polygon fill="#191970" stroke="#191970" points="546.6429,-234.2662 536.2,-236.0541 545.4786,-241.1687 546.6429,-234.2662"/>
</g>
<!-- Node293883&#45;&gt;Node293884 -->
<g id="edge16" class="edge">
<title>Node293883&#45;&gt;Node293884</title>
<path fill="none" stroke="#191970" d="M415.1249,-214.3004C396.6767,-209.112 377.3803,-203.1255 361.786,-197.671"/>
<polygon fill="#191970" stroke="#191970" points="414.3925,-217.729 424.9631,-217.0128 416.253,-210.9808 414.3925,-217.729"/>
</g>
<!-- Node293883&#45;&gt;Node293883 -->
<g id="edge17" class="edge">
<title>Node293883&#45;&gt;Node293883</title>
<path fill="none" stroke="#191970" d="M452.0009,-245.2285C453.1712,-250.5114 462.5043,-254.5746 480,-254.5746 506.6602,-254.5746 514.3666,-245.1398 503.1194,-236.3316"/>
<polygon fill="#191970" stroke="#191970" points="455.1403,-246.7826 456.8806,-236.3316 449.0029,-243.4162 455.1403,-246.7826"/>
</g>
<!-- Node293885&#45;&gt;Node293877 -->
<g id="edge20" class="edge">
<title>Node293885&#45;&gt;Node293877</title>
<path fill="none" stroke="#191970" d="M526.3191,-106.7511C576.2663,-102.7609 656.4753,-103.1721 715,-136.5746 756.779,-160.4195 784.2888,-213.3729 795.8268,-239.4574"/>
<polygon fill="#191970" stroke="#191970" points="525.7884,-103.2844 516.1389,-107.659 526.4103,-110.2567 525.7884,-103.2844"/>
</g>
</g>
</svg>
