<?xml version="1.0" encoding="UTF-8" standalone="no"?>
<!DOCTYPE svg PUBLIC "-//W3C//DTD SVG 1.1//EN"
 "http://www.w3.org/Graphics/SVG/1.1/DTD/svg11.dtd">
<!-- Generated by graphviz version 2.40.1 (20161225.0304)
 -->
<!-- Title: JS_GetFunctionBytecode Pages: 1 -->
<!--zoomable 104 -->
<svg id="main" version="1.1" xmlns="http://www.w3.org/2000/svg" xmlns:xlink="http://www.w3.org/1999/xlink" xml:space="preserve" onload="init(evt)">
<style type="text/css"><![CDATA[
.edge:hover path { stroke: red; }
.edge:hover polygon { stroke: red; fill: red; }
]]></style>
<script type="text/javascript"><![CDATA[
var edges = document.getElementsByTagName('g');
if (edges && edges.length) {
  for (var i=0;i<edges.length;i++) {
    if (edges[i].id.substr(0,4)=='edge') {
      edges[i].setAttribute('class','edge');
    }
  }
}
]]></script>
        <defs>
                <circle id="rim" cx="0" cy="0" r="7"/>
                <circle id="rim2" cx="0" cy="0" r="3.5"/>
                <g id="zoomPlus">
                        <use xlink:href="#rim" fill="#404040">
                                <set attributeName="fill" to="#808080" begin="zoomplus.mouseover" end="zoomplus.mouseout"/>
                        </use>
                        <path d="M-4,0h8M0,-4v8" fill="none" stroke="white" stroke-width="1.5" pointer-events="none"/>
                </g>
                <g id="zoomMin">
                        <use xlink:href="#rim" fill="#404040">
                                <set attributeName="fill" to="#808080" begin="zoomminus.mouseover" end="zoomminus.mouseout"/>
                        </use>
                        <path d="M-4,0h8" fill="none" stroke="white" stroke-width="1.5" pointer-events="none"/>
                </g>
                <g id="dirArrow">
                        <path fill="none" stroke="white" stroke-width="1.5" d="M0,-3.0v7 M-2.5,-0.5L0,-3.0L2.5,-0.5"/>
                </g>
               <g id="resetDef">
                       <use xlink:href="#rim2" fill="#404040">
                               <set attributeName="fill" to="#808080" begin="reset.mouseover" end="reset.mouseout"/>
                       </use>
               </g>
        </defs>

<script type="text/javascript">
var viewWidth = 621;
var viewHeight = 104;
var sectionId = 'dynsection-385';
</script>
<script xlink:href="svgpan.js"/>
<svg id="graph" class="graph">
<g id="viewport">
<title>JS_GetFunctionBytecode</title>
<!-- Node122678 -->
<g id="node1" class="node">
<title>Node122678</title>
<polygon fill="#bfbfbf" stroke="#000000" points="0,-38.5 0,-57.5 128,-57.5 128,-38.5 0,-38.5"/>
<text text-anchor="middle" x="64" y="-45.5" font-family="Helvetica,sans-Serif" font-size="10.00" fill="#000000">JS_GetFunctionBytecode</text>
</g>
<!-- Node122679 -->
<g id="node2" class="node">
<title>Node122679</title>
<g id="a_node2"><a xlink:href="quickjs_8c.html#adaeef1b86e37da5560f25b630c2d090c" target="_top" xlink:title="js_function_proto_caller">
<polygon fill="none" stroke="#000000" points="177.5,-76.5 177.5,-95.5 296.5,-95.5 296.5,-76.5 177.5,-76.5"/>
<text text-anchor="middle" x="237" y="-83.5" font-family="Helvetica,sans-Serif" font-size="10.00" fill="#000000">js_function_proto_caller</text>
</a>
</g>
</g>
<!-- Node122678&#45;&gt;Node122679 -->
<g id="edge1" class="edge">
<title>Node122678&#45;&gt;Node122679</title>
<path fill="none" stroke="#191970" d="M117.5051,-59.7526C141.9673,-65.1258 170.5707,-71.4086 193.6587,-76.4799"/>
<polygon fill="#191970" stroke="#191970" points="118.1733,-56.316 107.6552,-57.589 116.6714,-63.153 118.1733,-56.316"/>
</g>
<!-- Node122682 -->
<g id="node5" class="node">
<title>Node122682</title>
<g id="a_node5"><a xlink:href="quickjs_8c.html#a9605bd425a349d4b00391cb6f5d5cfd8" target="_top" xlink:title="js_function_proto_fileName">
<polygon fill="none" stroke="#000000" points="169.5,-38.5 169.5,-57.5 304.5,-57.5 304.5,-38.5 169.5,-38.5"/>
<text text-anchor="middle" x="237" y="-45.5" font-family="Helvetica,sans-Serif" font-size="10.00" fill="#000000">js_function_proto_fileName</text>
</a>
</g>
</g>
<!-- Node122678&#45;&gt;Node122682 -->
<g id="edge4" class="edge">
<title>Node122678&#45;&gt;Node122682</title>
<path fill="none" stroke="#191970" d="M138.5531,-48C148.785,-48 159.2442,-48 169.3433,-48"/>
<polygon fill="#191970" stroke="#191970" points="138.4188,-44.5001 128.4188,-48 138.4188,-51.5001 138.4188,-44.5001"/>
</g>
<!-- Node122683 -->
<g id="node6" class="node">
<title>Node122683</title>
<g id="a_node6"><a xlink:href="quickjs_8c.html#acd4bb9514182c7152570ca80a1a0650d" target="_top" xlink:title="js_function_proto_lineNumber">
<polygon fill="none" stroke="#000000" points="164,-.5 164,-19.5 310,-19.5 310,-.5 164,-.5"/>
<text text-anchor="middle" x="237" y="-7.5" font-family="Helvetica,sans-Serif" font-size="10.00" fill="#000000">js_function_proto_lineNumber</text>
</a>
</g>
</g>
<!-- Node122678&#45;&gt;Node122683 -->
<g id="edge5" class="edge">
<title>Node122678&#45;&gt;Node122683</title>
<path fill="none" stroke="#191970" d="M117.5051,-36.2474C141.9673,-30.8742 170.5707,-24.5914 193.6587,-19.5201"/>
<polygon fill="#191970" stroke="#191970" points="116.6714,-32.847 107.6552,-38.411 118.1733,-39.684 116.6714,-32.847"/>
</g>
<!-- Node122680 -->
<g id="node3" class="node">
<title>Node122680</title>
<g id="a_node3"><a xlink:href="quickjs_8c.html#a4c9489297c684663f30e517204a9ec14" target="_top" xlink:title="JS_AddIntrinsicBaseObjects">
<polygon fill="none" stroke="#000000" points="346,-76.5 346,-95.5 488,-95.5 488,-76.5 346,-76.5"/>
<text text-anchor="middle" x="417" y="-83.5" font-family="Helvetica,sans-Serif" font-size="10.00" fill="#000000">JS_AddIntrinsicBaseObjects</text>
</a>
</g>
</g>
<!-- Node122679&#45;&gt;Node122680 -->
<g id="edge2" class="edge">
<title>Node122679&#45;&gt;Node122680</title>
<path fill="none" stroke="#191970" d="M307.0012,-86C319.726,-86 333.0126,-86 345.7724,-86"/>
<polygon fill="#191970" stroke="#191970" points="306.9374,-82.5001 296.9374,-86 306.9374,-89.5001 306.9374,-82.5001"/>
</g>
<!-- Node122681 -->
<g id="node4" class="node">
<title>Node122681</title>
<g id="a_node4"><a xlink:href="quickjs_8c.html#ad8aedb643b8753b7a15f6cb2df61945e" target="_top" xlink:title="JS_NewContext">
<polygon fill="none" stroke="#000000" points="524,-76.5 524,-95.5 613,-95.5 613,-76.5 524,-76.5"/>
<text text-anchor="middle" x="568.5" y="-83.5" font-family="Helvetica,sans-Serif" font-size="10.00" fill="#000000">JS_NewContext</text>
</a>
</g>
</g>
<!-- Node122680&#45;&gt;Node122681 -->
<g id="edge3" class="edge">
<title>Node122680&#45;&gt;Node122681</title>
<path fill="none" stroke="#191970" d="M498.5534,-86C507.2595,-86 515.8628,-86 523.8995,-86"/>
<polygon fill="#191970" stroke="#191970" points="498.3138,-82.5001 488.3138,-86 498.3137,-89.5001 498.3138,-82.5001"/>
</g>
</g>
</svg>
        <g id="navigator" transform="translate(0 0)" fill="#404254">
                <rect fill="#f2f5e9" fill-opacity="0.5" stroke="#606060" stroke-width=".5" x="0" y="0" width="60" height="60"/>
                <use id="zoomplus" xlink:href="#zoomPlus" x="17" y="9" onmousedown="handleZoom(evt,'in')"/>
                <use id="zoomminus" xlink:href="#zoomMin" x="42" y="9" onmousedown="handleZoom(evt,'out')"/>
                <use id="reset" xlink:href="#resetDef" x="30" y="36" onmousedown="handleReset()"/>
                <g id="arrowUp" xlink:href="#dirArrow" transform="translate(30 24)" onmousedown="handlePan(0,-1)">
                  <use xlink:href="#rim" fill="#404040">
                        <set attributeName="fill" to="#808080" begin="arrowUp.mouseover" end="arrowUp.mouseout"/>
                  </use>
                  <path fill="none" stroke="white" stroke-width="1.5" d="M0,-3.0v7 M-2.5,-0.5L0,-3.0L2.5,-0.5"/>
                </g>
                <g id="arrowRight" xlink:href="#dirArrow" transform="rotate(90) translate(36 -43)" onmousedown="handlePan(1,0)">
                  <use xlink:href="#rim" fill="#404040">
                        <set attributeName="fill" to="#808080" begin="arrowRight.mouseover" end="arrowRight.mouseout"/>
                  </use>
                  <path fill="none" stroke="white" stroke-width="1.5" d="M0,-3.0v7 M-2.5,-0.5L0,-3.0L2.5,-0.5"/>
                </g>
                <g id="arrowDown" xlink:href="#dirArrow" transform="rotate(180) translate(-30 -48)" onmousedown="handlePan(0,1)">
                  <use xlink:href="#rim" fill="#404040">
                        <set attributeName="fill" to="#808080" begin="arrowDown.mouseover" end="arrowDown.mouseout"/>
                  </use>
                  <path fill="none" stroke="white" stroke-width="1.5" d="M0,-3.0v7 M-2.5,-0.5L0,-3.0L2.5,-0.5"/>
                </g>
                <g id="arrowLeft" xlink:href="#dirArrow" transform="rotate(270) translate(-36 17)" onmousedown="handlePan(-1,0)">
                  <use xlink:href="#rim" fill="#404040">
                        <set attributeName="fill" to="#808080" begin="arrowLeft.mouseover" end="arrowLeft.mouseout"/>
                  </use>
                  <path fill="none" stroke="white" stroke-width="1.5" d="M0,-3.0v7 M-2.5,-0.5L0,-3.0L2.5,-0.5"/>
                </g>
        </g>
        <svg viewBox="0 0 15 15" width="100%" height="30px" preserveAspectRatio="xMaxYMin meet">
         <g id="arrow_out" transform="scale(0.3 0.3)">
          <a xlink:href="quickjs_8c_a7a7b507694cc1ecc4e3b5129fed3f5f6_icgraph_org.svg" target="_base">
           <rect id="button" ry="5" rx="5" y="6" x="6" height="38" width="38"
                fill="#f2f5e9" fill-opacity="0.5" stroke="#606060" stroke-width="1.0"/>
           <path id="arrow"
             d="M 11.500037,31.436501 C 11.940474,20.09759 22.043105,11.32322 32.158766,21.979434 L 37.068811,17.246167 C 37.068811,17.246167 37.088388,32 37.088388,32 L 22.160133,31.978069 C 22.160133,31.978069 26.997745,27.140456 26.997745,27.140456 C 18.528582,18.264221 13.291696,25.230495 11.500037,31.436501 z"
             style="fill:#404040;"/>
          </a>
         </g>
        </svg>
</svg>
