<?xml version="1.0" encoding="UTF-8" standalone="no"?>
<!DOCTYPE svg PUBLIC "-//W3C//DTD SVG 1.1//EN"
 "http://www.w3.org/Graphics/SVG/1.1/DTD/svg11.dtd">
<!-- Generated by graphviz version 2.40.1 (20161225.0304)
 -->
<!-- Title: JS_NewBigUint64 Pages: 1 -->
<!--zoomable 666 -->
<svg id="main" version="1.1" xmlns="http://www.w3.org/2000/svg" xmlns:xlink="http://www.w3.org/1999/xlink" xml:space="preserve" onload="init(evt)">
<style type="text/css"><![CDATA[
.edge:hover path { stroke: red; }
.edge:hover polygon { stroke: red; fill: red; }
]]></style>
<script type="text/javascript"><![CDATA[
var edges = document.getElementsByTagName('g');
if (edges && edges.length) {
  for (var i=0;i<edges.length;i++) {
    if (edges[i].id.substr(0,4)=='edge') {
      edges[i].setAttribute('class','edge');
    }
  }
}
]]></script>
        <defs>
                <circle id="rim" cx="0" cy="0" r="7"/>
                <circle id="rim2" cx="0" cy="0" r="3.5"/>
                <g id="zoomPlus">
                        <use xlink:href="#rim" fill="#404040">
                                <set attributeName="fill" to="#808080" begin="zoomplus.mouseover" end="zoomplus.mouseout"/>
                        </use>
                        <path d="M-4,0h8M0,-4v8" fill="none" stroke="white" stroke-width="1.5" pointer-events="none"/>
                </g>
                <g id="zoomMin">
                        <use xlink:href="#rim" fill="#404040">
                                <set attributeName="fill" to="#808080" begin="zoomminus.mouseover" end="zoomminus.mouseout"/>
                        </use>
                        <path d="M-4,0h8" fill="none" stroke="white" stroke-width="1.5" pointer-events="none"/>
                </g>
                <g id="dirArrow">
                        <path fill="none" stroke="white" stroke-width="1.5" d="M0,-3.0v7 M-2.5,-0.5L0,-3.0L2.5,-0.5"/>
                </g>
               <g id="resetDef">
                       <use xlink:href="#rim2" fill="#404040">
                               <set attributeName="fill" to="#808080" begin="reset.mouseover" end="reset.mouseout"/>
                       </use>
               </g>
        </defs>

<script type="text/javascript">
var viewWidth = 1116;
var viewHeight = 666;
var sectionId = 'dynsection-771';
</script>
<script xlink:href="svgpan.js"/>
<svg id="graph" class="graph">
<g id="viewport">
<title>JS_NewBigUint64</title>
<!-- Node267989 -->
<g id="node1" class="node">
<title>Node267989</title>
<polygon fill="#bfbfbf" stroke="#000000" points="0,-486.5 0,-505.5 97,-505.5 97,-486.5 0,-486.5"/>
<text text-anchor="middle" x="48.5" y="-493.5" font-family="Helvetica,sans-Serif" font-size="10.00" fill="#000000">JS_NewBigUint64</text>
</g>
<!-- Node267990 -->
<g id="node2" class="node">
<title>Node267990</title>
<g id="a_node2"><a xlink:href="quickjs_8c.html#adbeea736a6232c3a784b39a2dfb6a510" target="_top" xlink:title="js_atomics_op">
<polygon fill="none" stroke="#000000" points="149,-543.5 149,-562.5 229,-562.5 229,-543.5 149,-543.5"/>
<text text-anchor="middle" x="189" y="-550.5" font-family="Helvetica,sans-Serif" font-size="10.00" fill="#000000">js_atomics_op</text>
</a>
</g>
</g>
<!-- Node267989&#45;&gt;Node267990 -->
<g id="edge1" class="edge">
<title>Node267989&#45;&gt;Node267990</title>
<path fill="none" stroke="#191970" d="M77.8404,-510.0259C93.9619,-517.5211 114.4065,-526.6843 133,-534 141.4072,-537.3079 150.6517,-540.5867 159.1643,-543.4656"/>
<polygon fill="#191970" stroke="#191970" points="78.9563,-506.6835 68.4164,-505.606 75.9839,-513.0211 78.9563,-506.6835"/>
</g>
<!-- Node267991 -->
<g id="node3" class="node">
<title>Node267991</title>
<g id="a_node3"><a xlink:href="quickjs_8c.html#a351e921aea7f22e239884fdc941a8e52" target="_top" xlink:title="js_dataview_getValue">
<polygon fill="none" stroke="#000000" points="133,-505.5 133,-524.5 245,-524.5 245,-505.5 133,-505.5"/>
<text text-anchor="middle" x="189" y="-512.5" font-family="Helvetica,sans-Serif" font-size="10.00" fill="#000000">js_dataview_getValue</text>
</a>
</g>
</g>
<!-- Node267989&#45;&gt;Node267991 -->
<g id="edge2" class="edge">
<title>Node267989&#45;&gt;Node267991</title>
<path fill="none" stroke="#191970" d="M107.3199,-503.9543C115.6967,-505.0871 124.2963,-506.25 132.6249,-507.3763"/>
<polygon fill="#191970" stroke="#191970" points="107.6246,-500.4637 97.2458,-502.592 106.6865,-507.4006 107.6246,-500.4637"/>
</g>
<!-- Node267992 -->
<g id="node4" class="node">
<title>Node267992</title>
<g id="a_node4"><a xlink:href="quickjs_8c.html#a90d6e607f6917d817c1e997bd2e6ed07" target="_top" xlink:title="JS_GetPropertyValue">
<polygon fill="none" stroke="#000000" points="133.5,-467.5 133.5,-486.5 244.5,-486.5 244.5,-467.5 133.5,-467.5"/>
<text text-anchor="middle" x="189" y="-474.5" font-family="Helvetica,sans-Serif" font-size="10.00" fill="#000000">JS_GetPropertyValue</text>
</a>
</g>
</g>
<!-- Node267989&#45;&gt;Node267992 -->
<g id="edge3" class="edge">
<title>Node267989&#45;&gt;Node267992</title>
<path fill="none" stroke="#191970" d="M107.1819,-488.0644C115.7658,-486.9036 124.5867,-485.7107 133.1127,-484.5577"/>
<polygon fill="#191970" stroke="#191970" points="106.6865,-484.5994 97.2458,-489.408 107.6246,-491.5363 106.6865,-484.5994"/>
</g>
<!-- Node268618 -->
<g id="node29" class="node">
<title>Node268618</title>
<g id="a_node29"><a xlink:href="quickjs_8c.html#ad12defc0fa5c6f05267711f4ff7f3cab" target="_top" xlink:title="js_TA_get_uint64">
<polygon fill="none" stroke="#000000" points="143,-325.5 143,-344.5 235,-344.5 235,-325.5 143,-325.5"/>
<text text-anchor="middle" x="189" y="-332.5" font-family="Helvetica,sans-Serif" font-size="10.00" fill="#000000">js_TA_get_uint64</text>
</a>
</g>
</g>
<!-- Node267989&#45;&gt;Node268618 -->
<g id="edge43" class="edge">
<title>Node267989&#45;&gt;Node268618</title>
<path fill="none" stroke="#191970" d="M63.5559,-478.7473C93.0018,-445.0051 157.3559,-371.2612 180.4981,-344.7424"/>
<polygon fill="#191970" stroke="#191970" points="60.8062,-476.5751 56.8682,-486.4109 66.0804,-481.1777 60.8062,-476.5751"/>
</g>
<!-- Node267993 -->
<g id="node5" class="node">
<title>Node267993</title>
<g id="a_node5"><a xlink:href="quickjs_8c.html#a9dd41b086da4e13b3487cc9c6e2af2b8" target="_top" xlink:title="js_array_find">
<polygon fill="none" stroke="#000000" points="1004,-576.5 1004,-595.5 1076,-595.5 1076,-576.5 1004,-576.5"/>
<text text-anchor="middle" x="1040" y="-583.5" font-family="Helvetica,sans-Serif" font-size="10.00" fill="#000000">js_array_find</text>
</a>
</g>
</g>
<!-- Node267992&#45;&gt;Node267993 -->
<g id="edge4" class="edge">
<title>Node267992&#45;&gt;Node267993</title>
<path fill="none" stroke="#191970" d="M238.6662,-491.3218C240.9034,-492.7384 243.0317,-494.2934 245,-496 271.7312,-519.1775 252.6563,-545.8249 281,-567 365.7115,-630.2866 409.2586,-610 515,-610 515,-610 515,-610 696.5,-610 808.8879,-610 941.4579,-597.0566 1003.956,-590.1805"/>
<polygon fill="#191970" stroke="#191970" points="240.0793,-488.1095 229.6051,-486.5155 236.7992,-494.2934 240.0793,-488.1095"/>
</g>
<!-- Node267994 -->
<g id="node6" class="node">
<title>Node267994</title>
<g id="a_node6"><a xlink:href="quickjs_8c.html#ac2894ff4edcdb4e6841bcce9c76081e3" target="_top" xlink:title="JS_CallInternal">
<polygon fill="none" stroke="#000000" points="655,-392.5 655,-411.5 738,-411.5 738,-392.5 655,-392.5"/>
<text text-anchor="middle" x="696.5" y="-399.5" font-family="Helvetica,sans-Serif" font-size="10.00" fill="#000000">JS_CallInternal</text>
</a>
</g>
</g>
<!-- Node267992&#45;&gt;Node267994 -->
<g id="edge5" class="edge">
<title>Node267992&#45;&gt;Node267994</title>
<path fill="none" stroke="#191970" d="M255.0867,-468.6133C334.8443,-458.3026 472.9611,-439.8431 591,-421 612.1346,-417.6262 635.5708,-413.4494 654.9757,-409.8718"/>
<polygon fill="#191970" stroke="#191970" points="254.1742,-465.2019 244.7039,-469.9521 255.0694,-472.1444 254.1742,-465.2019"/>
</g>
<!-- Node268076 -->
<g id="node10" class="node">
<title>Node268076</title>
<g id="a_node10"><a xlink:href="quickjs_8c.html#a0b8ae7efe63abc1be33d9e828d43ce8d" target="_top" xlink:title="js_typed_array_find">
<polygon fill="none" stroke="#000000" points="989.5,-491.5 989.5,-510.5 1090.5,-510.5 1090.5,-491.5 989.5,-491.5"/>
<text text-anchor="middle" x="1040" y="-498.5" font-family="Helvetica,sans-Serif" font-size="10.00" fill="#000000">js_typed_array_find</text>
</a>
</g>
</g>
<!-- Node267992&#45;&gt;Node268076 -->
<g id="edge41" class="edge">
<title>Node267992&#45;&gt;Node268076</title>
<path fill="none" stroke="#191970" d="M235.0581,-490.5442C238.5204,-492.185 241.8771,-493.9994 245,-496 264.5894,-508.5495 260.437,-523.1189 281,-534 374.1277,-583.2795 409.6376,-572 515,-572 515,-572 515,-572 696.5,-572 816.4651,-572 955.2097,-529.9553 1012.7902,-510.5754"/>
<polygon fill="#191970" stroke="#191970" points="236.308,-487.2727 225.7347,-486.5975 233.5792,-493.7189 236.308,-487.2727"/>
</g>
<!-- Node268335 -->
<g id="node15" class="node">
<title>Node268335</title>
<g id="a_node15"><a xlink:href="quickjs_8c.html#a7bb763b31e1c40a04aa0c1d5db0f1191" target="_top" xlink:title="JS_GetPropertyInt64">
<polygon fill="none" stroke="#ff0000" points="288,-486.5 288,-505.5 396,-505.5 396,-486.5 288,-486.5"/>
<text text-anchor="middle" x="342" y="-493.5" font-family="Helvetica,sans-Serif" font-size="10.00" fill="#000000">JS_GetPropertyInt64</text>
</a>
</g>
</g>
<!-- Node267992&#45;&gt;Node268335 -->
<g id="edge20" class="edge">
<title>Node267992&#45;&gt;Node268335</title>
<path fill="none" stroke="#191970" d="M254.723,-485.1617C265.7942,-486.5365 277.1726,-487.9495 287.9057,-489.2824"/>
<polygon fill="#191970" stroke="#191970" points="255.0245,-481.6723 244.6693,-483.9132 254.1617,-488.619 255.0245,-481.6723"/>
</g>
<!-- Node268055 -->
<g id="node16" class="node">
<title>Node268055</title>
<g id="a_node16"><a xlink:href="quickjs_8c.html#a60d84dd116a9d7d912d08f298a4734dd" target="_top" xlink:title="js_json_to_str">
<polygon fill="none" stroke="#ff0000" points="476.5,-506.5 476.5,-525.5 553.5,-525.5 553.5,-506.5 476.5,-506.5"/>
<text text-anchor="middle" x="515" y="-513.5" font-family="Helvetica,sans-Serif" font-size="10.00" fill="#000000">js_json_to_str</text>
</a>
</g>
</g>
<!-- Node267992&#45;&gt;Node268055 -->
<g id="edge38" class="edge">
<title>Node267992&#45;&gt;Node268055</title>
<path fill="none" stroke="#191970" d="M229.9092,-490.0362C235.037,-491.9166 240.1728,-493.9228 245,-496 261.6184,-503.1511 263.4484,-510.6127 281,-515 348.0016,-531.7482 429.2058,-526.6937 476.2034,-521.4076"/>
<polygon fill="#191970" stroke="#191970" points="230.7358,-486.6164 220.141,-486.5892 228.4064,-493.2174 230.7358,-486.6164"/>
</g>
<!-- Node268336 -->
<g id="node17" class="node">
<title>Node268336</title>
<g id="a_node17"><a xlink:href="quickjs_8c.html#adb4d2990e6bf3f99633512ad2054b47a" target="_top" xlink:title="js_string___GetSubstitution">
<polygon fill="none" stroke="#ff0000" points="446.5,-468.5 446.5,-487.5 583.5,-487.5 583.5,-468.5 446.5,-468.5"/>
<text text-anchor="middle" x="515" y="-475.5" font-family="Helvetica,sans-Serif" font-size="10.00" fill="#000000">js_string___GetSubstitution</text>
</a>
</g>
</g>
<!-- Node267992&#45;&gt;Node268336 -->
<g id="edge39" class="edge">
<title>Node267992&#45;&gt;Node268336</title>
<path fill="none" stroke="#191970" d="M255.0435,-476.8479C297.342,-476.7881 353.4041,-476.7786 403,-477 417.0004,-477.0625 431.985,-477.1689 446.2926,-477.2897"/>
<polygon fill="#191970" stroke="#191970" points="254.8673,-473.3481 244.8727,-476.8636 254.8781,-480.3481 254.8673,-473.3481"/>
</g>
<!-- Node268616 -->
<g id="node18" class="node">
<title>Node268616</title>
<g id="a_node18"><a xlink:href="quickjs_8c.html#aeb97957655d979e9fe56c955da2b2d4b" target="_top" xlink:title="JS_GetPropertyUint32">
<polygon fill="none" stroke="#ff0000" points="284.5,-259.5 284.5,-278.5 399.5,-278.5 399.5,-259.5 284.5,-259.5"/>
<text text-anchor="middle" x="342" y="-266.5" font-family="Helvetica,sans-Serif" font-size="10.00" fill="#000000">JS_GetPropertyUint32</text>
</a>
</g>
</g>
<!-- Node267992&#45;&gt;Node268616 -->
<g id="edge24" class="edge">
<title>Node267992&#45;&gt;Node268616</title>
<path fill="none" stroke="#191970" d="M202.253,-458.9828C233.4173,-416.6157 310.5358,-311.7748 334.6632,-278.9742"/>
<polygon fill="#191970" stroke="#191970" points="199.2803,-457.1174 196.1743,-467.2467 204.9191,-461.2652 199.2803,-457.1174"/>
</g>
<!-- Node268334 -->
<g id="node27" class="node">
<title>Node268334</title>
<g id="a_node27"><a xlink:href="quickjs_8c.html#a14674e74168715dc5a3a391910982e5d" target="_top" xlink:title="JS_TryGetPropertyInt64">
<polygon fill="none" stroke="#ff0000" points="281,-221.5 281,-240.5 403,-240.5 403,-221.5 281,-221.5"/>
<text text-anchor="middle" x="342" y="-228.5" font-family="Helvetica,sans-Serif" font-size="10.00" fill="#000000">JS_TryGetPropertyInt64</text>
</a>
</g>
</g>
<!-- Node267992&#45;&gt;Node268334 -->
<g id="edge40" class="edge">
<title>Node267992&#45;&gt;Node268334</title>
<path fill="none" stroke="#191970" d="M198.2175,-458.2224C209.8035,-434.3026 229.9891,-391.5559 245,-354 263.1539,-308.5805 245.8763,-284.0414 281,-250 284.9825,-246.1402 289.7363,-243.0633 294.8083,-240.6108"/>
<polygon fill="#191970" stroke="#191970" points="195.0522,-456.7282 193.8188,-467.251 201.3451,-459.7942 195.0522,-456.7282"/>
</g>
<!-- Node268030 -->
<g id="node28" class="node">
<title>Node268030</title>
<g id="a_node28"><a xlink:href="quickjs_8c.html#a04f45f4b341a84aa1039cfd862adbcd2" target="_top" xlink:title="js_typed_array_slice">
<polygon fill="none" stroke="#000000" points="289,-638.5 289,-657.5 395,-657.5 395,-638.5 289,-638.5"/>
<text text-anchor="middle" x="342" y="-645.5" font-family="Helvetica,sans-Serif" font-size="10.00" fill="#000000">js_typed_array_slice</text>
</a>
</g>
</g>
<!-- Node267992&#45;&gt;Node268030 -->
<g id="edge42" class="edge">
<title>Node267992&#45;&gt;Node268030</title>
<path fill="none" stroke="#191970" d="M240.5474,-491.9669C242.1296,-493.2059 243.6223,-494.5474 245,-496 285.6668,-538.8784 241.3682,-580.1632 281,-624 286.7241,-630.3314 294.3299,-635.013 302.2235,-638.4679"/>
<polygon fill="#191970" stroke="#191970" points="242.335,-488.9565 232.0084,-486.5875 238.6038,-494.8791 242.335,-488.9565"/>
</g>
<!-- Node267994&#45;&gt;Node267994 -->
<g id="edge19" class="edge">
<title>Node267994&#45;&gt;Node267994</title>
<path fill="none" stroke="#191970" d="M664.3144,-420.2746C665.232,-425.741 675.9606,-430 696.5,-430 727.0703,-430 735.907,-420.5653 723.0102,-411.7571"/>
<polygon fill="#191970" stroke="#191970" points="667.3574,-422.0197 669.9898,-411.7571 661.5321,-418.1381 667.3574,-422.0197"/>
</g>
<!-- Node267995 -->
<g id="node7" class="node">
<title>Node267995</title>
<g id="a_node7"><a xlink:href="quickjs_8c.html#ade71a22dc56e7371392393df663b28b3" target="_top" xlink:title="async_func_resume">
<polygon fill="none" stroke="#ff0000" points="817,-430.5 817,-449.5 921,-449.5 921,-430.5 817,-430.5"/>
<text text-anchor="middle" x="869" y="-437.5" font-family="Helvetica,sans-Serif" font-size="10.00" fill="#000000">async_func_resume</text>
</a>
</g>
</g>
<!-- Node267994&#45;&gt;Node267995 -->
<g id="edge6" class="edge">
<title>Node267994&#45;&gt;Node267995</title>
<path fill="none" stroke="#191970" d="M748.2058,-413.3903C772.9667,-418.8448 802.2779,-425.3018 825.8257,-430.4891"/>
<polygon fill="#191970" stroke="#191970" points="748.7763,-409.9321 738.2574,-411.1987 747.2703,-416.7682 748.7763,-409.9321"/>
</g>
<!-- Node268007 -->
<g id="node8" class="node">
<title>Node268007</title>
<g id="a_node8"><a xlink:href="quickjs_8c.html#a1a4c02a29525d5cb2085dd8bca3af350" target="_top" xlink:title="JS_Call">
<polygon fill="none" stroke="#ff0000" points="843.5,-468.5 843.5,-487.5 894.5,-487.5 894.5,-468.5 843.5,-468.5"/>
<text text-anchor="middle" x="869" y="-475.5" font-family="Helvetica,sans-Serif" font-size="10.00" fill="#000000">JS_Call</text>
</a>
</g>
</g>
<!-- Node267994&#45;&gt;Node268007 -->
<g id="edge7" class="edge">
<title>Node267994&#45;&gt;Node268007</title>
<path fill="none" stroke="#191970" d="M732.9116,-416.2496C752.8099,-426.7295 778.1894,-440.3281 802,-450 820.1468,-457.3713 842.1568,-463.0218 855.8738,-468.4584"/>
<polygon fill="#191970" stroke="#191970" points="734.3811,-413.0683 723.8981,-411.5331 731.1356,-419.2706 734.3811,-413.0683"/>
</g>
<!-- Node268077 -->
<g id="node11" class="node">
<title>Node268077</title>
<g id="a_node11"><a xlink:href="quickjs_8c.html#ad35594576a14c10812efaf958c99af8a" target="_top" xlink:title="JS_CallConstructorInternal">
<polygon fill="none" stroke="#ff0000" points="802,-392.5 802,-411.5 936,-411.5 936,-392.5 802,-392.5"/>
<text text-anchor="middle" x="869" y="-399.5" font-family="Helvetica,sans-Serif" font-size="10.00" fill="#000000">JS_CallConstructorInternal</text>
</a>
</g>
</g>
<!-- Node267994&#45;&gt;Node268077 -->
<g id="edge12" class="edge">
<title>Node267994&#45;&gt;Node268077</title>
<path fill="none" stroke="#191970" d="M748.402,-395.7502C765.1704,-395.2358 784.0091,-395.1181 801.7242,-395.3973"/>
<polygon fill="#191970" stroke="#191970" points="748.1226,-392.258 738.2574,-396.1218 748.3789,-399.2533 748.1226,-392.258"/>
</g>
<!-- Node268091 -->
<g id="node12" class="node">
<title>Node268091</title>
<g id="a_node12"><a xlink:href="quickjs_8c.html#a75f6ee5e4235a7dc99889f3d2eb2c147" target="_top" xlink:title="JS_CallFree">
<polygon fill="none" stroke="#ff0000" points="833.5,-316.5 833.5,-335.5 904.5,-335.5 904.5,-316.5 833.5,-316.5"/>
<text text-anchor="middle" x="869" y="-323.5" font-family="Helvetica,sans-Serif" font-size="10.00" fill="#000000">JS_CallFree</text>
</a>
</g>
</g>
<!-- Node267994&#45;&gt;Node268091 -->
<g id="edge14" class="edge">
<title>Node267994&#45;&gt;Node268091</title>
<path fill="none" stroke="#191970" d="M713.4096,-386.5528C734.0163,-373.0272 770.0451,-354.5463 802,-341 812.0107,-336.7563 823.056,-332.5942 833.2417,-329.3246"/>
<polygon fill="#191970" stroke="#191970" points="711.2742,-383.7754 705.0968,-392.383 715.2937,-389.5064 711.2742,-383.7754"/>
</g>
<!-- Node268007&#45;&gt;Node267993 -->
<g id="edge9" class="edge">
<title>Node268007&#45;&gt;Node267993</title>
<path fill="none" stroke="#191970" d="M892.9642,-493.1353C928.6435,-515.6696 994.728,-557.4071 1024.6131,-576.282"/>
<polygon fill="#191970" stroke="#191970" points="894.499,-489.965 884.1751,-487.5843 890.761,-495.8835 894.499,-489.965"/>
</g>
<!-- Node268007&#45;&gt;Node267994 -->
<g id="edge8" class="edge">
<title>Node268007&#45;&gt;Node267994</title>
<path fill="none" stroke="#191970" d="M833.4776,-478.1055C823.1677,-475.5998 811.9976,-472.061 802,-468 763.6173,-452.4089 721.1579,-426.6141 704.1531,-411.6728"/>
<polygon fill="#191970" stroke="#191970" points="832.9127,-481.564 843.4255,-480.2479 834.3865,-474.7209 832.9127,-481.564"/>
</g>
<!-- Node268021 -->
<g id="node9" class="node">
<title>Node268021</title>
<g id="a_node9"><a xlink:href="quickjs_8c.html#a27dcb5e2923cd6c0201c70546d704748" target="_top" xlink:title="js_map_constructor">
<polygon fill="none" stroke="#ff0000" points="989,-415.5 989,-434.5 1091,-434.5 1091,-415.5 989,-415.5"/>
<text text-anchor="middle" x="1040" y="-422.5" font-family="Helvetica,sans-Serif" font-size="10.00" fill="#000000">js_map_constructor</text>
</a>
</g>
</g>
<!-- Node268007&#45;&gt;Node268021 -->
<g id="edge10" class="edge">
<title>Node268007&#45;&gt;Node268021</title>
<path fill="none" stroke="#191970" d="M904.3704,-468.2527C914.6001,-465.3571 925.7656,-462.1227 936,-459 961.8,-451.1279 990.9766,-441.5278 1011.8459,-434.5389"/>
<polygon fill="#191970" stroke="#191970" points="903.2029,-464.9451 894.5218,-471.0187 905.0957,-471.6844 903.2029,-464.9451"/>
</g>
<!-- Node268007&#45;&gt;Node268076 -->
<g id="edge11" class="edge">
<title>Node268007&#45;&gt;Node268076</title>
<path fill="none" stroke="#191970" d="M904.5648,-482.7836C929.12,-486.0863 962.1352,-490.527 989.4209,-494.197"/>
<polygon fill="#191970" stroke="#191970" points="904.9778,-479.3077 894.6004,-481.4433 904.0446,-486.2452 904.9778,-479.3077"/>
</g>
<!-- Node268077&#45;&gt;Node267994 -->
<g id="edge13" class="edge">
<title>Node268077&#45;&gt;Node267994</title>
<path fill="none" stroke="#191970" d="M791.5983,-408.7183C773.2328,-408.8502 754.3264,-408.5702 738.2574,-407.8782"/>
<polygon fill="#191970" stroke="#191970" points="791.7649,-412.2168 801.7242,-408.6027 791.6849,-405.2172 791.7649,-412.2168"/>
</g>
<!-- Node268091&#45;&gt;Node267994 -->
<g id="edge15" class="edge">
<title>Node268091&#45;&gt;Node267994</title>
<path fill="none" stroke="#191970" d="M849.1484,-340.0663C835.6937,-345.9786 817.5919,-352.3903 802,-359 777.1834,-369.5203 749.9098,-383.0167 729.3108,-392.3893"/>
<polygon fill="#191970" stroke="#191970" points="850.8938,-343.1116 858.4129,-335.6474 847.8803,-336.7934 850.8938,-343.1116"/>
</g>
<!-- Node268327 -->
<g id="node13" class="node">
<title>Node268327</title>
<g id="a_node13"><a xlink:href="quickjs_8c.html#a5762c57ae0c9937e986040c01222833a" target="_top" xlink:title="JS_GetPropertyInternal">
<polygon fill="none" stroke="#ff0000" points="980.5,-316.5 980.5,-335.5 1099.5,-335.5 1099.5,-316.5 980.5,-316.5"/>
<text text-anchor="middle" x="1040" y="-323.5" font-family="Helvetica,sans-Serif" font-size="10.00" fill="#000000">JS_GetPropertyInternal</text>
</a>
</g>
</g>
<!-- Node268091&#45;&gt;Node268327 -->
<g id="edge16" class="edge">
<title>Node268091&#45;&gt;Node268327</title>
<path fill="none" stroke="#191970" d="M914.9774,-326C935.0614,-326 958.8758,-326 980.3041,-326"/>
<polygon fill="#191970" stroke="#191970" points="914.8472,-322.5001 904.8472,-326 914.8472,-329.5001 914.8472,-322.5001"/>
</g>
<!-- Node268437 -->
<g id="node14" class="node">
<title>Node268437</title>
<g id="a_node14"><a xlink:href="quickjs_8c.html#a438b354d69a8f0674195b0cdc19dd686" target="_top" xlink:title="js_proxy_get_own_property\l_names">
<polygon fill="none" stroke="#000000" points="972,-121 972,-151 1108,-151 1108,-121 972,-121"/>
<text text-anchor="start" x="980" y="-139" font-family="Helvetica,sans-Serif" font-size="10.00" fill="#000000">js_proxy_get_own_property</text>
<text text-anchor="middle" x="1040" y="-128" font-family="Helvetica,sans-Serif" font-size="10.00" fill="#000000">_names</text>
</a>
</g>
</g>
<!-- Node268091&#45;&gt;Node268437 -->
<g id="edge18" class="edge">
<title>Node268091&#45;&gt;Node268437</title>
<path fill="none" stroke="#191970" d="M884.4241,-308.8621C917.5123,-272.0974 994.8529,-186.1634 1026.319,-151.2011"/>
<polygon fill="#191970" stroke="#191970" points="881.8031,-306.5423 877.715,-316.3167 887.0062,-311.2251 881.8031,-306.5423"/>
</g>
<!-- Node268327&#45;&gt;Node267994 -->
<g id="edge17" class="edge">
<title>Node268327&#45;&gt;Node267994</title>
<path fill="none" stroke="#191970" d="M986.75,-337.7817C918.2524,-352.9369 800.6904,-378.9477 738.2764,-392.7569"/>
<polygon fill="#191970" stroke="#191970" points="987.8891,-341.1144 996.8969,-335.5366 986.3769,-334.2796 987.8891,-341.1144"/>
</g>
<!-- Node268335&#45;&gt;Node268055 -->
<g id="edge21" class="edge">
<title>Node268335&#45;&gt;Node268055</title>
<path fill="none" stroke="#191970" d="M406.5046,-503.4572C429.9701,-506.1699 455.7486,-509.1501 476.2882,-511.5246"/>
<polygon fill="#191970" stroke="#191970" points="406.5994,-499.9449 396.2636,-502.2733 405.7955,-506.8986 406.5994,-499.9449"/>
</g>
<!-- Node268335&#45;&gt;Node268336 -->
<g id="edge23" class="edge">
<title>Node268335&#45;&gt;Node268336</title>
<path fill="none" stroke="#191970" d="M406.4974,-489.2893C419.4777,-487.9387 433.1661,-486.5145 446.2841,-485.1496"/>
<polygon fill="#191970" stroke="#191970" points="405.8477,-485.8379 396.2636,-490.3541 406.5722,-492.8003 405.8477,-485.8379"/>
</g>
<!-- Node268055&#45;&gt;Node268055 -->
<g id="edge22" class="edge">
<title>Node268055&#45;&gt;Node268055</title>
<path fill="none" stroke="#191970" d="M482.8144,-534.2746C483.732,-539.741 494.4606,-544 515,-544 545.5703,-544 554.407,-534.5653 541.5102,-525.7571"/>
<polygon fill="#191970" stroke="#191970" points="485.8574,-536.0197 488.4898,-525.7571 480.0321,-532.1381 485.8574,-536.0197"/>
</g>
<!-- Node268616&#45;&gt;Node268021 -->
<g id="edge33" class="edge">
<title>Node268616&#45;&gt;Node268021</title>
<path fill="none" stroke="#191970" d="M386.1512,-256.3087C391.8781,-254.3539 397.6191,-252.2357 403,-250 419.707,-243.0584 421.439,-235.3498 439,-231 655.9017,-177.2739 743.4947,-193.5339 936,-307 942.1753,-310.6398 1008.2021,-387.7117 1031.7312,-415.2919"/>
<polygon fill="#191970" stroke="#191970" points="385.0085,-252.9999 376.5927,-259.436 387.1853,-259.6528 385.0085,-252.9999"/>
</g>
<!-- Node268616&#45;&gt;Node268327 -->
<g id="edge32" class="edge">
<title>Node268616&#45;&gt;Node268327</title>
<path fill="none" stroke="#191970" d="M394.5637,-255.2483C397.5237,-253.6804 400.363,-251.9373 403,-250 425.6532,-233.358 414.1015,-211.0456 439,-198 536.8294,-146.742 836.2756,-150.5341 936,-198 989.2583,-223.3494 1024.1463,-290.7849 1035.7428,-316.1599"/>
<polygon fill="#191970" stroke="#191970" points="393.0366,-252.0981 385.4037,-259.4458 395.9527,-258.4618 393.0366,-252.0981"/>
</g>
<!-- Node268616&#45;&gt;Node268437 -->
<g id="edge36" class="edge">
<title>Node268616&#45;&gt;Node268437</title>
<path fill="none" stroke="#191970" d="M397.4694,-254.375C399.4216,-253.0419 401.2762,-251.5872 403,-250 434.389,-221.0972 404.1244,-185.5833 439,-161 481.6249,-130.9543 823.6364,-132.5757 971.8766,-134.7388"/>
<polygon fill="#191970" stroke="#191970" points="395.3929,-251.527 388.3887,-259.4763 398.8214,-257.6299 395.3929,-251.527"/>
</g>
<!-- Node268436 -->
<g id="node19" class="node">
<title>Node268436</title>
<g id="a_node19"><a xlink:href="quickjs_8c.html#a4956f45ffd2849b96dc051277264f87a" target="_top" xlink:title="build_arg_list">
<polygon fill="none" stroke="#ff0000" points="478,-392.5 478,-411.5 552,-411.5 552,-392.5 478,-392.5"/>
<text text-anchor="middle" x="515" y="-399.5" font-family="Helvetica,sans-Serif" font-size="10.00" fill="#000000">build_arg_list</text>
</a>
</g>
</g>
<!-- Node268616&#45;&gt;Node268436 -->
<g id="edge25" class="edge">
<title>Node268616&#45;&gt;Node268436</title>
<path fill="none" stroke="#191970" d="M352.5208,-287.4087C368.072,-312.9051 399.6454,-358.5789 439,-383 450.6719,-390.2429 464.9637,-394.7281 477.9914,-397.5043"/>
<polygon fill="#191970" stroke="#191970" points="355.474,-285.5268 347.3623,-278.7113 349.4533,-289.0977 355.474,-285.5268"/>
</g>
<!-- Node268617 -->
<g id="node20" class="node">
<title>Node268617</title>
<g id="a_node20"><a xlink:href="structqjs_1_1js__property__traits_3_01uint32__t_01_4.html#af19da02fec28059477a39b16c531a97c" target="_top" xlink:title="qjs::js_property_traits\l\&lt; uint32_t \&gt;::get_property">
<polygon fill="none" stroke="#000000" points="450.5,-39 450.5,-69 579.5,-69 579.5,-39 450.5,-39"/>
<text text-anchor="start" x="458.5" y="-57" font-family="Helvetica,sans-Serif" font-size="10.00" fill="#000000">qjs::js_property_traits</text>
<text text-anchor="middle" x="515" y="-46" font-family="Helvetica,sans-Serif" font-size="10.00" fill="#000000">&lt; uint32_t &gt;::get_property</text>
</a>
</g>
</g>
<!-- Node268616&#45;&gt;Node268617 -->
<g id="edge27" class="edge">
<title>Node268616&#45;&gt;Node268617</title>
<path fill="none" stroke="#191970" d="M399.1156,-253.6985C400.4898,-252.5527 401.79,-251.3219 403,-250 453.9709,-194.3122 390.1243,-141.5354 439,-84 444.2348,-77.8377 450.9062,-72.9323 458.115,-69.0296"/>
<polygon fill="#191970" stroke="#191970" points="396.951,-250.9342 390.5484,-259.3757 400.8177,-256.7693 396.951,-250.9342"/>
</g>
<!-- Node268233 -->
<g id="node21" class="node">
<title>Node268233</title>
<g id="a_node21"><a xlink:href="quickjs_8c.html#a4398c126700f887a947501bf25910f75" target="_top" xlink:title="js_array_iterator_next">
<polygon fill="none" stroke="#ff0000" points="460,-.5 460,-19.5 570,-19.5 570,-.5 460,-.5"/>
<text text-anchor="middle" x="515" y="-7.5" font-family="Helvetica,sans-Serif" font-size="10.00" fill="#000000">js_array_iterator_next</text>
</a>
</g>
</g>
<!-- Node268616&#45;&gt;Node268233 -->
<g id="edge28" class="edge">
<title>Node268616&#45;&gt;Node268233</title>
<path fill="none" stroke="#191970" d="M399.2933,-253.7055C400.6091,-252.5573 401.8499,-251.3242 403,-250 468.2571,-174.866 371.6294,-102.2448 439,-29 444.6164,-22.8939 451.8714,-18.6189 459.6651,-15.6492"/>
<polygon fill="#191970" stroke="#191970" points="397.2882,-250.8367 391.0448,-259.3966 401.2635,-256.5984 397.2882,-250.8367"/>
</g>
<!-- Node268288 -->
<g id="node22" class="node">
<title>Node268288</title>
<g id="a_node22"><a xlink:href="quickjs_8c.html#a4f8035820871c730dd7e98d46e137bc1" target="_top" xlink:title="js_array_join">
<polygon fill="none" stroke="#000000" points="479.5,-354.5 479.5,-373.5 550.5,-373.5 550.5,-354.5 479.5,-354.5"/>
<text text-anchor="middle" x="515" y="-361.5" font-family="Helvetica,sans-Serif" font-size="10.00" fill="#000000">js_array_join</text>
</a>
</g>
</g>
<!-- Node268616&#45;&gt;Node268288 -->
<g id="edge29" class="edge">
<title>Node268616&#45;&gt;Node268288</title>
<path fill="none" stroke="#191970" d="M358.9814,-286.005C377.2296,-303.3319 407.8336,-329.7604 439,-345 451.5846,-351.1536 466.3455,-355.4312 479.4942,-358.3462"/>
<polygon fill="#191970" stroke="#191970" points="361.124,-283.2072 351.5089,-278.7573 356.2504,-288.2319 361.124,-283.2072"/>
</g>
<!-- Node268485 -->
<g id="node23" class="node">
<title>Node268485</title>
<g id="a_node23"><a xlink:href="quickjs_8c.html#ad13892c0a0f11781b566808876658099" target="_top" xlink:title="JS_GetOwnPropertyInternal">
<polygon fill="none" stroke="#ff0000" points="627,-88.5 627,-107.5 766,-107.5 766,-88.5 627,-88.5"/>
<text text-anchor="middle" x="696.5" y="-95.5" font-family="Helvetica,sans-Serif" font-size="10.00" fill="#000000">JS_GetOwnPropertyInternal</text>
</a>
</g>
</g>
<!-- Node268616&#45;&gt;Node268485 -->
<g id="edge30" class="edge">
<title>Node268616&#45;&gt;Node268485</title>
<path fill="none" stroke="#191970" d="M398.4292,-254.0562C400.0476,-252.8103 401.579,-251.4611 403,-250 444.2027,-207.6363 393.6028,-159.8344 439,-122 499.1865,-71.8401 596.9651,-78.9111 653.1225,-88.4971"/>
<polygon fill="#191970" stroke="#191970" points="396.368,-251.2161 389.7181,-259.4642 400.0601,-257.1633 396.368,-251.2161"/>
</g>
<!-- Node268020 -->
<g id="node24" class="node">
<title>Node268020</title>
<g id="a_node24"><a xlink:href="quickjs_8c.html#ad6908ae6db4e80d175180b55e19b203e" target="_top" xlink:title="js_object_fromEntries">
<polygon fill="none" stroke="#000000" points="459.5,-316.5 459.5,-335.5 570.5,-335.5 570.5,-316.5 459.5,-316.5"/>
<text text-anchor="middle" x="515" y="-323.5" font-family="Helvetica,sans-Serif" font-size="10.00" fill="#000000">js_object_fromEntries</text>
</a>
</g>
</g>
<!-- Node268616&#45;&gt;Node268020 -->
<g id="edge34" class="edge">
<title>Node268616&#45;&gt;Node268020</title>
<path fill="none" stroke="#191970" d="M373.3312,-282.4568C392.1521,-290.2422 416.6994,-299.8767 439,-307 449.7532,-310.4348 461.5226,-313.6396 472.5188,-316.4024"/>
<polygon fill="#191970" stroke="#191970" points="374.6294,-279.206 364.0532,-278.5772 371.9288,-285.6642 374.6294,-279.206"/>
</g>
<!-- Node268340 -->
<g id="node25" class="node">
<title>Node268340</title>
<g id="a_node25"><a xlink:href="quickjs-libc_8c.html#a0b92fee4bb5dda499a0b6d86da0e8be8" target="_top" xlink:title="js_os_exec">
<polygon fill="none" stroke="#000000" points="482,-278.5 482,-297.5 548,-297.5 548,-278.5 482,-278.5"/>
<text text-anchor="middle" x="515" y="-285.5" font-family="Helvetica,sans-Serif" font-size="10.00" fill="#000000">js_os_exec</text>
</a>
</g>
</g>
<!-- Node268616&#45;&gt;Node268340 -->
<g id="edge35" class="edge">
<title>Node268616&#45;&gt;Node268340</title>
<path fill="none" stroke="#191970" d="M409.7018,-276.4355C434.4787,-279.1566 461.4178,-282.1152 481.8454,-284.3587"/>
<polygon fill="#191970" stroke="#191970" points="409.9289,-272.9394 399.6065,-275.3267 409.1646,-279.8976 409.9289,-272.9394"/>
</g>
<!-- Node268026 -->
<g id="node26" class="node">
<title>Node268026</title>
<g id="a_node26"><a xlink:href="quickjs_8c.html#acf0e1803a9586d86d752b002a89fb8ed" target="_top" xlink:title="js_typed_array_constructor_obj">
<polygon fill="none" stroke="#ff0000" points="439,-240.5 439,-259.5 591,-259.5 591,-240.5 439,-240.5"/>
<text text-anchor="middle" x="515" y="-247.5" font-family="Helvetica,sans-Serif" font-size="10.00" fill="#000000">js_typed_array_constructor_obj</text>
</a>
</g>
</g>
<!-- Node268616&#45;&gt;Node268026 -->
<g id="edge37" class="edge">
<title>Node268616&#45;&gt;Node268026</title>
<path fill="none" stroke="#191970" d="M409.804,-261.5533C419.3383,-260.5062 429.1909,-259.4241 438.8679,-258.3613"/>
<polygon fill="#191970" stroke="#191970" points="409.1646,-258.1024 399.6065,-262.6733 409.9289,-265.0606 409.1646,-258.1024"/>
</g>
<!-- Node268436&#45;&gt;Node267994 -->
<g id="edge26" class="edge">
<title>Node268436&#45;&gt;Node267994</title>
<path fill="none" stroke="#191970" d="M562.3708,-402C591.0781,-402 627.3582,-402 654.9456,-402"/>
<polygon fill="#191970" stroke="#191970" points="562.1672,-398.5001 552.1672,-402 562.1672,-405.5001 562.1672,-398.5001"/>
</g>
<!-- Node268485&#45;&gt;Node268437 -->
<g id="edge31" class="edge">
<title>Node268485&#45;&gt;Node268437</title>
<path fill="none" stroke="#191970" d="M776.2971,-105.3128C822.9068,-109.755 882.8342,-115.7595 936,-122 947.5803,-123.3593 959.8704,-124.9139 971.7917,-126.4813"/>
<polygon fill="#191970" stroke="#191970" points="776.546,-101.8208 766.2602,-104.3608 775.8849,-108.7895 776.546,-101.8208"/>
</g>
<!-- Node268381 -->
<g id="node30" class="node">
<title>Node268381</title>
<g id="a_node30"><a xlink:href="quickjs_8c.html#ad24e5f774218bb0d2859db9dc569d118" target="_top" xlink:title="js_typed_array_sort">
<polygon fill="none" stroke="#000000" points="291,-183.5 291,-202.5 393,-202.5 393,-183.5 291,-183.5"/>
<text text-anchor="middle" x="342" y="-190.5" font-family="Helvetica,sans-Serif" font-size="10.00" fill="#000000">js_typed_array_sort</text>
</a>
</g>
</g>
<!-- Node268618&#45;&gt;Node268381 -->
<g id="edge44" class="edge">
<title>Node268618&#45;&gt;Node268381</title>
<path fill="none" stroke="#191970" d="M198.1459,-316.2419C212.2418,-289.2612 241.8016,-239.7054 281,-212 286.4348,-208.1587 292.6729,-205.0743 299.0391,-202.603"/>
<polygon fill="#191970" stroke="#191970" points="194.9111,-314.8824 193.5128,-325.3845 201.1552,-318.0466 194.9111,-314.8824"/>
</g>
</g>
</svg>
        <g id="navigator" transform="translate(0 0)" fill="#404254">
                <rect fill="#f2f5e9" fill-opacity="0.5" stroke="#606060" stroke-width=".5" x="0" y="0" width="60" height="60"/>
                <use id="zoomplus" xlink:href="#zoomPlus" x="17" y="9" onmousedown="handleZoom(evt,'in')"/>
                <use id="zoomminus" xlink:href="#zoomMin" x="42" y="9" onmousedown="handleZoom(evt,'out')"/>
                <use id="reset" xlink:href="#resetDef" x="30" y="36" onmousedown="handleReset()"/>
                <g id="arrowUp" xlink:href="#dirArrow" transform="translate(30 24)" onmousedown="handlePan(0,-1)">
                  <use xlink:href="#rim" fill="#404040">
                        <set attributeName="fill" to="#808080" begin="arrowUp.mouseover" end="arrowUp.mouseout"/>
                  </use>
                  <path fill="none" stroke="white" stroke-width="1.5" d="M0,-3.0v7 M-2.5,-0.5L0,-3.0L2.5,-0.5"/>
                </g>
                <g id="arrowRight" xlink:href="#dirArrow" transform="rotate(90) translate(36 -43)" onmousedown="handlePan(1,0)">
                  <use xlink:href="#rim" fill="#404040">
                        <set attributeName="fill" to="#808080" begin="arrowRight.mouseover" end="arrowRight.mouseout"/>
                  </use>
                  <path fill="none" stroke="white" stroke-width="1.5" d="M0,-3.0v7 M-2.5,-0.5L0,-3.0L2.5,-0.5"/>
                </g>
                <g id="arrowDown" xlink:href="#dirArrow" transform="rotate(180) translate(-30 -48)" onmousedown="handlePan(0,1)">
                  <use xlink:href="#rim" fill="#404040">
                        <set attributeName="fill" to="#808080" begin="arrowDown.mouseover" end="arrowDown.mouseout"/>
                  </use>
                  <path fill="none" stroke="white" stroke-width="1.5" d="M0,-3.0v7 M-2.5,-0.5L0,-3.0L2.5,-0.5"/>
                </g>
                <g id="arrowLeft" xlink:href="#dirArrow" transform="rotate(270) translate(-36 17)" onmousedown="handlePan(-1,0)">
                  <use xlink:href="#rim" fill="#404040">
                        <set attributeName="fill" to="#808080" begin="arrowLeft.mouseover" end="arrowLeft.mouseout"/>
                  </use>
                  <path fill="none" stroke="white" stroke-width="1.5" d="M0,-3.0v7 M-2.5,-0.5L0,-3.0L2.5,-0.5"/>
                </g>
        </g>
        <svg viewBox="0 0 15 15" width="100%" height="30px" preserveAspectRatio="xMaxYMin meet">
         <g id="arrow_out" transform="scale(0.3 0.3)">
          <a xlink:href="quickjs_8c_a5d8e647c557f51abcfcdbf9f26b6ecc1_icgraph_org.svg" target="_base">
           <rect id="button" ry="5" rx="5" y="6" x="6" height="38" width="38"
                fill="#f2f5e9" fill-opacity="0.5" stroke="#606060" stroke-width="1.0"/>
           <path id="arrow"
             d="M 11.500037,31.436501 C 11.940474,20.09759 22.043105,11.32322 32.158766,21.979434 L 37.068811,17.246167 C 37.068811,17.246167 37.088388,32 37.088388,32 L 22.160133,31.978069 C 22.160133,31.978069 26.997745,27.140456 26.997745,27.140456 C 18.528582,18.264221 13.291696,25.230495 11.500037,31.436501 z"
             style="fill:#404040;"/>
          </a>
         </g>
        </svg>
</svg>
