<?xml version="1.0" encoding="UTF-8" standalone="no"?>
<!DOCTYPE svg PUBLIC "-//W3C//DTD SVG 1.1//EN"
 "http://www.w3.org/Graphics/SVG/1.1/DTD/svg11.dtd">
<!-- Generated by graphviz version 2.40.1 (20161225.0304)
 -->
<!-- Title: js_os_mkdir Pages: 1 -->
<!--zoomable 256 -->
<svg id="main" version="1.1" xmlns="http://www.w3.org/2000/svg" xmlns:xlink="http://www.w3.org/1999/xlink" xml:space="preserve" onload="init(evt)">
<style type="text/css"><![CDATA[
.edge:hover path { stroke: red; }
.edge:hover polygon { stroke: red; fill: red; }
]]></style>
<script type="text/javascript"><![CDATA[
var edges = document.getElementsByTagName('g');
if (edges && edges.length) {
  for (var i=0;i<edges.length;i++) {
    if (edges[i].id.substr(0,4)=='edge') {
      edges[i].setAttribute('class','edge');
    }
  }
}
]]></script>
        <defs>
                <circle id="rim" cx="0" cy="0" r="7"/>
                <circle id="rim2" cx="0" cy="0" r="3.5"/>
                <g id="zoomPlus">
                        <use xlink:href="#rim" fill="#404040">
                                <set attributeName="fill" to="#808080" begin="zoomplus.mouseover" end="zoomplus.mouseout"/>
                        </use>
                        <path d="M-4,0h8M0,-4v8" fill="none" stroke="white" stroke-width="1.5" pointer-events="none"/>
                </g>
                <g id="zoomMin">
                        <use xlink:href="#rim" fill="#404040">
                                <set attributeName="fill" to="#808080" begin="zoomminus.mouseover" end="zoomminus.mouseout"/>
                        </use>
                        <path d="M-4,0h8" fill="none" stroke="white" stroke-width="1.5" pointer-events="none"/>
                </g>
                <g id="dirArrow">
                        <path fill="none" stroke="white" stroke-width="1.5" d="M0,-3.0v7 M-2.5,-0.5L0,-3.0L2.5,-0.5"/>
                </g>
               <g id="resetDef">
                       <use xlink:href="#rim2" fill="#404040">
                               <set attributeName="fill" to="#808080" begin="reset.mouseover" end="reset.mouseout"/>
                       </use>
               </g>
        </defs>

<script type="text/javascript">
var viewWidth = 573;
var viewHeight = 256;
var sectionId = 'dynsection-96';
</script>
<script xlink:href="svgpan.js"/>
<svg id="graph" class="graph">
<g id="viewport">
<title>js_os_mkdir</title>
<!-- Node22835 -->
<g id="node1" class="node">
<title>Node22835</title>
<polygon fill="#bfbfbf" stroke="#000000" points="0,-133.5 0,-152.5 69,-152.5 69,-133.5 0,-133.5"/>
<text text-anchor="middle" x="34.5" y="-140.5" font-family="Helvetica,sans-Serif" font-size="10.00" fill="#000000">js_os_mkdir</text>
</g>
<!-- Node22836 -->
<g id="node2" class="node">
<title>Node22836</title>
<g id="a_node2"><a xlink:href="quickjs_8c.html#ae0bc4f65da64810facb2cb9e476eda2e" target="_top" xlink:title="JS_FreeCString">
<polygon fill="none" stroke="#000000" points="225.5,-152.5 225.5,-171.5 311.5,-171.5 311.5,-152.5 225.5,-152.5"/>
<text text-anchor="middle" x="268.5" y="-159.5" font-family="Helvetica,sans-Serif" font-size="10.00" fill="#000000">JS_FreeCString</text>
</a>
</g>
</g>
<!-- Node22835&#45;&gt;Node22836 -->
<g id="edge1" class="edge">
<title>Node22835&#45;&gt;Node22836</title>
<path fill="none" stroke="#191970" d="M69.0275,-145.8035C107.5951,-148.9351 170.489,-154.0418 215.3415,-157.6837"/>
<polygon fill="#191970" stroke="#191970" points="215.2239,-161.1856 225.4743,-158.5065 215.7904,-154.2086 215.2239,-161.1856"/>
</g>
<!-- Node22861 -->
<g id="node5" class="node">
<title>Node22861</title>
<g id="a_node5"><a xlink:href="quickjs-libc_8c.html#ac3abb3f7c3750d07bbc4c20d5f4558f7" target="_top" xlink:title="js_os_return">
<polygon fill="none" stroke="#000000" points="109,-199.5 109,-218.5 179,-218.5 179,-199.5 109,-199.5"/>
<text text-anchor="middle" x="144" y="-206.5" font-family="Helvetica,sans-Serif" font-size="10.00" fill="#000000">js_os_return</text>
</a>
</g>
</g>
<!-- Node22835&#45;&gt;Node22861 -->
<g id="edge4" class="edge">
<title>Node22835&#45;&gt;Node22861</title>
<path fill="none" stroke="#191970" d="M50.6571,-152.7385C68.7948,-163.6708 98.4299,-181.5331 119.4381,-194.1955"/>
<polygon fill="#191970" stroke="#191970" points="117.7613,-197.2715 128.1326,-199.4361 121.3748,-191.2762 117.7613,-197.2715"/>
</g>
<!-- Node22864 -->
<g id="node8" class="node">
<title>Node22864</title>
<g id="a_node8"><a xlink:href="quickjs_8h.html#af931f06630ab719b5f82a16eb27effd1" target="_top" xlink:title="JS_ToCString">
<polygon fill="none" stroke="#000000" points="105,-114.5 105,-133.5 183,-133.5 183,-114.5 105,-114.5"/>
<text text-anchor="middle" x="144" y="-121.5" font-family="Helvetica,sans-Serif" font-size="10.00" fill="#000000">JS_ToCString</text>
</a>
</g>
</g>
<!-- Node22835&#45;&gt;Node22864 -->
<g id="edge7" class="edge">
<title>Node22835&#45;&gt;Node22864</title>
<path fill="none" stroke="#191970" d="M69.1465,-136.9883C77.2527,-135.5817 86.0416,-134.0567 94.6507,-132.5629"/>
<polygon fill="#191970" stroke="#191970" points="95.3683,-135.9908 104.6227,-130.8326 94.1715,-129.0938 95.3683,-135.9908"/>
</g>
<!-- Node23012 -->
<g id="node15" class="node">
<title>Node23012</title>
<g id="a_node15"><a xlink:href="quickjs_8c.html#a4073bd2b4f247bf6077cd956759193b9" target="_top" xlink:title="JS_ToInt32">
<polygon fill="none" stroke="#ff0000" points="110.5,-57.5 110.5,-76.5 177.5,-76.5 177.5,-57.5 110.5,-57.5"/>
<text text-anchor="middle" x="144" y="-64.5" font-family="Helvetica,sans-Serif" font-size="10.00" fill="#000000">JS_ToInt32</text>
</a>
</g>
</g>
<!-- Node22835&#45;&gt;Node23012 -->
<g id="edge15" class="edge">
<title>Node22835&#45;&gt;Node23012</title>
<path fill="none" stroke="#191970" d="M48.3683,-133.3745C66.8805,-120.5259 99.8803,-97.6219 121.8557,-82.3695"/>
<polygon fill="#191970" stroke="#191970" points="124.0248,-85.1245 130.2444,-76.5473 120.0335,-79.3739 124.0248,-85.1245"/>
</g>
<!-- Node22837 -->
<g id="node3" class="node">
<title>Node22837</title>
<g id="a_node3"><a xlink:href="quickjs_8h.html#afaa20c47565bc704c6c85f3d77254e7d" target="_top" xlink:title="JS_FreeValue">
<polygon fill="none" stroke="#000000" points="358,-190.5 358,-209.5 436,-209.5 436,-190.5 358,-190.5"/>
<text text-anchor="middle" x="397" y="-197.5" font-family="Helvetica,sans-Serif" font-size="10.00" fill="#000000">JS_FreeValue</text>
</a>
</g>
</g>
<!-- Node22836&#45;&gt;Node22837 -->
<g id="edge2" class="edge">
<title>Node22836&#45;&gt;Node22837</title>
<path fill="none" stroke="#191970" d="M300.926,-171.589C317.2097,-176.4044 337.1421,-182.2988 354.622,-187.468"/>
<polygon fill="#191970" stroke="#191970" points="354.0024,-190.9345 364.5844,-190.4141 355.9875,-184.2219 354.0024,-190.9345"/>
</g>
<!-- Node22838 -->
<g id="node4" class="node">
<title>Node22838</title>
<g id="a_node4"><a xlink:href="quickjs_8c.html#aa059f309c30fd5166d16c82a97973146" target="_top" xlink:title="__JS_FreeValue">
<polygon fill="none" stroke="#ff0000" points="476,-190.5 476,-209.5 565,-209.5 565,-190.5 476,-190.5"/>
<text text-anchor="middle" x="520.5" y="-197.5" font-family="Helvetica,sans-Serif" font-size="10.00" fill="#000000">__JS_FreeValue</text>
</a>
</g>
</g>
<!-- Node22837&#45;&gt;Node22838 -->
<g id="edge3" class="edge">
<title>Node22837&#45;&gt;Node22838</title>
<path fill="none" stroke="#191970" d="M436.0762,-200C445.412,-200 455.5507,-200 465.4566,-200"/>
<polygon fill="#191970" stroke="#191970" points="465.6517,-203.5001 475.6517,-200 465.6517,-196.5001 465.6517,-203.5001"/>
</g>
<!-- Node22862 -->
<g id="node6" class="node">
<title>Node22862</title>
<g id="a_node6"><a xlink:href="quickjs_8c.html#acfced0527a056a74dd8439904b7936dd" target="_top" xlink:title="JS_NewInt64">
<polygon fill="none" stroke="#000000" points="230.5,-218.5 230.5,-237.5 306.5,-237.5 306.5,-218.5 230.5,-218.5"/>
<text text-anchor="middle" x="268.5" y="-225.5" font-family="Helvetica,sans-Serif" font-size="10.00" fill="#000000">JS_NewInt64</text>
</a>
</g>
</g>
<!-- Node22861&#45;&gt;Node22862 -->
<g id="edge5" class="edge">
<title>Node22861&#45;&gt;Node22862</title>
<path fill="none" stroke="#191970" d="M179.0115,-214.3431C191.7349,-216.2848 206.3495,-218.5152 220.0293,-220.6029"/>
<polygon fill="#191970" stroke="#191970" points="219.8478,-224.1156 230.2614,-222.1644 220.9039,-217.1957 219.8478,-224.1156"/>
</g>
<!-- Node22863 -->
<g id="node7" class="node">
<title>Node22863</title>
<g id="a_node7"><a xlink:href="quickjs_8h.html#a2050bc428da1c65ac7eb87c3fa3b0392" target="_top" xlink:title="JS_NewInt32">
<polygon fill="none" stroke="#000000" points="359,-228.5 359,-247.5 435,-247.5 435,-228.5 359,-228.5"/>
<text text-anchor="middle" x="397" y="-235.5" font-family="Helvetica,sans-Serif" font-size="10.00" fill="#000000">JS_NewInt32</text>
</a>
</g>
</g>
<!-- Node22862&#45;&gt;Node22863 -->
<g id="edge6" class="edge">
<title>Node22862&#45;&gt;Node22863</title>
<path fill="none" stroke="#191970" d="M306.7063,-230.9733C319.794,-231.9918 334.6172,-233.1453 348.4142,-234.219"/>
<polygon fill="#191970" stroke="#191970" points="348.4776,-237.7344 358.719,-235.0209 349.0207,-230.7555 348.4776,-237.7344"/>
</g>
<!-- Node22865 -->
<g id="node9" class="node">
<title>Node22865</title>
<g id="a_node9"><a xlink:href="quickjs_8c.html#af49e67b73f845dc1f9c3ee648dd9f95c" target="_top" xlink:title="JS_ToCStringLen2">
<polygon fill="none" stroke="#000000" points="219,-114.5 219,-133.5 318,-133.5 318,-114.5 219,-114.5"/>
<text text-anchor="middle" x="268.5" y="-121.5" font-family="Helvetica,sans-Serif" font-size="10.00" fill="#000000">JS_ToCStringLen2</text>
</a>
</g>
</g>
<!-- Node22864&#45;&gt;Node22865 -->
<g id="edge8" class="edge">
<title>Node22864&#45;&gt;Node22865</title>
<path fill="none" stroke="#191970" d="M183.051,-124C191.1494,-124 199.859,-124 208.5104,-124"/>
<polygon fill="#191970" stroke="#191970" points="208.5995,-127.5001 218.5994,-124 208.5994,-120.5001 208.5995,-127.5001"/>
</g>
<!-- Node22865&#45;&gt;Node22837 -->
<g id="edge14" class="edge">
<title>Node22865&#45;&gt;Node22837</title>
<path fill="none" stroke="#191970" d="M299.6575,-133.5196C305.9891,-136.1144 312.4143,-139.2644 318,-143 337.3384,-155.9329 334.988,-167.5918 354,-181 356.3761,-182.6757 358.9236,-184.253 361.5488,-185.7268"/>
<polygon fill="#191970" stroke="#191970" points="360.135,-188.9341 370.6373,-190.3316 363.2987,-182.6898 360.135,-188.9341"/>
</g>
<!-- Node22866 -->
<g id="node10" class="node">
<title>Node22866</title>
<g id="a_node10"><a xlink:href="quickjs_8c.html#a7bcb8e1a20cbc8374a5f9ba4a2088cec" target="_top" xlink:title="JS_ToString">
<polygon fill="none" stroke="#ff0000" points="361.5,-38.5 361.5,-57.5 432.5,-57.5 432.5,-38.5 361.5,-38.5"/>
<text text-anchor="middle" x="397" y="-45.5" font-family="Helvetica,sans-Serif" font-size="10.00" fill="#000000">JS_ToString</text>
</a>
</g>
</g>
<!-- Node22865&#45;&gt;Node22866 -->
<g id="edge9" class="edge">
<title>Node22865&#45;&gt;Node22866</title>
<path fill="none" stroke="#191970" d="M281.3871,-114.3858C297.7518,-102.4208 327.1016,-81.7658 354,-67 357.2687,-65.2057 360.7403,-63.4466 364.2382,-61.7674"/>
<polygon fill="#191970" stroke="#191970" points="365.8128,-64.8958 373.4376,-57.5396 362.8896,-58.5353 365.8128,-64.8958"/>
</g>
<!-- Node22911 -->
<g id="node11" class="node">
<title>Node22911</title>
<g id="a_node11"><a xlink:href="quickjs_8h.html#ad80a83d73e9b7d872b88fbf2943aebe9" target="_top" xlink:title="JS_IsException">
<polygon fill="none" stroke="#000000" points="354,-152.5 354,-171.5 440,-171.5 440,-152.5 354,-152.5"/>
<text text-anchor="middle" x="397" y="-159.5" font-family="Helvetica,sans-Serif" font-size="10.00" fill="#000000">JS_IsException</text>
</a>
</g>
</g>
<!-- Node22865&#45;&gt;Node22911 -->
<g id="edge10" class="edge">
<title>Node22865&#45;&gt;Node22911</title>
<path fill="none" stroke="#191970" d="M300.926,-133.589C317.2097,-138.4044 337.1421,-144.2988 354.622,-149.468"/>
<polygon fill="#191970" stroke="#191970" points="354.0024,-152.9345 364.5844,-152.4141 355.9875,-146.2219 354.0024,-152.9345"/>
</g>
<!-- Node22868 -->
<g id="node12" class="node">
<title>Node22868</title>
<g id="a_node12"><a xlink:href="quickjs_8h.html#a775522f2d084fc8fa0fcb33f390006b4" target="_top" xlink:title="JS_DupValue">
<polygon fill="none" stroke="#000000" points="358.5,-.5 358.5,-19.5 435.5,-19.5 435.5,-.5 358.5,-.5"/>
<text text-anchor="middle" x="397" y="-7.5" font-family="Helvetica,sans-Serif" font-size="10.00" fill="#000000">JS_DupValue</text>
</a>
</g>
</g>
<!-- Node22865&#45;&gt;Node22868 -->
<g id="edge11" class="edge">
<title>Node22865&#45;&gt;Node22868</title>
<path fill="none" stroke="#191970" d="M276.4045,-114.2201C293.9538,-92.6793 336.0317,-42.0192 354,-29 356.3545,-27.294 358.8864,-25.6949 361.5007,-24.206"/>
<polygon fill="#191970" stroke="#191970" points="363.2563,-27.2394 370.5689,-19.5728 360.0714,-21.0059 363.2563,-27.2394"/>
</g>
<!-- Node22877 -->
<g id="node13" class="node">
<title>Node22877</title>
<g id="a_node13"><a xlink:href="quickjs_8c.html#ad303a9bc56766627b5fca41574933930" target="_top" xlink:title="js_alloc_string">
<polygon fill="none" stroke="#ff0000" points="357.5,-114.5 357.5,-133.5 436.5,-133.5 436.5,-114.5 357.5,-114.5"/>
<text text-anchor="middle" x="397" y="-121.5" font-family="Helvetica,sans-Serif" font-size="10.00" fill="#000000">js_alloc_string</text>
</a>
</g>
</g>
<!-- Node22865&#45;&gt;Node22877 -->
<g id="edge12" class="edge">
<title>Node22865&#45;&gt;Node22877</title>
<path fill="none" stroke="#191970" d="M318.1815,-124C327.7246,-124 337.7204,-124 347.2653,-124"/>
<polygon fill="#191970" stroke="#191970" points="347.4028,-127.5001 357.4027,-124 347.4027,-120.5001 347.4028,-127.5001"/>
</g>
<!-- Node23033 -->
<g id="node14" class="node">
<title>Node23033</title>
<g id="a_node14"><a xlink:href="cutils_8h.html#aad4e0decb15ab19e9f45b0ee69542a28" target="_top" xlink:title="unicode_to_utf8">
<polygon fill="none" stroke="#000000" points="354,-76.5 354,-95.5 440,-95.5 440,-76.5 354,-76.5"/>
<text text-anchor="middle" x="397" y="-83.5" font-family="Helvetica,sans-Serif" font-size="10.00" fill="#000000">unicode_to_utf8</text>
</a>
</g>
</g>
<!-- Node22865&#45;&gt;Node23033 -->
<g id="edge13" class="edge">
<title>Node22865&#45;&gt;Node23033</title>
<path fill="none" stroke="#191970" d="M300.926,-114.411C317.2097,-109.5956 337.1421,-103.7012 354.622,-98.532"/>
<polygon fill="#191970" stroke="#191970" points="355.9875,-101.7781 364.5844,-95.5859 354.0024,-95.0655 355.9875,-101.7781"/>
</g>
<!-- Node23012&#45;&gt;Node22868 -->
<g id="edge16" class="edge">
<title>Node23012&#45;&gt;Node22868</title>
<path fill="none" stroke="#191970" d="M177.5964,-59.4308C221.3583,-49.5715 298.1798,-32.2638 348.3223,-20.9669"/>
<polygon fill="#191970" stroke="#191970" points="349.3002,-24.3344 358.2864,-18.722 347.7617,-17.5056 349.3002,-24.3344"/>
</g>
</g>
</svg>
        <g id="navigator" transform="translate(0 0)" fill="#404254">
                <rect fill="#f2f5e9" fill-opacity="0.5" stroke="#606060" stroke-width=".5" x="0" y="0" width="60" height="60"/>
                <use id="zoomplus" xlink:href="#zoomPlus" x="17" y="9" onmousedown="handleZoom(evt,'in')"/>
                <use id="zoomminus" xlink:href="#zoomMin" x="42" y="9" onmousedown="handleZoom(evt,'out')"/>
                <use id="reset" xlink:href="#resetDef" x="30" y="36" onmousedown="handleReset()"/>
                <g id="arrowUp" xlink:href="#dirArrow" transform="translate(30 24)" onmousedown="handlePan(0,-1)">
                  <use xlink:href="#rim" fill="#404040">
                        <set attributeName="fill" to="#808080" begin="arrowUp.mouseover" end="arrowUp.mouseout"/>
                  </use>
                  <path fill="none" stroke="white" stroke-width="1.5" d="M0,-3.0v7 M-2.5,-0.5L0,-3.0L2.5,-0.5"/>
                </g>
                <g id="arrowRight" xlink:href="#dirArrow" transform="rotate(90) translate(36 -43)" onmousedown="handlePan(1,0)">
                  <use xlink:href="#rim" fill="#404040">
                        <set attributeName="fill" to="#808080" begin="arrowRight.mouseover" end="arrowRight.mouseout"/>
                  </use>
                  <path fill="none" stroke="white" stroke-width="1.5" d="M0,-3.0v7 M-2.5,-0.5L0,-3.0L2.5,-0.5"/>
                </g>
                <g id="arrowDown" xlink:href="#dirArrow" transform="rotate(180) translate(-30 -48)" onmousedown="handlePan(0,1)">
                  <use xlink:href="#rim" fill="#404040">
                        <set attributeName="fill" to="#808080" begin="arrowDown.mouseover" end="arrowDown.mouseout"/>
                  </use>
                  <path fill="none" stroke="white" stroke-width="1.5" d="M0,-3.0v7 M-2.5,-0.5L0,-3.0L2.5,-0.5"/>
                </g>
                <g id="arrowLeft" xlink:href="#dirArrow" transform="rotate(270) translate(-36 17)" onmousedown="handlePan(-1,0)">
                  <use xlink:href="#rim" fill="#404040">
                        <set attributeName="fill" to="#808080" begin="arrowLeft.mouseover" end="arrowLeft.mouseout"/>
                  </use>
                  <path fill="none" stroke="white" stroke-width="1.5" d="M0,-3.0v7 M-2.5,-0.5L0,-3.0L2.5,-0.5"/>
                </g>
        </g>
        <svg viewBox="0 0 15 15" width="100%" height="30px" preserveAspectRatio="xMaxYMin meet">
         <g id="arrow_out" transform="scale(0.3 0.3)">
          <a xlink:href="quickjs-libc_8c_a099dfd009335bf5592dc120829085f7d_cgraph_org.svg" target="_base">
           <rect id="button" ry="5" rx="5" y="6" x="6" height="38" width="38"
                fill="#f2f5e9" fill-opacity="0.5" stroke="#606060" stroke-width="1.0"/>
           <path id="arrow"
             d="M 11.500037,31.436501 C 11.940474,20.09759 22.043105,11.32322 32.158766,21.979434 L 37.068811,17.246167 C 37.068811,17.246167 37.088388,32 37.088388,32 L 22.160133,31.978069 C 22.160133,31.978069 26.997745,27.140456 26.997745,27.140456 C 18.528582,18.264221 13.291696,25.230495 11.500037,31.436501 z"
             style="fill:#404040;"/>
          </a>
         </g>
        </svg>
</svg>
