<?xml version="1.0" encoding="UTF-8" standalone="no"?>
<!DOCTYPE svg PUBLIC "-//W3C//DTD SVG 1.1//EN"
 "http://www.w3.org/Graphics/SVG/1.1/DTD/svg11.dtd">
<!-- Generated by graphviz version 2.40.1 (20161225.0304)
 -->
<!-- Title: JS_ThrowTypeErrorInvalidClass Pages: 1 -->
<svg width="792pt" height="518pt"
 viewBox="0.00 0.00 792.00 517.50" xmlns="http://www.w3.org/2000/svg" xmlns:xlink="http://www.w3.org/1999/xlink">
<g id="graph0" class="graph" transform="scale(1 1) rotate(0) translate(4 513.5)">
<title>JS_ThrowTypeErrorInvalidClass</title>
<!-- Node156430 -->
<g id="node1" class="node">
<title>Node156430</title>
<polygon fill="#bfbfbf" stroke="#000000" points="0,-218.5 0,-248.5 132,-248.5 132,-218.5 0,-218.5"/>
<text text-anchor="start" x="8" y="-236.5" font-family="Helvetica,sans-Serif" font-size="10.00" fill="#000000">JS_ThrowTypeErrorInvalid</text>
<text text-anchor="middle" x="66" y="-225.5" font-family="Helvetica,sans-Serif" font-size="10.00" fill="#000000">Class</text>
</g>
<!-- Node156431 -->
<g id="node2" class="node">
<title>Node156431</title>
<g id="a_node2"><a xlink:href="quickjs_8c.html#a939f8b5d288d1f52e00280a42a29b9b4" target="_top" xlink:title="js_get_array_buffer">
<polygon fill="none" stroke="#000000" points="168,-414 168,-433 268,-433 268,-414 168,-414"/>
<text text-anchor="middle" x="218" y="-421" font-family="Helvetica,sans-Serif" font-size="10.00" fill="#000000">js_get_array_buffer</text>
</a>
</g>
</g>
<!-- Node156430&#45;&gt;Node156431 -->
<g id="edge1" class="edge">
<title>Node156430&#45;&gt;Node156431</title>
<path fill="none" stroke="#191970" d="M84.5745,-256.7182C118.097,-298.6213 187.3646,-385.2057 210.3793,-413.9742"/>
<polygon fill="#191970" stroke="#191970" points="87.1619,-254.3496 78.1819,-248.7273 81.6958,-258.7225 87.1619,-254.3496"/>
</g>
<!-- Node156438 -->
<g id="node8" class="node">
<title>Node156438</title>
<g id="a_node8"><a xlink:href="quickjs_8c.html#a82de8d310598980dd9ab473ce2c8dd1c" target="_top" xlink:title="js_get_regexp">
<polygon fill="none" stroke="#000000" points="179.5,-224 179.5,-243 256.5,-243 256.5,-224 179.5,-224"/>
<text text-anchor="middle" x="218" y="-231" font-family="Helvetica,sans-Serif" font-size="10.00" fill="#000000">js_get_regexp</text>
</a>
</g>
</g>
<!-- Node156430&#45;&gt;Node156438 -->
<g id="edge7" class="edge">
<title>Node156430&#45;&gt;Node156438</title>
<path fill="none" stroke="#191970" d="M142.4037,-233.5C155.1227,-233.5 167.8267,-233.5 179.0906,-233.5"/>
<polygon fill="#191970" stroke="#191970" points="142.2273,-230.0001 132.2272,-233.5 142.2272,-237.0001 142.2273,-230.0001"/>
</g>
<!-- Node156459 -->
<g id="node21" class="node">
<title>Node156459</title>
<g id="a_node21"><a xlink:href="quickjs_8c.html#a1951b8aab94369f326d8c0720097c523" target="_top" xlink:title="JS_GetOpaque2">
<polygon fill="none" stroke="#000000" points="173.5,-61 173.5,-80 262.5,-80 262.5,-61 173.5,-61"/>
<text text-anchor="middle" x="218" y="-68" font-family="Helvetica,sans-Serif" font-size="10.00" fill="#000000">JS_GetOpaque2</text>
</a>
</g>
</g>
<!-- Node156430&#45;&gt;Node156459 -->
<g id="edge23" class="edge">
<title>Node156430&#45;&gt;Node156459</title>
<path fill="none" stroke="#191970" d="M87.0966,-210.8767C120.7141,-174.8263 185.0685,-105.8147 208.8623,-80.299"/>
<polygon fill="#191970" stroke="#191970" points="84.2876,-208.757 80.0273,-218.4575 89.4071,-213.531 84.2876,-208.757"/>
</g>
<!-- Node156432 -->
<g id="node3" class="node">
<title>Node156432</title>
<g id="a_node3"><a xlink:href="quickjs_8c.html#ab9dd8240188c470b7c9733ff1ac12726" target="_top" xlink:title="JS_GetArrayBuffer">
<polygon fill="none" stroke="#000000" points="321,-452 321,-471 420,-471 420,-452 321,-452"/>
<text text-anchor="middle" x="370.5" y="-459" font-family="Helvetica,sans-Serif" font-size="10.00" fill="#000000">JS_GetArrayBuffer</text>
</a>
</g>
</g>
<!-- Node156431&#45;&gt;Node156432 -->
<g id="edge2" class="edge">
<title>Node156431&#45;&gt;Node156432</title>
<path fill="none" stroke="#191970" d="M266.3184,-435.54C287.6234,-440.8488 312.3042,-446.9988 332.2945,-451.9799"/>
<polygon fill="#191970" stroke="#191970" points="267.0318,-432.1108 256.4822,-433.089 265.3392,-438.9031 267.0318,-432.1108"/>
</g>
<!-- Node156435 -->
<g id="node6" class="node">
<title>Node156435</title>
<g id="a_node6"><a xlink:href="quickjs_8c.html#a67fcc1a61d5e110579fdaf06d051b6e9" target="_top" xlink:title="js_dataview_constructor">
<polygon fill="none" stroke="#000000" points="309.5,-414 309.5,-433 431.5,-433 431.5,-414 309.5,-414"/>
<text text-anchor="middle" x="370.5" y="-421" font-family="Helvetica,sans-Serif" font-size="10.00" fill="#000000">js_dataview_constructor</text>
</a>
</g>
</g>
<!-- Node156431&#45;&gt;Node156435 -->
<g id="edge5" class="edge">
<title>Node156431&#45;&gt;Node156435</title>
<path fill="none" stroke="#191970" d="M278.3706,-423.5C288.5444,-423.5 299.1129,-423.5 309.3074,-423.5"/>
<polygon fill="#191970" stroke="#191970" points="278.3569,-420.0001 268.3568,-423.5 278.3568,-427.0001 278.3569,-420.0001"/>
</g>
<!-- Node156433 -->
<g id="node4" class="node">
<title>Node156433</title>
<g id="a_node4"><a xlink:href="quickjs-libc_8c.html#a075659fd6c4054c89c99093d1bcb4d37" target="_top" xlink:title="js_std_file_read_write">
<polygon fill="none" stroke="#000000" points="488,-490 488,-509 599,-509 599,-490 488,-490"/>
<text text-anchor="middle" x="543.5" y="-497" font-family="Helvetica,sans-Serif" font-size="10.00" fill="#000000">js_std_file_read_write</text>
</a>
</g>
</g>
<!-- Node156432&#45;&gt;Node156433 -->
<g id="edge3" class="edge">
<title>Node156432&#45;&gt;Node156433</title>
<path fill="none" stroke="#191970" d="M424.0051,-473.2526C448.4673,-478.6258 477.0707,-484.9086 500.1587,-489.9799"/>
<polygon fill="#191970" stroke="#191970" points="424.6733,-469.816 414.1552,-471.089 423.1714,-476.653 424.6733,-469.816"/>
</g>
<!-- Node156434 -->
<g id="node5" class="node">
<title>Node156434</title>
<g id="a_node5"><a xlink:href="quickjs-libc_8c.html#a70dbcae0637863811297360f2773c3ba" target="_top" xlink:title="js_os_read_write">
<polygon fill="none" stroke="#000000" points="498.5,-452 498.5,-471 588.5,-471 588.5,-452 498.5,-452"/>
<text text-anchor="middle" x="543.5" y="-459" font-family="Helvetica,sans-Serif" font-size="10.00" fill="#000000">js_os_read_write</text>
</a>
</g>
</g>
<!-- Node156432&#45;&gt;Node156434 -->
<g id="edge4" class="edge">
<title>Node156432&#45;&gt;Node156434</title>
<path fill="none" stroke="#191970" d="M430.1374,-461.5C452.499,-461.5 477.5196,-461.5 498.3543,-461.5"/>
<polygon fill="#191970" stroke="#191970" points="430.0749,-458.0001 420.0749,-461.5 430.0748,-465.0001 430.0749,-458.0001"/>
</g>
<!-- Node156436 -->
<g id="node7" class="node">
<title>Node156436</title>
<g id="a_node7"><a xlink:href="quickjs_8c.html#a177d09828596bfe6df4bd90b2e93989d" target="_top" xlink:title="JS_AddIntrinsicTypedArrays">
<polygon fill="none" stroke="#ff0000" points="473,-414 473,-433 614,-433 614,-414 473,-414"/>
<text text-anchor="middle" x="543.5" y="-421" font-family="Helvetica,sans-Serif" font-size="10.00" fill="#000000">JS_AddIntrinsicTypedArrays</text>
</a>
</g>
</g>
<!-- Node156435&#45;&gt;Node156436 -->
<g id="edge6" class="edge">
<title>Node156435&#45;&gt;Node156436</title>
<path fill="none" stroke="#191970" d="M442.0247,-423.5C452.1853,-423.5 462.6303,-423.5 472.7756,-423.5"/>
<polygon fill="#191970" stroke="#191970" points="441.9805,-420.0001 431.9804,-423.5 441.9804,-427.0001 441.9805,-420.0001"/>
</g>
<!-- Node156439 -->
<g id="node9" class="node">
<title>Node156439</title>
<g id="a_node9"><a xlink:href="quickjs_8c.html#a34780713146b6995321c8880802b7d9d" target="_top" xlink:title="js_is_regexp">
<polygon fill="none" stroke="#000000" points="335,-338 335,-357 406,-357 406,-338 335,-338"/>
<text text-anchor="middle" x="370.5" y="-345" font-family="Helvetica,sans-Serif" font-size="10.00" fill="#000000">js_is_regexp</text>
</a>
</g>
</g>
<!-- Node156438&#45;&gt;Node156439 -->
<g id="edge8" class="edge">
<title>Node156438&#45;&gt;Node156439</title>
<path fill="none" stroke="#191970" d="M230.8883,-251.2963C246.2533,-271.3637 273.6899,-303.7612 304,-323.5 313.3596,-329.5952 324.4679,-334.3897 334.8991,-338.0381"/>
<polygon fill="#191970" stroke="#191970" points="233.5021,-248.9472 224.7112,-243.0335 227.8956,-253.1385 233.5021,-248.9472"/>
</g>
<!-- Node156444 -->
<g id="node12" class="node">
<title>Node156444</title>
<g id="a_node12"><a xlink:href="quickjs_8c.html#a233052710c228313122c39c231a23ddf" target="_top" xlink:title="js_regexp_constructor">
<polygon fill="none" stroke="#ff0000" points="487,-300 487,-319 600,-319 600,-300 487,-300"/>
<text text-anchor="middle" x="543.5" y="-307" font-family="Helvetica,sans-Serif" font-size="10.00" fill="#000000">js_regexp_constructor</text>
</a>
</g>
</g>
<!-- Node156438&#45;&gt;Node156444 -->
<g id="edge12" class="edge">
<title>Node156438&#45;&gt;Node156444</title>
<path fill="none" stroke="#191970" d="M236.1654,-249.5671C252.6256,-263.0858 278.1895,-281.5946 304,-290.5 363.9329,-311.1786 437.1286,-313.9996 486.7088,-312.8789"/>
<polygon fill="#191970" stroke="#191970" points="238.3304,-246.8142 228.4345,-243.0298 233.8105,-252.1594 238.3304,-246.8142"/>
</g>
<!-- Node156446 -->
<g id="node13" class="node">
<title>Node156446</title>
<g id="a_node13"><a xlink:href="quickjs_8c.html#af55de7fe1d3513a7230dfbfc1cbeec62" target="_top" xlink:title="js_regexp_compile">
<polygon fill="none" stroke="#000000" points="321.5,-262 321.5,-281 419.5,-281 419.5,-262 321.5,-262"/>
<text text-anchor="middle" x="370.5" y="-269" font-family="Helvetica,sans-Serif" font-size="10.00" fill="#000000">js_regexp_compile</text>
</a>
</g>
</g>
<!-- Node156438&#45;&gt;Node156446 -->
<g id="edge13" class="edge">
<title>Node156438&#45;&gt;Node156446</title>
<path fill="none" stroke="#191970" d="M266.3184,-245.54C287.6234,-250.8488 312.3042,-256.9988 332.2945,-261.9799"/>
<polygon fill="#191970" stroke="#191970" points="267.0318,-242.1108 256.4822,-243.089 265.3392,-248.9031 267.0318,-242.1108"/>
</g>
<!-- Node156447 -->
<g id="node14" class="node">
<title>Node156447</title>
<g id="a_node14"><a xlink:href="quickjs_8c.html#a32ee6be61757664e4eea552e5508ad6e" target="_top" xlink:title="js_regexp_get_source">
<polygon fill="none" stroke="#000000" points="314.5,-224 314.5,-243 426.5,-243 426.5,-224 314.5,-224"/>
<text text-anchor="middle" x="370.5" y="-231" font-family="Helvetica,sans-Serif" font-size="10.00" fill="#000000">js_regexp_get_source</text>
</a>
</g>
</g>
<!-- Node156438&#45;&gt;Node156447 -->
<g id="edge14" class="edge">
<title>Node156438&#45;&gt;Node156447</title>
<path fill="none" stroke="#191970" d="M267.0371,-233.5C282.142,-233.5 298.8868,-233.5 314.4268,-233.5"/>
<polygon fill="#191970" stroke="#191970" points="266.8768,-230.0001 256.8768,-233.5 266.8767,-237.0001 266.8768,-230.0001"/>
</g>
<!-- Node156448 -->
<g id="node15" class="node">
<title>Node156448</title>
<g id="a_node15"><a xlink:href="quickjs_8c.html#a84549917900dae51c15ad8f1bb92d8ea" target="_top" xlink:title="js_regexp_get_flag">
<polygon fill="none" stroke="#000000" points="321.5,-186 321.5,-205 419.5,-205 419.5,-186 321.5,-186"/>
<text text-anchor="middle" x="370.5" y="-193" font-family="Helvetica,sans-Serif" font-size="10.00" fill="#000000">js_regexp_get_flag</text>
</a>
</g>
</g>
<!-- Node156438&#45;&gt;Node156448 -->
<g id="edge15" class="edge">
<title>Node156438&#45;&gt;Node156448</title>
<path fill="none" stroke="#191970" d="M266.3184,-221.46C287.6234,-216.1512 312.3042,-210.0012 332.2945,-205.0201"/>
<polygon fill="#191970" stroke="#191970" points="265.3392,-218.0969 256.4822,-223.911 267.0318,-224.8892 265.3392,-218.0969"/>
</g>
<!-- Node156449 -->
<g id="node16" class="node">
<title>Node156449</title>
<g id="a_node16"><a xlink:href="quickjs_8c.html#a9eb2d90f27f684820f9de13189502b7c" target="_top" xlink:title="js_regexp_exec">
<polygon fill="none" stroke="#000000" points="328,-148 328,-167 413,-167 413,-148 328,-148"/>
<text text-anchor="middle" x="370.5" y="-155" font-family="Helvetica,sans-Serif" font-size="10.00" fill="#000000">js_regexp_exec</text>
</a>
</g>
</g>
<!-- Node156438&#45;&gt;Node156449 -->
<g id="edge16" class="edge">
<title>Node156438&#45;&gt;Node156449</title>
<path fill="none" stroke="#191970" d="M237.8012,-217.8107C254.596,-205.1521 279.7567,-187.6716 304,-176.5 312.0697,-172.7814 321.0307,-169.625 329.6933,-167.0166"/>
<polygon fill="#191970" stroke="#191970" points="235.6298,-215.0652 229.8304,-223.9319 239.8933,-220.6171 235.6298,-215.0652"/>
</g>
<!-- Node156458 -->
<g id="node20" class="node">
<title>Node156458</title>
<g id="a_node20"><a xlink:href="quickjs_8c.html#a14fa3c10f581e1cd38b349913f47fb43" target="_top" xlink:title="JS_RegExpDelete">
<polygon fill="none" stroke="#000000" points="494.5,-110 494.5,-129 592.5,-129 592.5,-110 494.5,-110"/>
<text text-anchor="middle" x="543.5" y="-117" font-family="Helvetica,sans-Serif" font-size="10.00" fill="#000000">JS_RegExpDelete</text>
</a>
</g>
</g>
<!-- Node156438&#45;&gt;Node156458 -->
<g id="edge21" class="edge">
<title>Node156438&#45;&gt;Node156458</title>
<path fill="none" stroke="#191970" d="M228.5192,-215.1297C242.5271,-192.6298 269.5886,-155.426 304,-138.5 364.4461,-108.7683 443.9433,-108.988 494.3979,-113.2015"/>
<polygon fill="#191970" stroke="#191970" points="225.4783,-213.3952 223.3316,-223.7703 231.4797,-216.9983 225.4783,-213.3952"/>
</g>
<!-- Node156440 -->
<g id="node10" class="node">
<title>Node156440</title>
<g id="a_node10"><a xlink:href="quickjs_8c.html#a507292e60d4d33781303b635d3f42fd1" target="_top" xlink:title="js_string_includes">
<polygon fill="none" stroke="#000000" points="496,-376 496,-395 591,-395 591,-376 496,-376"/>
<text text-anchor="middle" x="543.5" y="-383" font-family="Helvetica,sans-Serif" font-size="10.00" fill="#000000">js_string_includes</text>
</a>
</g>
</g>
<!-- Node156439&#45;&gt;Node156440 -->
<g id="edge9" class="edge">
<title>Node156439&#45;&gt;Node156440</title>
<path fill="none" stroke="#191970" d="M416.3092,-357.5621C442.2443,-363.2589 474.4998,-370.3439 500.0385,-375.9535"/>
<polygon fill="#191970" stroke="#191970" points="416.8638,-354.1006 406.3457,-355.3736 415.362,-360.9376 416.8638,-354.1006"/>
</g>
<!-- Node156441 -->
<g id="node11" class="node">
<title>Node156441</title>
<g id="a_node11"><a xlink:href="quickjs_8c.html#a93aaed931ba8fcbf558c02a846fc7844" target="_top" xlink:title="check_regexp_g_flag">
<polygon fill="none" stroke="#ff0000" points="489,-338 489,-357 598,-357 598,-338 489,-338"/>
<text text-anchor="middle" x="543.5" y="-345" font-family="Helvetica,sans-Serif" font-size="10.00" fill="#000000">check_regexp_g_flag</text>
</a>
</g>
</g>
<!-- Node156439&#45;&gt;Node156441 -->
<g id="edge10" class="edge">
<title>Node156439&#45;&gt;Node156441</title>
<path fill="none" stroke="#191970" d="M416.541,-347.5C438.7988,-347.5 465.67,-347.5 488.9491,-347.5"/>
<polygon fill="#191970" stroke="#191970" points="416.3457,-344.0001 406.3457,-347.5 416.3457,-351.0001 416.3457,-344.0001"/>
</g>
<!-- Node156439&#45;&gt;Node156444 -->
<g id="edge11" class="edge">
<title>Node156439&#45;&gt;Node156444</title>
<path fill="none" stroke="#191970" d="M416.3092,-337.4379C442.2443,-331.7411 474.4998,-324.6561 500.0385,-319.0465"/>
<polygon fill="#191970" stroke="#191970" points="415.362,-334.0624 406.3457,-339.6264 416.8638,-340.8994 415.362,-334.0624"/>
</g>
<!-- Node156450 -->
<g id="node17" class="node">
<title>Node156450</title>
<g id="a_node17"><a xlink:href="quickjs_8c.html#ab737681b4f1a426c560df37c1304c9d6" target="_top" xlink:title="JS_RegExpExec">
<polygon fill="none" stroke="#ff0000" points="497.5,-186 497.5,-205 589.5,-205 589.5,-186 497.5,-186"/>
<text text-anchor="middle" x="543.5" y="-193" font-family="Helvetica,sans-Serif" font-size="10.00" fill="#000000">JS_RegExpExec</text>
</a>
</g>
</g>
<!-- Node156449&#45;&gt;Node156450 -->
<g id="edge17" class="edge">
<title>Node156449&#45;&gt;Node156450</title>
<path fill="none" stroke="#191970" d="M423.1592,-169.0668C447.7593,-174.4702 476.6945,-180.826 500.0263,-185.9509"/>
<polygon fill="#191970" stroke="#191970" points="423.7821,-165.6202 413.2641,-166.8933 422.2803,-172.4572 423.7821,-165.6202"/>
</g>
<!-- Node156457 -->
<g id="node19" class="node">
<title>Node156457</title>
<g id="a_node19"><a xlink:href="quickjs_8c.html#a55de0909f8b4c06625f67b2fdb670279" target="_top" xlink:title="js_is_standard_regexp">
<polygon fill="none" stroke="#000000" points="486.5,-148 486.5,-167 600.5,-167 600.5,-148 486.5,-148"/>
<text text-anchor="middle" x="543.5" y="-155" font-family="Helvetica,sans-Serif" font-size="10.00" fill="#000000">js_is_standard_regexp</text>
</a>
</g>
</g>
<!-- Node156449&#45;&gt;Node156457 -->
<g id="edge19" class="edge">
<title>Node156449&#45;&gt;Node156457</title>
<path fill="none" stroke="#191970" d="M423.378,-157.5C443.2609,-157.5 465.9508,-157.5 486.2164,-157.5"/>
<polygon fill="#191970" stroke="#191970" points="423.2641,-154.0001 413.2641,-157.5 423.264,-161.0001 423.2641,-154.0001"/>
</g>
<!-- Node156454 -->
<g id="node18" class="node">
<title>Node156454</title>
<g id="a_node18"><a xlink:href="quickjs_8c.html#a6a77bcdb9f7f18c13c108c99a198708b" target="_top" xlink:title="js_regexp_Symbol_replace">
<polygon fill="none" stroke="#000000" points="650,-148 650,-167 784,-167 784,-148 650,-148"/>
<text text-anchor="middle" x="717" y="-155" font-family="Helvetica,sans-Serif" font-size="10.00" fill="#000000">js_regexp_Symbol_replace</text>
</a>
</g>
</g>
<!-- Node156450&#45;&gt;Node156454 -->
<g id="edge18" class="edge">
<title>Node156450&#45;&gt;Node156454</title>
<path fill="none" stroke="#191970" d="M597.1598,-183.7474C621.6927,-178.3742 650.3787,-172.0914 673.5335,-167.0201"/>
<polygon fill="#191970" stroke="#191970" points="596.301,-180.3525 587.2814,-185.911 597.7987,-187.1904 596.301,-180.3525"/>
</g>
<!-- Node156457&#45;&gt;Node156454 -->
<g id="edge20" class="edge">
<title>Node156457&#45;&gt;Node156454</title>
<path fill="none" stroke="#191970" d="M610.8947,-157.5C623.6792,-157.5 637.0547,-157.5 649.8321,-157.5"/>
<polygon fill="#191970" stroke="#191970" points="610.7913,-154.0001 600.7912,-157.5 610.7912,-161.0001 610.7913,-154.0001"/>
</g>
<!-- Node156458&#45;&gt;Node156454 -->
<g id="edge22" class="edge">
<title>Node156458&#45;&gt;Node156454</title>
<path fill="none" stroke="#191970" d="M597.1598,-131.2526C621.6927,-136.6258 650.3787,-142.9086 673.5335,-147.9799"/>
<polygon fill="#191970" stroke="#191970" points="597.7987,-127.8096 587.2814,-129.089 596.301,-134.6475 597.7987,-127.8096"/>
</g>
<!-- Node156460 -->
<g id="node22" class="node">
<title>Node156460</title>
<g id="a_node22"><a xlink:href="structqjs_1_1js__traits_3_01std_1_1shared__ptr_3_01T_01_4_01_4.html#a34eea271d3cd85ddae26e5c33b400070" target="_top" xlink:title="qjs::js_traits\&lt; std\l::shared_ptr\&lt; T \&gt; \&gt;\l::unwrap">
<polygon fill="none" stroke="#000000" points="320,-50 320,-91 421,-91 421,-50 320,-50"/>
<text text-anchor="start" x="328" y="-79" font-family="Helvetica,sans-Serif" font-size="10.00" fill="#000000">qjs::js_traits&lt; std</text>
<text text-anchor="start" x="328" y="-68" font-family="Helvetica,sans-Serif" font-size="10.00" fill="#000000">::shared_ptr&lt; T &gt; &gt;</text>
<text text-anchor="middle" x="370.5" y="-57" font-family="Helvetica,sans-Serif" font-size="10.00" fill="#000000">::unwrap</text>
</a>
</g>
</g>
<!-- Node156459&#45;&gt;Node156460 -->
<g id="edge24" class="edge">
<title>Node156459&#45;&gt;Node156460</title>
<path fill="none" stroke="#191970" d="M272.8744,-70.5C288.1686,-70.5 304.711,-70.5 319.7561,-70.5"/>
<polygon fill="#191970" stroke="#191970" points="272.5193,-67.0001 262.5193,-70.5 272.5192,-74.0001 272.5193,-67.0001"/>
</g>
<!-- Node156461 -->
<g id="node23" class="node">
<title>Node156461</title>
<g id="a_node23"><a xlink:href="structqjs_1_1js__traits_3_01detail_1_1function_01_4.html#afe383c63f389edaf9f878cd30062d37f" target="_top" xlink:title="qjs::js_traits\&lt; detail\l::function \&gt;::register_class">
<polygon fill="none" stroke="#000000" points="304,-.5 304,-30.5 437,-30.5 437,-.5 304,-.5"/>
<text text-anchor="start" x="312" y="-18.5" font-family="Helvetica,sans-Serif" font-size="10.00" fill="#000000">qjs::js_traits&lt; detail</text>
<text text-anchor="middle" x="370.5" y="-7.5" font-family="Helvetica,sans-Serif" font-size="10.00" fill="#000000">::function &gt;::register_class</text>
</a>
</g>
</g>
<!-- Node156459&#45;&gt;Node156461 -->
<g id="edge25" class="edge">
<title>Node156459&#45;&gt;Node156461</title>
<path fill="none" stroke="#191970" d="M254.0434,-57.5007C276.4442,-49.4218 305.3295,-39.0041 328.7279,-30.5654"/>
<polygon fill="#191970" stroke="#191970" points="252.7829,-54.2346 244.5635,-60.9197 255.1578,-60.8194 252.7829,-54.2346"/>
</g>
<!-- Node156462 -->
<g id="node24" class="node">
<title>Node156462</title>
<g id="a_node24"><a xlink:href="classqjs_1_1Context.html#aae629cc551168d549a405db5c762b61e" target="_top" xlink:title="qjs::Context::init">
<polygon fill="none" stroke="#000000" points="499,-6 499,-25 588,-25 588,-6 499,-6"/>
<text text-anchor="middle" x="543.5" y="-13" font-family="Helvetica,sans-Serif" font-size="10.00" fill="#000000">qjs::Context::init</text>
</a>
</g>
</g>
<!-- Node156461&#45;&gt;Node156462 -->
<g id="edge26" class="edge">
<title>Node156461&#45;&gt;Node156462</title>
<path fill="none" stroke="#191970" d="M447.6462,-15.5C465.2117,-15.5 483.2979,-15.5 498.9614,-15.5"/>
<polygon fill="#191970" stroke="#191970" points="447.3864,-12.0001 437.3863,-15.5 447.3863,-19.0001 447.3864,-12.0001"/>
</g>
</g>
</svg>
