<?xml version="1.0" encoding="UTF-8" standalone="no"?>
<!DOCTYPE svg PUBLIC "-//W3C//DTD SVG 1.1//EN"
 "http://www.w3.org/Graphics/SVG/1.1/DTD/svg11.dtd">
<!-- Generated by graphviz version 2.40.1 (20161225.0304)
 -->
<!-- Title: js_get_script_or_module_name Pages: 1 -->
<!--zoomable 142 -->
<svg id="main" version="1.1" xmlns="http://www.w3.org/2000/svg" xmlns:xlink="http://www.w3.org/1999/xlink" xml:space="preserve" onload="init(evt)">
<style type="text/css"><![CDATA[
.edge:hover path { stroke: red; }
.edge:hover polygon { stroke: red; fill: red; }
]]></style>
<script type="text/javascript"><![CDATA[
var edges = document.getElementsByTagName('g');
if (edges && edges.length) {
  for (var i=0;i<edges.length;i++) {
    if (edges[i].id.substr(0,4)=='edge') {
      edges[i].setAttribute('class','edge');
    }
  }
}
]]></script>
        <defs>
                <circle id="rim" cx="0" cy="0" r="7"/>
                <circle id="rim2" cx="0" cy="0" r="3.5"/>
                <g id="zoomPlus">
                        <use xlink:href="#rim" fill="#404040">
                                <set attributeName="fill" to="#808080" begin="zoomplus.mouseover" end="zoomplus.mouseout"/>
                        </use>
                        <path d="M-4,0h8M0,-4v8" fill="none" stroke="white" stroke-width="1.5" pointer-events="none"/>
                </g>
                <g id="zoomMin">
                        <use xlink:href="#rim" fill="#404040">
                                <set attributeName="fill" to="#808080" begin="zoomminus.mouseover" end="zoomminus.mouseout"/>
                        </use>
                        <path d="M-4,0h8" fill="none" stroke="white" stroke-width="1.5" pointer-events="none"/>
                </g>
                <g id="dirArrow">
                        <path fill="none" stroke="white" stroke-width="1.5" d="M0,-3.0v7 M-2.5,-0.5L0,-3.0L2.5,-0.5"/>
                </g>
               <g id="resetDef">
                       <use xlink:href="#rim2" fill="#404040">
                               <set attributeName="fill" to="#808080" begin="reset.mouseover" end="reset.mouseout"/>
                       </use>
               </g>
        </defs>

<script type="text/javascript">
var viewWidth = 583;
var viewHeight = 142;
var sectionId = 'dynsection-1092';
</script>
<script xlink:href="svgpan.js"/>
<svg id="graph" class="graph">
<g id="viewport">
<title>js_get_script_or_module_name</title>
<!-- Node319646 -->
<g id="node1" class="node">
<title>Node319646</title>
<polygon fill="#bfbfbf" stroke="#000000" points="0,-67.5 0,-86.5 152,-86.5 152,-67.5 0,-67.5"/>
<text text-anchor="middle" x="76" y="-74.5" font-family="Helvetica,sans-Serif" font-size="10.00" fill="#000000">js_get_script_or_module_name</text>
</g>
<!-- Node319647 -->
<g id="node2" class="node">
<title>Node319647</title>
<g id="a_node2"><a xlink:href="quickjs_8c.html#a50e94675d1c4cf67c88e72169ea3c21a" target="_top" xlink:title="js_dynamic_import">
<polygon fill="none" stroke="#000000" points="188,-86.5 188,-105.5 286,-105.5 286,-86.5 188,-86.5"/>
<text text-anchor="middle" x="237" y="-93.5" font-family="Helvetica,sans-Serif" font-size="10.00" fill="#000000">js_dynamic_import</text>
</a>
</g>
</g>
<!-- Node319646&#45;&gt;Node319647 -->
<g id="edge1" class="edge">
<title>Node319646&#45;&gt;Node319647</title>
<path fill="none" stroke="#191970" d="M162.4121,-87.1977C171.0478,-88.2168 179.5923,-89.2252 187.6451,-90.1755"/>
<polygon fill="#191970" stroke="#191970" points="162.5979,-83.6954 152.2566,-85.9992 161.7775,-90.6472 162.5979,-83.6954"/>
</g>
<!-- Node320228 -->
<g id="node8" class="node">
<title>Node320228</title>
<g id="a_node8"><a xlink:href="quickjs_8c.html#a2c15f4e9fa1344bb2d7caca8e21b34f4" target="_top" xlink:title="js_import_meta">
<polygon fill="none" stroke="#000000" points="195.5,-48.5 195.5,-67.5 278.5,-67.5 278.5,-48.5 195.5,-48.5"/>
<text text-anchor="middle" x="237" y="-55.5" font-family="Helvetica,sans-Serif" font-size="10.00" fill="#000000">js_import_meta</text>
</a>
</g>
</g>
<!-- Node319646&#45;&gt;Node320228 -->
<g id="edge12" class="edge">
<title>Node319646&#45;&gt;Node320228</title>
<path fill="none" stroke="#191970" d="M162.317,-66.8135C173.7454,-65.4648 185.0167,-64.1347 195.203,-62.9326"/>
<polygon fill="#191970" stroke="#191970" points="161.7775,-63.3528 152.2566,-68.0008 162.5979,-70.3046 161.7775,-63.3528"/>
</g>
<!-- Node319648 -->
<g id="node3" class="node">
<title>Node319648</title>
<g id="a_node3"><a xlink:href="quickjs_8c.html#ac2894ff4edcdb4e6841bcce9c76081e3" target="_top" xlink:title="JS_CallInternal">
<polygon fill="none" stroke="#000000" points="322,-48.5 322,-67.5 405,-67.5 405,-48.5 322,-48.5"/>
<text text-anchor="middle" x="363.5" y="-55.5" font-family="Helvetica,sans-Serif" font-size="10.00" fill="#000000">JS_CallInternal</text>
</a>
</g>
</g>
<!-- Node319647&#45;&gt;Node319648 -->
<g id="edge2" class="edge">
<title>Node319647&#45;&gt;Node319648</title>
<path fill="none" stroke="#191970" d="M278.7294,-83.4647C295.9382,-78.2952 315.5601,-72.4009 331.5889,-67.5859"/>
<polygon fill="#191970" stroke="#191970" points="277.4916,-80.1819 268.9213,-86.411 279.5055,-86.886 277.4916,-80.1819"/>
</g>
<!-- Node319648&#45;&gt;Node319648 -->
<g id="edge11" class="edge">
<title>Node319648&#45;&gt;Node319648</title>
<path fill="none" stroke="#191970" d="M340.0626,-77.0292C341.341,-82.128 349.1535,-86 363.5,-86 385.8945,-86 392.368,-76.5653 382.9203,-67.7571"/>
<polygon fill="#191970" stroke="#191970" points="343.3158,-78.3243 344.0797,-67.7571 336.8927,-75.5415 343.3158,-78.3243"/>
</g>
<!-- Node319649 -->
<g id="node4" class="node">
<title>Node319649</title>
<g id="a_node4"><a xlink:href="quickjs_8c.html#ade71a22dc56e7371392393df663b28b3" target="_top" xlink:title="async_func_resume">
<polygon fill="none" stroke="#ff0000" points="456,-76.5 456,-95.5 560,-95.5 560,-76.5 456,-76.5"/>
<text text-anchor="middle" x="508" y="-83.5" font-family="Helvetica,sans-Serif" font-size="10.00" fill="#000000">async_func_resume</text>
</a>
</g>
</g>
<!-- Node319648&#45;&gt;Node319649 -->
<g id="edge3" class="edge">
<title>Node319648&#45;&gt;Node319649</title>
<path fill="none" stroke="#191970" d="M415.3832,-68.0535C429.5617,-70.8009 444.8797,-73.7691 458.8977,-76.4854"/>
<polygon fill="#191970" stroke="#191970" points="415.7786,-64.5651 405.2954,-66.0988 414.4469,-71.4373 415.7786,-64.5651"/>
</g>
<!-- Node319661 -->
<g id="node5" class="node">
<title>Node319661</title>
<g id="a_node5"><a xlink:href="quickjs_8c.html#a1a4c02a29525d5cb2085dd8bca3af350" target="_top" xlink:title="JS_Call">
<polygon fill="none" stroke="#ff0000" points="482.5,-114.5 482.5,-133.5 533.5,-133.5 533.5,-114.5 482.5,-114.5"/>
<text text-anchor="middle" x="508" y="-121.5" font-family="Helvetica,sans-Serif" font-size="10.00" fill="#000000">JS_Call</text>
</a>
</g>
</g>
<!-- Node319648&#45;&gt;Node319661 -->
<g id="edge4" class="edge">
<title>Node319648&#45;&gt;Node319661</title>
<path fill="none" stroke="#191970" d="M397.1522,-72.7244C410.3922,-80.4836 425.996,-89.4656 441,-96 458.736,-103.7242 480.4739,-109.215 494.2832,-114.4442"/>
<polygon fill="#191970" stroke="#191970" points="398.797,-69.6316 388.4001,-67.5932 395.2566,-75.6703 398.797,-69.6316"/>
</g>
<!-- Node319679 -->
<g id="node6" class="node">
<title>Node319679</title>
<g id="a_node6"><a xlink:href="quickjs_8c.html#ad35594576a14c10812efaf958c99af8a" target="_top" xlink:title="JS_CallConstructorInternal">
<polygon fill="none" stroke="#ff0000" points="441,-38.5 441,-57.5 575,-57.5 575,-38.5 441,-38.5"/>
<text text-anchor="middle" x="508" y="-45.5" font-family="Helvetica,sans-Serif" font-size="10.00" fill="#000000">JS_CallConstructorInternal</text>
</a>
</g>
</g>
<!-- Node319648&#45;&gt;Node319679 -->
<g id="edge7" class="edge">
<title>Node319648&#45;&gt;Node319679</title>
<path fill="none" stroke="#191970" d="M415.2456,-47.9166C423.5923,-47.1323 432.3371,-46.4498 440.9815,-45.9037"/>
<polygon fill="#191970" stroke="#191970" points="414.893,-44.4343 405.2954,-48.9216 415.5965,-51.3989 414.893,-44.4343"/>
</g>
<!-- Node319743 -->
<g id="node7" class="node">
<title>Node319743</title>
<g id="a_node7"><a xlink:href="quickjs_8c.html#a75f6ee5e4235a7dc99889f3d2eb2c147" target="_top" xlink:title="JS_CallFree">
<polygon fill="none" stroke="#ff0000" points="472.5,-.5 472.5,-19.5 543.5,-19.5 543.5,-.5 472.5,-.5"/>
<text text-anchor="middle" x="508" y="-7.5" font-family="Helvetica,sans-Serif" font-size="10.00" fill="#000000">JS_CallFree</text>
</a>
</g>
</g>
<!-- Node319648&#45;&gt;Node319743 -->
<g id="edge9" class="edge">
<title>Node319648&#45;&gt;Node319743</title>
<path fill="none" stroke="#191970" d="M382.0475,-43.3572C397.6539,-35.4399 420.622,-26.6897 441,-20 451.109,-16.6814 462.185,-13.3993 472.3687,-10.8862"/>
<polygon fill="#191970" stroke="#191970" points="379.9968,-40.4926 372.9562,-48.4096 383.3972,-46.6112 379.9968,-40.4926"/>
</g>
<!-- Node319661&#45;&gt;Node319647 -->
<g id="edge6" class="edge">
<title>Node319661&#45;&gt;Node319647</title>
<path fill="none" stroke="#191970" d="M472.0224,-120.2828C424.2478,-115.3466 339.678,-106.6088 286.0761,-101.0706"/>
<polygon fill="#191970" stroke="#191970" points="471.8946,-123.7881 482.2013,-121.3345 472.614,-116.8252 471.8946,-123.7881"/>
</g>
<!-- Node319661&#45;&gt;Node319648 -->
<g id="edge5" class="edge">
<title>Node319661&#45;&gt;Node319648</title>
<path fill="none" stroke="#191970" d="M472.345,-124.4207C462.0319,-121.9224 450.8934,-118.3087 441,-114 413.0117,-101.8108 382.9365,-81.1047 370.0104,-67.8734"/>
<polygon fill="#191970" stroke="#191970" points="471.7978,-127.8824 482.3061,-126.5316 473.249,-121.0344 471.7978,-127.8824"/>
</g>
<!-- Node319679&#45;&gt;Node319648 -->
<g id="edge8" class="edge">
<title>Node319679&#45;&gt;Node319648</title>
<path fill="none" stroke="#191970" d="M451.974,-58.4736C436.4439,-59.847 419.8592,-60.8579 405.2954,-61.2936"/>
<polygon fill="#191970" stroke="#191970" points="452.3714,-61.9517 461.9954,-57.5212 451.7091,-54.9831 452.3714,-61.9517"/>
</g>
<!-- Node319743&#45;&gt;Node319648 -->
<g id="edge10" class="edge">
<title>Node319743&#45;&gt;Node319648</title>
<path fill="none" stroke="#191970" d="M486.4364,-23.4284C473.2361,-28.2015 456.0468,-33.0604 441,-38 429.2616,-41.8535 416.6637,-46.3907 405.1086,-50.3761"/>
<polygon fill="#191970" stroke="#191970" points="488.043,-26.5566 496.0503,-19.6188 485.4642,-20.0488 488.043,-26.5566"/>
</g>
<!-- Node320228&#45;&gt;Node319648 -->
<g id="edge13" class="edge">
<title>Node320228&#45;&gt;Node319648</title>
<path fill="none" stroke="#191970" d="M289.0396,-58C299.9422,-58 311.3039,-58 321.7724,-58"/>
<polygon fill="#191970" stroke="#191970" points="288.7715,-54.5001 278.7714,-58 288.7714,-61.5001 288.7715,-54.5001"/>
</g>
</g>
</svg>
        <g id="navigator" transform="translate(0 0)" fill="#404254">
                <rect fill="#f2f5e9" fill-opacity="0.5" stroke="#606060" stroke-width=".5" x="0" y="0" width="60" height="60"/>
                <use id="zoomplus" xlink:href="#zoomPlus" x="17" y="9" onmousedown="handleZoom(evt,'in')"/>
                <use id="zoomminus" xlink:href="#zoomMin" x="42" y="9" onmousedown="handleZoom(evt,'out')"/>
                <use id="reset" xlink:href="#resetDef" x="30" y="36" onmousedown="handleReset()"/>
                <g id="arrowUp" xlink:href="#dirArrow" transform="translate(30 24)" onmousedown="handlePan(0,-1)">
                  <use xlink:href="#rim" fill="#404040">
                        <set attributeName="fill" to="#808080" begin="arrowUp.mouseover" end="arrowUp.mouseout"/>
                  </use>
                  <path fill="none" stroke="white" stroke-width="1.5" d="M0,-3.0v7 M-2.5,-0.5L0,-3.0L2.5,-0.5"/>
                </g>
                <g id="arrowRight" xlink:href="#dirArrow" transform="rotate(90) translate(36 -43)" onmousedown="handlePan(1,0)">
                  <use xlink:href="#rim" fill="#404040">
                        <set attributeName="fill" to="#808080" begin="arrowRight.mouseover" end="arrowRight.mouseout"/>
                  </use>
                  <path fill="none" stroke="white" stroke-width="1.5" d="M0,-3.0v7 M-2.5,-0.5L0,-3.0L2.5,-0.5"/>
                </g>
                <g id="arrowDown" xlink:href="#dirArrow" transform="rotate(180) translate(-30 -48)" onmousedown="handlePan(0,1)">
                  <use xlink:href="#rim" fill="#404040">
                        <set attributeName="fill" to="#808080" begin="arrowDown.mouseover" end="arrowDown.mouseout"/>
                  </use>
                  <path fill="none" stroke="white" stroke-width="1.5" d="M0,-3.0v7 M-2.5,-0.5L0,-3.0L2.5,-0.5"/>
                </g>
                <g id="arrowLeft" xlink:href="#dirArrow" transform="rotate(270) translate(-36 17)" onmousedown="handlePan(-1,0)">
                  <use xlink:href="#rim" fill="#404040">
                        <set attributeName="fill" to="#808080" begin="arrowLeft.mouseover" end="arrowLeft.mouseout"/>
                  </use>
                  <path fill="none" stroke="white" stroke-width="1.5" d="M0,-3.0v7 M-2.5,-0.5L0,-3.0L2.5,-0.5"/>
                </g>
        </g>
        <svg viewBox="0 0 15 15" width="100%" height="30px" preserveAspectRatio="xMaxYMin meet">
         <g id="arrow_out" transform="scale(0.3 0.3)">
          <a xlink:href="quickjs_8c_a348e00fd4b934a113cb954052ec33a13_icgraph_org.svg" target="_base">
           <rect id="button" ry="5" rx="5" y="6" x="6" height="38" width="38"
                fill="#f2f5e9" fill-opacity="0.5" stroke="#606060" stroke-width="1.0"/>
           <path id="arrow"
             d="M 11.500037,31.436501 C 11.940474,20.09759 22.043105,11.32322 32.158766,21.979434 L 37.068811,17.246167 C 37.068811,17.246167 37.088388,32 37.088388,32 L 22.160133,31.978069 C 22.160133,31.978069 26.997745,27.140456 26.997745,27.140456 C 18.528582,18.264221 13.291696,25.230495 11.500037,31.436501 z"
             style="fill:#404040;"/>
          </a>
         </g>
        </svg>
</svg>
