<?xml version="1.0" encoding="UTF-8" standalone="no"?>
<!DOCTYPE svg PUBLIC "-//W3C//DTD SVG 1.1//EN"
 "http://www.w3.org/Graphics/SVG/1.1/DTD/svg11.dtd">
<!-- Generated by graphviz version 2.40.1 (20161225.0304)
 -->
<!-- Title: js_std_promise_rejection_tracker Pages: 1 -->
<!--zoomable 252 -->
<svg id="main" version="1.1" xmlns="http://www.w3.org/2000/svg" xmlns:xlink="http://www.w3.org/1999/xlink" xml:space="preserve" onload="init(evt)">
<style type="text/css"><![CDATA[
.edge:hover path { stroke: red; }
.edge:hover polygon { stroke: red; fill: red; }
]]></style>
<script type="text/javascript"><![CDATA[
var edges = document.getElementsByTagName('g');
if (edges && edges.length) {
  for (var i=0;i<edges.length;i++) {
    if (edges[i].id.substr(0,4)=='edge') {
      edges[i].setAttribute('class','edge');
    }
  }
}
]]></script>
        <defs>
                <circle id="rim" cx="0" cy="0" r="7"/>
                <circle id="rim2" cx="0" cy="0" r="3.5"/>
                <g id="zoomPlus">
                        <use xlink:href="#rim" fill="#404040">
                                <set attributeName="fill" to="#808080" begin="zoomplus.mouseover" end="zoomplus.mouseout"/>
                        </use>
                        <path d="M-4,0h8M0,-4v8" fill="none" stroke="white" stroke-width="1.5" pointer-events="none"/>
                </g>
                <g id="zoomMin">
                        <use xlink:href="#rim" fill="#404040">
                                <set attributeName="fill" to="#808080" begin="zoomminus.mouseover" end="zoomminus.mouseout"/>
                        </use>
                        <path d="M-4,0h8" fill="none" stroke="white" stroke-width="1.5" pointer-events="none"/>
                </g>
                <g id="dirArrow">
                        <path fill="none" stroke="white" stroke-width="1.5" d="M0,-3.0v7 M-2.5,-0.5L0,-3.0L2.5,-0.5"/>
                </g>
               <g id="resetDef">
                       <use xlink:href="#rim2" fill="#404040">
                               <set attributeName="fill" to="#808080" begin="reset.mouseover" end="reset.mouseout"/>
                       </use>
               </g>
        </defs>

<script type="text/javascript">
var viewWidth = 642;
var viewHeight = 252;
var sectionId = 'dynsection-125';
</script>
<script xlink:href="svgpan.js"/>
<svg id="graph" class="graph">
<g id="viewport">
<title>js_std_promise_rejection_tracker</title>
<!-- Node34660 -->
<g id="node1" class="node">
<title>Node34660</title>
<polygon fill="#bfbfbf" stroke="#000000" points="0,-94.3938 0,-124.3938 125,-124.3938 125,-94.3938 0,-94.3938"/>
<text text-anchor="start" x="8" y="-112.3938" font-family="Helvetica,sans-Serif" font-size="10.00" fill="#000000">js_std_promise_rejection</text>
<text text-anchor="middle" x="62.5" y="-101.3938" font-family="Helvetica,sans-Serif" font-size="10.00" fill="#000000">_tracker</text>
</g>
<!-- Node34661 -->
<g id="node2" class="node">
<title>Node34661</title>
<g id="a_node2"><a xlink:href="quickjs-libc_8c.html#a6746c425dd8c307e85c6987ce7f6e770" target="_top" xlink:title="js_std_dump_error1">
<polygon fill="none" stroke="#000000" points="161,-99.8938 161,-118.8938 263,-118.8938 263,-99.8938 161,-99.8938"/>
<text text-anchor="middle" x="212" y="-106.8938" font-family="Helvetica,sans-Serif" font-size="10.00" fill="#000000">js_std_dump_error1</text>
</a>
</g>
</g>
<!-- Node34660&#45;&gt;Node34661 -->
<g id="edge1" class="edge">
<title>Node34660&#45;&gt;Node34661</title>
<path fill="none" stroke="#191970" d="M125.0352,-109.3938C133.4541,-109.3938 142.0855,-109.3938 150.4865,-109.3938"/>
<polygon fill="#191970" stroke="#191970" points="150.5898,-112.8939 160.5898,-109.3938 150.5898,-105.8939 150.5898,-112.8939"/>
</g>
<!-- Node34662 -->
<g id="node3" class="node">
<title>Node34662</title>
<g id="a_node3"><a xlink:href="quickjs_8c.html#ae0bc4f65da64810facb2cb9e476eda2e" target="_top" xlink:title="JS_FreeCString">
<polygon fill="none" stroke="#000000" points="434,-80.8938 434,-99.8938 520,-99.8938 520,-80.8938 434,-80.8938"/>
<text text-anchor="middle" x="477" y="-87.8938" font-family="Helvetica,sans-Serif" font-size="10.00" fill="#000000">JS_FreeCString</text>
</a>
</g>
</g>
<!-- Node34661&#45;&gt;Node34662 -->
<g id="edge2" class="edge">
<title>Node34661&#45;&gt;Node34662</title>
<path fill="none" stroke="#191970" d="M243.0644,-118.9664C280.3694,-129.0039 344.5947,-141.6222 398,-128.3938 415.561,-124.044 417.716,-117.2768 434,-109.3938 437.6156,-107.6435 441.4305,-105.8639 445.2342,-104.1309"/>
<polygon fill="#191970" stroke="#191970" points="446.8493,-107.2427 454.5468,-99.9627 443.9895,-100.8535 446.8493,-107.2427"/>
</g>
<!-- Node34663 -->
<g id="node4" class="node">
<title>Node34663</title>
<g id="a_node4"><a xlink:href="quickjs_8h.html#afaa20c47565bc704c6c85f3d77254e7d" target="_top" xlink:title="JS_FreeValue">
<polygon fill="none" stroke="#ff0000" points="556,-156.8938 556,-175.8938 634,-175.8938 634,-156.8938 556,-156.8938"/>
<text text-anchor="middle" x="595" y="-163.8938" font-family="Helvetica,sans-Serif" font-size="10.00" fill="#000000">JS_FreeValue</text>
</a>
</g>
</g>
<!-- Node34661&#45;&gt;Node34663 -->
<g id="edge4" class="edge">
<title>Node34661&#45;&gt;Node34663</title>
<path fill="none" stroke="#191970" d="M217.521,-118.9356C229.5107,-138.6769 260.0147,-183.8704 299,-204.3938 386.2348,-250.3176 426.5742,-254.8666 520,-223.3938 543.3207,-215.5376 565.1374,-197.2248 579.1615,-183.4615"/>
<polygon fill="#191970" stroke="#191970" points="581.975,-185.5909 586.4707,-175.9971 576.9735,-180.6934 581.975,-185.5909"/>
</g>
<!-- Node34692 -->
<g id="node5" class="node">
<title>Node34692</title>
<g id="a_node5"><a xlink:href="quickjs_8c.html#a04f589361a4fbc30d997402e92a50de2" target="_top" xlink:title="JS_GetPropertyStr">
<polygon fill="none" stroke="#000000" points="299,-175.8938 299,-194.8938 398,-194.8938 398,-175.8938 299,-175.8938"/>
<text text-anchor="middle" x="348.5" y="-182.8938" font-family="Helvetica,sans-Serif" font-size="10.00" fill="#000000">JS_GetPropertyStr</text>
</a>
</g>
</g>
<!-- Node34661&#45;&gt;Node34692 -->
<g id="edge5" class="edge">
<title>Node34661&#45;&gt;Node34692</title>
<path fill="none" stroke="#191970" d="M227.1677,-119.01C244.3467,-129.7712 273.2972,-147.5157 299,-161.3938 305.2109,-164.7473 311.9613,-168.1649 318.422,-171.3299"/>
<polygon fill="#191970" stroke="#191970" points="317.0564,-174.5571 327.5839,-175.7496 320.0978,-168.2523 317.0564,-174.5571"/>
</g>
<!-- Node35131 -->
<g id="node9" class="node">
<title>Node35131</title>
<g id="a_node9"><a xlink:href="quickjs_8c.html#afc9f16af1ddbee548aa05ae2d28dcd16" target="_top" xlink:title="JS_IsError">
<polygon fill="none" stroke="#000000" points="317,-99.8938 317,-118.8938 380,-118.8938 380,-99.8938 317,-99.8938"/>
<text text-anchor="middle" x="348.5" y="-106.8938" font-family="Helvetica,sans-Serif" font-size="10.00" fill="#000000">JS_IsError</text>
</a>
</g>
</g>
<!-- Node34661&#45;&gt;Node35131 -->
<g id="edge9" class="edge">
<title>Node34661&#45;&gt;Node35131</title>
<path fill="none" stroke="#191970" d="M263.2159,-109.3938C277.5633,-109.3938 292.9835,-109.3938 306.7132,-109.3938"/>
<polygon fill="#191970" stroke="#191970" points="306.8371,-112.8939 316.837,-109.3938 306.837,-105.8939 306.8371,-112.8939"/>
</g>
<!-- Node34757 -->
<g id="node10" class="node">
<title>Node34757</title>
<g id="a_node10"><a xlink:href="quickjs_8h.html#a4e407128a9605afb77523e49e9a627fd" target="_top" xlink:title="JS_IsUndefined">
<polygon fill="none" stroke="#000000" points="305.5,-61.8938 305.5,-80.8938 391.5,-80.8938 391.5,-61.8938 305.5,-61.8938"/>
<text text-anchor="middle" x="348.5" y="-68.8938" font-family="Helvetica,sans-Serif" font-size="10.00" fill="#000000">JS_IsUndefined</text>
</a>
</g>
</g>
<!-- Node34661&#45;&gt;Node34757 -->
<g id="edge10" class="edge">
<title>Node34661&#45;&gt;Node34757</title>
<path fill="none" stroke="#191970" d="M246.4447,-99.8048C263.9847,-94.9218 285.51,-88.9295 304.2631,-83.7088"/>
<polygon fill="#191970" stroke="#191970" points="305.3713,-87.0335 314.0663,-80.9797 303.494,-80.2899 305.3713,-87.0335"/>
</g>
<!-- Node35132 -->
<g id="node11" class="node">
<title>Node35132</title>
<g id="a_node11"><a xlink:href="quickjs-libc_8c.html#a26a501e5bf41a733d365f221143ff3d5" target="_top" xlink:title="js_print">
<polygon fill="none" stroke="#000000" points="324.5,-23.8938 324.5,-42.8938 372.5,-42.8938 372.5,-23.8938 324.5,-23.8938"/>
<text text-anchor="middle" x="348.5" y="-30.8938" font-family="Helvetica,sans-Serif" font-size="10.00" fill="#000000">js_print</text>
</a>
</g>
</g>
<!-- Node34661&#45;&gt;Node35132 -->
<g id="edge11" class="edge">
<title>Node34661&#45;&gt;Node35132</title>
<path fill="none" stroke="#191970" d="M224.737,-99.7939C241.2386,-87.6571 271.1944,-66.6319 299,-52.3938 304.0184,-49.824 309.4691,-47.3963 314.8578,-45.1898"/>
<polygon fill="#191970" stroke="#191970" points="316.3395,-48.3687 324.3839,-41.4739 313.7957,-41.8473 316.3395,-48.3687"/>
</g>
<!-- Node34823 -->
<g id="node12" class="node">
<title>Node34823</title>
<g id="a_node12"><a xlink:href="quickjs_8h.html#af931f06630ab719b5f82a16eb27effd1" target="_top" xlink:title="JS_ToCString">
<polygon fill="none" stroke="#ff0000" points="438,-4.8938 438,-23.8938 516,-23.8938 516,-4.8938 438,-4.8938"/>
<text text-anchor="middle" x="477" y="-11.8938" font-family="Helvetica,sans-Serif" font-size="10.00" fill="#000000">JS_ToCString</text>
</a>
</g>
</g>
<!-- Node34661&#45;&gt;Node34823 -->
<g id="edge14" class="edge">
<title>Node34661&#45;&gt;Node34823</title>
<path fill="none" stroke="#191970" d="M217.1327,-99.7214C228.5917,-79.3071 258.4716,-32.2338 299,-14.3938 339.5895,3.4732 390.6079,1.3085 427.6076,-4.0439"/>
<polygon fill="#191970" stroke="#191970" points="427.2289,-7.5273 437.6513,-5.624 428.3168,-.6123 427.2289,-7.5273"/>
</g>
<!-- Node34662&#45;&gt;Node34663 -->
<g id="edge3" class="edge">
<title>Node34662&#45;&gt;Node34663</title>
<path fill="none" stroke="#191970" d="M501.6021,-100.0817C507.7524,-102.822 514.2357,-105.9934 520,-109.3938 540.2533,-121.3414 561.4147,-137.8488 576.0753,-150.0251"/>
<polygon fill="#191970" stroke="#191970" points="573.9999,-152.8534 583.9,-156.6267 578.5138,-147.5032 573.9999,-152.8534"/>
</g>
<!-- Node34693 -->
<g id="node6" class="node">
<title>Node34693</title>
<g id="a_node6"><a xlink:href="quickjs_8c.html#aa2ef5af1544a3012f91a80c98c326b8f" target="_top" xlink:title="JS_NewAtom">
<polygon fill="none" stroke="#ff0000" points="438.5,-194.8938 438.5,-213.8938 515.5,-213.8938 515.5,-194.8938 438.5,-194.8938"/>
<text text-anchor="middle" x="477" y="-201.8938" font-family="Helvetica,sans-Serif" font-size="10.00" fill="#000000">JS_NewAtom</text>
</a>
</g>
</g>
<!-- Node34692&#45;&gt;Node34693 -->
<g id="edge6" class="edge">
<title>Node34692&#45;&gt;Node34693</title>
<path fill="none" stroke="#191970" d="M398.1815,-192.7397C408.0358,-194.1967 418.3728,-195.7252 428.1976,-197.1779"/>
<polygon fill="#191970" stroke="#191970" points="427.8044,-200.6577 438.2088,-198.6581 428.8284,-193.733 427.8044,-200.6577"/>
</g>
<!-- Node34740 -->
<g id="node7" class="node">
<title>Node34740</title>
<g id="a_node7"><a xlink:href="quickjs_8h.html#a89b7c8686c7eee70b86be722ee4730ad" target="_top" xlink:title="JS_GetProperty">
<polygon fill="none" stroke="#ff0000" points="434,-156.8938 434,-175.8938 520,-175.8938 520,-156.8938 434,-156.8938"/>
<text text-anchor="middle" x="477" y="-163.8938" font-family="Helvetica,sans-Serif" font-size="10.00" fill="#000000">JS_GetProperty</text>
</a>
</g>
</g>
<!-- Node34692&#45;&gt;Node34740 -->
<g id="edge7" class="edge">
<title>Node34692&#45;&gt;Node34740</title>
<path fill="none" stroke="#191970" d="M398.1815,-178.0479C406.5163,-176.8155 415.1964,-175.5321 423.6198,-174.2866"/>
<polygon fill="#191970" stroke="#191970" points="424.3462,-177.7173 433.7267,-172.7922 423.3222,-170.7926 424.3462,-177.7173"/>
</g>
<!-- Node34899 -->
<g id="node8" class="node">
<title>Node34899</title>
<g id="a_node8"><a xlink:href="quickjs_8c.html#ab7fc45a99935a1c0ba50b0216d9401a9" target="_top" xlink:title="JS_FreeAtom">
<polygon fill="none" stroke="#ff0000" points="438.5,-118.8938 438.5,-137.8938 515.5,-137.8938 515.5,-118.8938 438.5,-118.8938"/>
<text text-anchor="middle" x="477" y="-125.8938" font-family="Helvetica,sans-Serif" font-size="10.00" fill="#000000">JS_FreeAtom</text>
</a>
</g>
</g>
<!-- Node34692&#45;&gt;Node34899 -->
<g id="edge8" class="edge">
<title>Node34692&#45;&gt;Node34899</title>
<path fill="none" stroke="#191970" d="M369.9283,-175.8548C387.2181,-168.1617 412.1692,-157.0681 434,-147.3938 437.8614,-145.6826 441.9189,-143.8868 445.9352,-142.1105"/>
<polygon fill="#191970" stroke="#191970" points="447.3894,-145.2945 455.1208,-138.0504 444.5594,-138.8921 447.3894,-145.2945"/>
</g>
<!-- Node35132&#45;&gt;Node34662 -->
<g id="edge12" class="edge">
<title>Node35132&#45;&gt;Node34662</title>
<path fill="none" stroke="#191970" d="M372.578,-42.183C380.7098,-45.2711 389.8019,-48.8558 398,-52.3938 415.0796,-59.7648 433.8585,-68.7596 448.8206,-76.1473"/>
<polygon fill="#191970" stroke="#191970" points="447.5333,-79.4161 458.0455,-80.7369 450.6514,-73.1489 447.5333,-79.4161"/>
</g>
<!-- Node35132&#45;&gt;Node34823 -->
<g id="edge13" class="edge">
<title>Node35132&#45;&gt;Node34823</title>
<path fill="none" stroke="#191970" d="M372.6699,-29.82C388.1996,-27.5238 408.931,-24.4585 427.8205,-21.6655"/>
<polygon fill="#191970" stroke="#191970" points="428.4053,-25.1171 437.7858,-20.192 427.3814,-18.1924 428.4053,-25.1171"/>
</g>
</g>
</svg>
        <g id="navigator" transform="translate(0 0)" fill="#404254">
                <rect fill="#f2f5e9" fill-opacity="0.5" stroke="#606060" stroke-width=".5" x="0" y="0" width="60" height="60"/>
                <use id="zoomplus" xlink:href="#zoomPlus" x="17" y="9" onmousedown="handleZoom(evt,'in')"/>
                <use id="zoomminus" xlink:href="#zoomMin" x="42" y="9" onmousedown="handleZoom(evt,'out')"/>
                <use id="reset" xlink:href="#resetDef" x="30" y="36" onmousedown="handleReset()"/>
                <g id="arrowUp" xlink:href="#dirArrow" transform="translate(30 24)" onmousedown="handlePan(0,-1)">
                  <use xlink:href="#rim" fill="#404040">
                        <set attributeName="fill" to="#808080" begin="arrowUp.mouseover" end="arrowUp.mouseout"/>
                  </use>
                  <path fill="none" stroke="white" stroke-width="1.5" d="M0,-3.0v7 M-2.5,-0.5L0,-3.0L2.5,-0.5"/>
                </g>
                <g id="arrowRight" xlink:href="#dirArrow" transform="rotate(90) translate(36 -43)" onmousedown="handlePan(1,0)">
                  <use xlink:href="#rim" fill="#404040">
                        <set attributeName="fill" to="#808080" begin="arrowRight.mouseover" end="arrowRight.mouseout"/>
                  </use>
                  <path fill="none" stroke="white" stroke-width="1.5" d="M0,-3.0v7 M-2.5,-0.5L0,-3.0L2.5,-0.5"/>
                </g>
                <g id="arrowDown" xlink:href="#dirArrow" transform="rotate(180) translate(-30 -48)" onmousedown="handlePan(0,1)">
                  <use xlink:href="#rim" fill="#404040">
                        <set attributeName="fill" to="#808080" begin="arrowDown.mouseover" end="arrowDown.mouseout"/>
                  </use>
                  <path fill="none" stroke="white" stroke-width="1.5" d="M0,-3.0v7 M-2.5,-0.5L0,-3.0L2.5,-0.5"/>
                </g>
                <g id="arrowLeft" xlink:href="#dirArrow" transform="rotate(270) translate(-36 17)" onmousedown="handlePan(-1,0)">
                  <use xlink:href="#rim" fill="#404040">
                        <set attributeName="fill" to="#808080" begin="arrowLeft.mouseover" end="arrowLeft.mouseout"/>
                  </use>
                  <path fill="none" stroke="white" stroke-width="1.5" d="M0,-3.0v7 M-2.5,-0.5L0,-3.0L2.5,-0.5"/>
                </g>
        </g>
        <svg viewBox="0 0 15 15" width="100%" height="30px" preserveAspectRatio="xMaxYMin meet">
         <g id="arrow_out" transform="scale(0.3 0.3)">
          <a xlink:href="quickjs-libc_8c_aecbca056dde897142bf11bb90347c524_cgraph_org.svg" target="_base">
           <rect id="button" ry="5" rx="5" y="6" x="6" height="38" width="38"
                fill="#f2f5e9" fill-opacity="0.5" stroke="#606060" stroke-width="1.0"/>
           <path id="arrow"
             d="M 11.500037,31.436501 C 11.940474,20.09759 22.043105,11.32322 32.158766,21.979434 L 37.068811,17.246167 C 37.068811,17.246167 37.088388,32 37.088388,32 L 22.160133,31.978069 C 22.160133,31.978069 26.997745,27.140456 26.997745,27.140456 C 18.528582,18.264221 13.291696,25.230495 11.500037,31.436501 z"
             style="fill:#404040;"/>
          </a>
         </g>
        </svg>
</svg>
