<?xml version="1.0" encoding="UTF-8" standalone="no"?>
<!DOCTYPE svg PUBLIC "-//W3C//DTD SVG 1.1//EN"
 "http://www.w3.org/Graphics/SVG/1.1/DTD/svg11.dtd">
<!-- Generated by graphviz version 2.40.1 (20161225.0304)
 -->
<!-- Title: js_std_error_constructor Pages: 1 -->
<svg width="590pt" height="208pt"
 viewBox="0.00 0.00 590.00 208.00" xmlns="http://www.w3.org/2000/svg" xmlns:xlink="http://www.w3.org/1999/xlink">
<g id="graph0" class="graph" transform="scale(1 1) rotate(0) translate(4 204)">
<title>js_std_error_constructor</title>
<!-- Node3885 -->
<g id="node1" class="node">
<title>Node3885</title>
<polygon fill="#bfbfbf" stroke="#000000" points="0,-38.5 0,-57.5 122,-57.5 122,-38.5 0,-38.5"/>
<text text-anchor="middle" x="61" y="-45.5" font-family="Helvetica,sans-Serif" font-size="10.00" fill="#000000">js_std_error_constructor</text>
</g>
<!-- Node3886 -->
<g id="node2" class="node">
<title>Node3886</title>
<g id="a_node2"><a xlink:href="quickjs-libc_8c.html#a980a3e92299b994c60d696fc295edf11" target="_top" xlink:title="js_new_std_error">
<polygon fill="none" stroke="#000000" points="158,-57.5 158,-76.5 249,-76.5 249,-57.5 158,-57.5"/>
<text text-anchor="middle" x="203.5" y="-64.5" font-family="Helvetica,sans-Serif" font-size="10.00" fill="#000000">js_new_std_error</text>
</a>
</g>
</g>
<!-- Node3885&#45;&gt;Node3886 -->
<g id="edge1" class="edge">
<title>Node3885&#45;&gt;Node3886</title>
<path fill="none" stroke="#191970" d="M122.2598,-56.168C130.7332,-57.2978 139.3989,-58.4532 147.7647,-59.5686"/>
<polygon fill="#191970" stroke="#191970" points="147.4124,-63.0525 157.7873,-60.905 148.3376,-56.114 147.4124,-63.0525"/>
</g>
<!-- Node4182 -->
<g id="node11" class="node">
<title>Node4182</title>
<g id="a_node11"><a xlink:href="quickjs_8c.html#a4073bd2b4f247bf6077cd956759193b9" target="_top" xlink:title="JS_ToInt32">
<polygon fill="none" stroke="#ff0000" points="170,-19.5 170,-38.5 237,-38.5 237,-19.5 170,-19.5"/>
<text text-anchor="middle" x="203.5" y="-26.5" font-family="Helvetica,sans-Serif" font-size="10.00" fill="#000000">JS_ToInt32</text>
</a>
</g>
</g>
<!-- Node3885&#45;&gt;Node4182 -->
<g id="edge10" class="edge">
<title>Node3885&#45;&gt;Node4182</title>
<path fill="none" stroke="#191970" d="M122.2598,-39.832C134.8621,-38.1517 147.8897,-36.4147 159.7234,-34.8369"/>
<polygon fill="#191970" stroke="#191970" points="160.325,-38.2877 169.7746,-33.4967 159.3997,-31.3491 160.325,-38.2877"/>
</g>
<!-- Node3887 -->
<g id="node3" class="node">
<title>Node3887</title>
<g id="a_node3"><a xlink:href="quickjs_8c.html#a841f4cb887e4d9e03e94a0697255e578" target="_top" xlink:title="JS_DefinePropertyValueStr">
<polygon fill="none" stroke="#000000" points="285,-123.5 285,-142.5 422,-142.5 422,-123.5 285,-123.5"/>
<text text-anchor="middle" x="353.5" y="-130.5" font-family="Helvetica,sans-Serif" font-size="10.00" fill="#000000">JS_DefinePropertyValueStr</text>
</a>
</g>
</g>
<!-- Node3886&#45;&gt;Node3887 -->
<g id="edge2" class="edge">
<title>Node3886&#45;&gt;Node3887</title>
<path fill="none" stroke="#191970" d="M223.4733,-76.6411C239.8978,-84.4897 263.8296,-95.7442 285,-105 296.2897,-109.9359 308.7344,-115.1033 319.8842,-119.636"/>
<polygon fill="#191970" stroke="#191970" points="318.7045,-122.9342 329.2876,-123.4341 321.3262,-116.4437 318.7045,-122.9342"/>
</g>
<!-- Node4302 -->
<g id="node7" class="node">
<title>Node4302</title>
<g id="a_node7"><a xlink:href="quickjs_8c.html#a06af1db79158e3c5a51f04bb6749411c" target="_top" xlink:title="JS_NewError">
<polygon fill="none" stroke="#000000" points="316,-76.5 316,-95.5 391,-95.5 391,-76.5 316,-76.5"/>
<text text-anchor="middle" x="353.5" y="-83.5" font-family="Helvetica,sans-Serif" font-size="10.00" fill="#000000">JS_NewError</text>
</a>
</g>
</g>
<!-- Node3886&#45;&gt;Node4302 -->
<g id="edge6" class="edge">
<title>Node3886&#45;&gt;Node4302</title>
<path fill="none" stroke="#191970" d="M249.32,-72.8039C267.1201,-75.0585 287.5182,-77.6423 305.5193,-79.9224"/>
<polygon fill="#191970" stroke="#191970" points="305.1609,-83.4049 315.5214,-81.1894 306.0406,-76.4604 305.1609,-83.4049"/>
</g>
<!-- Node4009 -->
<g id="node9" class="node">
<title>Node4009</title>
<g id="a_node9"><a xlink:href="quickjs_8h.html#a2050bc428da1c65ac7eb87c3fa3b0392" target="_top" xlink:title="JS_NewInt32">
<polygon fill="none" stroke="#000000" points="315.5,-38.5 315.5,-57.5 391.5,-57.5 391.5,-38.5 315.5,-38.5"/>
<text text-anchor="middle" x="353.5" y="-45.5" font-family="Helvetica,sans-Serif" font-size="10.00" fill="#000000">JS_NewInt32</text>
</a>
</g>
</g>
<!-- Node3886&#45;&gt;Node4009 -->
<g id="edge8" class="edge">
<title>Node3886&#45;&gt;Node4009</title>
<path fill="none" stroke="#191970" d="M249.32,-61.1961C266.9754,-58.9598 287.1867,-56.3997 305.0798,-54.1332"/>
<polygon fill="#191970" stroke="#191970" points="305.5487,-57.6019 315.0296,-52.8729 304.669,-50.6574 305.5487,-57.6019"/>
</g>
<!-- Node3901 -->
<g id="node10" class="node">
<title>Node3901</title>
<g id="a_node10"><a xlink:href="quickjs_8c.html#a0ee6a3654a6016393fac5e1c108f403a" target="_top" xlink:title="JS_NewString">
<polygon fill="none" stroke="#ff0000" points="313.5,-.5 313.5,-19.5 393.5,-19.5 393.5,-.5 313.5,-.5"/>
<text text-anchor="middle" x="353.5" y="-7.5" font-family="Helvetica,sans-Serif" font-size="10.00" fill="#000000">JS_NewString</text>
</a>
</g>
</g>
<!-- Node3886&#45;&gt;Node3901 -->
<g id="edge9" class="edge">
<title>Node3886&#45;&gt;Node3901</title>
<path fill="none" stroke="#191970" d="M227.7637,-57.3426C234.6806,-54.4618 242.1863,-51.2127 249,-48 265.3639,-40.2843 268.1862,-35.6786 285,-29 290.9463,-26.6381 297.2935,-24.4536 303.6354,-22.4715"/>
<polygon fill="#191970" stroke="#191970" points="304.9507,-25.7319 313.5384,-19.527 302.9556,-19.0223 304.9507,-25.7319"/>
</g>
<!-- Node3888 -->
<g id="node4" class="node">
<title>Node3888</title>
<g id="a_node4"><a xlink:href="quickjs_8c.html#aa2ef5af1544a3012f91a80c98c326b8f" target="_top" xlink:title="JS_NewAtom">
<polygon fill="none" stroke="#ff0000" points="481.5,-180.5 481.5,-199.5 558.5,-199.5 558.5,-180.5 481.5,-180.5"/>
<text text-anchor="middle" x="520" y="-187.5" font-family="Helvetica,sans-Serif" font-size="10.00" fill="#000000">JS_NewAtom</text>
</a>
</g>
</g>
<!-- Node3887&#45;&gt;Node3888 -->
<g id="edge3" class="edge">
<title>Node3887&#45;&gt;Node3888</title>
<path fill="none" stroke="#191970" d="M378.7119,-142.5802C399.7987,-150.4934 430.7242,-161.8681 458,-171 464.4554,-173.1612 471.3203,-175.3616 478.0412,-177.4619"/>
<polygon fill="#191970" stroke="#191970" points="477.133,-180.8445 487.7205,-180.4515 479.1988,-174.1562 477.133,-180.8445"/>
</g>
<!-- Node3939 -->
<g id="node5" class="node">
<title>Node3939</title>
<g id="a_node5"><a xlink:href="quickjs_8c.html#a0a8765bd4012467d9139bc24aabcb3ca" target="_top" xlink:title="JS_DefinePropertyValue">
<polygon fill="none" stroke="#ff0000" points="458,-142.5 458,-161.5 582,-161.5 582,-142.5 458,-142.5"/>
<text text-anchor="middle" x="520" y="-149.5" font-family="Helvetica,sans-Serif" font-size="10.00" fill="#000000">JS_DefinePropertyValue</text>
</a>
</g>
</g>
<!-- Node3887&#45;&gt;Node3939 -->
<g id="edge4" class="edge">
<title>Node3887&#45;&gt;Node3939</title>
<path fill="none" stroke="#191970" d="M422.1832,-140.8377C430.682,-141.8076 439.3898,-142.8012 447.9374,-143.7766"/>
<polygon fill="#191970" stroke="#191970" points="447.5434,-147.2543 457.8758,-144.9107 448.3371,-140.2994 447.5434,-147.2543"/>
</g>
<!-- Node4068 -->
<g id="node6" class="node">
<title>Node4068</title>
<g id="a_node6"><a xlink:href="quickjs_8c.html#ab7fc45a99935a1c0ba50b0216d9401a9" target="_top" xlink:title="JS_FreeAtom">
<polygon fill="none" stroke="#ff0000" points="481.5,-104.5 481.5,-123.5 558.5,-123.5 558.5,-104.5 481.5,-104.5"/>
<text text-anchor="middle" x="520" y="-111.5" font-family="Helvetica,sans-Serif" font-size="10.00" fill="#000000">JS_FreeAtom</text>
</a>
</g>
</g>
<!-- Node3887&#45;&gt;Node4068 -->
<g id="edge5" class="edge">
<title>Node3887&#45;&gt;Node4068</title>
<path fill="none" stroke="#191970" d="M422.1832,-125.1623C438.6321,-123.2852 455.8641,-121.3188 471.2017,-119.5686"/>
<polygon fill="#191970" stroke="#191970" points="471.9459,-123.0065 481.4845,-118.3952 471.1522,-116.0516 471.9459,-123.0065"/>
</g>
<!-- Node4046 -->
<g id="node8" class="node">
<title>Node4046</title>
<g id="a_node8"><a xlink:href="quickjs_8c.html#a659dc0db7e440fd6eb012d613627faa3" target="_top" xlink:title="JS_NewObjectClass">
<polygon fill="none" stroke="#ff0000" points="466,-66.5 466,-85.5 574,-85.5 574,-66.5 466,-66.5"/>
<text text-anchor="middle" x="520" y="-73.5" font-family="Helvetica,sans-Serif" font-size="10.00" fill="#000000">JS_NewObjectClass</text>
</a>
</g>
</g>
<!-- Node4302&#45;&gt;Node4046 -->
<g id="edge7" class="edge">
<title>Node4302&#45;&gt;Node4046</title>
<path fill="none" stroke="#191970" d="M391.2814,-83.7308C410.332,-82.5867 433.9649,-81.1673 455.7611,-79.8582"/>
<polygon fill="#191970" stroke="#191970" points="456.1809,-83.3394 465.953,-79.2461 455.7611,-76.352 456.1809,-83.3394"/>
</g>
</g>
</svg>
