<?xml version="1.0" encoding="UTF-8" standalone="no"?>
<!DOCTYPE svg PUBLIC "-//W3C//DTD SVG 1.1//EN"
 "http://www.w3.org/Graphics/SVG/1.1/DTD/svg11.dtd">
<!-- Generated by graphviz version 2.40.1 (20161225.0304)
 -->
<!-- Title: js_os_return Pages: 1 -->
<!--zoomable 150 -->
<svg id="main" version="1.1" xmlns="http://www.w3.org/2000/svg" xmlns:xlink="http://www.w3.org/1999/xlink" xml:space="preserve" onload="init(evt)">
<style type="text/css"><![CDATA[
.edge:hover path { stroke: red; }
.edge:hover polygon { stroke: red; fill: red; }
]]></style>
<script type="text/javascript"><![CDATA[
var edges = document.getElementsByTagName('g');
if (edges && edges.length) {
  for (var i=0;i<edges.length;i++) {
    if (edges[i].id.substr(0,4)=='edge') {
      edges[i].setAttribute('class','edge');
    }
  }
}
]]></script>
        <defs>
                <circle id="rim" cx="0" cy="0" r="7"/>
                <circle id="rim2" cx="0" cy="0" r="3.5"/>
                <g id="zoomPlus">
                        <use xlink:href="#rim" fill="#404040">
                                <set attributeName="fill" to="#808080" begin="zoomplus.mouseover" end="zoomplus.mouseout"/>
                        </use>
                        <path d="M-4,0h8M0,-4v8" fill="none" stroke="white" stroke-width="1.5" pointer-events="none"/>
                </g>
                <g id="zoomMin">
                        <use xlink:href="#rim" fill="#404040">
                                <set attributeName="fill" to="#808080" begin="zoomminus.mouseover" end="zoomminus.mouseout"/>
                        </use>
                        <path d="M-4,0h8" fill="none" stroke="white" stroke-width="1.5" pointer-events="none"/>
                </g>
                <g id="dirArrow">
                        <path fill="none" stroke="white" stroke-width="1.5" d="M0,-3.0v7 M-2.5,-0.5L0,-3.0L2.5,-0.5"/>
                </g>
               <g id="resetDef">
                       <use xlink:href="#rim2" fill="#404040">
                               <set attributeName="fill" to="#808080" begin="reset.mouseover" end="reset.mouseout"/>
                       </use>
               </g>
        </defs>

<script type="text/javascript">
var viewWidth = 539;
var viewHeight = 150;
var sectionId = 'dynsection-60';
</script>
<script xlink:href="svgpan.js"/>
<svg id="graph" class="graph">
<g id="viewport">
<title>js_os_return</title>
<!-- Node16903 -->
<g id="node1" class="node">
<title>Node16903</title>
<polygon fill="#bfbfbf" stroke="#000000" points="0,-76.5 0,-95.5 70,-95.5 70,-76.5 0,-76.5"/>
<text text-anchor="middle" x="35" y="-83.5" font-family="Helvetica,sans-Serif" font-size="10.00" fill="#000000">js_os_return</text>
</g>
<!-- Node16904 -->
<g id="node2" class="node">
<title>Node16904</title>
<g id="a_node2"><a xlink:href="quickjs_8c.html#acfced0527a056a74dd8439904b7936dd" target="_top" xlink:title="JS_NewInt64">
<polygon fill="none" stroke="#000000" points="106,-76.5 106,-95.5 182,-95.5 182,-76.5 106,-76.5"/>
<text text-anchor="middle" x="144" y="-83.5" font-family="Helvetica,sans-Serif" font-size="10.00" fill="#000000">JS_NewInt64</text>
</a>
</g>
</g>
<!-- Node16903&#45;&gt;Node16904 -->
<g id="edge1" class="edge">
<title>Node16903&#45;&gt;Node16904</title>
<path fill="none" stroke="#191970" d="M70.0883,-86C78.3188,-86 87.2288,-86 95.918,-86"/>
<polygon fill="#191970" stroke="#191970" points="95.9632,-89.5001 105.9632,-86 95.9631,-82.5001 95.9632,-89.5001"/>
</g>
<!-- Node16905 -->
<g id="node3" class="node">
<title>Node16905</title>
<g id="a_node3"><a xlink:href="quickjs_8h.html#a2050bc428da1c65ac7eb87c3fa3b0392" target="_top" xlink:title="JS_NewInt32">
<polygon fill="none" stroke="#000000" points="455,-104.5 455,-123.5 531,-123.5 531,-104.5 455,-104.5"/>
<text text-anchor="middle" x="493" y="-111.5" font-family="Helvetica,sans-Serif" font-size="10.00" fill="#000000">JS_NewInt32</text>
</a>
</g>
</g>
<!-- Node16904&#45;&gt;Node16905 -->
<g id="edge2" class="edge">
<title>Node16904&#45;&gt;Node16905</title>
<path fill="none" stroke="#191970" d="M159.5227,-95.552C174.0692,-104.0086 196.7052,-115.9243 218,-122 304.0582,-146.5536 330.2859,-145.7771 419,-134 430.8361,-132.4287 443.465,-129.5023 454.8772,-126.3636"/>
<polygon fill="#191970" stroke="#191970" points="455.902,-129.7108 464.5424,-123.5794 453.9643,-122.9843 455.902,-129.7108"/>
</g>
<!-- Node16906 -->
<g id="node4" class="node">
<title>Node16906</title>
<g id="a_node4"><a xlink:href="quickjs_8c.html#aaaa960ff4bdf4b4dd3017b555844c397" target="_top" xlink:title="is_bigint_mode">
<polygon fill="none" stroke="#000000" points="335.5,-105.5 335.5,-124.5 417.5,-124.5 417.5,-105.5 335.5,-105.5"/>
<text text-anchor="middle" x="376.5" y="-112.5" font-family="Helvetica,sans-Serif" font-size="10.00" fill="#000000">is_bigint_mode</text>
</a>
</g>
</g>
<!-- Node16904&#45;&gt;Node16906 -->
<g id="edge3" class="edge">
<title>Node16904&#45;&gt;Node16906</title>
<path fill="none" stroke="#191970" d="M175.7781,-95.5593C188.7551,-99.0949 203.9825,-102.7786 218,-105 253.4764,-110.6221 293.8913,-113.1119 325.0317,-114.2013"/>
<polygon fill="#191970" stroke="#191970" points="325.1117,-117.7054 335.2162,-114.5196 325.3304,-110.7089 325.1117,-117.7054"/>
</g>
<!-- Node16907 -->
<g id="node5" class="node">
<title>Node16907</title>
<g id="a_node5"><a xlink:href="libbf_8h.html#abacc1410890af049e02ebd788364ac48" target="_top" xlink:title="bf_init">
<polygon fill="none" stroke="#000000" points="236.5,-76.5 236.5,-95.5 279.5,-95.5 279.5,-76.5 236.5,-76.5"/>
<text text-anchor="middle" x="258" y="-83.5" font-family="Helvetica,sans-Serif" font-size="10.00" fill="#000000">bf_init</text>
</a>
</g>
</g>
<!-- Node16904&#45;&gt;Node16907 -->
<g id="edge4" class="edge">
<title>Node16904&#45;&gt;Node16907</title>
<path fill="none" stroke="#191970" d="M182.2775,-86C196.4665,-86 212.3968,-86 225.9718,-86"/>
<polygon fill="#191970" stroke="#191970" points="226.2755,-89.5001 236.2755,-86 226.2754,-82.5001 226.2755,-89.5001"/>
</g>
<!-- Node16908 -->
<g id="node6" class="node">
<title>Node16908</title>
<g id="a_node6"><a xlink:href="libbf_8h.html#a60ee3eaad83309aaf8a8b8fb81d8b44d" target="_top" xlink:title="bf_set_si">
<polygon fill="none" stroke="#000000" points="230,-.5 230,-19.5 286,-19.5 286,-.5 230,-.5"/>
<text text-anchor="middle" x="258" y="-7.5" font-family="Helvetica,sans-Serif" font-size="10.00" fill="#000000">bf_set_si</text>
</a>
</g>
</g>
<!-- Node16904&#45;&gt;Node16908 -->
<g id="edge5" class="edge">
<title>Node16904&#45;&gt;Node16908</title>
<path fill="none" stroke="#191970" d="M154.9922,-76.3247C168.9892,-64.2967 194.2194,-43.5767 218,-29 220.6669,-27.3653 223.4965,-25.7702 226.3697,-24.2435"/>
<polygon fill="#191970" stroke="#191970" points="228.1832,-27.2495 235.5501,-19.635 225.0427,-20.9935 228.1832,-27.2495"/>
</g>
<!-- Node16914 -->
<g id="node8" class="node">
<title>Node16914</title>
<g id="a_node8"><a xlink:href="quickjs_8c.html#aece934cd3d738b1562b8cf5fe5ce9b67" target="_top" xlink:title="JS_NewBigInt">
<polygon fill="none" stroke="#000000" points="218,-38.5 218,-57.5 298,-57.5 298,-38.5 218,-38.5"/>
<text text-anchor="middle" x="258" y="-45.5" font-family="Helvetica,sans-Serif" font-size="10.00" fill="#000000">JS_NewBigInt</text>
</a>
</g>
</g>
<!-- Node16904&#45;&gt;Node16914 -->
<g id="edge7" class="edge">
<title>Node16904&#45;&gt;Node16914</title>
<path fill="none" stroke="#191970" d="M172.767,-76.411C186.9433,-71.6856 204.2366,-65.9211 219.5322,-60.8226"/>
<polygon fill="#191970" stroke="#191970" points="220.8622,-64.0687 229.2422,-57.5859 218.6485,-57.4279 220.8622,-64.0687"/>
</g>
<!-- Node16909 -->
<g id="node7" class="node">
<title>Node16909</title>
<g id="a_node7"><a xlink:href="libbf_8h.html#a2378f025beace5741c19bf995c2971d3" target="_top" xlink:title="bf_set_ui">
<polygon fill="none" stroke="#ff0000" points="348.5,-.5 348.5,-19.5 404.5,-19.5 404.5,-.5 348.5,-.5"/>
<text text-anchor="middle" x="376.5" y="-7.5" font-family="Helvetica,sans-Serif" font-size="10.00" fill="#000000">bf_set_ui</text>
</a>
</g>
</g>
<!-- Node16908&#45;&gt;Node16909 -->
<g id="edge6" class="edge">
<title>Node16908&#45;&gt;Node16909</title>
<path fill="none" stroke="#191970" d="M286.0828,-10C301.6127,-10 321.136,-10 338.063,-10"/>
<polygon fill="#191970" stroke="#191970" points="338.2081,-13.5001 348.2081,-10 338.208,-6.5001 338.2081,-13.5001"/>
</g>
<!-- Node16914&#45;&gt;Node16906 -->
<g id="edge10" class="edge">
<title>Node16914&#45;&gt;Node16906</title>
<path fill="none" stroke="#191970" d="M279.3827,-57.6473C285.4643,-60.5279 292.0502,-63.7795 298,-67 316.8467,-77.2015 337.4985,-89.8929 352.8875,-99.6629"/>
<polygon fill="#191970" stroke="#191970" points="351.4169,-102.8771 361.7262,-105.3203 355.1906,-96.9814 351.4169,-102.8771"/>
</g>
<!-- Node16915 -->
<g id="node9" class="node">
<title>Node16915</title>
<g id="a_node9"><a xlink:href="quickjs_8c.html#a98d62298f0edd475682572d2d1c2fbc2" target="_top" xlink:title="JS_NewBigInt2">
<polygon fill="none" stroke="#ff0000" points="334,-57.5 334,-76.5 419,-76.5 419,-57.5 334,-57.5"/>
<text text-anchor="middle" x="376.5" y="-64.5" font-family="Helvetica,sans-Serif" font-size="10.00" fill="#000000">JS_NewBigInt2</text>
</a>
</g>
</g>
<!-- Node16914&#45;&gt;Node16915 -->
<g id="edge8" class="edge">
<title>Node16914&#45;&gt;Node16915</title>
<path fill="none" stroke="#191970" d="M298.1187,-54.4325C306.4194,-55.7634 315.2813,-57.1843 323.9494,-58.5742"/>
<polygon fill="#191970" stroke="#191970" points="323.5627,-62.0568 333.9908,-60.1842 324.671,-55.1451 323.5627,-62.0568"/>
</g>
<!-- Node16915&#45;&gt;Node16905 -->
<g id="edge9" class="edge">
<title>Node16915&#45;&gt;Node16905</title>
<path fill="none" stroke="#191970" d="M400.0755,-76.5112C417.1743,-83.4094 440.5403,-92.836 459.5637,-100.5107"/>
<polygon fill="#191970" stroke="#191970" points="458.4764,-103.8461 469.0597,-104.3417 461.0954,-97.3545 458.4764,-103.8461"/>
</g>
</g>
</svg>
        <g id="navigator" transform="translate(0 0)" fill="#404254">
                <rect fill="#f2f5e9" fill-opacity="0.5" stroke="#606060" stroke-width=".5" x="0" y="0" width="60" height="60"/>
                <use id="zoomplus" xlink:href="#zoomPlus" x="17" y="9" onmousedown="handleZoom(evt,'in')"/>
                <use id="zoomminus" xlink:href="#zoomMin" x="42" y="9" onmousedown="handleZoom(evt,'out')"/>
                <use id="reset" xlink:href="#resetDef" x="30" y="36" onmousedown="handleReset()"/>
                <g id="arrowUp" xlink:href="#dirArrow" transform="translate(30 24)" onmousedown="handlePan(0,-1)">
                  <use xlink:href="#rim" fill="#404040">
                        <set attributeName="fill" to="#808080" begin="arrowUp.mouseover" end="arrowUp.mouseout"/>
                  </use>
                  <path fill="none" stroke="white" stroke-width="1.5" d="M0,-3.0v7 M-2.5,-0.5L0,-3.0L2.5,-0.5"/>
                </g>
                <g id="arrowRight" xlink:href="#dirArrow" transform="rotate(90) translate(36 -43)" onmousedown="handlePan(1,0)">
                  <use xlink:href="#rim" fill="#404040">
                        <set attributeName="fill" to="#808080" begin="arrowRight.mouseover" end="arrowRight.mouseout"/>
                  </use>
                  <path fill="none" stroke="white" stroke-width="1.5" d="M0,-3.0v7 M-2.5,-0.5L0,-3.0L2.5,-0.5"/>
                </g>
                <g id="arrowDown" xlink:href="#dirArrow" transform="rotate(180) translate(-30 -48)" onmousedown="handlePan(0,1)">
                  <use xlink:href="#rim" fill="#404040">
                        <set attributeName="fill" to="#808080" begin="arrowDown.mouseover" end="arrowDown.mouseout"/>
                  </use>
                  <path fill="none" stroke="white" stroke-width="1.5" d="M0,-3.0v7 M-2.5,-0.5L0,-3.0L2.5,-0.5"/>
                </g>
                <g id="arrowLeft" xlink:href="#dirArrow" transform="rotate(270) translate(-36 17)" onmousedown="handlePan(-1,0)">
                  <use xlink:href="#rim" fill="#404040">
                        <set attributeName="fill" to="#808080" begin="arrowLeft.mouseover" end="arrowLeft.mouseout"/>
                  </use>
                  <path fill="none" stroke="white" stroke-width="1.5" d="M0,-3.0v7 M-2.5,-0.5L0,-3.0L2.5,-0.5"/>
                </g>
        </g>
        <svg viewBox="0 0 15 15" width="100%" height="30px" preserveAspectRatio="xMaxYMin meet">
         <g id="arrow_out" transform="scale(0.3 0.3)">
          <a xlink:href="quickjs-libc_8c_ac3abb3f7c3750d07bbc4c20d5f4558f7_cgraph_org.svg" target="_base">
           <rect id="button" ry="5" rx="5" y="6" x="6" height="38" width="38"
                fill="#f2f5e9" fill-opacity="0.5" stroke="#606060" stroke-width="1.0"/>
           <path id="arrow"
             d="M 11.500037,31.436501 C 11.940474,20.09759 22.043105,11.32322 32.158766,21.979434 L 37.068811,17.246167 C 37.068811,17.246167 37.088388,32 37.088388,32 L 22.160133,31.978069 C 22.160133,31.978069 26.997745,27.140456 26.997745,27.140456 C 18.528582,18.264221 13.291696,25.230495 11.500037,31.436501 z"
             style="fill:#404040;"/>
          </a>
         </g>
        </svg>
</svg>
