<?xml version="1.0" encoding="UTF-8" standalone="no"?>
<!DOCTYPE svg PUBLIC "-//W3C//DTD SVG 1.1//EN"
 "http://www.w3.org/Graphics/SVG/1.1/DTD/svg11.dtd">
<!-- Generated by graphviz version 2.40.1 (20161225.0304)
 -->
<!-- Title: JS_NewClass Pages: 1 -->
<svg width="465pt" height="176pt"
 viewBox="0.00 0.00 465.00 175.50" xmlns="http://www.w3.org/2000/svg" xmlns:xlink="http://www.w3.org/1999/xlink">
<g id="graph0" class="graph" transform="scale(1 1) rotate(0) translate(4 171.5)">
<title>JS_NewClass</title>
<!-- Node22708 -->
<g id="node1" class="node">
<title>Node22708</title>
<polygon fill="#bfbfbf" stroke="#000000" points="0,-85 0,-104 80,-104 80,-85 0,-85"/>
<text text-anchor="middle" x="40" y="-92" font-family="Helvetica,sans-Serif" font-size="10.00" fill="#000000">JS_NewClass</text>
</g>
<!-- Node22709 -->
<g id="node2" class="node">
<title>Node22709</title>
<g id="a_node2"><a xlink:href="quickjs-libc_8c.html#a066e7962ce24f22d5df20968a8baa346" target="_top" xlink:title="js_os_init">
<polygon fill="none" stroke="#000000" points="153.5,-148 153.5,-167 211.5,-167 211.5,-148 153.5,-148"/>
<text text-anchor="middle" x="182.5" y="-155" font-family="Helvetica,sans-Serif" font-size="10.00" fill="#000000">js_os_init</text>
</a>
</g>
</g>
<!-- Node22708&#45;&gt;Node22709 -->
<g id="edge1" class="edge">
<title>Node22708&#45;&gt;Node22709</title>
<path fill="none" stroke="#191970" d="M62.4662,-109.4813C77.2071,-118.8067 97.1732,-130.5058 116,-138.5 127.9362,-143.5683 141.6368,-147.7419 153.4887,-150.8735"/>
<polygon fill="#191970" stroke="#191970" points="64.3212,-106.5129 54.0199,-104.0359 60.5281,-112.3962 64.3212,-106.5129"/>
</g>
<!-- Node22712 -->
<g id="node5" class="node">
<title>Node22712</title>
<g id="a_node5"><a xlink:href="quickjs-libc_8c.html#a08cea1a0226b7603e6969e2208d99d55" target="_top" xlink:title="js_std_init">
<polygon fill="none" stroke="#000000" points="152,-110 152,-129 213,-129 213,-110 152,-110"/>
<text text-anchor="middle" x="182.5" y="-117" font-family="Helvetica,sans-Serif" font-size="10.00" fill="#000000">js_std_init</text>
</a>
</g>
</g>
<!-- Node22708&#45;&gt;Node22712 -->
<g id="edge4" class="edge">
<title>Node22708&#45;&gt;Node22712</title>
<path fill="none" stroke="#191970" d="M89.937,-103.2609C110.527,-106.8732 133.7324,-110.9443 151.7578,-114.1066"/>
<polygon fill="#191970" stroke="#191970" points="90.5278,-99.8112 80.0734,-101.5304 89.3182,-106.7059 90.5278,-99.8112"/>
</g>
<!-- Node22714 -->
<g id="node7" class="node">
<title>Node22714</title>
<g id="a_node7"><a xlink:href="structqjs_1_1js__traits_3_01std_1_1shared__ptr_3_01T_01_4_01_4.html#af3558afeef079826c58411353c8ccce0" target="_top" xlink:title="Register class in QuickJS context. ">
<polygon fill="none" stroke="#000000" points="132,-50 132,-91 233,-91 233,-50 132,-50"/>
<text text-anchor="start" x="140" y="-79" font-family="Helvetica,sans-Serif" font-size="10.00" fill="#000000">qjs::js_traits&lt; std</text>
<text text-anchor="start" x="140" y="-68" font-family="Helvetica,sans-Serif" font-size="10.00" fill="#000000">::shared_ptr&lt; T &gt; &gt;</text>
<text text-anchor="middle" x="182.5" y="-57" font-family="Helvetica,sans-Serif" font-size="10.00" fill="#000000">::register_class</text>
</a>
</g>
</g>
<!-- Node22708&#45;&gt;Node22714 -->
<g id="edge7" class="edge">
<title>Node22708&#45;&gt;Node22714</title>
<path fill="none" stroke="#191970" d="M90.1446,-86.0546C103.6454,-83.7808 118.2574,-81.3198 131.7888,-79.0408"/>
<polygon fill="#191970" stroke="#191970" points="89.3532,-82.6385 80.0734,-87.7508 90.5158,-89.5413 89.3532,-82.6385"/>
</g>
<!-- Node22715 -->
<g id="node8" class="node">
<title>Node22715</title>
<g id="a_node8"><a xlink:href="structqjs_1_1js__traits_3_01detail_1_1function_01_4.html#afe383c63f389edaf9f878cd30062d37f" target="_top" xlink:title="qjs::js_traits\&lt; detail\l::function \&gt;::register_class">
<polygon fill="none" stroke="#000000" points="116,-.5 116,-30.5 249,-30.5 249,-.5 116,-.5"/>
<text text-anchor="start" x="124" y="-18.5" font-family="Helvetica,sans-Serif" font-size="10.00" fill="#000000">qjs::js_traits&lt; detail</text>
<text text-anchor="middle" x="182.5" y="-7.5" font-family="Helvetica,sans-Serif" font-size="10.00" fill="#000000">::function &gt;::register_class</text>
</a>
</g>
</g>
<!-- Node22708&#45;&gt;Node22715 -->
<g id="edge8" class="edge">
<title>Node22708&#45;&gt;Node22715</title>
<path fill="none" stroke="#191970" d="M59.4222,-78.5624C74.2604,-66.9302 95.571,-51.3618 116,-40.5 122.752,-36.91 130.1341,-33.5926 137.445,-30.6262"/>
<polygon fill="#191970" stroke="#191970" points="57.1238,-75.9187 51.4893,-84.8911 61.4892,-81.3907 57.1238,-75.9187"/>
</g>
<!-- Node22710 -->
<g id="node3" class="node">
<title>Node22710</title>
<g id="a_node3"><a xlink:href="quickjs-libc_8c.html#adcca2b4a661355e6ff87a0def2339894" target="_top" xlink:title="js_init_module_os">
<polygon fill="none" stroke="#000000" points="286.5,-148 286.5,-167 381.5,-167 381.5,-148 286.5,-148"/>
<text text-anchor="middle" x="334" y="-155" font-family="Helvetica,sans-Serif" font-size="10.00" fill="#000000">js_init_module_os</text>
</a>
</g>
</g>
<!-- Node22709&#45;&gt;Node22710 -->
<g id="edge2" class="edge">
<title>Node22709&#45;&gt;Node22710</title>
<path fill="none" stroke="#191970" d="M221.8842,-157.5C241.61,-157.5 265.6495,-157.5 286.4023,-157.5"/>
<polygon fill="#191970" stroke="#191970" points="221.7108,-154.0001 211.7107,-157.5 221.7107,-161.0001 221.7108,-154.0001"/>
</g>
<!-- Node22711 -->
<g id="node4" class="node">
<title>Node22711</title>
<g id="a_node4"><a xlink:href="qjs_8cpp.html#a3c04138a5bfe5d72780bb7e82a18e627" target="_top" xlink:title="main">
<polygon fill="none" stroke="#000000" points="419,-129 419,-148 457,-148 457,-129 419,-129"/>
<text text-anchor="middle" x="438" y="-136" font-family="Helvetica,sans-Serif" font-size="10.00" fill="#000000">main</text>
</a>
</g>
</g>
<!-- Node22710&#45;&gt;Node22711 -->
<g id="edge3" class="edge">
<title>Node22710&#45;&gt;Node22711</title>
<path fill="none" stroke="#191970" d="M391.6062,-146.9758C401.4365,-145.1799 410.9964,-143.4334 418.8585,-141.997"/>
<polygon fill="#191970" stroke="#191970" points="390.9468,-143.5382 381.7386,-148.7785 392.2049,-150.4243 390.9468,-143.5382"/>
</g>
<!-- Node22713 -->
<g id="node6" class="node">
<title>Node22713</title>
<g id="a_node6"><a xlink:href="quickjs-libc_8c.html#a0e65c67dfff872a664f8d29e7eae5a61" target="_top" xlink:title="js_init_module_std">
<polygon fill="none" stroke="#000000" points="285,-110 285,-129 383,-129 383,-110 285,-110"/>
<text text-anchor="middle" x="334" y="-117" font-family="Helvetica,sans-Serif" font-size="10.00" fill="#000000">js_init_module_std</text>
</a>
</g>
</g>
<!-- Node22712&#45;&gt;Node22713 -->
<g id="edge5" class="edge">
<title>Node22712&#45;&gt;Node22713</title>
<path fill="none" stroke="#191970" d="M223.2738,-119.5C242.2517,-119.5 264.9826,-119.5 284.8973,-119.5"/>
<polygon fill="#191970" stroke="#191970" points="223.1583,-116.0001 213.1583,-119.5 223.1583,-123.0001 223.1583,-116.0001"/>
</g>
<!-- Node22713&#45;&gt;Node22711 -->
<g id="edge6" class="edge">
<title>Node22713&#45;&gt;Node22711</title>
<path fill="none" stroke="#191970" d="M393.2897,-130.3318C402.4732,-132.0095 411.3472,-133.6307 418.7353,-134.9805"/>
<polygon fill="#191970" stroke="#191970" points="393.7252,-126.8535 383.2589,-128.4992 392.4671,-133.7395 393.7252,-126.8535"/>
</g>
<!-- Node22716 -->
<g id="node9" class="node">
<title>Node22716</title>
<g id="a_node9"><a xlink:href="classqjs_1_1Context.html#aae629cc551168d549a405db5c762b61e" target="_top" xlink:title="qjs::Context::init">
<polygon fill="none" stroke="#000000" points="289.5,-6 289.5,-25 378.5,-25 378.5,-6 289.5,-6"/>
<text text-anchor="middle" x="334" y="-13" font-family="Helvetica,sans-Serif" font-size="10.00" fill="#000000">qjs::Context::init</text>
</a>
</g>
</g>
<!-- Node22715&#45;&gt;Node22716 -->
<g id="edge9" class="edge">
<title>Node22715&#45;&gt;Node22716</title>
<path fill="none" stroke="#191970" d="M259.5416,-15.5C269.7089,-15.5 279.8452,-15.5 289.2175,-15.5"/>
<polygon fill="#191970" stroke="#191970" points="259.3911,-12.0001 249.3911,-15.5 259.3911,-19.0001 259.3911,-12.0001"/>
</g>
</g>
</svg>
