<?xml version="1.0" encoding="UTF-8" standalone="no"?>
<!DOCTYPE svg PUBLIC "-//W3C//DTD SVG 1.1//EN"
 "http://www.w3.org/Graphics/SVG/1.1/DTD/svg11.dtd">
<!-- Generated by graphviz version 2.40.1 (20161225.0304)
 -->
<!-- Title: JS_ThrowReferenceErrorNotDefined Pages: 1 -->
<svg width="871pt" height="939pt"
 viewBox="0.00 0.00 871.00 939.00" xmlns="http://www.w3.org/2000/svg" xmlns:xlink="http://www.w3.org/1999/xlink">
<g id="graph0" class="graph" transform="scale(1 1) rotate(0) translate(4 935)">
<title>JS_ThrowReferenceErrorNotDefined</title>
<!-- Node173655 -->
<g id="node1" class="node">
<title>Node173655</title>
<polygon fill="#bfbfbf" stroke="#000000" points="0,-238 0,-268 143,-268 143,-238 0,-238"/>
<text text-anchor="start" x="8" y="-256" font-family="Helvetica,sans-Serif" font-size="10.00" fill="#000000">JS_ThrowReferenceErrorNot</text>
<text text-anchor="middle" x="71.5" y="-245" font-family="Helvetica,sans-Serif" font-size="10.00" fill="#000000">Defined</text>
</g>
<!-- Node173656 -->
<g id="node2" class="node">
<title>Node173656</title>
<g id="a_node2"><a xlink:href="quickjs_8c.html#ac2894ff4edcdb4e6841bcce9c76081e3" target="_top" xlink:title="JS_CallInternal">
<polygon fill="none" stroke="#000000" points="333,-281.5 333,-300.5 416,-300.5 416,-281.5 333,-281.5"/>
<text text-anchor="middle" x="374.5" y="-288.5" font-family="Helvetica,sans-Serif" font-size="10.00" fill="#000000">JS_CallInternal</text>
</a>
</g>
</g>
<!-- Node173655&#45;&gt;Node173656 -->
<g id="edge1" class="edge">
<title>Node173655&#45;&gt;Node173656</title>
<path fill="none" stroke="#191970" d="M153.3215,-256.8056C196.2919,-259.5819 249.709,-264.2595 297,-272 311.355,-274.3496 326.972,-277.9681 340.401,-281.4194"/>
<polygon fill="#191970" stroke="#191970" points="153.3954,-253.3035 143.1968,-256.1739 152.9595,-260.2899 153.3954,-253.3035"/>
</g>
<!-- Node173990 -->
<g id="node28" class="node">
<title>Node173990</title>
<g id="a_node28"><a xlink:href="quickjs_8c.html#a5762c57ae0c9937e986040c01222833a" target="_top" xlink:title="JS_GetPropertyInternal">
<polygon fill="none" stroke="#ff0000" points="629,-.5 629,-19.5 748,-19.5 748,-.5 629,-.5"/>
<text text-anchor="middle" x="688.5" y="-7.5" font-family="Helvetica,sans-Serif" font-size="10.00" fill="#000000">JS_GetPropertyInternal</text>
</a>
</g>
</g>
<!-- Node173655&#45;&gt;Node173990 -->
<g id="edge41" class="edge">
<title>Node173655&#45;&gt;Node173990</title>
<path fill="none" stroke="#191970" d="M97.2931,-231.2414C155.7993,-183.3707 304.9435,-69.5623 452,-24 510.1468,-5.9844 580.1064,-4.1202 628.786,-5.7536"/>
<polygon fill="#191970" stroke="#191970" points="94.817,-228.7467 89.3298,-237.8099 99.2712,-234.1468 94.817,-228.7467"/>
</g>
<!-- Node173759 -->
<g id="node30" class="node">
<title>Node173759</title>
<g id="a_node30"><a xlink:href="quickjs_8c.html#ad7f03358a8088ca920ab308225c6b2e6" target="_top" xlink:title="JS_SetPropertyInternal">
<polygon fill="none" stroke="#ff0000" points="179,-281.5 179,-300.5 297,-300.5 297,-281.5 179,-281.5"/>
<text text-anchor="middle" x="238" y="-288.5" font-family="Helvetica,sans-Serif" font-size="10.00" fill="#000000">JS_SetPropertyInternal</text>
</a>
</g>
</g>
<!-- Node173655&#45;&gt;Node173759 -->
<g id="edge42" class="edge">
<title>Node173655&#45;&gt;Node173759</title>
<path fill="none" stroke="#191970" d="M147.1487,-270.2652C163.9848,-274.1076 181.239,-278.0455 196.1261,-281.4432"/>
<polygon fill="#191970" stroke="#191970" points="147.8333,-266.8315 137.3052,-268.0186 146.2757,-273.656 147.8333,-266.8315"/>
</g>
<!-- Node173656&#45;&gt;Node173656 -->
<g id="edge40" class="edge">
<title>Node173656&#45;&gt;Node173656</title>
<path fill="none" stroke="#191970" d="M349.2025,-310.0292C350.5824,-315.128 359.0149,-319 374.5,-319 398.6719,-319 405.6591,-309.5653 395.4615,-300.7571"/>
<polygon fill="#191970" stroke="#191970" points="352.4728,-311.2982 353.5385,-300.7571 346.1319,-308.3329 352.4728,-311.2982"/>
</g>
<!-- Node173657 -->
<g id="node3" class="node">
<title>Node173657</title>
<g id="a_node3"><a xlink:href="quickjs_8c.html#ade71a22dc56e7371392393df663b28b3" target="_top" xlink:title="async_func_resume">
<polygon fill="none" stroke="#000000" points="467,-818.5 467,-837.5 571,-837.5 571,-818.5 467,-818.5"/>
<text text-anchor="middle" x="519" y="-825.5" font-family="Helvetica,sans-Serif" font-size="10.00" fill="#000000">async_func_resume</text>
</a>
</g>
</g>
<!-- Node173656&#45;&gt;Node173657 -->
<g id="edge2" class="edge">
<title>Node173656&#45;&gt;Node173657</title>
<path fill="none" stroke="#191970" d="M379.5486,-310.4599C391.7975,-357.6054 424.1369,-481.6707 452,-585 476.4961,-675.8429 507.104,-785.4951 516.2798,-818.288"/>
<polygon fill="#191970" stroke="#191970" points="382.9036,-309.454 377.0027,-300.6545 376.1282,-311.2132 382.9036,-309.454"/>
</g>
<!-- Node173669 -->
<g id="node8" class="node">
<title>Node173669</title>
<g id="a_node8"><a xlink:href="quickjs_8c.html#a1a4c02a29525d5cb2085dd8bca3af350" target="_top" xlink:title="JS_Call">
<polygon fill="none" stroke="#ff0000" points="493.5,-332.5 493.5,-351.5 544.5,-351.5 544.5,-332.5 493.5,-332.5"/>
<text text-anchor="middle" x="519" y="-339.5" font-family="Helvetica,sans-Serif" font-size="10.00" fill="#000000">JS_Call</text>
</a>
</g>
</g>
<!-- Node173656&#45;&gt;Node173669 -->
<g id="edge7" class="edge">
<title>Node173656&#45;&gt;Node173669</title>
<path fill="none" stroke="#191970" d="M425.8783,-302.6403C453.5836,-311.7189 485.768,-323.8084 504.1245,-332.4477"/>
<polygon fill="#191970" stroke="#191970" points="426.8866,-299.2882 416.2954,-299.5653 424.7478,-305.9534 426.8866,-299.2882"/>
</g>
<!-- Node173740 -->
<g id="node26" class="node">
<title>Node173740</title>
<g id="a_node26"><a xlink:href="quickjs_8c.html#ad35594576a14c10812efaf958c99af8a" target="_top" xlink:title="JS_CallConstructorInternal">
<polygon fill="none" stroke="#ff0000" points="452,-370.5 452,-389.5 586,-389.5 586,-370.5 452,-370.5"/>
<text text-anchor="middle" x="519" y="-377.5" font-family="Helvetica,sans-Serif" font-size="10.00" fill="#000000">JS_CallConstructorInternal</text>
</a>
</g>
</g>
<!-- Node173656&#45;&gt;Node173740 -->
<g id="edge31" class="edge">
<title>Node173656&#45;&gt;Node173740</title>
<path fill="none" stroke="#191970" d="M395.9936,-307.7682C410.4582,-321.5649 430.7181,-340.2223 452,-352 468.0796,-360.8987 488.6848,-365.9284 502.7728,-370.4303"/>
<polygon fill="#191970" stroke="#191970" points="398.2291,-305.063 388.5843,-300.6779 393.3894,-310.1205 398.2291,-305.063"/>
</g>
<!-- Node173754 -->
<g id="node27" class="node">
<title>Node173754</title>
<g id="a_node27"><a xlink:href="quickjs_8c.html#a75f6ee5e4235a7dc99889f3d2eb2c147" target="_top" xlink:title="JS_CallFree">
<polygon fill="none" stroke="#ff0000" points="483.5,-76.5 483.5,-95.5 554.5,-95.5 554.5,-76.5 483.5,-76.5"/>
<text text-anchor="middle" x="519" y="-83.5" font-family="Helvetica,sans-Serif" font-size="10.00" fill="#000000">JS_CallFree</text>
</a>
</g>
</g>
<!-- Node173656&#45;&gt;Node173754 -->
<g id="edge33" class="edge">
<title>Node173656&#45;&gt;Node173754</title>
<path fill="none" stroke="#191970" d="M381.5851,-271.6038C394.2892,-243.3777 422.3947,-191.1802 452,-151 467.4204,-130.0714 487.7727,-108.2626 501.9831,-95.6009"/>
<polygon fill="#191970" stroke="#191970" points="378.2072,-270.6019 377.4992,-281.173 384.6449,-273.3507 378.2072,-270.6019"/>
</g>
<!-- Node173658 -->
<g id="node4" class="node">
<title>Node173658</title>
<g id="a_node4"><a xlink:href="quickjs_8c.html#ac90552b1f1659acb3dae9a4c62479a30" target="_top" xlink:title="js_generator_function_call">
<polygon fill="none" stroke="#ff0000" points="623.5,-911.5 623.5,-930.5 753.5,-930.5 753.5,-911.5 623.5,-911.5"/>
<text text-anchor="middle" x="688.5" y="-918.5" font-family="Helvetica,sans-Serif" font-size="10.00" fill="#000000">js_generator_function_call</text>
</a>
</g>
</g>
<!-- Node173657&#45;&gt;Node173658 -->
<g id="edge3" class="edge">
<title>Node173657&#45;&gt;Node173658</title>
<path fill="none" stroke="#191970" d="M537.4671,-844.3133C557.1641,-860.9499 589.8865,-886.4617 622,-902 629.782,-905.7654 638.4469,-908.9157 646.8825,-911.499"/>
<polygon fill="#191970" stroke="#191970" points="539.488,-841.4351 529.6226,-837.5717 534.9255,-846.7439 539.488,-841.4351"/>
</g>
<!-- Node173662 -->
<g id="node5" class="node">
<title>Node173662</title>
<g id="a_node5"><a xlink:href="quickjs_8c.html#a1bf6b62983e8fff99c0a5d5a9f486115" target="_top" xlink:title="js_async_function_resume">
<polygon fill="none" stroke="#ff0000" points="622,-774.5 622,-793.5 755,-793.5 755,-774.5 622,-774.5"/>
<text text-anchor="middle" x="688.5" y="-781.5" font-family="Helvetica,sans-Serif" font-size="10.00" fill="#000000">js_async_function_resume</text>
</a>
</g>
</g>
<!-- Node173657&#45;&gt;Node173662 -->
<g id="edge4" class="edge">
<title>Node173657&#45;&gt;Node173662</title>
<path fill="none" stroke="#191970" d="M565.4651,-815.9383C592.6496,-808.8815 626.4877,-800.0976 651.7928,-793.5287"/>
<polygon fill="#191970" stroke="#191970" points="564.5787,-812.5523 555.779,-818.4527 566.3376,-819.3277 564.5787,-812.5523"/>
</g>
<!-- Node173667 -->
<g id="node6" class="node">
<title>Node173667</title>
<g id="a_node6"><a xlink:href="quickjs_8c.html#a89b019c704a2d2914bc30b30a72040b3" target="_top" xlink:title="js_async_generator\l_resume_next">
<polygon fill="none" stroke="#000000" points="638,-862 638,-892 739,-892 739,-862 638,-862"/>
<text text-anchor="start" x="646" y="-880" font-family="Helvetica,sans-Serif" font-size="10.00" fill="#000000">js_async_generator</text>
<text text-anchor="middle" x="688.5" y="-869" font-family="Helvetica,sans-Serif" font-size="10.00" fill="#000000">_resume_next</text>
</a>
</g>
</g>
<!-- Node173657&#45;&gt;Node173667 -->
<g id="edge5" class="edge">
<title>Node173657&#45;&gt;Node173667</title>
<path fill="none" stroke="#191970" d="M561.9372,-840.4125C585.0226,-847.0862 613.6309,-855.3564 637.805,-862.3448"/>
<polygon fill="#191970" stroke="#191970" points="562.6623,-836.9789 552.0837,-837.564 560.7183,-843.7036 562.6623,-836.9789"/>
</g>
<!-- Node173668 -->
<g id="node7" class="node">
<title>Node173668</title>
<g id="a_node7"><a xlink:href="quickjs_8c.html#ae19867da709929c072f05e90301835a4" target="_top" xlink:title="js_async_generator\l_function_call">
<polygon fill="none" stroke="#ff0000" points="638,-813 638,-843 739,-843 739,-813 638,-813"/>
<text text-anchor="start" x="646" y="-831" font-family="Helvetica,sans-Serif" font-size="10.00" fill="#000000">js_async_generator</text>
<text text-anchor="middle" x="688.5" y="-820" font-family="Helvetica,sans-Serif" font-size="10.00" fill="#000000">_function_call</text>
</a>
</g>
</g>
<!-- Node173657&#45;&gt;Node173668 -->
<g id="edge6" class="edge">
<title>Node173657&#45;&gt;Node173668</title>
<path fill="none" stroke="#191970" d="M581.388,-828C599.9885,-828 620.1368,-828 637.8866,-828"/>
<polygon fill="#191970" stroke="#191970" points="581.2387,-824.5001 571.2387,-828 581.2386,-831.5001 581.2387,-824.5001"/>
</g>
<!-- Node173669&#45;&gt;Node173656 -->
<g id="edge15" class="edge">
<title>Node173669&#45;&gt;Node173656</title>
<path fill="none" stroke="#191970" d="M483.5083,-335.3778C453.3148,-326.2433 411.4466,-310.9339 389.4198,-300.5731"/>
<polygon fill="#191970" stroke="#191970" points="482.6746,-338.7805 493.2548,-338.2229 484.6362,-332.0609 482.6746,-338.7805"/>
</g>
<!-- Node173669&#45;&gt;Node173662 -->
<g id="edge16" class="edge">
<title>Node173669&#45;&gt;Node173662</title>
<path fill="none" stroke="#191970" d="M554.8051,-344.2112C566.4319,-346.7743 578.3058,-351.7091 586,-361 643.4895,-430.4191 564.579,-695.5242 622,-765 625.1362,-768.7946 628.9736,-771.8612 633.2071,-774.3354"/>
<polygon fill="#191970" stroke="#191970" points="555.205,-340.7294 544.7625,-342.5196 554.0422,-347.6321 555.205,-340.7294"/>
</g>
<!-- Node173670 -->
<g id="node9" class="node">
<title>Node173670</title>
<g id="a_node9"><a xlink:href="structqjs_1_1js__traits_3_01std_1_1function_3_01R_07Args_8_8_8_08_4_01_4.html#abc36cacd670b6b5f1773734a0586a02b" target="_top" xlink:title="qjs::js_traits\&lt; std\l::function\&lt; R(Args...)\l\&gt; \&gt;::unwrap">
<polygon fill="none" stroke="#000000" points="634,-506.5 634,-547.5 743,-547.5 743,-506.5 634,-506.5"/>
<text text-anchor="start" x="642" y="-535.5" font-family="Helvetica,sans-Serif" font-size="10.00" fill="#000000">qjs::js_traits&lt; std</text>
<text text-anchor="start" x="642" y="-524.5" font-family="Helvetica,sans-Serif" font-size="10.00" fill="#000000">::function&lt; R(Args...)</text>
<text text-anchor="middle" x="688.5" y="-513.5" font-family="Helvetica,sans-Serif" font-size="10.00" fill="#000000">&gt; &gt;::unwrap</text>
</a>
</g>
</g>
<!-- Node173669&#45;&gt;Node173670 -->
<g id="edge8" class="edge">
<title>Node173669&#45;&gt;Node173670</title>
<path fill="none" stroke="#191970" d="M554.8379,-345.1833C566.1142,-347.8579 577.7604,-352.6144 586,-361 629.8229,-405.5991 581.5816,-449.2938 622,-497 625.4387,-501.0587 629.539,-504.5931 633.9913,-507.6661"/>
<polygon fill="#191970" stroke="#191970" points="555.1703,-341.6843 544.6945,-343.268 553.8714,-348.5628 555.1703,-341.6843"/>
</g>
<!-- Node173671 -->
<g id="node10" class="node">
<title>Node173671</title>
<g id="a_node10"><a xlink:href="quickjs-libc_8c.html#abb1cbe3fdf905e81f603a3a0bfce475a" target="_top" xlink:title="call_handler">
<polygon fill="none" stroke="#ff0000" points="654.5,-468.5 654.5,-487.5 722.5,-487.5 722.5,-468.5 654.5,-468.5"/>
<text text-anchor="middle" x="688.5" y="-475.5" font-family="Helvetica,sans-Serif" font-size="10.00" fill="#000000">call_handler</text>
</a>
</g>
</g>
<!-- Node173669&#45;&gt;Node173671 -->
<g id="edge9" class="edge">
<title>Node173669&#45;&gt;Node173671</title>
<path fill="none" stroke="#191970" d="M554.6629,-345.7014C565.8251,-348.4193 577.4463,-353.0706 586,-361 620.0291,-392.5453 588.0021,-427.4211 622,-459 630.7975,-467.1716 642.8691,-471.8583 654.3144,-474.5358"/>
<polygon fill="#191970" stroke="#191970" points="555.1324,-342.2264 544.6421,-343.7104 553.7682,-349.0922 555.1324,-342.2264"/>
</g>
<!-- Node173676 -->
<g id="node11" class="node">
<title>Node173676</title>
<g id="a_node11"><a xlink:href="quickjs_8c.html#aa049793cc8648d35fe81876a2543ca4e" target="_top" xlink:title="JS_GetIterator2">
<polygon fill="none" stroke="#ff0000" points="645.5,-430.5 645.5,-449.5 731.5,-449.5 731.5,-430.5 645.5,-430.5"/>
<text text-anchor="middle" x="688.5" y="-437.5" font-family="Helvetica,sans-Serif" font-size="10.00" fill="#000000">JS_GetIterator2</text>
</a>
</g>
</g>
<!-- Node173669&#45;&gt;Node173676 -->
<g id="edge10" class="edge">
<title>Node173669&#45;&gt;Node173676</title>
<path fill="none" stroke="#191970" d="M554.3675,-346.8135C565.3167,-349.6075 576.8855,-354.0228 586,-361 610.6937,-379.9032 597.3249,-402.0724 622,-421 628.8595,-426.2617 637.1208,-430.0667 645.4527,-432.818"/>
<polygon fill="#191970" stroke="#191970" points="555.0908,-343.3891 544.5745,-344.6765 553.5984,-350.2281 555.0908,-343.3891"/>
</g>
<!-- Node173695 -->
<g id="node12" class="node">
<title>Node173695</title>
<g id="a_node12"><a xlink:href="quickjs_8c.html#ad6303fbd3add4afa0cb64b0aa6d431ce" target="_top" xlink:title="JS_IteratorNext2">
<polygon fill="none" stroke="#ff0000" points="643,-392.5 643,-411.5 734,-411.5 734,-392.5 643,-392.5"/>
<text text-anchor="middle" x="688.5" y="-399.5" font-family="Helvetica,sans-Serif" font-size="10.00" fill="#000000">JS_IteratorNext2</text>
</a>
</g>
</g>
<!-- Node173669&#45;&gt;Node173695 -->
<g id="edge11" class="edge">
<title>Node173669&#45;&gt;Node173695</title>
<path fill="none" stroke="#191970" d="M554.6644,-350.1766C564.9776,-353.0557 576.114,-356.6745 586,-361 603.1788,-368.5163 604.8286,-375.4668 622,-383 630.3566,-386.6661 639.6124,-389.83 648.4971,-392.4668"/>
<polygon fill="#191970" stroke="#191970" points="555.2645,-346.7151 544.7023,-347.5452 553.4768,-353.483 555.2645,-346.7151"/>
</g>
<!-- Node173699 -->
<g id="node13" class="node">
<title>Node173699</title>
<g id="a_node13"><a xlink:href="quickjs_8c.html#a62424fefab7bcc97f49c978205c7a1c1" target="_top" xlink:title="js_for_await_of_next">
<polygon fill="none" stroke="#000000" points="635,-736.5 635,-755.5 742,-755.5 742,-736.5 635,-736.5"/>
<text text-anchor="middle" x="688.5" y="-743.5" font-family="Helvetica,sans-Serif" font-size="10.00" fill="#000000">js_for_await_of_next</text>
</a>
</g>
</g>
<!-- Node173669&#45;&gt;Node173699 -->
<g id="edge12" class="edge">
<title>Node173669&#45;&gt;Node173699</title>
<path fill="none" stroke="#191970" d="M554.7576,-344.2508C566.38,-346.8174 578.2632,-351.7445 586,-361 690.8298,-486.408 517.2939,-601.4887 622,-727 625.5382,-731.2412 629.9519,-734.5717 634.8124,-737.1818"/>
<polygon fill="#191970" stroke="#191970" points="555.1656,-340.7701 544.7219,-342.5533 553.9981,-347.6721 555.1656,-340.7701"/>
</g>
<!-- Node173700 -->
<g id="node14" class="node">
<title>Node173700</title>
<g id="a_node14"><a xlink:href="quickjs_8c.html#afd4ef2d701fa0702f321925b61c57bbf" target="_top" xlink:title="js_call_bound_function">
<polygon fill="none" stroke="#ff0000" points="630.5,-354.5 630.5,-373.5 746.5,-373.5 746.5,-354.5 630.5,-354.5"/>
<text text-anchor="middle" x="688.5" y="-361.5" font-family="Helvetica,sans-Serif" font-size="10.00" fill="#000000">js_call_bound_function</text>
</a>
</g>
</g>
<!-- Node173669&#45;&gt;Node173700 -->
<g id="edge14" class="edge">
<title>Node173669&#45;&gt;Node173700</title>
<path fill="none" stroke="#191970" d="M554.892,-346.6586C576.7298,-349.493 605.1404,-353.1805 630.1455,-356.426"/>
<polygon fill="#191970" stroke="#191970" points="555.1107,-343.1577 544.7434,-345.3413 554.2097,-350.0994 555.1107,-343.1577"/>
</g>
<!-- Node173701 -->
<g id="node15" class="node">
<title>Node173701</title>
<g id="a_node15"><a xlink:href="quickjs_8c.html#a3e852026d167fa03c673f86697dd3e67" target="_top" xlink:title="js_async_generator\l_resolve_or_reject">
<polygon fill="none" stroke="#ff0000" points="638,-305 638,-335 739,-335 739,-305 638,-305"/>
<text text-anchor="start" x="646" y="-323" font-family="Helvetica,sans-Serif" font-size="10.00" fill="#000000">js_async_generator</text>
<text text-anchor="middle" x="688.5" y="-312" font-family="Helvetica,sans-Serif" font-size="10.00" fill="#000000">_resolve_or_reject</text>
</a>
</g>
</g>
<!-- Node173669&#45;&gt;Node173701 -->
<g id="edge17" class="edge">
<title>Node173669&#45;&gt;Node173701</title>
<path fill="none" stroke="#191970" d="M554.8847,-337.3424C579.0145,-334.2105 611.1716,-330.0367 637.8919,-326.5686"/>
<polygon fill="#191970" stroke="#191970" points="554.2097,-333.9006 544.7434,-338.6587 555.1107,-340.8423 554.2097,-333.9006"/>
</g>
<!-- Node173704 -->
<g id="node16" class="node">
<title>Node173704</title>
<g id="a_node16"><a xlink:href="quickjs_8c.html#a2355fabf91f59212ea65baba1b0b7c1b" target="_top" xlink:title="js_async_generator_next">
<polygon fill="none" stroke="#000000" points="626,-266.5 626,-285.5 751,-285.5 751,-266.5 626,-266.5"/>
<text text-anchor="middle" x="688.5" y="-273.5" font-family="Helvetica,sans-Serif" font-size="10.00" fill="#000000">js_async_generator_next</text>
</a>
</g>
</g>
<!-- Node173669&#45;&gt;Node173704 -->
<g id="edge18" class="edge">
<title>Node173669&#45;&gt;Node173704</title>
<path fill="none" stroke="#191970" d="M547.515,-328.0815C567.967,-318.3921 596.3293,-305.548 622,-296 632.1697,-292.2175 643.408,-288.6226 653.7066,-285.551"/>
<polygon fill="#191970" stroke="#191970" points="545.9479,-324.9513 538.4354,-332.4221 548.967,-331.2667 545.9479,-324.9513"/>
</g>
<!-- Node173705 -->
<g id="node17" class="node">
<title>Node173705</title>
<g id="a_node17"><a xlink:href="quickjs_8c.html#a50e94675d1c4cf67c88e72169ea3c21a" target="_top" xlink:title="js_dynamic_import">
<polygon fill="none" stroke="#000000" points="639.5,-152.5 639.5,-171.5 737.5,-171.5 737.5,-152.5 639.5,-152.5"/>
<text text-anchor="middle" x="688.5" y="-159.5" font-family="Helvetica,sans-Serif" font-size="10.00" fill="#000000">js_dynamic_import</text>
</a>
</g>
</g>
<!-- Node173669&#45;&gt;Node173705 -->
<g id="edge19" class="edge">
<title>Node173669&#45;&gt;Node173705</title>
<path fill="none" stroke="#191970" d="M529.8803,-323.4073C553.5624,-283.1817 608.7224,-190.8853 622,-181 627.2007,-177.128 633.1663,-174.0441 639.3427,-171.5881"/>
<polygon fill="#191970" stroke="#191970" points="526.7509,-321.8245 524.7055,-332.2201 532.7872,-325.3691 526.7509,-321.8245"/>
</g>
<!-- Node173706 -->
<g id="node18" class="node">
<title>Node173706</title>
<g id="a_node18"><a xlink:href="quickjs_8c.html#a8d4b24969540aff427939eeda47f451d" target="_top" xlink:title="js_function_apply">
<polygon fill="none" stroke="#ff0000" points="642.5,-114.5 642.5,-133.5 734.5,-133.5 734.5,-114.5 642.5,-114.5"/>
<text text-anchor="middle" x="688.5" y="-121.5" font-family="Helvetica,sans-Serif" font-size="10.00" fill="#000000">js_function_apply</text>
</a>
</g>
</g>
<!-- Node173669&#45;&gt;Node173706 -->
<g id="edge21" class="edge">
<title>Node173669&#45;&gt;Node173706</title>
<path fill="none" stroke="#191970" d="M526.5548,-322.9904C544.6971,-278.2081 591.4783,-167.9728 622,-143 627.9475,-138.1338 635.0775,-134.5132 642.427,-131.8195"/>
<polygon fill="#191970" stroke="#191970" points="523.2463,-321.8372 522.7668,-332.4212 529.7419,-324.4463 523.2463,-321.8372"/>
</g>
<!-- Node173709 -->
<g id="node19" class="node">
<title>Node173709</title>
<g id="a_node19"><a xlink:href="quickjs_8c.html#a677ad630a103e1f3d5129e0549112b50" target="_top" xlink:title="js_function_call">
<polygon fill="none" stroke="#000000" points="646.5,-228.5 646.5,-247.5 730.5,-247.5 730.5,-228.5 646.5,-228.5"/>
<text text-anchor="middle" x="688.5" y="-235.5" font-family="Helvetica,sans-Serif" font-size="10.00" fill="#000000">js_function_call</text>
</a>
</g>
</g>
<!-- Node173669&#45;&gt;Node173709 -->
<g id="edge23" class="edge">
<title>Node173669&#45;&gt;Node173709</title>
<path fill="none" stroke="#191970" d="M534.9681,-325.1558C553.9921,-306.0225 587.5521,-275.1148 622,-257 629.5454,-253.0322 638.0206,-249.8038 646.3295,-247.2099"/>
<polygon fill="#191970" stroke="#191970" points="532.4471,-322.7278 527.9684,-332.3295 537.4573,-327.6165 532.4471,-322.7278"/>
</g>
<!-- Node173679 -->
<g id="node20" class="node">
<title>Node173679</title>
<g id="a_node20"><a xlink:href="quickjs_8c.html#a5e32da9a43002cb96dcbd62a1a340144" target="_top" xlink:title="js_array_from">
<polygon fill="none" stroke="#000000" points="650.5,-190.5 650.5,-209.5 726.5,-209.5 726.5,-190.5 650.5,-190.5"/>
<text text-anchor="middle" x="688.5" y="-197.5" font-family="Helvetica,sans-Serif" font-size="10.00" fill="#000000">js_array_from</text>
</a>
</g>
</g>
<!-- Node173669&#45;&gt;Node173679 -->
<g id="edge24" class="edge">
<title>Node173669&#45;&gt;Node173679</title>
<path fill="none" stroke="#191970" d="M529.51,-323.4935C545.8142,-296.463 579.7681,-246.4271 622,-219 630.4587,-213.5066 640.5262,-209.5726 650.2359,-206.766"/>
<polygon fill="#191970" stroke="#191970" points="526.368,-321.9319 524.319,-332.3267 532.4031,-325.4785 526.368,-321.9319"/>
</g>
<!-- Node173691 -->
<g id="node21" class="node">
<title>Node173691</title>
<g id="a_node21"><a xlink:href="quickjs_8c.html#aa0bbf08a7e91459c68a312fba7016c6d" target="_top" xlink:title="js_array_every">
<polygon fill="none" stroke="#000000" points="648.5,-698.5 648.5,-717.5 728.5,-717.5 728.5,-698.5 648.5,-698.5"/>
<text text-anchor="middle" x="688.5" y="-705.5" font-family="Helvetica,sans-Serif" font-size="10.00" fill="#000000">js_array_every</text>
</a>
</g>
</g>
<!-- Node173669&#45;&gt;Node173691 -->
<g id="edge25" class="edge">
<title>Node173669&#45;&gt;Node173691</title>
<path fill="none" stroke="#191970" d="M554.6995,-344.2997C566.3165,-346.8709 578.2112,-351.7883 586,-361 680.6888,-472.9874 527.4217,-576.9192 622,-689 628.6594,-696.8918 638.3494,-701.6255 648.2821,-704.4324"/>
<polygon fill="#191970" stroke="#191970" points="555.1174,-340.8206 544.6722,-342.5951 553.9442,-347.7216 555.1174,-340.8206"/>
</g>
<!-- Node173710 -->
<g id="node22" class="node">
<title>Node173710</title>
<g id="a_node22"><a xlink:href="quickjs_8c.html#a36c1692489542a86dd79a7d39ab8ff95" target="_top" xlink:title="js_array_reduce">
<polygon fill="none" stroke="#000000" points="645.5,-660.5 645.5,-679.5 731.5,-679.5 731.5,-660.5 645.5,-660.5"/>
<text text-anchor="middle" x="688.5" y="-667.5" font-family="Helvetica,sans-Serif" font-size="10.00" fill="#000000">js_array_reduce</text>
</a>
</g>
</g>
<!-- Node173669&#45;&gt;Node173710 -->
<g id="edge26" class="edge">
<title>Node173669&#45;&gt;Node173710</title>
<path fill="none" stroke="#191970" d="M554.6267,-344.3616C566.237,-346.9386 578.1461,-351.8438 586,-361 670.5592,-459.5803 537.538,-552.3363 622,-651 628.0125,-658.0235 636.4243,-662.5408 645.2482,-665.4242"/>
<polygon fill="#191970" stroke="#191970" points="555.057,-340.8845 544.61,-342.6481 553.8766,-347.7843 555.057,-340.8845"/>
</g>
<!-- Node173711 -->
<g id="node23" class="node">
<title>Node173711</title>
<g id="a_node23"><a xlink:href="quickjs_8c.html#a9dd41b086da4e13b3487cc9c6e2af2b8" target="_top" xlink:title="js_array_find">
<polygon fill="none" stroke="#000000" points="652.5,-622.5 652.5,-641.5 724.5,-641.5 724.5,-622.5 652.5,-622.5"/>
<text text-anchor="middle" x="688.5" y="-629.5" font-family="Helvetica,sans-Serif" font-size="10.00" fill="#000000">js_array_find</text>
</a>
</g>
</g>
<!-- Node173669&#45;&gt;Node173711 -->
<g id="edge27" class="edge">
<title>Node173669&#45;&gt;Node173711</title>
<path fill="none" stroke="#191970" d="M554.533,-344.4428C566.1346,-347.0272 578.0622,-351.9164 586,-361 660.4462,-446.1925 547.6379,-527.7341 622,-613 629.6552,-621.7777 641.0566,-626.6314 652.2662,-629.2745"/>
<polygon fill="#191970" stroke="#191970" points="554.9794,-340.9682 544.53,-342.7174 553.7895,-347.8663 554.9794,-340.9682"/>
</g>
<!-- Node173712 -->
<g id="node24" class="node">
<title>Node173712</title>
<g id="a_node24"><a xlink:href="quickjs_8c.html#ad90c33b4aae1181151bda4a98ac2ef23" target="_top" xlink:title="JS_FlattenIntoArray">
<polygon fill="none" stroke="#ff0000" points="636.5,-566.5 636.5,-585.5 740.5,-585.5 740.5,-566.5 636.5,-566.5"/>
<text text-anchor="middle" x="688.5" y="-573.5" font-family="Helvetica,sans-Serif" font-size="10.00" fill="#000000">JS_FlattenIntoArray</text>
</a>
</g>
</g>
<!-- Node173669&#45;&gt;Node173712 -->
<g id="edge28" class="edge">
<title>Node173669&#45;&gt;Node173712</title>
<path fill="none" stroke="#191970" d="M554.6025,-344.6819C566.1015,-347.2974 577.9461,-352.1451 586,-361 645.5935,-426.5207 562.4712,-491.4206 622,-557 626.0351,-561.4453 631.0308,-564.8789 636.4579,-567.5265"/>
<polygon fill="#191970" stroke="#191970" points="555.1495,-341.2243 544.6902,-342.9134 553.92,-348.1155 555.1495,-341.2243"/>
</g>
<!-- Node173714 -->
<g id="node25" class="node">
<title>Node173714</title>
<g id="a_node25"><a xlink:href="quickjs_8c.html#aed1bf9ce4b9e3a82388679dd6ec7635b" target="_top" xlink:title="js_string_replace">
<polygon fill="none" stroke="#000000" points="643.5,-76.5 643.5,-95.5 733.5,-95.5 733.5,-76.5 643.5,-76.5"/>
<text text-anchor="middle" x="688.5" y="-83.5" font-family="Helvetica,sans-Serif" font-size="10.00" fill="#000000">js_string_replace</text>
</a>
</g>
</g>
<!-- Node173669&#45;&gt;Node173714 -->
<g id="edge30" class="edge">
<title>Node173669&#45;&gt;Node173714</title>
<path fill="none" stroke="#191970" d="M521.8321,-322.0907C529.3695,-276.6053 554.1897,-164.4216 622,-105 628.0504,-99.6981 635.4889,-95.8699 643.1744,-93.1073"/>
<polygon fill="#191970" stroke="#191970" points="518.3467,-321.7267 520.2725,-332.145 525.264,-322.7997 518.3467,-321.7267"/>
</g>
<!-- Node173699&#45;&gt;Node173656 -->
<g id="edge13" class="edge">
<title>Node173699&#45;&gt;Node173656</title>
<path fill="none" stroke="#191970" d="M629.3438,-731.9271C626.7659,-730.4461 624.3006,-728.8092 622,-727 465.6646,-604.0567 391.2301,-353.2271 377.0424,-300.7566"/>
<polygon fill="#191970" stroke="#191970" points="627.9451,-735.1392 638.4663,-736.386 631.019,-728.8502 627.9451,-735.1392"/>
</g>
<!-- Node173705&#45;&gt;Node173656 -->
<g id="edge20" class="edge">
<title>Node173705&#45;&gt;Node173656</title>
<path fill="none" stroke="#191970" d="M641.8834,-174.4209C635.1629,-176.471 628.3697,-178.6874 622,-181 534.7077,-212.6924 434.7956,-260.9551 393.691,-281.3577"/>
<polygon fill="#191970" stroke="#191970" points="643.0213,-177.7343 651.6197,-171.5442 641.0378,-171.0212 643.0213,-177.7343"/>
</g>
<!-- Node173706&#45;&gt;Node173656 -->
<g id="edge22" class="edge">
<title>Node173706&#45;&gt;Node173656</title>
<path fill="none" stroke="#191970" d="M632.1428,-130.522C581.4385,-138.5771 506.719,-156.0554 452,-193 416.7646,-216.7899 390.0543,-261.5973 379.4694,-281.294"/>
<polygon fill="#191970" stroke="#191970" points="632.9032,-133.9468 642.266,-128.9881 631.8545,-127.0258 632.9032,-133.9468"/>
</g>
<!-- Node173712&#45;&gt;Node173712 -->
<g id="edge29" class="edge">
<title>Node173712&#45;&gt;Node173712</title>
<path fill="none" stroke="#191970" d="M662.8305,-595.0292C664.2307,-600.128 672.7872,-604 688.5,-604 713.0273,-604 720.1173,-594.5653 709.7698,-585.7571"/>
<polygon fill="#191970" stroke="#191970" points="666.1052,-596.292 667.2302,-585.7571 659.7811,-593.2911 666.1052,-596.292"/>
</g>
<!-- Node173740&#45;&gt;Node173656 -->
<g id="edge32" class="edge">
<title>Node173740&#45;&gt;Node173656</title>
<path fill="none" stroke="#191970" d="M443.8273,-365.0743C414.4026,-346.1454 388.6649,-316.6966 378.7882,-300.7202"/>
<polygon fill="#191970" stroke="#191970" points="442.2594,-368.215 452.637,-370.3493 445.8554,-362.2092 442.2594,-368.215"/>
</g>
<!-- Node173754&#45;&gt;Node173656 -->
<g id="edge34" class="edge">
<title>Node173754&#45;&gt;Node173656</title>
<path fill="none" stroke="#191970" d="M507.3907,-103.685C493.3752,-120.34 469.5086,-145.2374 452,-169 422.8447,-208.5694 395.144,-259.7935 382.175,-281.3962"/>
<polygon fill="#191970" stroke="#191970" points="510.2078,-105.7666 513.7361,-95.7765 504.748,-101.3859 510.2078,-105.7666"/>
</g>
<!-- Node173754&#45;&gt;Node173714 -->
<g id="edge39" class="edge">
<title>Node173754&#45;&gt;Node173714</title>
<path fill="none" stroke="#191970" d="M564.6208,-86C589.028,-86 618.9828,-86 643.3224,-86"/>
<polygon fill="#191970" stroke="#191970" points="564.5328,-82.5001 554.5328,-86 564.5327,-89.5001 564.5328,-82.5001"/>
</g>
<!-- Node173754&#45;&gt;Node173990 -->
<g id="edge35" class="edge">
<title>Node173754&#45;&gt;Node173990</title>
<path fill="none" stroke="#191970" d="M561.8069,-72.9609C570.044,-69.8179 578.4507,-66.1488 586,-62 603.764,-52.2376 604.2477,-43.7836 622,-34 632.5346,-28.1942 644.749,-23.3164 655.8132,-19.5069"/>
<polygon fill="#191970" stroke="#191970" points="560.4912,-69.7147 552.2767,-76.4059 562.871,-76.2978 560.4912,-69.7147"/>
</g>
<!-- Node174016 -->
<g id="node29" class="node">
<title>Node174016</title>
<g id="a_node29"><a xlink:href="quickjs_8c.html#a45df491949e8e055e732eb13c446d47b" target="_top" xlink:title="js_proxy_get">
<polygon fill="none" stroke="#000000" points="791,-19.5 791,-38.5 863,-38.5 863,-19.5 791,-19.5"/>
<text text-anchor="middle" x="827" y="-26.5" font-family="Helvetica,sans-Serif" font-size="10.00" fill="#000000">js_proxy_get</text>
</a>
</g>
</g>
<!-- Node173754&#45;&gt;Node174016 -->
<g id="edge38" class="edge">
<title>Node173754&#45;&gt;Node174016</title>
<path fill="none" stroke="#191970" d="M564.8284,-77.5188C626.3814,-66.1275 734.5103,-46.1166 790.7361,-35.7112"/>
<polygon fill="#191970" stroke="#191970" points="563.8285,-74.1443 554.6324,-79.4057 565.1024,-81.0274 563.8285,-74.1443"/>
</g>
<!-- Node173990&#45;&gt;Node173656 -->
<g id="edge36" class="edge">
<title>Node173990&#45;&gt;Node173656</title>
<path fill="none" stroke="#191970" d="M618.8392,-19.2788C558.1927,-28.6706 476.2902,-44.9494 452,-67 418.3321,-97.5635 385.0367,-242.2942 376.5618,-281.2977"/>
<polygon fill="#191970" stroke="#191970" points="619.3946,-22.7347 628.7566,-17.7745 618.3447,-15.8138 619.3946,-22.7347"/>
</g>
<!-- Node173990&#45;&gt;Node174016 -->
<g id="edge37" class="edge">
<title>Node173990&#45;&gt;Node174016</title>
<path fill="none" stroke="#191970" d="M757.9661,-19.5296C769.2934,-21.0836 780.6129,-22.6364 790.7125,-24.0219"/>
<polygon fill="#191970" stroke="#191970" points="758.4232,-16.0597 748.0402,-18.168 757.4717,-22.9947 758.4232,-16.0597"/>
</g>
<!-- Node173759&#45;&gt;Node173656 -->
<g id="edge43" class="edge">
<title>Node173759&#45;&gt;Node173656</title>
<path fill="none" stroke="#191970" d="M307.2261,-291C315.892,-291 324.5369,-291 332.6019,-291"/>
<polygon fill="#191970" stroke="#191970" points="307.077,-287.5001 297.077,-291 307.077,-294.5001 307.077,-287.5001"/>
</g>
</g>
</svg>
