<?xml version="1.0" encoding="UTF-8" standalone="no"?>
<!DOCTYPE svg PUBLIC "-//W3C//DTD SVG 1.1//EN"
 "http://www.w3.org/Graphics/SVG/1.1/DTD/svg11.dtd">
<!-- Generated by graphviz version 2.40.1 (20161225.0304)
 -->
<!-- Title: js_proxy_preventExtensions Pages: 1 -->
<!--zoomable 84 -->
<svg id="main" version="1.1" xmlns="http://www.w3.org/2000/svg" xmlns:xlink="http://www.w3.org/1999/xlink" xml:space="preserve" onload="init(evt)">
<style type="text/css"><![CDATA[
.edge:hover path { stroke: red; }
.edge:hover polygon { stroke: red; fill: red; }
]]></style>
<script type="text/javascript"><![CDATA[
var edges = document.getElementsByTagName('g');
if (edges && edges.length) {
  for (var i=0;i<edges.length;i++) {
    if (edges[i].id.substr(0,4)=='edge') {
      edges[i].setAttribute('class','edge');
    }
  }
}
]]></script>
        <defs>
                <circle id="rim" cx="0" cy="0" r="7"/>
                <circle id="rim2" cx="0" cy="0" r="3.5"/>
                <g id="zoomPlus">
                        <use xlink:href="#rim" fill="#404040">
                                <set attributeName="fill" to="#808080" begin="zoomplus.mouseover" end="zoomplus.mouseout"/>
                        </use>
                        <path d="M-4,0h8M0,-4v8" fill="none" stroke="white" stroke-width="1.5" pointer-events="none"/>
                </g>
                <g id="zoomMin">
                        <use xlink:href="#rim" fill="#404040">
                                <set attributeName="fill" to="#808080" begin="zoomminus.mouseover" end="zoomminus.mouseout"/>
                        </use>
                        <path d="M-4,0h8" fill="none" stroke="white" stroke-width="1.5" pointer-events="none"/>
                </g>
                <g id="dirArrow">
                        <path fill="none" stroke="white" stroke-width="1.5" d="M0,-3.0v7 M-2.5,-0.5L0,-3.0L2.5,-0.5"/>
                </g>
               <g id="resetDef">
                       <use xlink:href="#rim2" fill="#404040">
                               <set attributeName="fill" to="#808080" begin="reset.mouseover" end="reset.mouseout"/>
                       </use>
               </g>
        </defs>

<script type="text/javascript">
var viewWidth = 600;
var viewHeight = 84;
var sectionId = 'dynsection-48';
</script>
<script xlink:href="svgpan.js"/>
<svg id="graph" class="graph">
<g id="viewport">
<title>js_proxy_preventExtensions</title>
<!-- Node17756 -->
<g id="node1" class="node">
<title>Node17756</title>
<polygon fill="#bfbfbf" stroke="#000000" points="0,-19.5 0,-38.5 140,-38.5 140,-19.5 0,-19.5"/>
<text text-anchor="middle" x="70" y="-26.5" font-family="Helvetica,sans-Serif" font-size="10.00" fill="#000000">js_proxy_preventExtensions</text>
</g>
<!-- Node17757 -->
<g id="node2" class="node">
<title>Node17757</title>
<g id="a_node2"><a xlink:href="quickjs_8c.html#a12a827f44f5bca80c6eb2c7d890460f4" target="_top" xlink:title="JS_PreventExtensions">
<polygon fill="none" stroke="#000000" points="176,-19.5 176,-38.5 292,-38.5 292,-19.5 176,-19.5"/>
<text text-anchor="middle" x="234" y="-26.5" font-family="Helvetica,sans-Serif" font-size="10.00" fill="#000000">JS_PreventExtensions</text>
</a>
</g>
</g>
<!-- Node17756&#45;&gt;Node17757 -->
<g id="edge1" class="edge">
<title>Node17756&#45;&gt;Node17757</title>
<path fill="none" stroke="#191970" d="M150.1489,-22.2515C158.8022,-22.2372 167.483,-22.3232 175.8055,-22.5094"/>
<polygon fill="#191970" stroke="#191970" points="150.0045,-18.7523 140.0265,-22.3144 150.048,-25.7521 150.0045,-18.7523"/>
</g>
<!-- Node17757&#45;&gt;Node17756 -->
<g id="edge7" class="edge">
<title>Node17757&#45;&gt;Node17756</title>
<path fill="none" stroke="#191970" d="M165.6154,-35.6666C157.1601,-35.771 148.506,-35.7774 140.0265,-35.6856"/>
<polygon fill="#191970" stroke="#191970" points="165.8675,-39.1629 175.8055,-35.4906 165.7465,-32.1639 165.8675,-39.1629"/>
</g>
<!-- Node17758 -->
<g id="node3" class="node">
<title>Node17758</title>
<g id="a_node3"><a xlink:href="quickjs_8c.html#a4b8ef2bb3b35e4a5f6ed8bd837a50e7c" target="_top" xlink:title="JS_ReadObjectRec">
<polygon fill="none" stroke="#000000" points="347,-38.5 347,-57.5 451,-57.5 451,-38.5 347,-38.5"/>
<text text-anchor="middle" x="399" y="-45.5" font-family="Helvetica,sans-Serif" font-size="10.00" fill="#000000">JS_ReadObjectRec</text>
</a>
</g>
</g>
<!-- Node17757&#45;&gt;Node17758 -->
<g id="edge2" class="edge">
<title>Node17757&#45;&gt;Node17758</title>
<path fill="none" stroke="#191970" d="M302.3439,-36.8699C317.2171,-38.5826 332.7231,-40.3681 346.8496,-41.9948"/>
<polygon fill="#191970" stroke="#191970" points="302.5076,-33.3657 292.1728,-35.6987 301.7068,-40.3198 302.5076,-33.3657"/>
</g>
<!-- Node17761 -->
<g id="node5" class="node">
<title>Node17761</title>
<g id="a_node5"><a xlink:href="quickjs_8c.html#a89ecb206ef0659403b7c502f272bdb01" target="_top" xlink:title="js_object_preventExtensions">
<polygon fill="none" stroke="#000000" points="328,-.5 328,-19.5 470,-19.5 470,-.5 328,-.5"/>
<text text-anchor="middle" x="399" y="-7.5" font-family="Helvetica,sans-Serif" font-size="10.00" fill="#000000">js_object_preventExtensions</text>
</a>
</g>
</g>
<!-- Node17757&#45;&gt;Node17761 -->
<g id="edge5" class="edge">
<title>Node17757&#45;&gt;Node17761</title>
<path fill="none" stroke="#191970" d="M302.2992,-21.1352C310.7034,-20.1675 319.3103,-19.1764 327.7568,-18.2038"/>
<polygon fill="#191970" stroke="#191970" points="301.7068,-17.6802 292.1728,-22.3013 302.5076,-24.6343 301.7068,-17.6802"/>
</g>
<!-- Node17758&#45;&gt;Node17758 -->
<g id="edge3" class="edge">
<title>Node17758&#45;&gt;Node17758</title>
<path fill="none" stroke="#191970" d="M371.0009,-66.6539C372.1712,-71.9368 381.5043,-76 399,-76 425.6602,-76 433.3666,-66.5653 422.1194,-57.7571"/>
<polygon fill="#191970" stroke="#191970" points="374.1403,-68.208 375.8806,-57.7571 368.0029,-64.8417 374.1403,-68.208"/>
</g>
<!-- Node17759 -->
<g id="node4" class="node">
<title>Node17759</title>
<g id="a_node4"><a xlink:href="quickjs_8c.html#a12be2ea9c010752715072489497594e9" target="_top" xlink:title="JS_ReadObject">
<polygon fill="none" stroke="#ff0000" points="506,-38.5 506,-57.5 592,-57.5 592,-38.5 506,-38.5"/>
<text text-anchor="middle" x="549" y="-45.5" font-family="Helvetica,sans-Serif" font-size="10.00" fill="#000000">JS_ReadObject</text>
</a>
</g>
</g>
<!-- Node17758&#45;&gt;Node17759 -->
<g id="edge4" class="edge">
<title>Node17758&#45;&gt;Node17759</title>
<path fill="none" stroke="#191970" d="M461.3059,-48C476.3382,-48 492.0713,-48 505.994,-48"/>
<polygon fill="#191970" stroke="#191970" points="461.0418,-44.5001 451.0418,-48 461.0417,-51.5001 461.0418,-44.5001"/>
</g>
<!-- Node17762 -->
<g id="node6" class="node">
<title>Node17762</title>
<g id="a_node6"><a xlink:href="quickjs_8c.html#a3b1f61e0c2e39eb52d8b1c5c8713873e" target="_top" xlink:title="js_object_seal">
<polygon fill="none" stroke="#ff0000" points="509.5,-.5 509.5,-19.5 588.5,-19.5 588.5,-.5 509.5,-.5"/>
<text text-anchor="middle" x="549" y="-7.5" font-family="Helvetica,sans-Serif" font-size="10.00" fill="#000000">js_object_seal</text>
</a>
</g>
</g>
<!-- Node17761&#45;&gt;Node17762 -->
<g id="edge6" class="edge">
<title>Node17761&#45;&gt;Node17762</title>
<path fill="none" stroke="#191970" d="M480.1603,-10C490.2515,-10 500.1929,-10 509.2473,-10"/>
<polygon fill="#191970" stroke="#191970" points="480.0466,-6.5001 470.0466,-10 480.0465,-13.5001 480.0466,-6.5001"/>
</g>
</g>
</svg>
        <g id="navigator" transform="translate(0 0)" fill="#404254">
                <rect fill="#f2f5e9" fill-opacity="0.5" stroke="#606060" stroke-width=".5" x="0" y="0" width="60" height="60"/>
                <use id="zoomplus" xlink:href="#zoomPlus" x="17" y="9" onmousedown="handleZoom(evt,'in')"/>
                <use id="zoomminus" xlink:href="#zoomMin" x="42" y="9" onmousedown="handleZoom(evt,'out')"/>
                <use id="reset" xlink:href="#resetDef" x="30" y="36" onmousedown="handleReset()"/>
                <g id="arrowUp" xlink:href="#dirArrow" transform="translate(30 24)" onmousedown="handlePan(0,-1)">
                  <use xlink:href="#rim" fill="#404040">
                        <set attributeName="fill" to="#808080" begin="arrowUp.mouseover" end="arrowUp.mouseout"/>
                  </use>
                  <path fill="none" stroke="white" stroke-width="1.5" d="M0,-3.0v7 M-2.5,-0.5L0,-3.0L2.5,-0.5"/>
                </g>
                <g id="arrowRight" xlink:href="#dirArrow" transform="rotate(90) translate(36 -43)" onmousedown="handlePan(1,0)">
                  <use xlink:href="#rim" fill="#404040">
                        <set attributeName="fill" to="#808080" begin="arrowRight.mouseover" end="arrowRight.mouseout"/>
                  </use>
                  <path fill="none" stroke="white" stroke-width="1.5" d="M0,-3.0v7 M-2.5,-0.5L0,-3.0L2.5,-0.5"/>
                </g>
                <g id="arrowDown" xlink:href="#dirArrow" transform="rotate(180) translate(-30 -48)" onmousedown="handlePan(0,1)">
                  <use xlink:href="#rim" fill="#404040">
                        <set attributeName="fill" to="#808080" begin="arrowDown.mouseover" end="arrowDown.mouseout"/>
                  </use>
                  <path fill="none" stroke="white" stroke-width="1.5" d="M0,-3.0v7 M-2.5,-0.5L0,-3.0L2.5,-0.5"/>
                </g>
                <g id="arrowLeft" xlink:href="#dirArrow" transform="rotate(270) translate(-36 17)" onmousedown="handlePan(-1,0)">
                  <use xlink:href="#rim" fill="#404040">
                        <set attributeName="fill" to="#808080" begin="arrowLeft.mouseover" end="arrowLeft.mouseout"/>
                  </use>
                  <path fill="none" stroke="white" stroke-width="1.5" d="M0,-3.0v7 M-2.5,-0.5L0,-3.0L2.5,-0.5"/>
                </g>
        </g>
        <svg viewBox="0 0 15 15" width="100%" height="30px" preserveAspectRatio="xMaxYMin meet">
         <g id="arrow_out" transform="scale(0.3 0.3)">
          <a xlink:href="quickjs_8c_a7be64afafb067c71764032c0708d7aa3_icgraph_org.svg" target="_base">
           <rect id="button" ry="5" rx="5" y="6" x="6" height="38" width="38"
                fill="#f2f5e9" fill-opacity="0.5" stroke="#606060" stroke-width="1.0"/>
           <path id="arrow"
             d="M 11.500037,31.436501 C 11.940474,20.09759 22.043105,11.32322 32.158766,21.979434 L 37.068811,17.246167 C 37.068811,17.246167 37.088388,32 37.088388,32 L 22.160133,31.978069 C 22.160133,31.978069 26.997745,27.140456 26.997745,27.140456 C 18.528582,18.264221 13.291696,25.230495 11.500037,31.436501 z"
             style="fill:#404040;"/>
          </a>
         </g>
        </svg>
</svg>
