<?xml version="1.0" encoding="UTF-8" standalone="no"?>
<!DOCTYPE svg PUBLIC "-//W3C//DTD SVG 1.1//EN"
 "http://www.w3.org/Graphics/SVG/1.1/DTD/svg11.dtd">
<!-- Generated by graphviz version 2.40.1 (20161225.0304)
 -->
<!-- Title: JS_DefinePropertyValueStr Pages: 1 -->
<!--zoomable 1022 -->
<svg id="main" version="1.1" xmlns="http://www.w3.org/2000/svg" xmlns:xlink="http://www.w3.org/1999/xlink" xml:space="preserve" onload="init(evt)">
<style type="text/css"><![CDATA[
.edge:hover path { stroke: red; }
.edge:hover polygon { stroke: red; fill: red; }
]]></style>
<script type="text/javascript"><![CDATA[
var edges = document.getElementsByTagName('g');
if (edges && edges.length) {
  for (var i=0;i<edges.length;i++) {
    if (edges[i].id.substr(0,4)=='edge') {
      edges[i].setAttribute('class','edge');
    }
  }
}
]]></script>
        <defs>
                <circle id="rim" cx="0" cy="0" r="7"/>
                <circle id="rim2" cx="0" cy="0" r="3.5"/>
                <g id="zoomPlus">
                        <use xlink:href="#rim" fill="#404040">
                                <set attributeName="fill" to="#808080" begin="zoomplus.mouseover" end="zoomplus.mouseout"/>
                        </use>
                        <path d="M-4,0h8M0,-4v8" fill="none" stroke="white" stroke-width="1.5" pointer-events="none"/>
                </g>
                <g id="zoomMin">
                        <use xlink:href="#rim" fill="#404040">
                                <set attributeName="fill" to="#808080" begin="zoomminus.mouseover" end="zoomminus.mouseout"/>
                        </use>
                        <path d="M-4,0h8" fill="none" stroke="white" stroke-width="1.5" pointer-events="none"/>
                </g>
                <g id="dirArrow">
                        <path fill="none" stroke="white" stroke-width="1.5" d="M0,-3.0v7 M-2.5,-0.5L0,-3.0L2.5,-0.5"/>
                </g>
               <g id="resetDef">
                       <use xlink:href="#rim2" fill="#404040">
                               <set attributeName="fill" to="#808080" begin="reset.mouseover" end="reset.mouseout"/>
                       </use>
               </g>
        </defs>

<script type="text/javascript">
var viewWidth = 1089;
var viewHeight = 1022;
var sectionId = 'dynsection-582';
</script>
<script xlink:href="svgpan.js"/>
<svg id="graph" class="graph">
<g id="viewport">
<title>JS_DefinePropertyValueStr</title>
<!-- Node190135 -->
<g id="node1" class="node">
<title>Node190135</title>
<polygon fill="#bfbfbf" stroke="#000000" points="0,-951.0953 0,-970.0953 137,-970.0953 137,-951.0953 0,-951.0953"/>
<text text-anchor="middle" x="68.5" y="-958.0953" font-family="Helvetica,sans-Serif" font-size="10.00" fill="#000000">JS_DefinePropertyValueStr</text>
</g>
<!-- Node190136 -->
<g id="node2" class="node">
<title>Node190136</title>
<g id="a_node2"><a xlink:href="quickjs_8c.html#a0a8765bd4012467d9139bc24aabcb3ca" target="_top" xlink:title="JS_DefinePropertyValue">
<polygon fill="none" stroke="#000000" points="173,-951.0953 173,-970.0953 297,-970.0953 297,-951.0953 173,-951.0953"/>
<text text-anchor="middle" x="235" y="-958.0953" font-family="Helvetica,sans-Serif" font-size="10.00" fill="#000000">JS_DefinePropertyValue</text>
</a>
</g>
</g>
<!-- Node190135&#45;&gt;Node190136 -->
<g id="edge1" class="edge">
<title>Node190135&#45;&gt;Node190136</title>
<path fill="none" stroke="#191970" d="M137.1832,-960.5953C145.5896,-960.5953 154.2005,-960.5953 162.6586,-960.5953"/>
<polygon fill="#191970" stroke="#191970" points="162.8758,-964.0954 172.8758,-960.5953 162.8757,-957.0954 162.8758,-964.0954"/>
</g>
<!-- Node190270 -->
<g id="node26" class="node">
<title>Node190270</title>
<g id="a_node26"><a xlink:href="quickjs_8c.html#ab7fc45a99935a1c0ba50b0216d9401a9" target="_top" xlink:title="JS_FreeAtom">
<polygon fill="none" stroke="#ff0000" points="697,-865.0953 697,-884.0953 774,-884.0953 774,-865.0953 697,-865.0953"/>
<text text-anchor="middle" x="735.5" y="-872.0953" font-family="Helvetica,sans-Serif" font-size="10.00" fill="#000000">JS_FreeAtom</text>
</a>
</g>
</g>
<!-- Node190135&#45;&gt;Node190270 -->
<g id="edge54" class="edge">
<title>Node190135&#45;&gt;Node190270</title>
<path fill="none" stroke="#191970" d="M100.7358,-970.1739C190.881,-995.1143 451.3045,-1054.4498 640,-969.5953 676.9297,-952.9884 707.5908,-915.3884 723.5695,-892.7892"/>
<polygon fill="#191970" stroke="#191970" points="726.5542,-894.6252 729.3159,-884.3966 720.7783,-890.6704 726.5542,-894.6252"/>
</g>
<!-- Node190471 -->
<g id="node30" class="node">
<title>Node190471</title>
<g id="a_node30"><a xlink:href="quickjs_8c.html#aa2ef5af1544a3012f91a80c98c326b8f" target="_top" xlink:title="JS_NewAtom">
<polygon fill="none" stroke="#ff0000" points="196.5,-913.0953 196.5,-932.0953 273.5,-932.0953 273.5,-913.0953 196.5,-913.0953"/>
<text text-anchor="middle" x="235" y="-920.0953" font-family="Helvetica,sans-Serif" font-size="10.00" fill="#000000">JS_NewAtom</text>
</a>
</g>
</g>
<!-- Node190135&#45;&gt;Node190471 -->
<g id="edge55" class="edge">
<title>Node190135&#45;&gt;Node190471</title>
<path fill="none" stroke="#191970" d="M110.515,-951.0063C133.6116,-945.735 162.3734,-939.1708 186.4305,-933.6803"/>
<polygon fill="#191970" stroke="#191970" points="187.4518,-937.0372 196.4224,-931.3998 185.8942,-930.2127 187.4518,-937.0372"/>
</g>
<!-- Node190137 -->
<g id="node3" class="node">
<title>Node190137</title>
<g id="a_node3"><a xlink:href="quickjs_8c.html#ab50618f1bf78e444caa6da0e3e2785d7" target="_top" xlink:title="JS_DefineProperty">
<polygon fill="none" stroke="#ff0000" points="333,-476.0953 333,-495.0953 432,-495.0953 432,-476.0953 333,-476.0953"/>
<text text-anchor="middle" x="382.5" y="-483.0953" font-family="Helvetica,sans-Serif" font-size="10.00" fill="#000000">JS_DefineProperty</text>
</a>
</g>
</g>
<!-- Node190136&#45;&gt;Node190137 -->
<g id="edge2" class="edge">
<title>Node190136&#45;&gt;Node190137</title>
<path fill="none" stroke="#191970" d="M284.747,-951.0098C289.3361,-948.5434 293.5489,-945.4565 297,-941.5953 356.2189,-875.3415 376.872,-584.5414 381.4468,-505.4904"/>
<polygon fill="#191970" stroke="#191970" points="384.9463,-505.5947 382.0078,-495.4155 377.9572,-505.2055 384.9463,-505.5947"/>
</g>
<!-- Node190163 -->
<g id="node15" class="node">
<title>Node190163</title>
<g id="a_node15"><a xlink:href="quickjs_8h.html#afaa20c47565bc704c6c85f3d77254e7d" target="_top" xlink:title="JS_FreeValue">
<polygon fill="none" stroke="#ff0000" points="696.5,-789.0953 696.5,-808.0953 774.5,-808.0953 774.5,-789.0953 696.5,-789.0953"/>
<text text-anchor="middle" x="735.5" y="-796.0953" font-family="Helvetica,sans-Serif" font-size="10.00" fill="#000000">JS_FreeValue</text>
</a>
</g>
</g>
<!-- Node190136&#45;&gt;Node190163 -->
<g id="edge53" class="edge">
<title>Node190136&#45;&gt;Node190163</title>
<path fill="none" stroke="#191970" d="M297.2531,-965.5296C396.8727,-972.152 586.3669,-979.1298 640,-941.5953 673.9482,-917.8371 652.5472,-889.7553 676,-855.5953 686.6572,-840.0726 702.0849,-825.4437 714.5601,-814.893"/>
<polygon fill="#191970" stroke="#191970" points="717.1142,-817.3251 722.6301,-808.2794 712.6771,-811.911 717.1142,-817.3251"/>
</g>
<!-- Node190138 -->
<g id="node4" class="node">
<title>Node190138</title>
<g id="a_node4"><a xlink:href="quickjs_8c.html#a2f49d212e519c9e138d8b48148b6f955" target="_top" xlink:title="__attribute__">
<polygon fill="none" stroke="#ff0000" points="699,-732.0953 699,-751.0953 772,-751.0953 772,-732.0953 699,-732.0953"/>
<text text-anchor="middle" x="735.5" y="-739.0953" font-family="Helvetica,sans-Serif" font-size="10.00" fill="#000000">__attribute__</text>
</a>
</g>
</g>
<!-- Node190137&#45;&gt;Node190138 -->
<g id="edge3" class="edge">
<title>Node190137&#45;&gt;Node190138</title>
<path fill="none" stroke="#191970" d="M382.9083,-495.1461C384.9616,-530.1206 397.1373,-652.0516 468,-707.5953 531.4336,-757.3159 630.5303,-755.5384 688.6332,-749.0417"/>
<polygon fill="#191970" stroke="#191970" points="689.1321,-752.5069 698.639,-747.8305 688.2908,-745.5576 689.1321,-752.5069"/>
</g>
<!-- Node190196 -->
<g id="node5" class="node">
<title>Node190196</title>
<g id="a_node5"><a xlink:href="quickjs_8c.html#a288254c06a39c9fca740a7abdad2834e" target="_top" xlink:title="__JS_AtomIsTaggedInt">
<polygon fill="none" stroke="#000000" points="676,-594.0953 676,-613.0953 795,-613.0953 795,-594.0953 676,-594.0953"/>
<text text-anchor="middle" x="735.5" y="-601.0953" font-family="Helvetica,sans-Serif" font-size="10.00" fill="#000000">__JS_AtomIsTaggedInt</text>
</a>
</g>
</g>
<!-- Node190137&#45;&gt;Node190196 -->
<g id="edge4" class="edge">
<title>Node190137&#45;&gt;Node190196</title>
<path fill="none" stroke="#191970" d="M392.578,-495.5627C407.6431,-509.8585 437.5376,-535.9596 468,-549.5953 531.5066,-578.0226 610.183,-591.6054 665.7244,-598.02"/>
<polygon fill="#191970" stroke="#191970" points="665.4929,-601.5156 675.8171,-599.1363 666.2625,-594.5581 665.4929,-601.5156"/>
</g>
<!-- Node190197 -->
<g id="node6" class="node">
<title>Node190197</title>
<g id="a_node6"><a xlink:href="quickjs_8c.html#a89f38938cee8077ce1fbba07946ed185" target="_top" xlink:title="__JS_AtomToUInt32">
<polygon fill="none" stroke="#000000" points="681.5,-556.0953 681.5,-575.0953 789.5,-575.0953 789.5,-556.0953 681.5,-556.0953"/>
<text text-anchor="middle" x="735.5" y="-563.0953" font-family="Helvetica,sans-Serif" font-size="10.00" fill="#000000">__JS_AtomToUInt32</text>
</a>
</g>
</g>
<!-- Node190137&#45;&gt;Node190197 -->
<g id="edge5" class="edge">
<title>Node190137&#45;&gt;Node190197</title>
<path fill="none" stroke="#191970" d="M403.8949,-495.1917C420.9566,-502.5151 445.6186,-512.3737 468,-518.5953 536.1799,-537.5482 616.354,-550.432 671.0275,-557.849"/>
<polygon fill="#191970" stroke="#191970" points="670.8957,-561.3623 681.2706,-559.2151 671.8211,-554.4238 670.8957,-561.3623"/>
</g>
<!-- Node190547 -->
<g id="node7" class="node">
<title>Node190547</title>
<g id="a_node7"><a xlink:href="quickjs_8c.html#a68c7ae36cec3bf8bbf6cc0868a71cc4b" target="_top" xlink:title="check_define_prop_flags">
<polygon fill="none" stroke="#000000" points="491.5,-191.0953 491.5,-210.0953 616.5,-210.0953 616.5,-191.0953 491.5,-191.0953"/>
<text text-anchor="middle" x="554" y="-198.0953" font-family="Helvetica,sans-Serif" font-size="10.00" fill="#000000">check_define_prop_flags</text>
</a>
</g>
</g>
<!-- Node190137&#45;&gt;Node190547 -->
<g id="edge6" class="edge">
<title>Node190137&#45;&gt;Node190547</title>
<path fill="none" stroke="#191970" d="M384.4224,-475.8246C393.0542,-432.8842 429.4947,-261.427 468,-224.5953 472.1306,-220.6443 476.8556,-217.3335 481.918,-214.5605"/>
<polygon fill="#191970" stroke="#191970" points="483.7809,-217.5521 491.3394,-210.1279 480.8008,-211.2182 483.7809,-217.5521"/>
</g>
<!-- Node190366 -->
<g id="node8" class="node">
<title>Node190366</title>
<g id="a_node8"><a xlink:href="quickjs_8c.html#ac93c982cb636a5430b191d104083af3e" target="_top" xlink:title="convert_fast_array\l_to_array">
<polygon fill="none" stroke="#ff0000" points="686.5,-419.5953 686.5,-449.5953 784.5,-449.5953 784.5,-419.5953 686.5,-419.5953"/>
<text text-anchor="start" x="694.5" y="-437.5953" font-family="Helvetica,sans-Serif" font-size="10.00" fill="#000000">convert_fast_array</text>
<text text-anchor="middle" x="735.5" y="-426.5953" font-family="Helvetica,sans-Serif" font-size="10.00" fill="#000000">_to_array</text>
</a>
</g>
</g>
<!-- Node190137&#45;&gt;Node190366 -->
<g id="edge7" class="edge">
<title>Node190137&#45;&gt;Node190366</title>
<path fill="none" stroke="#191970" d="M432.3276,-478.3964C496.5004,-469.125 607.8922,-453.0316 676.3091,-443.147"/>
<polygon fill="#191970" stroke="#191970" points="677.0969,-446.5696 686.4937,-441.6756 676.0959,-439.6415 677.0969,-446.5696"/>
</g>
<!-- Node190367 -->
<g id="node9" class="node">
<title>Node190367</title>
<g id="a_node9"><a xlink:href="quickjs_8c.html#a3dd8e78607dbc729614deacf55901b95" target="_top" xlink:title="js_shape_prepare_update">
<polygon fill="none" stroke="#ff0000" points="831,-425.0953 831,-444.0953 959,-444.0953 959,-425.0953 831,-425.0953"/>
<text text-anchor="middle" x="895" y="-432.0953" font-family="Helvetica,sans-Serif" font-size="10.00" fill="#000000">js_shape_prepare_update</text>
</a>
</g>
</g>
<!-- Node190137&#45;&gt;Node190367 -->
<g id="edge44" class="edge">
<title>Node190137&#45;&gt;Node190367</title>
<path fill="none" stroke="#191970" d="M383.3513,-475.7852C386.7748,-443.1353 402.6925,-337.8222 468,-295.5953 529.0219,-256.1394 730.3308,-262.4541 795,-295.5953 844.4402,-320.9321 874.9868,-383.3473 887.8784,-415.2066"/>
<polygon fill="#191970" stroke="#191970" points="884.6971,-416.6835 891.5753,-424.742 891.2237,-414.153 884.6971,-416.6835"/>
</g>
<!-- Node190155 -->
<g id="node10" class="node">
<title>Node190155</title>
<g id="a_node10"><a xlink:href="quickjs_8c.html#a643df594b75933007bcdbb071b5ea8c5" target="_top" xlink:title="get_shape_prop">
<polygon fill="none" stroke="#000000" points="995,-425.0953 995,-444.0953 1081,-444.0953 1081,-425.0953 995,-425.0953"/>
<text text-anchor="middle" x="1038" y="-432.0953" font-family="Helvetica,sans-Serif" font-size="10.00" fill="#000000">get_shape_prop</text>
</a>
</g>
</g>
<!-- Node190137&#45;&gt;Node190155 -->
<g id="edge14" class="edge">
<title>Node190137&#45;&gt;Node190155</title>
<path fill="none" stroke="#191970" d="M432.0078,-494.8014C509.7462,-507.8114 664.9955,-527.9514 795,-508.5953 872.4148,-497.0692 959.2826,-465.9583 1005.2889,-447.9574"/>
<polygon fill="#191970" stroke="#191970" points="1006.7252,-451.1532 1014.7362,-444.2197 1004.1499,-444.6442 1006.7252,-451.1532"/>
</g>
<!-- Node190154 -->
<g id="node11" class="node">
<title>Node190154</title>
<g id="a_node11"><a xlink:href="quickjs_8c.html#a06b76f5124fd985e35f4c652fd018d6d" target="_top" xlink:title="find_own_property">
<polygon fill="none" stroke="#000000" points="847,-286.0953 847,-305.0953 943,-305.0953 943,-286.0953 847,-286.0953"/>
<text text-anchor="middle" x="895" y="-293.0953" font-family="Helvetica,sans-Serif" font-size="10.00" fill="#000000">find_own_property</text>
</a>
</g>
</g>
<!-- Node190137&#45;&gt;Node190154 -->
<g id="edge10" class="edge">
<title>Node190137&#45;&gt;Node190154</title>
<path fill="none" stroke="#191970" d="M384.6853,-475.9968C393.8278,-436.7687 430.2892,-289.4825 468,-263.5953 593.5221,-177.4286 791.4968,-249.6128 865.6594,-281.9298"/>
<polygon fill="#191970" stroke="#191970" points="864.3221,-285.1655 874.8821,-286.0237 867.1622,-278.7674 864.3221,-285.1655"/>
</g>
<!-- Node190184 -->
<g id="node12" class="node">
<title>Node190184</title>
<g id="a_node12"><a xlink:href="quickjs_8c.html#a9e7b4bccf927d811b0f99b40b08c0472" target="_top" xlink:title="free_var_ref">
<polygon fill="none" stroke="#ff0000" points="520,-153.0953 520,-172.0953 588,-172.0953 588,-153.0953 520,-153.0953"/>
<text text-anchor="middle" x="554" y="-160.0953" font-family="Helvetica,sans-Serif" font-size="10.00" fill="#000000">free_var_ref</text>
</a>
</g>
</g>
<!-- Node190137&#45;&gt;Node190184 -->
<g id="edge12" class="edge">
<title>Node190137&#45;&gt;Node190184</title>
<path fill="none" stroke="#191970" d="M383.892,-475.8023C390.8105,-428.4921 422.968,-224.1425 468,-181.5953 479.1977,-171.0155 494.9018,-165.8203 509.8308,-163.4101"/>
<polygon fill="#191970" stroke="#191970" points="510.4831,-166.8562 519.9775,-162.1546 509.6234,-159.9092 510.4831,-166.8562"/>
</g>
<!-- Node190368 -->
<g id="node13" class="node">
<title>Node190368</title>
<g id="a_node13"><a xlink:href="quickjs_8c.html#a6df3ef223d7e76a0db2c14d972dbfa77" target="_top" xlink:title="get_prop_flags">
<polygon fill="none" stroke="#000000" points="695.5,-343.0953 695.5,-362.0953 775.5,-362.0953 775.5,-343.0953 695.5,-343.0953"/>
<text text-anchor="middle" x="735.5" y="-350.0953" font-family="Helvetica,sans-Serif" font-size="10.00" fill="#000000">get_prop_flags</text>
</a>
</g>
</g>
<!-- Node190137&#45;&gt;Node190368 -->
<g id="edge13" class="edge">
<title>Node190137&#45;&gt;Node190368</title>
<path fill="none" stroke="#191970" d="M386.3067,-476.0507C395.9796,-453.2316 423.905,-395.6331 468,-371.5953 536.1154,-334.4631 628.8889,-337.6196 685.3628,-344.3489"/>
<polygon fill="#191970" stroke="#191970" points="685.1087,-347.8448 695.4712,-345.6381 685.9944,-340.9011 685.1087,-347.8448"/>
</g>
<!-- Node190221 -->
<g id="node14" class="node">
<title>Node190221</title>
<g id="a_node14"><a xlink:href="quickjs_8c.html#ab4e100a9cde5f7ec87c92f5e766dbbab" target="_top" xlink:title="JS_AtomIsNumericIndex1">
<polygon fill="none" stroke="#ff0000" points="488.5,-647.0953 488.5,-666.0953 619.5,-666.0953 619.5,-647.0953 488.5,-647.0953"/>
<text text-anchor="middle" x="554" y="-654.0953" font-family="Helvetica,sans-Serif" font-size="10.00" fill="#000000">JS_AtomIsNumericIndex1</text>
</a>
</g>
</g>
<!-- Node190137&#45;&gt;Node190221 -->
<g id="edge15" class="edge">
<title>Node190137&#45;&gt;Node190221</title>
<path fill="none" stroke="#191970" d="M385.2661,-495.2001C393.3371,-521.4684 419.4145,-595.038 468,-632.5953 473.5207,-636.8629 479.7591,-640.3718 486.2919,-643.2568"/>
<polygon fill="#191970" stroke="#191970" points="485.4366,-646.6799 496.0248,-647.0529 487.9802,-640.1584 485.4366,-646.6799"/>
</g>
<!-- Node190137&#45;&gt;Node190163 -->
<g id="edge31" class="edge">
<title>Node190137&#45;&gt;Node190163</title>
<path fill="none" stroke="#191970" d="M384.3788,-495.32C392.8253,-538.0484 428.5929,-708.5566 468,-743.5953 499.764,-771.8382 618.2499,-787.4987 686.4011,-794.3478"/>
<polygon fill="#191970" stroke="#191970" points="686.187,-797.8435 696.4802,-795.3335 686.8683,-790.8767 686.187,-797.8435"/>
</g>
<!-- Node190191 -->
<g id="node16" class="node">
<title>Node190191</title>
<g id="a_node16"><a xlink:href="quickjs_8h.html#ad80a83d73e9b7d872b88fbf2943aebe9" target="_top" xlink:title="JS_IsException">
<polygon fill="none" stroke="#000000" points="692.5,-685.0953 692.5,-704.0953 778.5,-704.0953 778.5,-685.0953 692.5,-685.0953"/>
<text text-anchor="middle" x="735.5" y="-692.0953" font-family="Helvetica,sans-Serif" font-size="10.00" fill="#000000">JS_IsException</text>
</a>
</g>
</g>
<!-- Node190137&#45;&gt;Node190191 -->
<g id="edge32" class="edge">
<title>Node190137&#45;&gt;Node190191</title>
<path fill="none" stroke="#191970" d="M383.4697,-495.2293C387.2674,-527.3224 404.2304,-631.08 468,-675.5953 531.0247,-719.5906 624.0068,-714.7444 682.099,-705.754"/>
<polygon fill="#191970" stroke="#191970" points="682.8711,-709.1742 692.1715,-704.0994 681.7364,-702.2667 682.8711,-709.1742"/>
</g>
<!-- Node190224 -->
<g id="node17" class="node">
<title>Node190224</title>
<g id="a_node17"><a xlink:href="quickjs_8h.html#a2050bc428da1c65ac7eb87c3fa3b0392" target="_top" xlink:title="JS_NewInt32">
<polygon fill="none" stroke="#000000" points="697.5,-640.0953 697.5,-659.0953 773.5,-659.0953 773.5,-640.0953 697.5,-640.0953"/>
<text text-anchor="middle" x="735.5" y="-647.0953" font-family="Helvetica,sans-Serif" font-size="10.00" fill="#000000">JS_NewInt32</text>
</a>
</g>
</g>
<!-- Node190137&#45;&gt;Node190224 -->
<g id="edge35" class="edge">
<title>Node190137&#45;&gt;Node190224</title>
<path fill="none" stroke="#191970" d="M387.9147,-495.3393C399.6767,-515.5518 429.6173,-562.109 468,-585.5953 504.3915,-607.8632 620.3104,-630.2266 687.0044,-641.7029"/>
<polygon fill="#191970" stroke="#191970" points="686.8204,-645.2219 697.266,-643.4496 687.9951,-638.3211 686.8204,-645.2219"/>
</g>
<!-- Node190365 -->
<g id="node18" class="node">
<title>Node190365</title>
<g id="a_node18"><a xlink:href="quickjs_8c.html#ad5565bb5cfd5321f181573257f3b0c91" target="_top" xlink:title="JS_CreateProperty">
<polygon fill="none" stroke="#ff0000" points="504,-381.0953 504,-400.0953 604,-400.0953 604,-381.0953 504,-381.0953"/>
<text text-anchor="middle" x="554" y="-388.0953" font-family="Helvetica,sans-Serif" font-size="10.00" fill="#000000">JS_CreateProperty</text>
</a>
</g>
</g>
<!-- Node190137&#45;&gt;Node190365 -->
<g id="edge21" class="edge">
<title>Node190137&#45;&gt;Node190365</title>
<path fill="none" stroke="#191970" d="M391.5226,-475.8154C406.1413,-460.5413 436.5524,-431.0705 468,-414.5953 476.8564,-409.9555 486.7093,-406.1302 496.4944,-403.0035"/>
<polygon fill="#191970" stroke="#191970" points="497.6339,-406.3161 506.2174,-400.1054 495.6343,-399.6078 497.6339,-406.3161"/>
</g>
<!-- Node190162 -->
<g id="node19" class="node">
<title>Node190162</title>
<g id="a_node19"><a xlink:href="quickjs_8h.html#a775522f2d084fc8fa0fcb33f390006b4" target="_top" xlink:title="JS_DupValue">
<polygon fill="none" stroke="#000000" points="697,-39.0953 697,-58.0953 774,-58.0953 774,-39.0953 697,-39.0953"/>
<text text-anchor="middle" x="735.5" y="-46.0953" font-family="Helvetica,sans-Serif" font-size="10.00" fill="#000000">JS_DupValue</text>
</a>
</g>
</g>
<!-- Node190137&#45;&gt;Node190162 -->
<g id="edge30" class="edge">
<title>Node190137&#45;&gt;Node190162</title>
<path fill="none" stroke="#191970" d="M382.7177,-475.8967C384.2989,-415.2913 396.102,-89.2654 468,-29.5953 536.8042,27.5071 652.9191,-11.7577 706.6401,-34.9395"/>
<polygon fill="#191970" stroke="#191970" points="705.3591,-38.2 715.9194,-39.054 708.1965,-31.8009 705.3591,-38.2"/>
</g>
<!-- Node190341 -->
<g id="node20" class="node">
<title>Node190341</title>
<g id="a_node20"><a xlink:href="quickjs_8c.html#a1ca9cdb1fa2ffc3e6506e92b200e490f" target="_top" xlink:title="JS_IsFunction">
<polygon fill="none" stroke="#000000" points="695.5,-305.0953 695.5,-324.0953 775.5,-324.0953 775.5,-305.0953 695.5,-305.0953"/>
<text text-anchor="middle" x="735.5" y="-312.0953" font-family="Helvetica,sans-Serif" font-size="10.00" fill="#000000">JS_IsFunction</text>
</a>
</g>
</g>
<!-- Node190137&#45;&gt;Node190341 -->
<g id="edge33" class="edge">
<title>Node190137&#45;&gt;Node190341</title>
<path fill="none" stroke="#191970" d="M384.6417,-476.0738C391.3663,-448.6545 414.8532,-369.327 468,-335.5953 533.858,-293.796 628.0068,-297.6931 685.261,-305.3907"/>
<polygon fill="#191970" stroke="#191970" points="684.7654,-308.8553 695.1608,-306.8092 685.7584,-301.9261 684.7654,-308.8553"/>
</g>
<!-- Node190242 -->
<g id="node21" class="node">
<title>Node190242</title>
<g id="a_node21"><a xlink:href="quickjs_8h.html#a4e407128a9605afb77523e49e9a627fd" target="_top" xlink:title="JS_IsUndefined">
<polygon fill="none" stroke="#000000" points="511,-115.0953 511,-134.0953 597,-134.0953 597,-115.0953 511,-115.0953"/>
<text text-anchor="middle" x="554" y="-122.0953" font-family="Helvetica,sans-Serif" font-size="10.00" fill="#000000">JS_IsUndefined</text>
</a>
</g>
</g>
<!-- Node190137&#45;&gt;Node190242 -->
<g id="edge34" class="edge">
<title>Node190137&#45;&gt;Node190242</title>
<path fill="none" stroke="#191970" d="M383.5499,-475.9624C389.2406,-425.5166 417.99,-192.2466 468,-143.5953 476.8193,-135.0156 488.5914,-129.9524 500.5886,-127.0426"/>
<polygon fill="#191970" stroke="#191970" points="501.516,-130.4277 510.6593,-125.075 500.1737,-123.5576 501.516,-130.4277"/>
</g>
<!-- Node190548 -->
<g id="node22" class="node">
<title>Node190548</title>
<g id="a_node22"><a xlink:href="quickjs_8c.html#af2333dd9d30e60437b73af383477188c" target="_top" xlink:title="JS_NumberIsInteger">
<polygon fill="none" stroke="#ff0000" points="500.5,-77.0953 500.5,-96.0953 607.5,-96.0953 607.5,-77.0953 500.5,-77.0953"/>
<text text-anchor="middle" x="554" y="-84.0953" font-family="Helvetica,sans-Serif" font-size="10.00" fill="#000000">JS_NumberIsInteger</text>
</a>
</g>
</g>
<!-- Node190137&#45;&gt;Node190548 -->
<g id="edge36" class="edge">
<title>Node190137&#45;&gt;Node190548</title>
<path fill="none" stroke="#191970" d="M383.2916,-475.9831C387.9035,-422.3328 413.0253,-160.3573 468,-105.5953 474.2967,-99.323 482.1675,-94.9195 490.5731,-91.8594"/>
<polygon fill="#191970" stroke="#191970" points="491.6704,-95.1843 500.235,-88.9474 489.6504,-88.4821 491.6704,-95.1843"/>
</g>
<!-- Node190551 -->
<g id="node23" class="node">
<title>Node190551</title>
<g id="a_node23"><a xlink:href="quickjs_8c.html#aced4796120beed3ba63dc0b234b399ab" target="_top" xlink:title="JS_NumberIsNegativeOrMinusZero">
<polygon fill="none" stroke="#000000" points="468,-913.0953 468,-932.0953 640,-932.0953 640,-913.0953 468,-913.0953"/>
<text text-anchor="middle" x="554" y="-920.0953" font-family="Helvetica,sans-Serif" font-size="10.00" fill="#000000">JS_NumberIsNegativeOrMinusZero</text>
</a>
</g>
</g>
<!-- Node190137&#45;&gt;Node190551 -->
<g id="edge37" class="edge">
<title>Node190137&#45;&gt;Node190551</title>
<path fill="none" stroke="#191970" d="M383.0933,-495.4005C386.7538,-552.6018 408.1107,-842.7598 468,-903.5953 469.2906,-904.9063 470.6498,-906.136 472.0684,-907.2892"/>
<polygon fill="#191970" stroke="#191970" points="470.5141,-910.4593 480.7771,-913.0904 474.3949,-904.6335 470.5141,-910.4593"/>
</g>
<!-- Node190525 -->
<g id="node24" class="node">
<title>Node190525</title>
<g id="a_node24"><a xlink:href="quickjs_8c.html#a24be89a128d1cd7c0908604815b2b854" target="_top" xlink:title="js_same_value">
<polygon fill="none" stroke="#ff0000" points="513,-39.0953 513,-58.0953 595,-58.0953 595,-39.0953 513,-39.0953"/>
<text text-anchor="middle" x="554" y="-46.0953" font-family="Helvetica,sans-Serif" font-size="10.00" fill="#000000">js_same_value</text>
</a>
</g>
</g>
<!-- Node190137&#45;&gt;Node190525 -->
<g id="edge38" class="edge">
<title>Node190137&#45;&gt;Node190525</title>
<path fill="none" stroke="#191970" d="M383.0933,-475.7902C386.7538,-418.5889 408.1107,-128.4309 468,-67.5953 477.1414,-58.3095 489.7267,-53.1004 502.4499,-50.283"/>
<polygon fill="#191970" stroke="#191970" points="503.3728,-53.6748 512.6202,-48.504 502.1666,-46.7795 503.3728,-53.6748"/>
</g>
<!-- Node190386 -->
<g id="node25" class="node">
<title>Node190386</title>
<g id="a_node25"><a xlink:href="quickjs_8c.html#aee75cc1546e19479e3ccda58f3b50a96" target="_top" xlink:title="JS_SetPropertyValue">
<polygon fill="none" stroke="#ff0000" points="499,-799.0953 499,-818.0953 609,-818.0953 609,-799.0953 499,-799.0953"/>
<text text-anchor="middle" x="554" y="-806.0953" font-family="Helvetica,sans-Serif" font-size="10.00" fill="#000000">JS_SetPropertyValue</text>
</a>
</g>
</g>
<!-- Node190137&#45;&gt;Node190386 -->
<g id="edge40" class="edge">
<title>Node190137&#45;&gt;Node190386</title>
<path fill="none" stroke="#191970" d="M383.9643,-495.1797C391.2218,-541.4887 424.7228,-741.5931 468,-784.5953 474.0064,-790.5636 481.3652,-795.0776 489.2257,-798.4862"/>
<polygon fill="#191970" stroke="#191970" points="488.0403,-801.7796 498.6328,-802.0008 490.4902,-795.2223 488.0403,-801.7796"/>
</g>
<!-- Node190307 -->
<g id="node27" class="node">
<title>Node190307</title>
<g id="a_node27"><a xlink:href="quickjs_8c.html#a726b00d108e0a0f4d958c36c2e426a64" target="_top" xlink:title="JS_ThrowTypeErrorNotAnObject">
<polygon fill="none" stroke="#000000" points="474,-875.0953 474,-894.0953 634,-894.0953 634,-875.0953 474,-875.0953"/>
<text text-anchor="middle" x="554" y="-882.0953" font-family="Helvetica,sans-Serif" font-size="10.00" fill="#000000">JS_ThrowTypeErrorNotAnObject</text>
</a>
</g>
</g>
<!-- Node190137&#45;&gt;Node190307 -->
<g id="edge45" class="edge">
<title>Node190137&#45;&gt;Node190307</title>
<path fill="none" stroke="#191970" d="M383.2916,-495.2076C387.9035,-548.8579 413.0253,-810.8333 468,-865.5953 469.3033,-866.8936 470.6741,-868.1119 472.1032,-869.2547"/>
<polygon fill="#191970" stroke="#191970" points="470.5805,-872.4421 480.86,-875.0079 474.4242,-866.5918 470.5805,-872.4421"/>
</g>
<!-- Node190552 -->
<g id="node28" class="node">
<title>Node190552</title>
<g id="a_node28"><a xlink:href="quickjs_8c.html#a6d48937f79966a773376cc24834c663f" target="_top" xlink:title="js_update_property\l_flags">
<polygon fill="none" stroke="#000000" points="686,-468.5953 686,-498.5953 785,-498.5953 785,-468.5953 686,-468.5953"/>
<text text-anchor="start" x="694" y="-486.5953" font-family="Helvetica,sans-Serif" font-size="10.00" fill="#000000">js_update_property</text>
<text text-anchor="middle" x="735.5" y="-475.5953" font-family="Helvetica,sans-Serif" font-size="10.00" fill="#000000">_flags</text>
</a>
</g>
</g>
<!-- Node190137&#45;&gt;Node190552 -->
<g id="edge46" class="edge">
<title>Node190137&#45;&gt;Node190552</title>
<path fill="none" stroke="#191970" d="M432.3276,-485.313C496.3196,-484.9505 607.265,-484.3219 675.73,-483.934"/>
<polygon fill="#191970" stroke="#191970" points="675.9459,-487.4329 685.9259,-483.8762 675.9062,-480.433 675.9459,-487.4329"/>
</g>
<!-- Node190389 -->
<g id="node29" class="node">
<title>Node190389</title>
<g id="a_node29"><a xlink:href="quickjs_8c.html#aeb73aae9c3ad7daaf7646e3f2f89245a" target="_top" xlink:title="set_array_length">
<polygon fill="none" stroke="#ff0000" points="509.5,-837.0953 509.5,-856.0953 598.5,-856.0953 598.5,-837.0953 509.5,-837.0953"/>
<text text-anchor="middle" x="554" y="-844.0953" font-family="Helvetica,sans-Serif" font-size="10.00" fill="#000000">set_array_length</text>
</a>
</g>
</g>
<!-- Node190137&#45;&gt;Node190389 -->
<g id="edge48" class="edge">
<title>Node190137&#45;&gt;Node190389</title>
<path fill="none" stroke="#191970" d="M383.5499,-495.2283C389.2406,-545.6741 417.99,-778.944 468,-827.5953 476.4768,-835.8419 487.6815,-840.8397 499.1921,-843.7992"/>
<polygon fill="#191970" stroke="#191970" points="498.8221,-847.2971 509.3252,-845.9057 500.2469,-840.4436 498.8221,-847.2971"/>
</g>
<!-- Node190366&#45;&gt;Node190367 -->
<g id="edge8" class="edge">
<title>Node190366&#45;&gt;Node190367</title>
<path fill="none" stroke="#191970" d="M784.6567,-434.5953C796.0268,-434.5953 808.3749,-434.5953 820.557,-434.5953"/>
<polygon fill="#191970" stroke="#191970" points="820.7259,-438.0954 830.7259,-434.5953 820.7258,-431.0954 820.7259,-438.0954"/>
</g>
<!-- Node190367&#45;&gt;Node190155 -->
<g id="edge9" class="edge">
<title>Node190367&#45;&gt;Node190155</title>
<path fill="none" stroke="#191970" d="M959.3884,-434.5953C967.8326,-434.5953 976.4104,-434.5953 984.6444,-434.5953"/>
<polygon fill="#191970" stroke="#191970" points="984.8544,-438.0954 994.8544,-434.5953 984.8543,-431.0954 984.8544,-438.0954"/>
</g>
<!-- Node190154&#45;&gt;Node190155 -->
<g id="edge11" class="edge">
<title>Node190154&#45;&gt;Node190155</title>
<path fill="none" stroke="#191970" d="M904.829,-305.1494C928.8099,-328.4595 990.5618,-388.484 1020.8002,-417.8766"/>
<polygon fill="#191970" stroke="#191970" points="1018.492,-420.5141 1028.1023,-424.9744 1023.3711,-415.4946 1018.492,-420.5141"/>
</g>
<!-- Node190221&#45;&gt;Node190196 -->
<g id="edge16" class="edge">
<title>Node190221&#45;&gt;Node190196</title>
<path fill="none" stroke="#191970" d="M586.8683,-646.9974C616.6784,-638.2926 660.7895,-625.4116 693.2166,-615.9426"/>
<polygon fill="#191970" stroke="#191970" points="694.2582,-619.2846 702.8762,-613.1218 692.296,-612.5653 694.2582,-619.2846"/>
</g>
<!-- Node190221&#45;&gt;Node190197 -->
<g id="edge17" class="edge">
<title>Node190221&#45;&gt;Node190197</title>
<path fill="none" stroke="#191970" d="M568.0834,-646.8586C590.2323,-631.8802 634.9252,-602.9936 676,-584.5953 680.9482,-582.3789 686.2332,-580.3035 691.5348,-578.3986"/>
<polygon fill="#191970" stroke="#191970" points="692.6921,-581.7019 701.0262,-575.1602 690.4317,-575.0769 692.6921,-581.7019"/>
</g>
<!-- Node190221&#45;&gt;Node190163 -->
<g id="edge18" class="edge">
<title>Node190221&#45;&gt;Node190163</title>
<path fill="none" stroke="#191970" d="M564.3646,-666.2887C584.9158,-685.3116 632.5995,-728.4744 676,-760.5953 687.0066,-768.7414 699.7381,-777.0145 710.5929,-783.7524"/>
<polygon fill="#191970" stroke="#191970" points="708.8341,-786.7794 719.1905,-789.0146 712.4884,-780.8089 708.8341,-786.7794"/>
</g>
<!-- Node190221&#45;&gt;Node190191 -->
<g id="edge19" class="edge">
<title>Node190221&#45;&gt;Node190191</title>
<path fill="none" stroke="#191970" d="M599.8001,-666.1843C624.8315,-671.4251 655.967,-677.9438 682.098,-683.4147"/>
<polygon fill="#191970" stroke="#191970" points="681.7086,-686.909 692.2136,-685.5326 683.1431,-680.0576 681.7086,-686.909"/>
</g>
<!-- Node190221&#45;&gt;Node190224 -->
<g id="edge20" class="edge">
<title>Node190221&#45;&gt;Node190224</title>
<path fill="none" stroke="#191970" d="M619.5257,-654.0682C641.8498,-653.2072 666.3861,-652.2609 687.1184,-651.4613"/>
<polygon fill="#191970" stroke="#191970" points="687.4142,-654.9526 697.2718,-651.0697 687.1443,-647.9578 687.4142,-654.9526"/>
</g>
<!-- Node190365&#45;&gt;Node190138 -->
<g id="edge22" class="edge">
<title>Node190365&#45;&gt;Node190138</title>
<path fill="none" stroke="#191970" d="M557.1164,-400.1057C573.8098,-450.86 652.7582,-688.4484 676,-713.5953 681.1675,-719.1864 687.6804,-723.7646 694.4871,-727.4783"/>
<polygon fill="#191970" stroke="#191970" points="693.3272,-730.8056 703.8522,-732.0203 696.3819,-724.5073 693.3272,-730.8056"/>
</g>
<!-- Node190365&#45;&gt;Node190196 -->
<g id="edge23" class="edge">
<title>Node190365&#45;&gt;Node190196</title>
<path fill="none" stroke="#191970" d="M557.3394,-400.336C568.664,-431.917 608.6982,-532.4421 676,-584.5953 678.3304,-586.4012 680.8368,-588.0377 683.4557,-589.5206"/>
<polygon fill="#191970" stroke="#191970" points="682.1742,-592.7887 692.7004,-593.9929 685.2226,-586.4873 682.1742,-592.7887"/>
</g>
<!-- Node190365&#45;&gt;Node190197 -->
<g id="edge24" class="edge">
<title>Node190365&#45;&gt;Node190197</title>
<path fill="none" stroke="#191970" d="M564.1065,-400.4022C584.9812,-420.6509 634.39,-468.5421 676,-508.5953 690.0679,-522.1369 706.0499,-537.4431 717.9052,-548.7821"/>
<polygon fill="#191970" stroke="#191970" points="715.7324,-551.5471 725.3791,-555.928 720.5699,-546.4875 715.7324,-551.5471"/>
</g>
<!-- Node190365&#45;&gt;Node190366 -->
<g id="edge25" class="edge">
<title>Node190365&#45;&gt;Node190366</title>
<path fill="none" stroke="#191970" d="M593.3828,-400.1427C617.711,-406.0404 649.3829,-413.7185 676.6515,-420.329"/>
<polygon fill="#191970" stroke="#191970" points="675.9338,-423.7563 686.4769,-422.7109 677.583,-416.9534 675.9338,-423.7563"/>
</g>
<!-- Node190365&#45;&gt;Node190155 -->
<g id="edge27" class="edge">
<title>Node190365&#45;&gt;Node190155</title>
<path fill="none" stroke="#191970" d="M604.174,-390.8886C680.9967,-391.968 832.2052,-396.583 959,-415.5953 970.5451,-417.3265 982.8816,-419.9239 994.2914,-422.6467"/>
<polygon fill="#191970" stroke="#191970" points="993.489,-426.0536 1004.0365,-425.0531 995.1672,-419.2578 993.489,-426.0536"/>
</g>
<!-- Node190365&#45;&gt;Node190368 -->
<g id="edge26" class="edge">
<title>Node190365&#45;&gt;Node190368</title>
<path fill="none" stroke="#191970" d="M599.8001,-381.0063C625.8735,-375.5474 658.5697,-368.702 685.3343,-363.0983"/>
<polygon fill="#191970" stroke="#191970" points="686.2051,-366.492 695.2756,-361.017 684.7705,-359.6406 686.2051,-366.492"/>
</g>
<!-- Node190365&#45;&gt;Node190162 -->
<g id="edge28" class="edge">
<title>Node190365&#45;&gt;Node190162</title>
<path fill="none" stroke="#191970" d="M559.0438,-381.0913C583.7202,-334.5936 691.8951,-130.7599 725.5024,-67.4338"/>
<polygon fill="#191970" stroke="#191970" points="728.7984,-68.6894 730.3946,-58.2155 722.6151,-65.4079 728.7984,-68.6894"/>
</g>
<!-- Node190365&#45;&gt;Node190341 -->
<g id="edge29" class="edge">
<title>Node190365&#45;&gt;Node190341</title>
<path fill="none" stroke="#191970" d="M572.6913,-380.9458C596.3543,-368.9443 638.5556,-348.2517 676,-333.5953 681.5632,-331.4178 687.4877,-329.2975 693.3603,-327.3107"/>
<polygon fill="#191970" stroke="#191970" points="694.7119,-330.5509 703.1214,-324.1065 692.5286,-323.9 694.7119,-330.5509"/>
</g>
<!-- Node190525&#45;&gt;Node190162 -->
<g id="edge39" class="edge">
<title>Node190525&#45;&gt;Node190162</title>
<path fill="none" stroke="#191970" d="M595.1852,-48.5953C622.3851,-48.5953 658.1544,-48.5953 686.7701,-48.5953"/>
<polygon fill="#191970" stroke="#191970" points="686.96,-52.0954 696.9599,-48.5953 686.9599,-45.0954 686.96,-52.0954"/>
</g>
<!-- Node190386&#45;&gt;Node190138 -->
<g id="edge41" class="edge">
<title>Node190386&#45;&gt;Node190138</title>
<path fill="none" stroke="#191970" d="M580.0045,-798.9959C611.5425,-787.3537 664.849,-767.6759 700.1099,-754.6594"/>
<polygon fill="#191970" stroke="#191970" points="701.3746,-757.9235 709.5437,-751.177 698.9504,-751.3567 701.3746,-757.9235"/>
</g>
<!-- Node190386&#45;&gt;Node190163 -->
<g id="edge43" class="edge">
<title>Node190386&#45;&gt;Node190163</title>
<path fill="none" stroke="#191970" d="M609.4422,-805.5407C633.8704,-804.1948 662.3424,-802.626 686.0402,-801.3204"/>
<polygon fill="#191970" stroke="#191970" points="686.4262,-804.8045 696.2185,-800.7596 686.0411,-797.8151 686.4262,-804.8045"/>
</g>
<!-- Node190386&#45;&gt;Node190270 -->
<g id="edge42" class="edge">
<title>Node190386&#45;&gt;Node190270</title>
<path fill="none" stroke="#191970" d="M606.8623,-818.1771C617.9483,-820.7677 629.4672,-823.9004 640,-827.5953 664.7621,-836.282 691.4388,-849.7938 710.2863,-860.1046"/>
<polygon fill="#191970" stroke="#191970" points="708.6811,-863.2167 719.1217,-865.0178 712.0831,-857.099 708.6811,-863.2167"/>
</g>
<!-- Node190552&#45;&gt;Node190367 -->
<g id="edge47" class="edge">
<title>Node190552&#45;&gt;Node190367</title>
<path fill="none" stroke="#191970" d="M784.6567,-468.4939C806.94,-461.6482 832.9793,-453.6487 854.1649,-447.1403"/>
<polygon fill="#191970" stroke="#191970" points="855.2999,-450.4531 863.8311,-444.1707 853.2442,-443.7618 855.2999,-450.4531"/>
</g>
<!-- Node190389&#45;&gt;Node190138 -->
<g id="edge49" class="edge">
<title>Node190389&#45;&gt;Node190138</title>
<path fill="none" stroke="#191970" d="M598.7714,-842.8384C612.7978,-840.1079 627.7891,-835.463 640,-827.5953 662.4166,-813.1521 656.4488,-797.7299 676,-779.5953 685.522,-770.7633 697.3551,-762.7323 707.9548,-756.3525"/>
<polygon fill="#191970" stroke="#191970" points="709.9643,-759.2333 716.8632,-751.1923 706.4557,-753.1761 709.9643,-759.2333"/>
</g>
<!-- Node190389&#45;&gt;Node190155 -->
<g id="edge50" class="edge">
<title>Node190389&#45;&gt;Node190155</title>
<path fill="none" stroke="#191970" d="M598.6248,-852.0574C650.0376,-856.0463 735.1129,-855.3578 795,-817.5953 938.2515,-727.2666 1012.3101,-518.4117 1032.3342,-453.9188"/>
<polygon fill="#191970" stroke="#191970" points="1035.7208,-454.8114 1035.2699,-444.2262 1029.0214,-452.7822 1035.7208,-454.8114"/>
</g>
<!-- Node190389&#45;&gt;Node190163 -->
<g id="edge52" class="edge">
<title>Node190389&#45;&gt;Node190163</title>
<path fill="none" stroke="#191970" d="M598.7932,-837.3868C612.1059,-834.4649 626.6874,-831.0816 640,-827.5953 658.6362,-822.7149 679.0976,-816.6038 696.2839,-811.2515"/>
<polygon fill="#191970" stroke="#191970" points="697.4951,-814.5397 705.986,-808.2029 695.3966,-807.8617 697.4951,-814.5397"/>
</g>
<!-- Node190389&#45;&gt;Node190270 -->
<g id="edge51" class="edge">
<title>Node190389&#45;&gt;Node190270</title>
<path fill="none" stroke="#191970" d="M598.8652,-853.5167C625.5802,-857.638 659.4944,-862.8699 686.851,-867.0903"/>
<polygon fill="#191970" stroke="#191970" points="686.5692,-870.5881 696.986,-868.6538 687.6365,-863.6699 686.5692,-870.5881"/>
</g>
</g>
</svg>
        <g id="navigator" transform="translate(0 0)" fill="#404254">
                <rect fill="#f2f5e9" fill-opacity="0.5" stroke="#606060" stroke-width=".5" x="0" y="0" width="60" height="60"/>
                <use id="zoomplus" xlink:href="#zoomPlus" x="17" y="9" onmousedown="handleZoom(evt,'in')"/>
                <use id="zoomminus" xlink:href="#zoomMin" x="42" y="9" onmousedown="handleZoom(evt,'out')"/>
                <use id="reset" xlink:href="#resetDef" x="30" y="36" onmousedown="handleReset()"/>
                <g id="arrowUp" xlink:href="#dirArrow" transform="translate(30 24)" onmousedown="handlePan(0,-1)">
                  <use xlink:href="#rim" fill="#404040">
                        <set attributeName="fill" to="#808080" begin="arrowUp.mouseover" end="arrowUp.mouseout"/>
                  </use>
                  <path fill="none" stroke="white" stroke-width="1.5" d="M0,-3.0v7 M-2.5,-0.5L0,-3.0L2.5,-0.5"/>
                </g>
                <g id="arrowRight" xlink:href="#dirArrow" transform="rotate(90) translate(36 -43)" onmousedown="handlePan(1,0)">
                  <use xlink:href="#rim" fill="#404040">
                        <set attributeName="fill" to="#808080" begin="arrowRight.mouseover" end="arrowRight.mouseout"/>
                  </use>
                  <path fill="none" stroke="white" stroke-width="1.5" d="M0,-3.0v7 M-2.5,-0.5L0,-3.0L2.5,-0.5"/>
                </g>
                <g id="arrowDown" xlink:href="#dirArrow" transform="rotate(180) translate(-30 -48)" onmousedown="handlePan(0,1)">
                  <use xlink:href="#rim" fill="#404040">
                        <set attributeName="fill" to="#808080" begin="arrowDown.mouseover" end="arrowDown.mouseout"/>
                  </use>
                  <path fill="none" stroke="white" stroke-width="1.5" d="M0,-3.0v7 M-2.5,-0.5L0,-3.0L2.5,-0.5"/>
                </g>
                <g id="arrowLeft" xlink:href="#dirArrow" transform="rotate(270) translate(-36 17)" onmousedown="handlePan(-1,0)">
                  <use xlink:href="#rim" fill="#404040">
                        <set attributeName="fill" to="#808080" begin="arrowLeft.mouseover" end="arrowLeft.mouseout"/>
                  </use>
                  <path fill="none" stroke="white" stroke-width="1.5" d="M0,-3.0v7 M-2.5,-0.5L0,-3.0L2.5,-0.5"/>
                </g>
        </g>
        <svg viewBox="0 0 15 15" width="100%" height="30px" preserveAspectRatio="xMaxYMin meet">
         <g id="arrow_out" transform="scale(0.3 0.3)">
          <a xlink:href="quickjs_8c_a841f4cb887e4d9e03e94a0697255e578_cgraph_org.svg" target="_base">
           <rect id="button" ry="5" rx="5" y="6" x="6" height="38" width="38"
                fill="#f2f5e9" fill-opacity="0.5" stroke="#606060" stroke-width="1.0"/>
           <path id="arrow"
             d="M 11.500037,31.436501 C 11.940474,20.09759 22.043105,11.32322 32.158766,21.979434 L 37.068811,17.246167 C 37.068811,17.246167 37.088388,32 37.088388,32 L 22.160133,31.978069 C 22.160133,31.978069 26.997745,27.140456 26.997745,27.140456 C 18.528582,18.264221 13.291696,25.230495 11.500037,31.436501 z"
             style="fill:#404040;"/>
          </a>
         </g>
        </svg>
</svg>
