<?xml version="1.0" encoding="UTF-8" standalone="no"?>
<!DOCTYPE svg PUBLIC "-//W3C//DTD SVG 1.1//EN"
 "http://www.w3.org/Graphics/SVG/1.1/DTD/svg11.dtd">
<!-- Generated by graphviz version 2.40.1 (20161225.0304)
 -->
<!-- Title: js_bigfloat_toExponential Pages: 1 -->
<!--zoomable 818 -->
<svg id="main" version="1.1" xmlns="http://www.w3.org/2000/svg" xmlns:xlink="http://www.w3.org/1999/xlink" xml:space="preserve" onload="init(evt)">
<style type="text/css"><![CDATA[
.edge:hover path { stroke: red; }
.edge:hover polygon { stroke: red; fill: red; }
]]></style>
<script type="text/javascript"><![CDATA[
var edges = document.getElementsByTagName('g');
if (edges && edges.length) {
  for (var i=0;i<edges.length;i++) {
    if (edges[i].id.substr(0,4)=='edge') {
      edges[i].setAttribute('class','edge');
    }
  }
}
]]></script>
        <defs>
                <circle id="rim" cx="0" cy="0" r="7"/>
                <circle id="rim2" cx="0" cy="0" r="3.5"/>
                <g id="zoomPlus">
                        <use xlink:href="#rim" fill="#404040">
                                <set attributeName="fill" to="#808080" begin="zoomplus.mouseover" end="zoomplus.mouseout"/>
                        </use>
                        <path d="M-4,0h8M0,-4v8" fill="none" stroke="white" stroke-width="1.5" pointer-events="none"/>
                </g>
                <g id="zoomMin">
                        <use xlink:href="#rim" fill="#404040">
                                <set attributeName="fill" to="#808080" begin="zoomminus.mouseover" end="zoomminus.mouseout"/>
                        </use>
                        <path d="M-4,0h8" fill="none" stroke="white" stroke-width="1.5" pointer-events="none"/>
                </g>
                <g id="dirArrow">
                        <path fill="none" stroke="white" stroke-width="1.5" d="M0,-3.0v7 M-2.5,-0.5L0,-3.0L2.5,-0.5"/>
                </g>
               <g id="resetDef">
                       <use xlink:href="#rim2" fill="#404040">
                               <set attributeName="fill" to="#808080" begin="reset.mouseover" end="reset.mouseout"/>
                       </use>
               </g>
        </defs>

<script type="text/javascript">
var viewWidth = 787;
var viewHeight = 818;
var sectionId = 'dynsection-1853';
</script>
<script xlink:href="svgpan.js"/>
<svg id="graph" class="graph">
<g id="viewport">
<title>js_bigfloat_toExponential</title>
<!-- Node504020 -->
<g id="node1" class="node">
<title>Node504020</title>
<polygon fill="#bfbfbf" stroke="#000000" points="0,-152.5 0,-171.5 125,-171.5 125,-152.5 0,-152.5"/>
<text text-anchor="middle" x="62.5" y="-159.5" font-family="Helvetica,sans-Serif" font-size="10.00" fill="#000000">js_bigfloat_toExponential</text>
</g>
<!-- Node504021 -->
<g id="node2" class="node">
<title>Node504021</title>
<g id="a_node2"><a xlink:href="quickjs_8c.html#a92815f19a133746818092b7df3abe39d" target="_top" xlink:title="get_rnd_mode">
<polygon fill="none" stroke="#000000" points="175,-247.5 175,-266.5 253,-266.5 253,-247.5 175,-247.5"/>
<text text-anchor="middle" x="214" y="-254.5" font-family="Helvetica,sans-Serif" font-size="10.00" fill="#000000">get_rnd_mode</text>
</a>
</g>
</g>
<!-- Node504020&#45;&gt;Node504021 -->
<g id="edge1" class="edge">
<title>Node504020&#45;&gt;Node504021</title>
<path fill="none" stroke="#191970" d="M77.8604,-171.6319C104.2888,-188.2042 158.5473,-222.2277 190,-241.9505"/>
<polygon fill="#191970" stroke="#191970" points="188.2674,-244.9953 198.599,-247.3426 191.9863,-239.0648 188.2674,-244.9953"/>
</g>
<!-- Node504026 -->
<g id="node6" class="node">
<title>Node504026</title>
<g id="a_node6"><a xlink:href="quickjs_8h.html#afaa20c47565bc704c6c85f3d77254e7d" target="_top" xlink:title="JS_FreeValue">
<polygon fill="none" stroke="#ff0000" points="602,-304.5 602,-323.5 680,-323.5 680,-304.5 602,-304.5"/>
<text text-anchor="middle" x="641" y="-311.5" font-family="Helvetica,sans-Serif" font-size="10.00" fill="#000000">JS_FreeValue</text>
</a>
</g>
</g>
<!-- Node504020&#45;&gt;Node504026 -->
<g id="edge8" class="edge">
<title>Node504020&#45;&gt;Node504026</title>
<path fill="none" stroke="#191970" d="M67.5951,-171.7232C80.064,-194.4209 114.5219,-250.8731 161,-276 234.301,-315.6279 484.5356,-316.5804 591.6737,-315.0621"/>
<polygon fill="#191970" stroke="#191970" points="591.9445,-318.5584 601.8889,-314.9036 591.8357,-311.5593 591.9445,-318.5584"/>
</g>
<!-- Node504055 -->
<g id="node7" class="node">
<title>Node504055</title>
<g id="a_node7"><a xlink:href="quickjs_8h.html#ad80a83d73e9b7d872b88fbf2943aebe9" target="_top" xlink:title="JS_IsException">
<polygon fill="none" stroke="#000000" points="598,-228.5 598,-247.5 684,-247.5 684,-228.5 598,-228.5"/>
<text text-anchor="middle" x="641" y="-235.5" font-family="Helvetica,sans-Serif" font-size="10.00" fill="#000000">JS_IsException</text>
</a>
</g>
</g>
<!-- Node504020&#45;&gt;Node504055 -->
<g id="edge34" class="edge">
<title>Node504020&#45;&gt;Node504055</title>
<path fill="none" stroke="#191970" d="M119.2825,-152.4834C190.8774,-141.9828 317.5953,-128.3804 425,-143 487.6104,-151.5223 505.0424,-153.6409 562,-181 584.5103,-191.8126 607.3351,-209.1148 622.6229,-221.8233"/>
<polygon fill="#191970" stroke="#191970" points="620.4045,-224.5312 630.2908,-228.3406 624.9379,-219.1975 620.4045,-224.5312"/>
</g>
<!-- Node504492 -->
<g id="node8" class="node">
<title>Node504492</title>
<g id="a_node8"><a xlink:href="quickjs_8c.html#a48caecb3b59b0b8a2d60c01c775c7ea0" target="_top" xlink:title="js_bigfloat_is_finite">
<polygon fill="none" stroke="#000000" points="164,-76.5 164,-95.5 264,-95.5 264,-76.5 164,-76.5"/>
<text text-anchor="middle" x="214" y="-83.5" font-family="Helvetica,sans-Serif" font-size="10.00" fill="#000000">js_bigfloat_is_finite</text>
</a>
</g>
</g>
<!-- Node504020&#45;&gt;Node504492 -->
<g id="edge7" class="edge">
<title>Node504020&#45;&gt;Node504492</title>
<path fill="none" stroke="#191970" d="M79.7737,-152.4736C99.3142,-141.7928 132.1724,-124.1203 161,-110 167.9847,-106.5787 175.5626,-103.0443 182.7449,-99.7743"/>
<polygon fill="#191970" stroke="#191970" points="184.5208,-102.8131 192.2008,-95.5146 181.6457,-96.4308 184.5208,-102.8131"/>
</g>
<!-- Node504493 -->
<g id="node9" class="node">
<title>Node504493</title>
<g id="a_node9"><a xlink:href="quickjs_8c.html#a1fee789102995207275aacbbaee299cf" target="_top" xlink:title="js_ftoa">
<polygon fill="none" stroke="#000000" points="191,-551.5 191,-570.5 237,-570.5 237,-551.5 191,-551.5"/>
<text text-anchor="middle" x="214" y="-558.5" font-family="Helvetica,sans-Serif" font-size="10.00" fill="#000000">js_ftoa</text>
</a>
</g>
</g>
<!-- Node504020&#45;&gt;Node504493 -->
<g id="edge9" class="edge">
<title>Node504020&#45;&gt;Node504493</title>
<path fill="none" stroke="#191970" d="M66.245,-171.863C86.1818,-224.37 179.9475,-471.3171 206.7988,-542.0344"/>
<polygon fill="#191970" stroke="#191970" points="203.5641,-543.3754 210.3859,-551.4818 210.1082,-540.8906 203.5641,-543.3754"/>
</g>
<!-- Node504145 -->
<g id="node24" class="node">
<title>Node504145</title>
<g id="a_node24"><a xlink:href="quickjs_8h.html#a4e407128a9605afb77523e49e9a627fd" target="_top" xlink:title="JS_IsUndefined">
<polygon fill="none" stroke="#000000" points="171,-38.5 171,-57.5 257,-57.5 257,-38.5 171,-38.5"/>
<text text-anchor="middle" x="214" y="-45.5" font-family="Helvetica,sans-Serif" font-size="10.00" fill="#000000">JS_IsUndefined</text>
</a>
</g>
</g>
<!-- Node504020&#45;&gt;Node504145 -->
<g id="edge35" class="edge">
<title>Node504020&#45;&gt;Node504145</title>
<path fill="none" stroke="#191970" d="M70.1443,-152.2614C85.4681,-133.3353 121.8458,-91.3173 161,-67 164.1761,-65.0274 167.5864,-63.2201 171.0898,-61.5728"/>
<polygon fill="#191970" stroke="#191970" points="172.649,-64.7132 180.4846,-57.582 169.9122,-58.2704 172.649,-64.7132"/>
</g>
<!-- Node504571 -->
<g id="node25" class="node">
<title>Node504571</title>
<g id="a_node25"><a xlink:href="quickjs_8c.html#aaa619d77d6956c20daff7b4e2f1e9574" target="_top" xlink:title="js_thisBigFloatValue">
<polygon fill="none" stroke="#000000" points="161,-190.5 161,-209.5 267,-209.5 267,-190.5 161,-190.5"/>
<text text-anchor="middle" x="214" y="-197.5" font-family="Helvetica,sans-Serif" font-size="10.00" fill="#000000">js_thisBigFloatValue</text>
</a>
</g>
</g>
<!-- Node504020&#45;&gt;Node504571 -->
<g id="edge36" class="edge">
<title>Node504020&#45;&gt;Node504571</title>
<path fill="none" stroke="#191970" d="M100.7298,-171.589C120.6319,-176.5809 145.1567,-182.7324 166.2909,-188.0334"/>
<polygon fill="#191970" stroke="#191970" points="165.494,-191.4418 176.0451,-190.4799 167.1971,-184.6521 165.494,-191.4418"/>
</g>
<!-- Node504573 -->
<g id="node27" class="node">
<title>Node504573</title>
<g id="a_node27"><a xlink:href="quickjs_8c.html#aee6a60a9e9f3c0d9827d5cb0e15c23b4" target="_top" xlink:title="JS_ToInt64Sat">
<polygon fill="none" stroke="#000000" points="323,-152.5 323,-171.5 405,-171.5 405,-152.5 323,-152.5"/>
<text text-anchor="middle" x="364" y="-159.5" font-family="Helvetica,sans-Serif" font-size="10.00" fill="#000000">JS_ToInt64Sat</text>
</a>
</g>
</g>
<!-- Node504020&#45;&gt;Node504573 -->
<g id="edge39" class="edge">
<title>Node504020&#45;&gt;Node504573</title>
<path fill="none" stroke="#191970" d="M125.3373,-162C180.8784,-162 260.8924,-162 312.669,-162"/>
<polygon fill="#191970" stroke="#191970" points="312.951,-165.5001 322.9509,-162 312.9509,-158.5001 312.951,-165.5001"/>
</g>
<!-- Node504079 -->
<g id="node29" class="node">
<title>Node504079</title>
<g id="a_node29"><a xlink:href="quickjs_8c.html#a7bcb8e1a20cbc8374a5f9ba4a2088cec" target="_top" xlink:title="JS_ToString">
<polygon fill="none" stroke="#ff0000" points="178.5,-.5 178.5,-19.5 249.5,-19.5 249.5,-.5 178.5,-.5"/>
<text text-anchor="middle" x="214" y="-7.5" font-family="Helvetica,sans-Serif" font-size="10.00" fill="#000000">JS_ToString</text>
</a>
</g>
</g>
<!-- Node504020&#45;&gt;Node504079 -->
<g id="edge44" class="edge">
<title>Node504020&#45;&gt;Node504079</title>
<path fill="none" stroke="#191970" d="M67.0398,-152.449C78.9952,-128.279 113.7112,-64.1188 161,-29 163.5087,-27.1369 166.2174,-25.4428 169.0369,-23.9046"/>
<polygon fill="#191970" stroke="#191970" points="170.7753,-26.9539 178.3108,-19.5063 167.7757,-20.6292 170.7753,-26.9539"/>
</g>
<!-- Node504022 -->
<g id="node3" class="node">
<title>Node504022</title>
<g id="a_node3"><a xlink:href="quickjs_8c.html#ad698ea01233894f912303776fe3c08c8" target="_top" xlink:title="JS_ToInt32Sat">
<polygon fill="none" stroke="#000000" points="323,-266.5 323,-285.5 405,-285.5 405,-266.5 323,-266.5"/>
<text text-anchor="middle" x="364" y="-273.5" font-family="Helvetica,sans-Serif" font-size="10.00" fill="#000000">JS_ToInt32Sat</text>
</a>
</g>
</g>
<!-- Node504021&#45;&gt;Node504022 -->
<g id="edge2" class="edge">
<title>Node504021&#45;&gt;Node504022</title>
<path fill="none" stroke="#191970" d="M253.0192,-261.9424C271.2774,-264.2551 293.2641,-267.0401 312.8345,-269.519"/>
<polygon fill="#191970" stroke="#191970" points="312.4552,-272.9989 322.8158,-270.7833 313.3349,-266.0544 312.4552,-272.9989"/>
</g>
<!-- Node504023 -->
<g id="node4" class="node">
<title>Node504023</title>
<g id="a_node4"><a xlink:href="quickjs_8h.html#a775522f2d084fc8fa0fcb33f390006b4" target="_top" xlink:title="JS_DupValue">
<polygon fill="none" stroke="#000000" points="473,-228.5 473,-247.5 550,-247.5 550,-228.5 473,-228.5"/>
<text text-anchor="middle" x="511.5" y="-235.5" font-family="Helvetica,sans-Serif" font-size="10.00" fill="#000000">JS_DupValue</text>
</a>
</g>
</g>
<!-- Node504022&#45;&gt;Node504023 -->
<g id="edge3" class="edge">
<title>Node504022&#45;&gt;Node504023</title>
<path fill="none" stroke="#191970" d="M401.2205,-266.411C420.5093,-261.4417 444.2584,-255.3233 464.771,-250.0387"/>
<polygon fill="#191970" stroke="#191970" points="465.7366,-253.4043 474.5472,-247.5201 463.9902,-246.6256 465.7366,-253.4043"/>
</g>
<!-- Node504024 -->
<g id="node5" class="node">
<title>Node504024</title>
<g id="a_node5"><a xlink:href="quickjs_8c.html#a419bec82cb80e98e08626a9a5212ec4c" target="_top" xlink:title="JS_ToInt32SatFree">
<polygon fill="none" stroke="#ff0000" points="461,-266.5 461,-285.5 562,-285.5 562,-266.5 461,-266.5"/>
<text text-anchor="middle" x="511.5" y="-273.5" font-family="Helvetica,sans-Serif" font-size="10.00" fill="#000000">JS_ToInt32SatFree</text>
</a>
</g>
</g>
<!-- Node504022&#45;&gt;Node504024 -->
<g id="edge4" class="edge">
<title>Node504022&#45;&gt;Node504024</title>
<path fill="none" stroke="#191970" d="M405.087,-276C419.1466,-276 435.191,-276 450.4823,-276"/>
<polygon fill="#191970" stroke="#191970" points="450.9146,-279.5001 460.9146,-276 450.9146,-272.5001 450.9146,-279.5001"/>
</g>
<!-- Node504024&#45;&gt;Node504026 -->
<g id="edge5" class="edge">
<title>Node504024&#45;&gt;Node504026</title>
<path fill="none" stroke="#191970" d="M544.1783,-285.589C560.5888,-290.4044 580.6763,-296.2988 598.2922,-301.468"/>
<polygon fill="#191970" stroke="#191970" points="597.7512,-304.9567 608.3321,-304.4141 599.7222,-298.2399 597.7512,-304.9567"/>
</g>
<!-- Node504024&#45;&gt;Node504055 -->
<g id="edge6" class="edge">
<title>Node504024&#45;&gt;Node504055</title>
<path fill="none" stroke="#191970" d="M544.1783,-266.411C560.5888,-261.5956 580.6763,-255.7012 598.2922,-250.532"/>
<polygon fill="#191970" stroke="#191970" points="599.7222,-253.7601 608.3321,-247.5859 597.7512,-247.0433 599.7222,-253.7601"/>
</g>
<!-- Node504493&#45;&gt;Node504026 -->
<g id="edge24" class="edge">
<title>Node504493&#45;&gt;Node504026</title>
<path fill="none" stroke="#191970" d="M220.63,-551.461C233.9904,-532.9823 266.0479,-492.2586 303,-471 406.062,-411.7082 460.7445,-466.3267 562,-404 591.7864,-385.6653 616.541,-352.5605 630.0136,-332.0165"/>
<polygon fill="#191970" stroke="#191970" points="632.9783,-333.8768 635.3873,-323.5595 627.0702,-330.1226 632.9783,-333.8768"/>
</g>
<!-- Node504493&#45;&gt;Node504055 -->
<g id="edge25" class="edge">
<title>Node504493&#45;&gt;Node504055</title>
<path fill="none" stroke="#191970" d="M217.9394,-551.3289C228.1534,-527.526 257.8783,-465.8056 303,-435 351.9637,-401.5714 516.0999,-408.5246 562,-371 590.9364,-347.3437 578.6449,-326.9737 598,-295 606.4082,-281.11 617.4693,-266.5116 626.2673,-255.5661"/>
<polygon fill="#191970" stroke="#191970" points="629.1178,-257.6094 632.744,-247.6544 623.7013,-253.1752 629.1178,-257.6094"/>
</g>
<!-- Node504157 -->
<g id="node10" class="node">
<title>Node504157</title>
<g id="a_node10"><a xlink:href="libbf_8h.html#a2b9d906b21e903f2f7f1c9044674ab7d" target="_top" xlink:title="bf_delete">
<polygon fill="none" stroke="#000000" points="613,-542.5 613,-561.5 669,-561.5 669,-542.5 613,-542.5"/>
<text text-anchor="middle" x="641" y="-549.5" font-family="Helvetica,sans-Serif" font-size="10.00" fill="#000000">bf_delete</text>
</a>
</g>
</g>
<!-- Node504493&#45;&gt;Node504157 -->
<g id="edge10" class="edge">
<title>Node504493&#45;&gt;Node504157</title>
<path fill="none" stroke="#191970" d="M237.2606,-560.5097C307.1776,-559.0361 515.9491,-554.6357 602.6224,-552.8089"/>
<polygon fill="#191970" stroke="#191970" points="602.8874,-556.3042 612.8114,-552.5941 602.7399,-549.3057 602.8874,-556.3042"/>
</g>
<!-- Node504494 -->
<g id="node12" class="node">
<title>Node504494</title>
<g id="a_node12"><a xlink:href="libbf_8h.html#ab8c991bf0d1ab72d676d3c9c3d63c2a7" target="_top" xlink:title="bf_free">
<polygon fill="none" stroke="#000000" points="617.5,-627.5 617.5,-646.5 664.5,-646.5 664.5,-627.5 617.5,-627.5"/>
<text text-anchor="middle" x="641" y="-634.5" font-family="Helvetica,sans-Serif" font-size="10.00" fill="#000000">bf_free</text>
</a>
</g>
</g>
<!-- Node504493&#45;&gt;Node504494 -->
<g id="edge12" class="edge">
<title>Node504493&#45;&gt;Node504494</title>
<path fill="none" stroke="#191970" d="M216.2317,-570.589C225.7257,-610.4737 264.0538,-762.3945 303,-789 416.7007,-866.6731 576.5176,-708.2483 625.882,-654.1928"/>
<polygon fill="#191970" stroke="#191970" points="628.502,-656.5136 632.59,-646.7392 623.2989,-651.831 628.502,-656.5136"/>
</g>
<!-- Node504495 -->
<g id="node13" class="node">
<title>Node504495</title>
<g id="a_node13"><a xlink:href="libbf_8h.html#a3ab9f99dbc84f8cce63cf3867b8986e5" target="_top" xlink:title="bf_ftoa">
<polygon fill="none" stroke="#000000" points="340.5,-608.5 340.5,-627.5 387.5,-627.5 387.5,-608.5 340.5,-608.5"/>
<text text-anchor="middle" x="364" y="-615.5" font-family="Helvetica,sans-Serif" font-size="10.00" fill="#000000">bf_ftoa</text>
</a>
</g>
</g>
<!-- Node504493&#45;&gt;Node504495 -->
<g id="edge14" class="edge">
<title>Node504493&#45;&gt;Node504495</title>
<path fill="none" stroke="#191970" d="M234.6198,-570.5108C252.5061,-578.5896 279.1927,-590.2356 303,-599 311.8486,-602.2575 321.5468,-605.4467 330.5547,-608.2537"/>
<polygon fill="#191970" stroke="#191970" points="329.7632,-611.6715 340.3494,-611.2438 331.8071,-604.9765 329.7632,-611.6715"/>
</g>
<!-- Node504060 -->
<g id="node15" class="node">
<title>Node504060</title>
<g id="a_node15"><a xlink:href="libbf_8h.html#abacc1410890af049e02ebd788364ac48" target="_top" xlink:title="bf_init">
<polygon fill="none" stroke="#000000" points="619.5,-494.5 619.5,-513.5 662.5,-513.5 662.5,-494.5 619.5,-494.5"/>
<text text-anchor="middle" x="641" y="-501.5" font-family="Helvetica,sans-Serif" font-size="10.00" fill="#000000">bf_init</text>
</a>
</g>
</g>
<!-- Node504493&#45;&gt;Node504060 -->
<g id="edge20" class="edge">
<title>Node504493&#45;&gt;Node504060</title>
<path fill="none" stroke="#191970" d="M225.5042,-551.404C241.6782,-538.4919 272.5781,-515.8905 303,-505 411.6988,-466.0878 447.3492,-471.4067 562,-485 577.8939,-486.8844 595.2174,-490.8307 609.5812,-494.641"/>
<polygon fill="#191970" stroke="#191970" points="608.884,-498.0792 619.4544,-497.36 610.7426,-491.3305 608.884,-498.0792"/>
</g>
<!-- Node504300 -->
<g id="node16" class="node">
<title>Node504300</title>
<g id="a_node16"><a xlink:href="libbf_8h.html#ae019ee8073f4359da157d3b1e5fdba7e" target="_top" xlink:title="bf_set">
<polygon fill="none" stroke="#ff0000" points="619,-589.5 619,-608.5 663,-608.5 663,-589.5 619,-589.5"/>
<text text-anchor="middle" x="641" y="-596.5" font-family="Helvetica,sans-Serif" font-size="10.00" fill="#000000">bf_set</text>
</a>
</g>
</g>
<!-- Node504493&#45;&gt;Node504300 -->
<g id="edge22" class="edge">
<title>Node504493&#45;&gt;Node504300</title>
<path fill="none" stroke="#191970" d="M221.2575,-570.6132C234.9681,-587.8739 266.5899,-623.5694 303,-637 410.0587,-676.4908 548.0835,-634.7097 609.3224,-611.8513"/>
<polygon fill="#191970" stroke="#191970" points="610.7231,-615.063 618.8174,-608.2269 608.2268,-608.5233 610.7231,-615.063"/>
</g>
<!-- Node504292 -->
<g id="node17" class="node">
<title>Node504292</title>
<g id="a_node17"><a xlink:href="libbf_8h.html#abd4ca8358212228a53981a32a10286b5" target="_top" xlink:title="bf_round">
<polygon fill="none" stroke="#ff0000" points="337,-760.5 337,-779.5 391,-779.5 391,-760.5 337,-760.5"/>
<text text-anchor="middle" x="364" y="-767.5" font-family="Helvetica,sans-Serif" font-size="10.00" fill="#000000">bf_round</text>
</a>
</g>
</g>
<!-- Node504493&#45;&gt;Node504292 -->
<g id="edge21" class="edge">
<title>Node504493&#45;&gt;Node504292</title>
<path fill="none" stroke="#191970" d="M215.6574,-570.5264C221.5333,-601.4153 244.2596,-699.7564 303,-751 309.7286,-756.8699 318.2573,-760.9269 326.7886,-763.7307"/>
<polygon fill="#191970" stroke="#191970" points="326.1254,-767.1789 336.6972,-766.4801 327.9971,-760.4337 326.1254,-767.1789"/>
</g>
<!-- Node504569 -->
<g id="node18" class="node">
<title>Node504569</title>
<g id="a_node18"><a xlink:href="libbf_8h.html#a4c95d4c8b5efb651dd6eb3041ce91df6" target="_top" xlink:title="bf_set_exp_bits">
<polygon fill="none" stroke="#000000" points="321,-722.5 321,-741.5 407,-741.5 407,-722.5 321,-722.5"/>
<text text-anchor="middle" x="364" y="-729.5" font-family="Helvetica,sans-Serif" font-size="10.00" fill="#000000">bf_set_exp_bits</text>
</a>
</g>
</g>
<!-- Node504493&#45;&gt;Node504569 -->
<g id="edge23" class="edge">
<title>Node504493&#45;&gt;Node504569</title>
<path fill="none" stroke="#191970" d="M216.9615,-570.8535C225.5728,-597.816 253.2045,-673.426 303,-713 305.7313,-715.1707 308.7123,-717.0947 311.8404,-718.8001"/>
<polygon fill="#191970" stroke="#191970" points="310.4176,-721.9984 320.9602,-723.0499 313.3744,-715.6535 310.4176,-721.9984"/>
</g>
<!-- Node504085 -->
<g id="node19" class="node">
<title>Node504085</title>
<g id="a_node19"><a xlink:href="quickjs_8c.html#a0ee6a3654a6016393fac5e1c108f403a" target="_top" xlink:title="JS_NewString">
<polygon fill="none" stroke="#ff0000" points="324,-684.5 324,-703.5 404,-703.5 404,-684.5 324,-684.5"/>
<text text-anchor="middle" x="364" y="-691.5" font-family="Helvetica,sans-Serif" font-size="10.00" fill="#000000">JS_NewString</text>
</a>
</g>
</g>
<!-- Node504493&#45;&gt;Node504085 -->
<g id="edge26" class="edge">
<title>Node504493&#45;&gt;Node504085</title>
<path fill="none" stroke="#191970" d="M219.4313,-570.5424C231.7329,-591.3726 263.7294,-641.3399 303,-670 308.5587,-674.0568 314.8948,-677.5362 321.3309,-680.4845"/>
<polygon fill="#191970" stroke="#191970" points="320.1773,-683.7959 330.7532,-684.4297 322.8809,-677.339 320.1773,-683.7959"/>
</g>
<!-- Node504070 -->
<g id="node20" class="node">
<title>Node504070</title>
<g id="a_node20"><a xlink:href="quickjs_8c.html#a344d6c0e45d9bf3861fd9269724045a2" target="_top" xlink:title="JS_ThrowOutOfMemory">
<polygon fill="none" stroke="#ff0000" points="303,-570.5 303,-589.5 425,-589.5 425,-570.5 303,-570.5"/>
<text text-anchor="middle" x="364" y="-577.5" font-family="Helvetica,sans-Serif" font-size="10.00" fill="#000000">JS_ThrowOutOfMemory</text>
</a>
</g>
</g>
<!-- Node504493&#45;&gt;Node504070 -->
<g id="edge27" class="edge">
<title>Node504493&#45;&gt;Node504070</title>
<path fill="none" stroke="#191970" d="M237.1088,-563.9271C252.1535,-565.8328 272.6623,-568.4306 292.8043,-570.9819"/>
<polygon fill="#191970" stroke="#191970" points="292.5932,-574.483 302.9538,-572.2675 293.4729,-567.5385 292.5932,-574.483"/>
</g>
<!-- Node504276 -->
<g id="node21" class="node">
<title>Node504276</title>
<g id="a_node21"><a xlink:href="quickjs_8c.html#abe5ce04dc1f7ab5e0a0bfa0b91a48624" target="_top" xlink:title="JS_ToBigFloat">
<polygon fill="none" stroke="#ff0000" points="471,-494.5 471,-513.5 552,-513.5 552,-494.5 471,-494.5"/>
<text text-anchor="middle" x="511.5" y="-501.5" font-family="Helvetica,sans-Serif" font-size="10.00" fill="#000000">JS_ToBigFloat</text>
</a>
</g>
</g>
<!-- Node504493&#45;&gt;Node504276 -->
<g id="edge28" class="edge">
<title>Node504493&#45;&gt;Node504276</title>
<path fill="none" stroke="#191970" d="M235.4902,-551.3658C253.2399,-543.8179 279.28,-533.6751 303,-528 355.8711,-515.3505 417.9347,-509.2935 460.5175,-506.4413"/>
<polygon fill="#191970" stroke="#191970" points="460.879,-509.9255 470.6373,-505.7992 460.4357,-502.9395 460.879,-509.9255"/>
</g>
<!-- Node504570 -->
<g id="node22" class="node">
<title>Node504570</title>
<g id="a_node22"><a xlink:href="quickjs_8c.html#a3db848576f8ea57675df6ba68de8ebfc" target="_top" xlink:title="JS_ToNumeric">
<polygon fill="none" stroke="#000000" points="323,-342.5 323,-361.5 405,-361.5 405,-342.5 323,-342.5"/>
<text text-anchor="middle" x="364" y="-349.5" font-family="Helvetica,sans-Serif" font-size="10.00" fill="#000000">JS_ToNumeric</text>
</a>
</g>
</g>
<!-- Node504493&#45;&gt;Node504570 -->
<g id="edge31" class="edge">
<title>Node504493&#45;&gt;Node504570</title>
<path fill="none" stroke="#191970" d="M215.9819,-551.4684C222.7031,-521.4292 247.3815,-427.6708 303,-376 307.3265,-371.9806 312.4053,-368.6046 317.7537,-365.7763"/>
<polygon fill="#191970" stroke="#191970" points="319.3291,-368.9037 326.9239,-361.5166 316.3801,-362.5552 319.3291,-368.9037"/>
</g>
<!-- Node504158 -->
<g id="node11" class="node">
<title>Node504158</title>
<g id="a_node11"><a xlink:href="libbf_8h.html#a524c9e60866c08c75061626a4b5e2f29" target="_top" xlink:title="bf_realloc">
<polygon fill="none" stroke="#000000" points="720,-584.5 720,-603.5 779,-603.5 779,-584.5 720,-584.5"/>
<text text-anchor="middle" x="749.5" y="-591.5" font-family="Helvetica,sans-Serif" font-size="10.00" fill="#000000">bf_realloc</text>
</a>
</g>
</g>
<!-- Node504157&#45;&gt;Node504158 -->
<g id="edge11" class="edge">
<title>Node504157&#45;&gt;Node504158</title>
<path fill="none" stroke="#191970" d="M665.6203,-561.5305C680.2215,-567.1825 698.9535,-574.4336 715.0104,-580.6492"/>
<polygon fill="#191970" stroke="#191970" points="714.0123,-584.0159 724.6015,-584.3619 716.5393,-577.4879 714.0123,-584.0159"/>
</g>
<!-- Node504494&#45;&gt;Node504158 -->
<g id="edge13" class="edge">
<title>Node504494&#45;&gt;Node504158</title>
<path fill="none" stroke="#191970" d="M664.5429,-627.6696C679.5478,-621.723 699.2258,-613.9243 715.8646,-607.3302"/>
<polygon fill="#191970" stroke="#191970" points="717.2448,-610.5481 725.2518,-603.6099 714.6657,-604.0405 717.2448,-610.5481"/>
</g>
<!-- Node504496 -->
<g id="node14" class="node">
<title>Node504496</title>
<g id="a_node14"><a xlink:href="libbf_8c.html#ad79aefc435021a0743c89cb4aec7fa56" target="_top" xlink:title="bf_ftoa_internal">
<polygon fill="none" stroke="#ff0000" points="470,-589.5 470,-608.5 553,-608.5 553,-589.5 470,-589.5"/>
<text text-anchor="middle" x="511.5" y="-596.5" font-family="Helvetica,sans-Serif" font-size="10.00" fill="#000000">bf_ftoa_internal</text>
</a>
</g>
</g>
<!-- Node504495&#45;&gt;Node504496 -->
<g id="edge15" class="edge">
<title>Node504495&#45;&gt;Node504496</title>
<path fill="none" stroke="#191970" d="M387.6984,-614.9473C407.1665,-612.4396 435.445,-608.7969 460.062,-605.6259"/>
<polygon fill="#191970" stroke="#191970" points="460.5251,-609.0953 469.9959,-604.3463 459.6307,-602.1526 460.5251,-609.0953"/>
</g>
<!-- Node504496&#45;&gt;Node504157 -->
<g id="edge16" class="edge">
<title>Node504496&#45;&gt;Node504157</title>
<path fill="none" stroke="#191970" d="M537.7063,-589.4888C556.9746,-582.4957 583.4026,-572.9041 604.7028,-565.1735"/>
<polygon fill="#191970" stroke="#191970" points="606.1823,-568.36 614.3882,-561.6583 603.7941,-561.78 606.1823,-568.36"/>
</g>
<!-- Node504496&#45;&gt;Node504494 -->
<g id="edge17" class="edge">
<title>Node504496&#45;&gt;Node504494</title>
<path fill="none" stroke="#191970" d="M544.1783,-608.589C563.5754,-614.2808 588.1097,-621.4801 607.6275,-627.2073"/>
<polygon fill="#191970" stroke="#191970" points="606.7421,-630.595 617.323,-630.0523 608.7131,-623.8782 606.7421,-630.595"/>
</g>
<!-- Node504496&#45;&gt;Node504060 -->
<g id="edge18" class="edge">
<title>Node504496&#45;&gt;Node504060</title>
<path fill="none" stroke="#191970" d="M523.6497,-589.3719C540.2351,-576.3116 570.9917,-552.3861 598,-533 604.3367,-528.4517 611.3084,-523.6609 617.76,-519.3126"/>
<polygon fill="#191970" stroke="#191970" points="619.7567,-522.1879 626.1266,-513.7217 615.8675,-516.3678 619.7567,-522.1879"/>
</g>
<!-- Node504496&#45;&gt;Node504300 -->
<g id="edge19" class="edge">
<title>Node504496&#45;&gt;Node504300</title>
<path fill="none" stroke="#191970" d="M553.1874,-599C571.1408,-599 591.8153,-599 608.5921,-599"/>
<polygon fill="#191970" stroke="#191970" points="608.9863,-602.5001 618.9863,-599 608.9862,-595.5001 608.9863,-602.5001"/>
</g>
<!-- Node504276&#45;&gt;Node504157 -->
<g id="edge29" class="edge">
<title>Node504276&#45;&gt;Node504157</title>
<path fill="none" stroke="#191970" d="M537.395,-513.5982C556.9815,-520.858 584.0952,-530.9079 605.6725,-538.9056"/>
<polygon fill="#191970" stroke="#191970" points="604.5568,-542.2247 615.1499,-542.4185 606.9897,-535.6611 604.5568,-542.2247"/>
</g>
<!-- Node504276&#45;&gt;Node504060 -->
<g id="edge30" class="edge">
<title>Node504276&#45;&gt;Node504060</title>
<path fill="none" stroke="#191970" d="M552.1193,-504C570.5474,-504 592.0185,-504 609.2407,-504"/>
<polygon fill="#191970" stroke="#191970" points="609.3497,-507.5001 619.3497,-504 609.3496,-500.5001 609.3497,-507.5001"/>
</g>
<!-- Node504570&#45;&gt;Node504023 -->
<g id="edge32" class="edge">
<title>Node504570&#45;&gt;Node504023</title>
<path fill="none" stroke="#191970" d="M374.9871,-342.1052C387.3478,-330.8882 407.9285,-311.9547 425,-295 441.5068,-278.6061 441.6188,-269.8687 461,-257 463.8972,-255.0764 467.0161,-253.3111 470.2315,-251.6986"/>
<polygon fill="#191970" stroke="#191970" points="471.7605,-254.8487 479.4448,-247.5548 468.8892,-248.4647 471.7605,-254.8487"/>
</g>
<!-- Node504327 -->
<g id="node23" class="node">
<title>Node504327</title>
<g id="a_node23"><a xlink:href="quickjs_8c.html#a95c291df13743182541d687be697e59d" target="_top" xlink:title="JS_ToNumericFree">
<polygon fill="none" stroke="#ff0000" points="461,-342.5 461,-361.5 562,-361.5 562,-342.5 461,-342.5"/>
<text text-anchor="middle" x="511.5" y="-349.5" font-family="Helvetica,sans-Serif" font-size="10.00" fill="#000000">JS_ToNumericFree</text>
</a>
</g>
</g>
<!-- Node504570&#45;&gt;Node504327 -->
<g id="edge33" class="edge">
<title>Node504570&#45;&gt;Node504327</title>
<path fill="none" stroke="#191970" d="M405.087,-352C419.1466,-352 435.191,-352 450.4823,-352"/>
<polygon fill="#191970" stroke="#191970" points="450.9146,-355.5001 460.9146,-352 450.9146,-348.5001 450.9146,-355.5001"/>
</g>
<!-- Node504571&#45;&gt;Node504023 -->
<g id="edge37" class="edge">
<title>Node504571&#45;&gt;Node504023</title>
<path fill="none" stroke="#191970" d="M253.6874,-209.5333C269.0199,-212.9368 286.7544,-216.5347 303,-219 357.4466,-227.2623 420.4763,-232.3998 462.8593,-235.2173"/>
<polygon fill="#191970" stroke="#191970" points="462.7004,-238.7142 472.9056,-235.8673 463.1525,-231.7288 462.7004,-238.7142"/>
</g>
<!-- Node504572 -->
<g id="node26" class="node">
<title>Node504572</title>
<g id="a_node26"><a xlink:href="quickjs_8h.html#a920dfb277ddab7efd778dca6c28e49f5" target="_top" xlink:title="JS_IsBigFloat">
<polygon fill="none" stroke="#000000" points="325,-190.5 325,-209.5 403,-209.5 403,-190.5 325,-190.5"/>
<text text-anchor="middle" x="364" y="-197.5" font-family="Helvetica,sans-Serif" font-size="10.00" fill="#000000">JS_IsBigFloat</text>
</a>
</g>
</g>
<!-- Node504571&#45;&gt;Node504572 -->
<g id="edge38" class="edge">
<title>Node504571&#45;&gt;Node504572</title>
<path fill="none" stroke="#191970" d="M267.3067,-200C282.6325,-200 299.2806,-200 314.3744,-200"/>
<polygon fill="#191970" stroke="#191970" points="314.5403,-203.5001 324.5402,-200 314.5402,-196.5001 314.5403,-203.5001"/>
</g>
<!-- Node504573&#45;&gt;Node504023 -->
<g id="edge40" class="edge">
<title>Node504573&#45;&gt;Node504023</title>
<path fill="none" stroke="#191970" d="M404.9802,-171.5805C411.9362,-174.086 418.8806,-177.1874 425,-181 444.7456,-193.3022 441.6188,-206.1313 461,-219 463.8972,-220.9236 467.0161,-222.6889 470.2315,-224.3014"/>
<polygon fill="#191970" stroke="#191970" points="468.8892,-227.5353 479.4448,-228.4452 471.7605,-221.1513 468.8892,-227.5353"/>
</g>
<!-- Node504348 -->
<g id="node28" class="node">
<title>Node504348</title>
<g id="a_node28"><a xlink:href="quickjs_8c.html#a8c94da482e7e46bf333be67ff97e58c1" target="_top" xlink:title="JS_ToInt64SatFree">
<polygon fill="none" stroke="#ff0000" points="461,-190.5 461,-209.5 562,-209.5 562,-190.5 461,-190.5"/>
<text text-anchor="middle" x="511.5" y="-197.5" font-family="Helvetica,sans-Serif" font-size="10.00" fill="#000000">JS_ToInt64SatFree</text>
</a>
</g>
</g>
<!-- Node504573&#45;&gt;Node504348 -->
<g id="edge41" class="edge">
<title>Node504573&#45;&gt;Node504348</title>
<path fill="none" stroke="#191970" d="M401.2205,-171.589C420.5093,-176.5583 444.2584,-182.6767 464.771,-187.9613"/>
<polygon fill="#191970" stroke="#191970" points="463.9902,-191.3744 474.5472,-190.4799 465.7366,-184.5957 463.9902,-191.3744"/>
</g>
<!-- Node504348&#45;&gt;Node504026 -->
<g id="edge42" class="edge">
<title>Node504348&#45;&gt;Node504026</title>
<path fill="none" stroke="#191970" d="M544.5417,-209.6044C550.6377,-212.1449 556.7338,-215.2525 562,-219 577.6435,-230.132 610.039,-272.1495 628.1083,-296.4138"/>
<polygon fill="#191970" stroke="#191970" points="625.2991,-298.5015 634.0597,-304.46 630.9269,-294.3389 625.2991,-298.5015"/>
</g>
<!-- Node504348&#45;&gt;Node504055 -->
<g id="edge43" class="edge">
<title>Node504348&#45;&gt;Node504055</title>
<path fill="none" stroke="#191970" d="M544.1783,-209.589C560.5888,-214.4044 580.6763,-220.2988 598.2922,-225.468"/>
<polygon fill="#191970" stroke="#191970" points="597.7512,-228.9567 608.3321,-228.4141 599.7222,-222.2399 597.7512,-228.9567"/>
</g>
</g>
</svg>
        <g id="navigator" transform="translate(0 0)" fill="#404254">
                <rect fill="#f2f5e9" fill-opacity="0.5" stroke="#606060" stroke-width=".5" x="0" y="0" width="60" height="60"/>
                <use id="zoomplus" xlink:href="#zoomPlus" x="17" y="9" onmousedown="handleZoom(evt,'in')"/>
                <use id="zoomminus" xlink:href="#zoomMin" x="42" y="9" onmousedown="handleZoom(evt,'out')"/>
                <use id="reset" xlink:href="#resetDef" x="30" y="36" onmousedown="handleReset()"/>
                <g id="arrowUp" xlink:href="#dirArrow" transform="translate(30 24)" onmousedown="handlePan(0,-1)">
                  <use xlink:href="#rim" fill="#404040">
                        <set attributeName="fill" to="#808080" begin="arrowUp.mouseover" end="arrowUp.mouseout"/>
                  </use>
                  <path fill="none" stroke="white" stroke-width="1.5" d="M0,-3.0v7 M-2.5,-0.5L0,-3.0L2.5,-0.5"/>
                </g>
                <g id="arrowRight" xlink:href="#dirArrow" transform="rotate(90) translate(36 -43)" onmousedown="handlePan(1,0)">
                  <use xlink:href="#rim" fill="#404040">
                        <set attributeName="fill" to="#808080" begin="arrowRight.mouseover" end="arrowRight.mouseout"/>
                  </use>
                  <path fill="none" stroke="white" stroke-width="1.5" d="M0,-3.0v7 M-2.5,-0.5L0,-3.0L2.5,-0.5"/>
                </g>
                <g id="arrowDown" xlink:href="#dirArrow" transform="rotate(180) translate(-30 -48)" onmousedown="handlePan(0,1)">
                  <use xlink:href="#rim" fill="#404040">
                        <set attributeName="fill" to="#808080" begin="arrowDown.mouseover" end="arrowDown.mouseout"/>
                  </use>
                  <path fill="none" stroke="white" stroke-width="1.5" d="M0,-3.0v7 M-2.5,-0.5L0,-3.0L2.5,-0.5"/>
                </g>
                <g id="arrowLeft" xlink:href="#dirArrow" transform="rotate(270) translate(-36 17)" onmousedown="handlePan(-1,0)">
                  <use xlink:href="#rim" fill="#404040">
                        <set attributeName="fill" to="#808080" begin="arrowLeft.mouseover" end="arrowLeft.mouseout"/>
                  </use>
                  <path fill="none" stroke="white" stroke-width="1.5" d="M0,-3.0v7 M-2.5,-0.5L0,-3.0L2.5,-0.5"/>
                </g>
        </g>
        <svg viewBox="0 0 15 15" width="100%" height="30px" preserveAspectRatio="xMaxYMin meet">
         <g id="arrow_out" transform="scale(0.3 0.3)">
          <a xlink:href="quickjs_8c_a438f60abbdc18727b147b7fed1cfb4aa_cgraph_org.svg" target="_base">
           <rect id="button" ry="5" rx="5" y="6" x="6" height="38" width="38"
                fill="#f2f5e9" fill-opacity="0.5" stroke="#606060" stroke-width="1.0"/>
           <path id="arrow"
             d="M 11.500037,31.436501 C 11.940474,20.09759 22.043105,11.32322 32.158766,21.979434 L 37.068811,17.246167 C 37.068811,17.246167 37.088388,32 37.088388,32 L 22.160133,31.978069 C 22.160133,31.978069 26.997745,27.140456 26.997745,27.140456 C 18.528582,18.264221 13.291696,25.230495 11.500037,31.436501 z"
             style="fill:#404040;"/>
          </a>
         </g>
        </svg>
</svg>
