<?xml version="1.0" encoding="UTF-8" standalone="no"?>
<!DOCTYPE svg PUBLIC "-//W3C//DTD SVG 1.1//EN"
 "http://www.w3.org/Graphics/SVG/1.1/DTD/svg11.dtd">
<!-- Generated by graphviz version 2.40.1 (20161225.0304)
 -->
<!-- Title: js_Date_parse Pages: 1 -->
<!--zoomable 594 -->
<svg id="main" version="1.1" xmlns="http://www.w3.org/2000/svg" xmlns:xlink="http://www.w3.org/1999/xlink" xml:space="preserve" onload="init(evt)">
<style type="text/css"><![CDATA[
.edge:hover path { stroke: red; }
.edge:hover polygon { stroke: red; fill: red; }
]]></style>
<script type="text/javascript"><![CDATA[
var edges = document.getElementsByTagName('g');
if (edges && edges.length) {
  for (var i=0;i<edges.length;i++) {
    if (edges[i].id.substr(0,4)=='edge') {
      edges[i].setAttribute('class','edge');
    }
  }
}
]]></script>
        <defs>
                <circle id="rim" cx="0" cy="0" r="7"/>
                <circle id="rim2" cx="0" cy="0" r="3.5"/>
                <g id="zoomPlus">
                        <use xlink:href="#rim" fill="#404040">
                                <set attributeName="fill" to="#808080" begin="zoomplus.mouseover" end="zoomplus.mouseout"/>
                        </use>
                        <path d="M-4,0h8M0,-4v8" fill="none" stroke="white" stroke-width="1.5" pointer-events="none"/>
                </g>
                <g id="zoomMin">
                        <use xlink:href="#rim" fill="#404040">
                                <set attributeName="fill" to="#808080" begin="zoomminus.mouseover" end="zoomminus.mouseout"/>
                        </use>
                        <path d="M-4,0h8" fill="none" stroke="white" stroke-width="1.5" pointer-events="none"/>
                </g>
                <g id="dirArrow">
                        <path fill="none" stroke="white" stroke-width="1.5" d="M0,-3.0v7 M-2.5,-0.5L0,-3.0L2.5,-0.5"/>
                </g>
               <g id="resetDef">
                       <use xlink:href="#rim2" fill="#404040">
                               <set attributeName="fill" to="#808080" begin="reset.mouseover" end="reset.mouseout"/>
                       </use>
               </g>
        </defs>

<script type="text/javascript">
var viewWidth = 778;
var viewHeight = 594;
var sectionId = 'dynsection-1662';
</script>
<script xlink:href="svgpan.js"/>
<svg id="graph" class="graph">
<g id="viewport">
<title>js_Date_parse</title>
<!-- Node424640 -->
<g id="node1" class="node">
<title>Node424640</title>
<polygon fill="#bfbfbf" stroke="#000000" points="0,-191.9446 0,-210.9446 80,-210.9446 80,-191.9446 0,-191.9446"/>
<text text-anchor="middle" x="40" y="-198.9446" font-family="Helvetica,sans-Serif" font-size="10.00" fill="#000000">js_Date_parse</text>
</g>
<!-- Node424641 -->
<g id="node2" class="node">
<title>Node424641</title>
<g id="a_node2"><a xlink:href="quickjs_8h.html#afaa20c47565bc704c6c85f3d77254e7d" target="_top" xlink:title="JS_FreeValue">
<polygon fill="none" stroke="#000000" points="421,-566.9446 421,-585.9446 499,-585.9446 499,-566.9446 421,-566.9446"/>
<text text-anchor="middle" x="460" y="-573.9446" font-family="Helvetica,sans-Serif" font-size="10.00" fill="#000000">JS_FreeValue</text>
</a>
</g>
</g>
<!-- Node424640&#45;&gt;Node424641 -->
<g id="edge1" class="edge">
<title>Node424640&#45;&gt;Node424641</title>
<path fill="none" stroke="#191970" d="M41.3348,-211.2133C47.7198,-256.6328 76.477,-446.7559 116,-489.4446 192.5449,-572.1206 335.3034,-581.0693 410.5931,-579.4384"/>
<polygon fill="#191970" stroke="#191970" points="410.8605,-582.9323 420.7551,-579.1447 410.6581,-575.9352 410.8605,-582.9323"/>
</g>
<!-- Node424665 -->
<g id="node5" class="node">
<title>Node424665</title>
<g id="a_node5"><a xlink:href="quickjs_8h.html#ad80a83d73e9b7d872b88fbf2943aebe9" target="_top" xlink:title="JS_IsException">
<polygon fill="none" stroke="#000000" points="417,-528.9446 417,-547.9446 503,-547.9446 503,-528.9446 417,-528.9446"/>
<text text-anchor="middle" x="460" y="-535.9446" font-family="Helvetica,sans-Serif" font-size="10.00" fill="#000000">JS_IsException</text>
</a>
</g>
</g>
<!-- Node424640&#45;&gt;Node424665 -->
<g id="edge4" class="edge">
<title>Node424640&#45;&gt;Node424665</title>
<path fill="none" stroke="#191970" d="M40.2899,-211.0245C41.8602,-246.2178 51.9066,-369.9238 116,-439.4446 191.6361,-521.4856 330.4,-537.1441 406.5293,-539.1802"/>
<polygon fill="#191970" stroke="#191970" points="406.7759,-542.6856 416.8427,-539.3825 406.9133,-535.6869 406.7759,-542.6856"/>
</g>
<!-- Node424666 -->
<g id="node6" class="node">
<title>Node424666</title>
<g id="a_node6"><a xlink:href="quickjs_8c.html#a7bcb8e1a20cbc8374a5f9ba4a2088cec" target="_top" xlink:title="JS_ToString">
<polygon fill="none" stroke="#000000" points="141.5,-410.9446 141.5,-429.9446 212.5,-429.9446 212.5,-410.9446 141.5,-410.9446"/>
<text text-anchor="middle" x="177" y="-417.9446" font-family="Helvetica,sans-Serif" font-size="10.00" fill="#000000">JS_ToString</text>
</a>
</g>
</g>
<!-- Node424640&#45;&gt;Node424666 -->
<g id="edge5" class="edge">
<title>Node424640&#45;&gt;Node424666</title>
<path fill="none" stroke="#191970" d="M43.7744,-211.1998C53.636,-236.1002 81.794,-303.5639 116,-353.4446 128.672,-371.9235 146.1269,-390.5809 159.1194,-403.4975"/>
<polygon fill="#191970" stroke="#191970" points="156.9472,-406.2681 166.5497,-410.7451 161.835,-401.2571 156.9472,-406.2681"/>
</g>
<!-- Node425058 -->
<g id="node13" class="node">
<title>Node425058</title>
<g id="a_node13"><a xlink:href="quickjs_8c.html#acbfcb88375d84711233f4daf89b0c587" target="_top" xlink:title="set_date_fields">
<polygon fill="none" stroke="#000000" points="135.5,-324.9446 135.5,-343.9446 218.5,-343.9446 218.5,-324.9446 135.5,-324.9446"/>
<text text-anchor="middle" x="177" y="-331.9446" font-family="Helvetica,sans-Serif" font-size="10.00" fill="#000000">set_date_fields</text>
</a>
</g>
</g>
<!-- Node424640&#45;&gt;Node425058 -->
<g id="edge17" class="edge">
<title>Node424640&#45;&gt;Node425058</title>
<path fill="none" stroke="#191970" d="M49.8527,-211.0097C72.8458,-233.3314 130.3005,-289.1087 159.4485,-317.4056"/>
<polygon fill="#191970" stroke="#191970" points="157.2539,-320.1531 166.8669,-324.6074 162.1298,-315.1306 157.2539,-320.1531"/>
</g>
<!-- Node425065 -->
<g id="node20" class="node">
<title>Node425065</title>
<g id="a_node20"><a xlink:href="quickjs_8c.html#a80398f847e2e83c2613b638719bf6fda" target="_top" xlink:title="string_get">
<polygon fill="none" stroke="#000000" points="430.5,-115.9446 430.5,-134.9446 489.5,-134.9446 489.5,-115.9446 430.5,-115.9446"/>
<text text-anchor="middle" x="460" y="-122.9446" font-family="Helvetica,sans-Serif" font-size="10.00" fill="#000000">string_get</text>
</a>
</g>
</g>
<!-- Node424640&#45;&gt;Node425065 -->
<g id="edge24" class="edge">
<title>Node424640&#45;&gt;Node425065</title>
<path fill="none" stroke="#191970" d="M80.2099,-200.3716C144.1981,-197.7939 272.6316,-189.0481 377,-159.4446 395.485,-154.2015 415.4331,-146.1138 431.1395,-139.1418"/>
<polygon fill="#191970" stroke="#191970" points="432.6569,-142.2968 440.3198,-134.9803 429.7668,-135.9213 432.6569,-142.2968"/>
</g>
<!-- Node425066 -->
<g id="node21" class="node">
<title>Node425066</title>
<g id="a_node21"><a xlink:href="quickjs_8c.html#aeb47d79625c5d7ad6e67c1b0d337c19d" target="_top" xlink:title="string_get_digits">
<polygon fill="none" stroke="#000000" points="133,-153.9446 133,-172.9446 221,-172.9446 221,-153.9446 133,-153.9446"/>
<text text-anchor="middle" x="177" y="-160.9446" font-family="Helvetica,sans-Serif" font-size="10.00" fill="#000000">string_get_digits</text>
</a>
</g>
</g>
<!-- Node424640&#45;&gt;Node425066 -->
<g id="edge25" class="edge">
<title>Node424640&#45;&gt;Node425066</title>
<path fill="none" stroke="#191970" d="M74.5709,-191.8556C92.1752,-186.9727 113.7793,-180.9803 132.601,-175.7597"/>
<polygon fill="#191970" stroke="#191970" points="133.7395,-179.0761 142.4402,-173.0306 131.8685,-172.3308 133.7395,-179.0761"/>
</g>
<!-- Node425067 -->
<g id="node22" class="node">
<title>Node425067</title>
<g id="a_node22"><a xlink:href="quickjs_8c.html#a4982eb970a5d84ffbe51b5186c9d7040" target="_top" xlink:title="string_get_field">
<polygon fill="none" stroke="#000000" points="284,-77.9446 284,-96.9446 367,-96.9446 367,-77.9446 284,-77.9446"/>
<text text-anchor="middle" x="325.5" y="-84.9446" font-family="Helvetica,sans-Serif" font-size="10.00" fill="#000000">string_get_field</text>
</a>
</g>
</g>
<!-- Node424640&#45;&gt;Node425067 -->
<g id="edge27" class="edge">
<title>Node424640&#45;&gt;Node425067</title>
<path fill="none" stroke="#191970" d="M44.4097,-191.7719C54.1014,-171.7828 79.3507,-126.1462 116,-106.4446 164.7931,-80.2149 229.3153,-78.3979 273.797,-81.2723"/>
<polygon fill="#191970" stroke="#191970" points="273.577,-84.7655 283.8099,-82.0201 274.0984,-77.7849 273.577,-84.7655"/>
</g>
<!-- Node425068 -->
<g id="node23" class="node">
<title>Node425068</title>
<g id="a_node23"><a xlink:href="quickjs_8c.html#a3f727a5b0254dc65d6cb61d7b4812b9b" target="_top" xlink:title="string_get_month">
<polygon fill="none" stroke="#000000" points="131,-39.9446 131,-58.9446 223,-58.9446 223,-39.9446 131,-39.9446"/>
<text text-anchor="middle" x="177" y="-46.9446" font-family="Helvetica,sans-Serif" font-size="10.00" fill="#000000">string_get_month</text>
</a>
</g>
</g>
<!-- Node424640&#45;&gt;Node425068 -->
<g id="edge29" class="edge">
<title>Node424640&#45;&gt;Node425068</title>
<path fill="none" stroke="#191970" d="M43.2854,-191.6286C51.6654,-168.0069 76.0401,-107.4394 116,-73.4446 120.7783,-69.3796 126.3272,-65.9524 132.0933,-63.0769"/>
<polygon fill="#191970" stroke="#191970" points="133.5408,-66.2637 141.2535,-58.9998 130.6943,-59.8685 133.5408,-66.2637"/>
</g>
<!-- Node425069 -->
<g id="node24" class="node">
<title>Node425069</title>
<g id="a_node24"><a xlink:href="quickjs_8c.html#ae8bb4fb34fa1e849bdfd7a108a1f346e" target="_top" xlink:title="string_skip_spaces">
<polygon fill="none" stroke="#000000" points="275,-1.9446 275,-20.9446 376,-20.9446 376,-1.9446 275,-1.9446"/>
<text text-anchor="middle" x="325.5" y="-8.9446" font-family="Helvetica,sans-Serif" font-size="10.00" fill="#000000">string_skip_spaces</text>
</a>
</g>
</g>
<!-- Node424640&#45;&gt;Node425069 -->
<g id="edge39" class="edge">
<title>Node424640&#45;&gt;Node425069</title>
<path fill="none" stroke="#191970" d="M41.0012,-191.5805C44.6318,-161.5001 60.0057,-70.5471 116,-30.4446 158.7858,.1981 219.7843,2.3637 264.9349,-1.5978"/>
<polygon fill="#191970" stroke="#191970" points="264.5942,-5.0811 274.8925,-2.5921 265.2898,1.8843 264.5942,-5.0811"/>
</g>
<!-- Node425071 -->
<g id="node26" class="node">
<title>Node425071</title>
<g id="a_node26"><a xlink:href="quickjs_8c.html#a26c985e3596f8e72dd7d6957fb5efe7c" target="_top" xlink:title="string_get_signed_field">
<polygon fill="none" stroke="#000000" points="119,-115.9446 119,-134.9446 235,-134.9446 235,-115.9446 119,-115.9446"/>
<text text-anchor="middle" x="177" y="-122.9446" font-family="Helvetica,sans-Serif" font-size="10.00" fill="#000000">string_get_signed_field</text>
</a>
</g>
</g>
<!-- Node424640&#45;&gt;Node425071 -->
<g id="edge34" class="edge">
<title>Node424640&#45;&gt;Node425071</title>
<path fill="none" stroke="#191970" d="M50.533,-191.6684C64.5215,-179.148 90.4494,-157.5112 116,-144.4446 120.2805,-142.2556 124.8601,-140.2631 129.515,-138.4635"/>
<polygon fill="#191970" stroke="#191970" points="130.8632,-141.6985 139.1034,-135.039 128.5088,-135.1064 130.8632,-141.6985"/>
</g>
<!-- Node425072 -->
<g id="node27" class="node">
<title>Node425072</title>
<g id="a_node27"><a xlink:href="quickjs_8c.html#a156d960178dceb45d82581c53cd7f81b" target="_top" xlink:title="string_skip_non_spaces">
<polygon fill="none" stroke="#000000" points="116,-229.9446 116,-248.9446 238,-248.9446 238,-229.9446 116,-229.9446"/>
<text text-anchor="middle" x="177" y="-236.9446" font-family="Helvetica,sans-Serif" font-size="10.00" fill="#000000">string_skip_non_spaces</text>
</a>
</g>
</g>
<!-- Node424640&#45;&gt;Node425072 -->
<g id="edge37" class="edge">
<title>Node424640&#45;&gt;Node425072</title>
<path fill="none" stroke="#191970" d="M74.5709,-211.0336C92.1752,-215.9166 113.7793,-221.9089 132.601,-227.1296"/>
<polygon fill="#191970" stroke="#191970" points="131.8685,-230.5585 142.4402,-229.8587 133.7395,-223.8131 131.8685,-230.5585"/>
</g>
<!-- Node424642 -->
<g id="node3" class="node">
<title>Node424642</title>
<g id="a_node3"><a xlink:href="quickjs_8c.html#aa059f309c30fd5166d16c82a97973146" target="_top" xlink:title="__JS_FreeValue">
<polygon fill="none" stroke="#000000" points="543,-566.9446 543,-585.9446 632,-585.9446 632,-566.9446 543,-566.9446"/>
<text text-anchor="middle" x="587.5" y="-573.9446" font-family="Helvetica,sans-Serif" font-size="10.00" fill="#000000">__JS_FreeValue</text>
</a>
</g>
</g>
<!-- Node424641&#45;&gt;Node424642 -->
<g id="edge2" class="edge">
<title>Node424641&#45;&gt;Node424642</title>
<path fill="none" stroke="#191970" d="M499.2946,-576.4446C509.8263,-576.4446 521.4077,-576.4446 532.6161,-576.4446"/>
<polygon fill="#191970" stroke="#191970" points="532.764,-579.9447 542.764,-576.4446 532.7639,-572.9447 532.764,-579.9447"/>
</g>
<!-- Node424643 -->
<g id="node4" class="node">
<title>Node424643</title>
<g id="a_node4"><a xlink:href="quickjs_8c.html#ab1ea3fad7d138be12144a38be4d36423" target="_top" xlink:title="__JS_FreeValueRT">
<polygon fill="none" stroke="#ff0000" points="668,-566.9446 668,-585.9446 770,-585.9446 770,-566.9446 668,-566.9446"/>
<text text-anchor="middle" x="719" y="-573.9446" font-family="Helvetica,sans-Serif" font-size="10.00" fill="#000000">__JS_FreeValueRT</text>
</a>
</g>
</g>
<!-- Node424642&#45;&gt;Node424643 -->
<g id="edge3" class="edge">
<title>Node424642&#45;&gt;Node424643</title>
<path fill="none" stroke="#191970" d="M632.0199,-576.4446C640.2672,-576.4446 649.0138,-576.4446 657.6583,-576.4446"/>
<polygon fill="#191970" stroke="#191970" points="657.7233,-579.9447 667.7233,-576.4446 657.7232,-572.9447 657.7233,-579.9447"/>
</g>
<!-- Node424667 -->
<g id="node7" class="node">
<title>Node424667</title>
<g id="a_node7"><a xlink:href="quickjs_8c.html#a46d6ebdd8c73102fd9e02a89b1f1d09a" target="_top" xlink:title="JS_ToStringInternal">
<polygon fill="none" stroke="#000000" points="274,-457.9446 274,-476.9446 377,-476.9446 377,-457.9446 274,-457.9446"/>
<text text-anchor="middle" x="325.5" y="-464.9446" font-family="Helvetica,sans-Serif" font-size="10.00" fill="#000000">JS_ToStringInternal</text>
</a>
</g>
</g>
<!-- Node424666&#45;&gt;Node424667 -->
<g id="edge6" class="edge">
<title>Node424666&#45;&gt;Node424667</title>
<path fill="none" stroke="#191970" d="M207.0512,-429.9558C229.6209,-437.0991 260.7571,-446.9536 285.4424,-454.7665"/>
<polygon fill="#191970" stroke="#191970" points="284.649,-458.1864 295.239,-457.8671 286.7613,-451.5127 284.649,-458.1864"/>
</g>
<!-- Node424667&#45;&gt;Node424641 -->
<g id="edge11" class="edge">
<title>Node424667&#45;&gt;Node424641</title>
<path fill="none" stroke="#191970" d="M332.6609,-477.1304C346.4187,-495.1485 378.2749,-534.1023 413,-557.4446 415.7026,-559.2613 418.6058,-560.9498 421.5951,-562.5091"/>
<polygon fill="#191970" stroke="#191970" points="420.1687,-565.706 430.7071,-566.7989 423.1504,-559.3728 420.1687,-565.706"/>
</g>
<!-- Node424667&#45;&gt;Node424665 -->
<g id="edge12" class="edge">
<title>Node424667&#45;&gt;Node424665</title>
<path fill="none" stroke="#191970" d="M343.2064,-477.0949C360.841,-486.6731 388.7128,-501.7225 413,-514.4446 418.9652,-517.5693 425.3794,-520.8781 431.493,-524.0077"/>
<polygon fill="#191970" stroke="#191970" points="430.2464,-527.3008 440.745,-528.726 433.4266,-521.0649 430.2464,-527.3008"/>
</g>
<!-- Node424667&#45;&gt;Node424667 -->
<g id="edge16" class="edge">
<title>Node424667&#45;&gt;Node424667</title>
<path fill="none" stroke="#191970" d="M304.8467,-477.2017C294.7992,-486.0099 301.6836,-495.4446 325.5,-495.4446 340.7574,-495.4446 349.0659,-491.5726 350.4255,-486.4738"/>
<polygon fill="#191970" stroke="#191970" points="353.5169,-484.8193 346.1533,-477.2017 347.1593,-487.7487 353.5169,-484.8193"/>
</g>
<!-- Node424668 -->
<g id="node8" class="node">
<title>Node424668</title>
<g id="a_node8"><a xlink:href="quickjs_8c.html#a260bfa297ff6cb5bd18e229afaa54663" target="_top" xlink:title="JS_AtomToString">
<polygon fill="none" stroke="#ff0000" points="413,-414.9446 413,-433.9446 507,-433.9446 507,-414.9446 413,-414.9446"/>
<text text-anchor="middle" x="460" y="-421.9446" font-family="Helvetica,sans-Serif" font-size="10.00" fill="#000000">JS_AtomToString</text>
</a>
</g>
</g>
<!-- Node424667&#45;&gt;Node424668 -->
<g id="edge7" class="edge">
<title>Node424667&#45;&gt;Node424668</title>
<path fill="none" stroke="#191970" d="M355.3499,-457.9015C374.5915,-451.7499 399.8227,-443.6835 420.6891,-437.0124"/>
<polygon fill="#191970" stroke="#191970" points="421.7743,-440.3401 430.2335,-433.961 419.6426,-433.6725 421.7743,-440.3401"/>
</g>
<!-- Node424695 -->
<g id="node9" class="node">
<title>Node424695</title>
<g id="a_node9"><a xlink:href="quickjs_8c.html#a6508a2922531adcb280bbff485a9a44a" target="_top" xlink:title="js_dtoa">
<polygon fill="none" stroke="#ff0000" points="436,-452.9446 436,-471.9446 484,-471.9446 484,-452.9446 436,-452.9446"/>
<text text-anchor="middle" x="460" y="-459.9446" font-family="Helvetica,sans-Serif" font-size="10.00" fill="#000000">js_dtoa</text>
</a>
</g>
</g>
<!-- Node424667&#45;&gt;Node424695 -->
<g id="edge8" class="edge">
<title>Node424667&#45;&gt;Node424695</title>
<path fill="none" stroke="#191970" d="M377.1166,-465.5258C393.3311,-464.923 410.8293,-464.2725 425.5505,-463.7253"/>
<polygon fill="#191970" stroke="#191970" points="425.8579,-467.2164 435.721,-463.3472 425.5978,-460.2212 425.8579,-467.2164"/>
</g>
<!-- Node424673 -->
<g id="node10" class="node">
<title>Node424673</title>
<g id="a_node10"><a xlink:href="quickjs_8c.html#a0ee6a3654a6016393fac5e1c108f403a" target="_top" xlink:title="JS_NewString">
<polygon fill="none" stroke="#ff0000" points="547.5,-471.9446 547.5,-490.9446 627.5,-490.9446 627.5,-471.9446 547.5,-471.9446"/>
<text text-anchor="middle" x="587.5" y="-478.9446" font-family="Helvetica,sans-Serif" font-size="10.00" fill="#000000">JS_NewString</text>
</a>
</g>
</g>
<!-- Node424667&#45;&gt;Node424673 -->
<g id="edge13" class="edge">
<title>Node424667&#45;&gt;Node424673</title>
<path fill="none" stroke="#191970" d="M376.2316,-476.9584C388.2424,-478.8226 401.0381,-480.4937 413,-481.4446 454.6003,-484.7516 501.9557,-484.4997 536.8278,-483.5614"/>
<polygon fill="#191970" stroke="#191970" points="537.338,-487.0478 547.2293,-483.2514 537.1294,-480.051 537.338,-487.0478"/>
</g>
<!-- Node424672 -->
<g id="node11" class="node">
<title>Node424672</title>
<g id="a_node11"><a xlink:href="quickjs_8h.html#a775522f2d084fc8fa0fcb33f390006b4" target="_top" xlink:title="JS_DupValue">
<polygon fill="none" stroke="#000000" points="549,-357.9446 549,-376.9446 626,-376.9446 626,-357.9446 549,-357.9446"/>
<text text-anchor="middle" x="587.5" y="-364.9446" font-family="Helvetica,sans-Serif" font-size="10.00" fill="#000000">JS_DupValue</text>
</a>
</g>
</g>
<!-- Node424667&#45;&gt;Node424672 -->
<g id="edge10" class="edge">
<title>Node424667&#45;&gt;Node424672</title>
<path fill="none" stroke="#191970" d="M362.7662,-457.8379C367.9505,-455.3715 372.8975,-452.2896 377,-448.4446 405.7443,-421.5046 379.9672,-388.9117 413,-367.4446 452.4727,-341.7924 508.3192,-347.2817 546.1184,-355.5584"/>
<polygon fill="#191970" stroke="#191970" points="545.7372,-359.064 556.2726,-357.9432 547.3377,-352.2495 545.7372,-359.064"/>
</g>
<!-- Node424702 -->
<g id="node12" class="node">
<title>Node424702</title>
<g id="a_node12"><a xlink:href="quickjs_8c.html#a2b8df609710fa689dd50b4bd18df2493" target="_top" xlink:title="JS_ToPrimitive">
<polygon fill="none" stroke="#ff0000" points="418.5,-376.9446 418.5,-395.9446 501.5,-395.9446 501.5,-376.9446 418.5,-376.9446"/>
<text text-anchor="middle" x="460" y="-383.9446" font-family="Helvetica,sans-Serif" font-size="10.00" fill="#000000">JS_ToPrimitive</text>
</a>
</g>
</g>
<!-- Node424667&#45;&gt;Node424702 -->
<g id="edge14" class="edge">
<title>Node424667&#45;&gt;Node424702</title>
<path fill="none" stroke="#191970" d="M359.1869,-457.9026C365.4044,-455.3567 371.6238,-452.2311 377,-448.4446 397.3777,-434.0925 392.8452,-420.1081 413,-405.4446 415.482,-403.6388 418.1601,-401.9724 420.9347,-400.441"/>
<polygon fill="#191970" stroke="#191970" points="422.5596,-403.5425 430.0036,-396.0034 419.4829,-397.2548 422.5596,-403.5425"/>
</g>
<!-- Node424695&#45;&gt;Node424673 -->
<g id="edge9" class="edge">
<title>Node424695&#45;&gt;Node424673</title>
<path fill="none" stroke="#191970" d="M484.2819,-466.0631C499.2787,-468.2979 519.0796,-471.2486 537.3249,-473.9676"/>
<polygon fill="#191970" stroke="#191970" points="536.8541,-477.436 547.2608,-475.4482 537.8859,-470.5124 536.8541,-477.436"/>
</g>
<!-- Node424702&#45;&gt;Node424672 -->
<g id="edge15" class="edge">
<title>Node424702&#45;&gt;Node424672</title>
<path fill="none" stroke="#191970" d="M501.7483,-380.2233C513.55,-378.4646 526.4983,-376.5351 538.6766,-374.7203"/>
<polygon fill="#191970" stroke="#191970" points="539.3083,-378.1649 548.6831,-373.2291 538.2765,-371.2413 539.3083,-378.1649"/>
</g>
<!-- Node425059 -->
<g id="node14" class="node">
<title>Node425059</title>
<g id="a_node14"><a xlink:href="quickjs_8c.html#a5fe9e1898e97028fbd772ebc1e914ba8" target="_top" xlink:title="math_mod">
<polygon fill="none" stroke="#000000" points="294.5,-419.9446 294.5,-438.9446 356.5,-438.9446 356.5,-419.9446 294.5,-419.9446"/>
<text text-anchor="middle" x="325.5" y="-426.9446" font-family="Helvetica,sans-Serif" font-size="10.00" fill="#000000">math_mod</text>
</a>
</g>
</g>
<!-- Node425058&#45;&gt;Node425059 -->
<g id="edge18" class="edge">
<title>Node425058&#45;&gt;Node425059</title>
<path fill="none" stroke="#191970" d="M186.9973,-344.0346C203.7919,-359.7199 239.2526,-391.053 274,-410.4446 277.6512,-412.4823 281.5636,-414.3796 285.5404,-416.1247"/>
<polygon fill="#191970" stroke="#191970" points="284.2625,-419.3834 294.844,-419.9153 286.9038,-412.9008 284.2625,-419.3834"/>
</g>
<!-- Node425060 -->
<g id="node15" class="node">
<title>Node425060</title>
<g id="a_node15"><a xlink:href="quickjs_8c.html#a3f5def6f020bd1c429735f0b1d079b5e" target="_top" xlink:title="days_from_year">
<polygon fill="none" stroke="#000000" points="282.5,-381.9446 282.5,-400.9446 368.5,-400.9446 368.5,-381.9446 282.5,-381.9446"/>
<text text-anchor="middle" x="325.5" y="-388.9446" font-family="Helvetica,sans-Serif" font-size="10.00" fill="#000000">days_from_year</text>
</a>
</g>
</g>
<!-- Node425058&#45;&gt;Node425060 -->
<g id="edge19" class="edge">
<title>Node425058&#45;&gt;Node425060</title>
<path fill="none" stroke="#191970" d="M200.8664,-343.9474C220.4695,-351.7157 248.9803,-362.9297 274,-372.4446 279.1219,-374.3925 284.5411,-376.4239 289.8656,-378.403"/>
<polygon fill="#191970" stroke="#191970" points="288.6697,-381.6923 299.2629,-381.8796 291.0986,-375.1272 288.6697,-381.6923"/>
</g>
<!-- Node425062 -->
<g id="node17" class="node">
<title>Node425062</title>
<g id="a_node17"><a xlink:href="quickjs_8c.html#a021e07d41b6d7239b3b44e7cbdff7a15" target="_top" xlink:title="days_in_year">
<polygon fill="none" stroke="#000000" points="288.5,-343.9446 288.5,-362.9446 362.5,-362.9446 362.5,-343.9446 288.5,-343.9446"/>
<text text-anchor="middle" x="325.5" y="-350.9446" font-family="Helvetica,sans-Serif" font-size="10.00" fill="#000000">days_in_year</text>
</a>
</g>
</g>
<!-- Node425058&#45;&gt;Node425062 -->
<g id="edge21" class="edge">
<title>Node425058&#45;&gt;Node425062</title>
<path fill="none" stroke="#191970" d="M218.7607,-339.7877C237.2309,-342.1509 259.0422,-344.9416 278.1185,-347.3823"/>
<polygon fill="#191970" stroke="#191970" points="277.7402,-350.8624 288.1036,-348.6599 278.6287,-343.919 277.7402,-350.8624"/>
</g>
<!-- Node425063 -->
<g id="node18" class="node">
<title>Node425063</title>
<g id="a_node18"><a xlink:href="quickjs_8c.html#adecade3bf915770c66e0a27bc3458343" target="_top" xlink:title="getTimezoneOffset">
<polygon fill="none" stroke="#000000" points="275.5,-305.9446 275.5,-324.9446 375.5,-324.9446 375.5,-305.9446 275.5,-305.9446"/>
<text text-anchor="middle" x="325.5" y="-312.9446" font-family="Helvetica,sans-Serif" font-size="10.00" fill="#000000">getTimezoneOffset</text>
</a>
</g>
</g>
<!-- Node425058&#45;&gt;Node425063 -->
<g id="edge22" class="edge">
<title>Node425058&#45;&gt;Node425063</title>
<path fill="none" stroke="#191970" d="M218.7607,-329.1015C233.1869,-327.2557 249.6513,-325.1492 265.2588,-323.1523"/>
<polygon fill="#191970" stroke="#191970" points="265.8864,-326.6006 275.3614,-321.8597 264.998,-319.6572 265.8864,-326.6006"/>
</g>
<!-- Node425064 -->
<g id="node19" class="node">
<title>Node425064</title>
<g id="a_node19"><a xlink:href="quickjs_8c.html#a478ea24cf629522a55e209b2619334c7" target="_top" xlink:title="time_clip">
<polygon fill="none" stroke="#000000" points="297.5,-267.9446 297.5,-286.9446 353.5,-286.9446 353.5,-267.9446 297.5,-267.9446"/>
<text text-anchor="middle" x="325.5" y="-274.9446" font-family="Helvetica,sans-Serif" font-size="10.00" fill="#000000">time_clip</text>
</a>
</g>
</g>
<!-- Node425058&#45;&gt;Node425064 -->
<g id="edge23" class="edge">
<title>Node425058&#45;&gt;Node425064</title>
<path fill="none" stroke="#191970" d="M200.8664,-324.9419C220.4695,-317.1736 248.9803,-305.9596 274,-296.4446 279.1219,-294.4968 284.5411,-292.4654 289.8656,-290.4863"/>
<polygon fill="#191970" stroke="#191970" points="291.0986,-293.762 299.2629,-287.0096 288.6697,-287.1969 291.0986,-293.762"/>
</g>
<!-- Node425061 -->
<g id="node16" class="node">
<title>Node425061</title>
<g id="a_node16"><a xlink:href="quickjs_8c.html#ad1e54b2564697a7a9d7838321308dd54" target="_top" xlink:title="floor_div">
<polygon fill="none" stroke="#000000" points="433.5,-300.9446 433.5,-319.9446 486.5,-319.9446 486.5,-300.9446 433.5,-300.9446"/>
<text text-anchor="middle" x="460" y="-307.9446" font-family="Helvetica,sans-Serif" font-size="10.00" fill="#000000">floor_div</text>
</a>
</g>
</g>
<!-- Node425060&#45;&gt;Node425061 -->
<g id="edge20" class="edge">
<title>Node425060&#45;&gt;Node425061</title>
<path fill="none" stroke="#191970" d="M358.4631,-381.8538C364.8742,-379.2894 371.3511,-376.1693 377,-372.4446 396.4224,-359.6382 394.3713,-348.3804 413,-334.4446 417.7939,-330.8584 423.2026,-327.5394 428.6,-324.5846"/>
<polygon fill="#191970" stroke="#191970" points="430.2716,-327.6608 437.5622,-319.9733 427.0689,-321.4364 430.2716,-327.6608"/>
</g>
<!-- Node425066&#45;&gt;Node425065 -->
<g id="edge26" class="edge">
<title>Node425066&#45;&gt;Node425065</title>
<path fill="none" stroke="#191970" d="M221.1692,-158.756C261.7481,-154.3033 323.5228,-147.1589 377,-139.4446 391.1765,-137.3996 406.6646,-134.8683 420.3817,-132.5228"/>
<polygon fill="#191970" stroke="#191970" points="421.2181,-135.9302 430.475,-130.7765 420.0247,-129.0326 421.2181,-135.9302"/>
</g>
<!-- Node425067&#45;&gt;Node425065 -->
<g id="edge28" class="edge">
<title>Node425067&#45;&gt;Node425065</title>
<path fill="none" stroke="#191970" d="M359.44,-97.0336C377.9956,-102.2761 401.0775,-108.7974 420.4457,-114.2694"/>
<polygon fill="#191970" stroke="#191970" points="419.6169,-117.6722 430.1918,-117.023 421.5201,-110.9359 419.6169,-117.6722"/>
</g>
<!-- Node425068&#45;&gt;Node425069 -->
<g id="edge30" class="edge">
<title>Node425068&#45;&gt;Node425069</title>
<path fill="none" stroke="#191970" d="M214.4728,-39.8556C233.8925,-34.8863 257.8025,-28.7679 278.4542,-23.4833"/>
<polygon fill="#191970" stroke="#191970" points="279.4765,-26.8345 288.2966,-20.9647 277.7411,-20.053 279.4765,-26.8345"/>
</g>
<!-- Node425070 -->
<g id="node25" class="node">
<title>Node425070</title>
<g id="a_node25"><a xlink:href="quickjs_8c.html#a7a64dc8a6c1daf2e734e3a4f7013b660" target="_top" xlink:title="find_abbrev">
<polygon fill="none" stroke="#000000" points="292,-39.9446 292,-58.9446 359,-58.9446 359,-39.9446 292,-39.9446"/>
<text text-anchor="middle" x="325.5" y="-46.9446" font-family="Helvetica,sans-Serif" font-size="10.00" fill="#000000">find_abbrev</text>
</a>
</g>
</g>
<!-- Node425068&#45;&gt;Node425070 -->
<g id="edge32" class="edge">
<title>Node425068&#45;&gt;Node425070</title>
<path fill="none" stroke="#191970" d="M223.1723,-49.4446C241.7638,-49.4446 263.1095,-49.4446 281.4787,-49.4446"/>
<polygon fill="#191970" stroke="#191970" points="281.6231,-52.9447 291.623,-49.4446 281.623,-45.9447 281.6231,-52.9447"/>
</g>
<!-- Node425069&#45;&gt;Node425065 -->
<g id="edge31" class="edge">
<title>Node425069&#45;&gt;Node425065</title>
<path fill="none" stroke="#191970" d="M358.853,-20.9676C365.1656,-23.5259 371.5058,-26.661 377,-30.4446 407.4823,-51.4366 433.8889,-86.1117 448.3176,-107.2571"/>
<polygon fill="#191970" stroke="#191970" points="445.4587,-109.2788 453.9106,-115.6675 451.2875,-105.4025 445.4587,-109.2788"/>
</g>
<!-- Node425070&#45;&gt;Node425065 -->
<g id="edge33" class="edge">
<title>Node425070&#45;&gt;Node425065</title>
<path fill="none" stroke="#191970" d="M355.1845,-58.9676C362.4714,-61.6914 370.1445,-64.8964 377,-68.4446 399.6607,-80.1732 423.4643,-97.0584 439.7401,-109.4066"/>
<polygon fill="#191970" stroke="#191970" points="437.896,-112.4043 447.9526,-115.7383 442.1701,-106.8606 437.896,-112.4043"/>
</g>
<!-- Node425071&#45;&gt;Node425065 -->
<g id="edge35" class="edge">
<title>Node425071&#45;&gt;Node425065</title>
<path fill="none" stroke="#191970" d="M235.2946,-125.4446C290.618,-125.4446 372.2598,-125.4446 420.3977,-125.4446"/>
<polygon fill="#191970" stroke="#191970" points="420.4293,-128.9447 430.4293,-125.4446 420.4293,-121.9447 420.4293,-128.9447"/>
</g>
<!-- Node425071&#45;&gt;Node425067 -->
<g id="edge36" class="edge">
<title>Node425071&#45;&gt;Node425067</title>
<path fill="none" stroke="#191970" d="M214.4728,-115.8556C233.8925,-110.8863 257.8025,-104.7679 278.4542,-99.4833"/>
<polygon fill="#191970" stroke="#191970" points="279.4765,-102.8345 288.2966,-96.9647 277.7411,-96.053 279.4765,-102.8345"/>
</g>
<!-- Node425072&#45;&gt;Node425065 -->
<g id="edge38" class="edge">
<title>Node425072&#45;&gt;Node425065</title>
<path fill="none" stroke="#191970" d="M238.3666,-242.8492C279.6662,-242.6338 334.1859,-237.3348 377,-215.4446 409.0024,-199.0823 434.9417,-165.0666 448.8642,-143.8589"/>
<polygon fill="#191970" stroke="#191970" points="452.0015,-145.4467 454.3941,-135.1255 446.0873,-141.7019 452.0015,-145.4467"/>
</g>
</g>
</svg>
        <g id="navigator" transform="translate(0 0)" fill="#404254">
                <rect fill="#f2f5e9" fill-opacity="0.5" stroke="#606060" stroke-width=".5" x="0" y="0" width="60" height="60"/>
                <use id="zoomplus" xlink:href="#zoomPlus" x="17" y="9" onmousedown="handleZoom(evt,'in')"/>
                <use id="zoomminus" xlink:href="#zoomMin" x="42" y="9" onmousedown="handleZoom(evt,'out')"/>
                <use id="reset" xlink:href="#resetDef" x="30" y="36" onmousedown="handleReset()"/>
                <g id="arrowUp" xlink:href="#dirArrow" transform="translate(30 24)" onmousedown="handlePan(0,-1)">
                  <use xlink:href="#rim" fill="#404040">
                        <set attributeName="fill" to="#808080" begin="arrowUp.mouseover" end="arrowUp.mouseout"/>
                  </use>
                  <path fill="none" stroke="white" stroke-width="1.5" d="M0,-3.0v7 M-2.5,-0.5L0,-3.0L2.5,-0.5"/>
                </g>
                <g id="arrowRight" xlink:href="#dirArrow" transform="rotate(90) translate(36 -43)" onmousedown="handlePan(1,0)">
                  <use xlink:href="#rim" fill="#404040">
                        <set attributeName="fill" to="#808080" begin="arrowRight.mouseover" end="arrowRight.mouseout"/>
                  </use>
                  <path fill="none" stroke="white" stroke-width="1.5" d="M0,-3.0v7 M-2.5,-0.5L0,-3.0L2.5,-0.5"/>
                </g>
                <g id="arrowDown" xlink:href="#dirArrow" transform="rotate(180) translate(-30 -48)" onmousedown="handlePan(0,1)">
                  <use xlink:href="#rim" fill="#404040">
                        <set attributeName="fill" to="#808080" begin="arrowDown.mouseover" end="arrowDown.mouseout"/>
                  </use>
                  <path fill="none" stroke="white" stroke-width="1.5" d="M0,-3.0v7 M-2.5,-0.5L0,-3.0L2.5,-0.5"/>
                </g>
                <g id="arrowLeft" xlink:href="#dirArrow" transform="rotate(270) translate(-36 17)" onmousedown="handlePan(-1,0)">
                  <use xlink:href="#rim" fill="#404040">
                        <set attributeName="fill" to="#808080" begin="arrowLeft.mouseover" end="arrowLeft.mouseout"/>
                  </use>
                  <path fill="none" stroke="white" stroke-width="1.5" d="M0,-3.0v7 M-2.5,-0.5L0,-3.0L2.5,-0.5"/>
                </g>
        </g>
        <svg viewBox="0 0 15 15" width="100%" height="30px" preserveAspectRatio="xMaxYMin meet">
         <g id="arrow_out" transform="scale(0.3 0.3)">
          <a xlink:href="quickjs_8c_ac2ddbbd09d32a6d9a4b7530d7f68c6f0_cgraph_org.svg" target="_base">
           <rect id="button" ry="5" rx="5" y="6" x="6" height="38" width="38"
                fill="#f2f5e9" fill-opacity="0.5" stroke="#606060" stroke-width="1.0"/>
           <path id="arrow"
             d="M 11.500037,31.436501 C 11.940474,20.09759 22.043105,11.32322 32.158766,21.979434 L 37.068811,17.246167 C 37.068811,17.246167 37.088388,32 37.088388,32 L 22.160133,31.978069 C 22.160133,31.978069 26.997745,27.140456 26.997745,27.140456 C 18.528582,18.264221 13.291696,25.230495 11.500037,31.436501 z"
             style="fill:#404040;"/>
          </a>
         </g>
        </svg>
</svg>
