<?xml version="1.0" encoding="UTF-8" standalone="no"?>
<!DOCTYPE svg PUBLIC "-//W3C//DTD SVG 1.1//EN"
 "http://www.w3.org/Graphics/SVG/1.1/DTD/svg11.dtd">
<!-- Generated by graphviz version 2.40.1 (20161225.0304)
 -->
<!-- Title: JS_NewInt64 Pages: 1 -->
<!--zoomable 345 -->
<svg id="main" version="1.1" xmlns="http://www.w3.org/2000/svg" xmlns:xlink="http://www.w3.org/1999/xlink" xml:space="preserve" onload="init(evt)">
<style type="text/css"><![CDATA[
.edge:hover path { stroke: red; }
.edge:hover polygon { stroke: red; fill: red; }
]]></style>
<script type="text/javascript"><![CDATA[
var edges = document.getElementsByTagName('g');
if (edges && edges.length) {
  for (var i=0;i<edges.length;i++) {
    if (edges[i].id.substr(0,4)=='edge') {
      edges[i].setAttribute('class','edge');
    }
  }
}
]]></script>
        <defs>
                <circle id="rim" cx="0" cy="0" r="7"/>
                <circle id="rim2" cx="0" cy="0" r="3.5"/>
                <g id="zoomPlus">
                        <use xlink:href="#rim" fill="#404040">
                                <set attributeName="fill" to="#808080" begin="zoomplus.mouseover" end="zoomplus.mouseout"/>
                        </use>
                        <path d="M-4,0h8M0,-4v8" fill="none" stroke="white" stroke-width="1.5" pointer-events="none"/>
                </g>
                <g id="zoomMin">
                        <use xlink:href="#rim" fill="#404040">
                                <set attributeName="fill" to="#808080" begin="zoomminus.mouseover" end="zoomminus.mouseout"/>
                        </use>
                        <path d="M-4,0h8" fill="none" stroke="white" stroke-width="1.5" pointer-events="none"/>
                </g>
                <g id="dirArrow">
                        <path fill="none" stroke="white" stroke-width="1.5" d="M0,-3.0v7 M-2.5,-0.5L0,-3.0L2.5,-0.5"/>
                </g>
               <g id="resetDef">
                       <use xlink:href="#rim2" fill="#404040">
                               <set attributeName="fill" to="#808080" begin="reset.mouseover" end="reset.mouseout"/>
                       </use>
               </g>
        </defs>

<script type="text/javascript">
var viewWidth = 525;
var viewHeight = 345;
var sectionId = 'dynsection-93';
</script>
<script xlink:href="svgpan.js"/>
<svg id="graph" class="graph">
<g id="viewport">
<title>JS_NewInt64</title>
<!-- Node29382 -->
<g id="node1" class="node">
<title>Node29382</title>
<polygon fill="#bfbfbf" stroke="#000000" points="0,-180.5 0,-199.5 76,-199.5 76,-180.5 0,-180.5"/>
<text text-anchor="middle" x="38" y="-187.5" font-family="Helvetica,sans-Serif" font-size="10.00" fill="#000000">JS_NewInt64</text>
</g>
<!-- Node29383 -->
<g id="node2" class="node">
<title>Node29383</title>
<g id="a_node2"><a xlink:href="libbf_8h.html#abacc1410890af049e02ebd788364ac48" target="_top" xlink:title="bf_init">
<polygon fill="none" stroke="#000000" points="467.5,-133.5 467.5,-152.5 510.5,-152.5 510.5,-133.5 467.5,-133.5"/>
<text text-anchor="middle" x="489" y="-140.5" font-family="Helvetica,sans-Serif" font-size="10.00" fill="#000000">bf_init</text>
</a>
</g>
</g>
<!-- Node29382&#45;&gt;Node29383 -->
<g id="edge1" class="edge">
<title>Node29382&#45;&gt;Node29383</title>
<path fill="none" stroke="#191970" d="M62.1204,-199.5867C125.252,-223.0915 299.158,-277.5462 425,-219 450.3214,-207.2196 469.2127,-179.9421 479.6794,-161.481"/>
<polygon fill="#191970" stroke="#191970" points="482.8428,-162.9881 484.4947,-152.5228 476.6772,-159.6738 482.8428,-162.9881"/>
</g>
<!-- Node29384 -->
<g id="node3" class="node">
<title>Node29384</title>
<g id="a_node3"><a xlink:href="libbf_8h.html#a60ee3eaad83309aaf8a8b8fb81d8b44d" target="_top" xlink:title="bf_set_si">
<polygon fill="none" stroke="#000000" points="124,-275.5 124,-294.5 180,-294.5 180,-275.5 124,-275.5"/>
<text text-anchor="middle" x="152" y="-282.5" font-family="Helvetica,sans-Serif" font-size="10.00" fill="#000000">bf_set_si</text>
</a>
</g>
</g>
<!-- Node29382&#45;&gt;Node29384 -->
<g id="edge2" class="edge">
<title>Node29382&#45;&gt;Node29384</title>
<path fill="none" stroke="#191970" d="M49.5133,-199.6924C64.0479,-211.9176 89.8327,-233.5701 112,-252 118.7171,-257.5846 126.0888,-263.6766 132.6538,-269.0891"/>
<polygon fill="#191970" stroke="#191970" points="130.484,-271.8363 140.4281,-275.4922 134.9343,-266.433 130.484,-271.8363"/>
</g>
<!-- Node29390 -->
<g id="node8" class="node">
<title>Node29390</title>
<g id="a_node8"><a xlink:href="quickjs_8c.html#aaaa960ff4bdf4b4dd3017b555844c397" target="_top" xlink:title="is_bigint_mode">
<polygon fill="none" stroke="#000000" points="229.5,-171.5 229.5,-190.5 311.5,-190.5 311.5,-171.5 229.5,-171.5"/>
<text text-anchor="middle" x="270.5" y="-178.5" font-family="Helvetica,sans-Serif" font-size="10.00" fill="#000000">is_bigint_mode</text>
</a>
</g>
</g>
<!-- Node29382&#45;&gt;Node29390 -->
<g id="edge8" class="edge">
<title>Node29382&#45;&gt;Node29390</title>
<path fill="none" stroke="#191970" d="M76.1323,-188.5239C115.1323,-187.0142 175.9643,-184.6594 219.1766,-182.9867"/>
<polygon fill="#191970" stroke="#191970" points="219.3523,-186.4826 229.2094,-182.5983 219.0815,-179.4879 219.3523,-186.4826"/>
</g>
<!-- Node29391 -->
<g id="node9" class="node">
<title>Node29391</title>
<g id="a_node9"><a xlink:href="quickjs_8c.html#aece934cd3d738b1562b8cf5fe5ce9b67" target="_top" xlink:title="JS_NewBigInt">
<polygon fill="none" stroke="#000000" points="112,-142.5 112,-161.5 192,-161.5 192,-142.5 112,-142.5"/>
<text text-anchor="middle" x="152" y="-149.5" font-family="Helvetica,sans-Serif" font-size="10.00" fill="#000000">JS_NewBigInt</text>
</a>
</g>
</g>
<!-- Node29382&#45;&gt;Node29391 -->
<g id="edge9" class="edge">
<title>Node29382&#45;&gt;Node29391</title>
<path fill="none" stroke="#191970" d="M66.767,-180.411C80.9433,-175.6856 98.2366,-169.9211 113.5322,-164.8226"/>
<polygon fill="#191970" stroke="#191970" points="114.8622,-168.0687 123.2422,-161.5859 112.6485,-161.4279 114.8622,-168.0687"/>
</g>
<!-- Node29400 -->
<g id="node16" class="node">
<title>Node29400</title>
<g id="a_node16"><a xlink:href="quickjs_8h.html#a2050bc428da1c65ac7eb87c3fa3b0392" target="_top" xlink:title="JS_NewInt32">
<polygon fill="none" stroke="#000000" points="349,-.5 349,-19.5 425,-19.5 425,-.5 349,-.5"/>
<text text-anchor="middle" x="387" y="-7.5" font-family="Helvetica,sans-Serif" font-size="10.00" fill="#000000">JS_NewInt32</text>
</a>
</g>
</g>
<!-- Node29382&#45;&gt;Node29400 -->
<g id="edge19" class="edge">
<title>Node29382&#45;&gt;Node29400</title>
<path fill="none" stroke="#191970" d="M48.9389,-180.2366C62.8809,-168.1176 88.0543,-147.3039 112,-133 193.1572,-84.521 296.8027,-43.1825 350.7226,-23.0688"/>
<polygon fill="#191970" stroke="#191970" points="352.0317,-26.3164 360.1953,-19.5632 349.6022,-19.7515 352.0317,-26.3164"/>
</g>
<!-- Node29385 -->
<g id="node4" class="node">
<title>Node29385</title>
<g id="a_node4"><a xlink:href="libbf_8h.html#a2378f025beace5741c19bf995c2971d3" target="_top" xlink:title="bf_set_ui">
<polygon fill="none" stroke="#000000" points="242.5,-294.5 242.5,-313.5 298.5,-313.5 298.5,-294.5 242.5,-294.5"/>
<text text-anchor="middle" x="270.5" y="-301.5" font-family="Helvetica,sans-Serif" font-size="10.00" fill="#000000">bf_set_ui</text>
</a>
</g>
</g>
<!-- Node29384&#45;&gt;Node29385 -->
<g id="edge3" class="edge">
<title>Node29384&#45;&gt;Node29385</title>
<path fill="none" stroke="#191970" d="M180.0828,-289.5027C195.6127,-291.9927 215.136,-295.1231 232.063,-297.8371"/>
<polygon fill="#191970" stroke="#191970" points="231.78,-301.3364 242.2081,-299.4637 232.8883,-294.4246 231.78,-301.3364"/>
</g>
<!-- Node29386 -->
<g id="node5" class="node">
<title>Node29386</title>
<g id="a_node5"><a xlink:href="libbf_8h.html#ab51c43b22c1a81c789ee0e3d53c0e585" target="_top" xlink:title="bf_resize">
<polygon fill="none" stroke="#000000" points="461,-304.5 461,-323.5 517,-323.5 517,-304.5 461,-304.5"/>
<text text-anchor="middle" x="489" y="-311.5" font-family="Helvetica,sans-Serif" font-size="10.00" fill="#000000">bf_resize</text>
</a>
</g>
</g>
<!-- Node29385&#45;&gt;Node29386 -->
<g id="edge4" class="edge">
<title>Node29385&#45;&gt;Node29386</title>
<path fill="none" stroke="#191970" d="M290.2803,-313.5369C305.8324,-320.4807 328.2623,-329.2919 349,-333 382.2504,-338.9454 391.5733,-337.857 425,-333 434.434,-331.6292 444.4125,-329.1779 453.6117,-326.482"/>
<polygon fill="#191970" stroke="#191970" points="454.711,-329.8056 463.2253,-323.5001 452.6372,-323.1198 454.711,-329.8056"/>
</g>
<!-- Node29387 -->
<g id="node6" class="node">
<title>Node29387</title>
<g id="a_node6"><a xlink:href="libbf_8h.html#aa6282c789c16c8cf2fe6a8ebd671c6fc" target="_top" xlink:title="bf_set_nan">
<polygon fill="none" stroke="#000000" points="354.5,-266.5 354.5,-285.5 419.5,-285.5 419.5,-266.5 354.5,-266.5"/>
<text text-anchor="middle" x="387" y="-273.5" font-family="Helvetica,sans-Serif" font-size="10.00" fill="#000000">bf_set_nan</text>
</a>
</g>
</g>
<!-- Node29385&#45;&gt;Node29387 -->
<g id="edge5" class="edge">
<title>Node29385&#45;&gt;Node29387</title>
<path fill="none" stroke="#191970" d="M298.7014,-297.222C312.401,-293.9294 329.1543,-289.9028 344.3717,-286.2454"/>
<polygon fill="#191970" stroke="#191970" points="345.1972,-289.6468 354.1023,-283.9067 343.5613,-282.8406 345.1972,-289.6468"/>
</g>
<!-- Node29388 -->
<g id="node7" class="node">
<title>Node29388</title>
<g id="a_node7"><a xlink:href="libbf_8c.html#a3ac3b86cc31b99a551947240e979c5d7" target="_top" xlink:title="clz">
<polygon fill="none" stroke="#ff0000" points="372.5,-304.5 372.5,-323.5 401.5,-323.5 401.5,-304.5 372.5,-304.5"/>
<text text-anchor="middle" x="387" y="-311.5" font-family="Helvetica,sans-Serif" font-size="10.00" fill="#000000">clz</text>
</a>
</g>
</g>
<!-- Node29385&#45;&gt;Node29388 -->
<g id="edge7" class="edge">
<title>Node29385&#45;&gt;Node29388</title>
<path fill="none" stroke="#191970" d="M298.7014,-306.4207C318.0661,-308.0829 343.532,-310.2688 362.1372,-311.8659"/>
<polygon fill="#191970" stroke="#191970" points="361.9381,-315.3616 372.2009,-312.7297 362.5369,-308.3872 361.9381,-315.3616"/>
</g>
<!-- Node29387&#45;&gt;Node29386 -->
<g id="edge6" class="edge">
<title>Node29387&#45;&gt;Node29386</title>
<path fill="none" stroke="#191970" d="M412.7389,-285.589C425.1813,-290.2244 440.3075,-295.8596 453.7975,-300.8853"/>
<polygon fill="#191970" stroke="#191970" points="452.6766,-304.2027 463.2693,-304.4141 455.1204,-297.6431 452.6766,-304.2027"/>
</g>
<!-- Node29391&#45;&gt;Node29390 -->
<g id="edge10" class="edge">
<title>Node29391&#45;&gt;Node29390</title>
<path fill="none" stroke="#191970" d="M191.1297,-161.5761C200.8375,-163.9518 211.3629,-166.5276 221.4782,-169.0031"/>
<polygon fill="#191970" stroke="#191970" points="220.866,-172.4565 231.4113,-171.434 222.53,-165.6571 220.866,-172.4565"/>
</g>
<!-- Node29392 -->
<g id="node10" class="node">
<title>Node29392</title>
<g id="a_node10"><a xlink:href="quickjs_8c.html#a98d62298f0edd475682572d2d1c2fbc2" target="_top" xlink:title="JS_NewBigInt2">
<polygon fill="none" stroke="#000000" points="228,-114.5 228,-133.5 313,-133.5 313,-114.5 228,-114.5"/>
<text text-anchor="middle" x="270.5" y="-121.5" font-family="Helvetica,sans-Serif" font-size="10.00" fill="#000000">JS_NewBigInt2</text>
</a>
</g>
</g>
<!-- Node29391&#45;&gt;Node29392 -->
<g id="edge11" class="edge">
<title>Node29391&#45;&gt;Node29392</title>
<path fill="none" stroke="#191970" d="M192.1187,-142.5205C201.0929,-140.4 210.7231,-138.1245 220.0552,-135.9194"/>
<polygon fill="#191970" stroke="#191970" points="221.0923,-139.2709 230.0194,-133.565 219.4825,-132.4585 221.0923,-139.2709"/>
</g>
<!-- Node29393 -->
<g id="node11" class="node">
<title>Node29393</title>
<g id="a_node11"><a xlink:href="libbf_8h.html#a2b9d906b21e903f2f7f1c9044674ab7d" target="_top" xlink:title="bf_delete">
<polygon fill="none" stroke="#ff0000" points="359,-190.5 359,-209.5 415,-209.5 415,-190.5 359,-190.5"/>
<text text-anchor="middle" x="387" y="-197.5" font-family="Helvetica,sans-Serif" font-size="10.00" fill="#000000">bf_delete</text>
</a>
</g>
</g>
<!-- Node29392&#45;&gt;Node29393 -->
<g id="edge12" class="edge">
<title>Node29392&#45;&gt;Node29393</title>
<path fill="none" stroke="#191970" d="M282.3117,-133.526C297.3156,-145.4001 324.2407,-165.9612 349,-181 351.6261,-182.5951 354.4037,-184.1741 357.2139,-185.7001"/>
<polygon fill="#191970" stroke="#191970" points="355.6693,-188.8418 366.1564,-190.3485 358.8978,-182.6308 355.6693,-188.8418"/>
</g>
<!-- Node29395 -->
<g id="node12" class="node">
<title>Node29395</title>
<g id="a_node12"><a xlink:href="libbf_8h.html#a3718b08eb6f31658749f63f728324879" target="_top" xlink:title="bf_get_int32">
<polygon fill="none" stroke="#ff0000" points="352,-152.5 352,-171.5 422,-171.5 422,-152.5 352,-152.5"/>
<text text-anchor="middle" x="387" y="-159.5" font-family="Helvetica,sans-Serif" font-size="10.00" fill="#000000">bf_get_int32</text>
</a>
</g>
</g>
<!-- Node29392&#45;&gt;Node29395 -->
<g id="edge13" class="edge">
<title>Node29392&#45;&gt;Node29395</title>
<path fill="none" stroke="#191970" d="M299.8979,-133.589C314.385,-138.3144 332.0576,-144.0789 347.6886,-149.1774"/>
<polygon fill="#191970" stroke="#191970" points="347.0191,-152.6405 357.6115,-152.4141 349.1899,-145.9855 347.0191,-152.6405"/>
</g>
<!-- Node29397 -->
<g id="node13" class="node">
<title>Node29397</title>
<g id="a_node13"><a xlink:href="libbf_8h.html#ad5a3e4de8a6966e781b6930443c44211" target="_top" xlink:title="bf_is_zero">
<polygon fill="none" stroke="#000000" points="356,-114.5 356,-133.5 418,-133.5 418,-114.5 356,-114.5"/>
<text text-anchor="middle" x="387" y="-121.5" font-family="Helvetica,sans-Serif" font-size="10.00" fill="#000000">bf_is_zero</text>
</a>
</g>
</g>
<!-- Node29392&#45;&gt;Node29397 -->
<g id="edge14" class="edge">
<title>Node29392&#45;&gt;Node29397</title>
<path fill="none" stroke="#191970" d="M313.2188,-124C323.8364,-124 335.1967,-124 345.7426,-124"/>
<polygon fill="#191970" stroke="#191970" points="345.9595,-127.5001 355.9595,-124 345.9594,-120.5001 345.9595,-127.5001"/>
</g>
<!-- Node29398 -->
<g id="node14" class="node">
<title>Node29398</title>
<g id="a_node14"><a xlink:href="libbf_8h.html#a13499fa43a05ea8a91c250c98422ae78" target="_top" xlink:title="bf_memcpy">
<polygon fill="none" stroke="#000000" points="353,-76.5 353,-95.5 421,-95.5 421,-76.5 353,-76.5"/>
<text text-anchor="middle" x="387" y="-83.5" font-family="Helvetica,sans-Serif" font-size="10.00" fill="#000000">bf_memcpy</text>
</a>
</g>
</g>
<!-- Node29392&#45;&gt;Node29398 -->
<g id="edge15" class="edge">
<title>Node29392&#45;&gt;Node29398</title>
<path fill="none" stroke="#191970" d="M299.8979,-114.411C314.385,-109.6856 332.0576,-103.9211 347.6886,-98.8226"/>
<polygon fill="#191970" stroke="#191970" points="349.1899,-102.0145 357.6115,-95.5859 347.0191,-95.3595 349.1899,-102.0145"/>
</g>
<!-- Node29399 -->
<g id="node15" class="node">
<title>Node29399</title>
<g id="a_node15"><a xlink:href="quickjs_8c.html#a6f5d3baf4bf175b36fb9369470d93735" target="_top" xlink:title="js_new_bf">
<polygon fill="none" stroke="#000000" points="356.5,-38.5 356.5,-57.5 417.5,-57.5 417.5,-38.5 356.5,-38.5"/>
<text text-anchor="middle" x="387" y="-45.5" font-family="Helvetica,sans-Serif" font-size="10.00" fill="#000000">js_new_bf</text>
</a>
</g>
</g>
<!-- Node29392&#45;&gt;Node29399 -->
<g id="edge16" class="edge">
<title>Node29392&#45;&gt;Node29399</title>
<path fill="none" stroke="#191970" d="M282.3117,-114.474C297.3156,-102.5999 324.2407,-82.0388 349,-67 351.6261,-65.4049 354.4037,-63.8259 357.2139,-62.2999"/>
<polygon fill="#191970" stroke="#191970" points="358.8978,-65.3692 366.1564,-57.6515 355.6693,-59.1582 358.8978,-65.3692"/>
</g>
<!-- Node29392&#45;&gt;Node29400 -->
<g id="edge18" class="edge">
<title>Node29392&#45;&gt;Node29400</title>
<path fill="none" stroke="#191970" d="M276.551,-114.2417C288.4768,-95.6471 316.6834,-54.7047 349,-29 350.8292,-27.5451 352.7877,-26.1592 354.8156,-24.8476"/>
<polygon fill="#191970" stroke="#191970" points="357.0384,-27.607 363.9639,-19.5889 353.5499,-21.5382 357.0384,-27.607"/>
</g>
<!-- Node29399&#45;&gt;Node29383 -->
<g id="edge17" class="edge">
<title>Node29399&#45;&gt;Node29383</title>
<path fill="none" stroke="#191970" d="M410.012,-57.6194C415.1878,-60.285 420.4808,-63.4396 425,-67 446.036,-83.5728 465.0953,-107.9956 476.8389,-124.6521"/>
<polygon fill="#191970" stroke="#191970" points="474.0305,-126.7453 482.5765,-133.0075 479.8009,-122.7827 474.0305,-126.7453"/>
</g>
</g>
</svg>
        <g id="navigator" transform="translate(0 0)" fill="#404254">
                <rect fill="#f2f5e9" fill-opacity="0.5" stroke="#606060" stroke-width=".5" x="0" y="0" width="60" height="60"/>
                <use id="zoomplus" xlink:href="#zoomPlus" x="17" y="9" onmousedown="handleZoom(evt,'in')"/>
                <use id="zoomminus" xlink:href="#zoomMin" x="42" y="9" onmousedown="handleZoom(evt,'out')"/>
                <use id="reset" xlink:href="#resetDef" x="30" y="36" onmousedown="handleReset()"/>
                <g id="arrowUp" xlink:href="#dirArrow" transform="translate(30 24)" onmousedown="handlePan(0,-1)">
                  <use xlink:href="#rim" fill="#404040">
                        <set attributeName="fill" to="#808080" begin="arrowUp.mouseover" end="arrowUp.mouseout"/>
                  </use>
                  <path fill="none" stroke="white" stroke-width="1.5" d="M0,-3.0v7 M-2.5,-0.5L0,-3.0L2.5,-0.5"/>
                </g>
                <g id="arrowRight" xlink:href="#dirArrow" transform="rotate(90) translate(36 -43)" onmousedown="handlePan(1,0)">
                  <use xlink:href="#rim" fill="#404040">
                        <set attributeName="fill" to="#808080" begin="arrowRight.mouseover" end="arrowRight.mouseout"/>
                  </use>
                  <path fill="none" stroke="white" stroke-width="1.5" d="M0,-3.0v7 M-2.5,-0.5L0,-3.0L2.5,-0.5"/>
                </g>
                <g id="arrowDown" xlink:href="#dirArrow" transform="rotate(180) translate(-30 -48)" onmousedown="handlePan(0,1)">
                  <use xlink:href="#rim" fill="#404040">
                        <set attributeName="fill" to="#808080" begin="arrowDown.mouseover" end="arrowDown.mouseout"/>
                  </use>
                  <path fill="none" stroke="white" stroke-width="1.5" d="M0,-3.0v7 M-2.5,-0.5L0,-3.0L2.5,-0.5"/>
                </g>
                <g id="arrowLeft" xlink:href="#dirArrow" transform="rotate(270) translate(-36 17)" onmousedown="handlePan(-1,0)">
                  <use xlink:href="#rim" fill="#404040">
                        <set attributeName="fill" to="#808080" begin="arrowLeft.mouseover" end="arrowLeft.mouseout"/>
                  </use>
                  <path fill="none" stroke="white" stroke-width="1.5" d="M0,-3.0v7 M-2.5,-0.5L0,-3.0L2.5,-0.5"/>
                </g>
        </g>
        <svg viewBox="0 0 15 15" width="100%" height="30px" preserveAspectRatio="xMaxYMin meet">
         <g id="arrow_out" transform="scale(0.3 0.3)">
          <a xlink:href="quickjs_8h_acfced0527a056a74dd8439904b7936dd_cgraph_org.svg" target="_base">
           <rect id="button" ry="5" rx="5" y="6" x="6" height="38" width="38"
                fill="#f2f5e9" fill-opacity="0.5" stroke="#606060" stroke-width="1.0"/>
           <path id="arrow"
             d="M 11.500037,31.436501 C 11.940474,20.09759 22.043105,11.32322 32.158766,21.979434 L 37.068811,17.246167 C 37.068811,17.246167 37.088388,32 37.088388,32 L 22.160133,31.978069 C 22.160133,31.978069 26.997745,27.140456 26.997745,27.140456 C 18.528582,18.264221 13.291696,25.230495 11.500037,31.436501 z"
             style="fill:#404040;"/>
          </a>
         </g>
        </svg>
</svg>
