<?xml version="1.0" encoding="UTF-8" standalone="no"?>
<!DOCTYPE svg PUBLIC "-//W3C//DTD SVG 1.1//EN"
 "http://www.w3.org/Graphics/SVG/1.1/DTD/svg11.dtd">
<!-- Generated by graphviz version 2.40.1 (20161225.0304)
 -->
<!-- Title: js_bigint_constructor Pages: 1 -->
<!--zoomable 712 -->
<svg id="main" version="1.1" xmlns="http://www.w3.org/2000/svg" xmlns:xlink="http://www.w3.org/1999/xlink" xml:space="preserve" onload="init(evt)">
<style type="text/css"><![CDATA[
.edge:hover path { stroke: red; }
.edge:hover polygon { stroke: red; fill: red; }
]]></style>
<script type="text/javascript"><![CDATA[
var edges = document.getElementsByTagName('g');
if (edges && edges.length) {
  for (var i=0;i<edges.length;i++) {
    if (edges[i].id.substr(0,4)=='edge') {
      edges[i].setAttribute('class','edge');
    }
  }
}
]]></script>
        <defs>
                <circle id="rim" cx="0" cy="0" r="7"/>
                <circle id="rim2" cx="0" cy="0" r="3.5"/>
                <g id="zoomPlus">
                        <use xlink:href="#rim" fill="#404040">
                                <set attributeName="fill" to="#808080" begin="zoomplus.mouseover" end="zoomplus.mouseout"/>
                        </use>
                        <path d="M-4,0h8M0,-4v8" fill="none" stroke="white" stroke-width="1.5" pointer-events="none"/>
                </g>
                <g id="zoomMin">
                        <use xlink:href="#rim" fill="#404040">
                                <set attributeName="fill" to="#808080" begin="zoomminus.mouseover" end="zoomminus.mouseout"/>
                        </use>
                        <path d="M-4,0h8" fill="none" stroke="white" stroke-width="1.5" pointer-events="none"/>
                </g>
                <g id="dirArrow">
                        <path fill="none" stroke="white" stroke-width="1.5" d="M0,-3.0v7 M-2.5,-0.5L0,-3.0L2.5,-0.5"/>
                </g>
               <g id="resetDef">
                       <use xlink:href="#rim2" fill="#404040">
                               <set attributeName="fill" to="#808080" begin="reset.mouseover" end="reset.mouseout"/>
                       </use>
               </g>
        </defs>

<script type="text/javascript">
var viewWidth = 984;
var viewHeight = 712;
var sectionId = 'dynsection-1833';
</script>
<script xlink:href="svgpan.js"/>
<svg id="graph" class="graph">
<g id="viewport">
<title>js_bigint_constructor</title>
<!-- Node498723 -->
<g id="node1" class="node">
<title>Node498723</title>
<polygon fill="#bfbfbf" stroke="#000000" points="0,-266.5 0,-285.5 107,-285.5 107,-266.5 0,-266.5"/>
<text text-anchor="middle" x="53.5" y="-273.5" font-family="Helvetica,sans-Serif" font-size="10.00" fill="#000000">js_bigint_constructor</text>
</g>
<!-- Node498724 -->
<g id="node2" class="node">
<title>Node498724</title>
<g id="a_node2"><a xlink:href="quickjs_8h.html#a775522f2d084fc8fa0fcb33f390006b4" target="_top" xlink:title="JS_DupValue">
<polygon fill="none" stroke="#000000" points="159,-285.5 159,-304.5 236,-304.5 236,-285.5 159,-285.5"/>
<text text-anchor="middle" x="197.5" y="-292.5" font-family="Helvetica,sans-Serif" font-size="10.00" fill="#000000">JS_DupValue</text>
</a>
</g>
</g>
<!-- Node498723&#45;&gt;Node498724 -->
<g id="edge1" class="edge">
<title>Node498723&#45;&gt;Node498724</title>
<path fill="none" stroke="#191970" d="M107.1203,-283.0749C120.7565,-284.8741 135.3354,-286.7977 148.7163,-288.5633"/>
<polygon fill="#191970" stroke="#191970" points="148.3078,-292.0396 158.6797,-289.8779 149.2235,-285.0998 148.3078,-292.0396"/>
</g>
<!-- Node498725 -->
<g id="node3" class="node">
<title>Node498725</title>
<g id="a_node3"><a xlink:href="quickjs_8c.html#af88b18f6dfaf5dc49b89df9460bdb416" target="_top" xlink:title="JS_ToBigIntCtorFree">
<polygon fill="none" stroke="#000000" points="143,-247.5 143,-266.5 252,-266.5 252,-247.5 143,-247.5"/>
<text text-anchor="middle" x="197.5" y="-254.5" font-family="Helvetica,sans-Serif" font-size="10.00" fill="#000000">JS_ToBigIntCtorFree</text>
</a>
</g>
</g>
<!-- Node498723&#45;&gt;Node498725 -->
<g id="edge2" class="edge">
<title>Node498723&#45;&gt;Node498725</title>
<path fill="none" stroke="#191970" d="M107.1203,-268.9251C115.5114,-267.8179 124.2595,-266.6637 132.8658,-265.5281"/>
<polygon fill="#191970" stroke="#191970" points="133.4175,-268.9858 142.8737,-264.2076 132.5018,-262.0459 133.4175,-268.9858"/>
</g>
<!-- Node498726 -->
<g id="node4" class="node">
<title>Node498726</title>
<g id="a_node4"><a xlink:href="libbf_8h.html#a2b9d906b21e903f2f7f1c9044674ab7d" target="_top" xlink:title="bf_delete">
<polygon fill="none" stroke="#000000" points="456.5,-494.5 456.5,-513.5 512.5,-513.5 512.5,-494.5 456.5,-494.5"/>
<text text-anchor="middle" x="484.5" y="-501.5" font-family="Helvetica,sans-Serif" font-size="10.00" fill="#000000">bf_delete</text>
</a>
</g>
</g>
<!-- Node498725&#45;&gt;Node498726 -->
<g id="edge3" class="edge">
<title>Node498725&#45;&gt;Node498726</title>
<path fill="none" stroke="#191970" d="M240.0019,-266.5508C244.5331,-269.0125 248.6883,-272.1079 252,-276 311.6636,-346.1192 221.1919,-416.6508 288,-480 330.1356,-519.9541 402.2442,-517.6241 446.4095,-511.4204"/>
<polygon fill="#191970" stroke="#191970" points="447.1115,-514.8537 456.4629,-509.8735 446.0469,-507.9351 447.1115,-514.8537"/>
</g>
<!-- Node498728 -->
<g id="node6" class="node">
<title>Node498728</title>
<g id="a_node6"><a xlink:href="libbf_8h.html#abacc1410890af049e02ebd788364ac48" target="_top" xlink:title="bf_init">
<polygon fill="none" stroke="#000000" points="593.5,-399.5 593.5,-418.5 636.5,-418.5 636.5,-399.5 593.5,-399.5"/>
<text text-anchor="middle" x="615" y="-406.5" font-family="Helvetica,sans-Serif" font-size="10.00" fill="#000000">bf_init</text>
</a>
</g>
</g>
<!-- Node498725&#45;&gt;Node498728 -->
<g id="edge5" class="edge">
<title>Node498725&#45;&gt;Node498728</title>
<path fill="none" stroke="#191970" d="M237.9553,-266.5028C243.1099,-268.9746 247.9794,-272.0856 252,-276 284.352,-307.4971 253.1666,-342.2711 288,-371 374.2477,-442.1329 519.6112,-426.7465 583.3934,-415.5289"/>
<polygon fill="#191970" stroke="#191970" points="584.0629,-418.9646 593.2629,-413.7099 582.7941,-412.0805 584.0629,-418.9646"/>
</g>
<!-- Node498729 -->
<g id="node7" class="node">
<title>Node498729</title>
<g id="a_node7"><a xlink:href="libbf_8h.html#a40cbb5188b372acb906090d5ccf98a17" target="_top" xlink:title="bf_is_finite">
<polygon fill="none" stroke="#000000" points="310.5,-38.5 310.5,-57.5 374.5,-57.5 374.5,-38.5 310.5,-38.5"/>
<text text-anchor="middle" x="342.5" y="-45.5" font-family="Helvetica,sans-Serif" font-size="10.00" fill="#000000">bf_is_finite</text>
</a>
</g>
</g>
<!-- Node498725&#45;&gt;Node498729 -->
<g id="edge6" class="edge">
<title>Node498725&#45;&gt;Node498729</title>
<path fill="none" stroke="#191970" d="M199.7569,-247.1372C207.145,-216.9226 233.3356,-124.5127 288,-72 292.0075,-68.1503 296.7347,-64.8591 301.7027,-62.0617"/>
<polygon fill="#191970" stroke="#191970" points="303.4005,-65.1265 310.8019,-57.5456 300.2884,-58.8563 303.4005,-65.1265"/>
</g>
<!-- Node498730 -->
<g id="node8" class="node">
<title>Node498730</title>
<g id="a_node8"><a xlink:href="libbf_8h.html#aaf7d6961c71cf6614ec51fd78755a031" target="_top" xlink:title="bf_rint">
<polygon fill="none" stroke="#000000" points="320.5,-.5 320.5,-19.5 364.5,-19.5 364.5,-.5 320.5,-.5"/>
<text text-anchor="middle" x="342.5" y="-7.5" font-family="Helvetica,sans-Serif" font-size="10.00" fill="#000000">bf_rint</text>
</a>
</g>
</g>
<!-- Node498725&#45;&gt;Node498730 -->
<g id="edge7" class="edge">
<title>Node498725&#45;&gt;Node498730</title>
<path fill="none" stroke="#191970" d="M198.5159,-247.1899C202.6457,-212.3067 221.2819,-92.9471 288,-29 294.223,-23.0355 302.4177,-18.9341 310.5563,-16.1171"/>
<polygon fill="#191970" stroke="#191970" points="311.6938,-19.4314 320.3195,-13.2792 309.74,-12.7096 311.6938,-19.4314"/>
</g>
<!-- Node498744 -->
<g id="node10" class="node">
<title>Node498744</title>
<g id="a_node10"><a xlink:href="libbf_8h.html#ae019ee8073f4359da157d3b1e5fdba7e" target="_top" xlink:title="bf_set">
<polygon fill="none" stroke="#000000" points="716.5,-380.5 716.5,-399.5 760.5,-399.5 760.5,-380.5 716.5,-380.5"/>
<text text-anchor="middle" x="738.5" y="-387.5" font-family="Helvetica,sans-Serif" font-size="10.00" fill="#000000">bf_set</text>
</a>
</g>
</g>
<!-- Node498725&#45;&gt;Node498744 -->
<g id="edge9" class="edge">
<title>Node498725&#45;&gt;Node498744</title>
<path fill="none" stroke="#191970" d="M239.1246,-266.5693C243.918,-269.0275 248.3769,-272.1171 252,-276 293.4856,-320.4604 243.5467,-366.5069 288,-408 408.3889,-520.3722 498.7384,-469.9133 658,-428 677.6792,-422.821 698.4109,-412.9167 713.9062,-404.518"/>
<polygon fill="#191970" stroke="#191970" points="715.7973,-407.4708 722.8214,-399.539 712.3841,-401.3593 715.7973,-407.4708"/>
</g>
<!-- Node498745 -->
<g id="node13" class="node">
<title>Node498745</title>
<g id="a_node13"><a xlink:href="libbf_8h.html#a60ee3eaad83309aaf8a8b8fb81d8b44d" target="_top" xlink:title="bf_set_si">
<polygon fill="none" stroke="#000000" points="587,-285.5 587,-304.5 643,-304.5 643,-285.5 587,-285.5"/>
<text text-anchor="middle" x="615" y="-292.5" font-family="Helvetica,sans-Serif" font-size="10.00" fill="#000000">bf_set_si</text>
</a>
</g>
</g>
<!-- Node498725&#45;&gt;Node498745 -->
<g id="edge13" class="edge">
<title>Node498725&#45;&gt;Node498745</title>
<path fill="none" stroke="#191970" d="M252.0808,-261.9678C337.824,-269.772 501.972,-284.7124 576.4958,-291.4954"/>
<polygon fill="#191970" stroke="#191970" points="576.5447,-295.0143 586.8208,-292.4352 577.1792,-288.0431 576.5447,-295.0143"/>
</g>
<!-- Node498749 -->
<g id="node15" class="node">
<title>Node498749</title>
<g id="a_node15"><a xlink:href="quickjs_8c.html#aaaa960ff4bdf4b4dd3017b555844c397" target="_top" xlink:title="is_bigint_mode">
<polygon fill="none" stroke="#000000" points="574,-209.5 574,-228.5 656,-228.5 656,-209.5 574,-209.5"/>
<text text-anchor="middle" x="615" y="-216.5" font-family="Helvetica,sans-Serif" font-size="10.00" fill="#000000">is_bigint_mode</text>
</a>
</g>
</g>
<!-- Node498725&#45;&gt;Node498749 -->
<g id="edge17" class="edge">
<title>Node498725&#45;&gt;Node498749</title>
<path fill="none" stroke="#191970" d="M214.5274,-247.423C232.2438,-238.0506 261.1047,-224.4174 288,-219 384.0129,-199.6604 499.1259,-206.387 563.991,-212.8305"/>
<polygon fill="#191970" stroke="#191970" points="563.6532,-216.3142 573.9594,-213.8582 564.3711,-209.3511 563.6532,-216.3142"/>
</g>
<!-- Node498750 -->
<g id="node16" class="node">
<title>Node498750</title>
<g id="a_node16"><a xlink:href="quickjs_8h.html#afaa20c47565bc704c6c85f3d77254e7d" target="_top" xlink:title="JS_FreeValue">
<polygon fill="none" stroke="#000000" points="576,-152.5 576,-171.5 654,-171.5 654,-152.5 576,-152.5"/>
<text text-anchor="middle" x="615" y="-159.5" font-family="Helvetica,sans-Serif" font-size="10.00" fill="#000000">JS_FreeValue</text>
</a>
</g>
</g>
<!-- Node498725&#45;&gt;Node498750 -->
<g id="edge18" class="edge">
<title>Node498725&#45;&gt;Node498750</title>
<path fill="none" stroke="#191970" d="M209.854,-247.3312C226.5499,-234.8258 257.7233,-213.4164 288,-203 382.6226,-170.4461 500.5784,-163.2364 565.8226,-161.9356"/>
<polygon fill="#191970" stroke="#191970" points="565.8873,-165.4352 575.8297,-161.7746 565.7746,-158.4361 565.8873,-165.4352"/>
</g>
<!-- Node498779 -->
<g id="node18" class="node">
<title>Node498779</title>
<g id="a_node18"><a xlink:href="quickjs_8h.html#ad80a83d73e9b7d872b88fbf2943aebe9" target="_top" xlink:title="JS_IsException">
<polygon fill="none" stroke="#000000" points="572,-114.5 572,-133.5 658,-133.5 658,-114.5 572,-114.5"/>
<text text-anchor="middle" x="615" y="-121.5" font-family="Helvetica,sans-Serif" font-size="10.00" fill="#000000">JS_IsException</text>
</a>
</g>
</g>
<!-- Node498725&#45;&gt;Node498779 -->
<g id="edge20" class="edge">
<title>Node498725&#45;&gt;Node498779</title>
<path fill="none" stroke="#191970" d="M200.372,-247.2573C208.7719,-220.7069 236.0429,-146.9998 288,-116 380.1187,-61.0381 514.3298,-91.5412 578.3618,-111.3094"/>
<polygon fill="#191970" stroke="#191970" points="577.4285,-114.6852 588.0188,-114.3751 579.5466,-108.0133 577.4285,-114.6852"/>
</g>
<!-- Node498780 -->
<g id="node19" class="node">
<title>Node498780</title>
<g id="a_node19"><a xlink:href="quickjs_8c.html#a98d62298f0edd475682572d2d1c2fbc2" target="_top" xlink:title="JS_NewBigInt2">
<polygon fill="none" stroke="#000000" points="300,-570.5 300,-589.5 385,-589.5 385,-570.5 300,-570.5"/>
<text text-anchor="middle" x="342.5" y="-577.5" font-family="Helvetica,sans-Serif" font-size="10.00" fill="#000000">JS_NewBigInt2</text>
</a>
</g>
</g>
<!-- Node498725&#45;&gt;Node498780 -->
<g id="edge21" class="edge">
<title>Node498725&#45;&gt;Node498780</title>
<path fill="none" stroke="#191970" d="M240.4432,-266.5508C244.8408,-269.0136 248.8434,-272.1093 252,-276 331.0508,-373.4341 212.8769,-455.5065 288,-556 290.7198,-559.6383 294.1114,-562.7347 297.8641,-565.368"/>
<polygon fill="#191970" stroke="#191970" points="296.1337,-568.4106 306.5355,-570.4237 299.6595,-562.3633 296.1337,-568.4106"/>
</g>
<!-- Node498786 -->
<g id="node24" class="node">
<title>Node498786</title>
<g id="a_node24"><a xlink:href="quickjs_8h.html#a2050bc428da1c65ac7eb87c3fa3b0392" target="_top" xlink:title="JS_NewInt32">
<polygon fill="none" stroke="#000000" points="446.5,-532.5 446.5,-551.5 522.5,-551.5 522.5,-532.5 446.5,-532.5"/>
<text text-anchor="middle" x="484.5" y="-539.5" font-family="Helvetica,sans-Serif" font-size="10.00" fill="#000000">JS_NewInt32</text>
</a>
</g>
</g>
<!-- Node498725&#45;&gt;Node498786 -->
<g id="edge29" class="edge">
<title>Node498725&#45;&gt;Node498786</title>
<path fill="none" stroke="#191970" d="M240.3524,-266.6254C244.7656,-269.0754 248.7967,-272.1477 252,-276 319.5577,-357.2441 213.4519,-436.1186 288,-511 326.2035,-549.3743 391.3176,-552.3719 436.0497,-548.9317"/>
<polygon fill="#191970" stroke="#191970" points="436.4644,-552.4086 446.1095,-548.0242 435.8354,-545.4369 436.4644,-552.4086"/>
</g>
<!-- Node498787 -->
<g id="node25" class="node">
<title>Node498787</title>
<g id="a_node25"><a xlink:href="quickjs_8c.html#a47d17af9d9e71cca3eca989aa13656ce" target="_top" xlink:title="JS_StringToBigIntErr">
<polygon fill="none" stroke="#000000" points="288,-228.5 288,-247.5 397,-247.5 397,-228.5 288,-228.5"/>
<text text-anchor="middle" x="342.5" y="-235.5" font-family="Helvetica,sans-Serif" font-size="10.00" fill="#000000">JS_StringToBigIntErr</text>
</a>
</g>
</g>
<!-- Node498725&#45;&gt;Node498787 -->
<g id="edge30" class="edge">
<title>Node498725&#45;&gt;Node498787</title>
<path fill="none" stroke="#191970" d="M252.3183,-249.8169C260.5286,-248.7411 269.0611,-247.623 277.4586,-246.5227"/>
<polygon fill="#191970" stroke="#191970" points="278.1437,-249.9629 287.6042,-245.1932 277.2342,-243.0222 278.1437,-249.9629"/>
</g>
<!-- Node498993 -->
<g id="node27" class="node">
<title>Node498993</title>
<g id="a_node27"><a xlink:href="quickjs_8c.html#abe5ce04dc1f7ab5e0a0bfa0b91a48624" target="_top" xlink:title="JS_ToBigFloat">
<polygon fill="none" stroke="#ff0000" points="302,-342.5 302,-361.5 383,-361.5 383,-342.5 302,-342.5"/>
<text text-anchor="middle" x="342.5" y="-349.5" font-family="Helvetica,sans-Serif" font-size="10.00" fill="#000000">JS_ToBigFloat</text>
</a>
</g>
</g>
<!-- Node498725&#45;&gt;Node498993 -->
<g id="edge37" class="edge">
<title>Node498725&#45;&gt;Node498993</title>
<path fill="none" stroke="#191970" d="M231.1971,-266.5979C238.2808,-269.2013 245.554,-272.335 252,-276 280.5094,-292.2096 308.6994,-317.8066 325.8541,-334.7486"/>
<polygon fill="#191970" stroke="#191970" points="323.8129,-337.6604 333.3421,-342.2913 328.7807,-332.7286 323.8129,-337.6604"/>
</g>
<!-- Node498837 -->
<g id="node28" class="node">
<title>Node498837</title>
<g id="a_node28"><a xlink:href="quickjs_8c.html#abac33881bb91f8c31106f616d81b67e8" target="_top" xlink:title="JS_ToPrimitiveFree">
<polygon fill="none" stroke="#ff0000" points="433,-114.5 433,-133.5 536,-133.5 536,-114.5 433,-114.5"/>
<text text-anchor="middle" x="484.5" y="-121.5" font-family="Helvetica,sans-Serif" font-size="10.00" fill="#000000">JS_ToPrimitiveFree</text>
</a>
</g>
</g>
<!-- Node498725&#45;&gt;Node498837 -->
<g id="edge42" class="edge">
<title>Node498725&#45;&gt;Node498837</title>
<path fill="none" stroke="#191970" d="M202.2281,-247.3485C213.564,-225.3741 244.607,-171.6888 288,-148 329.1574,-125.5316 382.2593,-120.1956 422.8833,-120.1123"/>
<polygon fill="#191970" stroke="#191970" points="422.8985,-123.6124 432.9277,-120.197 422.9576,-116.6127 422.8985,-123.6124"/>
</g>
<!-- Node498727 -->
<g id="node5" class="node">
<title>Node498727</title>
<g id="a_node5"><a xlink:href="libbf_8h.html#a524c9e60866c08c75061626a4b5e2f29" target="_top" xlink:title="bf_realloc">
<polygon fill="none" stroke="#000000" points="585.5,-494.5 585.5,-513.5 644.5,-513.5 644.5,-494.5 585.5,-494.5"/>
<text text-anchor="middle" x="615" y="-501.5" font-family="Helvetica,sans-Serif" font-size="10.00" fill="#000000">bf_realloc</text>
</a>
</g>
</g>
<!-- Node498726&#45;&gt;Node498727 -->
<g id="edge4" class="edge">
<title>Node498726&#45;&gt;Node498727</title>
<path fill="none" stroke="#191970" d="M512.8166,-504C531.0736,-504 555.0826,-504 575.2405,-504"/>
<polygon fill="#191970" stroke="#191970" points="575.3799,-507.5001 585.3799,-504 575.3798,-500.5001 575.3799,-507.5001"/>
</g>
<!-- Node498731 -->
<g id="node9" class="node">
<title>Node498731</title>
<g id="a_node9"><a xlink:href="libbf_8h.html#abd4ca8358212228a53981a32a10286b5" target="_top" xlink:title="bf_round">
<polygon fill="none" stroke="#ff0000" points="457.5,-.5 457.5,-19.5 511.5,-19.5 511.5,-.5 457.5,-.5"/>
<text text-anchor="middle" x="484.5" y="-7.5" font-family="Helvetica,sans-Serif" font-size="10.00" fill="#000000">bf_round</text>
</a>
</g>
</g>
<!-- Node498730&#45;&gt;Node498731 -->
<g id="edge8" class="edge">
<title>Node498730&#45;&gt;Node498731</title>
<path fill="none" stroke="#191970" d="M364.6875,-10C386.6258,-10 420.6152,-10 446.7961,-10"/>
<polygon fill="#191970" stroke="#191970" points="447.121,-13.5001 457.121,-10 447.1209,-6.5001 447.121,-13.5001"/>
</g>
<!-- Node498739 -->
<g id="node11" class="node">
<title>Node498739</title>
<g id="a_node11"><a xlink:href="libbf_8h.html#ab51c43b22c1a81c789ee0e3d53c0e585" target="_top" xlink:title="bf_resize">
<polygon fill="none" stroke="#000000" points="920,-342.5 920,-361.5 976,-361.5 976,-342.5 920,-342.5"/>
<text text-anchor="middle" x="948" y="-349.5" font-family="Helvetica,sans-Serif" font-size="10.00" fill="#000000">bf_resize</text>
</a>
</g>
</g>
<!-- Node498744&#45;&gt;Node498739 -->
<g id="edge10" class="edge">
<title>Node498744&#45;&gt;Node498739</title>
<path fill="none" stroke="#191970" d="M760.8713,-388.1899C789.5986,-385.6124 840.8895,-380.1535 884,-371 892.5564,-369.1833 901.63,-366.7864 910.1722,-364.3094"/>
<polygon fill="#191970" stroke="#191970" points="911.3197,-367.6194 919.8932,-361.3948 909.3092,-360.9143 911.3197,-367.6194"/>
</g>
<!-- Node498742 -->
<g id="node12" class="node">
<title>Node498742</title>
<g id="a_node12"><a xlink:href="libbf_8h.html#aa6282c789c16c8cf2fe6a8ebd671c6fc" target="_top" xlink:title="bf_set_nan">
<polygon fill="none" stroke="#000000" points="819,-342.5 819,-361.5 884,-361.5 884,-342.5 819,-342.5"/>
<text text-anchor="middle" x="851.5" y="-349.5" font-family="Helvetica,sans-Serif" font-size="10.00" fill="#000000">bf_set_nan</text>
</a>
</g>
</g>
<!-- Node498744&#45;&gt;Node498742 -->
<g id="edge11" class="edge">
<title>Node498744&#45;&gt;Node498742</title>
<path fill="none" stroke="#191970" d="M760.5558,-382.583C775.4819,-377.5636 795.5943,-370.8002 813.1099,-364.9099"/>
<polygon fill="#191970" stroke="#191970" points="814.7012,-368.0675 823.064,-361.5626 812.4699,-361.4326 814.7012,-368.0675"/>
</g>
<!-- Node498742&#45;&gt;Node498739 -->
<g id="edge12" class="edge">
<title>Node498742&#45;&gt;Node498739</title>
<path fill="none" stroke="#191970" d="M884.1705,-352C892.4116,-352 901.3319,-352 909.8175,-352"/>
<polygon fill="#191970" stroke="#191970" points="909.8775,-355.5001 919.8775,-352 909.8774,-348.5001 909.8775,-355.5001"/>
</g>
<!-- Node498746 -->
<g id="node14" class="node">
<title>Node498746</title>
<g id="a_node14"><a xlink:href="libbf_8h.html#a2378f025beace5741c19bf995c2971d3" target="_top" xlink:title="bf_set_ui">
<polygon fill="none" stroke="#ff0000" points="710.5,-304.5 710.5,-323.5 766.5,-323.5 766.5,-304.5 710.5,-304.5"/>
<text text-anchor="middle" x="738.5" y="-311.5" font-family="Helvetica,sans-Serif" font-size="10.00" fill="#000000">bf_set_ui</text>
</a>
</g>
</g>
<!-- Node498745&#45;&gt;Node498746 -->
<g id="edge14" class="edge">
<title>Node498745&#45;&gt;Node498746</title>
<path fill="none" stroke="#191970" d="M643.0241,-299.3114C659.9574,-301.9165 681.7718,-305.2726 700.2735,-308.119"/>
<polygon fill="#191970" stroke="#191970" points="699.7434,-311.5785 710.1593,-309.6399 700.8079,-304.6599 699.7434,-311.5785"/>
</g>
<!-- Node498746&#45;&gt;Node498739 -->
<g id="edge15" class="edge">
<title>Node498746&#45;&gt;Node498739</title>
<path fill="none" stroke="#191970" d="M766.6168,-316.3369C796.088,-319.0968 843.6306,-324.4286 884,-333 892.5564,-334.8167 901.63,-337.2136 910.1722,-339.6906"/>
<polygon fill="#191970" stroke="#191970" points="909.3092,-343.0857 919.8932,-342.6052 911.3197,-336.3806 909.3092,-343.0857"/>
</g>
<!-- Node498746&#45;&gt;Node498742 -->
<g id="edge16" class="edge">
<title>Node498746&#45;&gt;Node498742</title>
<path fill="none" stroke="#191970" d="M766.7232,-323.491C780.88,-328.2517 798.2281,-334.0855 813.535,-339.233"/>
<polygon fill="#191970" stroke="#191970" points="812.6509,-342.6283 823.245,-342.4983 814.8822,-335.9934 812.6509,-342.6283"/>
</g>
<!-- Node498751 -->
<g id="node17" class="node">
<title>Node498751</title>
<g id="a_node17"><a xlink:href="quickjs_8c.html#aa059f309c30fd5166d16c82a97973146" target="_top" xlink:title="__JS_FreeValue">
<polygon fill="none" stroke="#ff0000" points="694,-152.5 694,-171.5 783,-171.5 783,-152.5 694,-152.5"/>
<text text-anchor="middle" x="738.5" y="-159.5" font-family="Helvetica,sans-Serif" font-size="10.00" fill="#000000">__JS_FreeValue</text>
</a>
</g>
</g>
<!-- Node498750&#45;&gt;Node498751 -->
<g id="edge19" class="edge">
<title>Node498750&#45;&gt;Node498751</title>
<path fill="none" stroke="#191970" d="M654.0762,-162C663.412,-162 673.5507,-162 683.4566,-162"/>
<polygon fill="#191970" stroke="#191970" points="683.6517,-165.5001 693.6517,-162 683.6517,-158.5001 683.6517,-165.5001"/>
</g>
<!-- Node498780&#45;&gt;Node498726 -->
<g id="edge22" class="edge">
<title>Node498780&#45;&gt;Node498726</title>
<path fill="none" stroke="#191970" d="M355.7835,-570.387C372.9849,-558.2363 404.1837,-537.1965 433,-523 437.3653,-520.8494 442.0381,-518.8008 446.7221,-516.8991"/>
<polygon fill="#191970" stroke="#191970" points="448.19,-520.0842 456.2573,-513.2163 445.6679,-513.5544 448.19,-520.0842"/>
</g>
<!-- Node498781 -->
<g id="node20" class="node">
<title>Node498781</title>
<g id="a_node20"><a xlink:href="libbf_8h.html#a3718b08eb6f31658749f63f728324879" target="_top" xlink:title="bf_get_int32">
<polygon fill="none" stroke="#ff0000" points="449.5,-646.5 449.5,-665.5 519.5,-665.5 519.5,-646.5 449.5,-646.5"/>
<text text-anchor="middle" x="484.5" y="-653.5" font-family="Helvetica,sans-Serif" font-size="10.00" fill="#000000">bf_get_int32</text>
</a>
</g>
</g>
<!-- Node498780&#45;&gt;Node498781 -->
<g id="edge23" class="edge">
<title>Node498780&#45;&gt;Node498781</title>
<path fill="none" stroke="#191970" d="M355.7835,-589.613C372.9849,-601.7637 404.1837,-622.8035 433,-637 437.1021,-639.0209 441.4758,-640.9518 445.8752,-642.7554"/>
<polygon fill="#191970" stroke="#191970" points="444.8632,-646.1173 455.4516,-646.4858 447.4041,-639.5947 444.8632,-646.1173"/>
</g>
<!-- Node498783 -->
<g id="node21" class="node">
<title>Node498783</title>
<g id="a_node21"><a xlink:href="libbf_8h.html#ad5a3e4de8a6966e781b6930443c44211" target="_top" xlink:title="bf_is_zero">
<polygon fill="none" stroke="#000000" points="453.5,-608.5 453.5,-627.5 515.5,-627.5 515.5,-608.5 453.5,-608.5"/>
<text text-anchor="middle" x="484.5" y="-615.5" font-family="Helvetica,sans-Serif" font-size="10.00" fill="#000000">bf_is_zero</text>
</a>
</g>
</g>
<!-- Node498780&#45;&gt;Node498783 -->
<g id="edge24" class="edge">
<title>Node498780&#45;&gt;Node498783</title>
<path fill="none" stroke="#191970" d="M378.3326,-589.589C398.1025,-594.8796 422.7393,-601.4725 443.3018,-606.9751"/>
<polygon fill="#191970" stroke="#191970" points="442.4648,-610.3742 453.0297,-609.5784 444.2744,-603.6122 442.4648,-610.3742"/>
</g>
<!-- Node498784 -->
<g id="node22" class="node">
<title>Node498784</title>
<g id="a_node22"><a xlink:href="libbf_8h.html#a13499fa43a05ea8a91c250c98422ae78" target="_top" xlink:title="bf_memcpy">
<polygon fill="none" stroke="#000000" points="450.5,-684.5 450.5,-703.5 518.5,-703.5 518.5,-684.5 450.5,-684.5"/>
<text text-anchor="middle" x="484.5" y="-691.5" font-family="Helvetica,sans-Serif" font-size="10.00" fill="#000000">bf_memcpy</text>
</a>
</g>
</g>
<!-- Node498780&#45;&gt;Node498784 -->
<g id="edge25" class="edge">
<title>Node498780&#45;&gt;Node498784</title>
<path fill="none" stroke="#191970" d="M349.3558,-589.746C363.1413,-608.6852 396.0732,-650.725 433,-675 435.9154,-676.9165 439.0501,-678.6734 442.2819,-680.2772"/>
<polygon fill="#191970" stroke="#191970" points="440.9855,-683.5312 451.5449,-684.3969 443.8301,-677.1352 440.9855,-683.5312"/>
</g>
<!-- Node498785 -->
<g id="node23" class="node">
<title>Node498785</title>
<g id="a_node23"><a xlink:href="quickjs_8c.html#a6f5d3baf4bf175b36fb9369470d93735" target="_top" xlink:title="js_new_bf">
<polygon fill="none" stroke="#000000" points="454,-570.5 454,-589.5 515,-589.5 515,-570.5 454,-570.5"/>
<text text-anchor="middle" x="484.5" y="-577.5" font-family="Helvetica,sans-Serif" font-size="10.00" fill="#000000">js_new_bf</text>
</a>
</g>
</g>
<!-- Node498780&#45;&gt;Node498785 -->
<g id="edge26" class="edge">
<title>Node498780&#45;&gt;Node498785</title>
<path fill="none" stroke="#191970" d="M385.1047,-580C403.6293,-580 425.2415,-580 443.5729,-580"/>
<polygon fill="#191970" stroke="#191970" points="443.6581,-583.5001 453.658,-580 443.658,-576.5001 443.6581,-583.5001"/>
</g>
<!-- Node498780&#45;&gt;Node498786 -->
<g id="edge28" class="edge">
<title>Node498780&#45;&gt;Node498786</title>
<path fill="none" stroke="#191970" d="M378.3326,-570.411C396.6634,-565.5056 419.1784,-559.4804 438.7501,-554.2429"/>
<polygon fill="#191970" stroke="#191970" points="439.9236,-557.5521 448.6789,-551.5859 438.114,-550.7901 439.9236,-557.5521"/>
</g>
<!-- Node498785&#45;&gt;Node498728 -->
<g id="edge27" class="edge">
<title>Node498785&#45;&gt;Node498728</title>
<path fill="none" stroke="#191970" d="M515.0054,-573.112C522.5182,-570.3064 530.0934,-566.4033 536,-561 563.5773,-535.7724 554.7862,-518.1756 572,-485 582.3095,-465.1308 595.0315,-442.8985 603.9532,-427.6391"/>
<polygon fill="#191970" stroke="#191970" points="607.1502,-429.1073 609.2038,-418.7134 601.1167,-425.5581 607.1502,-429.1073"/>
</g>
<!-- Node498788 -->
<g id="node26" class="node">
<title>Node498788</title>
<g id="a_node26"><a xlink:href="quickjs_8c.html#a9be6ee94017ef3fed9039b7d1e6b994c" target="_top" xlink:title="JS_StringToBigInt">
<polygon fill="none" stroke="#ff0000" points="436.5,-228.5 436.5,-247.5 532.5,-247.5 532.5,-228.5 436.5,-228.5"/>
<text text-anchor="middle" x="484.5" y="-235.5" font-family="Helvetica,sans-Serif" font-size="10.00" fill="#000000">JS_StringToBigInt</text>
</a>
</g>
</g>
<!-- Node498787&#45;&gt;Node498788 -->
<g id="edge31" class="edge">
<title>Node498787&#45;&gt;Node498788</title>
<path fill="none" stroke="#191970" d="M397.4009,-238C406.8004,-238 416.5972,-238 426.0844,-238"/>
<polygon fill="#191970" stroke="#191970" points="426.2241,-241.5001 436.224,-238 426.224,-234.5001 426.2241,-241.5001"/>
</g>
<!-- Node498788&#45;&gt;Node498728 -->
<g id="edge32" class="edge">
<title>Node498788&#45;&gt;Node498728</title>
<path fill="none" stroke="#191970" d="M491.8902,-247.6837C513.0651,-275.4301 574.1861,-355.5197 601.5156,-391.3308"/>
<polygon fill="#191970" stroke="#191970" points="598.8418,-393.5964 607.6909,-399.4226 604.4065,-389.3497 598.8418,-393.5964"/>
</g>
<!-- Node498788&#45;&gt;Node498745 -->
<g id="edge33" class="edge">
<title>Node498788&#45;&gt;Node498745</title>
<path fill="none" stroke="#191970" d="M506.3428,-247.5405C527.5152,-256.7883 559.847,-270.9102 583.7414,-281.3468"/>
<polygon fill="#191970" stroke="#191970" points="582.521,-284.633 593.086,-285.4284 585.3229,-278.2182 582.521,-284.633"/>
</g>
<!-- Node498788&#45;&gt;Node498749 -->
<g id="edge34" class="edge">
<title>Node498788&#45;&gt;Node498749</title>
<path fill="none" stroke="#191970" d="M532.7226,-230.9791C542.8512,-229.5044 553.5684,-227.9441 563.8015,-226.4542"/>
<polygon fill="#191970" stroke="#191970" points="564.4422,-229.8979 573.8335,-224.9936 563.4336,-222.9709 564.4422,-229.8979"/>
</g>
<!-- Node498788&#45;&gt;Node498750 -->
<g id="edge35" class="edge">
<title>Node498788&#45;&gt;Node498750</title>
<path fill="none" stroke="#191970" d="M501.0279,-228.3745C523.3846,-215.3546 563.4708,-192.0093 589.6494,-176.7636"/>
<polygon fill="#191970" stroke="#191970" points="591.7263,-179.6044 598.6063,-171.5473 588.2035,-173.5554 591.7263,-179.6044"/>
</g>
<!-- Node498788&#45;&gt;Node498779 -->
<g id="edge36" class="edge">
<title>Node498788&#45;&gt;Node498779</title>
<path fill="none" stroke="#191970" d="M491.1867,-228.4379C504.6172,-209.821 536.628,-168.3201 572,-143 574.3643,-141.3076 576.9032,-139.7183 579.5225,-138.2362"/>
<polygon fill="#191970" stroke="#191970" points="581.2756,-141.2712 588.5998,-133.6158 578.1002,-135.0328 581.2756,-141.2712"/>
</g>
<!-- Node498993&#45;&gt;Node498726 -->
<g id="edge38" class="edge">
<title>Node498993&#45;&gt;Node498726</title>
<path fill="none" stroke="#191970" d="M351.3827,-361.5083C374.7921,-386.5662 438.4289,-454.6845 468.4349,-486.8035"/>
<polygon fill="#191970" stroke="#191970" points="466.2364,-489.5773 475.6206,-494.4953 471.3516,-484.7986 466.2364,-489.5773"/>
</g>
<!-- Node498993&#45;&gt;Node498728 -->
<g id="edge39" class="edge">
<title>Node498993&#45;&gt;Node498728</title>
<path fill="none" stroke="#191970" d="M383.0018,-360.4719C437.6762,-371.9084 533.9442,-392.0452 583.5268,-402.4166"/>
<polygon fill="#191970" stroke="#191970" points="582.8621,-405.8532 593.3669,-404.4749 584.2953,-399.0015 582.8621,-405.8532"/>
</g>
<!-- Node498993&#45;&gt;Node498742 -->
<g id="edge40" class="edge">
<title>Node498993&#45;&gt;Node498742</title>
<path fill="none" stroke="#191970" d="M383.2932,-352C477.9977,-352 712.0371,-352 808.688,-352"/>
<polygon fill="#191970" stroke="#191970" points="808.9637,-355.5001 818.9637,-352 808.9637,-348.5001 808.9637,-355.5001"/>
</g>
<!-- Node498993&#45;&gt;Node498745 -->
<g id="edge41" class="edge">
<title>Node498993&#45;&gt;Node498745</title>
<path fill="none" stroke="#191970" d="M383.0018,-343.5281C435.2939,-332.5899 525.6338,-313.6931 576.7869,-302.9932"/>
<polygon fill="#191970" stroke="#191970" points="577.7044,-306.3771 586.776,-300.9037 576.2712,-299.5254 577.7044,-306.3771"/>
</g>
<!-- Node498837&#45;&gt;Node498750 -->
<g id="edge43" class="edge">
<title>Node498837&#45;&gt;Node498750</title>
<path fill="none" stroke="#191970" d="M517.4307,-133.589C534.1224,-138.4494 554.5892,-144.4091 572.4595,-149.6127"/>
<polygon fill="#191970" stroke="#191970" points="571.5001,-152.9787 582.0799,-152.4141 573.4572,-146.2578 571.5001,-152.9787"/>
</g>
<!-- Node498837&#45;&gt;Node498779 -->
<g id="edge44" class="edge">
<title>Node498837&#45;&gt;Node498779</title>
<path fill="none" stroke="#191970" d="M536.0771,-124C544.485,-124 553.21,-124 561.6593,-124"/>
<polygon fill="#191970" stroke="#191970" points="561.789,-127.5001 571.7889,-124 561.7889,-120.5001 561.789,-127.5001"/>
</g>
</g>
</svg>
        <g id="navigator" transform="translate(0 0)" fill="#404254">
                <rect fill="#f2f5e9" fill-opacity="0.5" stroke="#606060" stroke-width=".5" x="0" y="0" width="60" height="60"/>
                <use id="zoomplus" xlink:href="#zoomPlus" x="17" y="9" onmousedown="handleZoom(evt,'in')"/>
                <use id="zoomminus" xlink:href="#zoomMin" x="42" y="9" onmousedown="handleZoom(evt,'out')"/>
                <use id="reset" xlink:href="#resetDef" x="30" y="36" onmousedown="handleReset()"/>
                <g id="arrowUp" xlink:href="#dirArrow" transform="translate(30 24)" onmousedown="handlePan(0,-1)">
                  <use xlink:href="#rim" fill="#404040">
                        <set attributeName="fill" to="#808080" begin="arrowUp.mouseover" end="arrowUp.mouseout"/>
                  </use>
                  <path fill="none" stroke="white" stroke-width="1.5" d="M0,-3.0v7 M-2.5,-0.5L0,-3.0L2.5,-0.5"/>
                </g>
                <g id="arrowRight" xlink:href="#dirArrow" transform="rotate(90) translate(36 -43)" onmousedown="handlePan(1,0)">
                  <use xlink:href="#rim" fill="#404040">
                        <set attributeName="fill" to="#808080" begin="arrowRight.mouseover" end="arrowRight.mouseout"/>
                  </use>
                  <path fill="none" stroke="white" stroke-width="1.5" d="M0,-3.0v7 M-2.5,-0.5L0,-3.0L2.5,-0.5"/>
                </g>
                <g id="arrowDown" xlink:href="#dirArrow" transform="rotate(180) translate(-30 -48)" onmousedown="handlePan(0,1)">
                  <use xlink:href="#rim" fill="#404040">
                        <set attributeName="fill" to="#808080" begin="arrowDown.mouseover" end="arrowDown.mouseout"/>
                  </use>
                  <path fill="none" stroke="white" stroke-width="1.5" d="M0,-3.0v7 M-2.5,-0.5L0,-3.0L2.5,-0.5"/>
                </g>
                <g id="arrowLeft" xlink:href="#dirArrow" transform="rotate(270) translate(-36 17)" onmousedown="handlePan(-1,0)">
                  <use xlink:href="#rim" fill="#404040">
                        <set attributeName="fill" to="#808080" begin="arrowLeft.mouseover" end="arrowLeft.mouseout"/>
                  </use>
                  <path fill="none" stroke="white" stroke-width="1.5" d="M0,-3.0v7 M-2.5,-0.5L0,-3.0L2.5,-0.5"/>
                </g>
        </g>
        <svg viewBox="0 0 15 15" width="100%" height="30px" preserveAspectRatio="xMaxYMin meet">
         <g id="arrow_out" transform="scale(0.3 0.3)">
          <a xlink:href="quickjs_8c_a2470994049c07bd70581e5cba9d6c1ac_cgraph_org.svg" target="_base">
           <rect id="button" ry="5" rx="5" y="6" x="6" height="38" width="38"
                fill="#f2f5e9" fill-opacity="0.5" stroke="#606060" stroke-width="1.0"/>
           <path id="arrow"
             d="M 11.500037,31.436501 C 11.940474,20.09759 22.043105,11.32322 32.158766,21.979434 L 37.068811,17.246167 C 37.068811,17.246167 37.088388,32 37.088388,32 L 22.160133,31.978069 C 22.160133,31.978069 26.997745,27.140456 26.997745,27.140456 C 18.528582,18.264221 13.291696,25.230495 11.500037,31.436501 z"
             style="fill:#404040;"/>
          </a>
         </g>
        </svg>
</svg>
