<?xml version="1.0" encoding="UTF-8" standalone="no"?>
<!DOCTYPE svg PUBLIC "-//W3C//DTD SVG 1.1//EN"
 "http://www.w3.org/Graphics/SVG/1.1/DTD/svg11.dtd">
<!-- Generated by graphviz version 2.40.1 (20161225.0304)
 -->
<!-- Title: js_typed_array_constructor Pages: 1 -->
<svg width="1142pt" height="966pt"
 viewBox="0.00 0.00 1142.00 966.25" xmlns="http://www.w3.org/2000/svg" xmlns:xlink="http://www.w3.org/1999/xlink">
<g id="graph0" class="graph" transform="scale(1 1) rotate(0) translate(4 962.2501)">
<title>js_typed_array_constructor</title>
<!-- Node516869 -->
<g id="node1" class="node">
<title>Node516869</title>
<polygon fill="#bfbfbf" stroke="#000000" points="0,-638.7777 0,-657.7777 134,-657.7777 134,-638.7777 0,-638.7777"/>
<text text-anchor="middle" x="67" y="-645.7777" font-family="Helvetica,sans-Serif" font-size="10.00" fill="#000000">js_typed_array_constructor</text>
</g>
<!-- Node516870 -->
<g id="node2" class="node">
<title>Node516870</title>
<g id="a_node2"><a xlink:href="quickjs_8c.html#aca93646daffcd067d273c79efa6dda37" target="_top" xlink:title="js_array_buffer_constructor1">
<polygon fill="none" stroke="#000000" points="361,-410.7777 361,-429.7777 501,-429.7777 501,-410.7777 361,-410.7777"/>
<text text-anchor="middle" x="431" y="-417.7777" font-family="Helvetica,sans-Serif" font-size="10.00" fill="#000000">js_array_buffer_constructor1</text>
</a>
</g>
</g>
<!-- Node516869&#45;&gt;Node516870 -->
<g id="edge1" class="edge">
<title>Node516869&#45;&gt;Node516870</title>
<path fill="none" stroke="#191970" d="M76.0959,-638.6994C93.4015,-620.7564 132.678,-581.3601 170,-553.2777 248.0824,-494.5258 267.9913,-477.3181 358,-439.2777 363.7788,-436.8354 369.9512,-434.6418 376.1675,-432.6893"/>
<polygon fill="#191970" stroke="#191970" points="377.3168,-435.9996 385.9218,-429.8186 375.3405,-429.2844 377.3168,-435.9996"/>
</g>
<!-- Node516874 -->
<g id="node5" class="node">
<title>Node516874</title>
<g id="a_node5"><a xlink:href="quickjs_8c.html#a93dbf502b17d1328c524401335f60499" target="_top" xlink:title="js_create_from_ctor">
<polygon fill="none" stroke="#ff0000" points="900.5,-638.7777 900.5,-657.7777 1003.5,-657.7777 1003.5,-638.7777 900.5,-638.7777"/>
<text text-anchor="middle" x="952" y="-645.7777" font-family="Helvetica,sans-Serif" font-size="10.00" fill="#000000">js_create_from_ctor</text>
</a>
</g>
</g>
<!-- Node516869&#45;&gt;Node516874 -->
<g id="edge14" class="edge">
<title>Node516869&#45;&gt;Node516874</title>
<path fill="none" stroke="#191970" d="M134.0882,-648.2777C207.1238,-648.2777 327.3611,-648.2777 431,-648.2777 431,-648.2777 431,-648.2777 610,-648.2777 707.9856,-648.2777 821.7625,-648.2777 890.2521,-648.2777"/>
<polygon fill="#191970" stroke="#191970" points="890.4335,-651.7778 900.4335,-648.2777 890.4335,-644.7778 890.4335,-651.7778"/>
</g>
<!-- Node516875 -->
<g id="node6" class="node">
<title>Node516875</title>
<g id="a_node6"><a xlink:href="quickjs_8h.html#a775522f2d084fc8fa0fcb33f390006b4" target="_top" xlink:title="JS_DupValue">
<polygon fill="none" stroke="#000000" points="1052.5,-828.7777 1052.5,-847.7777 1129.5,-847.7777 1129.5,-828.7777 1052.5,-828.7777"/>
<text text-anchor="middle" x="1091" y="-835.7777" font-family="Helvetica,sans-Serif" font-size="10.00" fill="#000000">JS_DupValue</text>
</a>
</g>
</g>
<!-- Node516869&#45;&gt;Node516875 -->
<g id="edge15" class="edge">
<title>Node516869&#45;&gt;Node516875</title>
<path fill="none" stroke="#191970" d="M67.6327,-657.9151C70.7021,-696.2633 87.49,-839.1849 170,-906.2777 261.3879,-980.5894 313.2122,-952.2777 431,-952.2777 431,-952.2777 431,-952.2777 786,-952.2777 897.7894,-952.2777 1018.8699,-884.251 1068.1795,-853.2961"/>
<polygon fill="#191970" stroke="#191970" points="1070.2473,-856.1287 1076.7974,-847.8012 1066.4838,-850.2264 1070.2473,-856.1287"/>
</g>
<!-- Node516876 -->
<g id="node7" class="node">
<title>Node516876</title>
<g id="a_node7"><a xlink:href="quickjs_8h.html#afaa20c47565bc704c6c85f3d77254e7d" target="_top" xlink:title="JS_FreeValue">
<polygon fill="none" stroke="#ff0000" points="1052,-638.7777 1052,-657.7777 1130,-657.7777 1130,-638.7777 1052,-638.7777"/>
<text text-anchor="middle" x="1091" y="-645.7777" font-family="Helvetica,sans-Serif" font-size="10.00" fill="#000000">JS_FreeValue</text>
</a>
</g>
</g>
<!-- Node516869&#45;&gt;Node516876 -->
<g id="edge16" class="edge">
<title>Node516869&#45;&gt;Node516876</title>
<path fill="none" stroke="#191970" d="M68.4525,-658.0059C74.1532,-692.5276 98.3228,-810.0376 170,-865.2777 263.4852,-937.3248 312.9734,-914.2777 431,-914.2777 431,-914.2777 431,-914.2777 786,-914.2777 901.0004,-914.2777 934.3148,-873.0721 1012,-788.2777 1046.2528,-750.8903 1071.6782,-696.0541 1083.553,-667.3685"/>
<polygon fill="#191970" stroke="#191970" points="1086.8111,-668.6473 1087.3061,-658.064 1080.3193,-666.0287 1086.8111,-668.6473"/>
</g>
<!-- Node516913 -->
<g id="node9" class="node">
<title>Node516913</title>
<g id="a_node9"><a xlink:href="quickjs_8h.html#ad80a83d73e9b7d872b88fbf2943aebe9" target="_top" xlink:title="JS_IsException">
<polygon fill="none" stroke="#000000" points="1048,-410.7777 1048,-429.7777 1134,-429.7777 1134,-410.7777 1048,-410.7777"/>
<text text-anchor="middle" x="1091" y="-417.7777" font-family="Helvetica,sans-Serif" font-size="10.00" fill="#000000">JS_IsException</text>
</a>
</g>
</g>
<!-- Node516869&#45;&gt;Node516913 -->
<g id="edge17" class="edge">
<title>Node516869&#45;&gt;Node516913</title>
<path fill="none" stroke="#191970" d="M67.8993,-638.7274C75.7459,-561.3768 139.4273,-40.2777 431,-40.2777 431,-40.2777 431,-40.2777 610,-40.2777 798.1911,-40.2777 884.8382,-34.5485 1012,-173.2777 1058.9105,-224.4554 1025.5824,-259.5722 1048,-325.2777 1057.3159,-352.5825 1071.6962,-382.7057 1081.2258,-401.5578"/>
<polygon fill="#191970" stroke="#191970" points="1078.1587,-403.2472 1085.8363,-410.5483 1084.3874,-400.053 1078.1587,-403.2472"/>
</g>
<!-- Node517092 -->
<g id="node11" class="node">
<title>Node517092</title>
<g id="a_node11"><a xlink:href="quickjs_8h.html#a4e407128a9605afb77523e49e9a627fd" target="_top" xlink:title="JS_IsUndefined">
<polygon fill="none" stroke="#000000" points="1048,-49.7777 1048,-68.7777 1134,-68.7777 1134,-49.7777 1048,-49.7777"/>
<text text-anchor="middle" x="1091" y="-56.7777" font-family="Helvetica,sans-Serif" font-size="10.00" fill="#000000">JS_IsUndefined</text>
</a>
</g>
</g>
<!-- Node516869&#45;&gt;Node517092 -->
<g id="edge18" class="edge">
<title>Node516869&#45;&gt;Node517092</title>
<path fill="none" stroke="#191970" d="M67.3349,-638.5692C69.9007,-569.8506 88.5946,-157.0495 170,-69.2777 251.4394,18.5308 311.2389,-2.2777 431,-2.2777 431,-2.2777 431,-2.2777 786,-2.2777 882.2983,-2.2777 992.833,-30.0727 1050.7632,-46.8439"/>
<polygon fill="#191970" stroke="#191970" points="1050.0333,-50.2773 1060.6144,-49.7372 1052.0059,-43.561 1050.0333,-50.2773"/>
</g>
<!-- Node517126 -->
<g id="node13" class="node">
<title>Node517126</title>
<g id="a_node13"><a xlink:href="quickjs_8c.html#a033dd3ebd29c4eb9f0baff1dd0fec0b1" target="_top" xlink:title="JS_ThrowTypeErrorDetached\lArrayBuffer">
<polygon fill="none" stroke="#000000" points="358,-817.2777 358,-847.2777 504,-847.2777 504,-817.2777 358,-817.2777"/>
<text text-anchor="start" x="366" y="-835.2777" font-family="Helvetica,sans-Serif" font-size="10.00" fill="#000000">JS_ThrowTypeErrorDetached</text>
<text text-anchor="middle" x="431" y="-824.2777" font-family="Helvetica,sans-Serif" font-size="10.00" fill="#000000">ArrayBuffer</text>
</a>
</g>
</g>
<!-- Node516869&#45;&gt;Node517126 -->
<g id="edge19" class="edge">
<title>Node516869&#45;&gt;Node517126</title>
<path fill="none" stroke="#191970" d="M83.7648,-657.8876C127.9241,-683.0376 251.3837,-752.3022 358,-802.2777 366.0227,-806.0382 374.6501,-809.8131 383.0648,-813.3552"/>
<polygon fill="#191970" stroke="#191970" points="381.8536,-816.6419 392.4314,-817.2421 384.5366,-810.1765 381.8536,-816.6419"/>
</g>
<!-- Node517342 -->
<g id="node14" class="node">
<title>Node517342</title>
<g id="a_node14"><a xlink:href="quickjs_8c.html#ad52f50dfe0e0e4aeae7003b97c4c0765" target="_top" xlink:title="JS_ToIndex">
<polygon fill="none" stroke="#000000" points="211.5,-836.7777 211.5,-855.7777 280.5,-855.7777 280.5,-836.7777 211.5,-836.7777"/>
<text text-anchor="middle" x="246" y="-843.7777" font-family="Helvetica,sans-Serif" font-size="10.00" fill="#000000">JS_ToIndex</text>
</a>
</g>
</g>
<!-- Node516869&#45;&gt;Node517342 -->
<g id="edge20" class="edge">
<title>Node516869&#45;&gt;Node517342</title>
<path fill="none" stroke="#191970" d="M72.3216,-657.8492C86.1707,-682.213 125.3745,-747.7925 170,-792.2777 185.2362,-807.4659 205.1381,-821.4393 220.7538,-831.3651"/>
<polygon fill="#191970" stroke="#191970" points="219.0425,-834.4222 229.3851,-836.7201 222.7329,-828.474 219.0425,-834.4222"/>
</g>
<!-- Node517344 -->
<g id="node17" class="node">
<title>Node517344</title>
<g id="a_node17"><a xlink:href="quickjs_8c.html#acf0e1803a9586d86d752b002a89fb8ed" target="_top" xlink:title="js_typed_array_constructor_obj">
<polygon fill="none" stroke="#000000" points="170,-315.7777 170,-334.7777 322,-334.7777 322,-315.7777 170,-315.7777"/>
<text text-anchor="middle" x="246" y="-322.7777" font-family="Helvetica,sans-Serif" font-size="10.00" fill="#000000">js_typed_array_constructor_obj</text>
</a>
</g>
</g>
<!-- Node516869&#45;&gt;Node517344 -->
<g id="edge26" class="edge">
<title>Node516869&#45;&gt;Node517344</title>
<path fill="none" stroke="#191970" d="M72.3571,-638.6109C97.3188,-593.5683 202.4104,-403.9337 235.7832,-343.7136"/>
<polygon fill="#191970" stroke="#191970" points="238.8778,-345.35 240.6638,-334.9067 232.7552,-341.9569 238.8778,-345.35"/>
</g>
<!-- Node517346 -->
<g id="node24" class="node">
<title>Node517346</title>
<g id="a_node24"><a xlink:href="quickjs_8c.html#aa74340c43f57c6a6d9210a7cbb191e71" target="_top" xlink:title="typed_array_init">
<polygon fill="none" stroke="#000000" points="388,-676.7777 388,-695.7777 474,-695.7777 474,-676.7777 388,-676.7777"/>
<text text-anchor="middle" x="431" y="-683.7777" font-family="Helvetica,sans-Serif" font-size="10.00" fill="#000000">typed_array_init</text>
</a>
</g>
</g>
<!-- Node516869&#45;&gt;Node517346 -->
<g id="edge74" class="edge">
<title>Node516869&#45;&gt;Node517346</title>
<path fill="none" stroke="#191970" d="M133.9881,-657.8118C145.9686,-659.3945 158.3452,-660.9504 170,-662.2777 241.8438,-670.4595 325.0607,-677.7312 377.85,-682.0702"/>
<polygon fill="#191970" stroke="#191970" points="377.738,-685.5726 387.9897,-682.8983 378.3078,-678.5959 377.738,-685.5726"/>
</g>
<!-- Node517348 -->
<g id="node28" class="node">
<title>Node517348</title>
<g id="a_node28"><a xlink:href="quickjs_8c.html#a19e15727ea84a3735a3850b18da03330" target="_top" xlink:title="js_typed_array_constructor_ta">
<polygon fill="none" stroke="#000000" points="172,-562.7777 172,-581.7777 320,-581.7777 320,-562.7777 172,-562.7777"/>
<text text-anchor="middle" x="246" y="-569.7777" font-family="Helvetica,sans-Serif" font-size="10.00" fill="#000000">js_typed_array_constructor_ta</text>
</a>
</g>
</g>
<!-- Node516869&#45;&gt;Node517348 -->
<g id="edge56" class="edge">
<title>Node516869&#45;&gt;Node517348</title>
<path fill="none" stroke="#191970" d="M89.6705,-638.6522C121.143,-625.2896 178.2309,-601.0512 214.0223,-585.8548"/>
<polygon fill="#191970" stroke="#191970" points="215.6768,-588.9548 223.5136,-581.825 212.941,-582.5115 215.6768,-588.9548"/>
</g>
<!-- Node516871 -->
<g id="node3" class="node">
<title>Node516871</title>
<g id="a_node3"><a xlink:href="quickjs_8c.html#a26d438ccdb07d84370683eb01eda3013" target="_top" xlink:title="js_array_buffer_constructor2">
<polygon fill="none" stroke="#000000" points="540,-372.7777 540,-391.7777 680,-391.7777 680,-372.7777 540,-372.7777"/>
<text text-anchor="middle" x="610" y="-379.7777" font-family="Helvetica,sans-Serif" font-size="10.00" fill="#000000">js_array_buffer_constructor2</text>
</a>
</g>
</g>
<!-- Node516870&#45;&gt;Node516871 -->
<g id="edge2" class="edge">
<title>Node516870&#45;&gt;Node516871</title>
<path fill="none" stroke="#191970" d="M476.1693,-410.6887C500.2159,-405.5838 529.9744,-399.2664 555.3194,-393.8859"/>
<polygon fill="#191970" stroke="#191970" points="556.1004,-397.2981 565.1556,-391.7977 554.6467,-390.4507 556.1004,-397.2981"/>
</g>
<!-- Node516872 -->
<g id="node4" class="node">
<title>Node516872</title>
<g id="a_node4"><a xlink:href="quickjs_8c.html#a06f84cf8ea00e2baf1a9b94f1a319b18" target="_top" xlink:title="js_array_buffer_constructor3">
<polygon fill="none" stroke="#ff0000" points="716,-486.7777 716,-505.7777 856,-505.7777 856,-486.7777 716,-486.7777"/>
<text text-anchor="middle" x="786" y="-493.7777" font-family="Helvetica,sans-Serif" font-size="10.00" fill="#000000">js_array_buffer_constructor3</text>
</a>
</g>
</g>
<!-- Node516871&#45;&gt;Node516872 -->
<g id="edge3" class="edge">
<title>Node516871&#45;&gt;Node516872</title>
<path fill="none" stroke="#191970" d="M624.7029,-391.8012C655.1679,-411.5342 725.4165,-457.0361 762.3408,-480.953"/>
<polygon fill="#191970" stroke="#191970" points="760.6699,-484.0407 770.9658,-486.5396 764.4754,-478.1655 760.6699,-484.0407"/>
</g>
<!-- Node517341 -->
<g id="node12" class="node">
<title>Node517341</title>
<g id="a_node12"><a xlink:href="quickjs_8c.html#a4e2ed26457b779e5bd73472de8be124c" target="_top" xlink:title="js_array_buffer_free">
<polygon fill="none" stroke="#ff0000" points="734.5,-372.7777 734.5,-391.7777 837.5,-391.7777 837.5,-372.7777 734.5,-372.7777"/>
<text text-anchor="middle" x="786" y="-379.7777" font-family="Helvetica,sans-Serif" font-size="10.00" fill="#000000">js_array_buffer_free</text>
</a>
</g>
</g>
<!-- Node516871&#45;&gt;Node517341 -->
<g id="edge13" class="edge">
<title>Node516871&#45;&gt;Node517341</title>
<path fill="none" stroke="#191970" d="M680.0656,-382.2777C694.6446,-382.2777 709.9096,-382.2777 724.1665,-382.2777"/>
<polygon fill="#191970" stroke="#191970" points="724.3454,-385.7778 734.3454,-382.2777 724.3454,-378.7778 724.3454,-385.7778"/>
</g>
<!-- Node516872&#45;&gt;Node516874 -->
<g id="edge4" class="edge">
<title>Node516872&#45;&gt;Node516874</title>
<path fill="none" stroke="#191970" d="M833.0754,-505.8199C841.5121,-509.2564 849.6316,-513.928 856,-520.2777 890.6377,-554.8135 858.2401,-588.8833 892,-624.2777 895.6334,-628.087 899.9505,-631.3061 904.5787,-634.0235"/>
<polygon fill="#191970" stroke="#191970" points="903.2592,-637.2779 913.7643,-638.654 906.4103,-631.0272 903.2592,-637.2779"/>
</g>
<!-- Node516872&#45;&gt;Node516876 -->
<g id="edge11" class="edge">
<title>Node516872&#45;&gt;Node516876</title>
<path fill="none" stroke="#191970" d="M830.087,-505.8491C839.3367,-509.3079 848.5377,-513.9811 856,-520.2777 881.537,-541.8254 866.1609,-565.0931 892,-586.2777 904.0853,-596.186 990.4752,-620.9539 1045.3856,-636.0152"/>
<polygon fill="#191970" stroke="#191970" points="1044.6784,-639.4502 1055.2473,-638.7087 1046.5228,-632.6975 1044.6784,-639.4502"/>
</g>
<!-- Node516872&#45;&gt;Node516913 -->
<g id="edge12" class="edge">
<title>Node516872&#45;&gt;Node516913</title>
<path fill="none" stroke="#191970" d="M856.075,-499.9204C901.8035,-500.0171 962.0563,-495.7607 1012,-477.2777 1035.8217,-468.4618 1058.8828,-450.3716 1073.8767,-436.9233"/>
<polygon fill="#191970" stroke="#191970" points="1076.3733,-439.3816 1081.3304,-430.0179 1071.616,-434.2465 1076.3733,-439.3816"/>
</g>
<!-- Node516874&#45;&gt;Node516875 -->
<g id="edge5" class="edge">
<title>Node516874&#45;&gt;Node516875</title>
<path fill="none" stroke="#191970" d="M996.8487,-657.8117C1002.3444,-660.2761 1007.5733,-663.3767 1012,-667.2777 1058.7138,-708.4433 1079.6403,-782.9624 1087.2981,-818.4531"/>
<polygon fill="#191970" stroke="#191970" points="1083.9198,-819.4059 1089.334,-828.5129 1090.7808,-818.0174 1083.9198,-819.4059"/>
</g>
<!-- Node516874&#45;&gt;Node516876 -->
<g id="edge6" class="edge">
<title>Node516874&#45;&gt;Node516876</title>
<path fill="none" stroke="#191970" d="M1003.7585,-648.2777C1016.1807,-648.2777 1029.4134,-648.2777 1041.7196,-648.2777"/>
<polygon fill="#191970" stroke="#191970" points="1041.8009,-651.7778 1051.8008,-648.2777 1041.8008,-644.7778 1041.8009,-651.7778"/>
</g>
<!-- Node516905 -->
<g id="node8" class="node">
<title>Node516905</title>
<g id="a_node8"><a xlink:href="quickjs_8h.html#a89b7c8686c7eee70b86be722ee4730ad" target="_top" xlink:title="JS_GetProperty">
<polygon fill="none" stroke="#ff0000" points="1048,-296.7777 1048,-315.7777 1134,-315.7777 1134,-296.7777 1048,-296.7777"/>
<text text-anchor="middle" x="1091" y="-303.7777" font-family="Helvetica,sans-Serif" font-size="10.00" fill="#000000">JS_GetProperty</text>
</a>
</g>
</g>
<!-- Node516874&#45;&gt;Node516905 -->
<g id="edge7" class="edge">
<title>Node516874&#45;&gt;Node516905</title>
<path fill="none" stroke="#191970" d="M959.646,-638.6225C972.3648,-622.0958 997.864,-586.9057 1012,-553.2777 1038.9032,-489.2779 1025.5824,-466.9831 1048,-401.2777 1057.3159,-373.9729 1071.6962,-343.8496 1081.2258,-324.9976"/>
<polygon fill="#191970" stroke="#191970" points="1084.3874,-326.5024 1085.8363,-316.0071 1078.1587,-323.3082 1084.3874,-326.5024"/>
</g>
<!-- Node516874&#45;&gt;Node516913 -->
<g id="edge8" class="edge">
<title>Node516874&#45;&gt;Node516913</title>
<path fill="none" stroke="#191970" d="M958.2205,-638.6224C969.2152,-621.5141 992.7403,-584.7157 1012,-553.2777 1036.8805,-512.6647 1065.2013,-464.4941 1080.2557,-438.7271"/>
<polygon fill="#191970" stroke="#191970" points="1083.3246,-440.4123 1085.3411,-430.0111 1077.2785,-436.8846 1083.3246,-440.4123"/>
</g>
<!-- Node517199 -->
<g id="node10" class="node">
<title>Node517199</title>
<g id="a_node10"><a xlink:href="quickjs_8h.html#a3d68fe446df2d9c7d1900b16371bff5b" target="_top" xlink:title="JS_IsObject">
<polygon fill="none" stroke="#000000" points="1055.5,-524.7777 1055.5,-543.7777 1126.5,-543.7777 1126.5,-524.7777 1055.5,-524.7777"/>
<text text-anchor="middle" x="1091" y="-531.7777" font-family="Helvetica,sans-Serif" font-size="10.00" fill="#000000">JS_IsObject</text>
</a>
</g>
</g>
<!-- Node516874&#45;&gt;Node517199 -->
<g id="edge9" class="edge">
<title>Node516874&#45;&gt;Node517199</title>
<path fill="none" stroke="#191970" d="M963.8511,-638.5581C987.7527,-618.9553 1041.9506,-574.5053 1071.275,-550.455"/>
<polygon fill="#191970" stroke="#191970" points="1073.6663,-553.0204 1079.1789,-543.9727 1069.2273,-547.6079 1073.6663,-553.0204"/>
</g>
<!-- Node516874&#45;&gt;Node517092 -->
<g id="edge10" class="edge">
<title>Node516874&#45;&gt;Node517092</title>
<path fill="none" stroke="#191970" d="M960.3763,-638.5555C973.9175,-622.2064 1000.2809,-587.6162 1012,-553.2777 1066.7934,-392.7251 1009.7257,-338.5488 1048,-173.2777 1055.9926,-138.7651 1071.9309,-100.6189 1081.998,-78.3642"/>
<polygon fill="#191970" stroke="#191970" points="1085.2772,-79.6109 1086.2843,-69.064 1078.9199,-76.6808 1085.2772,-79.6109"/>
</g>
<!-- Node517343 -->
<g id="node15" class="node">
<title>Node517343</title>
<g id="a_node15"><a xlink:href="quickjs_8c.html#aee6a60a9e9f3c0d9827d5cb0e15c23b4" target="_top" xlink:title="JS_ToInt64Sat">
<polygon fill="none" stroke="#000000" points="745,-866.7777 745,-885.7777 827,-885.7777 827,-866.7777 745,-866.7777"/>
<text text-anchor="middle" x="786" y="-873.7777" font-family="Helvetica,sans-Serif" font-size="10.00" fill="#000000">JS_ToInt64Sat</text>
</a>
</g>
</g>
<!-- Node517342&#45;&gt;Node517343 -->
<g id="edge21" class="edge">
<title>Node517342&#45;&gt;Node517343</title>
<path fill="none" stroke="#191970" d="M280.7804,-849.7654C302.8775,-851.8865 332.0958,-854.5168 358,-856.2777 493.838,-865.5115 654.2216,-871.7651 734.6142,-874.5799"/>
<polygon fill="#191970" stroke="#191970" points="734.8341,-878.0896 744.9494,-874.9382 735.0767,-871.0938 734.8341,-878.0896"/>
</g>
<!-- Node517343&#45;&gt;Node516875 -->
<g id="edge22" class="edge">
<title>Node517343&#45;&gt;Node516875</title>
<path fill="none" stroke="#191970" d="M827.3461,-872.7572C872.743,-868.6893 947.7341,-861.3732 1012,-852.2777 1021.7241,-850.9014 1032.0845,-849.2213 1041.9929,-847.509"/>
<polygon fill="#191970" stroke="#191970" points="1042.8695,-850.9085 1052.1094,-845.7245 1041.6534,-844.015 1042.8695,-850.9085"/>
</g>
<!-- Node517194 -->
<g id="node16" class="node">
<title>Node517194</title>
<g id="a_node16"><a xlink:href="quickjs_8c.html#a8c94da482e7e46bf333be67ff97e58c1" target="_top" xlink:title="JS_ToInt64SatFree">
<polygon fill="none" stroke="#ff0000" points="901.5,-676.7777 901.5,-695.7777 1002.5,-695.7777 1002.5,-676.7777 901.5,-676.7777"/>
<text text-anchor="middle" x="952" y="-683.7777" font-family="Helvetica,sans-Serif" font-size="10.00" fill="#000000">JS_ToInt64SatFree</text>
</a>
</g>
</g>
<!-- Node517343&#45;&gt;Node517194 -->
<g id="edge23" class="edge">
<title>Node517343&#45;&gt;Node517194</title>
<path fill="none" stroke="#191970" d="M794.4602,-866.5943C820.8725,-836.3634 902.0818,-743.413 936.416,-704.1148"/>
<polygon fill="#191970" stroke="#191970" points="939.4141,-706.0029 943.3578,-696.1694 934.1426,-701.3972 939.4141,-706.0029"/>
</g>
<!-- Node517194&#45;&gt;Node516876 -->
<g id="edge24" class="edge">
<title>Node517194&#45;&gt;Node516876</title>
<path fill="none" stroke="#191970" d="M987.0756,-676.6887C1005.0191,-671.7832 1027.0584,-665.7581 1046.2167,-660.5206"/>
<polygon fill="#191970" stroke="#191970" points="1047.2126,-663.8768 1055.9357,-657.8636 1045.3666,-657.1246 1047.2126,-663.8768"/>
</g>
<!-- Node517194&#45;&gt;Node516913 -->
<g id="edge25" class="edge">
<title>Node517194&#45;&gt;Node516913</title>
<path fill="none" stroke="#191970" d="M999.3954,-676.6429C1004.0916,-674.1912 1008.4314,-671.1211 1012,-667.2777 1059.2379,-616.402 1025.5824,-580.9831 1048,-515.2777 1057.3159,-487.9729 1071.6962,-457.8496 1081.2258,-438.9976"/>
<polygon fill="#191970" stroke="#191970" points="1084.3874,-440.5024 1085.8363,-430.0071 1078.1587,-437.3082 1084.3874,-440.5024"/>
</g>
<!-- Node517344&#45;&gt;Node516870 -->
<g id="edge50" class="edge">
<title>Node517344&#45;&gt;Node516870</title>
<path fill="none" stroke="#191970" d="M257.3001,-334.9126C276.6622,-350.9495 317.9744,-383.1429 358,-401.2777 363.3492,-403.7013 369.0644,-405.8588 374.8532,-407.7692"/>
<polygon fill="#191970" stroke="#191970" points="374.0267,-411.1764 384.6131,-410.754 376.0739,-404.4824 374.0267,-411.1764"/>
</g>
<!-- Node517344&#45;&gt;Node516874 -->
<g id="edge27" class="edge">
<title>Node517344&#45;&gt;Node516874</title>
<path fill="none" stroke="#191970" d="M279.6033,-315.739C332.0005,-302.957 434.3686,-286.5782 504,-330.2777 533.9675,-349.0847 515.683,-375.5787 540,-401.2777 589.4077,-453.4934 622.0512,-439.7389 680,-482.2777 697.4969,-495.1217 698.5895,-502.3167 716,-515.2777 789.0629,-569.668 811.5158,-577.6304 892,-620.2777 901.1971,-625.1511 911.3943,-630.0799 920.7337,-634.4153"/>
<polygon fill="#191970" stroke="#191970" points="919.5282,-637.7127 930.0778,-638.6912 922.441,-631.3475 919.5282,-637.7127"/>
</g>
<!-- Node517344&#45;&gt;Node516875 -->
<g id="edge49" class="edge">
<title>Node517344&#45;&gt;Node516875</title>
<path fill="none" stroke="#191970" d="M249.6541,-335.1795C261.2179,-366.7223 297.6826,-467.7961 322,-553.2777 340.9959,-620.0528 307.6245,-657.5068 358,-705.2777 408.1701,-752.8538 885.9587,-813.7467 1041.9818,-832.5144"/>
<polygon fill="#191970" stroke="#191970" points="1041.8726,-836.0263 1052.2179,-833.7407 1042.7053,-829.076 1041.8726,-836.0263"/>
</g>
<!-- Node517344&#45;&gt;Node516876 -->
<g id="edge45" class="edge">
<title>Node517344&#45;&gt;Node516876</title>
<path fill="none" stroke="#191970" d="M322.304,-328.1501C388.0704,-332.1008 476.6255,-341.4181 504,-363.2777 538.6344,-390.9346 512.7473,-421.3243 540,-456.2777 657.829,-607.4011 709.3783,-647.215 892,-705.2777 942.8263,-721.4374 961.2499,-721.675 1012,-705.2777 1036.4419,-697.3805 1059.6877,-678.7918 1074.5541,-664.9769"/>
<polygon fill="#191970" stroke="#191970" points="1077.1343,-667.351 1081.9054,-657.8912 1072.2765,-662.311 1077.1343,-667.351"/>
</g>
<!-- Node517344&#45;&gt;Node516905 -->
<g id="edge29" class="edge">
<title>Node517344&#45;&gt;Node516905</title>
<path fill="none" stroke="#191970" d="M250.611,-315.4704C263.4278,-289.4336 302.2444,-218.4372 358,-187.2777 456.603,-132.1726 497.0438,-154.2777 610,-154.2777 610,-154.2777 610,-154.2777 786,-154.2777 886.7988,-154.2777 926.5625,-119.7909 1012,-173.2777 1033.661,-186.8382 1066.7759,-253.7399 1082.3437,-287.18"/>
<polygon fill="#191970" stroke="#191970" points="1079.2205,-288.7657 1086.5797,-296.3876 1085.5799,-285.84 1079.2205,-288.7657"/>
</g>
<!-- Node517344&#45;&gt;Node516913 -->
<g id="edge28" class="edge">
<title>Node517344&#45;&gt;Node516913</title>
<path fill="none" stroke="#191970" d="M267.237,-315.6458C322.4929,-291.494 475.7854,-230.2777 610,-230.2777 610,-230.2777 610,-230.2777 786,-230.2777 891.9718,-230.2777 927.2924,-242.6015 1012,-306.2777 1045.8338,-331.7111 1070.451,-375.966 1082.5567,-401.2036"/>
<polygon fill="#191970" stroke="#191970" points="1079.4616,-402.8492 1086.8392,-410.4532 1085.8138,-399.9081 1079.4616,-402.8492"/>
</g>
<!-- Node517344&#45;&gt;Node517092 -->
<g id="edge30" class="edge">
<title>Node517344&#45;&gt;Node517092</title>
<path fill="none" stroke="#191970" d="M247.5091,-315.5658C253.6001,-280.0435 279.9129,-156.5817 358,-105.2777 469.4822,-32.0327 888.3633,-47.7868 1037.7022,-55.9883"/>
<polygon fill="#191970" stroke="#191970" points="1037.8006,-59.4992 1047.9808,-56.5644 1038.1924,-52.5102 1037.8006,-59.4992"/>
</g>
<!-- Node517089 -->
<g id="node18" class="node">
<title>Node517089</title>
<g id="a_node18"><a xlink:href="quickjs_8h.html#a149f24b67e745bad93573b3b4c80db4c" target="_top" xlink:title="JS_IsNull">
<polygon fill="none" stroke="#000000" points="1061.5,-182.7777 1061.5,-201.7777 1120.5,-201.7777 1120.5,-182.7777 1061.5,-182.7777"/>
<text text-anchor="middle" x="1091" y="-189.7777" font-family="Helvetica,sans-Serif" font-size="10.00" fill="#000000">JS_IsNull</text>
</a>
</g>
</g>
<!-- Node517344&#45;&gt;Node517089 -->
<g id="edge31" class="edge">
<title>Node517344&#45;&gt;Node517089</title>
<path fill="none" stroke="#191970" d="M248.8367,-315.3626C258.3122,-284.2415 292.0566,-188.0902 358,-146.2777 453.2563,-85.8789 497.2091,-116.2777 610,-116.2777 610,-116.2777 610,-116.2777 786,-116.2777 887.0092,-116.2777 916.9075,-106.2148 1012,-140.2777 1034.4841,-148.3317 1056.9215,-164.0203 1072.1068,-176.068"/>
<polygon fill="#191970" stroke="#191970" points="1070.1999,-179.0301 1080.1552,-182.6555 1074.6336,-173.6132 1070.1999,-179.0301"/>
</g>
<!-- Node517345 -->
<g id="node19" class="node">
<title>Node517345</title>
<g id="a_node19"><a xlink:href="quickjs_8c.html#a54596af885c45bf0281d53985349e9ef" target="_top" xlink:title="js_array_from_iterator">
<polygon fill="none" stroke="#ff0000" points="730.5,-334.7777 730.5,-353.7777 841.5,-353.7777 841.5,-334.7777 730.5,-334.7777"/>
<text text-anchor="middle" x="786" y="-341.7777" font-family="Helvetica,sans-Serif" font-size="10.00" fill="#000000">js_array_from_iterator</text>
</a>
</g>
</g>
<!-- Node517344&#45;&gt;Node517345 -->
<g id="edge32" class="edge">
<title>Node517344&#45;&gt;Node517345</title>
<path fill="none" stroke="#191970" d="M270.8948,-315.7007C293.2931,-307.6283 327.3033,-296.7059 358,-292.2777 499.6262,-271.8473 668.4003,-310.9263 744.8021,-332.0304"/>
<polygon fill="#191970" stroke="#191970" points="743.9499,-335.4264 754.5236,-334.7573 745.8405,-328.6865 743.9499,-335.4264"/>
</g>
<!-- Node517191 -->
<g id="node23" class="node">
<title>Node517191</title>
<g id="a_node23"><a xlink:href="quickjs_8c.html#a5f848f76409193212a44e6221e430919" target="_top" xlink:title="js_get_length64">
<polygon fill="none" stroke="#ff0000" points="909.5,-182.7777 909.5,-201.7777 994.5,-201.7777 994.5,-182.7777 909.5,-182.7777"/>
<text text-anchor="middle" x="952" y="-189.7777" font-family="Helvetica,sans-Serif" font-size="10.00" fill="#000000">js_get_length64</text>
</a>
</g>
</g>
<!-- Node517344&#45;&gt;Node517191 -->
<g id="edge46" class="edge">
<title>Node517344&#45;&gt;Node517191</title>
<path fill="none" stroke="#191970" d="M252.1268,-315.6641C267.025,-293.2773 307.6494,-237.9287 358,-216.2777 454.3723,-174.837 772.2464,-184.0774 899.0716,-189.64"/>
<polygon fill="#191970" stroke="#191970" points="899.1587,-193.1474 909.3056,-190.0992 899.4726,-186.1544 899.1587,-193.1474"/>
</g>
<!-- Node517344&#45;&gt;Node517346 -->
<g id="edge51" class="edge">
<title>Node517344&#45;&gt;Node517346</title>
<path fill="none" stroke="#191970" d="M249.1541,-334.7812C265.3506,-383.4438 339.1424,-603.4371 358,-629.2777 370.5192,-646.4328 389.5518,-661.0587 405.0444,-671.1988"/>
<polygon fill="#191970" stroke="#191970" points="403.3538,-674.2703 413.6812,-676.636 407.0831,-668.3464 403.3538,-674.2703"/>
</g>
<!-- Node516998 -->
<g id="node26" class="node">
<title>Node516998</title>
<g id="a_node26"><a xlink:href="quickjs_8c.html#aeb97957655d979e9fe56c955da2b2d4b" target="_top" xlink:title="JS_GetPropertyUint32">
<polygon fill="none" stroke="#ff0000" points="373.5,-448.7777 373.5,-467.7777 488.5,-467.7777 488.5,-448.7777 373.5,-448.7777"/>
<text text-anchor="middle" x="431" y="-455.7777" font-family="Helvetica,sans-Serif" font-size="10.00" fill="#000000">JS_GetPropertyUint32</text>
</a>
</g>
</g>
<!-- Node517344&#45;&gt;Node516998 -->
<g id="edge54" class="edge">
<title>Node517344&#45;&gt;Node516998</title>
<path fill="none" stroke="#191970" d="M252.6032,-334.9359C268.213,-357.0013 309.727,-411.3533 358,-439.2777 361.8666,-441.5144 365.9988,-443.4923 370.2571,-445.2408"/>
<polygon fill="#191970" stroke="#191970" points="369.1332,-448.5565 379.7268,-448.7133 371.5431,-441.9844 369.1332,-448.5565"/>
</g>
<!-- Node517347 -->
<g id="node27" class="node">
<title>Node517347</title>
<g id="a_node27"><a xlink:href="quickjs_8c.html#aae909eaec829081b270012adfcd717a4" target="_top" xlink:title="JS_SetPropertyUint32">
<polygon fill="none" stroke="#ff0000" points="374,-372.7777 374,-391.7777 488,-391.7777 488,-372.7777 374,-372.7777"/>
<text text-anchor="middle" x="431" y="-379.7777" font-family="Helvetica,sans-Serif" font-size="10.00" fill="#000000">JS_SetPropertyUint32</text>
</a>
</g>
</g>
<!-- Node517344&#45;&gt;Node517347 -->
<g id="edge55" class="edge">
<title>Node517344&#45;&gt;Node517347</title>
<path fill="none" stroke="#191970" d="M276.9648,-334.8182C308.0466,-344.3947 356.093,-359.1982 390.2535,-369.7234"/>
<polygon fill="#191970" stroke="#191970" points="389.3469,-373.1063 399.9341,-372.706 391.4081,-366.4166 389.3469,-373.1063"/>
</g>
<!-- Node517345&#45;&gt;Node516876 -->
<g id="edge44" class="edge">
<title>Node517345&#45;&gt;Node516876</title>
<path fill="none" stroke="#191970" d="M841.7516,-352.9044C847.0781,-355.5434 851.9809,-358.9331 856,-363.2777 914.3645,-426.3685 833.7404,-490.09 892,-553.2777 929.4944,-593.9437 962.6067,-561.3807 1012,-586.2777 1035.3823,-598.0637 1058.5196,-617.36 1073.6516,-631.2979"/>
<polygon fill="#191970" stroke="#191970" points="1071.5105,-634.0898 1081.1853,-638.4082 1076.3151,-628.999 1071.5105,-634.0898"/>
</g>
<!-- Node517345&#45;&gt;Node516905 -->
<g id="edge39" class="edge">
<title>Node517345&#45;&gt;Node516905</title>
<path fill="none" stroke="#191970" d="M800.2894,-334.6065C819.9345,-321.953 856.8577,-300.4333 892,-292.2777 942.0737,-280.6569 1000.9758,-287.2169 1041.6378,-294.7824"/>
<polygon fill="#191970" stroke="#191970" points="1041.0813,-298.2397 1051.5662,-296.717 1042.4202,-291.3689 1041.0813,-298.2397"/>
</g>
<!-- Node517345&#45;&gt;Node516913 -->
<g id="edge34" class="edge">
<title>Node517345&#45;&gt;Node516913</title>
<path fill="none" stroke="#191970" d="M810.1521,-334.6837C853.0676,-319.2282 944.4461,-293.5944 1012,-325.2777 1045.4962,-340.9876 1069.717,-378.6513 1081.956,-401.5556"/>
<polygon fill="#191970" stroke="#191970" points="1078.9279,-403.3217 1086.5936,-410.6353 1085.1618,-400.1376 1078.9279,-403.3217"/>
</g>
<!-- Node517182 -->
<g id="node20" class="node">
<title>Node517182</title>
<g id="a_node20"><a xlink:href="quickjs_8c.html#ad4ba09e4c7ab9f28c144182e1aacf1f6" target="_top" xlink:title="JS_NewArray">
<polygon fill="none" stroke="#ff0000" points="913.5,-372.7777 913.5,-391.7777 990.5,-391.7777 990.5,-372.7777 913.5,-372.7777"/>
<text text-anchor="middle" x="952" y="-379.7777" font-family="Helvetica,sans-Serif" font-size="10.00" fill="#000000">JS_NewArray</text>
</a>
</g>
</g>
<!-- Node517345&#45;&gt;Node517182 -->
<g id="edge33" class="edge">
<title>Node517345&#45;&gt;Node517182</title>
<path fill="none" stroke="#191970" d="M827.8888,-353.8667C850.8321,-359.1188 879.3823,-365.6544 903.3135,-371.1326"/>
<polygon fill="#191970" stroke="#191970" points="902.7283,-374.5891 913.2572,-373.4088 904.2903,-367.7656 902.7283,-374.5891"/>
</g>
<!-- Node517197 -->
<g id="node21" class="node">
<title>Node517197</title>
<g id="a_node21"><a xlink:href="quickjs_8c.html#aa049793cc8648d35fe81876a2543ca4e" target="_top" xlink:title="JS_GetIterator2">
<polygon fill="none" stroke="#ff0000" points="909,-524.7777 909,-543.7777 995,-543.7777 995,-524.7777 909,-524.7777"/>
<text text-anchor="middle" x="952" y="-531.7777" font-family="Helvetica,sans-Serif" font-size="10.00" fill="#000000">JS_GetIterator2</text>
</a>
</g>
</g>
<!-- Node517345&#45;&gt;Node517197 -->
<g id="edge35" class="edge">
<title>Node517345&#45;&gt;Node517197</title>
<path fill="none" stroke="#191970" d="M841.5961,-353.5596C846.8842,-356.0829 851.8213,-359.2662 856,-363.2777 894.3299,-400.0735 863.846,-432.217 892,-477.2777 901.9923,-493.2705 917.51,-507.8472 930.2608,-518.2561"/>
<polygon fill="#191970" stroke="#191970" points="928.1314,-521.0341 938.1545,-524.4674 932.4601,-515.533 928.1314,-521.0341"/>
</g>
<!-- Node517202 -->
<g id="node22" class="node">
<title>Node517202</title>
<g id="a_node22"><a xlink:href="quickjs_8c.html#a44f6eee98516c994a594533cfa8618ed" target="_top" xlink:title="JS_IteratorNext">
<polygon fill="none" stroke="#ff0000" points="909,-334.7777 909,-353.7777 995,-353.7777 995,-334.7777 909,-334.7777"/>
<text text-anchor="middle" x="952" y="-341.7777" font-family="Helvetica,sans-Serif" font-size="10.00" fill="#000000">JS_IteratorNext</text>
</a>
</g>
</g>
<!-- Node517345&#45;&gt;Node517202 -->
<g id="edge40" class="edge">
<title>Node517345&#45;&gt;Node517202</title>
<path fill="none" stroke="#191970" d="M841.7374,-344.2777C860.0895,-344.2777 880.4421,-344.2777 898.6148,-344.2777"/>
<polygon fill="#191970" stroke="#191970" points="898.7444,-347.7778 908.7444,-344.2777 898.7444,-340.7778 898.7444,-347.7778"/>
</g>
<!-- Node517197&#45;&gt;Node516876 -->
<g id="edge36" class="edge">
<title>Node517197&#45;&gt;Node516876</title>
<path fill="none" stroke="#191970" d="M983.9464,-543.8701C993.453,-547.5432 1003.5723,-552.3188 1012,-558.2777 1040.1374,-578.1726 1064.9563,-610.0337 1078.9586,-630.0256"/>
<polygon fill="#191970" stroke="#191970" points="1076.2392,-632.2499 1084.7675,-638.5362 1082.0208,-628.3036 1076.2392,-632.2499"/>
</g>
<!-- Node517197&#45;&gt;Node516913 -->
<g id="edge37" class="edge">
<title>Node517197&#45;&gt;Node516913</title>
<path fill="none" stroke="#191970" d="M983.9464,-524.6853C993.453,-521.0121 1003.5723,-516.2366 1012,-510.2777 1040.1374,-490.3827 1064.9563,-458.5217 1078.9586,-438.5298"/>
<polygon fill="#191970" stroke="#191970" points="1082.0208,-440.2517 1084.7675,-430.0191 1076.2392,-436.3054 1082.0208,-440.2517"/>
</g>
<!-- Node517197&#45;&gt;Node517199 -->
<g id="edge38" class="edge">
<title>Node517197&#45;&gt;Node517199</title>
<path fill="none" stroke="#191970" d="M995.2185,-534.2777C1011.0392,-534.2777 1028.9907,-534.2777 1045.0422,-534.2777"/>
<polygon fill="#191970" stroke="#191970" points="1045.2746,-537.7778 1055.2746,-534.2777 1045.2746,-530.7778 1045.2746,-537.7778"/>
</g>
<!-- Node517202&#45;&gt;Node516876 -->
<g id="edge41" class="edge">
<title>Node517202&#45;&gt;Node516876</title>
<path fill="none" stroke="#191970" d="M995.0977,-351.6118C1001.4781,-354.3628 1007.4317,-358.1284 1012,-363.2777 1069.0386,-427.5697 1022.0967,-471.3272 1048,-553.2777 1056.6951,-580.7865 1071.2275,-610.8597 1080.9604,-629.645"/>
<polygon fill="#191970" stroke="#191970" points="1077.9214,-631.3857 1085.6812,-638.5992 1084.1135,-628.121 1077.9214,-631.3857"/>
</g>
<!-- Node517202&#45;&gt;Node516905 -->
<g id="edge42" class="edge">
<title>Node517202&#45;&gt;Node516905</title>
<path fill="none" stroke="#191970" d="M987.0756,-334.6887C1005.0191,-329.7832 1027.0584,-323.7581 1046.2167,-318.5206"/>
<polygon fill="#191970" stroke="#191970" points="1047.2126,-321.8768 1055.9357,-315.8636 1045.3666,-315.1246 1047.2126,-321.8768"/>
</g>
<!-- Node517202&#45;&gt;Node516913 -->
<g id="edge43" class="edge">
<title>Node517202&#45;&gt;Node516913</title>
<path fill="none" stroke="#191970" d="M988.5879,-353.8206C996.4969,-356.4418 1004.6784,-359.5967 1012,-363.2777 1034.3115,-374.4949 1057.1668,-391.735 1072.516,-404.3184"/>
<polygon fill="#191970" stroke="#191970" points="1070.3039,-407.0311 1080.22,-410.7623 1074.7951,-401.6617 1070.3039,-407.0311"/>
</g>
<!-- Node517191&#45;&gt;Node516905 -->
<g id="edge47" class="edge">
<title>Node517191&#45;&gt;Node516905</title>
<path fill="none" stroke="#191970" d="M983.9464,-201.8701C993.453,-205.5432 1003.5723,-210.3188 1012,-216.2777 1040.1374,-236.1726 1064.9563,-268.0337 1078.9586,-288.0256"/>
<polygon fill="#191970" stroke="#191970" points="1076.2392,-290.2499 1084.7675,-296.5362 1082.0208,-286.3036 1076.2392,-290.2499"/>
</g>
<!-- Node517191&#45;&gt;Node516913 -->
<g id="edge48" class="edge">
<title>Node517191&#45;&gt;Node516913</title>
<path fill="none" stroke="#191970" d="M990.3012,-201.8393C998.2962,-205.3054 1006.0822,-209.9842 1012,-216.2777 1046.949,-253.4453 1029.4551,-277.7493 1048,-325.2777 1058.5427,-352.2974 1072.7304,-382.7043 1081.872,-401.6769"/>
<polygon fill="#191970" stroke="#191970" points="1078.7435,-403.247 1086.2614,-410.7124 1085.0399,-400.1882 1078.7435,-403.247"/>
</g>
<!-- Node517346&#45;&gt;Node516876 -->
<g id="edge52" class="edge">
<title>Node517346&#45;&gt;Node516876</title>
<path fill="none" stroke="#191970" d="M474.1095,-694.6013C494.0958,-698.2519 518.2001,-702.3605 540,-705.2777 592.108,-712.2506 964.1087,-759.9639 1012,-738.2777 1044.191,-723.7009 1068.4607,-688.8068 1081.1373,-667.0001"/>
<polygon fill="#191970" stroke="#191970" points="1084.3292,-668.4619 1086.1328,-658.0217 1078.2123,-665.0585 1084.3292,-668.4619"/>
</g>
<!-- Node516891 -->
<g id="node25" class="node">
<title>Node516891</title>
<g id="a_node25"><a xlink:href="list_8h.html#a3a5d0733570b2fafc18f4c71a2968ea5" target="_top" xlink:title="list_add_tail">
<polygon fill="none" stroke="#ff0000" points="576,-676.7777 576,-695.7777 644,-695.7777 644,-676.7777 576,-676.7777"/>
<text text-anchor="middle" x="610" y="-683.7777" font-family="Helvetica,sans-Serif" font-size="10.00" fill="#000000">list_add_tail</text>
</a>
</g>
</g>
<!-- Node517346&#45;&gt;Node516891 -->
<g id="edge53" class="edge">
<title>Node517346&#45;&gt;Node516891</title>
<path fill="none" stroke="#191970" d="M474.3309,-686.2777C501.9467,-686.2777 537.6383,-686.2777 565.4815,-686.2777"/>
<polygon fill="#191970" stroke="#191970" points="565.7352,-689.7778 575.7352,-686.2777 565.7351,-682.7778 565.7352,-689.7778"/>
</g>
<!-- Node517348&#45;&gt;Node516870 -->
<g id="edge69" class="edge">
<title>Node517348&#45;&gt;Node516870</title>
<path fill="none" stroke="#191970" d="M255.851,-562.7293C270.8362,-548.0001 299.9443,-518.577 322,-491.2777 339.6651,-469.4129 334.9594,-455.3791 358,-439.2777 360.8782,-437.2663 363.9542,-435.4679 367.1552,-433.8598"/>
<polygon fill="#191970" stroke="#191970" points="368.6755,-437.0153 376.446,-429.8132 365.8802,-430.5976 368.6755,-437.0153"/>
</g>
<!-- Node517348&#45;&gt;Node516874 -->
<g id="edge57" class="edge">
<title>Node517348&#45;&gt;Node516874</title>
<path fill="none" stroke="#191970" d="M320.0362,-576.7831C371.6536,-580.1559 442.0912,-585.2203 504,-591.2777 660.8584,-606.6254 699.7883,-613.3488 856,-634.2777 866.9918,-635.7503 878.6801,-637.3916 889.9794,-639.0173"/>
<polygon fill="#191970" stroke="#191970" points="889.8172,-642.5303 900.2158,-640.5006 890.8212,-635.6026 889.8172,-642.5303"/>
</g>
<!-- Node517348&#45;&gt;Node516876 -->
<g id="edge70" class="edge">
<title>Node517348&#45;&gt;Node516876</title>
<path fill="none" stroke="#191970" d="M251.4489,-581.9141C273.2676,-620.4629 353.3779,-761.6229 358,-764.2777 408.7536,-793.429 828.0939,-850.1497 1012,-755.2777 1048.2528,-736.5759 1072.0915,-692.7312 1083.3856,-667.3507"/>
<polygon fill="#191970" stroke="#191970" points="1086.6581,-668.5986 1087.3391,-658.0257 1080.2134,-665.8662 1086.6581,-668.5986"/>
</g>
<!-- Node517348&#45;&gt;Node516913 -->
<g id="edge58" class="edge">
<title>Node517348&#45;&gt;Node516913</title>
<path fill="none" stroke="#191970" d="M260.139,-562.565C280.716,-548.9105 320.5534,-524.2597 358,-511.2777 451.87,-478.7347 859.1892,-442.7545 892,-439.2777 941.3694,-434.0462 997.7004,-428.7287 1037.7981,-425.0548"/>
<polygon fill="#191970" stroke="#191970" points="1038.2448,-428.5287 1047.8851,-424.1339 1037.6083,-421.5577 1038.2448,-428.5287"/>
</g>
<!-- Node517348&#45;&gt;Node517126 -->
<g id="edge60" class="edge">
<title>Node517348&#45;&gt;Node517126</title>
<path fill="none" stroke="#191970" d="M248.1136,-582.0727C256.1155,-616.9206 287.7309,-736.3176 358,-802.2777 362.0586,-806.0874 366.6674,-809.4434 371.5496,-812.3938"/>
<polygon fill="#191970" stroke="#191970" points="370.1124,-815.5957 380.573,-817.277 373.444,-809.4394 370.1124,-815.5957"/>
</g>
<!-- Node517348&#45;&gt;Node517346 -->
<g id="edge71" class="edge">
<title>Node517348&#45;&gt;Node517346</title>
<path fill="none" stroke="#191970" d="M261.4548,-581.8012C293.6937,-601.6673 368.317,-647.6514 406.9118,-671.4342"/>
<polygon fill="#191970" stroke="#191970" points="405.1095,-674.4347 415.4591,-676.7011 408.7818,-668.4753 405.1095,-674.4347"/>
</g>
<!-- Node517348&#45;&gt;Node516998 -->
<g id="edge72" class="edge">
<title>Node517348&#45;&gt;Node516998</title>
<path fill="none" stroke="#191970" d="M255.6076,-562.4989C273.9536,-544.326 315.9072,-505.1244 358,-482.2777 365.9227,-477.9775 374.7489,-474.2753 383.4495,-471.155"/>
<polygon fill="#191970" stroke="#191970" points="384.8076,-474.3907 393.1647,-467.8785 382.5706,-467.7578 384.8076,-474.3907"/>
</g>
<!-- Node517348&#45;&gt;Node517347 -->
<g id="edge73" class="edge">
<title>Node517348&#45;&gt;Node517347</title>
<path fill="none" stroke="#191970" d="M249.3726,-562.7488C260.1845,-533.6333 296.8891,-445.1623 358,-401.2777 360.7125,-399.3298 363.6089,-397.5815 366.6257,-396.0122"/>
<polygon fill="#191970" stroke="#191970" points="368.2805,-399.1061 375.9737,-391.8214 365.4169,-392.7186 368.2805,-399.1061"/>
</g>
<!-- Node517131 -->
<g id="node29" class="node">
<title>Node517131</title>
<g id="a_node29"><a xlink:href="quickjs_8c.html#a869fa88a646c0a1914ec2e559b193b5c" target="_top" xlink:title="typed_array_is_detached">
<polygon fill="none" stroke="#000000" points="368.5,-600.7777 368.5,-619.7777 493.5,-619.7777 493.5,-600.7777 368.5,-600.7777"/>
<text text-anchor="middle" x="431" y="-607.7777" font-family="Helvetica,sans-Serif" font-size="10.00" fill="#000000">typed_array_is_detached</text>
</a>
</g>
</g>
<!-- Node517348&#45;&gt;Node517131 -->
<g id="edge59" class="edge">
<title>Node517348&#45;&gt;Node517131</title>
<path fill="none" stroke="#191970" d="M292.6833,-581.8667C317.6459,-586.9941 348.5642,-593.3449 374.834,-598.7409"/>
<polygon fill="#191970" stroke="#191970" points="374.1526,-602.1739 384.6524,-600.7576 375.5611,-595.3171 374.1526,-602.1739"/>
</g>
<!-- Node517349 -->
<g id="node30" class="node">
<title>Node517349</title>
<g id="a_node30"><a xlink:href="quickjs_8c.html#ab5d3dff6327702516a514e1f616ec149" target="_top" xlink:title="JS_SpeciesConstructor">
<polygon fill="none" stroke="#ff0000" points="892,-448.7777 892,-467.7777 1012,-467.7777 1012,-448.7777 892,-448.7777"/>
<text text-anchor="middle" x="952" y="-455.7777" font-family="Helvetica,sans-Serif" font-size="10.00" fill="#000000">JS_SpeciesConstructor</text>
</a>
</g>
</g>
<!-- Node517348&#45;&gt;Node517349 -->
<g id="edge61" class="edge">
<title>Node517348&#45;&gt;Node517349</title>
<path fill="none" stroke="#191970" d="M285.0322,-562.7439C365.242,-543.518 554.6351,-499.9991 716,-477.2777 771.3644,-469.482 834.5203,-464.6065 881.5582,-461.7489"/>
<polygon fill="#191970" stroke="#191970" points="881.8669,-465.2369 891.6427,-461.1521 881.4533,-458.2491 881.8669,-465.2369"/>
</g>
<!-- Node517349&#45;&gt;Node516875 -->
<g id="edge62" class="edge">
<title>Node517349&#45;&gt;Node516875</title>
<path fill="none" stroke="#191970" d="M966.1504,-467.9051C979.9687,-478.065 1000.5417,-495.3483 1012,-515.2777 1046.6037,-575.4635 1031.5343,-599.8341 1048,-667.2777 1061.4437,-722.3435 1077.9362,-787.2136 1086.0335,-818.8956"/>
<polygon fill="#191970" stroke="#191970" points="1082.659,-819.8271 1088.5288,-828.6473 1089.4406,-818.0918 1082.659,-819.8271"/>
</g>
<!-- Node517349&#45;&gt;Node516876 -->
<g id="edge63" class="edge">
<title>Node517349&#45;&gt;Node516876</title>
<path fill="none" stroke="#191970" d="M963.983,-467.9352C976.8124,-478.647 997.3028,-496.8598 1012,-515.2777 1042.0044,-552.878 1068.6963,-602.972 1082.0225,-629.6694"/>
<polygon fill="#191970" stroke="#191970" points="1078.9005,-631.2523 1086.4545,-638.6811 1085.1819,-628.163 1078.9005,-631.2523"/>
</g>
<!-- Node517349&#45;&gt;Node516905 -->
<g id="edge64" class="edge">
<title>Node517349&#45;&gt;Node516905</title>
<path fill="none" stroke="#191970" d="M962.9897,-448.5527C975.3117,-437.4878 995.7012,-418.6903 1012,-401.2777 1036.1525,-375.4745 1061.9402,-343.5331 1077.2533,-324.0435"/>
<polygon fill="#191970" stroke="#191970" points="1080.1131,-326.0679 1083.5084,-316.0318 1074.5956,-321.76 1080.1131,-326.0679"/>
</g>
<!-- Node517349&#45;&gt;Node516913 -->
<g id="edge65" class="edge">
<title>Node517349&#45;&gt;Node516913</title>
<path fill="none" stroke="#191970" d="M987.0756,-448.6887C1005.0191,-443.7832 1027.0584,-437.7581 1046.2167,-432.5206"/>
<polygon fill="#191970" stroke="#191970" points="1047.2126,-435.8768 1055.9357,-429.8636 1045.3666,-429.1246 1047.2126,-435.8768"/>
</g>
<!-- Node517349&#45;&gt;Node517199 -->
<g id="edge67" class="edge">
<title>Node517349&#45;&gt;Node517199</title>
<path fill="none" stroke="#191970" d="M969.6044,-467.9031C993.6262,-481.0373 1036.8651,-504.6787 1064.7285,-519.9134"/>
<polygon fill="#191970" stroke="#191970" points="1063.0853,-523.0039 1073.5385,-524.7304 1066.4435,-516.862 1063.0853,-523.0039"/>
</g>
<!-- Node517349&#45;&gt;Node517092 -->
<g id="edge68" class="edge">
<title>Node517349&#45;&gt;Node517092</title>
<path fill="none" stroke="#191970" d="M966.7377,-448.6389C980.8016,-438.591 1001.3734,-421.5005 1012,-401.2777 1059.7204,-310.4635 1021.7606,-272.454 1048,-173.2777 1057.1077,-138.8536 1072.8309,-100.408 1082.531,-78.115"/>
<polygon fill="#191970" stroke="#191970" points="1085.7982,-79.3805 1086.6362,-68.8189 1079.3947,-76.5527 1085.7982,-79.3805"/>
</g>
<!-- Node517349&#45;&gt;Node517089 -->
<g id="edge66" class="edge">
<title>Node517349&#45;&gt;Node517089</title>
<path fill="none" stroke="#191970" d="M965.8455,-448.4674C979.4267,-438.1653 999.8189,-420.7737 1012,-401.2777 1040.154,-356.217 1029.0114,-336.9017 1048,-287.2777 1058.3653,-260.1894 1072.5976,-229.7998 1081.7974,-210.8496"/>
<polygon fill="#191970" stroke="#191970" points="1084.9616,-212.3464 1086.2184,-201.8263 1078.6755,-209.2665 1084.9616,-212.3464"/>
</g>
</g>
</svg>
