<?xml version="1.0" encoding="UTF-8" standalone="no"?>
<!DOCTYPE svg PUBLIC "-//W3C//DTD SVG 1.1//EN"
 "http://www.w3.org/Graphics/SVG/1.1/DTD/svg11.dtd">
<!-- Generated by graphviz version 2.40.1 (20161225.0304)
 -->
<!-- Title: js_parse_directives Pages: 1 -->
<svg width="651pt" height="522pt"
 viewBox="0.00 0.00 651.00 522.00" xmlns="http://www.w3.org/2000/svg" xmlns:xlink="http://www.w3.org/1999/xlink">
<g id="graph0" class="graph" transform="scale(1 1) rotate(0) translate(4 518)">
<title>js_parse_directives</title>
<!-- Node324343 -->
<g id="node1" class="node">
<title>Node324343</title>
<polygon fill="#bfbfbf" stroke="#000000" points="0,-266.5 0,-285.5 101,-285.5 101,-266.5 0,-266.5"/>
<text text-anchor="middle" x="50.5" y="-273.5" font-family="Helvetica,sans-Serif" font-size="10.00" fill="#000000">js_parse_directives</text>
</g>
<!-- Node324344 -->
<g id="node2" class="node">
<title>Node324344</title>
<g id="a_node2"><a xlink:href="quickjs_8c.html#adc9771417493518c8625fa604362d809" target="_top" xlink:title="js_parse_get_pos">
<polygon fill="none" stroke="#000000" points="145,-304.5 145,-323.5 238,-323.5 238,-304.5 145,-304.5"/>
<text text-anchor="middle" x="191.5" y="-311.5" font-family="Helvetica,sans-Serif" font-size="10.00" fill="#000000">js_parse_get_pos</text>
</a>
</g>
</g>
<!-- Node324343&#45;&gt;Node324344 -->
<g id="edge1" class="edge">
<title>Node324343&#45;&gt;Node324344</title>
<path fill="none" stroke="#191970" d="M86.0803,-285.589C104.282,-290.4944 126.6384,-296.5196 146.0723,-301.7571"/>
<polygon fill="#191970" stroke="#191970" points="145.3648,-305.1912 155.9311,-304.4141 147.1864,-298.4324 145.3648,-305.1912"/>
</g>
<!-- Node324345 -->
<g id="node3" class="node">
<title>Node324345</title>
<g id="a_node3"><a xlink:href="quickjs_8c.html#aba7eb7aae2eb61bfccb4565ee626cd18" target="_top" xlink:title="js_parse_seek_token">
<polygon fill="none" stroke="#000000" points="137,-266.5 137,-285.5 246,-285.5 246,-266.5 137,-266.5"/>
<text text-anchor="middle" x="191.5" y="-273.5" font-family="Helvetica,sans-Serif" font-size="10.00" fill="#000000">js_parse_seek_token</text>
</a>
</g>
</g>
<!-- Node324343&#45;&gt;Node324345 -->
<g id="edge2" class="edge">
<title>Node324343&#45;&gt;Node324345</title>
<path fill="none" stroke="#191970" d="M101.006,-276C109.208,-276 117.8037,-276 126.2963,-276"/>
<polygon fill="#191970" stroke="#191970" points="126.571,-279.5001 136.5709,-276 126.5709,-272.5001 126.571,-279.5001"/>
</g>
<!-- Node324346 -->
<g id="node4" class="node">
<title>Node324346</title>
<g id="a_node4"><a xlink:href="quickjs_8c.html#a75a3798e2045f6e403c1ef467126d1fb" target="_top" xlink:title="next_token">
<polygon fill="none" stroke="#000000" points="282,-247.5 282,-266.5 347,-266.5 347,-247.5 282,-247.5"/>
<text text-anchor="middle" x="314.5" y="-254.5" font-family="Helvetica,sans-Serif" font-size="10.00" fill="#000000">next_token</text>
</a>
</g>
</g>
<!-- Node324343&#45;&gt;Node324346 -->
<g id="edge24" class="edge">
<title>Node324343&#45;&gt;Node324346</title>
<path fill="none" stroke="#191970" d="M85.5666,-266.4917C101.1835,-262.727 119.8801,-258.8581 137,-257 182.8685,-252.0218 235.798,-252.8665 271.8402,-254.426"/>
<polygon fill="#191970" stroke="#191970" points="271.8435,-257.9299 281.9969,-254.9037 272.1725,-250.9376 271.8435,-257.9299"/>
</g>
<!-- Node324345&#45;&gt;Node324346 -->
<g id="edge3" class="edge">
<title>Node324345&#45;&gt;Node324346</title>
<path fill="none" stroke="#191970" d="M246.1659,-267.5557C254.7374,-266.2316 263.4881,-264.8799 271.7411,-263.605"/>
<polygon fill="#191970" stroke="#191970" points="272.5291,-267.0249 281.8776,-262.0392 271.4604,-260.107 272.5291,-267.0249"/>
</g>
<!-- Node324347 -->
<g id="node5" class="node">
<title>Node324347</title>
<g id="a_node5"><a xlink:href="quickjs_8c.html#a7cd95e5ed87d4b27630af7944855779f" target="_top" xlink:title="free_token">
<polygon fill="none" stroke="#ff0000" points="415.5,-494.5 415.5,-513.5 477.5,-513.5 477.5,-494.5 415.5,-494.5"/>
<text text-anchor="middle" x="446.5" y="-501.5" font-family="Helvetica,sans-Serif" font-size="10.00" fill="#000000">free_token</text>
</a>
</g>
</g>
<!-- Node324346&#45;&gt;Node324347 -->
<g id="edge4" class="edge">
<title>Node324346&#45;&gt;Node324347</title>
<path fill="none" stroke="#191970" d="M316.2736,-266.5353C323.5753,-304.8856 352.3725,-447.3687 383,-480 389.2117,-486.6181 397.4331,-491.4264 405.8927,-494.9147"/>
<polygon fill="#191970" stroke="#191970" points="404.8561,-498.2608 415.4507,-498.3185 407.2045,-491.6665 404.8561,-498.2608"/>
</g>
<!-- Node324378 -->
<g id="node6" class="node">
<title>Node324378</title>
<g id="a_node6"><a xlink:href="quickjs_8c.html#ab3ca6381d29dea396b12acd7f755c51a" target="_top" xlink:title="is_digit">
<polygon fill="none" stroke="#000000" points="571,-418.5 571,-437.5 618,-437.5 618,-418.5 571,-418.5"/>
<text text-anchor="middle" x="594.5" y="-425.5" font-family="Helvetica,sans-Serif" font-size="10.00" fill="#000000">is_digit</text>
</a>
</g>
</g>
<!-- Node324346&#45;&gt;Node324378 -->
<g id="edge5" class="edge">
<title>Node324346&#45;&gt;Node324378</title>
<path fill="none" stroke="#191970" d="M316.5126,-266.8641C324.0419,-302.6976 351.7253,-425.0302 383,-447 437.83,-485.5169 521.414,-459.7644 565.2847,-441.5869"/>
<polygon fill="#191970" stroke="#191970" points="566.7161,-444.7814 574.5275,-437.6236 563.9575,-438.3479 566.7161,-444.7814"/>
</g>
<!-- Node324379 -->
<g id="node7" class="node">
<title>Node324379</title>
<g id="a_node7"><a xlink:href="quickjs_8c.html#ab654019528cbf811c075b46b4a332a41" target="_top" xlink:title="js_atod">
<polygon fill="none" stroke="#ff0000" points="422.5,-418.5 422.5,-437.5 470.5,-437.5 470.5,-418.5 422.5,-418.5"/>
<text text-anchor="middle" x="446.5" y="-425.5" font-family="Helvetica,sans-Serif" font-size="10.00" fill="#000000">js_atod</text>
</a>
</g>
</g>
<!-- Node324346&#45;&gt;Node324379 -->
<g id="edge6" class="edge">
<title>Node324346&#45;&gt;Node324379</title>
<path fill="none" stroke="#191970" d="M316.0438,-266.8449C320.7919,-293.7852 337.7003,-369.344 383,-409 391.2673,-416.2373 402.2015,-420.7191 412.6629,-423.494"/>
<polygon fill="#191970" stroke="#191970" points="411.9248,-426.9152 422.4457,-425.6657 413.4419,-420.0816 411.9248,-426.9152"/>
</g>
<!-- Node324384 -->
<g id="node8" class="node">
<title>Node324384</title>
<g id="a_node8"><a xlink:href="quickjs_8c.html#a487008477f41a8649ebea7833c1a2694" target="_top" xlink:title="js_check_stack_overflow">
<polygon fill="none" stroke="#ff0000" points="383,-380.5 383,-399.5 510,-399.5 510,-380.5 383,-380.5"/>
<text text-anchor="middle" x="446.5" y="-387.5" font-family="Helvetica,sans-Serif" font-size="10.00" fill="#000000">js_check_stack_overflow</text>
</a>
</g>
</g>
<!-- Node324346&#45;&gt;Node324384 -->
<g id="edge8" class="edge">
<title>Node324346&#45;&gt;Node324384</title>
<path fill="none" stroke="#191970" d="M317.5508,-266.5835C325.0206,-288.4919 346.3427,-342.5364 383,-371 385.4214,-372.8801 388.0264,-374.5747 390.7508,-376.102"/>
<polygon fill="#191970" stroke="#191970" points="389.2486,-379.2633 399.7787,-380.4328 392.2763,-372.9519 389.2486,-379.2633"/>
</g>
<!-- Node324386 -->
<g id="node9" class="node">
<title>Node324386</title>
<g id="a_node9"><a xlink:href="quickjs_8h.html#ad80a83d73e9b7d872b88fbf2943aebe9" target="_top" xlink:title="JS_IsException">
<polygon fill="none" stroke="#000000" points="551.5,-323.5 551.5,-342.5 637.5,-342.5 637.5,-323.5 551.5,-323.5"/>
<text text-anchor="middle" x="594.5" y="-330.5" font-family="Helvetica,sans-Serif" font-size="10.00" fill="#000000">JS_IsException</text>
</a>
</g>
</g>
<!-- Node324346&#45;&gt;Node324386 -->
<g id="edge9" class="edge">
<title>Node324346&#45;&gt;Node324386</title>
<path fill="none" stroke="#191970" d="M347.1675,-265.8669C397.2482,-279.4602 493.1235,-305.4835 549.6684,-320.8314"/>
<polygon fill="#191970" stroke="#191970" points="548.8421,-324.2337 559.4097,-323.4755 550.6758,-317.4781 548.8421,-324.2337"/>
</g>
<!-- Node324387 -->
<g id="node10" class="node">
<title>Node324387</title>
<g id="a_node10"><a xlink:href="quickjs_8c.html#a522741f41afb1d0da0aa55968cd8579e" target="_top" xlink:title="JS_NewAtomLen">
<polygon fill="none" stroke="#ff0000" points="400,-342.5 400,-361.5 493,-361.5 493,-342.5 400,-342.5"/>
<text text-anchor="middle" x="446.5" y="-349.5" font-family="Helvetica,sans-Serif" font-size="10.00" fill="#000000">JS_NewAtomLen</text>
</a>
</g>
</g>
<!-- Node324346&#45;&gt;Node324387 -->
<g id="edge10" class="edge">
<title>Node324346&#45;&gt;Node324387</title>
<path fill="none" stroke="#191970" d="M321.4614,-266.5764C332.8072,-281.5716 356.6789,-310.6672 383,-328 389.2257,-332.0997 396.2513,-335.6386 403.3015,-338.6436"/>
<polygon fill="#191970" stroke="#191970" points="402.271,-341.9995 412.8578,-342.4129 404.8395,-335.4877 402.271,-341.9995"/>
</g>
<!-- Node324430 -->
<g id="node11" class="node">
<title>Node324430</title>
<g id="a_node11"><a xlink:href="quickjs_8c.html#ace438176f9f0e0fea6d6f5cdffb1577e" target="_top" xlink:title="js_parse_string">
<polygon fill="none" stroke="#ff0000" points="405,-228.5 405,-247.5 488,-247.5 488,-228.5 405,-228.5"/>
<text text-anchor="middle" x="446.5" y="-235.5" font-family="Helvetica,sans-Serif" font-size="10.00" fill="#000000">js_parse_string</text>
</a>
</g>
</g>
<!-- Node324346&#45;&gt;Node324430 -->
<g id="edge13" class="edge">
<title>Node324346&#45;&gt;Node324430</title>
<path fill="none" stroke="#191970" d="M347.1292,-252.3034C361.4082,-250.2481 378.5153,-247.7857 394.4787,-245.4879"/>
<polygon fill="#191970" stroke="#191970" points="395.3634,-248.8967 404.7627,-244.0076 394.366,-241.9681 395.3634,-248.8967"/>
</g>
<!-- Node324431 -->
<g id="node12" class="node">
<title>Node324431</title>
<g id="a_node12"><a xlink:href="libregexp_8h.html#adca92c15688d39a0e06cd92f870d25d2" target="_top" xlink:title="lre_parse_escape">
<polygon fill="none" stroke="#ff0000" points="548,-247.5 548,-266.5 641,-266.5 641,-247.5 548,-247.5"/>
<text text-anchor="middle" x="594.5" y="-254.5" font-family="Helvetica,sans-Serif" font-size="10.00" fill="#000000">lre_parse_escape</text>
</a>
</g>
</g>
<!-- Node324346&#45;&gt;Node324431 -->
<g id="edge21" class="edge">
<title>Node324346&#45;&gt;Node324431</title>
<path fill="none" stroke="#191970" d="M347.1675,-257C393.7493,-257 479.9505,-257 537.2701,-257"/>
<polygon fill="#191970" stroke="#191970" points="537.6208,-260.5001 547.6207,-257 537.6207,-253.5001 537.6208,-260.5001"/>
</g>
<!-- Node324429 -->
<g id="node13" class="node">
<title>Node324429</title>
<g id="a_node13"><a xlink:href="cutils_8h.html#a69529af6d6911dd0ead90eef221b2e10" target="_top" xlink:title="unicode_from_utf8">
<polygon fill="none" stroke="#000000" points="546,-190.5 546,-209.5 643,-209.5 643,-190.5 546,-190.5"/>
<text text-anchor="middle" x="594.5" y="-197.5" font-family="Helvetica,sans-Serif" font-size="10.00" fill="#000000">unicode_from_utf8</text>
</a>
</g>
</g>
<!-- Node324346&#45;&gt;Node324429 -->
<g id="edge22" class="edge">
<title>Node324346&#45;&gt;Node324429</title>
<path fill="none" stroke="#191970" d="M327.8992,-247.3313C341.1808,-238.3058 362.4598,-225.3097 383,-219 433.0806,-203.616 492.7334,-199.4568 535.8992,-198.8009"/>
<polygon fill="#191970" stroke="#191970" points="535.9828,-202.3004 545.9496,-198.7068 535.9172,-195.3007 535.9828,-202.3004"/>
</g>
<!-- Node324435 -->
<g id="node14" class="node">
<title>Node324435</title>
<g id="a_node14"><a xlink:href="quickjs_8c.html#a4bd17ae26c9b4e0ab5f7fd320199eb2e" target="_top" xlink:title="js_parse_template_part">
<polygon fill="none" stroke="#ff0000" points="387.5,-152.5 387.5,-171.5 505.5,-171.5 505.5,-152.5 387.5,-152.5"/>
<text text-anchor="middle" x="446.5" y="-159.5" font-family="Helvetica,sans-Serif" font-size="10.00" fill="#000000">js_parse_template_part</text>
</a>
</g>
</g>
<!-- Node324346&#45;&gt;Node324435 -->
<g id="edge16" class="edge">
<title>Node324346&#45;&gt;Node324435</title>
<path fill="none" stroke="#191970" d="M321.4614,-247.4236C332.8072,-232.4284 356.6789,-203.3328 383,-186 389.2257,-181.9003 396.2513,-178.3614 403.3015,-175.3564"/>
<polygon fill="#191970" stroke="#191970" points="404.8395,-178.5123 412.8578,-171.5871 402.271,-172.0005 404.8395,-178.5123"/>
</g>
<!-- Node324436 -->
<g id="node15" class="node">
<title>Node324436</title>
<g id="a_node15"><a xlink:href="libregexp_8h.html#a542d834d69607ea57c3ca53757c86c43" target="_top" xlink:title="lre_is_space">
<polygon fill="none" stroke="#000000" points="411,-114.5 411,-133.5 482,-133.5 482,-114.5 411,-114.5"/>
<text text-anchor="middle" x="446.5" y="-121.5" font-family="Helvetica,sans-Serif" font-size="10.00" fill="#000000">lre_is_space</text>
</a>
</g>
</g>
<!-- Node324346&#45;&gt;Node324436 -->
<g id="edge18" class="edge">
<title>Node324346&#45;&gt;Node324436</title>
<path fill="none" stroke="#191970" d="M317.5508,-247.4165C325.0206,-225.5081 346.3427,-171.4636 383,-143 388.3739,-138.8273 394.6526,-135.5686 401.1316,-133.0242"/>
<polygon fill="#191970" stroke="#191970" points="402.3392,-136.3105 410.6854,-129.7842 400.091,-129.6813 402.3392,-136.3105"/>
</g>
<!-- Node324437 -->
<g id="node16" class="node">
<title>Node324437</title>
<g id="a_node16"><a xlink:href="libregexp_8h.html#a4737debd233b96f1a317fdb40a3fbd69" target="_top" xlink:title="lre_js_is_ident_first">
<polygon fill="none" stroke="#ff0000" points="396,-76.5 396,-95.5 497,-95.5 497,-76.5 396,-76.5"/>
<text text-anchor="middle" x="446.5" y="-83.5" font-family="Helvetica,sans-Serif" font-size="10.00" fill="#000000">lre_js_is_ident_first</text>
</a>
</g>
</g>
<!-- Node324346&#45;&gt;Node324437 -->
<g id="edge19" class="edge">
<title>Node324346&#45;&gt;Node324437</title>
<path fill="none" stroke="#191970" d="M316.0438,-247.1551C320.7919,-220.2148 337.7003,-144.656 383,-105 384.9319,-103.3088 387.0094,-101.7681 389.1924,-100.3644"/>
<polygon fill="#191970" stroke="#191970" points="390.9007,-103.4198 398.0512,-95.6018 387.586,-97.2544 390.9007,-103.4198"/>
</g>
<!-- Node324442 -->
<g id="node17" class="node">
<title>Node324442</title>
<g id="a_node17"><a xlink:href="libregexp_8h.html#a3dd6ac80b2cc9f7fc7f18a4cb0acdce3" target="_top" xlink:title="lre_js_is_ident_next">
<polygon fill="none" stroke="#ff0000" points="395,-38.5 395,-57.5 498,-57.5 498,-38.5 395,-38.5"/>
<text text-anchor="middle" x="446.5" y="-45.5" font-family="Helvetica,sans-Serif" font-size="10.00" fill="#000000">lre_js_is_ident_next</text>
</a>
</g>
</g>
<!-- Node324346&#45;&gt;Node324442 -->
<g id="edge20" class="edge">
<title>Node324346&#45;&gt;Node324442</title>
<path fill="none" stroke="#191970" d="M315.0568,-247.0639C317.354,-215.7767 328.7487,-118.3319 383,-67 384.6639,-65.4256 386.453,-63.9813 388.3377,-62.6561"/>
<polygon fill="#191970" stroke="#191970" points="390.2172,-65.6124 397.1223,-57.5769 386.7133,-59.5525 390.2172,-65.6124"/>
</g>
<!-- Node324444 -->
<g id="node18" class="node">
<title>Node324444</title>
<g id="a_node18"><a xlink:href="cutils_8h.html#aad4e0decb15ab19e9f45b0ee69542a28" target="_top" xlink:title="unicode_to_utf8">
<polygon fill="none" stroke="#000000" points="403.5,-.5 403.5,-19.5 489.5,-19.5 489.5,-.5 403.5,-.5"/>
<text text-anchor="middle" x="446.5" y="-7.5" font-family="Helvetica,sans-Serif" font-size="10.00" fill="#000000">unicode_to_utf8</text>
</a>
</g>
</g>
<!-- Node324346&#45;&gt;Node324444 -->
<g id="edge23" class="edge">
<title>Node324346&#45;&gt;Node324444</title>
<path fill="none" stroke="#191970" d="M316.1324,-247.456C322.9899,-208.4069 350.6145,-61.3491 383,-29 386.2477,-25.756 390.025,-23.0616 394.0882,-20.8244"/>
<polygon fill="#191970" stroke="#191970" points="395.6868,-23.9425 403.3449,-16.6209 392.7925,-17.5688 395.6868,-23.9425"/>
</g>
<!-- Node324379&#45;&gt;Node324378 -->
<g id="edge7" class="edge">
<title>Node324379&#45;&gt;Node324378</title>
<path fill="none" stroke="#191970" d="M470.6081,-428C495.0491,-428 533.0817,-428 560.5624,-428"/>
<polygon fill="#191970" stroke="#191970" points="560.8917,-431.5001 570.8917,-428 560.8917,-424.5001 560.8917,-431.5001"/>
</g>
<!-- Node324387&#45;&gt;Node324378 -->
<g id="edge11" class="edge">
<title>Node324387&#45;&gt;Node324378</title>
<path fill="none" stroke="#191970" d="M485.1442,-361.5259C493.5191,-364.148 502.1993,-367.3077 510,-371 533.6169,-382.1787 558.1014,-399.4247 574.5959,-412.02"/>
<polygon fill="#191970" stroke="#191970" points="572.8406,-415.0891 582.8813,-418.4709 577.141,-409.5658 572.8406,-415.0891"/>
</g>
<!-- Node324387&#45;&gt;Node324386 -->
<g id="edge12" class="edge">
<title>Node324387&#45;&gt;Node324386</title>
<path fill="none" stroke="#191970" d="M493.3281,-345.9883C508.6114,-344.0262 525.6902,-341.8337 541.4001,-339.8169"/>
<polygon fill="#191970" stroke="#191970" points="542.0206,-343.266 551.4935,-338.5211 541.1292,-336.323 542.0206,-343.266"/>
</g>
<!-- Node324430&#45;&gt;Node324431 -->
<g id="edge14" class="edge">
<title>Node324430&#45;&gt;Node324431</title>
<path fill="none" stroke="#191970" d="M488.1201,-243.3431C503.5551,-245.3246 521.3312,-247.6067 537.8785,-249.731"/>
<polygon fill="#191970" stroke="#191970" points="537.6265,-253.2273 547.9908,-251.0292 538.5179,-246.2843 537.6265,-253.2273"/>
</g>
<!-- Node324430&#45;&gt;Node324429 -->
<g id="edge15" class="edge">
<title>Node324430&#45;&gt;Node324429</title>
<path fill="none" stroke="#191970" d="M483.8466,-228.411C503.2009,-223.4417 527.0304,-217.3233 547.6126,-212.0387"/>
<polygon fill="#191970" stroke="#191970" points="548.6065,-215.3971 557.4219,-209.5201 546.8656,-208.617 548.6065,-215.3971"/>
</g>
<!-- Node324435&#45;&gt;Node324429 -->
<g id="edge17" class="edge">
<title>Node324435&#45;&gt;Node324429</title>
<path fill="none" stroke="#191970" d="M483.8466,-171.589C503.2009,-176.5583 527.0304,-182.6767 547.6126,-187.9613"/>
<polygon fill="#191970" stroke="#191970" points="546.8656,-191.383 557.4219,-190.4799 548.6065,-184.6029 546.8656,-191.383"/>
</g>
</g>
</svg>
