<?xml version="1.0" encoding="UTF-8" standalone="no"?>
<!DOCTYPE svg PUBLIC "-//W3C//DTD SVG 1.1//EN"
 "http://www.w3.org/Graphics/SVG/1.1/DTD/svg11.dtd">
<!-- Generated by graphviz version 2.40.1 (20161225.0304)
 -->
<!-- Title: js_clone_shape Pages: 1 -->
<!--zoomable 275 -->
<svg id="main" version="1.1" xmlns="http://www.w3.org/2000/svg" xmlns:xlink="http://www.w3.org/1999/xlink" xml:space="preserve" onload="init(evt)">
<style type="text/css"><![CDATA[
.edge:hover path { stroke: red; }
.edge:hover polygon { stroke: red; fill: red; }
]]></style>
<script type="text/javascript"><![CDATA[
var edges = document.getElementsByTagName('g');
if (edges && edges.length) {
  for (var i=0;i<edges.length;i++) {
    if (edges[i].id.substr(0,4)=='edge') {
      edges[i].setAttribute('class','edge');
    }
  }
}
]]></script>
        <defs>
                <circle id="rim" cx="0" cy="0" r="7"/>
                <circle id="rim2" cx="0" cy="0" r="3.5"/>
                <g id="zoomPlus">
                        <use xlink:href="#rim" fill="#404040">
                                <set attributeName="fill" to="#808080" begin="zoomplus.mouseover" end="zoomplus.mouseout"/>
                        </use>
                        <path d="M-4,0h8M0,-4v8" fill="none" stroke="white" stroke-width="1.5" pointer-events="none"/>
                </g>
                <g id="zoomMin">
                        <use xlink:href="#rim" fill="#404040">
                                <set attributeName="fill" to="#808080" begin="zoomminus.mouseover" end="zoomminus.mouseout"/>
                        </use>
                        <path d="M-4,0h8" fill="none" stroke="white" stroke-width="1.5" pointer-events="none"/>
                </g>
                <g id="dirArrow">
                        <path fill="none" stroke="white" stroke-width="1.5" d="M0,-3.0v7 M-2.5,-0.5L0,-3.0L2.5,-0.5"/>
                </g>
               <g id="resetDef">
                       <use xlink:href="#rim2" fill="#404040">
                               <set attributeName="fill" to="#808080" begin="reset.mouseover" end="reset.mouseout"/>
                       </use>
               </g>
        </defs>

<script type="text/javascript">
var viewWidth = 507;
var viewHeight = 275;
var sectionId = 'dynsection-352';
</script>
<script xlink:href="svgpan.js"/>
<svg id="graph" class="graph">
<g id="viewport">
<title>js_clone_shape</title>
<!-- Node112220 -->
<g id="node1" class="node">
<title>Node112220</title>
<polygon fill="#bfbfbf" stroke="#000000" points="0,-133.5 0,-152.5 84,-152.5 84,-133.5 0,-133.5"/>
<text text-anchor="middle" x="42" y="-140.5" font-family="Helvetica,sans-Serif" font-size="10.00" fill="#000000">js_clone_shape</text>
</g>
<!-- Node112221 -->
<g id="node2" class="node">
<title>Node112221</title>
<g id="a_node2"><a xlink:href="quickjs_8c.html#a7da0cfa6f27af0e1b9599d7f359edbe2" target="_top" xlink:title="get_alloc_from_shape">
<polygon fill="none" stroke="#000000" points="120,-247.5 120,-266.5 232,-266.5 232,-247.5 120,-247.5"/>
<text text-anchor="middle" x="176" y="-254.5" font-family="Helvetica,sans-Serif" font-size="10.00" fill="#000000">get_alloc_from_shape</text>
</a>
</g>
</g>
<!-- Node112220&#45;&gt;Node112221 -->
<g id="edge1" class="edge">
<title>Node112220&#45;&gt;Node112221</title>
<path fill="none" stroke="#191970" d="M47.3464,-152.5784C58.4345,-171.5966 85.7784,-214.3244 120,-238 122.744,-239.8984 125.6938,-241.6209 128.7529,-243.1818"/>
<polygon fill="#191970" stroke="#191970" points="127.6047,-246.5024 138.162,-247.3931 130.4644,-240.1132 127.6047,-246.5024"/>
</g>
<!-- Node112222 -->
<g id="node3" class="node">
<title>Node112222</title>
<g id="a_node3"><a xlink:href="quickjs_8c.html#a8b6c89e0f589df709eb31a92b7fac32a" target="_top" xlink:title="get_shape_from_alloc">
<polygon fill="none" stroke="#000000" points="120,-209.5 120,-228.5 232,-228.5 232,-209.5 120,-209.5"/>
<text text-anchor="middle" x="176" y="-216.5" font-family="Helvetica,sans-Serif" font-size="10.00" fill="#000000">get_shape_from_alloc</text>
</a>
</g>
</g>
<!-- Node112220&#45;&gt;Node112222 -->
<g id="edge2" class="edge">
<title>Node112220&#45;&gt;Node112222</title>
<path fill="none" stroke="#191970" d="M52.9102,-152.6574C67.3751,-165.0493 94.1021,-186.5473 120,-200 124.0557,-202.1067 128.3942,-204.0553 132.7945,-205.837"/>
<polygon fill="#191970" stroke="#191970" points="131.8486,-209.2207 142.4406,-209.4676 134.3144,-202.6693 131.8486,-209.2207"/>
</g>
<!-- Node112223 -->
<g id="node4" class="node">
<title>Node112223</title>
<g id="a_node4"><a xlink:href="quickjs_8c.html#a643df594b75933007bcdbb071b5ea8c5" target="_top" xlink:title="get_shape_prop">
<polygon fill="none" stroke="#000000" points="133,-171.5 133,-190.5 219,-190.5 219,-171.5 133,-171.5"/>
<text text-anchor="middle" x="176" y="-178.5" font-family="Helvetica,sans-Serif" font-size="10.00" fill="#000000">get_shape_prop</text>
</a>
</g>
</g>
<!-- Node112220&#45;&gt;Node112223 -->
<g id="edge3" class="edge">
<title>Node112220&#45;&gt;Node112223</title>
<path fill="none" stroke="#191970" d="M75.8139,-152.589C93.0326,-157.4719 114.1637,-163.4643 132.5733,-168.685"/>
<polygon fill="#191970" stroke="#191970" points="131.6214,-172.053 142.197,-171.4141 133.5312,-165.3185 131.6214,-172.053"/>
</g>
<!-- Node112224 -->
<g id="node5" class="node">
<title>Node112224</title>
<g id="a_node5"><a xlink:href="quickjs_8c.html#ab54e821a9b1b55dc16c4494bd410b698" target="_top" xlink:title="get_shape_size">
<polygon fill="none" stroke="#000000" points="133.5,-133.5 133.5,-152.5 218.5,-152.5 218.5,-133.5 133.5,-133.5"/>
<text text-anchor="middle" x="176" y="-140.5" font-family="Helvetica,sans-Serif" font-size="10.00" fill="#000000">get_shape_size</text>
</a>
</g>
</g>
<!-- Node112220&#45;&gt;Node112224 -->
<g id="edge4" class="edge">
<title>Node112220&#45;&gt;Node112224</title>
<path fill="none" stroke="#191970" d="M84.0308,-143C96.3857,-143 110.0625,-143 123.0088,-143"/>
<polygon fill="#191970" stroke="#191970" points="123.1957,-146.5001 133.1957,-143 123.1956,-139.5001 123.1957,-146.5001"/>
</g>
<!-- Node112225 -->
<g id="node6" class="node">
<title>Node112225</title>
<g id="a_node6"><a xlink:href="quickjs_8c.html#abbf44eaeace1104a6bef718fbf5700fe" target="_top" xlink:title="JS_DupAtom">
<polygon fill="none" stroke="#000000" points="138.5,-95.5 138.5,-114.5 213.5,-114.5 213.5,-95.5 138.5,-95.5"/>
<text text-anchor="middle" x="176" y="-102.5" font-family="Helvetica,sans-Serif" font-size="10.00" fill="#000000">JS_DupAtom</text>
</a>
</g>
</g>
<!-- Node112220&#45;&gt;Node112225 -->
<g id="edge5" class="edge">
<title>Node112220&#45;&gt;Node112225</title>
<path fill="none" stroke="#191970" d="M75.8139,-133.411C93.0326,-128.5281 114.1637,-122.5357 132.5733,-117.315"/>
<polygon fill="#191970" stroke="#191970" points="133.5312,-120.6815 142.197,-114.5859 131.6214,-113.947 133.5312,-120.6815"/>
</g>
<!-- Node112227 -->
<g id="node8" class="node">
<title>Node112227</title>
<g id="a_node8"><a xlink:href="quickjs_8h.html#a775522f2d084fc8fa0fcb33f390006b4" target="_top" xlink:title="JS_DupValue">
<polygon fill="none" stroke="#000000" points="137.5,-57.5 137.5,-76.5 214.5,-76.5 214.5,-57.5 137.5,-57.5"/>
<text text-anchor="middle" x="176" y="-64.5" font-family="Helvetica,sans-Serif" font-size="10.00" fill="#000000">JS_DupValue</text>
</a>
</g>
</g>
<!-- Node112220&#45;&gt;Node112227 -->
<g id="edge7" class="edge">
<title>Node112220&#45;&gt;Node112227</title>
<path fill="none" stroke="#191970" d="M52.9102,-133.3426C67.3751,-120.9507 94.1021,-99.4527 120,-86 124.0557,-83.8933 128.3942,-81.9447 132.7945,-80.163"/>
<polygon fill="#191970" stroke="#191970" points="134.3144,-83.3307 142.4406,-76.5324 131.8486,-76.7793 134.3144,-83.3307"/>
</g>
<!-- Node112228 -->
<g id="node9" class="node">
<title>Node112228</title>
<g id="a_node9"><a xlink:href="quickjs_8c.html#a78b7f6b85f2739b551ff54f16156128b" target="_top" xlink:title="js_malloc">
<polygon fill="none" stroke="#000000" points="147,-19.5 147,-38.5 205,-38.5 205,-19.5 147,-19.5"/>
<text text-anchor="middle" x="176" y="-26.5" font-family="Helvetica,sans-Serif" font-size="10.00" fill="#000000">js_malloc</text>
</a>
</g>
</g>
<!-- Node112220&#45;&gt;Node112228 -->
<g id="edge8" class="edge">
<title>Node112220&#45;&gt;Node112228</title>
<path fill="none" stroke="#191970" d="M47.3464,-133.4216C58.4345,-114.4034 85.7784,-71.6756 120,-48 125.2637,-44.3584 131.2848,-41.3637 137.3823,-38.9167"/>
<polygon fill="#191970" stroke="#191970" points="138.6882,-42.1669 146.929,-35.5081 136.3344,-35.5745 138.6882,-42.1669"/>
</g>
<!-- Node112226 -->
<g id="node7" class="node">
<title>Node112226</title>
<g id="a_node7"><a xlink:href="quickjs_8c.html#a7f6796ee7a195631366f57c713a33f65" target="_top" xlink:title="__JS_AtomIsConst">
<polygon fill="none" stroke="#000000" points="278,-95.5 278,-114.5 380,-114.5 380,-95.5 278,-95.5"/>
<text text-anchor="middle" x="329" y="-102.5" font-family="Helvetica,sans-Serif" font-size="10.00" fill="#000000">__JS_AtomIsConst</text>
</a>
</g>
</g>
<!-- Node112225&#45;&gt;Node112226 -->
<g id="edge6" class="edge">
<title>Node112225&#45;&gt;Node112226</title>
<path fill="none" stroke="#191970" d="M213.8202,-105C230.0218,-105 249.3644,-105 267.53,-105"/>
<polygon fill="#191970" stroke="#191970" points="267.764,-108.5001 277.764,-105 267.764,-101.5001 267.764,-108.5001"/>
</g>
<!-- Node112229 -->
<g id="node10" class="node">
<title>Node112229</title>
<g id="a_node10"><a xlink:href="quickjs_8c.html#a4b710876403548c1ad3edc7a7719c559" target="_top" xlink:title="js_malloc_rt">
<polygon fill="none" stroke="#000000" points="294.5,-38.5 294.5,-57.5 363.5,-57.5 363.5,-38.5 294.5,-38.5"/>
<text text-anchor="middle" x="329" y="-45.5" font-family="Helvetica,sans-Serif" font-size="10.00" fill="#000000">js_malloc_rt</text>
</a>
</g>
</g>
<!-- Node112228&#45;&gt;Node112229 -->
<g id="edge9" class="edge">
<title>Node112228&#45;&gt;Node112229</title>
<path fill="none" stroke="#191970" d="M205.1383,-32.6185C227.4658,-35.3912 258.6674,-39.2659 284.168,-42.4326"/>
<polygon fill="#191970" stroke="#191970" points="283.9903,-45.9374 294.3454,-43.6965 284.853,-38.9907 283.9903,-45.9374"/>
</g>
<!-- Node112230 -->
<g id="node11" class="node">
<title>Node112230</title>
<g id="a_node11"><a xlink:href="quickjs_8c.html#a344d6c0e45d9bf3861fd9269724045a2" target="_top" xlink:title="JS_ThrowOutOfMemory">
<polygon fill="none" stroke="#000000" points="268,-.5 268,-19.5 390,-19.5 390,-.5 268,-.5"/>
<text text-anchor="middle" x="329" y="-7.5" font-family="Helvetica,sans-Serif" font-size="10.00" fill="#000000">JS_ThrowOutOfMemory</text>
</a>
</g>
</g>
<!-- Node112228&#45;&gt;Node112230 -->
<g id="edge10" class="edge">
<title>Node112228&#45;&gt;Node112230</title>
<path fill="none" stroke="#191970" d="M205.1383,-25.3815C220.2045,-23.5106 239.3113,-21.1378 257.9806,-18.8194"/>
<polygon fill="#191970" stroke="#191970" points="258.4858,-22.2836 267.9782,-17.5779 257.623,-15.337 258.4858,-22.2836"/>
</g>
<!-- Node112231 -->
<g id="node12" class="node">
<title>Node112231</title>
<g id="a_node12"><a xlink:href="quickjs_8c.html#a853f0924d441ea4225488f37c8b69f9a" target="_top" xlink:title="__attribute__">
<polygon fill="none" stroke="#000000" points="426,-.5 426,-19.5 499,-19.5 499,-.5 426,-.5"/>
<text text-anchor="middle" x="462.5" y="-7.5" font-family="Helvetica,sans-Serif" font-size="10.00" fill="#000000">__attribute__</text>
</a>
</g>
</g>
<!-- Node112230&#45;&gt;Node112231 -->
<g id="edge11" class="edge">
<title>Node112230&#45;&gt;Node112231</title>
<path fill="none" stroke="#191970" d="M390.2799,-10C398.8587,-10 407.5588,-10 415.8083,-10"/>
<polygon fill="#191970" stroke="#191970" points="415.9737,-13.5001 425.9737,-10 415.9736,-6.5001 415.9737,-13.5001"/>
</g>
</g>
</svg>
        <g id="navigator" transform="translate(0 0)" fill="#404254">
                <rect fill="#f2f5e9" fill-opacity="0.5" stroke="#606060" stroke-width=".5" x="0" y="0" width="60" height="60"/>
                <use id="zoomplus" xlink:href="#zoomPlus" x="17" y="9" onmousedown="handleZoom(evt,'in')"/>
                <use id="zoomminus" xlink:href="#zoomMin" x="42" y="9" onmousedown="handleZoom(evt,'out')"/>
                <use id="reset" xlink:href="#resetDef" x="30" y="36" onmousedown="handleReset()"/>
                <g id="arrowUp" xlink:href="#dirArrow" transform="translate(30 24)" onmousedown="handlePan(0,-1)">
                  <use xlink:href="#rim" fill="#404040">
                        <set attributeName="fill" to="#808080" begin="arrowUp.mouseover" end="arrowUp.mouseout"/>
                  </use>
                  <path fill="none" stroke="white" stroke-width="1.5" d="M0,-3.0v7 M-2.5,-0.5L0,-3.0L2.5,-0.5"/>
                </g>
                <g id="arrowRight" xlink:href="#dirArrow" transform="rotate(90) translate(36 -43)" onmousedown="handlePan(1,0)">
                  <use xlink:href="#rim" fill="#404040">
                        <set attributeName="fill" to="#808080" begin="arrowRight.mouseover" end="arrowRight.mouseout"/>
                  </use>
                  <path fill="none" stroke="white" stroke-width="1.5" d="M0,-3.0v7 M-2.5,-0.5L0,-3.0L2.5,-0.5"/>
                </g>
                <g id="arrowDown" xlink:href="#dirArrow" transform="rotate(180) translate(-30 -48)" onmousedown="handlePan(0,1)">
                  <use xlink:href="#rim" fill="#404040">
                        <set attributeName="fill" to="#808080" begin="arrowDown.mouseover" end="arrowDown.mouseout"/>
                  </use>
                  <path fill="none" stroke="white" stroke-width="1.5" d="M0,-3.0v7 M-2.5,-0.5L0,-3.0L2.5,-0.5"/>
                </g>
                <g id="arrowLeft" xlink:href="#dirArrow" transform="rotate(270) translate(-36 17)" onmousedown="handlePan(-1,0)">
                  <use xlink:href="#rim" fill="#404040">
                        <set attributeName="fill" to="#808080" begin="arrowLeft.mouseover" end="arrowLeft.mouseout"/>
                  </use>
                  <path fill="none" stroke="white" stroke-width="1.5" d="M0,-3.0v7 M-2.5,-0.5L0,-3.0L2.5,-0.5"/>
                </g>
        </g>
        <svg viewBox="0 0 15 15" width="100%" height="30px" preserveAspectRatio="xMaxYMin meet">
         <g id="arrow_out" transform="scale(0.3 0.3)">
          <a xlink:href="quickjs_8c_a8e34657169da77ae6a386311351ed3de_cgraph_org.svg" target="_base">
           <rect id="button" ry="5" rx="5" y="6" x="6" height="38" width="38"
                fill="#f2f5e9" fill-opacity="0.5" stroke="#606060" stroke-width="1.0"/>
           <path id="arrow"
             d="M 11.500037,31.436501 C 11.940474,20.09759 22.043105,11.32322 32.158766,21.979434 L 37.068811,17.246167 C 37.068811,17.246167 37.088388,32 37.088388,32 L 22.160133,31.978069 C 22.160133,31.978069 26.997745,27.140456 26.997745,27.140456 C 18.528582,18.264221 13.291696,25.230495 11.500037,31.436501 z"
             style="fill:#404040;"/>
          </a>
         </g>
        </svg>
</svg>
