<?xml version="1.0" encoding="UTF-8" standalone="no"?>
<!DOCTYPE svg PUBLIC "-//W3C//DTD SVG 1.1//EN"
 "http://www.w3.org/Graphics/SVG/1.1/DTD/svg11.dtd">
<!-- Generated by graphviz version 2.40.1 (20161225.0304)
 -->
<!-- Title: js_bigint_toString Pages: 1 -->
<svg width="762pt" height="445pt"
 viewBox="0.00 0.00 762.00 444.65" xmlns="http://www.w3.org/2000/svg" xmlns:xlink="http://www.w3.org/1999/xlink">
<g id="graph0" class="graph" transform="scale(1 1) rotate(0) translate(4 440.6477)">
<title>js_bigint_toString</title>
<!-- Node499206 -->
<g id="node1" class="node">
<title>Node499206</title>
<polygon fill="#bfbfbf" stroke="#000000" points="0,-114.5 0,-133.5 92,-133.5 92,-114.5 0,-114.5"/>
<text text-anchor="middle" x="46" y="-121.5" font-family="Helvetica,sans-Serif" font-size="10.00" fill="#000000">js_bigint_toString</text>
</g>
<!-- Node499207 -->
<g id="node2" class="node">
<title>Node499207</title>
<g id="a_node2"><a xlink:href="quickjs_8c.html#a1c70a5b8ab7b883612cb9dcbd40d1e62" target="_top" xlink:title="js_bigint_to_string1">
<polygon fill="none" stroke="#000000" points="128,-304.5 128,-323.5 229,-323.5 229,-304.5 128,-304.5"/>
<text text-anchor="middle" x="178.5" y="-311.5" font-family="Helvetica,sans-Serif" font-size="10.00" fill="#000000">js_bigint_to_string1</text>
</a>
</g>
</g>
<!-- Node499206&#45;&gt;Node499207 -->
<g id="edge1" class="edge">
<title>Node499206&#45;&gt;Node499207</title>
<path fill="none" stroke="#191970" d="M51.6113,-133.5578C64.4092,-155.1702 97.0469,-209.2463 128,-252 139.245,-267.5321 153.0568,-284.3526 163.392,-296.5496"/>
<polygon fill="#191970" stroke="#191970" points="160.7589,-298.8558 169.9174,-304.1823 166.0795,-294.307 160.7589,-298.8558"/>
</g>
<!-- Node499316 -->
<g id="node9" class="node">
<title>Node499316</title>
<g id="a_node9"><a xlink:href="quickjs_8h.html#afaa20c47565bc704c6c85f3d77254e7d" target="_top" xlink:title="JS_FreeValue">
<polygon fill="none" stroke="#ff0000" points="570.5,-209.5 570.5,-228.5 648.5,-228.5 648.5,-209.5 570.5,-209.5"/>
<text text-anchor="middle" x="609.5" y="-216.5" font-family="Helvetica,sans-Serif" font-size="10.00" fill="#000000">JS_FreeValue</text>
</a>
</g>
</g>
<!-- Node499206&#45;&gt;Node499316 -->
<g id="edge21" class="edge">
<title>Node499206&#45;&gt;Node499316</title>
<path fill="none" stroke="#191970" d="M61.7264,-133.5391C96.7062,-154.1314 184.2474,-202.2397 265,-219 368.2532,-240.4304 492.6951,-232.3408 560.1593,-225.2287"/>
<polygon fill="#191970" stroke="#191970" points="560.9251,-228.666 570.4857,-224.1003 560.1646,-221.7074 560.9251,-228.666"/>
</g>
<!-- Node499376 -->
<g id="node17" class="node">
<title>Node499376</title>
<g id="a_node17"><a xlink:href="quickjs_8h.html#ad80a83d73e9b7d872b88fbf2943aebe9" target="_top" xlink:title="JS_IsException">
<polygon fill="none" stroke="#000000" points="566.5,-95.5 566.5,-114.5 652.5,-114.5 652.5,-95.5 566.5,-95.5"/>
<text text-anchor="middle" x="609.5" y="-102.5" font-family="Helvetica,sans-Serif" font-size="10.00" fill="#000000">JS_IsException</text>
</a>
</g>
</g>
<!-- Node499206&#45;&gt;Node499376 -->
<g id="edge22" class="edge">
<title>Node499206&#45;&gt;Node499376</title>
<path fill="none" stroke="#191970" d="M72.054,-114.423C144.6647,-89.1091 355.0624,-25.1545 524,-67 541.561,-71.3498 543.5257,-78.523 560,-86 564.216,-87.9135 568.686,-89.8085 573.1477,-91.6184"/>
<polygon fill="#191970" stroke="#191970" points="572.2124,-95.0116 582.7994,-95.4189 574.7771,-88.4984 572.2124,-95.0116"/>
</g>
<!-- Node499445 -->
<g id="node18" class="node">
<title>Node499445</title>
<g id="a_node18"><a xlink:href="quickjs_8h.html#a4e407128a9605afb77523e49e9a627fd" target="_top" xlink:title="JS_IsUndefined">
<polygon fill="none" stroke="#000000" points="135.5,-.5 135.5,-19.5 221.5,-19.5 221.5,-.5 135.5,-.5"/>
<text text-anchor="middle" x="178.5" y="-7.5" font-family="Helvetica,sans-Serif" font-size="10.00" fill="#000000">JS_IsUndefined</text>
</a>
</g>
</g>
<!-- Node499206&#45;&gt;Node499445 -->
<g id="edge23" class="edge">
<title>Node499206&#45;&gt;Node499445</title>
<path fill="none" stroke="#191970" d="M52.6987,-114.4683C65.5716,-96.707 95.3931,-58.1641 128,-34 132.9463,-30.3345 138.5412,-27.0121 144.1599,-24.0879"/>
<polygon fill="#191970" stroke="#191970" points="146.0524,-27.0603 153.5277,-19.5522 143.0019,-20.7599 146.0524,-27.0603"/>
</g>
<!-- Node499752 -->
<g id="node19" class="node">
<title>Node499752</title>
<g id="a_node19"><a xlink:href="quickjs_8c.html#a86896e3ba601a0a6116c280fbe7fabfe" target="_top" xlink:title="js_thisBigIntValue">
<polygon fill="none" stroke="#000000" points="278.5,-133.5 278.5,-152.5 373.5,-152.5 373.5,-133.5 278.5,-133.5"/>
<text text-anchor="middle" x="326" y="-140.5" font-family="Helvetica,sans-Serif" font-size="10.00" fill="#000000">js_thisBigIntValue</text>
</a>
</g>
</g>
<!-- Node499206&#45;&gt;Node499752 -->
<g id="edge24" class="edge">
<title>Node499206&#45;&gt;Node499752</title>
<path fill="none" stroke="#191970" d="M92.2363,-127.1375C140.4365,-130.4082 216.0793,-135.5411 268.1944,-139.0775"/>
<polygon fill="#191970" stroke="#191970" points="268.0746,-142.5773 278.2887,-139.7624 268.5486,-135.5934 268.0746,-142.5773"/>
</g>
<!-- Node499754 -->
<g id="node21" class="node">
<title>Node499754</title>
<g id="a_node21"><a xlink:href="quickjs_8c.html#ad698ea01233894f912303776fe3c08c8" target="_top" xlink:title="JS_ToInt32Sat">
<polygon fill="none" stroke="#000000" points="285,-95.5 285,-114.5 367,-114.5 367,-95.5 285,-95.5"/>
<text text-anchor="middle" x="326" y="-102.5" font-family="Helvetica,sans-Serif" font-size="10.00" fill="#000000">JS_ToInt32Sat</text>
</a>
</g>
</g>
<!-- Node499206&#45;&gt;Node499754 -->
<g id="edge28" class="edge">
<title>Node499206&#45;&gt;Node499754</title>
<path fill="none" stroke="#191970" d="M92.2363,-120.8625C142.4752,-117.4535 222.5272,-112.0214 274.6771,-108.4826"/>
<polygon fill="#191970" stroke="#191970" points="274.9779,-111.9704 284.718,-107.8013 274.5039,-104.9864 274.9779,-111.9704"/>
</g>
<!-- Node499208 -->
<g id="node3" class="node">
<title>Node499208</title>
<g id="a_node3"><a xlink:href="libbf_8h.html#ab8c991bf0d1ab72d676d3c9c3d63c2a7" target="_top" xlink:title="bf_free">
<polygon fill="none" stroke="#000000" points="586,-399.5 586,-418.5 633,-418.5 633,-399.5 586,-399.5"/>
<text text-anchor="middle" x="609.5" y="-406.5" font-family="Helvetica,sans-Serif" font-size="10.00" fill="#000000">bf_free</text>
</a>
</g>
</g>
<!-- Node499207&#45;&gt;Node499208 -->
<g id="edge2" class="edge">
<title>Node499207&#45;&gt;Node499208</title>
<path fill="none" stroke="#191970" d="M183.5876,-323.6706C194.9505,-344.0816 224.6033,-391.1487 265,-409 370.1963,-455.4863 511.7328,-432.136 575.6606,-417.636"/>
<polygon fill="#191970" stroke="#191970" points="576.657,-420.9975 585.596,-415.3102 575.0614,-414.1817 576.657,-420.9975"/>
</g>
<!-- Node499210 -->
<g id="node5" class="node">
<title>Node499210</title>
<g id="a_node5"><a xlink:href="libbf_8h.html#a3ab9f99dbc84f8cce63cf3867b8986e5" target="_top" xlink:title="bf_ftoa">
<polygon fill="none" stroke="#000000" points="302.5,-380.5 302.5,-399.5 349.5,-399.5 349.5,-380.5 302.5,-380.5"/>
<text text-anchor="middle" x="326" y="-387.5" font-family="Helvetica,sans-Serif" font-size="10.00" fill="#000000">bf_ftoa</text>
</a>
</g>
</g>
<!-- Node499207&#45;&gt;Node499210 -->
<g id="edge4" class="edge">
<title>Node499207&#45;&gt;Node499210</title>
<path fill="none" stroke="#191970" d="M192.777,-323.5947C209.5958,-334.6562 238.5975,-352.9828 265,-366 273.8453,-370.361 283.6918,-374.5195 292.8483,-378.1131"/>
<polygon fill="#191970" stroke="#191970" points="291.8425,-381.4754 302.4331,-381.7735 294.3399,-374.9361 291.8425,-381.4754"/>
</g>
<!-- Node499315 -->
<g id="node8" class="node">
<title>Node499315</title>
<g id="a_node8"><a xlink:href="quickjs_8c.html#affb3f9a62ad71eeba577ed2ddcf8b2eb" target="_top" xlink:title="JS_FreeBigInt">
<polygon fill="none" stroke="#000000" points="434,-342.5 434,-361.5 513,-361.5 513,-342.5 434,-342.5"/>
<text text-anchor="middle" x="473.5" y="-349.5" font-family="Helvetica,sans-Serif" font-size="10.00" fill="#000000">JS_FreeBigInt</text>
</a>
</g>
</g>
<!-- Node499207&#45;&gt;Node499315 -->
<g id="edge9" class="edge">
<title>Node499207&#45;&gt;Node499315</title>
<path fill="none" stroke="#191970" d="M217.0588,-323.554C231.9589,-326.96 249.1977,-330.5543 265,-333 318.9242,-341.3456 381.3039,-346.437 423.6787,-349.2209"/>
<polygon fill="#191970" stroke="#191970" points="423.5338,-352.7187 433.7365,-349.863 423.9798,-345.7329 423.5338,-352.7187"/>
</g>
<!-- Node499345 -->
<g id="node10" class="node">
<title>Node499345</title>
<g id="a_node10"><a xlink:href="quickjs_8c.html#a0ee6a3654a6016393fac5e1c108f403a" target="_top" xlink:title="JS_NewString">
<polygon fill="none" stroke="#000000" points="286,-304.5 286,-323.5 366,-323.5 366,-304.5 286,-304.5"/>
<text text-anchor="middle" x="326" y="-311.5" font-family="Helvetica,sans-Serif" font-size="10.00" fill="#000000">JS_NewString</text>
</a>
</g>
</g>
<!-- Node499207&#45;&gt;Node499345 -->
<g id="edge12" class="edge">
<title>Node499207&#45;&gt;Node499345</title>
<path fill="none" stroke="#191970" d="M229.2611,-314C244.2923,-314 260.7391,-314 275.7385,-314"/>
<polygon fill="#191970" stroke="#191970" points="275.8564,-317.5001 285.8563,-314 275.8563,-310.5001 275.8564,-317.5001"/>
</g>
<!-- Node499351 -->
<g id="node12" class="node">
<title>Node499351</title>
<g id="a_node12"><a xlink:href="quickjs_8c.html#a344d6c0e45d9bf3861fd9269724045a2" target="_top" xlink:title="JS_ThrowOutOfMemory">
<polygon fill="none" stroke="#ff0000" points="265,-266.5 265,-285.5 387,-285.5 387,-266.5 265,-266.5"/>
<text text-anchor="middle" x="326" y="-273.5" font-family="Helvetica,sans-Serif" font-size="10.00" fill="#000000">JS_ThrowOutOfMemory</text>
</a>
</g>
</g>
<!-- Node499207&#45;&gt;Node499351 -->
<g id="edge14" class="edge">
<title>Node499207&#45;&gt;Node499351</title>
<path fill="none" stroke="#191970" d="M215.7205,-304.411C235.0093,-299.4417 258.7584,-293.3233 279.271,-288.0387"/>
<polygon fill="#191970" stroke="#191970" points="280.2366,-291.4043 289.0472,-285.5201 278.4902,-284.6256 280.2366,-291.4043"/>
</g>
<!-- Node499372 -->
<g id="node13" class="node">
<title>Node499372</title>
<g id="a_node13"><a xlink:href="quickjs_8c.html#a3d056f9f8759c9b3765f4778614b3045" target="_top" xlink:title="JS_ToBigInt">
<polygon fill="none" stroke="#000000" points="290.5,-190.5 290.5,-209.5 361.5,-209.5 361.5,-190.5 290.5,-190.5"/>
<text text-anchor="middle" x="326" y="-197.5" font-family="Helvetica,sans-Serif" font-size="10.00" fill="#000000">JS_ToBigInt</text>
</a>
</g>
</g>
<!-- Node499207&#45;&gt;Node499372 -->
<g id="edge15" class="edge">
<title>Node499207&#45;&gt;Node499372</title>
<path fill="none" stroke="#191970" d="M190.8221,-304.4765C216.1374,-284.9108 274.2315,-240.0109 305.3792,-215.9374"/>
<polygon fill="#191970" stroke="#191970" points="307.6284,-218.6226 313.4003,-209.738 303.3477,-213.084 307.6284,-218.6226"/>
</g>
<!-- Node499209 -->
<g id="node4" class="node">
<title>Node499209</title>
<g id="a_node4"><a xlink:href="libbf_8h.html#a524c9e60866c08c75061626a4b5e2f29" target="_top" xlink:title="bf_realloc">
<polygon fill="none" stroke="#000000" points="695,-380.5 695,-399.5 754,-399.5 754,-380.5 695,-380.5"/>
<text text-anchor="middle" x="724.5" y="-387.5" font-family="Helvetica,sans-Serif" font-size="10.00" fill="#000000">bf_realloc</text>
</a>
</g>
</g>
<!-- Node499208&#45;&gt;Node499209 -->
<g id="edge3" class="edge">
<title>Node499208&#45;&gt;Node499209</title>
<path fill="none" stroke="#191970" d="M633.0495,-405.1092C647.8512,-402.6637 667.3292,-399.4456 684.5041,-396.608"/>
<polygon fill="#191970" stroke="#191970" points="685.5422,-399.984 694.8379,-394.9007 684.4011,-393.0777 685.5422,-399.984"/>
</g>
<!-- Node499211 -->
<g id="node6" class="node">
<title>Node499211</title>
<g id="a_node6"><a xlink:href="libbf_8c.html#ad79aefc435021a0743c89cb4aec7fa56" target="_top" xlink:title="bf_ftoa_internal">
<polygon fill="none" stroke="#ff0000" points="432,-380.5 432,-399.5 515,-399.5 515,-380.5 432,-380.5"/>
<text text-anchor="middle" x="473.5" y="-387.5" font-family="Helvetica,sans-Serif" font-size="10.00" fill="#000000">bf_ftoa_internal</text>
</a>
</g>
</g>
<!-- Node499210&#45;&gt;Node499211 -->
<g id="edge5" class="edge">
<title>Node499210&#45;&gt;Node499211</title>
<path fill="none" stroke="#191970" d="M349.6984,-390C369.08,-390 397.1938,-390 421.7336,-390"/>
<polygon fill="#191970" stroke="#191970" points="421.996,-393.5001 431.9959,-390 421.9959,-386.5001 421.996,-393.5001"/>
</g>
<!-- Node499211&#45;&gt;Node499208 -->
<g id="edge8" class="edge">
<title>Node499211&#45;&gt;Node499208</title>
<path fill="none" stroke="#191970" d="M515.0435,-395.8039C534.5937,-398.5351 557.6005,-401.7493 576.0133,-404.3217"/>
<polygon fill="#191970" stroke="#191970" points="575.602,-407.7982 585.9901,-405.7155 576.5706,-400.8655 575.602,-407.7982"/>
</g>
<!-- Node499217 -->
<g id="node7" class="node">
<title>Node499217</title>
<g id="a_node7"><a xlink:href="libbf_8h.html#a2b9d906b21e903f2f7f1c9044674ab7d" target="_top" xlink:title="bf_delete">
<polygon fill="none" stroke="#000000" points="581.5,-361.5 581.5,-380.5 637.5,-380.5 637.5,-361.5 581.5,-361.5"/>
<text text-anchor="middle" x="609.5" y="-368.5" font-family="Helvetica,sans-Serif" font-size="10.00" fill="#000000">bf_delete</text>
</a>
</g>
</g>
<!-- Node499211&#45;&gt;Node499217 -->
<g id="edge6" class="edge">
<title>Node499211&#45;&gt;Node499217</title>
<path fill="none" stroke="#191970" d="M515.0435,-384.1961C532.7683,-381.7199 553.3345,-378.8467 570.7423,-376.4147"/>
<polygon fill="#191970" stroke="#191970" points="571.6998,-379.815 581.1193,-374.965 570.7312,-372.8823 571.6998,-379.815"/>
</g>
<!-- Node499217&#45;&gt;Node499209 -->
<g id="edge7" class="edge">
<title>Node499217&#45;&gt;Node499209</title>
<path fill="none" stroke="#191970" d="M637.6322,-375.6479C651.8144,-377.9911 669.2548,-380.8725 684.778,-383.4372"/>
<polygon fill="#191970" stroke="#191970" points="684.2117,-386.891 694.6485,-385.068 685.3528,-379.9847 684.2117,-386.891"/>
</g>
<!-- Node499315&#45;&gt;Node499217 -->
<g id="edge10" class="edge">
<title>Node499315&#45;&gt;Node499217</title>
<path fill="none" stroke="#191970" d="M513.2024,-357.5467C531.5077,-360.104 553.1427,-363.1266 571.2643,-365.6582"/>
<polygon fill="#191970" stroke="#191970" points="570.8126,-369.1291 581.2007,-367.0464 571.7812,-362.1964 570.8126,-369.1291"/>
</g>
<!-- Node499315&#45;&gt;Node499316 -->
<g id="edge11" class="edge">
<title>Node499315&#45;&gt;Node499316</title>
<path fill="none" stroke="#191970" d="M506.9594,-342.4937C512.9528,-339.9545 518.9044,-336.8223 524,-333 558.7881,-306.9049 586.1137,-262.897 599.8231,-237.8792"/>
<polygon fill="#191970" stroke="#191970" points="603.0909,-239.1887 604.6981,-228.7164 596.9111,-235.9007 603.0909,-239.1887"/>
</g>
<!-- Node499346 -->
<g id="node11" class="node">
<title>Node499346</title>
<g id="a_node11"><a xlink:href="quickjs_8c.html#ac34cc554aab1e98c45a7f845fff64385" target="_top" xlink:title="JS_NewStringLen">
<polygon fill="none" stroke="#ff0000" points="426,-304.5 426,-323.5 521,-323.5 521,-304.5 426,-304.5"/>
<text text-anchor="middle" x="473.5" y="-311.5" font-family="Helvetica,sans-Serif" font-size="10.00" fill="#000000">JS_NewStringLen</text>
</a>
</g>
</g>
<!-- Node499345&#45;&gt;Node499346 -->
<g id="edge13" class="edge">
<title>Node499345&#45;&gt;Node499346</title>
<path fill="none" stroke="#191970" d="M366.305,-314C381.5625,-314 399.2429,-314 415.791,-314"/>
<polygon fill="#191970" stroke="#191970" points="415.9165,-317.5001 425.9164,-314 415.9164,-310.5001 415.9165,-317.5001"/>
</g>
<!-- Node499356 -->
<g id="node14" class="node">
<title>Node499356</title>
<g id="a_node14"><a xlink:href="quickjs_8h.html#a775522f2d084fc8fa0fcb33f390006b4" target="_top" xlink:title="JS_DupValue">
<polygon fill="none" stroke="#000000" points="435,-114.5 435,-133.5 512,-133.5 512,-114.5 435,-114.5"/>
<text text-anchor="middle" x="473.5" y="-121.5" font-family="Helvetica,sans-Serif" font-size="10.00" fill="#000000">JS_DupValue</text>
</a>
</g>
</g>
<!-- Node499372&#45;&gt;Node499356 -->
<g id="edge16" class="edge">
<title>Node499372&#45;&gt;Node499356</title>
<path fill="none" stroke="#191970" d="M340.6852,-190.2931C359.3178,-178.2324 392.684,-157.4788 423,-143 427.1538,-141.0162 431.5736,-139.0939 436.0044,-137.2826"/>
<polygon fill="#191970" stroke="#191970" points="437.5885,-140.421 445.6223,-133.5138 435.0346,-133.9035 437.5885,-140.421"/>
</g>
<!-- Node499373 -->
<g id="node15" class="node">
<title>Node499373</title>
<g id="a_node15"><a xlink:href="quickjs_8c.html#a3edc603bab6d2519f647b4762a5dad09" target="_top" xlink:title="JS_ToBigIntFree">
<polygon fill="none" stroke="#ff0000" points="428.5,-190.5 428.5,-209.5 518.5,-209.5 518.5,-190.5 428.5,-190.5"/>
<text text-anchor="middle" x="473.5" y="-197.5" font-family="Helvetica,sans-Serif" font-size="10.00" fill="#000000">JS_ToBigIntFree</text>
</a>
</g>
</g>
<!-- Node499372&#45;&gt;Node499373 -->
<g id="edge17" class="edge">
<title>Node499372&#45;&gt;Node499373</title>
<path fill="none" stroke="#191970" d="M361.7056,-200C378.6893,-200 399.3798,-200 418.3219,-200"/>
<polygon fill="#191970" stroke="#191970" points="418.3338,-203.5001 428.3338,-200 418.3338,-196.5001 418.3338,-203.5001"/>
</g>
<!-- Node499373&#45;&gt;Node499316 -->
<g id="edge19" class="edge">
<title>Node499373&#45;&gt;Node499316</title>
<path fill="none" stroke="#191970" d="M518.786,-206.3267C532.0862,-208.1848 546.6962,-210.2259 560.2321,-212.117"/>
<polygon fill="#191970" stroke="#191970" points="559.9461,-215.6109 570.3342,-213.5283 560.9147,-208.6783 559.9461,-215.6109"/>
</g>
<!-- Node499375 -->
<g id="node16" class="node">
<title>Node499375</title>
<g id="a_node16"><a xlink:href="quickjs_8c.html#aaaa960ff4bdf4b4dd3017b555844c397" target="_top" xlink:title="is_bigint_mode">
<polygon fill="none" stroke="#000000" points="568.5,-152.5 568.5,-171.5 650.5,-171.5 650.5,-152.5 568.5,-152.5"/>
<text text-anchor="middle" x="609.5" y="-159.5" font-family="Helvetica,sans-Serif" font-size="10.00" fill="#000000">is_bigint_mode</text>
</a>
</g>
</g>
<!-- Node499373&#45;&gt;Node499375 -->
<g id="edge18" class="edge">
<title>Node499373&#45;&gt;Node499375</title>
<path fill="none" stroke="#191970" d="M507.8185,-190.411C525.2943,-185.5281 546.7407,-179.5357 565.4251,-174.315"/>
<polygon fill="#191970" stroke="#191970" points="566.5032,-177.6479 575.1924,-171.5859 564.6194,-170.9062 566.5032,-177.6479"/>
</g>
<!-- Node499373&#45;&gt;Node499376 -->
<g id="edge20" class="edge">
<title>Node499373&#45;&gt;Node499376</title>
<path fill="none" stroke="#191970" d="M505.5552,-190.4452C511.9284,-187.8658 518.3813,-184.7307 524,-181 543.3812,-168.1313 542.7194,-158.5761 560,-143 568.5705,-135.2749 578.577,-127.4007 587.3414,-120.8384"/>
<polygon fill="#191970" stroke="#191970" points="589.612,-123.5131 595.5926,-114.7676 585.4636,-117.8747 589.612,-123.5131"/>
</g>
<!-- Node499752&#45;&gt;Node499356 -->
<g id="edge25" class="edge">
<title>Node499752&#45;&gt;Node499356</title>
<path fill="none" stroke="#191970" d="M373.889,-136.8312C390.036,-134.7513 408.0766,-132.4274 424.3215,-130.3349"/>
<polygon fill="#191970" stroke="#191970" points="425.2285,-133.747 434.6994,-128.998 424.3342,-126.8044 425.2285,-133.747"/>
</g>
<!-- Node499753 -->
<g id="node20" class="node">
<title>Node499753</title>
<g id="a_node20"><a xlink:href="quickjs_8c.html#a3f02b9c9e45decfdd669d203d9a00eca" target="_top" xlink:title="JS_IsBigInt">
<polygon fill="none" stroke="#000000" points="439.5,-152.5 439.5,-171.5 507.5,-171.5 507.5,-152.5 439.5,-152.5"/>
<text text-anchor="middle" x="473.5" y="-159.5" font-family="Helvetica,sans-Serif" font-size="10.00" fill="#000000">JS_IsBigInt</text>
</a>
</g>
</g>
<!-- Node499752&#45;&gt;Node499753 -->
<g id="edge26" class="edge">
<title>Node499752&#45;&gt;Node499753</title>
<path fill="none" stroke="#191970" d="M373.889,-149.1688C391.7499,-151.4695 411.9278,-154.0687 429.4293,-156.3231"/>
<polygon fill="#191970" stroke="#191970" points="429.0217,-159.7994 439.3869,-157.6058 429.9161,-152.8568 429.0217,-159.7994"/>
</g>
<!-- Node499753&#45;&gt;Node499375 -->
<g id="edge27" class="edge">
<title>Node499753&#45;&gt;Node499375</title>
<path fill="none" stroke="#191970" d="M507.8185,-162C523.067,-162 541.3386,-162 558.1605,-162"/>
<polygon fill="#191970" stroke="#191970" points="558.4073,-165.5001 568.4073,-162 558.4072,-158.5001 558.4073,-165.5001"/>
</g>
<!-- Node499754&#45;&gt;Node499356 -->
<g id="edge29" class="edge">
<title>Node499754&#45;&gt;Node499356</title>
<path fill="none" stroke="#191970" d="M367.087,-110.2926C384.9958,-112.5995 406.1249,-115.3212 424.816,-117.7288"/>
<polygon fill="#191970" stroke="#191970" points="424.548,-121.2232 434.9132,-119.0295 425.4423,-114.2805 424.548,-121.2232"/>
</g>
<!-- Node499755 -->
<g id="node22" class="node">
<title>Node499755</title>
<g id="a_node22"><a xlink:href="quickjs_8c.html#a419bec82cb80e98e08626a9a5212ec4c" target="_top" xlink:title="JS_ToInt32SatFree">
<polygon fill="none" stroke="#000000" points="423,-76.5 423,-95.5 524,-95.5 524,-76.5 423,-76.5"/>
<text text-anchor="middle" x="473.5" y="-83.5" font-family="Helvetica,sans-Serif" font-size="10.00" fill="#000000">JS_ToInt32SatFree</text>
</a>
</g>
</g>
<!-- Node499754&#45;&gt;Node499755 -->
<g id="edge30" class="edge">
<title>Node499754&#45;&gt;Node499755</title>
<path fill="none" stroke="#191970" d="M367.087,-99.7074C381.2818,-97.879 397.4997,-95.7899 412.9232,-93.8031"/>
<polygon fill="#191970" stroke="#191970" points="413.4437,-97.2651 422.9146,-92.5161 412.5494,-90.3224 413.4437,-97.2651"/>
</g>
<!-- Node499755&#45;&gt;Node499316 -->
<g id="edge32" class="edge">
<title>Node499755&#45;&gt;Node499316</title>
<path fill="none" stroke="#191970" d="M509.4474,-95.5408C514.7286,-98.0249 519.7963,-101.1296 524,-105 551.4962,-130.316 536.521,-151.9195 560,-181 566.9419,-189.5981 576.2103,-197.3772 584.8491,-203.6249"/>
<polygon fill="#191970" stroke="#191970" points="582.9433,-206.562 593.1686,-209.3359 586.9049,-200.7908 582.9433,-206.562"/>
</g>
<!-- Node499755&#45;&gt;Node499375 -->
<g id="edge31" class="edge">
<title>Node499755&#45;&gt;Node499375</title>
<path fill="none" stroke="#191970" d="M502.3031,-95.5421C509.5279,-98.2852 517.1654,-101.4944 524,-105 547.1706,-116.8846 571.7154,-133.7479 588.5341,-146.0484"/>
<polygon fill="#191970" stroke="#191970" points="586.9097,-149.2015 597.0252,-152.352 591.0822,-143.581 586.9097,-149.2015"/>
</g>
<!-- Node499755&#45;&gt;Node499376 -->
<g id="edge33" class="edge">
<title>Node499755&#45;&gt;Node499376</title>
<path fill="none" stroke="#191970" d="M524.1414,-93.0749C534.6718,-94.5461 545.7975,-96.1004 556.4132,-97.5835"/>
<polygon fill="#191970" stroke="#191970" points="556.0106,-101.0611 566.3987,-98.9785 556.9792,-94.1285 556.0106,-101.0611"/>
</g>
<!-- Node499441 -->
<g id="node23" class="node">
<title>Node499441</title>
<g id="a_node23"><a xlink:href="quickjs_8c.html#ae738291483438efefca5c9fa4d269504" target="_top" xlink:title="JS_ToNumberFree">
<polygon fill="none" stroke="#ff0000" points="560,-57.5 560,-76.5 659,-76.5 659,-57.5 560,-57.5"/>
<text text-anchor="middle" x="609.5" y="-64.5" font-family="Helvetica,sans-Serif" font-size="10.00" fill="#000000">JS_ToNumberFree</text>
</a>
</g>
</g>
<!-- Node499755&#45;&gt;Node499441 -->
<g id="edge34" class="edge">
<title>Node499755&#45;&gt;Node499441</title>
<path fill="none" stroke="#191970" d="M524.1414,-78.9251C532.5006,-77.7573 541.2349,-76.537 549.7914,-75.3416"/>
<polygon fill="#191970" stroke="#191970" points="550.3017,-78.8044 559.7212,-73.9544 549.3331,-71.8718 550.3017,-78.8044"/>
</g>
</g>
</svg>
