<?xml version="1.0" encoding="UTF-8" standalone="no"?>
<!DOCTYPE svg PUBLIC "-//W3C//DTD SVG 1.1//EN"
 "http://www.w3.org/Graphics/SVG/1.1/DTD/svg11.dtd">
<!-- Generated by graphviz version 2.40.1 (20161225.0304)
 -->
<!-- Title: pop_break_entry Pages: 1 -->
<svg width="668pt" height="221pt"
 viewBox="0.00 0.00 668.00 220.82" xmlns="http://www.w3.org/2000/svg" xmlns:xlink="http://www.w3.org/1999/xlink">
<g id="graph0" class="graph" transform="scale(1 1) rotate(0) translate(4 216.8201)">
<title>pop_break_entry</title>
<!-- Node288852 -->
<g id="node1" class="node">
<title>Node288852</title>
<polygon fill="#bfbfbf" stroke="#000000" points="0,-66.5 0,-85.5 89,-85.5 89,-66.5 0,-66.5"/>
<text text-anchor="middle" x="44.5" y="-73.5" font-family="Helvetica,sans-Serif" font-size="10.00" fill="#000000">pop_break_entry</text>
</g>
<!-- Node288853 -->
<g id="node2" class="node">
<title>Node288853</title>
<g id="a_node2"><a xlink:href="quickjs_8c.html#aff9f2e2a1548acfc8307a4070bb444ec" target="_top" xlink:title="js_parse_destructing\l_element">
<polygon fill="none" stroke="#000000" points="125,-61 125,-91 232,-91 232,-61 125,-61"/>
<text text-anchor="start" x="133" y="-79" font-family="Helvetica,sans-Serif" font-size="10.00" fill="#000000">js_parse_destructing</text>
<text text-anchor="middle" x="178.5" y="-68" font-family="Helvetica,sans-Serif" font-size="10.00" fill="#000000">_element</text>
</a>
</g>
</g>
<!-- Node288852&#45;&gt;Node288853 -->
<g id="edge1" class="edge">
<title>Node288852&#45;&gt;Node288853</title>
<path fill="none" stroke="#191970" d="M99.2316,-76C107.661,-76 116.3588,-76 124.7662,-76"/>
<polygon fill="#191970" stroke="#191970" points="99.1201,-72.5001 89.1201,-76 99.12,-79.5001 99.1201,-72.5001"/>
</g>
<!-- Node288856 -->
<g id="node5" class="node">
<title>Node288856</title>
<g id="a_node5"><a xlink:href="quickjs_8c.html#a9d844c16dcc71701436848074337d32c" target="_top" xlink:title="js_parse_statement\l_or_decl">
<polygon fill="none" stroke="#ff0000" points="558,-127 558,-157 660,-157 660,-127 558,-127"/>
<text text-anchor="start" x="566" y="-145" font-family="Helvetica,sans-Serif" font-size="10.00" fill="#000000">js_parse_statement</text>
<text text-anchor="middle" x="609" y="-134" font-family="Helvetica,sans-Serif" font-size="10.00" fill="#000000">_or_decl</text>
</a>
</g>
</g>
<!-- Node288852&#45;&gt;Node288856 -->
<g id="edge21" class="edge">
<title>Node288852&#45;&gt;Node288856</title>
<path fill="none" stroke="#191970" d="M64.7334,-91.8178C102.2361,-120.0147 186.1925,-177.976 268,-199 377.7454,-227.2039 412.9098,-207.6404 522,-177 540.4954,-171.8051 560.4247,-163.9631 576.5364,-157.0179"/>
<polygon fill="#191970" stroke="#191970" points="66.7093,-88.923 56.6345,-85.6445 62.4658,-94.4902 66.7093,-88.923"/>
</g>
<!-- Node288858 -->
<g id="node7" class="node">
<title>Node288858</title>
<g id="a_node7"><a xlink:href="quickjs_8c.html#ac188b916dd086803591a67de7e7a85f6" target="_top" xlink:title="js_parse_for_in_of">
<polygon fill="none" stroke="#000000" points="426,-.5 426,-19.5 522,-19.5 522,-.5 426,-.5"/>
<text text-anchor="middle" x="474" y="-7.5" font-family="Helvetica,sans-Serif" font-size="10.00" fill="#000000">js_parse_for_in_of</text>
</a>
</g>
</g>
<!-- Node288852&#45;&gt;Node288858 -->
<g id="edge20" class="edge">
<title>Node288852&#45;&gt;Node288858</title>
<path fill="none" stroke="#191970" d="M84.988,-63.4034C97.7847,-59.4282 111.982,-55.0242 125,-51 188.5299,-31.3613 202.2432,-16.8877 268,-7 321.6194,1.0626 335.7864,-6.0322 390,-7 401.5263,-7.2058 413.9381,-7.5702 425.5911,-7.9758"/>
<polygon fill="#191970" stroke="#191970" points="83.5856,-60.174 75.0748,-66.4841 85.663,-66.8587 83.5856,-60.174"/>
</g>
<!-- Node288853&#45;&gt;Node288853 -->
<g id="edge2" class="edge">
<title>Node288853&#45;&gt;Node288853</title>
<path fill="none" stroke="#191970" d="M154.6898,-101.4579C157.645,-106.179 165.5817,-109.5 178.5,-109.5 199.6992,-109.5 207.4833,-100.5566 201.8523,-91.159"/>
<polygon fill="#191970" stroke="#191970" points="158.2,-101.3046 155.1477,-91.159 151.2069,-100.9936 158.2,-101.3046"/>
</g>
<!-- Node288854 -->
<g id="node3" class="node">
<title>Node288854</title>
<g id="a_node3"><a xlink:href="quickjs_8c.html#acdcc62310b4f6f73fa7bc7267b18b1d4" target="_top" xlink:title="js_parse_postfix_expr">
<polygon fill="none" stroke="#000000" points="273,-38.5 273,-57.5 385,-57.5 385,-38.5 273,-38.5"/>
<text text-anchor="middle" x="329" y="-45.5" font-family="Helvetica,sans-Serif" font-size="10.00" fill="#000000">js_parse_postfix_expr</text>
</a>
</g>
</g>
<!-- Node288853&#45;&gt;Node288854 -->
<g id="edge3" class="edge">
<title>Node288853&#45;&gt;Node288854</title>
<path fill="none" stroke="#191970" d="M235.4299,-58.8394C247.7282,-56.3039 260.7215,-53.8928 272.9844,-51.8714"/>
<polygon fill="#191970" stroke="#191970" points="234.3485,-55.491 225.2942,-60.9928 235.8032,-62.3382 234.3485,-55.491"/>
</g>
<!-- Node288853&#45;&gt;Node288856 -->
<g id="edge17" class="edge">
<title>Node288853&#45;&gt;Node288856</title>
<path fill="none" stroke="#191970" d="M209.29,-96.3799C225.9481,-106.2937 247.3038,-117.2809 268,-123 367.8718,-150.5983 490.2897,-149.3718 557.9361,-145.8132"/>
<polygon fill="#191970" stroke="#191970" points="210.9075,-93.2661 200.5529,-91.0229 207.2486,-99.2338 210.9075,-93.2661"/>
</g>
<!-- Node288853&#45;&gt;Node288858 -->
<g id="edge16" class="edge">
<title>Node288853&#45;&gt;Node288858</title>
<path fill="none" stroke="#191970" d="M210.0707,-55.5193C226.6489,-45.7951 247.6951,-35.0099 268,-29 320.5193,-13.4554 383.5684,-9.6883 425.9649,-9.1832"/>
<polygon fill="#191970" stroke="#191970" points="208.1099,-52.6145 201.3533,-60.7754 211.7243,-58.6091 208.1099,-52.6145"/>
</g>
<!-- Node288883 -->
<g id="node8" class="node">
<title>Node288883</title>
<g id="a_node8"><a xlink:href="quickjs_8c.html#a42924858317b848c3aea0a0a978fab3a" target="_top" xlink:title="js_parse_var">
<polygon fill="none" stroke="#ff0000" points="293,-170.5 293,-189.5 365,-189.5 365,-170.5 293,-170.5"/>
<text text-anchor="middle" x="329" y="-177.5" font-family="Helvetica,sans-Serif" font-size="10.00" fill="#000000">js_parse_var</text>
</a>
</g>
</g>
<!-- Node288853&#45;&gt;Node288883 -->
<g id="edge14" class="edge">
<title>Node288853&#45;&gt;Node288883</title>
<path fill="none" stroke="#191970" d="M199.3288,-98.5794C216.4328,-116.0838 241.9953,-139.9802 268,-156 277.3988,-161.79 288.4328,-166.6379 298.5135,-170.4264"/>
<polygon fill="#191970" stroke="#191970" points="201.5427,-95.8314 192.0943,-91.0379 196.4912,-100.6773 201.5427,-95.8314"/>
</g>
<!-- Node288861 -->
<g id="node9" class="node">
<title>Node288861</title>
<g id="a_node9"><a xlink:href="quickjs_8c.html#acc9eb677cab8dfcf45f59381f8a19601" target="_top" xlink:title="js_parse_function_decl2">
<polygon fill="none" stroke="#ff0000" points="268,-94.5 268,-113.5 390,-113.5 390,-94.5 268,-94.5"/>
<text text-anchor="middle" x="329" y="-101.5" font-family="Helvetica,sans-Serif" font-size="10.00" fill="#000000">js_parse_function_decl2</text>
</a>
</g>
</g>
<!-- Node288853&#45;&gt;Node288861 -->
<g id="edge18" class="edge">
<title>Node288853&#45;&gt;Node288861</title>
<path fill="none" stroke="#191970" d="M242.5956,-87.9248C254.3294,-90.1078 266.4333,-92.3597 277.7317,-94.4617"/>
<polygon fill="#191970" stroke="#191970" points="242.8804,-84.4178 232.4089,-86.0296 241.6,-91.2997 242.8804,-84.4178"/>
</g>
<!-- Node288854&#45;&gt;Node288853 -->
<g id="edge8" class="edge">
<title>Node288854&#45;&gt;Node288853</title>
<path fill="none" stroke="#191970" d="M295.1392,-60.0449C276.6538,-64.4862 253.3316,-69.0777 232.4089,-72.4731"/>
<polygon fill="#191970" stroke="#191970" points="296.0194,-63.4326 304.8652,-57.6015 294.3138,-56.6435 296.0194,-63.4326"/>
</g>
<!-- Node288854&#45;&gt;Node288854 -->
<g id="edge9" class="edge">
<title>Node288854&#45;&gt;Node288854</title>
<path fill="none" stroke="#191970" d="M302.1208,-66.6539C303.2444,-71.9368 312.2041,-76 329,-76 354.5938,-76 361.9919,-66.5653 351.1946,-57.7571"/>
<polygon fill="#191970" stroke="#191970" points="305.2433,-68.2361 306.8054,-57.7571 299.0494,-64.9747 305.2433,-68.2361"/>
</g>
<!-- Node288855 -->
<g id="node4" class="node">
<title>Node288855</title>
<g id="a_node4"><a xlink:href="quickjs_8c.html#a00eb789430243c24dab4a63ad6a79653" target="_top" xlink:title="js_parse_class">
<polygon fill="none" stroke="#ff0000" points="433,-94.5 433,-113.5 515,-113.5 515,-94.5 433,-94.5"/>
<text text-anchor="middle" x="474" y="-101.5" font-family="Helvetica,sans-Serif" font-size="10.00" fill="#000000">js_parse_class</text>
</a>
</g>
</g>
<!-- Node288854&#45;&gt;Node288855 -->
<g id="edge4" class="edge">
<title>Node288854&#45;&gt;Node288855</title>
<path fill="none" stroke="#191970" d="M379.2176,-60.9361C407.7176,-71.1743 441.3062,-84.8969 459.87,-94.3362"/>
<polygon fill="#191970" stroke="#191970" points="380.3713,-57.6317 369.7765,-57.6088 378.0445,-64.2338 380.3713,-57.6317"/>
</g>
<!-- Node288870 -->
<g id="node6" class="node">
<title>Node288870</title>
<g id="a_node6"><a xlink:href="quickjs_8c.html#af99673e7430294cf15dc24dc5dac227f" target="_top" xlink:title="js_parse_unary">
<polygon fill="none" stroke="#ff0000" points="432.5,-38.5 432.5,-57.5 515.5,-57.5 515.5,-38.5 432.5,-38.5"/>
<text text-anchor="middle" x="474" y="-45.5" font-family="Helvetica,sans-Serif" font-size="10.00" fill="#000000">js_parse_unary</text>
</a>
</g>
</g>
<!-- Node288854&#45;&gt;Node288870 -->
<g id="edge10" class="edge">
<title>Node288854&#45;&gt;Node288870</title>
<path fill="none" stroke="#191970" d="M395.1624,-48C407.8657,-48 420.8305,-48 432.4807,-48"/>
<polygon fill="#191970" stroke="#191970" points="395.0608,-44.5001 385.0608,-48 395.0608,-51.5001 395.0608,-44.5001"/>
</g>
<!-- Node288854&#45;&gt;Node288858 -->
<g id="edge12" class="edge">
<title>Node288854&#45;&gt;Node288858</title>
<path fill="none" stroke="#191970" d="M375.4928,-35.8157C395.6237,-30.54 418.8383,-24.4562 437.6735,-19.5201"/>
<polygon fill="#191970" stroke="#191970" points="374.3757,-32.4902 365.5896,-38.411 376.1503,-39.2615 374.3757,-32.4902"/>
</g>
<!-- Node288855&#45;&gt;Node288854 -->
<g id="edge5" class="edge">
<title>Node288855&#45;&gt;Node288854</title>
<path fill="none" stroke="#191970" d="M423.8568,-91.0906C395.2245,-80.8078 361.4354,-66.9991 342.9032,-57.5483"/>
<polygon fill="#191970" stroke="#191970" points="422.7449,-94.4097 433.3397,-94.4313 425.0708,-87.8074 422.7449,-94.4097"/>
</g>
<!-- Node288855&#45;&gt;Node288856 -->
<g id="edge6" class="edge">
<title>Node288855&#45;&gt;Node288856</title>
<path fill="none" stroke="#191970" d="M517.9622,-116.3746C530.6945,-119.9585 544.7041,-123.9019 557.836,-127.5983"/>
<polygon fill="#191970" stroke="#191970" points="518.6405,-112.9295 508.0662,-113.589 516.7438,-119.6677 518.6405,-112.9295"/>
</g>
<!-- Node288856&#45;&gt;Node288856 -->
<g id="edge7" class="edge">
<title>Node288856&#45;&gt;Node288856</title>
<path fill="none" stroke="#191970" d="M585.1898,-167.4579C588.145,-172.179 596.0817,-175.5 609,-175.5 630.1992,-175.5 637.9833,-166.5566 632.3523,-157.159"/>
<polygon fill="#191970" stroke="#191970" points="588.7,-167.3046 585.6477,-157.159 581.7069,-166.9936 588.7,-167.3046"/>
</g>
<!-- Node288870&#45;&gt;Node288870 -->
<g id="edge11" class="edge">
<title>Node288870&#45;&gt;Node288870</title>
<path fill="none" stroke="#191970" d="M449.0745,-67.0292C450.4341,-72.128 458.7426,-76 474,-76 497.8164,-76 504.7008,-66.5653 494.6533,-57.7571"/>
<polygon fill="#191970" stroke="#191970" points="452.3407,-68.304 453.3467,-57.7571 445.9831,-65.3747 452.3407,-68.304"/>
</g>
<!-- Node288858&#45;&gt;Node288856 -->
<g id="edge13" class="edge">
<title>Node288858&#45;&gt;Node288856</title>
<path fill="none" stroke="#191970" d="M514.4811,-24.1079C517.1163,-25.6018 519.6514,-27.2301 522,-29 558.3824,-56.4172 587.4095,-102.7982 600.8592,-126.7187"/>
<polygon fill="#191970" stroke="#191970" points="515.7752,-20.8429 505.2613,-19.5356 512.6651,-27.1141 515.7752,-20.8429"/>
</g>
<!-- Node288883&#45;&gt;Node288856 -->
<g id="edge15" class="edge">
<title>Node288883&#45;&gt;Node288856</title>
<path fill="none" stroke="#191970" d="M375.3675,-174.7065C414.5014,-170.1257 471.9837,-163.1318 522,-156 533.6619,-154.3371 546.1792,-152.408 557.9824,-150.5233"/>
<polygon fill="#191970" stroke="#191970" points="374.8622,-171.2416 365.3343,-175.8751 375.6721,-178.1946 374.8622,-171.2416"/>
</g>
<!-- Node288861&#45;&gt;Node288855 -->
<g id="edge19" class="edge">
<title>Node288861&#45;&gt;Node288855</title>
<path fill="none" stroke="#191970" d="M400.2663,-104C411.4107,-104 422.594,-104 432.7625,-104"/>
<polygon fill="#191970" stroke="#191970" points="400.0728,-100.5001 390.0728,-104 400.0728,-107.5001 400.0728,-100.5001"/>
</g>
</g>
</svg>
