<?xml version="1.0" encoding="UTF-8" standalone="no"?>
<!DOCTYPE svg PUBLIC "-//W3C//DTD SVG 1.1//EN"
 "http://www.w3.org/Graphics/SVG/1.1/DTD/svg11.dtd">
<!-- Generated by graphviz version 2.40.1 (20161225.0304)
 -->
<!-- Title: get_proxy_method Pages: 1 -->
<!--zoomable 508 -->
<svg id="main" version="1.1" xmlns="http://www.w3.org/2000/svg" xmlns:xlink="http://www.w3.org/1999/xlink" xml:space="preserve" onload="init(evt)">
<style type="text/css"><![CDATA[
.edge:hover path { stroke: red; }
.edge:hover polygon { stroke: red; fill: red; }
]]></style>
<script type="text/javascript"><![CDATA[
var edges = document.getElementsByTagName('g');
if (edges && edges.length) {
  for (var i=0;i<edges.length;i++) {
    if (edges[i].id.substr(0,4)=='edge') {
      edges[i].setAttribute('class','edge');
    }
  }
}
]]></script>
        <defs>
                <circle id="rim" cx="0" cy="0" r="7"/>
                <circle id="rim2" cx="0" cy="0" r="3.5"/>
                <g id="zoomPlus">
                        <use xlink:href="#rim" fill="#404040">
                                <set attributeName="fill" to="#808080" begin="zoomplus.mouseover" end="zoomplus.mouseout"/>
                        </use>
                        <path d="M-4,0h8M0,-4v8" fill="none" stroke="white" stroke-width="1.5" pointer-events="none"/>
                </g>
                <g id="zoomMin">
                        <use xlink:href="#rim" fill="#404040">
                                <set attributeName="fill" to="#808080" begin="zoomminus.mouseover" end="zoomminus.mouseout"/>
                        </use>
                        <path d="M-4,0h8" fill="none" stroke="white" stroke-width="1.5" pointer-events="none"/>
                </g>
                <g id="dirArrow">
                        <path fill="none" stroke="white" stroke-width="1.5" d="M0,-3.0v7 M-2.5,-0.5L0,-3.0L2.5,-0.5"/>
                </g>
               <g id="resetDef">
                       <use xlink:href="#rim2" fill="#404040">
                               <set attributeName="fill" to="#808080" begin="reset.mouseover" end="reset.mouseout"/>
                       </use>
               </g>
        </defs>

<script type="text/javascript">
var viewWidth = 594;
var viewHeight = 508;
var sectionId = 'dynsection-1543';
</script>
<script xlink:href="svgpan.js"/>
<svg id="graph" class="graph">
<g id="viewport">
<title>get_proxy_method</title>
<!-- Node402582 -->
<g id="node1" class="node">
<title>Node402582</title>
<polygon fill="#bfbfbf" stroke="#000000" points="0,-234.5 0,-253.5 97,-253.5 97,-234.5 0,-234.5"/>
<text text-anchor="middle" x="48.5" y="-241.5" font-family="Helvetica,sans-Serif" font-size="10.00" fill="#000000">get_proxy_method</text>
</g>
<!-- Node402583 -->
<g id="node2" class="node">
<title>Node402583</title>
<g id="a_node2"><a xlink:href="quickjs_8c.html#ab586d841244b113ba73eec314395775d" target="_top" xlink:title="js_proxy_call">
<polygon fill="none" stroke="#000000" points="166,-480.5 166,-499.5 240,-499.5 240,-480.5 166,-480.5"/>
<text text-anchor="middle" x="203" y="-487.5" font-family="Helvetica,sans-Serif" font-size="10.00" fill="#000000">js_proxy_call</text>
</a>
</g>
</g>
<!-- Node402582&#45;&gt;Node402583 -->
<g id="edge1" class="edge">
<title>Node402582&#45;&gt;Node402583</title>
<path fill="none" stroke="#191970" d="M49.9679,-263.9452C54.3097,-308.0485 70.9949,-414.4131 133,-471 142.0223,-479.2339 154.2573,-483.9559 165.975,-486.6452"/>
<polygon fill="#191970" stroke="#191970" points="53.449,-263.5749 49.0929,-253.917 46.4755,-264.1834 53.449,-263.5749"/>
</g>
<!-- Node402586 -->
<g id="node5" class="node">
<title>Node402586</title>
<g id="a_node5"><a xlink:href="quickjs_8c.html#af97646b66d6fcb8bd19543d93baeadd7" target="_top" xlink:title="js_proxy_call_constructor">
<polygon fill="none" stroke="#000000" points="139,-442.5 139,-461.5 267,-461.5 267,-442.5 139,-442.5"/>
<text text-anchor="middle" x="203" y="-449.5" font-family="Helvetica,sans-Serif" font-size="10.00" fill="#000000">js_proxy_call_constructor</text>
</a>
</g>
</g>
<!-- Node402582&#45;&gt;Node402586 -->
<g id="edge4" class="edge">
<title>Node402582&#45;&gt;Node402586</title>
<path fill="none" stroke="#191970" d="M51.56,-263.4518C58.6407,-301.8247 79.8049,-387.4893 133,-433 137.4972,-436.8475 142.7025,-439.9227 148.2044,-442.3795"/>
<polygon fill="#191970" stroke="#191970" points="55.0022,-262.8166 49.8575,-253.5547 48.1035,-264.0033 55.0022,-262.8166"/>
</g>
<!-- Node402761 -->
<g id="node10" class="node">
<title>Node402761</title>
<g id="a_node10"><a xlink:href="quickjs_8c.html#a7e5b77a4851eee6f666581d051979392" target="_top" xlink:title="js_proxy_define_own\l_property">
<polygon fill="none" stroke="#000000" points="149,-393 149,-423 257,-423 257,-393 149,-393"/>
<text text-anchor="start" x="157" y="-411" font-family="Helvetica,sans-Serif" font-size="10.00" fill="#000000">js_proxy_define_own</text>
<text text-anchor="middle" x="203" y="-400" font-family="Helvetica,sans-Serif" font-size="10.00" fill="#000000">_property</text>
</a>
</g>
</g>
<!-- Node402582&#45;&gt;Node402761 -->
<g id="edge12" class="edge">
<title>Node402582&#45;&gt;Node402761</title>
<path fill="none" stroke="#191970" d="M55.3331,-263.2685C66.8395,-293.0583 92.8352,-350.267 133,-383 137.8016,-386.9131 143.2635,-390.2378 148.9694,-393.057"/>
<polygon fill="#191970" stroke="#191970" points="58.5153,-261.7837 51.7501,-253.63 51.954,-264.2229 58.5153,-261.7837"/>
</g>
<!-- Node402875 -->
<g id="node11" class="node">
<title>Node402875</title>
<g id="a_node11"><a xlink:href="quickjs_8c.html#acffb121a8a0ee2b735f60c1db01e79e7" target="_top" xlink:title="js_proxy_delete_property">
<polygon fill="none" stroke="#000000" points="140.5,-354.5 140.5,-373.5 265.5,-373.5 265.5,-354.5 140.5,-354.5"/>
<text text-anchor="middle" x="203" y="-361.5" font-family="Helvetica,sans-Serif" font-size="10.00" fill="#000000">js_proxy_delete_property</text>
</a>
</g>
</g>
<!-- Node402582&#45;&gt;Node402875 -->
<g id="edge13" class="edge">
<title>Node402582&#45;&gt;Node402875</title>
<path fill="none" stroke="#191970" d="M59.0355,-262.4878C73.007,-285.3235 99.8128,-323.7478 133,-345 139.0446,-348.8708 145.8677,-351.9598 152.8231,-354.4233"/>
<polygon fill="#191970" stroke="#191970" points="61.9648,-260.5656 53.8523,-253.751 55.9445,-264.1373 61.9648,-260.5656"/>
</g>
<!-- Node402927 -->
<g id="node12" class="node">
<title>Node402927</title>
<g id="a_node12"><a xlink:href="quickjs_8c.html#a45df491949e8e055e732eb13c446d47b" target="_top" xlink:title="js_proxy_get">
<polygon fill="none" stroke="#000000" points="167,-316.5 167,-335.5 239,-335.5 239,-316.5 167,-316.5"/>
<text text-anchor="middle" x="203" y="-323.5" font-family="Helvetica,sans-Serif" font-size="10.00" fill="#000000">js_proxy_get</text>
</a>
</g>
</g>
<!-- Node402582&#45;&gt;Node402927 -->
<g id="edge14" class="edge">
<title>Node402582&#45;&gt;Node402927</title>
<path fill="none" stroke="#191970" d="M66.2139,-260.3617C82.4663,-274.5659 107.7787,-294.728 133,-307 143.5306,-312.1239 155.6482,-316.0325 166.81,-318.9325"/>
<polygon fill="#191970" stroke="#191970" points="68.3786,-257.6023 58.5892,-253.5503 63.7151,-262.8227 68.3786,-257.6023"/>
</g>
<!-- Node402922 -->
<g id="node13" class="node">
<title>Node402922</title>
<g id="a_node13"><a xlink:href="quickjs_8c.html#ab9c2e9c8dab72f3c057efe4ffcced332" target="_top" xlink:title="js_proxy_get_own_property">
<polygon fill="none" stroke="#000000" points="135,-278.5 135,-297.5 271,-297.5 271,-278.5 135,-278.5"/>
<text text-anchor="middle" x="203" y="-285.5" font-family="Helvetica,sans-Serif" font-size="10.00" fill="#000000">js_proxy_get_own_property</text>
</a>
</g>
</g>
<!-- Node402582&#45;&gt;Node402922 -->
<g id="edge15" class="edge">
<title>Node402582&#45;&gt;Node402922</title>
<path fill="none" stroke="#191970" d="M91.8344,-256.3412C116.4423,-263.3493 146.779,-271.9888 169.5412,-278.4713"/>
<polygon fill="#191970" stroke="#191970" points="92.6005,-252.9202 82.0242,-253.5473 90.6831,-259.6526 92.6005,-252.9202"/>
</g>
<!-- Node402916 -->
<g id="node14" class="node">
<title>Node402916</title>
<g id="a_node14"><a xlink:href="quickjs_8c.html#a438b354d69a8f0674195b0cdc19dd686" target="_top" xlink:title="js_proxy_get_own_property\l_names">
<polygon fill="none" stroke="#000000" points="135,-229 135,-259 271,-259 271,-229 135,-229"/>
<text text-anchor="start" x="143" y="-247" font-family="Helvetica,sans-Serif" font-size="10.00" fill="#000000">js_proxy_get_own_property</text>
<text text-anchor="middle" x="203" y="-236" font-family="Helvetica,sans-Serif" font-size="10.00" fill="#000000">_names</text>
</a>
</g>
</g>
<!-- Node402582&#45;&gt;Node402916 -->
<g id="edge16" class="edge">
<title>Node402582&#45;&gt;Node402916</title>
<path fill="none" stroke="#191970" d="M107.6729,-244C116.5964,-244 125.861,-244 134.953,-244"/>
<polygon fill="#191970" stroke="#191970" points="107.3848,-240.5001 97.3848,-244 107.3847,-247.5001 107.3848,-240.5001"/>
</g>
<!-- Node403148 -->
<g id="node15" class="node">
<title>Node403148</title>
<g id="a_node15"><a xlink:href="quickjs_8c.html#abec3cc345c6b3c1be76a0dc63fd7fa2f" target="_top" xlink:title="js_proxy_getPrototypeOf">
<polygon fill="none" stroke="#ff0000" points="140.5,-190.5 140.5,-209.5 265.5,-209.5 265.5,-190.5 140.5,-190.5"/>
<text text-anchor="middle" x="203" y="-197.5" font-family="Helvetica,sans-Serif" font-size="10.00" fill="#000000">js_proxy_getPrototypeOf</text>
</a>
</g>
</g>
<!-- Node402582&#45;&gt;Node403148 -->
<g id="edge17" class="edge">
<title>Node402582&#45;&gt;Node403148</title>
<path fill="none" stroke="#191970" d="M89.8097,-231.5752C103.533,-227.5018 118.9061,-222.9971 133,-219 144.1455,-215.8391 156.3207,-212.4962 167.3461,-209.5104"/>
<polygon fill="#191970" stroke="#191970" points="88.7356,-228.2431 80.1505,-234.4516 90.7335,-234.9519 88.7356,-228.2431"/>
</g>
<!-- Node402924 -->
<g id="node16" class="node">
<title>Node402924</title>
<g id="a_node16"><a xlink:href="quickjs_8c.html#a1bddfeab11a7cfee6bd88781073b5972" target="_top" xlink:title="js_proxy_has">
<polygon fill="none" stroke="#000000" points="166,-152.5 166,-171.5 240,-171.5 240,-152.5 166,-152.5"/>
<text text-anchor="middle" x="203" y="-159.5" font-family="Helvetica,sans-Serif" font-size="10.00" fill="#000000">js_proxy_has</text>
</a>
</g>
</g>
<!-- Node402582&#45;&gt;Node402924 -->
<g id="edge18" class="edge">
<title>Node402582&#45;&gt;Node402924</title>
<path fill="none" stroke="#191970" d="M66.2139,-227.6383C82.4663,-213.4341 107.7787,-193.272 133,-181 143.1909,-176.0414 154.8681,-172.221 165.7269,-169.3513"/>
<polygon fill="#191970" stroke="#191970" points="63.7151,-225.1773 58.5892,-234.4497 68.3786,-230.3977 63.7151,-225.1773"/>
</g>
<!-- Node403157 -->
<g id="node17" class="node">
<title>Node403157</title>
<g id="a_node17"><a xlink:href="quickjs_8c.html#a89d3c8659c2a6a62d3528b6b6794b24f" target="_top" xlink:title="js_proxy_isExtensible">
<polygon fill="none" stroke="#ff0000" points="147,-114.5 147,-133.5 259,-133.5 259,-114.5 147,-114.5"/>
<text text-anchor="middle" x="203" y="-121.5" font-family="Helvetica,sans-Serif" font-size="10.00" fill="#000000">js_proxy_isExtensible</text>
</a>
</g>
</g>
<!-- Node402582&#45;&gt;Node403157 -->
<g id="edge19" class="edge">
<title>Node402582&#45;&gt;Node403157</title>
<path fill="none" stroke="#191970" d="M59.0355,-225.5122C73.007,-202.6765 99.8128,-164.2522 133,-143 139.0446,-139.1292 145.8677,-136.0402 152.8231,-133.5767"/>
<polygon fill="#191970" stroke="#191970" points="55.9445,-223.8627 53.8523,-234.249 61.9648,-227.4344 55.9445,-223.8627"/>
</g>
<!-- Node403160 -->
<g id="node18" class="node">
<title>Node403160</title>
<g id="a_node18"><a xlink:href="quickjs_8c.html#a7be64afafb067c71764032c0708d7aa3" target="_top" xlink:title="js_proxy_preventExtensions">
<polygon fill="none" stroke="#ff0000" points="133,-76.5 133,-95.5 273,-95.5 273,-76.5 133,-76.5"/>
<text text-anchor="middle" x="203" y="-83.5" font-family="Helvetica,sans-Serif" font-size="10.00" fill="#000000">js_proxy_preventExtensions</text>
</a>
</g>
</g>
<!-- Node402582&#45;&gt;Node403160 -->
<g id="edge20" class="edge">
<title>Node402582&#45;&gt;Node403160</title>
<path fill="none" stroke="#191970" d="M55.0332,-224.3485C66.1338,-194.0405 91.5898,-136.1425 133,-105 138.1327,-101.14 143.9985,-98.0639 150.1016,-95.6125"/>
<polygon fill="#191970" stroke="#191970" points="51.597,-223.5708 51.5901,-234.1656 58.2025,-225.8876 51.597,-223.5708"/>
</g>
<!-- Node402675 -->
<g id="node19" class="node">
<title>Node402675</title>
<g id="a_node19"><a xlink:href="quickjs_8c.html#ad38b16d301e8f3661cf4c115c86511b3" target="_top" xlink:title="js_proxy_set">
<polygon fill="none" stroke="#000000" points="167,-38.5 167,-57.5 239,-57.5 239,-38.5 167,-38.5"/>
<text text-anchor="middle" x="203" y="-45.5" font-family="Helvetica,sans-Serif" font-size="10.00" fill="#000000">js_proxy_set</text>
</a>
</g>
</g>
<!-- Node402582&#45;&gt;Node402675 -->
<g id="edge21" class="edge">
<title>Node402582&#45;&gt;Node402675</title>
<path fill="none" stroke="#191970" d="M52.2739,-224.2676C60.337,-187.6041 82.7621,-108.9057 133,-67 142.4766,-59.0952 154.9558,-54.4581 166.7501,-51.7454"/>
<polygon fill="#191970" stroke="#191970" points="48.8157,-223.7074 50.2178,-234.2091 55.6707,-225.1253 48.8157,-223.7074"/>
</g>
<!-- Node403151 -->
<g id="node20" class="node">
<title>Node403151</title>
<g id="a_node20"><a xlink:href="quickjs_8c.html#ae8b32777df50bb192c19840adc4d32a1" target="_top" xlink:title="js_proxy_setPrototypeOf">
<polygon fill="none" stroke="#ff0000" points="140.5,-.5 140.5,-19.5 265.5,-19.5 265.5,-.5 140.5,-.5"/>
<text text-anchor="middle" x="203" y="-7.5" font-family="Helvetica,sans-Serif" font-size="10.00" fill="#000000">js_proxy_setPrototypeOf</text>
</a>
</g>
</g>
<!-- Node402582&#45;&gt;Node403151 -->
<g id="edge22" class="edge">
<title>Node402582&#45;&gt;Node403151</title>
<path fill="none" stroke="#191970" d="M50.4513,-223.963C55.6807,-181.4865 73.9042,-81.9584 133,-29 137.3138,-25.1342 142.3375,-22.0442 147.6766,-19.576"/>
<polygon fill="#191970" stroke="#191970" points="46.9477,-223.8016 49.3191,-234.1277 53.9047,-224.5766 46.9477,-223.8016"/>
</g>
<!-- Node402584 -->
<g id="node3" class="node">
<title>Node402584</title>
<g id="a_node3"><a xlink:href="quickjs_8c.html#a3afdbdd7b58ef7e1dcc178c362071b3d" target="_top" xlink:title="JS_AddIntrinsicProxy">
<polygon fill="none" stroke="#000000" points="320.5,-480.5 320.5,-499.5 431.5,-499.5 431.5,-480.5 320.5,-480.5"/>
<text text-anchor="middle" x="376" y="-487.5" font-family="Helvetica,sans-Serif" font-size="10.00" fill="#000000">JS_AddIntrinsicProxy</text>
</a>
</g>
</g>
<!-- Node402583&#45;&gt;Node402584 -->
<g id="edge2" class="edge">
<title>Node402583&#45;&gt;Node402584</title>
<path fill="none" stroke="#191970" d="M250.3515,-490C271.9485,-490 297.672,-490 320.2023,-490"/>
<polygon fill="#191970" stroke="#191970" points="250.1129,-486.5001 240.1128,-490 250.1128,-493.5001 250.1129,-486.5001"/>
</g>
<!-- Node402585 -->
<g id="node4" class="node">
<title>Node402585</title>
<g id="a_node4"><a xlink:href="quickjs_8c.html#ad8aedb643b8753b7a15f6cb2df61945e" target="_top" xlink:title="JS_NewContext">
<polygon fill="none" stroke="#000000" points="488,-480.5 488,-499.5 577,-499.5 577,-480.5 488,-480.5"/>
<text text-anchor="middle" x="532.5" y="-487.5" font-family="Helvetica,sans-Serif" font-size="10.00" fill="#000000">JS_NewContext</text>
</a>
</g>
</g>
<!-- Node402584&#45;&gt;Node402585 -->
<g id="edge3" class="edge">
<title>Node402584&#45;&gt;Node402585</title>
<path fill="none" stroke="#191970" d="M441.7135,-490C457.2675,-490 473.5001,-490 487.8661,-490"/>
<polygon fill="#191970" stroke="#191970" points="441.6167,-486.5001 431.6167,-490 441.6167,-493.5001 441.6167,-486.5001"/>
</g>
<!-- Node402587 -->
<g id="node6" class="node">
<title>Node402587</title>
<g id="a_node6"><a xlink:href="quickjs_8c.html#ad35594576a14c10812efaf958c99af8a" target="_top" xlink:title="JS_CallConstructorInternal">
<polygon fill="none" stroke="#000000" points="309,-404.5 309,-423.5 443,-423.5 443,-404.5 309,-404.5"/>
<text text-anchor="middle" x="376" y="-411.5" font-family="Helvetica,sans-Serif" font-size="10.00" fill="#000000">JS_CallConstructorInternal</text>
</a>
</g>
</g>
<!-- Node402586&#45;&gt;Node402587 -->
<g id="edge5" class="edge">
<title>Node402586&#45;&gt;Node402587</title>
<path fill="none" stroke="#191970" d="M256.5051,-440.2474C280.9673,-434.8742 309.5707,-428.5914 332.6587,-423.5201"/>
<polygon fill="#191970" stroke="#191970" points="255.6714,-436.847 246.6552,-442.411 257.1733,-443.684 255.6714,-436.847"/>
</g>
<!-- Node402588 -->
<g id="node7" class="node">
<title>Node402588</title>
<g id="a_node7"><a xlink:href="quickjs_8c.html#a28704096ee67c5b0ab1bd60ce050e36a" target="_top" xlink:title="JS_CallConstructor">
<polygon fill="none" stroke="#ff0000" points="481.5,-404.5 481.5,-423.5 583.5,-423.5 583.5,-404.5 481.5,-404.5"/>
<text text-anchor="middle" x="532.5" y="-411.5" font-family="Helvetica,sans-Serif" font-size="10.00" fill="#000000">JS_CallConstructor</text>
</a>
</g>
</g>
<!-- Node402587&#45;&gt;Node402588 -->
<g id="edge6" class="edge">
<title>Node402587&#45;&gt;Node402588</title>
<path fill="none" stroke="#191970" d="M453.5029,-414C462.9549,-414 472.4215,-414 481.3508,-414"/>
<polygon fill="#191970" stroke="#191970" points="453.2784,-410.5001 443.2783,-414 453.2783,-417.5001 453.2784,-410.5001"/>
</g>
<!-- Node403163 -->
<g id="node8" class="node">
<title>Node403163</title>
<g id="a_node8"><a xlink:href="quickjs_8c.html#a03d5edf3e8bb18809d6675e5c08bac26" target="_top" xlink:title="JS_CallConstructor2">
<polygon fill="none" stroke="#ff0000" points="479,-442.5 479,-461.5 586,-461.5 586,-442.5 479,-442.5"/>
<text text-anchor="middle" x="532.5" y="-449.5" font-family="Helvetica,sans-Serif" font-size="10.00" fill="#000000">JS_CallConstructor2</text>
</a>
</g>
</g>
<!-- Node402587&#45;&gt;Node403163 -->
<g id="edge7" class="edge">
<title>Node402587&#45;&gt;Node403163</title>
<path fill="none" stroke="#191970" d="M425.2892,-425.968C447.2203,-431.2931 472.6849,-437.4762 493.2924,-442.4799"/>
<polygon fill="#191970" stroke="#191970" points="426.0351,-422.5475 415.4916,-423.589 424.3833,-429.3498 426.0351,-422.5475"/>
</g>
<!-- Node402603 -->
<g id="node9" class="node">
<title>Node402603</title>
<g id="a_node9"><a xlink:href="quickjs_8c.html#ac2894ff4edcdb4e6841bcce9c76081e3" target="_top" xlink:title="JS_CallInternal">
<polygon fill="none" stroke="#ff0000" points="491,-348.5 491,-367.5 574,-367.5 574,-348.5 491,-348.5"/>
<text text-anchor="middle" x="532.5" y="-355.5" font-family="Helvetica,sans-Serif" font-size="10.00" fill="#000000">JS_CallInternal</text>
</a>
</g>
</g>
<!-- Node402587&#45;&gt;Node402603 -->
<g id="edge9" class="edge">
<title>Node402587&#45;&gt;Node402603</title>
<path fill="none" stroke="#191970" d="M400.1714,-400.31C424.3425,-389.7876 461.9878,-375.9837 490.9557,-366.8246"/>
<polygon fill="#191970" stroke="#191970" points="398.6774,-397.1443 391.0059,-404.4517 401.56,-403.5233 398.6774,-397.1443"/>
</g>
<!-- Node403163&#45;&gt;Node402586 -->
<g id="edge8" class="edge">
<title>Node403163&#45;&gt;Node402586</title>
<path fill="none" stroke="#191970" d="M468.8183,-452C410.7995,-452 325.5286,-452 267.3131,-452"/>
<polygon fill="#191970" stroke="#191970" points="468.9625,-455.5001 478.9624,-452 468.9624,-448.5001 468.9625,-455.5001"/>
</g>
<!-- Node402603&#45;&gt;Node402587 -->
<g id="edge10" class="edge">
<title>Node402603&#45;&gt;Node402587</title>
<path fill="none" stroke="#191970" d="M508.0032,-371.8315C484.5043,-382.0389 448.4889,-395.284 420.0105,-404.3912"/>
<polygon fill="#191970" stroke="#191970" points="509.571,-374.964 517.2494,-367.6638 506.6944,-368.5823 509.571,-374.964"/>
</g>
<!-- Node402603&#45;&gt;Node402603 -->
<g id="edge11" class="edge">
<title>Node402603&#45;&gt;Node402603</title>
<path fill="none" stroke="#191970" d="M503.3809,-376.6539C504.5981,-381.9368 514.3044,-386 532.5,-386 560.2266,-386 568.2413,-376.5653 556.5441,-367.7571"/>
<polygon fill="#191970" stroke="#191970" points="506.5412,-378.1775 508.4559,-367.7571 500.4609,-374.7091 506.5412,-378.1775"/>
</g>
</g>
</svg>
        <g id="navigator" transform="translate(0 0)" fill="#404254">
                <rect fill="#f2f5e9" fill-opacity="0.5" stroke="#606060" stroke-width=".5" x="0" y="0" width="60" height="60"/>
                <use id="zoomplus" xlink:href="#zoomPlus" x="17" y="9" onmousedown="handleZoom(evt,'in')"/>
                <use id="zoomminus" xlink:href="#zoomMin" x="42" y="9" onmousedown="handleZoom(evt,'out')"/>
                <use id="reset" xlink:href="#resetDef" x="30" y="36" onmousedown="handleReset()"/>
                <g id="arrowUp" xlink:href="#dirArrow" transform="translate(30 24)" onmousedown="handlePan(0,-1)">
                  <use xlink:href="#rim" fill="#404040">
                        <set attributeName="fill" to="#808080" begin="arrowUp.mouseover" end="arrowUp.mouseout"/>
                  </use>
                  <path fill="none" stroke="white" stroke-width="1.5" d="M0,-3.0v7 M-2.5,-0.5L0,-3.0L2.5,-0.5"/>
                </g>
                <g id="arrowRight" xlink:href="#dirArrow" transform="rotate(90) translate(36 -43)" onmousedown="handlePan(1,0)">
                  <use xlink:href="#rim" fill="#404040">
                        <set attributeName="fill" to="#808080" begin="arrowRight.mouseover" end="arrowRight.mouseout"/>
                  </use>
                  <path fill="none" stroke="white" stroke-width="1.5" d="M0,-3.0v7 M-2.5,-0.5L0,-3.0L2.5,-0.5"/>
                </g>
                <g id="arrowDown" xlink:href="#dirArrow" transform="rotate(180) translate(-30 -48)" onmousedown="handlePan(0,1)">
                  <use xlink:href="#rim" fill="#404040">
                        <set attributeName="fill" to="#808080" begin="arrowDown.mouseover" end="arrowDown.mouseout"/>
                  </use>
                  <path fill="none" stroke="white" stroke-width="1.5" d="M0,-3.0v7 M-2.5,-0.5L0,-3.0L2.5,-0.5"/>
                </g>
                <g id="arrowLeft" xlink:href="#dirArrow" transform="rotate(270) translate(-36 17)" onmousedown="handlePan(-1,0)">
                  <use xlink:href="#rim" fill="#404040">
                        <set attributeName="fill" to="#808080" begin="arrowLeft.mouseover" end="arrowLeft.mouseout"/>
                  </use>
                  <path fill="none" stroke="white" stroke-width="1.5" d="M0,-3.0v7 M-2.5,-0.5L0,-3.0L2.5,-0.5"/>
                </g>
        </g>
        <svg viewBox="0 0 15 15" width="100%" height="30px" preserveAspectRatio="xMaxYMin meet">
         <g id="arrow_out" transform="scale(0.3 0.3)">
          <a xlink:href="quickjs_8c_a9e94551ddba8762d74eda5127445dbbd_icgraph_org.svg" target="_base">
           <rect id="button" ry="5" rx="5" y="6" x="6" height="38" width="38"
                fill="#f2f5e9" fill-opacity="0.5" stroke="#606060" stroke-width="1.0"/>
           <path id="arrow"
             d="M 11.500037,31.436501 C 11.940474,20.09759 22.043105,11.32322 32.158766,21.979434 L 37.068811,17.246167 C 37.068811,17.246167 37.088388,32 37.088388,32 L 22.160133,31.978069 C 22.160133,31.978069 26.997745,27.140456 26.997745,27.140456 C 18.528582,18.264221 13.291696,25.230495 11.500037,31.436501 z"
             style="fill:#404040;"/>
          </a>
         </g>
        </svg>
</svg>
