<?xml version="1.0" encoding="UTF-8" standalone="no"?>
<!DOCTYPE svg PUBLIC "-//W3C//DTD SVG 1.1//EN"
 "http://www.w3.org/Graphics/SVG/1.1/DTD/svg11.dtd">
<!-- Generated by graphviz version 2.40.1 (20161225.0304)
 -->
<!-- Title: js_function_call Pages: 1 -->
<!--zoomable 1054 -->
<svg id="main" version="1.1" xmlns="http://www.w3.org/2000/svg" xmlns:xlink="http://www.w3.org/1999/xlink" xml:space="preserve" onload="init(evt)">
<style type="text/css"><![CDATA[
.edge:hover path { stroke: red; }
.edge:hover polygon { stroke: red; fill: red; }
]]></style>
<script type="text/javascript"><![CDATA[
var edges = document.getElementsByTagName('g');
if (edges && edges.length) {
  for (var i=0;i<edges.length;i++) {
    if (edges[i].id.substr(0,4)=='edge') {
      edges[i].setAttribute('class','edge');
    }
  }
}
]]></script>
        <defs>
                <circle id="rim" cx="0" cy="0" r="7"/>
                <circle id="rim2" cx="0" cy="0" r="3.5"/>
                <g id="zoomPlus">
                        <use xlink:href="#rim" fill="#404040">
                                <set attributeName="fill" to="#808080" begin="zoomplus.mouseover" end="zoomplus.mouseout"/>
                        </use>
                        <path d="M-4,0h8M0,-4v8" fill="none" stroke="white" stroke-width="1.5" pointer-events="none"/>
                </g>
                <g id="zoomMin">
                        <use xlink:href="#rim" fill="#404040">
                                <set attributeName="fill" to="#808080" begin="zoomminus.mouseover" end="zoomminus.mouseout"/>
                        </use>
                        <path d="M-4,0h8" fill="none" stroke="white" stroke-width="1.5" pointer-events="none"/>
                </g>
                <g id="dirArrow">
                        <path fill="none" stroke="white" stroke-width="1.5" d="M0,-3.0v7 M-2.5,-0.5L0,-3.0L2.5,-0.5"/>
                </g>
               <g id="resetDef">
                       <use xlink:href="#rim2" fill="#404040">
                               <set attributeName="fill" to="#808080" begin="reset.mouseover" end="reset.mouseout"/>
                       </use>
               </g>
        </defs>

<script type="text/javascript">
var viewWidth = 629;
var viewHeight = 1054;
var sectionId = 'dynsection-1345';
</script>
<script xlink:href="svgpan.js"/>
<svg id="graph" class="graph">
<g id="viewport">
<title>js_function_call</title>
<!-- Node352831 -->
<g id="node1" class="node">
<title>Node352831</title>
<polygon fill="#bfbfbf" stroke="#000000" points="0,-532.018 0,-551.018 84,-551.018 84,-532.018 0,-532.018"/>
<text text-anchor="middle" x="42" y="-539.018" font-family="Helvetica,sans-Serif" font-size="10.00" fill="#000000">js_function_call</text>
</g>
<!-- Node352832 -->
<g id="node2" class="node">
<title>Node352832</title>
<g id="a_node2"><a xlink:href="quickjs_8c.html#a1a4c02a29525d5cb2085dd8bca3af350" target="_top" xlink:title="JS_Call">
<polygon fill="none" stroke="#000000" points="120,-532.018 120,-551.018 171,-551.018 171,-532.018 120,-532.018"/>
<text text-anchor="middle" x="145.5" y="-539.018" font-family="Helvetica,sans-Serif" font-size="10.00" fill="#000000">JS_Call</text>
</a>
</g>
</g>
<!-- Node352831&#45;&gt;Node352832 -->
<g id="edge1" class="edge">
<title>Node352831&#45;&gt;Node352832</title>
<path fill="none" stroke="#191970" d="M84.0974,-541.518C92.5972,-541.518 101.4572,-541.518 109.7159,-541.518"/>
<polygon fill="#191970" stroke="#191970" points="109.7828,-545.0181 119.7827,-541.518 109.7827,-538.0181 109.7828,-545.0181"/>
</g>
<!-- Node352833 -->
<g id="node3" class="node">
<title>Node352833</title>
<g id="a_node3"><a xlink:href="quickjs_8c.html#ac2894ff4edcdb4e6841bcce9c76081e3" target="_top" xlink:title="JS_CallInternal">
<polygon fill="none" stroke="#ff0000" points="207,-532.018 207,-551.018 290,-551.018 290,-532.018 207,-532.018"/>
<text text-anchor="middle" x="248.5" y="-539.018" font-family="Helvetica,sans-Serif" font-size="10.00" fill="#000000">JS_CallInternal</text>
</a>
</g>
</g>
<!-- Node352832&#45;&gt;Node352833 -->
<g id="edge2" class="edge">
<title>Node352832&#45;&gt;Node352833</title>
<path fill="none" stroke="#191970" d="M171.2256,-535.5838C178.9345,-535.0511 187.6815,-534.7792 196.4498,-534.7683"/>
<polygon fill="#191970" stroke="#191970" points="196.6557,-538.2706 206.6918,-534.8754 196.729,-531.2709 196.6557,-538.2706"/>
</g>
<!-- Node352833&#45;&gt;Node352832 -->
<g id="edge35" class="edge">
<title>Node352833&#45;&gt;Node352832</title>
<path fill="none" stroke="#191970" d="M206.6918,-548.1606C198.2502,-548.3497 189.4481,-548.2891 181.2376,-547.9787"/>
<polygon fill="#191970" stroke="#191970" points="181.3956,-544.4823 171.2256,-547.4521 181.0279,-551.4726 181.3956,-544.4823"/>
</g>
<!-- Node352833&#45;&gt;Node352833 -->
<g id="edge43" class="edge">
<title>Node352833&#45;&gt;Node352833</title>
<path fill="none" stroke="#191970" d="M232.7788,-551.275C225.1307,-560.0832 230.3711,-569.518 248.5,-569.518 259.8306,-569.518 266.1266,-565.8325 267.388,-560.918"/>
<polygon fill="#191970" stroke="#191970" points="270.6666,-559.6838 264.2212,-551.275 264.0161,-561.8679 270.6666,-559.6838"/>
</g>
<!-- Node352834 -->
<g id="node4" class="node">
<title>Node352834</title>
<g id="a_node4"><a xlink:href="quickjs_8c.html#a853f0924d441ea4225488f37c8b69f9a" target="_top" xlink:title="__attribute__">
<polygon fill="none" stroke="#000000" points="525,-1002.018 525,-1021.018 598,-1021.018 598,-1002.018 525,-1002.018"/>
<text text-anchor="middle" x="561.5" y="-1009.018" font-family="Helvetica,sans-Serif" font-size="10.00" fill="#000000">__attribute__</text>
</a>
</g>
</g>
<!-- Node352833&#45;&gt;Node352834 -->
<g id="edge3" class="edge">
<title>Node352833&#45;&gt;Node352834</title>
<path fill="none" stroke="#191970" d="M249.3295,-551.1487C254.9918,-615.7917 288.8371,-984.9271 326,-1016.518 382.8425,-1064.8378 478.2649,-1041.7507 528.4149,-1024.4909"/>
<polygon fill="#191970" stroke="#191970" points="529.8659,-1027.6893 538.1078,-1021.0319 527.5132,-1021.0966 529.8659,-1027.6893"/>
</g>
<!-- Node352835 -->
<g id="node5" class="node">
<title>Node352835</title>
<g id="a_node5"><a xlink:href="quickjs_8c.html#a877fcb7651d95b411ce70e62b7f4a1f0" target="_top" xlink:title="__JS_AtomFromUInt32">
<polygon fill="none" stroke="#000000" points="502,-936.018 502,-955.018 621,-955.018 621,-936.018 502,-936.018"/>
<text text-anchor="middle" x="561.5" y="-943.018" font-family="Helvetica,sans-Serif" font-size="10.00" fill="#000000">__JS_AtomFromUInt32</text>
</a>
</g>
</g>
<!-- Node352833&#45;&gt;Node352835 -->
<g id="edge4" class="edge">
<title>Node352833&#45;&gt;Node352835</title>
<path fill="none" stroke="#191970" d="M248.9143,-551.0419C251.4863,-605.3611 267.1373,-875.4242 326,-927.518 377.0974,-972.7395 461.2719,-966.7764 513.9314,-957.0637"/>
<polygon fill="#191970" stroke="#191970" points="514.8841,-960.4436 524.0239,-955.0852 513.5374,-953.5743 514.8841,-960.4436"/>
</g>
<!-- Node352836 -->
<g id="node6" class="node">
<title>Node352836</title>
<g id="a_node6"><a xlink:href="quickjs_8c.html#a74547db03bf739a52c83a326b32db997" target="_top" xlink:title="add_property">
<polygon fill="none" stroke="#ff0000" points="525,-855.018 525,-874.018 598,-874.018 598,-855.018 525,-855.018"/>
<text text-anchor="middle" x="561.5" y="-862.018" font-family="Helvetica,sans-Serif" font-size="10.00" fill="#000000">add_property</text>
</a>
</g>
</g>
<!-- Node352833&#45;&gt;Node352836 -->
<g id="edge5" class="edge">
<title>Node352833&#45;&gt;Node352836</title>
<path fill="none" stroke="#191970" d="M248.9994,-551.1784C251.9439,-603.9198 268.9134,-856.3862 326,-902.518 388.38,-952.9274 491.1486,-905.3239 537.5023,-879.1493"/>
<polygon fill="#191970" stroke="#191970" points="539.3488,-882.1246 546.2477,-874.0837 535.8402,-876.0673 539.3488,-882.1246"/>
</g>
<!-- Node352878 -->
<g id="node7" class="node">
<title>Node352878</title>
<g id="a_node7"><a xlink:href="quickjs_8c.html#a4956f45ffd2849b96dc051277264f87a" target="_top" xlink:title="build_arg_list">
<polygon fill="none" stroke="#ff0000" points="359,-646.018 359,-665.018 433,-665.018 433,-646.018 359,-646.018"/>
<text text-anchor="middle" x="396" y="-653.018" font-family="Helvetica,sans-Serif" font-size="10.00" fill="#000000">build_arg_list</text>
</a>
</g>
</g>
<!-- Node352833&#45;&gt;Node352878 -->
<g id="edge6" class="edge">
<title>Node352833&#45;&gt;Node352878</title>
<path fill="none" stroke="#191970" d="M254.2831,-551.1338C265.7309,-569.384 293.045,-609.2089 326,-631.518 333.0349,-636.2803 341.1059,-640.1836 349.2084,-643.354"/>
<polygon fill="#191970" stroke="#191970" points="348.0797,-646.6675 358.6743,-646.7467 350.4415,-640.0779 348.0797,-646.6675"/>
</g>
<!-- Node352879 -->
<g id="node8" class="node">
<title>Node352879</title>
<g id="a_node8"><a xlink:href="quickjs_8c.html#ac864482356b3efc2d0b0a509fcfa4c7c" target="_top" xlink:title="free_arg_list">
<polygon fill="none" stroke="#ff0000" points="526.5,-665.018 526.5,-684.018 596.5,-684.018 596.5,-665.018 526.5,-665.018"/>
<text text-anchor="middle" x="561.5" y="-672.018" font-family="Helvetica,sans-Serif" font-size="10.00" fill="#000000">free_arg_list</text>
</a>
</g>
</g>
<!-- Node352833&#45;&gt;Node352879 -->
<g id="edge11" class="edge">
<title>Node352833&#45;&gt;Node352879</title>
<path fill="none" stroke="#191970" d="M250.6594,-551.2411C256.9676,-577.0077 278.0365,-646.9543 326,-674.518 385.8609,-708.9189 469.2192,-697.9358 519.0291,-686.4739"/>
<polygon fill="#191970" stroke="#191970" points="519.9257,-689.8582 528.8275,-684.1129 518.2858,-683.0529 519.9257,-689.8582"/>
</g>
<!-- Node352989 -->
<g id="node9" class="node">
<title>Node352989</title>
<g id="a_node9"><a xlink:href="quickjs_8c.html#a80b89f140c8e343469b5c98482a4310d" target="_top" xlink:title="build_backtrace">
<polygon fill="none" stroke="#ff0000" points="353.5,-494.018 353.5,-513.018 438.5,-513.018 438.5,-494.018 353.5,-494.018"/>
<text text-anchor="middle" x="396" y="-501.018" font-family="Helvetica,sans-Serif" font-size="10.00" fill="#000000">build_backtrace</text>
</a>
</g>
</g>
<!-- Node352833&#45;&gt;Node352989 -->
<g id="edge8" class="edge">
<title>Node352833&#45;&gt;Node352989</title>
<path fill="none" stroke="#191970" d="M285.7205,-531.929C305.0093,-526.9596 328.7584,-520.8412 349.271,-515.5566"/>
<polygon fill="#191970" stroke="#191970" points="350.2366,-518.9222 359.0472,-513.038 348.4902,-512.1436 350.2366,-518.9222"/>
</g>
<!-- Node353069 -->
<g id="node10" class="node">
<title>Node353069</title>
<g id="a_node10"><a xlink:href="quickjs_8c.html#a344894112559c2ba75043fd10bcfa02f" target="_top" xlink:title="close_lexical_var">
<polygon fill="none" stroke="#ff0000" points="350,-456.018 350,-475.018 442,-475.018 442,-456.018 350,-456.018"/>
<text text-anchor="middle" x="396" y="-463.018" font-family="Helvetica,sans-Serif" font-size="10.00" fill="#000000">close_lexical_var</text>
</a>
</g>
</g>
<!-- Node352833&#45;&gt;Node353069 -->
<g id="edge9" class="edge">
<title>Node352833&#45;&gt;Node353069</title>
<path fill="none" stroke="#191970" d="M259.2043,-531.6075C273.4294,-518.9418 299.8264,-497.1482 326,-484.518 330.8908,-482.1579 336.1203,-480.0537 341.4356,-478.1863"/>
<polygon fill="#191970" stroke="#191970" points="342.6054,-481.4865 351.0411,-475.0765 340.4492,-474.8269 342.6054,-481.4865"/>
</g>
<!-- Node353070 -->
<g id="node11" class="node">
<title>Node353070</title>
<g id="a_node11"><a xlink:href="quickjs_8c.html#a1782043fce951bd4f0d91c7796b31e24" target="_top" xlink:title="close_var_refs">
<polygon fill="none" stroke="#ff0000" points="356,-418.018 356,-437.018 436,-437.018 436,-418.018 356,-418.018"/>
<text text-anchor="middle" x="396" y="-425.018" font-family="Helvetica,sans-Serif" font-size="10.00" fill="#000000">close_var_refs</text>
</a>
</g>
</g>
<!-- Node352833&#45;&gt;Node353070 -->
<g id="edge10" class="edge">
<title>Node352833&#45;&gt;Node353070</title>
<path fill="none" stroke="#191970" d="M253.6739,-531.7562C264.4423,-512.4084 291.186,-469.1172 326,-446.518 332.0997,-442.5584 339.0096,-439.4184 346.0538,-436.9297"/>
<polygon fill="#191970" stroke="#191970" points="347.1771,-440.2456 355.6792,-433.9239 345.0905,-433.5639 347.1771,-440.2456"/>
</g>
<!-- Node352873 -->
<g id="node12" class="node">
<title>Node352873</title>
<g id="a_node12"><a xlink:href="quickjs_8c.html#a9e7b4bccf927d811b0f99b40b08c0472" target="_top" xlink:title="free_var_ref">
<polygon fill="none" stroke="#ff0000" points="527.5,-789.018 527.5,-808.018 595.5,-808.018 595.5,-789.018 527.5,-789.018"/>
<text text-anchor="middle" x="561.5" y="-796.018" font-family="Helvetica,sans-Serif" font-size="10.00" fill="#000000">free_var_ref</text>
</a>
</g>
</g>
<!-- Node352833&#45;&gt;Node352873 -->
<g id="edge12" class="edge">
<title>Node352833&#45;&gt;Node352873</title>
<path fill="none" stroke="#191970" d="M249.3869,-551.3089C252.7993,-583.0438 267.9602,-683.987 326,-735.518 354.1978,-760.5536 457.2406,-781.2601 517.2733,-791.5344"/>
<polygon fill="#191970" stroke="#191970" points="516.7953,-795.0031 527.2375,-793.2116 517.9572,-788.1002 516.7953,-795.0031"/>
</g>
<!-- Node353072 -->
<g id="node13" class="node">
<title>Node353072</title>
<g id="a_node13"><a xlink:href="cutils_8h.html#a7c82a3ee025fee89db5b11ff5b7691b8" target="_top" xlink:title="get_i16">
<polygon fill="none" stroke="#000000" points="372,-380.018 372,-399.018 420,-399.018 420,-380.018 372,-380.018"/>
<text text-anchor="middle" x="396" y="-387.018" font-family="Helvetica,sans-Serif" font-size="10.00" fill="#000000">get_i16</text>
</a>
</g>
</g>
<!-- Node352833&#45;&gt;Node353072 -->
<g id="edge13" class="edge">
<title>Node352833&#45;&gt;Node353072</title>
<path fill="none" stroke="#191970" d="M251.3254,-531.7545C258.9804,-507.086 282.5234,-441.8524 326,-408.518 336.3055,-400.6165 349.6674,-395.9978 361.9509,-393.2992"/>
<polygon fill="#191970" stroke="#191970" points="362.7283,-396.7149 371.9247,-391.4541 361.4548,-389.8317 362.7283,-396.7149"/>
</g>
<!-- Node353073 -->
<g id="node14" class="node">
<title>Node353073</title>
<g id="a_node14"><a xlink:href="cutils_8h.html#a288ee4e688944e23500af2ecc813c306" target="_top" xlink:title="get_i8">
<polygon fill="none" stroke="#000000" points="374.5,-342.018 374.5,-361.018 417.5,-361.018 417.5,-342.018 374.5,-342.018"/>
<text text-anchor="middle" x="396" y="-349.018" font-family="Helvetica,sans-Serif" font-size="10.00" fill="#000000">get_i8</text>
</a>
</g>
</g>
<!-- Node352833&#45;&gt;Node353073 -->
<g id="edge14" class="edge">
<title>Node352833&#45;&gt;Node353073</title>
<path fill="none" stroke="#191970" d="M249.9874,-531.6564C254.9394,-502.3557 273.6281,-415.0939 326,-370.518 336.6689,-361.4373 351.2858,-356.6608 364.404,-354.1626"/>
<polygon fill="#191970" stroke="#191970" points="365.148,-357.5893 374.4992,-352.6087 364.0831,-350.6708 365.148,-357.5893"/>
</g>
<!-- Node353074 -->
<g id="node15" class="node">
<title>Node353074</title>
<g id="a_node15"><a xlink:href="cutils_8h.html#ad587834d17e95461893d59661e5e9676" target="_top" xlink:title="get_u16">
<polygon fill="none" stroke="#000000" points="370.5,-304.018 370.5,-323.018 421.5,-323.018 421.5,-304.018 370.5,-304.018"/>
<text text-anchor="middle" x="396" y="-311.018" font-family="Helvetica,sans-Serif" font-size="10.00" fill="#000000">get_u16</text>
</a>
</g>
</g>
<!-- Node352833&#45;&gt;Node353074 -->
<g id="edge15" class="edge">
<title>Node352833&#45;&gt;Node353074</title>
<path fill="none" stroke="#191970" d="M249.0654,-531.9348C251.5431,-498.9288 264.2925,-388.9046 326,-332.518 335.3686,-323.9572 348.2095,-319.1921 360.3368,-316.561"/>
<polygon fill="#191970" stroke="#191970" points="361.0209,-319.9945 370.264,-314.8162 359.8091,-313.1001 361.0209,-319.9945"/>
</g>
<!-- Node353075 -->
<g id="node16" class="node">
<title>Node353075</title>
<g id="a_node16"><a xlink:href="cutils_8h.html#a941262a5f72fda2ec43ae7911e97a0dc" target="_top" xlink:title="get_u32">
<polygon fill="none" stroke="#000000" points="370.5,-266.018 370.5,-285.018 421.5,-285.018 421.5,-266.018 370.5,-266.018"/>
<text text-anchor="middle" x="396" y="-273.018" font-family="Helvetica,sans-Serif" font-size="10.00" fill="#000000">get_u32</text>
</a>
</g>
</g>
<!-- Node352833&#45;&gt;Node353075 -->
<g id="edge16" class="edge">
<title>Node352833&#45;&gt;Node353075</title>
<path fill="none" stroke="#191970" d="M250.2309,-531.9947C257.8809,-490.8982 289.8816,-329.2547 326,-294.518 335.218,-285.6526 348.1394,-280.8311 360.3749,-278.2401"/>
<polygon fill="#191970" stroke="#191970" points="361.1173,-281.6644 370.3951,-276.5485 359.952,-274.7621 361.1173,-281.6644"/>
</g>
<!-- Node353076 -->
<g id="node17" class="node">
<title>Node353076</title>
<g id="a_node17"><a xlink:href="quickjs_8c.html#a37fe43b6649456a848bd54846450b995" target="_top" xlink:title="get_var_ref">
<polygon fill="none" stroke="#ff0000" points="529,-732.018 529,-751.018 594,-751.018 594,-732.018 529,-732.018"/>
<text text-anchor="middle" x="561.5" y="-739.018" font-family="Helvetica,sans-Serif" font-size="10.00" fill="#000000">get_var_ref</text>
</a>
</g>
</g>
<!-- Node352833&#45;&gt;Node353076 -->
<g id="edge17" class="edge">
<title>Node352833&#45;&gt;Node353076</title>
<path fill="none" stroke="#191970" d="M250.1437,-551.2495C255.4326,-579.3239 274.7535,-660.9123 326,-699.518 382.4806,-742.0667 468.0091,-746.5957 518.9593,-744.8573"/>
<polygon fill="#191970" stroke="#191970" points="519.1391,-748.3529 528.9765,-744.4192 518.8331,-741.3596 519.1391,-748.3529"/>
</g>
<!-- Node353025 -->
<g id="node18" class="node">
<title>Node353025</title>
<g id="a_node18"><a xlink:href="list_8h.html#a663527a4d757540b2177bef0db1ce5c0" target="_top" xlink:title="init_list_head">
<polygon fill="none" stroke="#000000" points="359,-228.018 359,-247.018 433,-247.018 433,-228.018 359,-228.018"/>
<text text-anchor="middle" x="396" y="-235.018" font-family="Helvetica,sans-Serif" font-size="10.00" fill="#000000">init_list_head</text>
</a>
</g>
</g>
<!-- Node352833&#45;&gt;Node353025 -->
<g id="edge18" class="edge">
<title>Node352833&#45;&gt;Node353025</title>
<path fill="none" stroke="#191970" d="M249.8393,-531.7866C256.252,-486.5502 285.2007,-297.2982 326,-256.518 332.3416,-250.1794 340.5707,-245.8969 349.1468,-243.0172"/>
<polygon fill="#191970" stroke="#191970" points="350.1863,-246.3612 358.8949,-240.3271 348.3241,-239.6135 350.1863,-246.3612"/>
</g>
<!-- Node353006 -->
<g id="node19" class="node">
<title>Node353006</title>
<g id="a_node19"><a xlink:href="quickjs_8c.html#a686cf78f8b0361621ee2ba6182195c31" target="_top" xlink:title="is_strict_mode">
<polygon fill="none" stroke="#000000" points="356,-190.018 356,-209.018 436,-209.018 436,-190.018 356,-190.018"/>
<text text-anchor="middle" x="396" y="-197.018" font-family="Helvetica,sans-Serif" font-size="10.00" fill="#000000">is_strict_mode</text>
</a>
</g>
</g>
<!-- Node352833&#45;&gt;Node353006 -->
<g id="edge19" class="edge">
<title>Node352833&#45;&gt;Node353006</title>
<path fill="none" stroke="#191970" d="M249.503,-531.8301C254.7343,-483.1229 280.4066,-265.4792 326,-218.518 331.5508,-212.8006 338.6347,-208.7488 346.1545,-205.8886"/>
<polygon fill="#191970" stroke="#191970" points="347.3281,-209.1889 355.8302,-202.8672 345.2415,-202.5071 347.3281,-209.1889"/>
</g>
<!-- Node353077 -->
<g id="node20" class="node">
<title>Node353077</title>
<g id="a_node20"><a xlink:href="quickjs_8c.html#ae8ff05447c0d51fe277baccf616dc7c6" target="_top" xlink:title="js_add_slow">
<polygon fill="none" stroke="#ff0000" points="360.5,-152.018 360.5,-171.018 431.5,-171.018 431.5,-152.018 360.5,-152.018"/>
<text text-anchor="middle" x="396" y="-159.018" font-family="Helvetica,sans-Serif" font-size="10.00" fill="#000000">js_add_slow</text>
</a>
</g>
</g>
<!-- Node352833&#45;&gt;Node353077 -->
<g id="edge20" class="edge">
<title>Node352833&#45;&gt;Node353077</title>
<path fill="none" stroke="#191970" d="M249.2467,-531.7558C253.4322,-479.545 275.6198,-233.6721 326,-180.518 332.5524,-173.6048 341.344,-169.1181 350.4794,-166.2276"/>
<polygon fill="#191970" stroke="#191970" points="351.618,-169.5491 360.4376,-163.6783 349.8819,-162.7678 351.618,-169.5491"/>
</g>
<!-- Node353084 -->
<g id="node21" class="node">
<title>Node353084</title>
<g id="a_node21"><a xlink:href="quickjs_8c.html#a6a21784a40b8684f2e779bd460dd13b2" target="_top" xlink:title="JS_AddBrand">
<polygon fill="none" stroke="#ff0000" points="357.5,-874.018 357.5,-893.018 434.5,-893.018 434.5,-874.018 357.5,-874.018"/>
<text text-anchor="middle" x="396" y="-881.018" font-family="Helvetica,sans-Serif" font-size="10.00" fill="#000000">JS_AddBrand</text>
</a>
</g>
</g>
<!-- Node352833&#45;&gt;Node353084 -->
<g id="edge21" class="edge">
<title>Node352833&#45;&gt;Node353084</title>
<path fill="none" stroke="#191970" d="M249.503,-551.2058C254.7343,-599.9131 280.4066,-817.5567 326,-864.518 331.9264,-870.6221 339.6002,-874.8277 347.6864,-877.7117"/>
<polygon fill="#191970" stroke="#191970" points="346.7076,-881.072 357.2883,-880.5247 348.6757,-874.3543 346.7076,-881.072"/>
</g>
<!-- Node353087 -->
<g id="node22" class="node">
<title>Node353087</title>
<g id="a_node22"><a xlink:href="quickjs_8c.html#a43208b0746998d2b6b9b8bd1ef8b5f99" target="_top" xlink:title="js_append_enumerate">
<polygon fill="none" stroke="#ff0000" points="340,-988.018 340,-1007.018 452,-1007.018 452,-988.018 340,-988.018"/>
<text text-anchor="middle" x="396" y="-995.018" font-family="Helvetica,sans-Serif" font-size="10.00" fill="#000000">js_append_enumerate</text>
</a>
</g>
</g>
<!-- Node352833&#45;&gt;Node353087 -->
<g id="edge23" class="edge">
<title>Node352833&#45;&gt;Node353087</title>
<path fill="none" stroke="#191970" d="M248.9336,-551.1618C251.7062,-608.7264 268.6999,-906.719 326,-973.518 329.2282,-977.2813 333.074,-980.4554 337.2778,-983.1324"/>
<polygon fill="#191970" stroke="#191970" points="335.8557,-986.3406 346.3263,-987.9587 339.1501,-980.1643 335.8557,-986.3406"/>
</g>
<!-- Node352915 -->
<g id="node23" class="node">
<title>Node352915</title>
<g id="a_node23"><a xlink:href="quickjs_8c.html#a260bfa297ff6cb5bd18e229afaa54663" target="_top" xlink:title="JS_AtomToString">
<polygon fill="none" stroke="#ff0000" points="349,-114.018 349,-133.018 443,-133.018 443,-114.018 349,-114.018"/>
<text text-anchor="middle" x="396" y="-121.018" font-family="Helvetica,sans-Serif" font-size="10.00" fill="#000000">JS_AtomToString</text>
</a>
</g>
</g>
<!-- Node352833&#45;&gt;Node352915 -->
<g id="edge25" class="edge">
<title>Node352833&#45;&gt;Node352915</title>
<path fill="none" stroke="#191970" d="M249.0263,-531.8464C252.2214,-476.6611 270.7561,-201.961 326,-142.518 329.804,-138.4248 334.3926,-135.1797 339.3793,-132.6118"/>
<polygon fill="#191970" stroke="#191970" points="340.8456,-135.792 348.7021,-128.6838 338.1277,-129.3412 340.8456,-135.792"/>
</g>
<!-- Node353114 -->
<g id="node24" class="node">
<title>Node353114</title>
<g id="a_node24"><a xlink:href="quickjs_8c.html#afa67965c1017685fc6783776d6d0d4d7" target="_top" xlink:title="JS_AtomToValue">
<polygon fill="none" stroke="#ff0000" points="349.5,-76.018 349.5,-95.018 442.5,-95.018 442.5,-76.018 349.5,-76.018"/>
<text text-anchor="middle" x="396" y="-83.018" font-family="Helvetica,sans-Serif" font-size="10.00" fill="#000000">JS_AtomToValue</text>
</a>
</g>
</g>
<!-- Node352833&#45;&gt;Node353114 -->
<g id="edge26" class="edge">
<title>Node352833&#45;&gt;Node353114</title>
<path fill="none" stroke="#191970" d="M248.8549,-531.7085C251.1691,-473.1624 265.9499,-170.1997 326,-104.518 329.8767,-100.2777 334.595,-96.9454 339.7318,-94.332"/>
<polygon fill="#191970" stroke="#191970" points="341.4323,-97.4164 349.3386,-90.3636 338.7598,-90.9467 341.4323,-97.4164"/>
</g>
<!-- Node353115 -->
<g id="node25" class="node">
<title>Node353115</title>
<g id="a_node25"><a xlink:href="quickjs_8c.html#a04d312757919ff6b4d79cd0c2c3e5bb2" target="_top" xlink:title="js_build_arguments">
<polygon fill="none" stroke="#ff0000" points="345.5,-836.018 345.5,-855.018 446.5,-855.018 446.5,-836.018 345.5,-836.018"/>
<text text-anchor="middle" x="396" y="-843.018" font-family="Helvetica,sans-Serif" font-size="10.00" fill="#000000">js_build_arguments</text>
</a>
</g>
</g>
<!-- Node352833&#45;&gt;Node353115 -->
<g id="edge27" class="edge">
<title>Node352833&#45;&gt;Node353115</title>
<path fill="none" stroke="#191970" d="M249.8393,-551.2493C256.252,-596.4858 285.2007,-785.7377 326,-826.518 329.056,-829.5725 332.5503,-832.1496 336.3105,-834.3223"/>
<polygon fill="#191970" stroke="#191970" points="334.9527,-837.5522 345.486,-838.6925 337.9628,-831.2324 334.9527,-837.5522"/>
</g>
<!-- Node353116 -->
<g id="node26" class="node">
<title>Node353116</title>
<g id="a_node26"><a xlink:href="quickjs_8c.html#a1c459034f2971c4abc3a8d6d4693ef5f" target="_top" xlink:title="js_build_mapped_arguments">
<polygon fill="none" stroke="#ff0000" points="326,-798.018 326,-817.018 466,-817.018 466,-798.018 326,-798.018"/>
<text text-anchor="middle" x="396" y="-805.018" font-family="Helvetica,sans-Serif" font-size="10.00" fill="#000000">js_build_mapped_arguments</text>
</a>
</g>
</g>
<!-- Node352833&#45;&gt;Node353116 -->
<g id="edge29" class="edge">
<title>Node352833&#45;&gt;Node353116</title>
<path fill="none" stroke="#191970" d="M250.3695,-551.0647C258.4664,-591.5352 291.6513,-748.4624 326,-783.518 329.8775,-787.4753 334.4351,-790.7804 339.3336,-793.5408"/>
<polygon fill="#191970" stroke="#191970" points="337.9191,-796.7444 348.4457,-797.9442 340.9649,-790.4418 337.9191,-796.7444"/>
</g>
<!-- Node353117 -->
<g id="node27" class="node">
<title>Node353117</title>
<g id="a_node27"><a xlink:href="quickjs_8c.html#a72f4829a5b32f5445fe3f2a59efeb8ea" target="_top" xlink:title="js_build_rest">
<polygon fill="none" stroke="#ff0000" points="360.5,-38.018 360.5,-57.018 431.5,-57.018 431.5,-38.018 360.5,-38.018"/>
<text text-anchor="middle" x="396" y="-45.018" font-family="Helvetica,sans-Serif" font-size="10.00" fill="#000000">js_build_rest</text>
</a>
</g>
</g>
<!-- Node352833&#45;&gt;Node353117 -->
<g id="edge34" class="edge">
<title>Node352833&#45;&gt;Node353117</title>
<path fill="none" stroke="#191970" d="M248.7044,-531.6743C250.1802,-470.1271 261.094,-138.5013 326,-66.518 332.3785,-59.444 341.0989,-54.8916 350.2204,-51.9882"/>
<polygon fill="#191970" stroke="#191970" points="351.3609,-55.3093 360.1838,-49.4436 349.6287,-48.527 351.3609,-55.3093"/>
</g>
<!-- Node353118 -->
<g id="node28" class="node">
<title>Node353118</title>
<g id="a_node28"><a xlink:href="quickjs_8c.html#afd4ef2d701fa0702f321925b61c57bbf" target="_top" xlink:title="js_call_bound_function">
<polygon fill="none" stroke="#ff0000" points="503.5,-532.018 503.5,-551.018 619.5,-551.018 619.5,-532.018 503.5,-532.018"/>
<text text-anchor="middle" x="561.5" y="-539.018" font-family="Helvetica,sans-Serif" font-size="10.00" fill="#000000">js_call_bound_function</text>
</a>
</g>
</g>
<!-- Node352833&#45;&gt;Node353118 -->
<g id="edge36" class="edge">
<title>Node352833&#45;&gt;Node353118</title>
<path fill="none" stroke="#191970" d="M290.064,-541.518C341.8893,-541.518 431.192,-541.518 493.1461,-541.518"/>
<polygon fill="#191970" stroke="#191970" points="493.2277,-545.0181 503.2276,-541.518 493.2276,-538.0181 493.2277,-545.0181"/>
</g>
<!-- Node353121 -->
<g id="node29" class="node">
<title>Node353121</title>
<g id="a_node29"><a xlink:href="quickjs_8c.html#a3486836f2ac17a9fa315904e14858e5a" target="_top" xlink:title="js_call_c_function">
<polygon fill="none" stroke="#ff0000" points="514,-589.018 514,-608.018 609,-608.018 609,-589.018 514,-589.018"/>
<text text-anchor="middle" x="561.5" y="-596.018" font-family="Helvetica,sans-Serif" font-size="10.00" fill="#000000">js_call_c_function</text>
</a>
</g>
</g>
<!-- Node352833&#45;&gt;Node353121 -->
<g id="edge38" class="edge">
<title>Node352833&#45;&gt;Node353121</title>
<path fill="none" stroke="#191970" d="M257.383,-551.1278C270.7246,-564.7725 297.4348,-589.1445 326,-598.518 384.2096,-617.6191 454.9588,-614.3597 503.6257,-608.3719"/>
<polygon fill="#191970" stroke="#191970" points="504.2012,-611.8265 513.6631,-607.0598 503.2938,-604.8856 504.2012,-611.8265"/>
</g>
<!-- Node353120 -->
<g id="node30" class="node">
<title>Node353120</title>
<g id="a_node30"><a xlink:href="quickjs_8c.html#ad35594576a14c10812efaf958c99af8a" target="_top" xlink:title="JS_CallConstructorInternal">
<polygon fill="none" stroke="#ff0000" points="329,-570.018 329,-589.018 463,-589.018 463,-570.018 329,-570.018"/>
<text text-anchor="middle" x="396" y="-577.018" font-family="Helvetica,sans-Serif" font-size="10.00" fill="#000000">JS_CallConstructorInternal</text>
</a>
</g>
</g>
<!-- Node352833&#45;&gt;Node353120 -->
<g id="edge39" class="edge">
<title>Node352833&#45;&gt;Node353120</title>
<path fill="none" stroke="#191970" d="M290.373,-546.1505C314.9308,-551.5016 345.3279,-559.5572 367.1991,-566.6164"/>
<polygon fill="#191970" stroke="#191970" points="366.2977,-570.0059 376.8918,-569.8806 368.5318,-563.372 366.2977,-570.0059"/>
</g>
<!-- Node352878&#45;&gt;Node352879 -->
<g id="edge7" class="edge">
<title>Node352878&#45;&gt;Node352879</title>
<path fill="none" stroke="#191970" d="M433.1414,-659.7819C457.7928,-662.612 490.2972,-666.3436 516.4282,-669.3436"/>
<polygon fill="#191970" stroke="#191970" points="516.1302,-672.8323 526.4642,-670.4957 516.9286,-665.8779 516.1302,-672.8323"/>
</g>
<!-- Node353084&#45;&gt;Node352836 -->
<g id="edge22" class="edge">
<title>Node353084&#45;&gt;Node352836</title>
<path fill="none" stroke="#191970" d="M434.8024,-879.0633C458.7342,-876.3159 489.5746,-872.7753 514.8357,-869.8752"/>
<polygon fill="#191970" stroke="#191970" points="515.391,-873.3345 524.9266,-868.7167 514.5926,-866.3802 515.391,-873.3345"/>
</g>
<!-- Node353087&#45;&gt;Node352834 -->
<g id="edge24" class="edge">
<title>Node353087&#45;&gt;Node352834</title>
<path fill="none" stroke="#191970" d="M452.0308,-1002.2577C472.3799,-1003.9791 495.144,-1005.9048 514.6206,-1007.5524"/>
<polygon fill="#191970" stroke="#191970" points="514.5107,-1011.0555 524.7702,-1008.4109 515.1008,-1004.0804 514.5107,-1011.0555"/>
</g>
<!-- Node353115&#45;&gt;Node352836 -->
<g id="edge28" class="edge">
<title>Node353115&#45;&gt;Node352836</title>
<path fill="none" stroke="#191970" d="M446.5547,-851.3218C468.2848,-853.8165 493.524,-856.7141 514.8073,-859.1575"/>
<polygon fill="#191970" stroke="#191970" points="514.571,-862.6533 524.9049,-860.3167 515.3694,-855.6989 514.571,-862.6533"/>
</g>
<!-- Node353116&#45;&gt;Node352835 -->
<g id="edge30" class="edge">
<title>Node353116&#45;&gt;Node352835</title>
<path fill="none" stroke="#191970" d="M448.4754,-817.0725C454.7179,-819.533 460.7332,-822.6271 466,-826.518 490.0999,-844.3217 483.533,-859.9225 502,-883.518 514.8224,-899.9014 531.3312,-916.8333 543.7051,-928.8546"/>
<polygon fill="#191970" stroke="#191970" points="541.5151,-931.6033 551.1592,-935.99 546.3556,-926.5467 541.5151,-931.6033"/>
</g>
<!-- Node353116&#45;&gt;Node352836 -->
<g id="edge31" class="edge">
<title>Node353116&#45;&gt;Node352836</title>
<path fill="none" stroke="#191970" d="M434.3817,-817.0927C444.7178,-819.8998 455.8461,-823.132 466,-826.518 487.6669,-833.7432 511.5411,-843.2428 529.999,-850.9363"/>
<polygon fill="#191970" stroke="#191970" points="528.8072,-854.2321 539.3818,-854.8858 531.5229,-847.7803 528.8072,-854.2321"/>
</g>
<!-- Node353116&#45;&gt;Node352873 -->
<g id="edge32" class="edge">
<title>Node353116&#45;&gt;Node352873</title>
<path fill="none" stroke="#191970" d="M466.1869,-803.7012C483.3663,-802.7669 501.2854,-801.7925 516.8888,-800.944"/>
<polygon fill="#191970" stroke="#191970" points="517.4884,-804.4166 527.2836,-800.3787 517.1083,-797.4269 517.4884,-804.4166"/>
</g>
<!-- Node353116&#45;&gt;Node353076 -->
<g id="edge33" class="edge">
<title>Node353116&#45;&gt;Node353076</title>
<path fill="none" stroke="#191970" d="M420.0651,-797.921C448.5824,-786.5486 496.2571,-767.5363 528.2779,-754.7667"/>
<polygon fill="#191970" stroke="#191970" points="529.6822,-757.9748 537.6743,-751.0194 527.0892,-751.4727 529.6822,-757.9748"/>
</g>
<!-- Node353118&#45;&gt;Node352832 -->
<g id="edge37" class="edge">
<title>Node353118&#45;&gt;Node352832</title>
<path fill="none" stroke="#191970" d="M561.3016,-531.8927C559.7495,-467.1877 547.3448,-96.1172 466,-28.518 418.1452,11.2504 376.777,7.4445 326,-28.518 239.8238,-89.5516 166.4315,-435.618 149.2807,-521.9878"/>
<polygon fill="#191970" stroke="#191970" points="145.846,-521.3155 147.3533,-531.8026 152.7148,-522.6645 145.846,-521.3155"/>
</g>
<!-- Node353120&#45;&gt;Node352833 -->
<g id="edge42" class="edge">
<title>Node353120&#45;&gt;Node352833</title>
<path fill="none" stroke="#191970" d="M332.9905,-569.971C313.5697,-565.2007 293.1336,-559.5327 277.2252,-554.3951"/>
<polygon fill="#191970" stroke="#191970" points="278.0752,-550.9882 267.4811,-551.1103 275.8391,-557.6215 278.0752,-550.9882"/>
</g>
<!-- Node353120&#45;&gt;Node353118 -->
<g id="edge40" class="edge">
<title>Node353120&#45;&gt;Node353118</title>
<path fill="none" stroke="#191970" d="M437.7626,-569.929C459.7005,-564.8919 486.7803,-558.6742 510.008,-553.3409"/>
<polygon fill="#191970" stroke="#191970" points="511.0746,-556.6872 520.0377,-551.038 509.508,-549.8647 511.0746,-556.6872"/>
</g>
<!-- Node353120&#45;&gt;Node353121 -->
<g id="edge41" class="edge">
<title>Node353120&#45;&gt;Node353121</title>
<path fill="none" stroke="#191970" d="M463.3152,-587.246C476.5907,-588.7701 490.4156,-590.3572 503.3573,-591.843"/>
<polygon fill="#191970" stroke="#191970" points="503.1855,-595.3462 513.5194,-593.0096 503.9839,-588.3918 503.1855,-595.3462"/>
</g>
</g>
</svg>
        <g id="navigator" transform="translate(0 0)" fill="#404254">
                <rect fill="#f2f5e9" fill-opacity="0.5" stroke="#606060" stroke-width=".5" x="0" y="0" width="60" height="60"/>
                <use id="zoomplus" xlink:href="#zoomPlus" x="17" y="9" onmousedown="handleZoom(evt,'in')"/>
                <use id="zoomminus" xlink:href="#zoomMin" x="42" y="9" onmousedown="handleZoom(evt,'out')"/>
                <use id="reset" xlink:href="#resetDef" x="30" y="36" onmousedown="handleReset()"/>
                <g id="arrowUp" xlink:href="#dirArrow" transform="translate(30 24)" onmousedown="handlePan(0,-1)">
                  <use xlink:href="#rim" fill="#404040">
                        <set attributeName="fill" to="#808080" begin="arrowUp.mouseover" end="arrowUp.mouseout"/>
                  </use>
                  <path fill="none" stroke="white" stroke-width="1.5" d="M0,-3.0v7 M-2.5,-0.5L0,-3.0L2.5,-0.5"/>
                </g>
                <g id="arrowRight" xlink:href="#dirArrow" transform="rotate(90) translate(36 -43)" onmousedown="handlePan(1,0)">
                  <use xlink:href="#rim" fill="#404040">
                        <set attributeName="fill" to="#808080" begin="arrowRight.mouseover" end="arrowRight.mouseout"/>
                  </use>
                  <path fill="none" stroke="white" stroke-width="1.5" d="M0,-3.0v7 M-2.5,-0.5L0,-3.0L2.5,-0.5"/>
                </g>
                <g id="arrowDown" xlink:href="#dirArrow" transform="rotate(180) translate(-30 -48)" onmousedown="handlePan(0,1)">
                  <use xlink:href="#rim" fill="#404040">
                        <set attributeName="fill" to="#808080" begin="arrowDown.mouseover" end="arrowDown.mouseout"/>
                  </use>
                  <path fill="none" stroke="white" stroke-width="1.5" d="M0,-3.0v7 M-2.5,-0.5L0,-3.0L2.5,-0.5"/>
                </g>
                <g id="arrowLeft" xlink:href="#dirArrow" transform="rotate(270) translate(-36 17)" onmousedown="handlePan(-1,0)">
                  <use xlink:href="#rim" fill="#404040">
                        <set attributeName="fill" to="#808080" begin="arrowLeft.mouseover" end="arrowLeft.mouseout"/>
                  </use>
                  <path fill="none" stroke="white" stroke-width="1.5" d="M0,-3.0v7 M-2.5,-0.5L0,-3.0L2.5,-0.5"/>
                </g>
        </g>
        <svg viewBox="0 0 15 15" width="100%" height="30px" preserveAspectRatio="xMaxYMin meet">
         <g id="arrow_out" transform="scale(0.3 0.3)">
          <a xlink:href="quickjs_8c_a677ad630a103e1f3d5129e0549112b50_cgraph_org.svg" target="_base">
           <rect id="button" ry="5" rx="5" y="6" x="6" height="38" width="38"
                fill="#f2f5e9" fill-opacity="0.5" stroke="#606060" stroke-width="1.0"/>
           <path id="arrow"
             d="M 11.500037,31.436501 C 11.940474,20.09759 22.043105,11.32322 32.158766,21.979434 L 37.068811,17.246167 C 37.068811,17.246167 37.088388,32 37.088388,32 L 22.160133,31.978069 C 22.160133,31.978069 26.997745,27.140456 26.997745,27.140456 C 18.528582,18.264221 13.291696,25.230495 11.500037,31.436501 z"
             style="fill:#404040;"/>
          </a>
         </g>
        </svg>
</svg>
