<?xml version="1.0" encoding="UTF-8" standalone="no"?>
<!DOCTYPE svg PUBLIC "-//W3C//DTD SVG 1.1//EN"
 "http://www.w3.org/Graphics/SVG/1.1/DTD/svg11.dtd">
<!-- Generated by graphviz version 2.40.1 (20161225.0304)
 -->
<!-- Title: JS_NewAtomInt64 Pages: 1 -->
<svg width="854pt" height="1100pt"
 viewBox="0.00 0.00 854.00 1099.91" xmlns="http://www.w3.org/2000/svg" xmlns:xlink="http://www.w3.org/1999/xlink">
<g id="graph0" class="graph" transform="scale(1 1) rotate(0) translate(4 1095.9145)">
<title>JS_NewAtomInt64</title>
<!-- Node74903 -->
<g id="node1" class="node">
<title>Node74903</title>
<polygon fill="#bfbfbf" stroke="#000000" points="0,-443.6265 0,-462.6265 99,-462.6265 99,-443.6265 0,-443.6265"/>
<text text-anchor="middle" x="49.5" y="-450.6265" font-family="Helvetica,sans-Serif" font-size="10.00" fill="#000000">JS_NewAtomInt64</text>
</g>
<!-- Node74904 -->
<g id="node2" class="node">
<title>Node74904</title>
<g id="a_node2"><a xlink:href="quickjs_8c.html#a70e21308fe3760cd95dd1dbb1a8755e6" target="_top" xlink:title="JS_DeletePropertyInt64">
<polygon fill="none" stroke="#000000" points="135.5,-386.6265 135.5,-405.6265 256.5,-405.6265 256.5,-386.6265 135.5,-386.6265"/>
<text text-anchor="middle" x="196" y="-393.6265" font-family="Helvetica,sans-Serif" font-size="10.00" fill="#000000">JS_DeletePropertyInt64</text>
</a>
</g>
</g>
<!-- Node74903&#45;&gt;Node74904 -->
<g id="edge1" class="edge">
<title>Node74903&#45;&gt;Node74904</title>
<path fill="none" stroke="#191970" d="M83.4339,-439.9236C110.3334,-429.4576 147.2855,-415.0803 171.3992,-405.6982"/>
<polygon fill="#191970" stroke="#191970" points="82.0711,-436.6982 74.0208,-443.586 84.6094,-443.2218 82.0711,-436.6982"/>
</g>
<!-- Node74914 -->
<g id="node12" class="node">
<title>Node74914</title>
<g id="a_node12"><a xlink:href="quickjs_8c.html#a7bb763b31e1c40a04aa0c1d5db0f1191" target="_top" xlink:title="JS_GetPropertyInt64">
<polygon fill="none" stroke="#000000" points="142,-852.6265 142,-871.6265 250,-871.6265 250,-852.6265 142,-852.6265"/>
<text text-anchor="middle" x="196" y="-859.6265" font-family="Helvetica,sans-Serif" font-size="10.00" fill="#000000">JS_GetPropertyInt64</text>
</a>
</g>
</g>
<!-- Node74903&#45;&gt;Node74914 -->
<g id="edge15" class="edge">
<title>Node74903&#45;&gt;Node74914</title>
<path fill="none" stroke="#191970" d="M56.4476,-472.523C82.4422,-545.0948 173.4498,-799.1708 192.4906,-852.3291"/>
<polygon fill="#191970" stroke="#191970" points="59.6441,-471.0673 52.9769,-462.8333 53.054,-473.4279 59.6441,-471.0673"/>
</g>
<!-- Node74925 -->
<g id="node22" class="node">
<title>Node74925</title>
<g id="a_node22"><a xlink:href="quickjs_8c.html#a51b06daa618640e531fe808770553b96" target="_top" xlink:title="JS_SetPropertyInt64">
<polygon fill="none" stroke="#000000" points="142.5,-472.6265 142.5,-491.6265 249.5,-491.6265 249.5,-472.6265 142.5,-472.6265"/>
<text text-anchor="middle" x="196" y="-479.6265" font-family="Helvetica,sans-Serif" font-size="10.00" fill="#000000">JS_SetPropertyInt64</text>
</a>
</g>
</g>
<!-- Node74903&#45;&gt;Node74925 -->
<g id="edge31" class="edge">
<title>Node74903&#45;&gt;Node74925</title>
<path fill="none" stroke="#191970" d="M107.8192,-464.671C121.0343,-467.2869 134.9266,-470.0369 147.6752,-472.5605"/>
<polygon fill="#191970" stroke="#191970" points="108.3649,-461.2111 97.8756,-462.7026 107.0056,-468.0779 108.3649,-461.2111"/>
</g>
<!-- Node74929 -->
<g id="node25" class="node">
<title>Node74929</title>
<g id="a_node25"><a xlink:href="quickjs_8c.html#a14674e74168715dc5a3a391910982e5d" target="_top" xlink:title="JS_TryGetPropertyInt64">
<polygon fill="none" stroke="#000000" points="135,-188.6265 135,-207.6265 257,-207.6265 257,-188.6265 135,-188.6265"/>
<text text-anchor="middle" x="196" y="-195.6265" font-family="Helvetica,sans-Serif" font-size="10.00" fill="#000000">JS_TryGetPropertyInt64</text>
</a>
</g>
</g>
<!-- Node74903&#45;&gt;Node74929 -->
<g id="edge45" class="edge">
<title>Node74903&#45;&gt;Node74929</title>
<path fill="none" stroke="#191970" d="M60.1535,-434.583C89.1313,-384.1438 168.665,-245.7063 190.4304,-207.8211"/>
<polygon fill="#191970" stroke="#191970" points="57.0108,-433.0272 55.0641,-443.4416 63.0805,-436.5143 57.0108,-433.0272"/>
</g>
<!-- Node74905 -->
<g id="node3" class="node">
<title>Node74905</title>
<g id="a_node3"><a xlink:href="quickjs_8c.html#a6c99d7581e100a5de07c9a24f4c7d34a" target="_top" xlink:title="JS_CopySubArray">
<polygon fill="none" stroke="#000000" points="317.5,-434.6265 317.5,-453.6265 415.5,-453.6265 415.5,-434.6265 317.5,-434.6265"/>
<text text-anchor="middle" x="366.5" y="-441.6265" font-family="Helvetica,sans-Serif" font-size="10.00" fill="#000000">JS_CopySubArray</text>
</a>
</g>
</g>
<!-- Node74904&#45;&gt;Node74905 -->
<g id="edge2" class="edge">
<title>Node74904&#45;&gt;Node74905</title>
<path fill="none" stroke="#191970" d="M239.9113,-408.4887C268.7363,-416.6036 305.8805,-427.0606 332.4657,-434.545"/>
<polygon fill="#191970" stroke="#191970" points="240.6678,-405.0656 230.0934,-405.7247 238.7708,-411.8037 240.6678,-405.0656"/>
</g>
<!-- Node74906 -->
<g id="node4" class="node">
<title>Node74906</title>
<g id="a_node4"><a xlink:href="quickjs_8c.html#a01281ea66186a034a0e9021ee8c9f945" target="_top" xlink:title="js_array_pop">
<polygon fill="none" stroke="#000000" points="507,-700.6265 507,-719.6265 579,-719.6265 579,-700.6265 507,-700.6265"/>
<text text-anchor="middle" x="543" y="-707.6265" font-family="Helvetica,sans-Serif" font-size="10.00" fill="#000000">js_array_pop</text>
</a>
</g>
</g>
<!-- Node74904&#45;&gt;Node74906 -->
<g id="edge11" class="edge">
<title>Node74904&#45;&gt;Node74906</title>
<path fill="none" stroke="#191970" d="M216.9219,-411.7329C236.2273,-425.8519 265.9159,-446.8615 293,-463.1265 356.0523,-500.9919 386.3315,-488.8367 440,-539.1265 493.1076,-588.8908 528.3955,-672.0786 539.3624,-700.3675"/>
<polygon fill="#191970" stroke="#191970" points="218.9566,-408.8846 208.8292,-405.7724 214.8054,-414.5209 218.9566,-408.8846"/>
</g>
<!-- Node74910 -->
<g id="node8" class="node">
<title>Node74910</title>
<g id="a_node8"><a xlink:href="quickjs_8c.html#a70b7ec8358ab99b905686d5bf80950cc" target="_top" xlink:title="js_array_slice">
<polygon fill="none" stroke="#000000" points="504.5,-358.6265 504.5,-377.6265 581.5,-377.6265 581.5,-358.6265 504.5,-358.6265"/>
<text text-anchor="middle" x="543" y="-365.6265" font-family="Helvetica,sans-Serif" font-size="10.00" fill="#000000">js_array_slice</text>
</a>
</g>
</g>
<!-- Node74904&#45;&gt;Node74910 -->
<g id="edge13" class="edge">
<title>Node74904&#45;&gt;Node74910</title>
<path fill="none" stroke="#191970" d="M218.8848,-381.3543C237.8756,-370.0251 266.0408,-355.3139 293,-349.1265 367.4558,-332.0384 457.3193,-347.3092 506.4728,-358.6028"/>
<polygon fill="#191970" stroke="#191970" points="217.0392,-378.3803 210.3445,-386.592 220.6989,-384.3475 217.0392,-378.3803"/>
</g>
<!-- Node74912 -->
<g id="node10" class="node">
<title>Node74912</title>
<g id="a_node10"><a xlink:href="quickjs_8c.html#a8235fb13f196d6ef5002daed858b7eeb" target="_top" xlink:title="js_array_reverse">
<polygon fill="none" stroke="#000000" points="322,-226.6265 322,-245.6265 411,-245.6265 411,-226.6265 322,-226.6265"/>
<text text-anchor="middle" x="366.5" y="-233.6265" font-family="Helvetica,sans-Serif" font-size="10.00" fill="#000000">js_array_reverse</text>
</a>
</g>
</g>
<!-- Node74904&#45;&gt;Node74912 -->
<g id="edge12" class="edge">
<title>Node74904&#45;&gt;Node74912</title>
<path fill="none" stroke="#191970" d="M203.8158,-376.9614C217.3071,-346.3509 247.9233,-286.6709 293,-255.1265 301.5308,-249.1568 311.7958,-245.0621 321.9125,-242.2538"/>
<polygon fill="#191970" stroke="#191970" points="200.4592,-375.9108 199.7623,-386.4827 206.8998,-378.6528 200.4592,-375.9108"/>
</g>
<!-- Node74913 -->
<g id="node11" class="node">
<title>Node74913</title>
<g id="a_node11"><a xlink:href="quickjs_8c.html#a874518d6b2fb6ff79531c4a9652202f3" target="_top" xlink:title="js_array_sort">
<polygon fill="none" stroke="#000000" points="330,-358.6265 330,-377.6265 403,-377.6265 403,-358.6265 330,-358.6265"/>
<text text-anchor="middle" x="366.5" y="-365.6265" font-family="Helvetica,sans-Serif" font-size="10.00" fill="#000000">js_array_sort</text>
</a>
</g>
</g>
<!-- Node74904&#45;&gt;Node74913 -->
<g id="edge14" class="edge">
<title>Node74904&#45;&gt;Node74913</title>
<path fill="none" stroke="#191970" d="M264.3542,-384.9012C286.7549,-381.2225 310.7769,-377.2775 329.894,-374.1381"/>
<polygon fill="#191970" stroke="#191970" points="263.5002,-381.4945 254.1996,-386.5688 264.6346,-388.402 263.5002,-381.4945"/>
</g>
<!-- Node74905&#45;&gt;Node74906 -->
<g id="edge3" class="edge">
<title>Node74905&#45;&gt;Node74906</title>
<path fill="none" stroke="#191970" d="M389.1497,-459.47C404.8667,-470.9517 425.5018,-487.782 440,-506.1265 492.3995,-572.4277 528.9074,-669.6239 539.6934,-700.4052"/>
<polygon fill="#191970" stroke="#191970" points="391.1711,-456.6127 380.9943,-453.6658 387.1122,-462.3158 391.1711,-456.6127"/>
</g>
<!-- Node74909 -->
<g id="node7" class="node">
<title>Node74909</title>
<g id="a_node7"><a xlink:href="quickjs_8c.html#a3d640b89712ebda808c0c3eca9849674" target="_top" xlink:title="js_array_push">
<polygon fill="none" stroke="#000000" points="504.5,-472.6265 504.5,-491.6265 581.5,-491.6265 581.5,-472.6265 504.5,-472.6265"/>
<text text-anchor="middle" x="543" y="-479.6265" font-family="Helvetica,sans-Serif" font-size="10.00" fill="#000000">js_array_push</text>
</a>
</g>
</g>
<!-- Node74905&#45;&gt;Node74909 -->
<g id="edge7" class="edge">
<title>Node74905&#45;&gt;Node74909</title>
<path fill="none" stroke="#191970" d="M421.1193,-455.8859C448.121,-461.6993 480.0622,-468.5762 504.4708,-473.8313"/>
<polygon fill="#191970" stroke="#191970" points="421.5511,-452.3988 411.0384,-453.7156 420.0777,-459.242 421.5511,-452.3988"/>
</g>
<!-- Node74905&#45;&gt;Node74910 -->
<g id="edge9" class="edge">
<title>Node74905&#45;&gt;Node74910</title>
<path fill="none" stroke="#191970" d="M409.0441,-431.4495C419.2911,-428.0638 430.1273,-424.2029 440,-420.1265 471.1059,-407.2832 505.7437,-388.9022 525.8816,-377.7829"/>
<polygon fill="#191970" stroke="#191970" points="407.8951,-428.1424 399.4509,-434.5414 410.0425,-434.8049 407.8951,-428.1424"/>
</g>
<!-- Node74911 -->
<g id="node9" class="node">
<title>Node74911</title>
<g id="a_node9"><a xlink:href="quickjs_8c.html#a93380da0068e066053740a43c8d8f15a" target="_top" xlink:title="js_array_copyWithin">
<polygon fill="none" stroke="#000000" points="490.5,-434.6265 490.5,-453.6265 595.5,-453.6265 595.5,-434.6265 490.5,-434.6265"/>
<text text-anchor="middle" x="543" y="-441.6265" font-family="Helvetica,sans-Serif" font-size="10.00" fill="#000000">js_array_copyWithin</text>
</a>
</g>
</g>
<!-- Node74905&#45;&gt;Node74911 -->
<g id="edge10" class="edge">
<title>Node74905&#45;&gt;Node74911</title>
<path fill="none" stroke="#191970" d="M425.7216,-444.1265C446.6573,-444.1265 470.046,-444.1265 490.3952,-444.1265"/>
<polygon fill="#191970" stroke="#191970" points="425.6651,-440.6266 415.6651,-444.1265 425.6651,-447.6266 425.6651,-440.6266"/>
</g>
<!-- Node74907 -->
<g id="node5" class="node">
<title>Node74907</title>
<g id="a_node5"><a xlink:href="quickjs_8c.html#a60d84dd116a9d7d912d08f298a4734dd" target="_top" xlink:title="js_json_to_str">
<polygon fill="none" stroke="#000000" points="646,-796.6265 646,-815.6265 723,-815.6265 723,-796.6265 646,-796.6265"/>
<text text-anchor="middle" x="684.5" y="-803.6265" font-family="Helvetica,sans-Serif" font-size="10.00" fill="#000000">js_json_to_str</text>
</a>
</g>
</g>
<!-- Node74906&#45;&gt;Node74907 -->
<g id="edge4" class="edge">
<title>Node74906&#45;&gt;Node74907</title>
<path fill="none" stroke="#191970" d="M565.5057,-725.3954C595.0229,-745.4212 645.9329,-779.9609 670.4721,-796.6094"/>
<polygon fill="#191970" stroke="#191970" points="567.3252,-722.4004 557.0849,-719.6824 563.3951,-728.193 567.3252,-722.4004"/>
</g>
<!-- Node74907&#45;&gt;Node74907 -->
<g id="edge5" class="edge">
<title>Node74907&#45;&gt;Node74907</title>
<path fill="none" stroke="#191970" d="M662.5507,-825.1557C663.748,-830.2545 671.0644,-834.1265 684.5,-834.1265 705.4727,-834.1265 711.5351,-824.6918 702.6872,-815.8836"/>
<polygon fill="#191970" stroke="#191970" points="665.7962,-826.4658 666.3128,-815.8836 659.3098,-823.834 665.7962,-826.4658"/>
</g>
<!-- Node74908 -->
<g id="node6" class="node">
<title>Node74908</title>
<g id="a_node6"><a xlink:href="quickjs_8c.html#ad2e4811daaaacb846df56bc88bd84e03" target="_top" xlink:title="js_json_stringify">
<polygon fill="none" stroke="#000000" points="759,-824.6265 759,-843.6265 846,-843.6265 846,-824.6265 759,-824.6265"/>
<text text-anchor="middle" x="802.5" y="-831.6265" font-family="Helvetica,sans-Serif" font-size="10.00" fill="#000000">js_json_stringify</text>
</a>
</g>
</g>
<!-- Node74907&#45;&gt;Node74908 -->
<g id="edge6" class="edge">
<title>Node74907&#45;&gt;Node74908</title>
<path fill="none" stroke="#191970" d="M733.0387,-817.6442C742.7183,-819.9411 752.7859,-822.33 762.1541,-824.553"/>
<polygon fill="#191970" stroke="#191970" points="733.6755,-814.1982 723.1376,-815.2948 732.0593,-821.0091 733.6755,-814.1982"/>
</g>
<!-- Node74909&#45;&gt;Node74907 -->
<g id="edge8" class="edge">
<title>Node74909&#45;&gt;Node74907</title>
<path fill="none" stroke="#191970" d="M551.2626,-501.0459C577.8537,-561.933 660.6254,-751.4596 680.2817,-796.4677"/>
<polygon fill="#191970" stroke="#191970" points="554.4446,-499.5866 547.2348,-491.8232 548.0297,-502.3882 554.4446,-499.5866"/>
</g>
<!-- Node74914&#45;&gt;Node74906 -->
<g id="edge20" class="edge">
<title>Node74914&#45;&gt;Node74906</title>
<path fill="none" stroke="#191970" d="M220.3388,-847.2474C239.5541,-835.9559 267.3157,-820.6343 293,-810.1265 356.0026,-784.3515 377.1709,-793.3217 440,-767.1265 472.8227,-753.4419 508.6105,-732.0272 528.1694,-719.7125"/>
<polygon fill="#191970" stroke="#191970" points="218.4401,-844.3044 211.6389,-852.428 222.0216,-850.3188 218.4401,-844.3044"/>
</g>
<!-- Node74914&#45;&gt;Node74907 -->
<g id="edge28" class="edge">
<title>Node74914&#45;&gt;Node74907</title>
<path fill="none" stroke="#191970" d="M260.0984,-854.7785C363.0161,-842.9804 562.0395,-820.165 645.8286,-810.5597"/>
<polygon fill="#191970" stroke="#191970" points="259.6808,-851.3034 250.1445,-855.9196 260.4781,-858.2578 259.6808,-851.3034"/>
</g>
<!-- Node74914&#45;&gt;Node74908 -->
<g id="edge29" class="edge">
<title>Node74914&#45;&gt;Node74908</title>
<path fill="none" stroke="#191970" d="M198.2871,-882.0957C204.4636,-925.5566 225.8338,-1028.2518 293,-1071.1265 348.0699,-1106.2798 377.3857,-1089.7786 440,-1071.1265 598.8957,-1023.7933 753.0025,-882.172 792.6875,-843.8044"/>
<polygon fill="#191970" stroke="#191970" points="201.7284,-881.4163 196.9734,-871.9485 194.7863,-882.3151 201.7284,-881.4163"/>
</g>
<!-- Node74915 -->
<g id="node13" class="node">
<title>Node74915</title>
<g id="a_node13"><a xlink:href="quickjs_8c.html#a5e32da9a43002cb96dcbd62a1a340144" target="_top" xlink:title="js_array_from">
<polygon fill="none" stroke="#000000" points="328.5,-966.6265 328.5,-985.6265 404.5,-985.6265 404.5,-966.6265 328.5,-966.6265"/>
<text text-anchor="middle" x="366.5" y="-973.6265" font-family="Helvetica,sans-Serif" font-size="10.00" fill="#000000">js_array_from</text>
</a>
</g>
</g>
<!-- Node74914&#45;&gt;Node74915 -->
<g id="edge16" class="edge">
<title>Node74914&#45;&gt;Node74915</title>
<path fill="none" stroke="#191970" d="M209.2559,-879.8914C226.2697,-901.418 257.8211,-937.265 293,-957.1265 303.7884,-963.2175 316.5638,-967.3972 328.4125,-970.2479"/>
<polygon fill="#191970" stroke="#191970" points="211.9603,-877.667 203.08,-871.8885 206.4186,-881.9436 211.9603,-877.667"/>
</g>
<!-- Node74916 -->
<g id="node14" class="node">
<title>Node74916</title>
<g id="a_node14"><a xlink:href="quickjs_8c.html#a2ef89587b2e4287d4bd0417788c8e21e" target="_top" xlink:title="js_array_includes">
<polygon fill="none" stroke="#000000" points="497,-852.6265 497,-871.6265 589,-871.6265 589,-852.6265 497,-852.6265"/>
<text text-anchor="middle" x="543" y="-859.6265" font-family="Helvetica,sans-Serif" font-size="10.00" fill="#000000">js_array_includes</text>
</a>
</g>
</g>
<!-- Node74914&#45;&gt;Node74916 -->
<g id="edge17" class="edge">
<title>Node74914&#45;&gt;Node74916</title>
<path fill="none" stroke="#191970" d="M260.4849,-862.1265C329.1892,-862.1265 436.2331,-862.1265 496.9211,-862.1265"/>
<polygon fill="#191970" stroke="#191970" points="260.2188,-858.6266 250.2188,-862.1265 260.2187,-865.6266 260.2188,-858.6266"/>
</g>
<!-- Node74917 -->
<g id="node15" class="node">
<title>Node74917</title>
<g id="a_node15"><a xlink:href="quickjs_8c.html#a80bed67de3ceaf66888093b5fc84972a" target="_top" xlink:title="js_string_raw">
<polygon fill="none" stroke="#000000" points="329.5,-928.6265 329.5,-947.6265 403.5,-947.6265 403.5,-928.6265 329.5,-928.6265"/>
<text text-anchor="middle" x="366.5" y="-935.6265" font-family="Helvetica,sans-Serif" font-size="10.00" fill="#000000">js_string_raw</text>
</a>
</g>
</g>
<!-- Node74914&#45;&gt;Node74917 -->
<g id="edge21" class="edge">
<title>Node74914&#45;&gt;Node74917</title>
<path fill="none" stroke="#191970" d="M220.4321,-876.7826C239.6979,-887.9534 267.4818,-903.2215 293,-914.1265 305.8373,-919.6125 320.3747,-924.6021 333.1122,-928.5932"/>
<polygon fill="#191970" stroke="#191970" points="222.1025,-873.7047 211.7059,-871.6649 218.5612,-879.7429 222.1025,-873.7047"/>
</g>
<!-- Node74918 -->
<g id="node16" class="node">
<title>Node74918</title>
<g id="a_node16"><a xlink:href="quickjs_8c.html#adb4d2990e6bf3f99633512ad2054b47a" target="_top" xlink:title="js_string___GetSubstitution">
<polygon fill="none" stroke="#ff0000" points="298,-1004.6265 298,-1023.6265 435,-1023.6265 435,-1004.6265 298,-1004.6265"/>
<text text-anchor="middle" x="366.5" y="-1011.6265" font-family="Helvetica,sans-Serif" font-size="10.00" fill="#000000">js_string___GetSubstitution</text>
</a>
</g>
</g>
<!-- Node74914&#45;&gt;Node74918 -->
<g id="edge22" class="edge">
<title>Node74914&#45;&gt;Node74918</title>
<path fill="none" stroke="#191970" d="M204.5238,-881.0521C218.6337,-910.171 249.6519,-965.6729 293,-995.1265 298.6688,-998.9783 305.0672,-1002.0492 311.665,-1004.4976"/>
<polygon fill="#191970" stroke="#191970" points="207.6634,-879.5035 200.2456,-871.9386 201.3268,-882.4781 207.6634,-879.5035"/>
</g>
<!-- Node74920 -->
<g id="node17" class="node">
<title>Node74920</title>
<g id="a_node17"><a xlink:href="quickjs_8c.html#a6a77bcdb9f7f18c13c108c99a198708b" target="_top" xlink:title="js_regexp_Symbol_replace">
<polygon fill="none" stroke="#000000" points="476,-890.6265 476,-909.6265 610,-909.6265 610,-890.6265 476,-890.6265"/>
<text text-anchor="middle" x="543" y="-897.6265" font-family="Helvetica,sans-Serif" font-size="10.00" fill="#000000">js_regexp_Symbol_replace</text>
</a>
</g>
</g>
<!-- Node74914&#45;&gt;Node74920 -->
<g id="edge26" class="edge">
<title>Node74914&#45;&gt;Node74920</title>
<path fill="none" stroke="#191970" d="M260.0348,-871.8089C271.0193,-873.3437 282.3295,-874.8451 293,-876.1265 354.7982,-883.5483 425.4112,-890.1555 475.793,-894.5489"/>
<polygon fill="#191970" stroke="#191970" points="260.4586,-868.334 250.0663,-870.3953 259.4758,-875.2647 260.4586,-868.334"/>
</g>
<!-- Node74921 -->
<g id="node18" class="node">
<title>Node74921</title>
<g id="a_node18"><a xlink:href="quickjs_8c.html#a41fc4304b39616e7be3500fe6ec881c2" target="_top" xlink:title="js_regexp_Symbol_match">
<polygon fill="none" stroke="#000000" points="302,-700.6265 302,-719.6265 431,-719.6265 431,-700.6265 302,-700.6265"/>
<text text-anchor="middle" x="366.5" y="-707.6265" font-family="Helvetica,sans-Serif" font-size="10.00" fill="#000000">js_regexp_Symbol_match</text>
</a>
</g>
</g>
<!-- Node74914&#45;&gt;Node74921 -->
<g id="edge24" class="edge">
<title>Node74914&#45;&gt;Node74921</title>
<path fill="none" stroke="#191970" d="M204.5238,-843.201C218.6337,-814.0821 249.6519,-758.5802 293,-729.1265 298.6688,-725.2748 305.0672,-722.2039 311.665,-719.7555"/>
<polygon fill="#191970" stroke="#191970" points="201.3268,-841.775 200.2456,-852.3145 207.6634,-844.7496 201.3268,-841.775"/>
</g>
<!-- Node74922 -->
<g id="node19" class="node">
<title>Node74922</title>
<g id="a_node19"><a xlink:href="quickjs_8c.html#aeb6df5fcffc6fecfac1e9b0d709e99c5" target="_top" xlink:title="js_regexp_string_iterator_next">
<polygon fill="none" stroke="#000000" points="293,-1042.6265 293,-1061.6265 440,-1061.6265 440,-1042.6265 293,-1042.6265"/>
<text text-anchor="middle" x="366.5" y="-1049.6265" font-family="Helvetica,sans-Serif" font-size="10.00" fill="#000000">js_regexp_string_iterator_next</text>
</a>
</g>
</g>
<!-- Node74914&#45;&gt;Node74922 -->
<g id="edge25" class="edge">
<title>Node74914&#45;&gt;Node74922</title>
<path fill="none" stroke="#191970" d="M201.382,-881.3017C212.3931,-916.909 240.9516,-993.2391 293,-1033.1265 298.0214,-1036.9747 303.7437,-1040.0478 309.7277,-1042.5011"/>
<polygon fill="#191970" stroke="#191970" points="204.7174,-880.2383 198.5216,-871.644 198.0056,-882.2263 204.7174,-880.2383"/>
</g>
<!-- Node74923 -->
<g id="node20" class="node">
<title>Node74923</title>
<g id="a_node20"><a xlink:href="quickjs_8c.html#a79872a6d9d139e36d5d1894d16132024" target="_top" xlink:title="js_regexp_Symbol_split">
<polygon fill="none" stroke="#000000" points="306.5,-662.6265 306.5,-681.6265 426.5,-681.6265 426.5,-662.6265 306.5,-662.6265"/>
<text text-anchor="middle" x="366.5" y="-669.6265" font-family="Helvetica,sans-Serif" font-size="10.00" fill="#000000">js_regexp_Symbol_split</text>
</a>
</g>
</g>
<!-- Node74914&#45;&gt;Node74923 -->
<g id="edge27" class="edge">
<title>Node74914&#45;&gt;Node74923</title>
<path fill="none" stroke="#191970" d="M201.382,-842.9514C212.3931,-807.3441 240.9516,-731.014 293,-691.1265 298.0214,-687.2784 303.7437,-684.2053 309.7277,-681.752"/>
<polygon fill="#191970" stroke="#191970" points="198.0056,-842.0268 198.5216,-852.6091 204.7174,-844.0148 198.0056,-842.0268"/>
</g>
<!-- Node74924 -->
<g id="node21" class="node">
<title>Node74924</title>
<g id="a_node21"><a xlink:href="quickjs_8c.html#a5f46f50deddd4e3a23da24e8173db28e" target="_top" xlink:title="js_typed_array_from">
<polygon fill="none" stroke="#000000" points="314,-738.6265 314,-757.6265 419,-757.6265 419,-738.6265 314,-738.6265"/>
<text text-anchor="middle" x="366.5" y="-745.6265" font-family="Helvetica,sans-Serif" font-size="10.00" fill="#000000">js_typed_array_from</text>
</a>
</g>
</g>
<!-- Node74914&#45;&gt;Node74924 -->
<g id="edge30" class="edge">
<title>Node74914&#45;&gt;Node74924</title>
<path fill="none" stroke="#191970" d="M210.4394,-844.7847C228.0299,-824.6813 259.5629,-791.7988 293,-772.1265 303.297,-766.0685 315.3179,-761.3219 326.6195,-757.7071"/>
<polygon fill="#191970" stroke="#191970" points="207.6404,-842.6721 203.7893,-852.5423 212.9549,-847.228 207.6404,-842.6721"/>
</g>
<!-- Node74916&#45;&gt;Node74907 -->
<g id="edge18" class="edge">
<title>Node74916&#45;&gt;Node74907</title>
<path fill="none" stroke="#191970" d="M580.2761,-849.2346C589.9962,-845.7472 600.4281,-841.8925 610,-838.1265 628.0771,-831.0144 648.3136,-822.2712 663.1285,-815.7221"/>
<polygon fill="#191970" stroke="#191970" points="579.1027,-845.937 570.8513,-852.5827 581.446,-852.5332 579.1027,-845.937"/>
</g>
<!-- Node74916&#45;&gt;Node74908 -->
<g id="edge19" class="edge">
<title>Node74916&#45;&gt;Node74908</title>
<path fill="none" stroke="#191970" d="M599.4161,-856.2821C634.897,-852.579 681.6331,-847.6513 723,-843.1265 734.5986,-841.8579 747.1451,-840.4528 758.7686,-839.1374"/>
<polygon fill="#191970" stroke="#191970" points="598.8372,-852.8234 589.2539,-857.3413 599.5629,-859.7857 598.8372,-852.8234"/>
</g>
<!-- Node74918&#45;&gt;Node74920 -->
<g id="edge23" class="edge">
<title>Node74918&#45;&gt;Node74920</title>
<path fill="none" stroke="#191970" d="M426.7345,-1001.211C431.3318,-999.4292 435.8085,-997.4109 440,-995.1265 481.6527,-972.4261 519.6123,-929.1879 535.3375,-909.8711"/>
<polygon fill="#191970" stroke="#191970" points="425.4692,-997.9455 417.1813,-1004.5456 427.7761,-1004.5544 425.4692,-997.9455"/>
</g>
<!-- Node74925&#45;&gt;Node74905 -->
<g id="edge32" class="edge">
<title>Node74925&#45;&gt;Node74905</title>
<path fill="none" stroke="#191970" d="M249.0536,-470.3023C273.0911,-464.945 301.1318,-458.6954 323.785,-453.6466"/>
<polygon fill="#191970" stroke="#191970" points="248.0235,-466.9459 239.0243,-472.5375 249.5463,-473.7783 248.0235,-466.9459"/>
</g>
<!-- Node74925&#45;&gt;Node74908 -->
<g id="edge43" class="edge">
<title>Node74925&#45;&gt;Node74908</title>
<path fill="none" stroke="#191970" d="M208.8938,-499.7445C225.7393,-521.4233 257.3245,-557.7339 293,-577.1265 351.8295,-609.1054 376.7133,-588.2555 440,-610.1265 519.1033,-637.4636 538.2919,-647.9688 610,-691.1265 683.1241,-735.1365 762.5761,-800.3606 791.3306,-824.6017"/>
<polygon fill="#191970" stroke="#191970" points="211.6272,-497.5565 202.7983,-491.6998 206.0479,-501.784 211.6272,-497.5565"/>
</g>
<!-- Node74925&#45;&gt;Node74909 -->
<g id="edge34" class="edge">
<title>Node74925&#45;&gt;Node74909</title>
<path fill="none" stroke="#191970" d="M260.0838,-482.1265C331.6702,-482.1265 445.2423,-482.1265 504.3633,-482.1265"/>
<polygon fill="#191970" stroke="#191970" points="259.8381,-478.6266 249.838,-482.1265 259.838,-485.6266 259.8381,-478.6266"/>
</g>
<!-- Node74925&#45;&gt;Node74910 -->
<g id="edge36" class="edge">
<title>Node74925&#45;&gt;Node74910</title>
<path fill="none" stroke="#191970" d="M217.3791,-466.9537C236.4053,-454.103 265.4147,-436.0716 293,-425.1265 331.1717,-409.9811 444.1757,-387.0598 504.3214,-375.4376"/>
<polygon fill="#191970" stroke="#191970" points="215.3937,-464.0713 209.136,-472.6207 219.3594,-469.8396 215.3937,-464.0713"/>
</g>
<!-- Node74925&#45;&gt;Node74912 -->
<g id="edge35" class="edge">
<title>Node74925&#45;&gt;Node74912</title>
<path fill="none" stroke="#191970" d="M215.3487,-465.9172C229.0187,-453.4163 246.6783,-434.9559 257,-415.1265 290.6544,-350.4723 242.2818,-307.4759 293,-255.1265 300.7036,-247.1752 311.2651,-242.3963 321.9797,-239.5639"/>
<polygon fill="#191970" stroke="#191970" points="213.0172,-463.3067 207.8466,-472.5541 217.6555,-468.5495 213.0172,-463.3067"/>
</g>
<!-- Node74925&#45;&gt;Node74913 -->
<g id="edge39" class="edge">
<title>Node74925&#45;&gt;Node74913</title>
<path fill="none" stroke="#191970" d="M210.4394,-464.7847C228.0299,-444.6813 259.5629,-411.7988 293,-392.1265 304.2225,-385.5239 317.4929,-380.4792 329.648,-376.7597"/>
<polygon fill="#191970" stroke="#191970" points="207.6404,-462.6721 203.7893,-472.5423 212.9549,-467.228 207.6404,-462.6721"/>
</g>
<!-- Node74925&#45;&gt;Node74920 -->
<g id="edge41" class="edge">
<title>Node74925&#45;&gt;Node74920</title>
<path fill="none" stroke="#191970" d="M205.2312,-500.9549C219.925,-528.9631 251.2884,-581.3786 293,-610.1265 349.0488,-648.7558 395.0428,-602.0136 440,-653.1265 507.7541,-730.1579 407.9287,-804.3754 476,-881.1265 479.3695,-884.9257 483.4367,-887.9896 487.8822,-890.4574"/>
<polygon fill="#191970" stroke="#191970" points="208.2408,-499.1519 200.5836,-491.8294 202.0031,-502.3287 208.2408,-499.1519"/>
</g>
<!-- Node74925&#45;&gt;Node74921 -->
<g id="edge40" class="edge">
<title>Node74925&#45;&gt;Node74921</title>
<path fill="none" stroke="#191970" d="M199.3275,-501.7311C207.4354,-543.2673 232.1906,-640.4646 293,-691.1265 297.658,-695.0073 303.0152,-698.1068 308.6699,-700.5806"/>
<polygon fill="#191970" stroke="#191970" points="202.7505,-500.9924 197.5023,-491.7888 195.8656,-502.2565 202.7505,-500.9924"/>
</g>
<!-- Node74925&#45;&gt;Node74923 -->
<g id="edge42" class="edge">
<title>Node74925&#45;&gt;Node74923</title>
<path fill="none" stroke="#191970" d="M202.2709,-501.8761C214.2741,-536.5407 243.7702,-608.4144 293,-648.1265 300.8359,-654.4475 310.389,-659.1248 319.9806,-662.5788"/>
<polygon fill="#191970" stroke="#191970" points="205.4674,-500.3974 198.9856,-492.0167 198.8264,-502.6103 205.4674,-500.3974"/>
</g>
<!-- Node74925&#45;&gt;Node74924 -->
<g id="edge44" class="edge">
<title>Node74925&#45;&gt;Node74924</title>
<path fill="none" stroke="#191970" d="M197.7655,-501.6826C203.059,-548.3977 223.0605,-667.1913 293,-729.1265 298.9202,-734.3693 306.1029,-738.1981 313.6309,-740.9879"/>
<polygon fill="#191970" stroke="#191970" points="201.2405,-501.2593 196.7363,-491.6696 194.2772,-501.9751 201.2405,-501.2593"/>
</g>
<!-- Node74926 -->
<g id="node23" class="node">
<title>Node74926</title>
<g id="a_node23"><a xlink:href="quickjs_8c.html#ae2647134d809434118ae04182c0169cb" target="_top" xlink:title="js_array_fill">
<polygon fill="none" stroke="#000000" points="333.5,-548.6265 333.5,-567.6265 399.5,-567.6265 399.5,-548.6265 333.5,-548.6265"/>
<text text-anchor="middle" x="366.5" y="-555.6265" font-family="Helvetica,sans-Serif" font-size="10.00" fill="#000000">js_array_fill</text>
</a>
</g>
</g>
<!-- Node74925&#45;&gt;Node74926 -->
<g id="edge33" class="edge">
<title>Node74925&#45;&gt;Node74926</title>
<path fill="none" stroke="#191970" d="M220.4321,-496.7826C239.6979,-507.9534 267.4818,-523.2215 293,-534.1265 305.9608,-539.6653 320.6544,-544.698 333.4791,-548.708"/>
<polygon fill="#191970" stroke="#191970" points="222.1025,-493.7047 211.7059,-491.6649 218.5612,-499.7429 222.1025,-493.7047"/>
</g>
<!-- Node74927 -->
<g id="node24" class="node">
<title>Node74927</title>
<g id="a_node24"><a xlink:href="quickjs_8c.html#ad90c33b4aae1181151bda4a98ac2ef23" target="_top" xlink:title="JS_FlattenIntoArray">
<polygon fill="none" stroke="#ff0000" points="314.5,-264.6265 314.5,-283.6265 418.5,-283.6265 418.5,-264.6265 314.5,-264.6265"/>
<text text-anchor="middle" x="366.5" y="-271.6265" font-family="Helvetica,sans-Serif" font-size="10.00" fill="#000000">JS_FlattenIntoArray</text>
</a>
</g>
</g>
<!-- Node74925&#45;&gt;Node74927 -->
<g id="edge37" class="edge">
<title>Node74925&#45;&gt;Node74927</title>
<path fill="none" stroke="#191970" d="M213.6871,-465.0442C226.5823,-452.0595 244.0002,-433.3763 257,-415.1265 276.3858,-387.9119 273.1176,-375.9805 293,-349.1265 312.2015,-323.1923 339.987,-297.267 355.3074,-283.736"/>
<polygon fill="#191970" stroke="#191970" points="210.965,-462.8141 206.3225,-472.3377 215.8906,-467.7878 210.965,-462.8141"/>
</g>
<!-- Node74927&#45;&gt;Node74927 -->
<g id="edge38" class="edge">
<title>Node74927&#45;&gt;Node74927</title>
<path fill="none" stroke="#191970" d="M334.6886,-292.4011C335.5956,-297.8676 346.1994,-302.1265 366.5,-302.1265 396.7148,-302.1265 405.4488,-292.6918 392.7019,-283.8836"/>
<polygon fill="#191970" stroke="#191970" points="337.7209,-294.1602 340.2981,-283.8836 331.8748,-290.3101 337.7209,-294.1602"/>
</g>
<!-- Node74929&#45;&gt;Node74905 -->
<g id="edge46" class="edge">
<title>Node74929&#45;&gt;Node74905</title>
<path fill="none" stroke="#191970" d="M202.8388,-217.8834C216.0874,-254.2103 247.9634,-332.8548 293,-387.1265 309.4992,-407.009 334.0853,-424.304 350.2047,-434.4793"/>
<polygon fill="#191970" stroke="#191970" points="205.9854,-216.2865 199.3313,-208.0419 199.3917,-218.6366 205.9854,-216.2865"/>
</g>
<!-- Node74929&#45;&gt;Node74910 -->
<g id="edge53" class="edge">
<title>Node74929&#45;&gt;Node74910</title>
<path fill="none" stroke="#191970" d="M200.3856,-178.1971C209.8427,-140.6623 236.0685,-60.2853 293,-27.1265 349.4557,5.7551 387.5468,11.8236 440,-27.1265 496.7263,-69.2497 534.2469,-307.8497 541.6534,-358.6253"/>
<polygon fill="#191970" stroke="#191970" points="196.875,-177.8329 197.9736,-188.3707 203.6862,-179.4479 196.875,-177.8329"/>
</g>
<!-- Node74929&#45;&gt;Node74912 -->
<g id="edge52" class="edge">
<title>Node74929&#45;&gt;Node74912</title>
<path fill="none" stroke="#191970" d="M249.0536,-209.9508C273.0911,-215.3081 301.1318,-221.5577 323.785,-226.6065"/>
<polygon fill="#191970" stroke="#191970" points="249.5463,-206.4748 239.0243,-207.7156 248.0235,-213.3072 249.5463,-206.4748"/>
</g>
<!-- Node74929&#45;&gt;Node74913 -->
<g id="edge55" class="edge">
<title>Node74929&#45;&gt;Node74913</title>
<path fill="none" stroke="#191970" d="M209.4757,-215.9701C227.3421,-239.0981 260.4244,-280.1318 293,-311.1265 312.3028,-329.4926 337.2565,-347.8626 352.5579,-358.6019"/>
<polygon fill="#191970" stroke="#191970" points="212.0587,-213.5862 203.202,-207.7717 206.4997,-217.8403 212.0587,-213.5862"/>
</g>
<!-- Node74929&#45;&gt;Node74927 -->
<g id="edge54" class="edge">
<title>Node74929&#45;&gt;Node74927</title>
<path fill="none" stroke="#191970" d="M217.7848,-213.3205C236.8657,-226.032 265.731,-243.8498 293,-255.1265 302.0129,-258.8537 311.9566,-262.0136 321.54,-264.6229"/>
<polygon fill="#191970" stroke="#191970" points="219.7435,-210.4199 209.5006,-207.7115 215.8189,-216.2163 219.7435,-210.4199"/>
</g>
<!-- Node74930 -->
<g id="node26" class="node">
<title>Node74930</title>
<g id="a_node26"><a xlink:href="quickjs_8c.html#aaa85fa359f7aa8985f0299147272adef" target="_top" xlink:title="js_array_concat">
<polygon fill="none" stroke="#000000" points="323.5,-188.6265 323.5,-207.6265 409.5,-207.6265 409.5,-188.6265 323.5,-188.6265"/>
<text text-anchor="middle" x="366.5" y="-195.6265" font-family="Helvetica,sans-Serif" font-size="10.00" fill="#000000">js_array_concat</text>
</a>
</g>
</g>
<!-- Node74929&#45;&gt;Node74930 -->
<g id="edge47" class="edge">
<title>Node74929&#45;&gt;Node74930</title>
<path fill="none" stroke="#191970" d="M267.2567,-198.1265C286.3608,-198.1265 306.4289,-198.1265 323.4808,-198.1265"/>
<polygon fill="#191970" stroke="#191970" points="267.0729,-194.6266 257.0728,-198.1265 267.0728,-201.6266 267.0729,-194.6266"/>
</g>
<!-- Node74931 -->
<g id="node27" class="node">
<title>Node74931</title>
<g id="a_node27"><a xlink:href="quickjs_8c.html#aa0bbf08a7e91459c68a312fba7016c6d" target="_top" xlink:title="js_array_every">
<polygon fill="none" stroke="#000000" points="326.5,-150.6265 326.5,-169.6265 406.5,-169.6265 406.5,-150.6265 326.5,-150.6265"/>
<text text-anchor="middle" x="366.5" y="-157.6265" font-family="Helvetica,sans-Serif" font-size="10.00" fill="#000000">js_array_every</text>
</a>
</g>
</g>
<!-- Node74929&#45;&gt;Node74931 -->
<g id="edge48" class="edge">
<title>Node74929&#45;&gt;Node74931</title>
<path fill="none" stroke="#191970" d="M249.0732,-186.2979C274.0465,-180.732 303.3373,-174.2039 326.4176,-169.0599"/>
<polygon fill="#191970" stroke="#191970" points="248.0235,-182.9459 239.0243,-188.5375 249.5463,-189.7783 248.0235,-182.9459"/>
</g>
<!-- Node74932 -->
<g id="node28" class="node">
<title>Node74932</title>
<g id="a_node28"><a xlink:href="quickjs_8c.html#a36c1692489542a86dd79a7d39ab8ff95" target="_top" xlink:title="js_array_reduce">
<polygon fill="none" stroke="#000000" points="323.5,-112.6265 323.5,-131.6265 409.5,-131.6265 409.5,-112.6265 323.5,-112.6265"/>
<text text-anchor="middle" x="366.5" y="-119.6265" font-family="Helvetica,sans-Serif" font-size="10.00" fill="#000000">js_array_reduce</text>
</a>
</g>
</g>
<!-- Node74929&#45;&gt;Node74932 -->
<g id="edge49" class="edge">
<title>Node74929&#45;&gt;Node74932</title>
<path fill="none" stroke="#191970" d="M217.7848,-182.9326C236.8657,-170.2211 265.731,-152.4032 293,-141.1265 302.6218,-137.1476 313.3046,-133.815 323.4772,-131.1088"/>
<polygon fill="#191970" stroke="#191970" points="215.8189,-180.0368 209.5006,-188.5415 219.7435,-185.8332 215.8189,-180.0368"/>
</g>
<!-- Node74933 -->
<g id="node29" class="node">
<title>Node74933</title>
<g id="a_node29"><a xlink:href="quickjs_8c.html#af4bd013e63a5d5d55e4d4700d80de12e" target="_top" xlink:title="js_array_indexOf">
<polygon fill="none" stroke="#000000" points="321.5,-74.6265 321.5,-93.6265 411.5,-93.6265 411.5,-74.6265 321.5,-74.6265"/>
<text text-anchor="middle" x="366.5" y="-81.6265" font-family="Helvetica,sans-Serif" font-size="10.00" fill="#000000">js_array_indexOf</text>
</a>
</g>
</g>
<!-- Node74929&#45;&gt;Node74933 -->
<g id="edge50" class="edge">
<title>Node74929&#45;&gt;Node74933</title>
<path fill="none" stroke="#191970" d="M209.2559,-180.3617C226.2697,-158.8351 257.8211,-122.9881 293,-103.1265 301.6078,-98.2667 311.4805,-94.6237 321.1381,-91.9015"/>
<polygon fill="#191970" stroke="#191970" points="206.4186,-178.3095 203.08,-188.3646 211.9603,-182.5861 206.4186,-178.3095"/>
</g>
<!-- Node74934 -->
<g id="node30" class="node">
<title>Node74934</title>
<g id="a_node30"><a xlink:href="quickjs_8c.html#acb566d2d7d0ce8fed7bb7f73d3baa508" target="_top" xlink:title="js_array_lastIndexOf">
<polygon fill="none" stroke="#000000" points="313,-36.6265 313,-55.6265 420,-55.6265 420,-36.6265 313,-36.6265"/>
<text text-anchor="middle" x="366.5" y="-43.6265" font-family="Helvetica,sans-Serif" font-size="10.00" fill="#000000">js_array_lastIndexOf</text>
</a>
</g>
</g>
<!-- Node74929&#45;&gt;Node74934 -->
<g id="edge51" class="edge">
<title>Node74929&#45;&gt;Node74934</title>
<path fill="none" stroke="#191970" d="M204.5238,-179.201C218.6337,-150.0821 249.6519,-94.5802 293,-65.1265 298.9958,-61.0526 305.8079,-57.8521 312.8088,-55.3379"/>
<polygon fill="#191970" stroke="#191970" points="201.3268,-177.775 200.2456,-188.3145 207.6634,-180.7496 201.3268,-177.775"/>
</g>
</g>
</svg>
