<?xml version="1.0" encoding="UTF-8" standalone="no"?>
<!DOCTYPE svg PUBLIC "-//W3C//DTD SVG 1.1//EN"
 "http://www.w3.org/Graphics/SVG/1.1/DTD/svg11.dtd">
<!-- Generated by graphviz version 2.40.1 (20161225.0304)
 -->
<!-- Title: js_shape_hash_unlink Pages: 1 -->
<svg width="1209pt" height="687pt"
 viewBox="0.00 0.00 1209.00 686.81" xmlns="http://www.w3.org/2000/svg" xmlns:xlink="http://www.w3.org/1999/xlink">
<g id="graph0" class="graph" transform="scale(1 1) rotate(0) translate(4 682.8143)">
<title>js_shape_hash_unlink</title>
<!-- Node110283 -->
<g id="node1" class="node">
<title>Node110283</title>
<polygon fill="#bfbfbf" stroke="#000000" points="0,-193.2912 0,-212.2912 113,-212.2912 113,-193.2912 0,-193.2912"/>
<text text-anchor="middle" x="56.5" y="-200.2912" font-family="Helvetica,sans-Serif" font-size="10.00" fill="#000000">js_shape_hash_unlink</text>
</g>
<!-- Node110284 -->
<g id="node2" class="node">
<title>Node110284</title>
<g id="a_node2"><a xlink:href="quickjs_8c.html#a3cadcaa2bd1e3f9359f1c006f396cfa0" target="_top" xlink:title="add_shape_property">
<polygon fill="none" stroke="#000000" points="149,-414.2912 149,-433.2912 253,-433.2912 253,-414.2912 149,-414.2912"/>
<text text-anchor="middle" x="201" y="-421.2912" font-family="Helvetica,sans-Serif" font-size="10.00" fill="#000000">add_shape_property</text>
</a>
</g>
</g>
<!-- Node110283&#45;&gt;Node110284 -->
<g id="edge1" class="edge">
<title>Node110283&#45;&gt;Node110284</title>
<path fill="none" stroke="#191970" d="M68.4217,-221.0245C97.7173,-265.8294 172.4598,-380.1415 194.6784,-414.1229"/>
<polygon fill="#191970" stroke="#191970" points="71.2974,-219.0268 62.8954,-212.5725 65.4386,-222.8576 71.2974,-219.0268"/>
</g>
<!-- Node110892 -->
<g id="node19" class="node">
<title>Node110892</title>
<g id="a_node19"><a xlink:href="quickjs_8c.html#a3a9f27520d96cf58aa5bd7359e9cddee" target="_top" xlink:title="js_free_shape">
<polygon fill="none" stroke="#000000" points="162.5,-193.2912 162.5,-212.2912 239.5,-212.2912 239.5,-193.2912 162.5,-193.2912"/>
<text text-anchor="middle" x="201" y="-200.2912" font-family="Helvetica,sans-Serif" font-size="10.00" fill="#000000">js_free_shape</text>
</a>
</g>
</g>
<!-- Node110283&#45;&gt;Node110892 -->
<g id="edge32" class="edge">
<title>Node110283&#45;&gt;Node110892</title>
<path fill="none" stroke="#191970" d="M123.3266,-202.7912C136.678,-202.7912 150.2779,-202.7912 162.2885,-202.7912"/>
<polygon fill="#191970" stroke="#191970" points="123.1955,-199.2913 113.1955,-202.7912 123.1955,-206.2913 123.1955,-199.2913"/>
</g>
<!-- Node110991 -->
<g id="node24" class="node">
<title>Node110991</title>
<g id="a_node24"><a xlink:href="quickjs_8c.html#a3dd8e78607dbc729614deacf55901b95" target="_top" xlink:title="js_shape_prepare_update">
<polygon fill="none" stroke="#000000" points="297,-117.2912 297,-136.2912 425,-136.2912 425,-117.2912 297,-117.2912"/>
<text text-anchor="middle" x="361" y="-124.2912" font-family="Helvetica,sans-Serif" font-size="10.00" fill="#000000">js_shape_prepare_update</text>
</a>
</g>
</g>
<!-- Node110283&#45;&gt;Node110991 -->
<g id="edge47" class="edge">
<title>Node110283&#45;&gt;Node110991</title>
<path fill="none" stroke="#191970" d="M104.8018,-190.7356C165.1947,-175.6622 267.3487,-150.1656 322.6602,-136.3605"/>
<polygon fill="#191970" stroke="#191970" points="103.6116,-187.4252 94.7568,-193.2427 105.3068,-194.2169 103.6116,-187.4252"/>
</g>
<!-- Node110285 -->
<g id="node3" class="node">
<title>Node110285</title>
<g id="a_node3"><a xlink:href="quickjs_8c.html#a74547db03bf739a52c83a326b32db997" target="_top" xlink:title="add_property">
<polygon fill="none" stroke="#000000" points="324.5,-414.2912 324.5,-433.2912 397.5,-433.2912 397.5,-414.2912 324.5,-414.2912"/>
<text text-anchor="middle" x="361" y="-421.2912" font-family="Helvetica,sans-Serif" font-size="10.00" fill="#000000">add_property</text>
</a>
</g>
</g>
<!-- Node110284&#45;&gt;Node110285 -->
<g id="edge2" class="edge">
<title>Node110284&#45;&gt;Node110285</title>
<path fill="none" stroke="#191970" d="M263.6199,-423.7912C284.1284,-423.7912 306.2382,-423.7912 324.1986,-423.7912"/>
<polygon fill="#191970" stroke="#191970" points="263.39,-420.2913 253.39,-423.7912 263.3899,-427.2913 263.39,-420.2913"/>
</g>
<!-- Node110521 -->
<g id="node18" class="node">
<title>Node110521</title>
<g id="a_node18"><a xlink:href="quickjs_8c.html#a7efb53c2f76fd5cc0e584449437ec09c" target="_top" xlink:title="JS_AddIntrinsicBasicObjects">
<polygon fill="none" stroke="#ff0000" points="289,-452.2912 289,-471.2912 433,-471.2912 433,-452.2912 289,-452.2912"/>
<text text-anchor="middle" x="361" y="-459.2912" font-family="Helvetica,sans-Serif" font-size="10.00" fill="#000000">JS_AddIntrinsicBasicObjects</text>
</a>
</g>
</g>
<!-- Node110284&#45;&gt;Node110521 -->
<g id="edge31" class="edge">
<title>Node110284&#45;&gt;Node110521</title>
<path fill="none" stroke="#191970" d="M251.3915,-435.7592C273.813,-441.0843 299.8472,-447.2675 320.9156,-452.2712"/>
<polygon fill="#191970" stroke="#191970" points="251.9129,-432.2858 241.3748,-433.3802 250.2953,-439.0963 251.9129,-432.2858"/>
</g>
<!-- Node110286 -->
<g id="node4" class="node">
<title>Node110286</title>
<g id="a_node4"><a xlink:href="quickjs_8c.html#ac93c982cb636a5430b191d104083af3e" target="_top" xlink:title="convert_fast_array\l_to_array">
<polygon fill="none" stroke="#ff0000" points="486.5,-231.7912 486.5,-261.7912 584.5,-261.7912 584.5,-231.7912 486.5,-231.7912"/>
<text text-anchor="start" x="494.5" y="-249.7912" font-family="Helvetica,sans-Serif" font-size="10.00" fill="#000000">convert_fast_array</text>
<text text-anchor="middle" x="535.5" y="-238.7912" font-family="Helvetica,sans-Serif" font-size="10.00" fill="#000000">_to_array</text>
</a>
</g>
</g>
<!-- Node110285&#45;&gt;Node110286 -->
<g id="edge3" class="edge">
<title>Node110285&#45;&gt;Node110286</title>
<path fill="none" stroke="#191970" d="M369.6841,-405.0173C385.2591,-373.28 420.8649,-308.8659 469,-271.7912 474.2766,-267.7271 480.2861,-264.2651 486.4844,-261.3321"/>
<polygon fill="#191970" stroke="#191970" points="366.4985,-403.5659 365.3406,-414.0973 372.8133,-406.5866 366.4985,-403.5659"/>
</g>
<!-- Node110641 -->
<g id="node6" class="node">
<title>Node110641</title>
<g id="a_node6"><a xlink:href="quickjs_8c.html#ad5565bb5cfd5321f181573257f3b0c91" target="_top" xlink:title="JS_CreateProperty">
<polygon fill="none" stroke="#ff0000" points="645,-300.2912 645,-319.2912 745,-319.2912 745,-300.2912 645,-300.2912"/>
<text text-anchor="middle" x="695" y="-307.2912" font-family="Helvetica,sans-Serif" font-size="10.00" fill="#000000">JS_CreateProperty</text>
</a>
</g>
</g>
<!-- Node110285&#45;&gt;Node110641 -->
<g id="edge22" class="edge">
<title>Node110285&#45;&gt;Node110641</title>
<path fill="none" stroke="#191970" d="M380.0764,-407.8491C400.6904,-391.4737 435.1512,-366.4993 469,-352.7912 526.7503,-329.4035 598.0398,-318.5521 644.9227,-313.643"/>
<polygon fill="#191970" stroke="#191970" points="377.7005,-405.2694 372.1318,-414.2828 382.1059,-410.7094 377.7005,-405.2694"/>
</g>
<!-- Node110289 -->
<g id="node8" class="node">
<title>Node110289</title>
<g id="a_node8"><a xlink:href="quickjs_8c.html#ad7f03358a8088ca920ab308225c6b2e6" target="_top" xlink:title="JS_SetPropertyInternal">
<polygon fill="none" stroke="#ff0000" points="964,-343.2912 964,-362.2912 1082,-362.2912 1082,-343.2912 964,-343.2912"/>
<text text-anchor="middle" x="1023" y="-350.2912" font-family="Helvetica,sans-Serif" font-size="10.00" fill="#000000">JS_SetPropertyInternal</text>
</a>
</g>
</g>
<!-- Node110285&#45;&gt;Node110289 -->
<g id="edge30" class="edge">
<title>Node110285&#45;&gt;Node110289</title>
<path fill="none" stroke="#191970" d="M407.654,-418.7876C525.2885,-406.1712 833.8606,-373.0766 963.8835,-359.1315"/>
<polygon fill="#191970" stroke="#191970" points="407.1047,-415.3263 397.535,-419.8728 407.8512,-422.2864 407.1047,-415.3263"/>
</g>
<!-- Node110309 -->
<g id="node9" class="node">
<title>Node110309</title>
<g id="a_node9"><a xlink:href="quickjs_8c.html#ac2894ff4edcdb4e6841bcce9c76081e3" target="_top" xlink:title="JS_CallInternal">
<polygon fill="none" stroke="#ff0000" points="1118,-433.2912 1118,-452.2912 1201,-452.2912 1201,-433.2912 1118,-433.2912"/>
<text text-anchor="middle" x="1159.5" y="-440.2912" font-family="Helvetica,sans-Serif" font-size="10.00" fill="#000000">JS_CallInternal</text>
</a>
</g>
</g>
<!-- Node110285&#45;&gt;Node110309 -->
<g id="edge21" class="edge">
<title>Node110285&#45;&gt;Node110309</title>
<path fill="none" stroke="#191970" d="M407.6314,-428.0487C417.1297,-430.9536 426.2634,-435.5603 433,-442.7912 491.5861,-505.6763 407.6015,-572.649 469,-632.7912 541.7625,-704.065 593.1456,-670.7912 695,-670.7912 695,-670.7912 695,-670.7912 858,-670.7912 966.8453,-670.7912 1002.6907,-646.3388 1082,-571.7912 1120.6452,-535.4663 1146.7335,-475.6353 1155.8793,-452.4185"/>
<polygon fill="#191970" stroke="#191970" points="408.2332,-424.5924 397.6863,-425.5989 406.5589,-431.3892 408.2332,-424.5924"/>
</g>
<!-- Node110597 -->
<g id="node10" class="node">
<title>Node110597</title>
<g id="a_node10"><a xlink:href="quickjs_8c.html#a04d312757919ff6b4d79cd0c2c3e5bb2" target="_top" xlink:title="js_build_arguments">
<polygon fill="none" stroke="#000000" points="972.5,-395.2912 972.5,-414.2912 1073.5,-414.2912 1073.5,-395.2912 972.5,-395.2912"/>
<text text-anchor="middle" x="1023" y="-402.2912" font-family="Helvetica,sans-Serif" font-size="10.00" fill="#000000">js_build_arguments</text>
</a>
</g>
</g>
<!-- Node110285&#45;&gt;Node110597 -->
<g id="edge17" class="edge">
<title>Node110285&#45;&gt;Node110597</title>
<path fill="none" stroke="#191970" d="M407.8795,-422.4458C528.2499,-418.991 847.472,-409.829 972.1222,-406.2515"/>
<polygon fill="#191970" stroke="#191970" points="407.4304,-418.9571 397.535,-422.7426 407.6313,-425.9542 407.4304,-418.9571"/>
</g>
<!-- Node110869 -->
<g id="node11" class="node">
<title>Node110869</title>
<g id="a_node11"><a xlink:href="quickjs_8c.html#a6a21784a40b8684f2e779bd460dd13b2" target="_top" xlink:title="JS_AddBrand">
<polygon fill="none" stroke="#000000" points="819.5,-623.2912 819.5,-642.2912 896.5,-642.2912 896.5,-623.2912 819.5,-623.2912"/>
<text text-anchor="middle" x="858" y="-630.2912" font-family="Helvetica,sans-Serif" font-size="10.00" fill="#000000">JS_AddBrand</text>
</a>
</g>
</g>
<!-- Node110285&#45;&gt;Node110869 -->
<g id="edge15" class="edge">
<title>Node110285&#45;&gt;Node110869</title>
<path fill="none" stroke="#191970" d="M407.4511,-428.2196C416.9584,-431.116 426.1412,-435.676 433,-442.7912 483.586,-495.2683 413.8774,-555.1018 469,-602.7912 520.5453,-647.3858 731.4516,-640.406 819.3058,-635.3808"/>
<polygon fill="#191970" stroke="#191970" points="408.0573,-424.7642 397.5099,-425.766 406.3799,-431.5603 408.0573,-424.7642"/>
</g>
<!-- Node110572 -->
<g id="node12" class="node">
<title>Node110572</title>
<g id="a_node12"><a xlink:href="quickjs_8c.html#a1c459034f2971c4abc3a8d6d4693ef5f" target="_top" xlink:title="js_build_mapped_arguments">
<polygon fill="none" stroke="#000000" points="788,-509.2912 788,-528.2912 928,-528.2912 928,-509.2912 788,-509.2912"/>
<text text-anchor="middle" x="858" y="-516.2912" font-family="Helvetica,sans-Serif" font-size="10.00" fill="#000000">js_build_mapped_arguments</text>
</a>
</g>
</g>
<!-- Node110285&#45;&gt;Node110572 -->
<g id="edge18" class="edge">
<title>Node110285&#45;&gt;Node110572</title>
<path fill="none" stroke="#191970" d="M407.3189,-430.8482C416.3578,-433.6086 425.3826,-437.4488 433,-442.7912 456.0133,-458.9316 444.5152,-480.9848 469,-494.7912 578.4788,-556.5239 733.8838,-541.3072 810.9304,-528.3073"/>
<polygon fill="#191970" stroke="#191970" points="408.1347,-427.4435 397.5711,-428.2566 406.3361,-434.2085 408.1347,-427.4435"/>
</g>
<!-- Node110603 -->
<g id="node13" class="node">
<title>Node110603</title>
<g id="a_node13"><a xlink:href="quickjs_8c.html#ad12b6863ca31850fc39d208bb865420e" target="_top" xlink:title="js_build_module_ns">
<polygon fill="none" stroke="#ff0000" points="644,-566.2912 644,-585.2912 746,-585.2912 746,-566.2912 644,-566.2912"/>
<text text-anchor="middle" x="695" y="-573.2912" font-family="Helvetica,sans-Serif" font-size="10.00" fill="#000000">js_build_module_ns</text>
</a>
</g>
</g>
<!-- Node110285&#45;&gt;Node110603 -->
<g id="edge20" class="edge">
<title>Node110285&#45;&gt;Node110603</title>
<path fill="none" stroke="#191970" d="M407.5047,-428.5243C416.9252,-431.4129 426.0578,-435.8929 433,-442.7912 476.4389,-485.9558 420.3691,-538.5736 469,-575.7912 527.4221,-620.5022 621.5008,-599.7186 667.6647,-585.3949"/>
<polygon fill="#191970" stroke="#191970" points="408.2143,-425.0939 397.6632,-426.0554 406.511,-431.8835 408.2143,-425.0939"/>
</g>
<!-- Node110870 -->
<g id="node14" class="node">
<title>Node110870</title>
<g id="a_node14"><a xlink:href="quickjs_8c.html#a890d1a6c1f9caba99361758df8cacb2c" target="_top" xlink:title="JS_DefineAutoInitProperty">
<polygon fill="none" stroke="#ff0000" points="469,-547.2912 469,-566.2912 602,-566.2912 602,-547.2912 469,-547.2912"/>
<text text-anchor="middle" x="535.5" y="-554.2912" font-family="Helvetica,sans-Serif" font-size="10.00" fill="#000000">JS_DefineAutoInitProperty</text>
</a>
</g>
</g>
<!-- Node110285&#45;&gt;Node110870 -->
<g id="edge23" class="edge">
<title>Node110285&#45;&gt;Node110870</title>
<path fill="none" stroke="#191970" d="M407.7744,-429.4016C416.932,-432.2569 425.8884,-436.5015 433,-442.7912 465.2707,-471.3325 438.0212,-502.8528 469,-532.7912 475.5312,-539.1031 483.8431,-543.7713 492.3605,-547.2187"/>
<polygon fill="#191970" stroke="#191970" points="408.3952,-425.9467 397.8362,-426.8175 406.6336,-432.7214 408.3952,-425.9467"/>
</g>
<!-- Node110871 -->
<g id="node15" class="node">
<title>Node110871</title>
<g id="a_node15"><a xlink:href="quickjs_8c.html#a4e5684e94183b342edf8cf73f1c23d65" target="_top" xlink:title="JS_DefineGlobalVar">
<polygon fill="none" stroke="#000000" points="970.5,-471.2912 970.5,-490.2912 1075.5,-490.2912 1075.5,-471.2912 970.5,-471.2912"/>
<text text-anchor="middle" x="1023" y="-478.2912" font-family="Helvetica,sans-Serif" font-size="10.00" fill="#000000">JS_DefineGlobalVar</text>
</a>
</g>
</g>
<!-- Node110285&#45;&gt;Node110871 -->
<g id="edge25" class="edge">
<title>Node110285&#45;&gt;Node110871</title>
<path fill="none" stroke="#191970" d="M407.6238,-435.6072C426.561,-440.0249 448.718,-444.7122 469,-447.7912 651.6603,-475.521 871.5009,-480.2245 970.345,-480.8387"/>
<polygon fill="#191970" stroke="#191970" points="408.2932,-432.1689 397.755,-433.2624 406.675,-438.9793 408.2932,-432.1689"/>
</g>
<!-- Node110872 -->
<g id="node16" class="node">
<title>Node110872</title>
<g id="a_node16"><a xlink:href="quickjs_8c.html#a3865abec9986277dbff58ea314f3d82e" target="_top" xlink:title="JS_DefinePrivateField">
<polygon fill="none" stroke="#000000" points="638,-433.2912 638,-452.2912 752,-452.2912 752,-433.2912 638,-433.2912"/>
<text text-anchor="middle" x="695" y="-440.2912" font-family="Helvetica,sans-Serif" font-size="10.00" fill="#000000">JS_DefinePrivateField</text>
</a>
</g>
</g>
<!-- Node110285&#45;&gt;Node110872 -->
<g id="edge27" class="edge">
<title>Node110285&#45;&gt;Node110872</title>
<path fill="none" stroke="#191970" d="M407.7021,-426.4479C468.0122,-429.8788 572.9261,-435.8469 637.907,-439.5434"/>
<polygon fill="#191970" stroke="#191970" points="407.8819,-422.9526 397.6993,-425.8789 407.4843,-429.9413 407.8819,-422.9526"/>
</g>
<!-- Node110873 -->
<g id="node17" class="node">
<title>Node110873</title>
<g id="a_node17"><a xlink:href="quickjs_8c.html#a030c2e98b1775a7e3bdd13be1400b1fe" target="_top" xlink:title="JS_NewObjectFromShape">
<polygon fill="none" stroke="#ff0000" points="469,-281.2912 469,-300.2912 602,-300.2912 602,-281.2912 469,-281.2912"/>
<text text-anchor="middle" x="535.5" y="-288.2912" font-family="Helvetica,sans-Serif" font-size="10.00" fill="#000000">JS_NewObjectFromShape</text>
</a>
</g>
</g>
<!-- Node110285&#45;&gt;Node110873 -->
<g id="edge29" class="edge">
<title>Node110285&#45;&gt;Node110873</title>
<path fill="none" stroke="#191970" d="M374.325,-406.087C393.0656,-382.2975 429.3784,-340.0859 469,-314.7912 478.4144,-308.781 489.5386,-304.0111 499.9674,-300.3591"/>
<polygon fill="#191970" stroke="#191970" points="371.3784,-404.1762 368.0326,-414.2289 376.9171,-408.4568 371.3784,-404.1762"/>
</g>
<!-- Node110287 -->
<g id="node5" class="node">
<title>Node110287</title>
<g id="a_node5"><a xlink:href="quickjs_8c.html#a2b9a2014cb970af5b5b7dde00afbdffa" target="_top" xlink:title="delete_property">
<polygon fill="none" stroke="#ff0000" points="653.5,-180.2912 653.5,-199.2912 736.5,-199.2912 736.5,-180.2912 653.5,-180.2912"/>
<text text-anchor="middle" x="695" y="-187.2912" font-family="Helvetica,sans-Serif" font-size="10.00" fill="#000000">delete_property</text>
</a>
</g>
</g>
<!-- Node110286&#45;&gt;Node110287 -->
<g id="edge4" class="edge">
<title>Node110286&#45;&gt;Node110287</title>
<path fill="none" stroke="#191970" d="M587.4834,-228.2141C614.3643,-218.6078 646.0544,-207.2828 668.0346,-199.4278"/>
<polygon fill="#191970" stroke="#191970" points="586.0632,-225.0048 577.8243,-231.6659 588.4189,-231.5965 586.0632,-225.0048"/>
</g>
<!-- Node110286&#45;&gt;Node110641 -->
<g id="edge5" class="edge">
<title>Node110286&#45;&gt;Node110641</title>
<path fill="none" stroke="#191970" d="M585.3917,-265.3727C591.003,-267.5145 596.6301,-269.6853 602,-271.7912 626.0316,-281.216 653.3599,-292.444 672.1411,-300.2403"/>
<polygon fill="#191970" stroke="#191970" points="586.6029,-262.0889 576.0117,-261.8125 584.1189,-268.6333 586.6029,-262.0889"/>
</g>
<!-- Node110507 -->
<g id="node7" class="node">
<title>Node110507</title>
<g id="a_node7"><a xlink:href="quickjs_8c.html#ab50618f1bf78e444caa6da0e3e2785d7" target="_top" xlink:title="JS_DefineProperty">
<polygon fill="none" stroke="#ff0000" points="808.5,-281.2912 808.5,-300.2912 907.5,-300.2912 907.5,-281.2912 808.5,-281.2912"/>
<text text-anchor="middle" x="858" y="-288.2912" font-family="Helvetica,sans-Serif" font-size="10.00" fill="#000000">JS_DefineProperty</text>
</a>
</g>
</g>
<!-- Node110286&#45;&gt;Node110507 -->
<g id="edge14" class="edge">
<title>Node110286&#45;&gt;Node110507</title>
<path fill="none" stroke="#191970" d="M594.7557,-254.8757C656.1096,-263.2465 750.8825,-276.1768 808.4087,-284.0253"/>
<polygon fill="#191970" stroke="#191970" points="595.2132,-251.4058 584.8319,-253.5218 594.2669,-258.3416 595.2132,-251.4058"/>
</g>
<!-- Node110641&#45;&gt;Node110507 -->
<g id="edge6" class="edge">
<title>Node110641&#45;&gt;Node110507</title>
<path fill="none" stroke="#191970" d="M755.349,-302.7567C772.8457,-300.7172 791.7396,-298.5148 808.4905,-296.5623"/>
<polygon fill="#191970" stroke="#191970" points="754.7629,-299.3012 745.2354,-303.9356 755.5734,-306.2541 754.7629,-299.3012"/>
</g>
<!-- Node110641&#45;&gt;Node110289 -->
<g id="edge13" class="edge">
<title>Node110641&#45;&gt;Node110289</title>
<path fill="none" stroke="#191970" d="M755.1646,-317.6787C814.591,-325.4693 904.916,-337.3107 963.9517,-345.0502"/>
<polygon fill="#191970" stroke="#191970" points="755.5433,-314.1985 745.1732,-316.3688 754.6334,-321.1391 755.5433,-314.1985"/>
</g>
<!-- Node110507&#45;&gt;Node110289 -->
<g id="edge7" class="edge">
<title>Node110507&#45;&gt;Node110289</title>
<path fill="none" stroke="#191970" d="M896.5919,-303.6349C906.8376,-307.1505 917.8686,-311.0309 928,-314.7912 952.8137,-324.0011 980.9249,-335.363 1000.0893,-343.2519"/>
<polygon fill="#191970" stroke="#191970" points="897.6589,-300.301 887.0645,-300.392 895.4033,-306.9276 897.6589,-300.301"/>
</g>
<!-- Node110507&#45;&gt;Node110309 -->
<g id="edge12" class="edge">
<title>Node110507&#45;&gt;Node110309</title>
<path fill="none" stroke="#191970" d="M917.9644,-290.3915C965.8372,-292.7284 1032.8084,-302.1784 1082,-333.7912 1121.0669,-358.8975 1146.394,-411.3035 1155.6052,-433.0298"/>
<polygon fill="#191970" stroke="#191970" points="917.8804,-286.8855 907.7494,-289.986 917.6027,-293.88 917.8804,-286.8855"/>
</g>
<!-- Node110507&#45;&gt;Node110597 -->
<g id="edge10" class="edge">
<title>Node110507&#45;&gt;Node110597</title>
<path fill="none" stroke="#191970" d="M877.1292,-306.7384C897.9008,-323.7339 932.3553,-351.0027 964,-371.7912 977.0461,-380.3617 992.4614,-388.934 1004.2628,-395.193"/>
<polygon fill="#191970" stroke="#191970" points="879.3096,-303.9999 869.366,-300.3425 874.8585,-309.4025 879.3096,-303.9999"/>
</g>
<!-- Node110289&#45;&gt;Node110309 -->
<g id="edge8" class="edge">
<title>Node110289&#45;&gt;Node110309</title>
<path fill="none" stroke="#191970" d="M1050.2616,-367.1171C1060.391,-372.6789 1071.8762,-379.2728 1082,-385.7912 1106.0134,-401.2529 1132.5255,-421.4912 1147.4839,-433.226"/>
<polygon fill="#191970" stroke="#191970" points="1051.8786,-364.0126 1041.4181,-362.3311 1048.5469,-370.1688 1051.8786,-364.0126"/>
</g>
<!-- Node110309&#45;&gt;Node110309 -->
<g id="edge9" class="edge">
<title>Node110309&#45;&gt;Node110309</title>
<path fill="none" stroke="#191970" d="M1134.2025,-461.8204C1135.5824,-466.9192 1144.0149,-470.7912 1159.5,-470.7912 1183.6719,-470.7912 1190.6591,-461.3565 1180.4615,-452.5483"/>
<polygon fill="#191970" stroke="#191970" points="1137.4728,-463.0894 1138.5385,-452.5483 1131.1319,-460.1241 1137.4728,-463.0894"/>
</g>
<!-- Node110597&#45;&gt;Node110309 -->
<g id="edge11" class="edge">
<title>Node110597&#45;&gt;Node110309</title>
<path fill="none" stroke="#191970" d="M1067.2487,-417.1096C1086.003,-422.3305 1107.528,-428.3228 1125.0663,-433.2053"/>
<polygon fill="#191970" stroke="#191970" points="1068.0171,-413.6904 1057.4447,-414.3802 1066.1397,-420.434 1068.0171,-413.6904"/>
</g>
<!-- Node110869&#45;&gt;Node110309 -->
<g id="edge16" class="edge">
<title>Node110869&#45;&gt;Node110309</title>
<path fill="none" stroke="#191970" d="M895.2552,-619.6626C941.6527,-602.2665 1022.0997,-568.5969 1082,-524.7912 1111.7253,-503.0528 1139.5878,-469.0196 1152.2925,-452.4732"/>
<polygon fill="#191970" stroke="#191970" points="893.7796,-616.4765 885.6135,-623.2267 896.2067,-623.0423 893.7796,-616.4765"/>
</g>
<!-- Node110572&#45;&gt;Node110309 -->
<g id="edge19" class="edge">
<title>Node110572&#45;&gt;Node110309</title>
<path fill="none" stroke="#191970" d="M938.0479,-522.436C981.8443,-521.882 1036.3266,-516.9506 1082,-499.7912 1109.8305,-489.3354 1136.4273,-465.8625 1150.0511,-452.5294"/>
<polygon fill="#191970" stroke="#191970" points="937.9982,-518.9362 928.0171,-522.4895 938.0356,-525.9361 937.9982,-518.9362"/>
</g>
<!-- Node110870&#45;&gt;Node110603 -->
<g id="edge24" class="edge">
<title>Node110870&#45;&gt;Node110603</title>
<path fill="none" stroke="#191970" d="M612.336,-565.9441C622.9366,-567.2069 633.6059,-568.4778 643.5934,-569.6676"/>
<polygon fill="#191970" stroke="#191970" points="612.562,-562.4464 602.2182,-564.7389 611.734,-569.3972 612.562,-562.4464"/>
</g>
<!-- Node110871&#45;&gt;Node110309 -->
<g id="edge26" class="edge">
<title>Node110871&#45;&gt;Node110309</title>
<path fill="none" stroke="#191970" d="M1067.2487,-468.4729C1086.003,-463.252 1107.528,-457.2596 1125.0663,-452.3772"/>
<polygon fill="#191970" stroke="#191970" points="1066.1397,-465.1485 1057.4447,-471.2022 1068.0171,-471.892 1066.1397,-465.1485"/>
</g>
<!-- Node110872&#45;&gt;Node110309 -->
<g id="edge28" class="edge">
<title>Node110872&#45;&gt;Node110309</title>
<path fill="none" stroke="#191970" d="M762.4705,-442.7912C860.0158,-442.7912 1037.5321,-442.7912 1117.9411,-442.7912"/>
<polygon fill="#191970" stroke="#191970" points="762.4227,-439.2913 752.4227,-442.7912 762.4227,-446.2913 762.4227,-439.2913"/>
</g>
<!-- Node110892&#45;&gt;Node110285 -->
<g id="edge33" class="edge">
<title>Node110892&#45;&gt;Node110285</title>
<path fill="none" stroke="#191970" d="M213.9976,-220.7442C246.292,-265.3508 329.3469,-380.0704 354.0003,-414.1229"/>
<polygon fill="#191970" stroke="#191970" points="216.7808,-218.62 208.0814,-212.5725 211.1107,-222.725 216.7808,-218.62"/>
</g>
<!-- Node110892&#45;&gt;Node110873 -->
<g id="edge38" class="edge">
<title>Node110892&#45;&gt;Node110873</title>
<path fill="none" stroke="#191970" d="M247.0104,-214.8956C314.2702,-232.5903 438.0718,-265.1599 499.2825,-281.2632"/>
<polygon fill="#191970" stroke="#191970" points="247.6766,-211.4519 237.1152,-212.2924 245.8956,-218.2215 247.6766,-211.4519"/>
</g>
<!-- Node110893 -->
<g id="node20" class="node">
<title>Node110893</title>
<g id="a_node20"><a xlink:href="quickjs_8c.html#ad0024a55f68035452880ee86d78d40f3" target="_top" xlink:title="free_object_struct">
<polygon fill="none" stroke="#000000" points="313.5,-193.2912 313.5,-212.2912 408.5,-212.2912 408.5,-193.2912 313.5,-193.2912"/>
<text text-anchor="middle" x="361" y="-200.2912" font-family="Helvetica,sans-Serif" font-size="10.00" fill="#000000">free_object_struct</text>
</a>
</g>
</g>
<!-- Node110892&#45;&gt;Node110893 -->
<g id="edge34" class="edge">
<title>Node110892&#45;&gt;Node110893</title>
<path fill="none" stroke="#191970" d="M249.9679,-202.7912C270.1509,-202.7912 293.4526,-202.7912 313.482,-202.7912"/>
<polygon fill="#191970" stroke="#191970" points="249.7316,-199.2913 239.7315,-202.7912 249.7315,-206.2913 249.7316,-199.2913"/>
</g>
<!-- Node110990 -->
<g id="node22" class="node">
<title>Node110990</title>
<g id="a_node22"><a xlink:href="quickjs_8c.html#a8a02cfc587edc36995bda62a0160269c" target="_top" xlink:title="js_free_shape_null">
<polygon fill="none" stroke="#000000" points="312,-155.2912 312,-174.2912 410,-174.2912 410,-155.2912 312,-155.2912"/>
<text text-anchor="middle" x="361" y="-162.2912" font-family="Helvetica,sans-Serif" font-size="10.00" fill="#000000">js_free_shape_null</text>
</a>
</g>
</g>
<!-- Node110892&#45;&gt;Node110990 -->
<g id="edge36" class="edge">
<title>Node110892&#45;&gt;Node110990</title>
<path fill="none" stroke="#191970" d="M249.5725,-191.2553C272.4086,-185.8317 299.3069,-179.4433 320.9542,-174.3021"/>
<polygon fill="#191970" stroke="#191970" points="248.6521,-187.8764 239.7315,-193.5925 250.2697,-194.687 248.6521,-187.8764"/>
</g>
<!-- Node110892&#45;&gt;Node110991 -->
<g id="edge39" class="edge">
<title>Node110892&#45;&gt;Node110991</title>
<path fill="none" stroke="#191970" d="M221.261,-186.9972C238.4459,-174.2762 264.1915,-156.7628 289,-145.7912 297.5128,-142.0265 306.9324,-138.8764 316.0754,-136.2932"/>
<polygon fill="#191970" stroke="#191970" points="218.9785,-184.3349 213.105,-193.1526 223.1954,-189.9222 218.9785,-184.3349"/>
</g>
<!-- Node110894 -->
<g id="node21" class="node">
<title>Node110894</title>
<g id="a_node21"><a xlink:href="quickjs_8c.html#a445304af312d8f13a51fed8af701ff5c" target="_top" xlink:title="free_object2">
<polygon fill="none" stroke="#ff0000" points="500.5,-193.2912 500.5,-212.2912 570.5,-212.2912 570.5,-193.2912 500.5,-193.2912"/>
<text text-anchor="middle" x="535.5" y="-200.2912" font-family="Helvetica,sans-Serif" font-size="10.00" fill="#000000">free_object2</text>
</a>
</g>
</g>
<!-- Node110893&#45;&gt;Node110894 -->
<g id="edge35" class="edge">
<title>Node110893&#45;&gt;Node110894</title>
<path fill="none" stroke="#191970" d="M418.7841,-202.7912C445.7494,-202.7912 476.9694,-202.7912 500.3317,-202.7912"/>
<polygon fill="#191970" stroke="#191970" points="418.6829,-199.2913 408.6829,-202.7912 418.6829,-206.2913 418.6829,-199.2913"/>
</g>
<!-- Node110909 -->
<g id="node23" class="node">
<title>Node110909</title>
<g id="a_node23"><a xlink:href="quickjs_8c.html#a1b4fe6eb1b7bcaec6713bd5ac2921f1b" target="_top" xlink:title="JS_FreeContext">
<polygon fill="none" stroke="#ff0000" points="491.5,-155.2912 491.5,-174.2912 579.5,-174.2912 579.5,-155.2912 491.5,-155.2912"/>
<text text-anchor="middle" x="535.5" y="-162.2912" font-family="Helvetica,sans-Serif" font-size="10.00" fill="#000000">JS_FreeContext</text>
</a>
</g>
</g>
<!-- Node110990&#45;&gt;Node110909 -->
<g id="edge37" class="edge">
<title>Node110990&#45;&gt;Node110909</title>
<path fill="none" stroke="#191970" d="M420.1806,-164.7912C443.4468,-164.7912 469.6934,-164.7912 491.2627,-164.7912"/>
<polygon fill="#191970" stroke="#191970" points="420.0724,-161.2913 410.0724,-164.7912 420.0723,-168.2913 420.0724,-161.2913"/>
</g>
<!-- Node110991&#45;&gt;Node110286 -->
<g id="edge40" class="edge">
<title>Node110991&#45;&gt;Node110286</title>
<path fill="none" stroke="#191970" d="M426.4927,-141.1329C428.7745,-142.5442 430.9552,-144.0925 433,-145.7912 461.7492,-169.6748 441.5005,-196.4789 469,-221.7912 474.0819,-226.469 480.1227,-230.2965 486.4595,-233.4219"/>
<polygon fill="#191970" stroke="#191970" points="427.7529,-137.8436 417.2651,-136.3414 424.527,-144.056 427.7529,-137.8436"/>
</g>
<!-- Node110991&#45;&gt;Node110287 -->
<g id="edge41" class="edge">
<title>Node110991&#45;&gt;Node110287</title>
<path fill="none" stroke="#191970" d="M435.2838,-125.7468C483.5352,-126.7447 547.3824,-131.2446 602,-145.7912 630.6516,-153.4222 661.2495,-169.6575 679.2224,-180.1298"/>
<polygon fill="#191970" stroke="#191970" points="435.2883,-122.2465 425.2331,-125.5847 435.1753,-129.2456 435.2883,-122.2465"/>
</g>
<!-- Node110991&#45;&gt;Node110507 -->
<g id="edge42" class="edge">
<title>Node110991&#45;&gt;Node110507</title>
<path fill="none" stroke="#191970" d="M435.2689,-116.5315C519.1248,-108.8995 656.3158,-108.7217 752,-170.7912 799.1072,-201.3493 837.871,-258.3973 852.1285,-281.1047"/>
<polygon fill="#191970" stroke="#191970" points="434.9295,-113.0479 425.3134,-117.4955 435.6042,-120.0153 434.9295,-113.0479"/>
</g>
<!-- Node110855 -->
<g id="node25" class="node">
<title>Node110855</title>
<g id="a_node25"><a xlink:href="quickjs_8c.html#a11b9662411b5b3f631925a0ca708ce25" target="_top" xlink:title="JS_SetPrototypeInternal">
<polygon fill="none" stroke="#ff0000" points="796.5,-120.2912 796.5,-139.2912 919.5,-139.2912 919.5,-120.2912 796.5,-120.2912"/>
<text text-anchor="middle" x="858" y="-127.2912" font-family="Helvetica,sans-Serif" font-size="10.00" fill="#000000">JS_SetPrototypeInternal</text>
</a>
</g>
</g>
<!-- Node110991&#45;&gt;Node110855 -->
<g id="edge43" class="edge">
<title>Node110991&#45;&gt;Node110855</title>
<path fill="none" stroke="#191970" d="M378.457,-110.2292C398.5836,-92.1809 433.48,-63.9875 469,-49.7912 586.2143,-2.9443 635.1507,21.9587 752,-25.7912 799.9693,-45.3937 837.9577,-98.3271 852.0666,-120.1671"/>
<polygon fill="#191970" stroke="#191970" points="376.0238,-107.7116 371.0161,-117.0483 380.7532,-112.8723 376.0238,-107.7116"/>
</g>
<!-- Node110992 -->
<g id="node26" class="node">
<title>Node110992</title>
<g id="a_node26"><a xlink:href="quickjs_8c.html#a6d48937f79966a773376cc24834c663f" target="_top" xlink:title="js_update_property\l_flags">
<polygon fill="none" stroke="#ff0000" points="645.5,-35.7912 645.5,-65.7912 744.5,-65.7912 744.5,-35.7912 645.5,-35.7912"/>
<text text-anchor="start" x="653.5" y="-53.7912" font-family="Helvetica,sans-Serif" font-size="10.00" fill="#000000">js_update_property</text>
<text text-anchor="middle" x="695" y="-42.7912" font-family="Helvetica,sans-Serif" font-size="10.00" fill="#000000">_flags</text>
</a>
</g>
</g>
<!-- Node110991&#45;&gt;Node110992 -->
<g id="edge45" class="edge">
<title>Node110991&#45;&gt;Node110992</title>
<path fill="none" stroke="#191970" d="M385.1081,-112.2018C406.3897,-100.0637 438.6626,-83.425 469,-74.7912 528.012,-57.997 598.7189,-52.75 645.1401,-51.2187"/>
<polygon fill="#191970" stroke="#191970" points="383.3075,-109.2 376.4241,-117.2542 386.8277,-115.2505 383.3075,-109.2"/>
</g>
<!-- Node110855&#45;&gt;Node110309 -->
<g id="edge44" class="edge">
<title>Node110855&#45;&gt;Node110309</title>
<path fill="none" stroke="#191970" d="M885.8558,-144.2111C931.7029,-169.0838 1023.7726,-223.9688 1082,-291.7912 1121.5404,-337.8473 1147.6284,-407.5577 1156.3107,-433.0314"/>
<polygon fill="#191970" stroke="#191970" points="887.271,-140.9989 876.8029,-139.3653 883.9675,-147.1703 887.271,-140.9989"/>
</g>
<!-- Node110992&#45;&gt;Node110507 -->
<g id="edge46" class="edge">
<title>Node110992&#45;&gt;Node110507</title>
<path fill="none" stroke="#191970" d="M740.6169,-71.3472C744.7206,-74.1888 748.6019,-77.3348 752,-80.7912 755.9815,-84.8411 833.115,-240.4863 853.2341,-281.1522"/>
<polygon fill="#191970" stroke="#191970" points="742.3002,-68.2719 731.9652,-65.9401 738.5903,-74.208 742.3002,-68.2719"/>
</g>
</g>
</svg>
