<?xml version="1.0" encoding="UTF-8" standalone="no"?>
<!DOCTYPE svg PUBLIC "-//W3C//DTD SVG 1.1//EN"
 "http://www.w3.org/Graphics/SVG/1.1/DTD/svg11.dtd">
<!-- Generated by graphviz version 2.40.1 (20161225.0304)
 -->
<!-- Title: invalid_unary_arith Pages: 1 -->
<svg width="563pt" height="66pt"
 viewBox="0.00 0.00 563.00 66.00" xmlns="http://www.w3.org/2000/svg" xmlns:xlink="http://www.w3.org/1999/xlink">
<g id="graph0" class="graph" transform="scale(1 1) rotate(0) translate(4 62)">
<title>invalid_unary_arith</title>
<!-- Node64538 -->
<g id="node1" class="node">
<title>Node64538</title>
<polygon fill="#bfbfbf" stroke="#000000" points="0,-19.5 0,-38.5 98,-38.5 98,-19.5 0,-19.5"/>
<text text-anchor="middle" x="49" y="-26.5" font-family="Helvetica,sans-Serif" font-size="10.00" fill="#000000">invalid_unary_arith</text>
</g>
<!-- Node64539 -->
<g id="node2" class="node">
<title>Node64539</title>
<g id="a_node2"><a xlink:href="quickjs_8h.html#afaa20c47565bc704c6c85f3d77254e7d" target="_top" xlink:title="JS_FreeValue">
<polygon fill="none" stroke="#000000" points="174,-38.5 174,-57.5 252,-57.5 252,-38.5 174,-38.5"/>
<text text-anchor="middle" x="213" y="-45.5" font-family="Helvetica,sans-Serif" font-size="10.00" fill="#000000">JS_FreeValue</text>
</a>
</g>
</g>
<!-- Node64538&#45;&gt;Node64539 -->
<g id="edge1" class="edge">
<title>Node64538&#45;&gt;Node64539</title>
<path fill="none" stroke="#191970" d="M98.2054,-34.7006C118.9488,-37.1038 143.0444,-39.8954 163.7884,-42.2987"/>
<polygon fill="#191970" stroke="#191970" points="163.6468,-45.8056 173.9832,-43.4798 164.4525,-38.8521 163.6468,-45.8056"/>
</g>
<!-- Node64568 -->
<g id="node5" class="node">
<title>Node64568</title>
<g id="a_node5"><a xlink:href="quickjs_8c.html#a8250f5ea1a9c01ff132d8f205bec74c7" target="_top" xlink:title="JS_ThrowUnsupportedOperation">
<polygon fill="none" stroke="#000000" points="134,-.5 134,-19.5 292,-19.5 292,-.5 134,-.5"/>
<text text-anchor="middle" x="213" y="-7.5" font-family="Helvetica,sans-Serif" font-size="10.00" fill="#000000">JS_ThrowUnsupportedOperation</text>
</a>
</g>
</g>
<!-- Node64538&#45;&gt;Node64568 -->
<g id="edge4" class="edge">
<title>Node64538&#45;&gt;Node64568</title>
<path fill="none" stroke="#191970" d="M98.2054,-23.2994C106.363,-22.3543 115.039,-21.3491 123.8258,-20.3312"/>
<polygon fill="#191970" stroke="#191970" points="124.2409,-23.8066 133.7716,-19.1789 123.4352,-16.8531 124.2409,-23.8066"/>
</g>
<!-- Node64540 -->
<g id="node3" class="node">
<title>Node64540</title>
<g id="a_node3"><a xlink:href="quickjs_8c.html#aa059f309c30fd5166d16c82a97973146" target="_top" xlink:title="__JS_FreeValue">
<polygon fill="none" stroke="#000000" points="328,-38.5 328,-57.5 417,-57.5 417,-38.5 328,-38.5"/>
<text text-anchor="middle" x="372.5" y="-45.5" font-family="Helvetica,sans-Serif" font-size="10.00" fill="#000000">__JS_FreeValue</text>
</a>
</g>
</g>
<!-- Node64539&#45;&gt;Node64540 -->
<g id="edge2" class="edge">
<title>Node64539&#45;&gt;Node64540</title>
<path fill="none" stroke="#191970" d="M252.0181,-48C271.8427,-48 296.2577,-48 317.9143,-48"/>
<polygon fill="#191970" stroke="#191970" points="317.9669,-51.5001 327.9668,-48 317.9668,-44.5001 317.9669,-51.5001"/>
</g>
<!-- Node64541 -->
<g id="node4" class="node">
<title>Node64541</title>
<g id="a_node4"><a xlink:href="quickjs_8c.html#ab1ea3fad7d138be12144a38be4d36423" target="_top" xlink:title="__JS_FreeValueRT">
<polygon fill="none" stroke="#ff0000" points="453,-38.5 453,-57.5 555,-57.5 555,-38.5 453,-38.5"/>
<text text-anchor="middle" x="504" y="-45.5" font-family="Helvetica,sans-Serif" font-size="10.00" fill="#000000">__JS_FreeValueRT</text>
</a>
</g>
</g>
<!-- Node64540&#45;&gt;Node64541 -->
<g id="edge3" class="edge">
<title>Node64540&#45;&gt;Node64541</title>
<path fill="none" stroke="#191970" d="M417.0199,-48C425.2672,-48 434.0138,-48 442.6583,-48"/>
<polygon fill="#191970" stroke="#191970" points="442.7233,-51.5001 452.7233,-48 442.7232,-44.5001 442.7233,-51.5001"/>
</g>
</g>
</svg>
