<?xml version="1.0" encoding="UTF-8" standalone="no"?>
<!DOCTYPE svg PUBLIC "-//W3C//DTD SVG 1.1//EN"
 "http://www.w3.org/Graphics/SVG/1.1/DTD/svg11.dtd">
<!-- Generated by graphviz version 2.40.1 (20161225.0304)
 -->
<!-- Title: js_Date_UTC Pages: 1 -->
<svg width="483pt" height="256pt"
 viewBox="0.00 0.00 483.00 256.00" xmlns="http://www.w3.org/2000/svg" xmlns:xlink="http://www.w3.org/1999/xlink">
<g id="graph0" class="graph" transform="scale(1 1) rotate(0) translate(4 252)">
<title>js_Date_UTC</title>
<!-- Node493705 -->
<g id="node1" class="node">
<title>Node493705</title>
<polygon fill="#bfbfbf" stroke="#000000" points="0,-133.5 0,-152.5 77,-152.5 77,-133.5 0,-133.5"/>
<text text-anchor="middle" x="38.5" y="-140.5" font-family="Helvetica,sans-Serif" font-size="10.00" fill="#000000">js_Date_UTC</text>
</g>
<!-- Node493706 -->
<g id="node2" class="node">
<title>Node493706</title>
<g id="a_node2"><a xlink:href="quickjs_8c.html#a8cc9386cd04cfa067d0c6bf588c6bb58" target="_top" xlink:title="JS_ToFloat64">
<polygon fill="none" stroke="#000000" points="116,-190.5 116,-209.5 193,-209.5 193,-190.5 116,-190.5"/>
<text text-anchor="middle" x="154.5" y="-197.5" font-family="Helvetica,sans-Serif" font-size="10.00" fill="#000000">JS_ToFloat64</text>
</a>
</g>
</g>
<!-- Node493705&#45;&gt;Node493706 -->
<g id="edge1" class="edge">
<title>Node493705&#45;&gt;Node493706</title>
<path fill="none" stroke="#191970" d="M57.9158,-152.5405C76.4848,-161.665 104.7105,-175.5344 125.861,-185.9274"/>
<polygon fill="#191970" stroke="#191970" points="124.5023,-189.1594 135.0209,-190.4284 127.5894,-182.8769 124.5023,-189.1594"/>
</g>
<!-- Node494174 -->
<g id="node6" class="node">
<title>Node494174</title>
<g id="a_node6"><a xlink:href="quickjs_8c.html#acbfcb88375d84711233f4daf89b0c587" target="_top" xlink:title="set_date_fields">
<polygon fill="none" stroke="#000000" points="113,-95.5 113,-114.5 196,-114.5 196,-95.5 113,-95.5"/>
<text text-anchor="middle" x="154.5" y="-102.5" font-family="Helvetica,sans-Serif" font-size="10.00" fill="#000000">set_date_fields</text>
</a>
</g>
</g>
<!-- Node493705&#45;&gt;Node494174 -->
<g id="edge5" class="edge">
<title>Node493705&#45;&gt;Node494174</title>
<path fill="none" stroke="#191970" d="M67.7717,-133.411C82.1967,-128.6856 99.7934,-122.9211 115.3573,-117.8226"/>
<polygon fill="#191970" stroke="#191970" points="116.8242,-121.0252 125.2377,-114.5859 114.645,-114.373 116.8242,-121.0252"/>
</g>
<!-- Node493707 -->
<g id="node3" class="node">
<title>Node493707</title>
<g id="a_node3"><a xlink:href="quickjs_8h.html#a775522f2d084fc8fa0fcb33f390006b4" target="_top" xlink:title="JS_DupValue">
<polygon fill="none" stroke="#000000" points="243.5,-228.5 243.5,-247.5 320.5,-247.5 320.5,-228.5 243.5,-228.5"/>
<text text-anchor="middle" x="282" y="-235.5" font-family="Helvetica,sans-Serif" font-size="10.00" fill="#000000">JS_DupValue</text>
</a>
</g>
</g>
<!-- Node493706&#45;&gt;Node493707 -->
<g id="edge2" class="edge">
<title>Node493706&#45;&gt;Node493707</title>
<path fill="none" stroke="#191970" d="M186.6736,-209.589C202.8307,-214.4044 222.608,-220.2988 239.9518,-225.468"/>
<polygon fill="#191970" stroke="#191970" points="239.2535,-228.912 249.8367,-228.4141 241.2529,-222.2036 239.2535,-228.912"/>
</g>
<!-- Node493708 -->
<g id="node4" class="node">
<title>Node493708</title>
<g id="a_node4"><a xlink:href="quickjs_8c.html#ab1b614ef35f1cea05da0ad4927c53118" target="_top" xlink:title="JS_ToFloat64Free">
<polygon fill="none" stroke="#000000" points="233.5,-190.5 233.5,-209.5 330.5,-209.5 330.5,-190.5 233.5,-190.5"/>
<text text-anchor="middle" x="282" y="-197.5" font-family="Helvetica,sans-Serif" font-size="10.00" fill="#000000">JS_ToFloat64Free</text>
</a>
</g>
</g>
<!-- Node493706&#45;&gt;Node493708 -->
<g id="edge3" class="edge">
<title>Node493706&#45;&gt;Node493708</title>
<path fill="none" stroke="#191970" d="M193.1002,-200C202.5551,-200 212.8891,-200 223.0588,-200"/>
<polygon fill="#191970" stroke="#191970" points="223.1353,-203.5001 233.1353,-200 223.1353,-196.5001 223.1353,-203.5001"/>
</g>
<!-- Node493709 -->
<g id="node5" class="node">
<title>Node493709</title>
<g id="a_node5"><a xlink:href="quickjs_8c.html#a9a2e141f21d9ea38a3a23c9b4eb6e356" target="_top" xlink:title="__JS_ToFloat64Free">
<polygon fill="none" stroke="#ff0000" points="368,-190.5 368,-209.5 475,-209.5 475,-190.5 368,-190.5"/>
<text text-anchor="middle" x="421.5" y="-197.5" font-family="Helvetica,sans-Serif" font-size="10.00" fill="#000000">__JS_ToFloat64Free</text>
</a>
</g>
</g>
<!-- Node493708&#45;&gt;Node493709 -->
<g id="edge4" class="edge">
<title>Node493708&#45;&gt;Node493709</title>
<path fill="none" stroke="#191970" d="M330.7903,-200C339.4674,-200 348.6215,-200 357.6432,-200"/>
<polygon fill="#191970" stroke="#191970" points="357.7403,-203.5001 367.7403,-200 357.7402,-196.5001 357.7403,-203.5001"/>
</g>
<!-- Node494175 -->
<g id="node7" class="node">
<title>Node494175</title>
<g id="a_node7"><a xlink:href="quickjs_8c.html#a3f5def6f020bd1c429735f0b1d079b5e" target="_top" xlink:title="days_from_year">
<polygon fill="none" stroke="#000000" points="239,-152.5 239,-171.5 325,-171.5 325,-152.5 239,-152.5"/>
<text text-anchor="middle" x="282" y="-159.5" font-family="Helvetica,sans-Serif" font-size="10.00" fill="#000000">days_from_year</text>
</a>
</g>
</g>
<!-- Node494174&#45;&gt;Node494175 -->
<g id="edge6" class="edge">
<title>Node494174&#45;&gt;Node494175</title>
<path fill="none" stroke="#191970" d="M172.7528,-114.5465C188.3172,-122.5422 211.3807,-134.0502 232,-143 236.5014,-144.9538 241.2749,-146.9106 246.0164,-148.7859"/>
<polygon fill="#191970" stroke="#191970" points="245.0172,-152.152 255.6065,-152.4936 247.5415,-145.623 245.0172,-152.152"/>
</g>
<!-- Node494177 -->
<g id="node9" class="node">
<title>Node494177</title>
<g id="a_node9"><a xlink:href="quickjs_8c.html#a021e07d41b6d7239b3b44e7cbdff7a15" target="_top" xlink:title="days_in_year">
<polygon fill="none" stroke="#000000" points="245,-114.5 245,-133.5 319,-133.5 319,-114.5 245,-114.5"/>
<text text-anchor="middle" x="282" y="-121.5" font-family="Helvetica,sans-Serif" font-size="10.00" fill="#000000">days_in_year</text>
</a>
</g>
</g>
<!-- Node494174&#45;&gt;Node494177 -->
<g id="edge8" class="edge">
<title>Node494174&#45;&gt;Node494177</title>
<path fill="none" stroke="#191970" d="M196.2483,-111.2213C208.6264,-113.0659 222.2659,-115.0985 234.9554,-116.9894"/>
<polygon fill="#191970" stroke="#191970" points="234.4795,-120.4571 244.8862,-118.4693 235.5113,-113.5335 234.4795,-120.4571"/>
</g>
<!-- Node494178 -->
<g id="node10" class="node">
<title>Node494178</title>
<g id="a_node10"><a xlink:href="quickjs_8c.html#adecade3bf915770c66e0a27bc3458343" target="_top" xlink:title="getTimezoneOffset">
<polygon fill="none" stroke="#000000" points="232,-76.5 232,-95.5 332,-95.5 332,-76.5 232,-76.5"/>
<text text-anchor="middle" x="282" y="-83.5" font-family="Helvetica,sans-Serif" font-size="10.00" fill="#000000">getTimezoneOffset</text>
</a>
</g>
</g>
<!-- Node494174&#45;&gt;Node494178 -->
<g id="edge9" class="edge">
<title>Node494174&#45;&gt;Node494178</title>
<path fill="none" stroke="#191970" d="M196.2483,-98.7787C204.3914,-97.5652 213.0805,-96.2704 221.6858,-94.988"/>
<polygon fill="#191970" stroke="#191970" points="222.3367,-98.4297 231.7116,-93.494 221.3049,-91.5062 222.3367,-98.4297"/>
</g>
<!-- Node494179 -->
<g id="node11" class="node">
<title>Node494179</title>
<g id="a_node11"><a xlink:href="quickjs_8c.html#a5fe9e1898e97028fbd772ebc1e914ba8" target="_top" xlink:title="math_mod">
<polygon fill="none" stroke="#000000" points="251,-38.5 251,-57.5 313,-57.5 313,-38.5 251,-38.5"/>
<text text-anchor="middle" x="282" y="-45.5" font-family="Helvetica,sans-Serif" font-size="10.00" fill="#000000">math_mod</text>
</a>
</g>
</g>
<!-- Node494174&#45;&gt;Node494179 -->
<g id="edge10" class="edge">
<title>Node494174&#45;&gt;Node494179</title>
<path fill="none" stroke="#191970" d="M172.7528,-95.4535C188.3172,-87.4578 211.3807,-75.9498 232,-67 236.5014,-65.0462 241.2749,-63.0894 246.0164,-61.2141"/>
<polygon fill="#191970" stroke="#191970" points="247.5415,-64.377 255.6065,-57.5064 245.0172,-57.848 247.5415,-64.377"/>
</g>
<!-- Node494180 -->
<g id="node12" class="node">
<title>Node494180</title>
<g id="a_node12"><a xlink:href="quickjs_8c.html#a478ea24cf629522a55e209b2619334c7" target="_top" xlink:title="time_clip">
<polygon fill="none" stroke="#000000" points="254,-.5 254,-19.5 310,-19.5 310,-.5 254,-.5"/>
<text text-anchor="middle" x="282" y="-7.5" font-family="Helvetica,sans-Serif" font-size="10.00" fill="#000000">time_clip</text>
</a>
</g>
</g>
<!-- Node494174&#45;&gt;Node494180 -->
<g id="edge11" class="edge">
<title>Node494174&#45;&gt;Node494180</title>
<path fill="none" stroke="#191970" d="M162.0929,-95.299C174.9438,-79.454 202.4787,-47.8967 232,-29 235.8433,-26.5399 240.0535,-24.3241 244.3481,-22.3496"/>
<polygon fill="#191970" stroke="#191970" points="245.8971,-25.4957 253.7748,-18.411 243.1985,-19.0367 245.8971,-25.4957"/>
</g>
<!-- Node494176 -->
<g id="node8" class="node">
<title>Node494176</title>
<g id="a_node8"><a xlink:href="quickjs_8c.html#ad1e54b2564697a7a9d7838321308dd54" target="_top" xlink:title="floor_div">
<polygon fill="none" stroke="#000000" points="395,-152.5 395,-171.5 448,-171.5 448,-152.5 395,-152.5"/>
<text text-anchor="middle" x="421.5" y="-159.5" font-family="Helvetica,sans-Serif" font-size="10.00" fill="#000000">floor_div</text>
</a>
</g>
</g>
<!-- Node494175&#45;&gt;Node494176 -->
<g id="edge7" class="edge">
<title>Node494175&#45;&gt;Node494176</title>
<path fill="none" stroke="#191970" d="M325.374,-162C344.3621,-162 366.4086,-162 384.5948,-162"/>
<polygon fill="#191970" stroke="#191970" points="384.8041,-165.5001 394.8041,-162 384.8041,-158.5001 384.8041,-165.5001"/>
</g>
</g>
</svg>
