<?xml version="1.0" encoding="UTF-8" standalone="no"?>
<!DOCTYPE svg PUBLIC "-//W3C//DTD SVG 1.1//EN"
 "http://www.w3.org/Graphics/SVG/1.1/DTD/svg11.dtd">
<!-- Generated by graphviz version 2.40.1 (20161225.0304)
 -->
<!-- Title: js_free_module_def Pages: 1 -->
<svg width="592pt" height="256pt"
 viewBox="0.00 0.00 592.00 256.00" xmlns="http://www.w3.org/2000/svg" xmlns:xlink="http://www.w3.org/1999/xlink">
<g id="graph0" class="graph" transform="scale(1 1) rotate(0) translate(4 252)">
<title>js_free_module_def</title>
<!-- Node23411 -->
<g id="node1" class="node">
<title>Node23411</title>
<polygon fill="#bfbfbf" stroke="#000000" points="0,-114.5 0,-133.5 101,-133.5 101,-114.5 0,-114.5"/>
<text text-anchor="middle" x="50.5" y="-121.5" font-family="Helvetica,sans-Serif" font-size="10.00" fill="#000000">js_free_module_def</text>
</g>
<!-- Node23412 -->
<g id="node2" class="node">
<title>Node23412</title>
<g id="a_node2"><a xlink:href="quickjs_8c.html#a9e7b4bccf927d811b0f99b40b08c0472" target="_top" xlink:title="free_var_ref">
<polygon fill="none" stroke="#000000" points="142,-171.5 142,-190.5 210,-190.5 210,-171.5 142,-171.5"/>
<text text-anchor="middle" x="176" y="-178.5" font-family="Helvetica,sans-Serif" font-size="10.00" fill="#000000">free_var_ref</text>
</a>
</g>
</g>
<!-- Node23411&#45;&gt;Node23412 -->
<g id="edge1" class="edge">
<title>Node23411&#45;&gt;Node23412</title>
<path fill="none" stroke="#191970" d="M71.5059,-133.5405C91.7766,-142.7472 122.6839,-156.7847 145.6321,-167.2074"/>
<polygon fill="#191970" stroke="#191970" points="144.3733,-170.4797 154.9256,-171.4284 147.268,-164.1063 144.3733,-170.4797"/>
</g>
<!-- Node23413 -->
<g id="node3" class="node">
<title>Node23413</title>
<g id="a_node3"><a xlink:href="list_8h.html#ab60d5d18869ebeb5d6ab694289576fa7" target="_top" xlink:title="list_del">
<polygon fill="none" stroke="#000000" points="278.5,-228.5 278.5,-247.5 325.5,-247.5 325.5,-228.5 278.5,-228.5"/>
<text text-anchor="middle" x="302" y="-235.5" font-family="Helvetica,sans-Serif" font-size="10.00" fill="#000000">list_del</text>
</a>
</g>
</g>
<!-- Node23411&#45;&gt;Node23413 -->
<g id="edge15" class="edge">
<title>Node23411&#45;&gt;Node23413</title>
<path fill="none" stroke="#191970" d="M58.4878,-133.6099C72.5823,-149.9064 103.5549,-182.8587 137,-200 179.1993,-221.628 233.7317,-231.0875 268.2987,-235.1263"/>
<polygon fill="#191970" stroke="#191970" points="268.0312,-238.6177 278.3496,-236.2132 268.7839,-231.6583 268.0312,-238.6177"/>
</g>
<!-- Node23434 -->
<g id="node7" class="node">
<title>Node23434</title>
<g id="a_node7"><a xlink:href="quickjs_8c.html#a80e54dcf9ac687d4ccc2f90273565f30" target="_top" xlink:title="js_free">
<polygon fill="none" stroke="#000000" points="417,-86.5 417,-105.5 463,-105.5 463,-86.5 417,-86.5"/>
<text text-anchor="middle" x="440" y="-93.5" font-family="Helvetica,sans-Serif" font-size="10.00" fill="#000000">js_free</text>
</a>
</g>
</g>
<!-- Node23411&#45;&gt;Node23434 -->
<g id="edge7" class="edge">
<title>Node23411&#45;&gt;Node23434</title>
<path fill="none" stroke="#191970" d="M86.8565,-114.4335C102.2169,-110.8051 120.3674,-107.0555 137,-105 234.3993,-92.9634 350.6796,-93.6871 406.6505,-94.9677"/>
<polygon fill="#191970" stroke="#191970" points="406.6152,-98.4679 416.6996,-95.219 406.7903,-91.4701 406.6152,-98.4679"/>
</g>
<!-- Node23435 -->
<g id="node8" class="node">
<title>Node23435</title>
<g id="a_node8"><a xlink:href="quickjs_8c.html#ab7fc45a99935a1c0ba50b0216d9401a9" target="_top" xlink:title="JS_FreeAtom">
<polygon fill="none" stroke="#000000" points="137.5,-38.5 137.5,-57.5 214.5,-57.5 214.5,-38.5 137.5,-38.5"/>
<text text-anchor="middle" x="176" y="-45.5" font-family="Helvetica,sans-Serif" font-size="10.00" fill="#000000">JS_FreeAtom</text>
</a>
</g>
</g>
<!-- Node23411&#45;&gt;Node23435 -->
<g id="edge9" class="edge">
<title>Node23411&#45;&gt;Node23435</title>
<path fill="none" stroke="#191970" d="M66.3947,-114.3745C87.8948,-101.3546 126.4451,-78.0093 151.6207,-62.7636"/>
<polygon fill="#191970" stroke="#191970" points="153.4936,-65.7212 160.2344,-57.5473 149.8676,-59.7335 153.4936,-65.7212"/>
</g>
<!-- Node23436 -->
<g id="node11" class="node">
<title>Node23436</title>
<g id="a_node11"><a xlink:href="quickjs_8h.html#afaa20c47565bc704c6c85f3d77254e7d" target="_top" xlink:title="JS_FreeValue">
<polygon fill="none" stroke="#000000" points="137,-114.5 137,-133.5 215,-133.5 215,-114.5 137,-114.5"/>
<text text-anchor="middle" x="176" y="-121.5" font-family="Helvetica,sans-Serif" font-size="10.00" fill="#000000">JS_FreeValue</text>
</a>
</g>
</g>
<!-- Node23411&#45;&gt;Node23436 -->
<g id="edge12" class="edge">
<title>Node23411&#45;&gt;Node23436</title>
<path fill="none" stroke="#191970" d="M101.1839,-124C109.5993,-124 118.3156,-124 126.6961,-124"/>
<polygon fill="#191970" stroke="#191970" points="126.7093,-127.5001 136.7092,-124 126.7092,-120.5001 126.7093,-127.5001"/>
</g>
<!-- Node23412&#45;&gt;Node23413 -->
<g id="edge2" class="edge">
<title>Node23412&#45;&gt;Node23413</title>
<path fill="none" stroke="#191970" d="M197.0896,-190.5405C217.4411,-199.7472 248.4715,-213.7847 271.5112,-224.2074"/>
<polygon fill="#191970" stroke="#191970" points="270.2879,-227.4955 280.8416,-228.4284 273.1731,-221.1177 270.2879,-227.4955"/>
</g>
<!-- Node23414 -->
<g id="node4" class="node">
<title>Node23414</title>
<g id="a_node4"><a xlink:href="quickjs_8h.html#ab8db583fa5e7c2b1935854a42859daed" target="_top" xlink:title="JS_FreeValueRT">
<polygon fill="none" stroke="#000000" points="256,-152.5 256,-171.5 348,-171.5 348,-152.5 256,-152.5"/>
<text text-anchor="middle" x="302" y="-159.5" font-family="Helvetica,sans-Serif" font-size="10.00" fill="#000000">JS_FreeValueRT</text>
</a>
</g>
</g>
<!-- Node23412&#45;&gt;Node23414 -->
<g id="edge3" class="edge">
<title>Node23412&#45;&gt;Node23414</title>
<path fill="none" stroke="#191970" d="M210.0974,-175.8583C221.0297,-174.2098 233.4444,-172.3378 245.5346,-170.5146"/>
<polygon fill="#191970" stroke="#191970" points="246.208,-173.9527 255.5744,-169.0007 245.1642,-167.031 246.208,-173.9527"/>
</g>
<!-- Node23418 -->
<g id="node6" class="node">
<title>Node23418</title>
<g id="a_node6"><a xlink:href="quickjs_8c.html#a69e19dda8a93d613203e0baa06f0ed8d" target="_top" xlink:title="js_free_rt">
<polygon fill="none" stroke="#000000" points="527,-143.5 527,-162.5 584,-162.5 584,-143.5 527,-143.5"/>
<text text-anchor="middle" x="555.5" y="-150.5" font-family="Helvetica,sans-Serif" font-size="10.00" fill="#000000">js_free_rt</text>
</a>
</g>
</g>
<!-- Node23412&#45;&gt;Node23418 -->
<g id="edge6" class="edge">
<title>Node23412&#45;&gt;Node23418</title>
<path fill="none" stroke="#191970" d="M210.3623,-183.2906C268.6208,-186.4477 390.2695,-189.8929 491,-172 499.9355,-170.4128 509.3922,-168.0374 518.2295,-165.4988"/>
<polygon fill="#191970" stroke="#191970" points="519.3142,-168.8276 527.8832,-162.5968 517.2989,-162.1239 519.3142,-168.8276"/>
</g>
<!-- Node23415 -->
<g id="node5" class="node">
<title>Node23415</title>
<g id="a_node5"><a xlink:href="quickjs_8c.html#ab1ea3fad7d138be12144a38be4d36423" target="_top" xlink:title="__JS_FreeValueRT">
<polygon fill="none" stroke="#ff0000" points="389,-143.5 389,-162.5 491,-162.5 491,-143.5 389,-143.5"/>
<text text-anchor="middle" x="440" y="-150.5" font-family="Helvetica,sans-Serif" font-size="10.00" fill="#000000">__JS_FreeValueRT</text>
</a>
</g>
</g>
<!-- Node23414&#45;&gt;Node23415 -->
<g id="edge4" class="edge">
<title>Node23414&#45;&gt;Node23415</title>
<path fill="none" stroke="#191970" d="M348.3359,-158.9781C358.0845,-158.3423 368.512,-157.6623 378.7119,-156.997"/>
<polygon fill="#191970" stroke="#191970" points="379.0514,-160.4824 388.8023,-156.339 378.5957,-153.4973 379.0514,-160.4824"/>
</g>
<!-- Node23415&#45;&gt;Node23418 -->
<g id="edge5" class="edge">
<title>Node23415&#45;&gt;Node23418</title>
<path fill="none" stroke="#191970" d="M491.3326,-153C499.7947,-153 508.4429,-153 516.5383,-153"/>
<polygon fill="#191970" stroke="#191970" points="516.7999,-156.5001 526.7999,-153 516.7998,-149.5001 516.7999,-156.5001"/>
</g>
<!-- Node23434&#45;&gt;Node23418 -->
<g id="edge8" class="edge">
<title>Node23434&#45;&gt;Node23418</title>
<path fill="none" stroke="#191970" d="M459.3321,-105.5405C477.8211,-114.665 505.9251,-128.5344 526.9844,-138.9274"/>
<polygon fill="#191970" stroke="#191970" points="525.5884,-142.1414 536.1048,-143.4284 528.6863,-135.8642 525.5884,-142.1414"/>
</g>
<!-- Node23428 -->
<g id="node9" class="node">
<title>Node23428</title>
<g id="a_node9"><a xlink:href="quickjs_8c.html#a7f6796ee7a195631366f57c713a33f65" target="_top" xlink:title="__JS_AtomIsConst">
<polygon fill="none" stroke="#000000" points="251,-38.5 251,-57.5 353,-57.5 353,-38.5 251,-38.5"/>
<text text-anchor="middle" x="302" y="-45.5" font-family="Helvetica,sans-Serif" font-size="10.00" fill="#000000">__JS_AtomIsConst</text>
</a>
</g>
</g>
<!-- Node23435&#45;&gt;Node23428 -->
<g id="edge10" class="edge">
<title>Node23435&#45;&gt;Node23428</title>
<path fill="none" stroke="#191970" d="M214.8323,-48C223.0438,-48 231.9009,-48 240.7134,-48"/>
<polygon fill="#191970" stroke="#191970" points="240.9965,-51.5001 250.9965,-48 240.9964,-44.5001 240.9965,-51.5001"/>
</g>
<!-- Node23429 -->
<g id="node10" class="node">
<title>Node23429</title>
<g id="a_node10"><a xlink:href="quickjs_8c.html#a0bbd9e3ecd55e3ea6c9d44bfda382095" target="_top" xlink:title="__JS_FreeAtom">
<polygon fill="none" stroke="#ff0000" points="258.5,-.5 258.5,-19.5 345.5,-19.5 345.5,-.5 258.5,-.5"/>
<text text-anchor="middle" x="302" y="-7.5" font-family="Helvetica,sans-Serif" font-size="10.00" fill="#000000">__JS_FreeAtom</text>
</a>
</g>
</g>
<!-- Node23435&#45;&gt;Node23429 -->
<g id="edge11" class="edge">
<title>Node23435&#45;&gt;Node23429</title>
<path fill="none" stroke="#191970" d="M207.7951,-38.411C223.7621,-33.5956 243.3067,-27.7012 260.4465,-22.532"/>
<polygon fill="#191970" stroke="#191970" points="261.6516,-25.8244 270.2151,-19.5859 259.6304,-19.1225 261.6516,-25.8244"/>
</g>
<!-- Node23437 -->
<g id="node12" class="node">
<title>Node23437</title>
<g id="a_node12"><a xlink:href="quickjs_8c.html#aa059f309c30fd5166d16c82a97973146" target="_top" xlink:title="__JS_FreeValue">
<polygon fill="none" stroke="#000000" points="257.5,-114.5 257.5,-133.5 346.5,-133.5 346.5,-114.5 257.5,-114.5"/>
<text text-anchor="middle" x="302" y="-121.5" font-family="Helvetica,sans-Serif" font-size="10.00" fill="#000000">__JS_FreeValue</text>
</a>
</g>
</g>
<!-- Node23436&#45;&gt;Node23437 -->
<g id="edge13" class="edge">
<title>Node23436&#45;&gt;Node23437</title>
<path fill="none" stroke="#191970" d="M215.1765,-124C225.2497,-124 236.2758,-124 246.9886,-124"/>
<polygon fill="#191970" stroke="#191970" points="247.1225,-127.5001 257.1225,-124 247.1224,-120.5001 247.1225,-127.5001"/>
</g>
<!-- Node23437&#45;&gt;Node23415 -->
<g id="edge14" class="edge">
<title>Node23437&#45;&gt;Node23415</title>
<path fill="none" stroke="#191970" d="M346.8046,-133.4155C358.8521,-135.9472 372.0263,-138.7157 384.5766,-141.3531"/>
<polygon fill="#191970" stroke="#191970" points="383.9685,-144.8016 394.4745,-143.4331 385.4081,-137.9513 383.9685,-144.8016"/>
</g>
</g>
</svg>
