<?xml version="1.0" encoding="UTF-8" standalone="no"?>
<!DOCTYPE svg PUBLIC "-//W3C//DTD SVG 1.1//EN"
 "http://www.w3.org/Graphics/SVG/1.1/DTD/svg11.dtd">
<!-- Generated by graphviz version 2.40.1 (20161225.0304)
 -->
<!-- Title: has_with_scope Pages: 1 -->
<!--zoomable 274 -->
<svg id="main" version="1.1" xmlns="http://www.w3.org/2000/svg" xmlns:xlink="http://www.w3.org/1999/xlink" xml:space="preserve" onload="init(evt)">
<style type="text/css"><![CDATA[
.edge:hover path { stroke: red; }
.edge:hover polygon { stroke: red; fill: red; }
]]></style>
<script type="text/javascript"><![CDATA[
var edges = document.getElementsByTagName('g');
if (edges && edges.length) {
  for (var i=0;i<edges.length;i++) {
    if (edges[i].id.substr(0,4)=='edge') {
      edges[i].setAttribute('class','edge');
    }
  }
}
]]></script>
        <defs>
                <circle id="rim" cx="0" cy="0" r="7"/>
                <circle id="rim2" cx="0" cy="0" r="3.5"/>
                <g id="zoomPlus">
                        <use xlink:href="#rim" fill="#404040">
                                <set attributeName="fill" to="#808080" begin="zoomplus.mouseover" end="zoomplus.mouseout"/>
                        </use>
                        <path d="M-4,0h8M0,-4v8" fill="none" stroke="white" stroke-width="1.5" pointer-events="none"/>
                </g>
                <g id="zoomMin">
                        <use xlink:href="#rim" fill="#404040">
                                <set attributeName="fill" to="#808080" begin="zoomminus.mouseover" end="zoomminus.mouseout"/>
                        </use>
                        <path d="M-4,0h8" fill="none" stroke="white" stroke-width="1.5" pointer-events="none"/>
                </g>
                <g id="dirArrow">
                        <path fill="none" stroke="white" stroke-width="1.5" d="M0,-3.0v7 M-2.5,-0.5L0,-3.0L2.5,-0.5"/>
                </g>
               <g id="resetDef">
                       <use xlink:href="#rim2" fill="#404040">
                               <set attributeName="fill" to="#808080" begin="reset.mouseover" end="reset.mouseout"/>
                       </use>
               </g>
        </defs>

<script type="text/javascript">
var viewWidth = 800;
var viewHeight = 274;
var sectionId = 'dynsection-1089';
</script>
<script xlink:href="svgpan.js"/>
<svg id="graph" class="graph">
<g id="viewport">
<title>has_with_scope</title>
<!-- Node344275 -->
<g id="node1" class="node">
<title>Node344275</title>
<polygon fill="#bfbfbf" stroke="#000000" points="0,-162.5 0,-181.5 87,-181.5 87,-162.5 0,-162.5"/>
<text text-anchor="middle" x="43.5" y="-169.5" font-family="Helvetica,sans-Serif" font-size="10.00" fill="#000000">has_with_scope</text>
</g>
<!-- Node344276 -->
<g id="node2" class="node">
<title>Node344276</title>
<g id="a_node2"><a xlink:href="quickjs_8c.html#acdcc62310b4f6f73fa7bc7267b18b1d4" target="_top" xlink:title="js_parse_postfix_expr">
<polygon fill="none" stroke="#000000" points="123,-162.5 123,-181.5 235,-181.5 235,-162.5 123,-162.5"/>
<text text-anchor="middle" x="179" y="-169.5" font-family="Helvetica,sans-Serif" font-size="10.00" fill="#000000">js_parse_postfix_expr</text>
</a>
</g>
</g>
<!-- Node344275&#45;&gt;Node344276 -->
<g id="edge1" class="edge">
<title>Node344275&#45;&gt;Node344276</title>
<path fill="none" stroke="#191970" d="M97.1357,-172C105.4996,-172 114.1639,-172 122.5874,-172"/>
<polygon fill="#191970" stroke="#191970" points="97.1189,-168.5001 87.1189,-172 97.1189,-175.5001 97.1189,-168.5001"/>
</g>
<!-- Node344276&#45;&gt;Node344276 -->
<g id="edge20" class="edge">
<title>Node344276&#45;&gt;Node344276</title>
<path fill="none" stroke="#191970" d="M154.0745,-191.0292C155.4341,-196.128 163.7426,-200 179,-200 202.8164,-200 209.7008,-190.5653 199.6533,-181.7571"/>
<polygon fill="#191970" stroke="#191970" points="157.3407,-192.304 158.3467,-181.7571 150.9831,-189.3747 157.3407,-192.304"/>
</g>
<!-- Node344277 -->
<g id="node3" class="node">
<title>Node344277</title>
<g id="a_node3"><a xlink:href="quickjs_8c.html#a00eb789430243c24dab4a63ad6a79653" target="_top" xlink:title="js_parse_class">
<polygon fill="none" stroke="#000000" points="572,-246.5 572,-265.5 654,-265.5 654,-246.5 572,-246.5"/>
<text text-anchor="middle" x="613" y="-253.5" font-family="Helvetica,sans-Serif" font-size="10.00" fill="#000000">js_parse_class</text>
</a>
</g>
</g>
<!-- Node344276&#45;&gt;Node344277 -->
<g id="edge2" class="edge">
<title>Node344276&#45;&gt;Node344277</title>
<path fill="none" stroke="#191970" d="M220.2069,-185.884C235.7427,-192.9062 253.8169,-200.7798 271,-206 376.1381,-237.9405 506.5435,-245.1521 571.7768,-250.0067"/>
<polygon fill="#191970" stroke="#191970" points="221.4446,-182.6021 210.8924,-181.6531 218.5496,-188.9755 221.4446,-182.6021"/>
</g>
<!-- Node344292 -->
<g id="node6" class="node">
<title>Node344292</title>
<g id="a_node6"><a xlink:href="quickjs_8c.html#aff9f2e2a1548acfc8307a4070bb444ec" target="_top" xlink:title="js_parse_destructing\l_element">
<polygon fill="none" stroke="#000000" points="271,-157 271,-187 378,-187 378,-157 271,-157"/>
<text text-anchor="start" x="279" y="-175" font-family="Helvetica,sans-Serif" font-size="10.00" fill="#000000">js_parse_destructing</text>
<text text-anchor="middle" x="324.5" y="-164" font-family="Helvetica,sans-Serif" font-size="10.00" fill="#000000">_element</text>
</a>
</g>
</g>
<!-- Node344276&#45;&gt;Node344292 -->
<g id="edge7" class="edge">
<title>Node344276&#45;&gt;Node344292</title>
<path fill="none" stroke="#191970" d="M245.4976,-165.2722C253.9673,-165.2119 262.5509,-165.2744 270.7846,-165.4597"/>
<polygon fill="#191970" stroke="#191970" points="245.2073,-161.7756 235.2541,-165.4067 245.2992,-168.775 245.2073,-161.7756"/>
</g>
<!-- Node344286 -->
<g id="node8" class="node">
<title>Node344286</title>
<g id="a_node8"><a xlink:href="quickjs_8c.html#ac188b916dd086803591a67de7e7a85f6" target="_top" xlink:title="js_parse_for_in_of">
<polygon fill="none" stroke="#000000" points="427,-94.5 427,-113.5 523,-113.5 523,-94.5 427,-94.5"/>
<text text-anchor="middle" x="475" y="-101.5" font-family="Helvetica,sans-Serif" font-size="10.00" fill="#000000">js_parse_for_in_of</text>
</a>
</g>
</g>
<!-- Node344276&#45;&gt;Node344286 -->
<g id="edge19" class="edge">
<title>Node344276&#45;&gt;Node344286</title>
<path fill="none" stroke="#191970" d="M222.2717,-159.6902C237.6121,-155.4726 255.0289,-150.8498 271,-147 323.9565,-134.2348 385.1533,-121.6172 426.599,-113.3856"/>
<polygon fill="#191970" stroke="#191970" points="221.2286,-156.3472 212.5267,-162.391 223.0983,-163.0929 221.2286,-156.3472"/>
</g>
<!-- Node344294 -->
<g id="node10" class="node">
<title>Node344294</title>
<g id="a_node10"><a xlink:href="quickjs_8c.html#af99673e7430294cf15dc24dc5dac227f" target="_top" xlink:title="js_parse_unary">
<polygon fill="none" stroke="#000000" points="283,-19.5 283,-38.5 366,-38.5 366,-19.5 283,-19.5"/>
<text text-anchor="middle" x="324.5" y="-26.5" font-family="Helvetica,sans-Serif" font-size="10.00" fill="#000000">js_parse_unary</text>
</a>
</g>
</g>
<!-- Node344276&#45;&gt;Node344294 -->
<g id="edge21" class="edge">
<title>Node344276&#45;&gt;Node344294</title>
<path fill="none" stroke="#191970" d="M196.4523,-154.8476C227.3342,-124.4962 290.6284,-62.2896 314.8124,-38.5211"/>
<polygon fill="#191970" stroke="#191970" points="193.6796,-152.6652 189.0008,-162.171 198.5863,-157.6577 193.6796,-152.6652"/>
</g>
<!-- Node344277&#45;&gt;Node344276 -->
<g id="edge4" class="edge">
<title>Node344277&#45;&gt;Node344276</title>
<path fill="none" stroke="#191970" d="M561.7655,-261.548C493.8688,-262.3889 371.0044,-254.3809 271,-224 238.2733,-214.0578 202.3143,-194.4902 186.8162,-181.6786"/>
<polygon fill="#191970" stroke="#191970" points="561.8478,-265.0472 571.7768,-261.3504 561.7096,-258.0485 561.8478,-265.0472"/>
</g>
<!-- Node344278 -->
<g id="node4" class="node">
<title>Node344278</title>
<g id="a_node4"><a xlink:href="quickjs_8c.html#a498e1d5c7de1b59c1630e9847cde1e41" target="_top" xlink:title="js_parse_export">
<polygon fill="none" stroke="#ff0000" points="698,-208.5 698,-227.5 784,-227.5 784,-208.5 698,-208.5"/>
<text text-anchor="middle" x="741" y="-215.5" font-family="Helvetica,sans-Serif" font-size="10.00" fill="#000000">js_parse_export</text>
</a>
</g>
</g>
<!-- Node344277&#45;&gt;Node344278 -->
<g id="edge3" class="edge">
<title>Node344277&#45;&gt;Node344278</title>
<path fill="none" stroke="#191970" d="M655.2242,-243.4647C672.6371,-238.2952 692.4917,-232.4009 708.7105,-227.5859"/>
<polygon fill="#191970" stroke="#191970" points="653.8902,-240.2097 645.2998,-246.411 655.8824,-246.9202 653.8902,-240.2097"/>
</g>
<!-- Node344284 -->
<g id="node5" class="node">
<title>Node344284</title>
<g id="a_node5"><a xlink:href="quickjs_8c.html#a9d844c16dcc71701436848074337d32c" target="_top" xlink:title="js_parse_statement\l_or_decl">
<polygon fill="none" stroke="#ff0000" points="690,-134 690,-164 792,-164 792,-134 690,-134"/>
<text text-anchor="start" x="698" y="-152" font-family="Helvetica,sans-Serif" font-size="10.00" fill="#000000">js_parse_statement</text>
<text text-anchor="middle" x="741" y="-141" font-family="Helvetica,sans-Serif" font-size="10.00" fill="#000000">_or_decl</text>
</a>
</g>
</g>
<!-- Node344277&#45;&gt;Node344284 -->
<g id="edge5" class="edge">
<title>Node344277&#45;&gt;Node344284</title>
<path fill="none" stroke="#191970" d="M632.7254,-239.5108C657.2651,-218.9971 698.8344,-184.2478 722.6947,-164.3021"/>
<polygon fill="#191970" stroke="#191970" points="630.2401,-237.0265 624.8125,-246.1255 634.7297,-242.3972 630.2401,-237.0265"/>
</g>
<!-- Node344284&#45;&gt;Node344284 -->
<g id="edge6" class="edge">
<title>Node344284&#45;&gt;Node344284</title>
<path fill="none" stroke="#191970" d="M718.2559,-174.4579C721.0788,-179.179 728.6602,-182.5 741,-182.5 761.25,-182.5 768.6855,-173.5566 763.3066,-164.159"/>
<polygon fill="#191970" stroke="#191970" points="721.7658,-174.2985 718.6934,-164.159 714.7721,-174.0014 721.7658,-174.2985"/>
</g>
<!-- Node344292&#45;&gt;Node344276 -->
<g id="edge9" class="edge">
<title>Node344292&#45;&gt;Node344276</title>
<path fill="none" stroke="#191970" d="M260.5989,-178.7054C252.1574,-178.7909 243.5545,-178.7535 235.2541,-178.5933"/>
<polygon fill="#191970" stroke="#191970" points="260.8427,-182.202 270.7846,-178.5403 260.7291,-175.2029 260.8427,-182.202"/>
</g>
<!-- Node344292&#45;&gt;Node344284 -->
<g id="edge15" class="edge">
<title>Node344292&#45;&gt;Node344284</title>
<path fill="none" stroke="#191970" d="M388.1285,-168.4863C470.8793,-163.9166 613.8128,-156.0235 689.8923,-151.8223"/>
<polygon fill="#191970" stroke="#191970" points="387.8892,-164.9941 378.0974,-169.0402 388.2752,-171.9834 387.8892,-164.9941"/>
</g>
<!-- Node344292&#45;&gt;Node344292 -->
<g id="edge8" class="edge">
<title>Node344292&#45;&gt;Node344292</title>
<path fill="none" stroke="#191970" d="M298.9129,-197.4579C302.0887,-202.179 310.6177,-205.5 324.5,-205.5 347.2813,-205.5 355.6462,-196.5566 349.595,-187.159"/>
<polygon fill="#191970" stroke="#191970" points="302.4237,-197.3147 299.405,-187.159 295.4317,-196.9805 302.4237,-197.3147"/>
</g>
<!-- Node344293 -->
<g id="node7" class="node">
<title>Node344293</title>
<g id="a_node7"><a xlink:href="quickjs_8c.html#a42924858317b848c3aea0a0a978fab3a" target="_top" xlink:title="js_parse_var">
<polygon fill="none" stroke="#000000" points="577,-170.5 577,-189.5 649,-189.5 649,-170.5 577,-170.5"/>
<text text-anchor="middle" x="613" y="-177.5" font-family="Helvetica,sans-Serif" font-size="10.00" fill="#000000">js_parse_var</text>
</a>
</g>
</g>
<!-- Node344292&#45;&gt;Node344293 -->
<g id="edge10" class="edge">
<title>Node344292&#45;&gt;Node344293</title>
<path fill="none" stroke="#191970" d="M388.2198,-173.7669C446.0661,-175.371 529.3366,-177.68 576.5995,-178.9906"/>
<polygon fill="#191970" stroke="#191970" points="388.1817,-170.2646 378.0885,-173.486 387.9876,-177.2619 388.1817,-170.2646"/>
</g>
<!-- Node344292&#45;&gt;Node344286 -->
<g id="edge13" class="edge">
<title>Node344292&#45;&gt;Node344286</title>
<path fill="none" stroke="#191970" d="M362.5734,-152.4246C378.3491,-144.5386 396.9204,-135.5431 414,-128 425.4514,-122.9426 438.3243,-117.8002 449.2828,-113.5797"/>
<polygon fill="#191970" stroke="#191970" points="360.9996,-149.2983 353.6403,-156.9201 364.1464,-155.5511 360.9996,-149.2983"/>
</g>
<!-- Node344280 -->
<g id="node9" class="node">
<title>Node344280</title>
<g id="a_node9"><a xlink:href="quickjs_8c.html#acc9eb677cab8dfcf45f59381f8a19601" target="_top" xlink:title="js_parse_function_decl2">
<polygon fill="none" stroke="#ff0000" points="414,-208.5 414,-227.5 536,-227.5 536,-208.5 414,-208.5"/>
<text text-anchor="middle" x="475" y="-215.5" font-family="Helvetica,sans-Serif" font-size="10.00" fill="#000000">js_parse_function_decl2</text>
</a>
</g>
</g>
<!-- Node344292&#45;&gt;Node344280 -->
<g id="edge16" class="edge">
<title>Node344292&#45;&gt;Node344280</title>
<path fill="none" stroke="#191970" d="M383.3831,-189.9975C403.922,-196.2752 426.1705,-203.0754 443.5991,-208.4024"/>
<polygon fill="#191970" stroke="#191970" points="384.3657,-186.638 373.7793,-187.0621 382.3195,-193.3323 384.3657,-186.638"/>
</g>
<!-- Node344293&#45;&gt;Node344278 -->
<g id="edge12" class="edge">
<title>Node344293&#45;&gt;Node344278</title>
<path fill="none" stroke="#191970" d="M655.2242,-192.5353C672.6371,-197.7048 692.4917,-203.5991 708.7105,-208.4141"/>
<polygon fill="#191970" stroke="#191970" points="655.8824,-189.0798 645.2998,-189.589 653.8902,-195.7903 655.8824,-189.0798"/>
</g>
<!-- Node344293&#45;&gt;Node344284 -->
<g id="edge11" class="edge">
<title>Node344293&#45;&gt;Node344284</title>
<path fill="none" stroke="#191970" d="M659.3629,-168.7715C669.2364,-166.3802 679.7174,-163.8419 689.7614,-161.4094"/>
<polygon fill="#191970" stroke="#191970" points="658.2324,-165.444 649.3373,-171.1996 659.8802,-172.2473 658.2324,-165.444"/>
</g>
<!-- Node344286&#45;&gt;Node344284 -->
<g id="edge14" class="edge">
<title>Node344286&#45;&gt;Node344284</title>
<path fill="none" stroke="#191970" d="M533.1622,-110.2532C568.2951,-114.4135 613.8883,-120.4908 654,-128 665.6072,-130.173 677.9903,-132.9066 689.6657,-135.6764"/>
<polygon fill="#191970" stroke="#191970" points="533.4172,-106.7593 523.0791,-109.0777 532.6065,-113.7122 533.4172,-106.7593"/>
</g>
<!-- Node344280&#45;&gt;Node344277 -->
<g id="edge17" class="edge">
<title>Node344280&#45;&gt;Node344277</title>
<path fill="none" stroke="#191970" d="M519.473,-230.2462C538.4946,-235.484 560.3751,-241.5091 578.1879,-246.4141"/>
<polygon fill="#191970" stroke="#191970" points="520.3936,-226.8695 509.8232,-227.589 518.5352,-233.6183 520.3936,-226.8695"/>
</g>
<!-- Node344280&#45;&gt;Node344278 -->
<g id="edge18" class="edge">
<title>Node344280&#45;&gt;Node344278</title>
<path fill="none" stroke="#191970" d="M546.1031,-218C594.3838,-218 656.6705,-218 697.6728,-218"/>
<polygon fill="#191970" stroke="#191970" points="546.0258,-214.5001 536.0258,-218 546.0257,-221.5001 546.0258,-214.5001"/>
</g>
<!-- Node344294&#45;&gt;Node344294 -->
<g id="edge26" class="edge">
<title>Node344294&#45;&gt;Node344294</title>
<path fill="none" stroke="#191970" d="M297.6208,-47.6539C298.7444,-52.9368 307.7041,-57 324.5,-57 350.0938,-57 357.4919,-47.5653 346.6946,-38.7571"/>
<polygon fill="#191970" stroke="#191970" points="300.7433,-49.2361 302.3054,-38.7571 294.5494,-45.9747 300.7433,-49.2361"/>
</g>
<!-- Node344295 -->
<g id="node11" class="node">
<title>Node344295</title>
<g id="a_node11"><a xlink:href="quickjs_8c.html#a2ecfb6abb190101748202a8aa5821fba" target="_top" xlink:title="js_parse_delete">
<polygon fill="none" stroke="#000000" points="432.5,-.5 432.5,-19.5 517.5,-19.5 517.5,-.5 432.5,-.5"/>
<text text-anchor="middle" x="475" y="-7.5" font-family="Helvetica,sans-Serif" font-size="10.00" fill="#000000">js_parse_delete</text>
</a>
</g>
</g>
<!-- Node344294&#45;&gt;Node344295 -->
<g id="edge22" class="edge">
<title>Node344294&#45;&gt;Node344295</title>
<path fill="none" stroke="#191970" d="M365.7699,-17.693C386.4855,-14.2245 411.5501,-11.0429 432.4417,-9.2242"/>
<polygon fill="#191970" stroke="#191970" points="364.9245,-14.288 355.6837,-19.4705 366.1394,-21.1818 364.9245,-14.288"/>
</g>
<!-- Node344296 -->
<g id="node12" class="node">
<title>Node344296</title>
<g id="a_node12"><a xlink:href="quickjs_8c.html#ab1c84e1eb8a5f06b9257c3c9b5a6f024" target="_top" xlink:title="js_parse_expr_binary">
<polygon fill="none" stroke="#ff0000" points="420.5,-38.5 420.5,-57.5 529.5,-57.5 529.5,-38.5 420.5,-38.5"/>
<text text-anchor="middle" x="475" y="-45.5" font-family="Helvetica,sans-Serif" font-size="10.00" fill="#000000">js_parse_expr_binary</text>
</a>
</g>
</g>
<!-- Node344294&#45;&gt;Node344296 -->
<g id="edge24" class="edge">
<title>Node344294&#45;&gt;Node344296</title>
<path fill="none" stroke="#191970" d="M376.152,-35.5209C390.4139,-37.3214 405.934,-39.2807 420.3593,-41.1018"/>
<polygon fill="#191970" stroke="#191970" points="376.3828,-32.0223 366.0232,-34.2421 375.506,-38.9672 376.3828,-32.0223"/>
</g>
<!-- Node344295&#45;&gt;Node344294 -->
<g id="edge23" class="edge">
<title>Node344295&#45;&gt;Node344294</title>
<path fill="none" stroke="#191970" d="M433.7019,-21.3117C412.6484,-24.8359 387.1086,-28.0633 366.0232,-29.8651"/>
<polygon fill="#191970" stroke="#191970" points="434.396,-24.7434 443.6378,-19.5627 433.1824,-17.8494 434.396,-24.7434"/>
</g>
<!-- Node344296&#45;&gt;Node344296 -->
<g id="edge25" class="edge">
<title>Node344296&#45;&gt;Node344296</title>
<path fill="none" stroke="#191970" d="M449.3305,-67.0292C450.7307,-72.128 459.2872,-76 475,-76 499.5273,-76 506.6173,-66.5653 496.2698,-57.7571"/>
<polygon fill="#191970" stroke="#191970" points="452.6052,-68.292 453.7302,-57.7571 446.2811,-65.2911 452.6052,-68.292"/>
</g>
</g>
</svg>
        <g id="navigator" transform="translate(0 0)" fill="#404254">
                <rect fill="#f2f5e9" fill-opacity="0.5" stroke="#606060" stroke-width=".5" x="0" y="0" width="60" height="60"/>
                <use id="zoomplus" xlink:href="#zoomPlus" x="17" y="9" onmousedown="handleZoom(evt,'in')"/>
                <use id="zoomminus" xlink:href="#zoomMin" x="42" y="9" onmousedown="handleZoom(evt,'out')"/>
                <use id="reset" xlink:href="#resetDef" x="30" y="36" onmousedown="handleReset()"/>
                <g id="arrowUp" xlink:href="#dirArrow" transform="translate(30 24)" onmousedown="handlePan(0,-1)">
                  <use xlink:href="#rim" fill="#404040">
                        <set attributeName="fill" to="#808080" begin="arrowUp.mouseover" end="arrowUp.mouseout"/>
                  </use>
                  <path fill="none" stroke="white" stroke-width="1.5" d="M0,-3.0v7 M-2.5,-0.5L0,-3.0L2.5,-0.5"/>
                </g>
                <g id="arrowRight" xlink:href="#dirArrow" transform="rotate(90) translate(36 -43)" onmousedown="handlePan(1,0)">
                  <use xlink:href="#rim" fill="#404040">
                        <set attributeName="fill" to="#808080" begin="arrowRight.mouseover" end="arrowRight.mouseout"/>
                  </use>
                  <path fill="none" stroke="white" stroke-width="1.5" d="M0,-3.0v7 M-2.5,-0.5L0,-3.0L2.5,-0.5"/>
                </g>
                <g id="arrowDown" xlink:href="#dirArrow" transform="rotate(180) translate(-30 -48)" onmousedown="handlePan(0,1)">
                  <use xlink:href="#rim" fill="#404040">
                        <set attributeName="fill" to="#808080" begin="arrowDown.mouseover" end="arrowDown.mouseout"/>
                  </use>
                  <path fill="none" stroke="white" stroke-width="1.5" d="M0,-3.0v7 M-2.5,-0.5L0,-3.0L2.5,-0.5"/>
                </g>
                <g id="arrowLeft" xlink:href="#dirArrow" transform="rotate(270) translate(-36 17)" onmousedown="handlePan(-1,0)">
                  <use xlink:href="#rim" fill="#404040">
                        <set attributeName="fill" to="#808080" begin="arrowLeft.mouseover" end="arrowLeft.mouseout"/>
                  </use>
                  <path fill="none" stroke="white" stroke-width="1.5" d="M0,-3.0v7 M-2.5,-0.5L0,-3.0L2.5,-0.5"/>
                </g>
        </g>
        <svg viewBox="0 0 15 15" width="100%" height="30px" preserveAspectRatio="xMaxYMin meet">
         <g id="arrow_out" transform="scale(0.3 0.3)">
          <a xlink:href="quickjs_8c_aafa56260b34d1559fb7eb4fa9fb958b0_icgraph_org.svg" target="_base">
           <rect id="button" ry="5" rx="5" y="6" x="6" height="38" width="38"
                fill="#f2f5e9" fill-opacity="0.5" stroke="#606060" stroke-width="1.0"/>
           <path id="arrow"
             d="M 11.500037,31.436501 C 11.940474,20.09759 22.043105,11.32322 32.158766,21.979434 L 37.068811,17.246167 C 37.068811,17.246167 37.088388,32 37.088388,32 L 22.160133,31.978069 C 22.160133,31.978069 26.997745,27.140456 26.997745,27.140456 C 18.528582,18.264221 13.291696,25.230495 11.500037,31.436501 z"
             style="fill:#404040;"/>
          </a>
         </g>
        </svg>
</svg>
