<?xml version="1.0" encoding="UTF-8" standalone="no"?>
<!DOCTYPE svg PUBLIC "-//W3C//DTD SVG 1.1//EN"
 "http://www.w3.org/Graphics/SVG/1.1/DTD/svg11.dtd">
<!-- Generated by graphviz version 2.40.1 (20161225.0304)
 -->
<!-- Title: JS_RunGC Pages: 1 -->
<!--zoomable 414 -->
<svg id="main" version="1.1" xmlns="http://www.w3.org/2000/svg" xmlns:xlink="http://www.w3.org/1999/xlink" xml:space="preserve" onload="init(evt)">
<style type="text/css"><![CDATA[
.edge:hover path { stroke: red; }
.edge:hover polygon { stroke: red; fill: red; }
]]></style>
<script type="text/javascript"><![CDATA[
var edges = document.getElementsByTagName('g');
if (edges && edges.length) {
  for (var i=0;i<edges.length;i++) {
    if (edges[i].id.substr(0,4)=='edge') {
      edges[i].setAttribute('class','edge');
    }
  }
}
]]></script>
        <defs>
                <circle id="rim" cx="0" cy="0" r="7"/>
                <circle id="rim2" cx="0" cy="0" r="3.5"/>
                <g id="zoomPlus">
                        <use xlink:href="#rim" fill="#404040">
                                <set attributeName="fill" to="#808080" begin="zoomplus.mouseover" end="zoomplus.mouseout"/>
                        </use>
                        <path d="M-4,0h8M0,-4v8" fill="none" stroke="white" stroke-width="1.5" pointer-events="none"/>
                </g>
                <g id="zoomMin">
                        <use xlink:href="#rim" fill="#404040">
                                <set attributeName="fill" to="#808080" begin="zoomminus.mouseover" end="zoomminus.mouseout"/>
                        </use>
                        <path d="M-4,0h8" fill="none" stroke="white" stroke-width="1.5" pointer-events="none"/>
                </g>
                <g id="dirArrow">
                        <path fill="none" stroke="white" stroke-width="1.5" d="M0,-3.0v7 M-2.5,-0.5L0,-3.0L2.5,-0.5"/>
                </g>
               <g id="resetDef">
                       <use xlink:href="#rim2" fill="#404040">
                               <set attributeName="fill" to="#808080" begin="reset.mouseover" end="reset.mouseout"/>
                       </use>
               </g>
        </defs>

<script type="text/javascript">
var viewWidth = 619;
var viewHeight = 414;
var sectionId = 'dynsection-481';
</script>
<script xlink:href="svgpan.js"/>
<svg id="graph" class="graph">
<g id="viewport">
<title>JS_RunGC</title>
<!-- Node160930 -->
<g id="node1" class="node">
<title>Node160930</title>
<polygon fill="#bfbfbf" stroke="#000000" points="0,-215.1356 0,-234.1356 67,-234.1356 67,-215.1356 0,-215.1356"/>
<text text-anchor="middle" x="33.5" y="-222.1356" font-family="Helvetica,sans-Serif" font-size="10.00" fill="#000000">JS_RunGC</text>
</g>
<!-- Node160931 -->
<g id="node2" class="node">
<title>Node160931</title>
<g id="a_node2"><a xlink:href="quickjs_8c.html#ae09ca4f159971d3c1f1dafc8682ba04b" target="_top" xlink:title="gc_decref">
<polygon fill="none" stroke="#000000" points="115,-310.1356 115,-329.1356 174,-329.1356 174,-310.1356 115,-310.1356"/>
<text text-anchor="middle" x="144.5" y="-317.1356" font-family="Helvetica,sans-Serif" font-size="10.00" fill="#000000">gc_decref</text>
</a>
</g>
</g>
<!-- Node160930&#45;&gt;Node160931 -->
<g id="edge1" class="edge">
<title>Node160930&#45;&gt;Node160931</title>
<path fill="none" stroke="#191970" d="M44.9609,-234.4445C64.0033,-250.7421 102.3502,-283.5615 125.4925,-303.3679"/>
<polygon fill="#191970" stroke="#191970" points="123.3936,-306.1784 133.2668,-310.0216 127.9452,-300.8602 123.3936,-306.1784"/>
</g>
<!-- Node160941 -->
<g id="node11" class="node">
<title>Node160941</title>
<g id="a_node11"><a xlink:href="quickjs_8c.html#af7c53b26778d6b7e155fab5349a4585e" target="_top" xlink:title="gc_free_cycles">
<polygon fill="none" stroke="#000000" points="103,-215.1356 103,-234.1356 186,-234.1356 186,-215.1356 103,-215.1356"/>
<text text-anchor="middle" x="144.5" y="-222.1356" font-family="Helvetica,sans-Serif" font-size="10.00" fill="#000000">gc_free_cycles</text>
</a>
</g>
</g>
<!-- Node160930&#45;&gt;Node160941 -->
<g id="edge13" class="edge">
<title>Node160930&#45;&gt;Node160941</title>
<path fill="none" stroke="#191970" d="M67.1049,-224.6356C75.1767,-224.6356 83.9844,-224.6356 92.6716,-224.6356"/>
<polygon fill="#191970" stroke="#191970" points="92.763,-228.1357 102.763,-224.6356 92.763,-221.1357 92.763,-228.1357"/>
</g>
<!-- Node160965 -->
<g id="node16" class="node">
<title>Node160965</title>
<g id="a_node16"><a xlink:href="quickjs_8c.html#adee2db09b659dd2c1a1a3c408658a753" target="_top" xlink:title="gc_scan">
<polygon fill="none" stroke="#000000" points="118,-120.1356 118,-139.1356 171,-139.1356 171,-120.1356 118,-120.1356"/>
<text text-anchor="middle" x="144.5" y="-127.1356" font-family="Helvetica,sans-Serif" font-size="10.00" fill="#000000">gc_scan</text>
</a>
</g>
</g>
<!-- Node160930&#45;&gt;Node160965 -->
<g id="edge26" class="edge">
<title>Node160930&#45;&gt;Node160965</title>
<path fill="none" stroke="#191970" d="M44.9609,-214.8268C64.0033,-198.5292 102.3502,-165.7098 125.4925,-145.9033"/>
<polygon fill="#191970" stroke="#191970" points="127.9452,-148.411 133.2668,-139.2496 123.3936,-143.0928 127.9452,-148.411"/>
</g>
<!-- Node160932 -->
<g id="node3" class="node">
<title>Node160932</title>
<g id="a_node3"><a xlink:href="quickjs_8c.html#a765db9341ea8163ebb7b0b61c7127752" target="_top" xlink:title="gc_decref_child">
<polygon fill="none" stroke="#000000" points="236,-367.1356 236,-386.1356 321,-386.1356 321,-367.1356 236,-367.1356"/>
<text text-anchor="middle" x="278.5" y="-374.1356" font-family="Helvetica,sans-Serif" font-size="10.00" fill="#000000">gc_decref_child</text>
</a>
</g>
</g>
<!-- Node160931&#45;&gt;Node160932 -->
<g id="edge2" class="edge">
<title>Node160931&#45;&gt;Node160932</title>
<path fill="none" stroke="#191970" d="M166.8812,-329.1717C182.3591,-335.7651 203.4289,-344.7374 222,-352.6356 229.9484,-356.016 238.527,-359.6615 246.5401,-363.0655"/>
<polygon fill="#191970" stroke="#191970" points="245.381,-366.3757 255.9535,-367.0636 248.1175,-359.9328 245.381,-366.3757"/>
</g>
<!-- Node160933 -->
<g id="node4" class="node">
<title>Node160933</title>
<g id="a_node4"><a xlink:href="list_8h.html#a3a5d0733570b2fafc18f4c71a2968ea5" target="_top" xlink:title="list_add_tail">
<polygon fill="none" stroke="#ff0000" points="534,-234.1356 534,-253.1356 602,-253.1356 602,-234.1356 534,-234.1356"/>
<text text-anchor="middle" x="568" y="-241.1356" font-family="Helvetica,sans-Serif" font-size="10.00" fill="#000000">list_add_tail</text>
</a>
</g>
</g>
<!-- Node160931&#45;&gt;Node160933 -->
<g id="edge6" class="edge">
<title>Node160931&#45;&gt;Node160933</title>
<path fill="none" stroke="#191970" d="M150.5073,-329.2138C161.9385,-346.4177 188.6794,-382.0241 222,-395.6356 268.4926,-414.6279 285.0573,-400.9266 335,-395.6356 404.6087,-388.2612 431.1457,-402.039 489,-362.6356 525.7305,-337.6192 549.7499,-289.3108 560.8547,-262.5807"/>
<polygon fill="#191970" stroke="#191970" points="564.1494,-263.7671 564.5938,-253.1816 557.6452,-261.1796 564.1494,-263.7671"/>
</g>
<!-- Node160935 -->
<g id="node5" class="node">
<title>Node160935</title>
<g id="a_node5"><a xlink:href="list_8h.html#ab60d5d18869ebeb5d6ab694289576fa7" target="_top" xlink:title="list_del">
<polygon fill="none" stroke="#000000" points="406.5,-301.1356 406.5,-320.1356 453.5,-320.1356 453.5,-301.1356 406.5,-301.1356"/>
<text text-anchor="middle" x="430" y="-308.1356" font-family="Helvetica,sans-Serif" font-size="10.00" fill="#000000">list_del</text>
</a>
</g>
</g>
<!-- Node160931&#45;&gt;Node160935 -->
<g id="edge7" class="edge">
<title>Node160931&#45;&gt;Node160935</title>
<path fill="none" stroke="#191970" d="M174.2178,-320.503C211.7158,-321.398 278.178,-322.3212 335,-319.6356 355.3352,-318.6745 378.0371,-316.5624 396.1483,-314.6257"/>
<polygon fill="#191970" stroke="#191970" points="396.6719,-318.0893 406.2288,-313.5157 395.9057,-311.1314 396.6719,-318.0893"/>
</g>
<!-- Node160936 -->
<g id="node6" class="node">
<title>Node160936</title>
<g id="a_node6"><a xlink:href="list_8h.html#a663527a4d757540b2177bef0db1ce5c0" target="_top" xlink:title="init_list_head">
<polygon fill="none" stroke="#000000" points="241.5,-291.1356 241.5,-310.1356 315.5,-310.1356 315.5,-291.1356 241.5,-291.1356"/>
<text text-anchor="middle" x="278.5" y="-298.1356" font-family="Helvetica,sans-Serif" font-size="10.00" fill="#000000">init_list_head</text>
</a>
</g>
</g>
<!-- Node160931&#45;&gt;Node160936 -->
<g id="edge5" class="edge">
<title>Node160931&#45;&gt;Node160936</title>
<path fill="none" stroke="#191970" d="M174.2389,-315.4189C190.9706,-313.0465 212.248,-310.0296 231.2124,-307.3406"/>
<polygon fill="#191970" stroke="#191970" points="231.7639,-310.7975 241.1735,-305.9282 230.7812,-303.8668 231.7639,-310.7975"/>
</g>
<!-- Node160937 -->
<g id="node7" class="node">
<title>Node160937</title>
<g id="a_node7"><a xlink:href="quickjs_8c.html#aa863a9d565bac49a2a76d10009eabd5c" target="_top" xlink:title="mark_children">
<polygon fill="none" stroke="#000000" points="240,-63.1356 240,-82.1356 317,-82.1356 317,-63.1356 240,-63.1356"/>
<text text-anchor="middle" x="278.5" y="-70.1356" font-family="Helvetica,sans-Serif" font-size="10.00" fill="#000000">mark_children</text>
</a>
</g>
</g>
<!-- Node160931&#45;&gt;Node160937 -->
<g id="edge8" class="edge">
<title>Node160931&#45;&gt;Node160937</title>
<path fill="none" stroke="#191970" d="M150.4961,-310.1C159.1842,-295.9897 175.3915,-268.5296 186,-243.6356 206.83,-194.7559 194.526,-175.1141 222,-129.6356 231.4833,-113.9377 246.1511,-99.3137 258.1651,-88.8092"/>
<polygon fill="#191970" stroke="#191970" points="260.5749,-91.3554 265.9621,-82.2324 256.0616,-86.0047 260.5749,-91.3554"/>
</g>
<!-- Node160932&#45;&gt;Node160933 -->
<g id="edge3" class="edge">
<title>Node160932&#45;&gt;Node160933</title>
<path fill="none" stroke="#191970" d="M321.1415,-374.5848C365.694,-370.8023 436.3081,-360.0669 489,-329.6356 518.2511,-312.7421 542.8902,-281.4101 556.5302,-261.5895"/>
<polygon fill="#191970" stroke="#191970" points="559.5265,-263.4047 562.1578,-253.1418 553.7008,-259.5238 559.5265,-263.4047"/>
</g>
<!-- Node160932&#45;&gt;Node160935 -->
<g id="edge4" class="edge">
<title>Node160932&#45;&gt;Node160935</title>
<path fill="none" stroke="#191970" d="M301.0769,-367.1343C311.4293,-362.7548 323.8526,-357.467 335,-352.6356 356.5574,-343.2923 380.7789,-332.5805 399.369,-324.3133"/>
<polygon fill="#191970" stroke="#191970" points="400.8213,-327.498 408.5331,-320.2331 397.9741,-321.1032 400.8213,-327.498"/>
</g>
<!-- Node160938 -->
<g id="node8" class="node">
<title>Node160938</title>
<g id="a_node8"><a xlink:href="quickjs_8c.html#a440c98b7712cdebdd1669145e347aeee" target="_top" xlink:title="async_func_mark">
<polygon fill="none" stroke="#000000" points="383,-25.1356 383,-44.1356 477,-44.1356 477,-25.1356 383,-25.1356"/>
<text text-anchor="middle" x="430" y="-32.1356" font-family="Helvetica,sans-Serif" font-size="10.00" fill="#000000">async_func_mark</text>
</a>
</g>
</g>
<!-- Node160937&#45;&gt;Node160938 -->
<g id="edge9" class="edge">
<title>Node160937&#45;&gt;Node160938</title>
<path fill="none" stroke="#191970" d="M316.7298,-63.0466C336.6319,-58.0547 361.1567,-51.9032 382.2909,-46.6023"/>
<polygon fill="#191970" stroke="#191970" points="383.1971,-49.9835 392.0451,-44.1557 381.494,-43.1938 383.1971,-49.9835"/>
</g>
<!-- Node160939 -->
<g id="node9" class="node">
<title>Node160939</title>
<g id="a_node9"><a xlink:href="quickjs_8c.html#ab05309c79261e2042dfebf3dc7f7d039" target="_top" xlink:title="JS_MarkValue">
<polygon fill="none" stroke="#000000" points="528,-6.1356 528,-25.1356 608,-25.1356 608,-6.1356 528,-6.1356"/>
<text text-anchor="middle" x="568" y="-13.1356" font-family="Helvetica,sans-Serif" font-size="10.00" fill="#000000">JS_MarkValue</text>
</a>
</g>
</g>
<!-- Node160937&#45;&gt;Node160939 -->
<g id="edge12" class="edge">
<title>Node160937&#45;&gt;Node160939</title>
<path fill="none" stroke="#191970" d="M315.5631,-63.074C322.3029,-60.5399 329.0694,-57.4237 335,-53.6356 354.6063,-41.1125 349.6287,-24.8281 371,-15.6356 417.6316,4.4221 476.4106,1.222 517.577,-5.0096"/>
<polygon fill="#191970" stroke="#191970" points="517.2133,-8.4963 527.6454,-6.6469 518.3369,-1.5871 517.2133,-8.4963"/>
</g>
<!-- Node160940 -->
<g id="node10" class="node">
<title>Node160940</title>
<g id="a_node10"><a xlink:href="quickjs_8c.html#a643df594b75933007bcdbb071b5ea8c5" target="_top" xlink:title="get_shape_prop">
<polygon fill="none" stroke="#000000" points="525,-82.1356 525,-101.1356 611,-101.1356 611,-82.1356 525,-82.1356"/>
<text text-anchor="middle" x="568" y="-89.1356" font-family="Helvetica,sans-Serif" font-size="10.00" fill="#000000">get_shape_prop</text>
</a>
</g>
</g>
<!-- Node160937&#45;&gt;Node160940 -->
<g id="edge11" class="edge">
<title>Node160937&#45;&gt;Node160940</title>
<path fill="none" stroke="#191970" d="M317.2429,-75.1783C368.0092,-78.5101 457.2846,-84.3693 514.4803,-88.1231"/>
<polygon fill="#191970" stroke="#191970" points="514.5624,-91.6359 524.7701,-88.7984 515.0209,-84.651 514.5624,-91.6359"/>
</g>
<!-- Node160938&#45;&gt;Node160939 -->
<g id="edge10" class="edge">
<title>Node160938&#45;&gt;Node160939</title>
<path fill="none" stroke="#191970" d="M477.1058,-28.15C490.0441,-26.3687 504.1282,-24.4296 517.2612,-22.6214"/>
<polygon fill="#191970" stroke="#191970" points="518.1205,-26.0362 527.5497,-21.2049 517.1657,-19.1016 518.1205,-26.0362"/>
</g>
<!-- Node160941&#45;&gt;Node160933 -->
<g id="edge24" class="edge">
<title>Node160941&#45;&gt;Node160933</title>
<path fill="none" stroke="#191970" d="M186.2658,-226.5094C266.5131,-230.1096 441.5603,-237.963 523.7337,-241.6496"/>
<polygon fill="#191970" stroke="#191970" points="523.6061,-245.1473 533.753,-242.0991 523.9199,-238.1544 523.6061,-245.1473"/>
</g>
<!-- Node160941&#45;&gt;Node160935 -->
<g id="edge25" class="edge">
<title>Node160941&#45;&gt;Node160935</title>
<path fill="none" stroke="#191970" d="M176.5371,-234.1625C214.406,-245.4373 279.3186,-264.8067 335,-281.6356 355.4738,-287.8235 378.4086,-294.8228 396.6138,-300.3946"/>
<polygon fill="#191970" stroke="#191970" points="395.609,-303.7473 406.1956,-303.329 397.6588,-297.0541 395.609,-303.7473"/>
</g>
<!-- Node160941&#45;&gt;Node160936 -->
<g id="edge22" class="edge">
<title>Node160941&#45;&gt;Node160936</title>
<path fill="none" stroke="#191970" d="M157.192,-234.2497C172.1673,-245.3293 198.0637,-263.673 222,-276.6356 228.8294,-280.334 236.3491,-283.8717 243.6126,-287.0404"/>
<polygon fill="#191970" stroke="#191970" points="242.6956,-290.4521 253.2698,-291.1131 245.4158,-284.0022 242.6956,-290.4521"/>
</g>
<!-- Node160942 -->
<g id="node12" class="node">
<title>Node160942</title>
<g id="a_node12"><a xlink:href="quickjs_8c.html#a3d1c7a8d6aa5a9ba8ea8ef2828db188a" target="_top" xlink:title="free_gc_object">
<polygon fill="none" stroke="#000000" points="238.5,-139.1356 238.5,-158.1356 318.5,-158.1356 318.5,-139.1356 238.5,-139.1356"/>
<text text-anchor="middle" x="278.5" y="-146.1356" font-family="Helvetica,sans-Serif" font-size="10.00" fill="#000000">free_gc_object</text>
</a>
</g>
</g>
<!-- Node160941&#45;&gt;Node160942 -->
<g id="edge14" class="edge">
<title>Node160941&#45;&gt;Node160942</title>
<path fill="none" stroke="#191970" d="M155.3232,-214.9625C169.6769,-202.5535 196.2127,-181.037 222,-167.6356 226.0347,-165.5388 230.3488,-163.6021 234.7275,-161.8323"/>
<polygon fill="#191970" stroke="#191970" points="236.2007,-165.0178 244.333,-158.227 233.7408,-158.4642 236.2007,-165.0178"/>
</g>
<!-- Node160951 -->
<g id="node14" class="node">
<title>Node160951</title>
<g id="a_node14"><a xlink:href="quickjs_8c.html#a69e19dda8a93d613203e0baa06f0ed8d" target="_top" xlink:title="js_free_rt">
<polygon fill="none" stroke="#000000" points="539.5,-139.1356 539.5,-158.1356 596.5,-158.1356 596.5,-139.1356 539.5,-139.1356"/>
<text text-anchor="middle" x="568" y="-146.1356" font-family="Helvetica,sans-Serif" font-size="10.00" fill="#000000">js_free_rt</text>
</a>
</g>
</g>
<!-- Node160941&#45;&gt;Node160951 -->
<g id="edge23" class="edge">
<title>Node160941&#45;&gt;Node160951</title>
<path fill="none" stroke="#191970" d="M148.769,-214.9994C158.3878,-194.6553 183.9283,-147.7105 222,-129.6356 325.4308,-80.531 466.3049,-114.9393 531.7842,-135.8279"/>
<polygon fill="#191970" stroke="#191970" points="531.0359,-139.2656 541.6286,-139.0495 533.2131,-132.6128 531.0359,-139.2656"/>
</g>
<!-- Node160943 -->
<g id="node13" class="node">
<title>Node160943</title>
<g id="a_node13"><a xlink:href="quickjs_8c.html#adc4a49d7eb1cc1ec4b3a8c37ab8cb075" target="_top" xlink:title="free_function_bytecode">
<polygon fill="none" stroke="#ff0000" points="371,-177.1356 371,-196.1356 489,-196.1356 489,-177.1356 371,-177.1356"/>
<text text-anchor="middle" x="430" y="-184.1356" font-family="Helvetica,sans-Serif" font-size="10.00" fill="#000000">free_function_bytecode</text>
</a>
</g>
</g>
<!-- Node160942&#45;&gt;Node160943 -->
<g id="edge15" class="edge">
<title>Node160942&#45;&gt;Node160943</title>
<path fill="none" stroke="#191970" d="M316.7298,-158.2246C336.6319,-163.2165 361.1567,-169.368 382.2909,-174.669"/>
<polygon fill="#191970" stroke="#191970" points="381.494,-178.0774 392.0451,-177.1156 383.1971,-171.2878 381.494,-178.0774"/>
</g>
<!-- Node160956 -->
<g id="node15" class="node">
<title>Node160956</title>
<g id="a_node15"><a xlink:href="quickjs_8c.html#a41a4918c15192dc3489dc3ecb3fdc24d" target="_top" xlink:title="free_object">
<polygon fill="none" stroke="#ff0000" points="397.5,-139.1356 397.5,-158.1356 462.5,-158.1356 462.5,-139.1356 397.5,-139.1356"/>
<text text-anchor="middle" x="430" y="-146.1356" font-family="Helvetica,sans-Serif" font-size="10.00" fill="#000000">free_object</text>
</a>
</g>
</g>
<!-- Node160942&#45;&gt;Node160956 -->
<g id="edge18" class="edge">
<title>Node160942&#45;&gt;Node160956</title>
<path fill="none" stroke="#191970" d="M318.7015,-148.6356C339.795,-148.6356 365.6446,-148.6356 387.1209,-148.6356"/>
<polygon fill="#191970" stroke="#191970" points="387.2725,-152.1357 397.2725,-148.6356 387.2725,-145.1357 387.2725,-152.1357"/>
</g>
<!-- Node160943&#45;&gt;Node160933 -->
<g id="edge17" class="edge">
<title>Node160943&#45;&gt;Node160933</title>
<path fill="none" stroke="#191970" d="M453.5628,-196.1617C464.3706,-200.5463 477.3453,-205.8311 489,-210.6356 504.4081,-216.9875 521.474,-224.1058 535.7896,-230.1006"/>
<polygon fill="#191970" stroke="#191970" points="534.6312,-233.4101 545.2069,-234.0482 537.3374,-226.9543 534.6312,-233.4101"/>
</g>
<!-- Node160943&#45;&gt;Node160951 -->
<g id="edge16" class="edge">
<title>Node160943&#45;&gt;Node160951</title>
<path fill="none" stroke="#191970" d="M464.8232,-177.0466C484.4954,-171.6296 509.1261,-164.8473 529.388,-159.2679"/>
<polygon fill="#191970" stroke="#191970" points="530.5267,-162.5847 539.2387,-156.5554 528.6683,-155.8359 530.5267,-162.5847"/>
</g>
<!-- Node160956&#45;&gt;Node160933 -->
<g id="edge21" class="edge">
<title>Node160956&#45;&gt;Node160933</title>
<path fill="none" stroke="#191970" d="M462.6829,-156.2635C471.5761,-159.0988 480.9642,-162.8319 489,-167.6356 515.0128,-183.1859 539.2313,-208.7973 553.8226,-225.9361"/>
<polygon fill="#191970" stroke="#191970" points="551.456,-228.5653 560.5339,-234.0281 556.844,-224.0966 551.456,-228.5653"/>
</g>
<!-- Node160956&#45;&gt;Node160940 -->
<g id="edge19" class="edge">
<title>Node160956&#45;&gt;Node160940</title>
<path fill="none" stroke="#191970" d="M453.0981,-139.0951C475.5869,-129.8063 509.9814,-115.5998 535.2813,-105.1499"/>
<polygon fill="#191970" stroke="#191970" points="536.9201,-108.2598 544.8265,-101.2073 534.2477,-101.79 536.9201,-108.2598"/>
</g>
<!-- Node160956&#45;&gt;Node160951 -->
<g id="edge20" class="edge">
<title>Node160956&#45;&gt;Node160951</title>
<path fill="none" stroke="#191970" d="M462.7041,-148.6356C482.6139,-148.6356 508.1601,-148.6356 529.1036,-148.6356"/>
<polygon fill="#191970" stroke="#191970" points="529.2754,-152.1357 539.2754,-148.6356 529.2753,-145.1357 529.2754,-152.1357"/>
</g>
<!-- Node160965&#45;&gt;Node160937 -->
<g id="edge31" class="edge">
<title>Node160965&#45;&gt;Node160937</title>
<path fill="none" stroke="#191970" d="M166.8812,-120.0995C182.3591,-113.5062 203.4289,-104.5338 222,-96.6356 229.9484,-93.2552 238.527,-89.6097 246.5401,-86.2058"/>
<polygon fill="#191970" stroke="#191970" points="248.1175,-89.3385 255.9535,-82.2076 245.381,-82.8955 248.1175,-89.3385"/>
</g>
<!-- Node160966 -->
<g id="node17" class="node">
<title>Node160966</title>
<g id="a_node17"><a xlink:href="quickjs_8c.html#abc20b88e7a87b45b51a6dc6ff24f9a9a" target="_top" xlink:title="gc_scan_incref_child">
<polygon fill="none" stroke="#000000" points="224.5,-177.1356 224.5,-196.1356 332.5,-196.1356 332.5,-177.1356 224.5,-177.1356"/>
<text text-anchor="middle" x="278.5" y="-184.1356" font-family="Helvetica,sans-Serif" font-size="10.00" fill="#000000">gc_scan_incref_child</text>
</a>
</g>
</g>
<!-- Node160965&#45;&gt;Node160966 -->
<g id="edge27" class="edge">
<title>Node160965&#45;&gt;Node160966</title>
<path fill="none" stroke="#191970" d="M162.3564,-139.2265C177.8696,-147.3555 201.0727,-159.0299 222,-167.6356 227.1445,-169.7511 232.6194,-171.8159 238.0593,-173.7579"/>
<polygon fill="#191970" stroke="#191970" points="237.1393,-177.1431 247.7341,-177.1055 239.4283,-170.528 237.1393,-177.1431"/>
</g>
<!-- Node160967 -->
<g id="node18" class="node">
<title>Node160967</title>
<g id="a_node18"><a xlink:href="quickjs_8c.html#aa76a7a61c337651e4cadfcac05db5cb6" target="_top" xlink:title="gc_scan_incref_child2">
<polygon fill="none" stroke="#000000" points="222,-25.1356 222,-44.1356 335,-44.1356 335,-25.1356 222,-25.1356"/>
<text text-anchor="middle" x="278.5" y="-32.1356" font-family="Helvetica,sans-Serif" font-size="10.00" fill="#000000">gc_scan_incref_child2</text>
</a>
</g>
</g>
<!-- Node160965&#45;&gt;Node160967 -->
<g id="edge30" class="edge">
<title>Node160965&#45;&gt;Node160967</title>
<path fill="none" stroke="#191970" d="M151.8079,-120.0628C164.4524,-104.1175 191.9575,-72.0554 222,-53.6356 225.3774,-51.5649 229.0081,-49.6885 232.7408,-47.9948"/>
<polygon fill="#191970" stroke="#191970" points="234.2095,-51.1757 242.1434,-44.1541 231.5624,-44.6955 234.2095,-51.1757"/>
</g>
<!-- Node160966&#45;&gt;Node160933 -->
<g id="edge28" class="edge">
<title>Node160966&#45;&gt;Node160933</title>
<path fill="none" stroke="#191970" d="M324.5872,-196.2159C339.4,-199.2646 355.8861,-202.6258 371,-205.6356 423.4806,-216.0867 483.9183,-227.6791 523.8633,-235.2793"/>
<polygon fill="#191970" stroke="#191970" points="523.3325,-238.741 533.8102,-237.1699 524.6396,-231.8641 523.3325,-238.741"/>
</g>
<!-- Node160966&#45;&gt;Node160935 -->
<g id="edge29" class="edge">
<title>Node160966&#45;&gt;Node160935</title>
<path fill="none" stroke="#191970" d="M290.388,-196.3657C316.3854,-217.6441 378.5107,-268.4926 410.3922,-294.587"/>
<polygon fill="#191970" stroke="#191970" points="408.212,-297.3254 418.1673,-300.9507 412.6456,-291.9085 408.212,-297.3254"/>
</g>
</g>
</svg>
        <g id="navigator" transform="translate(0 0)" fill="#404254">
                <rect fill="#f2f5e9" fill-opacity="0.5" stroke="#606060" stroke-width=".5" x="0" y="0" width="60" height="60"/>
                <use id="zoomplus" xlink:href="#zoomPlus" x="17" y="9" onmousedown="handleZoom(evt,'in')"/>
                <use id="zoomminus" xlink:href="#zoomMin" x="42" y="9" onmousedown="handleZoom(evt,'out')"/>
                <use id="reset" xlink:href="#resetDef" x="30" y="36" onmousedown="handleReset()"/>
                <g id="arrowUp" xlink:href="#dirArrow" transform="translate(30 24)" onmousedown="handlePan(0,-1)">
                  <use xlink:href="#rim" fill="#404040">
                        <set attributeName="fill" to="#808080" begin="arrowUp.mouseover" end="arrowUp.mouseout"/>
                  </use>
                  <path fill="none" stroke="white" stroke-width="1.5" d="M0,-3.0v7 M-2.5,-0.5L0,-3.0L2.5,-0.5"/>
                </g>
                <g id="arrowRight" xlink:href="#dirArrow" transform="rotate(90) translate(36 -43)" onmousedown="handlePan(1,0)">
                  <use xlink:href="#rim" fill="#404040">
                        <set attributeName="fill" to="#808080" begin="arrowRight.mouseover" end="arrowRight.mouseout"/>
                  </use>
                  <path fill="none" stroke="white" stroke-width="1.5" d="M0,-3.0v7 M-2.5,-0.5L0,-3.0L2.5,-0.5"/>
                </g>
                <g id="arrowDown" xlink:href="#dirArrow" transform="rotate(180) translate(-30 -48)" onmousedown="handlePan(0,1)">
                  <use xlink:href="#rim" fill="#404040">
                        <set attributeName="fill" to="#808080" begin="arrowDown.mouseover" end="arrowDown.mouseout"/>
                  </use>
                  <path fill="none" stroke="white" stroke-width="1.5" d="M0,-3.0v7 M-2.5,-0.5L0,-3.0L2.5,-0.5"/>
                </g>
                <g id="arrowLeft" xlink:href="#dirArrow" transform="rotate(270) translate(-36 17)" onmousedown="handlePan(-1,0)">
                  <use xlink:href="#rim" fill="#404040">
                        <set attributeName="fill" to="#808080" begin="arrowLeft.mouseover" end="arrowLeft.mouseout"/>
                  </use>
                  <path fill="none" stroke="white" stroke-width="1.5" d="M0,-3.0v7 M-2.5,-0.5L0,-3.0L2.5,-0.5"/>
                </g>
        </g>
        <svg viewBox="0 0 15 15" width="100%" height="30px" preserveAspectRatio="xMaxYMin meet">
         <g id="arrow_out" transform="scale(0.3 0.3)">
          <a xlink:href="quickjs_8c_aeeea589ee4cec4bbc3145210f4cf6e42_cgraph_org.svg" target="_base">
           <rect id="button" ry="5" rx="5" y="6" x="6" height="38" width="38"
                fill="#f2f5e9" fill-opacity="0.5" stroke="#606060" stroke-width="1.0"/>
           <path id="arrow"
             d="M 11.500037,31.436501 C 11.940474,20.09759 22.043105,11.32322 32.158766,21.979434 L 37.068811,17.246167 C 37.068811,17.246167 37.088388,32 37.088388,32 L 22.160133,31.978069 C 22.160133,31.978069 26.997745,27.140456 26.997745,27.140456 C 18.528582,18.264221 13.291696,25.230495 11.500037,31.436501 z"
             style="fill:#404040;"/>
          </a>
         </g>
        </svg>
</svg>
