<?xml version="1.0" encoding="UTF-8" standalone="no"?>
<!DOCTYPE svg PUBLIC "-//W3C//DTD SVG 1.1//EN"
 "http://www.w3.org/Graphics/SVG/1.1/DTD/svg11.dtd">
<!-- Generated by graphviz version 2.40.1 (20161225.0304)
 -->
<!-- Title: js_os_pipe Pages: 1 -->
<!--zoomable 153 -->
<svg id="main" version="1.1" xmlns="http://www.w3.org/2000/svg" xmlns:xlink="http://www.w3.org/1999/xlink" xml:space="preserve" onload="init(evt)">
<style type="text/css"><![CDATA[
.edge:hover path { stroke: red; }
.edge:hover polygon { stroke: red; fill: red; }
]]></style>
<script type="text/javascript"><![CDATA[
var edges = document.getElementsByTagName('g');
if (edges && edges.length) {
  for (var i=0;i<edges.length;i++) {
    if (edges[i].id.substr(0,4)=='edge') {
      edges[i].setAttribute('class','edge');
    }
  }
}
]]></script>
        <defs>
                <circle id="rim" cx="0" cy="0" r="7"/>
                <circle id="rim2" cx="0" cy="0" r="3.5"/>
                <g id="zoomPlus">
                        <use xlink:href="#rim" fill="#404040">
                                <set attributeName="fill" to="#808080" begin="zoomplus.mouseover" end="zoomplus.mouseout"/>
                        </use>
                        <path d="M-4,0h8M0,-4v8" fill="none" stroke="white" stroke-width="1.5" pointer-events="none"/>
                </g>
                <g id="zoomMin">
                        <use xlink:href="#rim" fill="#404040">
                                <set attributeName="fill" to="#808080" begin="zoomminus.mouseover" end="zoomminus.mouseout"/>
                        </use>
                        <path d="M-4,0h8" fill="none" stroke="white" stroke-width="1.5" pointer-events="none"/>
                </g>
                <g id="dirArrow">
                        <path fill="none" stroke="white" stroke-width="1.5" d="M0,-3.0v7 M-2.5,-0.5L0,-3.0L2.5,-0.5"/>
                </g>
               <g id="resetDef">
                       <use xlink:href="#rim2" fill="#404040">
                               <set attributeName="fill" to="#808080" begin="reset.mouseover" end="reset.mouseout"/>
                       </use>
               </g>
        </defs>

<script type="text/javascript">
var viewWidth = 726;
var viewHeight = 153;
var sectionId = 'dynsection-106';
</script>
<script xlink:href="svgpan.js"/>
<svg id="graph" class="graph">
<g id="viewport">
<title>js_os_pipe</title>
<!-- Node26051 -->
<g id="node1" class="node">
<title>Node26051</title>
<polygon fill="#bfbfbf" stroke="#000000" points="0,-57.5 0,-76.5 63,-76.5 63,-57.5 0,-57.5"/>
<text text-anchor="middle" x="31.5" y="-64.5" font-family="Helvetica,sans-Serif" font-size="10.00" fill="#000000">js_os_pipe</text>
</g>
<!-- Node26052 -->
<g id="node2" class="node">
<title>Node26052</title>
<g id="a_node2"><a xlink:href="quickjs_8c.html#a12aed667595f49667e0095f0a028e0d4" target="_top" xlink:title="JS_DefinePropertyValueUint32">
<polygon fill="none" stroke="#000000" points="99,-76.5 99,-95.5 251,-95.5 251,-76.5 99,-76.5"/>
<text text-anchor="middle" x="175" y="-83.5" font-family="Helvetica,sans-Serif" font-size="10.00" fill="#000000">JS_DefinePropertyValueUint32</text>
</a>
</g>
</g>
<!-- Node26051&#45;&gt;Node26052 -->
<g id="edge1" class="edge">
<title>Node26051&#45;&gt;Node26052</title>
<path fill="none" stroke="#191970" d="M63.3473,-71.2167C72.2953,-72.4015 82.4573,-73.747 92.9185,-75.1321"/>
<polygon fill="#191970" stroke="#191970" points="92.6373,-78.6253 103.0102,-76.4683 93.5562,-71.6859 92.6373,-78.6253"/>
</g>
<!-- Node26103 -->
<g id="node5" class="node">
<title>Node26103</title>
<g id="a_node5"><a xlink:href="quickjs_8h.html#ad80a83d73e9b7d872b88fbf2943aebe9" target="_top" xlink:title="JS_IsException">
<polygon fill="none" stroke="#000000" points="632,-123.5 632,-142.5 718,-142.5 718,-123.5 632,-123.5"/>
<text text-anchor="middle" x="675" y="-130.5" font-family="Helvetica,sans-Serif" font-size="10.00" fill="#000000">JS_IsException</text>
</a>
</g>
</g>
<!-- Node26051&#45;&gt;Node26103 -->
<g id="edge10" class="edge">
<title>Node26051&#45;&gt;Node26103</title>
<path fill="none" stroke="#191970" d="M44.6977,-76.6185C57.7811,-85.6067 78.7463,-98.5761 99,-105 257.838,-155.3786 305.5788,-134.5447 472,-143 527.0401,-145.7964 540.9981,-146.4673 596,-143 604.2396,-142.4806 612.934,-141.6593 621.4226,-140.7053"/>
<polygon fill="#191970" stroke="#191970" points="622.1157,-144.1475 631.6304,-139.4871 621.2861,-137.1968 622.1157,-144.1475"/>
</g>
<!-- Node26295 -->
<g id="node10" class="node">
<title>Node26295</title>
<g id="a_node10"><a xlink:href="quickjs_8c.html#ad4ba09e4c7ab9f28c144182e1aacf1f6" target="_top" xlink:title="JS_NewArray">
<polygon fill="none" stroke="#ff0000" points="136.5,-38.5 136.5,-57.5 213.5,-57.5 213.5,-38.5 136.5,-38.5"/>
<text text-anchor="middle" x="175" y="-45.5" font-family="Helvetica,sans-Serif" font-size="10.00" fill="#000000">JS_NewArray</text>
</a>
</g>
</g>
<!-- Node26051&#45;&gt;Node26295 -->
<g id="edge11" class="edge">
<title>Node26051&#45;&gt;Node26295</title>
<path fill="none" stroke="#191970" d="M63.3473,-62.7833C81.8677,-60.3311 105.589,-57.1903 126.4,-54.4348"/>
<polygon fill="#191970" stroke="#191970" points="126.893,-57.9002 136.347,-53.1178 125.9741,-50.9608 126.893,-57.9002"/>
</g>
<!-- Node26092 -->
<g id="node11" class="node">
<title>Node26092</title>
<g id="a_node11"><a xlink:href="quickjs_8h.html#a2050bc428da1c65ac7eb87c3fa3b0392" target="_top" xlink:title="JS_NewInt32">
<polygon fill="none" stroke="#000000" points="137,-.5 137,-19.5 213,-19.5 213,-.5 137,-.5"/>
<text text-anchor="middle" x="175" y="-7.5" font-family="Helvetica,sans-Serif" font-size="10.00" fill="#000000">JS_NewInt32</text>
</a>
</g>
</g>
<!-- Node26051&#45;&gt;Node26092 -->
<g id="edge12" class="edge">
<title>Node26051&#45;&gt;Node26092</title>
<path fill="none" stroke="#191970" d="M45.9443,-57.3575C59.2402,-48.8553 79.7585,-36.6599 99,-29 107.9094,-25.4532 117.6763,-22.4189 127.1524,-19.8838"/>
<polygon fill="#191970" stroke="#191970" points="128.0393,-23.2697 136.8742,-17.4221 126.3209,-16.4839 128.0393,-23.2697"/>
</g>
<!-- Node26053 -->
<g id="node3" class="node">
<title>Node26053</title>
<g id="a_node3"><a xlink:href="quickjs_8c.html#a0c61bd5a64c743e81188bb528b78e715" target="_top" xlink:title="JS_DefinePropertyValueValue">
<polygon fill="none" stroke="#000000" points="287,-76.5 287,-95.5 436,-95.5 436,-76.5 287,-76.5"/>
<text text-anchor="middle" x="361.5" y="-83.5" font-family="Helvetica,sans-Serif" font-size="10.00" fill="#000000">JS_DefinePropertyValueValue</text>
</a>
</g>
</g>
<!-- Node26052&#45;&gt;Node26053 -->
<g id="edge2" class="edge">
<title>Node26052&#45;&gt;Node26053</title>
<path fill="none" stroke="#191970" d="M251.1257,-86C259.5036,-86 268.0726,-86 276.5493,-86"/>
<polygon fill="#191970" stroke="#191970" points="276.8243,-89.5001 286.8243,-86 276.8243,-82.5001 276.8243,-89.5001"/>
</g>
<!-- Node26232 -->
<g id="node9" class="node">
<title>Node26232</title>
<g id="a_node9"><a xlink:href="quickjs_8c.html#a22f31ae7a52ea79fa375d19427daa797" target="_top" xlink:title="JS_NewUint32">
<polygon fill="none" stroke="#000000" points="320,-38.5 320,-57.5 403,-57.5 403,-38.5 320,-38.5"/>
<text text-anchor="middle" x="361.5" y="-45.5" font-family="Helvetica,sans-Serif" font-size="10.00" fill="#000000">JS_NewUint32</text>
</a>
</g>
</g>
<!-- Node26052&#45;&gt;Node26232 -->
<g id="edge9" class="edge">
<title>Node26052&#45;&gt;Node26232</title>
<path fill="none" stroke="#191970" d="M222.0618,-76.411C248.8754,-70.9476 282.5053,-64.0954 310.0199,-58.4893"/>
<polygon fill="#191970" stroke="#191970" points="310.7563,-61.9112 319.8561,-56.4851 309.3587,-55.0521 310.7563,-61.9112"/>
</g>
<!-- Node26054 -->
<g id="node4" class="node">
<title>Node26054</title>
<g id="a_node4"><a xlink:href="quickjs_8c.html#a859d5c989a2aaecef1653b3ac279e108" target="_top" xlink:title="JS_ValueToAtom">
<polygon fill="none" stroke="#ff0000" points="487.5,-114.5 487.5,-133.5 580.5,-133.5 580.5,-114.5 487.5,-114.5"/>
<text text-anchor="middle" x="534" y="-121.5" font-family="Helvetica,sans-Serif" font-size="10.00" fill="#000000">JS_ValueToAtom</text>
</a>
</g>
</g>
<!-- Node26053&#45;&gt;Node26054 -->
<g id="edge3" class="edge">
<title>Node26053&#45;&gt;Node26054</title>
<path fill="none" stroke="#191970" d="M405.029,-95.589C428.0999,-100.6713 456.6266,-106.9554 480.9805,-112.3203"/>
<polygon fill="#191970" stroke="#191970" points="480.2651,-115.7466 490.784,-114.4799 481.7711,-108.9105 480.2651,-115.7466"/>
</g>
<!-- Node26174 -->
<g id="node6" class="node">
<title>Node26174</title>
<g id="a_node6"><a xlink:href="quickjs_8h.html#afaa20c47565bc704c6c85f3d77254e7d" target="_top" xlink:title="JS_FreeValue">
<polygon fill="none" stroke="#ff0000" points="636,-66.5 636,-85.5 714,-85.5 714,-66.5 636,-66.5"/>
<text text-anchor="middle" x="675" y="-73.5" font-family="Helvetica,sans-Serif" font-size="10.00" fill="#000000">JS_FreeValue</text>
</a>
</g>
</g>
<!-- Node26053&#45;&gt;Node26174 -->
<g id="edge5" class="edge">
<title>Node26053&#45;&gt;Node26174</title>
<path fill="none" stroke="#191970" d="M436.1928,-83.6175C494.817,-81.7475 574.7671,-79.1972 625.645,-77.5743"/>
<polygon fill="#191970" stroke="#191970" points="625.8467,-81.0698 635.73,-77.2526 625.6235,-74.0733 625.8467,-81.0698"/>
</g>
<!-- Node26179 -->
<g id="node7" class="node">
<title>Node26179</title>
<g id="a_node7"><a xlink:href="quickjs_8c.html#a0a8765bd4012467d9139bc24aabcb3ca" target="_top" xlink:title="JS_DefinePropertyValue">
<polygon fill="none" stroke="#ff0000" points="472,-38.5 472,-57.5 596,-57.5 596,-38.5 472,-38.5"/>
<text text-anchor="middle" x="534" y="-45.5" font-family="Helvetica,sans-Serif" font-size="10.00" fill="#000000">JS_DefinePropertyValue</text>
</a>
</g>
</g>
<!-- Node26053&#45;&gt;Node26179 -->
<g id="edge6" class="edge">
<title>Node26053&#45;&gt;Node26179</title>
<path fill="none" stroke="#191970" d="M405.029,-76.411C428.0999,-71.3287 456.6266,-65.0446 480.9805,-59.6797"/>
<polygon fill="#191970" stroke="#191970" points="481.7711,-63.0895 490.784,-57.5201 480.2651,-56.2534 481.7711,-63.0895"/>
</g>
<!-- Node26246 -->
<g id="node8" class="node">
<title>Node26246</title>
<g id="a_node8"><a xlink:href="quickjs_8c.html#ab7fc45a99935a1c0ba50b0216d9401a9" target="_top" xlink:title="JS_FreeAtom">
<polygon fill="none" stroke="#ff0000" points="495.5,-.5 495.5,-19.5 572.5,-19.5 572.5,-.5 495.5,-.5"/>
<text text-anchor="middle" x="534" y="-7.5" font-family="Helvetica,sans-Serif" font-size="10.00" fill="#000000">JS_FreeAtom</text>
</a>
</g>
</g>
<!-- Node26053&#45;&gt;Node26246 -->
<g id="edge8" class="edge">
<title>Node26053&#45;&gt;Node26246</title>
<path fill="none" stroke="#191970" d="M414.6718,-76.3915C422.1071,-73.9326 429.4395,-70.8533 436,-67 456.0602,-55.2177 452.2262,-41.2569 472,-29 476.3149,-26.3254 481.0335,-24.0035 485.8795,-21.993"/>
<polygon fill="#191970" stroke="#191970" points="487.128,-25.263 495.2834,-18.4998 484.6905,-18.7011 487.128,-25.263"/>
</g>
<!-- Node26054&#45;&gt;Node26103 -->
<g id="edge4" class="edge">
<title>Node26054&#45;&gt;Node26103</title>
<path fill="none" stroke="#191970" d="M580.5594,-126.9719C593.7273,-127.8124 608.1595,-128.7336 621.6918,-129.5973"/>
<polygon fill="#191970" stroke="#191970" points="621.626,-133.1002 631.8287,-130.2444 622.072,-126.1144 621.626,-133.1002"/>
</g>
<!-- Node26179&#45;&gt;Node26174 -->
<g id="edge7" class="edge">
<title>Node26179&#45;&gt;Node26174</title>
<path fill="none" stroke="#191970" d="M582.1298,-57.5577C596.2531,-60.3623 611.7127,-63.4323 625.8959,-66.2488"/>
<polygon fill="#191970" stroke="#191970" points="625.4704,-69.7326 635.9606,-68.2475 626.8339,-62.8667 625.4704,-69.7326"/>
</g>
</g>
</svg>
        <g id="navigator" transform="translate(0 0)" fill="#404254">
                <rect fill="#f2f5e9" fill-opacity="0.5" stroke="#606060" stroke-width=".5" x="0" y="0" width="60" height="60"/>
                <use id="zoomplus" xlink:href="#zoomPlus" x="17" y="9" onmousedown="handleZoom(evt,'in')"/>
                <use id="zoomminus" xlink:href="#zoomMin" x="42" y="9" onmousedown="handleZoom(evt,'out')"/>
                <use id="reset" xlink:href="#resetDef" x="30" y="36" onmousedown="handleReset()"/>
                <g id="arrowUp" xlink:href="#dirArrow" transform="translate(30 24)" onmousedown="handlePan(0,-1)">
                  <use xlink:href="#rim" fill="#404040">
                        <set attributeName="fill" to="#808080" begin="arrowUp.mouseover" end="arrowUp.mouseout"/>
                  </use>
                  <path fill="none" stroke="white" stroke-width="1.5" d="M0,-3.0v7 M-2.5,-0.5L0,-3.0L2.5,-0.5"/>
                </g>
                <g id="arrowRight" xlink:href="#dirArrow" transform="rotate(90) translate(36 -43)" onmousedown="handlePan(1,0)">
                  <use xlink:href="#rim" fill="#404040">
                        <set attributeName="fill" to="#808080" begin="arrowRight.mouseover" end="arrowRight.mouseout"/>
                  </use>
                  <path fill="none" stroke="white" stroke-width="1.5" d="M0,-3.0v7 M-2.5,-0.5L0,-3.0L2.5,-0.5"/>
                </g>
                <g id="arrowDown" xlink:href="#dirArrow" transform="rotate(180) translate(-30 -48)" onmousedown="handlePan(0,1)">
                  <use xlink:href="#rim" fill="#404040">
                        <set attributeName="fill" to="#808080" begin="arrowDown.mouseover" end="arrowDown.mouseout"/>
                  </use>
                  <path fill="none" stroke="white" stroke-width="1.5" d="M0,-3.0v7 M-2.5,-0.5L0,-3.0L2.5,-0.5"/>
                </g>
                <g id="arrowLeft" xlink:href="#dirArrow" transform="rotate(270) translate(-36 17)" onmousedown="handlePan(-1,0)">
                  <use xlink:href="#rim" fill="#404040">
                        <set attributeName="fill" to="#808080" begin="arrowLeft.mouseover" end="arrowLeft.mouseout"/>
                  </use>
                  <path fill="none" stroke="white" stroke-width="1.5" d="M0,-3.0v7 M-2.5,-0.5L0,-3.0L2.5,-0.5"/>
                </g>
        </g>
        <svg viewBox="0 0 15 15" width="100%" height="30px" preserveAspectRatio="xMaxYMin meet">
         <g id="arrow_out" transform="scale(0.3 0.3)">
          <a xlink:href="quickjs-libc_8c_a6d1c957c402e5cda23a3b00762208185_cgraph_org.svg" target="_base">
           <rect id="button" ry="5" rx="5" y="6" x="6" height="38" width="38"
                fill="#f2f5e9" fill-opacity="0.5" stroke="#606060" stroke-width="1.0"/>
           <path id="arrow"
             d="M 11.500037,31.436501 C 11.940474,20.09759 22.043105,11.32322 32.158766,21.979434 L 37.068811,17.246167 C 37.068811,17.246167 37.088388,32 37.088388,32 L 22.160133,31.978069 C 22.160133,31.978069 26.997745,27.140456 26.997745,27.140456 C 18.528582,18.264221 13.291696,25.230495 11.500037,31.436501 z"
             style="fill:#404040;"/>
          </a>
         </g>
        </svg>
</svg>
