<?xml version="1.0" encoding="UTF-8" standalone="no"?>
<!DOCTYPE svg PUBLIC "-//W3C//DTD SVG 1.1//EN"
 "http://www.w3.org/Graphics/SVG/1.1/DTD/svg11.dtd">
<!-- Generated by graphviz version 2.40.1 (20161225.0304)
 -->
<!-- Title: js_instantiate_module Pages: 1 -->
<!--zoomable 770 -->
<svg id="main" version="1.1" xmlns="http://www.w3.org/2000/svg" xmlns:xlink="http://www.w3.org/1999/xlink" xml:space="preserve" onload="init(evt)">
<style type="text/css"><![CDATA[
.edge:hover path { stroke: red; }
.edge:hover polygon { stroke: red; fill: red; }
]]></style>
<script type="text/javascript"><![CDATA[
var edges = document.getElementsByTagName('g');
if (edges && edges.length) {
  for (var i=0;i<edges.length;i++) {
    if (edges[i].id.substr(0,4)=='edge') {
      edges[i].setAttribute('class','edge');
    }
  }
}
]]></script>
        <defs>
                <circle id="rim" cx="0" cy="0" r="7"/>
                <circle id="rim2" cx="0" cy="0" r="3.5"/>
                <g id="zoomPlus">
                        <use xlink:href="#rim" fill="#404040">
                                <set attributeName="fill" to="#808080" begin="zoomplus.mouseover" end="zoomplus.mouseout"/>
                        </use>
                        <path d="M-4,0h8M0,-4v8" fill="none" stroke="white" stroke-width="1.5" pointer-events="none"/>
                </g>
                <g id="zoomMin">
                        <use xlink:href="#rim" fill="#404040">
                                <set attributeName="fill" to="#808080" begin="zoomminus.mouseover" end="zoomminus.mouseout"/>
                        </use>
                        <path d="M-4,0h8" fill="none" stroke="white" stroke-width="1.5" pointer-events="none"/>
                </g>
                <g id="dirArrow">
                        <path fill="none" stroke="white" stroke-width="1.5" d="M0,-3.0v7 M-2.5,-0.5L0,-3.0L2.5,-0.5"/>
                </g>
               <g id="resetDef">
                       <use xlink:href="#rim2" fill="#404040">
                               <set attributeName="fill" to="#808080" begin="reset.mouseover" end="reset.mouseout"/>
                       </use>
               </g>
        </defs>

<script type="text/javascript">
var viewWidth = 1133;
var viewHeight = 770;
var sectionId = 'dynsection-1099';
</script>
<script xlink:href="svgpan.js"/>
<svg id="graph" class="graph">
<g id="viewport">
<title>js_instantiate_module</title>
<!-- Node320863 -->
<g id="node1" class="node">
<title>Node320863</title>
<polygon fill="#bfbfbf" stroke="#000000" points="0,-324.4075 0,-343.4075 111,-343.4075 111,-324.4075 0,-324.4075"/>
<text text-anchor="middle" x="55.5" y="-331.4075" font-family="Helvetica,sans-Serif" font-size="10.00" fill="#000000">js_instantiate_module</text>
</g>
<!-- Node320863&#45;&gt;Node320863 -->
<g id="edge46" class="edge">
<title>Node320863&#45;&gt;Node320863</title>
<path fill="none" stroke="#191970" d="M34.2302,-343.6645C23.8827,-352.4727 30.9727,-361.9075 55.5,-361.9075 71.2128,-361.9075 79.7693,-358.0355 81.1695,-352.9367"/>
<polygon fill="#191970" stroke="#191970" points="84.2189,-351.1986 76.7698,-343.6645 77.8948,-354.1995 84.2189,-351.1986"/>
</g>
<!-- Node320864 -->
<g id="node2" class="node">
<title>Node320864</title>
<g id="a_node2"><a xlink:href="quickjs_8c.html#a2d91a9da16cf07ff3b9ec053b870c335" target="_top" xlink:title="js_create_module_function">
<polygon fill="none" stroke="#000000" points="416,-153.4075 416,-172.4075 549,-172.4075 549,-153.4075 416,-153.4075"/>
<text text-anchor="middle" x="482.5" y="-160.4075" font-family="Helvetica,sans-Serif" font-size="10.00" fill="#000000">js_create_module_function</text>
</a>
</g>
</g>
<!-- Node320863&#45;&gt;Node320864 -->
<g id="edge1" class="edge">
<title>Node320863&#45;&gt;Node320864</title>
<path fill="none" stroke="#191970" d="M75.8841,-324.2829C130.2734,-298.8293 283.7064,-228.5051 416,-181.9075 422.4677,-179.6294 429.3592,-177.4221 436.1635,-175.3675"/>
<polygon fill="#191970" stroke="#191970" points="437.402,-178.6517 446.0107,-172.4759 435.4297,-171.9352 437.402,-178.6517"/>
</g>
<!-- Node320865 -->
<g id="node3" class="node">
<title>Node320865</title>
<g id="a_node3"><a xlink:href="quickjs_8c.html#a66b74f17c8f724e92b6d7e3856e12b1e" target="_top" xlink:title="js_create_module_var">
<polygon fill="none" stroke="#000000" points="595.5,-101.4075 595.5,-120.4075 707.5,-120.4075 707.5,-101.4075 595.5,-101.4075"/>
<text text-anchor="middle" x="651.5" y="-108.4075" font-family="Helvetica,sans-Serif" font-size="10.00" fill="#000000">js_create_module_var</text>
</a>
</g>
</g>
<!-- Node320863&#45;&gt;Node320865 -->
<g id="edge17" class="edge">
<title>Node320863&#45;&gt;Node320865</title>
<path fill="none" stroke="#191970" d="M56.9257,-324.2688C62.3275,-291.0247 84.4963,-179.8077 147,-117.9075 191.7454,-73.5941 218.9819,-85.8778 278,-63.9075 392.4914,-21.2863 435.0305,26.0902 549,-17.9075 588.1822,-33.0337 621.6443,-70.8616 638.9303,-93.3377"/>
<polygon fill="#191970" stroke="#191970" points="636.1502,-95.4645 644.9346,-101.3879 641.7614,-91.2794 636.1502,-95.4645"/>
</g>
<!-- Node320869 -->
<g id="node5" class="node">
<title>Node320869</title>
<g id="a_node5"><a xlink:href="quickjs_8h.html#afaa20c47565bc704c6c85f3d77254e7d" target="_top" xlink:title="JS_FreeValue">
<polygon fill="none" stroke="#000000" points="781.5,-627.4075 781.5,-646.4075 859.5,-646.4075 859.5,-627.4075 781.5,-627.4075"/>
<text text-anchor="middle" x="820.5" y="-634.4075" font-family="Helvetica,sans-Serif" font-size="10.00" fill="#000000">JS_FreeValue</text>
</a>
</g>
</g>
<!-- Node320863&#45;&gt;Node320869 -->
<g id="edge18" class="edge">
<title>Node320863&#45;&gt;Node320869</title>
<path fill="none" stroke="#191970" d="M56.2502,-343.7176C60.7393,-399.6704 85.94,-677.8743 147,-731.9075 207.9055,-785.804 247.6715,-750.9075 329,-750.9075 329,-750.9075 329,-750.9075 482.5,-750.9075 588.9778,-750.9075 619.5964,-747.5802 718,-706.9075 750.0933,-693.6425 782.3989,-669.3391 801.9319,-653.1513"/>
<polygon fill="#191970" stroke="#191970" points="804.3488,-655.691 809.7223,-646.56 799.8274,-650.3471 804.3488,-655.691"/>
</g>
<!-- Node320896 -->
<g id="node7" class="node">
<title>Node320896</title>
<g id="a_node7"><a xlink:href="quickjs_8h.html#ad80a83d73e9b7d872b88fbf2943aebe9" target="_top" xlink:title="JS_IsException">
<polygon fill="none" stroke="#000000" points="608.5,-475.4075 608.5,-494.4075 694.5,-494.4075 694.5,-475.4075 608.5,-475.4075"/>
<text text-anchor="middle" x="651.5" y="-482.4075" font-family="Helvetica,sans-Serif" font-size="10.00" fill="#000000">JS_IsException</text>
</a>
</g>
</g>
<!-- Node320863&#45;&gt;Node320896 -->
<g id="edge47" class="edge">
<title>Node320863&#45;&gt;Node320896</title>
<path fill="none" stroke="#191970" d="M64.6397,-343.4095C102.8955,-382.4021 255.6355,-530.4058 416,-579.9075 472.4814,-597.3423 493.969,-601.4879 549,-579.9075 588.4834,-564.4241 621.8354,-525.7943 639.0213,-502.8454"/>
<polygon fill="#191970" stroke="#191970" points="641.9454,-504.7751 644.9871,-494.6262 636.2804,-500.6631 641.9454,-504.7751"/>
</g>
<!-- Node320939 -->
<g id="node16" class="node">
<title>Node320939</title>
<g id="a_node16"><a xlink:href="quickjs_8c.html#a2f5aeb4e31e2001c555335ae5172165b" target="_top" xlink:title="js_get_module_ns">
<polygon fill="none" stroke="#000000" points="147,-362.4075 147,-381.4075 242,-381.4075 242,-362.4075 147,-362.4075"/>
<text text-anchor="middle" x="194.5" y="-369.4075" font-family="Helvetica,sans-Serif" font-size="10.00" fill="#000000">js_get_module_ns</text>
</a>
</g>
</g>
<!-- Node320863&#45;&gt;Node320939 -->
<g id="edge19" class="edge">
<title>Node320863&#45;&gt;Node320939</title>
<path fill="none" stroke="#191970" d="M90.5756,-343.4965C108.5191,-348.4019 130.5584,-354.427 149.7167,-359.6646"/>
<polygon fill="#191970" stroke="#191970" points="148.8666,-363.0605 159.4357,-362.3215 150.7126,-356.3083 148.8666,-363.0605"/>
</g>
<!-- Node321274 -->
<g id="node25" class="node">
<title>Node321274</title>
<g id="a_node25"><a xlink:href="quickjs_8c.html#a844d3c1554247d20a0cab7287e45173a" target="_top" xlink:title="js_resolve_export">
<polygon fill="none" stroke="#ff0000" points="436,-77.4075 436,-96.4075 529,-96.4075 529,-77.4075 436,-77.4075"/>
<text text-anchor="middle" x="482.5" y="-84.4075" font-family="Helvetica,sans-Serif" font-size="10.00" fill="#000000">js_resolve_export</text>
</a>
</g>
</g>
<!-- Node320863&#45;&gt;Node321274 -->
<g id="edge48" class="edge">
<title>Node320863&#45;&gt;Node321274</title>
<path fill="none" stroke="#191970" d="M63.8223,-324.3268C79.0474,-307.2058 112.9627,-270.9075 147,-246.9075 246.1206,-177.0167 380.5323,-123.5093 444.9911,-99.9998"/>
<polygon fill="#191970" stroke="#191970" points="446.503,-103.1751 454.7196,-96.4863 444.1252,-96.5913 446.503,-103.1751"/>
</g>
<!-- Node321279 -->
<g id="node26" class="node">
<title>Node321279</title>
<g id="a_node26"><a xlink:href="quickjs_8c.html#a0c56d4991dacd4cd61dddec1afa2703c" target="_top" xlink:title="js_resolve_export_throw\l_error">
<polygon fill="none" stroke="#ff0000" points="421.5,-27.9075 421.5,-57.9075 543.5,-57.9075 543.5,-27.9075 421.5,-27.9075"/>
<text text-anchor="start" x="429.5" y="-45.9075" font-family="Helvetica,sans-Serif" font-size="10.00" fill="#000000">js_resolve_export_throw</text>
<text text-anchor="middle" x="482.5" y="-34.9075" font-family="Helvetica,sans-Serif" font-size="10.00" fill="#000000">_error</text>
</a>
</g>
</g>
<!-- Node320863&#45;&gt;Node321279 -->
<g id="edge49" class="edge">
<title>Node320863&#45;&gt;Node321279</title>
<path fill="none" stroke="#191970" d="M59.1785,-324.3293C69.4295,-298.7393 100.644,-227.8754 147,-185.9075 223.2102,-116.9112 337.7054,-77.9125 411.2669,-58.6142"/>
<polygon fill="#191970" stroke="#191970" points="412.5515,-61.898 421.3668,-56.0208 410.8105,-55.1179 412.5515,-61.898"/>
</g>
<!-- Node321063 -->
<g id="node30" class="node">
<title>Node321063</title>
<g id="a_node30"><a xlink:href="quickjs_8c.html#a0ec52a675282f321a6f42aa1298a53fe" target="_top" xlink:title="set_value">
<polygon fill="none" stroke="#000000" points="165,-703.4075 165,-722.4075 224,-722.4075 224,-703.4075 165,-703.4075"/>
<text text-anchor="middle" x="194.5" y="-710.4075" font-family="Helvetica,sans-Serif" font-size="10.00" fill="#000000">set_value</text>
</a>
</g>
</g>
<!-- Node320863&#45;&gt;Node321063 -->
<g id="edge50" class="edge">
<title>Node320863&#45;&gt;Node321063</title>
<path fill="none" stroke="#191970" d="M56.9119,-343.6903C64.4706,-394.9515 101.5123,-632.3801 147,-688.9075 149.8799,-692.4863 153.4328,-695.5803 157.2887,-698.2428"/>
<polygon fill="#191970" stroke="#191970" points="155.6753,-701.3542 166.0702,-703.4028 159.2217,-695.319 155.6753,-701.3542"/>
</g>
<!-- Node320864&#45;&gt;Node320865 -->
<g id="edge2" class="edge">
<title>Node320864&#45;&gt;Node320865</title>
<path fill="none" stroke="#191970" d="M513.4972,-153.3699C540.8077,-144.9666 580.785,-132.6659 610.6906,-123.4642"/>
<polygon fill="#191970" stroke="#191970" points="611.8851,-126.7587 620.4136,-120.4725 609.8265,-120.0682 611.8851,-126.7587"/>
</g>
<!-- Node320864&#45;&gt;Node320869 -->
<g id="edge4" class="edge">
<title>Node320864&#45;&gt;Node320869</title>
<path fill="none" stroke="#191970" d="M535.7876,-172.55C540.6601,-175.0093 545.1873,-178.0789 549,-181.9075 590.7008,-223.781 557.184,-257.7671 585,-309.9075 627.8852,-390.2946 664.8401,-391.9125 718,-465.9075 755.9035,-518.6666 793.3241,-585.9797 810.5961,-618.1473"/>
<polygon fill="#191970" stroke="#191970" points="807.6787,-620.1149 815.471,-627.2934 813.856,-616.8223 807.6787,-620.1149"/>
</g>
<!-- Node320864&#45;&gt;Node320896 -->
<g id="edge6" class="edge">
<title>Node320864&#45;&gt;Node320896</title>
<path fill="none" stroke="#191970" d="M537.3099,-172.5377C541.7012,-175.0134 545.705,-178.0898 549,-181.9075 628.6754,-274.2219 512.8543,-355.5961 585,-453.9075 590.2565,-461.0704 597.5853,-466.6314 605.4668,-470.9316"/>
<polygon fill="#191970" stroke="#191970" points="603.9886,-474.1043 614.5193,-475.2692 607.0135,-467.7916 603.9886,-474.1043"/>
</g>
<!-- Node320897 -->
<g id="node8" class="node">
<title>Node320897</title>
<g id="a_node8"><a xlink:href="quickjs_8c.html#a73738c650f11459db0d7af3dcdf8316b" target="_top" xlink:title="JS_NewObjectProtoClass">
<polygon fill="none" stroke="#000000" points="586,-215.4075 586,-234.4075 717,-234.4075 717,-215.4075 586,-215.4075"/>
<text text-anchor="middle" x="651.5" y="-222.4075" font-family="Helvetica,sans-Serif" font-size="10.00" fill="#000000">JS_NewObjectProtoClass</text>
</a>
</g>
</g>
<!-- Node320864&#45;&gt;Node320897 -->
<g id="edge7" class="edge">
<title>Node320864&#45;&gt;Node320897</title>
<path fill="none" stroke="#191970" d="M518.9852,-172.4875C528.8044,-175.2947 539.3706,-178.5255 549,-181.9075 573.7221,-190.5902 601.0544,-202.1591 621.2733,-211.11"/>
<polygon fill="#191970" stroke="#191970" points="620.0269,-214.3865 630.5849,-215.2696 622.882,-207.9952 620.0269,-214.3865"/>
</g>
<!-- Node320866 -->
<g id="node4" class="node">
<title>Node320866</title>
<g id="a_node4"><a xlink:href="quickjs_8c.html#a9780456a71703c53244b88831bc8fb7a" target="_top" xlink:title="add_gc_object">
<polygon fill="none" stroke="#ff0000" points="927.5,-120.4075 927.5,-139.4075 1007.5,-139.4075 1007.5,-120.4075 927.5,-120.4075"/>
<text text-anchor="middle" x="967.5" y="-127.4075" font-family="Helvetica,sans-Serif" font-size="10.00" fill="#000000">add_gc_object</text>
</a>
</g>
</g>
<!-- Node320865&#45;&gt;Node320866 -->
<g id="edge3" class="edge">
<title>Node320865&#45;&gt;Node320866</title>
<path fill="none" stroke="#191970" d="M707.6303,-114.2824C767.0692,-117.8563 860.0389,-123.4462 917.1753,-126.8816"/>
<polygon fill="#191970" stroke="#191970" points="917.2187,-130.3905 927.4108,-127.497 917.6389,-123.4031 917.2187,-130.3905"/>
</g>
<!-- Node320870 -->
<g id="node6" class="node">
<title>Node320870</title>
<g id="a_node6"><a xlink:href="quickjs_8c.html#aa059f309c30fd5166d16c82a97973146" target="_top" xlink:title="__JS_FreeValue">
<polygon fill="none" stroke="#ff0000" points="923,-627.4075 923,-646.4075 1012,-646.4075 1012,-627.4075 923,-627.4075"/>
<text text-anchor="middle" x="967.5" y="-634.4075" font-family="Helvetica,sans-Serif" font-size="10.00" fill="#000000">__JS_FreeValue</text>
</a>
</g>
</g>
<!-- Node320869&#45;&gt;Node320870 -->
<g id="edge5" class="edge">
<title>Node320869&#45;&gt;Node320870</title>
<path fill="none" stroke="#191970" d="M859.5074,-636.9075C875.7899,-636.9075 894.9932,-636.9075 912.657,-636.9075"/>
<polygon fill="#191970" stroke="#191970" points="912.8457,-640.4076 922.8456,-636.9075 912.8456,-633.4076 912.8457,-640.4076"/>
</g>
<!-- Node320898 -->
<g id="node9" class="node">
<title>Node320898</title>
<g id="a_node9"><a xlink:href="quickjs_8c.html#aad24bdf2bcbb0ce55462fe6074dac8a5" target="_top" xlink:title="find_hashed_shape_proto">
<polygon fill="none" stroke="#ff0000" points="756.5,-291.4075 756.5,-310.4075 884.5,-310.4075 884.5,-291.4075 756.5,-291.4075"/>
<text text-anchor="middle" x="820.5" y="-298.4075" font-family="Helvetica,sans-Serif" font-size="10.00" fill="#000000">find_hashed_shape_proto</text>
</a>
</g>
</g>
<!-- Node320897&#45;&gt;Node320898 -->
<g id="edge8" class="edge">
<title>Node320897&#45;&gt;Node320898</title>
<path fill="none" stroke="#191970" d="M666.2382,-234.5303C685.6802,-246.8849 721.2705,-268.3425 754,-281.9075 759.5426,-284.2046 765.4551,-286.3289 771.3819,-288.2603"/>
<polygon fill="#191970" stroke="#191970" points="770.7195,-291.7188 781.307,-291.325 772.7848,-285.0304 770.7195,-291.7188"/>
</g>
<!-- Node320901 -->
<g id="node10" class="node">
<title>Node320901</title>
<g id="a_node10"><a xlink:href="quickjs_8c.html#aab0be018b8f7bdcff45226f502c3f820" target="_top" xlink:title="get_proto_obj">
<polygon fill="none" stroke="#000000" points="783,-253.4075 783,-272.4075 858,-272.4075 858,-253.4075 783,-253.4075"/>
<text text-anchor="middle" x="820.5" y="-260.4075" font-family="Helvetica,sans-Serif" font-size="10.00" fill="#000000">get_proto_obj</text>
</a>
</g>
</g>
<!-- Node320897&#45;&gt;Node320901 -->
<g id="edge9" class="edge">
<title>Node320897&#45;&gt;Node320901</title>
<path fill="none" stroke="#191970" d="M694.1458,-234.4965C718.1237,-239.8879 748.1168,-246.632 772.8634,-252.1963"/>
<polygon fill="#191970" stroke="#191970" points="772.2395,-255.6433 782.7637,-254.4224 773.7752,-248.8138 772.2395,-255.6433"/>
</g>
<!-- Node320902 -->
<g id="node11" class="node">
<title>Node320902</title>
<g id="a_node11"><a xlink:href="quickjs_8c.html#aed229eb80b3b03a2275471dee93c69d6" target="_top" xlink:title="js_dup_shape">
<polygon fill="none" stroke="#000000" points="1048,-224.4075 1048,-243.4075 1125,-243.4075 1125,-224.4075 1048,-224.4075"/>
<text text-anchor="middle" x="1086.5" y="-231.4075" font-family="Helvetica,sans-Serif" font-size="10.00" fill="#000000">js_dup_shape</text>
</a>
</g>
</g>
<!-- Node320897&#45;&gt;Node320902 -->
<g id="edge10" class="edge">
<title>Node320897&#45;&gt;Node320902</title>
<path fill="none" stroke="#191970" d="M693.1493,-215.3963C711.6727,-211.6311 733.815,-207.7625 754,-205.9075 854.8907,-196.6356 973.1172,-213.1009 1037.9037,-224.4647"/>
<polygon fill="#191970" stroke="#191970" points="1037.3719,-227.9251 1047.8319,-226.24 1038.6041,-221.0344 1037.3719,-227.9251"/>
</g>
<!-- Node320903 -->
<g id="node12" class="node">
<title>Node320903</title>
<g id="a_node12"><a xlink:href="quickjs_8c.html#ad6926e49955be5e10423f6df8d8cff3e" target="_top" xlink:title="js_new_shape">
<polygon fill="none" stroke="#ff0000" points="781,-215.4075 781,-234.4075 860,-234.4075 860,-215.4075 781,-215.4075"/>
<text text-anchor="middle" x="820.5" y="-222.4075" font-family="Helvetica,sans-Serif" font-size="10.00" fill="#000000">js_new_shape</text>
</a>
</g>
</g>
<!-- Node320897&#45;&gt;Node320903 -->
<g id="edge11" class="edge">
<title>Node320897&#45;&gt;Node320903</title>
<path fill="none" stroke="#191970" d="M717.3237,-224.9075C735.13,-224.9075 754.1009,-224.9075 770.8551,-224.9075"/>
<polygon fill="#191970" stroke="#191970" points="770.9704,-228.4076 780.9704,-224.9075 770.9703,-221.4076 770.9704,-228.4076"/>
</g>
<!-- Node320914 -->
<g id="node13" class="node">
<title>Node320914</title>
<g id="a_node13"><a xlink:href="quickjs_8c.html#a030c2e98b1775a7e3bdd13be1400b1fe" target="_top" xlink:title="JS_NewObjectFromShape">
<polygon fill="none" stroke="#ff0000" points="754,-139.4075 754,-158.4075 887,-158.4075 887,-139.4075 754,-139.4075"/>
<text text-anchor="middle" x="820.5" y="-146.4075" font-family="Helvetica,sans-Serif" font-size="10.00" fill="#000000">JS_NewObjectFromShape</text>
</a>
</g>
</g>
<!-- Node320897&#45;&gt;Node320914 -->
<g id="edge12" class="edge">
<title>Node320897&#45;&gt;Node320914</title>
<path fill="none" stroke="#191970" d="M668.9605,-215.2159C689.1118,-204.2278 723.4108,-186.1269 754,-172.9075 763.0311,-169.0046 772.9263,-165.1928 782.2591,-161.7978"/>
<polygon fill="#191970" stroke="#191970" points="783.4775,-165.0793 791.7214,-158.4243 781.1267,-158.4858 783.4775,-165.0793"/>
</g>
<!-- Node320914&#45;&gt;Node320866 -->
<g id="edge13" class="edge">
<title>Node320914&#45;&gt;Node320866</title>
<path fill="none" stroke="#191970" d="M887.1183,-140.2969C897.16,-138.999 907.3746,-137.6788 917.0033,-136.4342"/>
<polygon fill="#191970" stroke="#191970" points="917.717,-139.8712 927.1858,-135.1181 916.8196,-132.929 917.717,-139.8712"/>
</g>
<!-- Node320915 -->
<g id="node14" class="node">
<title>Node320915</title>
<g id="a_node14"><a xlink:href="quickjs_8c.html#a74547db03bf739a52c83a326b32db997" target="_top" xlink:title="add_property">
<polygon fill="none" stroke="#ff0000" points="931,-272.4075 931,-291.4075 1004,-291.4075 1004,-272.4075 931,-272.4075"/>
<text text-anchor="middle" x="967.5" y="-279.4075" font-family="Helvetica,sans-Serif" font-size="10.00" fill="#000000">add_property</text>
</a>
</g>
</g>
<!-- Node320914&#45;&gt;Node320915 -->
<g id="edge14" class="edge">
<title>Node320914&#45;&gt;Node320915</title>
<path fill="none" stroke="#191970" d="M831.9392,-158.4261C845.3045,-169.6131 868.0089,-188.8216 887,-205.9075 909.1449,-225.8308 933.9812,-249.4861 950.1335,-265.0523"/>
<polygon fill="#191970" stroke="#191970" points="948.1054,-267.9597 957.7283,-272.3925 952.9701,-262.9263 948.1054,-267.9597"/>
</g>
<!-- Node320920 -->
<g id="node15" class="node">
<title>Node320920</title>
<g id="a_node15"><a xlink:href="quickjs_8c.html#a80e54dcf9ac687d4ccc2f90273565f30" target="_top" xlink:title="js_free">
<polygon fill="none" stroke="#ff0000" points="944.5,-63.4075 944.5,-82.4075 990.5,-82.4075 990.5,-63.4075 944.5,-63.4075"/>
<text text-anchor="middle" x="967.5" y="-70.4075" font-family="Helvetica,sans-Serif" font-size="10.00" fill="#000000">js_free</text>
</a>
</g>
</g>
<!-- Node320914&#45;&gt;Node320920 -->
<g id="edge16" class="edge">
<title>Node320914&#45;&gt;Node320920</title>
<path fill="none" stroke="#191970" d="M839.1177,-139.282C864.6324,-126.0907 910.6474,-102.3007 940.0999,-87.0735"/>
<polygon fill="#191970" stroke="#191970" points="941.7579,-90.1565 949.0335,-82.4548 938.5431,-83.9383 941.7579,-90.1565"/>
</g>
<!-- Node320915&#45;&gt;Node320902 -->
<g id="edge15" class="edge">
<title>Node320915&#45;&gt;Node320902</title>
<path fill="none" stroke="#191970" d="M991.2954,-272.3093C1009.0506,-265.1476 1033.537,-255.2707 1053.2303,-247.3272"/>
<polygon fill="#191970" stroke="#191970" points="1054.7811,-250.4757 1062.7458,-243.489 1052.1625,-243.9839 1054.7811,-250.4757"/>
</g>
<!-- Node320939&#45;&gt;Node320896 -->
<g id="edge44" class="edge">
<title>Node320939&#45;&gt;Node320896</title>
<path fill="none" stroke="#191970" d="M205.4234,-381.6699C235.9344,-408.1651 325.7574,-480.9694 416,-503.9075 481.3695,-520.5233 559.9246,-507.9547 607.7564,-496.838"/>
<polygon fill="#191970" stroke="#191970" points="608.869,-500.1702 617.7718,-494.4264 607.2304,-493.3647 608.869,-500.1702"/>
</g>
<!-- Node320940 -->
<g id="node17" class="node">
<title>Node320940</title>
<g id="a_node17"><a xlink:href="quickjs_8c.html#ad12b6863ca31850fc39d208bb865420e" target="_top" xlink:title="js_build_module_ns">
<polygon fill="none" stroke="#000000" points="278,-324.4075 278,-343.4075 380,-343.4075 380,-324.4075 278,-324.4075"/>
<text text-anchor="middle" x="329" y="-331.4075" font-family="Helvetica,sans-Serif" font-size="10.00" fill="#000000">js_build_module_ns</text>
</a>
</g>
</g>
<!-- Node320939&#45;&gt;Node320940 -->
<g id="edge20" class="edge">
<title>Node320939&#45;&gt;Node320940</title>
<path fill="none" stroke="#191970" d="M228.44,-362.3185C245.7231,-357.4355 266.9329,-351.4432 285.4112,-346.2225"/>
<polygon fill="#191970" stroke="#191970" points="286.3992,-349.5805 295.0708,-343.4934 284.4959,-342.8442 286.3992,-349.5805"/>
</g>
<!-- Node320907 -->
<g id="node28" class="node">
<title>Node320907</title>
<g id="a_node28"><a xlink:href="quickjs_8h.html#a775522f2d084fc8fa0fcb33f390006b4" target="_top" xlink:title="JS_DupValue">
<polygon fill="none" stroke="#000000" points="290.5,-400.4075 290.5,-419.4075 367.5,-419.4075 367.5,-400.4075 290.5,-400.4075"/>
<text text-anchor="middle" x="329" y="-407.4075" font-family="Helvetica,sans-Serif" font-size="10.00" fill="#000000">JS_DupValue</text>
</a>
</g>
</g>
<!-- Node320939&#45;&gt;Node320907 -->
<g id="edge43" class="edge">
<title>Node320939&#45;&gt;Node320907</title>
<path fill="none" stroke="#191970" d="M228.44,-381.4965C245.7231,-386.3794 266.9329,-392.3718 285.4112,-397.5924"/>
<polygon fill="#191970" stroke="#191970" points="284.4959,-400.9708 295.0708,-400.3215 286.3992,-394.2345 284.4959,-400.9708"/>
</g>
<!-- Node321030 -->
<g id="node29" class="node">
<title>Node321030</title>
<g id="a_node29"><a xlink:href="quickjs_8h.html#a4e407128a9605afb77523e49e9a627fd" target="_top" xlink:title="JS_IsUndefined">
<polygon fill="none" stroke="#000000" points="286,-362.4075 286,-381.4075 372,-381.4075 372,-362.4075 286,-362.4075"/>
<text text-anchor="middle" x="329" y="-369.4075" font-family="Helvetica,sans-Serif" font-size="10.00" fill="#000000">JS_IsUndefined</text>
</a>
</g>
</g>
<!-- Node320939&#45;&gt;Node321030 -->
<g id="edge45" class="edge">
<title>Node320939&#45;&gt;Node321030</title>
<path fill="none" stroke="#191970" d="M242.2984,-371.9075C253.0556,-371.9075 264.5395,-371.9075 275.5125,-371.9075"/>
<polygon fill="#191970" stroke="#191970" points="275.8363,-375.4076 285.8363,-371.9075 275.8362,-368.4076 275.8363,-375.4076"/>
</g>
<!-- Node320940&#45;&gt;Node320869 -->
<g id="edge32" class="edge">
<title>Node320940&#45;&gt;Node320869</title>
<path fill="none" stroke="#191970" d="M368.6847,-343.5734C372.9955,-346.0158 376.9253,-349.0751 380,-352.9075 452.7279,-443.5564 330.7437,-532.9269 416,-611.9075 516.7288,-705.2217 698.9493,-670.794 779.88,-649.1566"/>
<polygon fill="#191970" stroke="#191970" points="780.9779,-652.4848 789.694,-646.4616 779.1242,-645.7347 780.9779,-652.4848"/>
</g>
<!-- Node320940&#45;&gt;Node320896 -->
<g id="edge33" class="edge">
<title>Node320940&#45;&gt;Node320896</title>
<path fill="none" stroke="#191970" d="M365.2839,-343.4208C370.6198,-345.9084 375.7435,-349.0213 380,-352.9075 407.3058,-377.8375 387.2584,-404.6474 416,-427.9075 430.1809,-439.3838 533.2764,-461.4794 598.2752,-474.5331"/>
<polygon fill="#191970" stroke="#191970" points="597.8687,-478.021 608.3606,-476.5475 599.2399,-471.1566 597.8687,-478.021"/>
</g>
<!-- Node320940&#45;&gt;Node320915 -->
<g id="edge21" class="edge">
<title>Node320940&#45;&gt;Node320915</title>
<path fill="none" stroke="#191970" d="M380.1223,-333.6958C424.7111,-333.5618 491.137,-333.4841 549,-333.9075 699.2241,-335.0066 743.4679,-381.2586 887,-336.9075 911.288,-329.4026 934.7845,-311.7735 950.0588,-298.4824"/>
<polygon fill="#191970" stroke="#191970" points="952.5682,-300.9324 957.6514,-291.6365 947.8807,-295.7335 952.5682,-300.9324"/>
</g>
<!-- Node320940&#45;&gt;Node320920 -->
<g id="edge31" class="edge">
<title>Node320940&#45;&gt;Node320920</title>
<path fill="none" stroke="#191970" d="M330.5018,-324.3289C335.8832,-293.2805 357.1141,-194.506 416,-143.9075 462.6275,-103.8421 490.7338,-125.5139 549,-105.9075 565.2708,-100.4324 568.2108,-95.4906 585,-91.9075 711.5774,-64.8938 866.8214,-67.9766 933.9471,-71.0047"/>
<polygon fill="#191970" stroke="#191970" points="934.1613,-74.519 944.3183,-71.5047 934.4985,-67.5271 934.1613,-74.519"/>
</g>
<!-- Node320941 -->
<g id="node18" class="node">
<title>Node320941</title>
<g id="a_node18"><a xlink:href="quickjs_8c.html#a67722ecb9c3fc3e80401d8649829ff04" target="_top" xlink:title="exported_names_cmp">
<polygon fill="none" stroke="#000000" points="426,-343.4075 426,-362.4075 539,-362.4075 539,-343.4075 426,-343.4075"/>
<text text-anchor="middle" x="482.5" y="-350.4075" font-family="Helvetica,sans-Serif" font-size="10.00" fill="#000000">exported_names_cmp</text>
</a>
</g>
</g>
<!-- Node320940&#45;&gt;Node320941 -->
<g id="edge22" class="edge">
<title>Node320940&#45;&gt;Node320941</title>
<path fill="none" stroke="#191970" d="M380.1133,-340.2342C391.56,-341.6511 403.8663,-343.1743 415.8393,-344.6563"/>
<polygon fill="#191970" stroke="#191970" points="415.4378,-348.1332 425.792,-345.8882 416.2977,-341.1862 415.4378,-348.1332"/>
</g>
<!-- Node320942 -->
<g id="node19" class="node">
<title>Node320942</title>
<g id="a_node19"><a xlink:href="quickjs_8c.html#a51fe964c0b48eb3191aec8c98e73e4c6" target="_top" xlink:title="get_exported_names">
<polygon fill="none" stroke="#ff0000" points="429,-381.4075 429,-400.4075 536,-400.4075 536,-381.4075 429,-381.4075"/>
<text text-anchor="middle" x="482.5" y="-388.4075" font-family="Helvetica,sans-Serif" font-size="10.00" fill="#000000">get_exported_names</text>
</a>
</g>
</g>
<!-- Node320940&#45;&gt;Node320942 -->
<g id="edge24" class="edge">
<title>Node320940&#45;&gt;Node320942</title>
<path fill="none" stroke="#191970" d="M356.5245,-343.4224C364.2047,-346.2764 372.4979,-349.5471 380,-352.9075 396.511,-360.3031 399.2121,-365.164 416,-371.9075 421.8495,-374.2571 428.0965,-376.4421 434.3321,-378.4312"/>
<polygon fill="#191970" stroke="#191970" points="433.4768,-381.8294 444.0626,-381.3912 435.5141,-375.1323 433.4768,-381.8294"/>
</g>
<!-- Node320947 -->
<g id="node20" class="node">
<title>Node320947</title>
<g id="a_node20"><a xlink:href="quickjs_8c.html#a260bfa297ff6cb5bd18e229afaa54663" target="_top" xlink:title="JS_AtomToString">
<polygon fill="none" stroke="#ff0000" points="435.5,-191.4075 435.5,-210.4075 529.5,-210.4075 529.5,-191.4075 435.5,-191.4075"/>
<text text-anchor="middle" x="482.5" y="-198.4075" font-family="Helvetica,sans-Serif" font-size="10.00" fill="#000000">JS_AtomToString</text>
</a>
</g>
</g>
<!-- Node320940&#45;&gt;Node320947 -->
<g id="edge26" class="edge">
<title>Node320940&#45;&gt;Node320947</title>
<path fill="none" stroke="#191970" d="M333.5971,-324.2873C344.6034,-302.3017 374.6591,-248.1062 416,-219.9075 419.1091,-217.7868 422.4537,-215.9005 425.9296,-214.2231"/>
<polygon fill="#191970" stroke="#191970" points="427.5053,-217.3574 435.3655,-210.2532 424.7907,-210.9052 427.5053,-217.3574"/>
</g>
<!-- Node320968 -->
<g id="node21" class="node">
<title>Node320968</title>
<g id="a_node21"><a xlink:href="quickjs_8c.html#a890d1a6c1f9caba99361758df8cacb2c" target="_top" xlink:title="JS_DefineAutoInitProperty">
<polygon fill="none" stroke="#ff0000" points="585,-281.4075 585,-300.4075 718,-300.4075 718,-281.4075 585,-281.4075"/>
<text text-anchor="middle" x="651.5" y="-288.4075" font-family="Helvetica,sans-Serif" font-size="10.00" fill="#000000">JS_DefineAutoInitProperty</text>
</a>
</g>
</g>
<!-- Node320940&#45;&gt;Node320968 -->
<g id="edge27" class="edge">
<title>Node320940&#45;&gt;Node320968</title>
<path fill="none" stroke="#191970" d="M348.8424,-324.2827C366.1304,-316.4129 392.1055,-305.8131 416,-300.9075 468.1746,-290.1958 528.171,-287.7913 574.5488,-288.0158"/>
<polygon fill="#191970" stroke="#191970" points="574.797,-291.5181 584.8285,-288.1093 574.8608,-284.5184 574.797,-291.5181"/>
</g>
<!-- Node320970 -->
<g id="node22" class="node">
<title>Node320970</title>
<g id="a_node22"><a xlink:href="quickjs_8c.html#a0a8765bd4012467d9139bc24aabcb3ca" target="_top" xlink:title="JS_DefinePropertyValue">
<polygon fill="none" stroke="#ff0000" points="589.5,-589.4075 589.5,-608.4075 713.5,-608.4075 713.5,-589.4075 589.5,-589.4075"/>
<text text-anchor="middle" x="651.5" y="-596.4075" font-family="Helvetica,sans-Serif" font-size="10.00" fill="#000000">JS_DefinePropertyValue</text>
</a>
</g>
</g>
<!-- Node320940&#45;&gt;Node320970 -->
<g id="edge29" class="edge">
<title>Node320940&#45;&gt;Node320970</title>
<path fill="none" stroke="#191970" d="M368.3653,-343.4902C372.7848,-345.9463 376.8289,-349.0317 380,-352.9075 444.685,-431.9671 341.0504,-510.502 416,-579.9075 466.4688,-626.643 551.8689,-620.3031 604.7813,-610.3681"/>
<polygon fill="#191970" stroke="#191970" points="605.4648,-613.8008 614.5889,-608.4157 604.098,-606.9355 605.4648,-613.8008"/>
</g>
<!-- Node321273 -->
<g id="node23" class="node">
<title>Node321273</title>
<g id="a_node23"><a xlink:href="quickjs_8c.html#ac2e14175ed369e3592e333f538802098" target="_top" xlink:title="js_module_ns_autoinit">
<polygon fill="none" stroke="#000000" points="426,-551.4075 426,-570.4075 539,-570.4075 539,-551.4075 426,-551.4075"/>
<text text-anchor="middle" x="482.5" y="-558.4075" font-family="Helvetica,sans-Serif" font-size="10.00" fill="#000000">js_module_ns_autoinit</text>
</a>
</g>
</g>
<!-- Node320940&#45;&gt;Node321273 -->
<g id="edge34" class="edge">
<title>Node320940&#45;&gt;Node321273</title>
<path fill="none" stroke="#191970" d="M367.5824,-343.4538C372.2399,-345.9175 376.5573,-349.0146 380,-352.9075 425.705,-404.5887 380.0502,-445.0219 416,-503.9075 426.3672,-520.8889 443.5088,-535.4018 457.7916,-545.5335"/>
<polygon fill="#191970" stroke="#191970" points="455.989,-548.54 466.2292,-551.2587 459.9194,-542.7476 455.989,-548.54"/>
</g>
<!-- Node321106 -->
<g id="node24" class="node">
<title>Node321106</title>
<g id="a_node24"><a xlink:href="quickjs_8c.html#a659dc0db7e440fd6eb012d613627faa3" target="_top" xlink:title="JS_NewObjectClass">
<polygon fill="none" stroke="#000000" points="428.5,-229.4075 428.5,-248.4075 536.5,-248.4075 536.5,-229.4075 428.5,-229.4075"/>
<text text-anchor="middle" x="482.5" y="-236.4075" font-family="Helvetica,sans-Serif" font-size="10.00" fill="#000000">JS_NewObjectClass</text>
</a>
</g>
</g>
<!-- Node320940&#45;&gt;Node321106 -->
<g id="edge37" class="edge">
<title>Node320940&#45;&gt;Node321106</title>
<path fill="none" stroke="#191970" d="M338.6159,-324.1699C353.8392,-309.2175 384.958,-280.4924 416,-262.9075 423.2887,-258.7785 431.4177,-255.1452 439.4208,-252.0369"/>
<polygon fill="#191970" stroke="#191970" points="440.8694,-255.2337 449.0554,-248.5077 438.4617,-248.6608 440.8694,-255.2337"/>
</g>
<!-- Node320940&#45;&gt;Node321274 -->
<g id="edge39" class="edge">
<title>Node320940&#45;&gt;Node321274</title>
<path fill="none" stroke="#191970" d="M329.9459,-324.3404C333.8126,-290.3161 351.422,-173.8519 416,-110.9075 420.0651,-106.9452 424.832,-103.6312 429.9142,-100.8606"/>
<polygon fill="#191970" stroke="#191970" points="431.7596,-103.8606 439.3196,-96.4379 428.7808,-97.526 431.7596,-103.8606"/>
</g>
<!-- Node320940&#45;&gt;Node321279 -->
<g id="edge41" class="edge">
<title>Node320940&#45;&gt;Node321279</title>
<path fill="none" stroke="#191970" d="M329.2919,-324.1868C330.9573,-286.0707 342.0765,-145.1182 416,-67.9075 417.3754,-66.4709 418.8414,-65.1161 420.3811,-63.8385"/>
<polygon fill="#191970" stroke="#191970" points="422.4319,-66.6753 428.6157,-58.0723 418.4167,-60.9413 422.4319,-66.6753"/>
</g>
<!-- Node321172 -->
<g id="node27" class="node">
<title>Node321172</title>
<g id="a_node27"><a xlink:href="cutils_8h.html#abafeb6aa16de4471d569ea841ec2d443" target="_top" xlink:title="rqsort">
<polygon fill="none" stroke="#000000" points="462,-475.4075 462,-494.4075 503,-494.4075 503,-475.4075 462,-475.4075"/>
<text text-anchor="middle" x="482.5" y="-482.4075" font-family="Helvetica,sans-Serif" font-size="10.00" fill="#000000">rqsort</text>
</a>
</g>
</g>
<!-- Node320940&#45;&gt;Node321172 -->
<g id="edge42" class="edge">
<title>Node320940&#45;&gt;Node321172</title>
<path fill="none" stroke="#191970" d="M366.7586,-343.4782C371.6551,-345.9425 376.2587,-349.0334 380,-352.9075 415.1479,-389.3029 380.6657,-424.693 416,-460.9075 425.6042,-470.751 439.5404,-476.5754 452.1767,-480.0132"/>
<polygon fill="#191970" stroke="#191970" points="451.3904,-483.4237 461.9244,-482.2898 452.9825,-476.6071 451.3904,-483.4237"/>
</g>
<!-- Node320941&#45;&gt;Node320896 -->
<g id="edge23" class="edge">
<title>Node320941&#45;&gt;Node320896</title>
<path fill="none" stroke="#191970" d="M533.9302,-362.4961C539.3961,-364.954 544.5679,-368.0382 549,-371.9075 578.9836,-398.0835 557.1745,-425.448 585,-453.9075 592.0058,-461.0729 600.986,-466.7619 610.0654,-471.2053"/>
<polygon fill="#191970" stroke="#191970" points="608.925,-474.5286 619.4844,-475.3945 611.7697,-468.1327 608.925,-474.5286"/>
</g>
<!-- Node320942&#45;&gt;Node320942 -->
<g id="edge25" class="edge">
<title>Node320942&#45;&gt;Node320942</title>
<path fill="none" stroke="#191970" d="M459.0724,-400.6645C447.6752,-409.4727 455.4844,-418.9075 482.5,-418.9075 500.229,-418.9075 509.6865,-414.8443 510.8725,-409.5614"/>
<polygon fill="#191970" stroke="#191970" points="513.8449,-407.7049 505.9276,-400.6645 507.7265,-411.1056 513.8449,-407.7049"/>
</g>
<!-- Node320968&#45;&gt;Node320915 -->
<g id="edge28" class="edge">
<title>Node320968&#45;&gt;Node320915</title>
<path fill="none" stroke="#191970" d="M677.6192,-300.4573C698.0827,-307.4081 727.4386,-316.2223 754,-319.9075 812.5503,-328.0308 829.3203,-332.8372 887,-319.9075 907.1063,-315.4004 928.1047,-305.2806 943.6122,-296.617"/>
<polygon fill="#191970" stroke="#191970" points="945.5982,-299.5116 952.5011,-291.4741 942.0926,-293.4526 945.5982,-299.5116"/>
</g>
<!-- Node320970&#45;&gt;Node320869 -->
<g id="edge30" class="edge">
<title>Node320970&#45;&gt;Node320869</title>
<path fill="none" stroke="#191970" d="M694.1458,-608.4965C717.694,-613.7913 747.0437,-620.3907 771.5279,-625.896"/>
<polygon fill="#191970" stroke="#191970" points="770.8189,-629.3239 781.3431,-628.103 772.3545,-622.4944 770.8189,-629.3239"/>
</g>
<!-- Node321273&#45;&gt;Node320896 -->
<g id="edge36" class="edge">
<title>Node321273&#45;&gt;Node320896</title>
<path fill="none" stroke="#191970" d="M511.2786,-551.3906C523.0949,-547.2592 536.8317,-542.1661 549,-536.9075 575.4071,-525.4954 604.5789,-510.4454 625.0266,-499.4741"/>
<polygon fill="#191970" stroke="#191970" points="626.9089,-502.4352 634.0395,-494.5991 623.5786,-496.2782 626.9089,-502.4352"/>
</g>
<!-- Node321273&#45;&gt;Node320970 -->
<g id="edge35" class="edge">
<title>Node321273&#45;&gt;Node320970</title>
<path fill="none" stroke="#191970" d="M525.1458,-570.4965C547.6481,-575.5562 575.4482,-581.8071 599.2379,-587.1562"/>
<polygon fill="#191970" stroke="#191970" points="598.6366,-590.6083 609.1608,-589.3874 600.1723,-583.7789 598.6366,-590.6083"/>
</g>
<!-- Node321106&#45;&gt;Node320897 -->
<g id="edge38" class="edge">
<title>Node321106&#45;&gt;Node320897</title>
<path fill="none" stroke="#191970" d="M536.9029,-234.4007C549.3595,-233.3688 562.8198,-232.2538 575.9858,-231.1631"/>
<polygon fill="#191970" stroke="#191970" points="576.2981,-234.6493 585.975,-230.3356 575.7202,-227.6732 576.2981,-234.6493"/>
</g>
<!-- Node321274&#45;&gt;Node320920 -->
<g id="edge40" class="edge">
<title>Node321274&#45;&gt;Node320920</title>
<path fill="none" stroke="#191970" d="M515.7972,-77.3364C542.9903,-69.5996 578.0294,-59.8424 585,-58.9075 718.0309,-41.0643 753.2749,-47.3658 887,-58.9075 902.6942,-60.262 919.9199,-63.0757 934.3954,-65.8278"/>
<polygon fill="#191970" stroke="#191970" points="933.9002,-69.2974 944.3885,-67.799 935.255,-62.4298 933.9002,-69.2974"/>
</g>
<!-- Node321063&#45;&gt;Node320869 -->
<g id="edge51" class="edge">
<title>Node321063&#45;&gt;Node320869</title>
<path fill="none" stroke="#191970" d="M224.2649,-714.7712C305.0307,-719.0572 534.5588,-726.1029 718,-681.9075 745.4021,-675.3056 774.6539,-661.7411 794.8648,-651.2219"/>
<polygon fill="#191970" stroke="#191970" points="796.5628,-654.2831 803.7437,-646.493 793.2721,-648.1047 796.5628,-654.2831"/>
</g>
</g>
</svg>
        <g id="navigator" transform="translate(0 0)" fill="#404254">
                <rect fill="#f2f5e9" fill-opacity="0.5" stroke="#606060" stroke-width=".5" x="0" y="0" width="60" height="60"/>
                <use id="zoomplus" xlink:href="#zoomPlus" x="17" y="9" onmousedown="handleZoom(evt,'in')"/>
                <use id="zoomminus" xlink:href="#zoomMin" x="42" y="9" onmousedown="handleZoom(evt,'out')"/>
                <use id="reset" xlink:href="#resetDef" x="30" y="36" onmousedown="handleReset()"/>
                <g id="arrowUp" xlink:href="#dirArrow" transform="translate(30 24)" onmousedown="handlePan(0,-1)">
                  <use xlink:href="#rim" fill="#404040">
                        <set attributeName="fill" to="#808080" begin="arrowUp.mouseover" end="arrowUp.mouseout"/>
                  </use>
                  <path fill="none" stroke="white" stroke-width="1.5" d="M0,-3.0v7 M-2.5,-0.5L0,-3.0L2.5,-0.5"/>
                </g>
                <g id="arrowRight" xlink:href="#dirArrow" transform="rotate(90) translate(36 -43)" onmousedown="handlePan(1,0)">
                  <use xlink:href="#rim" fill="#404040">
                        <set attributeName="fill" to="#808080" begin="arrowRight.mouseover" end="arrowRight.mouseout"/>
                  </use>
                  <path fill="none" stroke="white" stroke-width="1.5" d="M0,-3.0v7 M-2.5,-0.5L0,-3.0L2.5,-0.5"/>
                </g>
                <g id="arrowDown" xlink:href="#dirArrow" transform="rotate(180) translate(-30 -48)" onmousedown="handlePan(0,1)">
                  <use xlink:href="#rim" fill="#404040">
                        <set attributeName="fill" to="#808080" begin="arrowDown.mouseover" end="arrowDown.mouseout"/>
                  </use>
                  <path fill="none" stroke="white" stroke-width="1.5" d="M0,-3.0v7 M-2.5,-0.5L0,-3.0L2.5,-0.5"/>
                </g>
                <g id="arrowLeft" xlink:href="#dirArrow" transform="rotate(270) translate(-36 17)" onmousedown="handlePan(-1,0)">
                  <use xlink:href="#rim" fill="#404040">
                        <set attributeName="fill" to="#808080" begin="arrowLeft.mouseover" end="arrowLeft.mouseout"/>
                  </use>
                  <path fill="none" stroke="white" stroke-width="1.5" d="M0,-3.0v7 M-2.5,-0.5L0,-3.0L2.5,-0.5"/>
                </g>
        </g>
        <svg viewBox="0 0 15 15" width="100%" height="30px" preserveAspectRatio="xMaxYMin meet">
         <g id="arrow_out" transform="scale(0.3 0.3)">
          <a xlink:href="quickjs_8c_a89e4f0ec49cdd0029ab50c0509ccc445_cgraph_org.svg" target="_base">
           <rect id="button" ry="5" rx="5" y="6" x="6" height="38" width="38"
                fill="#f2f5e9" fill-opacity="0.5" stroke="#606060" stroke-width="1.0"/>
           <path id="arrow"
             d="M 11.500037,31.436501 C 11.940474,20.09759 22.043105,11.32322 32.158766,21.979434 L 37.068811,17.246167 C 37.068811,17.246167 37.088388,32 37.088388,32 L 22.160133,31.978069 C 22.160133,31.978069 26.997745,27.140456 26.997745,27.140456 C 18.528582,18.264221 13.291696,25.230495 11.500037,31.436501 z"
             style="fill:#404040;"/>
          </a>
         </g>
        </svg>
</svg>
