<?xml version="1.0" encoding="UTF-8" standalone="no"?>
<!DOCTYPE svg PUBLIC "-//W3C//DTD SVG 1.1//EN"
 "http://www.w3.org/Graphics/SVG/1.1/DTD/svg11.dtd">
<!-- Generated by graphviz version 2.40.1 (20161225.0304)
 -->
<!-- Title: JS_ToBoolFree Pages: 1 -->
<!--zoomable 1008 -->
<svg id="main" version="1.1" xmlns="http://www.w3.org/2000/svg" xmlns:xlink="http://www.w3.org/1999/xlink" xml:space="preserve" onload="init(evt)">
<style type="text/css"><![CDATA[
.edge:hover path { stroke: red; }
.edge:hover polygon { stroke: red; fill: red; }
]]></style>
<script type="text/javascript"><![CDATA[
var edges = document.getElementsByTagName('g');
if (edges && edges.length) {
  for (var i=0;i<edges.length;i++) {
    if (edges[i].id.substr(0,4)=='edge') {
      edges[i].setAttribute('class','edge');
    }
  }
}
]]></script>
        <defs>
                <circle id="rim" cx="0" cy="0" r="7"/>
                <circle id="rim2" cx="0" cy="0" r="3.5"/>
                <g id="zoomPlus">
                        <use xlink:href="#rim" fill="#404040">
                                <set attributeName="fill" to="#808080" begin="zoomplus.mouseover" end="zoomplus.mouseout"/>
                        </use>
                        <path d="M-4,0h8M0,-4v8" fill="none" stroke="white" stroke-width="1.5" pointer-events="none"/>
                </g>
                <g id="zoomMin">
                        <use xlink:href="#rim" fill="#404040">
                                <set attributeName="fill" to="#808080" begin="zoomminus.mouseover" end="zoomminus.mouseout"/>
                        </use>
                        <path d="M-4,0h8" fill="none" stroke="white" stroke-width="1.5" pointer-events="none"/>
                </g>
                <g id="dirArrow">
                        <path fill="none" stroke="white" stroke-width="1.5" d="M0,-3.0v7 M-2.5,-0.5L0,-3.0L2.5,-0.5"/>
                </g>
               <g id="resetDef">
                       <use xlink:href="#rim2" fill="#404040">
                               <set attributeName="fill" to="#808080" begin="reset.mouseover" end="reset.mouseout"/>
                       </use>
               </g>
        </defs>

<script type="text/javascript">
var viewWidth = 538;
var viewHeight = 1008;
var sectionId = 'dynsection-664';
</script>
<script xlink:href="svgpan.js"/>
<svg id="graph" class="graph">
<g id="viewport">
<title>JS_ToBoolFree</title>
<!-- Node232207 -->
<g id="node1" class="node">
<title>Node232207</title>
<polygon fill="#bfbfbf" stroke="#000000" points="0,-468.5 0,-487.5 84,-487.5 84,-468.5 0,-468.5"/>
<text text-anchor="middle" x="42" y="-475.5" font-family="Helvetica,sans-Serif" font-size="10.00" fill="#000000">JS_ToBoolFree</text>
</g>
<!-- Node232208 -->
<g id="node2" class="node">
<title>Node232208</title>
<g id="a_node2"><a xlink:href="quickjs_8c.html#aa0bbf08a7e91459c68a312fba7016c6d" target="_top" xlink:title="js_array_every">
<polygon fill="none" stroke="#000000" points="153.5,-942.5 153.5,-961.5 233.5,-961.5 233.5,-942.5 153.5,-942.5"/>
<text text-anchor="middle" x="193.5" y="-949.5" font-family="Helvetica,sans-Serif" font-size="10.00" fill="#000000">js_array_every</text>
</a>
</g>
</g>
<!-- Node232207&#45;&gt;Node232208 -->
<g id="edge1" class="edge">
<title>Node232207&#45;&gt;Node232208</title>
<path fill="none" stroke="#191970" d="M42.6265,-497.911C45.5203,-577.0165 60.1317,-867.9321 120,-933 128.567,-942.3111 141.0447,-947.3107 153.2954,-949.9231"/>
<polygon fill="#191970" stroke="#191970" points="46.1215,-497.7027 42.2806,-487.8287 39.1256,-497.9428 46.1215,-497.7027"/>
</g>
<!-- Node232209 -->
<g id="node3" class="node">
<title>Node232209</title>
<g id="a_node3"><a xlink:href="quickjs_8c.html#a9dd41b086da4e13b3487cc9c6e2af2b8" target="_top" xlink:title="js_array_find">
<polygon fill="none" stroke="#000000" points="157.5,-904.5 157.5,-923.5 229.5,-923.5 229.5,-904.5 157.5,-904.5"/>
<text text-anchor="middle" x="193.5" y="-911.5" font-family="Helvetica,sans-Serif" font-size="10.00" fill="#000000">js_array_find</text>
</a>
</g>
</g>
<!-- Node232207&#45;&gt;Node232209 -->
<g id="edge2" class="edge">
<title>Node232207&#45;&gt;Node232209</title>
<path fill="none" stroke="#191970" d="M42.9784,-498.1321C47.0371,-573.2855 64.9976,-836.1212 120,-895 129.537,-905.2091 143.7775,-910.2213 157.1915,-912.59"/>
<polygon fill="#191970" stroke="#191970" points="46.453,-497.5484 42.4428,-487.7418 39.4623,-497.9088 46.453,-497.5484"/>
</g>
<!-- Node232210 -->
<g id="node4" class="node">
<title>Node232210</title>
<g id="a_node4"><a xlink:href="quickjs_8c.html#a889efc20a73ccb17d8fdfa84ab9f23c5" target="_top" xlink:title="js_call_binary_op_fallback">
<polygon fill="none" stroke="#ff0000" points="128,-866.5 128,-885.5 259,-885.5 259,-866.5 128,-866.5"/>
<text text-anchor="middle" x="193.5" y="-873.5" font-family="Helvetica,sans-Serif" font-size="10.00" fill="#000000">js_call_binary_op_fallback</text>
</a>
</g>
</g>
<!-- Node232207&#45;&gt;Node232210 -->
<g id="edge3" class="edge">
<title>Node232207&#45;&gt;Node232210</title>
<path fill="none" stroke="#191970" d="M43.5424,-497.7359C49.3424,-567.1019 72.0041,-798.4109 120,-852 125.6421,-858.2996 132.9585,-862.952 140.7835,-866.3866"/>
<polygon fill="#191970" stroke="#191970" points="47.0267,-497.3994 42.7291,-487.7153 40.0497,-497.9657 47.0267,-497.3994"/>
</g>
<!-- Node232216 -->
<g id="node8" class="node">
<title>Node232216</title>
<g id="a_node8"><a xlink:href="quickjs_8c.html#ac2894ff4edcdb4e6841bcce9c76081e3" target="_top" xlink:title="JS_CallInternal">
<polygon fill="none" stroke="#ff0000" points="447,-828.5 447,-847.5 530,-847.5 530,-828.5 447,-828.5"/>
<text text-anchor="middle" x="488.5" y="-835.5" font-family="Helvetica,sans-Serif" font-size="10.00" fill="#000000">JS_CallInternal</text>
</a>
</g>
</g>
<!-- Node232207&#45;&gt;Node232216 -->
<g id="edge10" class="edge">
<title>Node232207&#45;&gt;Node232216</title>
<path fill="none" stroke="#191970" d="M43.5919,-497.7467C49.3044,-563.2224 71.0848,-771.3889 120,-813 168.1697,-853.9769 360.8811,-846.6498 446.7956,-841.1287"/>
<polygon fill="#191970" stroke="#191970" points="47.0612,-497.234 42.7343,-487.563 40.0859,-497.8215 47.0612,-497.234"/>
</g>
<!-- Node232801 -->
<g id="node10" class="node">
<title>Node232801</title>
<g id="a_node10"><a xlink:href="quickjs_8c.html#a4bc21a37de9a904eb78a57afc1067eb9" target="_top" xlink:title="js_has_unscopable">
<polygon fill="none" stroke="#000000" points="307,-790.5 307,-809.5 407,-809.5 407,-790.5 307,-790.5"/>
<text text-anchor="middle" x="357" y="-797.5" font-family="Helvetica,sans-Serif" font-size="10.00" fill="#000000">js_has_unscopable</text>
</a>
</g>
</g>
<!-- Node232207&#45;&gt;Node232801 -->
<g id="edge11" class="edge">
<title>Node232207&#45;&gt;Node232801</title>
<path fill="none" stroke="#191970" d="M44.137,-497.8065C51.1807,-559.1007 75.7767,-743.7951 120,-781 175.1184,-827.3709 265.2132,-819.3533 316.9918,-809.5485"/>
<polygon fill="#191970" stroke="#191970" points="47.5817,-497.1153 42.9933,-487.5656 40.6249,-497.8923 47.5817,-497.1153"/>
</g>
<!-- Node232819 -->
<g id="node11" class="node">
<title>Node232819</title>
<g id="a_node11"><a xlink:href="quickjs_8c.html#a34780713146b6995321c8880802b7d9d" target="_top" xlink:title="js_is_regexp">
<polygon fill="none" stroke="#ff0000" points="158,-752.5 158,-771.5 229,-771.5 229,-752.5 158,-752.5"/>
<text text-anchor="middle" x="193.5" y="-759.5" font-family="Helvetica,sans-Serif" font-size="10.00" fill="#000000">js_is_regexp</text>
</a>
</g>
</g>
<!-- Node232207&#45;&gt;Node232819 -->
<g id="edge13" class="edge">
<title>Node232207&#45;&gt;Node232819</title>
<path fill="none" stroke="#191970" d="M45.203,-497.547C54.6273,-552.7456 83.8803,-708.0632 120,-743 130.0418,-752.713 144.3692,-757.6399 157.7114,-760.0789"/>
<polygon fill="#191970" stroke="#191970" points="48.6469,-496.92 43.5418,-487.6362 41.7432,-498.0773 48.6469,-496.92"/>
</g>
<!-- Node232818 -->
<g id="node12" class="node">
<title>Node232818</title>
<g id="a_node12"><a xlink:href="quickjs_8c.html#a8c41d5cf05e42294d414a1ac8b069874" target="_top" xlink:title="JS_isConcatSpreadable">
<polygon fill="none" stroke="#ff0000" points="132.5,-714.5 132.5,-733.5 254.5,-733.5 254.5,-714.5 132.5,-714.5"/>
<text text-anchor="middle" x="193.5" y="-721.5" font-family="Helvetica,sans-Serif" font-size="10.00" fill="#000000">JS_isConcatSpreadable</text>
</a>
</g>
</g>
<!-- Node232207&#45;&gt;Node232818 -->
<g id="edge14" class="edge">
<title>Node232207&#45;&gt;Node232818</title>
<path fill="none" stroke="#191970" d="M46.2398,-497.6261C57.3386,-547.2636 88.5671,-675.9282 120,-705 124.1606,-708.8481 128.9972,-711.9395 134.1654,-714.4199"/>
<polygon fill="#191970" stroke="#191970" points="49.5897,-496.5635 44.022,-487.5496 42.7534,-498.0682 49.5897,-496.5635"/>
</g>
<!-- Node232544 -->
<g id="node13" class="node">
<title>Node232544</title>
<g id="a_node13"><a xlink:href="quickjs_8c.html#af4cd70eee97bbcab2d0f2e46cf53ccd7" target="_top" xlink:title="JS_IsInstanceOf">
<polygon fill="none" stroke="#ff0000" points="148.5,-676.5 148.5,-695.5 238.5,-695.5 238.5,-676.5 148.5,-676.5"/>
<text text-anchor="middle" x="193.5" y="-683.5" font-family="Helvetica,sans-Serif" font-size="10.00" fill="#000000">JS_IsInstanceOf</text>
</a>
</g>
</g>
<!-- Node232207&#45;&gt;Node232544 -->
<g id="edge15" class="edge">
<title>Node232207&#45;&gt;Node232544</title>
<path fill="none" stroke="#191970" d="M44.3741,-497.9696C50.0566,-536.6175 68.0711,-621.8048 120,-667 127.9535,-673.9221 138.1138,-678.3734 148.3249,-681.2221"/>
<polygon fill="#191970" stroke="#191970" points="47.7774,-497.0131 42.9826,-487.5654 40.8392,-497.9411 47.7774,-497.0131"/>
</g>
<!-- Node232803 -->
<g id="node14" class="node">
<title>Node232803</title>
<g id="a_node14"><a xlink:href="quickjs_8c.html#af06df4433030f12453c5980514fa461d" target="_top" xlink:title="JS_IteratorGetCompleteValue">
<polygon fill="none" stroke="#ff0000" points="120,-638.5 120,-657.5 267,-657.5 267,-638.5 120,-638.5"/>
<text text-anchor="middle" x="193.5" y="-645.5" font-family="Helvetica,sans-Serif" font-size="10.00" fill="#000000">JS_IteratorGetCompleteValue</text>
</a>
</g>
</g>
<!-- Node232207&#45;&gt;Node232803 -->
<g id="edge16" class="edge">
<title>Node232207&#45;&gt;Node232803</title>
<path fill="none" stroke="#191970" d="M46.5511,-497.5178C55.1411,-529.9071 76.8807,-594.5937 120,-629 124.842,-632.8636 130.3835,-635.9489 136.2045,-638.4116"/>
<polygon fill="#191970" stroke="#191970" points="49.87,-496.3625 44.0477,-487.5109 43.0793,-498.0614 49.87,-496.3625"/>
</g>
<!-- Node232254 -->
<g id="node15" class="node">
<title>Node232254</title>
<g id="a_node15"><a xlink:href="quickjs_8c.html#a44f6eee98516c994a594533cfa8618ed" target="_top" xlink:title="JS_IteratorNext">
<polygon fill="none" stroke="#ff0000" points="150.5,-600.5 150.5,-619.5 236.5,-619.5 236.5,-600.5 150.5,-600.5"/>
<text text-anchor="middle" x="193.5" y="-607.5" font-family="Helvetica,sans-Serif" font-size="10.00" fill="#000000">JS_IteratorNext</text>
</a>
</g>
</g>
<!-- Node232207&#45;&gt;Node232254 -->
<g id="edge17" class="edge">
<title>Node232207&#45;&gt;Node232254</title>
<path fill="none" stroke="#191970" d="M49.8845,-496.8841C61.4576,-522.2392 85.4781,-566.8823 120,-591 128.9676,-597.265 139.8465,-601.4647 150.4546,-604.2799"/>
<polygon fill="#191970" stroke="#191970" points="53.0372,-495.3583 45.8149,-487.6065 46.6268,-498.1702 53.0372,-495.3583"/>
</g>
<!-- Node232275 -->
<g id="node16" class="node">
<title>Node232275</title>
<g id="a_node16"><a xlink:href="quickjs_8c.html#a60d84dd116a9d7d912d08f298a4734dd" target="_top" xlink:title="js_json_to_str">
<polygon fill="none" stroke="#000000" points="155,-544.5 155,-563.5 232,-563.5 232,-544.5 155,-544.5"/>
<text text-anchor="middle" x="193.5" y="-551.5" font-family="Helvetica,sans-Serif" font-size="10.00" fill="#000000">js_json_to_str</text>
</a>
</g>
</g>
<!-- Node232207&#45;&gt;Node232275 -->
<g id="edge18" class="edge">
<title>Node232207&#45;&gt;Node232275</title>
<path fill="none" stroke="#191970" d="M62.2228,-493.7228C77.4501,-504.9914 99.1923,-519.9023 120,-530 131.835,-535.7434 145.3799,-540.6066 157.5912,-544.4218"/>
<polygon fill="#191970" stroke="#191970" points="64.1581,-490.7986 54.0663,-487.5727 59.9438,-496.3878 64.1581,-490.7986"/>
</g>
<!-- Node232276 -->
<g id="node17" class="node">
<title>Node232276</title>
<g id="a_node17"><a xlink:href="quickjs_8c.html#a343a343b16bc3c9875050e99ee0d2884" target="_top" xlink:title="JS_JSONStringify">
<polygon fill="none" stroke="#ff0000" points="308.5,-525.5 308.5,-544.5 405.5,-544.5 405.5,-525.5 308.5,-525.5"/>
<text text-anchor="middle" x="357" y="-532.5" font-family="Helvetica,sans-Serif" font-size="10.00" fill="#000000">JS_JSONStringify</text>
</a>
</g>
</g>
<!-- Node232207&#45;&gt;Node232276 -->
<g id="edge21" class="edge">
<title>Node232207&#45;&gt;Node232276</title>
<path fill="none" stroke="#191970" d="M88.7816,-490.0392C99.034,-492.4973 109.8555,-494.9546 120,-497 184.7461,-510.0546 260.1688,-521.5107 308.2279,-528.3434"/>
<polygon fill="#191970" stroke="#191970" points="89.3097,-486.5655 78.7651,-487.596 87.6509,-493.3661 89.3097,-486.5655"/>
</g>
<!-- Node232562 -->
<g id="node18" class="node">
<title>Node232562</title>
<g id="a_node18"><a xlink:href="quickjs_8c.html#a26ceb6b90296d2572803b252df73cded" target="_top" xlink:title="js_obj_to_desc">
<polygon fill="none" stroke="#ff0000" points="152.5,-468.5 152.5,-487.5 234.5,-487.5 234.5,-468.5 152.5,-468.5"/>
<text text-anchor="middle" x="193.5" y="-475.5" font-family="Helvetica,sans-Serif" font-size="10.00" fill="#000000">js_obj_to_desc</text>
</a>
</g>
</g>
<!-- Node232207&#45;&gt;Node232562 -->
<g id="edge22" class="edge">
<title>Node232207&#45;&gt;Node232562</title>
<path fill="none" stroke="#191970" d="M94.4639,-478C113.3967,-478 134.4792,-478 152.3099,-478"/>
<polygon fill="#191970" stroke="#191970" points="94.2012,-474.5001 84.2012,-478 94.2012,-481.5001 94.2012,-474.5001"/>
</g>
<!-- Node232406 -->
<g id="node19" class="node">
<title>Node232406</title>
<g id="a_node19"><a xlink:href="quickjs_8c.html#a7e5b77a4851eee6f666581d051979392" target="_top" xlink:title="js_proxy_define_own\l_property">
<polygon fill="none" stroke="#000000" points="139.5,-419 139.5,-449 247.5,-449 247.5,-419 139.5,-419"/>
<text text-anchor="start" x="147.5" y="-437" font-family="Helvetica,sans-Serif" font-size="10.00" fill="#000000">js_proxy_define_own</text>
<text text-anchor="middle" x="193.5" y="-426" font-family="Helvetica,sans-Serif" font-size="10.00" fill="#000000">_property</text>
</a>
</g>
</g>
<!-- Node232207&#45;&gt;Node232406 -->
<g id="edge23" class="edge">
<title>Node232207&#45;&gt;Node232406</title>
<path fill="none" stroke="#191970" d="M84.8857,-465.5447C102.5356,-460.4187 123.1384,-454.4351 141.6272,-449.0654"/>
<polygon fill="#191970" stroke="#191970" points="83.5002,-462.3024 74.8732,-468.4527 85.4526,-469.0247 83.5002,-462.3024"/>
</g>
<!-- Node232516 -->
<g id="node20" class="node">
<title>Node232516</title>
<g id="a_node20"><a xlink:href="quickjs_8c.html#acffb121a8a0ee2b735f60c1db01e79e7" target="_top" xlink:title="js_proxy_delete_property">
<polygon fill="none" stroke="#000000" points="131,-380.5 131,-399.5 256,-399.5 256,-380.5 131,-380.5"/>
<text text-anchor="middle" x="193.5" y="-387.5" font-family="Helvetica,sans-Serif" font-size="10.00" fill="#000000">js_proxy_delete_property</text>
</a>
</g>
</g>
<!-- Node232207&#45;&gt;Node232516 -->
<g id="edge24" class="edge">
<title>Node232207&#45;&gt;Node232516</title>
<path fill="none" stroke="#191970" d="M56.8149,-460.9077C71.372,-445.1658 94.9861,-422.2974 120,-409 127.2153,-405.1643 135.2469,-402.0721 143.2761,-399.5882"/>
<polygon fill="#191970" stroke="#191970" points="54.158,-458.6279 50.0686,-468.4017 59.3605,-463.3113 54.158,-458.6279"/>
</g>
<!-- Node232565 -->
<g id="node21" class="node">
<title>Node232565</title>
<g id="a_node21"><a xlink:href="quickjs_8c.html#a1bddfeab11a7cfee6bd88781073b5972" target="_top" xlink:title="js_proxy_has">
<polygon fill="none" stroke="#000000" points="156.5,-342.5 156.5,-361.5 230.5,-361.5 230.5,-342.5 156.5,-342.5"/>
<text text-anchor="middle" x="193.5" y="-349.5" font-family="Helvetica,sans-Serif" font-size="10.00" fill="#000000">js_proxy_has</text>
</a>
</g>
</g>
<!-- Node232207&#45;&gt;Node232565 -->
<g id="edge25" class="edge">
<title>Node232207&#45;&gt;Node232565</title>
<path fill="none" stroke="#191970" d="M50.6729,-459.0709C62.7379,-434.8945 86.894,-393.5001 120,-371 130.6826,-363.7397 143.9574,-359.2537 156.2743,-356.4819"/>
<polygon fill="#191970" stroke="#191970" points="47.4277,-457.7434 46.2516,-468.2728 53.7372,-460.7751 47.4277,-457.7434"/>
</g>
<!-- Node232830 -->
<g id="node22" class="node">
<title>Node232830</title>
<g id="a_node22"><a xlink:href="quickjs_8c.html#a89d3c8659c2a6a62d3528b6b6794b24f" target="_top" xlink:title="js_proxy_isExtensible">
<polygon fill="none" stroke="#ff0000" points="137.5,-304.5 137.5,-323.5 249.5,-323.5 249.5,-304.5 137.5,-304.5"/>
<text text-anchor="middle" x="193.5" y="-311.5" font-family="Helvetica,sans-Serif" font-size="10.00" fill="#000000">js_proxy_isExtensible</text>
</a>
</g>
</g>
<!-- Node232207&#45;&gt;Node232830 -->
<g id="edge26" class="edge">
<title>Node232207&#45;&gt;Node232830</title>
<path fill="none" stroke="#191970" d="M46.9136,-458.7962C55.9311,-427.5302 78.1513,-365.8234 120,-333 125.1853,-328.933 131.1488,-325.7299 137.3889,-323.2084"/>
<polygon fill="#191970" stroke="#191970" points="43.5249,-457.9197 44.2641,-468.4887 50.2772,-459.7655 43.5249,-457.9197"/>
</g>
<!-- Node232833 -->
<g id="node23" class="node">
<title>Node232833</title>
<g id="a_node23"><a xlink:href="quickjs_8c.html#a7be64afafb067c71764032c0708d7aa3" target="_top" xlink:title="js_proxy_preventExtensions">
<polygon fill="none" stroke="#ff0000" points="123.5,-266.5 123.5,-285.5 263.5,-285.5 263.5,-266.5 123.5,-266.5"/>
<text text-anchor="middle" x="193.5" y="-273.5" font-family="Helvetica,sans-Serif" font-size="10.00" fill="#000000">js_proxy_preventExtensions</text>
</a>
</g>
</g>
<!-- Node232207&#45;&gt;Node232833 -->
<g id="edge27" class="edge">
<title>Node232207&#45;&gt;Node232833</title>
<path fill="none" stroke="#191970" d="M44.6629,-458.1224C50.7903,-420.4343 69.4615,-338.4767 120,-295 124.4962,-291.1321 129.6827,-288.0369 135.178,-285.5623"/>
<polygon fill="#191970" stroke="#191970" points="41.1576,-457.8986 43.1426,-468.3058 48.0808,-458.9323 41.1576,-457.8986"/>
</g>
<!-- Node232314 -->
<g id="node24" class="node">
<title>Node232314</title>
<g id="a_node24"><a xlink:href="quickjs_8c.html#ad38b16d301e8f3661cf4c115c86511b3" target="_top" xlink:title="js_proxy_set">
<polygon fill="none" stroke="#000000" points="157.5,-228.5 157.5,-247.5 229.5,-247.5 229.5,-228.5 157.5,-228.5"/>
<text text-anchor="middle" x="193.5" y="-235.5" font-family="Helvetica,sans-Serif" font-size="10.00" fill="#000000">js_proxy_set</text>
</a>
</g>
</g>
<!-- Node232207&#45;&gt;Node232314 -->
<g id="edge28" class="edge">
<title>Node232207&#45;&gt;Node232314</title>
<path fill="none" stroke="#191970" d="M42.9943,-458.2796C46.2674,-415.1206 60.2698,-311.7843 120,-257 130.1016,-247.7349 144.126,-242.8619 157.2188,-240.3416"/>
<polygon fill="#191970" stroke="#191970" points="39.497,-458.127 42.3488,-468.3307 46.4826,-458.5756 39.497,-458.127"/>
</g>
<!-- Node232824 -->
<g id="node25" class="node">
<title>Node232824</title>
<g id="a_node25"><a xlink:href="quickjs_8c.html#ae8b32777df50bb192c19840adc4d32a1" target="_top" xlink:title="js_proxy_setPrototypeOf">
<polygon fill="none" stroke="#ff0000" points="131,-190.5 131,-209.5 256,-209.5 256,-190.5 131,-190.5"/>
<text text-anchor="middle" x="193.5" y="-197.5" font-family="Helvetica,sans-Serif" font-size="10.00" fill="#000000">js_proxy_setPrototypeOf</text>
</a>
</g>
</g>
<!-- Node232207&#45;&gt;Node232824 -->
<g id="edge29" class="edge">
<title>Node232207&#45;&gt;Node232824</title>
<path fill="none" stroke="#191970" d="M45.392,-458.1869C55.1174,-403.6215 84.6784,-252.9515 120,-219 123.9909,-215.1639 128.6506,-212.0752 133.6523,-209.5918"/>
<polygon fill="#191970" stroke="#191970" points="41.8994,-457.8416 43.6229,-468.2953 48.7945,-459.0484 41.8994,-457.8416"/>
</g>
<!-- Node232578 -->
<g id="node26" class="node">
<title>Node232578</title>
<g id="a_node26"><a xlink:href="quickjs_8c.html#a85bd252225e0864923cb62c583892de7" target="_top" xlink:title="js_regexp_get_flags">
<polygon fill="none" stroke="#000000" points="141.5,-152.5 141.5,-171.5 245.5,-171.5 245.5,-152.5 141.5,-152.5"/>
<text text-anchor="middle" x="193.5" y="-159.5" font-family="Helvetica,sans-Serif" font-size="10.00" fill="#000000">js_regexp_get_flags</text>
</a>
</g>
</g>
<!-- Node232207&#45;&gt;Node232578 -->
<g id="edge30" class="edge">
<title>Node232207&#45;&gt;Node232578</title>
<path fill="none" stroke="#191970" d="M44.536,-458.4964C52.6649,-398.9193 79.9048,-220.9407 120,-181 125.8827,-175.14 133.3213,-171.0136 141.1937,-168.1223"/>
<polygon fill="#191970" stroke="#191970" points="41.0585,-458.0962 43.2041,-468.4715 47.9969,-459.0227 41.0585,-458.0962"/>
</g>
<!-- Node232329 -->
<g id="node27" class="node">
<title>Node232329</title>
<g id="a_node27"><a xlink:href="quickjs_8c.html#a41fc4304b39616e7be3500fe6ec881c2" target="_top" xlink:title="js_regexp_Symbol_match">
<polygon fill="none" stroke="#000000" points="129,-114.5 129,-133.5 258,-133.5 258,-114.5 129,-114.5"/>
<text text-anchor="middle" x="193.5" y="-121.5" font-family="Helvetica,sans-Serif" font-size="10.00" fill="#000000">js_regexp_Symbol_match</text>
</a>
</g>
</g>
<!-- Node232207&#45;&gt;Node232329 -->
<g id="edge31" class="edge">
<title>Node232207&#45;&gt;Node232329</title>
<path fill="none" stroke="#191970" d="M43.9472,-458.1605C50.7092,-393.2673 75.2411,-188.8557 120,-143 123.7745,-139.133 128.2253,-136.0173 133.0388,-133.5115"/>
<polygon fill="#191970" stroke="#191970" points="40.4482,-457.9736 42.9208,-468.2759 47.4125,-458.6803 40.4482,-457.9736"/>
</g>
<!-- Node232265 -->
<g id="node28" class="node">
<title>Node232265</title>
<g id="a_node28"><a xlink:href="quickjs_8c.html#a6a77bcdb9f7f18c13c108c99a198708b" target="_top" xlink:title="js_regexp_Symbol_replace">
<polygon fill="none" stroke="#000000" points="126.5,-76.5 126.5,-95.5 260.5,-95.5 260.5,-76.5 126.5,-76.5"/>
<text text-anchor="middle" x="193.5" y="-83.5" font-family="Helvetica,sans-Serif" font-size="10.00" fill="#000000">js_regexp_Symbol_replace</text>
</a>
</g>
</g>
<!-- Node232207&#45;&gt;Node232265 -->
<g id="edge32" class="edge">
<title>Node232207&#45;&gt;Node232265</title>
<path fill="none" stroke="#191970" d="M43.4347,-458.2097C48.8718,-388.6684 70.4625,-156.9129 120,-105 123.6395,-101.1859 127.9362,-98.0999 132.5957,-95.6075"/>
<polygon fill="#191970" stroke="#191970" points="39.939,-458.0211 42.6748,-468.2567 46.9191,-458.5491 39.939,-458.0211"/>
</g>
<!-- Node232836 -->
<g id="node29" class="node">
<title>Node232836</title>
<g id="a_node29"><a xlink:href="quickjs_8c.html#a525bb5bdbab2566313d9bcd876838d9d" target="_top" xlink:title="JS_ToBool">
<polygon fill="none" stroke="#ff0000" points="161,-38.5 161,-57.5 226,-57.5 226,-38.5 161,-38.5"/>
<text text-anchor="middle" x="193.5" y="-45.5" font-family="Helvetica,sans-Serif" font-size="10.00" fill="#000000">JS_ToBool</text>
</a>
</g>
</g>
<!-- Node232207&#45;&gt;Node232836 -->
<g id="edge33" class="edge">
<title>Node232207&#45;&gt;Node232836</title>
<path fill="none" stroke="#191970" d="M43.022,-458.1549C47.2371,-384.0731 65.6856,-124.9889 120,-67 130.4514,-55.8415 146.5224,-50.8943 160.9743,-48.8205"/>
<polygon fill="#191970" stroke="#191970" points="39.5132,-458.2215 42.4644,-468.397 46.5029,-458.6021 39.5132,-458.2215"/>
</g>
<!-- Node232296 -->
<g id="node30" class="node">
<title>Node232296</title>
<g id="a_node30"><a xlink:href="quickjs_8c.html#a0b8ae7efe63abc1be33d9e828d43ce8d" target="_top" xlink:title="js_typed_array_find">
<polygon fill="none" stroke="#000000" points="143,-.5 143,-19.5 244,-19.5 244,-.5 143,-.5"/>
<text text-anchor="middle" x="193.5" y="-7.5" font-family="Helvetica,sans-Serif" font-size="10.00" fill="#000000">js_typed_array_find</text>
</a>
</g>
</g>
<!-- Node232207&#45;&gt;Node232296 -->
<g id="edge34" class="edge">
<title>Node232207&#45;&gt;Node232296</title>
<path fill="none" stroke="#191970" d="M42.6851,-457.8666C45.7744,-379.1022 60.9483,-93.0373 120,-29 126.0756,-22.4114 134.1095,-17.9824 142.6326,-15.0306"/>
<polygon fill="#191970" stroke="#191970" points="39.1714,-458.1776 42.3006,-468.2997 46.1666,-458.4355 39.1714,-458.1776"/>
</g>
<!-- Node232211 -->
<g id="node5" class="node">
<title>Node232211</title>
<g id="a_node5"><a xlink:href="quickjs_8c.html#a69d448a344a95318ee4ce862ccc21251" target="_top" xlink:title="js_binary_arith_bigint">
<polygon fill="none" stroke="#ff0000" points="303,-980.5 303,-999.5 411,-999.5 411,-980.5 303,-980.5"/>
<text text-anchor="middle" x="357" y="-987.5" font-family="Helvetica,sans-Serif" font-size="10.00" fill="#000000">js_binary_arith_bigint</text>
</a>
</g>
</g>
<!-- Node232210&#45;&gt;Node232211 -->
<g id="edge4" class="edge">
<title>Node232210&#45;&gt;Node232211</title>
<path fill="none" stroke="#191970" d="M260.5016,-890.3625C262.7782,-891.7687 264.9555,-893.3102 267,-895 295.8093,-918.811 275.2329,-945.9815 303,-971 307.2824,-974.8585 312.3962,-977.9439 317.7448,-980.4084"/>
<polygon fill="#191970" stroke="#191970" points="261.7871,-887.0863 251.2995,-885.5829 258.5605,-893.2983 261.7871,-887.0863"/>
</g>
<!-- Node232214 -->
<g id="node6" class="node">
<title>Node232214</title>
<g id="a_node6"><a xlink:href="quickjs_8c.html#a3c8e7fb12a7f3cf1846a36b0a7fc499f" target="_top" xlink:title="js_binary_arith_slow">
<polygon fill="none" stroke="#000000" points="304.5,-942.5 304.5,-961.5 409.5,-961.5 409.5,-942.5 304.5,-942.5"/>
<text text-anchor="middle" x="357" y="-949.5" font-family="Helvetica,sans-Serif" font-size="10.00" fill="#000000">js_binary_arith_slow</text>
</a>
</g>
</g>
<!-- Node232210&#45;&gt;Node232214 -->
<g id="edge5" class="edge">
<title>Node232210&#45;&gt;Node232214</title>
<path fill="none" stroke="#191970" d="M255.2625,-889.1651C259.3421,-890.8805 263.2959,-892.8163 267,-895 287.041,-906.815 283.4814,-920.3407 303,-933 308.8367,-936.7856 315.519,-939.9215 322.148,-942.48"/>
<polygon fill="#191970" stroke="#191970" points="256.1659,-885.7665 245.5733,-885.549 253.7184,-892.3247 256.1659,-885.7665"/>
</g>
<!-- Node232215 -->
<g id="node7" class="node">
<title>Node232215</title>
<g id="a_node7"><a xlink:href="quickjs_8c.html#ae8ff05447c0d51fe277baccf616dc7c6" target="_top" xlink:title="js_add_slow">
<polygon fill="none" stroke="#000000" points="321.5,-904.5 321.5,-923.5 392.5,-923.5 392.5,-904.5 321.5,-904.5"/>
<text text-anchor="middle" x="357" y="-911.5" font-family="Helvetica,sans-Serif" font-size="10.00" fill="#000000">js_add_slow</text>
</a>
</g>
</g>
<!-- Node232210&#45;&gt;Node232215 -->
<g id="edge6" class="edge">
<title>Node232210&#45;&gt;Node232215</title>
<path fill="none" stroke="#191970" d="M244.7585,-887.9133C269.6301,-893.6939 298.8971,-900.496 321.3087,-905.7048"/>
<polygon fill="#191970" stroke="#191970" points="245.2907,-884.4438 234.758,-885.589 243.706,-891.262 245.2907,-884.4438"/>
</g>
<!-- Node232675 -->
<g id="node9" class="node">
<title>Node232675</title>
<g id="a_node9"><a xlink:href="quickjs_8c.html#a6896e5e971fbeee13a495383bf0bbda9" target="_top" xlink:title="js_binary_logic_slow">
<polygon fill="none" stroke="#000000" points="303.5,-866.5 303.5,-885.5 410.5,-885.5 410.5,-866.5 303.5,-866.5"/>
<text text-anchor="middle" x="357" y="-873.5" font-family="Helvetica,sans-Serif" font-size="10.00" fill="#000000">js_binary_logic_slow</text>
</a>
</g>
</g>
<!-- Node232210&#45;&gt;Node232675 -->
<g id="edge9" class="edge">
<title>Node232210&#45;&gt;Node232675</title>
<path fill="none" stroke="#191970" d="M269.1727,-876C280.7554,-876 292.5017,-876 303.4746,-876"/>
<polygon fill="#191970" stroke="#191970" points="269.0597,-872.5001 259.0596,-876 269.0596,-879.5001 269.0597,-872.5001"/>
</g>
<!-- Node232215&#45;&gt;Node232216 -->
<g id="edge7" class="edge">
<title>Node232215&#45;&gt;Node232216</title>
<path fill="none" stroke="#191970" d="M398.496,-900.8252C402.796,-899.0402 407.0378,-897.0942 411,-895 436.6934,-881.4195 463.2629,-859.9674 477.6478,-847.618"/>
<polygon fill="#191970" stroke="#191970" points="397.1384,-897.5976 389.0755,-904.4707 399.6647,-904.1258 397.1384,-897.5976"/>
</g>
<!-- Node232216&#45;&gt;Node232216 -->
<g id="edge8" class="edge">
<title>Node232216&#45;&gt;Node232216</title>
<path fill="none" stroke="#191970" d="M464.3186,-857.0292C465.6376,-862.128 473.6981,-866 488.5,-866 511.6055,-866 518.2844,-856.5653 508.5368,-847.7571"/>
<polygon fill="#191970" stroke="#191970" points="467.5776,-858.3148 468.4632,-847.7571 461.187,-855.4582 467.5776,-858.3148"/>
</g>
<!-- Node232801&#45;&gt;Node232216 -->
<g id="edge12" class="edge">
<title>Node232801&#45;&gt;Node232216</title>
<path fill="none" stroke="#191970" d="M399.8778,-812.3906C417.8862,-817.5945 438.5096,-823.5541 455.3276,-828.4141"/>
<polygon fill="#191970" stroke="#191970" points="400.7616,-809.0028 390.183,-809.589 398.8183,-815.7276 400.7616,-809.0028"/>
</g>
<!-- Node232275&#45;&gt;Node232275 -->
<g id="edge19" class="edge">
<title>Node232275&#45;&gt;Node232275</title>
<path fill="none" stroke="#191970" d="M165.5009,-572.6539C166.6712,-577.9368 176.0043,-582 193.5,-582 220.1602,-582 227.8666,-572.5653 216.6194,-563.7571"/>
<polygon fill="#191970" stroke="#191970" points="168.6403,-574.208 170.3806,-563.7571 162.5029,-570.8417 168.6403,-574.208"/>
</g>
<!-- Node232275&#45;&gt;Node232276 -->
<g id="edge20" class="edge">
<title>Node232275&#45;&gt;Node232276</title>
<path fill="none" stroke="#191970" d="M242.1868,-548.3422C263.0617,-545.9164 287.3958,-543.0886 308.275,-540.6622"/>
<polygon fill="#191970" stroke="#191970" points="241.7763,-544.8663 232.2472,-549.4973 242.5844,-551.8195 241.7763,-544.8663"/>
</g>
</g>
</svg>
        <g id="navigator" transform="translate(0 0)" fill="#404254">
                <rect fill="#f2f5e9" fill-opacity="0.5" stroke="#606060" stroke-width=".5" x="0" y="0" width="60" height="60"/>
                <use id="zoomplus" xlink:href="#zoomPlus" x="17" y="9" onmousedown="handleZoom(evt,'in')"/>
                <use id="zoomminus" xlink:href="#zoomMin" x="42" y="9" onmousedown="handleZoom(evt,'out')"/>
                <use id="reset" xlink:href="#resetDef" x="30" y="36" onmousedown="handleReset()"/>
                <g id="arrowUp" xlink:href="#dirArrow" transform="translate(30 24)" onmousedown="handlePan(0,-1)">
                  <use xlink:href="#rim" fill="#404040">
                        <set attributeName="fill" to="#808080" begin="arrowUp.mouseover" end="arrowUp.mouseout"/>
                  </use>
                  <path fill="none" stroke="white" stroke-width="1.5" d="M0,-3.0v7 M-2.5,-0.5L0,-3.0L2.5,-0.5"/>
                </g>
                <g id="arrowRight" xlink:href="#dirArrow" transform="rotate(90) translate(36 -43)" onmousedown="handlePan(1,0)">
                  <use xlink:href="#rim" fill="#404040">
                        <set attributeName="fill" to="#808080" begin="arrowRight.mouseover" end="arrowRight.mouseout"/>
                  </use>
                  <path fill="none" stroke="white" stroke-width="1.5" d="M0,-3.0v7 M-2.5,-0.5L0,-3.0L2.5,-0.5"/>
                </g>
                <g id="arrowDown" xlink:href="#dirArrow" transform="rotate(180) translate(-30 -48)" onmousedown="handlePan(0,1)">
                  <use xlink:href="#rim" fill="#404040">
                        <set attributeName="fill" to="#808080" begin="arrowDown.mouseover" end="arrowDown.mouseout"/>
                  </use>
                  <path fill="none" stroke="white" stroke-width="1.5" d="M0,-3.0v7 M-2.5,-0.5L0,-3.0L2.5,-0.5"/>
                </g>
                <g id="arrowLeft" xlink:href="#dirArrow" transform="rotate(270) translate(-36 17)" onmousedown="handlePan(-1,0)">
                  <use xlink:href="#rim" fill="#404040">
                        <set attributeName="fill" to="#808080" begin="arrowLeft.mouseover" end="arrowLeft.mouseout"/>
                  </use>
                  <path fill="none" stroke="white" stroke-width="1.5" d="M0,-3.0v7 M-2.5,-0.5L0,-3.0L2.5,-0.5"/>
                </g>
        </g>
        <svg viewBox="0 0 15 15" width="100%" height="30px" preserveAspectRatio="xMaxYMin meet">
         <g id="arrow_out" transform="scale(0.3 0.3)">
          <a xlink:href="quickjs_8c_a2bf30c9cddfe98a32535843202495069_icgraph_org.svg" target="_base">
           <rect id="button" ry="5" rx="5" y="6" x="6" height="38" width="38"
                fill="#f2f5e9" fill-opacity="0.5" stroke="#606060" stroke-width="1.0"/>
           <path id="arrow"
             d="M 11.500037,31.436501 C 11.940474,20.09759 22.043105,11.32322 32.158766,21.979434 L 37.068811,17.246167 C 37.068811,17.246167 37.088388,32 37.088388,32 L 22.160133,31.978069 C 22.160133,31.978069 26.997745,27.140456 26.997745,27.140456 C 18.528582,18.264221 13.291696,25.230495 11.500037,31.436501 z"
             style="fill:#404040;"/>
          </a>
         </g>
        </svg>
</svg>
