<?xml version="1.0" encoding="UTF-8" standalone="no"?>
<!DOCTYPE svg PUBLIC "-//W3C//DTD SVG 1.1//EN"
 "http://www.w3.org/Graphics/SVG/1.1/DTD/svg11.dtd">
<!-- Generated by graphviz version 2.40.1 (20161225.0304)
 -->
<!-- Title: free_function_bytecode Pages: 1 -->
<!--zoomable 251 -->
<svg id="main" version="1.1" xmlns="http://www.w3.org/2000/svg" xmlns:xlink="http://www.w3.org/1999/xlink" xml:space="preserve" onload="init(evt)">
<style type="text/css"><![CDATA[
.edge:hover path { stroke: red; }
.edge:hover polygon { stroke: red; fill: red; }
]]></style>
<script type="text/javascript"><![CDATA[
var edges = document.getElementsByTagName('g');
if (edges && edges.length) {
  for (var i=0;i<edges.length;i++) {
    if (edges[i].id.substr(0,4)=='edge') {
      edges[i].setAttribute('class','edge');
    }
  }
}
]]></script>
        <defs>
                <circle id="rim" cx="0" cy="0" r="7"/>
                <circle id="rim2" cx="0" cy="0" r="3.5"/>
                <g id="zoomPlus">
                        <use xlink:href="#rim" fill="#404040">
                                <set attributeName="fill" to="#808080" begin="zoomplus.mouseover" end="zoomplus.mouseout"/>
                        </use>
                        <path d="M-4,0h8M0,-4v8" fill="none" stroke="white" stroke-width="1.5" pointer-events="none"/>
                </g>
                <g id="zoomMin">
                        <use xlink:href="#rim" fill="#404040">
                                <set attributeName="fill" to="#808080" begin="zoomminus.mouseover" end="zoomminus.mouseout"/>
                        </use>
                        <path d="M-4,0h8" fill="none" stroke="white" stroke-width="1.5" pointer-events="none"/>
                </g>
                <g id="dirArrow">
                        <path fill="none" stroke="white" stroke-width="1.5" d="M0,-3.0v7 M-2.5,-0.5L0,-3.0L2.5,-0.5"/>
                </g>
               <g id="resetDef">
                       <use xlink:href="#rim2" fill="#404040">
                               <set attributeName="fill" to="#808080" begin="reset.mouseover" end="reset.mouseout"/>
                       </use>
               </g>
        </defs>

<script type="text/javascript">
var viewWidth = 768;
var viewHeight = 251;
var sectionId = 'dynsection-7';
</script>
<script xlink:href="svgpan.js"/>
<svg id="graph" class="graph">
<g id="viewport">
<title>free_function_bytecode</title>
<!-- Node820 -->
<g id="node1" class="node">
<title>Node820</title>
<polygon fill="#bfbfbf" stroke="#000000" points="0,-95.5 0,-114.5 118,-114.5 118,-95.5 0,-95.5"/>
<text text-anchor="middle" x="59" y="-102.5" font-family="Helvetica,sans-Serif" font-size="10.00" fill="#000000">free_function_bytecode</text>
</g>
<!-- Node821 -->
<g id="node2" class="node">
<title>Node821</title>
<g id="a_node2"><a xlink:href="quickjs_8c.html#a3242b1f6e8d8ecc3c27ee7c2caa647a3" target="_top" xlink:title="free_bytecode_atoms">
<polygon fill="none" stroke="#000000" points="154,-190.5 154,-209.5 264,-209.5 264,-190.5 154,-190.5"/>
<text text-anchor="middle" x="209" y="-197.5" font-family="Helvetica,sans-Serif" font-size="10.00" fill="#000000">free_bytecode_atoms</text>
</a>
</g>
</g>
<!-- Node820&#45;&gt;Node821 -->
<g id="edge1" class="edge">
<title>Node820&#45;&gt;Node821</title>
<path fill="none" stroke="#191970" d="M70.1037,-114.6464C87.2546,-129.225 121.6033,-157.1644 154,-176 160.4396,-179.744 167.5725,-183.2689 174.509,-186.4048"/>
<polygon fill="#191970" stroke="#191970" points="173.1961,-189.6504 183.7627,-190.4242 175.985,-183.2299 173.1961,-189.6504"/>
</g>
<!-- Node823 -->
<g id="node4" class="node">
<title>Node823</title>
<g id="a_node4"><a xlink:href="quickjs_8c.html#a5a0aca30abbb4d4ae86746541bf4cbc7" target="_top" xlink:title="JS_FreeAtomRT">
<polygon fill="none" stroke="#000000" points="300,-185.5 300,-204.5 390,-204.5 390,-185.5 300,-185.5"/>
<text text-anchor="middle" x="345" y="-192.5" font-family="Helvetica,sans-Serif" font-size="10.00" fill="#000000">JS_FreeAtomRT</text>
</a>
</g>
</g>
<!-- Node820&#45;&gt;Node823 -->
<g id="edge9" class="edge">
<title>Node820&#45;&gt;Node823</title>
<path fill="none" stroke="#191970" d="M80.9986,-114.6351C100.0837,-122.7918 128.5654,-134.482 154,-143 201.1154,-158.7788 255.9339,-173.3209 294.7267,-182.9904"/>
<polygon fill="#191970" stroke="#191970" points="294.1778,-186.46 304.7256,-185.4633 295.8584,-179.6647 294.1778,-186.46"/>
</g>
<!-- Node828 -->
<g id="node8" class="node">
<title>Node828</title>
<g id="a_node8"><a xlink:href="quickjs_8c.html#a69e19dda8a93d613203e0baa06f0ed8d" target="_top" xlink:title="js_free_rt">
<polygon fill="none" stroke="#000000" points="703,-152.5 703,-171.5 760,-171.5 760,-152.5 703,-152.5"/>
<text text-anchor="middle" x="731.5" y="-159.5" font-family="Helvetica,sans-Serif" font-size="10.00" fill="#000000">js_free_rt</text>
</a>
</g>
</g>
<!-- Node820&#45;&gt;Node828 -->
<g id="edge8" class="edge">
<title>Node820&#45;&gt;Node828</title>
<path fill="none" stroke="#191970" d="M118.081,-98.7787C175.86,-93.2375 266.3757,-86 345,-86 345,-86 345,-86 477,-86 561.8656,-86 589.2259,-71.0389 667,-105 687.1876,-113.8152 705.512,-131.3772 717.4257,-144.6904"/>
<polygon fill="#191970" stroke="#191970" points="714.8036,-147.0093 723.9746,-152.3144 720.1136,-142.4481 714.8036,-147.0093"/>
</g>
<!-- Node829 -->
<g id="node9" class="node">
<title>Node829</title>
<g id="a_node9"><a xlink:href="quickjs_8h.html#ab8db583fa5e7c2b1935854a42859daed" target="_top" xlink:title="JS_FreeValueRT">
<polygon fill="none" stroke="#000000" points="163,-114.5 163,-133.5 255,-133.5 255,-114.5 163,-114.5"/>
<text text-anchor="middle" x="209" y="-121.5" font-family="Helvetica,sans-Serif" font-size="10.00" fill="#000000">JS_FreeValueRT</text>
</a>
</g>
</g>
<!-- Node820&#45;&gt;Node829 -->
<g id="edge10" class="edge">
<title>Node820&#45;&gt;Node829</title>
<path fill="none" stroke="#191970" d="M118.284,-112.5093C129.5694,-113.9388 141.3519,-115.4312 152.5463,-116.8492"/>
<polygon fill="#191970" stroke="#191970" points="152.2698,-120.3421 162.6303,-118.1265 153.1495,-113.3975 152.2698,-120.3421"/>
</g>
<!-- Node845 -->
<g id="node12" class="node">
<title>Node845</title>
<g id="a_node12"><a xlink:href="list_8h.html#a3a5d0733570b2fafc18f4c71a2968ea5" target="_top" xlink:title="list_add_tail">
<polygon fill="none" stroke="#ff0000" points="175,-38.5 175,-57.5 243,-57.5 243,-38.5 175,-38.5"/>
<text text-anchor="middle" x="209" y="-45.5" font-family="Helvetica,sans-Serif" font-size="10.00" fill="#000000">list_add_tail</text>
</a>
</g>
</g>
<!-- Node820&#45;&gt;Node845 -->
<g id="edge15" class="edge">
<title>Node820&#45;&gt;Node845</title>
<path fill="none" stroke="#191970" d="M84.1066,-95.4595C108.7673,-86.0884 146.599,-71.7124 174.1639,-61.2377"/>
<polygon fill="#191970" stroke="#191970" points="175.7069,-64.3956 183.8115,-57.5716 173.2203,-57.8521 175.7069,-64.3956"/>
</g>
<!-- Node837 -->
<g id="node13" class="node">
<title>Node837</title>
<g id="a_node13"><a xlink:href="quickjs_8c.html#adfb3133f30938e2db9b525ade5fc09cf" target="_top" xlink:title="remove_gc_object">
<polygon fill="none" stroke="#ff0000" points="161,-.5 161,-19.5 257,-19.5 257,-.5 161,-.5"/>
<text text-anchor="middle" x="209" y="-7.5" font-family="Helvetica,sans-Serif" font-size="10.00" fill="#000000">remove_gc_object</text>
</a>
</g>
</g>
<!-- Node820&#45;&gt;Node837 -->
<g id="edge16" class="edge">
<title>Node820&#45;&gt;Node837</title>
<path fill="none" stroke="#191970" d="M68.7068,-95.3135C85.0338,-79.4894 119.593,-47.9614 154,-29 157.7326,-26.943 161.7287,-25.0479 165.8,-23.3174"/>
<polygon fill="#191970" stroke="#191970" points="167.3121,-26.4841 175.3476,-19.579 164.7598,-19.9659 167.3121,-26.4841"/>
</g>
<!-- Node822 -->
<g id="node3" class="node">
<title>Node822</title>
<g id="a_node3"><a xlink:href="cutils_8h.html#a941262a5f72fda2ec43ae7911e97a0dc" target="_top" xlink:title="get_u32">
<polygon fill="none" stroke="#000000" points="319.5,-223.5 319.5,-242.5 370.5,-242.5 370.5,-223.5 319.5,-223.5"/>
<text text-anchor="middle" x="345" y="-230.5" font-family="Helvetica,sans-Serif" font-size="10.00" fill="#000000">get_u32</text>
</a>
</g>
</g>
<!-- Node821&#45;&gt;Node822 -->
<g id="edge2" class="edge">
<title>Node821&#45;&gt;Node822</title>
<path fill="none" stroke="#191970" d="M248.3368,-209.545C267.6647,-214.2348 290.7742,-219.8423 309.5504,-224.3983"/>
<polygon fill="#191970" stroke="#191970" points="308.9409,-227.8519 319.4843,-226.8087 310.5916,-221.0493 308.9409,-227.8519"/>
</g>
<!-- Node821&#45;&gt;Node823 -->
<g id="edge3" class="edge">
<title>Node821&#45;&gt;Node823</title>
<path fill="none" stroke="#191970" d="M264.3164,-197.9663C272.6816,-197.6588 281.3122,-197.3415 289.6775,-197.0339"/>
<polygon fill="#191970" stroke="#191970" points="289.8493,-200.5301 299.714,-196.6649 289.5921,-193.5348 289.8493,-200.5301"/>
</g>
<!-- Node824 -->
<g id="node5" class="node">
<title>Node824</title>
<g id="a_node5"><a xlink:href="quickjs_8c.html#a7f6796ee7a195631366f57c713a33f65" target="_top" xlink:title="__JS_AtomIsConst">
<polygon fill="none" stroke="#000000" points="426,-223.5 426,-242.5 528,-242.5 528,-223.5 426,-223.5"/>
<text text-anchor="middle" x="477" y="-230.5" font-family="Helvetica,sans-Serif" font-size="10.00" fill="#000000">__JS_AtomIsConst</text>
</a>
</g>
</g>
<!-- Node823&#45;&gt;Node824 -->
<g id="edge4" class="edge">
<title>Node823&#45;&gt;Node824</title>
<path fill="none" stroke="#191970" d="M378.3092,-204.589C395.1928,-209.4494 415.8948,-215.4091 433.9705,-220.6127"/>
<polygon fill="#191970" stroke="#191970" points="433.1235,-224.011 443.7015,-223.4141 435.06,-217.2842 433.1235,-224.011"/>
</g>
<!-- Node825 -->
<g id="node6" class="node">
<title>Node825</title>
<g id="a_node6"><a xlink:href="quickjs_8c.html#a0bbd9e3ecd55e3ea6c9d44bfda382095" target="_top" xlink:title="__JS_FreeAtom">
<polygon fill="none" stroke="#000000" points="433.5,-185.5 433.5,-204.5 520.5,-204.5 520.5,-185.5 433.5,-185.5"/>
<text text-anchor="middle" x="477" y="-192.5" font-family="Helvetica,sans-Serif" font-size="10.00" fill="#000000">__JS_FreeAtom</text>
</a>
</g>
</g>
<!-- Node823&#45;&gt;Node825 -->
<g id="edge5" class="edge">
<title>Node823&#45;&gt;Node825</title>
<path fill="none" stroke="#191970" d="M390.0577,-195C400.8079,-195 412.385,-195 423.4745,-195"/>
<polygon fill="#191970" stroke="#191970" points="423.484,-198.5001 433.4839,-195 423.4839,-191.5001 423.484,-198.5001"/>
</g>
<!-- Node826 -->
<g id="node7" class="node">
<title>Node826</title>
<g id="a_node7"><a xlink:href="quickjs_8c.html#a58c8965dad50b15b75918a09f3d9dc7c" target="_top" xlink:title="JS_FreeAtomStruct">
<polygon fill="none" stroke="#ff0000" points="564,-190.5 564,-209.5 667,-209.5 667,-190.5 564,-190.5"/>
<text text-anchor="middle" x="615.5" y="-197.5" font-family="Helvetica,sans-Serif" font-size="10.00" fill="#000000">JS_FreeAtomStruct</text>
</a>
</g>
</g>
<!-- Node825&#45;&gt;Node826 -->
<g id="edge6" class="edge">
<title>Node825&#45;&gt;Node826</title>
<path fill="none" stroke="#191970" d="M520.8223,-196.582C531.2585,-196.9588 542.5896,-197.3679 553.6647,-197.7677"/>
<polygon fill="#191970" stroke="#191970" points="553.611,-201.2679 563.7308,-198.1311 553.8636,-194.2725 553.611,-201.2679"/>
</g>
<!-- Node826&#45;&gt;Node828 -->
<g id="edge7" class="edge">
<title>Node826&#45;&gt;Node828</title>
<path fill="none" stroke="#191970" d="M644.7717,-190.411C659.3068,-185.6495 677.0622,-179.8331 692.7134,-174.706"/>
<polygon fill="#191970" stroke="#191970" points="694.226,-177.8935 702.6395,-171.4543 692.0468,-171.2414 694.226,-177.8935"/>
</g>
<!-- Node830 -->
<g id="node10" class="node">
<title>Node830</title>
<g id="a_node10"><a xlink:href="quickjs_8c.html#ab1ea3fad7d138be12144a38be4d36423" target="_top" xlink:title="__JS_FreeValueRT">
<polygon fill="none" stroke="#000000" points="426,-138.5 426,-157.5 528,-157.5 528,-138.5 426,-138.5"/>
<text text-anchor="middle" x="477" y="-145.5" font-family="Helvetica,sans-Serif" font-size="10.00" fill="#000000">__JS_FreeValueRT</text>
</a>
</g>
</g>
<!-- Node829&#45;&gt;Node830 -->
<g id="edge11" class="edge">
<title>Node829&#45;&gt;Node830</title>
<path fill="none" stroke="#191970" d="M255.0708,-128.1257C299.3622,-132.0921 366.6,-138.1134 415.4587,-142.4888"/>
<polygon fill="#191970" stroke="#191970" points="415.3184,-145.9902 425.5908,-143.3962 415.9429,-139.0181 415.3184,-145.9902"/>
</g>
<!-- Node830&#45;&gt;Node826 -->
<g id="edge12" class="edge">
<title>Node830&#45;&gt;Node826</title>
<path fill="none" stroke="#191970" d="M502.403,-157.5376C524.2295,-165.7324 555.9282,-177.6337 580.2168,-186.7529"/>
<polygon fill="#191970" stroke="#191970" points="579.1968,-190.1084 589.789,-190.3468 581.6573,-183.5551 579.1968,-190.1084"/>
</g>
<!-- Node830&#45;&gt;Node828 -->
<g id="edge13" class="edge">
<title>Node830&#45;&gt;Node828</title>
<path fill="none" stroke="#191970" d="M528.1957,-150.8163C576.8412,-153.4922 648.9087,-157.4567 692.8944,-159.8763"/>
<polygon fill="#191970" stroke="#191970" points="692.728,-163.3724 702.9052,-160.427 693.1126,-156.3829 692.728,-163.3724"/>
</g>
<!-- Node831 -->
<g id="node11" class="node">
<title>Node831</title>
<g id="a_node11"><a xlink:href="quickjs_8c.html#a8defed3434f60d6b5d6a7ea202cc8f9d" target="_top" xlink:title="free_zero_refcount">
<polygon fill="none" stroke="#ff0000" points="566.5,-114.5 566.5,-133.5 664.5,-133.5 664.5,-114.5 566.5,-114.5"/>
<text text-anchor="middle" x="615.5" y="-121.5" font-family="Helvetica,sans-Serif" font-size="10.00" fill="#000000">free_zero_refcount</text>
</a>
</g>
</g>
<!-- Node830&#45;&gt;Node831 -->
<g id="edge14" class="edge">
<title>Node830&#45;&gt;Node831</title>
<path fill="none" stroke="#191970" d="M528.1788,-139.1315C537.3462,-137.5429 546.968,-135.8756 556.3379,-134.2519"/>
<polygon fill="#191970" stroke="#191970" points="557.1175,-137.6691 566.3731,-132.513 555.9223,-130.7718 557.1175,-137.6691"/>
</g>
</g>
</svg>
        <g id="navigator" transform="translate(0 0)" fill="#404254">
                <rect fill="#f2f5e9" fill-opacity="0.5" stroke="#606060" stroke-width=".5" x="0" y="0" width="60" height="60"/>
                <use id="zoomplus" xlink:href="#zoomPlus" x="17" y="9" onmousedown="handleZoom(evt,'in')"/>
                <use id="zoomminus" xlink:href="#zoomMin" x="42" y="9" onmousedown="handleZoom(evt,'out')"/>
                <use id="reset" xlink:href="#resetDef" x="30" y="36" onmousedown="handleReset()"/>
                <g id="arrowUp" xlink:href="#dirArrow" transform="translate(30 24)" onmousedown="handlePan(0,-1)">
                  <use xlink:href="#rim" fill="#404040">
                        <set attributeName="fill" to="#808080" begin="arrowUp.mouseover" end="arrowUp.mouseout"/>
                  </use>
                  <path fill="none" stroke="white" stroke-width="1.5" d="M0,-3.0v7 M-2.5,-0.5L0,-3.0L2.5,-0.5"/>
                </g>
                <g id="arrowRight" xlink:href="#dirArrow" transform="rotate(90) translate(36 -43)" onmousedown="handlePan(1,0)">
                  <use xlink:href="#rim" fill="#404040">
                        <set attributeName="fill" to="#808080" begin="arrowRight.mouseover" end="arrowRight.mouseout"/>
                  </use>
                  <path fill="none" stroke="white" stroke-width="1.5" d="M0,-3.0v7 M-2.5,-0.5L0,-3.0L2.5,-0.5"/>
                </g>
                <g id="arrowDown" xlink:href="#dirArrow" transform="rotate(180) translate(-30 -48)" onmousedown="handlePan(0,1)">
                  <use xlink:href="#rim" fill="#404040">
                        <set attributeName="fill" to="#808080" begin="arrowDown.mouseover" end="arrowDown.mouseout"/>
                  </use>
                  <path fill="none" stroke="white" stroke-width="1.5" d="M0,-3.0v7 M-2.5,-0.5L0,-3.0L2.5,-0.5"/>
                </g>
                <g id="arrowLeft" xlink:href="#dirArrow" transform="rotate(270) translate(-36 17)" onmousedown="handlePan(-1,0)">
                  <use xlink:href="#rim" fill="#404040">
                        <set attributeName="fill" to="#808080" begin="arrowLeft.mouseover" end="arrowLeft.mouseout"/>
                  </use>
                  <path fill="none" stroke="white" stroke-width="1.5" d="M0,-3.0v7 M-2.5,-0.5L0,-3.0L2.5,-0.5"/>
                </g>
        </g>
        <svg viewBox="0 0 15 15" width="100%" height="30px" preserveAspectRatio="xMaxYMin meet">
         <g id="arrow_out" transform="scale(0.3 0.3)">
          <a xlink:href="quickjs_8c_adc4a49d7eb1cc1ec4b3a8c37ab8cb075_cgraph_org.svg" target="_base">
           <rect id="button" ry="5" rx="5" y="6" x="6" height="38" width="38"
                fill="#f2f5e9" fill-opacity="0.5" stroke="#606060" stroke-width="1.0"/>
           <path id="arrow"
             d="M 11.500037,31.436501 C 11.940474,20.09759 22.043105,11.32322 32.158766,21.979434 L 37.068811,17.246167 C 37.068811,17.246167 37.088388,32 37.088388,32 L 22.160133,31.978069 C 22.160133,31.978069 26.997745,27.140456 26.997745,27.140456 C 18.528582,18.264221 13.291696,25.230495 11.500037,31.436501 z"
             style="fill:#404040;"/>
          </a>
         </g>
        </svg>
</svg>
