<?xml version="1.0" encoding="UTF-8" standalone="no"?>
<!DOCTYPE svg PUBLIC "-//W3C//DTD SVG 1.1//EN"
 "http://www.w3.org/Graphics/SVG/1.1/DTD/svg11.dtd">
<!-- Generated by graphviz version 2.40.1 (20161225.0304)
 -->
<!-- Title: JS_DefinePrivateField Pages: 1 -->
<!--zoomable 1043 -->
<svg id="main" version="1.1" xmlns="http://www.w3.org/2000/svg" xmlns:xlink="http://www.w3.org/1999/xlink" xml:space="preserve" onload="init(evt)">
<style type="text/css"><![CDATA[
.edge:hover path { stroke: red; }
.edge:hover polygon { stroke: red; fill: red; }
]]></style>
<script type="text/javascript"><![CDATA[
var edges = document.getElementsByTagName('g');
if (edges && edges.length) {
  for (var i=0;i<edges.length;i++) {
    if (edges[i].id.substr(0,4)=='edge') {
      edges[i].setAttribute('class','edge');
    }
  }
}
]]></script>
        <defs>
                <circle id="rim" cx="0" cy="0" r="7"/>
                <circle id="rim2" cx="0" cy="0" r="3.5"/>
                <g id="zoomPlus">
                        <use xlink:href="#rim" fill="#404040">
                                <set attributeName="fill" to="#808080" begin="zoomplus.mouseover" end="zoomplus.mouseout"/>
                        </use>
                        <path d="M-4,0h8M0,-4v8" fill="none" stroke="white" stroke-width="1.5" pointer-events="none"/>
                </g>
                <g id="zoomMin">
                        <use xlink:href="#rim" fill="#404040">
                                <set attributeName="fill" to="#808080" begin="zoomminus.mouseover" end="zoomminus.mouseout"/>
                        </use>
                        <path d="M-4,0h8" fill="none" stroke="white" stroke-width="1.5" pointer-events="none"/>
                </g>
                <g id="dirArrow">
                        <path fill="none" stroke="white" stroke-width="1.5" d="M0,-3.0v7 M-2.5,-0.5L0,-3.0L2.5,-0.5"/>
                </g>
               <g id="resetDef">
                       <use xlink:href="#rim2" fill="#404040">
                               <set attributeName="fill" to="#808080" begin="reset.mouseover" end="reset.mouseout"/>
                       </use>
               </g>
        </defs>

<script type="text/javascript">
var viewWidth = 720;
var viewHeight = 1043;
var sectionId = 'dynsection-512';
</script>
<script xlink:href="svgpan.js"/>
<svg id="graph" class="graph">
<g id="viewport">
<title>JS_DefinePrivateField</title>
<!-- Node159814 -->
<g id="node1" class="node">
<title>Node159814</title>
<polygon fill="#bfbfbf" stroke="#000000" points="0,-162.3661 0,-181.3661 114,-181.3661 114,-162.3661 0,-162.3661"/>
<text text-anchor="middle" x="57" y="-169.3661" font-family="Helvetica,sans-Serif" font-size="10.00" fill="#000000">JS_DefinePrivateField</text>
</g>
<!-- Node159815 -->
<g id="node2" class="node">
<title>Node159815</title>
<g id="a_node2"><a xlink:href="quickjs_8c.html#ac2894ff4edcdb4e6841bcce9c76081e3" target="_top" xlink:title="JS_CallInternal">
<polygon fill="none" stroke="#000000" points="150,-162.3661 150,-181.3661 233,-181.3661 233,-162.3661 150,-162.3661"/>
<text text-anchor="middle" x="191.5" y="-169.3661" font-family="Helvetica,sans-Serif" font-size="10.00" fill="#000000">JS_CallInternal</text>
</a>
</g>
</g>
<!-- Node159814&#45;&gt;Node159815 -->
<g id="edge1" class="edge">
<title>Node159814&#45;&gt;Node159815</title>
<path fill="none" stroke="#191970" d="M124.2596,-171.8661C132.9951,-171.8661 141.7304,-171.8661 149.8759,-171.8661"/>
<polygon fill="#191970" stroke="#191970" points="124.0401,-168.3662 114.0401,-171.8661 124.0401,-175.3662 124.0401,-168.3662"/>
</g>
<!-- Node159815&#45;&gt;Node159815 -->
<g id="edge43" class="edge">
<title>Node159815&#45;&gt;Node159815</title>
<path fill="none" stroke="#191970" d="M167.6906,-190.8953C168.9893,-195.9941 176.9258,-199.8661 191.5,-199.8661 214.25,-199.8661 220.8262,-190.4314 211.2285,-181.6232"/>
<polygon fill="#191970" stroke="#191970" points="170.9465,-192.1859 171.7715,-181.6232 164.5396,-189.366 170.9465,-192.1859"/>
</g>
<!-- Node159816 -->
<g id="node3" class="node">
<title>Node159816</title>
<g id="a_node3"><a xlink:href="quickjs_8c.html#ade71a22dc56e7371392393df663b28b3" target="_top" xlink:title="async_func_resume">
<polygon fill="none" stroke="#000000" points="269,-922.3661 269,-941.3661 373,-941.3661 373,-922.3661 269,-922.3661"/>
<text text-anchor="middle" x="321" y="-929.3661" font-family="Helvetica,sans-Serif" font-size="10.00" fill="#000000">async_func_resume</text>
</a>
</g>
</g>
<!-- Node159815&#45;&gt;Node159816 -->
<g id="edge2" class="edge">
<title>Node159815&#45;&gt;Node159816</title>
<path fill="none" stroke="#191970" d="M192.2876,-191.5782C196.468,-290.8774 217.8246,-736.549 269,-863.8661 278.4226,-887.3083 298.2617,-909.6029 310.5278,-921.9365"/>
<polygon fill="#191970" stroke="#191970" points="195.7792,-191.3012 191.871,-181.4535 188.7852,-191.589 195.7792,-191.3012"/>
</g>
<!-- Node159828 -->
<g id="node8" class="node">
<title>Node159828</title>
<g id="a_node8"><a xlink:href="quickjs_8c.html#a1a4c02a29525d5cb2085dd8bca3af350" target="_top" xlink:title="JS_Call">
<polygon fill="none" stroke="#ff0000" points="295.5,-402.3661 295.5,-421.3661 346.5,-421.3661 346.5,-402.3661 295.5,-402.3661"/>
<text text-anchor="middle" x="321" y="-409.3661" font-family="Helvetica,sans-Serif" font-size="10.00" fill="#000000">JS_Call</text>
</a>
</g>
</g>
<!-- Node159815&#45;&gt;Node159828 -->
<g id="edge7" class="edge">
<title>Node159815&#45;&gt;Node159828</title>
<path fill="none" stroke="#191970" d="M203.6785,-190.2909C231.8408,-238.5243 300.3481,-366.0423 317.2053,-402.3522"/>
<polygon fill="#191970" stroke="#191970" points="206.5776,-188.318 198.4625,-181.5066 200.5588,-191.892 206.5776,-188.318"/>
</g>
<!-- Node159860 -->
<g id="node15" class="node">
<title>Node159860</title>
<g id="a_node15"><a xlink:href="quickjs_8c.html#ad35594576a14c10812efaf958c99af8a" target="_top" xlink:title="JS_CallConstructorInternal">
<polygon fill="none" stroke="#ff0000" points="578,-1.3661 578,-20.3661 712,-20.3661 712,-1.3661 578,-1.3661"/>
<text text-anchor="middle" x="645" y="-8.3661" font-family="Helvetica,sans-Serif" font-size="10.00" fill="#000000">JS_CallConstructorInternal</text>
</a>
</g>
</g>
<!-- Node159815&#45;&gt;Node159860 -->
<g id="edge38" class="edge">
<title>Node159815&#45;&gt;Node159860</title>
<path fill="none" stroke="#191970" d="M198.6956,-152.8534C210.5549,-128.8303 236.1945,-89.1616 269,-67.8661 365.8661,-4.9862 505.0678,2.8715 584.094,-1.3603"/>
<polygon fill="#191970" stroke="#191970" points="195.447,-151.5416 194.476,-162.0919 201.8143,-154.4498 195.447,-151.5416"/>
</g>
<!-- Node159911 -->
<g id="node30" class="node">
<title>Node159911</title>
<g id="a_node30"><a xlink:href="quickjs_8c.html#a75f6ee5e4235a7dc99889f3d2eb2c147" target="_top" xlink:title="JS_CallFree">
<polygon fill="none" stroke="#ff0000" points="285.5,-86.3661 285.5,-105.3661 356.5,-105.3661 356.5,-86.3661 285.5,-86.3661"/>
<text text-anchor="middle" x="321" y="-93.3661" font-family="Helvetica,sans-Serif" font-size="10.00" fill="#000000">JS_CallFree</text>
</a>
</g>
</g>
<!-- Node159815&#45;&gt;Node159911 -->
<g id="edge39" class="edge">
<title>Node159815&#45;&gt;Node159911</title>
<path fill="none" stroke="#191970" d="M204.9766,-155.2892C220.1168,-141.8557 245.6365,-123.9866 269,-110.8661 274.2017,-107.945 279.8215,-105.0748 285.3777,-102.5079"/>
<polygon fill="#191970" stroke="#191970" points="202.5197,-152.7959 197.7129,-162.2375 207.3585,-157.8542 202.5197,-152.7959"/>
</g>
<!-- Node159817 -->
<g id="node4" class="node">
<title>Node159817</title>
<g id="a_node4"><a xlink:href="quickjs_8c.html#a9d95ebd661628910e9e05ee872340848" target="_top" xlink:title="js_generator_function_call">
<polygon fill="none" stroke="#ff0000" points="410.5,-1015.3661 410.5,-1034.3661 540.5,-1034.3661 540.5,-1015.3661 410.5,-1015.3661"/>
<text text-anchor="middle" x="475.5" y="-1022.3661" font-family="Helvetica,sans-Serif" font-size="10.00" fill="#000000">js_generator_function_call</text>
</a>
</g>
</g>
<!-- Node159816&#45;&gt;Node159817 -->
<g id="edge3" class="edge">
<title>Node159816&#45;&gt;Node159817</title>
<path fill="none" stroke="#191970" d="M336.9957,-949.003C353.529,-965.7622 380.8284,-990.8851 409,-1005.8661 416.1029,-1009.6433 424.0429,-1012.7448 431.8953,-1015.2656"/>
<polygon fill="#191970" stroke="#191970" points="339.2486,-946.2972 329.7875,-941.5287 334.21,-951.1564 339.2486,-946.2972"/>
</g>
<!-- Node159821 -->
<g id="node5" class="node">
<title>Node159821</title>
<g id="a_node5"><a xlink:href="quickjs_8c.html#a1bf6b62983e8fff99c0a5d5a9f486115" target="_top" xlink:title="js_async_function_resume">
<polygon fill="none" stroke="#ff0000" points="409,-878.3661 409,-897.3661 542,-897.3661 542,-878.3661 409,-878.3661"/>
<text text-anchor="middle" x="475.5" y="-885.3661" font-family="Helvetica,sans-Serif" font-size="10.00" fill="#000000">js_async_function_resume</text>
</a>
</g>
</g>
<!-- Node159816&#45;&gt;Node159821 -->
<g id="edge4" class="edge">
<title>Node159816&#45;&gt;Node159821</title>
<path fill="none" stroke="#191970" d="M364.3344,-919.5249C388.9423,-912.5169 419.279,-903.8773 442.0412,-897.3948"/>
<polygon fill="#191970" stroke="#191970" points="363.1831,-916.2136 354.5242,-922.3188 365.1005,-922.9459 363.1831,-916.2136"/>
</g>
<!-- Node159826 -->
<g id="node6" class="node">
<title>Node159826</title>
<g id="a_node6"><a xlink:href="quickjs_8c.html#a89b019c704a2d2914bc30b30a72040b3" target="_top" xlink:title="js_async_generator\l_resume_next">
<polygon fill="none" stroke="#000000" points="425,-965.8661 425,-995.8661 526,-995.8661 526,-965.8661 425,-965.8661"/>
<text text-anchor="start" x="433" y="-983.8661" font-family="Helvetica,sans-Serif" font-size="10.00" fill="#000000">js_async_generator</text>
<text text-anchor="middle" x="475.5" y="-972.8661" font-family="Helvetica,sans-Serif" font-size="10.00" fill="#000000">_resume_next</text>
</a>
</g>
</g>
<!-- Node159816&#45;&gt;Node159826 -->
<g id="edge5" class="edge">
<title>Node159816&#45;&gt;Node159826</title>
<path fill="none" stroke="#191970" d="M360.8274,-944.4975C381.364,-951.0107 406.5533,-958.9995 428.0875,-965.8292"/>
<polygon fill="#191970" stroke="#191970" points="361.7461,-941.1171 351.1559,-941.4301 359.6299,-947.7896 361.7461,-941.1171"/>
</g>
<!-- Node159827 -->
<g id="node7" class="node">
<title>Node159827</title>
<g id="a_node7"><a xlink:href="quickjs_8c.html#aa74a153277ad53578233b4465c122100" target="_top" xlink:title="js_async_generator\l_function_call">
<polygon fill="none" stroke="#ff0000" points="425,-916.8661 425,-946.8661 526,-946.8661 526,-916.8661 425,-916.8661"/>
<text text-anchor="start" x="433" y="-934.8661" font-family="Helvetica,sans-Serif" font-size="10.00" fill="#000000">js_async_generator</text>
<text text-anchor="middle" x="475.5" y="-923.8661" font-family="Helvetica,sans-Serif" font-size="10.00" fill="#000000">_function_call</text>
</a>
</g>
</g>
<!-- Node159816&#45;&gt;Node159827 -->
<g id="edge6" class="edge">
<title>Node159816&#45;&gt;Node159827</title>
<path fill="none" stroke="#191970" d="M383.6264,-931.8661C397.3228,-931.8661 411.6559,-931.8661 424.8173,-931.8661"/>
<polygon fill="#191970" stroke="#191970" points="383.3067,-928.3662 373.3067,-931.8661 383.3066,-935.3662 383.3067,-928.3662"/>
</g>
<!-- Node159828&#45;&gt;Node159815 -->
<g id="edge18" class="edge">
<title>Node159828&#45;&gt;Node159815</title>
<path fill="none" stroke="#191970" d="M308.8914,-393.5611C280.8175,-345.4959 212.3844,-218.1267 195.3757,-181.5545"/>
<polygon fill="#191970" stroke="#191970" points="305.9725,-395.5006 314.089,-402.3104 311.9907,-391.9254 305.9725,-395.5006"/>
</g>
<!-- Node159828&#45;&gt;Node159821 -->
<g id="edge19" class="edge">
<title>Node159828&#45;&gt;Node159821</title>
<path fill="none" stroke="#191970" d="M322.1272,-431.8423C327.0011,-511.2099 348.8045,-803.1214 409,-868.8661 412.4866,-872.6741 416.6781,-875.7389 421.2394,-878.2028"/>
<polygon fill="#191970" stroke="#191970" points="325.6133,-431.5024 321.5284,-421.7267 318.6255,-431.9161 325.6133,-431.5024"/>
</g>
<!-- Node159829 -->
<g id="node9" class="node">
<title>Node159829</title>
<g id="a_node9"><a xlink:href="structqjs_1_1js__traits_3_01std_1_1function_3_01R_07Args_8_8_8_08_4_01_4.html#abc36cacd670b6b5f1773734a0586a02b" target="_top" xlink:title="qjs::js_traits\&lt; std\l::function\&lt; R(Args...)\l\&gt; \&gt;::unwrap">
<polygon fill="none" stroke="#000000" points="421,-516.3661 421,-557.3661 530,-557.3661 530,-516.3661 421,-516.3661"/>
<text text-anchor="start" x="429" y="-545.3661" font-family="Helvetica,sans-Serif" font-size="10.00" fill="#000000">qjs::js_traits&lt; std</text>
<text text-anchor="start" x="429" y="-534.3661" font-family="Helvetica,sans-Serif" font-size="10.00" fill="#000000">::function&lt; R(Args...)</text>
<text text-anchor="middle" x="475.5" y="-523.3661" font-family="Helvetica,sans-Serif" font-size="10.00" fill="#000000">&gt; &gt;::unwrap</text>
</a>
</g>
</g>
<!-- Node159828&#45;&gt;Node159829 -->
<g id="edge8" class="edge">
<title>Node159828&#45;&gt;Node159829</title>
<path fill="none" stroke="#191970" d="M333.8989,-429.6386C349.6897,-450.385 378.1609,-484.6766 409,-506.8661 413.7292,-510.2689 418.906,-513.4174 424.2168,-516.2932"/>
<polygon fill="#191970" stroke="#191970" points="336.5394,-427.3247 327.7551,-421.4013 330.9282,-431.5098 336.5394,-427.3247"/>
</g>
<!-- Node159830 -->
<g id="node10" class="node">
<title>Node159830</title>
<g id="a_node10"><a xlink:href="quickjs-libc_8c.html#abb1cbe3fdf905e81f603a3a0bfce475a" target="_top" xlink:title="call_handler">
<polygon fill="none" stroke="#ff0000" points="441.5,-478.3661 441.5,-497.3661 509.5,-497.3661 509.5,-478.3661 441.5,-478.3661"/>
<text text-anchor="middle" x="475.5" y="-485.3661" font-family="Helvetica,sans-Serif" font-size="10.00" fill="#000000">call_handler</text>
</a>
</g>
</g>
<!-- Node159828&#45;&gt;Node159830 -->
<g id="edge9" class="edge">
<title>Node159828&#45;&gt;Node159830</title>
<path fill="none" stroke="#191970" d="M341.32,-427.5286C358.54,-440.1713 384.3041,-457.6434 409,-468.8661 419.1661,-473.486 430.7222,-477.2567 441.3166,-480.1856"/>
<polygon fill="#191970" stroke="#191970" points="343.2495,-424.6011 333.1448,-421.4162 339.0579,-430.2074 343.2495,-424.6011"/>
</g>
<!-- Node159835 -->
<g id="node11" class="node">
<title>Node159835</title>
<g id="a_node11"><a xlink:href="quickjs_8c.html#aa049793cc8648d35fe81876a2543ca4e" target="_top" xlink:title="JS_GetIterator2">
<polygon fill="none" stroke="#ff0000" points="432.5,-440.3661 432.5,-459.3661 518.5,-459.3661 518.5,-440.3661 432.5,-440.3661"/>
<text text-anchor="middle" x="475.5" y="-447.3661" font-family="Helvetica,sans-Serif" font-size="10.00" fill="#000000">JS_GetIterator2</text>
</a>
</g>
</g>
<!-- Node159828&#45;&gt;Node159835 -->
<g id="edge10" class="edge">
<title>Node159828&#45;&gt;Node159835</title>
<path fill="none" stroke="#191970" d="M356.2646,-420.5396C380.2256,-426.4329 411.9273,-434.2301 436.6191,-440.3032"/>
<polygon fill="#191970" stroke="#191970" points="357.0591,-417.1308 346.5125,-418.1411 355.3872,-423.9282 357.0591,-417.1308"/>
</g>
<!-- Node159854 -->
<g id="node12" class="node">
<title>Node159854</title>
<g id="a_node12"><a xlink:href="quickjs_8c.html#ad6303fbd3add4afa0cb64b0aa6d431ce" target="_top" xlink:title="JS_IteratorNext2">
<polygon fill="none" stroke="#ff0000" points="430,-402.3661 430,-421.3661 521,-421.3661 521,-402.3661 430,-402.3661"/>
<text text-anchor="middle" x="475.5" y="-409.3661" font-family="Helvetica,sans-Serif" font-size="10.00" fill="#000000">JS_IteratorNext2</text>
</a>
</g>
</g>
<!-- Node159828&#45;&gt;Node159854 -->
<g id="edge11" class="edge">
<title>Node159828&#45;&gt;Node159854</title>
<path fill="none" stroke="#191970" d="M356.6603,-411.8661C378.4599,-411.8661 406.5551,-411.8661 429.9545,-411.8661"/>
<polygon fill="#191970" stroke="#191970" points="356.5126,-408.3662 346.5125,-411.8661 356.5125,-415.3662 356.5126,-408.3662"/>
</g>
<!-- Node159858 -->
<g id="node13" class="node">
<title>Node159858</title>
<g id="a_node13"><a xlink:href="quickjs_8c.html#a62424fefab7bcc97f49c978205c7a1c1" target="_top" xlink:title="js_for_await_of_next">
<polygon fill="none" stroke="#000000" points="422,-802.3661 422,-821.3661 529,-821.3661 529,-802.3661 422,-802.3661"/>
<text text-anchor="middle" x="475.5" y="-809.3661" font-family="Helvetica,sans-Serif" font-size="10.00" fill="#000000">js_for_await_of_next</text>
</a>
</g>
</g>
<!-- Node159828&#45;&gt;Node159858 -->
<g id="edge12" class="edge">
<title>Node159828&#45;&gt;Node159858</title>
<path fill="none" stroke="#191970" d="M326.2938,-431.4564C336.0566,-467.8527 357.3294,-548.4267 373,-616.8661 390.8203,-694.6938 354.7446,-734.2908 409,-792.8661 412.6717,-796.8301 417.1073,-799.9876 421.9249,-802.4997"/>
<polygon fill="#191970" stroke="#191970" points="329.6311,-430.3885 323.6525,-421.6417 322.8716,-432.2077 329.6311,-430.3885"/>
</g>
<!-- Node159859 -->
<g id="node14" class="node">
<title>Node159859</title>
<g id="a_node14"><a xlink:href="quickjs_8c.html#afd4ef2d701fa0702f321925b61c57bbf" target="_top" xlink:title="js_call_bound_function">
<polygon fill="none" stroke="#000000" points="417.5,-840.3661 417.5,-859.3661 533.5,-859.3661 533.5,-840.3661 417.5,-840.3661"/>
<text text-anchor="middle" x="475.5" y="-847.3661" font-family="Helvetica,sans-Serif" font-size="10.00" fill="#000000">js_call_bound_function</text>
</a>
</g>
</g>
<!-- Node159828&#45;&gt;Node159859 -->
<g id="edge14" class="edge">
<title>Node159828&#45;&gt;Node159859</title>
<path fill="none" stroke="#191970" d="M322.5246,-432.0726C328.6132,-507.507 353.5869,-771.3551 409,-830.8661 412.6002,-834.7326 416.9274,-837.8313 421.6252,-840.3118"/>
<polygon fill="#191970" stroke="#191970" points="325.978,-431.3399 321.7078,-421.6437 318.9994,-431.8865 325.978,-431.3399"/>
</g>
<!-- Node159889 -->
<g id="node16" class="node">
<title>Node159889</title>
<g id="a_node16"><a xlink:href="quickjs_8c.html#a3e852026d167fa03c673f86697dd3e67" target="_top" xlink:title="js_async_generator\l_resolve_or_reject">
<polygon fill="none" stroke="#ff0000" points="425,-352.8661 425,-382.8661 526,-382.8661 526,-352.8661 425,-352.8661"/>
<text text-anchor="start" x="433" y="-370.8661" font-family="Helvetica,sans-Serif" font-size="10.00" fill="#000000">js_async_generator</text>
<text text-anchor="middle" x="475.5" y="-359.8661" font-family="Helvetica,sans-Serif" font-size="10.00" fill="#000000">_resolve_or_reject</text>
</a>
</g>
</g>
<!-- Node159828&#45;&gt;Node159889 -->
<g id="edge20" class="edge">
<title>Node159828&#45;&gt;Node159889</title>
<path fill="none" stroke="#191970" d="M356.2915,-401.8155C376.6101,-396.029 402.4881,-388.6592 424.9377,-382.2658"/>
<polygon fill="#191970" stroke="#191970" points="355.1715,-398.4952 346.5125,-404.6004 357.0888,-405.2275 355.1715,-398.4952"/>
</g>
<!-- Node159872 -->
<g id="node17" class="node">
<title>Node159872</title>
<g id="a_node17"><a xlink:href="quickjs_8c.html#a2355fabf91f59212ea65baba1b0b7c1b" target="_top" xlink:title="js_async_generator_next">
<polygon fill="none" stroke="#000000" points="413,-314.3661 413,-333.3661 538,-333.3661 538,-314.3661 413,-314.3661"/>
<text text-anchor="middle" x="475.5" y="-321.3661" font-family="Helvetica,sans-Serif" font-size="10.00" fill="#000000">js_async_generator_next</text>
</a>
</g>
</g>
<!-- Node159828&#45;&gt;Node159872 -->
<g id="edge21" class="edge">
<title>Node159828&#45;&gt;Node159872</title>
<path fill="none" stroke="#191970" d="M338.4,-395.2695C355.2568,-379.995 382.1452,-357.6774 409,-343.8661 417.1481,-339.6756 426.3192,-336.2105 435.1878,-333.4094"/>
<polygon fill="#191970" stroke="#191970" points="335.9418,-392.7755 330.9748,-402.1339 340.6937,-397.9155 335.9418,-392.7755"/>
</g>
<!-- Node159873 -->
<g id="node18" class="node">
<title>Node159873</title>
<g id="a_node18"><a xlink:href="quickjs_8c.html#a50e94675d1c4cf67c88e72169ea3c21a" target="_top" xlink:title="js_dynamic_import">
<polygon fill="none" stroke="#000000" points="426.5,-162.3661 426.5,-181.3661 524.5,-181.3661 524.5,-162.3661 426.5,-162.3661"/>
<text text-anchor="middle" x="475.5" y="-169.3661" font-family="Helvetica,sans-Serif" font-size="10.00" fill="#000000">js_dynamic_import</text>
</a>
</g>
</g>
<!-- Node159828&#45;&gt;Node159873 -->
<g id="edge22" class="edge">
<title>Node159828&#45;&gt;Node159873</title>
<path fill="none" stroke="#191970" d="M323.0618,-392.2028C328.6391,-349.1581 347.9774,-246.0367 409,-190.8661 413.9877,-186.3567 419.9754,-182.911 426.287,-180.2794"/>
<polygon fill="#191970" stroke="#191970" points="319.5752,-391.8842 321.8764,-402.2261 326.5267,-392.7065 319.5752,-391.8842"/>
</g>
<!-- Node159884 -->
<g id="node19" class="node">
<title>Node159884</title>
<g id="a_node19"><a xlink:href="quickjs_8c.html#a8d4b24969540aff427939eeda47f451d" target="_top" xlink:title="js_function_apply">
<polygon fill="none" stroke="#ff0000" points="429.5,-124.3661 429.5,-143.3661 521.5,-143.3661 521.5,-124.3661 429.5,-124.3661"/>
<text text-anchor="middle" x="475.5" y="-131.3661" font-family="Helvetica,sans-Serif" font-size="10.00" fill="#000000">js_function_apply</text>
</a>
</g>
</g>
<!-- Node159828&#45;&gt;Node159884 -->
<g id="edge24" class="edge">
<title>Node159828&#45;&gt;Node159884</title>
<path fill="none" stroke="#191970" d="M325.2336,-392.0745C337.2654,-337.5652 373.1142,-187.0273 409,-152.8661 414.7398,-147.4021 421.9401,-143.4926 429.4664,-140.6993"/>
<polygon fill="#191970" stroke="#191970" points="321.7427,-391.6567 323.0363,-402.1723 328.5826,-393.1452 321.7427,-391.6567"/>
</g>
<!-- Node159892 -->
<g id="node20" class="node">
<title>Node159892</title>
<g id="a_node20"><a xlink:href="quickjs_8c.html#a677ad630a103e1f3d5129e0549112b50" target="_top" xlink:title="js_function_call">
<polygon fill="none" stroke="#000000" points="433.5,-276.3661 433.5,-295.3661 517.5,-295.3661 517.5,-276.3661 433.5,-276.3661"/>
<text text-anchor="middle" x="475.5" y="-283.3661" font-family="Helvetica,sans-Serif" font-size="10.00" fill="#000000">js_function_call</text>
</a>
</g>
</g>
<!-- Node159828&#45;&gt;Node159892 -->
<g id="edge26" class="edge">
<title>Node159828&#45;&gt;Node159892</title>
<path fill="none" stroke="#191970" d="M331.3075,-393.4007C345.6354,-369.4271 373.8218,-327.9346 409,-304.8661 416.3298,-300.0596 424.8867,-296.4493 433.3748,-293.7438"/>
<polygon fill="#191970" stroke="#191970" points="328.1829,-391.8119 326.1925,-402.2181 334.2378,-395.3245 328.1829,-391.8119"/>
</g>
<!-- Node159838 -->
<g id="node21" class="node">
<title>Node159838</title>
<g id="a_node21"><a xlink:href="quickjs_8c.html#a5e32da9a43002cb96dcbd62a1a340144" target="_top" xlink:title="js_array_from">
<polygon fill="none" stroke="#000000" points="437.5,-238.3661 437.5,-257.3661 513.5,-257.3661 513.5,-238.3661 437.5,-238.3661"/>
<text text-anchor="middle" x="475.5" y="-245.3661" font-family="Helvetica,sans-Serif" font-size="10.00" fill="#000000">js_array_from</text>
</a>
</g>
</g>
<!-- Node159828&#45;&gt;Node159838 -->
<g id="edge27" class="edge">
<title>Node159828&#45;&gt;Node159838</title>
<path fill="none" stroke="#191970" d="M327.5272,-392.3038C338.9726,-361.0314 365.6523,-299.9432 409,-266.8661 417.2091,-260.602 427.4075,-256.4024 437.3323,-253.5871"/>
<polygon fill="#191970" stroke="#191970" points="324.1237,-391.4322 324.1118,-402.027 330.7282,-393.7521 324.1237,-391.4322"/>
</g>
<!-- Node159850 -->
<g id="node22" class="node">
<title>Node159850</title>
<g id="a_node22"><a xlink:href="quickjs_8c.html#aa0bbf08a7e91459c68a312fba7016c6d" target="_top" xlink:title="js_array_every">
<polygon fill="none" stroke="#000000" points="435.5,-200.3661 435.5,-219.3661 515.5,-219.3661 515.5,-200.3661 435.5,-200.3661"/>
<text text-anchor="middle" x="475.5" y="-207.3661" font-family="Helvetica,sans-Serif" font-size="10.00" fill="#000000">js_array_every</text>
</a>
</g>
</g>
<!-- Node159828&#45;&gt;Node159850 -->
<g id="edge28" class="edge">
<title>Node159828&#45;&gt;Node159850</title>
<path fill="none" stroke="#191970" d="M324.9099,-392.0584C333.3718,-354.4897 356.9715,-272.7276 409,-228.8661 416.436,-222.5974 425.8239,-218.3934 435.1841,-215.5752"/>
<polygon fill="#191970" stroke="#191970" points="321.4082,-391.699 322.755,-402.2079 328.2556,-393.1528 321.4082,-391.699"/>
</g>
<!-- Node159893 -->
<g id="node23" class="node">
<title>Node159893</title>
<g id="a_node23"><a xlink:href="quickjs_8c.html#a36c1692489542a86dd79a7d39ab8ff95" target="_top" xlink:title="js_array_reduce">
<polygon fill="none" stroke="#000000" points="432.5,-764.3661 432.5,-783.3661 518.5,-783.3661 518.5,-764.3661 432.5,-764.3661"/>
<text text-anchor="middle" x="475.5" y="-771.3661" font-family="Helvetica,sans-Serif" font-size="10.00" fill="#000000">js_array_reduce</text>
</a>
</g>
</g>
<!-- Node159828&#45;&gt;Node159893 -->
<g id="edge29" class="edge">
<title>Node159828&#45;&gt;Node159893</title>
<path fill="none" stroke="#191970" d="M325.9493,-431.4242C344.3084,-503.9395 407.5344,-753.3601 409,-754.8661 415.2807,-761.3197 423.589,-765.6227 432.1979,-768.4813"/>
<polygon fill="#191970" stroke="#191970" points="329.338,-430.5479 323.4911,-421.7125 322.552,-432.2657 329.338,-430.5479"/>
</g>
<!-- Node159894 -->
<g id="node24" class="node">
<title>Node159894</title>
<g id="a_node24"><a xlink:href="quickjs_8c.html#a9dd41b086da4e13b3487cc9c6e2af2b8" target="_top" xlink:title="js_array_find">
<polygon fill="none" stroke="#000000" points="439.5,-726.3661 439.5,-745.3661 511.5,-745.3661 511.5,-726.3661 439.5,-726.3661"/>
<text text-anchor="middle" x="475.5" y="-733.3661" font-family="Helvetica,sans-Serif" font-size="10.00" fill="#000000">js_array_find</text>
</a>
</g>
</g>
<!-- Node159828&#45;&gt;Node159894 -->
<g id="edge30" class="edge">
<title>Node159828&#45;&gt;Node159894</title>
<path fill="none" stroke="#191970" d="M326.1139,-431.5358C343.2995,-497.3587 398.4874,-706.3808 409,-716.8661 417.0763,-724.9215 428.3162,-729.6147 439.2595,-732.3319"/>
<polygon fill="#191970" stroke="#191970" points="329.4375,-430.4101 323.5288,-421.6159 322.6637,-432.1754 329.4375,-430.4101"/>
</g>
<!-- Node159895 -->
<g id="node25" class="node">
<title>Node159895</title>
<g id="a_node25"><a xlink:href="quickjs_8c.html#ad90c33b4aae1181151bda4a98ac2ef23" target="_top" xlink:title="JS_FlattenIntoArray">
<polygon fill="none" stroke="#ff0000" points="423.5,-670.3661 423.5,-689.3661 527.5,-689.3661 527.5,-670.3661 423.5,-670.3661"/>
<text text-anchor="middle" x="475.5" y="-677.3661" font-family="Helvetica,sans-Serif" font-size="10.00" fill="#000000">JS_FlattenIntoArray</text>
</a>
</g>
</g>
<!-- Node159828&#45;&gt;Node159895 -->
<g id="edge31" class="edge">
<title>Node159828&#45;&gt;Node159895</title>
<path fill="none" stroke="#191970" d="M322.0468,-431.4176C325.6248,-478.1517 341.2703,-597.1732 409,-660.8661 413.1986,-664.8144 418.1605,-667.9501 423.4521,-670.4391"/>
<polygon fill="#191970" stroke="#191970" points="325.537,-431.1511 321.3855,-421.4035 318.5522,-431.6124 325.537,-431.1511"/>
</g>
<!-- Node159896 -->
<g id="node26" class="node">
<title>Node159896</title>
<g id="a_node26"><a xlink:href="quickjs_8c.html#a753547f952d9c8a7eba88924497c3847" target="_top" xlink:title="js_string_replace">
<polygon fill="none" stroke="#000000" points="430.5,-48.3661 430.5,-67.3661 520.5,-67.3661 520.5,-48.3661 430.5,-48.3661"/>
<text text-anchor="middle" x="475.5" y="-55.3661" font-family="Helvetica,sans-Serif" font-size="10.00" fill="#000000">js_string_replace</text>
</a>
</g>
</g>
<!-- Node159828&#45;&gt;Node159896 -->
<g id="edge33" class="edge">
<title>Node159828&#45;&gt;Node159896</title>
<path fill="none" stroke="#191970" d="M323.6171,-392.0468C332.5591,-327.2167 363.8638,-122.9795 409,-76.8661 414.7953,-70.9454 422.2975,-66.836 430.1656,-63.9917"/>
<polygon fill="#191970" stroke="#191970" points="320.1223,-391.7732 322.2501,-402.1522 327.0592,-392.7117 320.1223,-391.7732"/>
</g>
<!-- Node159897 -->
<g id="node27" class="node">
<title>Node159897</title>
<g id="a_node27"><a xlink:href="quickjs_8c.html#a624282391413d4c5a030adbd8b77aa80" target="_top" xlink:title="internalize_json_property">
<polygon fill="none" stroke="#ff0000" points="413,-614.3661 413,-633.3661 538,-633.3661 538,-614.3661 413,-614.3661"/>
<text text-anchor="middle" x="475.5" y="-621.3661" font-family="Helvetica,sans-Serif" font-size="10.00" fill="#000000">internalize_json_property</text>
</a>
</g>
</g>
<!-- Node159828&#45;&gt;Node159897 -->
<g id="edge34" class="edge">
<title>Node159828&#45;&gt;Node159897</title>
<path fill="none" stroke="#191970" d="M324.3642,-431.6755C332.0554,-470.7639 354.6357,-558.0771 409,-604.8661 413.5503,-608.7824 418.86,-611.8937 424.4587,-614.365"/>
<polygon fill="#191970" stroke="#191970" points="327.7608,-430.7946 322.5055,-421.5951 320.8769,-432.064 327.7608,-430.7946"/>
</g>
<!-- Node159899 -->
<g id="node28" class="node">
<title>Node159899</title>
<g id="a_node28"><a xlink:href="quickjs_8c.html#a0da6493b4bc0edb7ddddfab807241d0b" target="_top" xlink:title="js_json_check">
<polygon fill="none" stroke="#ff0000" points="436,-86.3661 436,-105.3661 515,-105.3661 515,-86.3661 436,-86.3661"/>
<text text-anchor="middle" x="475.5" y="-93.3661" font-family="Helvetica,sans-Serif" font-size="10.00" fill="#000000">js_json_check</text>
</a>
</g>
</g>
<!-- Node159828&#45;&gt;Node159899 -->
<g id="edge36" class="edge">
<title>Node159828&#45;&gt;Node159899</title>
<path fill="none" stroke="#191970" d="M324.2691,-392.3827C334.6261,-332.8641 368.4348,-155.0375 409,-114.8661 416.2519,-107.6846 426.0193,-103.1775 435.8324,-100.3604"/>
<polygon fill="#191970" stroke="#191970" points="320.8008,-391.9005 322.5633,-402.3477 327.7005,-393.0816 320.8008,-391.9005"/>
</g>
<!-- Node159902 -->
<g id="node29" class="node">
<title>Node159902</title>
<g id="a_node29"><a xlink:href="quickjs_8c.html#ab586d841244b113ba73eec314395775d" target="_top" xlink:title="js_proxy_call">
<polygon fill="none" stroke="#ff0000" points="438.5,-576.3661 438.5,-595.3661 512.5,-595.3661 512.5,-576.3661 438.5,-576.3661"/>
<text text-anchor="middle" x="475.5" y="-583.3661" font-family="Helvetica,sans-Serif" font-size="10.00" fill="#000000">js_proxy_call</text>
</a>
</g>
</g>
<!-- Node159828&#45;&gt;Node159902 -->
<g id="edge37" class="edge">
<title>Node159828&#45;&gt;Node159902</title>
<path fill="none" stroke="#191970" d="M326.6872,-431.3726C337.3098,-464.3306 363.3253,-530.9495 409,-566.8661 417.4002,-573.4717 427.9972,-577.7808 438.2482,-580.5918"/>
<polygon fill="#191970" stroke="#191970" points="329.9589,-430.1044 323.6687,-421.5789 323.2694,-432.1662 329.9589,-430.1044"/>
</g>
<!-- Node159858&#45;&gt;Node159815 -->
<g id="edge13" class="edge">
<title>Node159858&#45;&gt;Node159815</title>
<path fill="none" stroke="#191970" d="M414.5256,-797.2225C412.5804,-795.8935 410.729,-794.445 409,-792.8661 281.6171,-676.5457 324.8794,-594.0664 269,-430.8661 236.1595,-334.9527 203.564,-216.5074 194.1797,-181.8349"/>
<polygon fill="#191970" stroke="#191970" points="413.1354,-800.4565 423.5658,-802.3164 416.5718,-794.358 413.1354,-800.4565"/>
</g>
<!-- Node159859&#45;&gt;Node159815 -->
<g id="edge15" class="edge">
<title>Node159859&#45;&gt;Node159815</title>
<path fill="none" stroke="#191970" d="M416.9996,-836.0003C414.1931,-834.465 411.5054,-832.7599 409,-830.8661 314.7416,-759.6198 311.2704,-715.2015 269,-604.8661 207.2547,-443.6967 194.1282,-229.6301 191.8996,-181.6715"/>
<polygon fill="#191970" stroke="#191970" points="415.7491,-839.2793 426.2899,-840.3484 418.7165,-832.9394 415.7491,-839.2793"/>
</g>
<!-- Node159859&#45;&gt;Node159860 -->
<g id="edge16" class="edge">
<title>Node159859&#45;&gt;Node159860</title>
<path fill="none" stroke="#191970" d="M538.7238,-834.2415C539.8789,-833.1863 540.9743,-832.0626 542,-830.8661 597.7983,-765.7812 639.1852,-107.5123 644.4359,-20.3729"/>
<polygon fill="#191970" stroke="#191970" points="536.4216,-831.5856 530.3365,-840.2587 540.5021,-837.2733 536.4216,-831.5856"/>
</g>
<!-- Node159860&#45;&gt;Node159815 -->
<g id="edge17" class="edge">
<title>Node159860&#45;&gt;Node159815</title>
<path fill="none" stroke="#191970" d="M567.7467,-14.0661C486.9372,-16.4003 359.4941,-27.1226 269,-85.8661 237.3996,-106.3793 212.4483,-143.9406 200.058,-162.1949"/>
<polygon fill="#191970" stroke="#191970" points="567.9449,-17.5623 577.8529,-13.8095 567.7672,-10.5646 567.9449,-17.5623"/>
</g>
<!-- Node159873&#45;&gt;Node159815 -->
<g id="edge23" class="edge">
<title>Node159873&#45;&gt;Node159815</title>
<path fill="none" stroke="#191970" d="M415.8798,-171.8661C361.0941,-171.8661 281.2991,-171.8661 233.1002,-171.8661"/>
<polygon fill="#191970" stroke="#191970" points="416.1457,-175.3662 426.1457,-171.8661 416.1456,-168.3662 416.1457,-175.3662"/>
</g>
<!-- Node159884&#45;&gt;Node159815 -->
<g id="edge25" class="edge">
<title>Node159884&#45;&gt;Node159815</title>
<path fill="none" stroke="#191970" d="M418.8165,-141.4505C363.9799,-148.7878 282.1675,-159.7346 233.1002,-166.2999"/>
<polygon fill="#191970" stroke="#191970" points="419.6194,-144.8744 429.0669,-140.079 418.691,-137.9362 419.6194,-144.8744"/>
</g>
<!-- Node159895&#45;&gt;Node159895 -->
<g id="edge32" class="edge">
<title>Node159895&#45;&gt;Node159895</title>
<path fill="none" stroke="#191970" d="M446.7542,-698.5201C447.9558,-703.8029 457.5377,-707.8661 475.5,-707.8661 502.8711,-707.8661 510.7831,-698.4314 499.2359,-689.6232"/>
<polygon fill="#191970" stroke="#191970" points="449.9072,-700.054 451.7641,-689.6232 443.8077,-696.6193 449.9072,-700.054"/>
</g>
<!-- Node159897&#45;&gt;Node159897 -->
<g id="edge35" class="edge">
<title>Node159897&#45;&gt;Node159897</title>
<path fill="none" stroke="#191970" d="M446.7542,-642.5201C447.9558,-647.8029 457.5377,-651.8661 475.5,-651.8661 502.8711,-651.8661 510.7831,-642.4314 499.2359,-633.6232"/>
<polygon fill="#191970" stroke="#191970" points="449.9072,-644.054 451.7641,-633.6232 443.8077,-640.6193 449.9072,-644.054"/>
</g>
<!-- Node159911&#45;&gt;Node159815 -->
<g id="edge40" class="edge">
<title>Node159911&#45;&gt;Node159815</title>
<path fill="none" stroke="#191970" d="M303.8815,-110.7619C293.5736,-116.4147 280.3,-122.5202 269,-128.8661 250.3516,-139.3387 230.3295,-152.8367 215.3083,-162.2219"/>
<polygon fill="#191970" stroke="#191970" points="305.911,-113.6263 312.6946,-105.4879 302.3164,-107.6197 305.911,-113.6263"/>
</g>
<!-- Node159911&#45;&gt;Node159896 -->
<g id="edge42" class="edge">
<title>Node159911&#45;&gt;Node159896</title>
<path fill="none" stroke="#191970" d="M366.7158,-84.6221C388.941,-79.1557 415.3704,-72.6553 436.6129,-67.4306"/>
<polygon fill="#191970" stroke="#191970" points="365.7084,-81.2655 356.8337,-87.0526 367.3803,-88.0629 365.7084,-81.2655"/>
</g>
<!-- Node159911&#45;&gt;Node159899 -->
<g id="edge41" class="edge">
<title>Node159911&#45;&gt;Node159899</title>
<path fill="none" stroke="#191970" d="M366.8985,-95.8661C388.7986,-95.8661 414.7473,-95.8661 435.7877,-95.8661"/>
<polygon fill="#191970" stroke="#191970" points="366.8338,-92.3662 356.8337,-95.8661 366.8337,-99.3662 366.8338,-92.3662"/>
</g>
</g>
</svg>
        <g id="navigator" transform="translate(0 0)" fill="#404254">
                <rect fill="#f2f5e9" fill-opacity="0.5" stroke="#606060" stroke-width=".5" x="0" y="0" width="60" height="60"/>
                <use id="zoomplus" xlink:href="#zoomPlus" x="17" y="9" onmousedown="handleZoom(evt,'in')"/>
                <use id="zoomminus" xlink:href="#zoomMin" x="42" y="9" onmousedown="handleZoom(evt,'out')"/>
                <use id="reset" xlink:href="#resetDef" x="30" y="36" onmousedown="handleReset()"/>
                <g id="arrowUp" xlink:href="#dirArrow" transform="translate(30 24)" onmousedown="handlePan(0,-1)">
                  <use xlink:href="#rim" fill="#404040">
                        <set attributeName="fill" to="#808080" begin="arrowUp.mouseover" end="arrowUp.mouseout"/>
                  </use>
                  <path fill="none" stroke="white" stroke-width="1.5" d="M0,-3.0v7 M-2.5,-0.5L0,-3.0L2.5,-0.5"/>
                </g>
                <g id="arrowRight" xlink:href="#dirArrow" transform="rotate(90) translate(36 -43)" onmousedown="handlePan(1,0)">
                  <use xlink:href="#rim" fill="#404040">
                        <set attributeName="fill" to="#808080" begin="arrowRight.mouseover" end="arrowRight.mouseout"/>
                  </use>
                  <path fill="none" stroke="white" stroke-width="1.5" d="M0,-3.0v7 M-2.5,-0.5L0,-3.0L2.5,-0.5"/>
                </g>
                <g id="arrowDown" xlink:href="#dirArrow" transform="rotate(180) translate(-30 -48)" onmousedown="handlePan(0,1)">
                  <use xlink:href="#rim" fill="#404040">
                        <set attributeName="fill" to="#808080" begin="arrowDown.mouseover" end="arrowDown.mouseout"/>
                  </use>
                  <path fill="none" stroke="white" stroke-width="1.5" d="M0,-3.0v7 M-2.5,-0.5L0,-3.0L2.5,-0.5"/>
                </g>
                <g id="arrowLeft" xlink:href="#dirArrow" transform="rotate(270) translate(-36 17)" onmousedown="handlePan(-1,0)">
                  <use xlink:href="#rim" fill="#404040">
                        <set attributeName="fill" to="#808080" begin="arrowLeft.mouseover" end="arrowLeft.mouseout"/>
                  </use>
                  <path fill="none" stroke="white" stroke-width="1.5" d="M0,-3.0v7 M-2.5,-0.5L0,-3.0L2.5,-0.5"/>
                </g>
        </g>
        <svg viewBox="0 0 15 15" width="100%" height="30px" preserveAspectRatio="xMaxYMin meet">
         <g id="arrow_out" transform="scale(0.3 0.3)">
          <a xlink:href="quickjs_8c_a3865abec9986277dbff58ea314f3d82e_icgraph_org.svg" target="_base">
           <rect id="button" ry="5" rx="5" y="6" x="6" height="38" width="38"
                fill="#f2f5e9" fill-opacity="0.5" stroke="#606060" stroke-width="1.0"/>
           <path id="arrow"
             d="M 11.500037,31.436501 C 11.940474,20.09759 22.043105,11.32322 32.158766,21.979434 L 37.068811,17.246167 C 37.068811,17.246167 37.088388,32 37.088388,32 L 22.160133,31.978069 C 22.160133,31.978069 26.997745,27.140456 26.997745,27.140456 C 18.528582,18.264221 13.291696,25.230495 11.500037,31.436501 z"
             style="fill:#404040;"/>
          </a>
         </g>
        </svg>
</svg>
