<?xml version="1.0" encoding="UTF-8" standalone="no"?>
<!DOCTYPE svg PUBLIC "-//W3C//DTD SVG 1.1//EN"
 "http://www.w3.org/Graphics/SVG/1.1/DTD/svg11.dtd">
<!-- Generated by graphviz version 2.40.1 (20161225.0304)
 -->
<!-- Title: js_json_parse Pages: 1 -->
<!--zoomable 1092 -->
<svg id="main" version="1.1" xmlns="http://www.w3.org/2000/svg" xmlns:xlink="http://www.w3.org/1999/xlink" xml:space="preserve" onload="init(evt)">
<style type="text/css"><![CDATA[
.edge:hover path { stroke: red; }
.edge:hover polygon { stroke: red; fill: red; }
]]></style>
<script type="text/javascript"><![CDATA[
var edges = document.getElementsByTagName('g');
if (edges && edges.length) {
  for (var i=0;i<edges.length;i++) {
    if (edges[i].id.substr(0,4)=='edge') {
      edges[i].setAttribute('class','edge');
    }
  }
}
]]></script>
        <defs>
                <circle id="rim" cx="0" cy="0" r="7"/>
                <circle id="rim2" cx="0" cy="0" r="3.5"/>
                <g id="zoomPlus">
                        <use xlink:href="#rim" fill="#404040">
                                <set attributeName="fill" to="#808080" begin="zoomplus.mouseover" end="zoomplus.mouseout"/>
                        </use>
                        <path d="M-4,0h8M0,-4v8" fill="none" stroke="white" stroke-width="1.5" pointer-events="none"/>
                </g>
                <g id="zoomMin">
                        <use xlink:href="#rim" fill="#404040">
                                <set attributeName="fill" to="#808080" begin="zoomminus.mouseover" end="zoomminus.mouseout"/>
                        </use>
                        <path d="M-4,0h8" fill="none" stroke="white" stroke-width="1.5" pointer-events="none"/>
                </g>
                <g id="dirArrow">
                        <path fill="none" stroke="white" stroke-width="1.5" d="M0,-3.0v7 M-2.5,-0.5L0,-3.0L2.5,-0.5"/>
                </g>
               <g id="resetDef">
                       <use xlink:href="#rim2" fill="#404040">
                               <set attributeName="fill" to="#808080" begin="reset.mouseover" end="reset.mouseout"/>
                       </use>
               </g>
        </defs>

<script type="text/javascript">
var viewWidth = 836;
var viewHeight = 1092;
var sectionId = 'dynsection-1524';
</script>
<script xlink:href="svgpan.js"/>
<svg id="graph" class="graph">
<g id="viewport">
<title>js_json_parse</title>
<!-- Node396608 -->
<g id="node1" class="node">
<title>Node396608</title>
<polygon fill="#bfbfbf" stroke="#000000" points="0,-152.5 0,-171.5 77,-171.5 77,-152.5 0,-152.5"/>
<text text-anchor="middle" x="38.5" y="-159.5" font-family="Helvetica,sans-Serif" font-size="10.00" fill="#000000">js_json_parse</text>
</g>
<!-- Node396609 -->
<g id="node2" class="node">
<title>Node396609</title>
<g id="a_node2"><a xlink:href="quickjs_8c.html#a624282391413d4c5a030adbd8b77aa80" target="_top" xlink:title="internalize_json_property">
<polygon fill="none" stroke="#000000" points="243,-722.5 243,-741.5 368,-741.5 368,-722.5 243,-722.5"/>
<text text-anchor="middle" x="305.5" y="-729.5" font-family="Helvetica,sans-Serif" font-size="10.00" fill="#000000">internalize_json_property</text>
</a>
</g>
</g>
<!-- Node396608&#45;&gt;Node396609 -->
<g id="edge1" class="edge">
<title>Node396608&#45;&gt;Node396609</title>
<path fill="none" stroke="#191970" d="M39.4208,-171.5158C43.454,-210.3197 61.7101,-359.7666 113,-470 160.7943,-572.7206 251.9835,-675.4302 289.1355,-714.9964"/>
<polygon fill="#191970" stroke="#191970" points="286.7886,-717.6081 296.2081,-722.4583 291.8691,-712.7927 286.7886,-717.6081"/>
</g>
<!-- Node396782 -->
<g id="node7" class="node">
<title>Node396782</title>
<g id="a_node7"><a xlink:href="quickjs_8c.html#a0a8765bd4012467d9139bc24aabcb3ca" target="_top" xlink:title="JS_DefinePropertyValue">
<polygon fill="none" stroke="#ff0000" points="427,-456.5 427,-475.5 551,-475.5 551,-456.5 427,-456.5"/>
<text text-anchor="middle" x="489" y="-463.5" font-family="Helvetica,sans-Serif" font-size="10.00" fill="#000000">JS_DefinePropertyValue</text>
</a>
</g>
</g>
<!-- Node396608&#45;&gt;Node396782 -->
<g id="edge32" class="edge">
<title>Node396608&#45;&gt;Node396782</title>
<path fill="none" stroke="#191970" d="M40.2621,-171.8146C45.8395,-200.2431 65.6163,-283.689 113,-332 195.0677,-415.6738 332.8059,-447.2748 416.8392,-459.0867"/>
<polygon fill="#191970" stroke="#191970" points="416.4357,-462.5638 426.8136,-460.4312 417.3708,-455.6266 416.4357,-462.5638"/>
</g>
<!-- Node396680 -->
<g id="node8" class="node">
<title>Node396680</title>
<g id="a_node8"><a xlink:href="quickjs_8h.html#afaa20c47565bc704c6c85f3d77254e7d" target="_top" xlink:title="JS_FreeValue">
<polygon fill="none" stroke="#ff0000" points="750,-342.5 750,-361.5 828,-361.5 828,-342.5 750,-342.5"/>
<text text-anchor="middle" x="789" y="-349.5" font-family="Helvetica,sans-Serif" font-size="10.00" fill="#000000">JS_FreeValue</text>
</a>
</g>
</g>
<!-- Node396608&#45;&gt;Node396680 -->
<g id="edge35" class="edge">
<title>Node396608&#45;&gt;Node396680</title>
<path fill="none" stroke="#191970" d="M47.5239,-152.3124C60.55,-139.0394 86.0342,-115.6375 113,-105 192.9736,-73.452 219.5287,-86 305.5,-86 305.5,-86 305.5,-86 489,-86 638.0406,-86 747.6315,-272.0754 779.504,-332.9667"/>
<polygon fill="#191970" stroke="#191970" points="776.5703,-334.9163 784.2478,-342.2175 782.7991,-331.7221 776.5703,-334.9163"/>
</g>
<!-- Node396689 -->
<g id="node10" class="node">
<title>Node396689</title>
<g id="a_node10"><a xlink:href="quickjs_8h.html#ad80a83d73e9b7d872b88fbf2943aebe9" target="_top" xlink:title="JS_IsException">
<polygon fill="none" stroke="#000000" points="619,-399.5 619,-418.5 705,-418.5 705,-399.5 619,-399.5"/>
<text text-anchor="middle" x="662" y="-406.5" font-family="Helvetica,sans-Serif" font-size="10.00" fill="#000000">JS_IsException</text>
</a>
</g>
</g>
<!-- Node396608&#45;&gt;Node396689 -->
<g id="edge36" class="edge">
<title>Node396608&#45;&gt;Node396689</title>
<path fill="none" stroke="#191970" d="M77.3721,-157.4129C187.7676,-145.2799 499.9809,-117.4423 574,-181 639.2066,-236.9907 564.0927,-298.3406 610,-371 615.8231,-380.2164 624.7534,-387.9246 633.5795,-393.9365"/>
<polygon fill="#191970" stroke="#191970" points="631.9206,-397.0274 642.2519,-399.3759 635.6401,-391.0974 631.9206,-397.0274"/>
</g>
<!-- Node396705 -->
<g id="node22" class="node">
<title>Node396705</title>
<g id="a_node22"><a xlink:href="quickjs_8c.html#ae0bc4f65da64810facb2cb9e476eda2e" target="_top" xlink:title="JS_FreeCString">
<polygon fill="none" stroke="#000000" points="262.5,-38.5 262.5,-57.5 348.5,-57.5 348.5,-38.5 262.5,-38.5"/>
<text text-anchor="middle" x="305.5" y="-45.5" font-family="Helvetica,sans-Serif" font-size="10.00" fill="#000000">JS_FreeCString</text>
</a>
</g>
</g>
<!-- Node396608&#45;&gt;Node396705 -->
<g id="edge33" class="edge">
<title>Node396608&#45;&gt;Node396705</title>
<path fill="none" stroke="#191970" d="M43.267,-152.3452C53.2472,-133.2843 78.3208,-91.0215 113,-72 155.6476,-48.6078 211.4447,-43.9711 251.9799,-44.3727"/>
<polygon fill="#191970" stroke="#191970" points="252.1299,-47.8764 262.1999,-44.5831 252.2741,-40.8779 252.1299,-47.8764"/>
</g>
<!-- Node396720 -->
<g id="node23" class="node">
<title>Node396720</title>
<g id="a_node23"><a xlink:href="quickjs_8c.html#a1ca9cdb1fa2ffc3e6506e92b200e490f" target="_top" xlink:title="JS_IsFunction">
<polygon fill="none" stroke="#000000" points="120,-114.5 120,-133.5 200,-133.5 200,-114.5 120,-114.5"/>
<text text-anchor="middle" x="160" y="-121.5" font-family="Helvetica,sans-Serif" font-size="10.00" fill="#000000">JS_IsFunction</text>
</a>
</g>
</g>
<!-- Node396608&#45;&gt;Node396720 -->
<g id="edge37" class="edge">
<title>Node396608&#45;&gt;Node396720</title>
<path fill="none" stroke="#191970" d="M69.1596,-152.411C84.4124,-147.6406 103.0509,-141.8112 119.4666,-136.6771"/>
<polygon fill="#191970" stroke="#191970" points="120.8509,-139.9114 129.3502,-133.5859 118.7614,-133.2306 120.8509,-139.9114"/>
</g>
<!-- Node396902 -->
<g id="node24" class="node">
<title>Node396902</title>
<g id="a_node24"><a xlink:href="quickjs_8c.html#afc0d8ea75588216ec132a6e1655524a7" target="_top" xlink:title="JS_NewObject">
<polygon fill="none" stroke="#ff0000" points="447.5,-190.5 447.5,-209.5 530.5,-209.5 530.5,-190.5 447.5,-190.5"/>
<text text-anchor="middle" x="489" y="-197.5" font-family="Helvetica,sans-Serif" font-size="10.00" fill="#000000">JS_NewObject</text>
</a>
</g>
</g>
<!-- Node396608&#45;&gt;Node396902 -->
<g id="edge38" class="edge">
<title>Node396608&#45;&gt;Node396902</title>
<path fill="none" stroke="#191970" d="M77.026,-170.1666C88.5508,-172.3584 101.2477,-174.5263 113,-176 228.2143,-190.4478 364.4419,-196.3988 437.139,-198.6898"/>
<polygon fill="#191970" stroke="#191970" points="437.2919,-202.1959 447.3937,-199.0018 437.5048,-195.1992 437.2919,-202.1959"/>
</g>
<!-- Node397029 -->
<g id="node25" class="node">
<title>Node397029</title>
<g id="a_node25"><a xlink:href="quickjs_8c.html#a85a2abf65c29c82c085c9b7430538096" target="_top" xlink:title="JS_ParseJSON">
<polygon fill="none" stroke="#000000" points="117,-303.5 117,-322.5 203,-322.5 203,-303.5 117,-303.5"/>
<text text-anchor="middle" x="160" y="-310.5" font-family="Helvetica,sans-Serif" font-size="10.00" fill="#000000">JS_ParseJSON</text>
</a>
</g>
</g>
<!-- Node396608&#45;&gt;Node397029 -->
<g id="edge39" class="edge">
<title>Node396608&#45;&gt;Node397029</title>
<path fill="none" stroke="#191970" d="M46.472,-171.9075C66.6434,-196.9765 119.931,-263.2023 145.676,-295.1982"/>
<polygon fill="#191970" stroke="#191970" points="143.1608,-297.6554 152.1566,-303.2523 148.6145,-293.2671 143.1608,-297.6554"/>
</g>
<!-- Node396987 -->
<g id="node30" class="node">
<title>Node396987</title>
<g id="a_node30"><a xlink:href="quickjs_8h.html#a1e7f56471f8608df9405987087a56070" target="_top" xlink:title="JS_ToCStringLen">
<polygon fill="none" stroke="#ff0000" points="113,-.5 113,-19.5 207,-19.5 207,-.5 113,-.5"/>
<text text-anchor="middle" x="160" y="-7.5" font-family="Helvetica,sans-Serif" font-size="10.00" fill="#000000">JS_ToCStringLen</text>
</a>
</g>
</g>
<!-- Node396608&#45;&gt;Node396987 -->
<g id="edge54" class="edge">
<title>Node396608&#45;&gt;Node396987</title>
<path fill="none" stroke="#191970" d="M41.883,-152.4263C50.458,-129.3427 75.0915,-69.8795 113,-34 116.8116,-30.3924 121.2705,-27.1977 125.8964,-24.4117"/>
<polygon fill="#191970" stroke="#191970" points="127.741,-27.3931 134.8713,-19.5566 124.4104,-21.2362 127.741,-27.3931"/>
</g>
<!-- Node396609&#45;&gt;Node396609 -->
<g id="edge2" class="edge">
<title>Node396609&#45;&gt;Node396609</title>
<path fill="none" stroke="#191970" d="M283.3054,-741.7571C272.5081,-750.5653 279.9063,-760 305.5,-760 322.2959,-760 331.2556,-755.9368 332.3792,-750.6539"/>
<polygon fill="#191970" stroke="#191970" points="335.4506,-748.9747 327.6946,-741.7571 329.2567,-752.2361 335.4506,-748.9747"/>
</g>
<!-- Node396610 -->
<g id="node3" class="node">
<title>Node396610</title>
<g id="a_node3"><a xlink:href="quickjs_8c.html#afa67965c1017685fc6783776d6d0d4d7" target="_top" xlink:title="JS_AtomToValue">
<polygon fill="none" stroke="#000000" points="442.5,-1064.5 442.5,-1083.5 535.5,-1083.5 535.5,-1064.5 442.5,-1064.5"/>
<text text-anchor="middle" x="489" y="-1071.5" font-family="Helvetica,sans-Serif" font-size="10.00" fill="#000000">JS_AtomToValue</text>
</a>
</g>
</g>
<!-- Node396609&#45;&gt;Node396610 -->
<g id="edge3" class="edge">
<title>Node396609&#45;&gt;Node396610</title>
<path fill="none" stroke="#191970" d="M307.1976,-741.5547C315.9117,-789.5901 357.0343,-1004.2026 404,-1050 411.901,-1057.7045 422.0774,-1062.9738 432.6255,-1066.5684"/>
<polygon fill="#191970" stroke="#191970" points="431.7816,-1069.9682 442.3623,-1069.4204 433.7494,-1063.2504 431.7816,-1069.9682"/>
</g>
<!-- Node396639 -->
<g id="node5" class="node">
<title>Node396639</title>
<g id="a_node5"><a xlink:href="quickjs_8c.html#a1a4c02a29525d5cb2085dd8bca3af350" target="_top" xlink:title="JS_Call">
<polygon fill="none" stroke="#ff0000" points="463.5,-912.5 463.5,-931.5 514.5,-931.5 514.5,-912.5 463.5,-912.5"/>
<text text-anchor="middle" x="489" y="-919.5" font-family="Helvetica,sans-Serif" font-size="10.00" fill="#000000">JS_Call</text>
</a>
</g>
</g>
<!-- Node396609&#45;&gt;Node396639 -->
<g id="edge5" class="edge">
<title>Node396609&#45;&gt;Node396639</title>
<path fill="none" stroke="#191970" d="M308.0434,-741.6048C316.3351,-770.9387 345.4851,-859.9715 404,-903 418.0903,-913.3612 436.7997,-918.2383 453.0779,-920.4718"/>
<polygon fill="#191970" stroke="#191970" points="453.0312,-923.9873 463.351,-921.5889 453.788,-917.0283 453.0312,-923.9873"/>
</g>
<!-- Node396745 -->
<g id="node6" class="node">
<title>Node396745</title>
<g id="a_node6"><a xlink:href="quickjs_8c.html#a487008477f41a8649ebea7833c1a2694" target="_top" xlink:title="js_check_stack_overflow">
<polygon fill="none" stroke="#ff0000" points="425.5,-874.5 425.5,-893.5 552.5,-893.5 552.5,-874.5 425.5,-874.5"/>
<text text-anchor="middle" x="489" y="-881.5" font-family="Helvetica,sans-Serif" font-size="10.00" fill="#000000">js_check_stack_overflow</text>
</a>
</g>
</g>
<!-- Node396609&#45;&gt;Node396745 -->
<g id="edge6" class="edge">
<title>Node396609&#45;&gt;Node396745</title>
<path fill="none" stroke="#191970" d="M309.6261,-741.5457C320.8364,-766.2739 354.3803,-832.7295 404,-865 407.6365,-867.365 411.5253,-869.4385 415.5643,-871.2563"/>
<polygon fill="#191970" stroke="#191970" points="414.6259,-874.6481 425.2131,-875.0501 417.1874,-868.1335 414.6259,-874.6481"/>
</g>
<!-- Node396609&#45;&gt;Node396782 -->
<g id="edge7" class="edge">
<title>Node396609&#45;&gt;Node396782</title>
<path fill="none" stroke="#191970" d="M306.2319,-722.3761C309.5897,-685.327 326.8638,-550.7163 404,-485 407.998,-481.5939 412.4759,-478.7623 417.2299,-476.412"/>
<polygon fill="#191970" stroke="#191970" points="418.7884,-479.5538 426.6588,-472.461 416.0831,-473.0977 418.7884,-479.5538"/>
</g>
<!-- Node396609&#45;&gt;Node396680 -->
<g id="edge16" class="edge">
<title>Node396609&#45;&gt;Node396680</title>
<path fill="none" stroke="#191970" d="M309.6261,-722.4543C320.8364,-697.7261 354.3803,-631.2705 404,-599 468.9018,-556.7907 503.6089,-593.233 574,-561 644.4746,-528.7288 659.7047,-512.3183 714,-457 740.655,-429.8428 764.9575,-392.4964 778.2941,-370.439"/>
<polygon fill="#191970" stroke="#191970" points="781.3674,-372.1184 783.4664,-361.7336 775.3494,-368.5428 781.3674,-372.1184"/>
</g>
<!-- Node396940 -->
<g id="node9" class="node">
<title>Node396940</title>
<g id="a_node9"><a xlink:href="quickjs_8c.html#a2b88ed25233c441cbed7b0a027c9ee2f" target="_top" xlink:title="JS_DeleteProperty">
<polygon fill="none" stroke="#ff0000" points="439.5,-684.5 439.5,-703.5 538.5,-703.5 538.5,-684.5 439.5,-684.5"/>
<text text-anchor="middle" x="489" y="-691.5" font-family="Helvetica,sans-Serif" font-size="10.00" fill="#000000">JS_DeleteProperty</text>
</a>
</g>
</g>
<!-- Node396609&#45;&gt;Node396940 -->
<g id="edge9" class="edge">
<title>Node396609&#45;&gt;Node396940</title>
<path fill="none" stroke="#191970" d="M351.8048,-722.411C376.4559,-717.3061 406.9625,-710.9887 432.9447,-705.6082"/>
<polygon fill="#191970" stroke="#191970" points="433.9457,-708.9752 443.0282,-703.5201 432.5262,-702.1207 433.9457,-708.9752"/>
</g>
<!-- Node396609&#45;&gt;Node396689 -->
<g id="edge26" class="edge">
<title>Node396609&#45;&gt;Node396689</title>
<path fill="none" stroke="#191970" d="M307.4262,-722.4317C316.7443,-677.1111 358.557,-484.6691 404,-447 434.2741,-421.9049 542.2522,-413.37 608.5444,-410.476"/>
<polygon fill="#191970" stroke="#191970" points="608.9584,-413.9622 618.8077,-410.0583 608.6736,-406.968 608.9584,-413.9622"/>
</g>
<!-- Node396645 -->
<g id="node11" class="node">
<title>Node396645</title>
<g id="a_node11"><a xlink:href="quickjs_8c.html#abbf44eaeace1104a6bef718fbf5700fe" target="_top" xlink:title="JS_DupAtom">
<polygon fill="none" stroke="#ff0000" points="624.5,-798.5 624.5,-817.5 699.5,-817.5 699.5,-798.5 624.5,-798.5"/>
<text text-anchor="middle" x="662" y="-805.5" font-family="Helvetica,sans-Serif" font-size="10.00" fill="#000000">JS_DupAtom</text>
</a>
</g>
</g>
<!-- Node396609&#45;&gt;Node396645 -->
<g id="edge12" class="edge">
<title>Node396609&#45;&gt;Node396645</title>
<path fill="none" stroke="#191970" d="M319.4177,-741.6338C337.8357,-753.8292 371.7507,-774.4029 404,-784 475.142,-805.1711 561.756,-809.0215 614.3438,-809.0836"/>
<polygon fill="#191970" stroke="#191970" points="614.405,-812.5836 624.393,-809.0496 614.3812,-805.5836 614.405,-812.5836"/>
</g>
<!-- Node396922 -->
<g id="node12" class="node">
<title>Node396922</title>
<g id="a_node12"><a xlink:href="quickjs_8c.html#a6b42cd922447e1eb6bfc52761895a174" target="_top" xlink:title="js_free_prop_enum">
<polygon fill="none" stroke="#ff0000" points="612.5,-874.5 612.5,-893.5 711.5,-893.5 711.5,-874.5 612.5,-874.5"/>
<text text-anchor="middle" x="662" y="-881.5" font-family="Helvetica,sans-Serif" font-size="10.00" fill="#000000">js_free_prop_enum</text>
</a>
</g>
</g>
<!-- Node396609&#45;&gt;Node396922 -->
<g id="edge13" class="edge">
<title>Node396609&#45;&gt;Node396922</title>
<path fill="none" stroke="#191970" d="M307.3142,-741.7139C316.1175,-787.7039 355.9266,-982.7512 404,-1017 465.5362,-1060.84 507.4467,-1052.7673 574,-1017 619.1591,-992.7304 645.0298,-933.9868 655.8889,-903.3375"/>
<polygon fill="#191970" stroke="#191970" points="659.236,-904.3648 659.1108,-893.7707 652.6021,-902.1305 659.236,-904.3648"/>
</g>
<!-- Node396727 -->
<g id="node13" class="node">
<title>Node396727</title>
<g id="a_node13"><a xlink:href="quickjs_8c.html#ab7fc45a99935a1c0ba50b0216d9401a9" target="_top" xlink:title="JS_FreeAtom">
<polygon fill="none" stroke="#ff0000" points="750.5,-798.5 750.5,-817.5 827.5,-817.5 827.5,-798.5 750.5,-798.5"/>
<text text-anchor="middle" x="789" y="-805.5" font-family="Helvetica,sans-Serif" font-size="10.00" fill="#000000">JS_FreeAtom</text>
</a>
</g>
</g>
<!-- Node396609&#45;&gt;Node396727 -->
<g id="edge15" class="edge">
<title>Node396609&#45;&gt;Node396727</title>
<path fill="none" stroke="#191970" d="M368.1396,-738.5824C448.6146,-747.5322 592.4285,-765.1934 714,-789 723.9852,-790.9553 734.6279,-793.4171 744.6647,-795.9143"/>
<polygon fill="#191970" stroke="#191970" points="743.8984,-799.3308 754.4528,-798.406 745.6253,-792.5471 743.8984,-799.3308"/>
</g>
<!-- Node396682 -->
<g id="node14" class="node">
<title>Node396682</title>
<g id="a_node14"><a xlink:href="quickjs_8c.html#a718e904644ebc55548a5bdbd44f3adb9" target="_top" xlink:title="js_get_length32">
<polygon fill="none" stroke="#ff0000" points="446.5,-532.5 446.5,-551.5 531.5,-551.5 531.5,-532.5 446.5,-532.5"/>
<text text-anchor="middle" x="489" y="-539.5" font-family="Helvetica,sans-Serif" font-size="10.00" fill="#000000">js_get_length32</text>
</a>
</g>
</g>
<!-- Node396609&#45;&gt;Node396682 -->
<g id="edge17" class="edge">
<title>Node396609&#45;&gt;Node396682</title>
<path fill="none" stroke="#191970" d="M308.3636,-722.4094C317.3749,-693.9171 347.9346,-609.0854 404,-566 413.4038,-558.7734 424.884,-553.7227 436.3277,-550.1928"/>
<polygon fill="#191970" stroke="#191970" points="437.5958,-553.4749 446.3218,-547.4659 435.7531,-546.7217 437.5958,-553.4749"/>
</g>
<!-- Node396683 -->
<g id="node15" class="node">
<title>Node396683</title>
<g id="a_node15"><a xlink:href="quickjs_8h.html#a89b7c8686c7eee70b86be722ee4730ad" target="_top" xlink:title="JS_GetProperty">
<polygon fill="none" stroke="#ff0000" points="619,-618.5 619,-637.5 705,-637.5 705,-618.5 619,-618.5"/>
<text text-anchor="middle" x="662" y="-625.5" font-family="Helvetica,sans-Serif" font-size="10.00" fill="#000000">JS_GetProperty</text>
</a>
</g>
</g>
<!-- Node396609&#45;&gt;Node396683 -->
<g id="edge24" class="edge">
<title>Node396609&#45;&gt;Node396683</title>
<path fill="none" stroke="#191970" d="M368.1037,-739.3102C424.4571,-743.2259 508.2697,-742.3023 574,-713 606.7853,-698.3844 634.6332,-666.025 649.7755,-645.717"/>
<polygon fill="#191970" stroke="#191970" points="652.6264,-647.7475 655.6381,-637.5896 646.9493,-643.6523 652.6264,-647.7475"/>
</g>
<!-- Node396923 -->
<g id="node16" class="node">
<title>Node396923</title>
<g id="a_node16"><a xlink:href="quickjs_8c.html#a176ac5ff56a118a0b1b2566798d28823" target="_top" xlink:title="JS_GetOwnPropertyNamesInternal">
<polygon fill="none" stroke="#ff0000" points="404,-836.5 404,-855.5 574,-855.5 574,-836.5 404,-836.5"/>
<text text-anchor="middle" x="489" y="-843.5" font-family="Helvetica,sans-Serif" font-size="10.00" fill="#000000">JS_GetOwnPropertyNamesInternal</text>
</a>
</g>
</g>
<!-- Node396609&#45;&gt;Node396923 -->
<g id="edge20" class="edge">
<title>Node396609&#45;&gt;Node396923</title>
<path fill="none" stroke="#191970" d="M313.3622,-741.7197C328.7872,-760.1474 364.9338,-800.2626 404,-822 412.2542,-826.5928 421.4577,-830.365 430.6758,-833.4455"/>
<polygon fill="#191970" stroke="#191970" points="429.6602,-836.7949 440.248,-836.4107 431.7315,-830.1084 429.6602,-836.7949"/>
</g>
<!-- Node397027 -->
<g id="node17" class="node">
<title>Node397027</title>
<g id="a_node17"><a xlink:href="quickjs_8c.html#a1fc2c29e89230a9792fd36ae50b270e4" target="_top" xlink:title="JS_IsArray">
<polygon fill="none" stroke="#ff0000" points="456.5,-646.5 456.5,-665.5 521.5,-665.5 521.5,-646.5 456.5,-646.5"/>
<text text-anchor="middle" x="489" y="-653.5" font-family="Helvetica,sans-Serif" font-size="10.00" fill="#000000">JS_IsArray</text>
</a>
</g>
</g>
<!-- Node396609&#45;&gt;Node397027 -->
<g id="edge25" class="edge">
<title>Node396609&#45;&gt;Node397027</title>
<path fill="none" stroke="#191970" d="M318.8557,-722.4851C337.1986,-709.8462 371.6083,-687.6476 404,-675 417.357,-669.7846 432.4816,-665.826 446.2316,-662.9087"/>
<polygon fill="#191970" stroke="#191970" points="447.3031,-666.2641 456.4262,-660.8772 445.935,-659.399 447.3031,-666.2641"/>
</g>
<!-- Node396809 -->
<g id="node18" class="node">
<title>Node396809</title>
<g id="a_node18"><a xlink:href="quickjs_8h.html#a3d68fe446df2d9c7d1900b16371bff5b" target="_top" xlink:title="JS_IsObject">
<polygon fill="none" stroke="#000000" points="453.5,-608.5 453.5,-627.5 524.5,-627.5 524.5,-608.5 453.5,-608.5"/>
<text text-anchor="middle" x="489" y="-615.5" font-family="Helvetica,sans-Serif" font-size="10.00" fill="#000000">JS_IsObject</text>
</a>
</g>
</g>
<!-- Node396609&#45;&gt;Node396809 -->
<g id="edge27" class="edge">
<title>Node396609&#45;&gt;Node396809</title>
<path fill="none" stroke="#191970" d="M312.4382,-722.4266C327.0389,-703.0296 362.9926,-659.0636 404,-637 415.9907,-630.5485 430.0627,-626.2849 443.2682,-623.4681"/>
<polygon fill="#191970" stroke="#191970" points="443.9815,-626.8952 453.1488,-621.5838 442.6702,-620.0191 443.9815,-626.8952"/>
</g>
<!-- Node396722 -->
<g id="node19" class="node">
<title>Node396722</title>
<g id="a_node19"><a xlink:href="quickjs_8h.html#a4e407128a9605afb77523e49e9a627fd" target="_top" xlink:title="JS_IsUndefined">
<polygon fill="none" stroke="#000000" points="446,-988.5 446,-1007.5 532,-1007.5 532,-988.5 446,-988.5"/>
<text text-anchor="middle" x="489" y="-995.5" font-family="Helvetica,sans-Serif" font-size="10.00" fill="#000000">JS_IsUndefined</text>
</a>
</g>
</g>
<!-- Node396609&#45;&gt;Node396722 -->
<g id="edge28" class="edge">
<title>Node396609&#45;&gt;Node396722</title>
<path fill="none" stroke="#191970" d="M306.2319,-741.6239C309.5897,-778.673 326.8638,-913.2837 404,-979 412.9025,-986.5845 424.1844,-991.3204 435.5953,-994.2366"/>
<polygon fill="#191970" stroke="#191970" points="435.0914,-997.7075 445.5997,-996.3568 436.5427,-990.8595 435.0914,-997.7075"/>
</g>
<!-- Node396842 -->
<g id="node20" class="node">
<title>Node396842</title>
<g id="a_node20"><a xlink:href="quickjs_8c.html#a7445082229205ad47aec019d74536f8e" target="_top" xlink:title="JS_NewAtomUInt32">
<polygon fill="none" stroke="#ff0000" points="435.5,-494.5 435.5,-513.5 542.5,-513.5 542.5,-494.5 435.5,-494.5"/>
<text text-anchor="middle" x="489" y="-501.5" font-family="Helvetica,sans-Serif" font-size="10.00" fill="#000000">JS_NewAtomUInt32</text>
</a>
</g>
</g>
<!-- Node396609&#45;&gt;Node396842 -->
<g id="edge29" class="edge">
<title>Node396609&#45;&gt;Node396842</title>
<path fill="none" stroke="#191970" d="M307.0091,-722.2532C312.7405,-688.7128 336.3651,-577.1529 404,-523 410.3777,-517.8936 417.8497,-514.0963 425.67,-511.283"/>
<polygon fill="#191970" stroke="#191970" points="426.7987,-514.5978 435.3315,-508.3176 424.7447,-507.9059 426.7987,-514.5978"/>
</g>
<!-- Node396747 -->
<g id="node21" class="node">
<title>Node396747</title>
<g id="a_node21"><a xlink:href="quickjs_8c.html#a8353f635fb8a20553c08db8cf38c17e0" target="_top" xlink:title="JS_ThrowStackOverflow">
<polygon fill="none" stroke="#ff0000" points="426.5,-950.5 426.5,-969.5 551.5,-969.5 551.5,-950.5 426.5,-950.5"/>
<text text-anchor="middle" x="489" y="-957.5" font-family="Helvetica,sans-Serif" font-size="10.00" fill="#000000">JS_ThrowStackOverflow</text>
</a>
</g>
</g>
<!-- Node396609&#45;&gt;Node396747 -->
<g id="edge31" class="edge">
<title>Node396609&#45;&gt;Node396747</title>
<path fill="none" stroke="#191970" d="M307.0091,-741.7468C312.7405,-775.2872 336.3651,-886.8471 404,-941 407.8547,-944.0863 412.1091,-946.6944 416.5985,-948.896"/>
<polygon fill="#191970" stroke="#191970" points="415.5149,-952.2366 426.0909,-952.8674 418.2166,-945.779 415.5149,-952.2366"/>
</g>
<!-- Node396611 -->
<g id="node4" class="node">
<title>Node396611</title>
<g id="a_node4"><a xlink:href="quickjs_8c.html#a06ff303a11e6641cbf1f6634e6a61811" target="_top" xlink:title="__JS_AtomToValue">
<polygon fill="none" stroke="#ff0000" points="610,-1064.5 610,-1083.5 714,-1083.5 714,-1064.5 610,-1064.5"/>
<text text-anchor="middle" x="662" y="-1071.5" font-family="Helvetica,sans-Serif" font-size="10.00" fill="#000000">__JS_AtomToValue</text>
</a>
</g>
</g>
<!-- Node396610&#45;&gt;Node396611 -->
<g id="edge4" class="edge">
<title>Node396610&#45;&gt;Node396611</title>
<path fill="none" stroke="#191970" d="M535.8163,-1074C555.5093,-1074 578.7059,-1074 599.8032,-1074"/>
<polygon fill="#191970" stroke="#191970" points="599.967,-1077.5001 609.9669,-1074 599.9669,-1070.5001 599.967,-1077.5001"/>
</g>
<!-- Node396782&#45;&gt;Node396680 -->
<g id="edge8" class="edge">
<title>Node396782&#45;&gt;Node396680</title>
<path fill="none" stroke="#191970" d="M551.4556,-465.6608C598.5259,-463.0587 663.3912,-454.326 714,-428 740.4682,-414.2316 763.2997,-387.7361 776.6057,-369.9583"/>
<polygon fill="#191970" stroke="#191970" points="779.6464,-371.7259 782.6643,-361.5699 773.9718,-367.6273 779.6464,-371.7259"/>
</g>
<!-- Node396940&#45;&gt;Node396680 -->
<g id="edge10" class="edge">
<title>Node396940&#45;&gt;Node396680</title>
<path fill="none" stroke="#191970" d="M538.8467,-697.7307C589.6138,-698.6612 667.3146,-691.7183 714,-647 754.5122,-608.1948 779.4139,-430.844 786.7327,-371.4479"/>
<polygon fill="#191970" stroke="#191970" points="790.2096,-371.8486 787.9281,-361.5024 783.2596,-371.0132 790.2096,-371.8486"/>
</g>
<!-- Node396940&#45;&gt;Node396689 -->
<g id="edge11" class="edge">
<title>Node396940&#45;&gt;Node396689</title>
<path fill="none" stroke="#191970" d="M538.9121,-691.5364C551.6022,-688.7338 564.3584,-683.7263 574,-675 611.7887,-640.7986 646.6793,-484.3423 658.0939,-428.7064"/>
<polygon fill="#191970" stroke="#191970" points="661.5626,-429.2111 660.1121,-418.716 654.7012,-427.825 661.5626,-429.2111"/>
</g>
<!-- Node396922&#45;&gt;Node396727 -->
<g id="edge14" class="edge">
<title>Node396922&#45;&gt;Node396727</title>
<path fill="none" stroke="#191970" d="M684.9544,-874.4394C694.1641,-870.339 704.7637,-865.28 714,-860 733.1371,-849.06 753.6248,-834.6529 768.3429,-823.7782"/>
<polygon fill="#191970" stroke="#191970" points="770.7883,-826.3198 776.6979,-817.5262 766.5944,-820.7152 770.7883,-826.3198"/>
</g>
<!-- Node396682&#45;&gt;Node396689 -->
<g id="edge19" class="edge">
<title>Node396682&#45;&gt;Node396689</title>
<path fill="none" stroke="#191970" d="M531.8804,-538.3119C546.1109,-535.6037 561.4975,-530.9549 574,-523 611.4312,-499.1838 639.2515,-453.6124 652.8006,-427.8873"/>
<polygon fill="#191970" stroke="#191970" points="656.0144,-429.289 657.4309,-418.7893 649.7759,-426.1139 656.0144,-429.289"/>
</g>
<!-- Node396682&#45;&gt;Node396683 -->
<g id="edge18" class="edge">
<title>Node396682&#45;&gt;Node396683</title>
<path fill="none" stroke="#191970" d="M508.175,-551.5321C538.5714,-566.6424 597.995,-596.1825 633.426,-613.7956"/>
<polygon fill="#191970" stroke="#191970" points="632.2265,-617.1079 642.7391,-618.4252 635.3425,-610.8396 632.2265,-617.1079"/>
</g>
<!-- Node396923&#45;&gt;Node396645 -->
<g id="edge21" class="edge">
<title>Node396923&#45;&gt;Node396645</title>
<path fill="none" stroke="#191970" d="M532.6552,-836.411C557.5747,-830.9373 588.8412,-824.0696 614.3907,-818.4575"/>
<polygon fill="#191970" stroke="#191970" points="615.2186,-821.8592 624.2348,-816.2952 613.7168,-815.0222 615.2186,-821.8592"/>
</g>
<!-- Node396923&#45;&gt;Node396922 -->
<g id="edge22" class="edge">
<title>Node396923&#45;&gt;Node396922</title>
<path fill="none" stroke="#191970" d="M532.6552,-855.589C555.7929,-860.6713 584.4024,-866.9554 608.8268,-872.3203"/>
<polygon fill="#191970" stroke="#191970" points="608.1406,-875.753 618.6587,-874.4799 609.6425,-868.916 608.1406,-875.753"/>
</g>
<!-- Node396923&#45;&gt;Node396727 -->
<g id="edge23" class="edge">
<title>Node396923&#45;&gt;Node396727</title>
<path fill="none" stroke="#191970" d="M574.0843,-842.1122C616.3579,-839.3451 668.0895,-834.7004 714,-827 724.5408,-825.232 735.7747,-822.7275 746.2525,-820.1151"/>
<polygon fill="#191970" stroke="#191970" points="747.2093,-823.483 756.0193,-817.598 745.4622,-816.7045 747.2093,-823.483"/>
</g>
<!-- Node396842&#45;&gt;Node396689 -->
<g id="edge30" class="edge">
<title>Node396842&#45;&gt;Node396689</title>
<path fill="none" stroke="#191970" d="M542.5383,-496.2468C553.2957,-493.5368 564.2743,-489.8931 574,-485 603.1346,-470.342 630.545,-443.9152 646.8034,-426.4125"/>
<polygon fill="#191970" stroke="#191970" points="649.7332,-428.3911 653.8476,-418.6278 644.5427,-423.6944 649.7332,-428.3911"/>
</g>
<!-- Node396705&#45;&gt;Node396680 -->
<g id="edge34" class="edge">
<title>Node396705&#45;&gt;Node396680</title>
<path fill="none" stroke="#191970" d="M338.3547,-38.4286C414.1427,-18.53 603.1781,18.3314 714,-72 755.1412,-105.5344 779.4039,-273.9074 786.6708,-332.1442"/>
<polygon fill="#191970" stroke="#191970" points="783.2179,-332.7451 787.8975,-342.2504 790.1669,-331.9015 783.2179,-332.7451"/>
</g>
<!-- Node397029&#45;&gt;Node396689 -->
<g id="edge43" class="edge">
<title>Node397029&#45;&gt;Node396689</title>
<path fill="none" stroke="#191970" d="M203.0182,-306.7967C245.6425,-302.0856 312.419,-298.5975 368,-313 385.7182,-317.5912 387.1187,-325.9266 404,-333 472.7808,-361.8197 556.1555,-384.2596 609.146,-397.0634"/>
<polygon fill="#191970" stroke="#191970" points="608.4613,-400.4982 619.0009,-399.418 610.088,-393.6899 608.4613,-400.4982"/>
</g>
<!-- Node397030 -->
<g id="node26" class="node">
<title>Node397030</title>
<g id="a_node26"><a xlink:href="quickjs_8c.html#a7cd95e5ed87d4b27630af7944855779f" target="_top" xlink:title="free_token">
<polygon fill="none" stroke="#000000" points="631,-342.5 631,-361.5 693,-361.5 693,-342.5 631,-342.5"/>
<text text-anchor="middle" x="662" y="-349.5" font-family="Helvetica,sans-Serif" font-size="10.00" fill="#000000">free_token</text>
</a>
</g>
</g>
<!-- Node397029&#45;&gt;Node397030 -->
<g id="edge40" class="edge">
<title>Node397029&#45;&gt;Node397030</title>
<path fill="none" stroke="#191970" d="M170.1798,-322.9082C184.8422,-336.4124 213.4112,-359.9517 243,-369 376.152,-409.7182 544.2122,-380.1079 620.7042,-362.5258"/>
<polygon fill="#191970" stroke="#191970" points="621.9436,-365.8298 630.8766,-360.1332 620.3409,-359.0158 621.9436,-365.8298"/>
</g>
<!-- Node397031 -->
<g id="node27" class="node">
<title>Node397031</title>
<g id="a_node27"><a xlink:href="quickjs_8c.html#a317ecdd2a00184939feb6a0b3df79b2b" target="_top" xlink:title="js_parse_init">
<polygon fill="none" stroke="#000000" points="270,-322.5 270,-341.5 341,-341.5 341,-322.5 270,-322.5"/>
<text text-anchor="middle" x="305.5" y="-329.5" font-family="Helvetica,sans-Serif" font-size="10.00" fill="#000000">js_parse_init</text>
</a>
</g>
</g>
<!-- Node397029&#45;&gt;Node397031 -->
<g id="edge44" class="edge">
<title>Node397029&#45;&gt;Node397031</title>
<path fill="none" stroke="#191970" d="M203.2609,-318.6492C221.1304,-320.9827 241.8572,-323.6893 259.9585,-326.053"/>
<polygon fill="#191970" stroke="#191970" points="259.6205,-329.5385 269.9896,-327.3629 260.527,-322.5974 259.6205,-329.5385"/>
</g>
<!-- Node397032 -->
<g id="node28" class="node">
<title>Node397032</title>
<g id="a_node28"><a xlink:href="quickjs_8c.html#a756c1ab5dee9a6dd07723d7a075e2a53" target="_top" xlink:title="json_parse_value">
<polygon fill="none" stroke="#ff0000" points="259.5,-228.5 259.5,-247.5 351.5,-247.5 351.5,-228.5 259.5,-228.5"/>
<text text-anchor="middle" x="305.5" y="-235.5" font-family="Helvetica,sans-Serif" font-size="10.00" fill="#000000">json_parse_value</text>
</a>
</g>
</g>
<!-- Node397029&#45;&gt;Node397032 -->
<g id="edge45" class="edge">
<title>Node397029&#45;&gt;Node397032</title>
<path fill="none" stroke="#191970" d="M178.7237,-303.3486C203.8241,-290.4102 248.5818,-267.3393 277.6448,-252.3584"/>
<polygon fill="#191970" stroke="#191970" points="279.5632,-255.3072 286.8482,-247.6144 276.3559,-249.0851 279.5632,-255.3072"/>
</g>
<!-- Node397034 -->
<g id="node29" class="node">
<title>Node397034</title>
<g id="a_node29"><a xlink:href="quickjs_8c.html#a75a3798e2045f6e403c1ef467126d1fb" target="_top" xlink:title="next_token">
<polygon fill="none" stroke="#ff0000" points="456.5,-304.5 456.5,-323.5 521.5,-323.5 521.5,-304.5 456.5,-304.5"/>
<text text-anchor="middle" x="489" y="-311.5" font-family="Helvetica,sans-Serif" font-size="10.00" fill="#000000">next_token</text>
</a>
</g>
</g>
<!-- Node397029&#45;&gt;Node397034 -->
<g id="edge53" class="edge">
<title>Node397029&#45;&gt;Node397034</title>
<path fill="none" stroke="#191970" d="M175.5074,-322.5695C191.669,-331.9359 218.0702,-345.5645 243,-351 297.2803,-362.8349 313.2763,-360.578 368,-351 384.7565,-348.0672 387.8041,-343.2034 404,-338 417.6112,-333.627 432.5825,-329.2559 446.1177,-325.4654"/>
<polygon fill="#191970" stroke="#191970" points="447.4387,-328.7314 456.142,-322.6895 445.5706,-321.9852 447.4387,-328.7314"/>
</g>
<!-- Node397030&#45;&gt;Node396680 -->
<g id="edge42" class="edge">
<title>Node397030&#45;&gt;Node396680</title>
<path fill="none" stroke="#191970" d="M693.0677,-352C707.0431,-352 723.8834,-352 739.528,-352"/>
<polygon fill="#191970" stroke="#191970" points="739.594,-355.5001 749.594,-352 739.5939,-348.5001 739.594,-355.5001"/>
</g>
<!-- Node397030&#45;&gt;Node396727 -->
<g id="edge41" class="edge">
<title>Node397030&#45;&gt;Node396727</title>
<path fill="none" stroke="#191970" d="M681.7916,-361.5967C693.0066,-368.0672 706.2957,-377.6738 714,-390 756.6572,-458.2474 781.104,-714.0979 787.3763,-787.9348"/>
<polygon fill="#191970" stroke="#191970" points="783.9103,-788.4902 788.2269,-798.1658 790.8862,-787.9101 783.9103,-788.4902"/>
</g>
<!-- Node397032&#45;&gt;Node396680 -->
<g id="edge46" class="edge">
<title>Node397032&#45;&gt;Node396680</title>
<path fill="none" stroke="#191970" d="M351.8915,-235.1172C406.0471,-232.9605 497.8987,-233.0761 574,-252 647.4731,-270.2704 726.3436,-313.9013 764.9354,-337.0243"/>
<polygon fill="#191970" stroke="#191970" points="763.4862,-340.2388 773.8513,-342.4332 767.117,-334.254 763.4862,-340.2388"/>
</g>
<!-- Node397032&#45;&gt;Node396689 -->
<g id="edge47" class="edge">
<title>Node397032&#45;&gt;Node396689</title>
<path fill="none" stroke="#191970" d="M351.7203,-245.5189C423.8309,-257.5886 556.6851,-281.3159 574,-295 603.3236,-318.1747 586.1789,-342.1991 610,-371 617.162,-379.6593 626.7149,-387.3761 635.6776,-393.556"/>
<polygon fill="#191970" stroke="#191970" points="634.0452,-396.6699 644.3331,-399.2014 637.8693,-390.8068 634.0452,-396.6699"/>
</g>
<!-- Node397032&#45;&gt;Node396902 -->
<g id="edge48" class="edge">
<title>Node397032&#45;&gt;Node396902</title>
<path fill="none" stroke="#191970" d="M351.8048,-228.411C377.883,-223.0106 410.5144,-216.2532 437.4097,-210.6835"/>
<polygon fill="#191970" stroke="#191970" points="438.3287,-214.0676 447.4112,-208.6124 436.9092,-207.213 438.3287,-214.0676"/>
</g>
<!-- Node397032&#45;&gt;Node397032 -->
<g id="edge49" class="edge">
<title>Node397032&#45;&gt;Node397032</title>
<path fill="none" stroke="#191970" d="M283.3054,-247.7571C272.5081,-256.5653 279.9063,-266 305.5,-266 322.2959,-266 331.2556,-261.9368 332.3792,-256.6539"/>
<polygon fill="#191970" stroke="#191970" points="335.4506,-254.9747 327.6946,-247.7571 329.2567,-258.2361 335.4506,-254.9747"/>
</g>
<!-- Node397032&#45;&gt;Node397034 -->
<g id="edge50" class="edge">
<title>Node397032&#45;&gt;Node397034</title>
<path fill="none" stroke="#191970" d="M321.0458,-247.5294C340.056,-258.8671 373.4771,-277.7925 404,-290 417.5189,-295.4068 432.703,-300.1046 446.4572,-303.8754"/>
<polygon fill="#191970" stroke="#191970" points="445.6123,-307.2722 456.1755,-306.4542 447.4077,-300.5064 445.6123,-307.2722"/>
</g>
<!-- Node397034&#45;&gt;Node396689 -->
<g id="edge52" class="edge">
<title>Node397034&#45;&gt;Node396689</title>
<path fill="none" stroke="#191970" d="M506.5402,-323.6319C537.0571,-340.3897 600.0692,-374.9917 635.7906,-394.6076"/>
<polygon fill="#191970" stroke="#191970" points="634.2205,-397.7383 644.6706,-399.4838 637.5899,-391.6026 634.2205,-397.7383"/>
</g>
<!-- Node397034&#45;&gt;Node397030 -->
<g id="edge51" class="edge">
<title>Node397034&#45;&gt;Node397030</title>
<path fill="none" stroke="#191970" d="M521.54,-321.1475C549.6801,-327.3286 590.5058,-336.2961 620.8977,-342.9718"/>
<polygon fill="#191970" stroke="#191970" points="620.2531,-346.4135 630.7712,-345.1405 621.7549,-339.5765 620.2531,-346.4135"/>
</g>
</g>
</svg>
        <g id="navigator" transform="translate(0 0)" fill="#404254">
                <rect fill="#f2f5e9" fill-opacity="0.5" stroke="#606060" stroke-width=".5" x="0" y="0" width="60" height="60"/>
                <use id="zoomplus" xlink:href="#zoomPlus" x="17" y="9" onmousedown="handleZoom(evt,'in')"/>
                <use id="zoomminus" xlink:href="#zoomMin" x="42" y="9" onmousedown="handleZoom(evt,'out')"/>
                <use id="reset" xlink:href="#resetDef" x="30" y="36" onmousedown="handleReset()"/>
                <g id="arrowUp" xlink:href="#dirArrow" transform="translate(30 24)" onmousedown="handlePan(0,-1)">
                  <use xlink:href="#rim" fill="#404040">
                        <set attributeName="fill" to="#808080" begin="arrowUp.mouseover" end="arrowUp.mouseout"/>
                  </use>
                  <path fill="none" stroke="white" stroke-width="1.5" d="M0,-3.0v7 M-2.5,-0.5L0,-3.0L2.5,-0.5"/>
                </g>
                <g id="arrowRight" xlink:href="#dirArrow" transform="rotate(90) translate(36 -43)" onmousedown="handlePan(1,0)">
                  <use xlink:href="#rim" fill="#404040">
                        <set attributeName="fill" to="#808080" begin="arrowRight.mouseover" end="arrowRight.mouseout"/>
                  </use>
                  <path fill="none" stroke="white" stroke-width="1.5" d="M0,-3.0v7 M-2.5,-0.5L0,-3.0L2.5,-0.5"/>
                </g>
                <g id="arrowDown" xlink:href="#dirArrow" transform="rotate(180) translate(-30 -48)" onmousedown="handlePan(0,1)">
                  <use xlink:href="#rim" fill="#404040">
                        <set attributeName="fill" to="#808080" begin="arrowDown.mouseover" end="arrowDown.mouseout"/>
                  </use>
                  <path fill="none" stroke="white" stroke-width="1.5" d="M0,-3.0v7 M-2.5,-0.5L0,-3.0L2.5,-0.5"/>
                </g>
                <g id="arrowLeft" xlink:href="#dirArrow" transform="rotate(270) translate(-36 17)" onmousedown="handlePan(-1,0)">
                  <use xlink:href="#rim" fill="#404040">
                        <set attributeName="fill" to="#808080" begin="arrowLeft.mouseover" end="arrowLeft.mouseout"/>
                  </use>
                  <path fill="none" stroke="white" stroke-width="1.5" d="M0,-3.0v7 M-2.5,-0.5L0,-3.0L2.5,-0.5"/>
                </g>
        </g>
        <svg viewBox="0 0 15 15" width="100%" height="30px" preserveAspectRatio="xMaxYMin meet">
         <g id="arrow_out" transform="scale(0.3 0.3)">
          <a xlink:href="quickjs_8c_a8d95b2b91f50339b621237ad13f9cc47_cgraph_org.svg" target="_base">
           <rect id="button" ry="5" rx="5" y="6" x="6" height="38" width="38"
                fill="#f2f5e9" fill-opacity="0.5" stroke="#606060" stroke-width="1.0"/>
           <path id="arrow"
             d="M 11.500037,31.436501 C 11.940474,20.09759 22.043105,11.32322 32.158766,21.979434 L 37.068811,17.246167 C 37.068811,17.246167 37.088388,32 37.088388,32 L 22.160133,31.978069 C 22.160133,31.978069 26.997745,27.140456 26.997745,27.140456 C 18.528582,18.264221 13.291696,25.230495 11.500037,31.436501 z"
             style="fill:#404040;"/>
          </a>
         </g>
        </svg>
</svg>
