<?xml version="1.0" encoding="UTF-8" standalone="no"?>
<!DOCTYPE svg PUBLIC "-//W3C//DTD SVG 1.1//EN"
 "http://www.w3.org/Graphics/SVG/1.1/DTD/svg11.dtd">
<!-- Generated by graphviz version 2.40.1 (20161225.0304)
 -->
<!-- Title: invalid_to_string Pages: 1 -->
<svg width="518pt" height="28pt"
 viewBox="0.00 0.00 518.00 28.00" xmlns="http://www.w3.org/2000/svg" xmlns:xlink="http://www.w3.org/1999/xlink">
<g id="graph0" class="graph" transform="scale(1 1) rotate(0) translate(4 24)">
<title>invalid_to_string</title>
<!-- Node64527 -->
<g id="node1" class="node">
<title>Node64527</title>
<polygon fill="#bfbfbf" stroke="#000000" points="0,-.5 0,-19.5 87,-19.5 87,-.5 0,-.5"/>
<text text-anchor="middle" x="43.5" y="-7.5" font-family="Helvetica,sans-Serif" font-size="10.00" fill="#000000">invalid_to_string</text>
</g>
<!-- Node64528 -->
<g id="node2" class="node">
<title>Node64528</title>
<g id="a_node2"><a xlink:href="quickjs_8c.html#acd79f55467ffd86e94e35c55a76bd008" target="_top" xlink:title="set_dummy_numeric_ops">
<polygon fill="none" stroke="#000000" points="123,-.5 123,-19.5 251,-19.5 251,-.5 123,-.5"/>
<text text-anchor="middle" x="187" y="-7.5" font-family="Helvetica,sans-Serif" font-size="10.00" fill="#000000">set_dummy_numeric_ops</text>
</a>
</g>
</g>
<!-- Node64527&#45;&gt;Node64528 -->
<g id="edge1" class="edge">
<title>Node64527&#45;&gt;Node64528</title>
<path fill="none" stroke="#191970" d="M97.5671,-10C105.814,-10 114.3932,-10 122.8311,-10"/>
<polygon fill="#191970" stroke="#191970" points="97.3345,-6.5001 87.3345,-10 97.3344,-13.5001 97.3345,-6.5001"/>
</g>
<!-- Node64529 -->
<g id="node3" class="node">
<title>Node64529</title>
<g id="a_node3"><a xlink:href="quickjs_8c.html#a27966451027feb455b5da12c1578771c" target="_top" xlink:title="JS_NewRuntime2">
<polygon fill="none" stroke="#000000" points="287,-.5 287,-19.5 383,-19.5 383,-.5 287,-.5"/>
<text text-anchor="middle" x="335" y="-7.5" font-family="Helvetica,sans-Serif" font-size="10.00" fill="#000000">JS_NewRuntime2</text>
</a>
</g>
</g>
<!-- Node64528&#45;&gt;Node64529 -->
<g id="edge2" class="edge">
<title>Node64528&#45;&gt;Node64529</title>
<path fill="none" stroke="#191970" d="M261.261,-10C269.9785,-10 278.6912,-10 286.9151,-10"/>
<polygon fill="#191970" stroke="#191970" points="261.0542,-6.5001 251.0542,-10 261.0541,-13.5001 261.0542,-6.5001"/>
</g>
<!-- Node64530 -->
<g id="node4" class="node">
<title>Node64530</title>
<g id="a_node4"><a xlink:href="quickjs_8c.html#afc1ca27a266094085ebb43e2eea0dda2" target="_top" xlink:title="JS_NewRuntime">
<polygon fill="none" stroke="#ff0000" points="419,-.5 419,-19.5 510,-19.5 510,-.5 419,-.5"/>
<text text-anchor="middle" x="464.5" y="-7.5" font-family="Helvetica,sans-Serif" font-size="10.00" fill="#000000">JS_NewRuntime</text>
</a>
</g>
</g>
<!-- Node64529&#45;&gt;Node64530 -->
<g id="edge3" class="edge">
<title>Node64529&#45;&gt;Node64530</title>
<path fill="none" stroke="#191970" d="M393.4754,-10C401.9739,-10 410.6181,-10 418.8147,-10"/>
<polygon fill="#191970" stroke="#191970" points="393.2211,-6.5001 383.221,-10 393.221,-13.5001 393.2211,-6.5001"/>
</g>
</g>
</svg>
