<?xml version="1.0" encoding="UTF-8" standalone="no"?>
<!DOCTYPE svg PUBLIC "-//W3C//DTD SVG 1.1//EN"
 "http://www.w3.org/Graphics/SVG/1.1/DTD/svg11.dtd">
<!-- Generated by graphviz version 2.40.1 (20161225.0304)
 -->
<!-- Title: js_module_ns_autoinit Pages: 1 -->
<svg width="1065pt" height="1091pt"
 viewBox="0.00 0.00 1065.00 1090.87" xmlns="http://www.w3.org/2000/svg" xmlns:xlink="http://www.w3.org/1999/xlink">
<g id="graph0" class="graph" transform="scale(1 1) rotate(0) translate(4 1086.8688)">
<title>js_module_ns_autoinit</title>
<!-- Node314408 -->
<g id="node1" class="node">
<title>Node314408</title>
<polygon fill="#bfbfbf" stroke="#000000" points="0,-776.6137 0,-795.6137 113,-795.6137 113,-776.6137 0,-776.6137"/>
<text text-anchor="middle" x="56.5" y="-783.6137" font-family="Helvetica,sans-Serif" font-size="10.00" fill="#000000">js_module_ns_autoinit</text>
</g>
<!-- Node314409 -->
<g id="node2" class="node">
<title>Node314409</title>
<g id="a_node2"><a xlink:href="quickjs_8c.html#a0a8765bd4012467d9139bc24aabcb3ca" target="_top" xlink:title="JS_DefinePropertyValue">
<polygon fill="none" stroke="#000000" points="149,-529.6137 149,-548.6137 273,-548.6137 273,-529.6137 149,-529.6137"/>
<text text-anchor="middle" x="211" y="-536.6137" font-family="Helvetica,sans-Serif" font-size="10.00" fill="#000000">JS_DefinePropertyValue</text>
</a>
</g>
</g>
<!-- Node314408&#45;&gt;Node314409 -->
<g id="edge1" class="edge">
<title>Node314408&#45;&gt;Node314409</title>
<path fill="none" stroke="#191970" d="M62.5566,-776.431C85.7271,-739.3881 168.98,-606.2914 199.5971,-557.3436"/>
<polygon fill="#191970" stroke="#191970" points="202.6495,-559.0636 204.9853,-548.7295 196.7148,-555.3515 202.6495,-559.0636"/>
</g>
<!-- Node314414 -->
<g id="node16" class="node">
<title>Node314414</title>
<g id="a_node16"><a xlink:href="quickjs_8h.html#ad80a83d73e9b7d872b88fbf2943aebe9" target="_top" xlink:title="JS_IsException">
<polygon fill="none" stroke="#000000" points="668.5,-731.6137 668.5,-750.6137 754.5,-750.6137 754.5,-731.6137 668.5,-731.6137"/>
<text text-anchor="middle" x="711.5" y="-738.6137" font-family="Helvetica,sans-Serif" font-size="10.00" fill="#000000">JS_IsException</text>
</a>
</g>
</g>
<!-- Node314408&#45;&gt;Node314414 -->
<g id="edge58" class="edge">
<title>Node314408&#45;&gt;Node314414</title>
<path fill="none" stroke="#191970" d="M65.4855,-795.9564C122.0357,-856.7741 432.2503,-1173.6566 616,-1014.1137 702.0935,-939.362 578.4393,-847.227 652,-760.1137 654.1688,-757.5454 656.6848,-755.3204 659.4322,-753.3934"/>
<polygon fill="#191970" stroke="#191970" points="661.233,-756.3965 668.2524,-748.4605 657.8162,-750.287 661.233,-756.3965"/>
</g>
<!-- Node314410 -->
<g id="node3" class="node">
<title>Node314410</title>
<g id="a_node3"><a xlink:href="quickjs_8c.html#ab50618f1bf78e444caa6da0e3e2785d7" target="_top" xlink:title="JS_DefineProperty">
<polygon fill="none" stroke="#000000" points="309,-529.6137 309,-548.6137 408,-548.6137 408,-529.6137 309,-529.6137"/>
<text text-anchor="middle" x="358.5" y="-536.6137" font-family="Helvetica,sans-Serif" font-size="10.00" fill="#000000">JS_DefineProperty</text>
</a>
</g>
</g>
<!-- Node314409&#45;&gt;Node314410 -->
<g id="edge2" class="edge">
<title>Node314409&#45;&gt;Node314410</title>
<path fill="none" stroke="#191970" d="M273.1258,-539.1137C281.6337,-539.1137 290.3534,-539.1137 298.8165,-539.1137"/>
<polygon fill="#191970" stroke="#191970" points="298.9808,-542.6138 308.9807,-539.1137 298.9807,-535.6138 298.9808,-542.6138"/>
</g>
<!-- Node314507 -->
<g id="node15" class="node">
<title>Node314507</title>
<g id="a_node15"><a xlink:href="quickjs_8h.html#afaa20c47565bc704c6c85f3d77254e7d" target="_top" xlink:title="JS_FreeValue">
<polygon fill="none" stroke="#ff0000" points="832,-92.6137 832,-111.6137 910,-111.6137 910,-92.6137 832,-92.6137"/>
<text text-anchor="middle" x="871" y="-99.6137" font-family="Helvetica,sans-Serif" font-size="10.00" fill="#000000">JS_FreeValue</text>
</a>
</g>
</g>
<!-- Node314409&#45;&gt;Node314507 -->
<g id="edge57" class="edge">
<title>Node314409&#45;&gt;Node314507</title>
<path fill="none" stroke="#191970" d="M211.8707,-529.5622C217.777,-471.0573 257.5557,-159.7237 444,-41.1137 566.6923,36.9393 630.7465,-13.7126 771,-52.1137 798.9598,-59.7691 828.331,-75.5095 847.9509,-87.296"/>
<polygon fill="#191970" stroke="#191970" points="846.143,-90.293 856.4945,-92.5506 849.8102,-84.3305 846.143,-90.293"/>
</g>
<!-- Node314411 -->
<g id="node4" class="node">
<title>Node314411</title>
<g id="a_node4"><a xlink:href="quickjs_8c.html#a2f49d212e519c9e138d8b48148b6f955" target="_top" xlink:title="__attribute__">
<polygon fill="none" stroke="#ff0000" points="675,-187.6137 675,-206.6137 748,-206.6137 748,-187.6137 675,-187.6137"/>
<text text-anchor="middle" x="711.5" y="-194.6137" font-family="Helvetica,sans-Serif" font-size="10.00" fill="#000000">__attribute__</text>
</a>
</g>
</g>
<!-- Node314410&#45;&gt;Node314411 -->
<g id="edge3" class="edge">
<title>Node314410&#45;&gt;Node314411</title>
<path fill="none" stroke="#191970" d="M359.5532,-529.5598C365.1602,-480.5674 393.1719,-258.1895 444,-216.1137 476.4684,-189.2362 596.8236,-190.8739 664.5025,-194.1356"/>
<polygon fill="#191970" stroke="#191970" points="664.7244,-197.6516 674.8907,-194.669 665.0833,-190.6608 664.7244,-197.6516"/>
</g>
<!-- Node314437 -->
<g id="node5" class="node">
<title>Node314437</title>
<g id="a_node5"><a xlink:href="quickjs_8c.html#a288254c06a39c9fca740a7abdad2834e" target="_top" xlink:title="__JS_AtomIsTaggedInt">
<polygon fill="none" stroke="#000000" points="652,-605.6137 652,-624.6137 771,-624.6137 771,-605.6137 652,-605.6137"/>
<text text-anchor="middle" x="711.5" y="-612.6137" font-family="Helvetica,sans-Serif" font-size="10.00" fill="#000000">__JS_AtomIsTaggedInt</text>
</a>
</g>
</g>
<!-- Node314410&#45;&gt;Node314437 -->
<g id="edge4" class="edge">
<title>Node314410&#45;&gt;Node314437</title>
<path fill="none" stroke="#191970" d="M361.2166,-548.8737C369.0061,-574.7319 394.1272,-644.8856 444,-672.1137 511.0962,-708.745 544.7557,-699.8266 616,-672.1137 636.2286,-664.2451 633.6411,-650.6923 652,-639.1137 658.2829,-635.1513 665.33,-631.6246 672.3169,-628.5756"/>
<polygon fill="#191970" stroke="#191970" points="673.8039,-631.7487 681.7296,-624.7178 671.1493,-625.2716 673.8039,-631.7487"/>
</g>
<!-- Node314492 -->
<g id="node6" class="node">
<title>Node314492</title>
<g id="a_node6"><a xlink:href="quickjs_8c.html#a89f38938cee8077ce1fbba07946ed185" target="_top" xlink:title="__JS_AtomToUInt32">
<polygon fill="none" stroke="#000000" points="657.5,-567.6137 657.5,-586.6137 765.5,-586.6137 765.5,-567.6137 657.5,-567.6137"/>
<text text-anchor="middle" x="711.5" y="-574.6137" font-family="Helvetica,sans-Serif" font-size="10.00" fill="#000000">__JS_AtomToUInt32</text>
</a>
</g>
</g>
<!-- Node314410&#45;&gt;Node314492 -->
<g id="edge5" class="edge">
<title>Node314410&#45;&gt;Node314492</title>
<path fill="none" stroke="#191970" d="M408.1431,-547.8701C419.8765,-549.7655 432.3605,-551.6406 444,-553.1137 513.2064,-561.8725 592.8829,-568.5907 647.1558,-572.6619"/>
<polygon fill="#191970" stroke="#191970" points="647.0917,-576.1667 657.3232,-573.4159 647.6094,-569.1858 647.0917,-576.1667"/>
</g>
<!-- Node314820 -->
<g id="node7" class="node">
<title>Node314820</title>
<g id="a_node7"><a xlink:href="quickjs_8c.html#a68c7ae36cec3bf8bbf6cc0868a71cc4b" target="_top" xlink:title="check_define_prop_flags">
<polygon fill="none" stroke="#000000" points="467.5,-833.6137 467.5,-852.6137 592.5,-852.6137 592.5,-833.6137 467.5,-833.6137"/>
<text text-anchor="middle" x="530" y="-840.6137" font-family="Helvetica,sans-Serif" font-size="10.00" fill="#000000">check_define_prop_flags</text>
</a>
</g>
</g>
<!-- Node314410&#45;&gt;Node314820 -->
<g id="edge6" class="edge">
<title>Node314410&#45;&gt;Node314820</title>
<path fill="none" stroke="#191970" d="M360.1575,-548.6798C368.0432,-593.1474 403.0808,-779.1737 444,-819.1137 448.0905,-823.1063 452.7869,-826.4467 457.8298,-829.2398"/>
<polygon fill="#191970" stroke="#191970" points="456.6905,-832.5732 467.2253,-833.6992 459.6921,-826.2494 456.6905,-832.5732"/>
</g>
<!-- Node314649 -->
<g id="node8" class="node">
<title>Node314649</title>
<g id="a_node8"><a xlink:href="quickjs_8c.html#ac93c982cb636a5430b191d104083af3e" target="_top" xlink:title="convert_fast_array\l_to_array">
<polygon fill="none" stroke="#ff0000" points="662.5,-682.1137 662.5,-712.1137 760.5,-712.1137 760.5,-682.1137 662.5,-682.1137"/>
<text text-anchor="start" x="670.5" y="-700.1137" font-family="Helvetica,sans-Serif" font-size="10.00" fill="#000000">convert_fast_array</text>
<text text-anchor="middle" x="711.5" y="-689.1137" font-family="Helvetica,sans-Serif" font-size="10.00" fill="#000000">_to_array</text>
</a>
</g>
</g>
<!-- Node314410&#45;&gt;Node314649 -->
<g id="edge7" class="edge">
<title>Node314410&#45;&gt;Node314649</title>
<path fill="none" stroke="#191970" d="M359.499,-548.7356C364.8353,-598.0671 391.7124,-821.8661 444,-862.1137 504.5769,-908.7419 555.5885,-908.9561 616,-862.1137 666.7718,-822.7458 610.0072,-770.7369 652,-722.1137 653.1329,-720.802 654.3461,-719.5575 655.6258,-718.3769"/>
<polygon fill="#191970" stroke="#191970" points="657.7675,-721.1453 663.5856,-712.2909 653.5157,-715.5844 657.7675,-721.1453"/>
</g>
<!-- Node314650 -->
<g id="node9" class="node">
<title>Node314650</title>
<g id="a_node9"><a xlink:href="quickjs_8c.html#a3dd8e78607dbc729614deacf55901b95" target="_top" xlink:title="js_shape_prepare_update">
<polygon fill="none" stroke="#ff0000" points="807,-813.6137 807,-832.6137 935,-832.6137 935,-813.6137 807,-813.6137"/>
<text text-anchor="middle" x="871" y="-820.6137" font-family="Helvetica,sans-Serif" font-size="10.00" fill="#000000">js_shape_prepare_update</text>
</a>
</g>
</g>
<!-- Node314410&#45;&gt;Node314650 -->
<g id="edge46" class="edge">
<title>Node314410&#45;&gt;Node314650</title>
<path fill="none" stroke="#191970" d="M359.283,-548.9442C363.6884,-601.4839 387.242,-848.4322 444,-893.1137 568.3055,-990.9706 777.0582,-880.4553 847.1983,-838.174"/>
<polygon fill="#191970" stroke="#191970" points="849.4529,-840.8974 856.1523,-832.6895 845.7966,-834.9282 849.4529,-840.8974"/>
</g>
<!-- Node314438 -->
<g id="node10" class="node">
<title>Node314438</title>
<g id="a_node10"><a xlink:href="quickjs_8c.html#a643df594b75933007bcdbb071b5ea8c5" target="_top" xlink:title="get_shape_prop">
<polygon fill="none" stroke="#000000" points="971,-813.6137 971,-832.6137 1057,-832.6137 1057,-813.6137 971,-813.6137"/>
<text text-anchor="middle" x="1014" y="-820.6137" font-family="Helvetica,sans-Serif" font-size="10.00" fill="#000000">get_shape_prop</text>
</a>
</g>
</g>
<!-- Node314410&#45;&gt;Node314438 -->
<g id="edge14" class="edge">
<title>Node314410&#45;&gt;Node314438</title>
<path fill="none" stroke="#191970" d="M358.64,-548.8074C359.757,-610.8474 369.2709,-951.6349 444,-1014.1137 613.966,-1156.2173 751.7505,-1052.6188 935,-928.1137 967.8562,-905.7903 992.5649,-865.2575 1005.009,-841.6141"/>
<polygon fill="#191970" stroke="#191970" points="1008.1705,-843.1184 1009.5793,-832.6176 1001.9296,-839.9479 1008.1705,-843.1184"/>
</g>
<!-- Node314514 -->
<g id="node11" class="node">
<title>Node314514</title>
<g id="a_node11"><a xlink:href="quickjs_8c.html#a06b76f5124fd985e35f4c652fd018d6d" target="_top" xlink:title="find_own_property">
<polygon fill="none" stroke="#000000" points="823,-899.6137 823,-918.6137 919,-918.6137 919,-899.6137 823,-899.6137"/>
<text text-anchor="middle" x="871" y="-906.6137" font-family="Helvetica,sans-Serif" font-size="10.00" fill="#000000">find_own_property</text>
</a>
</g>
</g>
<!-- Node314410&#45;&gt;Node314514 -->
<g id="edge10" class="edge">
<title>Node314410&#45;&gt;Node314514</title>
<path fill="none" stroke="#191970" d="M359.0576,-548.7452C362.4538,-603.6662 382.3067,-876.5626 444,-926.1137 561.9121,-1020.8188 762.7865,-953.9213 839.7372,-922.7342"/>
<polygon fill="#191970" stroke="#191970" points="841.4293,-925.822 849.3338,-918.7673 838.7552,-919.3529 841.4293,-925.822"/>
</g>
<!-- Node314461 -->
<g id="node12" class="node">
<title>Node314461</title>
<g id="a_node12"><a xlink:href="quickjs_8c.html#a9e7b4bccf927d811b0f99b40b08c0472" target="_top" xlink:title="free_var_ref">
<polygon fill="none" stroke="#ff0000" points="496,-643.6137 496,-662.6137 564,-662.6137 564,-643.6137 496,-643.6137"/>
<text text-anchor="middle" x="530" y="-650.6137" font-family="Helvetica,sans-Serif" font-size="10.00" fill="#000000">free_var_ref</text>
</a>
</g>
</g>
<!-- Node314410&#45;&gt;Node314461 -->
<g id="edge12" class="edge">
<title>Node314410&#45;&gt;Node314461</title>
<path fill="none" stroke="#191970" d="M365.0099,-548.887C377.8613,-567.4065 408.3578,-607.6716 444,-629.1137 456.6123,-636.7012 471.7,-641.9619 485.6916,-645.5781"/>
<polygon fill="#191970" stroke="#191970" points="485.0977,-649.0341 495.6349,-647.9303 486.7092,-642.2221 485.0977,-649.0341"/>
</g>
<!-- Node314651 -->
<g id="node13" class="node">
<title>Node314651</title>
<g id="a_node13"><a xlink:href="quickjs_8c.html#a6df3ef223d7e76a0db2c14d972dbfa77" target="_top" xlink:title="get_prop_flags">
<polygon fill="none" stroke="#000000" points="671.5,-529.6137 671.5,-548.6137 751.5,-548.6137 751.5,-529.6137 671.5,-529.6137"/>
<text text-anchor="middle" x="711.5" y="-536.6137" font-family="Helvetica,sans-Serif" font-size="10.00" fill="#000000">get_prop_flags</text>
</a>
</g>
</g>
<!-- Node314410&#45;&gt;Node314651 -->
<g id="edge13" class="edge">
<title>Node314410&#45;&gt;Node314651</title>
<path fill="none" stroke="#191970" d="M408.3276,-539.1137C475.3452,-539.1137 593.861,-539.1137 661.1467,-539.1137"/>
<polygon fill="#191970" stroke="#191970" points="661.4901,-542.6138 671.49,-539.1137 661.49,-535.6138 661.4901,-542.6138"/>
</g>
<!-- Node314516 -->
<g id="node14" class="node">
<title>Node314516</title>
<g id="a_node14"><a xlink:href="quickjs_8c.html#ab4e100a9cde5f7ec87c92f5e766dbbab" target="_top" xlink:title="JS_AtomIsNumericIndex1">
<polygon fill="none" stroke="#ff0000" points="464.5,-719.6137 464.5,-738.6137 595.5,-738.6137 595.5,-719.6137 464.5,-719.6137"/>
<text text-anchor="middle" x="530" y="-726.6137" font-family="Helvetica,sans-Serif" font-size="10.00" fill="#000000">JS_AtomIsNumericIndex1</text>
</a>
</g>
</g>
<!-- Node314410&#45;&gt;Node314516 -->
<g id="edge15" class="edge">
<title>Node314410&#45;&gt;Node314516</title>
<path fill="none" stroke="#191970" d="M360.5812,-548.6933C367.2737,-577.1548 390.971,-661.9093 444,-705.1137 449.2482,-709.3896 455.2086,-712.9051 461.4855,-715.7952"/>
<polygon fill="#191970" stroke="#191970" points="460.2797,-719.083 470.8621,-719.5977 462.9104,-712.5961 460.2797,-719.083"/>
</g>
<!-- Node314410&#45;&gt;Node314507 -->
<g id="edge33" class="edge">
<title>Node314410&#45;&gt;Node314507</title>
<path fill="none" stroke="#191970" d="M358.64,-529.4201C359.757,-467.3801 369.2709,-126.5925 444,-64.1137 500.6628,-16.7396 726.1282,-65.6648 824.5926,-90.044"/>
<polygon fill="#191970" stroke="#191970" points="824.0058,-93.505 834.5561,-92.5347 825.7035,-86.7139 824.0058,-93.505"/>
</g>
<!-- Node314410&#45;&gt;Node314414 -->
<g id="edge34" class="edge">
<title>Node314410&#45;&gt;Node314414</title>
<path fill="none" stroke="#191970" d="M380.1229,-548.699C397.3102,-556.2011 422.0301,-566.7315 444,-575.1137 519.5078,-603.9223 557.2244,-578.6449 616,-634.1137 646.7324,-663.1171 620.9597,-693.4401 652,-722.1137 654.2763,-724.2165 656.7859,-726.0866 659.4484,-727.7497"/>
<polygon fill="#191970" stroke="#191970" points="657.8861,-730.8822 668.3733,-732.3885 661.1144,-724.6711 657.8861,-730.8822"/>
</g>
<!-- Node314466 -->
<g id="node17" class="node">
<title>Node314466</title>
<g id="a_node17"><a xlink:href="quickjs_8h.html#a2050bc428da1c65ac7eb87c3fa3b0392" target="_top" xlink:title="JS_NewInt32">
<polygon fill="none" stroke="#000000" points="673.5,-769.6137 673.5,-788.6137 749.5,-788.6137 749.5,-769.6137 673.5,-769.6137"/>
<text text-anchor="middle" x="711.5" y="-776.6137" font-family="Helvetica,sans-Serif" font-size="10.00" fill="#000000">JS_NewInt32</text>
</a>
</g>
</g>
<!-- Node314410&#45;&gt;Node314466 -->
<g id="edge37" class="edge">
<title>Node314410&#45;&gt;Node314466</title>
<path fill="none" stroke="#191970" d="M359.1685,-549.0787C362.0479,-583.3317 376.5329,-696.9392 444,-748.1137 507.6015,-796.3561 605.3628,-794.0355 663.4216,-787.14"/>
<polygon fill="#191970" stroke="#191970" points="663.9593,-790.5998 673.434,-785.8584 663.0705,-783.6564 663.9593,-790.5998"/>
</g>
<!-- Node314648 -->
<g id="node18" class="node">
<title>Node314648</title>
<g id="a_node18"><a xlink:href="quickjs_8c.html#ad5565bb5cfd5321f181573257f3b0c91" target="_top" xlink:title="JS_CreateProperty">
<polygon fill="none" stroke="#ff0000" points="480,-491.6137 480,-510.6137 580,-510.6137 580,-491.6137 480,-491.6137"/>
<text text-anchor="middle" x="530" y="-498.6137" font-family="Helvetica,sans-Serif" font-size="10.00" fill="#000000">JS_CreateProperty</text>
</a>
</g>
</g>
<!-- Node314410&#45;&gt;Node314648 -->
<g id="edge21" class="edge">
<title>Node314410&#45;&gt;Node314648</title>
<path fill="none" stroke="#191970" d="M401.7767,-529.5247C424.6119,-524.465 452.8232,-518.2141 476.9648,-512.865"/>
<polygon fill="#191970" stroke="#191970" points="478.0285,-516.2143 487.0345,-510.6338 476.5141,-509.38 478.0285,-516.2143"/>
</g>
<!-- Node314426 -->
<g id="node19" class="node">
<title>Node314426</title>
<g id="a_node19"><a xlink:href="quickjs_8h.html#a775522f2d084fc8fa0fcb33f390006b4" target="_top" xlink:title="JS_DupValue">
<polygon fill="none" stroke="#000000" points="673,-415.6137 673,-434.6137 750,-434.6137 750,-415.6137 673,-415.6137"/>
<text text-anchor="middle" x="711.5" y="-422.6137" font-family="Helvetica,sans-Serif" font-size="10.00" fill="#000000">JS_DupValue</text>
</a>
</g>
</g>
<!-- Node314410&#45;&gt;Node314426 -->
<g id="edge32" class="edge">
<title>Node314410&#45;&gt;Node314426</title>
<path fill="none" stroke="#191970" d="M361.2166,-529.3537C369.0061,-503.4956 394.1272,-433.3418 444,-406.1137 519.6289,-364.8241 625.7139,-393.1643 678.6926,-412.0379"/>
<polygon fill="#191970" stroke="#191970" points="677.6581,-415.3864 688.2517,-415.5479 680.071,-408.8154 677.6581,-415.3864"/>
</g>
<!-- Node314635 -->
<g id="node20" class="node">
<title>Node314635</title>
<g id="a_node20"><a xlink:href="quickjs_8c.html#a1ca9cdb1fa2ffc3e6506e92b200e490f" target="_top" xlink:title="JS_IsFunction">
<polygon fill="none" stroke="#000000" points="671.5,-453.6137 671.5,-472.6137 751.5,-472.6137 751.5,-453.6137 671.5,-453.6137"/>
<text text-anchor="middle" x="711.5" y="-460.6137" font-family="Helvetica,sans-Serif" font-size="10.00" fill="#000000">JS_IsFunction</text>
</a>
</g>
</g>
<!-- Node314410&#45;&gt;Node314635 -->
<g id="edge35" class="edge">
<title>Node314410&#45;&gt;Node314635</title>
<path fill="none" stroke="#191970" d="M368.8513,-529.5496C384.0216,-516.1964 413.7839,-492.4451 444,-482.1137 516.4267,-457.3498 606.152,-456.5568 661.0867,-459.1595"/>
<polygon fill="#191970" stroke="#191970" points="661.0892,-462.6645 671.2607,-459.6996 661.4603,-455.6743 661.0892,-462.6645"/>
</g>
<!-- Node314662 -->
<g id="node21" class="node">
<title>Node314662</title>
<g id="a_node21"><a xlink:href="quickjs_8c.html#a0ec52a675282f321a6f42aa1298a53fe" target="_top" xlink:title="set_value">
<polygon fill="none" stroke="#000000" points="682,-111.6137 682,-130.6137 741,-130.6137 741,-111.6137 682,-111.6137"/>
<text text-anchor="middle" x="711.5" y="-118.6137" font-family="Helvetica,sans-Serif" font-size="10.00" fill="#000000">set_value</text>
</a>
</g>
</g>
<!-- Node314410&#45;&gt;Node314662 -->
<g id="edge55" class="edge">
<title>Node314410&#45;&gt;Node314662</title>
<path fill="none" stroke="#191970" d="M359.0635,-529.2562C362.4929,-473.0359 382.499,-193.5456 444,-140.1137 477.0279,-111.4192 605.7408,-114.6166 671.8404,-118.3445"/>
<polygon fill="#191970" stroke="#191970" points="671.6968,-121.842 681.8872,-118.9425 672.1128,-114.8544 671.6968,-121.842"/>
</g>
<!-- Node314616 -->
<g id="node22" class="node">
<title>Node314616</title>
<g id="a_node22"><a xlink:href="quickjs_8h.html#a4e407128a9605afb77523e49e9a627fd" target="_top" xlink:title="JS_IsUndefined">
<polygon fill="none" stroke="#000000" points="487,-339.6137 487,-358.6137 573,-358.6137 573,-339.6137 487,-339.6137"/>
<text text-anchor="middle" x="530" y="-346.6137" font-family="Helvetica,sans-Serif" font-size="10.00" fill="#000000">JS_IsUndefined</text>
</a>
</g>
</g>
<!-- Node314410&#45;&gt;Node314616 -->
<g id="edge36" class="edge">
<title>Node314410&#45;&gt;Node314616</title>
<path fill="none" stroke="#191970" d="M360.5812,-529.5342C367.2737,-501.0727 390.971,-416.3182 444,-373.1137 453.4825,-365.388 465.2898,-360.1448 477.088,-356.5876"/>
<polygon fill="#191970" stroke="#191970" points="478.1734,-359.9209 486.945,-353.9787 476.3823,-353.1539 478.1734,-359.9209"/>
</g>
<!-- Node314821 -->
<g id="node23" class="node">
<title>Node314821</title>
<g id="a_node23"><a xlink:href="quickjs_8c.html#af2333dd9d30e60437b73af383477188c" target="_top" xlink:title="JS_NumberIsInteger">
<polygon fill="none" stroke="#ff0000" points="476.5,-301.6137 476.5,-320.6137 583.5,-320.6137 583.5,-301.6137 476.5,-301.6137"/>
<text text-anchor="middle" x="530" y="-308.6137" font-family="Helvetica,sans-Serif" font-size="10.00" fill="#000000">JS_NumberIsInteger</text>
</a>
</g>
</g>
<!-- Node314410&#45;&gt;Node314821 -->
<g id="edge38" class="edge">
<title>Node314410&#45;&gt;Node314821</title>
<path fill="none" stroke="#191970" d="M359.3661,-529.396C362.8911,-495.9504 379.2311,-384.6631 444,-330.1137 450.5567,-324.5916 458.366,-320.5769 466.565,-317.6742"/>
<polygon fill="#191970" stroke="#191970" points="467.7414,-320.9755 476.317,-314.7538 465.7333,-314.2697 467.7414,-320.9755"/>
</g>
<!-- Node314823 -->
<g id="node24" class="node">
<title>Node314823</title>
<g id="a_node24"><a xlink:href="quickjs_8c.html#aced4796120beed3ba63dc0b234b399ab" target="_top" xlink:title="JS_NumberIsNegativeOrMinusZero">
<polygon fill="none" stroke="#000000" points="444,-263.6137 444,-282.6137 616,-282.6137 616,-263.6137 444,-263.6137"/>
<text text-anchor="middle" x="530" y="-270.6137" font-family="Helvetica,sans-Serif" font-size="10.00" fill="#000000">JS_NumberIsNegativeOrMinusZero</text>
</a>
</g>
</g>
<!-- Node314410&#45;&gt;Node314823 -->
<g id="edge39" class="edge">
<title>Node314410&#45;&gt;Node314823</title>
<path fill="none" stroke="#191970" d="M360.5122,-529.5361C369.38,-488.213 406.2121,-325.7607 444,-292.1137 445.7165,-290.5853 447.528,-289.1709 449.4172,-287.8623"/>
<polygon fill="#191970" stroke="#191970" points="451.2671,-290.8353 458.1467,-282.7778 447.744,-284.7865 451.2671,-290.8353"/>
</g>
<!-- Node314690 -->
<g id="node25" class="node">
<title>Node314690</title>
<g id="a_node25"><a xlink:href="quickjs_8c.html#a24be89a128d1cd7c0908604815b2b854" target="_top" xlink:title="js_same_value">
<polygon fill="none" stroke="#ff0000" points="489,-415.6137 489,-434.6137 571,-434.6137 571,-415.6137 489,-415.6137"/>
<text text-anchor="middle" x="530" y="-422.6137" font-family="Helvetica,sans-Serif" font-size="10.00" fill="#000000">js_same_value</text>
</a>
</g>
</g>
<!-- Node314410&#45;&gt;Node314690 -->
<g id="edge40" class="edge">
<title>Node314410&#45;&gt;Node314690</title>
<path fill="none" stroke="#191970" d="M365.0099,-529.3404C377.8613,-510.821 408.3578,-470.5558 444,-449.1137 454.5847,-442.7461 466.9127,-438.0172 478.8732,-434.5238"/>
<polygon fill="#191970" stroke="#191970" points="480.0317,-437.837 488.7872,-431.8711 478.2223,-431.0749 480.0317,-437.837"/>
</g>
<!-- Node314668 -->
<g id="node26" class="node">
<title>Node314668</title>
<g id="a_node26"><a xlink:href="quickjs_8c.html#aee75cc1546e19479e3ccda58f3b50a96" target="_top" xlink:title="JS_SetPropertyValue">
<polygon fill="none" stroke="#ff0000" points="475,-73.6137 475,-92.6137 585,-92.6137 585,-73.6137 475,-73.6137"/>
<text text-anchor="middle" x="530" y="-80.6137" font-family="Helvetica,sans-Serif" font-size="10.00" fill="#000000">JS_SetPropertyValue</text>
</a>
</g>
</g>
<!-- Node314410&#45;&gt;Node314668 -->
<g id="edge42" class="edge">
<title>Node314410&#45;&gt;Node314668</title>
<path fill="none" stroke="#191970" d="M359.0703,-529.4125C362.6652,-471.5131 384.0004,-171.9048 444,-107.1137 449.829,-100.8193 457.157,-96.1247 465.0635,-92.6324"/>
<polygon fill="#191970" stroke="#191970" points="466.4285,-95.8584 474.5556,-89.0613 463.9636,-89.3068 466.4285,-95.8584"/>
</g>
<!-- Node314608 -->
<g id="node27" class="node">
<title>Node314608</title>
<g id="a_node27"><a xlink:href="quickjs_8c.html#a726b00d108e0a0f4d958c36c2e426a64" target="_top" xlink:title="JS_ThrowTypeErrorNotAnObject">
<polygon fill="none" stroke="#000000" points="450,-149.6137 450,-168.6137 610,-168.6137 610,-149.6137 450,-149.6137"/>
<text text-anchor="middle" x="530" y="-156.6137" font-family="Helvetica,sans-Serif" font-size="10.00" fill="#000000">JS_ThrowTypeErrorNotAnObject</text>
</a>
</g>
</g>
<!-- Node314410&#45;&gt;Node314608 -->
<g id="edge47" class="edge">
<title>Node314410&#45;&gt;Node314608</title>
<path fill="none" stroke="#191970" d="M359.5029,-529.4819C365.053,-477.9689 393.5935,-235.3915 444,-183.1137 447.6716,-179.3058 451.8926,-176.0866 456.4511,-173.3669"/>
<polygon fill="#191970" stroke="#191970" points="458.2486,-176.3794 465.5778,-168.7287 455.0773,-170.139 458.2486,-176.3794"/>
</g>
<!-- Node314824 -->
<g id="node28" class="node">
<title>Node314824</title>
<g id="a_node28"><a xlink:href="quickjs_8c.html#a6d48937f79966a773376cc24834c663f" target="_top" xlink:title="js_update_property\l_flags">
<polygon fill="none" stroke="#000000" points="662,-808.1137 662,-838.1137 761,-838.1137 761,-808.1137 662,-808.1137"/>
<text text-anchor="start" x="670" y="-826.1137" font-family="Helvetica,sans-Serif" font-size="10.00" fill="#000000">js_update_property</text>
<text text-anchor="middle" x="711.5" y="-815.1137" font-family="Helvetica,sans-Serif" font-size="10.00" fill="#000000">_flags</text>
</a>
</g>
</g>
<!-- Node314410&#45;&gt;Node314824 -->
<g id="edge48" class="edge">
<title>Node314410&#45;&gt;Node314824</title>
<path fill="none" stroke="#191970" d="M360.4735,-548.6417C369.1797,-589.7413 405.4352,-751.2138 444,-783.1137 474.7594,-808.5573 582.6536,-817.848 651.6569,-821.2186"/>
<polygon fill="#191970" stroke="#191970" points="651.8103,-824.7293 661.9605,-821.6923 652.1319,-817.7366 651.8103,-824.7293"/>
</g>
<!-- Node314671 -->
<g id="node29" class="node">
<title>Node314671</title>
<g id="a_node29"><a xlink:href="quickjs_8c.html#aeb73aae9c3ad7daaf7646e3f2f89245a" target="_top" xlink:title="set_array_length">
<polygon fill="none" stroke="#ff0000" points="485.5,-225.6137 485.5,-244.6137 574.5,-244.6137 574.5,-225.6137 485.5,-225.6137"/>
<text text-anchor="middle" x="530" y="-232.6137" font-family="Helvetica,sans-Serif" font-size="10.00" fill="#000000">set_array_length</text>
</a>
</g>
</g>
<!-- Node314410&#45;&gt;Node314671 -->
<g id="edge50" class="edge">
<title>Node314410&#45;&gt;Node314671</title>
<path fill="none" stroke="#191970" d="M360.0842,-529.328C367.6395,-483.8467 401.4141,-293.6586 444,-254.1137 452.5795,-246.1469 463.7205,-241.2461 475.1231,-238.2899"/>
<polygon fill="#191970" stroke="#191970" points="476.0959,-241.6615 485.1531,-236.1644 474.6447,-234.8136 476.0959,-241.6615"/>
</g>
<!-- Node314716 -->
<g id="node30" class="node">
<title>Node314716</title>
<g id="a_node30"><a xlink:href="quickjs_8c.html#a3300653c365889b88c41c24ab23b4ca0" target="_top" xlink:title="typed_array_get_length">
<polygon fill="none" stroke="#000000" points="471,-985.6137 471,-1004.6137 589,-1004.6137 589,-985.6137 471,-985.6137"/>
<text text-anchor="middle" x="530" y="-992.6137" font-family="Helvetica,sans-Serif" font-size="10.00" fill="#000000">typed_array_get_length</text>
</a>
</g>
</g>
<!-- Node314410&#45;&gt;Node314716 -->
<g id="edge56" class="edge">
<title>Node314410&#45;&gt;Node314716</title>
<path fill="none" stroke="#191970" d="M359.0703,-548.815C362.6652,-606.7144 384.0004,-906.3227 444,-971.1137 448.8119,-976.3099 454.6455,-980.4159 460.9827,-983.6551"/>
<polygon fill="#191970" stroke="#191970" points="460.0002,-987.0438 470.5675,-987.807 462.7826,-980.6205 460.0002,-987.0438"/>
</g>
<!-- Node314649&#45;&gt;Node314650 -->
<g id="edge8" class="edge">
<title>Node314649&#45;&gt;Node314650</title>
<path fill="none" stroke="#191970" d="M753.2435,-712.1684C759.4085,-715.0908 765.5219,-718.4134 771,-722.1137 806.3809,-746.0125 839.6182,-783.7461 857.446,-805.6945"/>
<polygon fill="#191970" stroke="#191970" points="854.7267,-807.8982 863.7,-813.5313 860.1981,-803.5319 854.7267,-807.8982"/>
</g>
<!-- Node314650&#45;&gt;Node314438 -->
<g id="edge9" class="edge">
<title>Node314650&#45;&gt;Node314438</title>
<path fill="none" stroke="#191970" d="M935.3884,-823.1137C943.8326,-823.1137 952.4104,-823.1137 960.6444,-823.1137"/>
<polygon fill="#191970" stroke="#191970" points="960.8544,-826.6138 970.8544,-823.1137 960.8543,-819.6138 960.8544,-826.6138"/>
</g>
<!-- Node314514&#45;&gt;Node314438 -->
<g id="edge11" class="edge">
<title>Node314514&#45;&gt;Node314438</title>
<path fill="none" stroke="#191970" d="M886.8499,-899.5816C911.6531,-884.665 959.8386,-855.6863 989.2449,-838.0014"/>
<polygon fill="#191970" stroke="#191970" points="991.3133,-840.8417 998.0791,-832.6885 987.7056,-834.8429 991.3133,-840.8417"/>
</g>
<!-- Node314516&#45;&gt;Node314437 -->
<g id="edge16" class="edge">
<title>Node314516&#45;&gt;Node314437</title>
<path fill="none" stroke="#191970" d="M588.5661,-719.5993C598.3975,-716.1607 607.9924,-711.4812 616,-705.1137 642.1527,-684.3175 627.044,-661.3318 652,-639.1137 656.4768,-635.1281 661.7006,-631.7576 667.1595,-628.9197"/>
<polygon fill="#191970" stroke="#191970" points="668.8566,-631.9916 676.4781,-624.632 665.9306,-625.6325 668.8566,-631.9916"/>
</g>
<!-- Node314516&#45;&gt;Node314492 -->
<g id="edge17" class="edge">
<title>Node314516&#45;&gt;Node314492</title>
<path fill="none" stroke="#191970" d="M550.7398,-719.4838C569.7701,-709.7794 597.7026,-693.233 616,-672.1137 640.4739,-643.8654 623.8702,-620.7237 652,-596.1137 653.9281,-594.4269 656.0071,-592.8896 658.1926,-591.4885"/>
<polygon fill="#191970" stroke="#191970" points="659.9002,-594.5444 667.0572,-586.7324 656.5907,-588.3761 659.9002,-594.5444"/>
</g>
<!-- Node314516&#45;&gt;Node314507 -->
<g id="edge18" class="edge">
<title>Node314516&#45;&gt;Node314507</title>
<path fill="none" stroke="#191970" d="M562.697,-719.5583C579.122,-714.2063 599.0762,-706.8488 616,-698.1137 633.3099,-689.1793 634.5612,-681.7938 652,-673.1137 701.8258,-648.3131 734.3029,-675.9587 771,-634.1137 840.235,-555.1664 864.7956,-208.6723 869.9199,-121.8804"/>
<polygon fill="#191970" stroke="#191970" points="873.4192,-121.9916 870.4949,-111.8084 866.4305,-121.5926 873.4192,-121.9916"/>
</g>
<!-- Node314516&#45;&gt;Node314414 -->
<g id="edge19" class="edge">
<title>Node314516&#45;&gt;Node314414</title>
<path fill="none" stroke="#191970" d="M595.5257,-733.446C616.1914,-734.8123 638.7529,-736.304 658.4376,-737.6055"/>
<polygon fill="#191970" stroke="#191970" points="658.2347,-741.0996 668.4439,-738.267 658.6966,-734.1149 658.2347,-741.0996"/>
</g>
<!-- Node314516&#45;&gt;Node314466 -->
<g id="edge20" class="edge">
<title>Node314516&#45;&gt;Node314466</title>
<path fill="none" stroke="#191970" d="M564.566,-738.636C593.615,-746.6385 635.3266,-758.1293 666.8913,-766.8248"/>
<polygon fill="#191970" stroke="#191970" points="666.1836,-770.2602 676.7541,-769.5418 668.0428,-763.5116 666.1836,-770.2602"/>
</g>
<!-- Node314648&#45;&gt;Node314411 -->
<g id="edge22" class="edge">
<title>Node314648&#45;&gt;Node314411</title>
<path fill="none" stroke="#191970" d="M551.4723,-491.6014C570.7453,-482.0826 598.6025,-465.7509 616,-444.1137 673.7749,-372.2594 699.6369,-261.4057 708.1306,-216.7495"/>
<polygon fill="#191970" stroke="#191970" points="711.6193,-217.1265 709.9635,-206.6619 704.7321,-215.8751 711.6193,-217.1265"/>
</g>
<!-- Node314648&#45;&gt;Node314437 -->
<g id="edge23" class="edge">
<title>Node314648&#45;&gt;Node314437</title>
<path fill="none" stroke="#191970" d="M539.8959,-510.8561C559.6255,-529.7889 605.9358,-571.818 652,-596.1137 656.0479,-598.2487 660.3782,-600.1961 664.7878,-601.9598"/>
<polygon fill="#191970" stroke="#191970" points="663.8955,-605.3608 674.489,-605.5288 666.3124,-598.7913 663.8955,-605.3608"/>
</g>
<!-- Node314648&#45;&gt;Node314492 -->
<g id="edge24" class="edge">
<title>Node314648&#45;&gt;Node314492</title>
<path fill="none" stroke="#191970" d="M548.6913,-510.7633C572.3543,-522.7648 614.5556,-543.4574 652,-558.1137 657.5632,-560.2913 663.4877,-562.4115 669.3603,-564.3983"/>
<polygon fill="#191970" stroke="#191970" points="668.5286,-567.809 679.1214,-567.6025 670.7119,-561.1582 668.5286,-567.809"/>
</g>
<!-- Node314648&#45;&gt;Node314649 -->
<g id="edge25" class="edge">
<title>Node314648&#45;&gt;Node314649</title>
<path fill="none" stroke="#191970" d="M538.8304,-510.8371C558.8577,-532.8683 609.3041,-588.2425 652,-634.1137 664.5283,-647.5737 678.6567,-662.5421 690.0015,-674.5102"/>
<polygon fill="#191970" stroke="#191970" points="687.5875,-677.051 697.0098,-681.8957 692.6652,-672.2326 687.5875,-677.051"/>
</g>
<!-- Node314648&#45;&gt;Node314438 -->
<g id="edge27" class="edge">
<title>Node314648&#45;&gt;Node314438</title>
<path fill="none" stroke="#191970" d="M580.2592,-493.9631C631.3529,-489.1398 711.2765,-488.5059 771,-520.1137 896.4193,-586.4902 979.8437,-748.4838 1005.5663,-804.0441"/>
<polygon fill="#191970" stroke="#191970" points="1002.4957,-805.7473 1009.8165,-813.4061 1008.8697,-802.8537 1002.4957,-805.7473"/>
</g>
<!-- Node314648&#45;&gt;Node314651 -->
<g id="edge26" class="edge">
<title>Node314648&#45;&gt;Node314651</title>
<path fill="none" stroke="#191970" d="M575.8001,-510.7027C601.8735,-516.1616 634.5697,-523.0071 661.3343,-528.6107"/>
<polygon fill="#191970" stroke="#191970" points="660.7705,-532.0685 671.2756,-530.6921 662.2051,-525.217 660.7705,-532.0685"/>
</g>
<!-- Node314648&#45;&gt;Node314426 -->
<g id="edge28" class="edge">
<title>Node314648&#45;&gt;Node314426</title>
<path fill="none" stroke="#191970" d="M548.6913,-491.4642C572.3543,-479.4627 614.5556,-458.7701 652,-444.1137 657.5632,-441.9362 663.4877,-439.8159 669.3603,-437.8291"/>
<polygon fill="#191970" stroke="#191970" points="670.7119,-441.0693 679.1214,-434.6249 668.5286,-434.4184 670.7119,-441.0693"/>
</g>
<!-- Node314648&#45;&gt;Node314635 -->
<g id="edge29" class="edge">
<title>Node314648&#45;&gt;Node314635</title>
<path fill="none" stroke="#191970" d="M575.8001,-491.5247C601.8735,-486.0658 634.5697,-479.2204 661.3343,-473.6167"/>
<polygon fill="#191970" stroke="#191970" points="662.2051,-477.0104 671.2756,-471.5354 660.7705,-470.159 662.2051,-477.0104"/>
</g>
<!-- Node314648&#45;&gt;Node314662 -->
<g id="edge30" class="edge">
<title>Node314648&#45;&gt;Node314662</title>
<path fill="none" stroke="#191970" d="M554.6824,-491.5977C574.6551,-482.5349 601.7279,-466.8781 616,-444.1137 679.3707,-343.0363 597.8975,-284.4407 652,-178.1137 660.4614,-161.4847 675.7458,-147.0042 688.7044,-136.7995"/>
<polygon fill="#191970" stroke="#191970" points="690.8922,-139.5336 696.789,-130.7315 686.6901,-133.9352 690.8922,-139.5336"/>
</g>
<!-- Node314662&#45;&gt;Node314507 -->
<g id="edge31" class="edge">
<title>Node314662&#45;&gt;Node314507</title>
<path fill="none" stroke="#191970" d="M741.1269,-117.5845C763.7142,-114.8938 795.3227,-111.1286 821.701,-107.9863"/>
<polygon fill="#191970" stroke="#191970" points="822.38,-111.4303 831.8958,-106.7719 821.5519,-104.4794 822.38,-111.4303"/>
</g>
<!-- Node314690&#45;&gt;Node314426 -->
<g id="edge41" class="edge">
<title>Node314690&#45;&gt;Node314426</title>
<path fill="none" stroke="#191970" d="M571.1852,-425.1137C598.3851,-425.1137 634.1544,-425.1137 662.7701,-425.1137"/>
<polygon fill="#191970" stroke="#191970" points="662.96,-428.6138 672.9599,-425.1137 662.9599,-421.6138 662.96,-428.6138"/>
</g>
<!-- Node314668&#45;&gt;Node314411 -->
<g id="edge43" class="edge">
<title>Node314668&#45;&gt;Node314411</title>
<path fill="none" stroke="#191970" d="M545.1624,-92.6372C576.6579,-112.4195 649.3858,-158.0998 687.3864,-181.968"/>
<polygon fill="#191970" stroke="#191970" points="685.9233,-185.1821 696.2531,-187.5372 689.6465,-179.2544 685.9233,-185.1821"/>
</g>
<!-- Node314668&#45;&gt;Node314507 -->
<g id="edge44" class="edge">
<title>Node314668&#45;&gt;Node314507</title>
<path fill="none" stroke="#191970" d="M585.1665,-86.1875C650.6968,-89.8388 759.0172,-95.8742 821.807,-99.3728"/>
<polygon fill="#191970" stroke="#191970" points="821.6758,-102.8708 831.855,-99.9326 822.0653,-95.8816 821.6758,-102.8708"/>
</g>
<!-- Node314668&#45;&gt;Node314662 -->
<g id="edge45" class="edge">
<title>Node314668&#45;&gt;Node314662</title>
<path fill="none" stroke="#191970" d="M575.8001,-92.7027C605.4489,-98.9102 643.6615,-106.9106 671.9781,-112.8392"/>
<polygon fill="#191970" stroke="#191970" points="671.4236,-116.2989 681.9286,-114.9225 672.8581,-109.4474 671.4236,-116.2989"/>
</g>
<!-- Node314824&#45;&gt;Node314650 -->
<g id="edge49" class="edge">
<title>Node314824&#45;&gt;Node314650</title>
<path fill="none" stroke="#191970" d="M761.0925,-823.1137C772.3806,-823.1137 784.6142,-823.1137 796.6811,-823.1137"/>
<polygon fill="#191970" stroke="#191970" points="796.7537,-826.6138 806.7537,-823.1137 796.7537,-819.6138 796.7537,-826.6138"/>
</g>
<!-- Node314671&#45;&gt;Node314411 -->
<g id="edge51" class="edge">
<title>Node314671&#45;&gt;Node314411</title>
<path fill="none" stroke="#191970" d="M574.8652,-225.7205C602.2588,-219.9852 637.2221,-212.665 664.923,-206.8654"/>
<polygon fill="#191970" stroke="#191970" points="665.702,-210.2783 674.7725,-204.8032 664.2674,-203.4268 665.702,-210.2783"/>
</g>
<!-- Node314671&#45;&gt;Node314438 -->
<g id="edge52" class="edge">
<title>Node314671&#45;&gt;Node314438</title>
<path fill="none" stroke="#191970" d="M574.8033,-240.5295C588.5324,-243.3518 603.343,-247.6317 616,-254.1137 785.2192,-340.7754 834.5804,-377.6786 935,-539.1137 990.0558,-627.6217 1007.5121,-755.0601 1012.3481,-803.4605"/>
<polygon fill="#191970" stroke="#191970" points="1008.8721,-803.8824 1013.2807,-813.5164 1015.8422,-803.2359 1008.8721,-803.8824"/>
</g>
<!-- Node314671&#45;&gt;Node314507 -->
<g id="edge53" class="edge">
<title>Node314671&#45;&gt;Node314507</title>
<path fill="none" stroke="#191970" d="M574.8668,-241.254C625.375,-246.0484 708.5302,-247.4309 771,-216.1137 813.3645,-194.8757 845.5932,-147.142 860.9947,-120.6732"/>
<polygon fill="#191970" stroke="#191970" points="864.2071,-122.1011 866.0596,-111.6695 858.1062,-118.6691 864.2071,-122.1011"/>
</g>
<!-- Node314671&#45;&gt;Node314662 -->
<g id="edge54" class="edge">
<title>Node314671&#45;&gt;Node314662</title>
<path fill="none" stroke="#191970" d="M545.1624,-225.5902C576.6579,-205.8079 649.3858,-160.1276 687.3864,-136.2595"/>
<polygon fill="#191970" stroke="#191970" points="689.6465,-138.973 696.2531,-130.6903 685.9233,-133.0453 689.6465,-138.973"/>
</g>
</g>
</svg>
