<?xml version="1.0" encoding="UTF-8" standalone="no"?>
<!DOCTYPE svg PUBLIC "-//W3C//DTD SVG 1.1//EN"
 "http://www.w3.org/Graphics/SVG/1.1/DTD/svg11.dtd">
<!-- Generated by graphviz version 2.40.1 (20161225.0304)
 -->
<!-- Title: find_var_in_child_scope Pages: 1 -->
<svg width="932pt" height="380pt"
 viewBox="0.00 0.00 932.00 380.00" xmlns="http://www.w3.org/2000/svg" xmlns:xlink="http://www.w3.org/1999/xlink">
<g id="graph0" class="graph" transform="scale(1 1) rotate(0) translate(4 376)">
<title>find_var_in_child_scope</title>
<!-- Node334556 -->
<g id="node1" class="node">
<title>Node334556</title>
<polygon fill="#bfbfbf" stroke="#000000" points="0,-210.5 0,-229.5 121,-229.5 121,-210.5 0,-210.5"/>
<text text-anchor="middle" x="60.5" y="-217.5" font-family="Helvetica,sans-Serif" font-size="10.00" fill="#000000">find_var_in_child_scope</text>
</g>
<!-- Node334557 -->
<g id="node2" class="node">
<title>Node334557</title>
<g id="a_node2"><a xlink:href="quickjs_8c.html#a99125693fff3fd8277f544b15109354b" target="_top" xlink:title="define_var">
<polygon fill="none" stroke="#000000" points="157,-210.5 157,-229.5 219,-229.5 219,-210.5 157,-210.5"/>
<text text-anchor="middle" x="188" y="-217.5" font-family="Helvetica,sans-Serif" font-size="10.00" fill="#000000">define_var</text>
</a>
</g>
</g>
<!-- Node334556&#45;&gt;Node334557 -->
<g id="edge1" class="edge">
<title>Node334556&#45;&gt;Node334557</title>
<path fill="none" stroke="#191970" d="M131.3603,-220C140.2666,-220 148.9856,-220 156.81,-220"/>
<polygon fill="#191970" stroke="#191970" points="131.2627,-216.5001 121.2627,-220 131.2627,-223.5001 131.2627,-216.5001"/>
</g>
<!-- Node334558 -->
<g id="node3" class="node">
<title>Node334558</title>
<g id="a_node3"><a xlink:href="quickjs_8c.html#a00eb789430243c24dab4a63ad6a79653" target="_top" xlink:title="js_parse_class">
<polygon fill="none" stroke="#000000" points="255,-210.5 255,-229.5 337,-229.5 337,-210.5 255,-210.5"/>
<text text-anchor="middle" x="296" y="-217.5" font-family="Helvetica,sans-Serif" font-size="10.00" fill="#000000">js_parse_class</text>
</a>
</g>
</g>
<!-- Node334557&#45;&gt;Node334558 -->
<g id="edge2" class="edge">
<title>Node334557&#45;&gt;Node334558</title>
<path fill="none" stroke="#191970" d="M229.4651,-220C237.7659,-220 246.4849,-220 254.7774,-220"/>
<polygon fill="#191970" stroke="#191970" points="229.2381,-216.5001 219.2381,-220 229.238,-223.5001 229.2381,-216.5001"/>
</g>
<!-- Node334562 -->
<g id="node7" class="node">
<title>Node334562</title>
<g id="a_node7"><a xlink:href="quickjs_8c.html#a9d844c16dcc71701436848074337d32c" target="_top" xlink:title="js_parse_statement\l_or_decl">
<polygon fill="none" stroke="#ff0000" points="822,-81 822,-111 924,-111 924,-81 822,-81"/>
<text text-anchor="start" x="830" y="-99" font-family="Helvetica,sans-Serif" font-size="10.00" fill="#000000">js_parse_statement</text>
<text text-anchor="middle" x="873" y="-88" font-family="Helvetica,sans-Serif" font-size="10.00" fill="#000000">_or_decl</text>
</a>
</g>
</g>
<!-- Node334557&#45;&gt;Node334562 -->
<g id="edge27" class="edge">
<title>Node334557&#45;&gt;Node334562</title>
<path fill="none" stroke="#191970" d="M197.0363,-201.2184C224.1001,-147.9953 310.0495,0 429,0 429,0 429,0 574.5,0 678.747,0 794.0636,-53.7191 845.5547,-80.7885"/>
<polygon fill="#191970" stroke="#191970" points="193.8578,-199.7499 192.5444,-210.263 200.1272,-202.8636 193.8578,-199.7499"/>
</g>
<!-- Node334569 -->
<g id="node8" class="node">
<title>Node334569</title>
<g id="a_node8"><a xlink:href="quickjs_8c.html#a498e1d5c7de1b59c1630e9847cde1e41" target="_top" xlink:title="js_parse_export">
<polygon fill="none" stroke="#ff0000" points="830,-267.5 830,-286.5 916,-286.5 916,-267.5 830,-267.5"/>
<text text-anchor="middle" x="873" y="-274.5" font-family="Helvetica,sans-Serif" font-size="10.00" fill="#000000">js_parse_export</text>
</a>
</g>
</g>
<!-- Node334557&#45;&gt;Node334569 -->
<g id="edge28" class="edge">
<title>Node334557&#45;&gt;Node334569</title>
<path fill="none" stroke="#191970" d="M202.2227,-237.338C236.6418,-277.2062 328.9946,-372 429,-372 429,-372 429,-372 574.5,-372 686.2594,-372 810.9408,-310.7837 855.7825,-286.6319"/>
<polygon fill="#191970" stroke="#191970" points="204.7314,-234.8842 195.6018,-229.5083 199.3863,-239.4042 204.7314,-234.8842"/>
</g>
<!-- Node334567 -->
<g id="node10" class="node">
<title>Node334567</title>
<g id="a_node10"><a xlink:href="quickjs_8c.html#acc9eb677cab8dfcf45f59381f8a19601" target="_top" xlink:title="js_parse_function_decl2">
<polygon fill="none" stroke="#ff0000" points="664,-248.5 664,-267.5 786,-267.5 786,-248.5 664,-248.5"/>
<text text-anchor="middle" x="725" y="-255.5" font-family="Helvetica,sans-Serif" font-size="10.00" fill="#000000">js_parse_function_decl2</text>
</a>
</g>
</g>
<!-- Node334557&#45;&gt;Node334567 -->
<g id="edge29" class="edge">
<title>Node334557&#45;&gt;Node334567</title>
<path fill="none" stroke="#191970" d="M227.8517,-232.3592C236.7271,-234.8148 246.1347,-237.1901 255,-239 417.8525,-272.2465 461.9291,-272.8367 628,-266 639.6494,-265.5204 652.0658,-264.7182 663.9894,-263.8021"/>
<polygon fill="#191970" stroke="#191970" points="228.6913,-228.9591 218.1146,-229.5785 226.7691,-235.69 228.6913,-228.9591"/>
</g>
<!-- Node334589 -->
<g id="node11" class="node">
<title>Node334589</title>
<g id="a_node11"><a xlink:href="quickjs_8c.html#a53e971ab3c46da0b7d48481b0696e138" target="_top" xlink:title="js_define_var">
<polygon fill="none" stroke="#000000" points="392,-104.5 392,-123.5 466,-123.5 466,-104.5 392,-104.5"/>
<text text-anchor="middle" x="429" y="-111.5" font-family="Helvetica,sans-Serif" font-size="10.00" fill="#000000">js_define_var</text>
</a>
</g>
</g>
<!-- Node334557&#45;&gt;Node334589 -->
<g id="edge22" class="edge">
<title>Node334557&#45;&gt;Node334589</title>
<path fill="none" stroke="#191970" d="M219.0657,-206.3362C268.5476,-184.5724 364.0547,-142.5651 407.0635,-123.6484"/>
<polygon fill="#191970" stroke="#191970" points="217.5568,-203.1763 209.8122,-210.4063 220.3751,-209.5839 217.5568,-203.1763"/>
</g>
<!-- Node334559 -->
<g id="node4" class="node">
<title>Node334559</title>
<g id="a_node4"><a xlink:href="quickjs_8c.html#acdcc62310b4f6f73fa7bc7267b18b1d4" target="_top" xlink:title="js_parse_postfix_expr">
<polygon fill="none" stroke="#ff0000" points="373,-148.5 373,-167.5 485,-167.5 485,-148.5 373,-148.5"/>
<text text-anchor="middle" x="429" y="-155.5" font-family="Helvetica,sans-Serif" font-size="10.00" fill="#000000">js_parse_postfix_expr</text>
</a>
</g>
</g>
<!-- Node334558&#45;&gt;Node334559 -->
<g id="edge3" class="edge">
<title>Node334558&#45;&gt;Node334559</title>
<path fill="none" stroke="#191970" d="M316.5735,-205.3657C337.6671,-193.6116 370.8114,-177.8619 395.6571,-167.6025"/>
<polygon fill="#191970" stroke="#191970" points="314.6983,-202.4071 307.8029,-210.451 318.2095,-208.4628 314.6983,-202.4071"/>
</g>
<!-- Node334558&#45;&gt;Node334562 -->
<g id="edge20" class="edge">
<title>Node334558&#45;&gt;Node334562</title>
<path fill="none" stroke="#191970" d="M347.2834,-223.7578C439.7561,-228.3979 638.524,-228.4862 786,-159 812.6541,-146.4414 839.5471,-125.3868 856.2311,-111.1073"/>
<polygon fill="#191970" stroke="#191970" points="347.2492,-220.2509 337.0745,-223.2048 346.8705,-227.2407 347.2492,-220.2509"/>
</g>
<!-- Node334558&#45;&gt;Node334569 -->
<g id="edge21" class="edge">
<title>Node334558&#45;&gt;Node334569</title>
<path fill="none" stroke="#191970" d="M333.4296,-233.4535C334.6383,-233.9645 335.8312,-234.4806 337,-235 353.5327,-242.3469 355.6293,-248.9436 373,-254 536.1142,-301.481 741.6943,-289.8557 829.7529,-281.709"/>
<polygon fill="#191970" stroke="#191970" points="334.5751,-230.1419 323.9909,-229.6667 331.9686,-236.6386 334.5751,-230.1419"/>
</g>
<!-- Node334559&#45;&gt;Node334558 -->
<g id="edge4" class="edge">
<title>Node334559&#45;&gt;Node334558</title>
<path fill="none" stroke="#191970" d="M408.3276,-172.6894C387.194,-184.4572 354.039,-200.2068 329.2184,-210.4489"/>
<polygon fill="#191970" stroke="#191970" points="410.22,-175.6381 417.1185,-167.5969 406.7111,-169.581 410.22,-175.6381"/>
</g>
<!-- Node334559&#45;&gt;Node334559 -->
<g id="edge18" class="edge">
<title>Node334559&#45;&gt;Node334559</title>
<path fill="none" stroke="#191970" d="M404.4465,-177.0292C405.7858,-182.128 413.9703,-186 429,-186 452.4609,-186 459.2426,-176.5653 449.345,-167.7571"/>
<polygon fill="#191970" stroke="#191970" points="407.709,-178.3096 408.655,-167.7571 401.3348,-175.4164 407.709,-178.3096"/>
</g>
<!-- Node334560 -->
<g id="node5" class="node">
<title>Node334560</title>
<g id="a_node5"><a xlink:href="quickjs_8c.html#aff9f2e2a1548acfc8307a4070bb444ec" target="_top" xlink:title="js_parse_destructing\l_element">
<polygon fill="none" stroke="#000000" points="521,-143 521,-173 628,-173 628,-143 521,-143"/>
<text text-anchor="start" x="529" y="-161" font-family="Helvetica,sans-Serif" font-size="10.00" fill="#000000">js_parse_destructing</text>
<text text-anchor="middle" x="574.5" y="-150" font-family="Helvetica,sans-Serif" font-size="10.00" fill="#000000">_element</text>
</a>
</g>
</g>
<!-- Node334559&#45;&gt;Node334560 -->
<g id="edge5" class="edge">
<title>Node334559&#45;&gt;Node334560</title>
<path fill="none" stroke="#191970" d="M495.4976,-151.2722C503.9673,-151.2119 512.5509,-151.2744 520.7846,-151.4597"/>
<polygon fill="#191970" stroke="#191970" points="495.2073,-147.7756 485.2541,-151.4067 495.2992,-154.775 495.2073,-147.7756"/>
</g>
<!-- Node334564 -->
<g id="node9" class="node">
<title>Node334564</title>
<g id="a_node9"><a xlink:href="quickjs_8c.html#ac188b916dd086803591a67de7e7a85f6" target="_top" xlink:title="js_parse_for_in_of">
<polygon fill="none" stroke="#000000" points="677,-67.5 677,-86.5 773,-86.5 773,-67.5 677,-67.5"/>
<text text-anchor="middle" x="725" y="-74.5" font-family="Helvetica,sans-Serif" font-size="10.00" fill="#000000">js_parse_for_in_of</text>
</a>
</g>
</g>
<!-- Node334559&#45;&gt;Node334564 -->
<g id="edge19" class="edge">
<title>Node334559&#45;&gt;Node334564</title>
<path fill="none" stroke="#191970" d="M473.6301,-145.787C532.773,-129.6027 635.908,-101.3799 689.8482,-86.6192"/>
<polygon fill="#191970" stroke="#191970" points="472.5469,-142.4547 463.8254,-148.4701 474.3946,-149.2064 472.5469,-142.4547"/>
</g>
<!-- Node334560&#45;&gt;Node334559 -->
<g id="edge7" class="edge">
<title>Node334560&#45;&gt;Node334559</title>
<path fill="none" stroke="#191970" d="M510.5989,-164.7054C502.1574,-164.7909 493.5545,-164.7535 485.2541,-164.5933"/>
<polygon fill="#191970" stroke="#191970" points="510.8427,-168.202 520.7846,-164.5403 510.7291,-161.2029 510.8427,-168.202"/>
</g>
<!-- Node334560&#45;&gt;Node334560 -->
<g id="edge6" class="edge">
<title>Node334560&#45;&gt;Node334560</title>
<path fill="none" stroke="#191970" d="M548.9129,-183.4579C552.0887,-188.179 560.6177,-191.5 574.5,-191.5 597.2813,-191.5 605.6462,-182.5566 599.595,-173.159"/>
<polygon fill="#191970" stroke="#191970" points="552.4237,-183.3147 549.405,-173.159 545.4317,-182.9805 552.4237,-183.3147"/>
</g>
<!-- Node334561 -->
<g id="node6" class="node">
<title>Node334561</title>
<g id="a_node6"><a xlink:href="quickjs_8c.html#a42924858317b848c3aea0a0a978fab3a" target="_top" xlink:title="js_parse_var">
<polygon fill="none" stroke="#000000" points="689,-106.5 689,-125.5 761,-125.5 761,-106.5 689,-106.5"/>
<text text-anchor="middle" x="725" y="-113.5" font-family="Helvetica,sans-Serif" font-size="10.00" fill="#000000">js_parse_var</text>
</a>
</g>
</g>
<!-- Node334560&#45;&gt;Node334561 -->
<g id="edge8" class="edge">
<title>Node334560&#45;&gt;Node334561</title>
<path fill="none" stroke="#191970" d="M638.2808,-140.2007C656.2643,-135.182 675.1429,-129.9136 690.6771,-125.5785"/>
<polygon fill="#191970" stroke="#191970" points="637.1,-136.8964 628.4089,-142.9557 638.9817,-143.6388 637.1,-136.8964"/>
</g>
<!-- Node334560&#45;&gt;Node334562 -->
<g id="edge14" class="edge">
<title>Node334560&#45;&gt;Node334562</title>
<path fill="none" stroke="#191970" d="M638.5766,-156.2343C681.0233,-153.8028 737.5902,-148.1308 786,-135 806.6079,-129.4102 828.5381,-119.551 845.2251,-111.1444"/>
<polygon fill="#191970" stroke="#191970" points="638.1794,-152.7503 628.3776,-156.772 638.548,-159.7406 638.1794,-152.7503"/>
</g>
<!-- Node334560&#45;&gt;Node334564 -->
<g id="edge12" class="edge">
<title>Node334560&#45;&gt;Node334564</title>
<path fill="none" stroke="#191970" d="M601.8151,-136.3961C618.9331,-123.6334 641.8767,-107.8931 664,-97 672.1989,-92.963 681.404,-89.4602 690.1294,-86.5636"/>
<polygon fill="#191970" stroke="#191970" points="599.2814,-133.9251 593.4298,-142.7574 603.5121,-139.502 599.2814,-133.9251"/>
</g>
<!-- Node334560&#45;&gt;Node334567 -->
<g id="edge15" class="edge">
<title>Node334560&#45;&gt;Node334567</title>
<path fill="none" stroke="#191970" d="M605.9578,-178.9022C638.1076,-200.2642 686.614,-232.4943 710.5673,-248.4102"/>
<polygon fill="#191970" stroke="#191970" points="607.6237,-175.807 597.3577,-173.1878 603.7497,-181.6373 607.6237,-175.807"/>
</g>
<!-- Node334561&#45;&gt;Node334562 -->
<g id="edge9" class="edge">
<title>Node334561&#45;&gt;Node334562</title>
<path fill="none" stroke="#191970" d="M771.3974,-109.7301C787.4071,-107.5666 805.4288,-105.1312 821.8004,-102.9189"/>
<polygon fill="#191970" stroke="#191970" points="770.6461,-106.2997 761.2049,-111.1074 771.5835,-113.2367 770.6461,-106.2997"/>
</g>
<!-- Node334561&#45;&gt;Node334569 -->
<g id="edge11" class="edge">
<title>Node334561&#45;&gt;Node334569</title>
<path fill="none" stroke="#191970" d="M740.8596,-133.2527C771.8773,-166.9949 839.6667,-240.7388 864.0442,-267.2576"/>
<polygon fill="#191970" stroke="#191970" points="743.1592,-130.5825 733.8149,-125.5891 738.0058,-135.3199 743.1592,-130.5825"/>
</g>
<!-- Node334562&#45;&gt;Node334562 -->
<g id="edge10" class="edge">
<title>Node334562&#45;&gt;Node334562</title>
<path fill="none" stroke="#191970" d="M846.7022,-121.4579C849.9661,-126.179 858.7321,-129.5 873,-129.5 896.4141,-129.5 905.0114,-120.5566 898.7921,-111.159"/>
<polygon fill="#191970" stroke="#191970" points="850.2132,-121.3187 847.2079,-111.159 843.2216,-120.9753 850.2132,-121.3187"/>
</g>
<!-- Node334564&#45;&gt;Node334562 -->
<g id="edge13" class="edge">
<title>Node334564&#45;&gt;Node334562</title>
<path fill="none" stroke="#191970" d="M783.1371,-84.4635C795.9293,-86.1058 809.3852,-87.8332 821.8766,-89.4369"/>
<polygon fill="#191970" stroke="#191970" points="783.4157,-80.9707 773.0514,-83.1688 782.5243,-87.9137 783.4157,-80.9707"/>
</g>
<!-- Node334567&#45;&gt;Node334558 -->
<g id="edge16" class="edge">
<title>Node334567&#45;&gt;Node334558</title>
<path fill="none" stroke="#191970" d="M653.5444,-255.4709C582.2683,-252.3977 469.7494,-246.0553 373,-234 361.2698,-232.5384 348.6195,-230.4533 337.0292,-228.3373"/>
<polygon fill="#191970" stroke="#191970" points="653.616,-258.9769 663.7545,-255.9008 653.9106,-251.9831 653.616,-258.9769"/>
</g>
<!-- Node334567&#45;&gt;Node334569 -->
<g id="edge17" class="edge">
<title>Node334567&#45;&gt;Node334569</title>
<path fill="none" stroke="#191970" d="M796.0897,-267.1264C807.5713,-268.6004 819.1464,-270.0864 829.7073,-271.4421"/>
<polygon fill="#191970" stroke="#191970" points="796.416,-263.6396 786.0517,-265.8377 795.5246,-270.5827 796.416,-263.6396"/>
</g>
<!-- Node334589&#45;&gt;Node334560 -->
<g id="edge23" class="edge">
<title>Node334589&#45;&gt;Node334560</title>
<path fill="none" stroke="#191970" d="M470.1873,-126.4553C487.1381,-131.5813 506.925,-137.5649 524.6816,-142.9346"/>
<polygon fill="#191970" stroke="#191970" points="471.1564,-123.0918 460.5713,-123.5473 469.1301,-129.7922 471.1564,-123.0918"/>
</g>
<!-- Node334589&#45;&gt;Node334561 -->
<g id="edge24" class="edge">
<title>Node334589&#45;&gt;Node334561</title>
<path fill="none" stroke="#191970" d="M476.3757,-114.3201C535.4761,-114.7194 635.2398,-115.3935 688.6583,-115.7544"/>
<polygon fill="#191970" stroke="#191970" points="476.2123,-110.819 466.1889,-114.2513 476.165,-117.8189 476.2123,-110.819"/>
</g>
<!-- Node334589&#45;&gt;Node334562 -->
<g id="edge26" class="edge">
<title>Node334589&#45;&gt;Node334562</title>
<path fill="none" stroke="#191970" d="M446.2379,-97.3846C463.5407,-81.9578 491.759,-60.0524 521,-51 551.692,-41.4985 774.7714,-55.3941 786,-58 806.872,-62.8439 828.9809,-72.5674 845.6881,-80.9656"/>
<polygon fill="#191970" stroke="#191970" points="443.6536,-95.0063 438.664,-104.3527 448.3931,-100.1578 443.6536,-95.0063"/>
</g>
<!-- Node334589&#45;&gt;Node334564 -->
<g id="edge25" class="edge">
<title>Node334589&#45;&gt;Node334564</title>
<path fill="none" stroke="#191970" d="M449.6127,-98.2066C467.4187,-85.6229 494.4071,-68.9953 521,-62 578.526,-46.8676 648.1072,-57.9589 689.341,-67.436"/>
<polygon fill="#191970" stroke="#191970" points="447.2088,-95.6276 441.189,-104.3461 451.3318,-101.2846 447.2088,-95.6276"/>
</g>
</g>
</svg>
