<?xml version="1.0" encoding="UTF-8" standalone="no"?>
<!DOCTYPE svg PUBLIC "-//W3C//DTD SVG 1.1//EN"
 "http://www.w3.org/Graphics/SVG/1.1/DTD/svg11.dtd">
<!-- Generated by graphviz version 2.40.1 (20161225.0304)
 -->
<!-- Title: js_date_getTimezoneOffset Pages: 1 -->
<!--zoomable 161 -->
<svg id="main" version="1.1" xmlns="http://www.w3.org/2000/svg" xmlns:xlink="http://www.w3.org/1999/xlink" xml:space="preserve" onload="init(evt)">
<style type="text/css"><![CDATA[
.edge:hover path { stroke: red; }
.edge:hover polygon { stroke: red; fill: red; }
]]></style>
<script type="text/javascript"><![CDATA[
var edges = document.getElementsByTagName('g');
if (edges && edges.length) {
  for (var i=0;i<edges.length;i++) {
    if (edges[i].id.substr(0,4)=='edge') {
      edges[i].setAttribute('class','edge');
    }
  }
}
]]></script>
        <defs>
                <circle id="rim" cx="0" cy="0" r="7"/>
                <circle id="rim2" cx="0" cy="0" r="3.5"/>
                <g id="zoomPlus">
                        <use xlink:href="#rim" fill="#404040">
                                <set attributeName="fill" to="#808080" begin="zoomplus.mouseover" end="zoomplus.mouseout"/>
                        </use>
                        <path d="M-4,0h8M0,-4v8" fill="none" stroke="white" stroke-width="1.5" pointer-events="none"/>
                </g>
                <g id="zoomMin">
                        <use xlink:href="#rim" fill="#404040">
                                <set attributeName="fill" to="#808080" begin="zoomminus.mouseover" end="zoomminus.mouseout"/>
                        </use>
                        <path d="M-4,0h8" fill="none" stroke="white" stroke-width="1.5" pointer-events="none"/>
                </g>
                <g id="dirArrow">
                        <path fill="none" stroke="white" stroke-width="1.5" d="M0,-3.0v7 M-2.5,-0.5L0,-3.0L2.5,-0.5"/>
                </g>
               <g id="resetDef">
                       <use xlink:href="#rim2" fill="#404040">
                               <set attributeName="fill" to="#808080" begin="reset.mouseover" end="reset.mouseout"/>
                       </use>
               </g>
        </defs>

<script type="text/javascript">
var viewWidth = 527;
var viewHeight = 161;
var sectionId = 'dynsection-1711';
</script>
<script xlink:href="svgpan.js"/>
<svg id="graph" class="graph">
<g id="viewport">
<title>js_date_getTimezoneOffset</title>
<!-- Node427363 -->
<g id="node1" class="node">
<title>Node427363</title>
<polygon fill="#bfbfbf" stroke="#000000" points="0,-95.5 0,-114.5 137,-114.5 137,-95.5 0,-95.5"/>
<text text-anchor="middle" x="68.5" y="-102.5" font-family="Helvetica,sans-Serif" font-size="10.00" fill="#000000">js_date_getTimezoneOffset</text>
</g>
<!-- Node427364 -->
<g id="node2" class="node">
<title>Node427364</title>
<g id="a_node2"><a xlink:href="quickjs_8c.html#adecade3bf915770c66e0a27bc3458343" target="_top" xlink:title="getTimezoneOffset">
<polygon fill="none" stroke="#000000" points="173,-133.5 173,-152.5 273,-152.5 273,-133.5 173,-133.5"/>
<text text-anchor="middle" x="223" y="-140.5" font-family="Helvetica,sans-Serif" font-size="10.00" fill="#000000">getTimezoneOffset</text>
</a>
</g>
</g>
<!-- Node427363&#45;&gt;Node427364 -->
<g id="edge1" class="edge">
<title>Node427363&#45;&gt;Node427364</title>
<path fill="none" stroke="#191970" d="M107.4869,-114.589C127.783,-119.5809 152.7935,-125.7324 174.3462,-131.0334"/>
<polygon fill="#191970" stroke="#191970" points="173.7469,-134.4902 184.2935,-133.4799 175.4188,-127.6928 173.7469,-134.4902"/>
</g>
<!-- Node427365 -->
<g id="node3" class="node">
<title>Node427365</title>
<g id="a_node3"><a xlink:href="quickjs_8c.html#acfced0527a056a74dd8439904b7936dd" target="_top" xlink:title="JS_NewInt64">
<polygon fill="none" stroke="#000000" points="185,-95.5 185,-114.5 261,-114.5 261,-95.5 185,-95.5"/>
<text text-anchor="middle" x="223" y="-102.5" font-family="Helvetica,sans-Serif" font-size="10.00" fill="#000000">JS_NewInt64</text>
</a>
</g>
</g>
<!-- Node427363&#45;&gt;Node427365 -->
<g id="edge2" class="edge">
<title>Node427363&#45;&gt;Node427365</title>
<path fill="none" stroke="#191970" d="M137.1657,-105C149.7569,-105 162.6562,-105 174.5031,-105"/>
<polygon fill="#191970" stroke="#191970" points="174.609,-108.5001 184.6089,-105 174.6089,-101.5001 174.609,-108.5001"/>
</g>
<!-- Node427367 -->
<g id="node5" class="node">
<title>Node427367</title>
<g id="a_node5"><a xlink:href="quickjs_8c.html#a5ec6b290012ff91cab9950078724eea2" target="_top" xlink:title="JS_ThisTimeValue">
<polygon fill="none" stroke="#000000" points="173.5,-57.5 173.5,-76.5 272.5,-76.5 272.5,-57.5 173.5,-57.5"/>
<text text-anchor="middle" x="223" y="-64.5" font-family="Helvetica,sans-Serif" font-size="10.00" fill="#000000">JS_ThisTimeValue</text>
</a>
</g>
</g>
<!-- Node427363&#45;&gt;Node427367 -->
<g id="edge4" class="edge">
<title>Node427363&#45;&gt;Node427367</title>
<path fill="none" stroke="#191970" d="M107.4869,-95.411C127.783,-90.4191 152.7935,-84.2676 174.3462,-78.9666"/>
<polygon fill="#191970" stroke="#191970" points="175.4188,-82.3072 184.2935,-76.5201 173.7469,-75.5098 175.4188,-82.3072"/>
</g>
<!-- Node427366 -->
<g id="node4" class="node">
<title>Node427366</title>
<g id="a_node4"><a xlink:href="quickjs_8h.html#a2050bc428da1c65ac7eb87c3fa3b0392" target="_top" xlink:title="JS_NewInt32">
<polygon fill="none" stroke="#000000" points="309.5,-95.5 309.5,-114.5 385.5,-114.5 385.5,-95.5 309.5,-95.5"/>
<text text-anchor="middle" x="347.5" y="-102.5" font-family="Helvetica,sans-Serif" font-size="10.00" fill="#000000">JS_NewInt32</text>
</a>
</g>
</g>
<!-- Node427365&#45;&gt;Node427366 -->
<g id="edge3" class="edge">
<title>Node427365&#45;&gt;Node427366</title>
<path fill="none" stroke="#191970" d="M261.0306,-105C272.9862,-105 286.3539,-105 298.9366,-105"/>
<polygon fill="#191970" stroke="#191970" points="299.2733,-108.5001 309.2733,-105 299.2733,-101.5001 299.2733,-108.5001"/>
</g>
<!-- Node427368 -->
<g id="node6" class="node">
<title>Node427368</title>
<g id="a_node6"><a xlink:href="quickjs_8c.html#a80748588bc6abe4b1e93c193dde82c00" target="_top" xlink:title="JS_IsNumber">
<polygon fill="none" stroke="#000000" points="309,-57.5 309,-76.5 386,-76.5 386,-57.5 309,-57.5"/>
<text text-anchor="middle" x="347.5" y="-64.5" font-family="Helvetica,sans-Serif" font-size="10.00" fill="#000000">JS_IsNumber</text>
</a>
</g>
</g>
<!-- Node427367&#45;&gt;Node427368 -->
<g id="edge5" class="edge">
<title>Node427367&#45;&gt;Node427368</title>
<path fill="none" stroke="#191970" d="M272.5634,-67C281.1447,-67 290.0618,-67 298.6245,-67"/>
<polygon fill="#191970" stroke="#191970" points="298.8471,-70.5001 308.8471,-67 298.847,-63.5001 298.8471,-70.5001"/>
</g>
<!-- Node427369 -->
<g id="node7" class="node">
<title>Node427369</title>
<g id="a_node7"><a xlink:href="quickjs_8c.html#a8cc9386cd04cfa067d0c6bf588c6bb58" target="_top" xlink:title="JS_ToFloat64">
<polygon fill="none" stroke="#000000" points="309,-19.5 309,-38.5 386,-38.5 386,-19.5 309,-19.5"/>
<text text-anchor="middle" x="347.5" y="-26.5" font-family="Helvetica,sans-Serif" font-size="10.00" fill="#000000">JS_ToFloat64</text>
</a>
</g>
</g>
<!-- Node427367&#45;&gt;Node427369 -->
<g id="edge6" class="edge">
<title>Node427367&#45;&gt;Node427369</title>
<path fill="none" stroke="#191970" d="M254.4166,-57.411C270.1935,-52.5956 289.5054,-46.7012 306.4412,-41.532"/>
<polygon fill="#191970" stroke="#191970" points="307.5508,-44.8528 316.0934,-38.5859 305.5073,-38.1577 307.5508,-44.8528"/>
</g>
<!-- Node427370 -->
<g id="node8" class="node">
<title>Node427370</title>
<g id="a_node8"><a xlink:href="quickjs_8h.html#a775522f2d084fc8fa0fcb33f390006b4" target="_top" xlink:title="JS_DupValue">
<polygon fill="none" stroke="#000000" points="432,-38.5 432,-57.5 509,-57.5 509,-38.5 432,-38.5"/>
<text text-anchor="middle" x="470.5" y="-45.5" font-family="Helvetica,sans-Serif" font-size="10.00" fill="#000000">JS_DupValue</text>
</a>
</g>
</g>
<!-- Node427369&#45;&gt;Node427370 -->
<g id="edge7" class="edge">
<title>Node427369&#45;&gt;Node427370</title>
<path fill="none" stroke="#191970" d="M386.0805,-34.9596C397.3056,-36.6936 409.7195,-38.6111 421.4953,-40.4302"/>
<polygon fill="#191970" stroke="#191970" points="421.2164,-43.9285 431.6335,-41.9962 422.285,-37.0106 421.2164,-43.9285"/>
</g>
<!-- Node427371 -->
<g id="node9" class="node">
<title>Node427371</title>
<g id="a_node9"><a xlink:href="quickjs_8c.html#ab1b614ef35f1cea05da0ad4927c53118" target="_top" xlink:title="JS_ToFloat64Free">
<polygon fill="none" stroke="#ff0000" points="422,-.5 422,-19.5 519,-19.5 519,-.5 422,-.5"/>
<text text-anchor="middle" x="470.5" y="-7.5" font-family="Helvetica,sans-Serif" font-size="10.00" fill="#000000">JS_ToFloat64Free</text>
</a>
</g>
</g>
<!-- Node427369&#45;&gt;Node427371 -->
<g id="edge8" class="edge">
<title>Node427369&#45;&gt;Node427371</title>
<path fill="none" stroke="#191970" d="M386.0805,-23.0404C394.1826,-21.7889 402.904,-20.4417 411.5577,-19.1049"/>
<polygon fill="#191970" stroke="#191970" points="412.2958,-22.5325 421.6442,-17.5468 411.2271,-15.6145 412.2958,-22.5325"/>
</g>
</g>
</svg>
        <g id="navigator" transform="translate(0 0)" fill="#404254">
                <rect fill="#f2f5e9" fill-opacity="0.5" stroke="#606060" stroke-width=".5" x="0" y="0" width="60" height="60"/>
                <use id="zoomplus" xlink:href="#zoomPlus" x="17" y="9" onmousedown="handleZoom(evt,'in')"/>
                <use id="zoomminus" xlink:href="#zoomMin" x="42" y="9" onmousedown="handleZoom(evt,'out')"/>
                <use id="reset" xlink:href="#resetDef" x="30" y="36" onmousedown="handleReset()"/>
                <g id="arrowUp" xlink:href="#dirArrow" transform="translate(30 24)" onmousedown="handlePan(0,-1)">
                  <use xlink:href="#rim" fill="#404040">
                        <set attributeName="fill" to="#808080" begin="arrowUp.mouseover" end="arrowUp.mouseout"/>
                  </use>
                  <path fill="none" stroke="white" stroke-width="1.5" d="M0,-3.0v7 M-2.5,-0.5L0,-3.0L2.5,-0.5"/>
                </g>
                <g id="arrowRight" xlink:href="#dirArrow" transform="rotate(90) translate(36 -43)" onmousedown="handlePan(1,0)">
                  <use xlink:href="#rim" fill="#404040">
                        <set attributeName="fill" to="#808080" begin="arrowRight.mouseover" end="arrowRight.mouseout"/>
                  </use>
                  <path fill="none" stroke="white" stroke-width="1.5" d="M0,-3.0v7 M-2.5,-0.5L0,-3.0L2.5,-0.5"/>
                </g>
                <g id="arrowDown" xlink:href="#dirArrow" transform="rotate(180) translate(-30 -48)" onmousedown="handlePan(0,1)">
                  <use xlink:href="#rim" fill="#404040">
                        <set attributeName="fill" to="#808080" begin="arrowDown.mouseover" end="arrowDown.mouseout"/>
                  </use>
                  <path fill="none" stroke="white" stroke-width="1.5" d="M0,-3.0v7 M-2.5,-0.5L0,-3.0L2.5,-0.5"/>
                </g>
                <g id="arrowLeft" xlink:href="#dirArrow" transform="rotate(270) translate(-36 17)" onmousedown="handlePan(-1,0)">
                  <use xlink:href="#rim" fill="#404040">
                        <set attributeName="fill" to="#808080" begin="arrowLeft.mouseover" end="arrowLeft.mouseout"/>
                  </use>
                  <path fill="none" stroke="white" stroke-width="1.5" d="M0,-3.0v7 M-2.5,-0.5L0,-3.0L2.5,-0.5"/>
                </g>
        </g>
        <svg viewBox="0 0 15 15" width="100%" height="30px" preserveAspectRatio="xMaxYMin meet">
         <g id="arrow_out" transform="scale(0.3 0.3)">
          <a xlink:href="quickjs_8c_af1e60ffab19bf9c06f7db43fccdab4c0_cgraph_org.svg" target="_base">
           <rect id="button" ry="5" rx="5" y="6" x="6" height="38" width="38"
                fill="#f2f5e9" fill-opacity="0.5" stroke="#606060" stroke-width="1.0"/>
           <path id="arrow"
             d="M 11.500037,31.436501 C 11.940474,20.09759 22.043105,11.32322 32.158766,21.979434 L 37.068811,17.246167 C 37.068811,17.246167 37.088388,32 37.088388,32 L 22.160133,31.978069 C 22.160133,31.978069 26.997745,27.140456 26.997745,27.140456 C 18.528582,18.264221 13.291696,25.230495 11.500037,31.436501 z"
             style="fill:#404040;"/>
          </a>
         </g>
        </svg>
</svg>
