<?xml version="1.0" encoding="UTF-8" standalone="no"?>
<!DOCTYPE svg PUBLIC "-//W3C//DTD SVG 1.1//EN"
 "http://www.w3.org/Graphics/SVG/1.1/DTD/svg11.dtd">
<!-- Generated by graphviz version 2.40.1 (20161225.0304)
 -->
<!-- Title: get_leb128 Pages: 1 -->
<!--zoomable 310 -->
<svg id="main" version="1.1" xmlns="http://www.w3.org/2000/svg" xmlns:xlink="http://www.w3.org/1999/xlink" xml:space="preserve" onload="init(evt)">
<style type="text/css"><![CDATA[
.edge:hover path { stroke: red; }
.edge:hover polygon { stroke: red; fill: red; }
]]></style>
<script type="text/javascript"><![CDATA[
var edges = document.getElementsByTagName('g');
if (edges && edges.length) {
  for (var i=0;i<edges.length;i++) {
    if (edges[i].id.substr(0,4)=='edge') {
      edges[i].setAttribute('class','edge');
    }
  }
}
]]></script>
        <defs>
                <circle id="rim" cx="0" cy="0" r="7"/>
                <circle id="rim2" cx="0" cy="0" r="3.5"/>
                <g id="zoomPlus">
                        <use xlink:href="#rim" fill="#404040">
                                <set attributeName="fill" to="#808080" begin="zoomplus.mouseover" end="zoomplus.mouseout"/>
                        </use>
                        <path d="M-4,0h8M0,-4v8" fill="none" stroke="white" stroke-width="1.5" pointer-events="none"/>
                </g>
                <g id="zoomMin">
                        <use xlink:href="#rim" fill="#404040">
                                <set attributeName="fill" to="#808080" begin="zoomminus.mouseover" end="zoomminus.mouseout"/>
                        </use>
                        <path d="M-4,0h8" fill="none" stroke="white" stroke-width="1.5" pointer-events="none"/>
                </g>
                <g id="dirArrow">
                        <path fill="none" stroke="white" stroke-width="1.5" d="M0,-3.0v7 M-2.5,-0.5L0,-3.0L2.5,-0.5"/>
                </g>
               <g id="resetDef">
                       <use xlink:href="#rim2" fill="#404040">
                               <set attributeName="fill" to="#808080" begin="reset.mouseover" end="reset.mouseout"/>
                       </use>
               </g>
        </defs>

<script type="text/javascript">
var viewWidth = 623;
var viewHeight = 310;
var sectionId = 'dynsection-471';
</script>
<script xlink:href="svgpan.js"/>
<svg id="graph" class="graph">
<g id="viewport">
<title>get_leb128</title>
<!-- Node143757 -->
<g id="node1" class="node">
<title>Node143757</title>
<polygon fill="#bfbfbf" stroke="#000000" points="0,-66.5 0,-85.5 64,-85.5 64,-66.5 0,-66.5"/>
<text text-anchor="middle" x="32" y="-73.5" font-family="Helvetica,sans-Serif" font-size="10.00" fill="#000000">get_leb128</text>
</g>
<!-- Node143758 -->
<g id="node2" class="node">
<title>Node143758</title>
<g id="a_node2"><a xlink:href="quickjs_8c.html#a79e9250c5e2b097c9655cbc8a75ba923" target="_top" xlink:title="bc_get_leb128">
<polygon fill="none" stroke="#000000" points="100,-180.5 100,-199.5 180,-199.5 180,-180.5 100,-180.5"/>
<text text-anchor="middle" x="140" y="-187.5" font-family="Helvetica,sans-Serif" font-size="10.00" fill="#000000">bc_get_leb128</text>
</a>
</g>
</g>
<!-- Node143757&#45;&gt;Node143758 -->
<g id="edge1" class="edge">
<title>Node143757&#45;&gt;Node143758</title>
<path fill="none" stroke="#191970" d="M48.2447,-93.1472C71.2356,-117.4153 112.5028,-160.9752 130.8153,-180.305"/>
<polygon fill="#191970" stroke="#191970" points="50.6263,-90.572 41.208,-85.7196 45.5447,-95.3862 50.6263,-90.572"/>
</g>
<!-- Node143767 -->
<g id="node9" class="node">
<title>Node143767</title>
<g id="a_node9"><a xlink:href="quickjs_8c.html#af139f102b1c52111bc98af4ba935bf18" target="_top" xlink:title="find_line_num">
<polygon fill="none" stroke="#000000" points="228,-28.5 228,-47.5 305,-47.5 305,-28.5 228,-28.5"/>
<text text-anchor="middle" x="266.5" y="-35.5" font-family="Helvetica,sans-Serif" font-size="10.00" fill="#000000">find_line_num</text>
</a>
</g>
</g>
<!-- Node143757&#45;&gt;Node143767 -->
<g id="edge14" class="edge">
<title>Node143757&#45;&gt;Node143767</title>
<path fill="none" stroke="#191970" d="M71.8836,-63.717C81.0539,-61.2115 90.8121,-58.796 100,-57 143.4012,-48.5161 193.9612,-43.4086 227.8784,-40.6589"/>
<polygon fill="#191970" stroke="#191970" points="70.891,-60.3604 62.2183,-66.446 72.7931,-67.097 70.891,-60.3604"/>
</g>
<!-- Node144346 -->
<g id="node13" class="node">
<title>Node144346</title>
<g id="a_node13"><a xlink:href="quickjs_8c.html#a408b3a08f717d04623662251b8953e37" target="_top" xlink:title="get_sleb128">
<polygon fill="none" stroke="#000000" points="105.5,-66.5 105.5,-85.5 174.5,-85.5 174.5,-66.5 105.5,-66.5"/>
<text text-anchor="middle" x="140" y="-73.5" font-family="Helvetica,sans-Serif" font-size="10.00" fill="#000000">get_sleb128</text>
</a>
</g>
</g>
<!-- Node143757&#45;&gt;Node144346 -->
<g id="edge20" class="edge">
<title>Node143757&#45;&gt;Node144346</title>
<path fill="none" stroke="#191970" d="M74.1301,-76C84.4093,-76 95.2922,-76 105.1871,-76"/>
<polygon fill="#191970" stroke="#191970" points="74.1112,-72.5001 64.1112,-76 74.1111,-79.5001 74.1112,-72.5001"/>
</g>
<!-- Node143759 -->
<g id="node3" class="node">
<title>Node143759</title>
<g id="a_node3"><a xlink:href="quickjs_8c.html#aa592b98c1f5b7d41c8384c03b642b7ad" target="_top" xlink:title="bc_get_leb128_int">
<polygon fill="none" stroke="#000000" points="219,-142.5 219,-161.5 314,-161.5 314,-142.5 219,-142.5"/>
<text text-anchor="middle" x="266.5" y="-149.5" font-family="Helvetica,sans-Serif" font-size="10.00" fill="#000000">bc_get_leb128_int</text>
</a>
</g>
</g>
<!-- Node143758&#45;&gt;Node143759 -->
<g id="edge2" class="edge">
<title>Node143758&#45;&gt;Node143759</title>
<path fill="none" stroke="#191970" d="M181.7294,-177.4647C198.9382,-172.2952 218.5601,-166.4009 234.5889,-161.5859"/>
<polygon fill="#191970" stroke="#191970" points="180.4916,-174.1819 171.9213,-180.411 182.5055,-180.886 180.4916,-174.1819"/>
</g>
<!-- Node143760 -->
<g id="node4" class="node">
<title>Node143760</title>
<g id="a_node4"><a xlink:href="quickjs_8c.html#a4b8ef2bb3b35e4a5f6ed8bd837a50e7c" target="_top" xlink:title="JS_ReadObjectRec">
<polygon fill="none" stroke="#ff0000" points="358,-161.5 358,-180.5 462,-180.5 462,-161.5 358,-161.5"/>
<text text-anchor="middle" x="410" y="-168.5" font-family="Helvetica,sans-Serif" font-size="10.00" fill="#000000">JS_ReadObjectRec</text>
</a>
</g>
</g>
<!-- Node143758&#45;&gt;Node143760 -->
<g id="edge12" class="edge">
<title>Node143758&#45;&gt;Node143760</title>
<path fill="none" stroke="#191970" d="M156.0946,-172.928C170.3335,-159.1621 192.4566,-140.8478 216,-133 258.5853,-118.8049 272.9528,-124.3483 317,-133 344.5546,-138.4122 374.2343,-152.0468 392.4677,-161.4208"/>
<polygon fill="#191970" stroke="#191970" points="153.24,-170.835 148.671,-180.394 158.2038,-175.7707 153.24,-170.835"/>
</g>
<!-- Node143763 -->
<g id="node5" class="node">
<title>Node143763</title>
<g id="a_node5"><a xlink:href="quickjs_8c.html#ab3a28d4aac1f193d1d135b37b407a07b" target="_top" xlink:title="bc_get_leb128_u16">
<polygon fill="none" stroke="#000000" points="216,-218.5 216,-237.5 317,-237.5 317,-218.5 216,-218.5"/>
<text text-anchor="middle" x="266.5" y="-225.5" font-family="Helvetica,sans-Serif" font-size="10.00" fill="#000000">bc_get_leb128_u16</text>
</a>
</g>
</g>
<!-- Node143758&#45;&gt;Node143763 -->
<g id="edge5" class="edge">
<title>Node143758&#45;&gt;Node143763</title>
<path fill="none" stroke="#191970" d="M181.7294,-202.5353C198.9382,-207.7048 218.5601,-213.5991 234.5889,-218.4141"/>
<polygon fill="#191970" stroke="#191970" points="182.5055,-199.114 171.9213,-199.589 180.4916,-205.8181 182.5055,-199.114"/>
</g>
<!-- Node143764 -->
<g id="node6" class="node">
<title>Node143764</title>
<g id="a_node6"><a xlink:href="quickjs_8c.html#a267b1caf06e54dfdf809cd51602400b4" target="_top" xlink:title="bc_get_atom">
<polygon fill="none" stroke="#000000" points="230,-180.5 230,-199.5 303,-199.5 303,-180.5 230,-180.5"/>
<text text-anchor="middle" x="266.5" y="-187.5" font-family="Helvetica,sans-Serif" font-size="10.00" fill="#000000">bc_get_atom</text>
</a>
</g>
</g>
<!-- Node143758&#45;&gt;Node143764 -->
<g id="edge7" class="edge">
<title>Node143758&#45;&gt;Node143764</title>
<path fill="none" stroke="#191970" d="M190.361,-190C203.5137,-190 217.4428,-190 229.741,-190"/>
<polygon fill="#191970" stroke="#191970" points="190.0254,-186.5001 180.0254,-190 190.0254,-193.5001 190.0254,-186.5001"/>
</g>
<!-- Node143765 -->
<g id="node7" class="node">
<title>Node143765</title>
<g id="a_node7"><a xlink:href="quickjs_8c.html#a73a002c998fe7508eae9aa069fac802b" target="_top" xlink:title="JS_ReadString">
<polygon fill="none" stroke="#000000" points="225,-256.5 225,-275.5 308,-275.5 308,-256.5 225,-256.5"/>
<text text-anchor="middle" x="266.5" y="-263.5" font-family="Helvetica,sans-Serif" font-size="10.00" fill="#000000">JS_ReadString</text>
</a>
</g>
</g>
<!-- Node143758&#45;&gt;Node143765 -->
<g id="edge9" class="edge">
<title>Node143758&#45;&gt;Node143765</title>
<path fill="none" stroke="#191970" d="M158.5096,-206.2533C173.2998,-218.6355 194.9664,-235.4634 216,-247 222.4883,-250.5587 229.7813,-253.7305 236.7643,-256.4151"/>
<polygon fill="#191970" stroke="#191970" points="160.5319,-203.378 150.6527,-199.5502 155.9886,-208.7033 160.5319,-203.378"/>
</g>
<!-- Node143766 -->
<g id="node8" class="node">
<title>Node143766</title>
<g id="a_node8"><a xlink:href="quickjs_8c.html#ad54b242d774ba44b2ac39fe8161aaf9c" target="_top" xlink:title="JS_ReadObjectAtoms">
<polygon fill="none" stroke="#ff0000" points="353,-275.5 353,-294.5 467,-294.5 467,-275.5 353,-275.5"/>
<text text-anchor="middle" x="410" y="-282.5" font-family="Helvetica,sans-Serif" font-size="10.00" fill="#000000">JS_ReadObjectAtoms</text>
</a>
</g>
</g>
<!-- Node143758&#45;&gt;Node143766 -->
<g id="edge13" class="edge">
<title>Node143758&#45;&gt;Node143766</title>
<path fill="none" stroke="#191970" d="M148.5058,-208.6994C160.0769,-231.5801 183.166,-269.2192 216,-285 265.1774,-308.6359 329.8022,-302.3576 370.6307,-294.5602"/>
<polygon fill="#191970" stroke="#191970" points="151.6282,-207.1163 144.1313,-199.6299 145.3232,-210.1574 151.6282,-207.1163"/>
</g>
<!-- Node143759&#45;&gt;Node143760 -->
<g id="edge3" class="edge">
<title>Node143759&#45;&gt;Node143760</title>
<path fill="none" stroke="#191970" d="M324.3388,-159.6581C335.4652,-161.1313 347.0557,-162.6659 357.984,-164.1129"/>
<polygon fill="#191970" stroke="#191970" points="324.6563,-156.1697 314.2834,-158.3267 323.7375,-163.1091 324.6563,-156.1697"/>
</g>
<!-- Node143760&#45;&gt;Node143760 -->
<g id="edge4" class="edge">
<title>Node143760&#45;&gt;Node143760</title>
<path fill="none" stroke="#191970" d="M383.4941,-189.6539C384.6021,-194.9368 393.4374,-199 410,-199 435.2383,-199 442.5337,-189.5653 431.8863,-180.7571"/>
<polygon fill="#191970" stroke="#191970" points="386.6117,-191.2449 388.1137,-180.7571 380.3992,-188.0192 386.6117,-191.2449"/>
</g>
<!-- Node143763&#45;&gt;Node143760 -->
<g id="edge6" class="edge">
<title>Node143763&#45;&gt;Node143760</title>
<path fill="none" stroke="#191970" d="M301.849,-214.8443C306.9418,-212.9072 312.1112,-210.918 317,-209 341.0304,-199.5721 368.3589,-188.3446 387.1404,-180.5492"/>
<polygon fill="#191970" stroke="#191970" points="300.3617,-211.6647 292.244,-218.4731 302.8357,-218.213 300.3617,-211.6647"/>
</g>
<!-- Node143764&#45;&gt;Node143760 -->
<g id="edge8" class="edge">
<title>Node143764&#45;&gt;Node143760</title>
<path fill="none" stroke="#191970" d="M313.1573,-183.8224C327.4131,-181.9349 343.1809,-179.8471 357.7809,-177.914"/>
<polygon fill="#191970" stroke="#191970" points="312.5365,-180.3739 303.0824,-185.1563 313.4553,-187.3134 312.5365,-180.3739"/>
</g>
<!-- Node143765&#45;&gt;Node143760 -->
<g id="edge10" class="edge">
<title>Node143765&#45;&gt;Node143760</title>
<path fill="none" stroke="#191970" d="M306.1918,-252.4956C309.9217,-250.8035 313.5818,-248.9685 317,-247 350.6089,-227.6451 384.4739,-196.2954 400.481,-180.5982"/>
<polygon fill="#191970" stroke="#191970" points="304.7433,-249.3077 296.8745,-256.4023 307.4501,-255.7632 304.7433,-249.3077"/>
</g>
<!-- Node143765&#45;&gt;Node143766 -->
<g id="edge11" class="edge">
<title>Node143765&#45;&gt;Node143766</title>
<path fill="none" stroke="#191970" d="M318.116,-272.8342C329.3839,-274.3261 341.3727,-275.9135 352.8421,-277.432"/>
<polygon fill="#191970" stroke="#191970" points="318.3791,-269.3385 308.0061,-271.4956 317.4602,-276.278 318.3791,-269.3385"/>
</g>
<!-- Node143768 -->
<g id="node10" class="node">
<title>Node143768</title>
<g id="a_node10"><a xlink:href="quickjs_8c.html#a80b89f140c8e343469b5c98482a4310d" target="_top" xlink:title="build_backtrace">
<polygon fill="none" stroke="#000000" points="367.5,-28.5 367.5,-47.5 452.5,-47.5 452.5,-28.5 367.5,-28.5"/>
<text text-anchor="middle" x="410" y="-35.5" font-family="Helvetica,sans-Serif" font-size="10.00" fill="#000000">build_backtrace</text>
</a>
</g>
</g>
<!-- Node143767&#45;&gt;Node143768 -->
<g id="edge15" class="edge">
<title>Node143767&#45;&gt;Node143768</title>
<path fill="none" stroke="#191970" d="M315.5364,-38C332.3708,-38 351.0653,-38 367.3512,-38"/>
<polygon fill="#191970" stroke="#191970" points="315.3332,-34.5001 305.3332,-38 315.3331,-41.5001 315.3332,-34.5001"/>
</g>
<!-- Node143769 -->
<g id="node11" class="node">
<title>Node143769</title>
<g id="a_node11"><a xlink:href="quickjs_8c.html#ac2894ff4edcdb4e6841bcce9c76081e3" target="_top" xlink:title="JS_CallInternal">
<polygon fill="none" stroke="#ff0000" points="517.5,-56.5 517.5,-75.5 600.5,-75.5 600.5,-56.5 517.5,-56.5"/>
<text text-anchor="middle" x="559" y="-63.5" font-family="Helvetica,sans-Serif" font-size="10.00" fill="#000000">JS_CallInternal</text>
</a>
</g>
</g>
<!-- Node143768&#45;&gt;Node143769 -->
<g id="edge16" class="edge">
<title>Node143768&#45;&gt;Node143769</title>
<path fill="none" stroke="#191970" d="M462.7143,-47.906C480.6316,-51.273 500.3921,-54.9864 517.3249,-58.1684"/>
<polygon fill="#191970" stroke="#191970" points="463.1718,-44.4308 452.6974,-46.0237 461.879,-51.3104 463.1718,-44.4308"/>
</g>
<!-- Node143943 -->
<g id="node12" class="node">
<title>Node143943</title>
<g id="a_node12"><a xlink:href="quickjs_8c.html#acdcc62310b4f6f73fa7bc7267b18b1d4" target="_top" xlink:title="js_parse_postfix_expr">
<polygon fill="none" stroke="#ff0000" points="503,-.5 503,-19.5 615,-19.5 615,-.5 503,-.5"/>
<text text-anchor="middle" x="559" y="-7.5" font-family="Helvetica,sans-Serif" font-size="10.00" fill="#000000">js_parse_postfix_expr</text>
</a>
</g>
</g>
<!-- Node143768&#45;&gt;Node143943 -->
<g id="edge18" class="edge">
<title>Node143768&#45;&gt;Node143943</title>
<path fill="none" stroke="#191970" d="M462.7355,-28.09C477.5733,-25.3017 493.6739,-22.2761 508.3849,-19.5116"/>
<polygon fill="#191970" stroke="#191970" points="461.879,-24.6896 452.6974,-29.9763 463.1718,-31.5692 461.879,-24.6896"/>
</g>
<!-- Node143769&#45;&gt;Node143769 -->
<g id="edge17" class="edge">
<title>Node143769&#45;&gt;Node143769</title>
<path fill="none" stroke="#191970" d="M531.3742,-84.6539C532.5289,-89.9368 541.7375,-94 559,-94 585.3047,-94 592.9084,-84.5653 581.8111,-75.7571"/>
<polygon fill="#191970" stroke="#191970" points="534.5076,-86.2176 536.1889,-75.7571 528.3512,-82.886 534.5076,-86.2176"/>
</g>
<!-- Node143943&#45;&gt;Node143943 -->
<g id="edge19" class="edge">
<title>Node143943&#45;&gt;Node143943</title>
<path fill="none" stroke="#191970" d="M531.3742,-28.6539C532.5289,-33.9368 541.7375,-38 559,-38 585.3047,-38 592.9084,-28.5653 581.8111,-19.7571"/>
<polygon fill="#191970" stroke="#191970" points="534.5076,-30.2176 536.1889,-19.7571 528.3512,-26.886 534.5076,-30.2176"/>
</g>
<!-- Node144346&#45;&gt;Node143767 -->
<g id="edge21" class="edge">
<title>Node144346&#45;&gt;Node143767</title>
<path fill="none" stroke="#191970" d="M181.7294,-63.4647C198.9382,-58.2952 218.5601,-52.4009 234.5889,-47.5859"/>
<polygon fill="#191970" stroke="#191970" points="180.4916,-60.1819 171.9213,-66.411 182.5055,-66.886 180.4916,-60.1819"/>
</g>
<!-- Node144347 -->
<g id="node14" class="node">
<title>Node144347</title>
<g id="a_node14"><a xlink:href="quickjs_8c.html#acd5d73f58a821266896a76426d7c110e" target="_top" xlink:title="bc_get_sleb128">
<polygon fill="none" stroke="#000000" points="224,-66.5 224,-85.5 309,-85.5 309,-66.5 224,-66.5"/>
<text text-anchor="middle" x="266.5" y="-73.5" font-family="Helvetica,sans-Serif" font-size="10.00" fill="#000000">bc_get_sleb128</text>
</a>
</g>
</g>
<!-- Node144346&#45;&gt;Node144347 -->
<g id="edge22" class="edge">
<title>Node144346&#45;&gt;Node144347</title>
<path fill="none" stroke="#191970" d="M184.9052,-76C197.5737,-76 211.3171,-76 223.8492,-76"/>
<polygon fill="#191970" stroke="#191970" points="184.5667,-72.5001 174.5667,-76 184.5666,-79.5001 184.5667,-72.5001"/>
</g>
<!-- Node144347&#45;&gt;Node143760 -->
<g id="edge23" class="edge">
<title>Node144347&#45;&gt;Node143760</title>
<path fill="none" stroke="#191970" d="M298.2254,-89.8331C304.5722,-92.9444 311.0985,-96.3992 317,-100 348.5594,-119.256 382.2505,-147.018 399.0911,-161.459"/>
<polygon fill="#191970" stroke="#191970" points="299.6855,-86.652 289.1488,-85.5434 296.6944,-92.9808 299.6855,-86.652"/>
</g>
</g>
</svg>
        <g id="navigator" transform="translate(0 0)" fill="#404254">
                <rect fill="#f2f5e9" fill-opacity="0.5" stroke="#606060" stroke-width=".5" x="0" y="0" width="60" height="60"/>
                <use id="zoomplus" xlink:href="#zoomPlus" x="17" y="9" onmousedown="handleZoom(evt,'in')"/>
                <use id="zoomminus" xlink:href="#zoomMin" x="42" y="9" onmousedown="handleZoom(evt,'out')"/>
                <use id="reset" xlink:href="#resetDef" x="30" y="36" onmousedown="handleReset()"/>
                <g id="arrowUp" xlink:href="#dirArrow" transform="translate(30 24)" onmousedown="handlePan(0,-1)">
                  <use xlink:href="#rim" fill="#404040">
                        <set attributeName="fill" to="#808080" begin="arrowUp.mouseover" end="arrowUp.mouseout"/>
                  </use>
                  <path fill="none" stroke="white" stroke-width="1.5" d="M0,-3.0v7 M-2.5,-0.5L0,-3.0L2.5,-0.5"/>
                </g>
                <g id="arrowRight" xlink:href="#dirArrow" transform="rotate(90) translate(36 -43)" onmousedown="handlePan(1,0)">
                  <use xlink:href="#rim" fill="#404040">
                        <set attributeName="fill" to="#808080" begin="arrowRight.mouseover" end="arrowRight.mouseout"/>
                  </use>
                  <path fill="none" stroke="white" stroke-width="1.5" d="M0,-3.0v7 M-2.5,-0.5L0,-3.0L2.5,-0.5"/>
                </g>
                <g id="arrowDown" xlink:href="#dirArrow" transform="rotate(180) translate(-30 -48)" onmousedown="handlePan(0,1)">
                  <use xlink:href="#rim" fill="#404040">
                        <set attributeName="fill" to="#808080" begin="arrowDown.mouseover" end="arrowDown.mouseout"/>
                  </use>
                  <path fill="none" stroke="white" stroke-width="1.5" d="M0,-3.0v7 M-2.5,-0.5L0,-3.0L2.5,-0.5"/>
                </g>
                <g id="arrowLeft" xlink:href="#dirArrow" transform="rotate(270) translate(-36 17)" onmousedown="handlePan(-1,0)">
                  <use xlink:href="#rim" fill="#404040">
                        <set attributeName="fill" to="#808080" begin="arrowLeft.mouseover" end="arrowLeft.mouseout"/>
                  </use>
                  <path fill="none" stroke="white" stroke-width="1.5" d="M0,-3.0v7 M-2.5,-0.5L0,-3.0L2.5,-0.5"/>
                </g>
        </g>
        <svg viewBox="0 0 15 15" width="100%" height="30px" preserveAspectRatio="xMaxYMin meet">
         <g id="arrow_out" transform="scale(0.3 0.3)">
          <a xlink:href="quickjs_8c_a930fdff715d46df68de392095deb7d79_icgraph_org.svg" target="_base">
           <rect id="button" ry="5" rx="5" y="6" x="6" height="38" width="38"
                fill="#f2f5e9" fill-opacity="0.5" stroke="#606060" stroke-width="1.0"/>
           <path id="arrow"
             d="M 11.500037,31.436501 C 11.940474,20.09759 22.043105,11.32322 32.158766,21.979434 L 37.068811,17.246167 C 37.068811,17.246167 37.088388,32 37.088388,32 L 22.160133,31.978069 C 22.160133,31.978069 26.997745,27.140456 26.997745,27.140456 C 18.528582,18.264221 13.291696,25.230495 11.500037,31.436501 z"
             style="fill:#404040;"/>
          </a>
         </g>
        </svg>
</svg>
