<?xml version="1.0" encoding="UTF-8" standalone="no"?>
<!DOCTYPE svg PUBLIC "-//W3C//DTD SVG 1.1//EN"
 "http://www.w3.org/Graphics/SVG/1.1/DTD/svg11.dtd">
<!-- Generated by graphviz version 2.40.1 (20161225.0304)
 -->
<!-- Title: JS_AddIntrinsicJSON Pages: 1 -->
<!--zoomable 256 -->
<svg id="main" version="1.1" xmlns="http://www.w3.org/2000/svg" xmlns:xlink="http://www.w3.org/1999/xlink" xml:space="preserve" onload="init(evt)">
<style type="text/css"><![CDATA[
.edge:hover path { stroke: red; }
.edge:hover polygon { stroke: red; fill: red; }
]]></style>
<script type="text/javascript"><![CDATA[
var edges = document.getElementsByTagName('g');
if (edges && edges.length) {
  for (var i=0;i<edges.length;i++) {
    if (edges[i].id.substr(0,4)=='edge') {
      edges[i].setAttribute('class','edge');
    }
  }
}
]]></script>
        <defs>
                <circle id="rim" cx="0" cy="0" r="7"/>
                <circle id="rim2" cx="0" cy="0" r="3.5"/>
                <g id="zoomPlus">
                        <use xlink:href="#rim" fill="#404040">
                                <set attributeName="fill" to="#808080" begin="zoomplus.mouseover" end="zoomplus.mouseout"/>
                        </use>
                        <path d="M-4,0h8M0,-4v8" fill="none" stroke="white" stroke-width="1.5" pointer-events="none"/>
                </g>
                <g id="zoomMin">
                        <use xlink:href="#rim" fill="#404040">
                                <set attributeName="fill" to="#808080" begin="zoomminus.mouseover" end="zoomminus.mouseout"/>
                        </use>
                        <path d="M-4,0h8" fill="none" stroke="white" stroke-width="1.5" pointer-events="none"/>
                </g>
                <g id="dirArrow">
                        <path fill="none" stroke="white" stroke-width="1.5" d="M0,-3.0v7 M-2.5,-0.5L0,-3.0L2.5,-0.5"/>
                </g>
               <g id="resetDef">
                       <use xlink:href="#rim2" fill="#404040">
                               <set attributeName="fill" to="#808080" begin="reset.mouseover" end="reset.mouseout"/>
                       </use>
               </g>
        </defs>

<script type="text/javascript">
var viewWidth = 782;
var viewHeight = 256;
var sectionId = 'dynsection-1536';
</script>
<script xlink:href="svgpan.js"/>
<svg id="graph" class="graph">
<g id="viewport">
<title>JS_AddIntrinsicJSON</title>
<!-- Node397146 -->
<g id="node1" class="node">
<title>Node397146</title>
<polygon fill="#bfbfbf" stroke="#000000" points="0,-95.5 0,-114.5 113,-114.5 113,-95.5 0,-95.5"/>
<text text-anchor="middle" x="56.5" y="-102.5" font-family="Helvetica,sans-Serif" font-size="10.00" fill="#000000">JS_AddIntrinsicJSON</text>
</g>
<!-- Node397147 -->
<g id="node2" class="node">
<title>Node397147</title>
<g id="a_node2"><a xlink:href="quickjs_8c.html#ac00854b7f1f0f8567af964a2f8f2adb0" target="_top" xlink:title="JS_SetPropertyFunctionList">
<polygon fill="none" stroke="#000000" points="149,-95.5 149,-114.5 288,-114.5 288,-95.5 149,-95.5"/>
<text text-anchor="middle" x="218.5" y="-102.5" font-family="Helvetica,sans-Serif" font-size="10.00" fill="#000000">JS_SetPropertyFunctionList</text>
</a>
</g>
</g>
<!-- Node397146&#45;&gt;Node397147 -->
<g id="edge1" class="edge">
<title>Node397146&#45;&gt;Node397147</title>
<path fill="none" stroke="#191970" d="M113.1597,-105C121.4229,-105 130.0586,-105 138.6765,-105"/>
<polygon fill="#191970" stroke="#191970" points="138.7617,-108.5001 148.7617,-105 138.7617,-101.5001 138.7617,-108.5001"/>
</g>
<!-- Node397148 -->
<g id="node3" class="node">
<title>Node397148</title>
<g id="a_node3"><a xlink:href="quickjs_8c.html#ae8e62d181b34d2e7bdda0b099c0880f5" target="_top" xlink:title="find_atom">
<polygon fill="none" stroke="#000000" points="370.5,-190.5 370.5,-209.5 429.5,-209.5 429.5,-190.5 370.5,-190.5"/>
<text text-anchor="middle" x="400" y="-197.5" font-family="Helvetica,sans-Serif" font-size="10.00" fill="#000000">find_atom</text>
</a>
</g>
</g>
<!-- Node397147&#45;&gt;Node397148 -->
<g id="edge2" class="edge">
<title>Node397147&#45;&gt;Node397148</title>
<path fill="none" stroke="#191970" d="M236.902,-114.6319C268.9183,-131.3897 335.0263,-165.9917 372.5029,-185.6076"/>
<polygon fill="#191970" stroke="#191970" points="371.3363,-188.9474 381.8191,-190.4838 374.5825,-182.7455 371.3363,-188.9474"/>
</g>
<!-- Node397201 -->
<g id="node7" class="node">
<title>Node397201</title>
<g id="a_node7"><a xlink:href="quickjs_8c.html#a890d1a6c1f9caba99361758df8cacb2c" target="_top" xlink:title="JS_DefineAutoInitProperty">
<polygon fill="none" stroke="#000000" points="333.5,-114.5 333.5,-133.5 466.5,-133.5 466.5,-114.5 333.5,-114.5"/>
<text text-anchor="middle" x="400" y="-121.5" font-family="Helvetica,sans-Serif" font-size="10.00" fill="#000000">JS_DefineAutoInitProperty</text>
</a>
</g>
</g>
<!-- Node397147&#45;&gt;Node397201 -->
<g id="edge6" class="edge">
<title>Node397147&#45;&gt;Node397201</title>
<path fill="none" stroke="#191970" d="M288.1536,-112.2916C299.5969,-113.4895 311.5139,-114.737 323.1209,-115.9521"/>
<polygon fill="#191970" stroke="#191970" points="322.9114,-119.4492 333.2215,-117.0094 323.6403,-112.4872 322.9114,-119.4492"/>
</g>
<!-- Node397241 -->
<g id="node10" class="node">
<title>Node397241</title>
<g id="a_node10"><a xlink:href="quickjs_8c.html#ab7fc45a99935a1c0ba50b0216d9401a9" target="_top" xlink:title="JS_FreeAtom">
<polygon fill="none" stroke="#000000" points="361.5,-76.5 361.5,-95.5 438.5,-95.5 438.5,-76.5 361.5,-76.5"/>
<text text-anchor="middle" x="400" y="-83.5" font-family="Helvetica,sans-Serif" font-size="10.00" fill="#000000">JS_FreeAtom</text>
</a>
</g>
</g>
<!-- Node397147&#45;&gt;Node397241 -->
<g id="edge9" class="edge">
<title>Node397147&#45;&gt;Node397241</title>
<path fill="none" stroke="#191970" d="M288.1536,-97.7084C309.2536,-95.4996 331.9644,-93.1222 351.3722,-91.0905"/>
<polygon fill="#191970" stroke="#191970" points="351.9065,-94.5538 361.4877,-90.0316 351.1776,-87.5918 351.9065,-94.5538"/>
</g>
<!-- Node397242 -->
<g id="node12" class="node">
<title>Node397242</title>
<g id="a_node12"><a xlink:href="quickjs_8c.html#a3c828325cf92db0706f570c1d2bcb935" target="_top" xlink:title="JS_InstantiateFunctionListItem">
<polygon fill="none" stroke="#000000" points="324,-19.5 324,-38.5 476,-38.5 476,-19.5 324,-19.5"/>
<text text-anchor="middle" x="400" y="-26.5" font-family="Helvetica,sans-Serif" font-size="10.00" fill="#000000">JS_InstantiateFunctionListItem</text>
</a>
</g>
</g>
<!-- Node397147&#45;&gt;Node397242 -->
<g id="edge12" class="edge">
<title>Node397147&#45;&gt;Node397242</title>
<path fill="none" stroke="#191970" d="M241.4871,-95.3745C273.3992,-82.0119 331.2844,-57.7735 367.5757,-42.5771"/>
<polygon fill="#191970" stroke="#191970" points="369.3274,-45.6381 377.1995,-38.5473 366.6237,-39.1813 369.3274,-45.6381"/>
</g>
<!-- Node397149 -->
<g id="node4" class="node">
<title>Node397149</title>
<g id="a_node4"><a xlink:href="quickjs_8c.html#abbf44eaeace1104a6bef718fbf5700fe" target="_top" xlink:title="JS_DupAtom">
<polygon fill="none" stroke="#000000" points="536.5,-228.5 536.5,-247.5 611.5,-247.5 611.5,-228.5 536.5,-228.5"/>
<text text-anchor="middle" x="574" y="-235.5" font-family="Helvetica,sans-Serif" font-size="10.00" fill="#000000">JS_DupAtom</text>
</a>
</g>
</g>
<!-- Node397148&#45;&gt;Node397149 -->
<g id="edge3" class="edge">
<title>Node397148&#45;&gt;Node397149</title>
<path fill="none" stroke="#191970" d="M429.5167,-206.4462C455.9986,-212.2296 495.3422,-220.8219 526.2895,-227.5805"/>
<polygon fill="#191970" stroke="#191970" points="525.9155,-231.0812 536.4321,-229.7955 527.4091,-224.2424 525.9155,-231.0812"/>
</g>
<!-- Node397151 -->
<g id="node6" class="node">
<title>Node397151</title>
<g id="a_node6"><a xlink:href="quickjs_8c.html#aa2ef5af1544a3012f91a80c98c326b8f" target="_top" xlink:title="JS_NewAtom">
<polygon fill="none" stroke="#ff0000" points="535.5,-190.5 535.5,-209.5 612.5,-209.5 612.5,-190.5 535.5,-190.5"/>
<text text-anchor="middle" x="574" y="-197.5" font-family="Helvetica,sans-Serif" font-size="10.00" fill="#000000">JS_NewAtom</text>
</a>
</g>
</g>
<!-- Node397148&#45;&gt;Node397151 -->
<g id="edge5" class="edge">
<title>Node397148&#45;&gt;Node397151</title>
<path fill="none" stroke="#191970" d="M429.5167,-200C455.7373,-200 494.5669,-200 525.3708,-200"/>
<polygon fill="#191970" stroke="#191970" points="525.4799,-203.5001 535.4799,-200 525.4799,-196.5001 525.4799,-203.5001"/>
</g>
<!-- Node397150 -->
<g id="node5" class="node">
<title>Node397150</title>
<g id="a_node5"><a xlink:href="quickjs_8c.html#a7f6796ee7a195631366f57c713a33f65" target="_top" xlink:title="__JS_AtomIsConst">
<polygon fill="none" stroke="#000000" points="672,-152.5 672,-171.5 774,-171.5 774,-152.5 672,-152.5"/>
<text text-anchor="middle" x="723" y="-159.5" font-family="Helvetica,sans-Serif" font-size="10.00" fill="#000000">__JS_AtomIsConst</text>
</a>
</g>
</g>
<!-- Node397149&#45;&gt;Node397150 -->
<g id="edge4" class="edge">
<title>Node397149&#45;&gt;Node397150</title>
<path fill="none" stroke="#191970" d="M611.363,-228.4195C619.643,-225.7851 628.2541,-222.6342 636,-219 660.2223,-207.6355 685.5505,-190.3312 702.5898,-177.7701"/>
<polygon fill="#191970" stroke="#191970" points="704.7955,-180.4908 710.695,-171.6904 700.5951,-174.8911 704.7955,-180.4908"/>
</g>
<!-- Node397202 -->
<g id="node8" class="node">
<title>Node397202</title>
<g id="a_node8"><a xlink:href="quickjs_8c.html#a74547db03bf739a52c83a326b32db997" target="_top" xlink:title="add_property">
<polygon fill="none" stroke="#ff0000" points="537.5,-152.5 537.5,-171.5 610.5,-171.5 610.5,-152.5 537.5,-152.5"/>
<text text-anchor="middle" x="574" y="-159.5" font-family="Helvetica,sans-Serif" font-size="10.00" fill="#000000">add_property</text>
</a>
</g>
</g>
<!-- Node397201&#45;&gt;Node397202 -->
<g id="edge7" class="edge">
<title>Node397201&#45;&gt;Node397202</title>
<path fill="none" stroke="#191970" d="M443.9075,-133.589C469.4155,-139.1597 501.5354,-146.1744 527.4769,-151.8398"/>
<polygon fill="#191970" stroke="#191970" points="526.9345,-155.3037 537.451,-154.018 528.4281,-148.4649 526.9345,-155.3037"/>
</g>
<!-- Node397240 -->
<g id="node9" class="node">
<title>Node397240</title>
<g id="a_node9"><a xlink:href="quickjs_8c.html#a06b76f5124fd985e35f4c652fd018d6d" target="_top" xlink:title="find_own_property">
<polygon fill="none" stroke="#ff0000" points="526,-114.5 526,-133.5 622,-133.5 622,-114.5 526,-114.5"/>
<text text-anchor="middle" x="574" y="-121.5" font-family="Helvetica,sans-Serif" font-size="10.00" fill="#000000">find_own_property</text>
</a>
</g>
</g>
<!-- Node397201&#45;&gt;Node397240 -->
<g id="edge8" class="edge">
<title>Node397201&#45;&gt;Node397240</title>
<path fill="none" stroke="#191970" d="M466.7753,-124C482.8918,-124 499.9885,-124 515.683,-124"/>
<polygon fill="#191970" stroke="#191970" points="515.7696,-127.5001 525.7696,-124 515.7695,-120.5001 515.7696,-127.5001"/>
</g>
<!-- Node397241&#45;&gt;Node397150 -->
<g id="edge10" class="edge">
<title>Node397241&#45;&gt;Node397150</title>
<path fill="none" stroke="#191970" d="M438.7844,-83.3562C486.5457,-81.3899 569.5073,-82.212 636,-105 662.0379,-113.9235 687.9129,-132.4289 704.5877,-145.9418"/>
<polygon fill="#191970" stroke="#191970" points="702.4999,-148.7581 712.421,-152.4759 706.9838,-143.3827 702.4999,-148.7581"/>
</g>
<!-- Node397227 -->
<g id="node11" class="node">
<title>Node397227</title>
<g id="a_node11"><a xlink:href="quickjs_8c.html#a0bbd9e3ecd55e3ea6c9d44bfda382095" target="_top" xlink:title="__JS_FreeAtom">
<polygon fill="none" stroke="#ff0000" points="530.5,-38.5 530.5,-57.5 617.5,-57.5 617.5,-38.5 530.5,-38.5"/>
<text text-anchor="middle" x="574" y="-45.5" font-family="Helvetica,sans-Serif" font-size="10.00" fill="#000000">__JS_FreeAtom</text>
</a>
</g>
</g>
<!-- Node397241&#45;&gt;Node397227 -->
<g id="edge11" class="edge">
<title>Node397241&#45;&gt;Node397227</title>
<path fill="none" stroke="#191970" d="M438.6162,-77.5666C462.6753,-72.3123 493.9728,-65.4772 520.4144,-59.7026"/>
<polygon fill="#191970" stroke="#191970" points="521.2625,-63.1 530.2855,-57.5468 519.769,-56.2611 521.2625,-63.1"/>
</g>
<!-- Node397243 -->
<g id="node13" class="node">
<title>Node397243</title>
<g id="a_node13"><a xlink:href="quickjs_8c.html#a0a8765bd4012467d9139bc24aabcb3ca" target="_top" xlink:title="JS_DefinePropertyValue">
<polygon fill="none" stroke="#ff0000" points="512,-.5 512,-19.5 636,-19.5 636,-.5 512,-.5"/>
<text text-anchor="middle" x="574" y="-7.5" font-family="Helvetica,sans-Serif" font-size="10.00" fill="#000000">JS_DefinePropertyValue</text>
</a>
</g>
</g>
<!-- Node397242&#45;&gt;Node397243 -->
<g id="edge13" class="edge">
<title>Node397242&#45;&gt;Node397243</title>
<path fill="none" stroke="#191970" d="M476.0658,-20.694C484.5825,-19.764 493.2412,-18.8185 501.7085,-17.8939"/>
<polygon fill="#191970" stroke="#191970" points="502.3584,-21.3438 511.9194,-16.7789 501.5985,-14.3852 502.3584,-21.3438"/>
</g>
</g>
</svg>
        <g id="navigator" transform="translate(0 0)" fill="#404254">
                <rect fill="#f2f5e9" fill-opacity="0.5" stroke="#606060" stroke-width=".5" x="0" y="0" width="60" height="60"/>
                <use id="zoomplus" xlink:href="#zoomPlus" x="17" y="9" onmousedown="handleZoom(evt,'in')"/>
                <use id="zoomminus" xlink:href="#zoomMin" x="42" y="9" onmousedown="handleZoom(evt,'out')"/>
                <use id="reset" xlink:href="#resetDef" x="30" y="36" onmousedown="handleReset()"/>
                <g id="arrowUp" xlink:href="#dirArrow" transform="translate(30 24)" onmousedown="handlePan(0,-1)">
                  <use xlink:href="#rim" fill="#404040">
                        <set attributeName="fill" to="#808080" begin="arrowUp.mouseover" end="arrowUp.mouseout"/>
                  </use>
                  <path fill="none" stroke="white" stroke-width="1.5" d="M0,-3.0v7 M-2.5,-0.5L0,-3.0L2.5,-0.5"/>
                </g>
                <g id="arrowRight" xlink:href="#dirArrow" transform="rotate(90) translate(36 -43)" onmousedown="handlePan(1,0)">
                  <use xlink:href="#rim" fill="#404040">
                        <set attributeName="fill" to="#808080" begin="arrowRight.mouseover" end="arrowRight.mouseout"/>
                  </use>
                  <path fill="none" stroke="white" stroke-width="1.5" d="M0,-3.0v7 M-2.5,-0.5L0,-3.0L2.5,-0.5"/>
                </g>
                <g id="arrowDown" xlink:href="#dirArrow" transform="rotate(180) translate(-30 -48)" onmousedown="handlePan(0,1)">
                  <use xlink:href="#rim" fill="#404040">
                        <set attributeName="fill" to="#808080" begin="arrowDown.mouseover" end="arrowDown.mouseout"/>
                  </use>
                  <path fill="none" stroke="white" stroke-width="1.5" d="M0,-3.0v7 M-2.5,-0.5L0,-3.0L2.5,-0.5"/>
                </g>
                <g id="arrowLeft" xlink:href="#dirArrow" transform="rotate(270) translate(-36 17)" onmousedown="handlePan(-1,0)">
                  <use xlink:href="#rim" fill="#404040">
                        <set attributeName="fill" to="#808080" begin="arrowLeft.mouseover" end="arrowLeft.mouseout"/>
                  </use>
                  <path fill="none" stroke="white" stroke-width="1.5" d="M0,-3.0v7 M-2.5,-0.5L0,-3.0L2.5,-0.5"/>
                </g>
        </g>
        <svg viewBox="0 0 15 15" width="100%" height="30px" preserveAspectRatio="xMaxYMin meet">
         <g id="arrow_out" transform="scale(0.3 0.3)">
          <a xlink:href="quickjs_8c_ac43d15fc0b5d1b90ae3c92779ab12725_cgraph_org.svg" target="_base">
           <rect id="button" ry="5" rx="5" y="6" x="6" height="38" width="38"
                fill="#f2f5e9" fill-opacity="0.5" stroke="#606060" stroke-width="1.0"/>
           <path id="arrow"
             d="M 11.500037,31.436501 C 11.940474,20.09759 22.043105,11.32322 32.158766,21.979434 L 37.068811,17.246167 C 37.068811,17.246167 37.088388,32 37.088388,32 L 22.160133,31.978069 C 22.160133,31.978069 26.997745,27.140456 26.997745,27.140456 C 18.528582,18.264221 13.291696,25.230495 11.500037,31.436501 z"
             style="fill:#404040;"/>
          </a>
         </g>
        </svg>
</svg>
