<?xml version="1.0" encoding="UTF-8" standalone="no"?>
<!DOCTYPE svg PUBLIC "-//W3C//DTD SVG 1.1//EN"
 "http://www.w3.org/Graphics/SVG/1.1/DTD/svg11.dtd">
<!-- Generated by graphviz version 2.40.1 (20161225.0304)
 -->
<!-- Title: js_os_isatty Pages: 1 -->
<svg width="444pt" height="142pt"
 viewBox="0.00 0.00 444.00 142.00" xmlns="http://www.w3.org/2000/svg" xmlns:xlink="http://www.w3.org/1999/xlink">
<g id="graph0" class="graph" transform="scale(1 1) rotate(0) translate(4 138)">
<title>js_os_isatty</title>
<!-- Node18828 -->
<g id="node1" class="node">
<title>Node18828</title>
<polygon fill="#bfbfbf" stroke="#000000" points="0,-57.5 0,-76.5 69,-76.5 69,-57.5 0,-57.5"/>
<text text-anchor="middle" x="34.5" y="-64.5" font-family="Helvetica,sans-Serif" font-size="10.00" fill="#000000">js_os_isatty</text>
</g>
<!-- Node18829 -->
<g id="node2" class="node">
<title>Node18829</title>
<g id="a_node2"><a xlink:href="quickjs_8h.html#a93abffa925714e249a6aa2f4ae7900f6" target="_top" xlink:title="JS_NewBool">
<polygon fill="none" stroke="#000000" points="105,-76.5 105,-95.5 179,-95.5 179,-76.5 105,-76.5"/>
<text text-anchor="middle" x="142" y="-83.5" font-family="Helvetica,sans-Serif" font-size="10.00" fill="#000000">JS_NewBool</text>
</a>
</g>
</g>
<!-- Node18828&#45;&gt;Node18829 -->
<g id="edge1" class="edge">
<title>Node18828&#45;&gt;Node18829</title>
<path fill="none" stroke="#191970" d="M69.1054,-73.1163C77.3109,-74.5666 86.2011,-76.1379 94.8591,-77.6681"/>
<polygon fill="#191970" stroke="#191970" points="94.4046,-81.142 104.8611,-79.4359 95.6229,-74.2488 94.4046,-81.142"/>
</g>
<!-- Node18830 -->
<g id="node3" class="node">
<title>Node18830</title>
<g id="a_node3"><a xlink:href="quickjs_8c.html#a4073bd2b4f247bf6077cd956759193b9" target="_top" xlink:title="JS_ToInt32">
<polygon fill="none" stroke="#000000" points="108.5,-38.5 108.5,-57.5 175.5,-57.5 175.5,-38.5 108.5,-38.5"/>
<text text-anchor="middle" x="142" y="-45.5" font-family="Helvetica,sans-Serif" font-size="10.00" fill="#000000">JS_ToInt32</text>
</a>
</g>
</g>
<!-- Node18828&#45;&gt;Node18830 -->
<g id="edge2" class="edge">
<title>Node18828&#45;&gt;Node18830</title>
<path fill="none" stroke="#191970" d="M69.1054,-60.8837C78.3985,-59.2412 88.5698,-57.4435 98.2873,-55.726"/>
<polygon fill="#191970" stroke="#191970" points="98.9556,-59.1622 108.1938,-53.9751 97.7372,-52.269 98.9556,-59.1622"/>
</g>
<!-- Node18831 -->
<g id="node4" class="node">
<title>Node18831</title>
<g id="a_node4"><a xlink:href="quickjs_8c.html#a643088ab23784b7f3c6ff94c37228256" target="_top" xlink:title="JS_ToInt32Free">
<polygon fill="none" stroke="#000000" points="215,-57.5 215,-76.5 301,-76.5 301,-57.5 215,-57.5"/>
<text text-anchor="middle" x="258" y="-64.5" font-family="Helvetica,sans-Serif" font-size="10.00" fill="#000000">JS_ToInt32Free</text>
</a>
</g>
</g>
<!-- Node18830&#45;&gt;Node18831 -->
<g id="edge3" class="edge">
<title>Node18830&#45;&gt;Node18831</title>
<path fill="none" stroke="#191970" d="M175.552,-53.4956C184.5904,-54.976 194.5984,-56.6153 204.4352,-58.2265"/>
<polygon fill="#191970" stroke="#191970" points="204.1422,-61.725 214.5765,-59.8875 205.2737,-54.8171 204.1422,-61.725"/>
</g>
<!-- Node18895 -->
<g id="node9" class="node">
<title>Node18895</title>
<g id="a_node9"><a xlink:href="quickjs_8h.html#a775522f2d084fc8fa0fcb33f390006b4" target="_top" xlink:title="JS_DupValue">
<polygon fill="none" stroke="#000000" points="219.5,-19.5 219.5,-38.5 296.5,-38.5 296.5,-19.5 219.5,-19.5"/>
<text text-anchor="middle" x="258" y="-26.5" font-family="Helvetica,sans-Serif" font-size="10.00" fill="#000000">JS_DupValue</text>
</a>
</g>
</g>
<!-- Node18830&#45;&gt;Node18895 -->
<g id="edge8" class="edge">
<title>Node18830&#45;&gt;Node18895</title>
<path fill="none" stroke="#191970" d="M175.552,-42.5044C186.0029,-40.7926 197.7501,-38.8685 209.0301,-37.0209"/>
<polygon fill="#191970" stroke="#191970" points="209.9046,-40.4244 219.2074,-35.354 208.7731,-33.5165 209.9046,-40.4244"/>
</g>
<!-- Node18832 -->
<g id="node5" class="node">
<title>Node18832</title>
<g id="a_node5"><a xlink:href="quickjs_8h.html#afaa20c47565bc704c6c85f3d77254e7d" target="_top" xlink:title="JS_FreeValue">
<polygon fill="none" stroke="#ff0000" points="347.5,-114.5 347.5,-133.5 425.5,-133.5 425.5,-114.5 347.5,-114.5"/>
<text text-anchor="middle" x="386.5" y="-121.5" font-family="Helvetica,sans-Serif" font-size="10.00" fill="#000000">JS_FreeValue</text>
</a>
</g>
</g>
<!-- Node18831&#45;&gt;Node18832 -->
<g id="edge4" class="edge">
<title>Node18831&#45;&gt;Node18832</title>
<path fill="none" stroke="#191970" d="M276.9545,-76.6569C292.833,-84.6157 316.1792,-96.0144 337,-105 341.4661,-106.9274 346.1977,-108.8687 350.8947,-110.736"/>
<polygon fill="#191970" stroke="#191970" points="349.8031,-114.067 360.3914,-114.4369 352.3448,-107.5447 349.8031,-114.067"/>
</g>
<!-- Node18861 -->
<g id="node6" class="node">
<title>Node18861</title>
<g id="a_node6"><a xlink:href="quickjs_8c.html#aaaa960ff4bdf4b4dd3017b555844c397" target="_top" xlink:title="is_bigint_mode">
<polygon fill="none" stroke="#000000" points="345.5,-76.5 345.5,-95.5 427.5,-95.5 427.5,-76.5 345.5,-76.5"/>
<text text-anchor="middle" x="386.5" y="-83.5" font-family="Helvetica,sans-Serif" font-size="10.00" fill="#000000">is_bigint_mode</text>
</a>
</g>
</g>
<!-- Node18831&#45;&gt;Node18861 -->
<g id="edge5" class="edge">
<title>Node18831&#45;&gt;Node18861</title>
<path fill="none" stroke="#191970" d="M301.1461,-73.3796C312.0874,-74.9974 323.9472,-76.7509 335.2472,-78.4218"/>
<polygon fill="#191970" stroke="#191970" points="335.0205,-81.9262 345.4249,-79.9266 336.0445,-75.0015 335.0205,-81.9262"/>
</g>
<!-- Node18862 -->
<g id="node7" class="node">
<title>Node18862</title>
<g id="a_node7"><a xlink:href="quickjs_8c.html#ae738291483438efefca5c9fa4d269504" target="_top" xlink:title="JS_ToNumberFree">
<polygon fill="none" stroke="#ff0000" points="337,-38.5 337,-57.5 436,-57.5 436,-38.5 337,-38.5"/>
<text text-anchor="middle" x="386.5" y="-45.5" font-family="Helvetica,sans-Serif" font-size="10.00" fill="#000000">JS_ToNumberFree</text>
</a>
</g>
</g>
<!-- Node18831&#45;&gt;Node18862 -->
<g id="edge6" class="edge">
<title>Node18831&#45;&gt;Node18862</title>
<path fill="none" stroke="#191970" d="M301.1461,-60.6204C309.3213,-59.4116 318.0093,-58.127 326.5934,-56.8578"/>
<polygon fill="#191970" stroke="#191970" points="327.2053,-60.3055 336.5858,-55.3803 326.1813,-53.3807 327.2053,-60.3055"/>
</g>
<!-- Node18907 -->
<g id="node8" class="node">
<title>Node18907</title>
<g id="a_node8"><a xlink:href="quickjs_8h.html#ad80a83d73e9b7d872b88fbf2943aebe9" target="_top" xlink:title="JS_IsException">
<polygon fill="none" stroke="#000000" points="343.5,-.5 343.5,-19.5 429.5,-19.5 429.5,-.5 343.5,-.5"/>
<text text-anchor="middle" x="386.5" y="-7.5" font-family="Helvetica,sans-Serif" font-size="10.00" fill="#000000">JS_IsException</text>
</a>
</g>
</g>
<!-- Node18831&#45;&gt;Node18907 -->
<g id="edge7" class="edge">
<title>Node18831&#45;&gt;Node18907</title>
<path fill="none" stroke="#191970" d="M280.4532,-57.4311C287.1111,-54.4991 294.3885,-51.2006 301,-48 317.284,-40.117 320.5257,-36.477 337,-29 341.216,-27.0865 345.686,-25.1915 350.1477,-23.3816"/>
<polygon fill="#191970" stroke="#191970" points="351.7771,-26.5016 359.7994,-19.5811 349.2124,-19.9884 351.7771,-26.5016"/>
</g>
</g>
</svg>
