<?xml version="1.0" encoding="UTF-8" standalone="no"?>
<!DOCTYPE svg PUBLIC "-//W3C//DTD SVG 1.1//EN"
 "http://www.w3.org/Graphics/SVG/1.1/DTD/svg11.dtd">
<!-- Generated by graphviz version 2.40.1 (20161225.0304)
 -->
<!-- Title: JS_GetGlobalVar Pages: 1 -->
<!--zoomable 1043 -->
<svg id="main" version="1.1" xmlns="http://www.w3.org/2000/svg" xmlns:xlink="http://www.w3.org/1999/xlink" xml:space="preserve" onload="init(evt)">
<style type="text/css"><![CDATA[
.edge:hover path { stroke: red; }
.edge:hover polygon { stroke: red; fill: red; }
]]></style>
<script type="text/javascript"><![CDATA[
var edges = document.getElementsByTagName('g');
if (edges && edges.length) {
  for (var i=0;i<edges.length;i++) {
    if (edges[i].id.substr(0,4)=='edge') {
      edges[i].setAttribute('class','edge');
    }
  }
}
]]></script>
        <defs>
                <circle id="rim" cx="0" cy="0" r="7"/>
                <circle id="rim2" cx="0" cy="0" r="3.5"/>
                <g id="zoomPlus">
                        <use xlink:href="#rim" fill="#404040">
                                <set attributeName="fill" to="#808080" begin="zoomplus.mouseover" end="zoomplus.mouseout"/>
                        </use>
                        <path d="M-4,0h8M0,-4v8" fill="none" stroke="white" stroke-width="1.5" pointer-events="none"/>
                </g>
                <g id="zoomMin">
                        <use xlink:href="#rim" fill="#404040">
                                <set attributeName="fill" to="#808080" begin="zoomminus.mouseover" end="zoomminus.mouseout"/>
                        </use>
                        <path d="M-4,0h8" fill="none" stroke="white" stroke-width="1.5" pointer-events="none"/>
                </g>
                <g id="dirArrow">
                        <path fill="none" stroke="white" stroke-width="1.5" d="M0,-3.0v7 M-2.5,-0.5L0,-3.0L2.5,-0.5"/>
                </g>
               <g id="resetDef">
                       <use xlink:href="#rim2" fill="#404040">
                               <set attributeName="fill" to="#808080" begin="reset.mouseover" end="reset.mouseout"/>
                       </use>
               </g>
        </defs>

<script type="text/javascript">
var viewWidth = 698;
var viewHeight = 1043;
var sectionId = 'dynsection-601';
</script>
<script xlink:href="svgpan.js"/>
<svg id="graph" class="graph">
<g id="viewport">
<title>JS_GetGlobalVar</title>
<!-- Node194832 -->
<g id="node1" class="node">
<title>Node194832</title>
<polygon fill="#bfbfbf" stroke="#000000" points="0,-162.3661 0,-181.3661 92,-181.3661 92,-162.3661 0,-162.3661"/>
<text text-anchor="middle" x="46" y="-169.3661" font-family="Helvetica,sans-Serif" font-size="10.00" fill="#000000">JS_GetGlobalVar</text>
</g>
<!-- Node194833 -->
<g id="node2" class="node">
<title>Node194833</title>
<g id="a_node2"><a xlink:href="quickjs_8c.html#ac2894ff4edcdb4e6841bcce9c76081e3" target="_top" xlink:title="JS_CallInternal">
<polygon fill="none" stroke="#000000" points="128,-162.3661 128,-181.3661 211,-181.3661 211,-162.3661 128,-162.3661"/>
<text text-anchor="middle" x="169.5" y="-169.3661" font-family="Helvetica,sans-Serif" font-size="10.00" fill="#000000">JS_CallInternal</text>
</a>
</g>
</g>
<!-- Node194832&#45;&gt;Node194833 -->
<g id="edge1" class="edge">
<title>Node194832&#45;&gt;Node194833</title>
<path fill="none" stroke="#191970" d="M102.5805,-171.8661C111.0662,-171.8661 119.6831,-171.8661 127.7841,-171.8661"/>
<polygon fill="#191970" stroke="#191970" points="102.3382,-168.3662 92.3382,-171.8661 102.3382,-175.3662 102.3382,-168.3662"/>
</g>
<!-- Node194833&#45;&gt;Node194833 -->
<g id="edge43" class="edge">
<title>Node194833&#45;&gt;Node194833</title>
<path fill="none" stroke="#191970" d="M146.8066,-190.8953C148.0445,-195.9941 155.6089,-199.8661 169.5,-199.8661 191.1836,-199.8661 197.4515,-190.4314 188.3037,-181.6232"/>
<polygon fill="#191970" stroke="#191970" points="150.0553,-192.1986 150.6963,-181.6232 143.6003,-189.4907 150.0553,-192.1986"/>
</g>
<!-- Node194834 -->
<g id="node3" class="node">
<title>Node194834</title>
<g id="a_node3"><a xlink:href="quickjs_8c.html#ade71a22dc56e7371392393df663b28b3" target="_top" xlink:title="async_func_resume">
<polygon fill="none" stroke="#000000" points="247,-922.3661 247,-941.3661 351,-941.3661 351,-922.3661 247,-922.3661"/>
<text text-anchor="middle" x="299" y="-929.3661" font-family="Helvetica,sans-Serif" font-size="10.00" fill="#000000">async_func_resume</text>
</a>
</g>
</g>
<!-- Node194833&#45;&gt;Node194834 -->
<g id="edge2" class="edge">
<title>Node194833&#45;&gt;Node194834</title>
<path fill="none" stroke="#191970" d="M170.2876,-191.5782C174.468,-290.8774 195.8246,-736.549 247,-863.8661 256.4226,-887.3083 276.2617,-909.6029 288.5278,-921.9365"/>
<polygon fill="#191970" stroke="#191970" points="173.7792,-191.3012 169.871,-181.4535 166.7852,-191.589 173.7792,-191.3012"/>
</g>
<!-- Node194846 -->
<g id="node8" class="node">
<title>Node194846</title>
<g id="a_node8"><a xlink:href="quickjs_8c.html#a1a4c02a29525d5cb2085dd8bca3af350" target="_top" xlink:title="JS_Call">
<polygon fill="none" stroke="#ff0000" points="273.5,-402.3661 273.5,-421.3661 324.5,-421.3661 324.5,-402.3661 273.5,-402.3661"/>
<text text-anchor="middle" x="299" y="-409.3661" font-family="Helvetica,sans-Serif" font-size="10.00" fill="#000000">JS_Call</text>
</a>
</g>
</g>
<!-- Node194833&#45;&gt;Node194846 -->
<g id="edge7" class="edge">
<title>Node194833&#45;&gt;Node194846</title>
<path fill="none" stroke="#191970" d="M181.6785,-190.2909C209.8408,-238.5243 278.3481,-366.0423 295.2053,-402.3522"/>
<polygon fill="#191970" stroke="#191970" points="184.5776,-188.318 176.4625,-181.5066 178.5588,-191.892 184.5776,-188.318"/>
</g>
<!-- Node194878 -->
<g id="node15" class="node">
<title>Node194878</title>
<g id="a_node15"><a xlink:href="quickjs_8c.html#ad35594576a14c10812efaf958c99af8a" target="_top" xlink:title="JS_CallConstructorInternal">
<polygon fill="none" stroke="#ff0000" points="556,-1.3661 556,-20.3661 690,-20.3661 690,-1.3661 556,-1.3661"/>
<text text-anchor="middle" x="623" y="-8.3661" font-family="Helvetica,sans-Serif" font-size="10.00" fill="#000000">JS_CallConstructorInternal</text>
</a>
</g>
</g>
<!-- Node194833&#45;&gt;Node194878 -->
<g id="edge38" class="edge">
<title>Node194833&#45;&gt;Node194878</title>
<path fill="none" stroke="#191970" d="M176.6956,-152.8534C188.5549,-128.8303 214.1945,-89.1616 247,-67.8661 343.8661,-4.9862 483.0678,2.8715 562.094,-1.3603"/>
<polygon fill="#191970" stroke="#191970" points="173.447,-151.5416 172.476,-162.0919 179.8143,-154.4498 173.447,-151.5416"/>
</g>
<!-- Node194929 -->
<g id="node30" class="node">
<title>Node194929</title>
<g id="a_node30"><a xlink:href="quickjs_8c.html#a75f6ee5e4235a7dc99889f3d2eb2c147" target="_top" xlink:title="JS_CallFree">
<polygon fill="none" stroke="#ff0000" points="263.5,-86.3661 263.5,-105.3661 334.5,-105.3661 334.5,-86.3661 263.5,-86.3661"/>
<text text-anchor="middle" x="299" y="-93.3661" font-family="Helvetica,sans-Serif" font-size="10.00" fill="#000000">JS_CallFree</text>
</a>
</g>
</g>
<!-- Node194833&#45;&gt;Node194929 -->
<g id="edge39" class="edge">
<title>Node194833&#45;&gt;Node194929</title>
<path fill="none" stroke="#191970" d="M182.9766,-155.2892C198.1168,-141.8557 223.6365,-123.9866 247,-110.8661 252.2017,-107.945 257.8215,-105.0748 263.3777,-102.5079"/>
<polygon fill="#191970" stroke="#191970" points="180.5197,-152.7959 175.7129,-162.2375 185.3585,-157.8542 180.5197,-152.7959"/>
</g>
<!-- Node194835 -->
<g id="node4" class="node">
<title>Node194835</title>
<g id="a_node4"><a xlink:href="quickjs_8c.html#a9d95ebd661628910e9e05ee872340848" target="_top" xlink:title="js_generator_function_call">
<polygon fill="none" stroke="#ff0000" points="388.5,-1015.3661 388.5,-1034.3661 518.5,-1034.3661 518.5,-1015.3661 388.5,-1015.3661"/>
<text text-anchor="middle" x="453.5" y="-1022.3661" font-family="Helvetica,sans-Serif" font-size="10.00" fill="#000000">js_generator_function_call</text>
</a>
</g>
</g>
<!-- Node194834&#45;&gt;Node194835 -->
<g id="edge3" class="edge">
<title>Node194834&#45;&gt;Node194835</title>
<path fill="none" stroke="#191970" d="M314.9957,-949.003C331.529,-965.7622 358.8284,-990.8851 387,-1005.8661 394.1029,-1009.6433 402.0429,-1012.7448 409.8953,-1015.2656"/>
<polygon fill="#191970" stroke="#191970" points="317.2486,-946.2972 307.7875,-941.5287 312.21,-951.1564 317.2486,-946.2972"/>
</g>
<!-- Node194839 -->
<g id="node5" class="node">
<title>Node194839</title>
<g id="a_node5"><a xlink:href="quickjs_8c.html#a1bf6b62983e8fff99c0a5d5a9f486115" target="_top" xlink:title="js_async_function_resume">
<polygon fill="none" stroke="#ff0000" points="387,-878.3661 387,-897.3661 520,-897.3661 520,-878.3661 387,-878.3661"/>
<text text-anchor="middle" x="453.5" y="-885.3661" font-family="Helvetica,sans-Serif" font-size="10.00" fill="#000000">js_async_function_resume</text>
</a>
</g>
</g>
<!-- Node194834&#45;&gt;Node194839 -->
<g id="edge4" class="edge">
<title>Node194834&#45;&gt;Node194839</title>
<path fill="none" stroke="#191970" d="M342.3344,-919.5249C366.9423,-912.5169 397.279,-903.8773 420.0412,-897.3948"/>
<polygon fill="#191970" stroke="#191970" points="341.1831,-916.2136 332.5242,-922.3188 343.1005,-922.9459 341.1831,-916.2136"/>
</g>
<!-- Node194844 -->
<g id="node6" class="node">
<title>Node194844</title>
<g id="a_node6"><a xlink:href="quickjs_8c.html#a89b019c704a2d2914bc30b30a72040b3" target="_top" xlink:title="js_async_generator\l_resume_next">
<polygon fill="none" stroke="#000000" points="403,-965.8661 403,-995.8661 504,-995.8661 504,-965.8661 403,-965.8661"/>
<text text-anchor="start" x="411" y="-983.8661" font-family="Helvetica,sans-Serif" font-size="10.00" fill="#000000">js_async_generator</text>
<text text-anchor="middle" x="453.5" y="-972.8661" font-family="Helvetica,sans-Serif" font-size="10.00" fill="#000000">_resume_next</text>
</a>
</g>
</g>
<!-- Node194834&#45;&gt;Node194844 -->
<g id="edge5" class="edge">
<title>Node194834&#45;&gt;Node194844</title>
<path fill="none" stroke="#191970" d="M338.8274,-944.4975C359.364,-951.0107 384.5533,-958.9995 406.0875,-965.8292"/>
<polygon fill="#191970" stroke="#191970" points="339.7461,-941.1171 329.1559,-941.4301 337.6299,-947.7896 339.7461,-941.1171"/>
</g>
<!-- Node194845 -->
<g id="node7" class="node">
<title>Node194845</title>
<g id="a_node7"><a xlink:href="quickjs_8c.html#aa74a153277ad53578233b4465c122100" target="_top" xlink:title="js_async_generator\l_function_call">
<polygon fill="none" stroke="#ff0000" points="403,-916.8661 403,-946.8661 504,-946.8661 504,-916.8661 403,-916.8661"/>
<text text-anchor="start" x="411" y="-934.8661" font-family="Helvetica,sans-Serif" font-size="10.00" fill="#000000">js_async_generator</text>
<text text-anchor="middle" x="453.5" y="-923.8661" font-family="Helvetica,sans-Serif" font-size="10.00" fill="#000000">_function_call</text>
</a>
</g>
</g>
<!-- Node194834&#45;&gt;Node194845 -->
<g id="edge6" class="edge">
<title>Node194834&#45;&gt;Node194845</title>
<path fill="none" stroke="#191970" d="M361.6264,-931.8661C375.3228,-931.8661 389.6559,-931.8661 402.8173,-931.8661"/>
<polygon fill="#191970" stroke="#191970" points="361.3067,-928.3662 351.3067,-931.8661 361.3066,-935.3662 361.3067,-928.3662"/>
</g>
<!-- Node194846&#45;&gt;Node194833 -->
<g id="edge18" class="edge">
<title>Node194846&#45;&gt;Node194833</title>
<path fill="none" stroke="#191970" d="M286.8914,-393.5611C258.8175,-345.4959 190.3844,-218.1267 173.3757,-181.5545"/>
<polygon fill="#191970" stroke="#191970" points="283.9725,-395.5006 292.089,-402.3104 289.9907,-391.9254 283.9725,-395.5006"/>
</g>
<!-- Node194846&#45;&gt;Node194839 -->
<g id="edge19" class="edge">
<title>Node194846&#45;&gt;Node194839</title>
<path fill="none" stroke="#191970" d="M300.1272,-431.8423C305.0011,-511.2099 326.8045,-803.1214 387,-868.8661 390.4866,-872.6741 394.6781,-875.7389 399.2394,-878.2028"/>
<polygon fill="#191970" stroke="#191970" points="303.6133,-431.5024 299.5284,-421.7267 296.6255,-431.9161 303.6133,-431.5024"/>
</g>
<!-- Node194847 -->
<g id="node9" class="node">
<title>Node194847</title>
<g id="a_node9"><a xlink:href="structqjs_1_1js__traits_3_01std_1_1function_3_01R_07Args_8_8_8_08_4_01_4.html#abc36cacd670b6b5f1773734a0586a02b" target="_top" xlink:title="qjs::js_traits\&lt; std\l::function\&lt; R(Args...)\l\&gt; \&gt;::unwrap">
<polygon fill="none" stroke="#000000" points="399,-516.3661 399,-557.3661 508,-557.3661 508,-516.3661 399,-516.3661"/>
<text text-anchor="start" x="407" y="-545.3661" font-family="Helvetica,sans-Serif" font-size="10.00" fill="#000000">qjs::js_traits&lt; std</text>
<text text-anchor="start" x="407" y="-534.3661" font-family="Helvetica,sans-Serif" font-size="10.00" fill="#000000">::function&lt; R(Args...)</text>
<text text-anchor="middle" x="453.5" y="-523.3661" font-family="Helvetica,sans-Serif" font-size="10.00" fill="#000000">&gt; &gt;::unwrap</text>
</a>
</g>
</g>
<!-- Node194846&#45;&gt;Node194847 -->
<g id="edge8" class="edge">
<title>Node194846&#45;&gt;Node194847</title>
<path fill="none" stroke="#191970" d="M311.8989,-429.6386C327.6897,-450.385 356.1609,-484.6766 387,-506.8661 391.7292,-510.2689 396.906,-513.4174 402.2168,-516.2932"/>
<polygon fill="#191970" stroke="#191970" points="314.5394,-427.3247 305.7551,-421.4013 308.9282,-431.5098 314.5394,-427.3247"/>
</g>
<!-- Node194848 -->
<g id="node10" class="node">
<title>Node194848</title>
<g id="a_node10"><a xlink:href="quickjs-libc_8c.html#abb1cbe3fdf905e81f603a3a0bfce475a" target="_top" xlink:title="call_handler">
<polygon fill="none" stroke="#ff0000" points="419.5,-478.3661 419.5,-497.3661 487.5,-497.3661 487.5,-478.3661 419.5,-478.3661"/>
<text text-anchor="middle" x="453.5" y="-485.3661" font-family="Helvetica,sans-Serif" font-size="10.00" fill="#000000">call_handler</text>
</a>
</g>
</g>
<!-- Node194846&#45;&gt;Node194848 -->
<g id="edge9" class="edge">
<title>Node194846&#45;&gt;Node194848</title>
<path fill="none" stroke="#191970" d="M319.32,-427.5286C336.54,-440.1713 362.3041,-457.6434 387,-468.8661 397.1661,-473.486 408.7222,-477.2567 419.3166,-480.1856"/>
<polygon fill="#191970" stroke="#191970" points="321.2495,-424.6011 311.1448,-421.4162 317.0579,-430.2074 321.2495,-424.6011"/>
</g>
<!-- Node194853 -->
<g id="node11" class="node">
<title>Node194853</title>
<g id="a_node11"><a xlink:href="quickjs_8c.html#aa049793cc8648d35fe81876a2543ca4e" target="_top" xlink:title="JS_GetIterator2">
<polygon fill="none" stroke="#ff0000" points="410.5,-440.3661 410.5,-459.3661 496.5,-459.3661 496.5,-440.3661 410.5,-440.3661"/>
<text text-anchor="middle" x="453.5" y="-447.3661" font-family="Helvetica,sans-Serif" font-size="10.00" fill="#000000">JS_GetIterator2</text>
</a>
</g>
</g>
<!-- Node194846&#45;&gt;Node194853 -->
<g id="edge10" class="edge">
<title>Node194846&#45;&gt;Node194853</title>
<path fill="none" stroke="#191970" d="M334.2646,-420.5396C358.2256,-426.4329 389.9273,-434.2301 414.6191,-440.3032"/>
<polygon fill="#191970" stroke="#191970" points="335.0591,-417.1308 324.5125,-418.1411 333.3872,-423.9282 335.0591,-417.1308"/>
</g>
<!-- Node194872 -->
<g id="node12" class="node">
<title>Node194872</title>
<g id="a_node12"><a xlink:href="quickjs_8c.html#ad6303fbd3add4afa0cb64b0aa6d431ce" target="_top" xlink:title="JS_IteratorNext2">
<polygon fill="none" stroke="#ff0000" points="408,-402.3661 408,-421.3661 499,-421.3661 499,-402.3661 408,-402.3661"/>
<text text-anchor="middle" x="453.5" y="-409.3661" font-family="Helvetica,sans-Serif" font-size="10.00" fill="#000000">JS_IteratorNext2</text>
</a>
</g>
</g>
<!-- Node194846&#45;&gt;Node194872 -->
<g id="edge11" class="edge">
<title>Node194846&#45;&gt;Node194872</title>
<path fill="none" stroke="#191970" d="M334.6603,-411.8661C356.4599,-411.8661 384.5551,-411.8661 407.9545,-411.8661"/>
<polygon fill="#191970" stroke="#191970" points="334.5126,-408.3662 324.5125,-411.8661 334.5125,-415.3662 334.5126,-408.3662"/>
</g>
<!-- Node194876 -->
<g id="node13" class="node">
<title>Node194876</title>
<g id="a_node13"><a xlink:href="quickjs_8c.html#a62424fefab7bcc97f49c978205c7a1c1" target="_top" xlink:title="js_for_await_of_next">
<polygon fill="none" stroke="#000000" points="400,-802.3661 400,-821.3661 507,-821.3661 507,-802.3661 400,-802.3661"/>
<text text-anchor="middle" x="453.5" y="-809.3661" font-family="Helvetica,sans-Serif" font-size="10.00" fill="#000000">js_for_await_of_next</text>
</a>
</g>
</g>
<!-- Node194846&#45;&gt;Node194876 -->
<g id="edge12" class="edge">
<title>Node194846&#45;&gt;Node194876</title>
<path fill="none" stroke="#191970" d="M304.2938,-431.4564C314.0566,-467.8527 335.3294,-548.4267 351,-616.8661 368.8203,-694.6938 332.7446,-734.2908 387,-792.8661 390.6717,-796.8301 395.1073,-799.9876 399.9249,-802.4997"/>
<polygon fill="#191970" stroke="#191970" points="307.6311,-430.3885 301.6525,-421.6417 300.8716,-432.2077 307.6311,-430.3885"/>
</g>
<!-- Node194877 -->
<g id="node14" class="node">
<title>Node194877</title>
<g id="a_node14"><a xlink:href="quickjs_8c.html#afd4ef2d701fa0702f321925b61c57bbf" target="_top" xlink:title="js_call_bound_function">
<polygon fill="none" stroke="#000000" points="395.5,-840.3661 395.5,-859.3661 511.5,-859.3661 511.5,-840.3661 395.5,-840.3661"/>
<text text-anchor="middle" x="453.5" y="-847.3661" font-family="Helvetica,sans-Serif" font-size="10.00" fill="#000000">js_call_bound_function</text>
</a>
</g>
</g>
<!-- Node194846&#45;&gt;Node194877 -->
<g id="edge14" class="edge">
<title>Node194846&#45;&gt;Node194877</title>
<path fill="none" stroke="#191970" d="M300.5246,-432.0726C306.6132,-507.507 331.5869,-771.3551 387,-830.8661 390.6002,-834.7326 394.9274,-837.8313 399.6252,-840.3118"/>
<polygon fill="#191970" stroke="#191970" points="303.978,-431.3399 299.7078,-421.6437 296.9994,-431.8865 303.978,-431.3399"/>
</g>
<!-- Node194907 -->
<g id="node16" class="node">
<title>Node194907</title>
<g id="a_node16"><a xlink:href="quickjs_8c.html#a3e852026d167fa03c673f86697dd3e67" target="_top" xlink:title="js_async_generator\l_resolve_or_reject">
<polygon fill="none" stroke="#ff0000" points="403,-352.8661 403,-382.8661 504,-382.8661 504,-352.8661 403,-352.8661"/>
<text text-anchor="start" x="411" y="-370.8661" font-family="Helvetica,sans-Serif" font-size="10.00" fill="#000000">js_async_generator</text>
<text text-anchor="middle" x="453.5" y="-359.8661" font-family="Helvetica,sans-Serif" font-size="10.00" fill="#000000">_resolve_or_reject</text>
</a>
</g>
</g>
<!-- Node194846&#45;&gt;Node194907 -->
<g id="edge20" class="edge">
<title>Node194846&#45;&gt;Node194907</title>
<path fill="none" stroke="#191970" d="M334.2915,-401.8155C354.6101,-396.029 380.4881,-388.6592 402.9377,-382.2658"/>
<polygon fill="#191970" stroke="#191970" points="333.1715,-398.4952 324.5125,-404.6004 335.0888,-405.2275 333.1715,-398.4952"/>
</g>
<!-- Node194890 -->
<g id="node17" class="node">
<title>Node194890</title>
<g id="a_node17"><a xlink:href="quickjs_8c.html#a2355fabf91f59212ea65baba1b0b7c1b" target="_top" xlink:title="js_async_generator_next">
<polygon fill="none" stroke="#000000" points="391,-314.3661 391,-333.3661 516,-333.3661 516,-314.3661 391,-314.3661"/>
<text text-anchor="middle" x="453.5" y="-321.3661" font-family="Helvetica,sans-Serif" font-size="10.00" fill="#000000">js_async_generator_next</text>
</a>
</g>
</g>
<!-- Node194846&#45;&gt;Node194890 -->
<g id="edge21" class="edge">
<title>Node194846&#45;&gt;Node194890</title>
<path fill="none" stroke="#191970" d="M316.4,-395.2695C333.2568,-379.995 360.1452,-357.6774 387,-343.8661 395.1481,-339.6756 404.3192,-336.2105 413.1878,-333.4094"/>
<polygon fill="#191970" stroke="#191970" points="313.9418,-392.7755 308.9748,-402.1339 318.6937,-397.9155 313.9418,-392.7755"/>
</g>
<!-- Node194891 -->
<g id="node18" class="node">
<title>Node194891</title>
<g id="a_node18"><a xlink:href="quickjs_8c.html#a50e94675d1c4cf67c88e72169ea3c21a" target="_top" xlink:title="js_dynamic_import">
<polygon fill="none" stroke="#000000" points="404.5,-162.3661 404.5,-181.3661 502.5,-181.3661 502.5,-162.3661 404.5,-162.3661"/>
<text text-anchor="middle" x="453.5" y="-169.3661" font-family="Helvetica,sans-Serif" font-size="10.00" fill="#000000">js_dynamic_import</text>
</a>
</g>
</g>
<!-- Node194846&#45;&gt;Node194891 -->
<g id="edge22" class="edge">
<title>Node194846&#45;&gt;Node194891</title>
<path fill="none" stroke="#191970" d="M301.0618,-392.2028C306.6391,-349.1581 325.9774,-246.0367 387,-190.8661 391.9877,-186.3567 397.9754,-182.911 404.287,-180.2794"/>
<polygon fill="#191970" stroke="#191970" points="297.5752,-391.8842 299.8764,-402.2261 304.5267,-392.7065 297.5752,-391.8842"/>
</g>
<!-- Node194902 -->
<g id="node19" class="node">
<title>Node194902</title>
<g id="a_node19"><a xlink:href="quickjs_8c.html#a8d4b24969540aff427939eeda47f451d" target="_top" xlink:title="js_function_apply">
<polygon fill="none" stroke="#ff0000" points="407.5,-124.3661 407.5,-143.3661 499.5,-143.3661 499.5,-124.3661 407.5,-124.3661"/>
<text text-anchor="middle" x="453.5" y="-131.3661" font-family="Helvetica,sans-Serif" font-size="10.00" fill="#000000">js_function_apply</text>
</a>
</g>
</g>
<!-- Node194846&#45;&gt;Node194902 -->
<g id="edge24" class="edge">
<title>Node194846&#45;&gt;Node194902</title>
<path fill="none" stroke="#191970" d="M303.2336,-392.0745C315.2654,-337.5652 351.1142,-187.0273 387,-152.8661 392.7398,-147.4021 399.9401,-143.4926 407.4664,-140.6993"/>
<polygon fill="#191970" stroke="#191970" points="299.7427,-391.6567 301.0363,-402.1723 306.5826,-393.1452 299.7427,-391.6567"/>
</g>
<!-- Node194910 -->
<g id="node20" class="node">
<title>Node194910</title>
<g id="a_node20"><a xlink:href="quickjs_8c.html#a677ad630a103e1f3d5129e0549112b50" target="_top" xlink:title="js_function_call">
<polygon fill="none" stroke="#000000" points="411.5,-276.3661 411.5,-295.3661 495.5,-295.3661 495.5,-276.3661 411.5,-276.3661"/>
<text text-anchor="middle" x="453.5" y="-283.3661" font-family="Helvetica,sans-Serif" font-size="10.00" fill="#000000">js_function_call</text>
</a>
</g>
</g>
<!-- Node194846&#45;&gt;Node194910 -->
<g id="edge26" class="edge">
<title>Node194846&#45;&gt;Node194910</title>
<path fill="none" stroke="#191970" d="M309.3075,-393.4007C323.6354,-369.4271 351.8218,-327.9346 387,-304.8661 394.3298,-300.0596 402.8867,-296.4493 411.3748,-293.7438"/>
<polygon fill="#191970" stroke="#191970" points="306.1829,-391.8119 304.1925,-402.2181 312.2378,-395.3245 306.1829,-391.8119"/>
</g>
<!-- Node194856 -->
<g id="node21" class="node">
<title>Node194856</title>
<g id="a_node21"><a xlink:href="quickjs_8c.html#a5e32da9a43002cb96dcbd62a1a340144" target="_top" xlink:title="js_array_from">
<polygon fill="none" stroke="#000000" points="415.5,-238.3661 415.5,-257.3661 491.5,-257.3661 491.5,-238.3661 415.5,-238.3661"/>
<text text-anchor="middle" x="453.5" y="-245.3661" font-family="Helvetica,sans-Serif" font-size="10.00" fill="#000000">js_array_from</text>
</a>
</g>
</g>
<!-- Node194846&#45;&gt;Node194856 -->
<g id="edge27" class="edge">
<title>Node194846&#45;&gt;Node194856</title>
<path fill="none" stroke="#191970" d="M305.5272,-392.3038C316.9726,-361.0314 343.6523,-299.9432 387,-266.8661 395.2091,-260.602 405.4075,-256.4024 415.3323,-253.5871"/>
<polygon fill="#191970" stroke="#191970" points="302.1237,-391.4322 302.1118,-402.027 308.7282,-393.7521 302.1237,-391.4322"/>
</g>
<!-- Node194868 -->
<g id="node22" class="node">
<title>Node194868</title>
<g id="a_node22"><a xlink:href="quickjs_8c.html#aa0bbf08a7e91459c68a312fba7016c6d" target="_top" xlink:title="js_array_every">
<polygon fill="none" stroke="#000000" points="413.5,-200.3661 413.5,-219.3661 493.5,-219.3661 493.5,-200.3661 413.5,-200.3661"/>
<text text-anchor="middle" x="453.5" y="-207.3661" font-family="Helvetica,sans-Serif" font-size="10.00" fill="#000000">js_array_every</text>
</a>
</g>
</g>
<!-- Node194846&#45;&gt;Node194868 -->
<g id="edge28" class="edge">
<title>Node194846&#45;&gt;Node194868</title>
<path fill="none" stroke="#191970" d="M302.9099,-392.0584C311.3718,-354.4897 334.9715,-272.7276 387,-228.8661 394.436,-222.5974 403.8239,-218.3934 413.1841,-215.5752"/>
<polygon fill="#191970" stroke="#191970" points="299.4082,-391.699 300.755,-402.2079 306.2556,-393.1528 299.4082,-391.699"/>
</g>
<!-- Node194911 -->
<g id="node23" class="node">
<title>Node194911</title>
<g id="a_node23"><a xlink:href="quickjs_8c.html#a36c1692489542a86dd79a7d39ab8ff95" target="_top" xlink:title="js_array_reduce">
<polygon fill="none" stroke="#000000" points="410.5,-764.3661 410.5,-783.3661 496.5,-783.3661 496.5,-764.3661 410.5,-764.3661"/>
<text text-anchor="middle" x="453.5" y="-771.3661" font-family="Helvetica,sans-Serif" font-size="10.00" fill="#000000">js_array_reduce</text>
</a>
</g>
</g>
<!-- Node194846&#45;&gt;Node194911 -->
<g id="edge29" class="edge">
<title>Node194846&#45;&gt;Node194911</title>
<path fill="none" stroke="#191970" d="M303.9493,-431.4242C322.3084,-503.9395 385.5344,-753.3601 387,-754.8661 393.2807,-761.3197 401.589,-765.6227 410.1979,-768.4813"/>
<polygon fill="#191970" stroke="#191970" points="307.338,-430.5479 301.4911,-421.7125 300.552,-432.2657 307.338,-430.5479"/>
</g>
<!-- Node194912 -->
<g id="node24" class="node">
<title>Node194912</title>
<g id="a_node24"><a xlink:href="quickjs_8c.html#a9dd41b086da4e13b3487cc9c6e2af2b8" target="_top" xlink:title="js_array_find">
<polygon fill="none" stroke="#000000" points="417.5,-726.3661 417.5,-745.3661 489.5,-745.3661 489.5,-726.3661 417.5,-726.3661"/>
<text text-anchor="middle" x="453.5" y="-733.3661" font-family="Helvetica,sans-Serif" font-size="10.00" fill="#000000">js_array_find</text>
</a>
</g>
</g>
<!-- Node194846&#45;&gt;Node194912 -->
<g id="edge30" class="edge">
<title>Node194846&#45;&gt;Node194912</title>
<path fill="none" stroke="#191970" d="M304.1139,-431.5358C321.2995,-497.3587 376.4874,-706.3808 387,-716.8661 395.0763,-724.9215 406.3162,-729.6147 417.2595,-732.3319"/>
<polygon fill="#191970" stroke="#191970" points="307.4375,-430.4101 301.5288,-421.6159 300.6637,-432.1754 307.4375,-430.4101"/>
</g>
<!-- Node194913 -->
<g id="node25" class="node">
<title>Node194913</title>
<g id="a_node25"><a xlink:href="quickjs_8c.html#ad90c33b4aae1181151bda4a98ac2ef23" target="_top" xlink:title="JS_FlattenIntoArray">
<polygon fill="none" stroke="#ff0000" points="401.5,-670.3661 401.5,-689.3661 505.5,-689.3661 505.5,-670.3661 401.5,-670.3661"/>
<text text-anchor="middle" x="453.5" y="-677.3661" font-family="Helvetica,sans-Serif" font-size="10.00" fill="#000000">JS_FlattenIntoArray</text>
</a>
</g>
</g>
<!-- Node194846&#45;&gt;Node194913 -->
<g id="edge31" class="edge">
<title>Node194846&#45;&gt;Node194913</title>
<path fill="none" stroke="#191970" d="M300.0468,-431.4176C303.6248,-478.1517 319.2703,-597.1732 387,-660.8661 391.1986,-664.8144 396.1605,-667.9501 401.4521,-670.4391"/>
<polygon fill="#191970" stroke="#191970" points="303.537,-431.1511 299.3855,-421.4035 296.5522,-431.6124 303.537,-431.1511"/>
</g>
<!-- Node194914 -->
<g id="node26" class="node">
<title>Node194914</title>
<g id="a_node26"><a xlink:href="quickjs_8c.html#a753547f952d9c8a7eba88924497c3847" target="_top" xlink:title="js_string_replace">
<polygon fill="none" stroke="#000000" points="408.5,-48.3661 408.5,-67.3661 498.5,-67.3661 498.5,-48.3661 408.5,-48.3661"/>
<text text-anchor="middle" x="453.5" y="-55.3661" font-family="Helvetica,sans-Serif" font-size="10.00" fill="#000000">js_string_replace</text>
</a>
</g>
</g>
<!-- Node194846&#45;&gt;Node194914 -->
<g id="edge33" class="edge">
<title>Node194846&#45;&gt;Node194914</title>
<path fill="none" stroke="#191970" d="M301.6171,-392.0468C310.5591,-327.2167 341.8638,-122.9795 387,-76.8661 392.7953,-70.9454 400.2975,-66.836 408.1656,-63.9917"/>
<polygon fill="#191970" stroke="#191970" points="298.1223,-391.7732 300.2501,-402.1522 305.0592,-392.7117 298.1223,-391.7732"/>
</g>
<!-- Node194915 -->
<g id="node27" class="node">
<title>Node194915</title>
<g id="a_node27"><a xlink:href="quickjs_8c.html#a624282391413d4c5a030adbd8b77aa80" target="_top" xlink:title="internalize_json_property">
<polygon fill="none" stroke="#ff0000" points="391,-614.3661 391,-633.3661 516,-633.3661 516,-614.3661 391,-614.3661"/>
<text text-anchor="middle" x="453.5" y="-621.3661" font-family="Helvetica,sans-Serif" font-size="10.00" fill="#000000">internalize_json_property</text>
</a>
</g>
</g>
<!-- Node194846&#45;&gt;Node194915 -->
<g id="edge34" class="edge">
<title>Node194846&#45;&gt;Node194915</title>
<path fill="none" stroke="#191970" d="M302.3642,-431.6755C310.0554,-470.7639 332.6357,-558.0771 387,-604.8661 391.5503,-608.7824 396.86,-611.8937 402.4587,-614.365"/>
<polygon fill="#191970" stroke="#191970" points="305.7608,-430.7946 300.5055,-421.5951 298.8769,-432.064 305.7608,-430.7946"/>
</g>
<!-- Node194917 -->
<g id="node28" class="node">
<title>Node194917</title>
<g id="a_node28"><a xlink:href="quickjs_8c.html#a0da6493b4bc0edb7ddddfab807241d0b" target="_top" xlink:title="js_json_check">
<polygon fill="none" stroke="#ff0000" points="414,-86.3661 414,-105.3661 493,-105.3661 493,-86.3661 414,-86.3661"/>
<text text-anchor="middle" x="453.5" y="-93.3661" font-family="Helvetica,sans-Serif" font-size="10.00" fill="#000000">js_json_check</text>
</a>
</g>
</g>
<!-- Node194846&#45;&gt;Node194917 -->
<g id="edge36" class="edge">
<title>Node194846&#45;&gt;Node194917</title>
<path fill="none" stroke="#191970" d="M302.2691,-392.3827C312.6261,-332.8641 346.4348,-155.0375 387,-114.8661 394.2519,-107.6846 404.0193,-103.1775 413.8324,-100.3604"/>
<polygon fill="#191970" stroke="#191970" points="298.8008,-391.9005 300.5633,-402.3477 305.7005,-393.0816 298.8008,-391.9005"/>
</g>
<!-- Node194920 -->
<g id="node29" class="node">
<title>Node194920</title>
<g id="a_node29"><a xlink:href="quickjs_8c.html#ab586d841244b113ba73eec314395775d" target="_top" xlink:title="js_proxy_call">
<polygon fill="none" stroke="#ff0000" points="416.5,-576.3661 416.5,-595.3661 490.5,-595.3661 490.5,-576.3661 416.5,-576.3661"/>
<text text-anchor="middle" x="453.5" y="-583.3661" font-family="Helvetica,sans-Serif" font-size="10.00" fill="#000000">js_proxy_call</text>
</a>
</g>
</g>
<!-- Node194846&#45;&gt;Node194920 -->
<g id="edge37" class="edge">
<title>Node194846&#45;&gt;Node194920</title>
<path fill="none" stroke="#191970" d="M304.6872,-431.3726C315.3098,-464.3306 341.3253,-530.9495 387,-566.8661 395.4002,-573.4717 405.9972,-577.7808 416.2482,-580.5918"/>
<polygon fill="#191970" stroke="#191970" points="307.9589,-430.1044 301.6687,-421.5789 301.2694,-432.1662 307.9589,-430.1044"/>
</g>
<!-- Node194876&#45;&gt;Node194833 -->
<g id="edge13" class="edge">
<title>Node194876&#45;&gt;Node194833</title>
<path fill="none" stroke="#191970" d="M392.5256,-797.2225C390.5804,-795.8935 388.729,-794.445 387,-792.8661 259.6171,-676.5457 302.8794,-594.0664 247,-430.8661 214.1595,-334.9527 181.564,-216.5074 172.1797,-181.8349"/>
<polygon fill="#191970" stroke="#191970" points="391.1354,-800.4565 401.5658,-802.3164 394.5718,-794.358 391.1354,-800.4565"/>
</g>
<!-- Node194877&#45;&gt;Node194833 -->
<g id="edge15" class="edge">
<title>Node194877&#45;&gt;Node194833</title>
<path fill="none" stroke="#191970" d="M394.9996,-836.0003C392.1931,-834.465 389.5054,-832.7599 387,-830.8661 292.7416,-759.6198 289.2704,-715.2015 247,-604.8661 185.2547,-443.6967 172.1282,-229.6301 169.8996,-181.6715"/>
<polygon fill="#191970" stroke="#191970" points="393.7491,-839.2793 404.2899,-840.3484 396.7165,-832.9394 393.7491,-839.2793"/>
</g>
<!-- Node194877&#45;&gt;Node194878 -->
<g id="edge16" class="edge">
<title>Node194877&#45;&gt;Node194878</title>
<path fill="none" stroke="#191970" d="M516.7238,-834.2415C517.8789,-833.1863 518.9743,-832.0626 520,-830.8661 575.7983,-765.7812 617.1852,-107.5123 622.4359,-20.3729"/>
<polygon fill="#191970" stroke="#191970" points="514.4216,-831.5856 508.3365,-840.2587 518.5021,-837.2733 514.4216,-831.5856"/>
</g>
<!-- Node194878&#45;&gt;Node194833 -->
<g id="edge17" class="edge">
<title>Node194878&#45;&gt;Node194833</title>
<path fill="none" stroke="#191970" d="M545.7467,-14.0661C464.9372,-16.4003 337.4941,-27.1226 247,-85.8661 215.3996,-106.3793 190.4483,-143.9406 178.058,-162.1949"/>
<polygon fill="#191970" stroke="#191970" points="545.9449,-17.5623 555.8529,-13.8095 545.7672,-10.5646 545.9449,-17.5623"/>
</g>
<!-- Node194891&#45;&gt;Node194833 -->
<g id="edge23" class="edge">
<title>Node194891&#45;&gt;Node194833</title>
<path fill="none" stroke="#191970" d="M393.8798,-171.8661C339.0941,-171.8661 259.2991,-171.8661 211.1002,-171.8661"/>
<polygon fill="#191970" stroke="#191970" points="394.1457,-175.3662 404.1457,-171.8661 394.1456,-168.3662 394.1457,-175.3662"/>
</g>
<!-- Node194902&#45;&gt;Node194833 -->
<g id="edge25" class="edge">
<title>Node194902&#45;&gt;Node194833</title>
<path fill="none" stroke="#191970" d="M396.8165,-141.4505C341.9799,-148.7878 260.1675,-159.7346 211.1002,-166.2999"/>
<polygon fill="#191970" stroke="#191970" points="397.6194,-144.8744 407.0669,-140.079 396.691,-137.9362 397.6194,-144.8744"/>
</g>
<!-- Node194913&#45;&gt;Node194913 -->
<g id="edge32" class="edge">
<title>Node194913&#45;&gt;Node194913</title>
<path fill="none" stroke="#191970" d="M424.7542,-698.5201C425.9558,-703.8029 435.5377,-707.8661 453.5,-707.8661 480.8711,-707.8661 488.7831,-698.4314 477.2359,-689.6232"/>
<polygon fill="#191970" stroke="#191970" points="427.9072,-700.054 429.7641,-689.6232 421.8077,-696.6193 427.9072,-700.054"/>
</g>
<!-- Node194915&#45;&gt;Node194915 -->
<g id="edge35" class="edge">
<title>Node194915&#45;&gt;Node194915</title>
<path fill="none" stroke="#191970" d="M424.7542,-642.5201C425.9558,-647.8029 435.5377,-651.8661 453.5,-651.8661 480.8711,-651.8661 488.7831,-642.4314 477.2359,-633.6232"/>
<polygon fill="#191970" stroke="#191970" points="427.9072,-644.054 429.7641,-633.6232 421.8077,-640.6193 427.9072,-644.054"/>
</g>
<!-- Node194929&#45;&gt;Node194833 -->
<g id="edge40" class="edge">
<title>Node194929&#45;&gt;Node194833</title>
<path fill="none" stroke="#191970" d="M281.8815,-110.7619C271.5736,-116.4147 258.3,-122.5202 247,-128.8661 228.3516,-139.3387 208.3295,-152.8367 193.3083,-162.2219"/>
<polygon fill="#191970" stroke="#191970" points="283.911,-113.6263 290.6946,-105.4879 280.3164,-107.6197 283.911,-113.6263"/>
</g>
<!-- Node194929&#45;&gt;Node194914 -->
<g id="edge42" class="edge">
<title>Node194929&#45;&gt;Node194914</title>
<path fill="none" stroke="#191970" d="M344.7158,-84.6221C366.941,-79.1557 393.3704,-72.6553 414.6129,-67.4306"/>
<polygon fill="#191970" stroke="#191970" points="343.7084,-81.2655 334.8337,-87.0526 345.3803,-88.0629 343.7084,-81.2655"/>
</g>
<!-- Node194929&#45;&gt;Node194917 -->
<g id="edge41" class="edge">
<title>Node194929&#45;&gt;Node194917</title>
<path fill="none" stroke="#191970" d="M344.8985,-95.8661C366.7986,-95.8661 392.7473,-95.8661 413.7877,-95.8661"/>
<polygon fill="#191970" stroke="#191970" points="344.8338,-92.3662 334.8337,-95.8661 344.8337,-99.3662 344.8338,-92.3662"/>
</g>
</g>
</svg>
        <g id="navigator" transform="translate(0 0)" fill="#404254">
                <rect fill="#f2f5e9" fill-opacity="0.5" stroke="#606060" stroke-width=".5" x="0" y="0" width="60" height="60"/>
                <use id="zoomplus" xlink:href="#zoomPlus" x="17" y="9" onmousedown="handleZoom(evt,'in')"/>
                <use id="zoomminus" xlink:href="#zoomMin" x="42" y="9" onmousedown="handleZoom(evt,'out')"/>
                <use id="reset" xlink:href="#resetDef" x="30" y="36" onmousedown="handleReset()"/>
                <g id="arrowUp" xlink:href="#dirArrow" transform="translate(30 24)" onmousedown="handlePan(0,-1)">
                  <use xlink:href="#rim" fill="#404040">
                        <set attributeName="fill" to="#808080" begin="arrowUp.mouseover" end="arrowUp.mouseout"/>
                  </use>
                  <path fill="none" stroke="white" stroke-width="1.5" d="M0,-3.0v7 M-2.5,-0.5L0,-3.0L2.5,-0.5"/>
                </g>
                <g id="arrowRight" xlink:href="#dirArrow" transform="rotate(90) translate(36 -43)" onmousedown="handlePan(1,0)">
                  <use xlink:href="#rim" fill="#404040">
                        <set attributeName="fill" to="#808080" begin="arrowRight.mouseover" end="arrowRight.mouseout"/>
                  </use>
                  <path fill="none" stroke="white" stroke-width="1.5" d="M0,-3.0v7 M-2.5,-0.5L0,-3.0L2.5,-0.5"/>
                </g>
                <g id="arrowDown" xlink:href="#dirArrow" transform="rotate(180) translate(-30 -48)" onmousedown="handlePan(0,1)">
                  <use xlink:href="#rim" fill="#404040">
                        <set attributeName="fill" to="#808080" begin="arrowDown.mouseover" end="arrowDown.mouseout"/>
                  </use>
                  <path fill="none" stroke="white" stroke-width="1.5" d="M0,-3.0v7 M-2.5,-0.5L0,-3.0L2.5,-0.5"/>
                </g>
                <g id="arrowLeft" xlink:href="#dirArrow" transform="rotate(270) translate(-36 17)" onmousedown="handlePan(-1,0)">
                  <use xlink:href="#rim" fill="#404040">
                        <set attributeName="fill" to="#808080" begin="arrowLeft.mouseover" end="arrowLeft.mouseout"/>
                  </use>
                  <path fill="none" stroke="white" stroke-width="1.5" d="M0,-3.0v7 M-2.5,-0.5L0,-3.0L2.5,-0.5"/>
                </g>
        </g>
        <svg viewBox="0 0 15 15" width="100%" height="30px" preserveAspectRatio="xMaxYMin meet">
         <g id="arrow_out" transform="scale(0.3 0.3)">
          <a xlink:href="quickjs_8c_a0e8d8152892d3235c94ec6df17c87d13_icgraph_org.svg" target="_base">
           <rect id="button" ry="5" rx="5" y="6" x="6" height="38" width="38"
                fill="#f2f5e9" fill-opacity="0.5" stroke="#606060" stroke-width="1.0"/>
           <path id="arrow"
             d="M 11.500037,31.436501 C 11.940474,20.09759 22.043105,11.32322 32.158766,21.979434 L 37.068811,17.246167 C 37.068811,17.246167 37.088388,32 37.088388,32 L 22.160133,31.978069 C 22.160133,31.978069 26.997745,27.140456 26.997745,27.140456 C 18.528582,18.264221 13.291696,25.230495 11.500037,31.436501 z"
             style="fill:#404040;"/>
          </a>
         </g>
        </svg>
</svg>
