<?xml version="1.0" encoding="UTF-8" standalone="no"?>
<!DOCTYPE svg PUBLIC "-//W3C//DTD SVG 1.1//EN"
 "http://www.w3.org/Graphics/SVG/1.1/DTD/svg11.dtd">
<!-- Generated by graphviz version 2.40.1 (20161225.0304)
 -->
<!-- Title: js_number_toString Pages: 1 -->
<!--zoomable 408 -->
<svg id="main" version="1.1" xmlns="http://www.w3.org/2000/svg" xmlns:xlink="http://www.w3.org/1999/xlink" xml:space="preserve" onload="init(evt)">
<style type="text/css"><![CDATA[
.edge:hover path { stroke: red; }
.edge:hover polygon { stroke: red; fill: red; }
]]></style>
<script type="text/javascript"><![CDATA[
var edges = document.getElementsByTagName('g');
if (edges && edges.length) {
  for (var i=0;i<edges.length;i++) {
    if (edges[i].id.substr(0,4)=='edge') {
      edges[i].setAttribute('class','edge');
    }
  }
}
]]></script>
        <defs>
                <circle id="rim" cx="0" cy="0" r="7"/>
                <circle id="rim2" cx="0" cy="0" r="3.5"/>
                <g id="zoomPlus">
                        <use xlink:href="#rim" fill="#404040">
                                <set attributeName="fill" to="#808080" begin="zoomplus.mouseover" end="zoomplus.mouseout"/>
                        </use>
                        <path d="M-4,0h8M0,-4v8" fill="none" stroke="white" stroke-width="1.5" pointer-events="none"/>
                </g>
                <g id="zoomMin">
                        <use xlink:href="#rim" fill="#404040">
                                <set attributeName="fill" to="#808080" begin="zoomminus.mouseover" end="zoomminus.mouseout"/>
                        </use>
                        <path d="M-4,0h8" fill="none" stroke="white" stroke-width="1.5" pointer-events="none"/>
                </g>
                <g id="dirArrow">
                        <path fill="none" stroke="white" stroke-width="1.5" d="M0,-3.0v7 M-2.5,-0.5L0,-3.0L2.5,-0.5"/>
                </g>
               <g id="resetDef">
                       <use xlink:href="#rim2" fill="#404040">
                               <set attributeName="fill" to="#808080" begin="reset.mouseover" end="reset.mouseout"/>
                       </use>
               </g>
        </defs>

<script type="text/javascript">
var viewWidth = 790;
var viewHeight = 408;
var sectionId = 'dynsection-1510';
</script>
<script xlink:href="svgpan.js"/>
<svg id="graph" class="graph">
<g id="viewport">
<title>js_number_toString</title>
<!-- Node425162 -->
<g id="node1" class="node">
<title>Node425162</title>
<polygon fill="#bfbfbf" stroke="#000000" points="0,-152.5 0,-171.5 101,-171.5 101,-152.5 0,-152.5"/>
<text text-anchor="middle" x="50.5" y="-159.5" font-family="Helvetica,sans-Serif" font-size="10.00" fill="#000000">js_number_toString</text>
</g>
<!-- Node425163 -->
<g id="node2" class="node">
<title>Node425163</title>
<g id="a_node2"><a xlink:href="quickjs_8c.html#a6508a2922531adcb280bbff485a9a44a" target="_top" xlink:title="js_dtoa">
<polygon fill="none" stroke="#000000" points="165,-266.5 165,-285.5 213,-285.5 213,-266.5 165,-266.5"/>
<text text-anchor="middle" x="189" y="-273.5" font-family="Helvetica,sans-Serif" font-size="10.00" fill="#000000">js_dtoa</text>
</a>
</g>
</g>
<!-- Node425162&#45;&gt;Node425163 -->
<g id="edge1" class="edge">
<title>Node425162&#45;&gt;Node425163</title>
<path fill="none" stroke="#191970" d="M57.6605,-171.5369C71.3969,-189.3067 103.1062,-227.8634 137,-252 142.7137,-256.0689 149.2272,-259.7178 155.6659,-262.8692"/>
<polygon fill="#191970" stroke="#191970" points="154.3948,-266.1367 164.9438,-267.1214 157.3113,-259.7731 154.3948,-266.1367"/>
</g>
<!-- Node425198 -->
<g id="node9" class="node">
<title>Node425198</title>
<g id="a_node9"><a xlink:href="quickjs_8h.html#afaa20c47565bc704c6c85f3d77254e7d" target="_top" xlink:title="JS_FreeValue">
<polygon fill="none" stroke="#000000" points="430.5,-228.5 430.5,-247.5 508.5,-247.5 508.5,-228.5 430.5,-228.5"/>
<text text-anchor="middle" x="469.5" y="-235.5" font-family="Helvetica,sans-Serif" font-size="10.00" fill="#000000">JS_FreeValue</text>
</a>
</g>
</g>
<!-- Node425162&#45;&gt;Node425198 -->
<g id="edge8" class="edge">
<title>Node425162&#45;&gt;Node425198</title>
<path fill="none" stroke="#191970" d="M60.9751,-171.6208C76.326,-185.043 106.4403,-208.8774 137,-219 233.3848,-250.9264 353.992,-247.9927 420.2376,-243.0014"/>
<polygon fill="#191970" stroke="#191970" points="420.7024,-246.4754 430.3908,-242.1877 420.1431,-239.4978 420.7024,-246.4754"/>
</g>
<!-- Node425226 -->
<g id="node12" class="node">
<title>Node425226</title>
<g id="a_node12"><a xlink:href="quickjs_8h.html#ad80a83d73e9b7d872b88fbf2943aebe9" target="_top" xlink:title="JS_IsException">
<polygon fill="none" stroke="#000000" points="426.5,-152.5 426.5,-171.5 512.5,-171.5 512.5,-152.5 426.5,-152.5"/>
<text text-anchor="middle" x="469.5" y="-159.5" font-family="Helvetica,sans-Serif" font-size="10.00" fill="#000000">JS_IsException</text>
</a>
</g>
</g>
<!-- Node425162&#45;&gt;Node425226 -->
<g id="edge11" class="edge">
<title>Node425162&#45;&gt;Node425226</title>
<path fill="none" stroke="#191970" d="M62.3831,-152.3794C78.4242,-139.8272 108.3117,-117.9439 137,-105 195.7686,-78.4841 213.0918,-75.5191 277,-67 324.1386,-60.7163 343.815,-41.5697 384,-67 415.5828,-86.9866 392.588,-117.5929 420,-143 421.7005,-144.5761 423.5455,-146.026 425.4901,-147.3592"/>
<polygon fill="#191970" stroke="#191970" points="424.0917,-150.5901 434.5152,-152.4874 427.5499,-144.504 424.0917,-150.5901"/>
</g>
<!-- Node425227 -->
<g id="node13" class="node">
<title>Node425227</title>
<g id="a_node13"><a xlink:href="quickjs_8h.html#a4e407128a9605afb77523e49e9a627fd" target="_top" xlink:title="JS_IsUndefined">
<polygon fill="none" stroke="#000000" points="146,-.5 146,-19.5 232,-19.5 232,-.5 146,-.5"/>
<text text-anchor="middle" x="189" y="-7.5" font-family="Helvetica,sans-Serif" font-size="10.00" fill="#000000">JS_IsUndefined</text>
</a>
</g>
</g>
<!-- Node425162&#45;&gt;Node425227 -->
<g id="edge12" class="edge">
<title>Node425162&#45;&gt;Node425227</title>
<path fill="none" stroke="#191970" d="M54.753,-152.3467C65.4312,-129.0863 95.5142,-69.2604 137,-34 141.5137,-30.1636 146.7429,-26.813 152.1101,-23.9298"/>
<polygon fill="#191970" stroke="#191970" points="153.7139,-27.0418 161.1711,-19.5158 150.6482,-20.7488 153.7139,-27.0418"/>
</g>
<!-- Node425228 -->
<g id="node14" class="node">
<title>Node425228</title>
<g id="a_node14"><a xlink:href="quickjs_8c.html#a0d3fa47d2f86605d823f947020971a39" target="_top" xlink:title="js_thisNumberValue">
<polygon fill="none" stroke="#000000" points="137,-114.5 137,-133.5 241,-133.5 241,-114.5 137,-114.5"/>
<text text-anchor="middle" x="189" y="-121.5" font-family="Helvetica,sans-Serif" font-size="10.00" fill="#000000">js_thisNumberValue</text>
</a>
</g>
</g>
<!-- Node425162&#45;&gt;Node425228 -->
<g id="edge13" class="edge">
<title>Node425162&#45;&gt;Node425228</title>
<path fill="none" stroke="#191970" d="M85.4494,-152.411C103.3284,-147.5056 125.2884,-141.4804 144.3778,-136.2429"/>
<polygon fill="#191970" stroke="#191970" points="145.3443,-139.6072 154.0618,-133.5859 143.4921,-132.8566 145.3443,-139.6072"/>
</g>
<!-- Node425230 -->
<g id="node17" class="node">
<title>Node425230</title>
<g id="a_node17"><a xlink:href="quickjs_8c.html#ab1b614ef35f1cea05da0ad4927c53118" target="_top" xlink:title="JS_ToFloat64Free">
<polygon fill="none" stroke="#000000" points="140.5,-190.5 140.5,-209.5 237.5,-209.5 237.5,-190.5 140.5,-190.5"/>
<text text-anchor="middle" x="189" y="-197.5" font-family="Helvetica,sans-Serif" font-size="10.00" fill="#000000">JS_ToFloat64Free</text>
</a>
</g>
</g>
<!-- Node425162&#45;&gt;Node425230 -->
<g id="edge16" class="edge">
<title>Node425162&#45;&gt;Node425230</title>
<path fill="none" stroke="#191970" d="M85.4494,-171.589C103.3284,-176.4944 125.2884,-182.5196 144.3778,-187.7571"/>
<polygon fill="#191970" stroke="#191970" points="143.4921,-191.1434 154.0618,-190.4141 145.3443,-184.3928 143.4921,-191.1434"/>
</g>
<!-- Node425632 -->
<g id="node20" class="node">
<title>Node425632</title>
<g id="a_node20"><a xlink:href="quickjs_8c.html#ad698ea01233894f912303776fe3c08c8" target="_top" xlink:title="JS_ToInt32Sat">
<polygon fill="none" stroke="#000000" points="148,-152.5 148,-171.5 230,-171.5 230,-152.5 148,-152.5"/>
<text text-anchor="middle" x="189" y="-159.5" font-family="Helvetica,sans-Serif" font-size="10.00" fill="#000000">JS_ToInt32Sat</text>
</a>
</g>
</g>
<!-- Node425162&#45;&gt;Node425632 -->
<g id="edge21" class="edge">
<title>Node425162&#45;&gt;Node425632</title>
<path fill="none" stroke="#191970" d="M101.2858,-162C113.1087,-162 125.7062,-162 137.5573,-162"/>
<polygon fill="#191970" stroke="#191970" points="137.7414,-165.5001 147.7414,-162 137.7414,-158.5001 137.7414,-165.5001"/>
</g>
<!-- Node425164 -->
<g id="node3" class="node">
<title>Node425164</title>
<g id="a_node3"><a xlink:href="quickjs_8c.html#a7ba39dd8c4124908e1c12e2d3267767c" target="_top" xlink:title="js_dtoa1">
<polygon fill="none" stroke="#000000" points="304,-323.5 304,-342.5 357,-342.5 357,-323.5 304,-323.5"/>
<text text-anchor="middle" x="330.5" y="-330.5" font-family="Helvetica,sans-Serif" font-size="10.00" fill="#000000">js_dtoa1</text>
</a>
</g>
</g>
<!-- Node425163&#45;&gt;Node425164 -->
<g id="edge2" class="edge">
<title>Node425163&#45;&gt;Node425164</title>
<path fill="none" stroke="#191970" d="M212.6839,-285.5405C235.8451,-294.8705 271.3222,-309.1616 297.2952,-319.6242"/>
<polygon fill="#191970" stroke="#191970" points="296.1553,-322.9383 306.7388,-323.4284 298.7709,-316.4453 296.1553,-322.9383"/>
</g>
<!-- Node425170 -->
<g id="node7" class="node">
<title>Node425170</title>
<g id="a_node7"><a xlink:href="quickjs_8c.html#a0ee6a3654a6016393fac5e1c108f403a" target="_top" xlink:title="JS_NewString">
<polygon fill="none" stroke="#000000" points="290.5,-266.5 290.5,-285.5 370.5,-285.5 370.5,-266.5 290.5,-266.5"/>
<text text-anchor="middle" x="330.5" y="-273.5" font-family="Helvetica,sans-Serif" font-size="10.00" fill="#000000">JS_NewString</text>
</a>
</g>
</g>
<!-- Node425163&#45;&gt;Node425170 -->
<g id="edge6" class="edge">
<title>Node425163&#45;&gt;Node425170</title>
<path fill="none" stroke="#191970" d="M213.0035,-276C231.3285,-276 257.2266,-276 280.0469,-276"/>
<polygon fill="#191970" stroke="#191970" points="280.2771,-279.5001 290.2771,-276 280.2771,-272.5001 280.2771,-279.5001"/>
</g>
<!-- Node425165 -->
<g id="node4" class="node">
<title>Node425165</title>
<g id="a_node4"><a xlink:href="quickjs_8c.html#a8005e0fac8fb44a3516d0d75375af433" target="_top" xlink:title="i64toa">
<polygon fill="none" stroke="#000000" points="448,-304.5 448,-323.5 491,-323.5 491,-304.5 448,-304.5"/>
<text text-anchor="middle" x="469.5" y="-311.5" font-family="Helvetica,sans-Serif" font-size="10.00" fill="#000000">i64toa</text>
</a>
</g>
</g>
<!-- Node425164&#45;&gt;Node425165 -->
<g id="edge3" class="edge">
<title>Node425164&#45;&gt;Node425165</title>
<path fill="none" stroke="#191970" d="M357.3006,-329.3366C380.2533,-326.1992 413.3506,-321.6751 437.6514,-318.3534"/>
<polygon fill="#191970" stroke="#191970" points="438.3665,-321.7883 447.8003,-316.9661 437.4184,-314.8528 438.3665,-321.7883"/>
</g>
<!-- Node425166 -->
<g id="node5" class="node">
<title>Node425166</title>
<g id="a_node5"><a xlink:href="quickjs_8c.html#a3361a59ceaddbd4c2081315f6f5f1978" target="_top" xlink:title="js_ecvt">
<polygon fill="none" stroke="#ff0000" points="445.5,-380.5 445.5,-399.5 493.5,-399.5 493.5,-380.5 445.5,-380.5"/>
<text text-anchor="middle" x="469.5" y="-387.5" font-family="Helvetica,sans-Serif" font-size="10.00" fill="#000000">js_ecvt</text>
</a>
</g>
</g>
<!-- Node425164&#45;&gt;Node425166 -->
<g id="edge4" class="edge">
<title>Node425164&#45;&gt;Node425166</title>
<path fill="none" stroke="#191970" d="M352.479,-342.5856C370.542,-350.402 396.836,-361.6402 420,-371 425.1208,-373.0691 430.5604,-375.2121 435.8879,-377.2805"/>
<polygon fill="#191970" stroke="#191970" points="434.6739,-380.5635 445.2636,-380.8914 437.1897,-374.0312 434.6739,-380.5635"/>
</g>
<!-- Node425168 -->
<g id="node6" class="node">
<title>Node425168</title>
<g id="a_node6"><a xlink:href="quickjs_8c.html#a982972948d4f4a4a0fe7306056c44a92" target="_top" xlink:title="js_fcvt">
<polygon fill="none" stroke="#ff0000" points="446.5,-342.5 446.5,-361.5 492.5,-361.5 492.5,-342.5 446.5,-342.5"/>
<text text-anchor="middle" x="469.5" y="-349.5" font-family="Helvetica,sans-Serif" font-size="10.00" fill="#000000">js_fcvt</text>
</a>
</g>
</g>
<!-- Node425164&#45;&gt;Node425168 -->
<g id="edge5" class="edge">
<title>Node425164&#45;&gt;Node425168</title>
<path fill="none" stroke="#191970" d="M357.3006,-336.6634C379.841,-339.7445 412.1647,-344.1628 436.3333,-347.4664"/>
<polygon fill="#191970" stroke="#191970" points="436.0871,-350.9652 446.469,-348.8519 437.0352,-344.0297 436.0871,-350.9652"/>
</g>
<!-- Node425171 -->
<g id="node8" class="node">
<title>Node425171</title>
<g id="a_node8"><a xlink:href="quickjs_8c.html#ac34cc554aab1e98c45a7f845fff64385" target="_top" xlink:title="JS_NewStringLen">
<polygon fill="none" stroke="#ff0000" points="422,-266.5 422,-285.5 517,-285.5 517,-266.5 422,-266.5"/>
<text text-anchor="middle" x="469.5" y="-273.5" font-family="Helvetica,sans-Serif" font-size="10.00" fill="#000000">JS_NewStringLen</text>
</a>
</g>
</g>
<!-- Node425170&#45;&gt;Node425171 -->
<g id="edge7" class="edge">
<title>Node425170&#45;&gt;Node425171</title>
<path fill="none" stroke="#191970" d="M370.7046,-276C383.4193,-276 397.7352,-276 411.4408,-276"/>
<polygon fill="#191970" stroke="#191970" points="411.7659,-279.5001 421.7659,-276 411.7659,-272.5001 411.7659,-279.5001"/>
</g>
<!-- Node425199 -->
<g id="node10" class="node">
<title>Node425199</title>
<g id="a_node10"><a xlink:href="quickjs_8c.html#aa059f309c30fd5166d16c82a97973146" target="_top" xlink:title="__JS_FreeValue">
<polygon fill="none" stroke="#000000" points="555,-228.5 555,-247.5 644,-247.5 644,-228.5 555,-228.5"/>
<text text-anchor="middle" x="599.5" y="-235.5" font-family="Helvetica,sans-Serif" font-size="10.00" fill="#000000">__JS_FreeValue</text>
</a>
</g>
</g>
<!-- Node425198&#45;&gt;Node425199 -->
<g id="edge9" class="edge">
<title>Node425198&#45;&gt;Node425199</title>
<path fill="none" stroke="#191970" d="M508.5043,-238C519.8396,-238 532.4377,-238 544.5577,-238"/>
<polygon fill="#191970" stroke="#191970" points="544.5879,-241.5001 554.5879,-238 544.5878,-234.5001 544.5879,-241.5001"/>
</g>
<!-- Node425200 -->
<g id="node11" class="node">
<title>Node425200</title>
<g id="a_node11"><a xlink:href="quickjs_8c.html#ab1ea3fad7d138be12144a38be4d36423" target="_top" xlink:title="__JS_FreeValueRT">
<polygon fill="none" stroke="#ff0000" points="680,-228.5 680,-247.5 782,-247.5 782,-228.5 680,-228.5"/>
<text text-anchor="middle" x="731" y="-235.5" font-family="Helvetica,sans-Serif" font-size="10.00" fill="#000000">__JS_FreeValueRT</text>
</a>
</g>
</g>
<!-- Node425199&#45;&gt;Node425200 -->
<g id="edge10" class="edge">
<title>Node425199&#45;&gt;Node425200</title>
<path fill="none" stroke="#191970" d="M644.0199,-238C652.2672,-238 661.0138,-238 669.6583,-238"/>
<polygon fill="#191970" stroke="#191970" points="669.7233,-241.5001 679.7233,-238 669.7232,-234.5001 669.7233,-241.5001"/>
</g>
<!-- Node425181 -->
<g id="node15" class="node">
<title>Node425181</title>
<g id="a_node15"><a xlink:href="quickjs_8h.html#a775522f2d084fc8fa0fcb33f390006b4" target="_top" xlink:title="JS_DupValue">
<polygon fill="none" stroke="#000000" points="292,-114.5 292,-133.5 369,-133.5 369,-114.5 292,-114.5"/>
<text text-anchor="middle" x="330.5" y="-121.5" font-family="Helvetica,sans-Serif" font-size="10.00" fill="#000000">JS_DupValue</text>
</a>
</g>
</g>
<!-- Node425228&#45;&gt;Node425181 -->
<g id="edge14" class="edge">
<title>Node425228&#45;&gt;Node425181</title>
<path fill="none" stroke="#191970" d="M241.2874,-124C254.4569,-124 268.544,-124 281.5434,-124"/>
<polygon fill="#191970" stroke="#191970" points="281.6971,-127.5001 291.6971,-124 281.697,-120.5001 281.6971,-127.5001"/>
</g>
<!-- Node425229 -->
<g id="node16" class="node">
<title>Node425229</title>
<g id="a_node16"><a xlink:href="quickjs_8c.html#a80748588bc6abe4b1e93c193dde82c00" target="_top" xlink:title="JS_IsNumber">
<polygon fill="none" stroke="#000000" points="292,-76.5 292,-95.5 369,-95.5 369,-76.5 292,-76.5"/>
<text text-anchor="middle" x="330.5" y="-83.5" font-family="Helvetica,sans-Serif" font-size="10.00" fill="#000000">JS_IsNumber</text>
</a>
</g>
</g>
<!-- Node425228&#45;&gt;Node425229 -->
<g id="edge15" class="edge">
<title>Node425228&#45;&gt;Node425229</title>
<path fill="none" stroke="#191970" d="M224.7064,-114.411C242.9727,-109.5056 265.4084,-103.4804 284.9112,-98.2429"/>
<polygon fill="#191970" stroke="#191970" points="286.055,-101.5599 294.805,-95.5859 284.2394,-94.7994 286.055,-101.5599"/>
</g>
<!-- Node425231 -->
<g id="node18" class="node">
<title>Node425231</title>
<g id="a_node18"><a xlink:href="quickjs_8c.html#a9a2e141f21d9ea38a3a23c9b4eb6e356" target="_top" xlink:title="__JS_ToFloat64Free">
<polygon fill="none" stroke="#000000" points="277,-190.5 277,-209.5 384,-209.5 384,-190.5 277,-190.5"/>
<text text-anchor="middle" x="330.5" y="-197.5" font-family="Helvetica,sans-Serif" font-size="10.00" fill="#000000">__JS_ToFloat64Free</text>
</a>
</g>
</g>
<!-- Node425230&#45;&gt;Node425231 -->
<g id="edge17" class="edge">
<title>Node425230&#45;&gt;Node425231</title>
<path fill="none" stroke="#191970" d="M237.6963,-200C247.0709,-200 257.0194,-200 266.7873,-200"/>
<polygon fill="#191970" stroke="#191970" points="266.8694,-203.5001 276.8694,-200 266.8693,-196.5001 266.8694,-203.5001"/>
</g>
<!-- Node425231&#45;&gt;Node425198 -->
<g id="edge18" class="edge">
<title>Node425231&#45;&gt;Node425198</title>
<path fill="none" stroke="#191970" d="M365.5756,-209.589C383.5191,-214.4944 405.5584,-220.5196 424.7167,-225.7571"/>
<polygon fill="#191970" stroke="#191970" points="423.8666,-229.1531 434.4357,-228.4141 425.7126,-222.4008 423.8666,-229.1531"/>
</g>
<!-- Node425231&#45;&gt;Node425226 -->
<g id="edge19" class="edge">
<title>Node425231&#45;&gt;Node425226</title>
<path fill="none" stroke="#191970" d="M365.5756,-190.411C383.5191,-185.5056 405.5584,-179.4804 424.7167,-174.2429"/>
<polygon fill="#191970" stroke="#191970" points="425.7126,-177.5992 434.4357,-171.5859 423.8666,-170.8469 425.7126,-177.5992"/>
</g>
<!-- Node425232 -->
<g id="node19" class="node">
<title>Node425232</title>
<g id="a_node19"><a xlink:href="quickjs_8c.html#ae738291483438efefca5c9fa4d269504" target="_top" xlink:title="JS_ToNumberFree">
<polygon fill="none" stroke="#ff0000" points="420,-190.5 420,-209.5 519,-209.5 519,-190.5 420,-190.5"/>
<text text-anchor="middle" x="469.5" y="-197.5" font-family="Helvetica,sans-Serif" font-size="10.00" fill="#000000">JS_ToNumberFree</text>
</a>
</g>
</g>
<!-- Node425231&#45;&gt;Node425232 -->
<g id="edge20" class="edge">
<title>Node425231&#45;&gt;Node425232</title>
<path fill="none" stroke="#191970" d="M384.241,-200C392.6052,-200 401.2907,-200 409.7778,-200"/>
<polygon fill="#191970" stroke="#191970" points="409.9969,-203.5001 419.9968,-200 409.9968,-196.5001 409.9969,-203.5001"/>
</g>
<!-- Node425632&#45;&gt;Node425181 -->
<g id="edge22" class="edge">
<title>Node425632&#45;&gt;Node425181</title>
<path fill="none" stroke="#191970" d="M224.7064,-152.411C242.9727,-147.5056 265.4084,-141.4804 284.9112,-136.2429"/>
<polygon fill="#191970" stroke="#191970" points="286.055,-139.5599 294.805,-133.5859 284.2394,-132.7994 286.055,-139.5599"/>
</g>
<!-- Node425633 -->
<g id="node21" class="node">
<title>Node425633</title>
<g id="a_node21"><a xlink:href="quickjs_8c.html#a419bec82cb80e98e08626a9a5212ec4c" target="_top" xlink:title="JS_ToInt32SatFree">
<polygon fill="none" stroke="#000000" points="280,-152.5 280,-171.5 381,-171.5 381,-152.5 280,-152.5"/>
<text text-anchor="middle" x="330.5" y="-159.5" font-family="Helvetica,sans-Serif" font-size="10.00" fill="#000000">JS_ToInt32SatFree</text>
</a>
</g>
</g>
<!-- Node425632&#45;&gt;Node425633 -->
<g id="edge23" class="edge">
<title>Node425632&#45;&gt;Node425633</title>
<path fill="none" stroke="#191970" d="M230.308,-162C242.6588,-162 256.4665,-162 269.7894,-162"/>
<polygon fill="#191970" stroke="#191970" points="269.8508,-165.5001 279.8508,-162 269.8508,-158.5001 269.8508,-165.5001"/>
</g>
<!-- Node425633&#45;&gt;Node425198 -->
<g id="edge25" class="edge">
<title>Node425633&#45;&gt;Node425198</title>
<path fill="none" stroke="#191970" d="M365.0286,-171.556C371.5962,-174.1115 378.2168,-177.2372 384,-181 403.5001,-193.6878 400.6616,-206.0671 420,-219 422.8801,-220.9261 425.9834,-222.6966 429.182,-224.3156"/>
<polygon fill="#191970" stroke="#191970" points="427.7906,-227.5277 438.3425,-228.4804 430.6878,-221.1554 427.7906,-227.5277"/>
</g>
<!-- Node425633&#45;&gt;Node425226 -->
<g id="edge26" class="edge">
<title>Node425633&#45;&gt;Node425226</title>
<path fill="none" stroke="#191970" d="M381.0754,-162C392.3673,-162 404.3806,-162 415.794,-162"/>
<polygon fill="#191970" stroke="#191970" points="416.069,-165.5001 426.069,-162 416.069,-158.5001 416.069,-165.5001"/>
</g>
<!-- Node425633&#45;&gt;Node425232 -->
<g id="edge27" class="edge">
<title>Node425633&#45;&gt;Node425232</title>
<path fill="none" stroke="#191970" d="M365.5756,-171.589C383.5191,-176.4944 405.5584,-182.5196 424.7167,-187.7571"/>
<polygon fill="#191970" stroke="#191970" points="423.8666,-191.1531 434.4357,-190.4141 425.7126,-184.4008 423.8666,-191.1531"/>
</g>
<!-- Node425234 -->
<g id="node22" class="node">
<title>Node425234</title>
<g id="a_node22"><a xlink:href="quickjs_8c.html#aaaa960ff4bdf4b4dd3017b555844c397" target="_top" xlink:title="is_bigint_mode">
<polygon fill="none" stroke="#000000" points="428.5,-114.5 428.5,-133.5 510.5,-133.5 510.5,-114.5 428.5,-114.5"/>
<text text-anchor="middle" x="469.5" y="-121.5" font-family="Helvetica,sans-Serif" font-size="10.00" fill="#000000">is_bigint_mode</text>
</a>
</g>
</g>
<!-- Node425633&#45;&gt;Node425234 -->
<g id="edge24" class="edge">
<title>Node425633&#45;&gt;Node425234</title>
<path fill="none" stroke="#191970" d="M365.5756,-152.411C383.5191,-147.5056 405.5584,-141.4804 424.7167,-136.2429"/>
<polygon fill="#191970" stroke="#191970" points="425.7126,-139.5992 434.4357,-133.5859 423.8666,-132.8469 425.7126,-139.5992"/>
</g>
</g>
</svg>
        <g id="navigator" transform="translate(0 0)" fill="#404254">
                <rect fill="#f2f5e9" fill-opacity="0.5" stroke="#606060" stroke-width=".5" x="0" y="0" width="60" height="60"/>
                <use id="zoomplus" xlink:href="#zoomPlus" x="17" y="9" onmousedown="handleZoom(evt,'in')"/>
                <use id="zoomminus" xlink:href="#zoomMin" x="42" y="9" onmousedown="handleZoom(evt,'out')"/>
                <use id="reset" xlink:href="#resetDef" x="30" y="36" onmousedown="handleReset()"/>
                <g id="arrowUp" xlink:href="#dirArrow" transform="translate(30 24)" onmousedown="handlePan(0,-1)">
                  <use xlink:href="#rim" fill="#404040">
                        <set attributeName="fill" to="#808080" begin="arrowUp.mouseover" end="arrowUp.mouseout"/>
                  </use>
                  <path fill="none" stroke="white" stroke-width="1.5" d="M0,-3.0v7 M-2.5,-0.5L0,-3.0L2.5,-0.5"/>
                </g>
                <g id="arrowRight" xlink:href="#dirArrow" transform="rotate(90) translate(36 -43)" onmousedown="handlePan(1,0)">
                  <use xlink:href="#rim" fill="#404040">
                        <set attributeName="fill" to="#808080" begin="arrowRight.mouseover" end="arrowRight.mouseout"/>
                  </use>
                  <path fill="none" stroke="white" stroke-width="1.5" d="M0,-3.0v7 M-2.5,-0.5L0,-3.0L2.5,-0.5"/>
                </g>
                <g id="arrowDown" xlink:href="#dirArrow" transform="rotate(180) translate(-30 -48)" onmousedown="handlePan(0,1)">
                  <use xlink:href="#rim" fill="#404040">
                        <set attributeName="fill" to="#808080" begin="arrowDown.mouseover" end="arrowDown.mouseout"/>
                  </use>
                  <path fill="none" stroke="white" stroke-width="1.5" d="M0,-3.0v7 M-2.5,-0.5L0,-3.0L2.5,-0.5"/>
                </g>
                <g id="arrowLeft" xlink:href="#dirArrow" transform="rotate(270) translate(-36 17)" onmousedown="handlePan(-1,0)">
                  <use xlink:href="#rim" fill="#404040">
                        <set attributeName="fill" to="#808080" begin="arrowLeft.mouseover" end="arrowLeft.mouseout"/>
                  </use>
                  <path fill="none" stroke="white" stroke-width="1.5" d="M0,-3.0v7 M-2.5,-0.5L0,-3.0L2.5,-0.5"/>
                </g>
        </g>
        <svg viewBox="0 0 15 15" width="100%" height="30px" preserveAspectRatio="xMaxYMin meet">
         <g id="arrow_out" transform="scale(0.3 0.3)">
          <a xlink:href="quickjs_8c_adf92b748274979904d269c4d3682e4dd_cgraph_org.svg" target="_base">
           <rect id="button" ry="5" rx="5" y="6" x="6" height="38" width="38"
                fill="#f2f5e9" fill-opacity="0.5" stroke="#606060" stroke-width="1.0"/>
           <path id="arrow"
             d="M 11.500037,31.436501 C 11.940474,20.09759 22.043105,11.32322 32.158766,21.979434 L 37.068811,17.246167 C 37.068811,17.246167 37.088388,32 37.088388,32 L 22.160133,31.978069 C 22.160133,31.978069 26.997745,27.140456 26.997745,27.140456 C 18.528582,18.264221 13.291696,25.230495 11.500037,31.436501 z"
             style="fill:#404040;"/>
          </a>
         </g>
        </svg>
</svg>
