<?xml version="1.0" encoding="UTF-8" standalone="no"?>
<!DOCTYPE svg PUBLIC "-//W3C//DTD SVG 1.1//EN"
 "http://www.w3.org/Graphics/SVG/1.1/DTD/svg11.dtd">
<!-- Generated by graphviz version 2.40.1 (20161225.0304)
 -->
<!-- Title: js_std_file_tell Pages: 1 -->
<svg width="577pt" height="139pt"
 viewBox="0.00 0.00 577.00 139.00" xmlns="http://www.w3.org/2000/svg" xmlns:xlink="http://www.w3.org/1999/xlink">
<g id="graph0" class="graph" transform="scale(1 1) rotate(0) translate(4 135)">
<title>js_std_file_tell</title>
<!-- Node9534 -->
<g id="node1" class="node">
<title>Node9534</title>
<polygon fill="#bfbfbf" stroke="#000000" points="0,-78.5 0,-97.5 79,-97.5 79,-78.5 0,-78.5"/>
<text text-anchor="middle" x="39.5" y="-85.5" font-family="Helvetica,sans-Serif" font-size="10.00" fill="#000000">js_std_file_tell</text>
</g>
<!-- Node9535 -->
<g id="node2" class="node">
<title>Node9535</title>
<g id="a_node2"><a xlink:href="quickjs_8c.html#acfced0527a056a74dd8439904b7936dd" target="_top" xlink:title="JS_NewInt64">
<polygon fill="none" stroke="#000000" points="242.5,-111.5 242.5,-130.5 318.5,-130.5 318.5,-111.5 242.5,-111.5"/>
<text text-anchor="middle" x="280.5" y="-118.5" font-family="Helvetica,sans-Serif" font-size="10.00" fill="#000000">JS_NewInt64</text>
</a>
</g>
</g>
<!-- Node9534&#45;&gt;Node9535 -->
<g id="edge1" class="edge">
<title>Node9534&#45;&gt;Node9535</title>
<path fill="none" stroke="#191970" d="M79.0264,-93.4123C120.9002,-99.1461 187.0545,-108.2046 232.0414,-114.3646"/>
<polygon fill="#191970" stroke="#191970" points="231.765,-117.8593 242.1474,-115.7484 232.7147,-110.924 231.765,-117.8593"/>
</g>
<!-- Node9537 -->
<g id="node4" class="node">
<title>Node9537</title>
<g id="a_node4"><a xlink:href="quickjs-libc_8c.html#ae0b015235e2737bee13533c992f0b71b" target="_top" xlink:title="js_std_file_get">
<polygon fill="none" stroke="#000000" points="115,-59.5 115,-78.5 195,-78.5 195,-59.5 115,-59.5"/>
<text text-anchor="middle" x="155" y="-66.5" font-family="Helvetica,sans-Serif" font-size="10.00" fill="#000000">js_std_file_get</text>
</a>
</g>
</g>
<!-- Node9534&#45;&gt;Node9537 -->
<g id="edge3" class="edge">
<title>Node9534&#45;&gt;Node9537</title>
<path fill="none" stroke="#191970" d="M79.2485,-81.4613C87.5032,-80.1034 96.303,-78.6558 104.8747,-77.2457"/>
<polygon fill="#191970" stroke="#191970" points="105.4869,-80.6921 114.7861,-75.6153 104.3506,-73.785 105.4869,-80.6921"/>
</g>
<!-- Node9536 -->
<g id="node3" class="node">
<title>Node9536</title>
<g id="a_node3"><a xlink:href="quickjs_8h.html#a2050bc428da1c65ac7eb87c3fa3b0392" target="_top" xlink:title="JS_NewInt32">
<polygon fill="none" stroke="#000000" points="493,-76.5 493,-95.5 569,-95.5 569,-76.5 493,-76.5"/>
<text text-anchor="middle" x="531" y="-83.5" font-family="Helvetica,sans-Serif" font-size="10.00" fill="#000000">JS_NewInt32</text>
</a>
</g>
</g>
<!-- Node9535&#45;&gt;Node9536 -->
<g id="edge2" class="edge">
<title>Node9535&#45;&gt;Node9536</title>
<path fill="none" stroke="#191970" d="M318.603,-119.3191C354.5064,-117.3175 409.7009,-113.1614 457,-105 467.2932,-103.2239 478.2562,-100.7426 488.5029,-98.158"/>
<polygon fill="#191970" stroke="#191970" points="489.6664,-101.4717 498.4594,-95.5613 487.8998,-94.6983 489.6664,-101.4717"/>
</g>
<!-- Node9538 -->
<g id="node5" class="node">
<title>Node9538</title>
<g id="a_node5"><a xlink:href="quickjs-libc_8c.html#ada7a3010456e1b1c398aa2ba7f3fc2f9" target="_top" xlink:title="js_std_throw_errno">
<polygon fill="none" stroke="#000000" points="231,-40.5 231,-59.5 330,-59.5 330,-40.5 231,-40.5"/>
<text text-anchor="middle" x="280.5" y="-47.5" font-family="Helvetica,sans-Serif" font-size="10.00" fill="#000000">js_std_throw_errno</text>
</a>
</g>
</g>
<!-- Node9537&#45;&gt;Node9538 -->
<g id="edge4" class="edge">
<title>Node9537&#45;&gt;Node9538</title>
<path fill="none" stroke="#191970" d="M195.054,-62.936C203.2005,-61.7027 211.9367,-60.3801 220.6004,-59.0685"/>
<polygon fill="#191970" stroke="#191970" points="221.3343,-62.4973 230.6977,-57.5398 220.2864,-55.5762 221.3343,-62.4973"/>
</g>
<!-- Node9539 -->
<g id="node6" class="node">
<title>Node9539</title>
<g id="a_node6"><a xlink:href="quickjs_8h.html#ad80a83d73e9b7d872b88fbf2943aebe9" target="_top" xlink:title="JS_IsException">
<polygon fill="none" stroke="#000000" points="368.5,-76.5 368.5,-95.5 454.5,-95.5 454.5,-76.5 368.5,-76.5"/>
<text text-anchor="middle" x="411.5" y="-83.5" font-family="Helvetica,sans-Serif" font-size="10.00" fill="#000000">JS_IsException</text>
</a>
</g>
</g>
<!-- Node9538&#45;&gt;Node9539 -->
<g id="edge5" class="edge">
<title>Node9538&#45;&gt;Node9539</title>
<path fill="none" stroke="#191970" d="M315.2617,-59.5528C331.1026,-63.9061 350.0456,-69.1118 366.9192,-73.7488"/>
<polygon fill="#191970" stroke="#191970" points="366.0059,-77.1275 376.5759,-76.4025 367.8608,-70.3777 366.0059,-77.1275"/>
</g>
<!-- Node9540 -->
<g id="node7" class="node">
<title>Node9540</title>
<g id="a_node7"><a xlink:href="quickjs-libc_8c.html#a980a3e92299b994c60d696fc295edf11" target="_top" xlink:title="js_new_std_error">
<polygon fill="none" stroke="#ff0000" points="366,-38.5 366,-57.5 457,-57.5 457,-38.5 366,-38.5"/>
<text text-anchor="middle" x="411.5" y="-45.5" font-family="Helvetica,sans-Serif" font-size="10.00" fill="#000000">js_new_std_error</text>
</a>
</g>
</g>
<!-- Node9538&#45;&gt;Node9540 -->
<g id="edge6" class="edge">
<title>Node9538&#45;&gt;Node9540</title>
<path fill="none" stroke="#191970" d="M330.0255,-49.2439C338.3702,-49.1165 347.0834,-48.9835 355.577,-48.8538"/>
<polygon fill="#191970" stroke="#191970" points="355.8435,-52.3502 365.7889,-48.6979 355.7366,-45.351 355.8435,-52.3502"/>
</g>
<!-- Node9659 -->
<g id="node8" class="node">
<title>Node9659</title>
<g id="a_node8"><a xlink:href="quickjs_8c.html#a3ae8a83da71ef07d6e858d172d9c5a81" target="_top" xlink:title="JS_Throw">
<polygon fill="none" stroke="#ff0000" points="381,-.5 381,-19.5 442,-19.5 442,-.5 381,-.5"/>
<text text-anchor="middle" x="411.5" y="-7.5" font-family="Helvetica,sans-Serif" font-size="10.00" fill="#000000">JS_Throw</text>
</a>
</g>
</g>
<!-- Node9538&#45;&gt;Node9659 -->
<g id="edge8" class="edge">
<title>Node9538&#45;&gt;Node9659</title>
<path fill="none" stroke="#191970" d="M311.8778,-40.419C329.6682,-34.9868 352.118,-28.1319 371.2007,-22.3051"/>
<polygon fill="#191970" stroke="#191970" points="372.2883,-25.6326 380.8303,-19.3648 370.244,-18.9378 372.2883,-25.6326"/>
</g>
<!-- Node9540&#45;&gt;Node9536 -->
<g id="edge7" class="edge">
<title>Node9540&#45;&gt;Node9536</title>
<path fill="none" stroke="#191970" d="M441.6549,-57.589C456.6566,-62.3594 474.9883,-68.1888 491.1338,-73.3229"/>
<polygon fill="#191970" stroke="#191970" points="490.2643,-76.719 500.8548,-76.4141 492.3856,-70.0482 490.2643,-76.719"/>
</g>
</g>
</svg>
