<?xml version="1.0" encoding="UTF-8" standalone="no"?>
<!DOCTYPE svg PUBLIC "-//W3C//DTD SVG 1.1//EN"
 "http://www.w3.org/Graphics/SVG/1.1/DTD/svg11.dtd">
<!-- Generated by graphviz version 2.40.1 (20161225.0304)
 -->
<!-- Title: js_unary_arith_slow Pages: 1 -->
<!--zoomable 1043 -->
<svg id="main" version="1.1" xmlns="http://www.w3.org/2000/svg" xmlns:xlink="http://www.w3.org/1999/xlink" xml:space="preserve" onload="init(evt)">
<style type="text/css"><![CDATA[
.edge:hover path { stroke: red; }
.edge:hover polygon { stroke: red; fill: red; }
]]></style>
<script type="text/javascript"><![CDATA[
var edges = document.getElementsByTagName('g');
if (edges && edges.length) {
  for (var i=0;i<edges.length;i++) {
    if (edges[i].id.substr(0,4)=='edge') {
      edges[i].setAttribute('class','edge');
    }
  }
}
]]></script>
        <defs>
                <circle id="rim" cx="0" cy="0" r="7"/>
                <circle id="rim2" cx="0" cy="0" r="3.5"/>
                <g id="zoomPlus">
                        <use xlink:href="#rim" fill="#404040">
                                <set attributeName="fill" to="#808080" begin="zoomplus.mouseover" end="zoomplus.mouseout"/>
                        </use>
                        <path d="M-4,0h8M0,-4v8" fill="none" stroke="white" stroke-width="1.5" pointer-events="none"/>
                </g>
                <g id="zoomMin">
                        <use xlink:href="#rim" fill="#404040">
                                <set attributeName="fill" to="#808080" begin="zoomminus.mouseover" end="zoomminus.mouseout"/>
                        </use>
                        <path d="M-4,0h8" fill="none" stroke="white" stroke-width="1.5" pointer-events="none"/>
                </g>
                <g id="dirArrow">
                        <path fill="none" stroke="white" stroke-width="1.5" d="M0,-3.0v7 M-2.5,-0.5L0,-3.0L2.5,-0.5"/>
                </g>
               <g id="resetDef">
                       <use xlink:href="#rim2" fill="#404040">
                               <set attributeName="fill" to="#808080" begin="reset.mouseover" end="reset.mouseout"/>
                       </use>
               </g>
        </defs>

<script type="text/javascript">
var viewWidth = 709;
var viewHeight = 1043;
var sectionId = 'dynsection-710';
</script>
<script xlink:href="svgpan.js"/>
<svg id="graph" class="graph">
<g id="viewport">
<title>js_unary_arith_slow</title>
<!-- Node234304 -->
<g id="node1" class="node">
<title>Node234304</title>
<polygon fill="#bfbfbf" stroke="#000000" points="0,-162.3661 0,-181.3661 103,-181.3661 103,-162.3661 0,-162.3661"/>
<text text-anchor="middle" x="51.5" y="-169.3661" font-family="Helvetica,sans-Serif" font-size="10.00" fill="#000000">js_unary_arith_slow</text>
</g>
<!-- Node234305 -->
<g id="node2" class="node">
<title>Node234305</title>
<g id="a_node2"><a xlink:href="quickjs_8c.html#ac2894ff4edcdb4e6841bcce9c76081e3" target="_top" xlink:title="JS_CallInternal">
<polygon fill="none" stroke="#000000" points="139,-162.3661 139,-181.3661 222,-181.3661 222,-162.3661 139,-162.3661"/>
<text text-anchor="middle" x="180.5" y="-169.3661" font-family="Helvetica,sans-Serif" font-size="10.00" fill="#000000">JS_CallInternal</text>
</a>
</g>
</g>
<!-- Node234304&#45;&gt;Node234305 -->
<g id="edge1" class="edge">
<title>Node234304&#45;&gt;Node234305</title>
<path fill="none" stroke="#191970" d="M113.2655,-171.8661C121.8746,-171.8661 130.5488,-171.8661 138.6731,-171.8661"/>
<polygon fill="#191970" stroke="#191970" points="113.226,-168.3662 103.2259,-171.8661 113.2259,-175.3662 113.226,-168.3662"/>
</g>
<!-- Node234305&#45;&gt;Node234305 -->
<g id="edge43" class="edge">
<title>Node234305&#45;&gt;Node234305</title>
<path fill="none" stroke="#191970" d="M156.6906,-190.8953C157.9893,-195.9941 165.9258,-199.8661 180.5,-199.8661 203.25,-199.8661 209.8262,-190.4314 200.2285,-181.6232"/>
<polygon fill="#191970" stroke="#191970" points="159.9465,-192.1859 160.7715,-181.6232 153.5396,-189.366 159.9465,-192.1859"/>
</g>
<!-- Node234306 -->
<g id="node3" class="node">
<title>Node234306</title>
<g id="a_node3"><a xlink:href="quickjs_8c.html#ade71a22dc56e7371392393df663b28b3" target="_top" xlink:title="async_func_resume">
<polygon fill="none" stroke="#000000" points="258,-922.3661 258,-941.3661 362,-941.3661 362,-922.3661 258,-922.3661"/>
<text text-anchor="middle" x="310" y="-929.3661" font-family="Helvetica,sans-Serif" font-size="10.00" fill="#000000">async_func_resume</text>
</a>
</g>
</g>
<!-- Node234305&#45;&gt;Node234306 -->
<g id="edge2" class="edge">
<title>Node234305&#45;&gt;Node234306</title>
<path fill="none" stroke="#191970" d="M181.2876,-191.5782C185.468,-290.8774 206.8246,-736.549 258,-863.8661 267.4226,-887.3083 287.2617,-909.6029 299.5278,-921.9365"/>
<polygon fill="#191970" stroke="#191970" points="184.7792,-191.3012 180.871,-181.4535 177.7852,-191.589 184.7792,-191.3012"/>
</g>
<!-- Node234318 -->
<g id="node8" class="node">
<title>Node234318</title>
<g id="a_node8"><a xlink:href="quickjs_8c.html#a1a4c02a29525d5cb2085dd8bca3af350" target="_top" xlink:title="JS_Call">
<polygon fill="none" stroke="#ff0000" points="284.5,-402.3661 284.5,-421.3661 335.5,-421.3661 335.5,-402.3661 284.5,-402.3661"/>
<text text-anchor="middle" x="310" y="-409.3661" font-family="Helvetica,sans-Serif" font-size="10.00" fill="#000000">JS_Call</text>
</a>
</g>
</g>
<!-- Node234305&#45;&gt;Node234318 -->
<g id="edge7" class="edge">
<title>Node234305&#45;&gt;Node234318</title>
<path fill="none" stroke="#191970" d="M192.6785,-190.2909C220.8408,-238.5243 289.3481,-366.0423 306.2053,-402.3522"/>
<polygon fill="#191970" stroke="#191970" points="195.5776,-188.318 187.4625,-181.5066 189.5588,-191.892 195.5776,-188.318"/>
</g>
<!-- Node234350 -->
<g id="node15" class="node">
<title>Node234350</title>
<g id="a_node15"><a xlink:href="quickjs_8c.html#ad35594576a14c10812efaf958c99af8a" target="_top" xlink:title="JS_CallConstructorInternal">
<polygon fill="none" stroke="#ff0000" points="567,-1.3661 567,-20.3661 701,-20.3661 701,-1.3661 567,-1.3661"/>
<text text-anchor="middle" x="634" y="-8.3661" font-family="Helvetica,sans-Serif" font-size="10.00" fill="#000000">JS_CallConstructorInternal</text>
</a>
</g>
</g>
<!-- Node234305&#45;&gt;Node234350 -->
<g id="edge38" class="edge">
<title>Node234305&#45;&gt;Node234350</title>
<path fill="none" stroke="#191970" d="M187.6956,-152.8534C199.5549,-128.8303 225.1945,-89.1616 258,-67.8661 354.8661,-4.9862 494.0678,2.8715 573.094,-1.3603"/>
<polygon fill="#191970" stroke="#191970" points="184.447,-151.5416 183.476,-162.0919 190.8143,-154.4498 184.447,-151.5416"/>
</g>
<!-- Node234401 -->
<g id="node30" class="node">
<title>Node234401</title>
<g id="a_node30"><a xlink:href="quickjs_8c.html#a75f6ee5e4235a7dc99889f3d2eb2c147" target="_top" xlink:title="JS_CallFree">
<polygon fill="none" stroke="#ff0000" points="274.5,-86.3661 274.5,-105.3661 345.5,-105.3661 345.5,-86.3661 274.5,-86.3661"/>
<text text-anchor="middle" x="310" y="-93.3661" font-family="Helvetica,sans-Serif" font-size="10.00" fill="#000000">JS_CallFree</text>
</a>
</g>
</g>
<!-- Node234305&#45;&gt;Node234401 -->
<g id="edge39" class="edge">
<title>Node234305&#45;&gt;Node234401</title>
<path fill="none" stroke="#191970" d="M193.9766,-155.2892C209.1168,-141.8557 234.6365,-123.9866 258,-110.8661 263.2017,-107.945 268.8215,-105.0748 274.3777,-102.5079"/>
<polygon fill="#191970" stroke="#191970" points="191.5197,-152.7959 186.7129,-162.2375 196.3585,-157.8542 191.5197,-152.7959"/>
</g>
<!-- Node234307 -->
<g id="node4" class="node">
<title>Node234307</title>
<g id="a_node4"><a xlink:href="quickjs_8c.html#a9d95ebd661628910e9e05ee872340848" target="_top" xlink:title="js_generator_function_call">
<polygon fill="none" stroke="#ff0000" points="399.5,-1015.3661 399.5,-1034.3661 529.5,-1034.3661 529.5,-1015.3661 399.5,-1015.3661"/>
<text text-anchor="middle" x="464.5" y="-1022.3661" font-family="Helvetica,sans-Serif" font-size="10.00" fill="#000000">js_generator_function_call</text>
</a>
</g>
</g>
<!-- Node234306&#45;&gt;Node234307 -->
<g id="edge3" class="edge">
<title>Node234306&#45;&gt;Node234307</title>
<path fill="none" stroke="#191970" d="M325.9957,-949.003C342.529,-965.7622 369.8284,-990.8851 398,-1005.8661 405.1029,-1009.6433 413.0429,-1012.7448 420.8953,-1015.2656"/>
<polygon fill="#191970" stroke="#191970" points="328.2486,-946.2972 318.7875,-941.5287 323.21,-951.1564 328.2486,-946.2972"/>
</g>
<!-- Node234311 -->
<g id="node5" class="node">
<title>Node234311</title>
<g id="a_node5"><a xlink:href="quickjs_8c.html#a1bf6b62983e8fff99c0a5d5a9f486115" target="_top" xlink:title="js_async_function_resume">
<polygon fill="none" stroke="#ff0000" points="398,-878.3661 398,-897.3661 531,-897.3661 531,-878.3661 398,-878.3661"/>
<text text-anchor="middle" x="464.5" y="-885.3661" font-family="Helvetica,sans-Serif" font-size="10.00" fill="#000000">js_async_function_resume</text>
</a>
</g>
</g>
<!-- Node234306&#45;&gt;Node234311 -->
<g id="edge4" class="edge">
<title>Node234306&#45;&gt;Node234311</title>
<path fill="none" stroke="#191970" d="M353.3344,-919.5249C377.9423,-912.5169 408.279,-903.8773 431.0412,-897.3948"/>
<polygon fill="#191970" stroke="#191970" points="352.1831,-916.2136 343.5242,-922.3188 354.1005,-922.9459 352.1831,-916.2136"/>
</g>
<!-- Node234316 -->
<g id="node6" class="node">
<title>Node234316</title>
<g id="a_node6"><a xlink:href="quickjs_8c.html#a89b019c704a2d2914bc30b30a72040b3" target="_top" xlink:title="js_async_generator\l_resume_next">
<polygon fill="none" stroke="#000000" points="414,-965.8661 414,-995.8661 515,-995.8661 515,-965.8661 414,-965.8661"/>
<text text-anchor="start" x="422" y="-983.8661" font-family="Helvetica,sans-Serif" font-size="10.00" fill="#000000">js_async_generator</text>
<text text-anchor="middle" x="464.5" y="-972.8661" font-family="Helvetica,sans-Serif" font-size="10.00" fill="#000000">_resume_next</text>
</a>
</g>
</g>
<!-- Node234306&#45;&gt;Node234316 -->
<g id="edge5" class="edge">
<title>Node234306&#45;&gt;Node234316</title>
<path fill="none" stroke="#191970" d="M349.8274,-944.4975C370.364,-951.0107 395.5533,-958.9995 417.0875,-965.8292"/>
<polygon fill="#191970" stroke="#191970" points="350.7461,-941.1171 340.1559,-941.4301 348.6299,-947.7896 350.7461,-941.1171"/>
</g>
<!-- Node234317 -->
<g id="node7" class="node">
<title>Node234317</title>
<g id="a_node7"><a xlink:href="quickjs_8c.html#aa74a153277ad53578233b4465c122100" target="_top" xlink:title="js_async_generator\l_function_call">
<polygon fill="none" stroke="#ff0000" points="414,-916.8661 414,-946.8661 515,-946.8661 515,-916.8661 414,-916.8661"/>
<text text-anchor="start" x="422" y="-934.8661" font-family="Helvetica,sans-Serif" font-size="10.00" fill="#000000">js_async_generator</text>
<text text-anchor="middle" x="464.5" y="-923.8661" font-family="Helvetica,sans-Serif" font-size="10.00" fill="#000000">_function_call</text>
</a>
</g>
</g>
<!-- Node234306&#45;&gt;Node234317 -->
<g id="edge6" class="edge">
<title>Node234306&#45;&gt;Node234317</title>
<path fill="none" stroke="#191970" d="M372.6264,-931.8661C386.3228,-931.8661 400.6559,-931.8661 413.8173,-931.8661"/>
<polygon fill="#191970" stroke="#191970" points="372.3067,-928.3662 362.3067,-931.8661 372.3066,-935.3662 372.3067,-928.3662"/>
</g>
<!-- Node234318&#45;&gt;Node234305 -->
<g id="edge18" class="edge">
<title>Node234318&#45;&gt;Node234305</title>
<path fill="none" stroke="#191970" d="M297.8914,-393.5611C269.8175,-345.4959 201.3844,-218.1267 184.3757,-181.5545"/>
<polygon fill="#191970" stroke="#191970" points="294.9725,-395.5006 303.089,-402.3104 300.9907,-391.9254 294.9725,-395.5006"/>
</g>
<!-- Node234318&#45;&gt;Node234311 -->
<g id="edge19" class="edge">
<title>Node234318&#45;&gt;Node234311</title>
<path fill="none" stroke="#191970" d="M311.1272,-431.8423C316.0011,-511.2099 337.8045,-803.1214 398,-868.8661 401.4866,-872.6741 405.6781,-875.7389 410.2394,-878.2028"/>
<polygon fill="#191970" stroke="#191970" points="314.6133,-431.5024 310.5284,-421.7267 307.6255,-431.9161 314.6133,-431.5024"/>
</g>
<!-- Node234319 -->
<g id="node9" class="node">
<title>Node234319</title>
<g id="a_node9"><a xlink:href="structqjs_1_1js__traits_3_01std_1_1function_3_01R_07Args_8_8_8_08_4_01_4.html#abc36cacd670b6b5f1773734a0586a02b" target="_top" xlink:title="qjs::js_traits\&lt; std\l::function\&lt; R(Args...)\l\&gt; \&gt;::unwrap">
<polygon fill="none" stroke="#000000" points="410,-516.3661 410,-557.3661 519,-557.3661 519,-516.3661 410,-516.3661"/>
<text text-anchor="start" x="418" y="-545.3661" font-family="Helvetica,sans-Serif" font-size="10.00" fill="#000000">qjs::js_traits&lt; std</text>
<text text-anchor="start" x="418" y="-534.3661" font-family="Helvetica,sans-Serif" font-size="10.00" fill="#000000">::function&lt; R(Args...)</text>
<text text-anchor="middle" x="464.5" y="-523.3661" font-family="Helvetica,sans-Serif" font-size="10.00" fill="#000000">&gt; &gt;::unwrap</text>
</a>
</g>
</g>
<!-- Node234318&#45;&gt;Node234319 -->
<g id="edge8" class="edge">
<title>Node234318&#45;&gt;Node234319</title>
<path fill="none" stroke="#191970" d="M322.8989,-429.6386C338.6897,-450.385 367.1609,-484.6766 398,-506.8661 402.7292,-510.2689 407.906,-513.4174 413.2168,-516.2932"/>
<polygon fill="#191970" stroke="#191970" points="325.5394,-427.3247 316.7551,-421.4013 319.9282,-431.5098 325.5394,-427.3247"/>
</g>
<!-- Node234320 -->
<g id="node10" class="node">
<title>Node234320</title>
<g id="a_node10"><a xlink:href="quickjs-libc_8c.html#abb1cbe3fdf905e81f603a3a0bfce475a" target="_top" xlink:title="call_handler">
<polygon fill="none" stroke="#ff0000" points="430.5,-478.3661 430.5,-497.3661 498.5,-497.3661 498.5,-478.3661 430.5,-478.3661"/>
<text text-anchor="middle" x="464.5" y="-485.3661" font-family="Helvetica,sans-Serif" font-size="10.00" fill="#000000">call_handler</text>
</a>
</g>
</g>
<!-- Node234318&#45;&gt;Node234320 -->
<g id="edge9" class="edge">
<title>Node234318&#45;&gt;Node234320</title>
<path fill="none" stroke="#191970" d="M330.32,-427.5286C347.54,-440.1713 373.3041,-457.6434 398,-468.8661 408.1661,-473.486 419.7222,-477.2567 430.3166,-480.1856"/>
<polygon fill="#191970" stroke="#191970" points="332.2495,-424.6011 322.1448,-421.4162 328.0579,-430.2074 332.2495,-424.6011"/>
</g>
<!-- Node234325 -->
<g id="node11" class="node">
<title>Node234325</title>
<g id="a_node11"><a xlink:href="quickjs_8c.html#aa049793cc8648d35fe81876a2543ca4e" target="_top" xlink:title="JS_GetIterator2">
<polygon fill="none" stroke="#ff0000" points="421.5,-440.3661 421.5,-459.3661 507.5,-459.3661 507.5,-440.3661 421.5,-440.3661"/>
<text text-anchor="middle" x="464.5" y="-447.3661" font-family="Helvetica,sans-Serif" font-size="10.00" fill="#000000">JS_GetIterator2</text>
</a>
</g>
</g>
<!-- Node234318&#45;&gt;Node234325 -->
<g id="edge10" class="edge">
<title>Node234318&#45;&gt;Node234325</title>
<path fill="none" stroke="#191970" d="M345.2646,-420.5396C369.2256,-426.4329 400.9273,-434.2301 425.6191,-440.3032"/>
<polygon fill="#191970" stroke="#191970" points="346.0591,-417.1308 335.5125,-418.1411 344.3872,-423.9282 346.0591,-417.1308"/>
</g>
<!-- Node234344 -->
<g id="node12" class="node">
<title>Node234344</title>
<g id="a_node12"><a xlink:href="quickjs_8c.html#ad6303fbd3add4afa0cb64b0aa6d431ce" target="_top" xlink:title="JS_IteratorNext2">
<polygon fill="none" stroke="#ff0000" points="419,-402.3661 419,-421.3661 510,-421.3661 510,-402.3661 419,-402.3661"/>
<text text-anchor="middle" x="464.5" y="-409.3661" font-family="Helvetica,sans-Serif" font-size="10.00" fill="#000000">JS_IteratorNext2</text>
</a>
</g>
</g>
<!-- Node234318&#45;&gt;Node234344 -->
<g id="edge11" class="edge">
<title>Node234318&#45;&gt;Node234344</title>
<path fill="none" stroke="#191970" d="M345.6603,-411.8661C367.4599,-411.8661 395.5551,-411.8661 418.9545,-411.8661"/>
<polygon fill="#191970" stroke="#191970" points="345.5126,-408.3662 335.5125,-411.8661 345.5125,-415.3662 345.5126,-408.3662"/>
</g>
<!-- Node234348 -->
<g id="node13" class="node">
<title>Node234348</title>
<g id="a_node13"><a xlink:href="quickjs_8c.html#a62424fefab7bcc97f49c978205c7a1c1" target="_top" xlink:title="js_for_await_of_next">
<polygon fill="none" stroke="#000000" points="411,-802.3661 411,-821.3661 518,-821.3661 518,-802.3661 411,-802.3661"/>
<text text-anchor="middle" x="464.5" y="-809.3661" font-family="Helvetica,sans-Serif" font-size="10.00" fill="#000000">js_for_await_of_next</text>
</a>
</g>
</g>
<!-- Node234318&#45;&gt;Node234348 -->
<g id="edge12" class="edge">
<title>Node234318&#45;&gt;Node234348</title>
<path fill="none" stroke="#191970" d="M315.2938,-431.4564C325.0566,-467.8527 346.3294,-548.4267 362,-616.8661 379.8203,-694.6938 343.7446,-734.2908 398,-792.8661 401.6717,-796.8301 406.1073,-799.9876 410.9249,-802.4997"/>
<polygon fill="#191970" stroke="#191970" points="318.6311,-430.3885 312.6525,-421.6417 311.8716,-432.2077 318.6311,-430.3885"/>
</g>
<!-- Node234349 -->
<g id="node14" class="node">
<title>Node234349</title>
<g id="a_node14"><a xlink:href="quickjs_8c.html#afd4ef2d701fa0702f321925b61c57bbf" target="_top" xlink:title="js_call_bound_function">
<polygon fill="none" stroke="#000000" points="406.5,-840.3661 406.5,-859.3661 522.5,-859.3661 522.5,-840.3661 406.5,-840.3661"/>
<text text-anchor="middle" x="464.5" y="-847.3661" font-family="Helvetica,sans-Serif" font-size="10.00" fill="#000000">js_call_bound_function</text>
</a>
</g>
</g>
<!-- Node234318&#45;&gt;Node234349 -->
<g id="edge14" class="edge">
<title>Node234318&#45;&gt;Node234349</title>
<path fill="none" stroke="#191970" d="M311.5246,-432.0726C317.6132,-507.507 342.5869,-771.3551 398,-830.8661 401.6002,-834.7326 405.9274,-837.8313 410.6252,-840.3118"/>
<polygon fill="#191970" stroke="#191970" points="314.978,-431.3399 310.7078,-421.6437 307.9994,-431.8865 314.978,-431.3399"/>
</g>
<!-- Node234379 -->
<g id="node16" class="node">
<title>Node234379</title>
<g id="a_node16"><a xlink:href="quickjs_8c.html#a3e852026d167fa03c673f86697dd3e67" target="_top" xlink:title="js_async_generator\l_resolve_or_reject">
<polygon fill="none" stroke="#ff0000" points="414,-352.8661 414,-382.8661 515,-382.8661 515,-352.8661 414,-352.8661"/>
<text text-anchor="start" x="422" y="-370.8661" font-family="Helvetica,sans-Serif" font-size="10.00" fill="#000000">js_async_generator</text>
<text text-anchor="middle" x="464.5" y="-359.8661" font-family="Helvetica,sans-Serif" font-size="10.00" fill="#000000">_resolve_or_reject</text>
</a>
</g>
</g>
<!-- Node234318&#45;&gt;Node234379 -->
<g id="edge20" class="edge">
<title>Node234318&#45;&gt;Node234379</title>
<path fill="none" stroke="#191970" d="M345.2915,-401.8155C365.6101,-396.029 391.4881,-388.6592 413.9377,-382.2658"/>
<polygon fill="#191970" stroke="#191970" points="344.1715,-398.4952 335.5125,-404.6004 346.0888,-405.2275 344.1715,-398.4952"/>
</g>
<!-- Node234362 -->
<g id="node17" class="node">
<title>Node234362</title>
<g id="a_node17"><a xlink:href="quickjs_8c.html#a2355fabf91f59212ea65baba1b0b7c1b" target="_top" xlink:title="js_async_generator_next">
<polygon fill="none" stroke="#000000" points="402,-314.3661 402,-333.3661 527,-333.3661 527,-314.3661 402,-314.3661"/>
<text text-anchor="middle" x="464.5" y="-321.3661" font-family="Helvetica,sans-Serif" font-size="10.00" fill="#000000">js_async_generator_next</text>
</a>
</g>
</g>
<!-- Node234318&#45;&gt;Node234362 -->
<g id="edge21" class="edge">
<title>Node234318&#45;&gt;Node234362</title>
<path fill="none" stroke="#191970" d="M327.4,-395.2695C344.2568,-379.995 371.1452,-357.6774 398,-343.8661 406.1481,-339.6756 415.3192,-336.2105 424.1878,-333.4094"/>
<polygon fill="#191970" stroke="#191970" points="324.9418,-392.7755 319.9748,-402.1339 329.6937,-397.9155 324.9418,-392.7755"/>
</g>
<!-- Node234363 -->
<g id="node18" class="node">
<title>Node234363</title>
<g id="a_node18"><a xlink:href="quickjs_8c.html#a50e94675d1c4cf67c88e72169ea3c21a" target="_top" xlink:title="js_dynamic_import">
<polygon fill="none" stroke="#000000" points="415.5,-162.3661 415.5,-181.3661 513.5,-181.3661 513.5,-162.3661 415.5,-162.3661"/>
<text text-anchor="middle" x="464.5" y="-169.3661" font-family="Helvetica,sans-Serif" font-size="10.00" fill="#000000">js_dynamic_import</text>
</a>
</g>
</g>
<!-- Node234318&#45;&gt;Node234363 -->
<g id="edge22" class="edge">
<title>Node234318&#45;&gt;Node234363</title>
<path fill="none" stroke="#191970" d="M312.0618,-392.2028C317.6391,-349.1581 336.9774,-246.0367 398,-190.8661 402.9877,-186.3567 408.9754,-182.911 415.287,-180.2794"/>
<polygon fill="#191970" stroke="#191970" points="308.5752,-391.8842 310.8764,-402.2261 315.5267,-392.7065 308.5752,-391.8842"/>
</g>
<!-- Node234374 -->
<g id="node19" class="node">
<title>Node234374</title>
<g id="a_node19"><a xlink:href="quickjs_8c.html#a8d4b24969540aff427939eeda47f451d" target="_top" xlink:title="js_function_apply">
<polygon fill="none" stroke="#ff0000" points="418.5,-124.3661 418.5,-143.3661 510.5,-143.3661 510.5,-124.3661 418.5,-124.3661"/>
<text text-anchor="middle" x="464.5" y="-131.3661" font-family="Helvetica,sans-Serif" font-size="10.00" fill="#000000">js_function_apply</text>
</a>
</g>
</g>
<!-- Node234318&#45;&gt;Node234374 -->
<g id="edge24" class="edge">
<title>Node234318&#45;&gt;Node234374</title>
<path fill="none" stroke="#191970" d="M314.2336,-392.0745C326.2654,-337.5652 362.1142,-187.0273 398,-152.8661 403.7398,-147.4021 410.9401,-143.4926 418.4664,-140.6993"/>
<polygon fill="#191970" stroke="#191970" points="310.7427,-391.6567 312.0363,-402.1723 317.5826,-393.1452 310.7427,-391.6567"/>
</g>
<!-- Node234382 -->
<g id="node20" class="node">
<title>Node234382</title>
<g id="a_node20"><a xlink:href="quickjs_8c.html#a677ad630a103e1f3d5129e0549112b50" target="_top" xlink:title="js_function_call">
<polygon fill="none" stroke="#000000" points="422.5,-276.3661 422.5,-295.3661 506.5,-295.3661 506.5,-276.3661 422.5,-276.3661"/>
<text text-anchor="middle" x="464.5" y="-283.3661" font-family="Helvetica,sans-Serif" font-size="10.00" fill="#000000">js_function_call</text>
</a>
</g>
</g>
<!-- Node234318&#45;&gt;Node234382 -->
<g id="edge26" class="edge">
<title>Node234318&#45;&gt;Node234382</title>
<path fill="none" stroke="#191970" d="M320.3075,-393.4007C334.6354,-369.4271 362.8218,-327.9346 398,-304.8661 405.3298,-300.0596 413.8867,-296.4493 422.3748,-293.7438"/>
<polygon fill="#191970" stroke="#191970" points="317.1829,-391.8119 315.1925,-402.2181 323.2378,-395.3245 317.1829,-391.8119"/>
</g>
<!-- Node234328 -->
<g id="node21" class="node">
<title>Node234328</title>
<g id="a_node21"><a xlink:href="quickjs_8c.html#a5e32da9a43002cb96dcbd62a1a340144" target="_top" xlink:title="js_array_from">
<polygon fill="none" stroke="#000000" points="426.5,-238.3661 426.5,-257.3661 502.5,-257.3661 502.5,-238.3661 426.5,-238.3661"/>
<text text-anchor="middle" x="464.5" y="-245.3661" font-family="Helvetica,sans-Serif" font-size="10.00" fill="#000000">js_array_from</text>
</a>
</g>
</g>
<!-- Node234318&#45;&gt;Node234328 -->
<g id="edge27" class="edge">
<title>Node234318&#45;&gt;Node234328</title>
<path fill="none" stroke="#191970" d="M316.5272,-392.3038C327.9726,-361.0314 354.6523,-299.9432 398,-266.8661 406.2091,-260.602 416.4075,-256.4024 426.3323,-253.5871"/>
<polygon fill="#191970" stroke="#191970" points="313.1237,-391.4322 313.1118,-402.027 319.7282,-393.7521 313.1237,-391.4322"/>
</g>
<!-- Node234340 -->
<g id="node22" class="node">
<title>Node234340</title>
<g id="a_node22"><a xlink:href="quickjs_8c.html#aa0bbf08a7e91459c68a312fba7016c6d" target="_top" xlink:title="js_array_every">
<polygon fill="none" stroke="#000000" points="424.5,-200.3661 424.5,-219.3661 504.5,-219.3661 504.5,-200.3661 424.5,-200.3661"/>
<text text-anchor="middle" x="464.5" y="-207.3661" font-family="Helvetica,sans-Serif" font-size="10.00" fill="#000000">js_array_every</text>
</a>
</g>
</g>
<!-- Node234318&#45;&gt;Node234340 -->
<g id="edge28" class="edge">
<title>Node234318&#45;&gt;Node234340</title>
<path fill="none" stroke="#191970" d="M313.9099,-392.0584C322.3718,-354.4897 345.9715,-272.7276 398,-228.8661 405.436,-222.5974 414.8239,-218.3934 424.1841,-215.5752"/>
<polygon fill="#191970" stroke="#191970" points="310.4082,-391.699 311.755,-402.2079 317.2556,-393.1528 310.4082,-391.699"/>
</g>
<!-- Node234383 -->
<g id="node23" class="node">
<title>Node234383</title>
<g id="a_node23"><a xlink:href="quickjs_8c.html#a36c1692489542a86dd79a7d39ab8ff95" target="_top" xlink:title="js_array_reduce">
<polygon fill="none" stroke="#000000" points="421.5,-764.3661 421.5,-783.3661 507.5,-783.3661 507.5,-764.3661 421.5,-764.3661"/>
<text text-anchor="middle" x="464.5" y="-771.3661" font-family="Helvetica,sans-Serif" font-size="10.00" fill="#000000">js_array_reduce</text>
</a>
</g>
</g>
<!-- Node234318&#45;&gt;Node234383 -->
<g id="edge29" class="edge">
<title>Node234318&#45;&gt;Node234383</title>
<path fill="none" stroke="#191970" d="M314.9493,-431.4242C333.3084,-503.9395 396.5344,-753.3601 398,-754.8661 404.2807,-761.3197 412.589,-765.6227 421.1979,-768.4813"/>
<polygon fill="#191970" stroke="#191970" points="318.338,-430.5479 312.4911,-421.7125 311.552,-432.2657 318.338,-430.5479"/>
</g>
<!-- Node234384 -->
<g id="node24" class="node">
<title>Node234384</title>
<g id="a_node24"><a xlink:href="quickjs_8c.html#a9dd41b086da4e13b3487cc9c6e2af2b8" target="_top" xlink:title="js_array_find">
<polygon fill="none" stroke="#000000" points="428.5,-726.3661 428.5,-745.3661 500.5,-745.3661 500.5,-726.3661 428.5,-726.3661"/>
<text text-anchor="middle" x="464.5" y="-733.3661" font-family="Helvetica,sans-Serif" font-size="10.00" fill="#000000">js_array_find</text>
</a>
</g>
</g>
<!-- Node234318&#45;&gt;Node234384 -->
<g id="edge30" class="edge">
<title>Node234318&#45;&gt;Node234384</title>
<path fill="none" stroke="#191970" d="M315.1139,-431.5358C332.2995,-497.3587 387.4874,-706.3808 398,-716.8661 406.0763,-724.9215 417.3162,-729.6147 428.2595,-732.3319"/>
<polygon fill="#191970" stroke="#191970" points="318.4375,-430.4101 312.5288,-421.6159 311.6637,-432.1754 318.4375,-430.4101"/>
</g>
<!-- Node234385 -->
<g id="node25" class="node">
<title>Node234385</title>
<g id="a_node25"><a xlink:href="quickjs_8c.html#ad90c33b4aae1181151bda4a98ac2ef23" target="_top" xlink:title="JS_FlattenIntoArray">
<polygon fill="none" stroke="#ff0000" points="412.5,-670.3661 412.5,-689.3661 516.5,-689.3661 516.5,-670.3661 412.5,-670.3661"/>
<text text-anchor="middle" x="464.5" y="-677.3661" font-family="Helvetica,sans-Serif" font-size="10.00" fill="#000000">JS_FlattenIntoArray</text>
</a>
</g>
</g>
<!-- Node234318&#45;&gt;Node234385 -->
<g id="edge31" class="edge">
<title>Node234318&#45;&gt;Node234385</title>
<path fill="none" stroke="#191970" d="M311.0468,-431.4176C314.6248,-478.1517 330.2703,-597.1732 398,-660.8661 402.1986,-664.8144 407.1605,-667.9501 412.4521,-670.4391"/>
<polygon fill="#191970" stroke="#191970" points="314.537,-431.1511 310.3855,-421.4035 307.5522,-431.6124 314.537,-431.1511"/>
</g>
<!-- Node234386 -->
<g id="node26" class="node">
<title>Node234386</title>
<g id="a_node26"><a xlink:href="quickjs_8c.html#a753547f952d9c8a7eba88924497c3847" target="_top" xlink:title="js_string_replace">
<polygon fill="none" stroke="#000000" points="419.5,-48.3661 419.5,-67.3661 509.5,-67.3661 509.5,-48.3661 419.5,-48.3661"/>
<text text-anchor="middle" x="464.5" y="-55.3661" font-family="Helvetica,sans-Serif" font-size="10.00" fill="#000000">js_string_replace</text>
</a>
</g>
</g>
<!-- Node234318&#45;&gt;Node234386 -->
<g id="edge33" class="edge">
<title>Node234318&#45;&gt;Node234386</title>
<path fill="none" stroke="#191970" d="M312.6171,-392.0468C321.5591,-327.2167 352.8638,-122.9795 398,-76.8661 403.7953,-70.9454 411.2975,-66.836 419.1656,-63.9917"/>
<polygon fill="#191970" stroke="#191970" points="309.1223,-391.7732 311.2501,-402.1522 316.0592,-392.7117 309.1223,-391.7732"/>
</g>
<!-- Node234387 -->
<g id="node27" class="node">
<title>Node234387</title>
<g id="a_node27"><a xlink:href="quickjs_8c.html#a624282391413d4c5a030adbd8b77aa80" target="_top" xlink:title="internalize_json_property">
<polygon fill="none" stroke="#ff0000" points="402,-614.3661 402,-633.3661 527,-633.3661 527,-614.3661 402,-614.3661"/>
<text text-anchor="middle" x="464.5" y="-621.3661" font-family="Helvetica,sans-Serif" font-size="10.00" fill="#000000">internalize_json_property</text>
</a>
</g>
</g>
<!-- Node234318&#45;&gt;Node234387 -->
<g id="edge34" class="edge">
<title>Node234318&#45;&gt;Node234387</title>
<path fill="none" stroke="#191970" d="M313.3642,-431.6755C321.0554,-470.7639 343.6357,-558.0771 398,-604.8661 402.5503,-608.7824 407.86,-611.8937 413.4587,-614.365"/>
<polygon fill="#191970" stroke="#191970" points="316.7608,-430.7946 311.5055,-421.5951 309.8769,-432.064 316.7608,-430.7946"/>
</g>
<!-- Node234389 -->
<g id="node28" class="node">
<title>Node234389</title>
<g id="a_node28"><a xlink:href="quickjs_8c.html#a0da6493b4bc0edb7ddddfab807241d0b" target="_top" xlink:title="js_json_check">
<polygon fill="none" stroke="#ff0000" points="425,-86.3661 425,-105.3661 504,-105.3661 504,-86.3661 425,-86.3661"/>
<text text-anchor="middle" x="464.5" y="-93.3661" font-family="Helvetica,sans-Serif" font-size="10.00" fill="#000000">js_json_check</text>
</a>
</g>
</g>
<!-- Node234318&#45;&gt;Node234389 -->
<g id="edge36" class="edge">
<title>Node234318&#45;&gt;Node234389</title>
<path fill="none" stroke="#191970" d="M313.2691,-392.3827C323.6261,-332.8641 357.4348,-155.0375 398,-114.8661 405.2519,-107.6846 415.0193,-103.1775 424.8324,-100.3604"/>
<polygon fill="#191970" stroke="#191970" points="309.8008,-391.9005 311.5633,-402.3477 316.7005,-393.0816 309.8008,-391.9005"/>
</g>
<!-- Node234392 -->
<g id="node29" class="node">
<title>Node234392</title>
<g id="a_node29"><a xlink:href="quickjs_8c.html#ab586d841244b113ba73eec314395775d" target="_top" xlink:title="js_proxy_call">
<polygon fill="none" stroke="#ff0000" points="427.5,-576.3661 427.5,-595.3661 501.5,-595.3661 501.5,-576.3661 427.5,-576.3661"/>
<text text-anchor="middle" x="464.5" y="-583.3661" font-family="Helvetica,sans-Serif" font-size="10.00" fill="#000000">js_proxy_call</text>
</a>
</g>
</g>
<!-- Node234318&#45;&gt;Node234392 -->
<g id="edge37" class="edge">
<title>Node234318&#45;&gt;Node234392</title>
<path fill="none" stroke="#191970" d="M315.6872,-431.3726C326.3098,-464.3306 352.3253,-530.9495 398,-566.8661 406.4002,-573.4717 416.9972,-577.7808 427.2482,-580.5918"/>
<polygon fill="#191970" stroke="#191970" points="318.9589,-430.1044 312.6687,-421.5789 312.2694,-432.1662 318.9589,-430.1044"/>
</g>
<!-- Node234348&#45;&gt;Node234305 -->
<g id="edge13" class="edge">
<title>Node234348&#45;&gt;Node234305</title>
<path fill="none" stroke="#191970" d="M403.5256,-797.2225C401.5804,-795.8935 399.729,-794.445 398,-792.8661 270.6171,-676.5457 313.8794,-594.0664 258,-430.8661 225.1595,-334.9527 192.564,-216.5074 183.1797,-181.8349"/>
<polygon fill="#191970" stroke="#191970" points="402.1354,-800.4565 412.5658,-802.3164 405.5718,-794.358 402.1354,-800.4565"/>
</g>
<!-- Node234349&#45;&gt;Node234305 -->
<g id="edge15" class="edge">
<title>Node234349&#45;&gt;Node234305</title>
<path fill="none" stroke="#191970" d="M405.9996,-836.0003C403.1931,-834.465 400.5054,-832.7599 398,-830.8661 303.7416,-759.6198 300.2704,-715.2015 258,-604.8661 196.2547,-443.6967 183.1282,-229.6301 180.8996,-181.6715"/>
<polygon fill="#191970" stroke="#191970" points="404.7491,-839.2793 415.2899,-840.3484 407.7165,-832.9394 404.7491,-839.2793"/>
</g>
<!-- Node234349&#45;&gt;Node234350 -->
<g id="edge16" class="edge">
<title>Node234349&#45;&gt;Node234350</title>
<path fill="none" stroke="#191970" d="M527.7238,-834.2415C528.8789,-833.1863 529.9743,-832.0626 531,-830.8661 586.7983,-765.7812 628.1852,-107.5123 633.4359,-20.3729"/>
<polygon fill="#191970" stroke="#191970" points="525.4216,-831.5856 519.3365,-840.2587 529.5021,-837.2733 525.4216,-831.5856"/>
</g>
<!-- Node234350&#45;&gt;Node234305 -->
<g id="edge17" class="edge">
<title>Node234350&#45;&gt;Node234305</title>
<path fill="none" stroke="#191970" d="M556.7467,-14.0661C475.9372,-16.4003 348.4941,-27.1226 258,-85.8661 226.3996,-106.3793 201.4483,-143.9406 189.058,-162.1949"/>
<polygon fill="#191970" stroke="#191970" points="556.9449,-17.5623 566.8529,-13.8095 556.7672,-10.5646 556.9449,-17.5623"/>
</g>
<!-- Node234363&#45;&gt;Node234305 -->
<g id="edge23" class="edge">
<title>Node234363&#45;&gt;Node234305</title>
<path fill="none" stroke="#191970" d="M404.8798,-171.8661C350.0941,-171.8661 270.2991,-171.8661 222.1002,-171.8661"/>
<polygon fill="#191970" stroke="#191970" points="405.1457,-175.3662 415.1457,-171.8661 405.1456,-168.3662 405.1457,-175.3662"/>
</g>
<!-- Node234374&#45;&gt;Node234305 -->
<g id="edge25" class="edge">
<title>Node234374&#45;&gt;Node234305</title>
<path fill="none" stroke="#191970" d="M407.8165,-141.4505C352.9799,-148.7878 271.1675,-159.7346 222.1002,-166.2999"/>
<polygon fill="#191970" stroke="#191970" points="408.6194,-144.8744 418.0669,-140.079 407.691,-137.9362 408.6194,-144.8744"/>
</g>
<!-- Node234385&#45;&gt;Node234385 -->
<g id="edge32" class="edge">
<title>Node234385&#45;&gt;Node234385</title>
<path fill="none" stroke="#191970" d="M435.7542,-698.5201C436.9558,-703.8029 446.5377,-707.8661 464.5,-707.8661 491.8711,-707.8661 499.7831,-698.4314 488.2359,-689.6232"/>
<polygon fill="#191970" stroke="#191970" points="438.9072,-700.054 440.7641,-689.6232 432.8077,-696.6193 438.9072,-700.054"/>
</g>
<!-- Node234387&#45;&gt;Node234387 -->
<g id="edge35" class="edge">
<title>Node234387&#45;&gt;Node234387</title>
<path fill="none" stroke="#191970" d="M435.7542,-642.5201C436.9558,-647.8029 446.5377,-651.8661 464.5,-651.8661 491.8711,-651.8661 499.7831,-642.4314 488.2359,-633.6232"/>
<polygon fill="#191970" stroke="#191970" points="438.9072,-644.054 440.7641,-633.6232 432.8077,-640.6193 438.9072,-644.054"/>
</g>
<!-- Node234401&#45;&gt;Node234305 -->
<g id="edge40" class="edge">
<title>Node234401&#45;&gt;Node234305</title>
<path fill="none" stroke="#191970" d="M292.8815,-110.7619C282.5736,-116.4147 269.3,-122.5202 258,-128.8661 239.3516,-139.3387 219.3295,-152.8367 204.3083,-162.2219"/>
<polygon fill="#191970" stroke="#191970" points="294.911,-113.6263 301.6946,-105.4879 291.3164,-107.6197 294.911,-113.6263"/>
</g>
<!-- Node234401&#45;&gt;Node234386 -->
<g id="edge42" class="edge">
<title>Node234401&#45;&gt;Node234386</title>
<path fill="none" stroke="#191970" d="M355.7158,-84.6221C377.941,-79.1557 404.3704,-72.6553 425.6129,-67.4306"/>
<polygon fill="#191970" stroke="#191970" points="354.7084,-81.2655 345.8337,-87.0526 356.3803,-88.0629 354.7084,-81.2655"/>
</g>
<!-- Node234401&#45;&gt;Node234389 -->
<g id="edge41" class="edge">
<title>Node234401&#45;&gt;Node234389</title>
<path fill="none" stroke="#191970" d="M355.8985,-95.8661C377.7986,-95.8661 403.7473,-95.8661 424.7877,-95.8661"/>
<polygon fill="#191970" stroke="#191970" points="355.8338,-92.3662 345.8337,-95.8661 355.8337,-99.3662 355.8338,-92.3662"/>
</g>
</g>
</svg>
        <g id="navigator" transform="translate(0 0)" fill="#404254">
                <rect fill="#f2f5e9" fill-opacity="0.5" stroke="#606060" stroke-width=".5" x="0" y="0" width="60" height="60"/>
                <use id="zoomplus" xlink:href="#zoomPlus" x="17" y="9" onmousedown="handleZoom(evt,'in')"/>
                <use id="zoomminus" xlink:href="#zoomMin" x="42" y="9" onmousedown="handleZoom(evt,'out')"/>
                <use id="reset" xlink:href="#resetDef" x="30" y="36" onmousedown="handleReset()"/>
                <g id="arrowUp" xlink:href="#dirArrow" transform="translate(30 24)" onmousedown="handlePan(0,-1)">
                  <use xlink:href="#rim" fill="#404040">
                        <set attributeName="fill" to="#808080" begin="arrowUp.mouseover" end="arrowUp.mouseout"/>
                  </use>
                  <path fill="none" stroke="white" stroke-width="1.5" d="M0,-3.0v7 M-2.5,-0.5L0,-3.0L2.5,-0.5"/>
                </g>
                <g id="arrowRight" xlink:href="#dirArrow" transform="rotate(90) translate(36 -43)" onmousedown="handlePan(1,0)">
                  <use xlink:href="#rim" fill="#404040">
                        <set attributeName="fill" to="#808080" begin="arrowRight.mouseover" end="arrowRight.mouseout"/>
                  </use>
                  <path fill="none" stroke="white" stroke-width="1.5" d="M0,-3.0v7 M-2.5,-0.5L0,-3.0L2.5,-0.5"/>
                </g>
                <g id="arrowDown" xlink:href="#dirArrow" transform="rotate(180) translate(-30 -48)" onmousedown="handlePan(0,1)">
                  <use xlink:href="#rim" fill="#404040">
                        <set attributeName="fill" to="#808080" begin="arrowDown.mouseover" end="arrowDown.mouseout"/>
                  </use>
                  <path fill="none" stroke="white" stroke-width="1.5" d="M0,-3.0v7 M-2.5,-0.5L0,-3.0L2.5,-0.5"/>
                </g>
                <g id="arrowLeft" xlink:href="#dirArrow" transform="rotate(270) translate(-36 17)" onmousedown="handlePan(-1,0)">
                  <use xlink:href="#rim" fill="#404040">
                        <set attributeName="fill" to="#808080" begin="arrowLeft.mouseover" end="arrowLeft.mouseout"/>
                  </use>
                  <path fill="none" stroke="white" stroke-width="1.5" d="M0,-3.0v7 M-2.5,-0.5L0,-3.0L2.5,-0.5"/>
                </g>
        </g>
        <svg viewBox="0 0 15 15" width="100%" height="30px" preserveAspectRatio="xMaxYMin meet">
         <g id="arrow_out" transform="scale(0.3 0.3)">
          <a xlink:href="quickjs_8c_a6a81009df3c2dbacf14bbe0b69b6a6cd_icgraph_org.svg" target="_base">
           <rect id="button" ry="5" rx="5" y="6" x="6" height="38" width="38"
                fill="#f2f5e9" fill-opacity="0.5" stroke="#606060" stroke-width="1.0"/>
           <path id="arrow"
             d="M 11.500037,31.436501 C 11.940474,20.09759 22.043105,11.32322 32.158766,21.979434 L 37.068811,17.246167 C 37.068811,17.246167 37.088388,32 37.088388,32 L 22.160133,31.978069 C 22.160133,31.978069 26.997745,27.140456 26.997745,27.140456 C 18.528582,18.264221 13.291696,25.230495 11.500037,31.436501 z"
             style="fill:#404040;"/>
          </a>
         </g>
        </svg>
</svg>
