<?xml version="1.0" encoding="UTF-8" standalone="no"?>
<!DOCTYPE svg PUBLIC "-//W3C//DTD SVG 1.1//EN"
 "http://www.w3.org/Graphics/SVG/1.1/DTD/svg11.dtd">
<!-- Generated by graphviz version 2.40.1 (20161225.0304)
 -->
<!-- Title: string_buffer_set_error Pages: 1 -->
<svg width="297pt" height="28pt"
 viewBox="0.00 0.00 297.00 28.00" xmlns="http://www.w3.org/2000/svg" xmlns:xlink="http://www.w3.org/1999/xlink">
<g id="graph0" class="graph" transform="scale(1 1) rotate(0) translate(4 24)">
<title>string_buffer_set_error</title>
<!-- Node106779 -->
<g id="node1" class="node">
<title>Node106779</title>
<polygon fill="#bfbfbf" stroke="#000000" points="0,-.5 0,-19.5 114,-19.5 114,-.5 0,-.5"/>
<text text-anchor="middle" x="57" y="-7.5" font-family="Helvetica,sans-Serif" font-size="10.00" fill="#000000">string_buffer_set_error</text>
</g>
<!-- Node106780 -->
<g id="node2" class="node">
<title>Node106780</title>
<g id="a_node2"><a xlink:href="quickjs_8c.html#a80e54dcf9ac687d4ccc2f90273565f30" target="_top" xlink:title="js_free">
<polygon fill="none" stroke="#000000" points="150,-.5 150,-19.5 196,-19.5 196,-.5 150,-.5"/>
<text text-anchor="middle" x="173" y="-7.5" font-family="Helvetica,sans-Serif" font-size="10.00" fill="#000000">js_free</text>
</a>
</g>
</g>
<!-- Node106779&#45;&gt;Node106780 -->
<g id="edge1" class="edge">
<title>Node106779&#45;&gt;Node106780</title>
<path fill="none" stroke="#191970" d="M114.3203,-10C122.9536,-10 131.607,-10 139.5152,-10"/>
<polygon fill="#191970" stroke="#191970" points="139.7654,-13.5001 149.7653,-10 139.7653,-6.5001 139.7654,-13.5001"/>
</g>
<!-- Node106781 -->
<g id="node3" class="node">
<title>Node106781</title>
<g id="a_node3"><a xlink:href="quickjs_8c.html#a69e19dda8a93d613203e0baa06f0ed8d" target="_top" xlink:title="js_free_rt">
<polygon fill="none" stroke="#000000" points="232,-.5 232,-19.5 289,-19.5 289,-.5 232,-.5"/>
<text text-anchor="middle" x="260.5" y="-7.5" font-family="Helvetica,sans-Serif" font-size="10.00" fill="#000000">js_free_rt</text>
</a>
</g>
</g>
<!-- Node106780&#45;&gt;Node106781 -->
<g id="edge2" class="edge">
<title>Node106780&#45;&gt;Node106781</title>
<path fill="none" stroke="#191970" d="M196.4484,-10C204.3075,-10 213.2896,-10 221.9912,-10"/>
<polygon fill="#191970" stroke="#191970" points="221.993,-13.5001 231.993,-10 221.993,-6.5001 221.993,-13.5001"/>
</g>
</g>
</svg>
