<?xml version="1.0" encoding="UTF-8" standalone="no"?>
<!DOCTYPE svg PUBLIC "-//W3C//DTD SVG 1.1//EN"
 "http://www.w3.org/Graphics/SVG/1.1/DTD/svg11.dtd">
<!-- Generated by graphviz version 2.40.1 (20161225.0304)
 -->
<!-- Title: get_exported_names Pages: 1 -->
<!--zoomable 84 -->
<svg id="main" version="1.1" xmlns="http://www.w3.org/2000/svg" xmlns:xlink="http://www.w3.org/1999/xlink" xml:space="preserve" onload="init(evt)">
<style type="text/css"><![CDATA[
.edge:hover path { stroke: red; }
.edge:hover polygon { stroke: red; fill: red; }
]]></style>
<script type="text/javascript"><![CDATA[
var edges = document.getElementsByTagName('g');
if (edges && edges.length) {
  for (var i=0;i<edges.length;i++) {
    if (edges[i].id.substr(0,4)=='edge') {
      edges[i].setAttribute('class','edge');
    }
  }
}
]]></script>
        <defs>
                <circle id="rim" cx="0" cy="0" r="7"/>
                <circle id="rim2" cx="0" cy="0" r="3.5"/>
                <g id="zoomPlus">
                        <use xlink:href="#rim" fill="#404040">
                                <set attributeName="fill" to="#808080" begin="zoomplus.mouseover" end="zoomplus.mouseout"/>
                        </use>
                        <path d="M-4,0h8M0,-4v8" fill="none" stroke="white" stroke-width="1.5" pointer-events="none"/>
                </g>
                <g id="zoomMin">
                        <use xlink:href="#rim" fill="#404040">
                                <set attributeName="fill" to="#808080" begin="zoomminus.mouseover" end="zoomminus.mouseout"/>
                        </use>
                        <path d="M-4,0h8" fill="none" stroke="white" stroke-width="1.5" pointer-events="none"/>
                </g>
                <g id="dirArrow">
                        <path fill="none" stroke="white" stroke-width="1.5" d="M0,-3.0v7 M-2.5,-0.5L0,-3.0L2.5,-0.5"/>
                </g>
               <g id="resetDef">
                       <use xlink:href="#rim2" fill="#404040">
                               <set attributeName="fill" to="#808080" begin="reset.mouseover" end="reset.mouseout"/>
                       </use>
               </g>
        </defs>

<script type="text/javascript">
var viewWidth = 531;
var viewHeight = 84;
var sectionId = 'dynsection-1074';
</script>
<script xlink:href="svgpan.js"/>
<svg id="graph" class="graph">
<g id="viewport">
<title>get_exported_names</title>
<!-- Node312240 -->
<g id="node1" class="node">
<title>Node312240</title>
<polygon fill="#bfbfbf" stroke="#000000" points="0,-19.5 0,-38.5 107,-38.5 107,-19.5 0,-19.5"/>
<text text-anchor="middle" x="53.5" y="-26.5" font-family="Helvetica,sans-Serif" font-size="10.00" fill="#000000">get_exported_names</text>
</g>
<!-- Node312240&#45;&gt;Node312240 -->
<g id="edge1" class="edge">
<title>Node312240&#45;&gt;Node312240</title>
<path fill="none" stroke="#191970" d="M27.4584,-48.0292C28.8789,-53.128 37.5594,-57 53.5,-57 78.3828,-57 85.5755,-47.5653 75.0781,-38.7571"/>
<polygon fill="#191970" stroke="#191970" points="30.738,-49.2855 31.9219,-38.7571 24.4308,-46.2493 30.738,-49.2855"/>
</g>
<!-- Node312241 -->
<g id="node2" class="node">
<title>Node312241</title>
<g id="a_node2"><a xlink:href="quickjs_8c.html#ad12b6863ca31850fc39d208bb865420e" target="_top" xlink:title="js_build_module_ns">
<polygon fill="none" stroke="#000000" points="143,-19.5 143,-38.5 245,-38.5 245,-19.5 143,-19.5"/>
<text text-anchor="middle" x="194" y="-26.5" font-family="Helvetica,sans-Serif" font-size="10.00" fill="#000000">js_build_module_ns</text>
</a>
</g>
</g>
<!-- Node312240&#45;&gt;Node312241 -->
<g id="edge2" class="edge">
<title>Node312240&#45;&gt;Node312241</title>
<path fill="none" stroke="#191970" d="M117.09,-29C125.7504,-29 134.5471,-29 142.9472,-29"/>
<polygon fill="#191970" stroke="#191970" points="117.0179,-25.5001 107.0178,-29 117.0178,-32.5001 117.0179,-25.5001"/>
</g>
<!-- Node312242 -->
<g id="node3" class="node">
<title>Node312242</title>
<g id="a_node3"><a xlink:href="quickjs_8c.html#a2f5aeb4e31e2001c555335ae5172165b" target="_top" xlink:title="js_get_module_ns">
<polygon fill="none" stroke="#000000" points="281,-19.5 281,-38.5 376,-38.5 376,-19.5 281,-19.5"/>
<text text-anchor="middle" x="328.5" y="-26.5" font-family="Helvetica,sans-Serif" font-size="10.00" fill="#000000">js_get_module_ns</text>
</a>
</g>
</g>
<!-- Node312241&#45;&gt;Node312242 -->
<g id="edge3" class="edge">
<title>Node312241&#45;&gt;Node312242</title>
<path fill="none" stroke="#191970" d="M255.2586,-29C263.8806,-29 272.6349,-29 280.9487,-29"/>
<polygon fill="#191970" stroke="#191970" points="255.2324,-25.5001 245.2324,-29 255.2323,-32.5001 255.2324,-25.5001"/>
</g>
<!-- Node312243 -->
<g id="node4" class="node">
<title>Node312243</title>
<g id="a_node4"><a xlink:href="quickjs_8c.html#a89e4f0ec49cdd0029ab50c0509ccc445" target="_top" xlink:title="js_instantiate_module">
<polygon fill="none" stroke="#ff0000" points="412,-38.5 412,-57.5 523,-57.5 523,-38.5 412,-38.5"/>
<text text-anchor="middle" x="467.5" y="-45.5" font-family="Helvetica,sans-Serif" font-size="10.00" fill="#000000">js_instantiate_module</text>
</a>
</g>
</g>
<!-- Node312242&#45;&gt;Node312243 -->
<g id="edge4" class="edge">
<title>Node312242&#45;&gt;Node312243</title>
<path fill="none" stroke="#191970" d="M386.4632,-36.923C394.8887,-38.0747 403.5469,-39.2582 411.9237,-40.4032"/>
<polygon fill="#191970" stroke="#191970" points="386.7178,-33.4254 376.3359,-35.5387 385.7697,-40.3609 386.7178,-33.4254"/>
</g>
<!-- Node312247 -->
<g id="node5" class="node">
<title>Node312247</title>
<g id="a_node5"><a xlink:href="quickjs_8c.html#a50e94675d1c4cf67c88e72169ea3c21a" target="_top" xlink:title="js_dynamic_import">
<polygon fill="none" stroke="#ff0000" points="418.5,-.5 418.5,-19.5 516.5,-19.5 516.5,-.5 418.5,-.5"/>
<text text-anchor="middle" x="467.5" y="-7.5" font-family="Helvetica,sans-Serif" font-size="10.00" fill="#000000">js_dynamic_import</text>
</a>
</g>
</g>
<!-- Node312242&#45;&gt;Node312247 -->
<g id="edge6" class="edge">
<title>Node312242&#45;&gt;Node312247</title>
<path fill="none" stroke="#191970" d="M386.33,-21.0952C396.9073,-19.6494 407.8558,-18.1528 418.1575,-16.7447"/>
<polygon fill="#191970" stroke="#191970" points="385.7697,-17.6391 376.3359,-22.4613 386.7178,-24.5746 385.7697,-17.6391"/>
</g>
<!-- Node312243&#45;&gt;Node312243 -->
<g id="edge5" class="edge">
<title>Node312243&#45;&gt;Node312243</title>
<path fill="none" stroke="#191970" d="M441.8305,-67.0292C443.2307,-72.128 451.7872,-76 467.5,-76 492.0273,-76 499.1173,-66.5653 488.7698,-57.7571"/>
<polygon fill="#191970" stroke="#191970" points="445.1052,-68.292 446.2302,-57.7571 438.7811,-65.2911 445.1052,-68.292"/>
</g>
</g>
</svg>
        <g id="navigator" transform="translate(0 0)" fill="#404254">
                <rect fill="#f2f5e9" fill-opacity="0.5" stroke="#606060" stroke-width=".5" x="0" y="0" width="60" height="60"/>
                <use id="zoomplus" xlink:href="#zoomPlus" x="17" y="9" onmousedown="handleZoom(evt,'in')"/>
                <use id="zoomminus" xlink:href="#zoomMin" x="42" y="9" onmousedown="handleZoom(evt,'out')"/>
                <use id="reset" xlink:href="#resetDef" x="30" y="36" onmousedown="handleReset()"/>
                <g id="arrowUp" xlink:href="#dirArrow" transform="translate(30 24)" onmousedown="handlePan(0,-1)">
                  <use xlink:href="#rim" fill="#404040">
                        <set attributeName="fill" to="#808080" begin="arrowUp.mouseover" end="arrowUp.mouseout"/>
                  </use>
                  <path fill="none" stroke="white" stroke-width="1.5" d="M0,-3.0v7 M-2.5,-0.5L0,-3.0L2.5,-0.5"/>
                </g>
                <g id="arrowRight" xlink:href="#dirArrow" transform="rotate(90) translate(36 -43)" onmousedown="handlePan(1,0)">
                  <use xlink:href="#rim" fill="#404040">
                        <set attributeName="fill" to="#808080" begin="arrowRight.mouseover" end="arrowRight.mouseout"/>
                  </use>
                  <path fill="none" stroke="white" stroke-width="1.5" d="M0,-3.0v7 M-2.5,-0.5L0,-3.0L2.5,-0.5"/>
                </g>
                <g id="arrowDown" xlink:href="#dirArrow" transform="rotate(180) translate(-30 -48)" onmousedown="handlePan(0,1)">
                  <use xlink:href="#rim" fill="#404040">
                        <set attributeName="fill" to="#808080" begin="arrowDown.mouseover" end="arrowDown.mouseout"/>
                  </use>
                  <path fill="none" stroke="white" stroke-width="1.5" d="M0,-3.0v7 M-2.5,-0.5L0,-3.0L2.5,-0.5"/>
                </g>
                <g id="arrowLeft" xlink:href="#dirArrow" transform="rotate(270) translate(-36 17)" onmousedown="handlePan(-1,0)">
                  <use xlink:href="#rim" fill="#404040">
                        <set attributeName="fill" to="#808080" begin="arrowLeft.mouseover" end="arrowLeft.mouseout"/>
                  </use>
                  <path fill="none" stroke="white" stroke-width="1.5" d="M0,-3.0v7 M-2.5,-0.5L0,-3.0L2.5,-0.5"/>
                </g>
        </g>
        <svg viewBox="0 0 15 15" width="100%" height="30px" preserveAspectRatio="xMaxYMin meet">
         <g id="arrow_out" transform="scale(0.3 0.3)">
          <a xlink:href="quickjs_8c_a51fe964c0b48eb3191aec8c98e73e4c6_icgraph_org.svg" target="_base">
           <rect id="button" ry="5" rx="5" y="6" x="6" height="38" width="38"
                fill="#f2f5e9" fill-opacity="0.5" stroke="#606060" stroke-width="1.0"/>
           <path id="arrow"
             d="M 11.500037,31.436501 C 11.940474,20.09759 22.043105,11.32322 32.158766,21.979434 L 37.068811,17.246167 C 37.068811,17.246167 37.088388,32 37.088388,32 L 22.160133,31.978069 C 22.160133,31.978069 26.997745,27.140456 26.997745,27.140456 C 18.528582,18.264221 13.291696,25.230495 11.500037,31.436501 z"
             style="fill:#404040;"/>
          </a>
         </g>
        </svg>
</svg>
