<?xml version="1.0" encoding="UTF-8" standalone="no"?>
<!DOCTYPE svg PUBLIC "-//W3C//DTD SVG 1.1//EN"
 "http://www.w3.org/Graphics/SVG/1.1/DTD/svg11.dtd">
<!-- Generated by graphviz version 2.40.1 (20161225.0304)
 -->
<!-- Title: js_thisBigFloatValue Pages: 1 -->
<svg width="228pt" height="66pt"
 viewBox="0.00 0.00 228.00 66.00" xmlns="http://www.w3.org/2000/svg" xmlns:xlink="http://www.w3.org/1999/xlink">
<g id="graph0" class="graph" transform="scale(1 1) rotate(0) translate(4 62)">
<title>js_thisBigFloatValue</title>
<!-- Node502420 -->
<g id="node1" class="node">
<title>Node502420</title>
<polygon fill="#bfbfbf" stroke="#000000" points="0,-19.5 0,-38.5 106,-38.5 106,-19.5 0,-19.5"/>
<text text-anchor="middle" x="53" y="-26.5" font-family="Helvetica,sans-Serif" font-size="10.00" fill="#000000">js_thisBigFloatValue</text>
</g>
<!-- Node502421 -->
<g id="node2" class="node">
<title>Node502421</title>
<g id="a_node2"><a xlink:href="quickjs_8h.html#a775522f2d084fc8fa0fcb33f390006b4" target="_top" xlink:title="JS_DupValue">
<polygon fill="none" stroke="#000000" points="142.5,-38.5 142.5,-57.5 219.5,-57.5 219.5,-38.5 142.5,-38.5"/>
<text text-anchor="middle" x="181" y="-45.5" font-family="Helvetica,sans-Serif" font-size="10.00" fill="#000000">JS_DupValue</text>
</a>
</g>
</g>
<!-- Node502420&#45;&gt;Node502421 -->
<g id="edge1" class="edge">
<title>Node502420&#45;&gt;Node502421</title>
<path fill="none" stroke="#191970" d="M106.1715,-36.8926C114.766,-38.1684 123.6288,-39.484 132.1155,-40.7437"/>
<polygon fill="#191970" stroke="#191970" points="131.832,-44.2399 142.2376,-42.2462 132.8599,-37.3158 131.832,-44.2399"/>
</g>
<!-- Node502422 -->
<g id="node3" class="node">
<title>Node502422</title>
<g id="a_node3"><a xlink:href="quickjs_8h.html#a920dfb277ddab7efd778dca6c28e49f5" target="_top" xlink:title="JS_IsBigFloat">
<polygon fill="none" stroke="#000000" points="142,-.5 142,-19.5 220,-19.5 220,-.5 142,-.5"/>
<text text-anchor="middle" x="181" y="-7.5" font-family="Helvetica,sans-Serif" font-size="10.00" fill="#000000">JS_IsBigFloat</text>
</a>
</g>
</g>
<!-- Node502420&#45;&gt;Node502422 -->
<g id="edge2" class="edge">
<title>Node502420&#45;&gt;Node502422</title>
<path fill="none" stroke="#191970" d="M106.1715,-21.1074C114.6683,-19.8461 123.4274,-18.5459 131.826,-17.2993"/>
<polygon fill="#191970" stroke="#191970" points="132.4722,-20.7418 141.8499,-15.8113 131.4443,-13.8176 132.4722,-20.7418"/>
</g>
</g>
</svg>
