<?xml version="1.0" encoding="UTF-8" standalone="no"?>
<!DOCTYPE svg PUBLIC "-//W3C//DTD SVG 1.1//EN"
 "http://www.w3.org/Graphics/SVG/1.1/DTD/svg11.dtd">
<!-- Generated by graphviz version 2.40.1 (20161225.0304)
 -->
<!-- Title: JS_NewObject Pages: 1 -->
<!--zoomable 1183 -->
<svg id="main" version="1.1" xmlns="http://www.w3.org/2000/svg" xmlns:xlink="http://www.w3.org/1999/xlink" xml:space="preserve" onload="init(evt)">
<style type="text/css"><![CDATA[
.edge:hover path { stroke: red; }
.edge:hover polygon { stroke: red; fill: red; }
]]></style>
<script type="text/javascript"><![CDATA[
var edges = document.getElementsByTagName('g');
if (edges && edges.length) {
  for (var i=0;i<edges.length;i++) {
    if (edges[i].id.substr(0,4)=='edge') {
      edges[i].setAttribute('class','edge');
    }
  }
}
]]></script>
        <defs>
                <circle id="rim" cx="0" cy="0" r="7"/>
                <circle id="rim2" cx="0" cy="0" r="3.5"/>
                <g id="zoomPlus">
                        <use xlink:href="#rim" fill="#404040">
                                <set attributeName="fill" to="#808080" begin="zoomplus.mouseover" end="zoomplus.mouseout"/>
                        </use>
                        <path d="M-4,0h8M0,-4v8" fill="none" stroke="white" stroke-width="1.5" pointer-events="none"/>
                </g>
                <g id="zoomMin">
                        <use xlink:href="#rim" fill="#404040">
                                <set attributeName="fill" to="#808080" begin="zoomminus.mouseover" end="zoomminus.mouseout"/>
                        </use>
                        <path d="M-4,0h8" fill="none" stroke="white" stroke-width="1.5" pointer-events="none"/>
                </g>
                <g id="dirArrow">
                        <path fill="none" stroke="white" stroke-width="1.5" d="M0,-3.0v7 M-2.5,-0.5L0,-3.0L2.5,-0.5"/>
                </g>
               <g id="resetDef">
                       <use xlink:href="#rim2" fill="#404040">
                               <set attributeName="fill" to="#808080" begin="reset.mouseover" end="reset.mouseout"/>
                       </use>
               </g>
        </defs>

<script type="text/javascript">
var viewWidth = 449;
var viewHeight = 1183;
var sectionId = 'dynsection-422';
</script>
<script xlink:href="svgpan.js"/>
<svg id="graph" class="graph">
<g id="viewport">
<title>JS_NewObject</title>
<!-- Node140897 -->
<g id="node1" class="node">
<title>Node140897</title>
<polygon fill="#bfbfbf" stroke="#000000" points="0,-592.5 0,-611.5 83,-611.5 83,-592.5 0,-592.5"/>
<text text-anchor="middle" x="41.5" y="-599.5" font-family="Helvetica,sans-Serif" font-size="10.00" fill="#000000">JS_NewObject</text>
</g>
<!-- Node140898 -->
<g id="node2" class="node">
<title>Node140898</title>
<g id="a_node2"><a xlink:href="quickjs_8c.html#a4c9489297c684663f30e517204a9ec14" target="_top" xlink:title="JS_AddIntrinsicBaseObjects">
<polygon fill="none" stroke="#ff0000" points="299,-835.5 299,-854.5 441,-854.5 441,-835.5 299,-835.5"/>
<text text-anchor="middle" x="370" y="-842.5" font-family="Helvetica,sans-Serif" font-size="10.00" fill="#000000">JS_AddIntrinsicBaseObjects</text>
</a>
</g>
</g>
<!-- Node140897&#45;&gt;Node140898 -->
<g id="edge1" class="edge">
<title>Node140897&#45;&gt;Node140898</title>
<path fill="none" stroke="#191970" d="M42.8035,-621.6755C49.1801,-714.9794 78.4303,-1109.8095 119,-1145 167.3464,-1186.936 210.6932,-1181.8781 263,-1145 314.1821,-1108.9148 358.5566,-901.8404 368.1038,-854.5954"/>
<polygon fill="#191970" stroke="#191970" points="46.2905,-621.3642 42.1258,-611.6222 39.3064,-621.835 46.2905,-621.3642"/>
</g>
<!-- Node140900 -->
<g id="node3" class="node">
<title>Node140900</title>
<g id="a_node3"><a xlink:href="quickjs_8c.html#a7efb53c2f76fd5cc0e584449437ec09c" target="_top" xlink:title="JS_AddIntrinsicBasicObjects">
<polygon fill="none" stroke="#ff0000" points="119,-1116.5 119,-1135.5 263,-1135.5 263,-1116.5 119,-1116.5"/>
<text text-anchor="middle" x="191" y="-1123.5" font-family="Helvetica,sans-Serif" font-size="10.00" fill="#000000">JS_AddIntrinsicBasicObjects</text>
</a>
</g>
</g>
<!-- Node140897&#45;&gt;Node140900 -->
<g id="edge2" class="edge">
<title>Node140897&#45;&gt;Node140900</title>
<path fill="none" stroke="#191970" d="M41.7432,-621.8731C43.1818,-706.2213 52.9982,-1033.6231 119,-1107 122.4582,-1110.8447 126.5936,-1113.9517 131.11,-1116.4579"/>
<polygon fill="#191970" stroke="#191970" points="45.2394,-621.5828 41.5909,-611.636 38.2402,-621.687 45.2394,-621.5828"/>
</g>
<!-- Node140902 -->
<g id="node4" class="node">
<title>Node140902</title>
<g id="a_node4"><a xlink:href="quickjs_8c.html#a8ddfb9bc049f684d92a334f12676237e" target="_top" xlink:title="JS_AddIntrinsicBigDecimal">
<polygon fill="none" stroke="#000000" points="123,-1078.5 123,-1097.5 259,-1097.5 259,-1078.5 123,-1078.5"/>
<text text-anchor="middle" x="191" y="-1085.5" font-family="Helvetica,sans-Serif" font-size="10.00" fill="#000000">JS_AddIntrinsicBigDecimal</text>
</a>
</g>
</g>
<!-- Node140897&#45;&gt;Node140902 -->
<g id="edge3" class="edge">
<title>Node140897&#45;&gt;Node140902</title>
<path fill="none" stroke="#191970" d="M42.0169,-621.8987C44.509,-702.2667 57.8227,-1001.8139 119,-1069 122.4816,-1072.8235 126.633,-1075.9161 131.1599,-1078.4127"/>
<polygon fill="#191970" stroke="#191970" points="45.5093,-621.5805 41.7233,-611.6853 38.5122,-621.7817 45.5093,-621.5805"/>
</g>
<!-- Node140903 -->
<g id="node5" class="node">
<title>Node140903</title>
<g id="a_node5"><a xlink:href="quickjs_8c.html#af801f296acb2c259e3202ec2dece219d" target="_top" xlink:title="JS_AddIntrinsicBigFloat">
<polygon fill="none" stroke="#000000" points="130,-1040.5 130,-1059.5 252,-1059.5 252,-1040.5 130,-1040.5"/>
<text text-anchor="middle" x="191" y="-1047.5" font-family="Helvetica,sans-Serif" font-size="10.00" fill="#000000">JS_AddIntrinsicBigFloat</text>
</a>
</g>
</g>
<!-- Node140897&#45;&gt;Node140903 -->
<g id="edge4" class="edge">
<title>Node140897&#45;&gt;Node140903</title>
<path fill="none" stroke="#191970" d="M42.329,-621.7254C45.9189,-697.6651 62.5821,-969.922 119,-1031 122.5088,-1034.7986 126.6789,-1037.874 131.218,-1040.3595"/>
<polygon fill="#191970" stroke="#191970" points="45.8212,-621.4704 41.8759,-611.6376 38.8283,-621.7846 45.8212,-621.4704"/>
</g>
<!-- Node140904 -->
<g id="node6" class="node">
<title>Node140904</title>
<g id="a_node6"><a xlink:href="quickjs_8c.html#a0f5b03638045aa0856f9b8fb0d5c0fb4" target="_top" xlink:title="JS_AddIntrinsicBigInt">
<polygon fill="none" stroke="#ff0000" points="135.5,-1002.5 135.5,-1021.5 246.5,-1021.5 246.5,-1002.5 135.5,-1002.5"/>
<text text-anchor="middle" x="191" y="-1009.5" font-family="Helvetica,sans-Serif" font-size="10.00" fill="#000000">JS_AddIntrinsicBigInt</text>
</a>
</g>
</g>
<!-- Node140897&#45;&gt;Node140904 -->
<g id="edge5" class="edge">
<title>Node140897&#45;&gt;Node140904</title>
<path fill="none" stroke="#191970" d="M42.7416,-622.2508C47.5769,-694.4948 67.4931,-938.1781 119,-993 123.6031,-997.8994 129.3069,-1001.5923 135.4743,-1004.3667"/>
<polygon fill="#191970" stroke="#191970" points="46.2068,-621.5959 42.0715,-611.8414 39.2213,-622.0457 46.2068,-621.5959"/>
</g>
<!-- Node140905 -->
<g id="node7" class="node">
<title>Node140905</title>
<g id="a_node7"><a xlink:href="quickjs_8c.html#a8ecbf5799518b7bfc3fefd47c7a0dd4e" target="_top" xlink:title="JS_AddIntrinsicDate">
<polygon fill="none" stroke="#ff0000" points="137.5,-964.5 137.5,-983.5 244.5,-983.5 244.5,-964.5 137.5,-964.5"/>
<text text-anchor="middle" x="191" y="-971.5" font-family="Helvetica,sans-Serif" font-size="10.00" fill="#000000">JS_AddIntrinsicDate</text>
</a>
</g>
</g>
<!-- Node140897&#45;&gt;Node140905 -->
<g id="edge6" class="edge">
<title>Node140897&#45;&gt;Node140905</title>
<path fill="none" stroke="#191970" d="M43.1494,-621.5755C49.1689,-688.4023 72.0969,-906.0898 119,-955 124.1003,-960.3186 130.4989,-964.2107 137.3647,-967.0478"/>
<polygon fill="#191970" stroke="#191970" points="46.631,-621.2111 42.2731,-611.554 39.6576,-621.8209 46.631,-621.2111"/>
</g>
<!-- Node140906 -->
<g id="node8" class="node">
<title>Node140906</title>
<g id="a_node8"><a xlink:href="quickjs_8c.html#a4497f8c7cf2ec38da989910ae8b1f042" target="_top" xlink:title="JS_AddIntrinsicMapSet">
<polygon fill="none" stroke="#ff0000" points="131.5,-926.5 131.5,-945.5 250.5,-945.5 250.5,-926.5 131.5,-926.5"/>
<text text-anchor="middle" x="191" y="-933.5" font-family="Helvetica,sans-Serif" font-size="10.00" fill="#000000">JS_AddIntrinsicMapSet</text>
</a>
</g>
</g>
<!-- Node140897&#45;&gt;Node140906 -->
<g id="edge7" class="edge">
<title>Node140897&#45;&gt;Node140906</title>
<path fill="none" stroke="#191970" d="M43.7416,-621.8557C51.1657,-684.1593 76.9003,-874.1885 119,-917 122.8071,-920.8714 127.3029,-923.984 132.1591,-926.4824"/>
<polygon fill="#191970" stroke="#191970" points="47.2009,-621.3015 42.5687,-611.773 40.2478,-622.1105 47.2009,-621.3015"/>
</g>
<!-- Node140907 -->
<g id="node9" class="node">
<title>Node140907</title>
<g id="a_node9"><a xlink:href="quickjs_8c.html#a2e66fcf1bc1d19f346317f10ee590621" target="_top" xlink:title="JS_AddIntrinsicPromise">
<polygon fill="none" stroke="#ff0000" points="130,-888.5 130,-907.5 252,-907.5 252,-888.5 130,-888.5"/>
<text text-anchor="middle" x="191" y="-895.5" font-family="Helvetica,sans-Serif" font-size="10.00" fill="#000000">JS_AddIntrinsicPromise</text>
</a>
</g>
</g>
<!-- Node140897&#45;&gt;Node140907 -->
<g id="edge8" class="edge">
<title>Node140897&#45;&gt;Node140907</title>
<path fill="none" stroke="#191970" d="M44.4303,-621.6699C53.3008,-678.6504 81.5669,-842.1169 119,-879 122.8677,-882.8109 127.4043,-885.8827 132.2862,-888.3555"/>
<polygon fill="#191970" stroke="#191970" points="47.8869,-621.1199 42.9178,-611.7627 40.9671,-622.1764 47.8869,-621.1199"/>
</g>
<!-- Node140908 -->
<g id="node10" class="node">
<title>Node140908</title>
<g id="a_node10"><a xlink:href="quickjs_8c.html#aafc8241682ce24b6d72e0f237ee85a51" target="_top" xlink:title="JS_AddIntrinsicRegExp">
<polygon fill="none" stroke="#ff0000" points="130.5,-850.5 130.5,-869.5 251.5,-869.5 251.5,-850.5 130.5,-850.5"/>
<text text-anchor="middle" x="191" y="-857.5" font-family="Helvetica,sans-Serif" font-size="10.00" fill="#000000">JS_AddIntrinsicRegExp</text>
</a>
</g>
</g>
<!-- Node140897&#45;&gt;Node140908 -->
<g id="edge9" class="edge">
<title>Node140897&#45;&gt;Node140908</title>
<path fill="none" stroke="#191970" d="M45.3529,-621.6375C55.8248,-673.0923 86.2299,-810.0019 119,-841 123.0385,-844.8201 127.7517,-847.8929 132.7989,-850.3618"/>
<polygon fill="#191970" stroke="#191970" points="48.7718,-620.885 43.3766,-611.7668 41.908,-622.2593 48.7718,-620.885"/>
</g>
<!-- Node140909 -->
<g id="node11" class="node">
<title>Node140909</title>
<g id="a_node11"><a xlink:href="quickjs_8c.html#a177d09828596bfe6df4bd90b2e93989d" target="_top" xlink:title="JS_AddIntrinsicTypedArrays">
<polygon fill="none" stroke="#ff0000" points="120.5,-812.5 120.5,-831.5 261.5,-831.5 261.5,-812.5 120.5,-812.5"/>
<text text-anchor="middle" x="191" y="-819.5" font-family="Helvetica,sans-Serif" font-size="10.00" fill="#000000">JS_AddIntrinsicTypedArrays</text>
</a>
</g>
</g>
<!-- Node140897&#45;&gt;Node140909 -->
<g id="edge10" class="edge">
<title>Node140897&#45;&gt;Node140909</title>
<path fill="none" stroke="#191970" d="M43.27,-621.8248C47.9577,-662.1559 64.3665,-754.0683 119,-803 123.3336,-806.8813 128.3683,-809.9851 133.7239,-812.4649"/>
<polygon fill="#191970" stroke="#191970" points="46.7316,-621.2726 42.2177,-611.6874 39.769,-621.9954 46.7316,-621.2726"/>
</g>
<!-- Node140910 -->
<g id="node12" class="node">
<title>Node140910</title>
<g id="a_node12"><a xlink:href="quickjs_8c.html#ac2894ff4edcdb4e6841bcce9c76081e3" target="_top" xlink:title="JS_CallInternal">
<polygon fill="none" stroke="#ff0000" points="149.5,-756.5 149.5,-775.5 232.5,-775.5 232.5,-756.5 149.5,-756.5"/>
<text text-anchor="middle" x="191" y="-763.5" font-family="Helvetica,sans-Serif" font-size="10.00" fill="#000000">JS_CallInternal</text>
</a>
</g>
</g>
<!-- Node140897&#45;&gt;Node140910 -->
<g id="edge11" class="edge">
<title>Node140897&#45;&gt;Node140910</title>
<path fill="none" stroke="#191970" d="M46.4937,-621.6308C55.5097,-652.9997 77.5384,-714.221 119,-747 127.7216,-753.8952 138.7089,-758.3019 149.4553,-761.1139"/>
<polygon fill="#191970" stroke="#191970" points="49.8417,-620.6045 43.8367,-611.8757 43.0877,-622.444 49.8417,-620.6045"/>
</g>
<!-- Node141207 -->
<g id="node13" class="node">
<title>Node141207</title>
<g id="a_node13"><a xlink:href="quickjs_8c.html#a8e59e32f9ef5272d7d0b1d884191321c" target="_top" xlink:title="js_create_desc">
<polygon fill="none" stroke="#ff0000" points="149.5,-718.5 149.5,-737.5 232.5,-737.5 232.5,-718.5 149.5,-718.5"/>
<text text-anchor="middle" x="191" y="-725.5" font-family="Helvetica,sans-Serif" font-size="10.00" fill="#000000">js_create_desc</text>
</a>
</g>
</g>
<!-- Node140897&#45;&gt;Node141207 -->
<g id="edge13" class="edge">
<title>Node140897&#45;&gt;Node141207</title>
<path fill="none" stroke="#191970" d="M50.1027,-620.9034C62.0746,-645.052 86.0586,-686.4163 119,-709 127.9567,-715.1405 138.7875,-719.2969 149.2982,-722.1102"/>
<polygon fill="#191970" stroke="#191970" points="53.1824,-619.2301 45.7162,-611.713 46.865,-622.2454 53.1824,-619.2301"/>
</g>
<!-- Node141155 -->
<g id="node14" class="node">
<title>Node141155</title>
<g id="a_node14"><a xlink:href="quickjs_8c.html#a7346b86113acd072c9cfc8d238c4ff7c" target="_top" xlink:title="js_create_iterator\l_result">
<polygon fill="none" stroke="#ff0000" points="145,-669 145,-699 237,-699 237,-669 145,-669"/>
<text text-anchor="start" x="153" y="-687" font-family="Helvetica,sans-Serif" font-size="10.00" fill="#000000">js_create_iterator</text>
<text text-anchor="middle" x="191" y="-676" font-family="Helvetica,sans-Serif" font-size="10.00" fill="#000000">_result</text>
</a>
</g>
</g>
<!-- Node140897&#45;&gt;Node141155 -->
<g id="edge14" class="edge">
<title>Node140897&#45;&gt;Node141155</title>
<path fill="none" stroke="#191970" d="M60.3454,-618.3811C75.4114,-630.8328 97.4986,-647.6918 119,-659 127.0807,-663.2499 136.036,-667.025 144.8074,-670.2725"/>
<polygon fill="#191970" stroke="#191970" points="62.2449,-615.4046 52.3435,-611.6343 57.7326,-620.7562 62.2449,-615.4046"/>
</g>
<!-- Node141158 -->
<g id="node15" class="node">
<title>Node141158</title>
<g id="a_node15"><a xlink:href="quickjs_8c.html#a01ec0fbafb5672f6286d5f81a8c55769" target="_top" xlink:title="js_instantiate_prototype">
<polygon fill="none" stroke="#ff0000" points="131,-630.5 131,-649.5 251,-649.5 251,-630.5 131,-630.5"/>
<text text-anchor="middle" x="191" y="-637.5" font-family="Helvetica,sans-Serif" font-size="10.00" fill="#000000">js_instantiate_prototype</text>
</a>
</g>
</g>
<!-- Node140897&#45;&gt;Node141158 -->
<g id="edge15" class="edge">
<title>Node140897&#45;&gt;Node141158</title>
<path fill="none" stroke="#191970" d="M89.1516,-614.1121C109.9726,-619.4044 134.0377,-625.5213 153.5461,-630.4799"/>
<polygon fill="#191970" stroke="#191970" points="89.7792,-610.6604 79.2252,-611.589 88.0547,-617.4447 89.7792,-610.6604"/>
</g>
<!-- Node140966 -->
<g id="node16" class="node">
<title>Node140966</title>
<g id="a_node16"><a xlink:href="quickjs_8c.html#a8d95b2b91f50339b621237ad13f9cc47" target="_top" xlink:title="js_json_parse">
<polygon fill="none" stroke="#000000" points="152.5,-592.5 152.5,-611.5 229.5,-611.5 229.5,-592.5 152.5,-592.5"/>
<text text-anchor="middle" x="191" y="-599.5" font-family="Helvetica,sans-Serif" font-size="10.00" fill="#000000">js_json_parse</text>
</a>
</g>
</g>
<!-- Node140897&#45;&gt;Node140966 -->
<g id="edge16" class="edge">
<title>Node140897&#45;&gt;Node140966</title>
<path fill="none" stroke="#191970" d="M93.345,-602C112.738,-602 134.4079,-602 152.3983,-602"/>
<polygon fill="#191970" stroke="#191970" points="93.1441,-598.5001 83.1441,-602 93.1441,-605.5001 93.1441,-598.5001"/>
</g>
<!-- Node140969 -->
<g id="node17" class="node">
<title>Node140969</title>
<g id="a_node17"><a xlink:href="quickjs_8c.html#a343a343b16bc3c9875050e99ee0d2884" target="_top" xlink:title="JS_JSONStringify">
<polygon fill="none" stroke="#ff0000" points="142.5,-554.5 142.5,-573.5 239.5,-573.5 239.5,-554.5 142.5,-554.5"/>
<text text-anchor="middle" x="191" y="-561.5" font-family="Helvetica,sans-Serif" font-size="10.00" fill="#000000">JS_JSONStringify</text>
</a>
</g>
</g>
<!-- Node140897&#45;&gt;Node140969 -->
<g id="edge17" class="edge">
<title>Node140897&#45;&gt;Node140969</title>
<path fill="none" stroke="#191970" d="M89.1516,-589.8879C109.9726,-584.5956 134.0377,-578.4787 153.5461,-573.5201"/>
<polygon fill="#191970" stroke="#191970" points="88.0547,-586.5553 79.2252,-592.411 89.7792,-593.3396 88.0547,-586.5553"/>
</g>
<!-- Node141186 -->
<g id="node18" class="node">
<title>Node141186</title>
<g id="a_node18"><a xlink:href="quickjs_8c.html#a4a08f36e18b6254d214a5105c2f2c2ea" target="_top" xlink:title="js_object_constructor">
<polygon fill="none" stroke="#000000" points="136,-516.5 136,-535.5 246,-535.5 246,-516.5 136,-516.5"/>
<text text-anchor="middle" x="191" y="-523.5" font-family="Helvetica,sans-Serif" font-size="10.00" fill="#000000">js_object_constructor</text>
</a>
</g>
</g>
<!-- Node140897&#45;&gt;Node141186 -->
<g id="edge18" class="edge">
<title>Node140897&#45;&gt;Node141186</title>
<path fill="none" stroke="#191970" d="M59.6008,-585.5925C74.5465,-572.8439 96.8316,-555.6015 119,-545 126.9308,-541.2073 135.7284,-538.0889 144.3728,-535.5542"/>
<polygon fill="#191970" stroke="#191970" points="56.9303,-583.2783 51.7055,-592.4953 61.5377,-588.5482 56.9303,-583.2783"/>
</g>
<!-- Node140934 -->
<g id="node19" class="node">
<title>Node140934</title>
<g id="a_node19"><a xlink:href="quickjs_8c.html#ad6908ae6db4e80d175180b55e19b203e" target="_top" xlink:title="js_object_fromEntries">
<polygon fill="none" stroke="#000000" points="135.5,-478.5 135.5,-497.5 246.5,-497.5 246.5,-478.5 135.5,-478.5"/>
<text text-anchor="middle" x="191" y="-485.5" font-family="Helvetica,sans-Serif" font-size="10.00" fill="#000000">js_object_fromEntries</text>
</a>
</g>
</g>
<!-- Node140897&#45;&gt;Node140934 -->
<g id="edge20" class="edge">
<title>Node140897&#45;&gt;Node140934</title>
<path fill="none" stroke="#191970" d="M51.7675,-583.3301C64.6418,-561.684 88.741,-526.4914 119,-507 124.9775,-503.1495 131.71,-500.0766 138.597,-497.6248"/>
<polygon fill="#191970" stroke="#191970" points="48.6083,-581.8031 46.6604,-592.2173 54.6775,-585.2909 48.6083,-581.8031"/>
</g>
<!-- Node141188 -->
<g id="node20" class="node">
<title>Node141188</title>
<g id="a_node20"><a xlink:href="quickjs_8c.html#a5f75fb513884286c86db6863663f262a" target="_top" xlink:title="js_object_getOwnProperty\lDescriptor">
<polygon fill="none" stroke="#000000" points="125.5,-429 125.5,-459 256.5,-459 256.5,-429 125.5,-429"/>
<text text-anchor="start" x="133.5" y="-447" font-family="Helvetica,sans-Serif" font-size="10.00" fill="#000000">js_object_getOwnProperty</text>
<text text-anchor="middle" x="191" y="-436" font-family="Helvetica,sans-Serif" font-size="10.00" fill="#000000">Descriptor</text>
</a>
</g>
</g>
<!-- Node140897&#45;&gt;Node141188 -->
<g id="edge21" class="edge">
<title>Node140897&#45;&gt;Node141188</title>
<path fill="none" stroke="#191970" d="M47.808,-582.7284C58.176,-553.9604 81.4933,-499.8733 119,-469 123.6994,-465.1317 129.0347,-461.8464 134.6256,-459.0594"/>
<polygon fill="#191970" stroke="#191970" points="44.4195,-581.8184 44.4657,-592.4131 51.0366,-584.102 44.4195,-581.8184"/>
</g>
<!-- Node141189 -->
<g id="node21" class="node">
<title>Node141189</title>
<g id="a_node21"><a xlink:href="quickjs_8c.html#ad4eec5e88dc04d884c28e0f09d9a81f5" target="_top" xlink:title="js_object_getOwnProperty\lDescriptors">
<polygon fill="none" stroke="#000000" points="304.5,-407 304.5,-437 435.5,-437 435.5,-407 304.5,-407"/>
<text text-anchor="start" x="312.5" y="-425" font-family="Helvetica,sans-Serif" font-size="10.00" fill="#000000">js_object_getOwnProperty</text>
<text text-anchor="middle" x="370" y="-414" font-family="Helvetica,sans-Serif" font-size="10.00" fill="#000000">Descriptors</text>
</a>
</g>
</g>
<!-- Node140897&#45;&gt;Node141189 -->
<g id="edge23" class="edge">
<title>Node140897&#45;&gt;Node141189</title>
<path fill="none" stroke="#191970" d="M43.065,-581.9728C47.3401,-542.6858 62.9769,-456.1143 119,-419 180.2167,-378.4451 269.5884,-392.5766 323.5307,-406.9747"/>
<polygon fill="#191970" stroke="#191970" points="39.5614,-581.8465 42.1032,-592.1319 46.5302,-582.5063 39.5614,-581.8465"/>
</g>
<!-- Node141099 -->
<g id="node22" class="node">
<title>Node141099</title>
<g id="a_node22"><a xlink:href="quickjs-libc_8c.html#a0142166ddf6e134f89207c3ee3c7572c" target="_top" xlink:title="js_os_stat">
<polygon fill="none" stroke="#000000" points="160,-352.5 160,-371.5 222,-371.5 222,-352.5 160,-352.5"/>
<text text-anchor="middle" x="191" y="-359.5" font-family="Helvetica,sans-Serif" font-size="10.00" fill="#000000">js_os_stat</text>
</a>
</g>
</g>
<!-- Node140897&#45;&gt;Node141099 -->
<g id="edge24" class="edge">
<title>Node140897&#45;&gt;Node141099</title>
<path fill="none" stroke="#191970" d="M42.9539,-582.1635C47.1001,-540.058 62.6296,-441.1029 119,-386 129.9298,-375.3159 145.7377,-369.3865 159.7588,-366.0966"/>
<polygon fill="#191970" stroke="#191970" points="39.4578,-581.9678 42.0778,-592.2335 46.4314,-582.5745 39.4578,-581.9678"/>
</g>
<!-- Node140987 -->
<g id="node23" class="node">
<title>Node140987</title>
<g id="a_node23"><a xlink:href="quickjs_8c.html#a0bfdeb7e158aebcb79b7c9367a60be80" target="_top" xlink:title="js_promise_all_resolve\l_element">
<polygon fill="none" stroke="#ff0000" points="133,-303 133,-333 249,-333 249,-303 133,-303"/>
<text text-anchor="start" x="141" y="-321" font-family="Helvetica,sans-Serif" font-size="10.00" fill="#000000">js_promise_all_resolve</text>
<text text-anchor="middle" x="191" y="-310" font-family="Helvetica,sans-Serif" font-size="10.00" fill="#000000">_element</text>
</a>
</g>
</g>
<!-- Node140897&#45;&gt;Node140987 -->
<g id="edge25" class="edge">
<title>Node140897&#45;&gt;Node140987</title>
<path fill="none" stroke="#191970" d="M44.9966,-582.3323C54.9885,-528.1458 85.1354,-378.3689 119,-343 123.0265,-338.7947 127.7958,-335.2964 132.9336,-332.3864"/>
<polygon fill="#191970" stroke="#191970" points="41.5171,-581.9046 43.1762,-592.3687 48.4047,-583.1539 41.5171,-581.9046"/>
</g>
<!-- Node141047 -->
<g id="node24" class="node">
<title>Node141047</title>
<g id="a_node24"><a xlink:href="quickjs_8c.html#a537862df2984a40ceb9be7878c497cd2" target="_top" xlink:title="js_proxy_revocable">
<polygon fill="none" stroke="#000000" points="140.5,-264.5 140.5,-283.5 241.5,-283.5 241.5,-264.5 140.5,-264.5"/>
<text text-anchor="middle" x="191" y="-271.5" font-family="Helvetica,sans-Serif" font-size="10.00" fill="#000000">js_proxy_revocable</text>
</a>
</g>
</g>
<!-- Node140897&#45;&gt;Node141047 -->
<g id="edge26" class="edge">
<title>Node140897&#45;&gt;Node141047</title>
<path fill="none" stroke="#191970" d="M43.8445,-582.1365C51.4954,-520.6172 77.6475,-334.8629 119,-293 124.9054,-287.0217 132.4536,-282.8544 140.4298,-279.9638"/>
<polygon fill="#191970" stroke="#191970" points="40.3279,-582.0622 42.5967,-592.4112 47.2768,-582.9062 40.3279,-582.0622"/>
</g>
<!-- Node141108 -->
<g id="node25" class="node">
<title>Node141108</title>
<g id="a_node25"><a xlink:href="quickjs_8c.html#a4b8ef2bb3b35e4a5f6ed8bd837a50e7c" target="_top" xlink:title="JS_ReadObjectRec">
<polygon fill="none" stroke="#ff0000" points="139,-208.5 139,-227.5 243,-227.5 243,-208.5 139,-208.5"/>
<text text-anchor="middle" x="191" y="-215.5" font-family="Helvetica,sans-Serif" font-size="10.00" fill="#000000">JS_ReadObjectRec</text>
</a>
</g>
</g>
<!-- Node140897&#45;&gt;Node141108 -->
<g id="edge27" class="edge">
<title>Node140897&#45;&gt;Node141108</title>
<path fill="none" stroke="#191970" d="M43.6955,-582.2682C51.3179,-516.7376 78.4085,-307.527 119,-255 128.9685,-242.1003 144.6863,-233.2941 158.8963,-227.5201"/>
<polygon fill="#191970" stroke="#191970" points="40.1897,-582.1209 42.5343,-592.453 47.1446,-582.9139 40.1897,-582.1209"/>
</g>
<!-- Node141038 -->
<g id="node26" class="node">
<title>Node141038</title>
<g id="a_node26"><a xlink:href="quickjs-libc_8c.html#ad04466feec6822a3b838baf229f6dfa0" target="_top" xlink:title="js_std_add_helpers">
<polygon fill="none" stroke="#ff0000" points="140.5,-170.5 140.5,-189.5 241.5,-189.5 241.5,-170.5 140.5,-170.5"/>
<text text-anchor="middle" x="191" y="-177.5" font-family="Helvetica,sans-Serif" font-size="10.00" fill="#000000">js_std_add_helpers</text>
</a>
</g>
</g>
<!-- Node140897&#45;&gt;Node141038 -->
<g id="edge29" class="edge">
<title>Node140897&#45;&gt;Node141038</title>
<path fill="none" stroke="#191970" d="M42.592,-582.0721C47.006,-508.8283 65.9075,-255.8324 119,-199 124.7364,-192.8595 132.2016,-188.6123 140.1477,-185.6928"/>
<polygon fill="#191970" stroke="#191970" points="39.0881,-582.041 42.005,-592.2264 46.0764,-582.4451 39.0881,-582.041"/>
</g>
<!-- Node141040 -->
<g id="node27" class="node">
<title>Node141040</title>
<g id="a_node27"><a xlink:href="quickjs-libc_8c.html#a08cea1a0226b7603e6969e2208d99d55" target="_top" xlink:title="js_std_init">
<polygon fill="none" stroke="#ff0000" points="160.5,-132.5 160.5,-151.5 221.5,-151.5 221.5,-132.5 160.5,-132.5"/>
<text text-anchor="middle" x="191" y="-139.5" font-family="Helvetica,sans-Serif" font-size="10.00" fill="#000000">js_std_init</text>
</a>
</g>
</g>
<!-- Node140897&#45;&gt;Node141040 -->
<g id="edge30" class="edge">
<title>Node140897&#45;&gt;Node141040</title>
<path fill="none" stroke="#191970" d="M42.2248,-582.2319C45.4603,-504.8953 61.0777,-224.0072 119,-161 129.4117,-149.6743 145.7015,-144.7725 160.1548,-142.7695"/>
<polygon fill="#191970" stroke="#191970" points="38.7177,-582.3455 41.8204,-592.4758 45.7122,-582.6217 38.7177,-582.3455"/>
</g>
<!-- Node141147 -->
<g id="node28" class="node">
<title>Node141147</title>
<g id="a_node28"><a xlink:href="quickjs-libc_8c.html#a7aebce2172c6aa4a6645aef600a69e6b" target="_top" xlink:title="js_std_urlGet">
<polygon fill="none" stroke="#000000" points="154,-94.5 154,-113.5 228,-113.5 228,-94.5 154,-94.5"/>
<text text-anchor="middle" x="191" y="-101.5" font-family="Helvetica,sans-Serif" font-size="10.00" fill="#000000">js_std_urlGet</text>
</a>
</g>
</g>
<!-- Node140897&#45;&gt;Node141147 -->
<g id="edge31" class="edge">
<title>Node140897&#45;&gt;Node141147</title>
<path fill="none" stroke="#191970" d="M41.9254,-582.1242C44.0772,-500.5041 56.297,-192.1423 119,-123 127.8583,-113.232 141.0878,-108.2316 153.799,-105.7503"/>
<polygon fill="#191970" stroke="#191970" points="38.4183,-582.3844 41.6762,-592.4658 45.4162,-582.5531 38.4183,-582.3844"/>
</g>
<!-- Node141110 -->
<g id="node29" class="node">
<title>Node141110</title>
<g id="a_node29"><a xlink:href="quickjs_8c.html#a756c1ab5dee9a6dd07723d7a075e2a53" target="_top" xlink:title="json_parse_value">
<polygon fill="none" stroke="#ff0000" points="145,-38.5 145,-57.5 237,-57.5 237,-38.5 145,-38.5"/>
<text text-anchor="middle" x="191" y="-45.5" font-family="Helvetica,sans-Serif" font-size="10.00" fill="#000000">json_parse_value</text>
</a>
</g>
</g>
<!-- Node140897&#45;&gt;Node141110 -->
<g id="edge32" class="edge">
<title>Node140897&#45;&gt;Node141110</title>
<path fill="none" stroke="#191970" d="M42.0995,-582.2694C45.0139,-497.7881 60.0628,-167.1298 119,-85 128.3409,-71.9833 143.6404,-63.2224 157.7393,-57.5082"/>
<polygon fill="#191970" stroke="#191970" points="38.6,-582.2016 41.7715,-592.3106 45.5963,-582.4302 38.6,-582.2016"/>
</g>
<!-- Node141526 -->
<g id="node30" class="node">
<title>Node141526</title>
<g id="a_node30"><a xlink:href="classqjs_1_1Context.html#ab84e72a846bceb8085366950bb328548" target="_top" xlink:title="returns new Object() ">
<polygon fill="none" stroke="#ff0000" points="130,-.5 130,-19.5 252,-19.5 252,-.5 130,-.5"/>
<text text-anchor="middle" x="191" y="-7.5" font-family="Helvetica,sans-Serif" font-size="10.00" fill="#000000">qjs::Context::newObject</text>
</a>
</g>
</g>
<!-- Node140897&#45;&gt;Node141526 -->
<g id="edge34" class="edge">
<title>Node140897&#45;&gt;Node141526</title>
<path fill="none" stroke="#191970" d="M42.8689,-582.372C49.7142,-486.6369 81.3976,-71.5617 119,-29 122.3382,-25.2215 126.3303,-22.1533 130.6997,-19.6667"/>
<polygon fill="#191970" stroke="#191970" points="39.3728,-582.1954 42.1585,-592.4174 46.3553,-582.6893 39.3728,-582.1954"/>
</g>
<!-- Node140910&#45;&gt;Node140910 -->
<g id="edge12" class="edge">
<title>Node140910&#45;&gt;Node140910</title>
<path fill="none" stroke="#191970" d="M163.3742,-784.6539C164.5289,-789.9368 173.7375,-794 191,-794 217.3047,-794 224.9084,-784.5653 213.8111,-775.7571"/>
<polygon fill="#191970" stroke="#191970" points="166.5076,-786.2176 168.1889,-775.7571 160.3512,-782.886 166.5076,-786.2176"/>
</g>
<!-- Node141186&#45;&gt;Node140898 -->
<g id="edge19" class="edge">
<title>Node141186&#45;&gt;Node140898</title>
<path fill="none" stroke="#191970" d="M255.3589,-539.2119C258.0801,-540.9187 260.6483,-542.8393 263,-545 353.8039,-628.43 367.6025,-794.1506 369.651,-835.4891"/>
<polygon fill="#191970" stroke="#191970" points="256.7121,-535.9705 246.2259,-534.4567 253.4794,-542.1793 256.7121,-535.9705"/>
</g>
<!-- Node141188&#45;&gt;Node141189 -->
<g id="edge22" class="edge">
<title>Node141188&#45;&gt;Node141189</title>
<path fill="none" stroke="#191970" d="M266.6057,-434.7077C279.1607,-433.1646 292.0895,-431.5756 304.3714,-430.0661"/>
<polygon fill="#191970" stroke="#191970" points="266.1349,-431.2391 256.6366,-435.9329 266.9889,-438.1868 266.1349,-431.2391"/>
</g>
<!-- Node141108&#45;&gt;Node141108 -->
<g id="edge28" class="edge">
<title>Node141108&#45;&gt;Node141108</title>
<path fill="none" stroke="#191970" d="M163.3742,-236.6539C164.5289,-241.9368 173.7375,-246 191,-246 217.3047,-246 224.9084,-236.5653 213.8111,-227.7571"/>
<polygon fill="#191970" stroke="#191970" points="166.5076,-238.2176 168.1889,-227.7571 160.3512,-234.886 166.5076,-238.2176"/>
</g>
<!-- Node141110&#45;&gt;Node141110 -->
<g id="edge33" class="edge">
<title>Node141110&#45;&gt;Node141110</title>
<path fill="none" stroke="#191970" d="M163.3742,-66.6539C164.5289,-71.9368 173.7375,-76 191,-76 217.3047,-76 224.9084,-66.5653 213.8111,-57.7571"/>
<polygon fill="#191970" stroke="#191970" points="166.5076,-68.2176 168.1889,-57.7571 160.3512,-64.886 166.5076,-68.2176"/>
</g>
</g>
</svg>
        <g id="navigator" transform="translate(0 0)" fill="#404254">
                <rect fill="#f2f5e9" fill-opacity="0.5" stroke="#606060" stroke-width=".5" x="0" y="0" width="60" height="60"/>
                <use id="zoomplus" xlink:href="#zoomPlus" x="17" y="9" onmousedown="handleZoom(evt,'in')"/>
                <use id="zoomminus" xlink:href="#zoomMin" x="42" y="9" onmousedown="handleZoom(evt,'out')"/>
                <use id="reset" xlink:href="#resetDef" x="30" y="36" onmousedown="handleReset()"/>
                <g id="arrowUp" xlink:href="#dirArrow" transform="translate(30 24)" onmousedown="handlePan(0,-1)">
                  <use xlink:href="#rim" fill="#404040">
                        <set attributeName="fill" to="#808080" begin="arrowUp.mouseover" end="arrowUp.mouseout"/>
                  </use>
                  <path fill="none" stroke="white" stroke-width="1.5" d="M0,-3.0v7 M-2.5,-0.5L0,-3.0L2.5,-0.5"/>
                </g>
                <g id="arrowRight" xlink:href="#dirArrow" transform="rotate(90) translate(36 -43)" onmousedown="handlePan(1,0)">
                  <use xlink:href="#rim" fill="#404040">
                        <set attributeName="fill" to="#808080" begin="arrowRight.mouseover" end="arrowRight.mouseout"/>
                  </use>
                  <path fill="none" stroke="white" stroke-width="1.5" d="M0,-3.0v7 M-2.5,-0.5L0,-3.0L2.5,-0.5"/>
                </g>
                <g id="arrowDown" xlink:href="#dirArrow" transform="rotate(180) translate(-30 -48)" onmousedown="handlePan(0,1)">
                  <use xlink:href="#rim" fill="#404040">
                        <set attributeName="fill" to="#808080" begin="arrowDown.mouseover" end="arrowDown.mouseout"/>
                  </use>
                  <path fill="none" stroke="white" stroke-width="1.5" d="M0,-3.0v7 M-2.5,-0.5L0,-3.0L2.5,-0.5"/>
                </g>
                <g id="arrowLeft" xlink:href="#dirArrow" transform="rotate(270) translate(-36 17)" onmousedown="handlePan(-1,0)">
                  <use xlink:href="#rim" fill="#404040">
                        <set attributeName="fill" to="#808080" begin="arrowLeft.mouseover" end="arrowLeft.mouseout"/>
                  </use>
                  <path fill="none" stroke="white" stroke-width="1.5" d="M0,-3.0v7 M-2.5,-0.5L0,-3.0L2.5,-0.5"/>
                </g>
        </g>
        <svg viewBox="0 0 15 15" width="100%" height="30px" preserveAspectRatio="xMaxYMin meet">
         <g id="arrow_out" transform="scale(0.3 0.3)">
          <a xlink:href="quickjs_8c_afc0d8ea75588216ec132a6e1655524a7_icgraph_org.svg" target="_base">
           <rect id="button" ry="5" rx="5" y="6" x="6" height="38" width="38"
                fill="#f2f5e9" fill-opacity="0.5" stroke="#606060" stroke-width="1.0"/>
           <path id="arrow"
             d="M 11.500037,31.436501 C 11.940474,20.09759 22.043105,11.32322 32.158766,21.979434 L 37.068811,17.246167 C 37.068811,17.246167 37.088388,32 37.088388,32 L 22.160133,31.978069 C 22.160133,31.978069 26.997745,27.140456 26.997745,27.140456 C 18.528582,18.264221 13.291696,25.230495 11.500037,31.436501 z"
             style="fill:#404040;"/>
          </a>
         </g>
        </svg>
</svg>
