<?xml version="1.0" encoding="UTF-8" standalone="no"?>
<!DOCTYPE svg PUBLIC "-//W3C//DTD SVG 1.1//EN"
 "http://www.w3.org/Graphics/SVG/1.1/DTD/svg11.dtd">
<!-- Generated by graphviz version 2.40.1 (20161225.0304)
 -->
<!-- Title: gc_decref_child Pages: 1 -->
<svg width="413pt" height="28pt"
 viewBox="0.00 0.00 413.00 28.00" xmlns="http://www.w3.org/2000/svg" xmlns:xlink="http://www.w3.org/1999/xlink">
<g id="graph0" class="graph" transform="scale(1 1) rotate(0) translate(4 24)">
<title>gc_decref_child</title>
<!-- Node135891 -->
<g id="node1" class="node">
<title>Node135891</title>
<polygon fill="#bfbfbf" stroke="#000000" points="0,-.5 0,-19.5 85,-19.5 85,-.5 0,-.5"/>
<text text-anchor="middle" x="42.5" y="-7.5" font-family="Helvetica,sans-Serif" font-size="10.00" fill="#000000">gc_decref_child</text>
</g>
<!-- Node135892 -->
<g id="node2" class="node">
<title>Node135892</title>
<g id="a_node2"><a xlink:href="quickjs_8c.html#addb72dbb3fd476d2b5b0e7f7a0817ce3" target="_top" xlink:title="gc_decref_mark">
<polygon fill="none" stroke="#000000" points="121,-.5 121,-19.5 207,-19.5 207,-.5 121,-.5"/>
<text text-anchor="middle" x="164" y="-7.5" font-family="Helvetica,sans-Serif" font-size="10.00" fill="#000000">gc_decref_mark</text>
</a>
</g>
</g>
<!-- Node135891&#45;&gt;Node135892 -->
<g id="edge1" class="edge">
<title>Node135891&#45;&gt;Node135892</title>
<path fill="none" stroke="#191970" d="M95.4801,-3.2993C103.9154,-3.1917 112.5539,-3.2602 120.7306,-3.5048"/>
<polygon fill="#191970" stroke="#191970" points="95.2586,.1968 85.3364,-3.5179 95.4095,-6.8016 95.2586,.1968"/>
</g>
<!-- Node135892&#45;&gt;Node135891 -->
<g id="edge4" class="edge">
<title>Node135892&#45;&gt;Node135891</title>
<path fill="none" stroke="#191970" d="M110.5725,-16.7062C102.1302,-16.8076 93.4965,-16.7329 85.3364,-16.4821"/>
<polygon fill="#191970" stroke="#191970" points="110.8054,-20.2022 120.7306,-16.4952 110.66,-13.2037 110.8054,-20.2022"/>
</g>
<!-- Node135893 -->
<g id="node3" class="node">
<title>Node135893</title>
<g id="a_node3"><a xlink:href="quickjs_8c.html#ae09ca4f159971d3c1f1dafc8682ba04b" target="_top" xlink:title="gc_decref">
<polygon fill="none" stroke="#000000" points="243,-.5 243,-19.5 302,-19.5 302,-.5 243,-.5"/>
<text text-anchor="middle" x="272.5" y="-7.5" font-family="Helvetica,sans-Serif" font-size="10.00" fill="#000000">gc_decref</text>
</a>
</g>
</g>
<!-- Node135892&#45;&gt;Node135893 -->
<g id="edge2" class="edge">
<title>Node135892&#45;&gt;Node135893</title>
<path fill="none" stroke="#191970" d="M217.3886,-10C226.131,-10 234.9033,-10 242.797,-10"/>
<polygon fill="#191970" stroke="#191970" points="217.1939,-6.5001 207.1938,-10 217.1938,-13.5001 217.1939,-6.5001"/>
</g>
<!-- Node135894 -->
<g id="node4" class="node">
<title>Node135894</title>
<g id="a_node4"><a xlink:href="quickjs_8c.html#aeeea589ee4cec4bbc3145210f4cf6e42" target="_top" xlink:title="JS_RunGC">
<polygon fill="none" stroke="#ff0000" points="338,-.5 338,-19.5 405,-19.5 405,-.5 338,-.5"/>
<text text-anchor="middle" x="371.5" y="-7.5" font-family="Helvetica,sans-Serif" font-size="10.00" fill="#000000">JS_RunGC</text>
</a>
</g>
</g>
<!-- Node135893&#45;&gt;Node135894 -->
<g id="edge3" class="edge">
<title>Node135893&#45;&gt;Node135894</title>
<path fill="none" stroke="#191970" d="M312.2178,-10C320.6448,-10 329.4658,-10 337.6505,-10"/>
<polygon fill="#191970" stroke="#191970" points="312.2033,-6.5001 302.2033,-10 312.2032,-13.5001 312.2033,-6.5001"/>
</g>
</g>
</svg>
