<?xml version="1.0" encoding="UTF-8" standalone="no"?>
<!DOCTYPE svg PUBLIC "-//W3C//DTD SVG 1.1//EN"
 "http://www.w3.org/Graphics/SVG/1.1/DTD/svg11.dtd">
<!-- Generated by graphviz version 2.40.1 (20161225.0304)
 -->
<!-- Title: js_promise_then_finally_func Pages: 1 -->
<!--zoomable 1087 -->
<svg id="main" version="1.1" xmlns="http://www.w3.org/2000/svg" xmlns:xlink="http://www.w3.org/1999/xlink" xml:space="preserve" onload="init(evt)">
<style type="text/css"><![CDATA[
.edge:hover path { stroke: red; }
.edge:hover polygon { stroke: red; fill: red; }
]]></style>
<script type="text/javascript"><![CDATA[
var edges = document.getElementsByTagName('g');
if (edges && edges.length) {
  for (var i=0;i<edges.length;i++) {
    if (edges[i].id.substr(0,4)=='edge') {
      edges[i].setAttribute('class','edge');
    }
  }
}
]]></script>
        <defs>
                <circle id="rim" cx="0" cy="0" r="7"/>
                <circle id="rim2" cx="0" cy="0" r="3.5"/>
                <g id="zoomPlus">
                        <use xlink:href="#rim" fill="#404040">
                                <set attributeName="fill" to="#808080" begin="zoomplus.mouseover" end="zoomplus.mouseout"/>
                        </use>
                        <path d="M-4,0h8M0,-4v8" fill="none" stroke="white" stroke-width="1.5" pointer-events="none"/>
                </g>
                <g id="zoomMin">
                        <use xlink:href="#rim" fill="#404040">
                                <set attributeName="fill" to="#808080" begin="zoomminus.mouseover" end="zoomminus.mouseout"/>
                        </use>
                        <path d="M-4,0h8" fill="none" stroke="white" stroke-width="1.5" pointer-events="none"/>
                </g>
                <g id="dirArrow">
                        <path fill="none" stroke="white" stroke-width="1.5" d="M0,-3.0v7 M-2.5,-0.5L0,-3.0L2.5,-0.5"/>
                </g>
               <g id="resetDef">
                       <use xlink:href="#rim2" fill="#404040">
                               <set attributeName="fill" to="#808080" begin="reset.mouseover" end="reset.mouseout"/>
                       </use>
               </g>
        </defs>

<script type="text/javascript">
var viewWidth = 819;
var viewHeight = 1087;
var sectionId = 'dynsection-1755';
</script>
<script xlink:href="svgpan.js"/>
<svg id="graph" class="graph">
<g id="viewport">
<title>js_promise_then_finally_func</title>
<!-- Node485355 -->
<g id="node1" class="node">
<title>Node485355</title>
<polygon fill="#bfbfbf" stroke="#000000" points="0,-703.7251 0,-722.7251 143,-722.7251 143,-703.7251 0,-703.7251"/>
<text text-anchor="middle" x="71.5" y="-710.7251" font-family="Helvetica,sans-Serif" font-size="10.00" fill="#000000">js_promise_then_finally_func</text>
</g>
<!-- Node485356 -->
<g id="node2" class="node">
<title>Node485356</title>
<g id="a_node2"><a xlink:href="quickjs_8c.html#a1a4c02a29525d5cb2085dd8bca3af350" target="_top" xlink:title="JS_Call">
<polygon fill="none" stroke="#000000" points="201,-513.7251 201,-532.7251 252,-532.7251 252,-513.7251 201,-513.7251"/>
<text text-anchor="middle" x="226.5" y="-520.7251" font-family="Helvetica,sans-Serif" font-size="10.00" fill="#000000">JS_Call</text>
</a>
</g>
</g>
<!-- Node485355&#45;&gt;Node485356 -->
<g id="edge1" class="edge">
<title>Node485355&#45;&gt;Node485356</title>
<path fill="none" stroke="#191970" d="M79.3996,-703.5418C104.0617,-673.3108 179.8896,-580.3605 211.9487,-541.0622"/>
<polygon fill="#191970" stroke="#191970" points="214.8212,-543.0779 218.4305,-533.1168 209.3971,-538.653 214.8212,-543.0779"/>
</g>
<!-- Node485410 -->
<g id="node9" class="node">
<title>Node485410</title>
<g id="a_node9"><a xlink:href="quickjs_8h.html#afaa20c47565bc704c6c85f3d77254e7d" target="_top" xlink:title="JS_FreeValue">
<polygon fill="none" stroke="#ff0000" points="733,-532.7251 733,-551.7251 811,-551.7251 811,-532.7251 733,-532.7251"/>
<text text-anchor="middle" x="772" y="-539.7251" font-family="Helvetica,sans-Serif" font-size="10.00" fill="#000000">JS_FreeValue</text>
</a>
</g>
</g>
<!-- Node485355&#45;&gt;Node485410 -->
<g id="edge32" class="edge">
<title>Node485355&#45;&gt;Node485410</title>
<path fill="none" stroke="#191970" d="M73.8654,-722.881C88.5568,-780.2902 172.7956,-1074.2251 357.5,-1074.2251 357.5,-1074.2251 357.5,-1074.2251 508,-1074.2251 593.7697,-1074.2251 637.965,-1097.445 697,-1035.2251 730.3245,-1000.1028 762.6761,-649.9355 770.3105,-562.1181"/>
<polygon fill="#191970" stroke="#191970" points="773.7995,-562.3943 771.1699,-552.131 766.8253,-561.7941 773.7995,-562.3943"/>
</g>
<!-- Node485420 -->
<g id="node11" class="node">
<title>Node485420</title>
<g id="a_node11"><a xlink:href="quickjs_8h.html#ad80a83d73e9b7d872b88fbf2943aebe9" target="_top" xlink:title="JS_IsException">
<polygon fill="none" stroke="#000000" points="611,-655.7251 611,-674.7251 697,-674.7251 697,-655.7251 611,-655.7251"/>
<text text-anchor="middle" x="654" y="-662.7251" font-family="Helvetica,sans-Serif" font-size="10.00" fill="#000000">JS_IsException</text>
</a>
</g>
</g>
<!-- Node485355&#45;&gt;Node485420 -->
<g id="edge37" class="edge">
<title>Node485355&#45;&gt;Node485420</title>
<path fill="none" stroke="#191970" d="M83.1993,-722.9502C141.4126,-770.1118 403.8597,-968.1795 575,-854.2251 578.7927,-851.6998 627.1681,-732.0271 646.2936,-684.4416"/>
<polygon fill="#191970" stroke="#191970" points="649.621,-685.5478 650.0992,-674.9638 643.1251,-682.9395 649.621,-685.5478"/>
</g>
<!-- Node485824 -->
<g id="node25" class="node">
<title>Node485824</title>
<g id="a_node25"><a xlink:href="quickjs_8c.html#ad31f7a1d61971bfacede26cef8204a91" target="_top" xlink:title="JS_InvokeFree">
<polygon fill="none" stroke="#000000" points="316,-912.7251 316,-931.7251 399,-931.7251 399,-912.7251 316,-912.7251"/>
<text text-anchor="middle" x="357.5" y="-919.7251" font-family="Helvetica,sans-Serif" font-size="10.00" fill="#000000">JS_InvokeFree</text>
</a>
</g>
</g>
<!-- Node485355&#45;&gt;Node485824 -->
<g id="edge33" class="edge">
<title>Node485355&#45;&gt;Node485824</title>
<path fill="none" stroke="#191970" d="M73.8938,-722.9637C82.1916,-754.4577 112.9021,-854.0619 179,-898.2251 216.0731,-922.9955 267.2271,-927.6175 305.2735,-926.8515"/>
<polygon fill="#191970" stroke="#191970" points="305.757,-930.3374 315.6343,-926.5049 305.5228,-923.3413 305.757,-930.3374"/>
</g>
<!-- Node485767 -->
<g id="node27" class="node">
<title>Node485767</title>
<g id="a_node27"><a xlink:href="quickjs_8c.html#a28c0ccdd26317bc38d0a693f1dffe4dc" target="_top" xlink:title="js_new_promise_capability">
<polygon fill="none" stroke="#ff0000" points="441,-950.7251 441,-969.7251 575,-969.7251 575,-950.7251 441,-950.7251"/>
<text text-anchor="middle" x="508" y="-957.7251" font-family="Helvetica,sans-Serif" font-size="10.00" fill="#000000">js_new_promise_capability</text>
</a>
</g>
</g>
<!-- Node485355&#45;&gt;Node485767 -->
<g id="edge38" class="edge">
<title>Node485355&#45;&gt;Node485767</title>
<path fill="none" stroke="#191970" d="M73.1196,-722.9071C79.419,-757.2342 105.6791,-873.8137 179,-925.2251 255.9891,-979.2086 369.0437,-978.464 440.5591,-970.9094"/>
<polygon fill="#191970" stroke="#191970" points="441.2567,-974.3529 450.7999,-969.7511 440.4699,-967.3972 441.2567,-974.3529"/>
</g>
<!-- Node485774 -->
<g id="node28" class="node">
<title>Node485774</title>
<g id="a_node28"><a xlink:href="quickjs_8c.html#ac048b0ff95f3f0cb7c189e87f74df753" target="_top" xlink:title="JS_NewCFunctionData">
<polygon fill="none" stroke="#ff0000" points="448,-38.7251 448,-57.7251 568,-57.7251 568,-38.7251 448,-38.7251"/>
<text text-anchor="middle" x="508" y="-45.7251" font-family="Helvetica,sans-Serif" font-size="10.00" fill="#000000">JS_NewCFunctionData</text>
</a>
</g>
</g>
<!-- Node485355&#45;&gt;Node485774 -->
<g id="edge43" class="edge">
<title>Node485355&#45;&gt;Node485774</title>
<path fill="none" stroke="#191970" d="M72.4127,-703.6952C78.6997,-639.5635 117.1824,-270.7052 179,-179.2251 236.5683,-94.0334 359.3309,-64.2423 437.5377,-53.8252"/>
<polygon fill="#191970" stroke="#191970" points="438.307,-57.2562 447.7922,-52.536 437.4337,-50.3108 438.307,-57.2562"/>
</g>
<!-- Node485826 -->
<g id="node29" class="node">
<title>Node485826</title>
<g id="a_node29"><a xlink:href="quickjs_8c.html#ac15a82ecdea657381f26bf441ddc851f" target="_top" xlink:title="js_promise_finally\l_thrower">
<polygon fill="none" stroke="#000000" points="310,-103.2251 310,-133.2251 405,-133.2251 405,-103.2251 310,-103.2251"/>
<text text-anchor="start" x="318" y="-121.2251" font-family="Helvetica,sans-Serif" font-size="10.00" fill="#000000">js_promise_finally</text>
<text text-anchor="middle" x="357.5" y="-110.2251" font-family="Helvetica,sans-Serif" font-size="10.00" fill="#000000">_thrower</text>
</a>
</g>
</g>
<!-- Node485355&#45;&gt;Node485826 -->
<g id="edge47" class="edge">
<title>Node485355&#45;&gt;Node485826</title>
<path fill="none" stroke="#191970" d="M72.4879,-703.4815C77.5364,-656.7728 103.2371,-452.0059 179,-305.2251 220.6827,-224.4704 241.6401,-208.1058 310,-148.2251 313.6592,-145.0198 317.6956,-141.9247 321.8232,-139.0186"/>
<polygon fill="#191970" stroke="#191970" points="323.9546,-141.8042 330.3324,-133.344 320.0708,-135.9804 323.9546,-141.8042"/>
</g>
<!-- Node485827 -->
<g id="node30" class="node">
<title>Node485827</title>
<g id="a_node30"><a xlink:href="quickjs_8c.html#a0824d4a55c9b28ff731b93a2262b4948" target="_top" xlink:title="js_promise_finally\l_value_thunk">
<polygon fill="none" stroke="#000000" points="179,-315.2251 179,-345.2251 274,-345.2251 274,-315.2251 179,-315.2251"/>
<text text-anchor="start" x="187" y="-333.2251" font-family="Helvetica,sans-Serif" font-size="10.00" fill="#000000">js_promise_finally</text>
<text text-anchor="middle" x="226.5" y="-322.2251" font-family="Helvetica,sans-Serif" font-size="10.00" fill="#000000">_value_thunk</text>
</a>
</g>
</g>
<!-- Node485355&#45;&gt;Node485827 -->
<g id="edge50" class="edge">
<title>Node485355&#45;&gt;Node485827</title>
<path fill="none" stroke="#191970" d="M75.4872,-703.3728C95.581,-653.7217 185.9801,-430.3485 216.4426,-355.0766"/>
<polygon fill="#191970" stroke="#191970" points="219.8226,-356.0545 220.3297,-345.4718 213.3338,-353.4285 219.8226,-356.0545"/>
</g>
<!-- Node485357 -->
<g id="node3" class="node">
<title>Node485357</title>
<g id="a_node3"><a xlink:href="quickjs_8c.html#ac2894ff4edcdb4e6841bcce9c76081e3" target="_top" xlink:title="JS_CallInternal">
<polygon fill="none" stroke="#ff0000" points="316,-513.7251 316,-532.7251 399,-532.7251 399,-513.7251 316,-513.7251"/>
<text text-anchor="middle" x="357.5" y="-520.7251" font-family="Helvetica,sans-Serif" font-size="10.00" fill="#000000">JS_CallInternal</text>
</a>
</g>
</g>
<!-- Node485356&#45;&gt;Node485357 -->
<g id="edge2" class="edge">
<title>Node485356&#45;&gt;Node485357</title>
<path fill="none" stroke="#191970" d="M252.0691,-517.7442C267.3357,-516.624 287.2823,-516.2454 305.7124,-516.6084"/>
<polygon fill="#191970" stroke="#191970" points="305.6631,-520.1082 315.7561,-516.8863 305.8568,-513.1109 305.6631,-520.1082"/>
</g>
<!-- Node485357&#45;&gt;Node485356 -->
<g id="edge24" class="edge">
<title>Node485357&#45;&gt;Node485356</title>
<path fill="none" stroke="#191970" d="M315.7561,-529.564C298.5905,-530.1839 278.9069,-530.1028 262.3997,-529.3209"/>
<polygon fill="#191970" stroke="#191970" points="262.2594,-525.8064 252.0691,-528.7061 261.8435,-532.7941 262.2594,-525.8064"/>
</g>
<!-- Node485357&#45;&gt;Node485357 -->
<g id="edge25" class="edge">
<title>Node485357&#45;&gt;Node485357</title>
<path fill="none" stroke="#191970" d="M337.4632,-532.9822C327.7156,-541.7904 334.3945,-551.2251 357.5,-551.2251 372.3019,-551.2251 380.3624,-547.3531 381.6814,-542.2543"/>
<polygon fill="#191970" stroke="#191970" points="384.813,-540.6833 377.5368,-532.9822 378.4224,-543.54 384.813,-540.6833"/>
</g>
<!-- Node485358 -->
<g id="node4" class="node">
<title>Node485358</title>
<g id="a_node4"><a xlink:href="quickjs_8c.html#a853f0924d441ea4225488f37c8b69f9a" target="_top" xlink:title="__attribute__">
<polygon fill="none" stroke="#000000" points="471.5,-684.7251 471.5,-703.7251 544.5,-703.7251 544.5,-684.7251 471.5,-684.7251"/>
<text text-anchor="middle" x="508" y="-691.7251" font-family="Helvetica,sans-Serif" font-size="10.00" fill="#000000">__attribute__</text>
</a>
</g>
</g>
<!-- Node485357&#45;&gt;Node485358 -->
<g id="edge3" class="edge">
<title>Node485357&#45;&gt;Node485358</title>
<path fill="none" stroke="#191970" d="M359.932,-532.7508C367.2691,-559.5225 391.7703,-636.0306 441,-675.2251 447.0507,-680.0425 454.261,-683.6387 461.6735,-686.3232"/>
<polygon fill="#191970" stroke="#191970" points="460.8661,-689.7371 471.454,-689.3531 462.9376,-683.0506 460.8661,-689.7371"/>
</g>
<!-- Node485359 -->
<g id="node5" class="node">
<title>Node485359</title>
<g id="a_node5"><a xlink:href="quickjs_8c.html#a877fcb7651d95b411ce70e62b7f4a1f0" target="_top" xlink:title="__JS_AtomFromUInt32">
<polygon fill="none" stroke="#000000" points="448.5,-646.7251 448.5,-665.7251 567.5,-665.7251 567.5,-646.7251 448.5,-646.7251"/>
<text text-anchor="middle" x="508" y="-653.7251" font-family="Helvetica,sans-Serif" font-size="10.00" fill="#000000">__JS_AtomFromUInt32</text>
</a>
</g>
</g>
<!-- Node485357&#45;&gt;Node485359 -->
<g id="edge4" class="edge">
<title>Node485357&#45;&gt;Node485359</title>
<path fill="none" stroke="#191970" d="M361.7998,-532.8526C372.1272,-554.8534 400.5111,-609.0787 441,-637.2251 443.8666,-639.2179 446.9389,-641.0028 450.134,-642.6014"/>
<polygon fill="#191970" stroke="#191970" points="448.8291,-645.8506 459.3951,-646.6314 451.6222,-639.4319 448.8291,-645.8506"/>
</g>
<!-- Node485360 -->
<g id="node6" class="node">
<title>Node485360</title>
<g id="a_node6"><a xlink:href="quickjs_8c.html#a74547db03bf739a52c83a326b32db997" target="_top" xlink:title="add_property">
<polygon fill="none" stroke="#ff0000" points="471.5,-608.7251 471.5,-627.7251 544.5,-627.7251 544.5,-608.7251 471.5,-608.7251"/>
<text text-anchor="middle" x="508" y="-615.7251" font-family="Helvetica,sans-Serif" font-size="10.00" fill="#000000">add_property</text>
</a>
</g>
</g>
<!-- Node485357&#45;&gt;Node485360 -->
<g id="edge5" class="edge">
<title>Node485357&#45;&gt;Node485360</title>
<path fill="none" stroke="#191970" d="M366.4071,-532.7551C380.8148,-547.6868 410.6907,-576.697 441,-594.2251 448.2239,-598.4028 456.2996,-602.0466 464.2747,-605.1475"/>
<polygon fill="#191970" stroke="#191970" points="463.2949,-608.5157 473.8888,-608.6599 465.6971,-601.9408 463.2949,-608.5157"/>
</g>
<!-- Node485408 -->
<g id="node7" class="node">
<title>Node485408</title>
<g id="a_node7"><a xlink:href="quickjs_8c.html#a4956f45ffd2849b96dc051277264f87a" target="_top" xlink:title="build_arg_list">
<polygon fill="none" stroke="#ff0000" points="471,-532.7251 471,-551.7251 545,-551.7251 545,-532.7251 471,-532.7251"/>
<text text-anchor="middle" x="508" y="-539.7251" font-family="Helvetica,sans-Serif" font-size="10.00" fill="#000000">build_arg_list</text>
</a>
</g>
</g>
<!-- Node485357&#45;&gt;Node485408 -->
<g id="edge6" class="edge">
<title>Node485357&#45;&gt;Node485408</title>
<path fill="none" stroke="#191970" d="M399.0232,-528.4673C418.2128,-530.8899 441.0919,-533.7783 460.9209,-536.2816"/>
<polygon fill="#191970" stroke="#191970" points="460.6168,-539.7709 470.9765,-537.5511 461.4936,-532.826 460.6168,-539.7709"/>
</g>
<!-- Node485409 -->
<g id="node8" class="node">
<title>Node485409</title>
<g id="a_node8"><a xlink:href="quickjs_8c.html#ac864482356b3efc2d0b0a509fcfa4c7c" target="_top" xlink:title="free_arg_list">
<polygon fill="none" stroke="#ff0000" points="619,-532.7251 619,-551.7251 689,-551.7251 689,-532.7251 619,-532.7251"/>
<text text-anchor="middle" x="654" y="-539.7251" font-family="Helvetica,sans-Serif" font-size="10.00" fill="#000000">free_arg_list</text>
</a>
</g>
</g>
<!-- Node485357&#45;&gt;Node485409 -->
<g id="edge15" class="edge">
<title>Node485357&#45;&gt;Node485409</title>
<path fill="none" stroke="#191970" d="M359.4538,-532.9878C369.5449,-582.9427 416.2444,-808.3524 441,-827.2251 488.3619,-863.3322 528.9632,-865.0072 575,-827.2251 638.402,-775.1916 587.2167,-724.7214 611,-646.2251 620.3055,-615.5127 635.3712,-581.3987 644.975,-560.8909"/>
<polygon fill="#191970" stroke="#191970" points="648.1908,-562.2781 649.3208,-551.7437 641.8681,-559.2741 648.1908,-562.2781"/>
</g>
<!-- Node485357&#45;&gt;Node485410 -->
<g id="edge27" class="edge">
<title>Node485357&#45;&gt;Node485410</title>
<path fill="none" stroke="#191970" d="M358.3209,-513.4246C362.8367,-462.1288 386.4627,-225.279 441,-182.2251 530.3044,-111.7248 608.7422,-109.4189 697,-181.2251 750.7445,-224.9515 767.2245,-452.8631 771.0321,-522.1947"/>
<polygon fill="#191970" stroke="#191970" points="767.5568,-522.7637 771.5704,-532.5689 774.5474,-522.4009 767.5568,-522.7637"/>
</g>
<!-- Node485388 -->
<g id="node10" class="node">
<title>Node485388</title>
<g id="a_node10"><a xlink:href="quickjs_8h.html#a775522f2d084fc8fa0fcb33f390006b4" target="_top" xlink:title="JS_DupValue">
<polygon fill="none" stroke="#000000" points="615.5,-190.7251 615.5,-209.7251 692.5,-209.7251 692.5,-190.7251 615.5,-190.7251"/>
<text text-anchor="middle" x="654" y="-197.7251" font-family="Helvetica,sans-Serif" font-size="10.00" fill="#000000">JS_DupValue</text>
</a>
</g>
</g>
<!-- Node485357&#45;&gt;Node485388 -->
<g id="edge26" class="edge">
<title>Node485357&#45;&gt;Node485388</title>
<path fill="none" stroke="#191970" d="M358.6757,-513.628C364.6711,-466.357 393.4264,-258.9596 441,-219.2251 486.3948,-181.3105 557.7782,-183.2269 605.2246,-190.0831"/>
<polygon fill="#191970" stroke="#191970" points="604.8407,-193.5656 615.2624,-191.6583 605.926,-186.6502 604.8407,-193.5656"/>
</g>
<!-- Node485357&#45;&gt;Node485420 -->
<g id="edge28" class="edge">
<title>Node485357&#45;&gt;Node485420</title>
<path fill="none" stroke="#191970" d="M376.3927,-532.8147C393.0971,-541.0524 418.2727,-552.8851 441,-561.2251 499.1146,-582.5509 520.2685,-570.3018 575,-599.2251 599.2646,-612.048 622.8449,-633.2356 637.8309,-648.1387"/>
<polygon fill="#191970" stroke="#191970" points="635.7223,-650.9875 645.222,-655.6786 640.7211,-646.0873 635.7223,-650.9875"/>
</g>
<!-- Node485543 -->
<g id="node12" class="node">
<title>Node485543</title>
<g id="a_node12"><a xlink:href="quickjs_8c.html#a61c8dfb5e807af1b6ff7d8ca61576dda" target="_top" xlink:title="build_backtrace">
<polygon fill="none" stroke="#ff0000" points="465.5,-798.7251 465.5,-817.7251 550.5,-817.7251 550.5,-798.7251 465.5,-798.7251"/>
<text text-anchor="middle" x="508" y="-805.7251" font-family="Helvetica,sans-Serif" font-size="10.00" fill="#000000">build_backtrace</text>
</a>
</g>
</g>
<!-- Node485357&#45;&gt;Node485543 -->
<g id="edge11" class="edge">
<title>Node485357&#45;&gt;Node485543</title>
<path fill="none" stroke="#191970" d="M359.2662,-532.8832C367.3547,-576.12 402.1374,-751.4297 441,-789.2251 445.2755,-793.3833 450.391,-796.6444 455.864,-799.1998"/>
<polygon fill="#191970" stroke="#191970" points="454.7379,-802.517 465.3269,-802.8679 457.2679,-795.9902 454.7379,-802.517"/>
</g>
<!-- Node485642 -->
<g id="node13" class="node">
<title>Node485642</title>
<g id="a_node13"><a xlink:href="quickjs_8c.html#a344894112559c2ba75043fd10bcfa02f" target="_top" xlink:title="close_lexical_var">
<polygon fill="none" stroke="#ff0000" points="462,-228.7251 462,-247.7251 554,-247.7251 554,-228.7251 462,-228.7251"/>
<text text-anchor="middle" x="508" y="-235.7251" font-family="Helvetica,sans-Serif" font-size="10.00" fill="#000000">close_lexical_var</text>
</a>
</g>
</g>
<!-- Node485357&#45;&gt;Node485642 -->
<g id="edge12" class="edge">
<title>Node485357&#45;&gt;Node485642</title>
<path fill="none" stroke="#191970" d="M359.2662,-513.5671C367.3547,-470.3302 402.1374,-295.0206 441,-257.2251 444.3573,-253.96 448.2325,-251.248 452.3921,-248.9964"/>
<polygon fill="#191970" stroke="#191970" points="454.1582,-252.0409 461.8615,-244.7669 451.3035,-245.6494 454.1582,-252.0409"/>
</g>
<!-- Node485643 -->
<g id="node14" class="node">
<title>Node485643</title>
<g id="a_node14"><a xlink:href="quickjs_8c.html#a1782043fce951bd4f0d91c7796b31e24" target="_top" xlink:title="close_var_refs">
<polygon fill="none" stroke="#ff0000" points="468,-760.7251 468,-779.7251 548,-779.7251 548,-760.7251 468,-760.7251"/>
<text text-anchor="middle" x="508" y="-767.7251" font-family="Helvetica,sans-Serif" font-size="10.00" fill="#000000">close_var_refs</text>
</a>
</g>
</g>
<!-- Node485357&#45;&gt;Node485643 -->
<g id="edge14" class="edge">
<title>Node485357&#45;&gt;Node485643</title>
<path fill="none" stroke="#191970" d="M358.0546,-533.1554C360.5731,-568.4443 373.9463,-689.0041 441,-751.2251 446.0019,-755.8666 452.0548,-759.3849 458.452,-762.0499"/>
<polygon fill="#191970" stroke="#191970" points="457.3941,-765.3876 467.9889,-765.375 459.6987,-758.7778 457.3941,-765.3876"/>
</g>
<!-- Node485406 -->
<g id="node15" class="node">
<title>Node485406</title>
<g id="a_node15"><a xlink:href="quickjs_8c.html#a9e7b4bccf927d811b0f99b40b08c0472" target="_top" xlink:title="free_var_ref">
<polygon fill="none" stroke="#ff0000" points="474,-722.7251 474,-741.7251 542,-741.7251 542,-722.7251 474,-722.7251"/>
<text text-anchor="middle" x="508" y="-729.7251" font-family="Helvetica,sans-Serif" font-size="10.00" fill="#000000">free_var_ref</text>
</a>
</g>
</g>
<!-- Node485357&#45;&gt;Node485406 -->
<g id="edge16" class="edge">
<title>Node485357&#45;&gt;Node485406</title>
<path fill="none" stroke="#191970" d="M358.8099,-532.8002C363.572,-563.8381 382.8549,-662.5839 441,-713.2251 447.5531,-718.9326 455.708,-722.9329 464.0485,-725.7347"/>
<polygon fill="#191970" stroke="#191970" points="463.265,-729.1503 473.8401,-728.5038 465.1699,-722.4145 463.265,-729.1503"/>
</g>
<!-- Node485645 -->
<g id="node16" class="node">
<title>Node485645</title>
<g id="a_node16"><a xlink:href="cutils_8h.html#a7c82a3ee025fee89db5b11ff5b7691b8" target="_top" xlink:title="get_i16">
<polygon fill="none" stroke="#000000" points="484,-494.7251 484,-513.7251 532,-513.7251 532,-494.7251 484,-494.7251"/>
<text text-anchor="middle" x="508" y="-501.7251" font-family="Helvetica,sans-Serif" font-size="10.00" fill="#000000">get_i16</text>
</a>
</g>
</g>
<!-- Node485357&#45;&gt;Node485645 -->
<g id="edge17" class="edge">
<title>Node485357&#45;&gt;Node485645</title>
<path fill="none" stroke="#191970" d="M399.0232,-517.983C422.6079,-515.0055 451.7658,-511.3245 473.9848,-508.5194"/>
<polygon fill="#191970" stroke="#191970" points="474.4866,-511.9839 483.9695,-507.2589 473.6098,-505.0391 474.4866,-511.9839"/>
</g>
<!-- Node485646 -->
<g id="node17" class="node">
<title>Node485646</title>
<g id="a_node17"><a xlink:href="cutils_8h.html#a288ee4e688944e23500af2ecc813c306" target="_top" xlink:title="get_i8">
<polygon fill="none" stroke="#000000" points="486.5,-456.7251 486.5,-475.7251 529.5,-475.7251 529.5,-456.7251 486.5,-456.7251"/>
<text text-anchor="middle" x="508" y="-463.7251" font-family="Helvetica,sans-Serif" font-size="10.00" fill="#000000">get_i8</text>
</a>
</g>
</g>
<!-- Node485357&#45;&gt;Node485646 -->
<g id="edge18" class="edge">
<title>Node485357&#45;&gt;Node485646</title>
<path fill="none" stroke="#191970" d="M376.3927,-513.6355C393.0971,-505.3979 418.2727,-493.5651 441,-485.2251 452.3842,-481.0476 465.1323,-477.227 476.4281,-474.125"/>
<polygon fill="#191970" stroke="#191970" points="477.5526,-477.4475 486.3128,-471.4885 475.7485,-470.6839 477.5526,-477.4475"/>
</g>
<!-- Node485647 -->
<g id="node18" class="node">
<title>Node485647</title>
<g id="a_node18"><a xlink:href="cutils_8h.html#ad587834d17e95461893d59661e5e9676" target="_top" xlink:title="get_u16">
<polygon fill="none" stroke="#000000" points="482.5,-418.7251 482.5,-437.7251 533.5,-437.7251 533.5,-418.7251 482.5,-418.7251"/>
<text text-anchor="middle" x="508" y="-425.7251" font-family="Helvetica,sans-Serif" font-size="10.00" fill="#000000">get_u16</text>
</a>
</g>
</g>
<!-- Node485357&#45;&gt;Node485647 -->
<g id="edge19" class="edge">
<title>Node485357&#45;&gt;Node485647</title>
<path fill="none" stroke="#191970" d="M365.4457,-513.5195C379.1751,-497.3785 408.9618,-465.0355 441,-447.2251 450.6899,-441.8384 462.0341,-437.873 472.6044,-435.0017"/>
<polygon fill="#191970" stroke="#191970" points="473.5552,-438.3721 482.4223,-432.5734 471.8744,-431.5768 473.5552,-438.3721"/>
</g>
<!-- Node485402 -->
<g id="node19" class="node">
<title>Node485402</title>
<g id="a_node19"><a xlink:href="cutils_8h.html#a941262a5f72fda2ec43ae7911e97a0dc" target="_top" xlink:title="get_u32">
<polygon fill="none" stroke="#000000" points="482.5,-380.7251 482.5,-399.7251 533.5,-399.7251 533.5,-380.7251 482.5,-380.7251"/>
<text text-anchor="middle" x="508" y="-387.7251" font-family="Helvetica,sans-Serif" font-size="10.00" fill="#000000">get_u32</text>
</a>
</g>
</g>
<!-- Node485357&#45;&gt;Node485402 -->
<g id="edge20" class="edge">
<title>Node485357&#45;&gt;Node485402</title>
<path fill="none" stroke="#191970" d="M361.7998,-513.5977C372.1272,-491.5969 400.5111,-437.3716 441,-409.2251 450.2535,-402.7924 461.6509,-398.5252 472.4042,-395.6993"/>
<polygon fill="#191970" stroke="#191970" points="473.4574,-399.0489 482.4257,-393.408 471.8971,-392.225 473.4574,-399.0489"/>
</g>
<!-- Node485648 -->
<g id="node20" class="node">
<title>Node485648</title>
<g id="a_node20"><a xlink:href="quickjs_8c.html#a37fe43b6649456a848bd54846450b995" target="_top" xlink:title="get_var_ref">
<polygon fill="none" stroke="#ff0000" points="475.5,-342.7251 475.5,-361.7251 540.5,-361.7251 540.5,-342.7251 475.5,-342.7251"/>
<text text-anchor="middle" x="508" y="-349.7251" font-family="Helvetica,sans-Serif" font-size="10.00" fill="#000000">get_var_ref</text>
</a>
</g>
</g>
<!-- Node485357&#45;&gt;Node485648 -->
<g id="edge21" class="edge">
<title>Node485357&#45;&gt;Node485648</title>
<path fill="none" stroke="#191970" d="M359.932,-513.6995C367.2691,-486.9278 391.7703,-410.4197 441,-371.2251 448.0787,-365.5894 456.7443,-361.625 465.4641,-358.8364"/>
<polygon fill="#191970" stroke="#191970" points="466.5273,-362.1742 475.2504,-356.1611 464.6814,-355.422 466.5273,-362.1742"/>
</g>
<!-- Node485577 -->
<g id="node21" class="node">
<title>Node485577</title>
<g id="a_node21"><a xlink:href="list_8h.html#a663527a4d757540b2177bef0db1ce5c0" target="_top" xlink:title="init_list_head">
<polygon fill="none" stroke="#000000" points="471,-304.7251 471,-323.7251 545,-323.7251 545,-304.7251 471,-304.7251"/>
<text text-anchor="middle" x="508" y="-311.7251" font-family="Helvetica,sans-Serif" font-size="10.00" fill="#000000">init_list_head</text>
</a>
</g>
</g>
<!-- Node485357&#45;&gt;Node485577 -->
<g id="edge22" class="edge">
<title>Node485357&#45;&gt;Node485577</title>
<path fill="none" stroke="#191970" d="M358.8099,-513.6501C363.572,-482.6122 382.8549,-383.8664 441,-333.2251 446.7041,-328.2572 453.6217,-324.5827 460.819,-321.8661"/>
<polygon fill="#191970" stroke="#191970" points="462.2466,-325.0851 470.7192,-318.7239 460.1289,-318.4131 462.2466,-325.0851"/>
</g>
<!-- Node485649 -->
<g id="node22" class="node">
<title>Node485649</title>
<g id="a_node22"><a xlink:href="quickjs_8c.html#a2bb0a2ca3b8320f3ff778c65034fce49" target="_top" xlink:title="is_backtrace_needed">
<polygon fill="none" stroke="#ff0000" points="453.5,-266.7251 453.5,-285.7251 562.5,-285.7251 562.5,-266.7251 453.5,-266.7251"/>
<text text-anchor="middle" x="508" y="-273.7251" font-family="Helvetica,sans-Serif" font-size="10.00" fill="#000000">is_backtrace_needed</text>
</a>
</g>
</g>
<!-- Node485357&#45;&gt;Node485649 -->
<g id="edge23" class="edge">
<title>Node485357&#45;&gt;Node485649</title>
<path fill="none" stroke="#191970" d="M358.0546,-513.2949C360.5731,-478.0059 373.9463,-357.4462 441,-295.2251 442.6922,-293.6549 444.5048,-292.2131 446.4102,-290.8895"/>
<polygon fill="#191970" stroke="#191970" points="448.3384,-293.8186 455.275,-285.8102 444.8583,-287.7449 448.3384,-293.8186"/>
</g>
<!-- Node485480 -->
<g id="node23" class="node">
<title>Node485480</title>
<g id="a_node23"><a xlink:href="quickjs_8h.html#a4e407128a9605afb77523e49e9a627fd" target="_top" xlink:title="JS_IsUndefined">
<polygon fill="none" stroke="#000000" points="611,-969.7251 611,-988.7251 697,-988.7251 697,-969.7251 611,-969.7251"/>
<text text-anchor="middle" x="654" y="-976.7251" font-family="Helvetica,sans-Serif" font-size="10.00" fill="#000000">JS_IsUndefined</text>
</a>
</g>
</g>
<!-- Node485357&#45;&gt;Node485480 -->
<g id="edge29" class="edge">
<title>Node485357&#45;&gt;Node485480</title>
<path fill="none" stroke="#191970" d="M358.5288,-532.8792C365.359,-596.0883 404.9879,-949.2086 441,-979.2251 490.6198,-1020.5839 571.6973,-1005.5 618.1987,-991.7443"/>
<polygon fill="#191970" stroke="#191970" points="619.3301,-995.058 627.8503,-988.7606 617.2626,-988.3703 619.3301,-995.058"/>
</g>
<!-- Node485585 -->
<g id="node24" class="node">
<title>Node485585</title>
<g id="a_node24"><a xlink:href="quickjs_8c.html#a3ae8a83da71ef07d6e858d172d9c5a81" target="_top" xlink:title="JS_Throw">
<polygon fill="none" stroke="#000000" points="477.5,-.7251 477.5,-19.7251 538.5,-19.7251 538.5,-.7251 477.5,-.7251"/>
<text text-anchor="middle" x="508" y="-7.7251" font-family="Helvetica,sans-Serif" font-size="10.00" fill="#000000">JS_Throw</text>
</a>
</g>
</g>
<!-- Node485357&#45;&gt;Node485585 -->
<g id="edge30" class="edge">
<title>Node485357&#45;&gt;Node485585</title>
<path fill="none" stroke="#191970" d="M358.5361,-513.3239C365.5744,-446.8504 407.1036,-67.0288 441,-29.2251 447.8406,-21.596 457.495,-16.9359 467.3504,-14.115"/>
<polygon fill="#191970" stroke="#191970" points="468.2094,-17.509 477.1761,-11.8655 466.6471,-10.6856 468.2094,-17.509"/>
</g>
<!-- Node485408&#45;&gt;Node485409 -->
<g id="edge7" class="edge">
<title>Node485408&#45;&gt;Node485409</title>
<path fill="none" stroke="#191970" d="M545.2197,-542.2251C564.5892,-542.2251 588.4236,-542.2251 608.8405,-542.2251"/>
<polygon fill="#191970" stroke="#191970" points="608.8581,-545.7252 618.8581,-542.2251 608.8581,-538.7252 608.8581,-545.7252"/>
</g>
<!-- Node485408&#45;&gt;Node485388 -->
<g id="edge9" class="edge">
<title>Node485408&#45;&gt;Node485388</title>
<path fill="none" stroke="#191970" d="M545.0567,-538.8579C555.9826,-536.1416 567.1114,-531.4067 575,-523.2251 617.8146,-478.8206 644.1986,-283.4749 651.7489,-220.1305"/>
<polygon fill="#191970" stroke="#191970" points="655.2594,-220.2427 652.9392,-209.905 648.3063,-219.4332 655.2594,-220.2427"/>
</g>
<!-- Node485408&#45;&gt;Node485420 -->
<g id="edge10" class="edge">
<title>Node485408&#45;&gt;Node485420</title>
<path fill="none" stroke="#191970" d="M545.2638,-551.4976C555.4735,-555.09 566.1547,-559.902 575,-566.2251 605.5416,-588.0581 630.4839,-624.8038 643.7108,-646.8595"/>
<polygon fill="#191970" stroke="#191970" points="640.7374,-648.7087 648.7933,-655.59 646.7869,-645.1869 640.7374,-648.7087"/>
</g>
<!-- Node485409&#45;&gt;Node485410 -->
<g id="edge8" class="edge">
<title>Node485409&#45;&gt;Node485410</title>
<path fill="none" stroke="#191970" d="M689.0844,-542.2251C699.5911,-542.2251 711.3158,-542.2251 722.5641,-542.2251"/>
<polygon fill="#191970" stroke="#191970" points="722.7116,-545.7252 732.7116,-542.2251 722.7115,-538.7252 722.7116,-545.7252"/>
</g>
<!-- Node485642&#45;&gt;Node485388 -->
<g id="edge13" class="edge">
<title>Node485642&#45;&gt;Node485388</title>
<path fill="none" stroke="#191970" d="M544.842,-228.6361C563.8479,-223.6894 587.2286,-217.604 607.4692,-212.3359"/>
<polygon fill="#191970" stroke="#191970" points="608.627,-215.6512 617.423,-209.7452 606.8638,-208.8769 608.627,-215.6512"/>
</g>
<!-- Node485585&#45;&gt;Node485410 -->
<g id="edge31" class="edge">
<title>Node485585&#45;&gt;Node485410</title>
<path fill="none" stroke="#191970" d="M538.6072,-4.2075C580.4669,2.0743 655.1402,5.9969 697,-35.2251 732.5307,-70.2145 763.3455,-432.6995 770.4581,-522.2877"/>
<polygon fill="#191970" stroke="#191970" points="766.9835,-522.7494 771.2552,-532.4449 773.9621,-522.2017 766.9835,-522.7494"/>
</g>
<!-- Node485824&#45;&gt;Node485410 -->
<g id="edge34" class="edge">
<title>Node485824&#45;&gt;Node485410</title>
<path fill="none" stroke="#191970" d="M363.3396,-931.9237C375.2071,-950.5646 404.1678,-990.9043 441,-1006.2251 546.1031,-1049.9442 612.6796,-1074.6979 697,-998.2251 730.0626,-968.2397 762.3168,-645.8175 770.185,-562.0296"/>
<polygon fill="#191970" stroke="#191970" points="773.6909,-562.1267 771.1309,-551.8458 766.7209,-561.4792 773.6909,-562.1267"/>
</g>
<!-- Node485825 -->
<g id="node26" class="node">
<title>Node485825</title>
<g id="a_node26"><a xlink:href="quickjs_8c.html#ad09ec172570d05d2166ed3069f85c7b5" target="_top" xlink:title="JS_Invoke">
<polygon fill="none" stroke="#ff0000" points="476.5,-912.7251 476.5,-931.7251 539.5,-931.7251 539.5,-912.7251 476.5,-912.7251"/>
<text text-anchor="middle" x="508" y="-919.7251" font-family="Helvetica,sans-Serif" font-size="10.00" fill="#000000">JS_Invoke</text>
</a>
</g>
</g>
<!-- Node485824&#45;&gt;Node485825 -->
<g id="edge35" class="edge">
<title>Node485824&#45;&gt;Node485825</title>
<path fill="none" stroke="#191970" d="M399.0232,-922.2251C419.8639,-922.2251 445.0562,-922.2251 465.9671,-922.2251"/>
<polygon fill="#191970" stroke="#191970" points="466.1576,-925.7252 476.1576,-922.2251 466.1575,-918.7252 466.1576,-925.7252"/>
</g>
<!-- Node485825&#45;&gt;Node485420 -->
<g id="edge36" class="edge">
<title>Node485825&#45;&gt;Node485420</title>
<path fill="none" stroke="#191970" d="M539.7672,-917.2678C552.2456,-913.8319 565.7631,-908.0261 575,-898.2251 614.0664,-856.7732 592.6132,-829.1359 611,-775.2251 622.0349,-742.8703 636.9341,-706.0041 645.9843,-684.2249"/>
<polygon fill="#191970" stroke="#191970" points="649.2836,-685.4071 649.9147,-674.8311 642.8261,-682.7052 649.2836,-685.4071"/>
</g>
<!-- Node485767&#45;&gt;Node485410 -->
<g id="edge40" class="edge">
<title>Node485767&#45;&gt;Node485410</title>
<path fill="none" stroke="#191970" d="M559.3056,-950.6299C564.967,-948.1747 570.354,-945.093 575,-941.2251 702.4214,-835.1459 754.652,-626.5062 768.2094,-561.8199"/>
<polygon fill="#191970" stroke="#191970" points="771.6883,-562.2741 770.241,-551.7786 764.8274,-560.8859 771.6883,-562.2741"/>
</g>
<!-- Node485767&#45;&gt;Node485388 -->
<g id="edge39" class="edge">
<title>Node485767&#45;&gt;Node485388</title>
<path fill="none" stroke="#191970" d="M563.7164,-950.6197C567.9801,-948.1332 571.8439,-945.0477 575,-941.2251 604.6799,-905.2781 605.9228,-569.5642 611,-523.2251 623.6041,-408.1886 643.5217,-270.753 651.0165,-220.1706"/>
<polygon fill="#191970" stroke="#191970" points="654.5224,-220.3891 652.5324,-209.9829 647.5987,-219.3588 654.5224,-220.3891"/>
</g>
<!-- Node485767&#45;&gt;Node485420 -->
<g id="edge41" class="edge">
<title>Node485767&#45;&gt;Node485420</title>
<path fill="none" stroke="#191970" d="M562.25,-950.6943C566.989,-948.2092 571.3582,-945.103 575,-941.2251 626.6802,-886.1949 589.1883,-847.4983 611,-775.2251 620.8768,-742.4982 636.1263,-705.7446 645.5617,-684.0891"/>
<polygon fill="#191970" stroke="#191970" points="648.8454,-685.317 649.6776,-674.7549 642.4404,-682.4927 648.8454,-685.317"/>
</g>
<!-- Node485767&#45;&gt;Node485480 -->
<g id="edge42" class="edge">
<title>Node485767&#45;&gt;Node485480</title>
<path fill="none" stroke="#191970" d="M575.0177,-968.9466C583.6513,-970.0702 592.3973,-971.2083 600.7682,-972.2977"/>
<polygon fill="#191970" stroke="#191970" points="600.392,-975.7782 610.76,-973.598 601.2954,-968.8367 600.392,-975.7782"/>
</g>
<!-- Node485774&#45;&gt;Node485410 -->
<g id="edge45" class="edge">
<title>Node485774&#45;&gt;Node485410</title>
<path fill="none" stroke="#191970" d="M568.3165,-38.729C609.9498,-35.8218 663.6191,-39.8935 697,-72.2251 730.054,-104.2401 762.3718,-436.412 770.2069,-522.1312"/>
<polygon fill="#191970" stroke="#191970" points="766.7432,-522.6923 771.1298,-532.3364 773.7148,-522.0617 766.7432,-522.6923"/>
</g>
<!-- Node485774&#45;&gt;Node485388 -->
<g id="edge44" class="edge">
<title>Node485774&#45;&gt;Node485388</title>
<path fill="none" stroke="#191970" d="M519.2388,-57.9809C532.8238,-69.9178 556.201,-90.9259 575,-110.2251 598.5443,-134.3959 623.9875,-164.0923 639.4589,-182.5935"/>
<polygon fill="#191970" stroke="#191970" points="636.9274,-185.0233 646.0121,-190.4748 642.3099,-180.5479 636.9274,-185.0233"/>
</g>
<!-- Node485774&#45;&gt;Node485420 -->
<g id="edge46" class="edge">
<title>Node485774&#45;&gt;Node485420</title>
<path fill="none" stroke="#191970" d="M512.8886,-57.9436C525.5383,-83.5717 559.441,-155.4116 575,-219.2251 611.2046,-367.715 573.4139,-413.079 611,-561.2251 618.8507,-592.1688 634.197,-625.9793 644.2724,-646.3914"/>
<polygon fill="#191970" stroke="#191970" points="641.2417,-648.155 648.8662,-655.5115 647.4934,-645.006 641.2417,-648.155"/>
</g>
<!-- Node485826&#45;&gt;Node485388 -->
<g id="edge48" class="edge">
<title>Node485826&#45;&gt;Node485388</title>
<path fill="none" stroke="#191970" d="M405.2234,-118.7844C450.3095,-120.6951 519.1611,-127.2326 575,-148.2251 597.227,-156.5813 619.5523,-172.091 634.7716,-184.0053"/>
<polygon fill="#191970" stroke="#191970" points="632.8751,-186.9721 642.8569,-190.5235 637.2685,-181.5224 632.8751,-186.9721"/>
</g>
<!-- Node485826&#45;&gt;Node485585 -->
<g id="edge49" class="edge">
<title>Node485826&#45;&gt;Node485585</title>
<path fill="none" stroke="#191970" d="M367.7762,-102.9235C381.9384,-83.0147 409.3287,-48.5038 441,-29.2251 449.0395,-24.3314 458.3847,-20.657 467.4983,-17.9129"/>
<polygon fill="#191970" stroke="#191970" points="468.482,-21.2728 477.2238,-15.2868 466.6571,-14.5148 468.482,-21.2728"/>
</g>
<!-- Node485827&#45;&gt;Node485388 -->
<g id="edge51" class="edge">
<title>Node485827&#45;&gt;Node485388</title>
<path fill="none" stroke="#191970" d="M241.3714,-314.9795C273.9297,-282.8322 355.4713,-208.8683 441,-182.2251 499.2235,-164.0879 570.4631,-176.6518 614.0187,-187.976"/>
<polygon fill="#191970" stroke="#191970" points="613.3723,-191.4269 623.9393,-190.6592 615.2,-184.6697 613.3723,-191.4269"/>
</g>
</g>
</svg>
        <g id="navigator" transform="translate(0 0)" fill="#404254">
                <rect fill="#f2f5e9" fill-opacity="0.5" stroke="#606060" stroke-width=".5" x="0" y="0" width="60" height="60"/>
                <use id="zoomplus" xlink:href="#zoomPlus" x="17" y="9" onmousedown="handleZoom(evt,'in')"/>
                <use id="zoomminus" xlink:href="#zoomMin" x="42" y="9" onmousedown="handleZoom(evt,'out')"/>
                <use id="reset" xlink:href="#resetDef" x="30" y="36" onmousedown="handleReset()"/>
                <g id="arrowUp" xlink:href="#dirArrow" transform="translate(30 24)" onmousedown="handlePan(0,-1)">
                  <use xlink:href="#rim" fill="#404040">
                        <set attributeName="fill" to="#808080" begin="arrowUp.mouseover" end="arrowUp.mouseout"/>
                  </use>
                  <path fill="none" stroke="white" stroke-width="1.5" d="M0,-3.0v7 M-2.5,-0.5L0,-3.0L2.5,-0.5"/>
                </g>
                <g id="arrowRight" xlink:href="#dirArrow" transform="rotate(90) translate(36 -43)" onmousedown="handlePan(1,0)">
                  <use xlink:href="#rim" fill="#404040">
                        <set attributeName="fill" to="#808080" begin="arrowRight.mouseover" end="arrowRight.mouseout"/>
                  </use>
                  <path fill="none" stroke="white" stroke-width="1.5" d="M0,-3.0v7 M-2.5,-0.5L0,-3.0L2.5,-0.5"/>
                </g>
                <g id="arrowDown" xlink:href="#dirArrow" transform="rotate(180) translate(-30 -48)" onmousedown="handlePan(0,1)">
                  <use xlink:href="#rim" fill="#404040">
                        <set attributeName="fill" to="#808080" begin="arrowDown.mouseover" end="arrowDown.mouseout"/>
                  </use>
                  <path fill="none" stroke="white" stroke-width="1.5" d="M0,-3.0v7 M-2.5,-0.5L0,-3.0L2.5,-0.5"/>
                </g>
                <g id="arrowLeft" xlink:href="#dirArrow" transform="rotate(270) translate(-36 17)" onmousedown="handlePan(-1,0)">
                  <use xlink:href="#rim" fill="#404040">
                        <set attributeName="fill" to="#808080" begin="arrowLeft.mouseover" end="arrowLeft.mouseout"/>
                  </use>
                  <path fill="none" stroke="white" stroke-width="1.5" d="M0,-3.0v7 M-2.5,-0.5L0,-3.0L2.5,-0.5"/>
                </g>
        </g>
        <svg viewBox="0 0 15 15" width="100%" height="30px" preserveAspectRatio="xMaxYMin meet">
         <g id="arrow_out" transform="scale(0.3 0.3)">
          <a xlink:href="quickjs_8c_a976c7217666ebb9ef04fd8cba9ba2dd2_cgraph_org.svg" target="_base">
           <rect id="button" ry="5" rx="5" y="6" x="6" height="38" width="38"
                fill="#f2f5e9" fill-opacity="0.5" stroke="#606060" stroke-width="1.0"/>
           <path id="arrow"
             d="M 11.500037,31.436501 C 11.940474,20.09759 22.043105,11.32322 32.158766,21.979434 L 37.068811,17.246167 C 37.068811,17.246167 37.088388,32 37.088388,32 L 22.160133,31.978069 C 22.160133,31.978069 26.997745,27.140456 26.997745,27.140456 C 18.528582,18.264221 13.291696,25.230495 11.500037,31.436501 z"
             style="fill:#404040;"/>
          </a>
         </g>
        </svg>
</svg>
