<?xml version="1.0" encoding="UTF-8" standalone="no"?>
<!DOCTYPE svg PUBLIC "-//W3C//DTD SVG 1.1//EN"
 "http://www.w3.org/Graphics/SVG/1.1/DTD/svg11.dtd">
<!-- Generated by graphviz version 2.40.1 (20161225.0304)
 -->
<!-- Title: JS_NewPromiseCapability Pages: 1 -->
<svg width="783pt" height="230pt"
 viewBox="0.00 0.00 783.00 230.05" xmlns="http://www.w3.org/2000/svg" xmlns:xlink="http://www.w3.org/1999/xlink">
<g id="graph0" class="graph" transform="scale(1 1) rotate(0) translate(4 226.0522)">
<title>JS_NewPromiseCapability</title>
<!-- Node422067 -->
<g id="node1" class="node">
<title>Node422067</title>
<polygon fill="#bfbfbf" stroke="#000000" points="0,-153.9259 0,-172.9259 134,-172.9259 134,-153.9259 0,-153.9259"/>
<text text-anchor="middle" x="67" y="-160.9259" font-family="Helvetica,sans-Serif" font-size="10.00" fill="#000000">JS_NewPromiseCapability</text>
</g>
<!-- Node422068 -->
<g id="node2" class="node">
<title>Node422068</title>
<g id="a_node2"><a xlink:href="quickjs_8c.html#aa45afa6d2861615f29444c9614ce766a" target="_top" xlink:title="js_async_from_sync\l_iterator_next">
<polygon fill="none" stroke="#000000" points="659,-167.4259 659,-197.4259 766,-197.4259 766,-167.4259 659,-167.4259"/>
<text text-anchor="start" x="667" y="-185.4259" font-family="Helvetica,sans-Serif" font-size="10.00" fill="#000000">js_async_from_sync</text>
<text text-anchor="middle" x="712.5" y="-174.4259" font-family="Helvetica,sans-Serif" font-size="10.00" fill="#000000">_iterator_next</text>
</a>
</g>
</g>
<!-- Node422067&#45;&gt;Node422068 -->
<g id="edge1" class="edge">
<title>Node422067&#45;&gt;Node422068</title>
<path fill="none" stroke="#191970" d="M95.8151,-177.1873C116.0537,-186.065 144.0393,-196.7897 170,-201.4259 364.26,-236.1174 417.5616,-220.1987 614,-201.4259 628.6497,-200.0259 644.3601,-197.48 658.8347,-194.6973"/>
<polygon fill="#191970" stroke="#191970" points="97.1003,-173.9275 86.545,-173.0123 94.2257,-180.3101 97.1003,-173.9275"/>
</g>
<!-- Node422069 -->
<g id="node3" class="node">
<title>Node422069</title>
<g id="a_node3"><a xlink:href="quickjs_8c.html#a8029b29b8458274699fbcb7ce42a7100" target="_top" xlink:title="js_async_function_call">
<polygon fill="none" stroke="#000000" points="170,-172.9259 170,-191.9259 286,-191.9259 286,-172.9259 170,-172.9259"/>
<text text-anchor="middle" x="228" y="-179.9259" font-family="Helvetica,sans-Serif" font-size="10.00" fill="#000000">js_async_function_call</text>
</a>
</g>
</g>
<!-- Node422067&#45;&gt;Node422069 -->
<g id="edge2" class="edge">
<title>Node422067&#45;&gt;Node422069</title>
<path fill="none" stroke="#191970" d="M144.3748,-172.5571C152.9566,-173.5698 161.5859,-174.5882 169.8717,-175.566"/>
<polygon fill="#191970" stroke="#191970" points="144.6869,-169.0697 134.3456,-171.3735 143.8665,-176.0215 144.6869,-169.0697"/>
</g>
<!-- Node422072 -->
<g id="node6" class="node">
<title>Node422072</title>
<g id="a_node6"><a xlink:href="quickjs_8c.html#a2355fabf91f59212ea65baba1b0b7c1b" target="_top" xlink:title="js_async_generator_next">
<polygon fill="none" stroke="#000000" points="650,-74.9259 650,-93.9259 775,-93.9259 775,-74.9259 650,-74.9259"/>
<text text-anchor="middle" x="712.5" y="-81.9259" font-family="Helvetica,sans-Serif" font-size="10.00" fill="#000000">js_async_generator_next</text>
</a>
</g>
</g>
<!-- Node422067&#45;&gt;Node422072 -->
<g id="edge5" class="edge">
<title>Node422067&#45;&gt;Node422072</title>
<path fill="none" stroke="#191970" d="M94.8926,-149.1977C160.1391,-116.8122 328.6693,-38.3242 480,-11.4259 538.6365,-1.0035 557.4471,7.2459 614,-11.4259 652.4027,-24.1051 688.0593,-58.1751 703.8923,-74.8997"/>
<polygon fill="#191970" stroke="#191970" points="93.0549,-146.2035 85.6773,-153.8075 96.1866,-152.4639 93.0549,-146.2035"/>
</g>
<!-- Node422073 -->
<g id="node7" class="node">
<title>Node422073</title>
<g id="a_node7"><a xlink:href="quickjs_8c.html#a50e94675d1c4cf67c88e72169ea3c21a" target="_top" xlink:title="js_dynamic_import">
<polygon fill="none" stroke="#000000" points="179,-134.9259 179,-153.9259 277,-153.9259 277,-134.9259 179,-134.9259"/>
<text text-anchor="middle" x="228" y="-141.9259" font-family="Helvetica,sans-Serif" font-size="10.00" fill="#000000">js_dynamic_import</text>
</a>
</g>
</g>
<!-- Node422067&#45;&gt;Node422073 -->
<g id="edge6" class="edge">
<title>Node422067&#45;&gt;Node422073</title>
<path fill="none" stroke="#191970" d="M144.4892,-154.2812C156.0838,-152.9129 167.7619,-151.5347 178.5594,-150.2605"/>
<polygon fill="#191970" stroke="#191970" points="143.8665,-150.8303 134.3456,-155.4783 144.6869,-157.7821 143.8665,-150.8303"/>
</g>
<!-- Node422070 -->
<g id="node4" class="node">
<title>Node422070</title>
<g id="a_node4"><a xlink:href="quickjs_8c.html#a2e66fcf1bc1d19f346317f10ee590621" target="_top" xlink:title="JS_AddIntrinsicPromise">
<polygon fill="none" stroke="#000000" points="322,-172.9259 322,-191.9259 444,-191.9259 444,-172.9259 322,-172.9259"/>
<text text-anchor="middle" x="383" y="-179.9259" font-family="Helvetica,sans-Serif" font-size="10.00" fill="#000000">JS_AddIntrinsicPromise</text>
</a>
</g>
</g>
<!-- Node422069&#45;&gt;Node422070 -->
<g id="edge3" class="edge">
<title>Node422069&#45;&gt;Node422070</title>
<path fill="none" stroke="#191970" d="M296.4174,-182.4259C304.9118,-182.4259 313.5538,-182.4259 321.9276,-182.4259"/>
<polygon fill="#191970" stroke="#191970" points="296.1573,-178.926 286.1573,-182.4259 296.1572,-185.926 296.1573,-178.926"/>
</g>
<!-- Node422071 -->
<g id="node5" class="node">
<title>Node422071</title>
<g id="a_node5"><a xlink:href="quickjs_8c.html#ad8aedb643b8753b7a15f6cb2df61945e" target="_top" xlink:title="JS_NewContext">
<polygon fill="none" stroke="#000000" points="502.5,-172.9259 502.5,-191.9259 591.5,-191.9259 591.5,-172.9259 502.5,-172.9259"/>
<text text-anchor="middle" x="547" y="-179.9259" font-family="Helvetica,sans-Serif" font-size="10.00" fill="#000000">JS_NewContext</text>
</a>
</g>
</g>
<!-- Node422070&#45;&gt;Node422071 -->
<g id="edge4" class="edge">
<title>Node422070&#45;&gt;Node422071</title>
<path fill="none" stroke="#191970" d="M454.1458,-182.4259C470.4919,-182.4259 487.4237,-182.4259 502.2811,-182.4259"/>
<polygon fill="#191970" stroke="#191970" points="454.0676,-178.926 444.0675,-182.4259 454.0675,-185.926 454.0676,-178.926"/>
</g>
<!-- Node422074 -->
<g id="node8" class="node">
<title>Node422074</title>
<g id="a_node8"><a xlink:href="quickjs_8c.html#ac2894ff4edcdb4e6841bcce9c76081e3" target="_top" xlink:title="JS_CallInternal">
<polygon fill="none" stroke="#000000" points="341.5,-78.9259 341.5,-97.9259 424.5,-97.9259 424.5,-78.9259 341.5,-78.9259"/>
<text text-anchor="middle" x="383" y="-85.9259" font-family="Helvetica,sans-Serif" font-size="10.00" fill="#000000">JS_CallInternal</text>
</a>
</g>
</g>
<!-- Node422073&#45;&gt;Node422074 -->
<g id="edge7" class="edge">
<title>Node422073&#45;&gt;Node422074</title>
<path fill="none" stroke="#191970" d="M264.1949,-131.349C292.5297,-121.1119 331.2718,-107.1148 356.7022,-97.927"/>
<polygon fill="#191970" stroke="#191970" points="262.8612,-128.1094 254.6454,-134.7991 265.2398,-134.6929 262.8612,-128.1094"/>
</g>
<!-- Node422074&#45;&gt;Node422074 -->
<g id="edge18" class="edge">
<title>Node422074&#45;&gt;Node422074</title>
<path fill="none" stroke="#191970" d="M354.2542,-107.0798C355.4558,-112.3627 365.0377,-116.4259 383,-116.4259 410.3711,-116.4259 418.2831,-106.9911 406.7359,-98.1829"/>
<polygon fill="#191970" stroke="#191970" points="357.4072,-108.6138 359.2641,-98.1829 351.3077,-105.1791 357.4072,-108.6138"/>
</g>
<!-- Node422075 -->
<g id="node9" class="node">
<title>Node422075</title>
<g id="a_node9"><a xlink:href="quickjs_8c.html#ade71a22dc56e7371392393df663b28b3" target="_top" xlink:title="async_func_resume">
<polygon fill="none" stroke="#ff0000" points="495,-58.9259 495,-77.9259 599,-77.9259 599,-58.9259 495,-58.9259"/>
<text text-anchor="middle" x="547" y="-65.9259" font-family="Helvetica,sans-Serif" font-size="10.00" fill="#000000">async_func_resume</text>
</a>
</g>
</g>
<!-- Node422074&#45;&gt;Node422075 -->
<g id="edge8" class="edge">
<title>Node422074&#45;&gt;Node422075</title>
<path fill="none" stroke="#191970" d="M434.874,-82.0998C454.0567,-79.7604 475.794,-77.1095 494.9888,-74.7687"/>
<polygon fill="#191970" stroke="#191970" points="434.3112,-78.6424 424.8085,-83.3273 435.1586,-85.5909 434.3112,-78.6424"/>
</g>
<!-- Node422084 -->
<g id="node10" class="node">
<title>Node422084</title>
<g id="a_node10"><a xlink:href="quickjs_8c.html#a1a4c02a29525d5cb2085dd8bca3af350" target="_top" xlink:title="JS_Call">
<polygon fill="none" stroke="#ff0000" points="521.5,-134.9259 521.5,-153.9259 572.5,-153.9259 572.5,-134.9259 521.5,-134.9259"/>
<text text-anchor="middle" x="547" y="-141.9259" font-family="Helvetica,sans-Serif" font-size="10.00" fill="#000000">JS_Call</text>
</a>
</g>
</g>
<!-- Node422074&#45;&gt;Node422084 -->
<g id="edge9" class="edge">
<title>Node422074&#45;&gt;Node422084</title>
<path fill="none" stroke="#191970" d="M434.1586,-100.2684C448.863,-105.5286 464.9848,-111.4439 480,-116.4259 499.0492,-122.7464 521.5656,-128.8589 535.0429,-134.8295"/>
<polygon fill="#191970" stroke="#191970" points="435.321,-96.9671 424.7262,-96.9228 432.9808,-103.5644 435.321,-96.9671"/>
</g>
<!-- Node422150 -->
<g id="node11" class="node">
<title>Node422150</title>
<g id="a_node11"><a xlink:href="quickjs_8c.html#ad35594576a14c10812efaf958c99af8a" target="_top" xlink:title="JS_CallConstructorInternal">
<polygon fill="none" stroke="#ff0000" points="480,-20.9259 480,-39.9259 614,-39.9259 614,-20.9259 480,-20.9259"/>
<text text-anchor="middle" x="547" y="-27.9259" font-family="Helvetica,sans-Serif" font-size="10.00" fill="#000000">JS_CallConstructorInternal</text>
</a>
</g>
</g>
<!-- Node422074&#45;&gt;Node422150 -->
<g id="edge14" class="edge">
<title>Node422074&#45;&gt;Node422150</title>
<path fill="none" stroke="#191970" d="M401.1834,-73.7453C420.5137,-63.1136 452.0836,-49.9663 480,-40.4259 480.4576,-40.2695 480.9173,-40.1133 481.3789,-39.9575"/>
<polygon fill="#191970" stroke="#191970" points="399.3262,-70.7775 392.5105,-78.8891 402.897,-76.7982 399.3262,-70.7775"/>
</g>
<!-- Node422164 -->
<g id="node12" class="node">
<title>Node422164</title>
<g id="a_node12"><a xlink:href="quickjs_8c.html#a75f6ee5e4235a7dc99889f3d2eb2c147" target="_top" xlink:title="JS_CallFree">
<polygon fill="none" stroke="#ff0000" points="511.5,-96.9259 511.5,-115.9259 582.5,-115.9259 582.5,-96.9259 511.5,-96.9259"/>
<text text-anchor="middle" x="547" y="-103.9259" font-family="Helvetica,sans-Serif" font-size="10.00" fill="#000000">JS_CallFree</text>
</a>
</g>
</g>
<!-- Node422074&#45;&gt;Node422164 -->
<g id="edge16" class="edge">
<title>Node422074&#45;&gt;Node422164</title>
<path fill="none" stroke="#191970" d="M434.9082,-87.7945C460.0176,-89.816 489.4976,-93.2772 511.9217,-96.924"/>
<polygon fill="#191970" stroke="#191970" points="435.0403,-84.2947 424.8085,-87.0442 434.5217,-91.2755 435.0403,-84.2947"/>
</g>
<!-- Node422084&#45;&gt;Node422068 -->
<g id="edge10" class="edge">
<title>Node422084&#45;&gt;Node422068</title>
<path fill="none" stroke="#191970" d="M582.8457,-152.6563C605.0164,-157.7469 633.894,-164.3774 658.7669,-170.0884"/>
<polygon fill="#191970" stroke="#191970" points="583.389,-149.1901 572.8594,-150.3634 581.8225,-156.0125 583.389,-149.1901"/>
</g>
<!-- Node422084&#45;&gt;Node422072 -->
<g id="edge11" class="edge">
<title>Node422084&#45;&gt;Node422072</title>
<path fill="none" stroke="#191970" d="M582.5378,-135.191C592.7707,-132.3051 603.896,-128.9476 614,-125.4259 641.2859,-115.9155 671.8939,-102.771 691.6429,-93.9531"/>
<polygon fill="#191970" stroke="#191970" points="581.3847,-131.8782 572.6733,-137.9084 583.2438,-138.6269 581.3847,-131.8782"/>
</g>
<!-- Node422084&#45;&gt;Node422073 -->
<g id="edge13" class="edge">
<title>Node422084&#45;&gt;Node422073</title>
<path fill="none" stroke="#191970" d="M511.1515,-144.4259C453.9239,-144.4259 341.8046,-144.4259 277.1447,-144.4259"/>
<polygon fill="#191970" stroke="#191970" points="511.1746,-147.926 521.1746,-144.4259 511.1745,-140.926 511.1746,-147.926"/>
</g>
<!-- Node422084&#45;&gt;Node422074 -->
<g id="edge12" class="edge">
<title>Node422084&#45;&gt;Node422074</title>
<path fill="none" stroke="#191970" d="M511.5286,-143.6239C501.297,-141.1061 490.1558,-137.7955 480,-134.4259 447.8393,-123.7551 410.6019,-108.8027 393.0887,-98.0476"/>
<polygon fill="#191970" stroke="#191970" points="510.8614,-147.0613 521.3868,-145.8502 512.4035,-140.2332 510.8614,-147.0613"/>
</g>
<!-- Node422150&#45;&gt;Node422074 -->
<g id="edge15" class="edge">
<title>Node422150&#45;&gt;Node422074</title>
<path fill="none" stroke="#191970" d="M525.3928,-43.7241C512.1766,-48.4498 494.9859,-53.3045 480,-58.4259 461.6226,-64.7063 441.6618,-72.55 424.6518,-78.8957"/>
<polygon fill="#191970" stroke="#191970" points="526.9829,-46.8605 535.0217,-39.9593 524.4338,-40.3411 526.9829,-46.8605"/>
</g>
<!-- Node422164&#45;&gt;Node422074 -->
<g id="edge17" class="edge">
<title>Node422164&#45;&gt;Node422074</title>
<path fill="none" stroke="#191970" d="M501.2074,-107.5273C474.9294,-105.608 442.4441,-101.8859 418.1821,-97.9446"/>
<polygon fill="#191970" stroke="#191970" points="501.1018,-111.0278 511.3102,-108.1925 501.5618,-104.0429 501.1018,-111.0278"/>
</g>
</g>
</svg>
