<?xml version="1.0" encoding="UTF-8" standalone="no"?>
<!DOCTYPE svg PUBLIC "-//W3C//DTD SVG 1.1//EN"
 "http://www.w3.org/Graphics/SVG/1.1/DTD/svg11.dtd">
<!-- Generated by graphviz version 2.40.1 (20161225.0304)
 -->
<!-- Title: js_bigfloat_is_finite Pages: 1 -->
<svg width="269pt" height="66pt"
 viewBox="0.00 0.00 269.00 66.00" xmlns="http://www.w3.org/2000/svg" xmlns:xlink="http://www.w3.org/1999/xlink">
<g id="graph0" class="graph" transform="scale(1 1) rotate(0) translate(4 62)">
<title>js_bigfloat_is_finite</title>
<!-- Node504017 -->
<g id="node1" class="node">
<title>Node504017</title>
<polygon fill="#bfbfbf" stroke="#000000" points="0,-19.5 0,-38.5 100,-38.5 100,-19.5 0,-19.5"/>
<text text-anchor="middle" x="50" y="-26.5" font-family="Helvetica,sans-Serif" font-size="10.00" fill="#000000">js_bigfloat_is_finite</text>
</g>
<!-- Node504018 -->
<g id="node2" class="node">
<title>Node504018</title>
<g id="a_node2"><a xlink:href="quickjs_8c.html#a438f60abbdc18727b147b7fed1cfb4aa" target="_top" xlink:title="js_bigfloat_toExponential">
<polygon fill="none" stroke="#000000" points="136,-38.5 136,-57.5 261,-57.5 261,-38.5 136,-38.5"/>
<text text-anchor="middle" x="198.5" y="-45.5" font-family="Helvetica,sans-Serif" font-size="10.00" fill="#000000">js_bigfloat_toExponential</text>
</a>
</g>
</g>
<!-- Node504017&#45;&gt;Node504018 -->
<g id="edge1" class="edge">
<title>Node504017&#45;&gt;Node504018</title>
<path fill="none" stroke="#191970" d="M110.3818,-36.7256C118.7923,-37.8017 127.449,-38.9093 135.8992,-39.9905"/>
<polygon fill="#191970" stroke="#191970" points="110.6387,-33.23 100.2753,-35.4325 109.7502,-40.1734 110.6387,-33.23"/>
</g>
<!-- Node504019 -->
<g id="node3" class="node">
<title>Node504019</title>
<g id="a_node3"><a xlink:href="quickjs_8c.html#af4145aac5df2033bb9254a9745a8b4c3" target="_top" xlink:title="js_bigfloat_toPrecision">
<polygon fill="none" stroke="#000000" points="141,-.5 141,-19.5 256,-19.5 256,-.5 141,-.5"/>
<text text-anchor="middle" x="198.5" y="-7.5" font-family="Helvetica,sans-Serif" font-size="10.00" fill="#000000">js_bigfloat_toPrecision</text>
</a>
</g>
</g>
<!-- Node504017&#45;&gt;Node504019 -->
<g id="edge2" class="edge">
<title>Node504017&#45;&gt;Node504019</title>
<path fill="none" stroke="#191970" d="M110.2351,-21.2932C120.3438,-19.9998 130.8122,-18.6604 140.8535,-17.3756"/>
<polygon fill="#191970" stroke="#191970" points="109.7502,-17.8266 100.2753,-22.5675 110.6387,-24.77 109.7502,-17.8266"/>
</g>
</g>
</svg>
