<?xml version="1.0" encoding="UTF-8" standalone="no"?>
<!DOCTYPE svg PUBLIC "-//W3C//DTD SVG 1.1//EN"
 "http://www.w3.org/Graphics/SVG/1.1/DTD/svg11.dtd">
<!-- Generated by graphviz version 2.40.1 (20161225.0304)
 -->
<!-- Title: js_async_function_free Pages: 1 -->
<!--zoomable 104 -->
<svg id="main" version="1.1" xmlns="http://www.w3.org/2000/svg" xmlns:xlink="http://www.w3.org/1999/xlink" xml:space="preserve" onload="init(evt)">
<style type="text/css"><![CDATA[
.edge:hover path { stroke: red; }
.edge:hover polygon { stroke: red; fill: red; }
]]></style>
<script type="text/javascript"><![CDATA[
var edges = document.getElementsByTagName('g');
if (edges && edges.length) {
  for (var i=0;i<edges.length;i++) {
    if (edges[i].id.substr(0,4)=='edge') {
      edges[i].setAttribute('class','edge');
    }
  }
}
]]></script>
        <defs>
                <circle id="rim" cx="0" cy="0" r="7"/>
                <circle id="rim2" cx="0" cy="0" r="3.5"/>
                <g id="zoomPlus">
                        <use xlink:href="#rim" fill="#404040">
                                <set attributeName="fill" to="#808080" begin="zoomplus.mouseover" end="zoomplus.mouseout"/>
                        </use>
                        <path d="M-4,0h8M0,-4v8" fill="none" stroke="white" stroke-width="1.5" pointer-events="none"/>
                </g>
                <g id="zoomMin">
                        <use xlink:href="#rim" fill="#404040">
                                <set attributeName="fill" to="#808080" begin="zoomminus.mouseover" end="zoomminus.mouseout"/>
                        </use>
                        <path d="M-4,0h8" fill="none" stroke="white" stroke-width="1.5" pointer-events="none"/>
                </g>
                <g id="dirArrow">
                        <path fill="none" stroke="white" stroke-width="1.5" d="M0,-3.0v7 M-2.5,-0.5L0,-3.0L2.5,-0.5"/>
                </g>
               <g id="resetDef">
                       <use xlink:href="#rim2" fill="#404040">
                               <set attributeName="fill" to="#808080" begin="reset.mouseover" end="reset.mouseout"/>
                       </use>
               </g>
        </defs>

<script type="text/javascript">
var viewWidth = 555;
var viewHeight = 104;
var sectionId = 'dynsection-828';
</script>
<script xlink:href="svgpan.js"/>
<svg id="graph" class="graph">
<g id="viewport">
<title>js_async_function_free</title>
<!-- Node280566 -->
<g id="node1" class="node">
<title>Node280566</title>
<polygon fill="#bfbfbf" stroke="#000000" points="0,-38.5 0,-57.5 117,-57.5 117,-38.5 0,-38.5"/>
<text text-anchor="middle" x="58.5" y="-45.5" font-family="Helvetica,sans-Serif" font-size="10.00" fill="#000000">js_async_function_free</text>
</g>
<!-- Node280567 -->
<g id="node2" class="node">
<title>Node280567</title>
<g id="a_node2"><a xlink:href="quickjs_8c.html#a9765af71673dd3f9492d67db2c2aa056" target="_top" xlink:title="js_async_function_terminate">
<polygon fill="none" stroke="#000000" points="153,-38.5 153,-57.5 294,-57.5 294,-38.5 153,-38.5"/>
<text text-anchor="middle" x="223.5" y="-45.5" font-family="Helvetica,sans-Serif" font-size="10.00" fill="#000000">js_async_function_terminate</text>
</a>
</g>
</g>
<!-- Node280566&#45;&gt;Node280567 -->
<g id="edge1" class="edge">
<title>Node280566&#45;&gt;Node280567</title>
<path fill="none" stroke="#191970" d="M117.1374,-48C125.4595,-48 134.136,-48 142.7864,-48"/>
<polygon fill="#191970" stroke="#191970" points="142.9063,-51.5001 152.9063,-48 142.9062,-44.5001 142.9063,-51.5001"/>
</g>
<!-- Node280571 -->
<g id="node5" class="node">
<title>Node280571</title>
<g id="a_node5"><a xlink:href="quickjs_8c.html#a69e19dda8a93d613203e0baa06f0ed8d" target="_top" xlink:title="js_free_rt">
<polygon fill="none" stroke="#000000" points="472.5,-76.5 472.5,-95.5 529.5,-95.5 529.5,-76.5 472.5,-76.5"/>
<text text-anchor="middle" x="501" y="-83.5" font-family="Helvetica,sans-Serif" font-size="10.00" fill="#000000">js_free_rt</text>
</a>
</g>
</g>
<!-- Node280566&#45;&gt;Node280571 -->
<g id="edge6" class="edge">
<title>Node280566&#45;&gt;Node280571</title>
<path fill="none" stroke="#191970" d="M99.2214,-57.5215C115.8139,-61.0515 135.237,-64.7413 153,-67 264.7261,-81.2067 397.9589,-84.7989 462.3565,-85.7014"/>
<polygon fill="#191970" stroke="#191970" points="462.4128,-89.2023 472.456,-85.8285 462.5009,-82.2028 462.4128,-89.2023"/>
</g>
<!-- Node280572 -->
<g id="node6" class="node">
<title>Node280572</title>
<g id="a_node6"><a xlink:href="quickjs_8h.html#ab8db583fa5e7c2b1935854a42859daed" target="_top" xlink:title="JS_FreeValueRT">
<polygon fill="none" stroke="#ff0000" points="455,-.5 455,-19.5 547,-19.5 547,-.5 455,-.5"/>
<text text-anchor="middle" x="501" y="-7.5" font-family="Helvetica,sans-Serif" font-size="10.00" fill="#000000">JS_FreeValueRT</text>
</a>
</g>
</g>
<!-- Node280566&#45;&gt;Node280572 -->
<g id="edge7" class="edge">
<title>Node280566&#45;&gt;Node280572</title>
<path fill="none" stroke="#191970" d="M99.2214,-38.4785C115.8139,-34.9485 135.237,-31.2587 153,-29 255.3383,-15.987 375.7211,-11.8797 444.7192,-10.5878"/>
<polygon fill="#191970" stroke="#191970" points="444.992,-14.0837 454.9296,-10.4102 444.8702,-7.0847 444.992,-14.0837"/>
</g>
<!-- Node280568 -->
<g id="node3" class="node">
<title>Node280568</title>
<g id="a_node3"><a xlink:href="quickjs_8c.html#ab3180b5caf3b66ac6db634e41e56a4ef" target="_top" xlink:title="async_func_free">
<polygon fill="none" stroke="#000000" points="330,-38.5 330,-57.5 419,-57.5 419,-38.5 330,-38.5"/>
<text text-anchor="middle" x="374.5" y="-45.5" font-family="Helvetica,sans-Serif" font-size="10.00" fill="#000000">async_func_free</text>
</a>
</g>
</g>
<!-- Node280567&#45;&gt;Node280568 -->
<g id="edge2" class="edge">
<title>Node280567&#45;&gt;Node280568</title>
<path fill="none" stroke="#191970" d="M294.1368,-48C302.664,-48 311.2742,-48 319.53,-48"/>
<polygon fill="#191970" stroke="#191970" points="319.7649,-51.5001 329.7649,-48 319.7649,-44.5001 319.7649,-51.5001"/>
</g>
<!-- Node280569 -->
<g id="node4" class="node">
<title>Node280569</title>
<g id="a_node4"><a xlink:href="quickjs_8c.html#a1782043fce951bd4f0d91c7796b31e24" target="_top" xlink:title="close_var_refs">
<polygon fill="none" stroke="#ff0000" points="461,-38.5 461,-57.5 541,-57.5 541,-38.5 461,-38.5"/>
<text text-anchor="middle" x="501" y="-45.5" font-family="Helvetica,sans-Serif" font-size="10.00" fill="#000000">close_var_refs</text>
</a>
</g>
</g>
<!-- Node280568&#45;&gt;Node280569 -->
<g id="edge3" class="edge">
<title>Node280568&#45;&gt;Node280569</title>
<path fill="none" stroke="#191970" d="M419.0992,-48C429.2356,-48 440.0739,-48 450.4382,-48"/>
<polygon fill="#191970" stroke="#191970" points="450.601,-51.5001 460.601,-48 450.6009,-44.5001 450.601,-51.5001"/>
</g>
<!-- Node280568&#45;&gt;Node280571 -->
<g id="edge4" class="edge">
<title>Node280568&#45;&gt;Node280571</title>
<path fill="none" stroke="#191970" d="M406.4213,-57.589C423.466,-62.7092 444.5716,-69.0492 462.5178,-74.4401"/>
<polygon fill="#191970" stroke="#191970" points="461.5329,-77.7987 472.1171,-77.3237 463.5468,-71.0947 461.5329,-77.7987"/>
</g>
<!-- Node280568&#45;&gt;Node280572 -->
<g id="edge5" class="edge">
<title>Node280568&#45;&gt;Node280572</title>
<path fill="none" stroke="#191970" d="M406.4213,-38.411C422.4516,-33.5956 442.0738,-27.7012 459.2816,-22.532"/>
<polygon fill="#191970" stroke="#191970" points="460.5187,-25.815 469.0889,-19.5859 458.5047,-19.1109 460.5187,-25.815"/>
</g>
</g>
</svg>
        <g id="navigator" transform="translate(0 0)" fill="#404254">
                <rect fill="#f2f5e9" fill-opacity="0.5" stroke="#606060" stroke-width=".5" x="0" y="0" width="60" height="60"/>
                <use id="zoomplus" xlink:href="#zoomPlus" x="17" y="9" onmousedown="handleZoom(evt,'in')"/>
                <use id="zoomminus" xlink:href="#zoomMin" x="42" y="9" onmousedown="handleZoom(evt,'out')"/>
                <use id="reset" xlink:href="#resetDef" x="30" y="36" onmousedown="handleReset()"/>
                <g id="arrowUp" xlink:href="#dirArrow" transform="translate(30 24)" onmousedown="handlePan(0,-1)">
                  <use xlink:href="#rim" fill="#404040">
                        <set attributeName="fill" to="#808080" begin="arrowUp.mouseover" end="arrowUp.mouseout"/>
                  </use>
                  <path fill="none" stroke="white" stroke-width="1.5" d="M0,-3.0v7 M-2.5,-0.5L0,-3.0L2.5,-0.5"/>
                </g>
                <g id="arrowRight" xlink:href="#dirArrow" transform="rotate(90) translate(36 -43)" onmousedown="handlePan(1,0)">
                  <use xlink:href="#rim" fill="#404040">
                        <set attributeName="fill" to="#808080" begin="arrowRight.mouseover" end="arrowRight.mouseout"/>
                  </use>
                  <path fill="none" stroke="white" stroke-width="1.5" d="M0,-3.0v7 M-2.5,-0.5L0,-3.0L2.5,-0.5"/>
                </g>
                <g id="arrowDown" xlink:href="#dirArrow" transform="rotate(180) translate(-30 -48)" onmousedown="handlePan(0,1)">
                  <use xlink:href="#rim" fill="#404040">
                        <set attributeName="fill" to="#808080" begin="arrowDown.mouseover" end="arrowDown.mouseout"/>
                  </use>
                  <path fill="none" stroke="white" stroke-width="1.5" d="M0,-3.0v7 M-2.5,-0.5L0,-3.0L2.5,-0.5"/>
                </g>
                <g id="arrowLeft" xlink:href="#dirArrow" transform="rotate(270) translate(-36 17)" onmousedown="handlePan(-1,0)">
                  <use xlink:href="#rim" fill="#404040">
                        <set attributeName="fill" to="#808080" begin="arrowLeft.mouseover" end="arrowLeft.mouseout"/>
                  </use>
                  <path fill="none" stroke="white" stroke-width="1.5" d="M0,-3.0v7 M-2.5,-0.5L0,-3.0L2.5,-0.5"/>
                </g>
        </g>
        <svg viewBox="0 0 15 15" width="100%" height="30px" preserveAspectRatio="xMaxYMin meet">
         <g id="arrow_out" transform="scale(0.3 0.3)">
          <a xlink:href="quickjs_8c_a24d12f8b386c73983003b80ef5ff52e7_cgraph_org.svg" target="_base">
           <rect id="button" ry="5" rx="5" y="6" x="6" height="38" width="38"
                fill="#f2f5e9" fill-opacity="0.5" stroke="#606060" stroke-width="1.0"/>
           <path id="arrow"
             d="M 11.500037,31.436501 C 11.940474,20.09759 22.043105,11.32322 32.158766,21.979434 L 37.068811,17.246167 C 37.068811,17.246167 37.088388,32 37.088388,32 L 22.160133,31.978069 C 22.160133,31.978069 26.997745,27.140456 26.997745,27.140456 C 18.528582,18.264221 13.291696,25.230495 11.500037,31.436501 z"
             style="fill:#404040;"/>
          </a>
         </g>
        </svg>
</svg>
