<?xml version="1.0" encoding="UTF-8" standalone="no"?>
<!DOCTYPE svg PUBLIC "-//W3C//DTD SVG 1.1//EN"
 "http://www.w3.org/Graphics/SVG/1.1/DTD/svg11.dtd">
<!-- Generated by graphviz version 2.40.1 (20161225.0304)
 -->
<!-- Title: js_json_to_str Pages: 1 -->
<svg width="208pt" height="46pt"
 viewBox="0.00 0.00 208.00 46.00" xmlns="http://www.w3.org/2000/svg" xmlns:xlink="http://www.w3.org/1999/xlink">
<g id="graph0" class="graph" transform="scale(1 1) rotate(0) translate(4 42)">
<title>js_json_to_str</title>
<!-- Node398336 -->
<g id="node1" class="node">
<title>Node398336</title>
<polygon fill="#bfbfbf" stroke="#000000" points="0,-.5 0,-19.5 77,-19.5 77,-.5 0,-.5"/>
<text text-anchor="middle" x="38.5" y="-7.5" font-family="Helvetica,sans-Serif" font-size="10.00" fill="#000000">js_json_to_str</text>
</g>
<!-- Node398336&#45;&gt;Node398336 -->
<g id="edge2" class="edge">
<title>Node398336&#45;&gt;Node398336</title>
<path fill="none" stroke="#191970" d="M16.5507,-29.0292C17.748,-34.128 25.0644,-38 38.5,-38 59.4727,-38 65.5351,-28.5653 56.6872,-19.7571"/>
<polygon fill="#191970" stroke="#191970" points="19.7962,-30.3393 20.3128,-19.7571 13.3098,-27.7074 19.7962,-30.3393"/>
</g>
<!-- Node398337 -->
<g id="node2" class="node">
<title>Node398337</title>
<g id="a_node2"><a xlink:href="quickjs_8c.html#ad2e4811daaaacb846df56bc88bd84e03" target="_top" xlink:title="js_json_stringify">
<polygon fill="none" stroke="#000000" points="113,-.5 113,-19.5 200,-19.5 200,-.5 113,-.5"/>
<text text-anchor="middle" x="156.5" y="-7.5" font-family="Helvetica,sans-Serif" font-size="10.00" fill="#000000">js_json_stringify</text>
</a>
</g>
</g>
<!-- Node398336&#45;&gt;Node398337 -->
<g id="edge1" class="edge">
<title>Node398336&#45;&gt;Node398337</title>
<path fill="none" stroke="#191970" d="M87.2886,-10C95.7688,-10 104.5392,-10 112.8702,-10"/>
<polygon fill="#191970" stroke="#191970" points="87.1376,-6.5001 77.1376,-10 87.1376,-13.5001 87.1376,-6.5001"/>
</g>
</g>
</svg>
