<?xml version="1.0" encoding="UTF-8" standalone="no"?>
<!DOCTYPE svg PUBLIC "-//W3C//DTD SVG 1.1//EN"
 "http://www.w3.org/Graphics/SVG/1.1/DTD/svg11.dtd">
<!-- Generated by graphviz version 2.40.1 (20161225.0304)
 -->
<!-- Title: js_number_constructor Pages: 1 -->
<svg width="844pt" height="424pt"
 viewBox="0.00 0.00 844.00 424.21" xmlns="http://www.w3.org/2000/svg" xmlns:xlink="http://www.w3.org/1999/xlink">
<g id="graph0" class="graph" transform="scale(1 1) rotate(0) translate(4 420.2056)">
<title>js_number_constructor</title>
<!-- Node335288 -->
<g id="node1" class="node">
<title>Node335288</title>
<polygon fill="#bfbfbf" stroke="#000000" points="0,-149.9517 0,-168.9517 116,-168.9517 116,-149.9517 0,-149.9517"/>
<text text-anchor="middle" x="58" y="-156.9517" font-family="Helvetica,sans-Serif" font-size="10.00" fill="#000000">js_number_constructor</text>
</g>
<!-- Node335289 -->
<g id="node2" class="node">
<title>Node335289</title>
<g id="a_node2"><a xlink:href="quickjs_8c.html#a93dbf502b17d1328c524401335f60499" target="_top" xlink:title="js_create_from_ctor">
<polygon fill="none" stroke="#000000" points="152,-179.9517 152,-198.9517 255,-198.9517 255,-179.9517 152,-179.9517"/>
<text text-anchor="middle" x="203.5" y="-186.9517" font-family="Helvetica,sans-Serif" font-size="10.00" fill="#000000">js_create_from_ctor</text>
</a>
</g>
</g>
<!-- Node335288&#45;&gt;Node335289 -->
<g id="edge1" class="edge">
<title>Node335288&#45;&gt;Node335289</title>
<path fill="none" stroke="#191970" d="M104.4372,-169.0263C117.9557,-171.8137 132.8752,-174.8899 146.9436,-177.7906"/>
<polygon fill="#191970" stroke="#191970" points="146.5042,-181.2735 157.005,-179.8651 147.9178,-174.4177 146.5042,-181.2735"/>
</g>
<!-- Node335330 -->
<g id="node8" class="node">
<title>Node335330</title>
<g id="a_node8"><a xlink:href="quickjs_8h.html#a2050bc428da1c65ac7eb87c3fa3b0392" target="_top" xlink:title="JS_NewInt32">
<polygon fill="none" stroke="#000000" points="630,-299.9517 630,-318.9517 706,-318.9517 706,-299.9517 630,-299.9517"/>
<text text-anchor="middle" x="668" y="-306.9517" font-family="Helvetica,sans-Serif" font-size="10.00" fill="#000000">JS_NewInt32</text>
</a>
</g>
</g>
<!-- Node335288&#45;&gt;Node335330 -->
<g id="edge17" class="edge">
<title>Node335288&#45;&gt;Node335330</title>
<path fill="none" stroke="#191970" d="M58.8669,-169.1711C62.5207,-203.5858 79.9974,-320.0697 152,-366.4517 311.8156,-469.4002 558.5689,-364.0093 640.5068,-323.7051"/>
<polygon fill="#191970" stroke="#191970" points="642.2828,-326.7304 649.6652,-319.131 639.1551,-320.468 642.2828,-326.7304"/>
</g>
<!-- Node335329 -->
<g id="node9" class="node">
<title>Node335329</title>
<g id="a_node9"><a xlink:href="quickjs_8h.html#ad80a83d73e9b7d872b88fbf2943aebe9" target="_top" xlink:title="JS_IsException">
<polygon fill="none" stroke="#000000" points="625,-78.9517 625,-97.9517 711,-97.9517 711,-78.9517 625,-78.9517"/>
<text text-anchor="middle" x="668" y="-85.9517" font-family="Helvetica,sans-Serif" font-size="10.00" fill="#000000">JS_IsException</text>
</a>
</g>
</g>
<!-- Node335288&#45;&gt;Node335329 -->
<g id="edge15" class="edge">
<title>Node335288&#45;&gt;Node335329</title>
<path fill="none" stroke="#191970" d="M63.2649,-149.7611C75.5447,-128.2437 108.3833,-76.6349 152,-54.4517 325.1257,33.5991 401.1184,-1.1977 589,-50.4517 608.3847,-55.5335 628.728,-65.4405 643.9156,-73.8648"/>
<polygon fill="#191970" stroke="#191970" points="642.2331,-76.9345 652.6511,-78.8621 645.709,-70.8585 642.2331,-76.9345"/>
</g>
<!-- Node335486 -->
<g id="node11" class="node">
<title>Node335486</title>
<g id="a_node11"><a xlink:href="quickjs_8h.html#a4e407128a9605afb77523e49e9a627fd" target="_top" xlink:title="JS_IsUndefined">
<polygon fill="none" stroke="#000000" points="319.5,-59.9517 319.5,-78.9517 405.5,-78.9517 405.5,-59.9517 319.5,-59.9517"/>
<text text-anchor="middle" x="362.5" y="-66.9517" font-family="Helvetica,sans-Serif" font-size="10.00" fill="#000000">JS_IsUndefined</text>
</a>
</g>
</g>
<!-- Node335288&#45;&gt;Node335486 -->
<g id="edge16" class="edge">
<title>Node335288&#45;&gt;Node335486</title>
<path fill="none" stroke="#191970" d="M90.2986,-149.9053C145.6842,-133.5352 258.7454,-100.1181 320.293,-81.9266"/>
<polygon fill="#191970" stroke="#191970" points="321.4765,-85.2266 330.0743,-79.0356 319.4924,-78.5137 321.4765,-85.2266"/>
</g>
<!-- Node335550 -->
<g id="node14" class="node">
<title>Node335550</title>
<g id="a_node14"><a xlink:href="quickjs_8c.html#a5cfd8b63940fcb5151b4df41e32dc68c" target="_top" xlink:title="JS_SetObjectData">
<polygon fill="none" stroke="#000000" points="480.5,-59.9517 480.5,-78.9517 578.5,-78.9517 578.5,-59.9517 480.5,-59.9517"/>
<text text-anchor="middle" x="529.5" y="-66.9517" font-family="Helvetica,sans-Serif" font-size="10.00" fill="#000000">JS_SetObjectData</text>
</a>
</g>
</g>
<!-- Node335288&#45;&gt;Node335550 -->
<g id="edge18" class="edge">
<title>Node335288&#45;&gt;Node335550</title>
<path fill="none" stroke="#191970" d="M71.1707,-149.9008C88.8875,-137.3592 121.681,-115.2062 152,-100.4517 211.0339,-71.7232 226.323,-61.7305 291,-50.4517 353.6107,-39.5332 370.7506,-44.2209 434,-50.4517 449.3093,-51.9598 465.8018,-54.7965 480.7019,-57.8268"/>
<polygon fill="#191970" stroke="#191970" points="480.2218,-61.3024 490.7289,-59.9416 481.6665,-54.4531 480.2218,-61.3024"/>
</g>
<!-- Node335706 -->
<g id="node15" class="node">
<title>Node335706</title>
<g id="a_node15"><a xlink:href="quickjs_8c.html#a3db848576f8ea57675df6ba68de8ebfc" target="_top" xlink:title="JS_ToNumeric">
<polygon fill="none" stroke="#000000" points="162.5,-337.9517 162.5,-356.9517 244.5,-356.9517 244.5,-337.9517 162.5,-337.9517"/>
<text text-anchor="middle" x="203.5" y="-344.9517" font-family="Helvetica,sans-Serif" font-size="10.00" fill="#000000">JS_ToNumeric</text>
</a>
</g>
</g>
<!-- Node335288&#45;&gt;Node335706 -->
<g id="edge21" class="edge">
<title>Node335288&#45;&gt;Node335706</title>
<path fill="none" stroke="#191970" d="M65.4154,-169.0331C88.4687,-198.8201 159.1491,-290.146 189.459,-329.3094"/>
<polygon fill="#191970" stroke="#191970" points="187.0367,-331.898 195.9251,-337.6641 192.5724,-327.6137 187.0367,-331.898"/>
</g>
<!-- Node335290 -->
<g id="node3" class="node">
<title>Node335290</title>
<g id="a_node3"><a xlink:href="quickjs_8h.html#a775522f2d084fc8fa0fcb33f390006b4" target="_top" xlink:title="JS_DupValue">
<polygon fill="none" stroke="#000000" points="629.5,-375.9517 629.5,-394.9517 706.5,-394.9517 706.5,-375.9517 629.5,-375.9517"/>
<text text-anchor="middle" x="668" y="-382.9517" font-family="Helvetica,sans-Serif" font-size="10.00" fill="#000000">JS_DupValue</text>
</a>
</g>
</g>
<!-- Node335289&#45;&gt;Node335290 -->
<g id="edge2" class="edge">
<title>Node335289&#45;&gt;Node335290</title>
<path fill="none" stroke="#191970" d="M206.8089,-199.1025C218.6568,-233.0535 259.9105,-346.0376 291,-366.4517 343.6283,-401.0086 529.6327,-394.3951 619.1534,-388.9454"/>
<polygon fill="#191970" stroke="#191970" points="619.5581,-392.427 629.3187,-388.3062 619.1188,-385.4408 619.5581,-392.427"/>
</g>
<!-- Node335291 -->
<g id="node4" class="node">
<title>Node335291</title>
<g id="a_node4"><a xlink:href="quickjs_8h.html#afaa20c47565bc704c6c85f3d77254e7d" target="_top" xlink:title="JS_FreeValue">
<polygon fill="none" stroke="#000000" points="629,-176.9517 629,-195.9517 707,-195.9517 707,-176.9517 629,-176.9517"/>
<text text-anchor="middle" x="668" y="-183.9517" font-family="Helvetica,sans-Serif" font-size="10.00" fill="#000000">JS_FreeValue</text>
</a>
</g>
</g>
<!-- Node335289&#45;&gt;Node335291 -->
<g id="edge3" class="edge">
<title>Node335289&#45;&gt;Node335291</title>
<path fill="none" stroke="#191970" d="M229.8913,-179.8306C247.0431,-174.1001 270.0342,-167.388 291,-164.4517 407.8088,-148.092 546.6252,-165.5903 618.832,-177.4388"/>
<polygon fill="#191970" stroke="#191970" points="618.5506,-180.9404 628.9916,-179.1413 619.7075,-174.0367 618.5506,-180.9404"/>
</g>
<!-- Node335320 -->
<g id="node6" class="node">
<title>Node335320</title>
<g id="a_node6"><a xlink:href="quickjs_8h.html#a89b7c8686c7eee70b86be722ee4730ad" target="_top" xlink:title="JS_GetProperty">
<polygon fill="none" stroke="#000000" points="319.5,-299.9517 319.5,-318.9517 405.5,-318.9517 405.5,-299.9517 319.5,-299.9517"/>
<text text-anchor="middle" x="362.5" y="-306.9517" font-family="Helvetica,sans-Serif" font-size="10.00" fill="#000000">JS_GetProperty</text>
</a>
</g>
</g>
<!-- Node335289&#45;&gt;Node335320 -->
<g id="edge5" class="edge">
<title>Node335289&#45;&gt;Node335320</title>
<path fill="none" stroke="#191970" d="M209.1238,-199.2149C221.3168,-219.4815 252.2364,-266.2399 291,-290.4517 296.7089,-294.0175 303.0769,-296.9196 309.5947,-299.2803"/>
<polygon fill="#191970" stroke="#191970" points="308.6007,-302.6371 319.1921,-302.3659 310.7433,-295.9731 308.6007,-302.6371"/>
</g>
<!-- Node335289&#45;&gt;Node335329 -->
<g id="edge10" class="edge">
<title>Node335289&#45;&gt;Node335329</title>
<path fill="none" stroke="#191970" d="M223.9397,-179.8698C241.4098,-172.0241 267.3931,-161.161 291,-154.4517 404.2372,-122.2685 541.3032,-103.0203 614.9817,-94.2174"/>
<polygon fill="#191970" stroke="#191970" points="615.426,-97.6894 624.9482,-93.0444 614.6076,-90.7374 615.426,-97.6894"/>
</g>
<!-- Node335562 -->
<g id="node10" class="node">
<title>Node335562</title>
<g id="a_node10"><a xlink:href="quickjs_8h.html#a3d68fe446df2d9c7d1900b16371bff5b" target="_top" xlink:title="JS_IsObject">
<polygon fill="none" stroke="#000000" points="327,-261.9517 327,-280.9517 398,-280.9517 398,-261.9517 327,-261.9517"/>
<text text-anchor="middle" x="362.5" y="-268.9517" font-family="Helvetica,sans-Serif" font-size="10.00" fill="#000000">JS_IsObject</text>
</a>
</g>
</g>
<!-- Node335289&#45;&gt;Node335562 -->
<g id="edge11" class="edge">
<title>Node335289&#45;&gt;Node335562</title>
<path fill="none" stroke="#191970" d="M214.0034,-199.0026C229.6571,-212.7502 260.5424,-238.0429 291,-252.4517 299.0982,-256.2827 308.0913,-259.4366 316.8905,-261.998"/>
<polygon fill="#191970" stroke="#191970" points="316.118,-265.4147 326.6847,-264.6425 317.9428,-258.6567 316.118,-265.4147"/>
</g>
<!-- Node335289&#45;&gt;Node335486 -->
<g id="edge12" class="edge">
<title>Node335289&#45;&gt;Node335486</title>
<path fill="none" stroke="#191970" d="M209.7621,-179.7881C222.6762,-160.5978 254.1634,-117.4684 291,-93.4517 297.6325,-89.1274 305.121,-85.5069 312.691,-82.499"/>
<polygon fill="#191970" stroke="#191970" points="314.0679,-85.7225 322.2649,-79.0098 311.671,-79.1456 314.0679,-85.7225"/>
</g>
<!-- Node335449 -->
<g id="node12" class="node">
<title>Node335449</title>
<g id="a_node12"><a xlink:href="quickjs_8c.html#a73738c650f11459db0d7af3dcdf8316b" target="_top" xlink:title="JS_NewObjectProtoClass">
<polygon fill="none" stroke="#ff0000" points="297,-223.9517 297,-242.9517 428,-242.9517 428,-223.9517 297,-223.9517"/>
<text text-anchor="middle" x="362.5" y="-230.9517" font-family="Helvetica,sans-Serif" font-size="10.00" fill="#000000">JS_NewObjectProtoClass</text>
</a>
</g>
</g>
<!-- Node335289&#45;&gt;Node335449 -->
<g id="edge13" class="edge">
<title>Node335289&#45;&gt;Node335449</title>
<path fill="none" stroke="#191970" d="M236.2846,-198.9747C252.6942,-203.7014 272.8756,-209.4548 291,-214.4517 299.1876,-216.709 307.9159,-219.0678 316.3593,-221.3252"/>
<polygon fill="#191970" stroke="#191970" points="315.5269,-224.7254 326.0908,-223.9163 317.3281,-217.9611 315.5269,-224.7254"/>
</g>
<!-- Node335484 -->
<g id="node13" class="node">
<title>Node335484</title>
<g id="a_node13"><a xlink:href="quickjs_8c.html#a199d64ccbee0a90d93e1ad12745417f6" target="_top" xlink:title="JS_ThrowTypeErrorRevoked\lProxy">
<polygon fill="none" stroke="#000000" points="291,-174.4517 291,-204.4517 434,-204.4517 434,-174.4517 291,-174.4517"/>
<text text-anchor="start" x="299" y="-192.4517" font-family="Helvetica,sans-Serif" font-size="10.00" fill="#000000">JS_ThrowTypeErrorRevoked</text>
<text text-anchor="middle" x="362.5" y="-181.4517" font-family="Helvetica,sans-Serif" font-size="10.00" fill="#000000">Proxy</text>
</a>
</g>
</g>
<!-- Node335289&#45;&gt;Node335484 -->
<g id="edge14" class="edge">
<title>Node335289&#45;&gt;Node335484</title>
<path fill="none" stroke="#191970" d="M255.1227,-189.4517C263.3347,-189.4517 272.0011,-189.4517 280.7042,-189.4517"/>
<polygon fill="#191970" stroke="#191970" points="280.9128,-192.9518 290.9127,-189.4517 280.9127,-185.9518 280.9128,-192.9518"/>
</g>
<!-- Node335292 -->
<g id="node5" class="node">
<title>Node335292</title>
<g id="a_node5"><a xlink:href="quickjs_8c.html#aa059f309c30fd5166d16c82a97973146" target="_top" xlink:title="__JS_FreeValue">
<polygon fill="none" stroke="#ff0000" points="747,-176.9517 747,-195.9517 836,-195.9517 836,-176.9517 747,-176.9517"/>
<text text-anchor="middle" x="791.5" y="-183.9517" font-family="Helvetica,sans-Serif" font-size="10.00" fill="#000000">__JS_FreeValue</text>
</a>
</g>
</g>
<!-- Node335291&#45;&gt;Node335292 -->
<g id="edge4" class="edge">
<title>Node335291&#45;&gt;Node335292</title>
<path fill="none" stroke="#191970" d="M707.0762,-186.4517C716.412,-186.4517 726.5507,-186.4517 736.4566,-186.4517"/>
<polygon fill="#191970" stroke="#191970" points="736.6517,-189.9518 746.6517,-186.4517 736.6517,-182.9518 736.6517,-189.9518"/>
</g>
<!-- Node335321 -->
<g id="node7" class="node">
<title>Node335321</title>
<g id="a_node7"><a xlink:href="quickjs_8c.html#a5762c57ae0c9937e986040c01222833a" target="_top" xlink:title="JS_GetPropertyInternal">
<polygon fill="none" stroke="#ff0000" points="470,-299.9517 470,-318.9517 589,-318.9517 589,-299.9517 470,-299.9517"/>
<text text-anchor="middle" x="529.5" y="-306.9517" font-family="Helvetica,sans-Serif" font-size="10.00" fill="#000000">JS_GetPropertyInternal</text>
</a>
</g>
</g>
<!-- Node335320&#45;&gt;Node335321 -->
<g id="edge6" class="edge">
<title>Node335320&#45;&gt;Node335321</title>
<path fill="none" stroke="#191970" d="M405.5066,-309.4517C422.0597,-309.4517 441.4141,-309.4517 459.843,-309.4517"/>
<polygon fill="#191970" stroke="#191970" points="459.9625,-312.9518 469.9624,-309.4517 459.9624,-305.9518 459.9625,-312.9518"/>
</g>
<!-- Node335321&#45;&gt;Node335290 -->
<g id="edge7" class="edge">
<title>Node335321&#45;&gt;Node335290</title>
<path fill="none" stroke="#191970" d="M547.0411,-319.0771C570.9765,-332.2113 614.0598,-355.8527 641.823,-371.0874"/>
<polygon fill="#191970" stroke="#191970" points="640.1507,-374.162 650.6013,-375.9044 643.5182,-368.0252 640.1507,-374.162"/>
</g>
<!-- Node335321&#45;&gt;Node335291 -->
<g id="edge8" class="edge">
<title>Node335321&#45;&gt;Node335291</title>
<path fill="none" stroke="#191970" d="M540.3679,-299.8001C564.0334,-278.783 620.4462,-228.6836 649.7012,-202.7026"/>
<polygon fill="#191970" stroke="#191970" points="652.0296,-205.3157 657.1826,-196.0584 647.3814,-200.0818 652.0296,-205.3157"/>
</g>
<!-- Node335321&#45;&gt;Node335330 -->
<g id="edge9" class="edge">
<title>Node335321&#45;&gt;Node335330</title>
<path fill="none" stroke="#191970" d="M589.0402,-309.4517C599.2702,-309.4517 609.7886,-309.4517 619.6785,-309.4517"/>
<polygon fill="#191970" stroke="#191970" points="619.7188,-312.9518 629.7188,-309.4517 619.7187,-305.9518 619.7188,-312.9518"/>
</g>
<!-- Node335550&#45;&gt;Node335291 -->
<g id="edge19" class="edge">
<title>Node335550&#45;&gt;Node335291</title>
<path fill="none" stroke="#191970" d="M540.834,-79.0263C564.472,-98.9948 619.2663,-145.2831 648.616,-170.0768"/>
<polygon fill="#191970" stroke="#191970" points="646.6116,-172.9652 656.5094,-176.7448 651.1289,-167.6178 646.6116,-172.9652"/>
</g>
<!-- Node335550&#45;&gt;Node335329 -->
<g id="edge20" class="edge">
<title>Node335550&#45;&gt;Node335329</title>
<path fill="none" stroke="#191970" d="M578.7199,-76.2039C590.3863,-77.8043 602.8825,-79.5186 614.7203,-81.1425"/>
<polygon fill="#191970" stroke="#191970" points="614.5333,-84.6496 624.9162,-82.5413 615.4847,-77.7145 614.5333,-84.6496"/>
</g>
<!-- Node335706&#45;&gt;Node335290 -->
<g id="edge22" class="edge">
<title>Node335706&#45;&gt;Node335290</title>
<path fill="none" stroke="#191970" d="M215.0081,-357.0985C230.8988,-369.7243 261.01,-391.2129 291,-399.4517 405.4563,-430.8948 546.7929,-410.8039 619.5929,-396.3848"/>
<polygon fill="#191970" stroke="#191970" points="620.2968,-399.8133 629.4006,-394.3937 618.9041,-392.9533 620.2968,-399.8133"/>
</g>
<!-- Node335707 -->
<g id="node16" class="node">
<title>Node335707</title>
<g id="a_node16"><a xlink:href="quickjs_8c.html#a95c291df13743182541d687be697e59d" target="_top" xlink:title="JS_ToNumericFree">
<polygon fill="none" stroke="#000000" points="312,-337.9517 312,-356.9517 413,-356.9517 413,-337.9517 312,-337.9517"/>
<text text-anchor="middle" x="362.5" y="-344.9517" font-family="Helvetica,sans-Serif" font-size="10.00" fill="#000000">JS_ToNumericFree</text>
</a>
</g>
</g>
<!-- Node335706&#45;&gt;Node335707 -->
<g id="edge23" class="edge">
<title>Node335706&#45;&gt;Node335707</title>
<path fill="none" stroke="#191970" d="M244.8603,-347.4517C262.2534,-347.4517 282.8384,-347.4517 301.8878,-347.4517"/>
<polygon fill="#191970" stroke="#191970" points="301.9824,-350.9518 311.9823,-347.4517 301.9823,-343.9518 301.9824,-350.9518"/>
</g>
<!-- Node335338 -->
<g id="node17" class="node">
<title>Node335338</title>
<g id="a_node17"><a xlink:href="quickjs_8c.html#a0315f23b9804563f376c47edef2967fd" target="_top" xlink:title="JS_ToNumberHintFree">
<polygon fill="none" stroke="#ff0000" points="471,-217.9517 471,-236.9517 588,-236.9517 588,-217.9517 471,-217.9517"/>
<text text-anchor="middle" x="529.5" y="-224.9517" font-family="Helvetica,sans-Serif" font-size="10.00" fill="#000000">JS_ToNumberHintFree</text>
</a>
</g>
</g>
<!-- Node335707&#45;&gt;Node335338 -->
<g id="edge24" class="edge">
<title>Node335707&#45;&gt;Node335338</title>
<path fill="none" stroke="#191970" d="M412.7865,-337.8958C420.1782,-335.4227 427.4869,-332.3254 434,-328.4517 434.3066,-328.2693 486.3294,-273.1826 513.4535,-244.4513"/>
<polygon fill="#191970" stroke="#191970" points="516.0604,-246.7884 520.3799,-237.114 510.9702,-241.9832 516.0604,-246.7884"/>
</g>
<!-- Node335338&#45;&gt;Node335291 -->
<g id="edge25" class="edge">
<title>Node335338&#45;&gt;Node335291</title>
<path fill="none" stroke="#191970" d="M561.6228,-217.9424C580.714,-212.2908 605.1501,-205.0571 625.7864,-198.9481"/>
<polygon fill="#191970" stroke="#191970" points="626.9765,-202.246 635.5716,-196.0514 624.9894,-195.534 626.9765,-202.246"/>
</g>
<!-- Node335338&#45;&gt;Node335330 -->
<g id="edge27" class="edge">
<title>Node335338&#45;&gt;Node335330</title>
<path fill="none" stroke="#191970" d="M545.6588,-237.0186C569.6358,-251.2144 614.8344,-277.9746 643.0729,-294.6934"/>
<polygon fill="#191970" stroke="#191970" points="641.5561,-297.8627 651.9442,-299.9457 645.1223,-291.8393 641.5561,-297.8627"/>
</g>
<!-- Node335338&#45;&gt;Node335329 -->
<g id="edge26" class="edge">
<title>Node335338&#45;&gt;Node335329</title>
<path fill="none" stroke="#191970" d="M539.0197,-217.8976C562.2459,-194.5875 622.0546,-134.563 651.3414,-105.1704"/>
<polygon fill="#191970" stroke="#191970" points="653.8347,-107.6268 658.4137,-98.0726 648.876,-102.686 653.8347,-107.6268"/>
</g>
</g>
</svg>
