<?xml version="1.0" encoding="UTF-8" standalone="no"?>
<!DOCTYPE svg PUBLIC "-//W3C//DTD SVG 1.1//EN"
 "http://www.w3.org/Graphics/SVG/1.1/DTD/svg11.dtd">
<!-- Generated by graphviz version 2.40.1 (20161225.0304)
 -->
<!-- Title: js_parse_destructing_element Pages: 1 -->
<svg width="855pt" height="188pt"
 viewBox="0.00 0.00 855.00 188.00" xmlns="http://www.w3.org/2000/svg" xmlns:xlink="http://www.w3.org/1999/xlink">
<g id="graph0" class="graph" transform="scale(1 1) rotate(0) translate(4 184)">
<title>js_parse_destructing_element</title>
<!-- Node345986 -->
<g id="node1" class="node">
<title>Node345986</title>
<polygon fill="#bfbfbf" stroke="#000000" points="0,-80 0,-110 107,-110 107,-80 0,-80"/>
<text text-anchor="start" x="8" y="-98" font-family="Helvetica,sans-Serif" font-size="10.00" fill="#000000">js_parse_destructing</text>
<text text-anchor="middle" x="53.5" y="-87" font-family="Helvetica,sans-Serif" font-size="10.00" fill="#000000">_element</text>
</g>
<!-- Node345986&#45;&gt;Node345986 -->
<g id="edge1" class="edge">
<title>Node345986&#45;&gt;Node345986</title>
<path fill="none" stroke="#191970" d="M27.9129,-120.4579C31.0887,-125.179 39.6177,-128.5 53.5,-128.5 76.2813,-128.5 84.6462,-119.5566 78.595,-110.159"/>
<polygon fill="#191970" stroke="#191970" points="31.4237,-120.3147 28.405,-110.159 24.4317,-119.9805 31.4237,-120.3147"/>
</g>
<!-- Node345987 -->
<g id="node2" class="node">
<title>Node345987</title>
<g id="a_node2"><a xlink:href="quickjs_8c.html#ac188b916dd086803591a67de7e7a85f6" target="_top" xlink:title="js_parse_for_in_of">
<polygon fill="none" stroke="#000000" points="291,-116.5 291,-135.5 387,-135.5 387,-116.5 291,-116.5"/>
<text text-anchor="middle" x="339" y="-123.5" font-family="Helvetica,sans-Serif" font-size="10.00" fill="#000000">js_parse_for_in_of</text>
</a>
</g>
</g>
<!-- Node345986&#45;&gt;Node345987 -->
<g id="edge2" class="edge">
<title>Node345986&#45;&gt;Node345987</title>
<path fill="none" stroke="#191970" d="M117.4077,-101.9392C169.8943,-107.6383 243.1002,-115.5871 290.7682,-120.7629"/>
<polygon fill="#191970" stroke="#191970" points="117.5198,-98.4309 107.2004,-100.8309 116.7641,-105.39 117.5198,-98.4309"/>
</g>
<!-- Node345988 -->
<g id="node3" class="node">
<title>Node345988</title>
<g id="a_node3"><a xlink:href="quickjs_8c.html#a9d844c16dcc71701436848074337d32c" target="_top" xlink:title="js_parse_statement\l_or_decl">
<polygon fill="none" stroke="#000000" points="423,-61 423,-91 525,-91 525,-61 423,-61"/>
<text text-anchor="start" x="431" y="-79" font-family="Helvetica,sans-Serif" font-size="10.00" fill="#000000">js_parse_statement</text>
<text text-anchor="middle" x="474" y="-68" font-family="Helvetica,sans-Serif" font-size="10.00" fill="#000000">_or_decl</text>
</a>
</g>
</g>
<!-- Node345986&#45;&gt;Node345988 -->
<g id="edge17" class="edge">
<title>Node345986&#45;&gt;Node345988</title>
<path fill="none" stroke="#191970" d="M117.3236,-92.1162C200.9989,-88.3354 346.1348,-81.7775 422.9355,-78.3073"/>
<polygon fill="#191970" stroke="#191970" points="117.0155,-88.6264 107.1837,-92.5743 117.3316,-95.6193 117.0155,-88.6264"/>
</g>
<!-- Node345992 -->
<g id="node7" class="node">
<title>Node345992</title>
<g id="a_node7"><a xlink:href="quickjs_8c.html#acc9eb677cab8dfcf45f59381f8a19601" target="_top" xlink:title="js_parse_function_decl2">
<polygon fill="none" stroke="#ff0000" points="725,-9.5 725,-28.5 847,-28.5 847,-9.5 725,-9.5"/>
<text text-anchor="middle" x="786" y="-16.5" font-family="Helvetica,sans-Serif" font-size="10.00" fill="#000000">js_parse_function_decl2</text>
</a>
</g>
</g>
<!-- Node345986&#45;&gt;Node345992 -->
<g id="edge12" class="edge">
<title>Node345986&#45;&gt;Node345992</title>
<path fill="none" stroke="#191970" d="M82.4819,-74.0753C99.3973,-62.7629 121.5704,-49.424 143,-41 225.8268,-8.4406 250.0034,0 339,0 339,0 339,0 474,0 561.2342,0 661.9348,-7.4916 724.7938,-13.0664"/>
<polygon fill="#191970" stroke="#191970" points="80.4299,-71.2383 74.1473,-79.7695 84.3787,-77.0182 80.4299,-71.2383"/>
</g>
<!-- Node345995 -->
<g id="node8" class="node">
<title>Node345995</title>
<g id="a_node8"><a xlink:href="quickjs_8c.html#acdcc62310b4f6f73fa7bc7267b18b1d4" target="_top" xlink:title="js_parse_postfix_expr">
<polygon fill="none" stroke="#ff0000" points="143,-142.5 143,-161.5 255,-161.5 255,-142.5 143,-142.5"/>
<text text-anchor="middle" x="199" y="-149.5" font-family="Helvetica,sans-Serif" font-size="10.00" fill="#000000">js_parse_postfix_expr</text>
</a>
</g>
</g>
<!-- Node345986&#45;&gt;Node345995 -->
<g id="edge13" class="edge">
<title>Node345986&#45;&gt;Node345995</title>
<path fill="none" stroke="#191970" d="M116.9132,-113.1419C142.353,-122.8361 169.3416,-134.254 185.1569,-142.4115"/>
<polygon fill="#191970" stroke="#191970" points="117.8576,-109.7581 107.2654,-109.5213 115.3981,-116.3118 117.8576,-109.7581"/>
</g>
<!-- Node346010 -->
<g id="node9" class="node">
<title>Node346010</title>
<g id="a_node9"><a xlink:href="quickjs_8c.html#a42924858317b848c3aea0a0a978fab3a" target="_top" xlink:title="js_parse_var">
<polygon fill="none" stroke="#ff0000" points="303,-28.5 303,-47.5 375,-47.5 375,-28.5 303,-28.5"/>
<text text-anchor="middle" x="339" y="-35.5" font-family="Helvetica,sans-Serif" font-size="10.00" fill="#000000">js_parse_var</text>
</a>
</g>
</g>
<!-- Node345986&#45;&gt;Node346010 -->
<g id="edge18" class="edge">
<title>Node345986&#45;&gt;Node346010</title>
<path fill="none" stroke="#191970" d="M98.1129,-76.2444C112.2545,-70.9273 128.0913,-65.6096 143,-62 197.8101,-48.7295 263.1104,-42.6039 302.7878,-39.9204"/>
<polygon fill="#191970" stroke="#191970" points="96.6957,-73.0397 88.6257,-79.9045 99.2152,-79.5706 96.6957,-73.0397"/>
</g>
<!-- Node345987&#45;&gt;Node345988 -->
<g id="edge3" class="edge">
<title>Node345987&#45;&gt;Node345988</title>
<path fill="none" stroke="#191970" d="M374.2899,-112.9297C392.3622,-106.2362 414.4584,-98.0525 433.2531,-91.0915"/>
<polygon fill="#191970" stroke="#191970" points="372.8721,-109.7224 364.7102,-116.4777 375.3033,-116.2866 372.8721,-109.7224"/>
</g>
<!-- Node345988&#45;&gt;Node345988 -->
<g id="edge9" class="edge">
<title>Node345988&#45;&gt;Node345988</title>
<path fill="none" stroke="#191970" d="M450.1898,-101.4579C453.145,-106.179 461.0817,-109.5 474,-109.5 495.1992,-109.5 502.9833,-100.5566 497.3523,-91.159"/>
<polygon fill="#191970" stroke="#191970" points="453.7,-101.3046 450.6477,-91.159 446.7069,-100.9936 453.7,-101.3046"/>
</g>
<!-- Node345989 -->
<g id="node4" class="node">
<title>Node345989</title>
<g id="a_node4"><a xlink:href="quickjs_8c.html#a729d43e44d20f1ed655cd9f4843995d3" target="_top" xlink:title="js_parse_statement">
<polygon fill="none" stroke="#000000" points="574,-104.5 574,-123.5 676,-123.5 676,-104.5 574,-104.5"/>
<text text-anchor="middle" x="625" y="-111.5" font-family="Helvetica,sans-Serif" font-size="10.00" fill="#000000">js_parse_statement</text>
</a>
</g>
</g>
<!-- Node345988&#45;&gt;Node345989 -->
<g id="edge4" class="edge">
<title>Node345988&#45;&gt;Node345989</title>
<path fill="none" stroke="#191970" d="M535.0419,-84.7228C560.3209,-90.6911 587.8462,-98.2677 605.7032,-104.4542"/>
<polygon fill="#191970" stroke="#191970" points="535.6522,-81.2718 525.1217,-82.4381 534.0811,-88.0932 535.6522,-81.2718"/>
</g>
<!-- Node345990 -->
<g id="node5" class="node">
<title>Node345990</title>
<g id="a_node5"><a xlink:href="quickjs_8c.html#acc0cac53be5317d9cab6a79afcd7da48" target="_top" xlink:title="js_parse_block">
<polygon fill="none" stroke="#000000" points="584,-66.5 584,-85.5 666,-85.5 666,-66.5 584,-66.5"/>
<text text-anchor="middle" x="625" y="-73.5" font-family="Helvetica,sans-Serif" font-size="10.00" fill="#000000">js_parse_block</text>
</a>
</g>
</g>
<!-- Node345988&#45;&gt;Node345990 -->
<g id="edge7" class="edge">
<title>Node345988&#45;&gt;Node345990</title>
<path fill="none" stroke="#191970" d="M535.1828,-69.3591C551.5823,-69.1065 568.9174,-69.2926 583.938,-69.9174"/>
<polygon fill="#191970" stroke="#191970" points="535.045,-65.8611 525.1217,-69.573 535.1939,-72.8595 535.045,-65.8611"/>
</g>
<!-- Node345991 -->
<g id="node6" class="node">
<title>Node345991</title>
<g id="a_node6"><a xlink:href="quickjs_8c.html#ab59a3267a100decc9d2d81eb3297794a" target="_top" xlink:title="js_parse_source_element">
<polygon fill="none" stroke="#ff0000" points="561,-28.5 561,-47.5 689,-47.5 689,-28.5 561,-28.5"/>
<text text-anchor="middle" x="625" y="-35.5" font-family="Helvetica,sans-Serif" font-size="10.00" fill="#000000">js_parse_source_element</text>
</a>
</g>
</g>
<!-- Node345988&#45;&gt;Node345991 -->
<g id="edge10" class="edge">
<title>Node345988&#45;&gt;Node345991</title>
<path fill="none" stroke="#191970" d="M535.2408,-60.5884C552.6843,-56.1987 571.1815,-51.5437 586.8232,-47.6074"/>
<polygon fill="#191970" stroke="#191970" points="533.9652,-57.3002 525.1217,-63.1349 535.6735,-64.0886 533.9652,-57.3002"/>
</g>
<!-- Node345989&#45;&gt;Node345987 -->
<g id="edge5" class="edge">
<title>Node345989&#45;&gt;Node345987</title>
<path fill="none" stroke="#191970" d="M563.7652,-117.1817C550.9582,-117.8134 537.5382,-118.4506 525,-119 478.1888,-121.0511 424.7342,-123.0244 387.1796,-124.35"/>
<polygon fill="#191970" stroke="#191970" points="564.0628,-120.6713 573.8762,-116.6779 563.7144,-113.6799 564.0628,-120.6713"/>
</g>
<!-- Node345989&#45;&gt;Node345988 -->
<g id="edge6" class="edge">
<title>Node345989&#45;&gt;Node345988</title>
<path fill="none" stroke="#191970" d="M564.0265,-105.2934C545.8976,-101.0146 526.6075,-95.907 510.5529,-91.077"/>
<polygon fill="#191970" stroke="#191970" points="563.4203,-108.7453 573.9507,-107.5782 564.9909,-101.9238 563.4203,-108.7453"/>
</g>
<!-- Node345990&#45;&gt;Node345988 -->
<g id="edge8" class="edge">
<title>Node345990&#45;&gt;Node345988</title>
<path fill="none" stroke="#191970" d="M573.8668,-82.4273C558.1445,-82.8577 540.8432,-82.8576 525.1217,-82.427"/>
<polygon fill="#191970" stroke="#191970" points="574.0637,-85.9227 583.938,-82.0826 573.8241,-78.9268 574.0637,-85.9227"/>
</g>
<!-- Node345991&#45;&gt;Node345992 -->
<g id="edge11" class="edge">
<title>Node345991&#45;&gt;Node345992</title>
<path fill="none" stroke="#191970" d="M699.1006,-29.2552C707.683,-28.2424 716.363,-27.218 724.7471,-26.2286"/>
<polygon fill="#191970" stroke="#191970" points="698.6149,-25.7881 689.0941,-30.4361 699.4354,-32.7399 698.6149,-25.7881"/>
</g>
<!-- Node345995&#45;&gt;Node345986 -->
<g id="edge14" class="edge">
<title>Node345995&#45;&gt;Node345986</title>
<path fill="none" stroke="#191970" d="M149.3457,-138.9859C125.4895,-130.3053 97.9364,-119.1126 78.5123,-110.0407"/>
<polygon fill="#191970" stroke="#191970" points="148.3701,-142.3539 158.9648,-142.4187 150.7229,-135.7611 148.3701,-142.3539"/>
</g>
<!-- Node345995&#45;&gt;Node345987 -->
<g id="edge15" class="edge">
<title>Node345995&#45;&gt;Node345987</title>
<path fill="none" stroke="#191970" d="M260.4339,-140.5908C270.6471,-138.6941 281.1073,-136.7515 290.9271,-134.9278"/>
<polygon fill="#191970" stroke="#191970" points="259.5287,-137.199 250.3359,-142.4662 260.8069,-144.0814 259.5287,-137.199"/>
</g>
<!-- Node345995&#45;&gt;Node345995 -->
<g id="edge16" class="edge">
<title>Node345995&#45;&gt;Node345995</title>
<path fill="none" stroke="#191970" d="M172.9584,-171.0292C174.3789,-176.128 183.0594,-180 199,-180 223.8828,-180 231.0755,-170.5653 220.5781,-161.7571"/>
<polygon fill="#191970" stroke="#191970" points="176.238,-172.2855 177.4219,-161.7571 169.9308,-169.2493 176.238,-172.2855"/>
</g>
<!-- Node346010&#45;&gt;Node345988 -->
<g id="edge19" class="edge">
<title>Node346010&#45;&gt;Node345988</title>
<path fill="none" stroke="#191970" d="M382.9622,-50.3746C395.6945,-53.9585 409.7041,-57.9019 422.836,-61.5983"/>
<polygon fill="#191970" stroke="#191970" points="383.6405,-46.9295 373.0662,-47.589 381.7438,-53.6677 383.6405,-46.9295"/>
</g>
</g>
</svg>
