<?xml version="1.0" encoding="UTF-8" standalone="no"?>
<!DOCTYPE svg PUBLIC "-//W3C//DTD SVG 1.1//EN"
 "http://www.w3.org/Graphics/SVG/1.1/DTD/svg11.dtd">
<!-- Generated by graphviz version 2.40.1 (20161225.0304)
 -->
<!-- Title: js_os_exec Pages: 1 -->
<!--zoomable 541 -->
<svg id="main" version="1.1" xmlns="http://www.w3.org/2000/svg" xmlns:xlink="http://www.w3.org/1999/xlink" xml:space="preserve" onload="init(evt)">
<style type="text/css"><![CDATA[
.edge:hover path { stroke: red; }
.edge:hover polygon { stroke: red; fill: red; }
]]></style>
<script type="text/javascript"><![CDATA[
var edges = document.getElementsByTagName('g');
if (edges && edges.length) {
  for (var i=0;i<edges.length;i++) {
    if (edges[i].id.substr(0,4)=='edge') {
      edges[i].setAttribute('class','edge');
    }
  }
}
]]></script>
        <defs>
                <circle id="rim" cx="0" cy="0" r="7"/>
                <circle id="rim2" cx="0" cy="0" r="3.5"/>
                <g id="zoomPlus">
                        <use xlink:href="#rim" fill="#404040">
                                <set attributeName="fill" to="#808080" begin="zoomplus.mouseover" end="zoomplus.mouseout"/>
                        </use>
                        <path d="M-4,0h8M0,-4v8" fill="none" stroke="white" stroke-width="1.5" pointer-events="none"/>
                </g>
                <g id="zoomMin">
                        <use xlink:href="#rim" fill="#404040">
                                <set attributeName="fill" to="#808080" begin="zoomminus.mouseover" end="zoomminus.mouseout"/>
                        </use>
                        <path d="M-4,0h8" fill="none" stroke="white" stroke-width="1.5" pointer-events="none"/>
                </g>
                <g id="dirArrow">
                        <path fill="none" stroke="white" stroke-width="1.5" d="M0,-3.0v7 M-2.5,-0.5L0,-3.0L2.5,-0.5"/>
                </g>
               <g id="resetDef">
                       <use xlink:href="#rim2" fill="#404040">
                               <set attributeName="fill" to="#808080" begin="reset.mouseover" end="reset.mouseout"/>
                       </use>
               </g>
        </defs>

<script type="text/javascript">
var viewWidth = 721;
var viewHeight = 541;
var sectionId = 'dynsection-104';
</script>
<script xlink:href="svgpan.js"/>
<svg id="graph" class="graph">
<g id="viewport">
<title>js_os_exec</title>
<!-- Node25367 -->
<g id="node1" class="node">
<title>Node25367</title>
<polygon fill="#bfbfbf" stroke="#000000" points="0,-209.5 0,-228.5 66,-228.5 66,-209.5 0,-209.5"/>
<text text-anchor="middle" x="33" y="-216.5" font-family="Helvetica,sans-Serif" font-size="10.00" fill="#000000">js_os_exec</text>
</g>
<!-- Node25368 -->
<g id="node2" class="node">
<title>Node25368</title>
<g id="a_node2"><a xlink:href="quickjs-libc_8c.html#ad94572b16428965bd7780a285c188c77" target="_top" xlink:title="get_bool_option">
<polygon fill="none" stroke="#000000" points="117,-380.5 117,-399.5 202,-399.5 202,-380.5 117,-380.5"/>
<text text-anchor="middle" x="159.5" y="-387.5" font-family="Helvetica,sans-Serif" font-size="10.00" fill="#000000">get_bool_option</text>
</a>
</g>
</g>
<!-- Node25367&#45;&gt;Node25368 -->
<g id="edge1" class="edge">
<title>Node25367&#45;&gt;Node25368</title>
<path fill="none" stroke="#191970" d="M34.9831,-228.6591C40.7497,-254.4378 59.8477,-325.6406 102,-366 106.0532,-369.8808 110.8248,-373.1743 115.8572,-375.9591"/>
<polygon fill="#191970" stroke="#191970" points="114.5732,-379.2262 125.0983,-380.4395 117.627,-372.9275 114.5732,-379.2262"/>
</g>
<!-- Node25369 -->
<g id="node3" class="node">
<title>Node25369</title>
<g id="a_node3"><a xlink:href="quickjs_8h.html#afaa20c47565bc704c6c85f3d77254e7d" target="_top" xlink:title="JS_FreeValue">
<polygon fill="none" stroke="#000000" points="510,-190.5 510,-209.5 588,-209.5 588,-190.5 510,-190.5"/>
<text text-anchor="middle" x="549" y="-197.5" font-family="Helvetica,sans-Serif" font-size="10.00" fill="#000000">JS_FreeValue</text>
</a>
</g>
</g>
<!-- Node25367&#45;&gt;Node25369 -->
<g id="edge17" class="edge">
<title>Node25367&#45;&gt;Node25369</title>
<path fill="none" stroke="#191970" d="M33.9273,-209.2333C37.1832,-181.1281 50.8393,-99.961 102,-67 248.5628,27.4252 464.8262,-131.0992 529.8383,-183.8483"/>
<polygon fill="#191970" stroke="#191970" points="527.7136,-186.6325 537.6604,-190.2812 532.1599,-181.226 527.7136,-186.6325"/>
</g>
<!-- Node25393 -->
<g id="node5" class="node">
<title>Node25393</title>
<g id="a_node5"><a xlink:href="quickjs_8c.html#a04f589361a4fbc30d997402e92a50de2" target="_top" xlink:title="JS_GetPropertyStr">
<polygon fill="none" stroke="#000000" points="253,-437.5 253,-456.5 352,-456.5 352,-437.5 253,-437.5"/>
<text text-anchor="middle" x="302.5" y="-444.5" font-family="Helvetica,sans-Serif" font-size="10.00" fill="#000000">JS_GetPropertyStr</text>
</a>
</g>
</g>
<!-- Node25367&#45;&gt;Node25393 -->
<g id="edge18" class="edge">
<title>Node25367&#45;&gt;Node25393</title>
<path fill="none" stroke="#191970" d="M33.3431,-228.735C35.0134,-260.2628 44.7962,-360.3391 102,-409 140.5986,-441.8342 198.6557,-449.8405 242.3782,-450.5128"/>
<polygon fill="#191970" stroke="#191970" points="242.5899,-454.0133 252.5999,-450.5421 242.61,-447.0133 242.5899,-454.0133"/>
</g>
<!-- Node25426 -->
<g id="node9" class="node">
<title>Node25426</title>
<g id="a_node9"><a xlink:href="quickjs_8h.html#ad80a83d73e9b7d872b88fbf2943aebe9" target="_top" xlink:title="JS_IsException">
<polygon fill="none" stroke="#000000" points="259.5,-323.5 259.5,-342.5 345.5,-342.5 345.5,-323.5 259.5,-323.5"/>
<text text-anchor="middle" x="302.5" y="-330.5" font-family="Helvetica,sans-Serif" font-size="10.00" fill="#000000">JS_IsException</text>
</a>
</g>
</g>
<!-- Node25367&#45;&gt;Node25426 -->
<g id="edge20" class="edge">
<title>Node25367&#45;&gt;Node25426</title>
<path fill="none" stroke="#191970" d="M38.1444,-228.6579C47.9901,-246.0987 71.2787,-282.6469 102,-300 147.2601,-325.5654 206.8438,-332.6335 249.2674,-334.028"/>
<polygon fill="#191970" stroke="#191970" points="249.3146,-337.53 259.3936,-334.2645 249.4781,-330.5319 249.3146,-337.53"/>
</g>
<!-- Node25457 -->
<g id="node10" class="node">
<title>Node25457</title>
<g id="a_node10"><a xlink:href="quickjs_8h.html#a4e407128a9605afb77523e49e9a627fd" target="_top" xlink:title="JS_IsUndefined">
<polygon fill="none" stroke="#000000" points="259.5,-285.5 259.5,-304.5 345.5,-304.5 345.5,-285.5 259.5,-285.5"/>
<text text-anchor="middle" x="302.5" y="-292.5" font-family="Helvetica,sans-Serif" font-size="10.00" fill="#000000">JS_IsUndefined</text>
</a>
</g>
</g>
<!-- Node25367&#45;&gt;Node25457 -->
<g id="edge21" class="edge">
<title>Node25367&#45;&gt;Node25457</title>
<path fill="none" stroke="#191970" d="M41.2412,-228.5162C53.1672,-241.5548 76.6066,-264.5442 102,-275 149.1155,-294.3999 207.5236,-298.1984 249.1214,-297.8687"/>
<polygon fill="#191970" stroke="#191970" points="249.3761,-301.3651 259.3179,-297.7029 249.2623,-294.3661 249.3761,-301.3651"/>
</g>
<!-- Node25416 -->
<g id="node14" class="node">
<title>Node25416</title>
<g id="a_node14"><a xlink:href="quickjs_8c.html#a80e54dcf9ac687d4ccc2f90273565f30" target="_top" xlink:title="js_free">
<polygon fill="none" stroke="#ff0000" points="136.5,-228.5 136.5,-247.5 182.5,-247.5 182.5,-228.5 136.5,-228.5"/>
<text text-anchor="middle" x="159.5" y="-235.5" font-family="Helvetica,sans-Serif" font-size="10.00" fill="#000000">js_free</text>
</a>
</g>
</g>
<!-- Node25367&#45;&gt;Node25416 -->
<g id="edge14" class="edge">
<title>Node25367&#45;&gt;Node25416</title>
<path fill="none" stroke="#191970" d="M66.2364,-223.992C84.803,-226.7807 107.8614,-230.244 126.4051,-233.0292"/>
<polygon fill="#191970" stroke="#191970" points="126.0498,-236.515 136.4588,-234.5393 127.0896,-229.5927 126.0498,-236.515"/>
</g>
<!-- Node25487 -->
<g id="node15" class="node">
<title>Node25487</title>
<g id="a_node15"><a xlink:href="quickjs_8c.html#ae0bc4f65da64810facb2cb9e476eda2e" target="_top" xlink:title="JS_FreeCString">
<polygon fill="none" stroke="#000000" points="259.5,-.5 259.5,-19.5 345.5,-19.5 345.5,-.5 259.5,-.5"/>
<text text-anchor="middle" x="302.5" y="-7.5" font-family="Helvetica,sans-Serif" font-size="10.00" fill="#000000">JS_FreeCString</text>
</a>
</g>
</g>
<!-- Node25367&#45;&gt;Node25487 -->
<g id="edge15" class="edge">
<title>Node25367&#45;&gt;Node25487</title>
<path fill="none" stroke="#191970" d="M33.3063,-209.3573C34.8638,-178.1572 44.3402,-79.3508 102,-34 143.3269,-1.4955 205.0461,1.1609 249.0801,-2.214"/>
<polygon fill="#191970" stroke="#191970" points="249.0377,-5.7242 259.3099,-3.1298 249.6618,1.248 249.0377,-5.7242"/>
</g>
<!-- Node25630 -->
<g id="node16" class="node">
<title>Node25630</title>
<g id="a_node16"><a xlink:href="quickjs_8c.html#aeb97957655d979e9fe56c955da2b2d4b" target="_top" xlink:title="JS_GetPropertyUint32">
<polygon fill="none" stroke="#ff0000" points="102,-152.5 102,-171.5 217,-171.5 217,-152.5 102,-152.5"/>
<text text-anchor="middle" x="159.5" y="-159.5" font-family="Helvetica,sans-Serif" font-size="10.00" fill="#000000">JS_GetPropertyUint32</text>
</a>
</g>
</g>
<!-- Node25367&#45;&gt;Node25630 -->
<g id="edge19" class="edge">
<title>Node25367&#45;&gt;Node25630</title>
<path fill="none" stroke="#191970" d="M48.4768,-209.3956C62.1937,-201.1484 82.9463,-189.3101 102,-181 106.9991,-178.8197 112.3333,-176.7428 117.6614,-174.817"/>
<polygon fill="#191970" stroke="#191970" points="118.8675,-178.1033 127.1719,-171.524 116.5771,-171.4886 118.8675,-178.1033"/>
</g>
<!-- Node25445 -->
<g id="node17" class="node">
<title>Node25445</title>
<g id="a_node17"><a xlink:href="quickjs_8h.html#a2050bc428da1c65ac7eb87c3fa3b0392" target="_top" xlink:title="JS_NewInt32">
<polygon fill="none" stroke="#000000" points="121.5,-114.5 121.5,-133.5 197.5,-133.5 197.5,-114.5 121.5,-114.5"/>
<text text-anchor="middle" x="159.5" y="-121.5" font-family="Helvetica,sans-Serif" font-size="10.00" fill="#000000">JS_NewInt32</text>
</a>
</g>
</g>
<!-- Node25367&#45;&gt;Node25445 -->
<g id="edge22" class="edge">
<title>Node25367&#45;&gt;Node25445</title>
<path fill="none" stroke="#191970" d="M39.2462,-209.3711C50.1205,-193.3431 74.0586,-161.1624 102,-143 105.1376,-140.9605 108.5142,-139.1209 112.0028,-137.4649"/>
<polygon fill="#191970" stroke="#191970" points="113.5558,-140.6086 121.4114,-133.4995 110.8371,-134.1581 113.5558,-140.6086"/>
</g>
<!-- Node25468 -->
<g id="node18" class="node">
<title>Node25468</title>
<g id="a_node18"><a xlink:href="quickjs_8h.html#af931f06630ab719b5f82a16eb27effd1" target="_top" xlink:title="JS_ToCString">
<polygon fill="none" stroke="#ff0000" points="120.5,-76.5 120.5,-95.5 198.5,-95.5 198.5,-76.5 120.5,-76.5"/>
<text text-anchor="middle" x="159.5" y="-83.5" font-family="Helvetica,sans-Serif" font-size="10.00" fill="#000000">JS_ToCString</text>
</a>
</g>
</g>
<!-- Node25367&#45;&gt;Node25468 -->
<g id="edge23" class="edge">
<title>Node25367&#45;&gt;Node25468</title>
<path fill="none" stroke="#191970" d="M36.1504,-209.4879C43.8374,-187.7296 65.6336,-133.9792 102,-105 104.7981,-102.7703 107.8684,-100.7976 111.0891,-99.053"/>
<polygon fill="#191970" stroke="#191970" points="112.8565,-102.0919 120.4627,-94.7165 109.9173,-95.7388 112.8565,-102.0919"/>
</g>
<!-- Node25550 -->
<g id="node19" class="node">
<title>Node25550</title>
<g id="a_node19"><a xlink:href="quickjs_8c.html#a4073bd2b4f247bf6077cd956759193b9" target="_top" xlink:title="JS_ToInt32">
<polygon fill="none" stroke="#ff0000" points="269,-247.5 269,-266.5 336,-266.5 336,-247.5 269,-247.5"/>
<text text-anchor="middle" x="302.5" y="-254.5" font-family="Helvetica,sans-Serif" font-size="10.00" fill="#000000">JS_ToInt32</text>
</a>
</g>
</g>
<!-- Node25367&#45;&gt;Node25550 -->
<g id="edge24" class="edge">
<title>Node25367&#45;&gt;Node25550</title>
<path fill="none" stroke="#191970" d="M45.8918,-228.7244C59.1532,-238.0691 80.8084,-251.5505 102,-257 154.678,-270.5463 217.7481,-267.5558 258.898,-263.1691"/>
<polygon fill="#191970" stroke="#191970" points="259.3285,-266.6428 268.8679,-262.0329 258.5359,-259.6878 259.3285,-266.6428"/>
</g>
<!-- Node25549 -->
<g id="node20" class="node">
<title>Node25549</title>
<g id="a_node20"><a xlink:href="quickjs_8h.html#aa032ee323127468119b3dd2bb1452680" target="_top" xlink:title="JS_ToUint32">
<polygon fill="none" stroke="#000000" points="122.5,-190.5 122.5,-209.5 196.5,-209.5 196.5,-190.5 122.5,-190.5"/>
<text text-anchor="middle" x="159.5" y="-197.5" font-family="Helvetica,sans-Serif" font-size="10.00" fill="#000000">JS_ToUint32</text>
</a>
</g>
</g>
<!-- Node25367&#45;&gt;Node25549 -->
<g id="edge26" class="edge">
<title>Node25367&#45;&gt;Node25549</title>
<path fill="none" stroke="#191970" d="M66.2364,-214.008C80.273,-211.8997 96.8769,-209.4058 112.1564,-207.1109"/>
<polygon fill="#191970" stroke="#191970" points="113.1059,-210.5076 122.4751,-205.5611 112.0661,-203.5853 113.1059,-210.5076"/>
</g>
<!-- Node25368&#45;&gt;Node25369 -->
<g id="edge2" class="edge">
<title>Node25368&#45;&gt;Node25369</title>
<path fill="none" stroke="#191970" d="M195.0106,-399.5028C258.2934,-414.152 391.6403,-434.391 474,-371 523.1426,-333.1756 540.7203,-256.3958 546.4665,-220.0003"/>
<polygon fill="#191970" stroke="#191970" points="549.9881,-220.0984 547.9414,-209.7032 543.0588,-219.1059 549.9881,-220.0984"/>
</g>
<!-- Node25368&#45;&gt;Node25393 -->
<g id="edge4" class="edge">
<title>Node25368&#45;&gt;Node25393</title>
<path fill="none" stroke="#191970" d="M183.435,-399.5405C206.8417,-408.8705 242.6949,-423.1616 268.9432,-433.6242"/>
<polygon fill="#191970" stroke="#191970" points="267.9017,-436.9768 278.4869,-437.4284 270.4936,-430.4744 267.9017,-436.9768"/>
</g>
<!-- Node25368&#45;&gt;Node25426 -->
<g id="edge8" class="edge">
<title>Node25368&#45;&gt;Node25426</title>
<path fill="none" stroke="#191970" d="M182.8886,-380.3468C201.7709,-372.5892 229.0445,-361.4645 253,-352 257.7996,-350.1038 262.8709,-348.1268 267.8649,-346.1955"/>
<polygon fill="#191970" stroke="#191970" points="269.206,-349.4297 277.2811,-342.5709 266.6913,-342.897 269.206,-349.4297"/>
</g>
<!-- Node25368&#45;&gt;Node25457 -->
<g id="edge9" class="edge">
<title>Node25368&#45;&gt;Node25457</title>
<path fill="none" stroke="#191970" d="M169.0952,-380.431C185.2242,-364.7757 219.3217,-333.485 253,-314 256.3987,-312.0336 260.0391,-310.1951 263.7463,-308.4963"/>
<polygon fill="#191970" stroke="#191970" points="265.1621,-311.6976 272.9994,-304.5683 262.4268,-305.2541 265.1621,-311.6976"/>
</g>
<!-- Node25786 -->
<g id="node11" class="node">
<title>Node25786</title>
<g id="a_node11"><a xlink:href="quickjs_8c.html#a525bb5bdbab2566313d9bcd876838d9d" target="_top" xlink:title="JS_ToBool">
<polygon fill="none" stroke="#000000" points="270,-361.5 270,-380.5 335,-380.5 335,-361.5 270,-361.5"/>
<text text-anchor="middle" x="302.5" y="-368.5" font-family="Helvetica,sans-Serif" font-size="10.00" fill="#000000">JS_ToBool</text>
</a>
</g>
</g>
<!-- Node25368&#45;&gt;Node25786 -->
<g id="edge10" class="edge">
<title>Node25368&#45;&gt;Node25786</title>
<path fill="none" stroke="#191970" d="M202.0175,-384.3508C220.2715,-381.9255 241.5591,-379.097 259.8298,-376.6695"/>
<polygon fill="#191970" stroke="#191970" points="260.4595,-380.1167 269.9113,-375.33 259.5374,-373.1776 260.4595,-380.1167"/>
</g>
<!-- Node25370 -->
<g id="node4" class="node">
<title>Node25370</title>
<g id="a_node4"><a xlink:href="quickjs_8c.html#aa059f309c30fd5166d16c82a97973146" target="_top" xlink:title="__JS_FreeValue">
<polygon fill="none" stroke="#ff0000" points="624,-190.5 624,-209.5 713,-209.5 713,-190.5 624,-190.5"/>
<text text-anchor="middle" x="668.5" y="-197.5" font-family="Helvetica,sans-Serif" font-size="10.00" fill="#000000">__JS_FreeValue</text>
</a>
</g>
</g>
<!-- Node25369&#45;&gt;Node25370 -->
<g id="edge3" class="edge">
<title>Node25369&#45;&gt;Node25370</title>
<path fill="none" stroke="#191970" d="M588.1288,-200C596.3481,-200 605.1608,-200 613.8298,-200"/>
<polygon fill="#191970" stroke="#191970" points="613.8964,-203.5001 623.8964,-200 613.8964,-196.5001 613.8964,-203.5001"/>
</g>
<!-- Node25394 -->
<g id="node6" class="node">
<title>Node25394</title>
<g id="a_node6"><a xlink:href="quickjs_8c.html#aa2ef5af1544a3012f91a80c98c326b8f" target="_top" xlink:title="JS_NewAtom">
<polygon fill="none" stroke="#ff0000" points="392.5,-513.5 392.5,-532.5 469.5,-532.5 469.5,-513.5 392.5,-513.5"/>
<text text-anchor="middle" x="431" y="-520.5" font-family="Helvetica,sans-Serif" font-size="10.00" fill="#000000">JS_NewAtom</text>
</a>
</g>
</g>
<!-- Node25393&#45;&gt;Node25394 -->
<g id="edge5" class="edge">
<title>Node25393&#45;&gt;Node25394</title>
<path fill="none" stroke="#191970" d="M315.3871,-456.6142C331.7518,-468.5792 361.1016,-489.2342 388,-504 391.2687,-505.7943 394.7403,-507.5534 398.2382,-509.2326"/>
<polygon fill="#191970" stroke="#191970" points="396.8896,-512.4647 407.4376,-513.4604 399.8128,-506.1042 396.8896,-512.4647"/>
</g>
<!-- Node25441 -->
<g id="node7" class="node">
<title>Node25441</title>
<g id="a_node7"><a xlink:href="quickjs_8h.html#a89b7c8686c7eee70b86be722ee4730ad" target="_top" xlink:title="JS_GetProperty">
<polygon fill="none" stroke="#ff0000" points="388,-475.5 388,-494.5 474,-494.5 474,-475.5 388,-475.5"/>
<text text-anchor="middle" x="431" y="-482.5" font-family="Helvetica,sans-Serif" font-size="10.00" fill="#000000">JS_GetProperty</text>
</a>
</g>
</g>
<!-- Node25393&#45;&gt;Node25441 -->
<g id="edge6" class="edge">
<title>Node25393&#45;&gt;Node25441</title>
<path fill="none" stroke="#191970" d="M334.926,-456.589C351.2097,-461.4044 371.1421,-467.2988 388.622,-472.468"/>
<polygon fill="#191970" stroke="#191970" points="388.0024,-475.9345 398.5844,-475.4141 389.9875,-469.2219 388.0024,-475.9345"/>
</g>
<!-- Node25554 -->
<g id="node8" class="node">
<title>Node25554</title>
<g id="a_node8"><a xlink:href="quickjs_8c.html#ab7fc45a99935a1c0ba50b0216d9401a9" target="_top" xlink:title="JS_FreeAtom">
<polygon fill="none" stroke="#ff0000" points="392.5,-437.5 392.5,-456.5 469.5,-456.5 469.5,-437.5 392.5,-437.5"/>
<text text-anchor="middle" x="431" y="-444.5" font-family="Helvetica,sans-Serif" font-size="10.00" fill="#000000">JS_FreeAtom</text>
</a>
</g>
</g>
<!-- Node25393&#45;&gt;Node25554 -->
<g id="edge7" class="edge">
<title>Node25393&#45;&gt;Node25554</title>
<path fill="none" stroke="#191970" d="M352.1815,-447C362.0358,-447 372.3728,-447 382.1976,-447"/>
<polygon fill="#191970" stroke="#191970" points="382.2089,-450.5001 392.2088,-447 382.2088,-443.5001 382.2089,-450.5001"/>
</g>
<!-- Node25541 -->
<g id="node12" class="node">
<title>Node25541</title>
<g id="a_node12"><a xlink:href="quickjs_8c.html#a2bf30c9cddfe98a32535843202495069" target="_top" xlink:title="JS_ToBoolFree">
<polygon fill="none" stroke="#000000" points="389,-342.5 389,-361.5 473,-361.5 473,-342.5 389,-342.5"/>
<text text-anchor="middle" x="431" y="-349.5" font-family="Helvetica,sans-Serif" font-size="10.00" fill="#000000">JS_ToBoolFree</text>
</a>
</g>
</g>
<!-- Node25786&#45;&gt;Node25541 -->
<g id="edge11" class="edge">
<title>Node25786&#45;&gt;Node25541</title>
<path fill="none" stroke="#191970" d="M335.2585,-366.1563C348.4291,-364.2089 363.9454,-361.9147 378.6081,-359.7467"/>
<polygon fill="#191970" stroke="#191970" points="379.203,-363.1968 388.5835,-358.2717 378.1791,-356.2721 379.203,-363.1968"/>
</g>
<!-- Node25407 -->
<g id="node13" class="node">
<title>Node25407</title>
<g id="a_node13"><a xlink:href="quickjs_8h.html#a775522f2d084fc8fa0fcb33f390006b4" target="_top" xlink:title="JS_DupValue">
<polygon fill="none" stroke="#000000" points="392.5,-266.5 392.5,-285.5 469.5,-285.5 469.5,-266.5 392.5,-266.5"/>
<text text-anchor="middle" x="431" y="-273.5" font-family="Helvetica,sans-Serif" font-size="10.00" fill="#000000">JS_DupValue</text>
</a>
</g>
</g>
<!-- Node25786&#45;&gt;Node25407 -->
<g id="edge13" class="edge">
<title>Node25786&#45;&gt;Node25407</title>
<path fill="none" stroke="#191970" d="M333.0062,-361.4913C339.5128,-358.8682 346.1738,-355.7038 352,-352 377.439,-335.8279 401.6408,-310.5743 416.3981,-293.6677"/>
<polygon fill="#191970" stroke="#191970" points="419.3846,-295.5596 423.2109,-285.6798 414.0586,-291.0171 419.3846,-295.5596"/>
</g>
<!-- Node25541&#45;&gt;Node25369 -->
<g id="edge12" class="edge">
<title>Node25541&#45;&gt;Node25369</title>
<path fill="none" stroke="#191970" d="M438.3814,-342.4917C457.7515,-317.5404 510.2661,-249.8945 535.3303,-217.6085"/>
<polygon fill="#191970" stroke="#191970" points="538.2538,-219.5501 541.6214,-209.5047 532.7244,-215.2575 538.2538,-219.5501"/>
</g>
<!-- Node25487&#45;&gt;Node25369 -->
<g id="edge16" class="edge">
<title>Node25487&#45;&gt;Node25369</title>
<path fill="none" stroke="#191970" d="M345.5661,-5.1394C383.1129,-3.2412 437.1801,-6.4289 474,-34 522.1964,-70.09 540.1876,-144.3176 546.2436,-179.9922"/>
<polygon fill="#191970" stroke="#191970" points="542.8234,-180.777 547.8136,-190.123 549.7408,-179.7049 542.8234,-180.777"/>
</g>
<!-- Node25550&#45;&gt;Node25407 -->
<g id="edge25" class="edge">
<title>Node25550&#45;&gt;Node25407</title>
<path fill="none" stroke="#191970" d="M336.2619,-261.992C350.4135,-264.0845 367.1341,-266.5568 382.5586,-268.8375"/>
<polygon fill="#191970" stroke="#191970" points="382.0631,-272.3022 392.4675,-270.3026 383.0871,-265.3775 382.0631,-272.3022"/>
</g>
<!-- Node25549&#45;&gt;Node25550 -->
<g id="edge27" class="edge">
<title>Node25549&#45;&gt;Node25550</title>
<path fill="none" stroke="#191970" d="M190.1377,-209.5003C198.8784,-212.3787 208.3698,-215.6657 217,-219 235.9995,-226.3404 256.8992,-235.6067 273.2795,-243.1511"/>
<polygon fill="#191970" stroke="#191970" points="271.8094,-246.3274 282.3531,-247.3667 274.7588,-239.9791 271.8094,-246.3274"/>
</g>
</g>
</svg>
        <g id="navigator" transform="translate(0 0)" fill="#404254">
                <rect fill="#f2f5e9" fill-opacity="0.5" stroke="#606060" stroke-width=".5" x="0" y="0" width="60" height="60"/>
                <use id="zoomplus" xlink:href="#zoomPlus" x="17" y="9" onmousedown="handleZoom(evt,'in')"/>
                <use id="zoomminus" xlink:href="#zoomMin" x="42" y="9" onmousedown="handleZoom(evt,'out')"/>
                <use id="reset" xlink:href="#resetDef" x="30" y="36" onmousedown="handleReset()"/>
                <g id="arrowUp" xlink:href="#dirArrow" transform="translate(30 24)" onmousedown="handlePan(0,-1)">
                  <use xlink:href="#rim" fill="#404040">
                        <set attributeName="fill" to="#808080" begin="arrowUp.mouseover" end="arrowUp.mouseout"/>
                  </use>
                  <path fill="none" stroke="white" stroke-width="1.5" d="M0,-3.0v7 M-2.5,-0.5L0,-3.0L2.5,-0.5"/>
                </g>
                <g id="arrowRight" xlink:href="#dirArrow" transform="rotate(90) translate(36 -43)" onmousedown="handlePan(1,0)">
                  <use xlink:href="#rim" fill="#404040">
                        <set attributeName="fill" to="#808080" begin="arrowRight.mouseover" end="arrowRight.mouseout"/>
                  </use>
                  <path fill="none" stroke="white" stroke-width="1.5" d="M0,-3.0v7 M-2.5,-0.5L0,-3.0L2.5,-0.5"/>
                </g>
                <g id="arrowDown" xlink:href="#dirArrow" transform="rotate(180) translate(-30 -48)" onmousedown="handlePan(0,1)">
                  <use xlink:href="#rim" fill="#404040">
                        <set attributeName="fill" to="#808080" begin="arrowDown.mouseover" end="arrowDown.mouseout"/>
                  </use>
                  <path fill="none" stroke="white" stroke-width="1.5" d="M0,-3.0v7 M-2.5,-0.5L0,-3.0L2.5,-0.5"/>
                </g>
                <g id="arrowLeft" xlink:href="#dirArrow" transform="rotate(270) translate(-36 17)" onmousedown="handlePan(-1,0)">
                  <use xlink:href="#rim" fill="#404040">
                        <set attributeName="fill" to="#808080" begin="arrowLeft.mouseover" end="arrowLeft.mouseout"/>
                  </use>
                  <path fill="none" stroke="white" stroke-width="1.5" d="M0,-3.0v7 M-2.5,-0.5L0,-3.0L2.5,-0.5"/>
                </g>
        </g>
        <svg viewBox="0 0 15 15" width="100%" height="30px" preserveAspectRatio="xMaxYMin meet">
         <g id="arrow_out" transform="scale(0.3 0.3)">
          <a xlink:href="quickjs-libc_8c_a0b92fee4bb5dda499a0b6d86da0e8be8_cgraph_org.svg" target="_base">
           <rect id="button" ry="5" rx="5" y="6" x="6" height="38" width="38"
                fill="#f2f5e9" fill-opacity="0.5" stroke="#606060" stroke-width="1.0"/>
           <path id="arrow"
             d="M 11.500037,31.436501 C 11.940474,20.09759 22.043105,11.32322 32.158766,21.979434 L 37.068811,17.246167 C 37.068811,17.246167 37.088388,32 37.088388,32 L 22.160133,31.978069 C 22.160133,31.978069 26.997745,27.140456 26.997745,27.140456 C 18.528582,18.264221 13.291696,25.230495 11.500037,31.436501 z"
             style="fill:#404040;"/>
          </a>
         </g>
        </svg>
</svg>
