<?xml version="1.0" encoding="UTF-8" standalone="no"?>
<!DOCTYPE svg PUBLIC "-//W3C//DTD SVG 1.1//EN"
 "http://www.w3.org/Graphics/SVG/1.1/DTD/svg11.dtd">
<!-- Generated by graphviz version 2.40.1 (20161225.0304)
 -->
<!-- Title: js_malloc_usable_size_rt Pages: 1 -->
<svg width="691pt" height="444pt"
 viewBox="0.00 0.00 691.00 444.00" xmlns="http://www.w3.org/2000/svg" xmlns:xlink="http://www.w3.org/1999/xlink">
<g id="graph0" class="graph" transform="scale(1 1) rotate(0) translate(4 440)">
<title>js_malloc_usable_size_rt</title>
<!-- Node47984 -->
<g id="node1" class="node">
<title>Node47984</title>
<polygon fill="#bfbfbf" stroke="#000000" points="0,-288.5 0,-307.5 126,-307.5 126,-288.5 0,-288.5"/>
<text text-anchor="middle" x="63" y="-295.5" font-family="Helvetica,sans-Serif" font-size="10.00" fill="#000000">js_malloc_usable_size_rt</text>
</g>
<!-- Node47985 -->
<g id="node2" class="node">
<title>Node47985</title>
<g id="a_node2"><a xlink:href="quickjs_8c.html#a2424196308d86d1a8c2bb410ca279be4" target="_top" xlink:title="JS_DumpMemoryUsage">
<polygon fill="none" stroke="#000000" points="162,-326.5 162,-345.5 286,-345.5 286,-326.5 162,-326.5"/>
<text text-anchor="middle" x="224" y="-333.5" font-family="Helvetica,sans-Serif" font-size="10.00" fill="#000000">JS_DumpMemoryUsage</text>
</a>
</g>
</g>
<!-- Node47984&#45;&gt;Node47985 -->
<g id="edge1" class="edge">
<title>Node47984&#45;&gt;Node47985</title>
<path fill="none" stroke="#191970" d="M113.4018,-309.8961C136.032,-315.2374 162.3695,-321.4537 183.665,-326.4799"/>
<polygon fill="#191970" stroke="#191970" points="114.1637,-306.4798 103.6271,-307.589 112.5557,-313.2926 114.1637,-306.4798"/>
</g>
<!-- Node47986 -->
<g id="node3" class="node">
<title>Node47986</title>
<g id="a_node3"><a xlink:href="quickjs_8c.html#ade5954b108a45072dff068d11f1c6d10" target="_top" xlink:title="js_malloc_usable_size">
<polygon fill="none" stroke="#000000" points="166.5,-288.5 166.5,-307.5 281.5,-307.5 281.5,-288.5 166.5,-288.5"/>
<text text-anchor="middle" x="224" y="-295.5" font-family="Helvetica,sans-Serif" font-size="10.00" fill="#000000">js_malloc_usable_size</text>
</a>
</g>
</g>
<!-- Node47984&#45;&gt;Node47986 -->
<g id="edge2" class="edge">
<title>Node47984&#45;&gt;Node47986</title>
<path fill="none" stroke="#191970" d="M136.1791,-298C146.264,-298 156.5035,-298 166.2573,-298"/>
<polygon fill="#191970" stroke="#191970" points="136.1694,-294.5001 126.1694,-298 136.1693,-301.5001 136.1694,-294.5001"/>
</g>
<!-- Node48575 -->
<g id="node10" class="node">
<title>Node48575</title>
<g id="a_node10"><a xlink:href="quickjs_8c.html#a1c31248142879982abb1595f97817cd9" target="_top" xlink:title="js_realloc2">
<polygon fill="none" stroke="#000000" points="192.5,-184.5 192.5,-203.5 255.5,-203.5 255.5,-184.5 192.5,-184.5"/>
<text text-anchor="middle" x="224" y="-191.5" font-family="Helvetica,sans-Serif" font-size="10.00" fill="#000000">js_realloc2</text>
</a>
</g>
</g>
<!-- Node47984&#45;&gt;Node48575 -->
<g id="edge12" class="edge">
<title>Node47984&#45;&gt;Node48575</title>
<path fill="none" stroke="#191970" d="M86.5869,-282.7637C120.271,-261.005 181.1707,-221.6661 209.178,-203.5745"/>
<polygon fill="#191970" stroke="#191970" points="84.3587,-280.0363 77.8579,-288.4023 88.1569,-285.9162 84.3587,-280.0363"/>
</g>
<!-- Node47987 -->
<g id="node4" class="node">
<title>Node47987</title>
<g id="a_node4"><a xlink:href="quickjs_8c.html#ab6d8a1a52baf4d686aed594b996699d7" target="_top" xlink:title="JS_ConcatString">
<polygon fill="none" stroke="#000000" points="322,-321.5 322,-340.5 413,-340.5 413,-321.5 322,-321.5"/>
<text text-anchor="middle" x="367.5" y="-328.5" font-family="Helvetica,sans-Serif" font-size="10.00" fill="#000000">JS_ConcatString</text>
</a>
</g>
</g>
<!-- Node47986&#45;&gt;Node47987 -->
<g id="edge3" class="edge">
<title>Node47986&#45;&gt;Node47987</title>
<path fill="none" stroke="#191970" d="M275.5956,-309.8652C292.1812,-313.6793 310.3304,-317.853 326.0871,-321.4765"/>
<polygon fill="#191970" stroke="#191970" points="276.0362,-306.3752 265.5061,-307.545 274.4673,-313.1972 276.0362,-306.3752"/>
</g>
<!-- Node47988 -->
<g id="node5" class="node">
<title>Node47988</title>
<g id="a_node5"><a xlink:href="quickjs_8c.html#ae8ff05447c0d51fe277baccf616dc7c6" target="_top" xlink:title="js_add_slow">
<polygon fill="none" stroke="#000000" points="471,-416.5 471,-435.5 542,-435.5 542,-416.5 471,-416.5"/>
<text text-anchor="middle" x="506.5" y="-423.5" font-family="Helvetica,sans-Serif" font-size="10.00" fill="#000000">js_add_slow</text>
</a>
</g>
</g>
<!-- Node47987&#45;&gt;Node47988 -->
<g id="edge4" class="edge">
<title>Node47987&#45;&gt;Node47988</title>
<path fill="none" stroke="#191970" d="M384.0161,-348.2699C399.6341,-363.8625 424.2977,-386.6491 449,-402 458.1878,-407.7096 468.9714,-412.6207 478.7022,-416.4859"/>
<polygon fill="#191970" stroke="#191970" points="386.2276,-345.5268 376.7212,-340.8491 381.2357,-350.4341 386.2276,-345.5268"/>
</g>
<!-- Node47989 -->
<g id="node6" class="node">
<title>Node47989</title>
<g id="a_node6"><a xlink:href="quickjs_8c.html#ac2894ff4edcdb4e6841bcce9c76081e3" target="_top" xlink:title="JS_CallInternal">
<polygon fill="none" stroke="#ff0000" points="600,-397.5 600,-416.5 683,-416.5 683,-397.5 600,-397.5"/>
<text text-anchor="middle" x="641.5" y="-404.5" font-family="Helvetica,sans-Serif" font-size="10.00" fill="#000000">JS_CallInternal</text>
</a>
</g>
</g>
<!-- Node47987&#45;&gt;Node47989 -->
<g id="edge7" class="edge">
<title>Node47987&#45;&gt;Node47989</title>
<path fill="none" stroke="#191970" d="M393.8714,-345.2813C409.5145,-353.2443 429.9506,-362.7802 449,-369 499.6789,-385.547 560.3364,-396.0641 599.8323,-401.7399"/>
<polygon fill="#191970" stroke="#191970" points="395.2934,-342.0759 384.806,-340.5702 392.0654,-348.2872 395.2934,-342.0759"/>
</g>
<!-- Node48514 -->
<g id="node7" class="node">
<title>Node48514</title>
<g id="a_node7"><a xlink:href="quickjs_8c.html#a367aedcd65b39452fb00ce58dac0c6f6" target="_top" xlink:title="js_error_toString">
<polygon fill="none" stroke="#000000" points="462.5,-340.5 462.5,-359.5 550.5,-359.5 550.5,-340.5 462.5,-340.5"/>
<text text-anchor="middle" x="506.5" y="-347.5" font-family="Helvetica,sans-Serif" font-size="10.00" fill="#000000">js_error_toString</text>
</a>
</g>
</g>
<!-- Node47987&#45;&gt;Node48514 -->
<g id="edge8" class="edge">
<title>Node47987&#45;&gt;Node48514</title>
<path fill="none" stroke="#191970" d="M423.2507,-338.6206C436.2393,-340.396 449.8952,-342.2627 462.3047,-343.9589"/>
<polygon fill="#191970" stroke="#191970" points="423.3957,-335.108 413.0138,-337.2213 422.4476,-342.0435 423.3957,-335.108"/>
</g>
<!-- Node48521 -->
<g id="node8" class="node">
<title>Node48521</title>
<g id="a_node8"><a xlink:href="quickjs_8c.html#ad15d899d5566569437570ab09c3f1f33" target="_top" xlink:title="js_string_concat">
<polygon fill="none" stroke="#000000" points="462.5,-302.5 462.5,-321.5 550.5,-321.5 550.5,-302.5 462.5,-302.5"/>
<text text-anchor="middle" x="506.5" y="-309.5" font-family="Helvetica,sans-Serif" font-size="10.00" fill="#000000">js_string_concat</text>
</a>
</g>
</g>
<!-- Node47987&#45;&gt;Node48521 -->
<g id="edge9" class="edge">
<title>Node47987&#45;&gt;Node48521</title>
<path fill="none" stroke="#191970" d="M423.2507,-323.3794C436.2393,-321.604 449.8952,-319.7373 462.3047,-318.0411"/>
<polygon fill="#191970" stroke="#191970" points="422.4476,-319.9565 413.0138,-324.7787 423.3957,-326.892 422.4476,-319.9565"/>
</g>
<!-- Node48051 -->
<g id="node9" class="node">
<title>Node48051</title>
<g id="a_node9"><a xlink:href="quickjs_8c.html#a60d84dd116a9d7d912d08f298a4734dd" target="_top" xlink:title="js_json_to_str">
<polygon fill="none" stroke="#ff0000" points="468,-246.5 468,-265.5 545,-265.5 545,-246.5 468,-246.5"/>
<text text-anchor="middle" x="506.5" y="-253.5" font-family="Helvetica,sans-Serif" font-size="10.00" fill="#000000">js_json_to_str</text>
</a>
</g>
</g>
<!-- Node47987&#45;&gt;Node48051 -->
<g id="edge10" class="edge">
<title>Node47987&#45;&gt;Node48051</title>
<path fill="none" stroke="#191970" d="M394.1904,-316.5987C421.9837,-301.6023 464.7382,-278.5334 488.6814,-265.6144"/>
<polygon fill="#191970" stroke="#191970" points="392.5259,-313.5198 385.3873,-321.3486 395.8499,-319.6802 392.5259,-313.5198"/>
</g>
<!-- Node47988&#45;&gt;Node47989 -->
<g id="edge5" class="edge">
<title>Node47988&#45;&gt;Node47989</title>
<path fill="none" stroke="#191970" d="M552.6032,-419.5114C567.8935,-417.3594 584.8175,-414.9775 599.7601,-412.8745"/>
<polygon fill="#191970" stroke="#191970" points="551.7377,-416.0986 542.3231,-420.9582 552.7133,-423.0303 551.7377,-416.0986"/>
</g>
<!-- Node47989&#45;&gt;Node47989 -->
<g id="edge6" class="edge">
<title>Node47989&#45;&gt;Node47989</title>
<path fill="none" stroke="#191970" d="M616.5745,-426.0292C617.9341,-431.128 626.2426,-435 641.5,-435 665.3164,-435 672.2008,-425.5653 662.1533,-416.7571"/>
<polygon fill="#191970" stroke="#191970" points="619.8407,-427.304 620.8467,-416.7571 613.4831,-424.3747 619.8407,-427.304"/>
</g>
<!-- Node48051&#45;&gt;Node48051 -->
<g id="edge11" class="edge">
<title>Node48051&#45;&gt;Node48051</title>
<path fill="none" stroke="#191970" d="M481.5745,-275.0292C482.9341,-280.128 491.2426,-284 506.5,-284 530.3164,-284 537.2008,-274.5653 527.1533,-265.7571"/>
<polygon fill="#191970" stroke="#191970" points="484.8407,-276.304 485.8467,-265.7571 478.4831,-273.3747 484.8407,-276.304"/>
</g>
<!-- Node48576 -->
<g id="node11" class="node">
<title>Node48576</title>
<g id="a_node11"><a xlink:href="quickjs_8c.html#a39677cf9d17404b20a0d067fe1f4a86d" target="_top" xlink:title="js_resize_array">
<polygon fill="none" stroke="#000000" points="326,-132.5 326,-151.5 409,-151.5 409,-132.5 326,-132.5"/>
<text text-anchor="middle" x="367.5" y="-139.5" font-family="Helvetica,sans-Serif" font-size="10.00" fill="#000000">js_resize_array</text>
</a>
</g>
</g>
<!-- Node48575&#45;&gt;Node48576 -->
<g id="edge13" class="edge">
<title>Node48575&#45;&gt;Node48576</title>
<path fill="none" stroke="#191970" d="M259.869,-181.0022C285.0039,-171.8941 318.0498,-159.9192 340.8608,-151.6532"/>
<polygon fill="#191970" stroke="#191970" points="258.5294,-177.7648 250.3201,-184.4624 260.9143,-184.346 258.5294,-177.7648"/>
</g>
<!-- Node48577 -->
<g id="node12" class="node">
<title>Node48577</title>
<g id="a_node12"><a xlink:href="quickjs_8c.html#ad5cccb20d07c9e601482d5b2398c2f55" target="_top" xlink:title="add_req_module_entry">
<polygon fill="none" stroke="#ff0000" points="449,-208.5 449,-227.5 564,-227.5 564,-208.5 449,-208.5"/>
<text text-anchor="middle" x="506.5" y="-215.5" font-family="Helvetica,sans-Serif" font-size="10.00" fill="#000000">add_req_module_entry</text>
</a>
</g>
</g>
<!-- Node48576&#45;&gt;Node48577 -->
<g id="edge14" class="edge">
<title>Node48576&#45;&gt;Node48577</title>
<path fill="none" stroke="#191970" d="M386.964,-158.062C402.8654,-170.5622 426.3391,-187.639 449,-199 456.2368,-202.6282 464.3223,-205.7927 472.0911,-208.4443"/>
<polygon fill="#191970" stroke="#191970" points="388.9555,-155.1728 378.9622,-151.6536 384.5797,-160.6366 388.9555,-155.1728"/>
</g>
<!-- Node48578 -->
<g id="node13" class="node">
<title>Node48578</title>
<g id="a_node13"><a xlink:href="quickjs_8c.html#aaea4bacf94d0db93f4a13f6e88860ad0" target="_top" xlink:title="add_export_entry2">
<polygon fill="none" stroke="#ff0000" points="458,-170.5 458,-189.5 555,-189.5 555,-170.5 458,-170.5"/>
<text text-anchor="middle" x="506.5" y="-177.5" font-family="Helvetica,sans-Serif" font-size="10.00" fill="#000000">add_export_entry2</text>
</a>
</g>
</g>
<!-- Node48576&#45;&gt;Node48578 -->
<g id="edge15" class="edge">
<title>Node48576&#45;&gt;Node48578</title>
<path fill="none" stroke="#191970" d="M412.2953,-154.2462C431.4547,-159.484 453.4938,-165.5091 471.4357,-170.4141"/>
<polygon fill="#191970" stroke="#191970" points="413.1446,-150.85 402.5756,-151.589 411.2986,-157.6022 413.1446,-150.85"/>
</g>
<!-- Node48583 -->
<g id="node14" class="node">
<title>Node48583</title>
<g id="a_node14"><a xlink:href="quickjs_8c.html#a18dd9d3b970d353bfd39b504d8102ab7" target="_top" xlink:title="add_star_export_entry">
<polygon fill="none" stroke="#ff0000" points="450,-132.5 450,-151.5 563,-151.5 563,-132.5 450,-132.5"/>
<text text-anchor="middle" x="506.5" y="-139.5" font-family="Helvetica,sans-Serif" font-size="10.00" fill="#000000">add_star_export_entry</text>
</a>
</g>
</g>
<!-- Node48576&#45;&gt;Node48583 -->
<g id="edge16" class="edge">
<title>Node48576&#45;&gt;Node48583</title>
<path fill="none" stroke="#191970" d="M419.3631,-142C429.327,-142 439.8089,-142 449.9133,-142"/>
<polygon fill="#191970" stroke="#191970" points="419.2046,-138.5001 409.2046,-142 419.2045,-145.5001 419.2046,-138.5001"/>
</g>
<!-- Node48584 -->
<g id="node15" class="node">
<title>Node48584</title>
<g id="a_node15"><a xlink:href="quickjs_8c.html#ade1e452957ebf589907635cc79718d16" target="_top" xlink:title="add_resolve_entry">
<polygon fill="none" stroke="#ff0000" points="458.5,-94.5 458.5,-113.5 554.5,-113.5 554.5,-94.5 458.5,-94.5"/>
<text text-anchor="middle" x="506.5" y="-101.5" font-family="Helvetica,sans-Serif" font-size="10.00" fill="#000000">add_resolve_entry</text>
</a>
</g>
</g>
<!-- Node48576&#45;&gt;Node48584 -->
<g id="edge17" class="edge">
<title>Node48576&#45;&gt;Node48584</title>
<path fill="none" stroke="#191970" d="M412.2953,-129.7538C431.4547,-124.516 453.4938,-118.4909 471.4357,-113.5859"/>
<polygon fill="#191970" stroke="#191970" points="411.2986,-126.3978 402.5756,-132.411 413.1446,-133.15 411.2986,-126.3978"/>
</g>
<!-- Node48587 -->
<g id="node16" class="node">
<title>Node48587</title>
<g id="a_node16"><a xlink:href="quickjs_8c.html#a51fe964c0b48eb3191aec8c98e73e4c6" target="_top" xlink:title="get_exported_names">
<polygon fill="none" stroke="#ff0000" points="453,-38.5 453,-57.5 560,-57.5 560,-38.5 453,-38.5"/>
<text text-anchor="middle" x="506.5" y="-45.5" font-family="Helvetica,sans-Serif" font-size="10.00" fill="#000000">get_exported_names</text>
</a>
</g>
</g>
<!-- Node48576&#45;&gt;Node48587 -->
<g id="edge18" class="edge">
<title>Node48576&#45;&gt;Node48587</title>
<path fill="none" stroke="#191970" d="M389.275,-126.43C405.6008,-114.8399 428.5558,-98.7195 449,-85 463.1941,-75.4747 479.6132,-64.9584 491.2631,-57.5797"/>
<polygon fill="#191970" stroke="#191970" points="387.0627,-123.7086 380.9452,-132.3589 391.1219,-129.4115 387.0627,-123.7086"/>
</g>
<!-- Node48588 -->
<g id="node17" class="node">
<title>Node48588</title>
<g id="a_node17"><a xlink:href="quickjs_8c.html#a3ff40fe185637ba5525078d1cbedbefa" target="_top" xlink:title="add_import">
<polygon fill="none" stroke="#ff0000" points="474,-.5 474,-19.5 539,-19.5 539,-.5 474,-.5"/>
<text text-anchor="middle" x="506.5" y="-7.5" font-family="Helvetica,sans-Serif" font-size="10.00" fill="#000000">add_import</text>
</a>
</g>
</g>
<!-- Node48576&#45;&gt;Node48588 -->
<g id="edge20" class="edge">
<title>Node48576&#45;&gt;Node48588</title>
<path fill="none" stroke="#191970" d="M376.3909,-123.0716C389.0831,-98.031 414.7079,-54.137 449,-29 456.2923,-23.6546 465.1742,-19.7564 473.7547,-16.9363"/>
<polygon fill="#191970" stroke="#191970" points="373.1508,-121.7298 371.8925,-132.2497 379.4364,-124.8106 373.1508,-121.7298"/>
</g>
<!-- Node48587&#45;&gt;Node48587 -->
<g id="edge19" class="edge">
<title>Node48587&#45;&gt;Node48587</title>
<path fill="none" stroke="#191970" d="M481.5745,-67.0292C482.9341,-72.128 491.2426,-76 506.5,-76 530.3164,-76 537.2008,-66.5653 527.1533,-57.7571"/>
<polygon fill="#191970" stroke="#191970" points="484.8407,-68.304 485.8467,-57.7571 478.4831,-65.3747 484.8407,-68.304"/>
</g>
</g>
</svg>
