<?xml version="1.0" encoding="UTF-8" standalone="no"?>
<!DOCTYPE svg PUBLIC "-//W3C//DTD SVG 1.1//EN"
 "http://www.w3.org/Graphics/SVG/1.1/DTD/svg11.dtd">
<!-- Generated by graphviz version 2.40.1 (20161225.0304)
 -->
<!-- Title: JS_FreeValueRT Pages: 1 -->
<svg width="571pt" height="104pt"
 viewBox="0.00 0.00 571.00 104.00" xmlns="http://www.w3.org/2000/svg" xmlns:xlink="http://www.w3.org/1999/xlink">
<g id="graph0" class="graph" transform="scale(1 1) rotate(0) translate(4 100)">
<title>JS_FreeValueRT</title>
<!-- Node35383 -->
<g id="node1" class="node">
<title>Node35383</title>
<polygon fill="#bfbfbf" stroke="#000000" points="0,-38.5 0,-57.5 92,-57.5 92,-38.5 0,-38.5"/>
<text text-anchor="middle" x="46" y="-45.5" font-family="Helvetica,sans-Serif" font-size="10.00" fill="#000000">JS_FreeValueRT</text>
</g>
<!-- Node35384 -->
<g id="node2" class="node">
<title>Node35384</title>
<g id="a_node2"><a xlink:href="quickjs_8c.html#ab1ea3fad7d138be12144a38be4d36423" target="_top" xlink:title="__JS_FreeValueRT">
<polygon fill="none" stroke="#000000" points="128,-38.5 128,-57.5 230,-57.5 230,-38.5 128,-38.5"/>
<text text-anchor="middle" x="179" y="-45.5" font-family="Helvetica,sans-Serif" font-size="10.00" fill="#000000">__JS_FreeValueRT</text>
</a>
</g>
</g>
<!-- Node35383&#45;&gt;Node35384 -->
<g id="edge1" class="edge">
<title>Node35383&#45;&gt;Node35384</title>
<path fill="none" stroke="#191970" d="M92.1437,-48C100.4482,-48 109.2214,-48 117.8726,-48"/>
<polygon fill="#191970" stroke="#191970" points="117.9369,-51.5001 127.9368,-48 117.9368,-44.5001 117.9369,-51.5001"/>
</g>
<!-- Node35385 -->
<g id="node3" class="node">
<title>Node35385</title>
<g id="a_node3"><a xlink:href="quickjs_8c.html#a41a4918c15192dc3489dc3ecb3fdc24d" target="_top" xlink:title="free_object">
<polygon fill="none" stroke="#000000" points="266,-76.5 266,-95.5 331,-95.5 331,-76.5 266,-76.5"/>
<text text-anchor="middle" x="298.5" y="-83.5" font-family="Helvetica,sans-Serif" font-size="10.00" fill="#000000">free_object</text>
</a>
</g>
</g>
<!-- Node35384&#45;&gt;Node35385 -->
<g id="edge2" class="edge">
<title>Node35384&#45;&gt;Node35385</title>
<path fill="none" stroke="#191970" d="M209.1549,-57.589C224.1566,-62.3594 242.4883,-68.1888 258.6338,-73.3229"/>
<polygon fill="#191970" stroke="#191970" points="257.7643,-76.719 268.3548,-76.4141 259.8856,-70.0482 257.7643,-76.719"/>
</g>
<!-- Node35390 -->
<g id="node5" class="node">
<title>Node35390</title>
<g id="a_node5"><a xlink:href="quickjs_8c.html#a69e19dda8a93d613203e0baa06f0ed8d" target="_top" xlink:title="js_free_rt">
<polygon fill="none" stroke="#000000" points="506,-38.5 506,-57.5 563,-57.5 563,-38.5 506,-38.5"/>
<text text-anchor="middle" x="534.5" y="-45.5" font-family="Helvetica,sans-Serif" font-size="10.00" fill="#000000">js_free_rt</text>
</a>
</g>
</g>
<!-- Node35384&#45;&gt;Node35390 -->
<g id="edge5" class="edge">
<title>Node35384&#45;&gt;Node35390</title>
<path fill="none" stroke="#191970" d="M230.3131,-48C302.0774,-48 430.8519,-48 495.3881,-48"/>
<polygon fill="#191970" stroke="#191970" points="495.5481,-51.5001 505.5481,-48 495.5481,-44.5001 495.5481,-51.5001"/>
</g>
<!-- Node35398 -->
<g id="node6" class="node">
<title>Node35398</title>
<g id="a_node6"><a xlink:href="quickjs_8c.html#a58c8965dad50b15b75918a09f3d9dc7c" target="_top" xlink:title="JS_FreeAtomStruct">
<polygon fill="none" stroke="#ff0000" points="367,-.5 367,-19.5 470,-19.5 470,-.5 367,-.5"/>
<text text-anchor="middle" x="418.5" y="-7.5" font-family="Helvetica,sans-Serif" font-size="10.00" fill="#000000">JS_FreeAtomStruct</text>
</a>
</g>
</g>
<!-- Node35384&#45;&gt;Node35398 -->
<g id="edge6" class="edge">
<title>Node35384&#45;&gt;Node35398</title>
<path fill="none" stroke="#191970" d="M230.0593,-39.7533C241.8605,-37.8557 254.3666,-35.8514 266,-34 295.9383,-29.2354 329.1917,-23.9959 356.9863,-19.6313"/>
<polygon fill="#191970" stroke="#191970" points="357.6268,-23.0737 366.9631,-18.0654 356.5413,-16.1584 357.6268,-23.0737"/>
</g>
<!-- Node35386 -->
<g id="node4" class="node">
<title>Node35386</title>
<g id="a_node4"><a xlink:href="quickjs_8c.html#a445304af312d8f13a51fed8af701ff5c" target="_top" xlink:title="free_object2">
<polygon fill="none" stroke="#ff0000" points="383.5,-76.5 383.5,-95.5 453.5,-95.5 453.5,-76.5 383.5,-76.5"/>
<text text-anchor="middle" x="418.5" y="-83.5" font-family="Helvetica,sans-Serif" font-size="10.00" fill="#000000">free_object2</text>
</a>
</g>
</g>
<!-- Node35385&#45;&gt;Node35386 -->
<g id="edge3" class="edge">
<title>Node35385&#45;&gt;Node35386</title>
<path fill="none" stroke="#191970" d="M331.2905,-86C344.1198,-86 359.0547,-86 372.9019,-86"/>
<polygon fill="#191970" stroke="#191970" points="373.226,-89.5001 383.226,-86 373.226,-82.5001 373.226,-89.5001"/>
</g>
<!-- Node35386&#45;&gt;Node35390 -->
<g id="edge4" class="edge">
<title>Node35386&#45;&gt;Node35390</title>
<path fill="none" stroke="#191970" d="M447.7717,-76.411C462.3068,-71.6495 480.0622,-65.8331 495.7134,-60.706"/>
<polygon fill="#191970" stroke="#191970" points="497.226,-63.8935 505.6395,-57.4543 495.0468,-57.2414 497.226,-63.8935"/>
</g>
<!-- Node35398&#45;&gt;Node35390 -->
<g id="edge7" class="edge">
<title>Node35398&#45;&gt;Node35390</title>
<path fill="none" stroke="#191970" d="M447.7717,-19.589C462.3068,-24.3505 480.0622,-30.1669 495.7134,-35.294"/>
<polygon fill="#191970" stroke="#191970" points="495.0468,-38.7586 505.6395,-38.5457 497.226,-32.1065 495.0468,-38.7586"/>
</g>
</g>
</svg>
