<?xml version="1.0" encoding="UTF-8" standalone="no"?>
<!DOCTYPE svg PUBLIC "-//W3C//DTD SVG 1.1//EN"
 "http://www.w3.org/Graphics/SVG/1.1/DTD/svg11.dtd">
<!-- Generated by graphviz version 2.40.1 (20161225.0304)
 -->
<!-- Title: JS_NewString Pages: 1 -->
<svg width="573pt" height="924pt"
 viewBox="0.00 0.00 573.00 923.50" xmlns="http://www.w3.org/2000/svg" xmlns:xlink="http://www.w3.org/1999/xlink">
<g id="graph0" class="graph" transform="scale(1 1) rotate(0) translate(4 919.5)">
<title>JS_NewString</title>
<!-- Node98715 -->
<g id="node1" class="node">
<title>Node98715</title>
<polygon fill="#bfbfbf" stroke="#000000" points="0,-423 0,-442 80,-442 80,-423 0,-423"/>
<text text-anchor="middle" x="40" y="-430" font-family="Helvetica,sans-Serif" font-size="10.00" fill="#000000">JS_NewString</text>
</g>
<!-- Node98716 -->
<g id="node2" class="node">
<title>Node98716</title>
<g id="a_node2"><a xlink:href="quickjs_8c.html#a06ff303a11e6641cbf1f6634e6a61811" target="_top" xlink:title="__JS_AtomToValue">
<polygon fill="none" stroke="#000000" points="133.5,-802 133.5,-821 237.5,-821 237.5,-802 133.5,-802"/>
<text text-anchor="middle" x="185.5" y="-809" font-family="Helvetica,sans-Serif" font-size="10.00" fill="#000000">__JS_AtomToValue</text>
</a>
</g>
</g>
<!-- Node98715&#45;&gt;Node98716 -->
<g id="edge1" class="edge">
<title>Node98715&#45;&gt;Node98716</title>
<path fill="none" stroke="#191970" d="M41.6816,-452.0558C47.7938,-518.8348 70.8796,-736.53 116,-787.5 121.5844,-793.8084 128.9088,-798.4592 136.7048,-801.8878"/>
<polygon fill="#191970" stroke="#191970" points="45.1632,-451.6931 40.7902,-442.0428 38.1908,-452.3138 45.1632,-451.6931"/>
</g>
<!-- Node99015 -->
<g id="node5" class="node">
<title>Node99015</title>
<g id="a_node5"><a xlink:href="quickjs_8c.html#ae69c38078aefed427b6c0d7b6870bd9c" target="_top" xlink:title="js_object_toString">
<polygon fill="none" stroke="#ff0000" points="461.5,-783 461.5,-802 556.5,-802 556.5,-783 461.5,-783"/>
<text text-anchor="middle" x="509" y="-790" font-family="Helvetica,sans-Serif" font-size="10.00" fill="#000000">js_object_toString</text>
</a>
</g>
</g>
<!-- Node98715&#45;&gt;Node99015 -->
<g id="edge27" class="edge">
<title>Node98715&#45;&gt;Node99015</title>
<path fill="none" stroke="#191970" d="M41.9355,-452.4106C48.4302,-514.8502 71.5777,-705.0091 116,-744.5 141.3968,-767.0775 362.059,-783.4159 461.1627,-789.6823"/>
<polygon fill="#191970" stroke="#191970" points="45.402,-451.901 40.9152,-442.3032 38.4374,-452.6041 45.402,-451.901"/>
</g>
<!-- Node99093 -->
<g id="node6" class="node">
<title>Node99093</title>
<g id="a_node6"><a xlink:href="quickjs_8c.html#a46d6ebdd8c73102fd9e02a89b1f1d09a" target="_top" xlink:title="JS_ToStringInternal">
<polygon fill="none" stroke="#ff0000" points="457.5,-726 457.5,-745 560.5,-745 560.5,-726 457.5,-726"/>
<text text-anchor="middle" x="509" y="-733" font-family="Helvetica,sans-Serif" font-size="10.00" fill="#000000">JS_ToStringInternal</text>
</a>
</g>
</g>
<!-- Node98715&#45;&gt;Node99093 -->
<g id="edge37" class="edge">
<title>Node98715&#45;&gt;Node99093</title>
<path fill="none" stroke="#191970" d="M42.2924,-452.2669C49.5421,-511.0233 74.0086,-682.6256 116,-716.5 167.0394,-757.6735 362.5822,-747.7742 457.1636,-740.2513"/>
<polygon fill="#191970" stroke="#191970" points="45.7383,-451.6063 41.0719,-442.0945 38.7882,-452.4402 45.7383,-451.6063"/>
</g>
<!-- Node98910 -->
<g id="node9" class="node">
<title>Node98910</title>
<g id="a_node9"><a xlink:href="quickjs_8c.html#a80b89f140c8e343469b5c98482a4310d" target="_top" xlink:title="build_backtrace">
<polygon fill="none" stroke="#000000" points="311.5,-878 311.5,-897 396.5,-897 396.5,-878 311.5,-878"/>
<text text-anchor="middle" x="354" y="-885" font-family="Helvetica,sans-Serif" font-size="10.00" fill="#000000">build_backtrace</text>
</a>
</g>
</g>
<!-- Node98715&#45;&gt;Node98910 -->
<g id="edge12" class="edge">
<title>Node98715&#45;&gt;Node98910</title>
<path fill="none" stroke="#191970" d="M41.0085,-452.2186C45.1169,-524.6878 62.9754,-774.957 116,-830.5 166.756,-883.6666 257.602,-891.006 311.1746,-890.1764"/>
<polygon fill="#191970" stroke="#191970" points="44.5001,-451.9673 40.464,-442.1714 37.5104,-452.3462 44.5001,-451.9673"/>
</g>
<!-- Node99146 -->
<g id="node10" class="node">
<title>Node99146</title>
<g id="a_node10"><a xlink:href="quickjs_8c.html#ab522181d975cc7949088c8ff67fedde0" target="_top" xlink:title="get_date_string">
<polygon fill="none" stroke="#ff0000" points="144,-650 144,-669 227,-669 227,-650 144,-650"/>
<text text-anchor="middle" x="185.5" y="-657" font-family="Helvetica,sans-Serif" font-size="10.00" fill="#000000">get_date_string</text>
</a>
</g>
</g>
<!-- Node98715&#45;&gt;Node99146 -->
<g id="edge15" class="edge">
<title>Node98715&#45;&gt;Node99146</title>
<path fill="none" stroke="#191970" d="M41.3412,-452.1069C45.2342,-493.2679 60.1333,-589.1113 116,-640.5 123.6412,-647.5287 133.6333,-651.997 143.6486,-654.8263"/>
<polygon fill="#191970" stroke="#191970" points="44.8203,-451.7082 40.5101,-442.0298 37.8439,-452.2837 44.8203,-451.7082"/>
</g>
<!-- Node99343 -->
<g id="node11" class="node">
<title>Node99343</title>
<g id="a_node11"><a xlink:href="quickjs_8c.html#a6508a2922531adcb280bbff485a9a44a" target="_top" xlink:title="js_dtoa">
<polygon fill="none" stroke="#ff0000" points="161.5,-688 161.5,-707 209.5,-707 209.5,-688 161.5,-688"/>
<text text-anchor="middle" x="185.5" y="-695" font-family="Helvetica,sans-Serif" font-size="10.00" fill="#000000">js_dtoa</text>
</a>
</g>
</g>
<!-- Node98715&#45;&gt;Node99343 -->
<g id="edge16" class="edge">
<title>Node98715&#45;&gt;Node99343</title>
<path fill="none" stroke="#191970" d="M43.5915,-452.33C53.5008,-504.9476 82.7077,-646.2815 116,-678.5 128.045,-690.1565 146.5225,-694.8158 161.3982,-696.6094"/>
<polygon fill="#191970" stroke="#191970" points="46.989,-451.4548 41.7279,-442.2585 40.1059,-452.7285 46.989,-451.4548"/>
</g>
<!-- Node98845 -->
<g id="node15" class="node">
<title>Node98845</title>
<g id="a_node15"><a xlink:href="quickjs_8c.html#a60d84dd116a9d7d912d08f298a4734dd" target="_top" xlink:title="js_json_to_str">
<polygon fill="none" stroke="#ff0000" points="147,-594 147,-613 224,-613 224,-594 147,-594"/>
<text text-anchor="middle" x="185.5" y="-601" font-family="Helvetica,sans-Serif" font-size="10.00" fill="#000000">js_json_to_str</text>
</a>
</g>
</g>
<!-- Node98715&#45;&gt;Node98845 -->
<g id="edge21" class="edge">
<title>Node98715&#45;&gt;Node98845</title>
<path fill="none" stroke="#191970" d="M44.2964,-452.0709C52.4629,-484.5625 73.3537,-549.5167 116,-584.5 124.704,-591.64 135.8779,-596.108 146.7094,-598.9003"/>
<polygon fill="#191970" stroke="#191970" points="47.6305,-450.9609 41.9237,-442.0344 40.8183,-452.5714 47.6305,-450.9609"/>
</g>
<!-- Node98946 -->
<g id="node16" class="node">
<title>Node98946</title>
<g id="a_node16"><a xlink:href="quickjs-libc_8c.html#a5cc3e22713f1916d49867f60a7375505" target="_top" xlink:title="js_module_set_import_meta">
<polygon fill="none" stroke="#ff0000" points="116,-556 116,-575 255,-575 255,-556 116,-556"/>
<text text-anchor="middle" x="185.5" y="-563" font-family="Helvetica,sans-Serif" font-size="10.00" fill="#000000">js_module_set_import_meta</text>
</a>
</g>
</g>
<!-- Node98715&#45;&gt;Node98946 -->
<g id="edge23" class="edge">
<title>Node98715&#45;&gt;Node98946</title>
<path fill="none" stroke="#191970" d="M47.554,-451.4793C58.6826,-476.976 81.9179,-521.9192 116,-546.5 121.3771,-550.378 127.5066,-553.4647 133.8465,-555.9215"/>
<polygon fill="#191970" stroke="#191970" points="50.7389,-450.0234 43.6469,-442.1522 44.2824,-452.728 50.7389,-450.0234"/>
</g>
<!-- Node98948 -->
<g id="node17" class="node">
<title>Node98948</title>
<g id="a_node17"><a xlink:href="quickjs-libc_8c.html#a980a3e92299b994c60d696fc295edf11" target="_top" xlink:title="js_new_std_error">
<polygon fill="none" stroke="#ff0000" points="140,-518 140,-537 231,-537 231,-518 140,-518"/>
<text text-anchor="middle" x="185.5" y="-525" font-family="Helvetica,sans-Serif" font-size="10.00" fill="#000000">js_new_std_error</text>
</a>
</g>
</g>
<!-- Node98715&#45;&gt;Node98948 -->
<g id="edge24" class="edge">
<title>Node98715&#45;&gt;Node98948</title>
<path fill="none" stroke="#191970" d="M53.1307,-450.1911C66.9219,-467.5372 90.167,-493.498 116,-508.5 123.2474,-512.7088 131.4618,-516.016 139.6405,-518.6052"/>
<polygon fill="#191970" stroke="#191970" points="55.6972,-447.7879 46.817,-442.0092 50.1553,-452.0644 55.6972,-447.7879"/>
</g>
<!-- Node99344 -->
<g id="node18" class="node">
<title>Node99344</title>
<g id="a_node18"><a xlink:href="quickjs_8c.html#aa641af3a921335927dab07dc83285917" target="_top" xlink:title="JS_NewAtomInt64">
<polygon fill="none" stroke="#ff0000" points="136,-480 136,-499 235,-499 235,-480 136,-480"/>
<text text-anchor="middle" x="185.5" y="-487" font-family="Helvetica,sans-Serif" font-size="10.00" fill="#000000">JS_NewAtomInt64</text>
</a>
</g>
</g>
<!-- Node98715&#45;&gt;Node99344 -->
<g id="edge25" class="edge">
<title>Node98715&#45;&gt;Node99344</title>
<path fill="none" stroke="#191970" d="M65.6297,-446.8999C80.1026,-454.6244 98.7067,-463.8868 116,-470.5 125.3469,-474.0744 135.639,-477.2702 145.3729,-479.9751"/>
<polygon fill="#191970" stroke="#191970" points="67.2289,-443.7856 56.7707,-442.0892 63.8884,-449.9371 67.2289,-443.7856"/>
</g>
<!-- Node99345 -->
<g id="node19" class="node">
<title>Node99345</title>
<g id="a_node19"><a xlink:href="quickjs_8c.html#a7445082229205ad47aec019d74536f8e" target="_top" xlink:title="JS_NewAtomUInt32">
<polygon fill="none" stroke="#ff0000" points="132,-442 132,-461 239,-461 239,-442 132,-442"/>
<text text-anchor="middle" x="185.5" y="-449" font-family="Helvetica,sans-Serif" font-size="10.00" fill="#000000">JS_NewAtomUInt32</text>
</a>
</g>
</g>
<!-- Node98715&#45;&gt;Node99345 -->
<g id="edge26" class="edge">
<title>Node98715&#45;&gt;Node99345</title>
<path fill="none" stroke="#191970" d="M90.1754,-439.0521C103.631,-440.8092 118.2302,-442.7156 131.8652,-444.4961"/>
<polygon fill="#191970" stroke="#191970" points="90.5127,-435.5665 80.1437,-437.7421 89.6063,-442.5076 90.5127,-435.5665"/>
</g>
<!-- Node98920 -->
<g id="node20" class="node">
<title>Node98920</title>
<g id="a_node20"><a xlink:href="quickjs-libc_8c.html#a64270f007df853e9d2f443383d26ec60" target="_top" xlink:title="js_os_readdir">
<polygon fill="none" stroke="#000000" points="148.5,-404 148.5,-423 222.5,-423 222.5,-404 148.5,-404"/>
<text text-anchor="middle" x="185.5" y="-411" font-family="Helvetica,sans-Serif" font-size="10.00" fill="#000000">js_os_readdir</text>
</a>
</g>
</g>
<!-- Node98715&#45;&gt;Node98920 -->
<g id="edge28" class="edge">
<title>Node98715&#45;&gt;Node98920</title>
<path fill="none" stroke="#191970" d="M90.2025,-425.9443C109.339,-423.4454 130.7852,-420.6449 148.4799,-418.3342"/>
<polygon fill="#191970" stroke="#191970" points="89.6063,-422.4924 80.1437,-427.2579 90.5127,-429.4335 89.6063,-422.4924"/>
</g>
<!-- Node98854 -->
<g id="node21" class="node">
<title>Node98854</title>
<g id="a_node21"><a xlink:href="quickjs_8c.html#a0bfdeb7e158aebcb79b7c9367a60be80" target="_top" xlink:title="js_promise_all_resolve\l_element">
<polygon fill="none" stroke="#ff0000" points="127.5,-354.5 127.5,-384.5 243.5,-384.5 243.5,-354.5 127.5,-354.5"/>
<text text-anchor="start" x="135.5" y="-372.5" font-family="Helvetica,sans-Serif" font-size="10.00" fill="#000000">js_promise_all_resolve</text>
<text text-anchor="middle" x="185.5" y="-361.5" font-family="Helvetica,sans-Serif" font-size="10.00" fill="#000000">_element</text>
</a>
</g>
</g>
<!-- Node98715&#45;&gt;Node98854 -->
<g id="edge29" class="edge">
<title>Node98715&#45;&gt;Node98854</title>
<path fill="none" stroke="#191970" d="M66.4144,-418.3272C80.8665,-410.8196 99.2017,-401.6909 116,-394.5 124.016,-391.0686 132.6771,-387.6961 141.0752,-384.5935"/>
<polygon fill="#191970" stroke="#191970" points="64.7601,-415.2426 57.5332,-422.9901 68.0141,-421.4404 64.7601,-415.2426"/>
</g>
<!-- Node99341 -->
<g id="node22" class="node">
<title>Node99341</title>
<g id="a_node22"><a xlink:href="quickjs_8c.html#a32ee6be61757664e4eea552e5508ad6e" target="_top" xlink:title="js_regexp_get_source">
<polygon fill="none" stroke="#000000" points="129.5,-316 129.5,-335 241.5,-335 241.5,-316 129.5,-316"/>
<text text-anchor="middle" x="185.5" y="-323" font-family="Helvetica,sans-Serif" font-size="10.00" fill="#000000">js_regexp_get_source</text>
</a>
</g>
</g>
<!-- Node98715&#45;&gt;Node99341 -->
<g id="edge30" class="edge">
<title>Node98715&#45;&gt;Node99341</title>
<path fill="none" stroke="#191970" d="M50.9213,-414.3681C63.9408,-394.3043 87.5511,-362.4412 116,-344.5 122.1367,-340.6299 129.0601,-337.5382 136.0989,-335.0708"/>
<polygon fill="#191970" stroke="#191970" points="47.9108,-412.5809 45.5554,-422.9106 53.8384,-416.3043 47.9108,-412.5809"/>
</g>
<!-- Node99321 -->
<g id="node23" class="node">
<title>Node99321</title>
<g id="a_node23"><a xlink:href="quickjs_8c.html#a04f1ec3f8d1f5c012280eb23e64a7b58" target="_top" xlink:title="JS_SetModuleExportList">
<polygon fill="none" stroke="#ff0000" points="123,-278 123,-297 248,-297 248,-278 123,-278"/>
<text text-anchor="middle" x="185.5" y="-285" font-family="Helvetica,sans-Serif" font-size="10.00" fill="#000000">JS_SetModuleExportList</text>
</a>
</g>
</g>
<!-- Node98715&#45;&gt;Node99321 -->
<g id="edge31" class="edge">
<title>Node98715&#45;&gt;Node99321</title>
<path fill="none" stroke="#191970" d="M46.4041,-413.1554C56.626,-385.3133 79.3037,-334.2495 116,-306.5 121.0884,-302.6522 126.9077,-299.5834 132.9648,-297.136"/>
<polygon fill="#191970" stroke="#191970" points="42.9911,-412.3117 42.9881,-422.9066 49.5975,-414.626 42.9911,-412.3117"/>
</g>
<!-- Node98890 -->
<g id="node24" class="node">
<title>Node98890</title>
<g id="a_node24"><a xlink:href="quickjs-libc_8c.html#ad04466feec6822a3b838baf229f6dfa0" target="_top" xlink:title="js_std_add_helpers">
<polygon fill="none" stroke="#ff0000" points="135,-240 135,-259 236,-259 236,-240 135,-240"/>
<text text-anchor="middle" x="185.5" y="-247" font-family="Helvetica,sans-Serif" font-size="10.00" fill="#000000">js_std_add_helpers</text>
</a>
</g>
</g>
<!-- Node98715&#45;&gt;Node98890 -->
<g id="edge32" class="edge">
<title>Node98715&#45;&gt;Node98890</title>
<path fill="none" stroke="#191970" d="M43.5287,-412.818C50.7649,-378.3041 70.5902,-306.8921 116,-268.5 121.4448,-263.8966 127.9105,-260.4013 134.6725,-257.7487"/>
<polygon fill="#191970" stroke="#191970" points="40.0926,-412.1524 41.6052,-422.6387 46.9621,-413.4979 40.0926,-412.1524"/>
</g>
<!-- Node99179 -->
<g id="node25" class="node">
<title>Node99179</title>
<g id="a_node25"><a xlink:href="quickjs-libc_8c.html#ac03b9f7f2657dc7ac8f896f1548f55fc" target="_top" xlink:title="js_std_error_strerror">
<polygon fill="none" stroke="#000000" points="133.5,-202 133.5,-221 237.5,-221 237.5,-202 133.5,-202"/>
<text text-anchor="middle" x="185.5" y="-209" font-family="Helvetica,sans-Serif" font-size="10.00" fill="#000000">js_std_error_strerror</text>
</a>
</g>
</g>
<!-- Node98715&#45;&gt;Node99179 -->
<g id="edge33" class="edge">
<title>Node98715&#45;&gt;Node99179</title>
<path fill="none" stroke="#191970" d="M41.6142,-412.6276C45.9863,-372.1905 61.6837,-279.9863 116,-230.5 120.9932,-225.9509 126.9722,-222.4755 133.299,-219.8233"/>
<polygon fill="#191970" stroke="#191970" points="38.1103,-412.5026 40.6414,-422.7906 45.0784,-413.1697 38.1103,-412.5026"/>
</g>
<!-- Node99114 -->
<g id="node26" class="node">
<title>Node99114</title>
<g id="a_node26"><a xlink:href="quickjs-libc_8c.html#a1e9ea68a66c0e646ba3250625a52a3e2" target="_top" xlink:title="js_std_getenv">
<polygon fill="none" stroke="#000000" points="147,-164 147,-183 224,-183 224,-164 147,-164"/>
<text text-anchor="middle" x="185.5" y="-171" font-family="Helvetica,sans-Serif" font-size="10.00" fill="#000000">js_std_getenv</text>
</a>
</g>
</g>
<!-- Node98715&#45;&gt;Node99114 -->
<g id="edge34" class="edge">
<title>Node98715&#45;&gt;Node99114</title>
<path fill="none" stroke="#191970" d="M43.6599,-413.1487C53.7404,-361.8021 83.3375,-223.8872 116,-192.5 124.2978,-184.5262 135.6075,-179.8297 146.6926,-177.0848"/>
<polygon fill="#191970" stroke="#191970" points="40.2216,-412.4948 41.7626,-422.977 47.0947,-413.8217 40.2216,-412.4948"/>
</g>
<!-- Node98813 -->
<g id="node27" class="node">
<title>Node98813</title>
<g id="a_node27"><a xlink:href="quickjs_8c.html#a48c74f10715547bf679361ae42e2a97f" target="_top" xlink:title="js_string_match">
<polygon fill="none" stroke="#000000" points="142.5,-126 142.5,-145 228.5,-145 228.5,-126 142.5,-126"/>
<text text-anchor="middle" x="185.5" y="-133" font-family="Helvetica,sans-Serif" font-size="10.00" fill="#000000">js_string_match</text>
</a>
</g>
</g>
<!-- Node98715&#45;&gt;Node98813 -->
<g id="edge35" class="edge">
<title>Node98715&#45;&gt;Node98813</title>
<path fill="none" stroke="#191970" d="M42.8239,-412.7795C51.3862,-355.6497 78.768,-191.732 116,-154.5 123.076,-147.424 132.5166,-142.915 142.1529,-140.0597"/>
<polygon fill="#191970" stroke="#191970" points="39.3554,-412.31 41.365,-422.7125 46.2811,-413.3273 39.3554,-412.31"/>
</g>
<!-- Node98911 -->
<g id="node28" class="node">
<title>Node98911</title>
<g id="a_node28"><a xlink:href="quickjs_8c.html#a1b110b017211230b8b6310e853cd2b54" target="_top" xlink:title="JS_ThrowError">
<polygon fill="none" stroke="#ff0000" points="144.5,-88 144.5,-107 226.5,-107 226.5,-88 144.5,-88"/>
<text text-anchor="middle" x="185.5" y="-95" font-family="Helvetica,sans-Serif" font-size="10.00" fill="#000000">JS_ThrowError</text>
</a>
</g>
</g>
<!-- Node98715&#45;&gt;Node98911 -->
<g id="edge36" class="edge">
<title>Node98715&#45;&gt;Node98911</title>
<path fill="none" stroke="#191970" d="M42.1487,-412.6014C49.2808,-350.1604 74.123,-159.6886 116,-116.5 123.4885,-108.7769 133.7891,-104.0985 144.1672,-101.2908"/>
<polygon fill="#191970" stroke="#191970" points="38.6518,-412.3801 41.0229,-422.7062 45.6087,-413.1553 38.6518,-412.3801"/>
</g>
<!-- Node98922 -->
<g id="node29" class="node">
<title>Node98922</title>
<g id="a_node29"><a xlink:href="quickjs-libc_8c.html#ae77b81ae623983a6ab0351277d33e0f4" target="_top" xlink:title="make_string_error">
<polygon fill="none" stroke="#ff0000" points="138,-50 138,-69 233,-69 233,-50 138,-50"/>
<text text-anchor="middle" x="185.5" y="-57" font-family="Helvetica,sans-Serif" font-size="10.00" fill="#000000">make_string_error</text>
</a>
</g>
</g>
<!-- Node98715&#45;&gt;Node98922 -->
<g id="edge38" class="edge">
<title>Node98715&#45;&gt;Node98922</title>
<path fill="none" stroke="#191970" d="M41.5691,-412.8886C47.3137,-345.9362 69.343,-127.8152 116,-78.5 121.9317,-72.2303 129.7149,-67.9601 137.9205,-65.0669"/>
<polygon fill="#191970" stroke="#191970" points="38.075,-412.673 40.7339,-422.9287 45.0509,-413.2533 38.075,-412.673"/>
</g>
<!-- Node99346 -->
<g id="node30" class="node">
<title>Node99346</title>
<g id="a_node30"><a xlink:href="structqjs_1_1js__traits_3_01const_01char_01_5_01_4.html#ae1a13e887841edd9c73cc2ea8e72d7bb" target="_top" xlink:title="qjs::js_traits\&lt; const\l char * \&gt;::wrap">
<polygon fill="none" stroke="#000000" points="134,-.5 134,-30.5 237,-30.5 237,-.5 134,-.5"/>
<text text-anchor="start" x="142" y="-18.5" font-family="Helvetica,sans-Serif" font-size="10.00" fill="#000000">qjs::js_traits&lt; const</text>
<text text-anchor="middle" x="185.5" y="-7.5" font-family="Helvetica,sans-Serif" font-size="10.00" fill="#000000"> char * &gt;::wrap</text>
</a>
</g>
</g>
<!-- Node98715&#45;&gt;Node99346 -->
<g id="edge39" class="edge">
<title>Node98715&#45;&gt;Node99346</title>
<path fill="none" stroke="#191970" d="M41.3184,-412.3513C46.4051,-340.4491 66.9682,-97.7185 116,-40.5 120.8394,-34.8526 127.0534,-30.4809 133.7707,-27.0968"/>
<polygon fill="#191970" stroke="#191970" points="37.8006,-412.4946 40.6106,-422.71 44.7843,-412.9719 37.8006,-412.4946"/>
</g>
<!-- Node98717 -->
<g id="node3" class="node">
<title>Node98717</title>
<g id="a_node3"><a xlink:href="quickjs_8c.html#a260bfa297ff6cb5bd18e229afaa54663" target="_top" xlink:title="JS_AtomToString">
<polygon fill="none" stroke="#ff0000" points="307,-802 307,-821 401,-821 401,-802 307,-802"/>
<text text-anchor="middle" x="354" y="-809" font-family="Helvetica,sans-Serif" font-size="10.00" fill="#000000">JS_AtomToString</text>
</a>
</g>
</g>
<!-- Node98716&#45;&gt;Node98717 -->
<g id="edge2" class="edge">
<title>Node98716&#45;&gt;Node98717</title>
<path fill="none" stroke="#191970" d="M247.9006,-811.5C267.3802,-811.5 288.5339,-811.5 306.7902,-811.5"/>
<polygon fill="#191970" stroke="#191970" points="247.8908,-808.0001 237.8908,-811.5 247.8908,-815.0001 247.8908,-808.0001"/>
</g>
<!-- Node99342 -->
<g id="node7" class="node">
<title>Node99342</title>
<g id="a_node7"><a xlink:href="quickjs_8c.html#afa67965c1017685fc6783776d6d0d4d7" target="_top" xlink:title="JS_AtomToValue">
<polygon fill="none" stroke="#ff0000" points="307.5,-840 307.5,-859 400.5,-859 400.5,-840 307.5,-840"/>
<text text-anchor="middle" x="354" y="-847" font-family="Helvetica,sans-Serif" font-size="10.00" fill="#000000">JS_AtomToValue</text>
</a>
</g>
</g>
<!-- Node98716&#45;&gt;Node99342 -->
<g id="edge8" class="edge">
<title>Node98716&#45;&gt;Node99342</title>
<path fill="none" stroke="#191970" d="M237.9313,-823.3243C261.6868,-828.6816 289.3986,-834.9311 311.7861,-839.9799"/>
<polygon fill="#191970" stroke="#191970" points="238.5447,-819.8748 228.0197,-821.089 237.0047,-826.7033 238.5447,-819.8748"/>
</g>
<!-- Node98762 -->
<g id="node4" class="node">
<title>Node98762</title>
<g id="a_node4"><a xlink:href="quickjs_8c.html#ac2894ff4edcdb4e6841bcce9c76081e3" target="_top" xlink:title="JS_CallInternal">
<polygon fill="none" stroke="#ff0000" points="467.5,-822 467.5,-841 550.5,-841 550.5,-822 467.5,-822"/>
<text text-anchor="middle" x="509" y="-829" font-family="Helvetica,sans-Serif" font-size="10.00" fill="#000000">JS_CallInternal</text>
</a>
</g>
</g>
<!-- Node98717&#45;&gt;Node98762 -->
<g id="edge3" class="edge">
<title>Node98717&#45;&gt;Node98762</title>
<path fill="none" stroke="#191970" d="M411.4669,-818.9151C430.0408,-821.3117 450.263,-823.921 467.4533,-826.1391"/>
<polygon fill="#191970" stroke="#191970" points="411.713,-815.4179 401.3473,-817.6093 410.8172,-822.3604 411.713,-815.4179"/>
</g>
<!-- Node98717&#45;&gt;Node99015 -->
<g id="edge5" class="edge">
<title>Node98717&#45;&gt;Node99015</title>
<path fill="none" stroke="#191970" d="M411.3972,-804.4642C427.8544,-802.4469 445.6107,-800.2703 461.4085,-798.3338"/>
<polygon fill="#191970" stroke="#191970" points="410.8472,-801.0053 401.3473,-805.6961 411.6989,-807.9533 410.8472,-801.0053"/>
</g>
<!-- Node98717&#45;&gt;Node99093 -->
<g id="edge6" class="edge">
<title>Node98717&#45;&gt;Node99093</title>
<path fill="none" stroke="#191970" d="M382.6725,-797.4412C413.7796,-782.1887 462.5948,-758.2535 489.5285,-745.0473"/>
<polygon fill="#191970" stroke="#191970" points="381.0687,-794.3294 373.6309,-801.8745 384.1505,-800.6146 381.0687,-794.3294"/>
</g>
<!-- Node98762&#45;&gt;Node98762 -->
<g id="edge4" class="edge">
<title>Node98762&#45;&gt;Node98762</title>
<path fill="none" stroke="#191970" d="M480.2542,-850.1539C481.4558,-855.4368 491.0377,-859.5 509,-859.5 536.3711,-859.5 544.2831,-850.0653 532.7359,-841.2571"/>
<polygon fill="#191970" stroke="#191970" points="483.4072,-851.6879 485.2641,-841.2571 477.3077,-848.2532 483.4072,-851.6879"/>
</g>
<!-- Node99093&#45;&gt;Node99093 -->
<g id="edge7" class="edge">
<title>Node99093&#45;&gt;Node99093</title>
<path fill="none" stroke="#191970" d="M480.2542,-754.1539C481.4558,-759.4368 491.0377,-763.5 509,-763.5 536.3711,-763.5 544.2831,-754.0653 532.7359,-745.2571"/>
<polygon fill="#191970" stroke="#191970" points="483.4072,-755.6879 485.2641,-745.2571 477.3077,-752.2532 483.4072,-755.6879"/>
</g>
<!-- Node99342&#45;&gt;Node98762 -->
<g id="edge9" class="edge">
<title>Node99342&#45;&gt;Node98762</title>
<path fill="none" stroke="#191970" d="M410.6947,-842.9161C429.415,-840.7421 449.8844,-838.365 467.2749,-836.3455"/>
<polygon fill="#191970" stroke="#191970" points="410.0346,-839.4691 400.5051,-844.0994 410.8421,-846.4224 410.0346,-839.4691"/>
</g>
<!-- Node98725 -->
<g id="node8" class="node">
<title>Node98725</title>
<g id="a_node8"><a xlink:href="quickjs_8c.html#acdcc62310b4f6f73fa7bc7267b18b1d4" target="_top" xlink:title="js_parse_postfix_expr">
<polygon fill="none" stroke="#ff0000" points="453,-878 453,-897 565,-897 565,-878 453,-878"/>
<text text-anchor="middle" x="509" y="-885" font-family="Helvetica,sans-Serif" font-size="10.00" fill="#000000">js_parse_postfix_expr</text>
</a>
</g>
</g>
<!-- Node99342&#45;&gt;Node98725 -->
<g id="edge10" class="edge">
<title>Node99342&#45;&gt;Node98725</title>
<path fill="none" stroke="#191970" d="M403.1105,-861.54C424.7647,-866.8488 449.8502,-872.9988 470.1682,-877.9799"/>
<polygon fill="#191970" stroke="#191970" points="403.6588,-858.0708 393.113,-859.089 401.992,-864.8695 403.6588,-858.0708"/>
</g>
<!-- Node98725&#45;&gt;Node98725 -->
<g id="edge11" class="edge">
<title>Node98725&#45;&gt;Node98725</title>
<path fill="none" stroke="#191970" d="M480.2542,-906.1539C481.4558,-911.4368 491.0377,-915.5 509,-915.5 536.3711,-915.5 544.2831,-906.0653 532.7359,-897.2571"/>
<polygon fill="#191970" stroke="#191970" points="483.4072,-907.6879 485.2641,-897.2571 477.3077,-904.2532 483.4072,-907.6879"/>
</g>
<!-- Node98910&#45;&gt;Node98762 -->
<g id="edge13" class="edge">
<title>Node98910&#45;&gt;Node98762</title>
<path fill="none" stroke="#191970" d="M397.1631,-875.0423C403.8371,-872.955 410.6269,-870.7375 417,-868.5 441.2028,-860.0026 468.398,-848.8626 486.9033,-841.0347"/>
<polygon fill="#191970" stroke="#191970" points="396.0653,-871.718 387.5297,-877.9945 398.1164,-878.4108 396.0653,-871.718"/>
</g>
<!-- Node98910&#45;&gt;Node98725 -->
<g id="edge14" class="edge">
<title>Node98910&#45;&gt;Node98725</title>
<path fill="none" stroke="#191970" d="M406.769,-887.5C421.5743,-887.5 437.7247,-887.5 452.7255,-887.5"/>
<polygon fill="#191970" stroke="#191970" points="406.7648,-884.0001 396.7647,-887.5 406.7647,-891.0001 406.7648,-884.0001"/>
</g>
<!-- Node99343&#45;&gt;Node99093 -->
<g id="edge17" class="edge">
<title>Node99343&#45;&gt;Node99093</title>
<path fill="none" stroke="#191970" d="M219.6766,-700.5291C264.896,-704.6545 347.0562,-712.5578 417,-721.5 430.141,-723.1801 444.3028,-725.2202 457.4831,-727.2175"/>
<polygon fill="#191970" stroke="#191970" points="219.8136,-697.0273 209.5387,-699.6112 219.1823,-703.9988 219.8136,-697.0273"/>
</g>
<!-- Node99162 -->
<g id="node12" class="node">
<title>Node99162</title>
<g id="a_node12"><a xlink:href="quickjs_8c.html#adf92b748274979904d269c4d3682e4dd" target="_top" xlink:title="js_number_toString">
<polygon fill="none" stroke="#000000" points="303.5,-650 303.5,-669 404.5,-669 404.5,-650 303.5,-650"/>
<text text-anchor="middle" x="354" y="-657" font-family="Helvetica,sans-Serif" font-size="10.00" fill="#000000">js_number_toString</text>
</a>
</g>
</g>
<!-- Node99343&#45;&gt;Node99162 -->
<g id="edge18" class="edge">
<title>Node99343&#45;&gt;Node99162</title>
<path fill="none" stroke="#191970" d="M219.6249,-689.8042C246.1919,-683.8128 283.2079,-675.465 311.6639,-669.0476"/>
<polygon fill="#191970" stroke="#191970" points="218.6269,-686.4413 209.6419,-692.0555 220.167,-693.2698 218.6269,-686.4413"/>
</g>
<!-- Node99163 -->
<g id="node13" class="node">
<title>Node99163</title>
<g id="a_node13"><a xlink:href="quickjs_8c.html#a7440a8b206568f2729470433d57d9a98" target="_top" xlink:title="js_number_toFixed">
<polygon fill="none" stroke="#000000" points="304.5,-612 304.5,-631 403.5,-631 403.5,-612 304.5,-612"/>
<text text-anchor="middle" x="354" y="-619" font-family="Helvetica,sans-Serif" font-size="10.00" fill="#000000">js_number_toFixed</text>
</a>
</g>
</g>
<!-- Node99343&#45;&gt;Node99163 -->
<g id="edge19" class="edge">
<title>Node99343&#45;&gt;Node99163</title>
<path fill="none" stroke="#191970" d="M219.596,-692.0732C231.3752,-689.213 244.2931,-684.9128 255,-678.5 274.9584,-666.5461 271.199,-652.7129 291,-640.5 297.223,-636.6618 304.2719,-633.5552 311.345,-631.0543"/>
<polygon fill="#191970" stroke="#191970" points="218.6547,-688.6958 209.622,-694.233 220.1362,-695.5373 218.6547,-688.6958"/>
</g>
<!-- Node99164 -->
<g id="node14" class="node">
<title>Node99164</title>
<g id="a_node14"><a xlink:href="quickjs_8c.html#afad8d7db437ba0647d2dbf77cd9769d6" target="_top" xlink:title="js_number_toExponential">
<polygon fill="none" stroke="#000000" points="291,-574 291,-593 417,-593 417,-574 291,-574"/>
<text text-anchor="middle" x="354" y="-581" font-family="Helvetica,sans-Serif" font-size="10.00" fill="#000000">js_number_toExponential</text>
</a>
</g>
</g>
<!-- Node99343&#45;&gt;Node99164 -->
<g id="edge20" class="edge">
<title>Node99343&#45;&gt;Node99164</title>
<path fill="none" stroke="#191970" d="M219.6762,-694.1311C231.9151,-691.4805 245.1142,-686.7869 255,-678.5 283.6432,-654.4894 262.672,-626.8816 291,-602.5 295.5025,-598.6248 300.7752,-595.5399 306.3195,-593.0842"/>
<polygon fill="#191970" stroke="#191970" points="218.9435,-690.7065 209.7152,-695.9111 220.175,-697.5974 218.9435,-690.7065"/>
</g>
<!-- Node98845&#45;&gt;Node98845 -->
<g id="edge22" class="edge">
<title>Node98845&#45;&gt;Node98845</title>
<path fill="none" stroke="#191970" d="M158.6208,-622.1539C159.7444,-627.4368 168.7041,-631.5 185.5,-631.5 211.0938,-631.5 218.4919,-622.0653 207.6946,-613.2571"/>
<polygon fill="#191970" stroke="#191970" points="161.7433,-623.7361 163.3054,-613.2571 155.5494,-620.4747 161.7433,-623.7361"/>
</g>
</g>
</svg>
