<?xml version="1.0" encoding="UTF-8" standalone="no"?>
<!DOCTYPE svg PUBLIC "-//W3C//DTD SVG 1.1//EN"
 "http://www.w3.org/Graphics/SVG/1.1/DTD/svg11.dtd">
<!-- Generated by graphviz version 2.40.1 (20161225.0304)
 -->
<!-- Title: js_strndup Pages: 1 -->
<svg width="775pt" height="246pt"
 viewBox="0.00 0.00 775.00 245.50" xmlns="http://www.w3.org/2000/svg" xmlns:xlink="http://www.w3.org/1999/xlink">
<g id="graph0" class="graph" transform="scale(1 1) rotate(0) translate(4 241.5)">
<title>js_strndup</title>
<!-- Node49670 -->
<g id="node1" class="node">
<title>Node49670</title>
<polygon fill="#bfbfbf" stroke="#000000" points="0,-.5 0,-19.5 62,-19.5 62,-.5 0,-.5"/>
<text text-anchor="middle" x="31" y="-7.5" font-family="Helvetica,sans-Serif" font-size="10.00" fill="#000000">js_strndup</text>
</g>
<!-- Node49671 -->
<g id="node2" class="node">
<title>Node49671</title>
<g id="a_node2"><a xlink:href="quickjs_8c.html#a00eb789430243c24dab4a63ad6a79653" target="_top" xlink:title="js_parse_class">
<polygon fill="none" stroke="#000000" points="98,-57.5 98,-76.5 180,-76.5 180,-57.5 98,-57.5"/>
<text text-anchor="middle" x="139" y="-64.5" font-family="Helvetica,sans-Serif" font-size="10.00" fill="#000000">js_parse_class</text>
</a>
</g>
</g>
<!-- Node49670&#45;&gt;Node49671 -->
<g id="edge1" class="edge">
<title>Node49670&#45;&gt;Node49671</title>
<path fill="none" stroke="#191970" d="M58.3838,-24.4525C78.0025,-34.8069 103.8715,-48.46 120.9498,-57.4735"/>
<polygon fill="#191970" stroke="#191970" points="59.7983,-21.2416 49.3207,-19.6693 56.5309,-27.4323 59.7983,-21.2416"/>
</g>
<!-- Node49680 -->
<g id="node7" class="node">
<title>Node49680</title>
<g id="a_node7"><a xlink:href="quickjs_8c.html#acc9eb677cab8dfcf45f59381f8a19601" target="_top" xlink:title="js_parse_function_decl2">
<polygon fill="none" stroke="#ff0000" points="507,-38.5 507,-57.5 629,-57.5 629,-38.5 507,-38.5"/>
<text text-anchor="middle" x="568" y="-45.5" font-family="Helvetica,sans-Serif" font-size="10.00" fill="#000000">js_parse_function_decl2</text>
</a>
</g>
</g>
<!-- Node49670&#45;&gt;Node49680 -->
<g id="edge20" class="edge">
<title>Node49670&#45;&gt;Node49680</title>
<path fill="none" stroke="#191970" d="M72.4466,-12.9329C166.4998,-19.5884 396.4631,-35.8615 506.8772,-43.6747"/>
<polygon fill="#191970" stroke="#191970" points="72.4146,-9.422 62.1925,-12.2073 71.9205,-16.4045 72.4146,-9.422"/>
</g>
<!-- Node49672 -->
<g id="node3" class="node">
<title>Node49672</title>
<g id="a_node3"><a xlink:href="quickjs_8c.html#acdcc62310b4f6f73fa7bc7267b18b1d4" target="_top" xlink:title="js_parse_postfix_expr">
<polygon fill="none" stroke="#000000" points="216,-107.5 216,-126.5 328,-126.5 328,-107.5 216,-107.5"/>
<text text-anchor="middle" x="272" y="-114.5" font-family="Helvetica,sans-Serif" font-size="10.00" fill="#000000">js_parse_postfix_expr</text>
</a>
</g>
</g>
<!-- Node49671&#45;&gt;Node49672 -->
<g id="edge2" class="edge">
<title>Node49671&#45;&gt;Node49672</title>
<path fill="none" stroke="#191970" d="M189.907,-79.5557C214.3783,-88.2201 241.8352,-99.2885 257.9828,-107.387"/>
<polygon fill="#191970" stroke="#191970" points="190.9478,-76.2122 180.353,-76.2449 188.6557,-82.8263 190.9478,-76.2122"/>
</g>
<!-- Node49675 -->
<g id="node6" class="node">
<title>Node49675</title>
<g id="a_node6"><a xlink:href="quickjs_8c.html#a9d844c16dcc71701436848074337d32c" target="_top" xlink:title="js_parse_statement\l_or_decl">
<polygon fill="none" stroke="#ff0000" points="665,-189 665,-219 767,-219 767,-189 665,-189"/>
<text text-anchor="start" x="673" y="-207" font-family="Helvetica,sans-Serif" font-size="10.00" fill="#000000">js_parse_statement</text>
<text text-anchor="middle" x="716" y="-196" font-family="Helvetica,sans-Serif" font-size="10.00" fill="#000000">_or_decl</text>
</a>
</g>
</g>
<!-- Node49671&#45;&gt;Node49675 -->
<g id="edge18" class="edge">
<title>Node49671&#45;&gt;Node49675</title>
<path fill="none" stroke="#191970" d="M151.0008,-84.9174C164.7303,-104.2351 188.8496,-134.7917 216,-154 273.9428,-194.9934 294.7957,-198.2332 364,-214 478.9014,-240.1779 511.8347,-235.6449 629,-223 640.6819,-221.7392 653.0954,-219.5525 664.7765,-217.1007"/>
<polygon fill="#191970" stroke="#191970" points="153.8614,-82.9005 145.2887,-76.6747 148.1079,-86.8876 153.8614,-82.9005"/>
</g>
<!-- Node49682 -->
<g id="node8" class="node">
<title>Node49682</title>
<g id="a_node8"><a xlink:href="quickjs_8c.html#a498e1d5c7de1b59c1630e9847cde1e41" target="_top" xlink:title="js_parse_export">
<polygon fill="none" stroke="#ff0000" points="673,-19.5 673,-38.5 759,-38.5 759,-19.5 673,-19.5"/>
<text text-anchor="middle" x="716" y="-26.5" font-family="Helvetica,sans-Serif" font-size="10.00" fill="#000000">js_parse_export</text>
</a>
</g>
</g>
<!-- Node49671&#45;&gt;Node49682 -->
<g id="edge19" class="edge">
<title>Node49671&#45;&gt;Node49682</title>
<path fill="none" stroke="#191970" d="M190.0524,-57.7802C198.6947,-56.3919 207.5902,-55.0694 216,-54 344.7729,-37.6258 377.3094,-34.5607 507,-29 564.2772,-26.5442 630.4652,-27.1197 672.7467,-27.9203"/>
<polygon fill="#191970" stroke="#191970" points="189.364,-54.3464 180.0678,-59.4289 190.5045,-61.2529 189.364,-54.3464"/>
</g>
<!-- Node49672&#45;&gt;Node49671 -->
<g id="edge3" class="edge">
<title>Node49672&#45;&gt;Node49671</title>
<path fill="none" stroke="#191970" d="M219.8556,-104.0051C195.8104,-95.4473 169.1357,-84.6732 153.2333,-76.7212"/>
<polygon fill="#191970" stroke="#191970" points="219.0147,-107.4183 229.6095,-107.4029 221.3175,-100.808 219.0147,-107.4183"/>
</g>
<!-- Node49672&#45;&gt;Node49672 -->
<g id="edge14" class="edge">
<title>Node49672&#45;&gt;Node49672</title>
<path fill="none" stroke="#191970" d="M247.4465,-136.0292C248.7858,-141.128 256.9703,-145 272,-145 295.4609,-145 302.2426,-135.5653 292.345,-126.7571"/>
<polygon fill="#191970" stroke="#191970" points="250.709,-137.3096 251.655,-126.7571 244.3348,-134.4164 250.709,-137.3096"/>
</g>
<!-- Node49673 -->
<g id="node4" class="node">
<title>Node49673</title>
<g id="a_node4"><a xlink:href="quickjs_8c.html#aff9f2e2a1548acfc8307a4070bb444ec" target="_top" xlink:title="js_parse_destructing\l_element">
<polygon fill="none" stroke="#ff0000" points="364,-133 364,-163 471,-163 471,-133 364,-133"/>
<text text-anchor="start" x="372" y="-151" font-family="Helvetica,sans-Serif" font-size="10.00" fill="#000000">js_parse_destructing</text>
<text text-anchor="middle" x="417.5" y="-140" font-family="Helvetica,sans-Serif" font-size="10.00" fill="#000000">_element</text>
</a>
</g>
</g>
<!-- Node49672&#45;&gt;Node49673 -->
<g id="edge4" class="edge">
<title>Node49672&#45;&gt;Node49673</title>
<path fill="none" stroke="#191970" d="M338.3905,-124.418C351.1376,-127.0416 364.1471,-129.9993 375.8375,-132.9541"/>
<polygon fill="#191970" stroke="#191970" points="338.7462,-120.92 328.2541,-122.3921 337.3741,-127.7842 338.7462,-120.92"/>
</g>
<!-- Node49677 -->
<g id="node5" class="node">
<title>Node49677</title>
<g id="a_node5"><a xlink:href="quickjs_8c.html#ac188b916dd086803591a67de7e7a85f6" target="_top" xlink:title="js_parse_for_in_of">
<polygon fill="none" stroke="#000000" points="520,-194.5 520,-213.5 616,-213.5 616,-194.5 520,-194.5"/>
<text text-anchor="middle" x="568" y="-201.5" font-family="Helvetica,sans-Serif" font-size="10.00" fill="#000000">js_parse_for_in_of</text>
</a>
</g>
</g>
<!-- Node49672&#45;&gt;Node49677 -->
<g id="edge17" class="edge">
<title>Node49672&#45;&gt;Node49677</title>
<path fill="none" stroke="#191970" d="M286.9957,-134.1191C303.7567,-151.9149 332.684,-178.8352 364,-191 414.4475,-210.5965 477.1834,-211.4588 519.6653,-208.9529"/>
<polygon fill="#191970" stroke="#191970" points="289.5166,-131.6893 280.1859,-126.6705 284.3502,-136.4126 289.5166,-131.6893"/>
</g>
<!-- Node49689 -->
<g id="node9" class="node">
<title>Node49689</title>
<g id="a_node9"><a xlink:href="quickjs_8c.html#af99673e7430294cf15dc24dc5dac227f" target="_top" xlink:title="js_parse_unary">
<polygon fill="none" stroke="#ff0000" points="376,-76.5 376,-95.5 459,-95.5 459,-76.5 376,-76.5"/>
<text text-anchor="middle" x="417.5" y="-83.5" font-family="Helvetica,sans-Serif" font-size="10.00" fill="#000000">js_parse_unary</text>
</a>
</g>
</g>
<!-- Node49672&#45;&gt;Node49689 -->
<g id="edge15" class="edge">
<title>Node49672&#45;&gt;Node49689</title>
<path fill="none" stroke="#191970" d="M326.7122,-105.3431C342.8773,-101.899 360.3106,-98.1847 375.5374,-94.9405"/>
<polygon fill="#191970" stroke="#191970" points="325.8931,-101.939 316.842,-107.446 327.3519,-108.7853 325.8931,-101.939"/>
</g>
<!-- Node49673&#45;&gt;Node49672 -->
<g id="edge6" class="edge">
<title>Node49673&#45;&gt;Node49672</title>
<path fill="none" stroke="#191970" d="M354.0104,-141.1742C332.3184,-136.7824 309.5099,-131.341 293.469,-126.5295"/>
<polygon fill="#191970" stroke="#191970" points="353.3828,-144.6177 363.8701,-143.1121 354.7328,-137.7491 353.3828,-144.6177"/>
</g>
<!-- Node49673&#45;&gt;Node49673 -->
<g id="edge5" class="edge">
<title>Node49673&#45;&gt;Node49673</title>
<path fill="none" stroke="#191970" d="M391.9129,-173.4579C395.0887,-178.179 403.6177,-181.5 417.5,-181.5 440.2813,-181.5 448.6462,-172.5566 442.595,-163.159"/>
<polygon fill="#191970" stroke="#191970" points="395.4237,-173.3147 392.405,-163.159 388.4317,-172.9805 395.4237,-173.3147"/>
</g>
<!-- Node49673&#45;&gt;Node49677 -->
<g id="edge7" class="edge">
<title>Node49673&#45;&gt;Node49677</title>
<path fill="none" stroke="#191970" d="M467.2103,-166.4969C492.3028,-175.8336 521.694,-186.7699 542.2404,-194.415"/>
<polygon fill="#191970" stroke="#191970" points="468.4241,-163.2141 457.8312,-163.007 465.9829,-169.7747 468.4241,-163.2141"/>
</g>
<!-- Node49673&#45;&gt;Node49675 -->
<g id="edge10" class="edge">
<title>Node49673&#45;&gt;Node49675</title>
<path fill="none" stroke="#191970" d="M481.1721,-158.4251C523.2225,-165.4856 579.4972,-175.2689 629,-185 640.5291,-187.2663 652.8805,-189.8616 664.5499,-192.3908"/>
<polygon fill="#191970" stroke="#191970" points="481.5129,-154.9335 471.0725,-156.7357 480.358,-161.8376 481.5129,-154.9335"/>
</g>
<!-- Node49673&#45;&gt;Node49680 -->
<g id="edge11" class="edge">
<title>Node49673&#45;&gt;Node49680</title>
<path fill="none" stroke="#191970" d="M461.6969,-128.3053C464.8891,-126.5921 468.0213,-124.8167 471,-123 504.4396,-102.6055 539.9201,-72.783 557.2328,-57.621"/>
<polygon fill="#191970" stroke="#191970" points="459.9269,-125.2793 452.6192,-132.9505 463.1157,-131.5108 459.9269,-125.2793"/>
</g>
<!-- Node49677&#45;&gt;Node49675 -->
<g id="edge8" class="edge">
<title>Node49677&#45;&gt;Node49675</title>
<path fill="none" stroke="#191970" d="M626.1371,-204C638.9293,-204 652.3852,-204 664.8766,-204"/>
<polygon fill="#191970" stroke="#191970" points="626.0514,-200.5001 616.0514,-204 626.0513,-207.5001 626.0514,-200.5001"/>
</g>
<!-- Node49675&#45;&gt;Node49675 -->
<g id="edge9" class="edge">
<title>Node49675&#45;&gt;Node49675</title>
<path fill="none" stroke="#191970" d="M689.7022,-229.4579C692.9661,-234.179 701.7321,-237.5 716,-237.5 739.4141,-237.5 748.0114,-228.5566 741.7921,-219.159"/>
<polygon fill="#191970" stroke="#191970" points="693.2132,-229.3187 690.2079,-219.159 686.2216,-228.9753 693.2132,-229.3187"/>
</g>
<!-- Node49680&#45;&gt;Node49671 -->
<g id="edge12" class="edge">
<title>Node49680&#45;&gt;Node49671</title>
<path fill="none" stroke="#191970" d="M496.6386,-51.1605C406.1471,-55.1683 253.1338,-61.9451 180.1343,-65.1782"/>
<polygon fill="#191970" stroke="#191970" points="496.979,-54.649 506.8143,-50.7099 496.6692,-47.6558 496.979,-54.649"/>
</g>
<!-- Node49680&#45;&gt;Node49682 -->
<g id="edge13" class="edge">
<title>Node49680&#45;&gt;Node49682</title>
<path fill="none" stroke="#191970" d="M639.0897,-38.8736C650.5713,-37.3996 662.1464,-35.9136 672.7073,-34.5579"/>
<polygon fill="#191970" stroke="#191970" points="638.5246,-35.4173 629.0517,-40.1623 639.416,-42.3604 638.5246,-35.4173"/>
</g>
<!-- Node49689&#45;&gt;Node49689 -->
<g id="edge16" class="edge">
<title>Node49689&#45;&gt;Node49689</title>
<path fill="none" stroke="#191970" d="M390.6208,-104.6539C391.7444,-109.9368 400.7041,-114 417.5,-114 443.0938,-114 450.4919,-104.5653 439.6946,-95.7571"/>
<polygon fill="#191970" stroke="#191970" points="393.7433,-106.2361 395.3054,-95.7571 387.5494,-102.9747 393.7433,-106.2361"/>
</g>
</g>
</svg>
