<?xml version="1.0" encoding="UTF-8" standalone="no"?>
<!DOCTYPE svg PUBLIC "-//W3C//DTD SVG 1.1//EN"
 "http://www.w3.org/Graphics/SVG/1.1/DTD/svg11.dtd">
<!-- Generated by graphviz version 2.40.1 (20161225.0304)
 -->
<!-- Title: js_os_remove Pages: 1 -->
<svg width="581pt" height="408pt"
 viewBox="0.00 0.00 581.00 408.00" xmlns="http://www.w3.org/2000/svg" xmlns:xlink="http://www.w3.org/1999/xlink">
<g id="graph0" class="graph" transform="scale(1 1) rotate(0) translate(4 404)">
<title>js_os_remove</title>
<!-- Node20242 -->
<g id="node1" class="node">
<title>Node20242</title>
<polygon fill="#bfbfbf" stroke="#000000" points="0,-190.5 0,-209.5 77,-209.5 77,-190.5 0,-190.5"/>
<text text-anchor="middle" x="38.5" y="-197.5" font-family="Helvetica,sans-Serif" font-size="10.00" fill="#000000">js_os_remove</text>
</g>
<!-- Node20243 -->
<g id="node2" class="node">
<title>Node20243</title>
<g id="a_node2"><a xlink:href="quickjs_8c.html#ae0bc4f65da64810facb2cb9e476eda2e" target="_top" xlink:title="JS_FreeCString">
<polygon fill="none" stroke="#000000" points="233.5,-190.5 233.5,-209.5 319.5,-209.5 319.5,-190.5 233.5,-190.5"/>
<text text-anchor="middle" x="276.5" y="-197.5" font-family="Helvetica,sans-Serif" font-size="10.00" fill="#000000">JS_FreeCString</text>
</a>
</g>
</g>
<!-- Node20242&#45;&gt;Node20243 -->
<g id="edge1" class="edge">
<title>Node20242&#45;&gt;Node20243</title>
<path fill="none" stroke="#191970" d="M77.0033,-200C116.6707,-200 178.803,-200 223.1848,-200"/>
<polygon fill="#191970" stroke="#191970" points="223.214,-203.5001 233.214,-200 223.214,-196.5001 223.214,-203.5001"/>
</g>
<!-- Node20273 -->
<g id="node5" class="node">
<title>Node20273</title>
<g id="a_node5"><a xlink:href="quickjs-libc_8c.html#ac3abb3f7c3750d07bbc4c20d5f4558f7" target="_top" xlink:title="js_os_return">
<polygon fill="none" stroke="#000000" points="117,-247.5 117,-266.5 187,-266.5 187,-247.5 117,-247.5"/>
<text text-anchor="middle" x="152" y="-254.5" font-family="Helvetica,sans-Serif" font-size="10.00" fill="#000000">js_os_return</text>
</a>
</g>
</g>
<!-- Node20242&#45;&gt;Node20273 -->
<g id="edge4" class="edge">
<title>Node20242&#45;&gt;Node20273</title>
<path fill="none" stroke="#191970" d="M57.4973,-209.5405C75.6662,-218.665 103.2835,-232.5344 123.9782,-242.9274"/>
<polygon fill="#191970" stroke="#191970" points="122.4335,-246.0682 132.9407,-247.4284 125.5751,-239.8127 122.4335,-246.0682"/>
</g>
<!-- Node20293 -->
<g id="node12" class="node">
<title>Node20293</title>
<g id="a_node12"><a xlink:href="quickjs_8h.html#af931f06630ab719b5f82a16eb27effd1" target="_top" xlink:title="JS_ToCString">
<polygon fill="none" stroke="#000000" points="113,-133.5 113,-152.5 191,-152.5 191,-133.5 113,-133.5"/>
<text text-anchor="middle" x="152" y="-140.5" font-family="Helvetica,sans-Serif" font-size="10.00" fill="#000000">JS_ToCString</text>
</a>
</g>
</g>
<!-- Node20242&#45;&gt;Node20293 -->
<g id="edge12" class="edge">
<title>Node20242&#45;&gt;Node20293</title>
<path fill="none" stroke="#191970" d="M57.4973,-190.4595C75.6662,-181.335 103.2835,-167.4656 123.9782,-157.0726"/>
<polygon fill="#191970" stroke="#191970" points="125.5751,-160.1873 132.9407,-152.5716 122.4335,-153.9318 125.5751,-160.1873"/>
</g>
<!-- Node20244 -->
<g id="node3" class="node">
<title>Node20244</title>
<g id="a_node3"><a xlink:href="quickjs_8h.html#afaa20c47565bc704c6c85f3d77254e7d" target="_top" xlink:title="JS_FreeValue">
<polygon fill="none" stroke="#000000" points="366,-190.5 366,-209.5 444,-209.5 444,-190.5 366,-190.5"/>
<text text-anchor="middle" x="405" y="-197.5" font-family="Helvetica,sans-Serif" font-size="10.00" fill="#000000">JS_FreeValue</text>
</a>
</g>
</g>
<!-- Node20243&#45;&gt;Node20244 -->
<g id="edge2" class="edge">
<title>Node20243&#45;&gt;Node20244</title>
<path fill="none" stroke="#191970" d="M319.6461,-200C331.1502,-200 343.6696,-200 355.4862,-200"/>
<polygon fill="#191970" stroke="#191970" points="355.6464,-203.5001 365.6464,-200 355.6463,-196.5001 355.6464,-203.5001"/>
</g>
<!-- Node20245 -->
<g id="node4" class="node">
<title>Node20245</title>
<g id="a_node4"><a xlink:href="quickjs_8c.html#aa059f309c30fd5166d16c82a97973146" target="_top" xlink:title="__JS_FreeValue">
<polygon fill="none" stroke="#ff0000" points="484,-190.5 484,-209.5 573,-209.5 573,-190.5 484,-190.5"/>
<text text-anchor="middle" x="528.5" y="-197.5" font-family="Helvetica,sans-Serif" font-size="10.00" fill="#000000">__JS_FreeValue</text>
</a>
</g>
</g>
<!-- Node20244&#45;&gt;Node20245 -->
<g id="edge3" class="edge">
<title>Node20244&#45;&gt;Node20245</title>
<path fill="none" stroke="#191970" d="M444.0762,-200C453.412,-200 463.5507,-200 473.4566,-200"/>
<polygon fill="#191970" stroke="#191970" points="473.6517,-203.5001 483.6517,-200 473.6517,-196.5001 473.6517,-203.5001"/>
</g>
<!-- Node20274 -->
<g id="node6" class="node">
<title>Node20274</title>
<g id="a_node6"><a xlink:href="quickjs_8c.html#acfced0527a056a74dd8439904b7936dd" target="_top" xlink:title="JS_NewInt64">
<polygon fill="none" stroke="#000000" points="238.5,-285.5 238.5,-304.5 314.5,-304.5 314.5,-285.5 238.5,-285.5"/>
<text text-anchor="middle" x="276.5" y="-292.5" font-family="Helvetica,sans-Serif" font-size="10.00" fill="#000000">JS_NewInt64</text>
</a>
</g>
</g>
<!-- Node20273&#45;&gt;Node20274 -->
<g id="edge5" class="edge">
<title>Node20273&#45;&gt;Node20274</title>
<path fill="none" stroke="#191970" d="M183.4166,-266.589C199.1935,-271.4044 218.5054,-277.2988 235.4412,-282.468"/>
<polygon fill="#191970" stroke="#191970" points="234.5073,-285.8423 245.0934,-285.4141 236.5508,-279.1472 234.5073,-285.8423"/>
</g>
<!-- Node20275 -->
<g id="node7" class="node">
<title>Node20275</title>
<g id="a_node7"><a xlink:href="quickjs_8h.html#a2050bc428da1c65ac7eb87c3fa3b0392" target="_top" xlink:title="JS_NewInt32">
<polygon fill="none" stroke="#000000" points="367,-380.5 367,-399.5 443,-399.5 443,-380.5 367,-380.5"/>
<text text-anchor="middle" x="405" y="-387.5" font-family="Helvetica,sans-Serif" font-size="10.00" fill="#000000">JS_NewInt32</text>
</a>
</g>
</g>
<!-- Node20274&#45;&gt;Node20275 -->
<g id="edge6" class="edge">
<title>Node20274&#45;&gt;Node20275</title>
<path fill="none" stroke="#191970" d="M286.7992,-304.626C302.3826,-318.9359 333.1973,-346.251 362,-366 366.7595,-369.2634 371.9985,-372.4744 377.1334,-375.4338"/>
<polygon fill="#191970" stroke="#191970" points="375.6977,-378.6403 386.1375,-380.4459 379.1023,-372.524 375.6977,-378.6403"/>
</g>
<!-- Node20276 -->
<g id="node8" class="node">
<title>Node20276</title>
<g id="a_node8"><a xlink:href="quickjs_8c.html#aaaa960ff4bdf4b4dd3017b555844c397" target="_top" xlink:title="is_bigint_mode">
<polygon fill="none" stroke="#000000" points="487.5,-285.5 487.5,-304.5 569.5,-304.5 569.5,-285.5 487.5,-285.5"/>
<text text-anchor="middle" x="528.5" y="-292.5" font-family="Helvetica,sans-Serif" font-size="10.00" fill="#000000">is_bigint_mode</text>
</a>
</g>
</g>
<!-- Node20274&#45;&gt;Node20276 -->
<g id="edge7" class="edge">
<title>Node20274&#45;&gt;Node20276</title>
<path fill="none" stroke="#191970" d="M292.515,-304.5722C309.1956,-313.9408 336.4172,-327.571 362,-333 399.3896,-340.9346 410.7034,-341.3606 448,-333 468.1063,-328.4929 489.1047,-318.3731 504.6122,-309.7096"/>
<polygon fill="#191970" stroke="#191970" points="506.5982,-312.6041 513.5011,-304.5666 503.0926,-306.5451 506.5982,-312.6041"/>
</g>
<!-- Node20277 -->
<g id="node9" class="node">
<title>Node20277</title>
<g id="a_node9"><a xlink:href="libbf_8h.html#abacc1410890af049e02ebd788364ac48" target="_top" xlink:title="bf_init">
<polygon fill="none" stroke="#000000" points="383.5,-304.5 383.5,-323.5 426.5,-323.5 426.5,-304.5 383.5,-304.5"/>
<text text-anchor="middle" x="405" y="-311.5" font-family="Helvetica,sans-Serif" font-size="10.00" fill="#000000">bf_init</text>
</a>
</g>
</g>
<!-- Node20274&#45;&gt;Node20277 -->
<g id="edge8" class="edge">
<title>Node20274&#45;&gt;Node20277</title>
<path fill="none" stroke="#191970" d="M314.7063,-300.6492C333.2085,-303.3849 355.1792,-306.6335 372.8154,-309.2412"/>
<polygon fill="#191970" stroke="#191970" points="372.7621,-312.7713 383.1665,-310.7717 373.786,-305.8466 372.7621,-312.7713"/>
</g>
<!-- Node20278 -->
<g id="node10" class="node">
<title>Node20278</title>
<g id="a_node10"><a xlink:href="libbf_8h.html#a60ee3eaad83309aaf8a8b8fb81d8b44d" target="_top" xlink:title="bf_set_si">
<polygon fill="none" stroke="#ff0000" points="377,-266.5 377,-285.5 433,-285.5 433,-266.5 377,-266.5"/>
<text text-anchor="middle" x="405" y="-273.5" font-family="Helvetica,sans-Serif" font-size="10.00" fill="#000000">bf_set_si</text>
</a>
</g>
</g>
<!-- Node20274&#45;&gt;Node20278 -->
<g id="edge9" class="edge">
<title>Node20274&#45;&gt;Node20278</title>
<path fill="none" stroke="#191970" d="M314.7063,-289.3508C331.092,-286.928 350.198,-284.103 366.6045,-281.6772"/>
<polygon fill="#191970" stroke="#191970" points="367.5598,-285.074 376.9403,-280.1489 366.5359,-278.1493 367.5598,-285.074"/>
</g>
<!-- Node20284 -->
<g id="node11" class="node">
<title>Node20284</title>
<g id="a_node11"><a xlink:href="quickjs_8c.html#aece934cd3d738b1562b8cf5fe5ce9b67" target="_top" xlink:title="JS_NewBigInt">
<polygon fill="none" stroke="#ff0000" points="365,-228.5 365,-247.5 445,-247.5 445,-228.5 365,-228.5"/>
<text text-anchor="middle" x="405" y="-235.5" font-family="Helvetica,sans-Serif" font-size="10.00" fill="#000000">JS_NewBigInt</text>
</a>
</g>
</g>
<!-- Node20274&#45;&gt;Node20284 -->
<g id="edge10" class="edge">
<title>Node20274&#45;&gt;Node20284</title>
<path fill="none" stroke="#191970" d="M297.9283,-285.461C315.2181,-277.7679 340.1692,-266.6743 362,-257 365.8614,-255.2888 369.9189,-253.493 373.9352,-251.7168"/>
<polygon fill="#191970" stroke="#191970" points="375.3894,-254.9007 383.1208,-247.6567 372.5594,-248.4983 375.3894,-254.9007"/>
</g>
<!-- Node20284&#45;&gt;Node20276 -->
<g id="edge11" class="edge">
<title>Node20284&#45;&gt;Node20276</title>
<path fill="none" stroke="#191970" d="M426.9225,-247.5605C433.6961,-250.5483 441.1704,-253.8798 448,-257 465.0661,-264.797 484.0502,-273.7451 499.2948,-280.9989"/>
<polygon fill="#191970" stroke="#191970" points="498.1823,-284.3459 508.715,-285.4919 501.1958,-278.0278 498.1823,-284.3459"/>
</g>
<!-- Node20294 -->
<g id="node13" class="node">
<title>Node20294</title>
<g id="a_node13"><a xlink:href="quickjs_8c.html#af49e67b73f845dc1f9c3ee648dd9f95c" target="_top" xlink:title="JS_ToCStringLen2">
<polygon fill="none" stroke="#000000" points="227,-114.5 227,-133.5 326,-133.5 326,-114.5 227,-114.5"/>
<text text-anchor="middle" x="276.5" y="-121.5" font-family="Helvetica,sans-Serif" font-size="10.00" fill="#000000">JS_ToCStringLen2</text>
</a>
</g>
</g>
<!-- Node20293&#45;&gt;Node20294 -->
<g id="edge13" class="edge">
<title>Node20293&#45;&gt;Node20294</title>
<path fill="none" stroke="#191970" d="M191.051,-137.0404C199.1494,-135.8045 207.859,-134.4753 216.5104,-133.155"/>
<polygon fill="#191970" stroke="#191970" points="217.242,-136.584 226.5994,-131.6153 216.1858,-129.6641 217.242,-136.584"/>
</g>
<!-- Node20294&#45;&gt;Node20244 -->
<g id="edge19" class="edge">
<title>Node20294&#45;&gt;Node20244</title>
<path fill="none" stroke="#191970" d="M289.3871,-133.6142C305.7518,-145.5792 335.1016,-166.2342 362,-181 365.2687,-182.7943 368.7403,-184.5534 372.2382,-186.2326"/>
<polygon fill="#191970" stroke="#191970" points="370.8896,-189.4647 381.4376,-190.4604 373.8128,-183.1042 370.8896,-189.4647"/>
</g>
<!-- Node20295 -->
<g id="node14" class="node">
<title>Node20295</title>
<g id="a_node14"><a xlink:href="quickjs_8c.html#a7bcb8e1a20cbc8374a5f9ba4a2088cec" target="_top" xlink:title="JS_ToString">
<polygon fill="none" stroke="#ff0000" points="369.5,-114.5 369.5,-133.5 440.5,-133.5 440.5,-114.5 369.5,-114.5"/>
<text text-anchor="middle" x="405" y="-121.5" font-family="Helvetica,sans-Serif" font-size="10.00" fill="#000000">JS_ToString</text>
</a>
</g>
</g>
<!-- Node20294&#45;&gt;Node20295 -->
<g id="edge14" class="edge">
<title>Node20294&#45;&gt;Node20295</title>
<path fill="none" stroke="#191970" d="M326.1815,-124C337.0996,-124 348.6102,-124 359.3602,-124"/>
<polygon fill="#191970" stroke="#191970" points="359.3896,-127.5001 369.3896,-124 359.3895,-120.5001 359.3896,-127.5001"/>
</g>
<!-- Node20340 -->
<g id="node15" class="node">
<title>Node20340</title>
<g id="a_node15"><a xlink:href="quickjs_8h.html#ad80a83d73e9b7d872b88fbf2943aebe9" target="_top" xlink:title="JS_IsException">
<polygon fill="none" stroke="#000000" points="362,-76.5 362,-95.5 448,-95.5 448,-76.5 362,-76.5"/>
<text text-anchor="middle" x="405" y="-83.5" font-family="Helvetica,sans-Serif" font-size="10.00" fill="#000000">JS_IsException</text>
</a>
</g>
</g>
<!-- Node20294&#45;&gt;Node20340 -->
<g id="edge15" class="edge">
<title>Node20294&#45;&gt;Node20340</title>
<path fill="none" stroke="#191970" d="M308.926,-114.411C325.2097,-109.5956 345.1421,-103.7012 362.622,-98.532"/>
<polygon fill="#191970" stroke="#191970" points="363.9875,-101.7781 372.5844,-95.5859 362.0024,-95.0655 363.9875,-101.7781"/>
</g>
<!-- Node20297 -->
<g id="node16" class="node">
<title>Node20297</title>
<g id="a_node16"><a xlink:href="quickjs_8h.html#a775522f2d084fc8fa0fcb33f390006b4" target="_top" xlink:title="JS_DupValue">
<polygon fill="none" stroke="#000000" points="366.5,-38.5 366.5,-57.5 443.5,-57.5 443.5,-38.5 366.5,-38.5"/>
<text text-anchor="middle" x="405" y="-45.5" font-family="Helvetica,sans-Serif" font-size="10.00" fill="#000000">JS_DupValue</text>
</a>
</g>
</g>
<!-- Node20294&#45;&gt;Node20297 -->
<g id="edge16" class="edge">
<title>Node20294&#45;&gt;Node20297</title>
<path fill="none" stroke="#191970" d="M289.3871,-114.3858C305.7518,-102.4208 335.1016,-81.7658 362,-67 365.2687,-65.2057 368.7403,-63.4466 372.2382,-61.7674"/>
<polygon fill="#191970" stroke="#191970" points="373.8128,-64.8958 381.4376,-57.5396 370.8896,-58.5353 373.8128,-64.8958"/>
</g>
<!-- Node20306 -->
<g id="node17" class="node">
<title>Node20306</title>
<g id="a_node17"><a xlink:href="quickjs_8c.html#ad303a9bc56766627b5fca41574933930" target="_top" xlink:title="js_alloc_string">
<polygon fill="none" stroke="#ff0000" points="365.5,-.5 365.5,-19.5 444.5,-19.5 444.5,-.5 365.5,-.5"/>
<text text-anchor="middle" x="405" y="-7.5" font-family="Helvetica,sans-Serif" font-size="10.00" fill="#000000">js_alloc_string</text>
</a>
</g>
</g>
<!-- Node20294&#45;&gt;Node20306 -->
<g id="edge17" class="edge">
<title>Node20294&#45;&gt;Node20306</title>
<path fill="none" stroke="#191970" d="M282.982,-114.4268C296.0145,-95.7905 327.1416,-54.2572 362,-29 364.3545,-27.294 366.8864,-25.6949 369.5007,-24.206"/>
<polygon fill="#191970" stroke="#191970" points="371.2563,-27.2394 378.5689,-19.5728 368.0714,-21.0059 371.2563,-27.2394"/>
</g>
<!-- Node20414 -->
<g id="node18" class="node">
<title>Node20414</title>
<g id="a_node18"><a xlink:href="cutils_8h.html#aad4e0decb15ab19e9f45b0ee69542a28" target="_top" xlink:title="unicode_to_utf8">
<polygon fill="none" stroke="#000000" points="362,-152.5 362,-171.5 448,-171.5 448,-152.5 362,-152.5"/>
<text text-anchor="middle" x="405" y="-159.5" font-family="Helvetica,sans-Serif" font-size="10.00" fill="#000000">unicode_to_utf8</text>
</a>
</g>
</g>
<!-- Node20294&#45;&gt;Node20414 -->
<g id="edge18" class="edge">
<title>Node20294&#45;&gt;Node20414</title>
<path fill="none" stroke="#191970" d="M308.926,-133.589C325.2097,-138.4044 345.1421,-144.2988 362.622,-149.468"/>
<polygon fill="#191970" stroke="#191970" points="362.0024,-152.9345 372.5844,-152.4141 363.9875,-146.2219 362.0024,-152.9345"/>
</g>
</g>
</svg>
