<?xml version="1.0" encoding="UTF-8" standalone="no"?>
<!DOCTYPE svg PUBLIC "-//W3C//DTD SVG 1.1//EN"
 "http://www.w3.org/Graphics/SVG/1.1/DTD/svg11.dtd">
<!-- Generated by graphviz version 2.40.1 (20161225.0304)
 -->
<!-- Title: JS_ThrowError2 Pages: 1 -->
<!--zoomable 569 -->
<svg id="main" version="1.1" xmlns="http://www.w3.org/2000/svg" xmlns:xlink="http://www.w3.org/1999/xlink" xml:space="preserve" onload="init(evt)">
<style type="text/css"><![CDATA[
.edge:hover path { stroke: red; }
.edge:hover polygon { stroke: red; fill: red; }
]]></style>
<script type="text/javascript"><![CDATA[
var edges = document.getElementsByTagName('g');
if (edges && edges.length) {
  for (var i=0;i<edges.length;i++) {
    if (edges[i].id.substr(0,4)=='edge') {
      edges[i].setAttribute('class','edge');
    }
  }
}
]]></script>
        <defs>
                <circle id="rim" cx="0" cy="0" r="7"/>
                <circle id="rim2" cx="0" cy="0" r="3.5"/>
                <g id="zoomPlus">
                        <use xlink:href="#rim" fill="#404040">
                                <set attributeName="fill" to="#808080" begin="zoomplus.mouseover" end="zoomplus.mouseout"/>
                        </use>
                        <path d="M-4,0h8M0,-4v8" fill="none" stroke="white" stroke-width="1.5" pointer-events="none"/>
                </g>
                <g id="zoomMin">
                        <use xlink:href="#rim" fill="#404040">
                                <set attributeName="fill" to="#808080" begin="zoomminus.mouseover" end="zoomminus.mouseout"/>
                        </use>
                        <path d="M-4,0h8" fill="none" stroke="white" stroke-width="1.5" pointer-events="none"/>
                </g>
                <g id="dirArrow">
                        <path fill="none" stroke="white" stroke-width="1.5" d="M0,-3.0v7 M-2.5,-0.5L0,-3.0L2.5,-0.5"/>
                </g>
               <g id="resetDef">
                       <use xlink:href="#rim2" fill="#404040">
                               <set attributeName="fill" to="#808080" begin="reset.mouseover" end="reset.mouseout"/>
                       </use>
               </g>
        </defs>

<script type="text/javascript">
var viewWidth = 654;
var viewHeight = 569;
var sectionId = 'dynsection-514';
</script>
<script xlink:href="svgpan.js"/>
<svg id="graph" class="graph">
<g id="viewport">
<title>JS_ThrowError2</title>
<!-- Node167818 -->
<g id="node1" class="node">
<title>Node167818</title>
<polygon fill="#bfbfbf" stroke="#000000" points="0,-95.5 0,-114.5 87,-114.5 87,-95.5 0,-95.5"/>
<text text-anchor="middle" x="43.5" y="-102.5" font-family="Helvetica,sans-Serif" font-size="10.00" fill="#000000">JS_ThrowError2</text>
</g>
<!-- Node167819 -->
<g id="node2" class="node">
<title>Node167819</title>
<g id="a_node2"><a xlink:href="quickjs_8c.html#a61c8dfb5e807af1b6ff7d8ca61576dda" target="_top" xlink:title="build_backtrace">
<polygon fill="none" stroke="#000000" points="146,-304.5 146,-323.5 231,-323.5 231,-304.5 146,-304.5"/>
<text text-anchor="middle" x="188.5" y="-311.5" font-family="Helvetica,sans-Serif" font-size="10.00" fill="#000000">build_backtrace</text>
</a>
</g>
</g>
<!-- Node167818&#45;&gt;Node167819 -->
<g id="edge1" class="edge">
<title>Node167818&#45;&gt;Node167819</title>
<path fill="none" stroke="#191970" d="M50.1071,-114.5234C72.6115,-146.9607 146.5133,-253.4812 176.0958,-296.1209"/>
<polygon fill="#191970" stroke="#191970" points="173.278,-298.1995 181.8541,-304.4207 179.0294,-294.2093 173.278,-298.1995"/>
</g>
<!-- Node168020 -->
<g id="node18" class="node">
<title>Node168020</title>
<g id="a_node18"><a xlink:href="quickjs_8c.html#a0a8765bd4012467d9139bc24aabcb3ca" target="_top" xlink:title="JS_DefinePropertyValue">
<polygon fill="none" stroke="#ff0000" points="290,-152.5 290,-171.5 414,-171.5 414,-152.5 290,-152.5"/>
<text text-anchor="middle" x="352" y="-159.5" font-family="Helvetica,sans-Serif" font-size="10.00" fill="#000000">JS_DefinePropertyValue</text>
</a>
</g>
</g>
<!-- Node167818&#45;&gt;Node168020 -->
<g id="edge22" class="edge">
<title>Node167818&#45;&gt;Node168020</title>
<path fill="none" stroke="#191970" d="M73.0819,-114.5838C87.9408,-119.1347 106.2938,-124.3604 123,-128 175.0272,-139.3346 234.5341,-148.0433 279.8459,-153.8085"/>
<polygon fill="#191970" stroke="#191970" points="279.516,-157.2944 289.8738,-155.0659 280.387,-150.3488 279.516,-157.2944"/>
</g>
<!-- Node167873 -->
<g id="node21" class="node">
<title>Node167873</title>
<g id="a_node21"><a xlink:href="quickjs_8c.html#a0ee6a3654a6016393fac5e1c108f403a" target="_top" xlink:title="JS_NewString">
<polygon fill="none" stroke="#ff0000" points="312,-114.5 312,-133.5 392,-133.5 392,-114.5 312,-114.5"/>
<text text-anchor="middle" x="352" y="-121.5" font-family="Helvetica,sans-Serif" font-size="10.00" fill="#000000">JS_NewString</text>
</a>
</g>
</g>
<!-- Node167818&#45;&gt;Node167873 -->
<g id="edge25" class="edge">
<title>Node167818&#45;&gt;Node167873</title>
<path fill="none" stroke="#191970" d="M87.0462,-107.6819C143.452,-111.1559 241.6007,-117.2007 301.2995,-120.8774"/>
<polygon fill="#191970" stroke="#191970" points="301.4232,-124.3916 311.6195,-121.513 301.8536,-117.4048 301.4232,-124.3916"/>
</g>
<!-- Node167866 -->
<g id="node22" class="node">
<title>Node167866</title>
<g id="a_node22"><a xlink:href="quickjs_8h.html#ad80a83d73e9b7d872b88fbf2943aebe9" target="_top" xlink:title="JS_IsException">
<polygon fill="none" stroke="#000000" points="145.5,-76.5 145.5,-95.5 231.5,-95.5 231.5,-76.5 145.5,-76.5"/>
<text text-anchor="middle" x="188.5" y="-83.5" font-family="Helvetica,sans-Serif" font-size="10.00" fill="#000000">JS_IsException</text>
</a>
</g>
</g>
<!-- Node167818&#45;&gt;Node167866 -->
<g id="edge23" class="edge">
<title>Node167818&#45;&gt;Node167866</title>
<path fill="none" stroke="#191970" d="M87.0048,-99.2994C102.0593,-97.3267 119.111,-95.0924 134.8814,-93.0259"/>
<polygon fill="#191970" stroke="#191970" points="135.5654,-96.4663 145.0259,-91.6966 134.6559,-89.5256 135.5654,-96.4663"/>
</g>
<!-- Node168096 -->
<g id="node23" class="node">
<title>Node168096</title>
<g id="a_node23"><a xlink:href="quickjs_8c.html#a73738c650f11459db0d7af3dcdf8316b" target="_top" xlink:title="JS_NewObjectProtoClass">
<polygon fill="none" stroke="#ff0000" points="123,-38.5 123,-57.5 254,-57.5 254,-38.5 123,-38.5"/>
<text text-anchor="middle" x="188.5" y="-45.5" font-family="Helvetica,sans-Serif" font-size="10.00" fill="#000000">JS_NewObjectProtoClass</text>
</a>
</g>
</g>
<!-- Node167818&#45;&gt;Node168096 -->
<g id="edge24" class="edge">
<title>Node167818&#45;&gt;Node168096</title>
<path fill="none" stroke="#191970" d="M61.4433,-95.381C77.319,-87.1244 101.2718,-75.2806 123,-67 129.0265,-64.7033 135.4537,-62.5238 141.8382,-60.5156"/>
<polygon fill="#191970" stroke="#191970" points="143.2152,-63.7557 151.7723,-57.5087 141.1872,-57.0559 143.2152,-63.7557"/>
</g>
<!-- Node168137 -->
<g id="node24" class="node">
<title>Node168137</title>
<g id="a_node24"><a xlink:href="quickjs_8c.html#a3ae8a83da71ef07d6e858d172d9c5a81" target="_top" xlink:title="JS_Throw">
<polygon fill="none" stroke="#ff0000" points="158,-.5 158,-19.5 219,-19.5 219,-.5 158,-.5"/>
<text text-anchor="middle" x="188.5" y="-7.5" font-family="Helvetica,sans-Serif" font-size="10.00" fill="#000000">JS_Throw</text>
</a>
</g>
</g>
<!-- Node167818&#45;&gt;Node168137 -->
<g id="edge26" class="edge">
<title>Node167818&#45;&gt;Node168137</title>
<path fill="none" stroke="#191970" d="M50.9699,-95.297C63.9013,-79.1599 92.0598,-46.8226 123,-29 130.7526,-24.5342 139.6351,-21.0494 148.3052,-18.3556"/>
<polygon fill="#191970" stroke="#191970" points="149.2578,-21.7235 157.932,-15.64 147.3574,-14.9864 149.2578,-21.7235"/>
</g>
<!-- Node167820 -->
<g id="node3" class="node">
<title>Node167820</title>
<g id="a_node3"><a xlink:href="cutils_8h.html#a7e3df12bda422b64b14ec2fc2f487c5f" target="_top" xlink:title="__attribute__">
<polygon fill="none" stroke="#000000" points="315.5,-304.5 315.5,-323.5 388.5,-323.5 388.5,-304.5 315.5,-304.5"/>
<text text-anchor="middle" x="352" y="-311.5" font-family="Helvetica,sans-Serif" font-size="10.00" fill="#000000">__attribute__</text>
</a>
</g>
</g>
<!-- Node167819&#45;&gt;Node167820 -->
<g id="edge2" class="edge">
<title>Node167819&#45;&gt;Node167820</title>
<path fill="none" stroke="#191970" d="M231.0309,-314C253.7791,-314 281.837,-314 305.2021,-314"/>
<polygon fill="#191970" stroke="#191970" points="305.2342,-317.5001 315.2342,-314 305.2342,-310.5001 305.2342,-317.5001"/>
</g>
<!-- Node167821 -->
<g id="node4" class="node">
<title>Node167821</title>
<g id="a_node4"><a xlink:href="cutils_8h.html#a8a3b715fc2146312b777c4e3db546b55" target="_top" xlink:title="dbuf_free">
<polygon fill="none" stroke="#000000" points="323.5,-266.5 323.5,-285.5 380.5,-285.5 380.5,-266.5 323.5,-266.5"/>
<text text-anchor="middle" x="352" y="-273.5" font-family="Helvetica,sans-Serif" font-size="10.00" fill="#000000">dbuf_free</text>
</a>
</g>
</g>
<!-- Node167819&#45;&gt;Node167821 -->
<g id="edge3" class="edge">
<title>Node167819&#45;&gt;Node167821</title>
<path fill="none" stroke="#191970" d="M229.758,-304.411C255.4498,-298.4398 288.28,-290.8095 313.4471,-284.9603"/>
<polygon fill="#191970" stroke="#191970" points="314.4263,-288.3261 323.3743,-282.6531 312.8416,-281.5078 314.4263,-288.3261"/>
</g>
<!-- Node167822 -->
<g id="node5" class="node">
<title>Node167822</title>
<g id="a_node5"><a xlink:href="cutils_8h.html#aeed81d4787ccdbd55baa9b5fd6717e88" target="_top" xlink:title="dbuf_putc">
<polygon fill="none" stroke="#000000" points="322.5,-228.5 322.5,-247.5 381.5,-247.5 381.5,-228.5 322.5,-228.5"/>
<text text-anchor="middle" x="352" y="-235.5" font-family="Helvetica,sans-Serif" font-size="10.00" fill="#000000">dbuf_putc</text>
</a>
</g>
</g>
<!-- Node167819&#45;&gt;Node167822 -->
<g id="edge4" class="edge">
<title>Node167819&#45;&gt;Node167822</title>
<path fill="none" stroke="#191970" d="M203.12,-304.462C222.3999,-292.1992 257.6728,-270.8405 290,-257 297.1241,-253.9499 304.8997,-251.1664 312.4613,-248.7265"/>
<polygon fill="#191970" stroke="#191970" points="313.6801,-252.0135 322.2059,-245.7236 311.6186,-245.3239 313.6801,-252.0135"/>
</g>
<!-- Node167825 -->
<g id="node7" class="node">
<title>Node167825</title>
<g id="a_node7"><a xlink:href="quickjs_8c.html#af139f102b1c52111bc98af4ba935bf18" target="_top" xlink:title="find_line_num">
<polygon fill="none" stroke="#000000" points="313.5,-190.5 313.5,-209.5 390.5,-209.5 390.5,-190.5 313.5,-190.5"/>
<text text-anchor="middle" x="352" y="-197.5" font-family="Helvetica,sans-Serif" font-size="10.00" fill="#000000">find_line_num</text>
</a>
</g>
</g>
<!-- Node167819&#45;&gt;Node167825 -->
<g id="edge6" class="edge">
<title>Node167819&#45;&gt;Node167825</title>
<path fill="none" stroke="#191970" d="M196.1048,-304.4059C211.6978,-285.3594 249.27,-242.5834 290,-219 294.3933,-216.4562 299.1626,-214.219 304.0392,-212.2594"/>
<polygon fill="#191970" stroke="#191970" points="305.2776,-215.5333 313.4785,-208.8253 302.8844,-208.9551 305.2776,-215.5333"/>
</g>
<!-- Node167828 -->
<g id="node10" class="node">
<title>Node167828</title>
<g id="a_node10"><a xlink:href="quickjs_8c.html#adb1fc78e06c842a22d4fa3bf3fb75f70" target="_top" xlink:title="get_func_name">
<polygon fill="none" stroke="#000000" points="310.5,-532.5 310.5,-551.5 393.5,-551.5 393.5,-532.5 310.5,-532.5"/>
<text text-anchor="middle" x="352" y="-539.5" font-family="Helvetica,sans-Serif" font-size="10.00" fill="#000000">get_func_name</text>
</a>
</g>
</g>
<!-- Node167819&#45;&gt;Node167828 -->
<g id="edge10" class="edge">
<title>Node167819&#45;&gt;Node167828</title>
<path fill="none" stroke="#191970" d="M190.312,-323.5629C197.0574,-356.5027 223.8133,-466.3368 290,-523 293.2712,-525.8005 296.9489,-528.1883 300.8388,-530.2242"/>
<polygon fill="#191970" stroke="#191970" points="299.647,-533.524 310.2084,-534.3646 302.4764,-527.1212 299.647,-533.524"/>
</g>
<!-- Node168063 -->
<g id="node13" class="node">
<title>Node168063</title>
<g id="a_node13"><a xlink:href="quickjs_8c.html#ab18048ab5eea3e47109a5473f78515bc" target="_top" xlink:title="JS_AtomGetStr">
<polygon fill="none" stroke="#ff0000" points="309,-494.5 309,-513.5 395,-513.5 395,-494.5 309,-494.5"/>
<text text-anchor="middle" x="352" y="-501.5" font-family="Helvetica,sans-Serif" font-size="10.00" fill="#000000">JS_AtomGetStr</text>
</a>
</g>
</g>
<!-- Node167819&#45;&gt;Node168063 -->
<g id="edge13" class="edge">
<title>Node167819&#45;&gt;Node168063</title>
<path fill="none" stroke="#191970" d="M191.4977,-323.8204C200.9146,-353.0059 232.7334,-439.9795 290,-485 292.9621,-487.3287 296.2095,-489.3733 299.6168,-491.1682"/>
<polygon fill="#191970" stroke="#191970" points="298.3686,-494.4446 308.9239,-495.36 301.2433,-488.0621 298.3686,-494.4446"/>
</g>
<!-- Node168026 -->
<g id="node14" class="node">
<title>Node168026</title>
<g id="a_node14"><a xlink:href="quickjs_8c.html#a76e95dd1ab1d7cb4b9407d2ad41ee119" target="_top" xlink:title="js_class_has_bytecode">
<polygon fill="none" stroke="#000000" points="292.5,-456.5 292.5,-475.5 411.5,-475.5 411.5,-456.5 292.5,-456.5"/>
<text text-anchor="middle" x="352" y="-463.5" font-family="Helvetica,sans-Serif" font-size="10.00" fill="#000000">js_class_has_bytecode</text>
</a>
</g>
</g>
<!-- Node167819&#45;&gt;Node168026 -->
<g id="edge14" class="edge">
<title>Node167819&#45;&gt;Node168026</title>
<path fill="none" stroke="#191970" d="M193.1615,-323.6818C205.4419,-348.1586 241.1312,-412.9794 290,-447 292.8585,-448.99 295.9315,-450.7764 299.1256,-452.3796"/>
<polygon fill="#191970" stroke="#191970" points="297.8056,-455.6224 308.3697,-456.4287 300.6142,-449.2105 297.8056,-455.6224"/>
</g>
<!-- Node168283 -->
<g id="node15" class="node">
<title>Node168283</title>
<g id="a_node15"><a xlink:href="quickjs_8c.html#a85c6e39e83eab2ddb82d58e82721d06a" target="_top" xlink:title="js_dbuf_init">
<polygon fill="none" stroke="#000000" points="319,-418.5 319,-437.5 385,-437.5 385,-418.5 319,-418.5"/>
<text text-anchor="middle" x="352" y="-425.5" font-family="Helvetica,sans-Serif" font-size="10.00" fill="#000000">js_dbuf_init</text>
</a>
</g>
</g>
<!-- Node167819&#45;&gt;Node168283 -->
<g id="edge15" class="edge">
<title>Node167819&#45;&gt;Node168283</title>
<path fill="none" stroke="#191970" d="M196.1048,-323.5941C211.6978,-342.6406 249.27,-385.4166 290,-409 295.9567,-412.449 302.6046,-415.3344 309.2738,-417.7285"/>
<polygon fill="#191970" stroke="#191970" points="308.3897,-421.1215 318.9821,-420.8932 310.5593,-414.4662 308.3897,-421.1215"/>
</g>
<!-- Node167819&#45;&gt;Node168020 -->
<g id="edge18" class="edge">
<title>Node167819&#45;&gt;Node168020</title>
<path fill="none" stroke="#191970" d="M193.1615,-304.3182C205.4419,-279.8414 241.1312,-215.0206 290,-181 292.8585,-179.01 295.9315,-177.2236 299.1256,-175.6204"/>
<polygon fill="#191970" stroke="#191970" points="300.6142,-178.7895 308.3697,-171.5713 297.8056,-172.3776 300.6142,-178.7895"/>
</g>
<!-- Node167949 -->
<g id="node19" class="node">
<title>Node167949</title>
<g id="a_node19"><a xlink:href="quickjs_8c.html#ae0bc4f65da64810facb2cb9e476eda2e" target="_top" xlink:title="JS_FreeCString">
<polygon fill="none" stroke="#ff0000" points="309,-380.5 309,-399.5 395,-399.5 395,-380.5 309,-380.5"/>
<text text-anchor="middle" x="352" y="-387.5" font-family="Helvetica,sans-Serif" font-size="10.00" fill="#000000">JS_FreeCString</text>
</a>
</g>
</g>
<!-- Node167819&#45;&gt;Node167949 -->
<g id="edge19" class="edge">
<title>Node167819&#45;&gt;Node167949</title>
<path fill="none" stroke="#191970" d="M203.12,-323.538C222.3999,-335.8008 257.6728,-357.1595 290,-371 295.1747,-373.2155 300.6931,-375.2903 306.2236,-377.195"/>
<polygon fill="#191970" stroke="#191970" points="305.5273,-380.6497 316.1199,-380.4331 307.7042,-373.9968 305.5273,-380.6497"/>
</g>
<!-- Node167897 -->
<g id="node20" class="node">
<title>Node167897</title>
<g id="a_node20"><a xlink:href="quickjs_8h.html#a2050bc428da1c65ac7eb87c3fa3b0392" target="_top" xlink:title="JS_NewInt32">
<polygon fill="none" stroke="#000000" points="314,-342.5 314,-361.5 390,-361.5 390,-342.5 314,-342.5"/>
<text text-anchor="middle" x="352" y="-349.5" font-family="Helvetica,sans-Serif" font-size="10.00" fill="#000000">JS_NewInt32</text>
</a>
</g>
</g>
<!-- Node167819&#45;&gt;Node167897 -->
<g id="edge20" class="edge">
<title>Node167819&#45;&gt;Node167897</title>
<path fill="none" stroke="#191970" d="M229.758,-323.589C252.3557,-328.8411 280.4759,-335.3767 304.0468,-340.8549"/>
<polygon fill="#191970" stroke="#191970" points="303.3079,-344.2764 313.8406,-343.1312 304.8926,-337.4581 303.3079,-344.2764"/>
</g>
<!-- Node167819&#45;&gt;Node167873 -->
<g id="edge21" class="edge">
<title>Node167819&#45;&gt;Node167873</title>
<path fill="none" stroke="#191970" d="M191.4977,-304.1796C200.9146,-274.9941 232.7334,-188.0205 290,-143 293.7836,-140.0255 298.0324,-137.5146 302.4857,-135.3954"/>
<polygon fill="#191970" stroke="#191970" points="303.8999,-138.5985 311.8301,-131.5726 301.2494,-132.1197 303.8999,-138.5985"/>
</g>
<!-- Node167823 -->
<g id="node6" class="node">
<title>Node167823</title>
<g id="a_node6"><a xlink:href="cutils_8h.html#ad1cfaae47347ae771136b5a9bbda49aa" target="_top" xlink:title="dbuf_put">
<polygon fill="none" stroke="#ff0000" points="471,-228.5 471,-247.5 525,-247.5 525,-228.5 471,-228.5"/>
<text text-anchor="middle" x="498" y="-235.5" font-family="Helvetica,sans-Serif" font-size="10.00" fill="#000000">dbuf_put</text>
</a>
</g>
</g>
<!-- Node167822&#45;&gt;Node167823 -->
<g id="edge5" class="edge">
<title>Node167822&#45;&gt;Node167823</title>
<path fill="none" stroke="#191970" d="M381.5453,-238C404.4384,-238 436.2962,-238 460.9051,-238"/>
<polygon fill="#191970" stroke="#191970" points="460.9607,-241.5001 470.9607,-238 460.9606,-234.5001 460.9607,-241.5001"/>
</g>
<!-- Node167826 -->
<g id="node8" class="node">
<title>Node167826</title>
<g id="a_node8"><a xlink:href="quickjs_8c.html#a930fdff715d46df68de392095deb7d79" target="_top" xlink:title="get_leb128">
<polygon fill="none" stroke="#000000" points="582,-171.5 582,-190.5 646,-190.5 646,-171.5 582,-171.5"/>
<text text-anchor="middle" x="614" y="-178.5" font-family="Helvetica,sans-Serif" font-size="10.00" fill="#000000">get_leb128</text>
</a>
</g>
</g>
<!-- Node167825&#45;&gt;Node167826 -->
<g id="edge7" class="edge">
<title>Node167825&#45;&gt;Node167826</title>
<path fill="none" stroke="#191970" d="M390.659,-197.1965C439.0312,-193.6886 521.5807,-187.7022 571.6291,-184.0727"/>
<polygon fill="#191970" stroke="#191970" points="572.071,-187.5499 581.7916,-183.3357 571.5646,-180.5683 572.071,-187.5499"/>
</g>
<!-- Node167827 -->
<g id="node9" class="node">
<title>Node167827</title>
<g id="a_node9"><a xlink:href="quickjs_8c.html#a408b3a08f717d04623662251b8953e37" target="_top" xlink:title="get_sleb128">
<polygon fill="none" stroke="#000000" points="463.5,-152.5 463.5,-171.5 532.5,-171.5 532.5,-152.5 463.5,-152.5"/>
<text text-anchor="middle" x="498" y="-159.5" font-family="Helvetica,sans-Serif" font-size="10.00" fill="#000000">get_sleb128</text>
</a>
</g>
</g>
<!-- Node167825&#45;&gt;Node167827 -->
<g id="edge8" class="edge">
<title>Node167825&#45;&gt;Node167827</title>
<path fill="none" stroke="#191970" d="M388.842,-190.411C408.4428,-185.3094 432.6967,-178.9968 453.3605,-173.6185"/>
<polygon fill="#191970" stroke="#191970" points="454.3841,-176.9688 463.1801,-171.0627 452.6209,-170.1945 454.3841,-176.9688"/>
</g>
<!-- Node167827&#45;&gt;Node167826 -->
<g id="edge9" class="edge">
<title>Node167827&#45;&gt;Node167826</title>
<path fill="none" stroke="#191970" d="M532.8038,-167.7006C545.1259,-169.7189 559.1203,-172.0111 571.9784,-174.1171"/>
<polygon fill="#191970" stroke="#191970" points="571.5588,-177.595 581.993,-175.7575 572.6903,-170.687 571.5588,-177.595"/>
</g>
<!-- Node167829 -->
<g id="node11" class="node">
<title>Node167829</title>
<g id="a_node11"><a xlink:href="quickjs_8c.html#a06b76f5124fd985e35f4c652fd018d6d" target="_top" xlink:title="find_own_property">
<polygon fill="none" stroke="#ff0000" points="450,-503.5 450,-522.5 546,-522.5 546,-503.5 450,-503.5"/>
<text text-anchor="middle" x="498" y="-510.5" font-family="Helvetica,sans-Serif" font-size="10.00" fill="#000000">find_own_property</text>
</a>
</g>
</g>
<!-- Node167828&#45;&gt;Node167829 -->
<g id="edge11" class="edge">
<title>Node167828&#45;&gt;Node167829</title>
<path fill="none" stroke="#191970" d="M393.8377,-533.6898C408.2151,-530.834 424.5779,-527.5838 440.006,-524.5194"/>
<polygon fill="#191970" stroke="#191970" points="440.8528,-527.9196 449.9793,-522.5384 439.489,-521.0537 440.8528,-527.9196"/>
</g>
<!-- Node167831 -->
<g id="node12" class="node">
<title>Node167831</title>
<g id="a_node12"><a xlink:href="quickjs_8h.html#af931f06630ab719b5f82a16eb27effd1" target="_top" xlink:title="JS_ToCString">
<polygon fill="none" stroke="#ff0000" points="459,-541.5 459,-560.5 537,-560.5 537,-541.5 459,-541.5"/>
<text text-anchor="middle" x="498" y="-548.5" font-family="Helvetica,sans-Serif" font-size="10.00" fill="#000000">JS_ToCString</text>
</a>
</g>
</g>
<!-- Node167828&#45;&gt;Node167831 -->
<g id="edge12" class="edge">
<title>Node167828&#45;&gt;Node167831</title>
<path fill="none" stroke="#191970" d="M393.8377,-544.579C410.8839,-545.6298 430.7209,-546.8527 448.4822,-547.9475"/>
<polygon fill="#191970" stroke="#191970" points="448.4667,-551.4531 458.6631,-548.5751 448.8974,-544.4664 448.4667,-551.4531"/>
</g>
<!-- Node168284 -->
<g id="node16" class="node">
<title>Node168284</title>
<g id="a_node16"><a xlink:href="cutils_8h.html#a04e3983476063eb6fbab2fd74fc49fc6" target="_top" xlink:title="dbuf_init2">
<polygon fill="none" stroke="#ff0000" points="468.5,-408.5 468.5,-427.5 527.5,-427.5 527.5,-408.5 468.5,-408.5"/>
<text text-anchor="middle" x="498" y="-415.5" font-family="Helvetica,sans-Serif" font-size="10.00" fill="#000000">dbuf_init2</text>
</a>
</g>
</g>
<!-- Node168283&#45;&gt;Node168284 -->
<g id="edge16" class="edge">
<title>Node168283&#45;&gt;Node168284</title>
<path fill="none" stroke="#191970" d="M385.1297,-425.7308C406.8715,-424.2417 435.4198,-422.2863 458.365,-420.7147"/>
<polygon fill="#191970" stroke="#191970" points="458.731,-424.198 468.4685,-420.0227 458.2526,-417.2143 458.731,-424.198"/>
</g>
<!-- Node167920 -->
<g id="node17" class="node">
<title>Node167920</title>
<g id="a_node17"><a xlink:href="quickjs_8c.html#aa548c4ad5eacef7d9508100cfe6f6871" target="_top" xlink:title="js_realloc_rt">
<polygon fill="none" stroke="#000000" points="463.5,-446.5 463.5,-465.5 532.5,-465.5 532.5,-446.5 463.5,-446.5"/>
<text text-anchor="middle" x="498" y="-453.5" font-family="Helvetica,sans-Serif" font-size="10.00" fill="#000000">js_realloc_rt</text>
</a>
</g>
</g>
<!-- Node168283&#45;&gt;Node167920 -->
<g id="edge17" class="edge">
<title>Node168283&#45;&gt;Node167920</title>
<path fill="none" stroke="#191970" d="M385.1297,-434.3536C405.3209,-438.2259 431.3825,-443.224 453.3749,-447.4418"/>
<polygon fill="#191970" stroke="#191970" points="452.9978,-450.9332 463.4781,-449.3794 454.3163,-444.0584 452.9978,-450.9332"/>
</g>
</g>
</svg>
        <g id="navigator" transform="translate(0 0)" fill="#404254">
                <rect fill="#f2f5e9" fill-opacity="0.5" stroke="#606060" stroke-width=".5" x="0" y="0" width="60" height="60"/>
                <use id="zoomplus" xlink:href="#zoomPlus" x="17" y="9" onmousedown="handleZoom(evt,'in')"/>
                <use id="zoomminus" xlink:href="#zoomMin" x="42" y="9" onmousedown="handleZoom(evt,'out')"/>
                <use id="reset" xlink:href="#resetDef" x="30" y="36" onmousedown="handleReset()"/>
                <g id="arrowUp" xlink:href="#dirArrow" transform="translate(30 24)" onmousedown="handlePan(0,-1)">
                  <use xlink:href="#rim" fill="#404040">
                        <set attributeName="fill" to="#808080" begin="arrowUp.mouseover" end="arrowUp.mouseout"/>
                  </use>
                  <path fill="none" stroke="white" stroke-width="1.5" d="M0,-3.0v7 M-2.5,-0.5L0,-3.0L2.5,-0.5"/>
                </g>
                <g id="arrowRight" xlink:href="#dirArrow" transform="rotate(90) translate(36 -43)" onmousedown="handlePan(1,0)">
                  <use xlink:href="#rim" fill="#404040">
                        <set attributeName="fill" to="#808080" begin="arrowRight.mouseover" end="arrowRight.mouseout"/>
                  </use>
                  <path fill="none" stroke="white" stroke-width="1.5" d="M0,-3.0v7 M-2.5,-0.5L0,-3.0L2.5,-0.5"/>
                </g>
                <g id="arrowDown" xlink:href="#dirArrow" transform="rotate(180) translate(-30 -48)" onmousedown="handlePan(0,1)">
                  <use xlink:href="#rim" fill="#404040">
                        <set attributeName="fill" to="#808080" begin="arrowDown.mouseover" end="arrowDown.mouseout"/>
                  </use>
                  <path fill="none" stroke="white" stroke-width="1.5" d="M0,-3.0v7 M-2.5,-0.5L0,-3.0L2.5,-0.5"/>
                </g>
                <g id="arrowLeft" xlink:href="#dirArrow" transform="rotate(270) translate(-36 17)" onmousedown="handlePan(-1,0)">
                  <use xlink:href="#rim" fill="#404040">
                        <set attributeName="fill" to="#808080" begin="arrowLeft.mouseover" end="arrowLeft.mouseout"/>
                  </use>
                  <path fill="none" stroke="white" stroke-width="1.5" d="M0,-3.0v7 M-2.5,-0.5L0,-3.0L2.5,-0.5"/>
                </g>
        </g>
        <svg viewBox="0 0 15 15" width="100%" height="30px" preserveAspectRatio="xMaxYMin meet">
         <g id="arrow_out" transform="scale(0.3 0.3)">
          <a xlink:href="quickjs_8c_aeafb37b03b5560171754f8c4505b0f6b_cgraph_org.svg" target="_base">
           <rect id="button" ry="5" rx="5" y="6" x="6" height="38" width="38"
                fill="#f2f5e9" fill-opacity="0.5" stroke="#606060" stroke-width="1.0"/>
           <path id="arrow"
             d="M 11.500037,31.436501 C 11.940474,20.09759 22.043105,11.32322 32.158766,21.979434 L 37.068811,17.246167 C 37.068811,17.246167 37.088388,32 37.088388,32 L 22.160133,31.978069 C 22.160133,31.978069 26.997745,27.140456 26.997745,27.140456 C 18.528582,18.264221 13.291696,25.230495 11.500037,31.436501 z"
             style="fill:#404040;"/>
          </a>
         </g>
        </svg>
</svg>
