<?xml version="1.0" encoding="UTF-8" standalone="no"?>
<!DOCTYPE svg PUBLIC "-//W3C//DTD SVG 1.1//EN"
 "http://www.w3.org/Graphics/SVG/1.1/DTD/svg11.dtd">
<!-- Generated by graphviz version 2.40.1 (20161225.0304)
 -->
<!-- Title: JS_NewObjectFromShape Pages: 1 -->
<!--zoomable 1064 -->
<svg id="main" version="1.1" xmlns="http://www.w3.org/2000/svg" xmlns:xlink="http://www.w3.org/1999/xlink" xml:space="preserve" onload="init(evt)">
<style type="text/css"><![CDATA[
.edge:hover path { stroke: red; }
.edge:hover polygon { stroke: red; fill: red; }
]]></style>
<script type="text/javascript"><![CDATA[
var edges = document.getElementsByTagName('g');
if (edges && edges.length) {
  for (var i=0;i<edges.length;i++) {
    if (edges[i].id.substr(0,4)=='edge') {
      edges[i].setAttribute('class','edge');
    }
  }
}
]]></script>
        <defs>
                <circle id="rim" cx="0" cy="0" r="7"/>
                <circle id="rim2" cx="0" cy="0" r="3.5"/>
                <g id="zoomPlus">
                        <use xlink:href="#rim" fill="#404040">
                                <set attributeName="fill" to="#808080" begin="zoomplus.mouseover" end="zoomplus.mouseout"/>
                        </use>
                        <path d="M-4,0h8M0,-4v8" fill="none" stroke="white" stroke-width="1.5" pointer-events="none"/>
                </g>
                <g id="zoomMin">
                        <use xlink:href="#rim" fill="#404040">
                                <set attributeName="fill" to="#808080" begin="zoomminus.mouseover" end="zoomminus.mouseout"/>
                        </use>
                        <path d="M-4,0h8" fill="none" stroke="white" stroke-width="1.5" pointer-events="none"/>
                </g>
                <g id="dirArrow">
                        <path fill="none" stroke="white" stroke-width="1.5" d="M0,-3.0v7 M-2.5,-0.5L0,-3.0L2.5,-0.5"/>
                </g>
               <g id="resetDef">
                       <use xlink:href="#rim2" fill="#404040">
                               <set attributeName="fill" to="#808080" begin="reset.mouseover" end="reset.mouseout"/>
                       </use>
               </g>
        </defs>

<script type="text/javascript">
var viewWidth = 606;
var viewHeight = 1064;
var sectionId = 'dynsection-409';
</script>
<script xlink:href="svgpan.js"/>
<svg id="graph" class="graph">
<g id="viewport">
<title>JS_NewObjectFromShape</title>
<!-- Node136061 -->
<g id="node1" class="node">
<title>Node136061</title>
<polygon fill="#bfbfbf" stroke="#000000" points="0,-493.5 0,-512.5 133,-512.5 133,-493.5 0,-493.5"/>
<text text-anchor="middle" x="66.5" y="-500.5" font-family="Helvetica,sans-Serif" font-size="10.00" fill="#000000">JS_NewObjectFromShape</text>
</g>
<!-- Node136062 -->
<g id="node2" class="node">
<title>Node136062</title>
<g id="a_node2"><a xlink:href="quickjs_8c.html#ad4ba09e4c7ab9f28c144182e1aacf1f6" target="_top" xlink:title="JS_NewArray">
<polygon fill="none" stroke="#ff0000" points="196,-512.5 196,-531.5 273,-531.5 273,-512.5 196,-512.5"/>
<text text-anchor="middle" x="234.5" y="-519.5" font-family="Helvetica,sans-Serif" font-size="10.00" fill="#000000">JS_NewArray</text>
</a>
</g>
</g>
<!-- Node136061&#45;&gt;Node136062 -->
<g id="edge1" class="edge">
<title>Node136061&#45;&gt;Node136062</title>
<path fill="none" stroke="#191970" d="M143.4215,-511.6995C161.6167,-513.7572 180.2581,-515.8655 195.8981,-517.6343"/>
<polygon fill="#191970" stroke="#191970" points="143.7108,-508.2099 133.3808,-510.5639 142.9241,-515.1656 143.7108,-508.2099"/>
</g>
<!-- Node136692 -->
<g id="node30" class="node">
<title>Node136692</title>
<g id="a_node30"><a xlink:href="quickjs_8c.html#a73738c650f11459db0d7af3dcdf8316b" target="_top" xlink:title="JS_NewObjectProtoClass">
<polygon fill="none" stroke="#ff0000" points="169,-474.5 169,-493.5 300,-493.5 300,-474.5 169,-474.5"/>
<text text-anchor="middle" x="234.5" y="-481.5" font-family="Helvetica,sans-Serif" font-size="10.00" fill="#000000">JS_NewObjectProtoClass</text>
</a>
</g>
</g>
<!-- Node136061&#45;&gt;Node136692 -->
<g id="edge34" class="edge">
<title>Node136061&#45;&gt;Node136692</title>
<path fill="none" stroke="#191970" d="M143.3517,-494.3084C151.9028,-493.3414 160.5533,-492.363 168.9454,-491.4139"/>
<polygon fill="#191970" stroke="#191970" points="142.9241,-490.8344 133.3808,-495.4361 143.7108,-497.7901 142.9241,-490.8344"/>
</g>
<!-- Node136063 -->
<g id="node3" class="node">
<title>Node136063</title>
<g id="a_node3"><a xlink:href="structqjs_1_1js__traits_3_01std_1_1vector_3_01T_01_4_01_4.html#a20afbbfe45e088feaacb256ec77b8dd9" target="_top" xlink:title="qjs::js_traits\&lt; std\l::vector\&lt; T \&gt; \&gt;::wrap">
<polygon fill="none" stroke="#000000" points="352.5,-1025 352.5,-1055 462.5,-1055 462.5,-1025 352.5,-1025"/>
<text text-anchor="start" x="360.5" y="-1043" font-family="Helvetica,sans-Serif" font-size="10.00" fill="#000000">qjs::js_traits&lt; std</text>
<text text-anchor="middle" x="407.5" y="-1032" font-family="Helvetica,sans-Serif" font-size="10.00" fill="#000000">::vector&lt; T &gt; &gt;::wrap</text>
</a>
</g>
</g>
<!-- Node136062&#45;&gt;Node136063 -->
<g id="edge2" class="edge">
<title>Node136062&#45;&gt;Node136063</title>
<path fill="none" stroke="#191970" d="M236.0109,-541.8529C242.6912,-624.7063 272.1171,-941.9776 336,-1015 340.5024,-1020.1466 346.1258,-1024.2338 352.229,-1027.4798"/>
<polygon fill="#191970" stroke="#191970" points="239.491,-541.4624 235.218,-531.7675 232.5126,-542.0111 239.491,-541.4624"/>
</g>
<!-- Node136064 -->
<g id="node4" class="node">
<title>Node136064</title>
<g id="a_node4"><a xlink:href="quickjs-libc_8c.html#a9caf548a60b412734dc8a40a7ebc914e" target="_top" xlink:title="js_os_ttyGetWinSize">
<polygon fill="none" stroke="#000000" points="353,-986.5 353,-1005.5 462,-1005.5 462,-986.5 353,-986.5"/>
<text text-anchor="middle" x="407.5" y="-993.5" font-family="Helvetica,sans-Serif" font-size="10.00" fill="#000000">js_os_ttyGetWinSize</text>
</a>
</g>
</g>
<!-- Node136062&#45;&gt;Node136064 -->
<g id="edge3" class="edge">
<title>Node136062&#45;&gt;Node136064</title>
<path fill="none" stroke="#191970" d="M236.2335,-541.9494C243.5139,-621.2021 274.1454,-912.6043 336,-977 340.7157,-981.9094 346.5434,-985.6004 352.8206,-988.367"/>
<polygon fill="#191970" stroke="#191970" points="239.7069,-541.4955 235.3278,-531.8481 232.7349,-542.1207 239.7069,-541.4955"/>
</g>
<!-- Node136065 -->
<g id="node5" class="node">
<title>Node136065</title>
<g id="a_node5"><a xlink:href="quickjs-libc_8c.html#a0210b73e16d177f7668621a6573576aa" target="_top" xlink:title="make_obj_error">
<polygon fill="none" stroke="#ff0000" points="366,-948.5 366,-967.5 449,-967.5 449,-948.5 366,-948.5"/>
<text text-anchor="middle" x="407.5" y="-955.5" font-family="Helvetica,sans-Serif" font-size="10.00" fill="#000000">make_obj_error</text>
</a>
</g>
</g>
<!-- Node136062&#45;&gt;Node136065 -->
<g id="edge4" class="edge">
<title>Node136062&#45;&gt;Node136065</title>
<path fill="none" stroke="#191970" d="M236.8491,-541.8205C245.9905,-615.8209 281.4073,-874.7189 336,-934 343.8943,-942.5723 354.9415,-948.0849 365.9951,-951.6292"/>
<polygon fill="#191970" stroke="#191970" points="240.287,-541.0962 235.6087,-531.5903 233.3379,-541.9389 240.287,-541.0962"/>
</g>
<!-- Node136066 -->
<g id="node6" class="node">
<title>Node136066</title>
<g id="a_node6"><a xlink:href="quickjs-libc_8c.html#a64270f007df853e9d2f443383d26ec60" target="_top" xlink:title="js_os_readdir">
<polygon fill="none" stroke="#000000" points="519.5,-929.5 519.5,-948.5 593.5,-948.5 593.5,-929.5 519.5,-929.5"/>
<text text-anchor="middle" x="556.5" y="-936.5" font-family="Helvetica,sans-Serif" font-size="10.00" fill="#000000">js_os_readdir</text>
</a>
</g>
</g>
<!-- Node136062&#45;&gt;Node136066 -->
<g id="edge6" class="edge">
<title>Node136062&#45;&gt;Node136066</title>
<path fill="none" stroke="#191970" d="M236.9975,-541.8489C246.3111,-612.6269 281.3164,-851.0797 336,-901 362.2505,-924.9639 463.6468,-934.085 519.3399,-937.3382"/>
<polygon fill="#191970" stroke="#191970" points="240.4324,-541.1187 235.6819,-531.6486 233.4899,-542.0142 240.4324,-541.1187"/>
</g>
<!-- Node136072 -->
<g id="node7" class="node">
<title>Node136072</title>
<g id="a_node7"><a xlink:href="quickjs-libc_8c.html#aedcefc332980a5da1b0a3c512232d46f" target="_top" xlink:title="js_os_waitpid">
<polygon fill="none" stroke="#000000" points="369.5,-872.5 369.5,-891.5 445.5,-891.5 445.5,-872.5 369.5,-872.5"/>
<text text-anchor="middle" x="407.5" y="-879.5" font-family="Helvetica,sans-Serif" font-size="10.00" fill="#000000">js_os_waitpid</text>
</a>
</g>
</g>
<!-- Node136062&#45;&gt;Node136072 -->
<g id="edge7" class="edge">
<title>Node136062&#45;&gt;Node136072</title>
<path fill="none" stroke="#191970" d="M237.7969,-541.8003C249.1167,-607.4973 288.3393,-816.7283 336,-863 344.9389,-871.6784 357.369,-876.508 369.3614,-879.1596"/>
<polygon fill="#191970" stroke="#191970" points="241.1873,-540.859 236.0639,-531.5853 234.2859,-542.0299 241.1873,-540.859"/>
</g>
<!-- Node136073 -->
<g id="node8" class="node">
<title>Node136073</title>
<g id="a_node8"><a xlink:href="quickjs-libc_8c.html#a6d1c957c402e5cda23a3b00762208185" target="_top" xlink:title="js_os_pipe">
<polygon fill="none" stroke="#000000" points="376,-834.5 376,-853.5 439,-853.5 439,-834.5 376,-834.5"/>
<text text-anchor="middle" x="407.5" y="-841.5" font-family="Helvetica,sans-Serif" font-size="10.00" fill="#000000">js_os_pipe</text>
</a>
</g>
</g>
<!-- Node136062&#45;&gt;Node136073 -->
<g id="edge8" class="edge">
<title>Node136062&#45;&gt;Node136073</title>
<path fill="none" stroke="#191970" d="M238.5261,-541.5584C251.3554,-602.0739 292.9656,-784.6152 336,-825 346.677,-835.0197 362.0235,-839.8833 375.7634,-842.1961"/>
<polygon fill="#191970" stroke="#191970" points="241.9458,-540.8117 236.4717,-531.7406 235.0942,-542.2455 241.9458,-540.8117"/>
</g>
<!-- Node136074 -->
<g id="node9" class="node">
<title>Node136074</title>
<g id="a_node9"><a xlink:href="quickjs-libc_8c.html#ad04466feec6822a3b838baf229f6dfa0" target="_top" xlink:title="js_std_add_helpers">
<polygon fill="none" stroke="#ff0000" points="357,-796.5 357,-815.5 458,-815.5 458,-796.5 357,-796.5"/>
<text text-anchor="middle" x="407.5" y="-803.5" font-family="Helvetica,sans-Serif" font-size="10.00" fill="#000000">js_std_add_helpers</text>
</a>
</g>
</g>
<!-- Node136062&#45;&gt;Node136074 -->
<g id="edge9" class="edge">
<title>Node136062&#45;&gt;Node136074</title>
<path fill="none" stroke="#191970" d="M236.1018,-541.9439C241.1597,-591.2528 261.2176,-719.7557 336,-787 341.9214,-792.3245 349.1685,-796.1844 356.7517,-798.9768"/>
<polygon fill="#191970" stroke="#191970" points="239.5592,-541.3198 235.1541,-531.6841 232.5889,-541.9637 239.5592,-541.3198"/>
</g>
<!-- Node136076 -->
<g id="node10" class="node">
<title>Node136076</title>
<g id="a_node10"><a xlink:href="quickjs_8c.html#a72f4829a5b32f5445fe3f2a59efeb8ea" target="_top" xlink:title="js_build_rest">
<polygon fill="none" stroke="#000000" points="372,-758.5 372,-777.5 443,-777.5 443,-758.5 372,-758.5"/>
<text text-anchor="middle" x="407.5" y="-765.5" font-family="Helvetica,sans-Serif" font-size="10.00" fill="#000000">js_build_rest</text>
</a>
</g>
</g>
<!-- Node136062&#45;&gt;Node136076 -->
<g id="edge10" class="edge">
<title>Node136062&#45;&gt;Node136076</title>
<path fill="none" stroke="#191970" d="M238.0067,-541.5959C246.7019,-584.522 273.2573,-687.5212 336,-744 345.9264,-752.9354 359.2935,-758.5605 371.7837,-762.0946"/>
<polygon fill="#191970" stroke="#191970" points="241.4112,-540.7651 236.0904,-531.6033 234.5365,-542.0836 241.4112,-540.7651"/>
</g>
<!-- Node136077 -->
<g id="node11" class="node">
<title>Node136077</title>
<g id="a_node11"><a xlink:href="quickjs_8c.html#ac2894ff4edcdb4e6841bcce9c76081e3" target="_top" xlink:title="JS_CallInternal">
<polygon fill="none" stroke="#ff0000" points="515,-739.5 515,-758.5 598,-758.5 598,-739.5 515,-739.5"/>
<text text-anchor="middle" x="556.5" y="-746.5" font-family="Helvetica,sans-Serif" font-size="10.00" fill="#000000">JS_CallInternal</text>
</a>
</g>
</g>
<!-- Node136062&#45;&gt;Node136077 -->
<g id="edge13" class="edge">
<title>Node136062&#45;&gt;Node136077</title>
<path fill="none" stroke="#191970" d="M238.9757,-541.7324C248.9705,-580.9359 277.0147,-668.5049 336,-711 363.9722,-731.1522 459.1596,-741.6273 514.9061,-746.1567"/>
<polygon fill="#191970" stroke="#191970" points="242.3331,-540.7255 236.5776,-531.8303 235.5298,-542.3732 242.3331,-540.7255"/>
</g>
<!-- Node136264 -->
<g id="node12" class="node">
<title>Node136264</title>
<g id="a_node12"><a xlink:href="quickjs_8c.html#a035daca514f14aacc1e0cff81d8e423a" target="_top" xlink:title="js_parse_template">
<polygon fill="none" stroke="#ff0000" points="359.5,-682.5 359.5,-701.5 455.5,-701.5 455.5,-682.5 359.5,-682.5"/>
<text text-anchor="middle" x="407.5" y="-689.5" font-family="Helvetica,sans-Serif" font-size="10.00" fill="#000000">js_parse_template</text>
</a>
</g>
</g>
<!-- Node136062&#45;&gt;Node136264 -->
<g id="edge14" class="edge">
<title>Node136062&#45;&gt;Node136264</title>
<path fill="none" stroke="#191970" d="M241.9943,-541.122C255.6498,-573.4081 287.7046,-638.5683 336,-673 342.9024,-677.921 350.9982,-681.5675 359.2132,-684.2696"/>
<polygon fill="#191970" stroke="#191970" points="245.0951,-539.4574 238.0718,-531.5249 238.6154,-542.1058 245.0951,-539.4574"/>
</g>
<!-- Node136274 -->
<g id="node13" class="node">
<title>Node136274</title>
<g id="a_node13"><a xlink:href="quickjs_8c.html#a4b8ef2bb3b35e4a5f6ed8bd837a50e7c" target="_top" xlink:title="JS_ReadObjectRec">
<polygon fill="none" stroke="#ff0000" points="355.5,-626.5 355.5,-645.5 459.5,-645.5 459.5,-626.5 355.5,-626.5"/>
<text text-anchor="middle" x="407.5" y="-633.5" font-family="Helvetica,sans-Serif" font-size="10.00" fill="#000000">JS_ReadObjectRec</text>
</a>
</g>
</g>
<!-- Node136062&#45;&gt;Node136274 -->
<g id="edge15" class="edge">
<title>Node136062&#45;&gt;Node136274</title>
<path fill="none" stroke="#191970" d="M248.5772,-539.703C266.59,-561.1667 299.8185,-596.9497 336,-617 342.9653,-620.8599 350.7506,-623.9646 358.5501,-626.4535"/>
<polygon fill="#191970" stroke="#191970" points="251.0798,-537.2353 242.0304,-531.7254 245.6686,-541.676 251.0798,-537.2353"/>
</g>
<!-- Node136280 -->
<g id="node14" class="node">
<title>Node136280</title>
<g id="a_node14"><a xlink:href="quickjs_8c.html#a79c9d633e8f9d5fd70546406b9e6f176" target="_top" xlink:title="JS_GetOwnPropertyNames2">
<polygon fill="none" stroke="#ff0000" points="336,-588.5 336,-607.5 479,-607.5 479,-588.5 336,-588.5"/>
<text text-anchor="middle" x="407.5" y="-595.5" font-family="Helvetica,sans-Serif" font-size="10.00" fill="#000000">JS_GetOwnPropertyNames2</text>
</a>
</g>
</g>
<!-- Node136062&#45;&gt;Node136280 -->
<g id="edge17" class="edge">
<title>Node136062&#45;&gt;Node136280</title>
<path fill="none" stroke="#191970" d="M257.1475,-536.9167C277.1886,-549.5722 307.583,-567.4613 336,-579 345.0443,-582.6724 355.0202,-585.8389 364.5774,-588.4762"/>
<polygon fill="#191970" stroke="#191970" points="259.0204,-533.96 248.7122,-531.5119 255.2439,-539.8539 259.0204,-533.96"/>
</g>
<!-- Node136099 -->
<g id="node15" class="node">
<title>Node136099</title>
<g id="a_node15"><a xlink:href="quickjs_8c.html#a5e32da9a43002cb96dcbd62a1a340144" target="_top" xlink:title="js_array_from">
<polygon fill="none" stroke="#000000" points="369.5,-550.5 369.5,-569.5 445.5,-569.5 445.5,-550.5 369.5,-550.5"/>
<text text-anchor="middle" x="407.5" y="-557.5" font-family="Helvetica,sans-Serif" font-size="10.00" fill="#000000">js_array_from</text>
</a>
</g>
</g>
<!-- Node136062&#45;&gt;Node136099 -->
<g id="edge18" class="edge">
<title>Node136062&#45;&gt;Node136099</title>
<path fill="none" stroke="#191970" d="M283.437,-532.7492C310.6887,-538.7351 344.1136,-546.077 369.4006,-551.6313"/>
<polygon fill="#191970" stroke="#191970" points="283.8426,-529.2549 273.3246,-530.5279 282.3408,-536.0919 283.8426,-529.2549"/>
</g>
<!-- Node136162 -->
<g id="node16" class="node">
<title>Node136162</title>
<g id="a_node16"><a xlink:href="quickjs_8c.html#aed64f4c93145310216f62d7548856b8d" target="_top" xlink:title="js_array_of">
<polygon fill="none" stroke="#000000" points="375,-512.5 375,-531.5 440,-531.5 440,-512.5 375,-512.5"/>
<text text-anchor="middle" x="407.5" y="-519.5" font-family="Helvetica,sans-Serif" font-size="10.00" fill="#000000">js_array_of</text>
</a>
</g>
</g>
<!-- Node136062&#45;&gt;Node136162 -->
<g id="edge19" class="edge">
<title>Node136062&#45;&gt;Node136162</title>
<path fill="none" stroke="#191970" d="M283.3582,-522C312.6509,-522 349.0983,-522 374.9037,-522"/>
<polygon fill="#191970" stroke="#191970" points="283.3246,-518.5001 273.3246,-522 283.3245,-525.5001 283.3246,-518.5001"/>
</g>
<!-- Node136111 -->
<g id="node17" class="node">
<title>Node136111</title>
<g id="a_node17"><a xlink:href="quickjs_8c.html#aa0bbf08a7e91459c68a312fba7016c6d" target="_top" xlink:title="js_array_every">
<polygon fill="none" stroke="#000000" points="367.5,-474.5 367.5,-493.5 447.5,-493.5 447.5,-474.5 367.5,-474.5"/>
<text text-anchor="middle" x="407.5" y="-481.5" font-family="Helvetica,sans-Serif" font-size="10.00" fill="#000000">js_array_every</text>
</a>
</g>
</g>
<!-- Node136062&#45;&gt;Node136111 -->
<g id="edge20" class="edge">
<title>Node136062&#45;&gt;Node136111</title>
<path fill="none" stroke="#191970" d="M283.1833,-511.3066C309.7351,-505.4744 342.206,-498.342 367.3032,-492.8294"/>
<polygon fill="#191970" stroke="#191970" points="282.3408,-507.9081 273.3246,-513.4721 283.8426,-514.7451 282.3408,-507.9081"/>
</g>
<!-- Node136285 -->
<g id="node18" class="node">
<title>Node136285</title>
<g id="a_node18"><a xlink:href="quickjs_8c.html#a339d687d765143d3f8ea0ea89fa47b0f" target="_top" xlink:title="js_create_array">
<polygon fill="none" stroke="#ff0000" points="366,-436.5 366,-455.5 449,-455.5 449,-436.5 366,-436.5"/>
<text text-anchor="middle" x="407.5" y="-443.5" font-family="Helvetica,sans-Serif" font-size="10.00" fill="#000000">js_create_array</text>
</a>
</g>
</g>
<!-- Node136062&#45;&gt;Node136285 -->
<g id="edge21" class="edge">
<title>Node136062&#45;&gt;Node136285</title>
<path fill="none" stroke="#191970" d="M283.232,-511.0402C289.0864,-508.8133 294.8184,-506.1581 300,-503 319.8654,-490.8921 315.9991,-476.8827 336,-465 345.0546,-459.6206 355.6446,-455.7379 365.8572,-452.9452"/>
<polygon fill="#191970" stroke="#191970" points="281.6844,-507.8693 273.3394,-514.397 283.9338,-514.4981 281.6844,-507.8693"/>
</g>
<!-- Node136288 -->
<g id="node19" class="node">
<title>Node136288</title>
<g id="a_node19"><a xlink:href="quickjs_8c.html#a99f359a90bf2aa7902ec554d726d4fda" target="_top" xlink:title="js_string_split">
<polygon fill="none" stroke="#000000" points="369,-398.5 369,-417.5 446,-417.5 446,-398.5 369,-398.5"/>
<text text-anchor="middle" x="407.5" y="-405.5" font-family="Helvetica,sans-Serif" font-size="10.00" fill="#000000">js_string_split</text>
</a>
</g>
</g>
<!-- Node136062&#45;&gt;Node136288 -->
<g id="edge22" class="edge">
<title>Node136062&#45;&gt;Node136288</title>
<path fill="none" stroke="#191970" d="M283.0176,-513.0797C289.1642,-510.5217 295.0306,-507.2316 300,-503 328.4566,-478.7687 307.2714,-450.9083 336,-427 345.2801,-419.277 357.3853,-414.6638 368.9896,-411.918"/>
<polygon fill="#191970" stroke="#191970" points="281.4889,-509.9071 273.2166,-516.5268 283.8114,-516.5106 281.4889,-509.9071"/>
</g>
<!-- Node136195 -->
<g id="node20" class="node">
<title>Node136195</title>
<g id="a_node20"><a xlink:href="quickjs_8c.html#a9eb2d90f27f684820f9de13189502b7c" target="_top" xlink:title="js_regexp_exec">
<polygon fill="none" stroke="#ff0000" points="365,-360.5 365,-379.5 450,-379.5 450,-360.5 365,-360.5"/>
<text text-anchor="middle" x="407.5" y="-367.5" font-family="Helvetica,sans-Serif" font-size="10.00" fill="#000000">js_regexp_exec</text>
</a>
</g>
</g>
<!-- Node136062&#45;&gt;Node136195 -->
<g id="edge23" class="edge">
<title>Node136062&#45;&gt;Node136195</title>
<path fill="none" stroke="#191970" d="M282.693,-514.0647C289.084,-511.3707 295.1057,-507.7803 300,-503 338.0105,-465.8743 297.5725,-425.6939 336,-389 343.8958,-381.4604 354.4308,-376.8329 364.9819,-374.0149"/>
<polygon fill="#191970" stroke="#191970" points="281.4353,-510.7967 273.1537,-517.4046 283.7485,-517.4034 281.4353,-510.7967"/>
</g>
<!-- Node136189 -->
<g id="node21" class="node">
<title>Node136189</title>
<g id="a_node21"><a xlink:href="quickjs_8c.html#a41fc4304b39616e7be3500fe6ec881c2" target="_top" xlink:title="js_regexp_Symbol_match">
<polygon fill="none" stroke="#000000" points="343,-322.5 343,-341.5 472,-341.5 472,-322.5 343,-322.5"/>
<text text-anchor="middle" x="407.5" y="-329.5" font-family="Helvetica,sans-Serif" font-size="10.00" fill="#000000">js_regexp_Symbol_match</text>
</a>
</g>
</g>
<!-- Node136062&#45;&gt;Node136189 -->
<g id="edge24" class="edge">
<title>Node136062&#45;&gt;Node136189</title>
<path fill="none" stroke="#191970" d="M282.7925,-514.4767C289.2225,-511.7291 295.2294,-508.0142 300,-503 347.8538,-452.7032 287.581,-400.753 336,-351 339.7623,-347.1341 344.2146,-344.0252 349.0293,-341.5291"/>
<polygon fill="#191970" stroke="#191970" points="281.445,-511.2401 273.1639,-517.8488 283.7588,-517.8467 281.445,-511.2401"/>
</g>
<!-- Node136127 -->
<g id="node22" class="node">
<title>Node136127</title>
<g id="a_node22"><a xlink:href="quickjs_8c.html#a6a77bcdb9f7f18c13c108c99a198708b" target="_top" xlink:title="js_regexp_Symbol_replace">
<polygon fill="none" stroke="#000000" points="340.5,-284.5 340.5,-303.5 474.5,-303.5 474.5,-284.5 340.5,-284.5"/>
<text text-anchor="middle" x="407.5" y="-291.5" font-family="Helvetica,sans-Serif" font-size="10.00" fill="#000000">js_regexp_Symbol_replace</text>
</a>
</g>
</g>
<!-- Node136062&#45;&gt;Node136127 -->
<g id="edge25" class="edge">
<title>Node136062&#45;&gt;Node136127</title>
<path fill="none" stroke="#191970" d="M282.7766,-514.7627C289.2628,-511.9804 295.2907,-508.1798 300,-503 357.8171,-439.4071 277.4682,-375.9356 336,-313 339.5863,-309.1439 343.8578,-306.0356 348.5031,-303.5345"/>
<polygon fill="#191970" stroke="#191970" points="281.338,-511.5575 273.046,-518.1524 283.6408,-518.1679 281.338,-511.5575"/>
</g>
<!-- Node136168 -->
<g id="node23" class="node">
<title>Node136168</title>
<g id="a_node23"><a xlink:href="quickjs_8c.html#a79872a6d9d139e36d5d1894d16132024" target="_top" xlink:title="js_regexp_Symbol_split">
<polygon fill="none" stroke="#000000" points="347.5,-246.5 347.5,-265.5 467.5,-265.5 467.5,-246.5 347.5,-246.5"/>
<text text-anchor="middle" x="407.5" y="-253.5" font-family="Helvetica,sans-Serif" font-size="10.00" fill="#000000">js_regexp_Symbol_split</text>
</a>
</g>
</g>
<!-- Node136062&#45;&gt;Node136168 -->
<g id="edge26" class="edge">
<title>Node136062&#45;&gt;Node136168</title>
<path fill="none" stroke="#191970" d="M282.9185,-514.8897C289.3857,-512.0905 295.3706,-508.2514 300,-503 367.8407,-426.045 267.2942,-351.1837 336,-275 339.4408,-271.1848 343.5519,-268.0979 348.0399,-265.605"/>
<polygon fill="#191970" stroke="#191970" points="281.4828,-511.6839 273.1997,-518.29 283.7945,-518.2912 281.4828,-511.6839"/>
</g>
<!-- Node136276 -->
<g id="node24" class="node">
<title>Node136276</title>
<g id="a_node24"><a xlink:href="quickjs_8c.html#a756c1ab5dee9a6dd07723d7a075e2a53" target="_top" xlink:title="json_parse_value">
<polygon fill="none" stroke="#ff0000" points="361.5,-190.5 361.5,-209.5 453.5,-209.5 453.5,-190.5 361.5,-190.5"/>
<text text-anchor="middle" x="407.5" y="-197.5" font-family="Helvetica,sans-Serif" font-size="10.00" fill="#000000">json_parse_value</text>
</a>
</g>
</g>
<!-- Node136062&#45;&gt;Node136276 -->
<g id="edge27" class="edge">
<title>Node136062&#45;&gt;Node136276</title>
<path fill="none" stroke="#191970" d="M283.0218,-514.9798C289.4753,-512.1686 295.4289,-508.3021 300,-503 377.8989,-412.6438 267.277,-334.5174 336,-237 345.1785,-223.9757 360.3611,-215.214 374.3803,-209.5012"/>
<polygon fill="#191970" stroke="#191970" points="281.5884,-511.7735 273.3117,-518.3877 283.9065,-518.3785 281.5884,-511.7735"/>
</g>
<!-- Node136139 -->
<g id="node25" class="node">
<title>Node136139</title>
<g id="a_node25"><a xlink:href="quickjs_8c.html#a343a343b16bc3c9875050e99ee0d2884" target="_top" xlink:title="JS_JSONStringify">
<polygon fill="none" stroke="#ff0000" points="359,-152.5 359,-171.5 456,-171.5 456,-152.5 359,-152.5"/>
<text text-anchor="middle" x="407.5" y="-159.5" font-family="Helvetica,sans-Serif" font-size="10.00" fill="#000000">JS_JSONStringify</text>
</a>
</g>
</g>
<!-- Node136062&#45;&gt;Node136139 -->
<g id="edge29" class="edge">
<title>Node136062&#45;&gt;Node136139</title>
<path fill="none" stroke="#191970" d="M282.9117,-515.169C289.4356,-512.3379 295.4394,-508.4156 300,-503 392.7585,-392.8517 242.003,-290.0933 336,-181 341.9525,-174.0915 350.103,-169.5535 358.7744,-166.6027"/>
<polygon fill="#191970" stroke="#191970" points="281.3855,-511.994 273.0888,-518.583 283.6836,-518.6061 281.3855,-511.994"/>
</g>
<!-- Node136105 -->
<g id="node26" class="node">
<title>Node136105</title>
<g id="a_node26"><a xlink:href="quickjs_8c.html#a7a5c4f3ad3260974d9a0c75120ce5647" target="_top" xlink:title="js_promise_all">
<polygon fill="none" stroke="#000000" points="368,-114.5 368,-133.5 447,-133.5 447,-114.5 368,-114.5"/>
<text text-anchor="middle" x="407.5" y="-121.5" font-family="Helvetica,sans-Serif" font-size="10.00" fill="#000000">js_promise_all</text>
</a>
</g>
</g>
<!-- Node136062&#45;&gt;Node136105 -->
<g id="edge30" class="edge">
<title>Node136062&#45;&gt;Node136105</title>
<path fill="none" stroke="#191970" d="M282.9675,-515.2157C289.4842,-512.3786 295.4711,-508.4421 300,-503 402.8576,-379.4026 231.7526,-265.4274 336,-143 343.9939,-133.6121 356.047,-128.5932 367.9908,-125.9868"/>
<polygon fill="#191970" stroke="#191970" points="281.4426,-512.0405 273.149,-518.6334 283.7438,-518.6515 281.4426,-512.0405"/>
</g>
<!-- Node136384 -->
<g id="node27" class="node">
<title>Node136384</title>
<g id="a_node27"><a xlink:href="quickjs_8c.html#a00c02de2b16f15d8ed2218711defcc91" target="_top" xlink:title="js_bigint_div">
<polygon fill="none" stroke="#000000" points="372,-76.5 372,-95.5 443,-95.5 443,-76.5 372,-76.5"/>
<text text-anchor="middle" x="407.5" y="-83.5" font-family="Helvetica,sans-Serif" font-size="10.00" fill="#000000">js_bigint_div</text>
</a>
</g>
</g>
<!-- Node136062&#45;&gt;Node136384 -->
<g id="edge31" class="edge">
<title>Node136062&#45;&gt;Node136384</title>
<path fill="none" stroke="#191970" d="M283.013,-515.2534C289.5237,-512.4113 295.4969,-508.4635 300,-503 356.4826,-434.4717 278.7467,-172.8858 336,-105 344.7774,-94.5925 358.5445,-89.5462 371.6644,-87.2057"/>
<polygon fill="#191970" stroke="#191970" points="281.4891,-512.0779 273.198,-518.674 283.7928,-518.688 281.4891,-512.0779"/>
</g>
<!-- Node136385 -->
<g id="node28" class="node">
<title>Node136385</title>
<g id="a_node28"><a xlink:href="quickjs_8c.html#a4f87265a4db5dcaba49c1e93314983f1" target="_top" xlink:title="js_bigint_sqrt">
<polygon fill="none" stroke="#000000" points="370.5,-38.5 370.5,-57.5 444.5,-57.5 444.5,-38.5 370.5,-38.5"/>
<text text-anchor="middle" x="407.5" y="-45.5" font-family="Helvetica,sans-Serif" font-size="10.00" fill="#000000">js_bigint_sqrt</text>
</a>
</g>
</g>
<!-- Node136062&#45;&gt;Node136385 -->
<g id="edge32" class="edge">
<title>Node136062&#45;&gt;Node136385</title>
<path fill="none" stroke="#191970" d="M283.0507,-515.2844C289.5565,-512.4382 295.5183,-508.4811 300,-503 361.5396,-427.7382 273.614,-141.5617 336,-67 344.4069,-56.9523 357.4654,-51.8951 370.1341,-49.4466"/>
<polygon fill="#191970" stroke="#191970" points="281.5277,-512.1087 273.2387,-518.7074 283.8335,-518.7181 281.5277,-512.1087"/>
</g>
<!-- Node136100 -->
<g id="node29" class="node">
<title>Node136100</title>
<g id="a_node29"><a xlink:href="quickjs_8c.html#a5f46f50deddd4e3a23da24e8173db28e" target="_top" xlink:title="js_typed_array_from">
<polygon fill="none" stroke="#000000" points="355,-.5 355,-19.5 460,-19.5 460,-.5 355,-.5"/>
<text text-anchor="middle" x="407.5" y="-7.5" font-family="Helvetica,sans-Serif" font-size="10.00" fill="#000000">js_typed_array_from</text>
</a>
</g>
</g>
<!-- Node136062&#45;&gt;Node136100 -->
<g id="edge33" class="edge">
<title>Node136062&#45;&gt;Node136100</title>
<path fill="none" stroke="#191970" d="M283.0825,-515.3103C289.5842,-512.4608 295.5363,-508.4958 300,-503 366.5989,-421.0019 268.4789,-110.2405 336,-29 341.0079,-22.9746 347.6888,-18.7419 354.9612,-15.7896"/>
<polygon fill="#191970" stroke="#191970" points="281.5603,-512.1345 273.273,-518.7353 283.8678,-518.7433 281.5603,-512.1345"/>
</g>
<!-- Node136065&#45;&gt;Node136066 -->
<g id="edge5" class="edge">
<title>Node136065&#45;&gt;Node136066</title>
<path fill="none" stroke="#191970" d="M459.1067,-951.4193C478.9055,-948.8946 501.0936,-946.0652 519.2854,-943.7455"/>
<polygon fill="#191970" stroke="#191970" points="458.4817,-947.9705 449.0048,-952.7074 459.3672,-954.9143 458.4817,-947.9705"/>
</g>
<!-- Node136076&#45;&gt;Node136077 -->
<g id="edge11" class="edge">
<title>Node136076&#45;&gt;Node136077</title>
<path fill="none" stroke="#191970" d="M453.1344,-762.1809C472.7728,-759.6766 495.5768,-756.7687 514.7614,-754.3224"/>
<polygon fill="#191970" stroke="#191970" points="452.6661,-758.7121 443.1892,-763.449 453.5516,-765.6559 452.6661,-758.7121"/>
</g>
<!-- Node136077&#45;&gt;Node136077 -->
<g id="edge12" class="edge">
<title>Node136077&#45;&gt;Node136077</title>
<path fill="none" stroke="#191970" d="M528.8742,-767.6539C530.0289,-772.9368 539.2375,-777 556.5,-777 582.8047,-777 590.4084,-767.5653 579.3111,-758.7571"/>
<polygon fill="#191970" stroke="#191970" points="532.0076,-769.2176 533.6889,-758.7571 525.8512,-765.886 532.0076,-769.2176"/>
</g>
<!-- Node136274&#45;&gt;Node136274 -->
<g id="edge16" class="edge">
<title>Node136274&#45;&gt;Node136274</title>
<path fill="none" stroke="#191970" d="M379.8742,-654.6539C381.0289,-659.9368 390.2375,-664 407.5,-664 433.8047,-664 441.4084,-654.5653 430.3111,-645.7571"/>
<polygon fill="#191970" stroke="#191970" points="383.0076,-656.2176 384.6889,-645.7571 376.8512,-652.886 383.0076,-656.2176"/>
</g>
<!-- Node136276&#45;&gt;Node136276 -->
<g id="edge28" class="edge">
<title>Node136276&#45;&gt;Node136276</title>
<path fill="none" stroke="#191970" d="M379.8742,-218.6539C381.0289,-223.9368 390.2375,-228 407.5,-228 433.8047,-228 441.4084,-218.5653 430.3111,-209.7571"/>
<polygon fill="#191970" stroke="#191970" points="383.0076,-220.2176 384.6889,-209.7571 376.8512,-216.886 383.0076,-220.2176"/>
</g>
</g>
</svg>
        <g id="navigator" transform="translate(0 0)" fill="#404254">
                <rect fill="#f2f5e9" fill-opacity="0.5" stroke="#606060" stroke-width=".5" x="0" y="0" width="60" height="60"/>
                <use id="zoomplus" xlink:href="#zoomPlus" x="17" y="9" onmousedown="handleZoom(evt,'in')"/>
                <use id="zoomminus" xlink:href="#zoomMin" x="42" y="9" onmousedown="handleZoom(evt,'out')"/>
                <use id="reset" xlink:href="#resetDef" x="30" y="36" onmousedown="handleReset()"/>
                <g id="arrowUp" xlink:href="#dirArrow" transform="translate(30 24)" onmousedown="handlePan(0,-1)">
                  <use xlink:href="#rim" fill="#404040">
                        <set attributeName="fill" to="#808080" begin="arrowUp.mouseover" end="arrowUp.mouseout"/>
                  </use>
                  <path fill="none" stroke="white" stroke-width="1.5" d="M0,-3.0v7 M-2.5,-0.5L0,-3.0L2.5,-0.5"/>
                </g>
                <g id="arrowRight" xlink:href="#dirArrow" transform="rotate(90) translate(36 -43)" onmousedown="handlePan(1,0)">
                  <use xlink:href="#rim" fill="#404040">
                        <set attributeName="fill" to="#808080" begin="arrowRight.mouseover" end="arrowRight.mouseout"/>
                  </use>
                  <path fill="none" stroke="white" stroke-width="1.5" d="M0,-3.0v7 M-2.5,-0.5L0,-3.0L2.5,-0.5"/>
                </g>
                <g id="arrowDown" xlink:href="#dirArrow" transform="rotate(180) translate(-30 -48)" onmousedown="handlePan(0,1)">
                  <use xlink:href="#rim" fill="#404040">
                        <set attributeName="fill" to="#808080" begin="arrowDown.mouseover" end="arrowDown.mouseout"/>
                  </use>
                  <path fill="none" stroke="white" stroke-width="1.5" d="M0,-3.0v7 M-2.5,-0.5L0,-3.0L2.5,-0.5"/>
                </g>
                <g id="arrowLeft" xlink:href="#dirArrow" transform="rotate(270) translate(-36 17)" onmousedown="handlePan(-1,0)">
                  <use xlink:href="#rim" fill="#404040">
                        <set attributeName="fill" to="#808080" begin="arrowLeft.mouseover" end="arrowLeft.mouseout"/>
                  </use>
                  <path fill="none" stroke="white" stroke-width="1.5" d="M0,-3.0v7 M-2.5,-0.5L0,-3.0L2.5,-0.5"/>
                </g>
        </g>
        <svg viewBox="0 0 15 15" width="100%" height="30px" preserveAspectRatio="xMaxYMin meet">
         <g id="arrow_out" transform="scale(0.3 0.3)">
          <a xlink:href="quickjs_8c_a030c2e98b1775a7e3bdd13be1400b1fe_icgraph_org.svg" target="_base">
           <rect id="button" ry="5" rx="5" y="6" x="6" height="38" width="38"
                fill="#f2f5e9" fill-opacity="0.5" stroke="#606060" stroke-width="1.0"/>
           <path id="arrow"
             d="M 11.500037,31.436501 C 11.940474,20.09759 22.043105,11.32322 32.158766,21.979434 L 37.068811,17.246167 C 37.068811,17.246167 37.088388,32 37.088388,32 L 22.160133,31.978069 C 22.160133,31.978069 26.997745,27.140456 26.997745,27.140456 C 18.528582,18.264221 13.291696,25.230495 11.500037,31.436501 z"
             style="fill:#404040;"/>
          </a>
         </g>
        </svg>
</svg>
