<?xml version="1.0" encoding="UTF-8" standalone="no"?>
<!DOCTYPE svg PUBLIC "-//W3C//DTD SVG 1.1//EN"
 "http://www.w3.org/Graphics/SVG/1.1/DTD/svg11.dtd">
<!-- Generated by graphviz version 2.40.1 (20161225.0304)
 -->
<!-- Title: emit_goto Pages: 1 -->
<svg width="1272pt" height="686pt"
 viewBox="0.00 0.00 1272.00 686.37" xmlns="http://www.w3.org/2000/svg" xmlns:xlink="http://www.w3.org/1999/xlink">
<g id="graph0" class="graph" transform="scale(1 1) rotate(0) translate(4 682.366)">
<title>emit_goto</title>
<!-- Node285019 -->
<g id="node1" class="node">
<title>Node285019</title>
<polygon fill="#bfbfbf" stroke="#000000" points="0,-269.866 0,-288.866 59,-288.866 59,-269.866 0,-269.866"/>
<text text-anchor="middle" x="29.5" y="-276.866" font-family="Helvetica,sans-Serif" font-size="10.00" fill="#000000">emit_goto</text>
</g>
<!-- Node285020 -->
<g id="node2" class="node">
<title>Node285020</title>
<g id="a_node2"><a xlink:href="quickjs_8c.html#abb105b8bb34f4bf0a39ade5bc0252191" target="_top" xlink:title="emit_break">
<polygon fill="none" stroke="#000000" points="123,-516.866 123,-535.866 188,-535.866 188,-516.866 123,-516.866"/>
<text text-anchor="middle" x="155.5" y="-523.866" font-family="Helvetica,sans-Serif" font-size="10.00" fill="#000000">emit_break</text>
</a>
</g>
</g>
<!-- Node285019&#45;&gt;Node285020 -->
<g id="edge1" class="edge">
<title>Node285019&#45;&gt;Node285020</title>
<path fill="none" stroke="#191970" d="M32.9407,-298.7317C41.8863,-347.1556 67.1257,-471.8026 95,-502.366 102.3098,-510.381 112.6451,-515.7597 122.7088,-519.3523"/>
<polygon fill="#191970" stroke="#191970" points="36.383,-298.098 31.1534,-288.8838 29.4955,-299.3481 36.383,-298.098"/>
</g>
<!-- Node285021 -->
<g id="node3" class="node">
<title>Node285021</title>
<g id="a_node3"><a xlink:href="quickjs_8c.html#a9d844c16dcc71701436848074337d32c" target="_top" xlink:title="js_parse_statement\l_or_decl">
<polygon fill="none" stroke="#000000" points="262,-549.366 262,-579.366 364,-579.366 364,-549.366 262,-549.366"/>
<text text-anchor="start" x="270" y="-567.366" font-family="Helvetica,sans-Serif" font-size="10.00" fill="#000000">js_parse_statement</text>
<text text-anchor="middle" x="313" y="-556.366" font-family="Helvetica,sans-Serif" font-size="10.00" fill="#000000">_or_decl</text>
</a>
</g>
</g>
<!-- Node285019&#45;&gt;Node285021 -->
<g id="edge55" class="edge">
<title>Node285019&#45;&gt;Node285021</title>
<path fill="none" stroke="#191970" d="M31.4078,-298.8747C37.287,-354.6527 57.0632,-512.8802 95,-545.366 140.5933,-584.4081 212.948,-582.4951 261.6631,-575.309"/>
<polygon fill="#191970" stroke="#191970" points="34.8851,-298.4734 30.3892,-288.8798 27.9212,-299.1832 34.8851,-298.4734"/>
</g>
<!-- Node285023 -->
<g id="node5" class="node">
<title>Node285023</title>
<g id="a_node5"><a xlink:href="quickjs_8c.html#ac188b916dd086803591a67de7e7a85f6" target="_top" xlink:title="js_parse_for_in_of">
<polygon fill="none" stroke="#000000" points="1168,-507.866 1168,-526.866 1264,-526.866 1264,-507.866 1168,-507.866"/>
<text text-anchor="middle" x="1216" y="-514.866" font-family="Helvetica,sans-Serif" font-size="10.00" fill="#000000">js_parse_for_in_of</text>
</a>
</g>
</g>
<!-- Node285019&#45;&gt;Node285023 -->
<g id="edge50" class="edge">
<title>Node285019&#45;&gt;Node285023</title>
<path fill="none" stroke="#191970" d="M31.5947,-299.2963C38.1793,-358.6462 60.1177,-532.7965 95,-576.366 161.8548,-659.8705 206.0301,-678.366 313,-678.366 313,-678.366 313,-678.366 933,-678.366 1056.2274,-678.366 1174.8031,-561.6154 1207.29,-526.9551"/>
<polygon fill="#191970" stroke="#191970" points="35.0393,-298.5949 30.4832,-289.0297 28.08,-299.3484 35.0393,-298.5949"/>
</g>
<!-- Node285026 -->
<g id="node8" class="node">
<title>Node285026</title>
<g id="a_node8"><a xlink:href="quickjs_8c.html#acc9eb677cab8dfcf45f59381f8a19601" target="_top" xlink:title="js_parse_function_decl2">
<polygon fill="none" stroke="#ff0000" points="574,-346.866 574,-365.866 696,-365.866 696,-346.866 574,-346.866"/>
<text text-anchor="middle" x="635" y="-353.866" font-family="Helvetica,sans-Serif" font-size="10.00" fill="#000000">js_parse_function_decl2</text>
</a>
</g>
</g>
<!-- Node285019&#45;&gt;Node285026 -->
<g id="edge51" class="edge">
<title>Node285019&#45;&gt;Node285026</title>
<path fill="none" stroke="#191970" d="M69.1055,-283.9985C154.7271,-294.0736 363.4364,-318.9573 538,-342.366 549.636,-343.9264 562.0463,-345.6626 573.9681,-347.3667"/>
<polygon fill="#191970" stroke="#191970" points="69.3859,-280.5074 59.0457,-282.8163 68.5688,-287.4596 69.3859,-280.5074"/>
</g>
<!-- Node285030 -->
<g id="node11" class="node">
<title>Node285030</title>
<g id="a_node11"><a xlink:href="quickjs_8c.html#aff9f2e2a1548acfc8307a4070bb444ec" target="_top" xlink:title="js_parse_destructing\l_element">
<polygon fill="none" stroke="#ff0000" points="1025,-398.366 1025,-428.366 1132,-428.366 1132,-398.366 1025,-398.366"/>
<text text-anchor="start" x="1033" y="-416.366" font-family="Helvetica,sans-Serif" font-size="10.00" fill="#000000">js_parse_destructing</text>
<text text-anchor="middle" x="1078.5" y="-405.366" font-family="Helvetica,sans-Serif" font-size="10.00" fill="#000000">_element</text>
</a>
</g>
</g>
<!-- Node285019&#45;&gt;Node285030 -->
<g id="edge49" class="edge">
<title>Node285019&#45;&gt;Node285030</title>
<path fill="none" stroke="#191970" d="M39.9603,-298.0612C51.0981,-316.021 70.4882,-342.2992 95,-355.366 402.4024,-519.2364 528.7882,-398.4536 877,-408.366 927.0203,-409.7899 984.032,-411.1832 1024.6167,-412.1357"/>
<polygon fill="#191970" stroke="#191970" points="42.7474,-295.8984 34.6415,-289.076 36.7236,-299.4643 42.7474,-295.8984"/>
</g>
<!-- Node285052 -->
<g id="node12" class="node">
<title>Node285052</title>
<g id="a_node12"><a xlink:href="quickjs_8c.html#a1e86277b96b55991d572603e00fef94d" target="_top" xlink:title="emit_class_field_init">
<polygon fill="none" stroke="#000000" points="421.5,-250.866 421.5,-269.866 526.5,-269.866 526.5,-250.866 421.5,-250.866"/>
<text text-anchor="middle" x="474" y="-257.866" font-family="Helvetica,sans-Serif" font-size="10.00" fill="#000000">emit_class_field_init</text>
</a>
</g>
</g>
<!-- Node285019&#45;&gt;Node285052 -->
<g id="edge24" class="edge">
<title>Node285019&#45;&gt;Node285052</title>
<path fill="none" stroke="#191970" d="M69.1928,-277.6693C149.4814,-274.2374 331.1668,-266.4713 421.2804,-262.6195"/>
<polygon fill="#191970" stroke="#191970" points="68.8505,-274.1807 59.0091,-278.1046 69.1495,-281.1743 68.8505,-274.1807"/>
</g>
<!-- Node285053 -->
<g id="node13" class="node">
<title>Node285053</title>
<g id="a_node13"><a xlink:href="quickjs_8c.html#a38e4107378b0d9abd638e4fe13541678" target="_top" xlink:title="emit_class_init_start">
<polygon fill="none" stroke="#000000" points="420.5,-212.866 420.5,-231.866 527.5,-231.866 527.5,-212.866 420.5,-212.866"/>
<text text-anchor="middle" x="474" y="-219.866" font-family="Helvetica,sans-Serif" font-size="10.00" fill="#000000">emit_class_init_start</text>
</a>
</g>
</g>
<!-- Node285019&#45;&gt;Node285053 -->
<g id="edge27" class="edge">
<title>Node285019&#45;&gt;Node285053</title>
<path fill="none" stroke="#191970" d="M69.1875,-271.6804C77.6879,-270.1505 86.6291,-268.6285 95,-267.366 210.4787,-249.9499 346.5946,-235.1849 420.1944,-227.6759"/>
<polygon fill="#191970" stroke="#191970" points="68.308,-268.2833 59.1055,-273.5334 69.5734,-275.168 68.308,-268.2833"/>
</g>
<!-- Node285055 -->
<g id="node15" class="node">
<title>Node285055</title>
<g id="a_node15"><a xlink:href="quickjs_8c.html#acea69d5aa6481a035d0833b8bce455f5" target="_top" xlink:title="emit_return">
<polygon fill="none" stroke="#000000" points="123,-326.866 123,-345.866 188,-345.866 188,-326.866 123,-326.866"/>
<text text-anchor="middle" x="155.5" y="-333.866" font-family="Helvetica,sans-Serif" font-size="10.00" fill="#000000">emit_return</text>
</a>
</g>
</g>
<!-- Node285019&#45;&gt;Node285055 -->
<g id="edge31" class="edge">
<title>Node285019&#45;&gt;Node285055</title>
<path fill="none" stroke="#191970" d="M56.2454,-293.5179C68.0153,-299.569 82.0771,-306.5612 95,-312.366 106.3384,-317.459 119.103,-322.6064 129.9748,-326.821"/>
<polygon fill="#191970" stroke="#191970" points="57.8511,-290.408 47.3631,-288.9074 54.6262,-296.6209 57.8511,-290.408"/>
</g>
<!-- Node285039 -->
<g id="node16" class="node">
<title>Node285039</title>
<g id="a_node16"><a xlink:href="quickjs_8c.html#a4fa2fc1719feb03edf64eaf034103fd2" target="_top" xlink:title="js_parse_assign_expr">
<polygon fill="none" stroke="#ff0000" points="418.5,-136.866 418.5,-155.866 529.5,-155.866 529.5,-136.866 418.5,-136.866"/>
<text text-anchor="middle" x="474" y="-143.866" font-family="Helvetica,sans-Serif" font-size="10.00" fill="#000000">js_parse_assign_expr</text>
</a>
</g>
</g>
<!-- Node285019&#45;&gt;Node285039 -->
<g id="edge45" class="edge">
<title>Node285019&#45;&gt;Node285039</title>
<path fill="none" stroke="#191970" d="M55.2126,-264.9155C67.0752,-258.6416 81.4954,-251.5576 95,-246.366 209.4921,-202.3517 350.6488,-170.7426 424.1603,-155.8901"/>
<polygon fill="#191970" stroke="#191970" points="53.4493,-261.89 46.3138,-269.7217 56.7757,-268.0491 53.4493,-261.89"/>
</g>
<!-- Node285038 -->
<g id="node17" class="node">
<title>Node285038</title>
<g id="a_node17"><a xlink:href="quickjs_8c.html#abd2cbff624ea609dbf883fb1a2f048cd" target="_top" xlink:title="js_parse_cond_expr">
<polygon fill="none" stroke="#000000" points="583,-42.866 583,-61.866 687,-61.866 687,-42.866 583,-42.866"/>
<text text-anchor="middle" x="635" y="-49.866" font-family="Helvetica,sans-Serif" font-size="10.00" fill="#000000">js_parse_cond_expr</text>
</a>
</g>
</g>
<!-- Node285019&#45;&gt;Node285038 -->
<g id="edge48" class="edge">
<title>Node285019&#45;&gt;Node285038</title>
<path fill="none" stroke="#191970" d="M32.8334,-259.6691C41.2105,-212.7321 64.661,-96.4732 95,-73.366 170.2908,-16.0218 462.2933,-36.0192 582.671,-47.0699"/>
<polygon fill="#191970" stroke="#191970" points="29.3412,-259.3221 31.0733,-269.7744 36.2374,-260.5234 29.3412,-259.3221"/>
</g>
<!-- Node285056 -->
<g id="node18" class="node">
<title>Node285056</title>
<g id="a_node18"><a xlink:href="quickjs_8c.html#a98ab69061f85c400e0eed2c0eb47f49b" target="_top" xlink:title="js_emit_spread_code">
<polygon fill="none" stroke="#000000" points="732,-469.866 732,-488.866 841,-488.866 841,-469.866 732,-469.866"/>
<text text-anchor="middle" x="786.5" y="-476.866" font-family="Helvetica,sans-Serif" font-size="10.00" fill="#000000">js_emit_spread_code</text>
</a>
</g>
</g>
<!-- Node285019&#45;&gt;Node285056 -->
<g id="edge43" class="edge">
<title>Node285019&#45;&gt;Node285056</title>
<path fill="none" stroke="#191970" d="M32.783,-299.0735C39.0871,-330.6479 55.8959,-392.4575 95,-426.366 171.1039,-492.3581 212.2688,-488.366 313,-488.366 313,-488.366 313,-488.366 474,-488.366 564.3695,-488.366 669.378,-484.5589 731.7564,-481.8969"/>
<polygon fill="#191970" stroke="#191970" points="36.166,-298.1178 30.9139,-288.9164 29.2816,-299.3848 36.166,-298.1178"/>
</g>
<!-- Node285037 -->
<g id="node19" class="node">
<title>Node285037</title>
<g id="a_node19"><a xlink:href="quickjs_8c.html#a2a6a8f6738ae03f046617522b9781245" target="_top" xlink:title="js_parse_coalesce_expr">
<polygon fill="none" stroke="#000000" points="252,-80.866 252,-99.866 374,-99.866 374,-80.866 252,-80.866"/>
<text text-anchor="middle" x="313" y="-87.866" font-family="Helvetica,sans-Serif" font-size="10.00" fill="#000000">js_parse_coalesce_expr</text>
</a>
</g>
</g>
<!-- Node285019&#45;&gt;Node285037 -->
<g id="edge46" class="edge">
<title>Node285019&#45;&gt;Node285037</title>
<path fill="none" stroke="#191970" d="M30.6716,-259.2472C33.985,-222.679 46.6499,-145.7407 95,-109.366 143.2704,-73.0512 215.675,-74.5168 263.614,-80.8412"/>
<polygon fill="#191970" stroke="#191970" points="27.1529,-259.364 29.891,-269.5989 34.1331,-259.8904 27.1529,-259.364"/>
</g>
<!-- Node285036 -->
<g id="node20" class="node">
<title>Node285036</title>
<g id="a_node20"><a xlink:href="quickjs_8c.html#a2af8c0e05d949d0ae23d94c8e73e5494" target="_top" xlink:title="js_parse_logical_and_or">
<polygon fill="none" stroke="#000000" points="95,-118.866 95,-137.866 216,-137.866 216,-118.866 95,-118.866"/>
<text text-anchor="middle" x="155.5" y="-125.866" font-family="Helvetica,sans-Serif" font-size="10.00" fill="#000000">js_parse_logical_and_or</text>
</a>
</g>
</g>
<!-- Node285019&#45;&gt;Node285036 -->
<g id="edge52" class="edge">
<title>Node285019&#45;&gt;Node285036</title>
<path fill="none" stroke="#191970" d="M37.865,-260.3436C48.6795,-237.2245 69.2214,-197.8974 95,-170.366 107.4972,-157.019 124.9103,-145.4779 137.8479,-137.8899"/>
<polygon fill="#191970" stroke="#191970" points="34.5523,-259.1731 33.5968,-269.7247 40.9239,-262.072 34.5523,-259.1731"/>
</g>
<!-- Node285057 -->
<g id="node21" class="node">
<title>Node285057</title>
<g id="a_node21"><a xlink:href="quickjs_8c.html#a964237617fb99ed93ebe4abda62d6c84" target="_top" xlink:title="optional_chain_test">
<polygon fill="none" stroke="#000000" points="262.5,-4.866 262.5,-23.866 363.5,-23.866 363.5,-4.866 262.5,-4.866"/>
<text text-anchor="middle" x="313" y="-11.866" font-family="Helvetica,sans-Serif" font-size="10.00" fill="#000000">optional_chain_test</text>
</a>
</g>
</g>
<!-- Node285019&#45;&gt;Node285057 -->
<g id="edge56" class="edge">
<title>Node285019&#45;&gt;Node285057</title>
<path fill="none" stroke="#191970" d="M32.0024,-259.6832C39.0581,-207.4945 60.8483,-67.5743 95,-38.366 140.8641,.8595 213.5026,.7128 262.18,-5.0887"/>
<polygon fill="#191970" stroke="#191970" points="28.5221,-259.3049 30.6882,-269.6759 35.4623,-260.2177 28.5221,-259.3049"/>
</g>
<!-- Node285020&#45;&gt;Node285021 -->
<g id="edge2" class="edge">
<title>Node285020&#45;&gt;Node285021</title>
<path fill="none" stroke="#191970" d="M198.0255,-536.6261C217.6799,-541.3681 241.1834,-547.0388 261.8031,-552.0137"/>
<polygon fill="#191970" stroke="#191970" points="198.6761,-533.1827 188.1341,-534.2396 197.0343,-539.9875 198.6761,-533.1827"/>
</g>
<!-- Node285021&#45;&gt;Node285021 -->
<g id="edge9" class="edge">
<title>Node285021&#45;&gt;Node285021</title>
<path fill="none" stroke="#191970" d="M285.2807,-589.8239C288.721,-594.545 297.9608,-597.866 313,-597.866 337.6797,-597.866 346.7418,-588.9226 340.1862,-579.525"/>
<polygon fill="#191970" stroke="#191970" points="288.7921,-589.6926 285.8138,-579.525 281.8014,-589.3307 288.7921,-589.6926"/>
</g>
<!-- Node285022 -->
<g id="node4" class="node">
<title>Node285022</title>
<g id="a_node4"><a xlink:href="quickjs_8c.html#a729d43e44d20f1ed655cd9f4843995d3" target="_top" xlink:title="js_parse_statement">
<polygon fill="none" stroke="#000000" points="423,-554.866 423,-573.866 525,-573.866 525,-554.866 423,-554.866"/>
<text text-anchor="middle" x="474" y="-561.866" font-family="Helvetica,sans-Serif" font-size="10.00" fill="#000000">js_parse_statement</text>
</a>
</g>
</g>
<!-- Node285021&#45;&gt;Node285022 -->
<g id="edge3" class="edge">
<title>Node285021&#45;&gt;Node285022</title>
<path fill="none" stroke="#191970" d="M374.6606,-557.783C390.5694,-557.4961 407.5183,-557.5788 422.8279,-558.031"/>
<polygon fill="#191970" stroke="#191970" points="374.299,-554.2905 364.3841,-558.0248 374.4636,-561.2885 374.299,-554.2905"/>
</g>
<!-- Node285024 -->
<g id="node6" class="node">
<title>Node285024</title>
<g id="a_node6"><a xlink:href="quickjs_8c.html#acc0cac53be5317d9cab6a79afcd7da48" target="_top" xlink:title="js_parse_block">
<polygon fill="none" stroke="#000000" points="433,-630.866 433,-649.866 515,-649.866 515,-630.866 433,-630.866"/>
<text text-anchor="middle" x="474" y="-637.866" font-family="Helvetica,sans-Serif" font-size="10.00" fill="#000000">js_parse_block</text>
</a>
</g>
</g>
<!-- Node285021&#45;&gt;Node285024 -->
<g id="edge7" class="edge">
<title>Node285021&#45;&gt;Node285024</title>
<path fill="none" stroke="#191970" d="M362.9859,-584.1867C377.9051,-591.8412 394.4341,-600.313 410,-607.366 428.5913,-615.7898 451.0911,-623.7281 463.855,-630.7603"/>
<polygon fill="#191970" stroke="#191970" points="364.4235,-580.9906 353.9276,-579.5462 361.2319,-587.2207 364.4235,-580.9906"/>
</g>
<!-- Node285025 -->
<g id="node7" class="node">
<title>Node285025</title>
<g id="a_node7"><a xlink:href="quickjs_8c.html#ab59a3267a100decc9d2d81eb3297794a" target="_top" xlink:title="js_parse_source_element">
<polygon fill="none" stroke="#ff0000" points="410,-364.866 410,-383.866 538,-383.866 538,-364.866 410,-364.866"/>
<text text-anchor="middle" x="474" y="-371.866" font-family="Helvetica,sans-Serif" font-size="10.00" fill="#000000">js_parse_source_element</text>
</a>
</g>
</g>
<!-- Node285021&#45;&gt;Node285025 -->
<g id="edge10" class="edge">
<title>Node285021&#45;&gt;Node285025</title>
<path fill="none" stroke="#191970" d="M329.0875,-540.976C347.5558,-514.6587 379.2723,-471.0578 410,-436.366 427.4373,-416.6792 449.9383,-395.7982 463.0883,-383.9905"/>
<polygon fill="#191970" stroke="#191970" points="326.2013,-538.9958 323.3527,-549.2006 331.9433,-542.9996 326.2013,-538.9958"/>
</g>
<!-- Node285022&#45;&gt;Node285021 -->
<g id="edge6" class="edge">
<title>Node285022&#45;&gt;Node285021</title>
<path fill="none" stroke="#191970" d="M412.5595,-570.9449C396.6603,-571.2353 379.7087,-571.156 364.3841,-570.7072"/>
<polygon fill="#191970" stroke="#191970" points="412.9139,-574.4376 422.8279,-570.701 412.7475,-567.4396 412.9139,-574.4376"/>
</g>
<!-- Node285022&#45;&gt;Node285023 -->
<g id="edge4" class="edge">
<title>Node285022&#45;&gt;Node285023</title>
<path fill="none" stroke="#191970" d="M535.3146,-564.366C598.3236,-564.366 699.2613,-564.366 786.5,-564.366 786.5,-564.366 786.5,-564.366 933,-564.366 1023.6449,-564.366 1128.4414,-540.6107 1181.4528,-526.8771"/>
<polygon fill="#191970" stroke="#191970" points="535.153,-560.8661 525.153,-564.366 535.1529,-567.8661 535.153,-560.8661"/>
</g>
<!-- Node285023&#45;&gt;Node285021 -->
<g id="edge5" class="edge">
<title>Node285023&#45;&gt;Node285021</title>
<path fill="none" stroke="#191970" d="M1192.5811,-532.327C1176.1927,-542.1824 1153.474,-554.6467 1132,-562.366 1047.1049,-592.8831 1023.2135,-602.366 933,-602.366 635,-602.366 635,-602.366 635,-602.366 534.6441,-602.366 509.3903,-597.2543 410,-583.366 395.0442,-581.2761 378.9087,-578.3779 364.1716,-575.4741"/>
<polygon fill="#191970" stroke="#191970" points="1194.7546,-535.0994 1201.4416,-526.8814 1191.0893,-529.1357 1194.7546,-535.0994"/>
</g>
<!-- Node285024&#45;&gt;Node285021 -->
<g id="edge8" class="edge">
<title>Node285024&#45;&gt;Node285021</title>
<path fill="none" stroke="#191970" d="M423.3582,-631.0602C418.8089,-629.2366 414.2999,-627.3143 410,-625.366 380.0647,-611.8022 346.5676,-592.9911 327.8082,-579.377"/>
<polygon fill="#191970" stroke="#191970" points="422.1084,-634.3294 432.6986,-634.6415 424.6144,-627.7934 422.1084,-634.3294"/>
</g>
<!-- Node285025&#45;&gt;Node285026 -->
<g id="edge11" class="edge">
<title>Node285025&#45;&gt;Node285026</title>
<path fill="none" stroke="#191970" d="M548.1006,-366.0814C556.683,-365.1219 565.363,-364.1515 573.7471,-363.2141"/>
<polygon fill="#191970" stroke="#191970" points="547.6432,-362.6107 538.0941,-367.2002 548.4211,-369.5673 547.6432,-362.6107"/>
</g>
<!-- Node285028 -->
<g id="node9" class="node">
<title>Node285028</title>
<g id="a_node9"><a xlink:href="quickjs_8c.html#a00eb789430243c24dab4a63ad6a79653" target="_top" xlink:title="js_parse_class">
<polygon fill="none" stroke="#ff0000" points="745.5,-251.866 745.5,-270.866 827.5,-270.866 827.5,-251.866 745.5,-251.866"/>
<text text-anchor="middle" x="786.5" y="-258.866" font-family="Helvetica,sans-Serif" font-size="10.00" fill="#000000">js_parse_class</text>
</a>
</g>
</g>
<!-- Node285026&#45;&gt;Node285028 -->
<g id="edge12" class="edge">
<title>Node285026&#45;&gt;Node285028</title>
<path fill="none" stroke="#191970" d="M658.9516,-341.3468C690.381,-321.6386 744.6421,-287.6135 771.099,-271.0234"/>
<polygon fill="#191970" stroke="#191970" points="656.9731,-338.4562 650.3604,-346.7341 660.6919,-344.3867 656.9731,-338.4562"/>
</g>
<!-- Node285028&#45;&gt;Node285021 -->
<g id="edge23" class="edge">
<title>Node285028&#45;&gt;Node285021</title>
<path fill="none" stroke="#191970" d="M775.6135,-279.8155C760.3985,-304.3088 730.7069,-347.6843 696,-375.366 585.813,-463.2496 535.6972,-448.6094 410,-512.366 386.3134,-524.3804 359.7519,-538.6783 340.4206,-549.2379"/>
<polygon fill="#191970" stroke="#191970" points="778.6829,-281.5041 780.8852,-271.1406 772.7009,-277.8688 778.6829,-281.5041"/>
</g>
<!-- Node285029 -->
<g id="node10" class="node">
<title>Node285029</title>
<g id="a_node10"><a xlink:href="quickjs_8c.html#acdcc62310b4f6f73fa7bc7267b18b1d4" target="_top" xlink:title="js_parse_postfix_expr">
<polygon fill="none" stroke="#ff0000" points="877,-251.866 877,-270.866 989,-270.866 989,-251.866 877,-251.866"/>
<text text-anchor="middle" x="933" y="-258.866" font-family="Helvetica,sans-Serif" font-size="10.00" fill="#000000">js_parse_postfix_expr</text>
</a>
</g>
</g>
<!-- Node285028&#45;&gt;Node285029 -->
<g id="edge13" class="edge">
<title>Node285028&#45;&gt;Node285029</title>
<path fill="none" stroke="#191970" d="M837.9894,-254.888C850.5471,-254.5653 864.0433,-254.5297 876.8077,-254.7814"/>
<polygon fill="#191970" stroke="#191970" points="837.5777,-251.3996 827.6983,-255.2267 837.808,-258.3958 837.5777,-251.3996"/>
</g>
<!-- Node285029&#45;&gt;Node285023 -->
<g id="edge22" class="edge">
<title>Node285029&#45;&gt;Node285023</title>
<path fill="none" stroke="#191970" d="M962.6119,-275.3964C1004.0342,-296.0625 1080.0238,-337.864 1132,-389.366 1170.1394,-427.1574 1200.3901,-485.0046 1211.4551,-507.7273"/>
<polygon fill="#191970" stroke="#191970" points="964.107,-272.2313 953.5891,-270.9572 961.0168,-278.5123 964.107,-272.2313"/>
</g>
<!-- Node285029&#45;&gt;Node285028 -->
<g id="edge14" class="edge">
<title>Node285029&#45;&gt;Node285028</title>
<path fill="none" stroke="#191970" d="M866.7324,-268.0886C853.4397,-268.193 839.8375,-267.9986 827.6983,-267.5053"/>
<polygon fill="#191970" stroke="#191970" points="866.8566,-271.5874 876.8077,-267.9506 866.7607,-264.588 866.8566,-271.5874"/>
</g>
<!-- Node285029&#45;&gt;Node285029 -->
<g id="edge21" class="edge">
<title>Node285029&#45;&gt;Node285029</title>
<path fill="none" stroke="#191970" d="M906.1208,-280.0199C907.2444,-285.3028 916.2041,-289.366 933,-289.366 958.5938,-289.366 965.9919,-279.9312 955.1946,-271.123"/>
<polygon fill="#191970" stroke="#191970" points="909.2433,-281.6021 910.8054,-271.123 903.0494,-278.3407 909.2433,-281.6021"/>
</g>
<!-- Node285029&#45;&gt;Node285030 -->
<g id="edge15" class="edge">
<title>Node285029&#45;&gt;Node285030</title>
<path fill="none" stroke="#191970" d="M968.0784,-276.7433C975.2764,-282.0714 982.6024,-288.1652 989,-294.366 1007.3914,-312.1917 1008.8613,-319.4778 1025,-339.366 1041.3008,-359.4538 1060.6359,-382.8367 1071.017,-398.3301"/>
<polygon fill="#191970" stroke="#191970" points="969.9422,-273.7751 959.7507,-270.8797 965.9122,-279.4987 969.9422,-273.7751"/>
</g>
<!-- Node285030&#45;&gt;Node285021 -->
<g id="edge19" class="edge">
<title>Node285030&#45;&gt;Node285021</title>
<path fill="none" stroke="#191970" d="M1050.1421,-434.5172C1033.1253,-446.4039 1010.6441,-460.7406 989,-470.366 903.6785,-508.3093 879.878,-526.366 786.5,-526.366 635,-526.366 635,-526.366 635,-526.366 534.6441,-526.366 509.3903,-531.4777 410,-545.366 395.0442,-547.4558 378.9087,-550.354 364.1716,-553.2579"/>
<polygon fill="#191970" stroke="#191970" points="1052.3913,-437.2124 1058.5092,-428.5625 1048.3324,-431.5093 1052.3913,-437.2124"/>
</g>
<!-- Node285030&#45;&gt;Node285023 -->
<g id="edge18" class="edge">
<title>Node285030&#45;&gt;Node285023</title>
<path fill="none" stroke="#191970" d="M1106.7729,-434.7506C1136.3936,-457.1546 1181.5832,-491.3344 1203.3769,-507.8183"/>
<polygon fill="#191970" stroke="#191970" points="1108.5806,-431.7295 1098.4937,-428.4885 1104.3579,-437.3124 1108.5806,-431.7295"/>
</g>
<!-- Node285030&#45;&gt;Node285026 -->
<g id="edge20" class="edge">
<title>Node285030&#45;&gt;Node285026</title>
<path fill="none" stroke="#191970" d="M1014.8184,-405.1814C929.7381,-394.2466 780.0027,-375.0022 696.2011,-364.2317"/>
<polygon fill="#191970" stroke="#191970" points="1014.5001,-408.6692 1024.8647,-406.4726 1015.3925,-401.7263 1014.5001,-408.6692"/>
</g>
<!-- Node285030&#45;&gt;Node285029 -->
<g id="edge17" class="edge">
<title>Node285030&#45;&gt;Node285029</title>
<path fill="none" stroke="#191970" d="M1052.5752,-390.5577C1043.7888,-380.3863 1033.9382,-368.3808 1025,-357.366 1008.8613,-337.4778 1007.3914,-330.1917 989,-312.366 972.7687,-296.634 950.5615,-281.5911 939.6305,-271.0888"/>
<polygon fill="#191970" stroke="#191970" points="1050.1236,-393.07 1059.3558,-398.2678 1055.3801,-388.4472 1050.1236,-393.07"/>
</g>
<!-- Node285030&#45;&gt;Node285030 -->
<g id="edge16" class="edge">
<title>Node285030&#45;&gt;Node285030</title>
<path fill="none" stroke="#191970" d="M1054.3344,-438.8239C1057.3337,-443.545 1065.3889,-446.866 1078.5,-446.866 1100.0156,-446.866 1107.9159,-437.9226 1102.2008,-428.525"/>
<polygon fill="#191970" stroke="#191970" points="1057.8447,-438.6726 1054.7992,-428.525 1050.8519,-438.357 1057.8447,-438.6726"/>
</g>
<!-- Node285052&#45;&gt;Node285026 -->
<g id="edge26" class="edge">
<title>Node285052&#45;&gt;Node285026</title>
<path fill="none" stroke="#191970" d="M519.8212,-273.8551C526.242,-276.7764 532.5127,-280.2545 538,-284.366 559.3408,-300.356 552.7883,-316.205 574,-332.366 581.9662,-338.4353 591.6636,-343.1679 600.9607,-346.7656"/>
<polygon fill="#191970" stroke="#191970" points="520.9594,-270.5387 510.3801,-269.9647 518.2924,-277.0107 520.9594,-270.5387"/>
</g>
<!-- Node285052&#45;&gt;Node285029 -->
<g id="edge25" class="edge">
<title>Node285052&#45;&gt;Node285029</title>
<path fill="none" stroke="#191970" d="M509.8836,-273.5629C519.074,-277.0139 528.9243,-280.7749 538,-284.366 554.1175,-290.7434 557.0033,-295.9666 574,-299.366 693.8421,-323.3344 839.4096,-288.7402 901.9772,-270.8931"/>
<polygon fill="#191970" stroke="#191970" points="510.8305,-270.1805 500.2379,-269.9626 508.3826,-276.7386 510.8305,-270.1805"/>
</g>
<!-- Node285053&#45;&gt;Node285028 -->
<g id="edge30" class="edge">
<title>Node285053&#45;&gt;Node285028</title>
<path fill="none" stroke="#191970" d="M537.8011,-230.3284C599.9269,-238.0817 692.502,-249.635 745.4278,-256.2402"/>
<polygon fill="#191970" stroke="#191970" points="538.0772,-226.8357 527.7207,-229.0703 537.2102,-233.7819 538.0772,-226.8357"/>
</g>
<!-- Node285054 -->
<g id="node14" class="node">
<title>Node285054</title>
<g id="a_node14"><a xlink:href="quickjs_8c.html#ac9030f2b94f2e8292ad37ab68fc99bbd" target="_top" xlink:title="add_brand">
<polygon fill="none" stroke="#000000" points="604,-270.866 604,-289.866 666,-289.866 666,-270.866 604,-270.866"/>
<text text-anchor="middle" x="635" y="-277.866" font-family="Helvetica,sans-Serif" font-size="10.00" fill="#000000">add_brand</text>
</a>
</g>
</g>
<!-- Node285053&#45;&gt;Node285054 -->
<g id="edge28" class="edge">
<title>Node285053&#45;&gt;Node285054</title>
<path fill="none" stroke="#191970" d="M518.3416,-234.863C524.9681,-236.9229 531.6901,-239.1219 538,-241.366 554.3313,-247.174 557.9343,-249.8592 574,-256.366 585.9195,-261.1935 599.2015,-266.4353 610.3208,-270.7852"/>
<polygon fill="#191970" stroke="#191970" points="519.3458,-231.5102 508.7604,-231.9554 517.313,-238.2085 519.3458,-231.5102"/>
</g>
<!-- Node285054&#45;&gt;Node285028 -->
<g id="edge29" class="edge">
<title>Node285054&#45;&gt;Node285028</title>
<path fill="none" stroke="#191970" d="M676.1662,-275.2032C697.6874,-272.5042 723.9509,-269.2104 745.4543,-266.5136"/>
<polygon fill="#191970" stroke="#191970" points="675.5106,-271.7579 666.0239,-276.4752 676.3817,-278.7035 675.5106,-271.7579"/>
</g>
<!-- Node285055&#45;&gt;Node285021 -->
<g id="edge41" class="edge">
<title>Node285055&#45;&gt;Node285021</title>
<path fill="none" stroke="#191970" d="M167.9056,-354.3246C198.0023,-397.8931 274.4755,-508.5971 302.5,-549.166"/>
<polygon fill="#191970" stroke="#191970" points="170.6305,-352.1111 162.0671,-345.8726 164.871,-356.0897 170.6305,-352.1111"/>
</g>
<!-- Node285055&#45;&gt;Node285026 -->
<g id="edge42" class="edge">
<title>Node285055&#45;&gt;Node285026</title>
<path fill="none" stroke="#191970" d="M198.1858,-338.1464C283.5005,-341.7049 475.3247,-349.7059 573.9287,-353.8187"/>
<polygon fill="#191970" stroke="#191970" points="198.2182,-334.6448 188.081,-337.7249 197.9264,-341.6387 198.2182,-334.6448"/>
</g>
<!-- Node285055&#45;&gt;Node285039 -->
<g id="edge32" class="edge">
<title>Node285055&#45;&gt;Node285039</title>
<path fill="none" stroke="#191970" d="M180.5813,-321.4038C243.3469,-283.9612 405.8784,-187.0037 457.8003,-156.0298"/>
<polygon fill="#191970" stroke="#191970" points="178.5272,-318.5537 171.7323,-326.6826 182.1135,-324.5653 178.5272,-318.5537"/>
</g>
<!-- Node285039&#45;&gt;Node285023 -->
<g id="edge39" class="edge">
<title>Node285039&#45;&gt;Node285023</title>
<path fill="none" stroke="#191970" d="M539.7739,-136.188C614.5484,-127.0851 739.4081,-119.4394 841,-150.366 981.5861,-193.1632 1034.189,-197.6889 1132,-307.366 1188.1907,-370.3736 1209.2469,-475.669 1214.5502,-507.7803"/>
<polygon fill="#191970" stroke="#191970" points="539.0452,-132.7522 529.5629,-137.4783 539.9228,-139.697 539.0452,-132.7522"/>
</g>
<!-- Node285039&#45;&gt;Node285026 -->
<g id="edge40" class="edge">
<title>Node285039&#45;&gt;Node285026</title>
<path fill="none" stroke="#191970" d="M496.6621,-162.1121C510.2081,-172.5031 526.8885,-187.1584 538,-203.366 563.7664,-240.9497 548.6846,-261.477 574,-299.366 587.0447,-318.8897 608.0072,-336.5294 621.6429,-346.8513"/>
<polygon fill="#191970" stroke="#191970" points="498.4234,-159.0614 488.3031,-155.9261 494.2594,-164.6882 498.4234,-159.0614"/>
</g>
<!-- Node285039&#45;&gt;Node285028 -->
<g id="edge33" class="edge">
<title>Node285039&#45;&gt;Node285028</title>
<path fill="none" stroke="#191970" d="M509.4255,-159.4026C572.9499,-182.7795 704.8031,-231.3015 760.6308,-251.8461"/>
<polygon fill="#191970" stroke="#191970" points="510.4325,-156.0437 499.8391,-155.8748 508.015,-162.613 510.4325,-156.0437"/>
</g>
<!-- Node285039&#45;&gt;Node285029 -->
<g id="edge35" class="edge">
<title>Node285039&#45;&gt;Node285029</title>
<path fill="none" stroke="#191970" d="M540.1835,-141.5256C616.6478,-138.7328 744.3284,-142.8564 841,-190.366 874.498,-206.8287 907.6263,-236.5761 923.4255,-251.8103"/>
<polygon fill="#191970" stroke="#191970" points="539.5877,-138.0473 529.7425,-141.9618 539.8799,-145.0412 539.5877,-138.0473"/>
</g>
<!-- Node285039&#45;&gt;Node285030 -->
<g id="edge34" class="edge">
<title>Node285039&#45;&gt;Node285030</title>
<path fill="none" stroke="#191970" d="M539.7167,-152.0397C584.3993,-156.9604 644.5191,-165.673 696,-180.366 763.3972,-199.6016 787.4729,-197.1195 841,-242.366 863.5967,-261.4669 855.5338,-278.0028 877,-298.366 925.9476,-344.7985 997.1057,-379.7017 1040.4551,-398.2848"/>
<polygon fill="#191970" stroke="#191970" points="539.8822,-148.5376 529.5675,-150.9578 539.1401,-155.4982 539.8822,-148.5376"/>
</g>
<!-- Node285039&#45;&gt;Node285039 -->
<g id="edge38" class="edge">
<title>Node285039&#45;&gt;Node285039</title>
<path fill="none" stroke="#191970" d="M444.0599,-164.6405C444.9135,-170.107 454.8936,-174.366 474,-174.366 502.4375,-174.366 510.6577,-164.9312 498.6606,-156.123"/>
<polygon fill="#191970" stroke="#191970" points="447.0458,-166.4667 449.3394,-156.123 441.096,-162.7787 447.0458,-166.4667"/>
</g>
<!-- Node285039&#45;&gt;Node285038 -->
<g id="edge36" class="edge">
<title>Node285039&#45;&gt;Node285038</title>
<path fill="none" stroke="#191970" d="M488.7768,-130.0562C501.8954,-119.8457 521.4884,-107.1762 538,-95.366 554.4865,-83.5737 556.3888,-77.4014 574,-67.366 577.3619,-65.4503 580.9067,-63.6201 584.5266,-61.9076"/>
<polygon fill="#191970" stroke="#191970" points="486.27,-127.59 480.8464,-136.6914 490.762,-132.9587 486.27,-127.59"/>
</g>
<!-- Node285038&#45;&gt;Node285039 -->
<g id="edge37" class="edge">
<title>Node285038&#45;&gt;Node285039</title>
<path fill="none" stroke="#191970" d="M614.9067,-66.4279C602.6825,-71.8501 586.9777,-77.9708 574,-85.366 556.3888,-95.4014 554.4865,-101.5737 538,-113.366 526.5419,-121.5616 513.5999,-130.171 502.3673,-136.8075"/>
<polygon fill="#191970" stroke="#191970" points="616.6754,-69.4632 624.2201,-62.0249 613.6836,-63.1347 616.6754,-69.4632"/>
</g>
<!-- Node285056&#45;&gt;Node285030 -->
<g id="edge44" class="edge">
<title>Node285056&#45;&gt;Node285030</title>
<path fill="none" stroke="#191970" d="M851.1582,-472.0429C891.2495,-466.7129 943.5898,-458.3196 989,-446.366 1006.937,-441.6443 1026.31,-434.7377 1042.4292,-428.4617"/>
<polygon fill="#191970" stroke="#191970" points="850.7063,-468.5721 841.2411,-473.3323 851.6089,-475.5137 850.7063,-468.5721"/>
</g>
<!-- Node285037&#45;&gt;Node285038 -->
<g id="edge47" class="edge">
<title>Node285037&#45;&gt;Node285038</title>
<path fill="none" stroke="#191970" d="M384.2774,-83.445C428.5664,-78.9755 486.6503,-72.808 538,-66.366 552.6033,-64.5339 568.4125,-62.3416 582.9453,-60.2415"/>
<polygon fill="#191970" stroke="#191970" points="383.7889,-79.9763 374.1886,-84.4578 384.4882,-86.9413 383.7889,-79.9763"/>
</g>
<!-- Node285036&#45;&gt;Node285037 -->
<g id="edge54" class="edge">
<title>Node285036&#45;&gt;Node285037</title>
<path fill="none" stroke="#191970" d="M205.1041,-116.398C227.1753,-111.0729 252.8027,-104.8898 273.5419,-99.886"/>
<polygon fill="#191970" stroke="#191970" points="204.1441,-113.0291 195.2439,-118.777 205.7859,-119.8339 204.1441,-113.0291"/>
</g>
<!-- Node285036&#45;&gt;Node285036 -->
<g id="edge53" class="edge">
<title>Node285036&#45;&gt;Node285036</title>
<path fill="none" stroke="#191970" d="M132.0626,-147.3952C133.341,-152.494 141.1535,-156.366 155.5,-156.366 177.8945,-156.366 184.368,-146.9312 174.9203,-138.123"/>
<polygon fill="#191970" stroke="#191970" points="135.3158,-148.6903 136.0797,-138.123 128.8927,-145.9075 135.3158,-148.6903"/>
</g>
<!-- Node285057&#45;&gt;Node285029 -->
<g id="edge57" class="edge">
<title>Node285057&#45;&gt;Node285029</title>
<path fill="none" stroke="#191970" d="M373.7588,-6.1211C451.3342,1.9179 588.3923,7.6608 696,-33.366 813.3676,-78.1139 904.0402,-214.3351 927.2208,-251.7624"/>
<polygon fill="#191970" stroke="#191970" points="373.2422,-2.6565 363.6777,-7.2138 373.9966,-9.6158 373.2422,-2.6565"/>
</g>
</g>
</svg>
