<?xml version="1.0" encoding="UTF-8" standalone="no"?>
<!DOCTYPE svg PUBLIC "-//W3C//DTD SVG 1.1//EN"
 "http://www.w3.org/Graphics/SVG/1.1/DTD/svg11.dtd">
<!-- Generated by graphviz version 2.40.1 (20161225.0304)
 -->
<!-- Title: JS_GetIterator2 Pages: 1 -->
<!--zoomable 274 -->
<svg id="main" version="1.1" xmlns="http://www.w3.org/2000/svg" xmlns:xlink="http://www.w3.org/1999/xlink" xml:space="preserve" onload="init(evt)">
<style type="text/css"><![CDATA[
.edge:hover path { stroke: red; }
.edge:hover polygon { stroke: red; fill: red; }
]]></style>
<script type="text/javascript"><![CDATA[
var edges = document.getElementsByTagName('g');
if (edges && edges.length) {
  for (var i=0;i<edges.length;i++) {
    if (edges[i].id.substr(0,4)=='edge') {
      edges[i].setAttribute('class','edge');
    }
  }
}
]]></script>
        <defs>
                <circle id="rim" cx="0" cy="0" r="7"/>
                <circle id="rim2" cx="0" cy="0" r="3.5"/>
                <g id="zoomPlus">
                        <use xlink:href="#rim" fill="#404040">
                                <set attributeName="fill" to="#808080" begin="zoomplus.mouseover" end="zoomplus.mouseout"/>
                        </use>
                        <path d="M-4,0h8M0,-4v8" fill="none" stroke="white" stroke-width="1.5" pointer-events="none"/>
                </g>
                <g id="zoomMin">
                        <use xlink:href="#rim" fill="#404040">
                                <set attributeName="fill" to="#808080" begin="zoomminus.mouseover" end="zoomminus.mouseout"/>
                        </use>
                        <path d="M-4,0h8" fill="none" stroke="white" stroke-width="1.5" pointer-events="none"/>
                </g>
                <g id="dirArrow">
                        <path fill="none" stroke="white" stroke-width="1.5" d="M0,-3.0v7 M-2.5,-0.5L0,-3.0L2.5,-0.5"/>
                </g>
               <g id="resetDef">
                       <use xlink:href="#rim2" fill="#404040">
                               <set attributeName="fill" to="#808080" begin="reset.mouseover" end="reset.mouseout"/>
                       </use>
               </g>
        </defs>

<script type="text/javascript">
var viewWidth = 599;
var viewHeight = 274;
var sectionId = 'dynsection-763';
</script>
<script xlink:href="svgpan.js"/>
<svg id="graph" class="graph">
<g id="viewport">
<title>JS_GetIterator2</title>
<!-- Node256594 -->
<g id="node1" class="node">
<title>Node256594</title>
<polygon fill="#bfbfbf" stroke="#000000" points="0,-133.5 0,-152.5 86,-152.5 86,-133.5 0,-133.5"/>
<text text-anchor="middle" x="43" y="-140.5" font-family="Helvetica,sans-Serif" font-size="10.00" fill="#000000">JS_GetIterator2</text>
</g>
<!-- Node256595 -->
<g id="node2" class="node">
<title>Node256595</title>
<g id="a_node2"><a xlink:href="quickjs_8c.html#a54596af885c45bf0281d53985349e9ef" target="_top" xlink:title="js_array_from_iterator">
<polygon fill="none" stroke="#000000" points="122,-190.5 122,-209.5 233,-209.5 233,-190.5 122,-190.5"/>
<text text-anchor="middle" x="177.5" y="-197.5" font-family="Helvetica,sans-Serif" font-size="10.00" fill="#000000">js_array_from_iterator</text>
</a>
</g>
</g>
<!-- Node256594&#45;&gt;Node256595 -->
<g id="edge1" class="edge">
<title>Node256594&#45;&gt;Node256595</title>
<path fill="none" stroke="#191970" d="M74.8064,-156.4793C99.4448,-166.9208 132.97,-181.1285 154.9143,-190.4284"/>
<polygon fill="#191970" stroke="#191970" points="76.0853,-153.22 65.5123,-152.5405 73.3539,-159.6651 76.0853,-153.22"/>
</g>
<!-- Node256604 -->
<g id="node5" class="node">
<title>Node256604</title>
<g id="a_node5"><a xlink:href="quickjs_8c.html#a5ec5d4521881c24fd8de4e8a4f602fba" target="_top" xlink:title="JS_GetIterator">
<polygon fill="none" stroke="#000000" points="137.5,-114.5 137.5,-133.5 217.5,-133.5 217.5,-114.5 137.5,-114.5"/>
<text text-anchor="middle" x="177.5" y="-121.5" font-family="Helvetica,sans-Serif" font-size="10.00" fill="#000000">JS_GetIterator</text>
</a>
</g>
</g>
<!-- Node256594&#45;&gt;Node256604 -->
<g id="edge4" class="edge">
<title>Node256594&#45;&gt;Node256604</title>
<path fill="none" stroke="#191970" d="M96.5437,-135.4362C110.1955,-133.5077 124.6342,-131.468 137.4785,-129.6536"/>
<polygon fill="#191970" stroke="#191970" points="95.7091,-132.0193 86.297,-136.8837 96.6883,-138.9505 95.7091,-132.0193"/>
</g>
<!-- Node256596 -->
<g id="node3" class="node">
<title>Node256596</title>
<g id="a_node3"><a xlink:href="quickjs_8c.html#acf0e1803a9586d86d752b002a89fb8ed" target="_top" xlink:title="js_typed_array_constructor_obj">
<polygon fill="none" stroke="#000000" points="269,-237.5 269,-256.5 421,-256.5 421,-237.5 269,-237.5"/>
<text text-anchor="middle" x="345" y="-244.5" font-family="Helvetica,sans-Serif" font-size="10.00" fill="#000000">js_typed_array_constructor_obj</text>
</a>
</g>
</g>
<!-- Node256595&#45;&gt;Node256596 -->
<g id="edge2" class="edge">
<title>Node256595&#45;&gt;Node256596</title>
<path fill="none" stroke="#191970" d="M221.3165,-212.2948C249.2845,-220.1425 285.0099,-230.167 310.8672,-237.4224"/>
<polygon fill="#191970" stroke="#191970" points="221.9699,-208.843 211.3961,-209.5112 220.0787,-215.5827 221.9699,-208.843"/>
</g>
<!-- Node256597 -->
<g id="node4" class="node">
<title>Node256597</title>
<g id="a_node4"><a xlink:href="quickjs_8c.html#a3be661c1eaa7a31184410667862635a2" target="_top" xlink:title="js_typed_array_constructor">
<polygon fill="none" stroke="#ff0000" points="457,-246.5 457,-265.5 591,-265.5 591,-246.5 457,-246.5"/>
<text text-anchor="middle" x="524" y="-253.5" font-family="Helvetica,sans-Serif" font-size="10.00" fill="#000000">js_typed_array_constructor</text>
</a>
</g>
</g>
<!-- Node256596&#45;&gt;Node256597 -->
<g id="edge3" class="edge">
<title>Node256596&#45;&gt;Node256597</title>
<path fill="none" stroke="#191970" d="M431.2645,-251.3373C439.8942,-251.7712 448.5641,-252.2071 456.9527,-252.6289"/>
<polygon fill="#191970" stroke="#191970" points="431.3348,-247.8365 421.1717,-250.8299 430.9833,-254.8277 431.3348,-247.8365"/>
</g>
<!-- Node256605 -->
<g id="node6" class="node">
<title>Node256605</title>
<g id="a_node6"><a xlink:href="quickjs_8c.html#ac71df7cd121a3af9abf57897c58e75c2" target="_top" xlink:title="js_for_of_start">
<polygon fill="none" stroke="#000000" points="305.5,-152.5 305.5,-171.5 384.5,-171.5 384.5,-152.5 305.5,-152.5"/>
<text text-anchor="middle" x="345" y="-159.5" font-family="Helvetica,sans-Serif" font-size="10.00" fill="#000000">js_for_of_start</text>
</a>
</g>
</g>
<!-- Node256604&#45;&gt;Node256605 -->
<g id="edge5" class="edge">
<title>Node256604&#45;&gt;Node256605</title>
<path fill="none" stroke="#191970" d="M227.619,-135.3703C252.5359,-141.0231 282.2155,-147.7564 305.4962,-153.038"/>
<polygon fill="#191970" stroke="#191970" points="228.147,-131.9012 217.6204,-133.1019 226.5982,-138.7277 228.147,-131.9012"/>
</g>
<!-- Node256628 -->
<g id="node10" class="node">
<title>Node256628</title>
<g id="a_node10"><a xlink:href="quickjs_8c.html#a43208b0746998d2b6b9b8bd1ef8b5f99" target="_top" xlink:title="js_append_enumerate">
<polygon fill="none" stroke="#000000" points="289,-190.5 289,-209.5 401,-209.5 401,-190.5 289,-190.5"/>
<text text-anchor="middle" x="345" y="-197.5" font-family="Helvetica,sans-Serif" font-size="10.00" fill="#000000">js_append_enumerate</text>
</a>
</g>
</g>
<!-- Node256604&#45;&gt;Node256628 -->
<g id="edge10" class="edge">
<title>Node256604&#45;&gt;Node256628</title>
<path fill="none" stroke="#191970" d="M198.6285,-139.8377C216.5336,-152.5848 243.3225,-170.1119 269,-181 277.8901,-184.7697 287.6949,-187.9099 297.2232,-190.4798"/>
<polygon fill="#191970" stroke="#191970" points="200.2769,-136.7095 190.128,-133.6681 196.1651,-142.3746 200.2769,-136.7095"/>
</g>
<!-- Node256629 -->
<g id="node11" class="node">
<title>Node256629</title>
<g id="a_node11"><a xlink:href="quickjs_8c.html#ad6908ae6db4e80d175180b55e19b203e" target="_top" xlink:title="js_object_fromEntries">
<polygon fill="none" stroke="#000000" points="289.5,-114.5 289.5,-133.5 400.5,-133.5 400.5,-114.5 289.5,-114.5"/>
<text text-anchor="middle" x="345" y="-121.5" font-family="Helvetica,sans-Serif" font-size="10.00" fill="#000000">js_object_fromEntries</text>
</a>
</g>
</g>
<!-- Node256604&#45;&gt;Node256629 -->
<g id="edge12" class="edge">
<title>Node256604&#45;&gt;Node256629</title>
<path fill="none" stroke="#191970" d="M227.7797,-124C247.1952,-124 269.4831,-124 289.3758,-124"/>
<polygon fill="#191970" stroke="#191970" points="227.6205,-120.5001 217.6204,-124 227.6204,-127.5001 227.6205,-120.5001"/>
</g>
<!-- Node256631 -->
<g id="node12" class="node">
<title>Node256631</title>
<g id="a_node12"><a xlink:href="quickjs_8c.html#a27dcb5e2923cd6c0201c70546d704748" target="_top" xlink:title="js_map_constructor">
<polygon fill="none" stroke="#ff0000" points="294,-76.5 294,-95.5 396,-95.5 396,-76.5 294,-76.5"/>
<text text-anchor="middle" x="345" y="-83.5" font-family="Helvetica,sans-Serif" font-size="10.00" fill="#000000">js_map_constructor</text>
</a>
</g>
</g>
<!-- Node256604&#45;&gt;Node256631 -->
<g id="edge13" class="edge">
<title>Node256604&#45;&gt;Node256631</title>
<path fill="none" stroke="#191970" d="M227.6033,-112.6333C251.5957,-107.1902 280.0068,-100.7447 302.8695,-95.558"/>
<polygon fill="#191970" stroke="#191970" points="226.5982,-109.2723 217.6204,-114.8981 228.147,-116.0988 226.5982,-109.2723"/>
</g>
<!-- Node256633 -->
<g id="node13" class="node">
<title>Node256633</title>
<g id="a_node13"><a xlink:href="quickjs_8c.html#a7a5c4f3ad3260974d9a0c75120ce5647" target="_top" xlink:title="js_promise_all">
<polygon fill="none" stroke="#000000" points="305.5,-38.5 305.5,-57.5 384.5,-57.5 384.5,-38.5 305.5,-38.5"/>
<text text-anchor="middle" x="345" y="-45.5" font-family="Helvetica,sans-Serif" font-size="10.00" fill="#000000">js_promise_all</text>
</a>
</g>
</g>
<!-- Node256604&#45;&gt;Node256633 -->
<g id="edge14" class="edge">
<title>Node256604&#45;&gt;Node256633</title>
<path fill="none" stroke="#191970" d="M198.6285,-108.1623C216.5336,-95.4152 243.3225,-77.8881 269,-67 280.3944,-62.1684 293.2913,-58.3709 305.1828,-55.483"/>
<polygon fill="#191970" stroke="#191970" points="196.1651,-105.6254 190.128,-114.3319 200.2769,-111.2905 196.1651,-105.6254"/>
</g>
<!-- Node256634 -->
<g id="node14" class="node">
<title>Node256634</title>
<g id="a_node14"><a xlink:href="quickjs_8c.html#a44e36674957b179c1963f7046c049d14" target="_top" xlink:title="js_promise_race">
<polygon fill="none" stroke="#000000" points="301,-.5 301,-19.5 389,-19.5 389,-.5 301,-.5"/>
<text text-anchor="middle" x="345" y="-7.5" font-family="Helvetica,sans-Serif" font-size="10.00" fill="#000000">js_promise_race</text>
</a>
</g>
</g>
<!-- Node256604&#45;&gt;Node256634 -->
<g id="edge15" class="edge">
<title>Node256604&#45;&gt;Node256634</title>
<path fill="none" stroke="#191970" d="M189.7158,-106.2106C205.4956,-84.6202 235.0086,-48.669 269,-29 278.6529,-23.4144 289.9195,-19.4577 300.7756,-16.6594"/>
<polygon fill="#191970" stroke="#191970" points="186.7669,-104.318 183.8208,-114.4951 192.4703,-108.3765 186.7669,-104.318"/>
</g>
<!-- Node256606 -->
<g id="node7" class="node">
<title>Node256606</title>
<g id="a_node7"><a xlink:href="quickjs_8c.html#ac2894ff4edcdb4e6841bcce9c76081e3" target="_top" xlink:title="JS_CallInternal">
<polygon fill="none" stroke="#ff0000" points="482.5,-190.5 482.5,-209.5 565.5,-209.5 565.5,-190.5 482.5,-190.5"/>
<text text-anchor="middle" x="524" y="-197.5" font-family="Helvetica,sans-Serif" font-size="10.00" fill="#000000">JS_CallInternal</text>
</a>
</g>
</g>
<!-- Node256605&#45;&gt;Node256606 -->
<g id="edge6" class="edge">
<title>Node256605&#45;&gt;Node256606</title>
<path fill="none" stroke="#191970" d="M394.562,-172.5215C422.1106,-178.3698 456.0099,-185.5664 482.2054,-191.1274"/>
<polygon fill="#191970" stroke="#191970" points="395.2348,-169.0864 384.7259,-170.4334 393.7811,-175.9338 395.2348,-169.0864"/>
</g>
<!-- Node256630 -->
<g id="node8" class="node">
<title>Node256630</title>
<g id="a_node8"><a xlink:href="quickjs_8c.html#a5e32da9a43002cb96dcbd62a1a340144" target="_top" xlink:title="js_array_from">
<polygon fill="none" stroke="#000000" points="486,-152.5 486,-171.5 562,-171.5 562,-152.5 486,-152.5"/>
<text text-anchor="middle" x="524" y="-159.5" font-family="Helvetica,sans-Serif" font-size="10.00" fill="#000000">js_array_from</text>
</a>
</g>
</g>
<!-- Node256605&#45;&gt;Node256630 -->
<g id="edge8" class="edge">
<title>Node256605&#45;&gt;Node256630</title>
<path fill="none" stroke="#191970" d="M394.996,-162C423.7901,-162 459.4088,-162 485.9189,-162"/>
<polygon fill="#191970" stroke="#191970" points="394.7259,-158.5001 384.7259,-162 394.7259,-165.5001 394.7259,-158.5001"/>
</g>
<!-- Node256635 -->
<g id="node9" class="node">
<title>Node256635</title>
<g id="a_node9"><a xlink:href="quickjs_8c.html#a5f46f50deddd4e3a23da24e8173db28e" target="_top" xlink:title="js_typed_array_from">
<polygon fill="none" stroke="#000000" points="471.5,-114.5 471.5,-133.5 576.5,-133.5 576.5,-114.5 471.5,-114.5"/>
<text text-anchor="middle" x="524" y="-121.5" font-family="Helvetica,sans-Serif" font-size="10.00" fill="#000000">js_typed_array_from</text>
</a>
</g>
</g>
<!-- Node256605&#45;&gt;Node256635 -->
<g id="edge9" class="edge">
<title>Node256605&#45;&gt;Node256635</title>
<path fill="none" stroke="#191970" d="M394.5504,-151.4809C421.0004,-145.8658 453.3072,-139.0074 479.0293,-133.5468"/>
<polygon fill="#191970" stroke="#191970" points="393.7811,-148.0662 384.7259,-153.5666 395.2348,-154.9136 393.7811,-148.0662"/>
</g>
<!-- Node256606&#45;&gt;Node256606 -->
<g id="edge7" class="edge">
<title>Node256606&#45;&gt;Node256606</title>
<path fill="none" stroke="#191970" d="M490.6418,-217.8913C491.1304,-223.5406 502.2498,-228 524,-228 555.6367,-228 564.7817,-218.5653 551.435,-209.7571"/>
<polygon fill="#191970" stroke="#191970" points="493.5078,-219.9012 496.565,-209.7571 487.8491,-215.7806 493.5078,-219.9012"/>
</g>
<!-- Node256628&#45;&gt;Node256606 -->
<g id="edge11" class="edge">
<title>Node256628&#45;&gt;Node256606</title>
<path fill="none" stroke="#191970" d="M411.1762,-200C434.9689,-200 461.1256,-200 482.2584,-200"/>
<polygon fill="#191970" stroke="#191970" points="411.1456,-196.5001 401.1456,-200 411.1456,-203.5001 411.1456,-196.5001"/>
</g>
</g>
</svg>
        <g id="navigator" transform="translate(0 0)" fill="#404254">
                <rect fill="#f2f5e9" fill-opacity="0.5" stroke="#606060" stroke-width=".5" x="0" y="0" width="60" height="60"/>
                <use id="zoomplus" xlink:href="#zoomPlus" x="17" y="9" onmousedown="handleZoom(evt,'in')"/>
                <use id="zoomminus" xlink:href="#zoomMin" x="42" y="9" onmousedown="handleZoom(evt,'out')"/>
                <use id="reset" xlink:href="#resetDef" x="30" y="36" onmousedown="handleReset()"/>
                <g id="arrowUp" xlink:href="#dirArrow" transform="translate(30 24)" onmousedown="handlePan(0,-1)">
                  <use xlink:href="#rim" fill="#404040">
                        <set attributeName="fill" to="#808080" begin="arrowUp.mouseover" end="arrowUp.mouseout"/>
                  </use>
                  <path fill="none" stroke="white" stroke-width="1.5" d="M0,-3.0v7 M-2.5,-0.5L0,-3.0L2.5,-0.5"/>
                </g>
                <g id="arrowRight" xlink:href="#dirArrow" transform="rotate(90) translate(36 -43)" onmousedown="handlePan(1,0)">
                  <use xlink:href="#rim" fill="#404040">
                        <set attributeName="fill" to="#808080" begin="arrowRight.mouseover" end="arrowRight.mouseout"/>
                  </use>
                  <path fill="none" stroke="white" stroke-width="1.5" d="M0,-3.0v7 M-2.5,-0.5L0,-3.0L2.5,-0.5"/>
                </g>
                <g id="arrowDown" xlink:href="#dirArrow" transform="rotate(180) translate(-30 -48)" onmousedown="handlePan(0,1)">
                  <use xlink:href="#rim" fill="#404040">
                        <set attributeName="fill" to="#808080" begin="arrowDown.mouseover" end="arrowDown.mouseout"/>
                  </use>
                  <path fill="none" stroke="white" stroke-width="1.5" d="M0,-3.0v7 M-2.5,-0.5L0,-3.0L2.5,-0.5"/>
                </g>
                <g id="arrowLeft" xlink:href="#dirArrow" transform="rotate(270) translate(-36 17)" onmousedown="handlePan(-1,0)">
                  <use xlink:href="#rim" fill="#404040">
                        <set attributeName="fill" to="#808080" begin="arrowLeft.mouseover" end="arrowLeft.mouseout"/>
                  </use>
                  <path fill="none" stroke="white" stroke-width="1.5" d="M0,-3.0v7 M-2.5,-0.5L0,-3.0L2.5,-0.5"/>
                </g>
        </g>
        <svg viewBox="0 0 15 15" width="100%" height="30px" preserveAspectRatio="xMaxYMin meet">
         <g id="arrow_out" transform="scale(0.3 0.3)">
          <a xlink:href="quickjs_8c_aa049793cc8648d35fe81876a2543ca4e_icgraph_org.svg" target="_base">
           <rect id="button" ry="5" rx="5" y="6" x="6" height="38" width="38"
                fill="#f2f5e9" fill-opacity="0.5" stroke="#606060" stroke-width="1.0"/>
           <path id="arrow"
             d="M 11.500037,31.436501 C 11.940474,20.09759 22.043105,11.32322 32.158766,21.979434 L 37.068811,17.246167 C 37.068811,17.246167 37.088388,32 37.088388,32 L 22.160133,31.978069 C 22.160133,31.978069 26.997745,27.140456 26.997745,27.140456 C 18.528582,18.264221 13.291696,25.230495 11.500037,31.436501 z"
             style="fill:#404040;"/>
          </a>
         </g>
        </svg>
</svg>
