<?xml version="1.0" encoding="UTF-8" standalone="no"?>
<!DOCTYPE svg PUBLIC "-//W3C//DTD SVG 1.1//EN"
 "http://www.w3.org/Graphics/SVG/1.1/DTD/svg11.dtd">
<!-- Generated by graphviz version 2.40.1 (20161225.0304)
 -->
<!-- Title: js_bigfloat_fop Pages: 1 -->
<!--zoomable 1006 -->
<svg id="main" version="1.1" xmlns="http://www.w3.org/2000/svg" xmlns:xlink="http://www.w3.org/1999/xlink" xml:space="preserve" onload="init(evt)">
<style type="text/css"><![CDATA[
.edge:hover path { stroke: red; }
.edge:hover polygon { stroke: red; fill: red; }
]]></style>
<script type="text/javascript"><![CDATA[
var edges = document.getElementsByTagName('g');
if (edges && edges.length) {
  for (var i=0;i<edges.length;i++) {
    if (edges[i].id.substr(0,4)=='edge') {
      edges[i].setAttribute('class','edge');
    }
  }
}
]]></script>
        <defs>
                <circle id="rim" cx="0" cy="0" r="7"/>
                <circle id="rim2" cx="0" cy="0" r="3.5"/>
                <g id="zoomPlus">
                        <use xlink:href="#rim" fill="#404040">
                                <set attributeName="fill" to="#808080" begin="zoomplus.mouseover" end="zoomplus.mouseout"/>
                        </use>
                        <path d="M-4,0h8M0,-4v8" fill="none" stroke="white" stroke-width="1.5" pointer-events="none"/>
                </g>
                <g id="zoomMin">
                        <use xlink:href="#rim" fill="#404040">
                                <set attributeName="fill" to="#808080" begin="zoomminus.mouseover" end="zoomminus.mouseout"/>
                        </use>
                        <path d="M-4,0h8" fill="none" stroke="white" stroke-width="1.5" pointer-events="none"/>
                </g>
                <g id="dirArrow">
                        <path fill="none" stroke="white" stroke-width="1.5" d="M0,-3.0v7 M-2.5,-0.5L0,-3.0L2.5,-0.5"/>
                </g>
               <g id="resetDef">
                       <use xlink:href="#rim2" fill="#404040">
                               <set attributeName="fill" to="#808080" begin="reset.mouseover" end="reset.mouseout"/>
                       </use>
               </g>
        </defs>

<script type="text/javascript">
var viewWidth = 639;
var viewHeight = 1006;
var sectionId = 'dynsection-1577';
</script>
<script xlink:href="svgpan.js"/>
<svg id="graph" class="graph">
<g id="viewport">
<title>js_bigfloat_fop</title>
<!-- Node442473 -->
<g id="node1" class="node">
<title>Node442473</title>
<polygon fill="#bfbfbf" stroke="#000000" points="0,-399.5 0,-418.5 80,-418.5 80,-399.5 0,-399.5"/>
<text text-anchor="middle" x="40" y="-406.5" font-family="Helvetica,sans-Serif" font-size="10.00" fill="#000000">js_bigfloat_fop</text>
</g>
<!-- Node442474 -->
<g id="node2" class="node">
<title>Node442474</title>
<g id="a_node2"><a xlink:href="libbf_8h.html#a45cd74dd3a694c26e716762b7fd36955" target="_top" xlink:title="bf_acos">
<polygon fill="none" stroke="#000000" points="135.5,-494.5 135.5,-513.5 186.5,-513.5 186.5,-494.5 135.5,-494.5"/>
<text text-anchor="middle" x="161" y="-501.5" font-family="Helvetica,sans-Serif" font-size="10.00" fill="#000000">bf_acos</text>
</a>
</g>
</g>
<!-- Node442473&#45;&gt;Node442474 -->
<g id="edge1" class="edge">
<title>Node442473&#45;&gt;Node442474</title>
<path fill="none" stroke="#191970" d="M47.4814,-418.5924C60.1345,-434.2814 87.2079,-465.6195 116,-485 119.1394,-487.1132 122.5517,-489.067 126.0463,-490.8527"/>
<polygon fill="#191970" stroke="#191970" points="124.8147,-494.1399 135.3582,-495.1814 127.7655,-487.7922 124.8147,-494.1399"/>
</g>
<!-- Node442506 -->
<g id="node5" class="node">
<title>Node442506</title>
<g id="a_node5"><a xlink:href="libbf_8h.html#a2b9d906b21e903f2f7f1c9044674ab7d" target="_top" xlink:title="bf_delete">
<polygon fill="none" stroke="#ff0000" points="485,-798.5 485,-817.5 541,-817.5 541,-798.5 485,-798.5"/>
<text text-anchor="middle" x="513" y="-805.5" font-family="Helvetica,sans-Serif" font-size="10.00" fill="#000000">bf_delete</text>
</a>
</g>
</g>
<!-- Node442473&#45;&gt;Node442506 -->
<g id="edge25" class="edge">
<title>Node442473&#45;&gt;Node442506</title>
<path fill="none" stroke="#191970" d="M41.0361,-418.8331C46.7224,-471.467 75.3718,-719.8969 116,-784 200.1359,-916.7493 310.2513,-976.8244 449,-903 464.6538,-894.671 489.5545,-851.8477 503.2235,-826.6288"/>
<polygon fill="#191970" stroke="#191970" points="506.4014,-828.108 508.0253,-817.6383 500.2269,-824.8102 506.4014,-828.108"/>
</g>
<!-- Node442502 -->
<g id="node6" class="node">
<title>Node442502</title>
<g id="a_node6"><a xlink:href="libbf_8h.html#abacc1410890af049e02ebd788364ac48" target="_top" xlink:title="bf_init">
<polygon fill="none" stroke="#000000" points="491.5,-570.5 491.5,-589.5 534.5,-589.5 534.5,-570.5 491.5,-570.5"/>
<text text-anchor="middle" x="513" y="-577.5" font-family="Helvetica,sans-Serif" font-size="10.00" fill="#000000">bf_init</text>
</a>
</g>
</g>
<!-- Node442473&#45;&gt;Node442502 -->
<g id="edge36" class="edge">
<title>Node442473&#45;&gt;Node442502</title>
<path fill="none" stroke="#191970" d="M40.3567,-418.7643C42.1344,-451.2692 52.7495,-556.1773 116,-599 145.9242,-619.2596 392.7106,-593.6398 481.4056,-583.6606"/>
<polygon fill="#191970" stroke="#191970" points="481.8715,-587.1303 491.4132,-582.5253 481.0824,-580.1749 481.8715,-587.1303"/>
</g>
<!-- Node442498 -->
<g id="node7" class="node">
<title>Node442498</title>
<g id="a_node7"><a xlink:href="libbf_8h.html#ae019ee8073f4359da157d3b1e5fdba7e" target="_top" xlink:title="bf_set">
<polygon fill="none" stroke="#ff0000" points="582,-494.5 582,-513.5 626,-513.5 626,-494.5 582,-494.5"/>
<text text-anchor="middle" x="604" y="-501.5" font-family="Helvetica,sans-Serif" font-size="10.00" fill="#000000">bf_set</text>
</a>
</g>
</g>
<!-- Node442473&#45;&gt;Node442498 -->
<g id="edge46" class="edge">
<title>Node442473&#45;&gt;Node442498</title>
<path fill="none" stroke="#191970" d="M40.3749,-418.5589C42.9361,-479.8001 59.4805,-817.171 116,-900 164.8307,-971.5611 197.8661,-998 284.5,-998 284.5,-998 284.5,-998 406,-998 479.367,-998 502.2092,-965.2735 541,-903 581.3042,-838.297 598.5878,-595.7456 602.8838,-524.0676"/>
<polygon fill="#191970" stroke="#191970" points="606.3975,-523.9314 603.4823,-513.7455 599.4093,-523.5261 606.3975,-523.9314"/>
</g>
<!-- Node442507 -->
<g id="node8" class="node">
<title>Node442507</title>
<g id="a_node8"><a xlink:href="libbf_8h.html#a60ee3eaad83309aaf8a8b8fb81d8b44d" target="_top" xlink:title="bf_set_si">
<polygon fill="none" stroke="#ff0000" points="485,-874.5 485,-893.5 541,-893.5 541,-874.5 485,-874.5"/>
<text text-anchor="middle" x="513" y="-881.5" font-family="Helvetica,sans-Serif" font-size="10.00" fill="#000000">bf_set_si</text>
</a>
</g>
</g>
<!-- Node442473&#45;&gt;Node442507 -->
<g id="edge47" class="edge">
<title>Node442473&#45;&gt;Node442507</title>
<path fill="none" stroke="#191970" d="M40.6589,-418.6069C44.7398,-475.9818 67.979,-773.4314 116,-849 152.6347,-906.6505 176.8433,-916.4993 242,-937 267.1754,-944.9211 444.7003,-932.5272 449,-931 466.9429,-924.627 484.155,-911.4487 496.2014,-900.664"/>
<polygon fill="#191970" stroke="#191970" points="498.7445,-903.0779 503.6614,-893.6931 493.9652,-897.9633 498.7445,-903.0779"/>
</g>
<!-- Node442560 -->
<g id="node9" class="node">
<title>Node442560</title>
<g id="a_node9"><a xlink:href="libbf_8h.html#a1a8b9ac1fea38b97fc6be8663ce9e867" target="_top" xlink:title="bf_sqrt">
<polygon fill="none" stroke="#ff0000" points="489.5,-418.5 489.5,-437.5 536.5,-437.5 536.5,-418.5 489.5,-418.5"/>
<text text-anchor="middle" x="513" y="-425.5" font-family="Helvetica,sans-Serif" font-size="10.00" fill="#000000">bf_sqrt</text>
</a>
</g>
</g>
<!-- Node442473&#45;&gt;Node442560 -->
<g id="edge50" class="edge">
<title>Node442473&#45;&gt;Node442560</title>
<path fill="none" stroke="#191970" d="M45.8424,-399.4271C56.9733,-382.2318 83.0728,-346.6389 116,-333 202.6394,-297.1128 235.824,-311.0636 327,-333 391.1261,-348.4283 458.0293,-389.8942 491.3878,-412.6069"/>
<polygon fill="#191970" stroke="#191970" points="489.6615,-415.6685 499.877,-418.4785 493.6435,-409.9114 489.6615,-415.6685"/>
</g>
<!-- Node442512 -->
<g id="node10" class="node">
<title>Node442512</title>
<g id="a_node10"><a xlink:href="libbf_8h.html#abd4ca8358212228a53981a32a10286b5" target="_top" xlink:title="bf_round">
<polygon fill="none" stroke="#ff0000" points="577,-304.5 577,-323.5 631,-323.5 631,-304.5 577,-304.5"/>
<text text-anchor="middle" x="604" y="-311.5" font-family="Helvetica,sans-Serif" font-size="10.00" fill="#000000">bf_round</text>
</a>
</g>
</g>
<!-- Node442473&#45;&gt;Node442512 -->
<g id="edge45" class="edge">
<title>Node442473&#45;&gt;Node442512</title>
<path fill="none" stroke="#191970" d="M44.2172,-399.2202C53.7098,-378.4773 78.8654,-330.0849 116,-307 180.6685,-266.7985 208.3543,-276 284.5,-276 284.5,-276 284.5,-276 406,-276 462.993,-276 527.5866,-291.3728 567.0559,-302.5629"/>
<polygon fill="#191970" stroke="#191970" points="566.1914,-305.9563 576.7704,-305.3772 568.1393,-299.2328 566.1914,-305.9563"/>
</g>
<!-- Node442571 -->
<g id="node12" class="node">
<title>Node442571</title>
<g id="a_node12"><a xlink:href="libbf_8h.html#a8ee86879e3da22442956f47356855edd" target="_top" xlink:title="bf_asin">
<polygon fill="none" stroke="#000000" points="137,-456.5 137,-475.5 185,-475.5 185,-456.5 137,-456.5"/>
<text text-anchor="middle" x="161" y="-463.5" font-family="Helvetica,sans-Serif" font-size="10.00" fill="#000000">bf_asin</text>
</a>
</g>
</g>
<!-- Node442473&#45;&gt;Node442571 -->
<g id="edge16" class="edge">
<title>Node442473&#45;&gt;Node442571</title>
<path fill="none" stroke="#191970" d="M58.2689,-418.5474C73.5649,-426.4411 96.0352,-437.8055 116,-447 119.8995,-448.7959 124.0165,-450.6245 128.1125,-452.4027"/>
<polygon fill="#191970" stroke="#191970" points="126.9485,-455.7113 137.5195,-456.4211 129.6983,-449.274 126.9485,-455.7113"/>
</g>
<!-- Node442572 -->
<g id="node13" class="node">
<title>Node442572</title>
<g id="a_node13"><a xlink:href="libbf_8h.html#a0bb2c5b98e3f978b84df9849c7ec50d6" target="_top" xlink:title="bf_atan">
<polygon fill="none" stroke="#000000" points="136.5,-532.5 136.5,-551.5 185.5,-551.5 185.5,-532.5 136.5,-532.5"/>
<text text-anchor="middle" x="161" y="-539.5" font-family="Helvetica,sans-Serif" font-size="10.00" fill="#000000">bf_atan</text>
</a>
</g>
</g>
<!-- Node442473&#45;&gt;Node442572 -->
<g id="edge19" class="edge">
<title>Node442473&#45;&gt;Node442572</title>
<path fill="none" stroke="#191970" d="M44.057,-418.6254C53.5764,-440.153 79.3443,-492.6755 116,-523 119.3079,-525.7366 123.0673,-528.1338 126.9703,-530.219"/>
<polygon fill="#191970" stroke="#191970" points="125.6517,-533.4661 136.1929,-534.5306 128.6163,-527.1248 125.6517,-533.4661"/>
</g>
<!-- Node442573 -->
<g id="node14" class="node">
<title>Node442573</title>
<g id="a_node14"><a xlink:href="libbf_8h.html#a69ea68a6b21d496bd89afeaa9c067ebe" target="_top" xlink:title="bf_cos">
<polygon fill="none" stroke="#000000" points="138,-342.5 138,-361.5 184,-361.5 184,-342.5 138,-342.5"/>
<text text-anchor="middle" x="161" y="-349.5" font-family="Helvetica,sans-Serif" font-size="10.00" fill="#000000">bf_cos</text>
</a>
</g>
</g>
<!-- Node442473&#45;&gt;Node442573 -->
<g id="edge22" class="edge">
<title>Node442473&#45;&gt;Node442573</title>
<path fill="none" stroke="#191970" d="M58.2689,-399.4526C73.5649,-391.5589 96.0352,-380.1945 116,-371 120.0969,-369.1132 124.4339,-367.1903 128.7343,-365.3277"/>
<polygon fill="#191970" stroke="#191970" points="130.1572,-368.526 137.983,-361.384 127.4115,-362.0869 130.1572,-368.526"/>
</g>
<!-- Node442586 -->
<g id="node16" class="node">
<title>Node442586</title>
<g id="a_node16"><a xlink:href="libbf_8h.html#a36f22f93ba4258209be035a63b80b87f" target="_top" xlink:title="bf_exp">
<polygon fill="none" stroke="#ff0000" points="138,-684.5 138,-703.5 184,-703.5 184,-684.5 138,-684.5"/>
<text text-anchor="middle" x="161" y="-691.5" font-family="Helvetica,sans-Serif" font-size="10.00" fill="#000000">bf_exp</text>
</a>
</g>
</g>
<!-- Node442473&#45;&gt;Node442586 -->
<g id="edge26" class="edge">
<title>Node442473&#45;&gt;Node442586</title>
<path fill="none" stroke="#191970" d="M42.2135,-418.7623C49.6763,-450.6698 75.7242,-554.2866 116,-632 124.2734,-647.9637 136.3577,-664.3569 145.9209,-676.2743"/>
<polygon fill="#191970" stroke="#191970" points="143.2935,-678.5897 152.3483,-684.0908 148.7003,-674.1438 143.2935,-678.5897"/>
</g>
<!-- Node442578 -->
<g id="node20" class="node">
<title>Node442578</title>
<g id="a_node20"><a xlink:href="libbf_8h.html#a3d010062b7a451656d79e48df9c0639e" target="_top" xlink:title="bf_is_nan">
<polygon fill="none" stroke="#000000" points="131.5,-190.5 131.5,-209.5 190.5,-209.5 190.5,-190.5 131.5,-190.5"/>
<text text-anchor="middle" x="161" y="-197.5" font-family="Helvetica,sans-Serif" font-size="10.00" fill="#000000">bf_is_nan</text>
</a>
</g>
</g>
<!-- Node442473&#45;&gt;Node442578 -->
<g id="edge37" class="edge">
<title>Node442473&#45;&gt;Node442578</title>
<path fill="none" stroke="#191970" d="M41.5873,-399.3215C46.9053,-369.6374 66.6195,-278.5921 116,-224 119.0904,-220.5834 122.7835,-217.5642 126.7067,-214.922"/>
<polygon fill="#191970" stroke="#191970" points="128.6778,-217.8231 135.5178,-209.7321 125.1251,-211.7916 128.6778,-217.8231"/>
</g>
<!-- Node442594 -->
<g id="node21" class="node">
<title>Node442594</title>
<g id="a_node21"><a xlink:href="libbf_8h.html#ad5a3e4de8a6966e781b6930443c44211" target="_top" xlink:title="bf_is_zero">
<polygon fill="none" stroke="#000000" points="130,-152.5 130,-171.5 192,-171.5 192,-152.5 130,-152.5"/>
<text text-anchor="middle" x="161" y="-159.5" font-family="Helvetica,sans-Serif" font-size="10.00" fill="#000000">bf_is_zero</text>
</a>
</g>
</g>
<!-- Node442473&#45;&gt;Node442594 -->
<g id="edge38" class="edge">
<title>Node442473&#45;&gt;Node442594</title>
<path fill="none" stroke="#191970" d="M40.4731,-399.3651C42.6584,-365.0734 54.5142,-247.4633 116,-181 117.5441,-179.3309 119.2584,-177.803 121.0903,-176.4051"/>
<polygon fill="#191970" stroke="#191970" points="123.0479,-179.3097 129.7118,-171.0731 119.3659,-173.3562 123.0479,-179.3097"/>
</g>
<!-- Node442595 -->
<g id="node22" class="node">
<title>Node442595</title>
<g id="a_node22"><a xlink:href="libbf_8h.html#a4137b2308536cbc92addaeb3f0c79d35" target="_top" xlink:title="bf_log">
<polygon fill="none" stroke="#ff0000" points="139.5,-570.5 139.5,-589.5 182.5,-589.5 182.5,-570.5 139.5,-570.5"/>
<text text-anchor="middle" x="161" y="-577.5" font-family="Helvetica,sans-Serif" font-size="10.00" fill="#000000">bf_log</text>
</a>
</g>
</g>
<!-- Node442473&#45;&gt;Node442595 -->
<g id="edge39" class="edge">
<title>Node442473&#45;&gt;Node442595</title>
<path fill="none" stroke="#191970" d="M42.2926,-418.5998C49.0422,-444.9138 71.2376,-519.02 116,-561 119.9202,-564.6765 124.6572,-567.6971 129.5665,-570.1613"/>
<polygon fill="#191970" stroke="#191970" points="128.4805,-573.5042 139.0498,-574.2403 131.2465,-567.0738 128.4805,-573.5042"/>
</g>
<!-- Node442582 -->
<g id="node23" class="node">
<title>Node442582</title>
<g id="a_node23"><a xlink:href="libbf_8h.html#aaf7d6961c71cf6614ec51fd78755a031" target="_top" xlink:title="bf_rint">
<polygon fill="none" stroke="#000000" points="384,-228.5 384,-247.5 428,-247.5 428,-228.5 384,-228.5"/>
<text text-anchor="middle" x="406" y="-235.5" font-family="Helvetica,sans-Serif" font-size="10.00" fill="#000000">bf_rint</text>
</a>
</g>
</g>
<!-- Node442473&#45;&gt;Node442582 -->
<g id="edge43" class="edge">
<title>Node442473&#45;&gt;Node442582</title>
<path fill="none" stroke="#191970" d="M41.6928,-399.3233C47.0008,-372.2102 66.0425,-295.3123 116,-262 195.7316,-208.834 316.5316,-221.2814 373.7597,-231.296"/>
<polygon fill="#191970" stroke="#191970" points="373.2131,-234.7541 383.6814,-233.1213 374.4797,-227.8697 373.2131,-234.7541"/>
</g>
<!-- Node442598 -->
<g id="node24" class="node">
<title>Node442598</title>
<g id="a_node24"><a xlink:href="libbf_8h.html#a9a518cd74072443dc50e179d2a9ea610" target="_top" xlink:title="bf_sin">
<polygon fill="none" stroke="#ff0000" points="139.5,-380.5 139.5,-399.5 182.5,-399.5 182.5,-380.5 139.5,-380.5"/>
<text text-anchor="middle" x="161" y="-387.5" font-family="Helvetica,sans-Serif" font-size="10.00" fill="#000000">bf_sin</text>
</a>
</g>
</g>
<!-- Node442473&#45;&gt;Node442598 -->
<g id="edge48" class="edge">
<title>Node442473&#45;&gt;Node442598</title>
<path fill="none" stroke="#191970" d="M80.2912,-402.6733C96.113,-400.1889 114.0179,-397.3774 128.9366,-395.0347"/>
<polygon fill="#191970" stroke="#191970" points="129.8635,-398.4322 139.1995,-393.4232 128.7775,-391.5169 129.8635,-398.4322"/>
</g>
<!-- Node442600 -->
<g id="node25" class="node">
<title>Node442600</title>
<g id="a_node25"><a xlink:href="libbf_8h.html#a3291f57ed40cdf116203afa57f73e91e" target="_top" xlink:title="bf_tan">
<polygon fill="none" stroke="#ff0000" points="139,-418.5 139,-437.5 183,-437.5 183,-418.5 139,-418.5"/>
<text text-anchor="middle" x="161" y="-425.5" font-family="Helvetica,sans-Serif" font-size="10.00" fill="#000000">bf_tan</text>
</a>
</g>
</g>
<!-- Node442473&#45;&gt;Node442600 -->
<g id="edge51" class="edge">
<title>Node442473&#45;&gt;Node442600</title>
<path fill="none" stroke="#191970" d="M80.2912,-415.3267C96.0023,-417.7938 113.7676,-420.5833 128.6232,-422.916"/>
<polygon fill="#191970" stroke="#191970" points="128.4332,-426.429 138.8551,-424.5227 129.5191,-419.5138 128.4332,-426.429"/>
</g>
<!-- Node442602 -->
<g id="node26" class="node">
<title>Node442602</title>
<g id="a_node26"><a xlink:href="quickjs_8h.html#afaa20c47565bc704c6c85f3d77254e7d" target="_top" xlink:title="JS_FreeValue">
<polygon fill="none" stroke="#ff0000" points="122,-114.5 122,-133.5 200,-133.5 200,-114.5 122,-114.5"/>
<text text-anchor="middle" x="161" y="-121.5" font-family="Helvetica,sans-Serif" font-size="10.00" fill="#000000">JS_FreeValue</text>
</a>
</g>
</g>
<!-- Node442473&#45;&gt;Node442602 -->
<g id="edge53" class="edge">
<title>Node442473&#45;&gt;Node442602</title>
<path fill="none" stroke="#191970" d="M41.5939,-399.458C48.8968,-356.7239 80.3371,-183.2707 116,-143 117.1596,-141.6906 118.4244,-140.4688 119.77,-139.3291"/>
<polygon fill="#191970" stroke="#191970" points="121.8497,-142.1483 128.1893,-133.6594 117.9397,-136.3421 121.8497,-142.1483"/>
</g>
<!-- Node442631 -->
<g id="node27" class="node">
<title>Node442631</title>
<g id="a_node27"><a xlink:href="quickjs_8h.html#ad80a83d73e9b7d872b88fbf2943aebe9" target="_top" xlink:title="JS_IsException">
<polygon fill="none" stroke="#000000" points="118,-76.5 118,-95.5 204,-95.5 204,-76.5 118,-76.5"/>
<text text-anchor="middle" x="161" y="-83.5" font-family="Helvetica,sans-Serif" font-size="10.00" fill="#000000">JS_IsException</text>
</a>
</g>
</g>
<!-- Node442473&#45;&gt;Node442631 -->
<g id="edge54" class="edge">
<title>Node442473&#45;&gt;Node442631</title>
<path fill="none" stroke="#191970" d="M41.2392,-399.3778C47.3976,-352.8689 76.0162,-151.6947 116,-105 117.1376,-103.6714 118.384,-102.4336 119.7143,-101.2806"/>
<polygon fill="#191970" stroke="#191970" points="121.7983,-104.0956 128.0769,-95.5615 117.8467,-98.3176 121.7983,-104.0956"/>
</g>
<!-- Node442632 -->
<g id="node28" class="node">
<title>Node442632</title>
<g id="a_node28"><a xlink:href="quickjs_8c.html#aa8cb113c1ac4d2c2178315c888788051" target="_top" xlink:title="JS_NewBigFloat">
<polygon fill="none" stroke="#ff0000" points="116,-38.5 116,-57.5 206,-57.5 206,-38.5 116,-38.5"/>
<text text-anchor="middle" x="161" y="-45.5" font-family="Helvetica,sans-Serif" font-size="10.00" fill="#000000">JS_NewBigFloat</text>
</a>
</g>
</g>
<!-- Node442473&#45;&gt;Node442632 -->
<g id="edge55" class="edge">
<title>Node442473&#45;&gt;Node442632</title>
<path fill="none" stroke="#191970" d="M40.9688,-399.2034C46.1152,-348.9223 71.6952,-120.1401 116,-67 116.9843,-65.8194 118.0548,-64.7108 119.1943,-63.6698"/>
<polygon fill="#191970" stroke="#191970" points="121.4156,-66.3849 127.5355,-57.7363 117.358,-60.6809 121.4156,-66.3849"/>
</g>
<!-- Node442635 -->
<g id="node29" class="node">
<title>Node442635</title>
<g id="a_node29"><a xlink:href="quickjs_8c.html#abe5ce04dc1f7ab5e0a0bfa0b91a48624" target="_top" xlink:title="JS_ToBigFloat">
<polygon fill="none" stroke="#ff0000" points="365.5,-874.5 365.5,-893.5 446.5,-893.5 446.5,-874.5 365.5,-874.5"/>
<text text-anchor="middle" x="406" y="-881.5" font-family="Helvetica,sans-Serif" font-size="10.00" fill="#000000">JS_ToBigFloat</text>
</a>
</g>
</g>
<!-- Node442473&#45;&gt;Node442635 -->
<g id="edge56" class="edge">
<title>Node442473&#45;&gt;Node442635</title>
<path fill="none" stroke="#191970" d="M40.6857,-418.5526C43.817,-457.4743 59.1547,-607.0588 116,-713 155.2682,-786.1832 169.7072,-810.1156 242,-851 276.7089,-870.6292 321.3601,-878.6955 355.3056,-881.9555"/>
<polygon fill="#191970" stroke="#191970" points="355.2131,-885.4602 365.4738,-882.8204 355.8065,-878.4854 355.2131,-885.4602"/>
</g>
<!-- Node442637 -->
<g id="node30" class="node">
<title>Node442637</title>
<g id="a_node30"><a xlink:href="quickjs_8c.html#a1be6d78cdf2c36e34930631587f98d44" target="_top" xlink:title="JS_ToNumber">
<polygon fill="none" stroke="#ff0000" points="121,-.5 121,-19.5 201,-19.5 201,-.5 121,-.5"/>
<text text-anchor="middle" x="161" y="-7.5" font-family="Helvetica,sans-Serif" font-size="10.00" fill="#000000">JS_ToNumber</text>
</a>
</g>
</g>
<!-- Node442473&#45;&gt;Node442637 -->
<g id="edge60" class="edge">
<title>Node442473&#45;&gt;Node442637</title>
<path fill="none" stroke="#191970" d="M40.7328,-399.2025C44.9136,-345.6614 67.3021,-88.689 116,-29 116.9717,-27.809 118.0313,-26.6915 119.1616,-25.6429"/>
<polygon fill="#191970" stroke="#191970" points="121.3853,-28.3549 127.463,-19.6766 117.3,-22.6706 121.3853,-28.3549"/>
</g>
<!-- Node442475 -->
<g id="node3" class="node">
<title>Node442475</title>
<g id="a_node3"><a xlink:href="libbf_8c.html#a4a0919b7e170befaf75d114d48d350cc" target="_top" xlink:title="bf_asin_internal">
<polygon fill="none" stroke="#ff0000" points="242,-456.5 242,-475.5 327,-475.5 327,-456.5 242,-456.5"/>
<text text-anchor="middle" x="284.5" y="-463.5" font-family="Helvetica,sans-Serif" font-size="10.00" fill="#000000">bf_asin_internal</text>
</a>
</g>
</g>
<!-- Node442474&#45;&gt;Node442475 -->
<g id="edge2" class="edge">
<title>Node442474&#45;&gt;Node442475</title>
<path fill="none" stroke="#191970" d="M186.5893,-496.1264C202.9988,-491.0773 224.6686,-484.4097 243.4496,-478.6309"/>
<polygon fill="#191970" stroke="#191970" points="244.72,-481.902 253.2485,-475.6159 242.6613,-475.2116 244.72,-481.902"/>
</g>
<!-- Node442570 -->
<g id="node11" class="node">
<title>Node442570</title>
<g id="a_node11"><a xlink:href="libbf_8c.html#a39e7dd6286a6f0541a12366ebd93dbfd" target="_top" xlink:title="bf_ziv_rounding">
<polygon fill="none" stroke="#000000" points="242,-418.5 242,-437.5 327,-437.5 327,-418.5 242,-418.5"/>
<text text-anchor="middle" x="284.5" y="-425.5" font-family="Helvetica,sans-Serif" font-size="10.00" fill="#000000">bf_ziv_rounding</text>
</a>
</g>
</g>
<!-- Node442474&#45;&gt;Node442570 -->
<g id="edge14" class="edge">
<title>Node442474&#45;&gt;Node442570</title>
<path fill="none" stroke="#191970" d="M186.7153,-495.289C193.2872,-492.4976 200.1448,-489.0572 206,-485 225.1223,-471.7496 223.0172,-460.4494 242,-447 244.3494,-445.3354 246.8679,-443.7662 249.463,-442.298"/>
<polygon fill="#191970" stroke="#191970" points="251.137,-445.3732 258.4468,-437.7038 247.9498,-439.1408 251.137,-445.3732"/>
</g>
<!-- Node442509 -->
<g id="node4" class="node">
<title>Node442509</title>
<g id="a_node4"><a xlink:href="libbf_8c.html#aa4b535a5b33344704c576607ab4f0463" target="_top" xlink:title="bf_atan_internal">
<polygon fill="none" stroke="#ff0000" points="363,-494.5 363,-513.5 449,-513.5 449,-494.5 363,-494.5"/>
<text text-anchor="middle" x="406" y="-501.5" font-family="Helvetica,sans-Serif" font-size="10.00" fill="#000000">bf_atan_internal</text>
</a>
</g>
</g>
<!-- Node442475&#45;&gt;Node442509 -->
<g id="edge3" class="edge">
<title>Node442475&#45;&gt;Node442509</title>
<path fill="none" stroke="#191970" d="M315.1596,-475.589C330.4124,-480.3594 349.0509,-486.1888 365.4666,-491.3229"/>
<polygon fill="#191970" stroke="#191970" points="364.7614,-494.7694 375.3502,-494.4141 366.8509,-488.0886 364.7614,-494.7694"/>
</g>
<!-- Node442475&#45;&gt;Node442506 -->
<g id="edge11" class="edge">
<title>Node442475&#45;&gt;Node442506</title>
<path fill="none" stroke="#191970" d="M293.5546,-475.8495C319.8642,-504.7926 397.6841,-592.7219 449,-675 472.956,-713.4101 494.3263,-762.144 505.2715,-788.662"/>
<polygon fill="#191970" stroke="#191970" points="502.1709,-790.3286 509.1813,-798.2725 508.6549,-787.6907 502.1709,-790.3286"/>
</g>
<!-- Node442475&#45;&gt;Node442502 -->
<g id="edge12" class="edge">
<title>Node442475&#45;&gt;Node442502</title>
<path fill="none" stroke="#191970" d="M327.1564,-461.5322C362.3469,-459.9365 412.2798,-462.6645 449,-485 477.895,-502.5757 496.6435,-538.7253 505.9746,-561.0141"/>
<polygon fill="#191970" stroke="#191970" points="502.7676,-562.422 509.7022,-570.4321 509.2763,-559.8458 502.7676,-562.422"/>
</g>
<!-- Node442475&#45;&gt;Node442560 -->
<g id="edge13" class="edge">
<title>Node442475&#45;&gt;Node442560</title>
<path fill="none" stroke="#191970" d="M327.2543,-458.2324C338.846,-456.1653 351.3978,-453.9626 363,-452 402.8925,-445.2519 448.8405,-437.9727 479.2601,-433.2224"/>
<polygon fill="#191970" stroke="#191970" points="479.9949,-436.6502 489.337,-431.6526 478.9174,-429.7336 479.9949,-436.6502"/>
</g>
<!-- Node442509&#45;&gt;Node442506 -->
<g id="edge4" class="edge">
<title>Node442509&#45;&gt;Node442506</title>
<path fill="none" stroke="#191970" d="M409.4389,-513.7703C424.6263,-556.9195 485.8393,-730.833 506.3011,-788.9676"/>
<polygon fill="#191970" stroke="#191970" points="503.0056,-790.1469 509.6273,-798.4177 509.6086,-787.8228 503.0056,-790.1469"/>
</g>
<!-- Node442509&#45;&gt;Node442502 -->
<g id="edge5" class="edge">
<title>Node442509&#45;&gt;Node442502</title>
<path fill="none" stroke="#191970" d="M424.8346,-513.595C432.5098,-517.7384 441.357,-522.8193 449,-528 464.9833,-538.834 481.8898,-552.6861 494.31,-563.3688"/>
<polygon fill="#191970" stroke="#191970" points="492.2877,-566.2491 502.1254,-570.1822 496.8876,-560.9726 492.2877,-566.2491"/>
</g>
<!-- Node442509&#45;&gt;Node442498 -->
<g id="edge6" class="edge">
<title>Node442509&#45;&gt;Node442498</title>
<path fill="none" stroke="#191970" d="M449.4519,-504C486.3285,-504 538.4082,-504 571.6912,-504"/>
<polygon fill="#191970" stroke="#191970" points="571.7938,-507.5001 581.7937,-504 571.7937,-500.5001 571.7938,-507.5001"/>
</g>
<!-- Node442509&#45;&gt;Node442507 -->
<g id="edge7" class="edge">
<title>Node442509&#45;&gt;Node442507</title>
<path fill="none" stroke="#191970" d="M408.4712,-513.6304C415.1324,-539.6308 433.9712,-613.4417 449,-675 465.4657,-742.4436 461.5482,-761.6565 485,-827 489.7335,-840.1888 496.6682,-854.3311 502.4519,-865.2295"/>
<polygon fill="#191970" stroke="#191970" points="499.4851,-867.0999 507.3436,-874.2058 505.6317,-863.7502 499.4851,-867.0999"/>
</g>
<!-- Node442509&#45;&gt;Node442560 -->
<g id="edge8" class="edge">
<title>Node442509&#45;&gt;Node442560</title>
<path fill="none" stroke="#191970" d="M419.5516,-494.3745C437.6412,-481.5259 469.8876,-458.6219 491.3613,-443.3695"/>
<polygon fill="#191970" stroke="#191970" points="493.4324,-446.1915 499.5584,-437.5473 489.3789,-440.4846 493.4324,-446.1915"/>
</g>
<!-- Node442560&#45;&gt;Node442498 -->
<g id="edge10" class="edge">
<title>Node442560&#45;&gt;Node442498</title>
<path fill="none" stroke="#191970" d="M524.5252,-437.6255C539.7047,-450.3028 566.6051,-472.7691 584.8617,-488.0163"/>
<polygon fill="#191970" stroke="#191970" points="582.6495,-490.7289 592.5684,-494.4527 587.1366,-485.3562 582.6495,-490.7289"/>
</g>
<!-- Node442560&#45;&gt;Node442512 -->
<g id="edge9" class="edge">
<title>Node442560&#45;&gt;Node442512</title>
<path fill="none" stroke="#191970" d="M520.7586,-418.2804C536.0706,-399.0983 570.3748,-356.1239 589.8285,-331.7533"/>
<polygon fill="#191970" stroke="#191970" points="592.7578,-333.6939 596.261,-323.695 587.287,-329.3268 592.7578,-333.6939"/>
</g>
<!-- Node442570&#45;&gt;Node442512 -->
<g id="edge15" class="edge">
<title>Node442570&#45;&gt;Node442512</title>
<path fill="none" stroke="#191970" d="M311.1909,-418.4765C368.3953,-398.0655 502.8689,-350.0843 567.7401,-326.9378"/>
<polygon fill="#191970" stroke="#191970" points="568.9182,-330.2336 577.1604,-323.5766 566.5658,-323.6407 568.9182,-330.2336"/>
</g>
<!-- Node442571&#45;&gt;Node442475 -->
<g id="edge17" class="edge">
<title>Node442571&#45;&gt;Node442475</title>
<path fill="none" stroke="#191970" d="M185.1052,-466C198.3494,-466 215.3296,-466 231.494,-466"/>
<polygon fill="#191970" stroke="#191970" points="231.9511,-469.5001 241.951,-466 231.951,-462.5001 231.9511,-469.5001"/>
</g>
<!-- Node442571&#45;&gt;Node442570 -->
<g id="edge18" class="edge">
<title>Node442571&#45;&gt;Node442570</title>
<path fill="none" stroke="#191970" d="M185.1052,-458.583C201.7232,-453.4698 224.2232,-446.5467 243.6131,-440.5806"/>
<polygon fill="#191970" stroke="#191970" points="244.8932,-443.8487 253.4217,-437.5626 242.8346,-437.1583 244.8932,-443.8487"/>
</g>
<!-- Node442572&#45;&gt;Node442509 -->
<g id="edge20" class="edge">
<title>Node442572&#45;&gt;Node442509</title>
<path fill="none" stroke="#191970" d="M185.7879,-537.5448C201.808,-534.7078 223.1157,-531.0132 242,-528 278.9231,-522.1084 320.6148,-516.0146 352.722,-511.4416"/>
<polygon fill="#191970" stroke="#191970" points="353.3825,-514.8831 362.7914,-510.0125 352.3988,-507.9525 353.3825,-514.8831"/>
</g>
<!-- Node442572&#45;&gt;Node442570 -->
<g id="edge21" class="edge">
<title>Node442572&#45;&gt;Node442570</title>
<path fill="none" stroke="#191970" d="M185.8057,-535.243C192.97,-532.3691 200.3663,-528.3973 206,-523 232.9888,-497.1438 215.2827,-473.1367 242,-447 243.4299,-445.6012 244.9806,-444.2952 246.6153,-443.0772"/>
<polygon fill="#191970" stroke="#191970" points="248.6526,-445.9327 255.3193,-437.6982 244.9726,-439.978 248.6526,-445.9327"/>
</g>
<!-- Node442573&#45;&gt;Node442570 -->
<g id="edge24" class="edge">
<title>Node442573&#45;&gt;Node442570</title>
<path fill="none" stroke="#191970" d="M184.3763,-360.6812C191.4826,-363.6333 199.2054,-367.1656 206,-371 227.2122,-382.9707 249.5097,-399.6067 264.8969,-411.8169"/>
<polygon fill="#191970" stroke="#191970" points="263.1152,-414.8762 273.0977,-418.426 267.5077,-409.4258 263.1152,-414.8762"/>
</g>
<!-- Node442574 -->
<g id="node15" class="node">
<title>Node442574</title>
<g id="a_node15"><a xlink:href="libbf_8c.html#a525aef36dca12b641b625b99bb853dc4" target="_top" xlink:title="bf_cos_internal">
<polygon fill="none" stroke="#ff0000" points="243,-342.5 243,-361.5 326,-361.5 326,-342.5 243,-342.5"/>
<text text-anchor="middle" x="284.5" y="-349.5" font-family="Helvetica,sans-Serif" font-size="10.00" fill="#000000">bf_cos_internal</text>
</a>
</g>
</g>
<!-- Node442573&#45;&gt;Node442574 -->
<g id="edge23" class="edge">
<title>Node442573&#45;&gt;Node442574</title>
<path fill="none" stroke="#191970" d="M184.2294,-352C197.8852,-352 215.7258,-352 232.5666,-352"/>
<polygon fill="#191970" stroke="#191970" points="232.8769,-355.5001 242.8768,-352 232.8768,-348.5001 232.8769,-355.5001"/>
</g>
<!-- Node442586&#45;&gt;Node442506 -->
<g id="edge29" class="edge">
<title>Node442586&#45;&gt;Node442506</title>
<path fill="none" stroke="#191970" d="M163.4041,-703.7398C170.3628,-729.5478 193.2099,-799.588 242,-827 318.4857,-869.9724 426.8982,-840.4654 480.4595,-821.1195"/>
<polygon fill="#191970" stroke="#191970" points="481.9579,-824.2964 490.1087,-817.5278 479.5159,-817.7362 481.9579,-824.2964"/>
</g>
<!-- Node442586&#45;&gt;Node442502 -->
<g id="edge34" class="edge">
<title>Node442586&#45;&gt;Node442502</title>
<path fill="none" stroke="#191970" d="M184.0957,-686.5201C245.3236,-666.6906 411.8692,-612.7526 481.6161,-590.1641"/>
<polygon fill="#191970" stroke="#191970" points="482.7451,-593.4775 491.1802,-587.0666 480.5883,-586.8181 482.7451,-593.4775"/>
</g>
<!-- Node442586&#45;&gt;Node442570 -->
<g id="edge35" class="edge">
<title>Node442586&#45;&gt;Node442570</title>
<path fill="none" stroke="#191970" d="M166.4339,-684.305C175.6963,-667.4331 194.6402,-631.3745 206,-599 228.9862,-533.4913 197.7299,-500.4781 242,-447 242.9986,-445.7937 244.0894,-444.6613 245.2529,-443.5983"/>
<polygon fill="#191970" stroke="#191970" points="247.6488,-446.1896 253.7761,-437.5463 243.5961,-440.4821 247.6488,-446.1896"/>
</g>
<!-- Node442587 -->
<g id="node17" class="node">
<title>Node442587</title>
<g id="a_node17"><a xlink:href="libbf_8h.html#aea49a0532c6bc29ed0c686717fd19aff" target="_top" xlink:title="bf_cmp_lt">
<polygon fill="none" stroke="#ff0000" points="255,-798.5 255,-817.5 314,-817.5 314,-798.5 255,-798.5"/>
<text text-anchor="middle" x="284.5" y="-805.5" font-family="Helvetica,sans-Serif" font-size="10.00" fill="#000000">bf_cmp_lt</text>
</a>
</g>
</g>
<!-- Node442586&#45;&gt;Node442587 -->
<g id="edge27" class="edge">
<title>Node442586&#45;&gt;Node442587</title>
<path fill="none" stroke="#191970" d="M167.9566,-703.6013C181.0061,-721.1437 210.6798,-758.8779 242,-784 246.1891,-787.3601 250.9087,-790.5274 255.6395,-793.3914"/>
<polygon fill="#191970" stroke="#191970" points="254.1913,-796.5942 264.614,-798.4963 257.6523,-790.5097 254.1913,-796.5942"/>
</g>
<!-- Node442589 -->
<g id="node18" class="node">
<title>Node442589</title>
<g id="a_node18"><a xlink:href="libbf_8h.html#a9660e7199a5e3dd436970b5e2e481516" target="_top" xlink:title="bf_const_log2">
<polygon fill="none" stroke="#ff0000" points="367.5,-684.5 367.5,-703.5 444.5,-703.5 444.5,-684.5 367.5,-684.5"/>
<text text-anchor="middle" x="406" y="-691.5" font-family="Helvetica,sans-Serif" font-size="10.00" fill="#000000">bf_const_log2</text>
</a>
</g>
</g>
<!-- Node442586&#45;&gt;Node442589 -->
<g id="edge28" class="edge">
<title>Node442586&#45;&gt;Node442589</title>
<path fill="none" stroke="#191970" d="M184.049,-694C223.4702,-694 304.6583,-694 357.1506,-694"/>
<polygon fill="#191970" stroke="#191970" points="357.2456,-697.5001 367.2456,-694 357.2455,-690.5001 357.2456,-697.5001"/>
</g>
<!-- Node442592 -->
<g id="node19" class="node">
<title>Node442592</title>
<g id="a_node19"><a xlink:href="libbf_8c.html#a157194b3c7faaa17e39ae78cd98c4385" target="_top" xlink:title="bf_exp_internal">
<polygon fill="none" stroke="#ff0000" points="243,-722.5 243,-741.5 326,-741.5 326,-722.5 243,-722.5"/>
<text text-anchor="middle" x="284.5" y="-729.5" font-family="Helvetica,sans-Serif" font-size="10.00" fill="#000000">bf_exp_internal</text>
</a>
</g>
</g>
<!-- Node442586&#45;&gt;Node442592 -->
<g id="edge30" class="edge">
<title>Node442586&#45;&gt;Node442592</title>
<path fill="none" stroke="#191970" d="M184.2294,-701.1475C200.9662,-706.2973 223.989,-713.3812 243.753,-719.4625"/>
<polygon fill="#191970" stroke="#191970" points="242.8582,-722.849 253.4454,-722.4447 244.9169,-716.1586 242.8582,-722.849"/>
</g>
<!-- Node442592&#45;&gt;Node442506 -->
<g id="edge32" class="edge">
<title>Node442592&#45;&gt;Node442506</title>
<path fill="none" stroke="#191970" d="M313.4397,-741.6255C354.5,-755.2823 429.7149,-780.299 475.1568,-795.4132"/>
<polygon fill="#191970" stroke="#191970" points="474.06,-798.7369 484.6535,-798.5719 476.2693,-792.0946 474.06,-798.7369"/>
</g>
<!-- Node442592&#45;&gt;Node442502 -->
<g id="edge33" class="edge">
<title>Node442592&#45;&gt;Node442502</title>
<path fill="none" stroke="#191970" d="M326.2624,-737.6879C362.0827,-740.2887 413.4005,-738.3421 449,-713 487.1319,-685.8552 503.4313,-629.7338 509.6406,-599.8074"/>
<polygon fill="#191970" stroke="#191970" points="513.1261,-600.2125 511.5508,-589.7354 506.2487,-598.9081 513.1261,-600.2125"/>
</g>
<!-- Node442592&#45;&gt;Node442589 -->
<g id="edge31" class="edge">
<title>Node442592&#45;&gt;Node442589</title>
<path fill="none" stroke="#191970" d="M315.1596,-722.411C330.4124,-717.6406 349.0509,-711.8112 365.4666,-706.6771"/>
<polygon fill="#191970" stroke="#191970" points="366.8509,-709.9114 375.3502,-703.5859 364.7614,-703.2306 366.8509,-709.9114"/>
</g>
<!-- Node442595&#45;&gt;Node442506 -->
<g id="edge40" class="edge">
<title>Node442595&#45;&gt;Node442506</title>
<path fill="none" stroke="#191970" d="M165.587,-589.6837C182.722,-625.8576 242,-751 242,-751 276.6706,-780.5 408.3365,-797.5462 474.5269,-804.4212"/>
<polygon fill="#191970" stroke="#191970" points="474.2612,-807.9121 484.563,-805.4376 474.9666,-800.9477 474.2612,-807.9121"/>
</g>
<!-- Node442595&#45;&gt;Node442502 -->
<g id="edge41" class="edge">
<title>Node442595&#45;&gt;Node442502</title>
<path fill="none" stroke="#191970" d="M182.5285,-575.2444C198.7757,-571.9082 221.6671,-567.7442 242,-566 333.6633,-558.1368 357.5328,-556.1127 449,-566 459.686,-567.1551 471.2037,-569.3652 481.4829,-571.6939"/>
<polygon fill="#191970" stroke="#191970" points="480.7336,-575.1132 491.2726,-574.0275 482.3568,-568.304 480.7336,-575.1132"/>
</g>
<!-- Node442595&#45;&gt;Node442570 -->
<g id="edge42" class="edge">
<title>Node442595&#45;&gt;Node442570</title>
<path fill="none" stroke="#191970" d="M182.5479,-575.082C190.8615,-572.212 199.834,-567.7722 206,-561 241.7712,-521.7121 206.6412,-486.6593 242,-447 243.1833,-445.6728 244.4771,-444.4334 245.8536,-443.2765"/>
<polygon fill="#191970" stroke="#191970" points="248.0908,-445.9905 254.4495,-437.5159 244.1939,-440.1755 248.0908,-445.9905"/>
</g>
<!-- Node442582&#45;&gt;Node442512 -->
<g id="edge44" class="edge">
<title>Node442582&#45;&gt;Node442512</title>
<path fill="none" stroke="#191970" d="M428.0616,-238.5072C455.6686,-239.8918 503.8339,-244.8203 541,-262 558.9904,-270.3159 576.1132,-285.0488 587.9545,-296.7144"/>
<polygon fill="#191970" stroke="#191970" points="585.7618,-299.4784 595.2543,-304.1841 590.7681,-294.5859 585.7618,-299.4784"/>
</g>
<!-- Node442598&#45;&gt;Node442570 -->
<g id="edge49" class="edge">
<title>Node442598&#45;&gt;Node442570</title>
<path fill="none" stroke="#191970" d="M182.5121,-396.6191C199.3789,-401.8089 223.3399,-409.1815 243.7992,-415.4767"/>
<polygon fill="#191970" stroke="#191970" points="242.9279,-418.8705 253.5151,-418.4662 244.9866,-412.18 242.9279,-418.8705"/>
</g>
<!-- Node442600&#45;&gt;Node442570 -->
<g id="edge52" class="edge">
<title>Node442600&#45;&gt;Node442570</title>
<path fill="none" stroke="#191970" d="M183.0793,-428C196.5815,-428 214.472,-428 231.4641,-428"/>
<polygon fill="#191970" stroke="#191970" points="231.8808,-431.5001 241.8808,-428 231.8807,-424.5001 231.8808,-431.5001"/>
</g>
<!-- Node442635&#45;&gt;Node442506 -->
<g id="edge57" class="edge">
<title>Node442635&#45;&gt;Node442506</title>
<path fill="none" stroke="#191970" d="M424.8346,-874.405C432.5098,-870.2616 441.357,-865.1807 449,-860 464.9833,-849.166 481.8898,-835.3139 494.31,-824.6312"/>
<polygon fill="#191970" stroke="#191970" points="496.8876,-827.0274 502.1254,-817.8178 492.2877,-821.7509 496.8876,-827.0274"/>
</g>
<!-- Node442635&#45;&gt;Node442502 -->
<g id="edge58" class="edge">
<title>Node442635&#45;&gt;Node442502</title>
<path fill="none" stroke="#191970" d="M409.4389,-874.2297C424.6263,-831.0805 485.8393,-657.167 506.3011,-599.0324"/>
<polygon fill="#191970" stroke="#191970" points="509.6086,-600.1772 509.6273,-589.5823 503.0056,-597.8531 509.6086,-600.1772"/>
</g>
<!-- Node442635&#45;&gt;Node442507 -->
<g id="edge59" class="edge">
<title>Node442635&#45;&gt;Node442507</title>
<path fill="none" stroke="#191970" d="M446.7574,-884C455.9262,-884 465.6253,-884 474.69,-884"/>
<polygon fill="#191970" stroke="#191970" points="474.9701,-887.5001 484.97,-884 474.97,-880.5001 474.9701,-887.5001"/>
</g>
</g>
</svg>
        <g id="navigator" transform="translate(0 0)" fill="#404254">
                <rect fill="#f2f5e9" fill-opacity="0.5" stroke="#606060" stroke-width=".5" x="0" y="0" width="60" height="60"/>
                <use id="zoomplus" xlink:href="#zoomPlus" x="17" y="9" onmousedown="handleZoom(evt,'in')"/>
                <use id="zoomminus" xlink:href="#zoomMin" x="42" y="9" onmousedown="handleZoom(evt,'out')"/>
                <use id="reset" xlink:href="#resetDef" x="30" y="36" onmousedown="handleReset()"/>
                <g id="arrowUp" xlink:href="#dirArrow" transform="translate(30 24)" onmousedown="handlePan(0,-1)">
                  <use xlink:href="#rim" fill="#404040">
                        <set attributeName="fill" to="#808080" begin="arrowUp.mouseover" end="arrowUp.mouseout"/>
                  </use>
                  <path fill="none" stroke="white" stroke-width="1.5" d="M0,-3.0v7 M-2.5,-0.5L0,-3.0L2.5,-0.5"/>
                </g>
                <g id="arrowRight" xlink:href="#dirArrow" transform="rotate(90) translate(36 -43)" onmousedown="handlePan(1,0)">
                  <use xlink:href="#rim" fill="#404040">
                        <set attributeName="fill" to="#808080" begin="arrowRight.mouseover" end="arrowRight.mouseout"/>
                  </use>
                  <path fill="none" stroke="white" stroke-width="1.5" d="M0,-3.0v7 M-2.5,-0.5L0,-3.0L2.5,-0.5"/>
                </g>
                <g id="arrowDown" xlink:href="#dirArrow" transform="rotate(180) translate(-30 -48)" onmousedown="handlePan(0,1)">
                  <use xlink:href="#rim" fill="#404040">
                        <set attributeName="fill" to="#808080" begin="arrowDown.mouseover" end="arrowDown.mouseout"/>
                  </use>
                  <path fill="none" stroke="white" stroke-width="1.5" d="M0,-3.0v7 M-2.5,-0.5L0,-3.0L2.5,-0.5"/>
                </g>
                <g id="arrowLeft" xlink:href="#dirArrow" transform="rotate(270) translate(-36 17)" onmousedown="handlePan(-1,0)">
                  <use xlink:href="#rim" fill="#404040">
                        <set attributeName="fill" to="#808080" begin="arrowLeft.mouseover" end="arrowLeft.mouseout"/>
                  </use>
                  <path fill="none" stroke="white" stroke-width="1.5" d="M0,-3.0v7 M-2.5,-0.5L0,-3.0L2.5,-0.5"/>
                </g>
        </g>
        <svg viewBox="0 0 15 15" width="100%" height="30px" preserveAspectRatio="xMaxYMin meet">
         <g id="arrow_out" transform="scale(0.3 0.3)">
          <a xlink:href="quickjs_8c_af8435aca7fa84b4be13710a0311d990b_cgraph_org.svg" target="_base">
           <rect id="button" ry="5" rx="5" y="6" x="6" height="38" width="38"
                fill="#f2f5e9" fill-opacity="0.5" stroke="#606060" stroke-width="1.0"/>
           <path id="arrow"
             d="M 11.500037,31.436501 C 11.940474,20.09759 22.043105,11.32322 32.158766,21.979434 L 37.068811,17.246167 C 37.068811,17.246167 37.088388,32 37.088388,32 L 22.160133,31.978069 C 22.160133,31.978069 26.997745,27.140456 26.997745,27.140456 C 18.528582,18.264221 13.291696,25.230495 11.500037,31.436501 z"
             style="fill:#404040;"/>
          </a>
         </g>
        </svg>
</svg>
