<?xml version="1.0" encoding="UTF-8" standalone="no"?>
<!DOCTYPE svg PUBLIC "-//W3C//DTD SVG 1.1//EN"
 "http://www.w3.org/Graphics/SVG/1.1/DTD/svg11.dtd">
<!-- Generated by graphviz version 2.40.1 (20161225.0304)
 -->
<!-- Title: js_string_define_own_property Pages: 1 -->
<!--zoomable 232 -->
<svg id="main" version="1.1" xmlns="http://www.w3.org/2000/svg" xmlns:xlink="http://www.w3.org/1999/xlink" xml:space="preserve" onload="init(evt)">
<style type="text/css"><![CDATA[
.edge:hover path { stroke: red; }
.edge:hover polygon { stroke: red; fill: red; }
]]></style>
<script type="text/javascript"><![CDATA[
var edges = document.getElementsByTagName('g');
if (edges && edges.length) {
  for (var i=0;i<edges.length;i++) {
    if (edges[i].id.substr(0,4)=='edge') {
      edges[i].setAttribute('class','edge');
    }
  }
}
]]></script>
        <defs>
                <circle id="rim" cx="0" cy="0" r="7"/>
                <circle id="rim2" cx="0" cy="0" r="3.5"/>
                <g id="zoomPlus">
                        <use xlink:href="#rim" fill="#404040">
                                <set attributeName="fill" to="#808080" begin="zoomplus.mouseover" end="zoomplus.mouseout"/>
                        </use>
                        <path d="M-4,0h8M0,-4v8" fill="none" stroke="white" stroke-width="1.5" pointer-events="none"/>
                </g>
                <g id="zoomMin">
                        <use xlink:href="#rim" fill="#404040">
                                <set attributeName="fill" to="#808080" begin="zoomminus.mouseover" end="zoomminus.mouseout"/>
                        </use>
                        <path d="M-4,0h8" fill="none" stroke="white" stroke-width="1.5" pointer-events="none"/>
                </g>
                <g id="dirArrow">
                        <path fill="none" stroke="white" stroke-width="1.5" d="M0,-3.0v7 M-2.5,-0.5L0,-3.0L2.5,-0.5"/>
                </g>
               <g id="resetDef">
                       <use xlink:href="#rim2" fill="#404040">
                               <set attributeName="fill" to="#808080" begin="reset.mouseover" end="reset.mouseout"/>
                       </use>
               </g>
        </defs>

<script type="text/javascript">
var viewWidth = 717;
var viewHeight = 232;
var sectionId = 'dynsection-1428';
</script>
<script xlink:href="svgpan.js"/>
<svg id="graph" class="graph">
<g id="viewport">
<title>js_string_define_own_property</title>
<!-- Node375252 -->
<g id="node1" class="node">
<title>Node375252</title>
<polygon fill="#bfbfbf" stroke="#000000" points="0,-90 0,-120 108,-120 108,-90 0,-90"/>
<text text-anchor="start" x="8" y="-108" font-family="Helvetica,sans-Serif" font-size="10.00" fill="#000000">js_string_define_own</text>
<text text-anchor="middle" x="54" y="-97" font-family="Helvetica,sans-Serif" font-size="10.00" fill="#000000">_property</text>
</g>
<!-- Node375253 -->
<g id="node2" class="node">
<title>Node375253</title>
<g id="a_node2"><a xlink:href="quickjs_8c.html#a2f49d212e519c9e138d8b48148b6f955" target="_top" xlink:title="__attribute__">
<polygon fill="none" stroke="#000000" points="328,-185.5 328,-204.5 401,-204.5 401,-185.5 328,-185.5"/>
<text text-anchor="middle" x="364.5" y="-192.5" font-family="Helvetica,sans-Serif" font-size="10.00" fill="#000000">__attribute__</text>
</a>
</g>
</g>
<!-- Node375252&#45;&gt;Node375253 -->
<g id="edge1" class="edge">
<title>Node375252&#45;&gt;Node375253</title>
<path fill="none" stroke="#191970" d="M72.373,-120.2423C89.7157,-133.7652 117.0174,-152.8963 144,-163 201.3016,-184.4566 271.9746,-191.6148 317.6183,-193.9524"/>
<polygon fill="#191970" stroke="#191970" points="317.6622,-197.4579 327.8107,-194.4154 317.9799,-190.4651 317.6622,-197.4579"/>
</g>
<!-- Node375311 -->
<g id="node7" class="node">
<title>Node375311</title>
<g id="a_node7"><a xlink:href="quickjs_8c.html#a288254c06a39c9fca740a7abdad2834e" target="_top" xlink:title="__JS_AtomIsTaggedInt">
<polygon fill="none" stroke="#000000" points="305,-142.5 305,-161.5 424,-161.5 424,-142.5 305,-142.5"/>
<text text-anchor="middle" x="364.5" y="-149.5" font-family="Helvetica,sans-Serif" font-size="10.00" fill="#000000">__JS_AtomIsTaggedInt</text>
</a>
</g>
</g>
<!-- Node375252&#45;&gt;Node375311 -->
<g id="edge6" class="edge">
<title>Node375252&#45;&gt;Node375311</title>
<path fill="none" stroke="#191970" d="M82.3082,-120.0554C99.6109,-128.461 122.4833,-138.185 144,-143 193.4973,-154.0766 250.7691,-156.1038 294.5374,-155.479"/>
<polygon fill="#191970" stroke="#191970" points="294.8622,-158.9735 304.7927,-155.2809 294.7269,-151.9748 294.8622,-158.9735"/>
</g>
<!-- Node375312 -->
<g id="node8" class="node">
<title>Node375312</title>
<g id="a_node8"><a xlink:href="quickjs_8c.html#a89f38938cee8077ce1fbba07946ed185" target="_top" xlink:title="__JS_AtomToUInt32">
<polygon fill="none" stroke="#000000" points="310.5,-95.5 310.5,-114.5 418.5,-114.5 418.5,-95.5 310.5,-95.5"/>
<text text-anchor="middle" x="364.5" y="-102.5" font-family="Helvetica,sans-Serif" font-size="10.00" fill="#000000">__JS_AtomToUInt32</text>
</a>
</g>
</g>
<!-- Node375252&#45;&gt;Node375312 -->
<g id="edge7" class="edge">
<title>Node375252&#45;&gt;Node375312</title>
<path fill="none" stroke="#191970" d="M108.085,-105C161.4906,-105 243.1852,-105 299.9562,-105"/>
<polygon fill="#191970" stroke="#191970" points="300.2542,-108.5001 310.2541,-105 300.2541,-101.5001 300.2542,-108.5001"/>
</g>
<!-- Node375463 -->
<g id="node9" class="node">
<title>Node375463</title>
<g id="a_node9"><a xlink:href="quickjs_8c.html#a68c7ae36cec3bf8bbf6cc0868a71cc4b" target="_top" xlink:title="check_define_prop_flags">
<polygon fill="none" stroke="#000000" points="302,-57.5 302,-76.5 427,-76.5 427,-57.5 302,-57.5"/>
<text text-anchor="middle" x="364.5" y="-64.5" font-family="Helvetica,sans-Serif" font-size="10.00" fill="#000000">check_define_prop_flags</text>
</a>
</g>
</g>
<!-- Node375252&#45;&gt;Node375463 -->
<g id="edge8" class="edge">
<title>Node375252&#45;&gt;Node375463</title>
<path fill="none" stroke="#191970" d="M108.085,-98.3809C158.9552,-92.1552 235.4924,-82.7884 291.7081,-75.9085"/>
<polygon fill="#191970" stroke="#191970" points="292.4568,-79.3431 301.9576,-74.6541 291.6064,-72.3949 292.4568,-79.3431"/>
</g>
<!-- Node375462 -->
<g id="node10" class="node">
<title>Node375462</title>
<g id="a_node10"><a xlink:href="quickjs_8c.html#ab50618f1bf78e444caa6da0e3e2785d7" target="_top" xlink:title="JS_DefineProperty">
<polygon fill="none" stroke="#ff0000" points="155.5,-114.5 155.5,-133.5 254.5,-133.5 254.5,-114.5 155.5,-114.5"/>
<text text-anchor="middle" x="205" y="-121.5" font-family="Helvetica,sans-Serif" font-size="10.00" fill="#000000">JS_DefineProperty</text>
</a>
</g>
</g>
<!-- Node375252&#45;&gt;Node375462 -->
<g id="edge9" class="edge">
<title>Node375252&#45;&gt;Node375462</title>
<path fill="none" stroke="#191970" d="M108.088,-111.8058C120.1205,-113.3198 132.9441,-114.9334 145.1914,-116.4744"/>
<polygon fill="#191970" stroke="#191970" points="144.9547,-119.9722 155.3135,-117.7481 145.8287,-113.0269 144.9547,-119.9722"/>
</g>
<!-- Node375670 -->
<g id="node11" class="node">
<title>Node375670</title>
<g id="a_node11"><a xlink:href="quickjs_8c.html#a227877547c8e90810edb74d106df7b25" target="_top" xlink:title="js_string_obj_get_length">
<polygon fill="none" stroke="#000000" points="144,-.5 144,-19.5 266,-19.5 266,-.5 144,-.5"/>
<text text-anchor="middle" x="205" y="-7.5" font-family="Helvetica,sans-Serif" font-size="10.00" fill="#000000">js_string_obj_get_length</text>
</a>
</g>
</g>
<!-- Node375252&#45;&gt;Node375670 -->
<g id="edge14" class="edge">
<title>Node375252&#45;&gt;Node375670</title>
<path fill="none" stroke="#191970" d="M70.1839,-89.8072C87.4284,-74.2251 116.043,-50.0586 144,-34 150.9387,-30.0144 158.6675,-26.4077 166.229,-23.2723"/>
<polygon fill="#191970" stroke="#191970" points="167.6259,-26.4839 175.6453,-19.56 165.0585,-19.9717 167.6259,-26.4839"/>
</g>
<!-- Node375254 -->
<g id="node3" class="node">
<title>Node375254</title>
<g id="a_node3"><a xlink:href="quickjs_8c.html#a686cf78f8b0361621ee2ba6182195c31" target="_top" xlink:title="is_strict_mode">
<polygon fill="none" stroke="#000000" points="464,-204.5 464,-223.5 544,-223.5 544,-204.5 464,-204.5"/>
<text text-anchor="middle" x="504" y="-211.5" font-family="Helvetica,sans-Serif" font-size="10.00" fill="#000000">is_strict_mode</text>
</a>
</g>
</g>
<!-- Node375253&#45;&gt;Node375254 -->
<g id="edge2" class="edge">
<title>Node375253&#45;&gt;Node375254</title>
<path fill="none" stroke="#191970" d="M401.152,-199.992C417.2126,-202.1795 436.321,-204.7821 453.6836,-207.1469"/>
<polygon fill="#191970" stroke="#191970" points="453.2875,-210.6252 463.6684,-208.5068 454.2322,-203.6892 453.2875,-210.6252"/>
</g>
<!-- Node375255 -->
<g id="node4" class="node">
<title>Node375255</title>
<g id="a_node4"><a xlink:href="quickjs_8c.html#a1b110b017211230b8b6310e853cd2b54" target="_top" xlink:title="JS_ThrowError">
<polygon fill="none" stroke="#000000" points="463,-166.5 463,-185.5 545,-185.5 545,-166.5 463,-166.5"/>
<text text-anchor="middle" x="504" y="-173.5" font-family="Helvetica,sans-Serif" font-size="10.00" fill="#000000">JS_ThrowError</text>
</a>
</g>
</g>
<!-- Node375253&#45;&gt;Node375255 -->
<g id="edge3" class="edge">
<title>Node375253&#45;&gt;Node375255</title>
<path fill="none" stroke="#191970" d="M401.152,-190.008C416.7951,-187.8774 435.3296,-185.353 452.3261,-183.038"/>
<polygon fill="#191970" stroke="#191970" points="453.2342,-186.4467 462.6704,-181.6291 452.2895,-179.5108 453.2342,-186.4467"/>
</g>
<!-- Node375256 -->
<g id="node5" class="node">
<title>Node375256</title>
<g id="a_node5"><a xlink:href="quickjs_8c.html#a7a7b507694cc1ecc4e3b5129fed3f5f6" target="_top" xlink:title="JS_GetFunctionBytecode">
<polygon fill="none" stroke="#ff0000" points="581,-185.5 581,-204.5 709,-204.5 709,-185.5 581,-185.5"/>
<text text-anchor="middle" x="645" y="-192.5" font-family="Helvetica,sans-Serif" font-size="10.00" fill="#000000">JS_GetFunctionBytecode</text>
</a>
</g>
</g>
<!-- Node375255&#45;&gt;Node375256 -->
<g id="edge4" class="edge">
<title>Node375255&#45;&gt;Node375256</title>
<path fill="none" stroke="#191970" d="M545.1621,-181.5467C553.3122,-182.6449 562.099,-183.8289 570.9606,-185.0231"/>
<polygon fill="#191970" stroke="#191970" points="570.5895,-188.5046 580.9674,-186.3715 571.5244,-181.5673 570.5895,-188.5046"/>
</g>
<!-- Node375258 -->
<g id="node6" class="node">
<title>Node375258</title>
<g id="a_node6"><a xlink:href="quickjs_8c.html#aeafb37b03b5560171754f8c4505b0f6b" target="_top" xlink:title="JS_ThrowError2">
<polygon fill="none" stroke="#ff0000" points="601.5,-147.5 601.5,-166.5 688.5,-166.5 688.5,-147.5 601.5,-147.5"/>
<text text-anchor="middle" x="645" y="-154.5" font-family="Helvetica,sans-Serif" font-size="10.00" fill="#000000">JS_ThrowError2</text>
</a>
</g>
</g>
<!-- Node375255&#45;&gt;Node375258 -->
<g id="edge5" class="edge">
<title>Node375255&#45;&gt;Node375258</title>
<path fill="none" stroke="#191970" d="M545.1621,-170.4533C559.4277,-168.531 575.6438,-166.3459 590.7973,-164.3039"/>
<polygon fill="#191970" stroke="#191970" points="591.6383,-167.7223 601.0813,-162.9181 590.7034,-160.785 591.6383,-167.7223"/>
</g>
<!-- Node375462&#45;&gt;Node375253 -->
<g id="edge10" class="edge">
<title>Node375462&#45;&gt;Node375253</title>
<path fill="none" stroke="#191970" d="M223.7391,-133.6644C243.1173,-143.5195 274.3561,-159.0206 302,-171 310.5236,-174.6937 319.8167,-178.4202 328.5682,-181.7991"/>
<polygon fill="#191970" stroke="#191970" points="327.5578,-185.1595 338.1488,-185.446 330.0481,-178.6174 327.5578,-185.1595"/>
</g>
<!-- Node375462&#45;&gt;Node375311 -->
<g id="edge11" class="edge">
<title>Node375462&#45;&gt;Node375311</title>
<path fill="none" stroke="#191970" d="M254.5925,-132.7059C269.0706,-135.2475 285.1039,-138.0621 300.3462,-140.7379"/>
<polygon fill="#191970" stroke="#191970" points="299.7695,-144.1901 310.2241,-142.4719 300.9799,-137.2955 299.7695,-144.1901"/>
</g>
<!-- Node375462&#45;&gt;Node375312 -->
<g id="edge12" class="edge">
<title>Node375462&#45;&gt;Node375312</title>
<path fill="none" stroke="#191970" d="M254.5925,-118.0924C268.9327,-116.3842 284.7987,-114.4942 299.9105,-112.694"/>
<polygon fill="#191970" stroke="#191970" points="300.7083,-116.1238 310.2241,-111.4655 299.8803,-109.173 300.7083,-116.1238"/>
</g>
<!-- Node375462&#45;&gt;Node375463 -->
<g id="edge13" class="edge">
<title>Node375462&#45;&gt;Node375463</title>
<path fill="none" stroke="#191970" d="M227.9375,-114.4279C247.4744,-106.4167 276.3718,-94.9001 302,-86 308.3343,-83.8002 315.0765,-81.6031 321.7003,-79.5247"/>
<polygon fill="#191970" stroke="#191970" points="322.7338,-82.8687 331.259,-76.5781 320.6717,-76.1793 322.7338,-82.8687"/>
</g>
</g>
</svg>
        <g id="navigator" transform="translate(0 0)" fill="#404254">
                <rect fill="#f2f5e9" fill-opacity="0.5" stroke="#606060" stroke-width=".5" x="0" y="0" width="60" height="60"/>
                <use id="zoomplus" xlink:href="#zoomPlus" x="17" y="9" onmousedown="handleZoom(evt,'in')"/>
                <use id="zoomminus" xlink:href="#zoomMin" x="42" y="9" onmousedown="handleZoom(evt,'out')"/>
                <use id="reset" xlink:href="#resetDef" x="30" y="36" onmousedown="handleReset()"/>
                <g id="arrowUp" xlink:href="#dirArrow" transform="translate(30 24)" onmousedown="handlePan(0,-1)">
                  <use xlink:href="#rim" fill="#404040">
                        <set attributeName="fill" to="#808080" begin="arrowUp.mouseover" end="arrowUp.mouseout"/>
                  </use>
                  <path fill="none" stroke="white" stroke-width="1.5" d="M0,-3.0v7 M-2.5,-0.5L0,-3.0L2.5,-0.5"/>
                </g>
                <g id="arrowRight" xlink:href="#dirArrow" transform="rotate(90) translate(36 -43)" onmousedown="handlePan(1,0)">
                  <use xlink:href="#rim" fill="#404040">
                        <set attributeName="fill" to="#808080" begin="arrowRight.mouseover" end="arrowRight.mouseout"/>
                  </use>
                  <path fill="none" stroke="white" stroke-width="1.5" d="M0,-3.0v7 M-2.5,-0.5L0,-3.0L2.5,-0.5"/>
                </g>
                <g id="arrowDown" xlink:href="#dirArrow" transform="rotate(180) translate(-30 -48)" onmousedown="handlePan(0,1)">
                  <use xlink:href="#rim" fill="#404040">
                        <set attributeName="fill" to="#808080" begin="arrowDown.mouseover" end="arrowDown.mouseout"/>
                  </use>
                  <path fill="none" stroke="white" stroke-width="1.5" d="M0,-3.0v7 M-2.5,-0.5L0,-3.0L2.5,-0.5"/>
                </g>
                <g id="arrowLeft" xlink:href="#dirArrow" transform="rotate(270) translate(-36 17)" onmousedown="handlePan(-1,0)">
                  <use xlink:href="#rim" fill="#404040">
                        <set attributeName="fill" to="#808080" begin="arrowLeft.mouseover" end="arrowLeft.mouseout"/>
                  </use>
                  <path fill="none" stroke="white" stroke-width="1.5" d="M0,-3.0v7 M-2.5,-0.5L0,-3.0L2.5,-0.5"/>
                </g>
        </g>
        <svg viewBox="0 0 15 15" width="100%" height="30px" preserveAspectRatio="xMaxYMin meet">
         <g id="arrow_out" transform="scale(0.3 0.3)">
          <a xlink:href="quickjs_8c_a1fdb56277638da2aef63b9be0c12895f_cgraph_org.svg" target="_base">
           <rect id="button" ry="5" rx="5" y="6" x="6" height="38" width="38"
                fill="#f2f5e9" fill-opacity="0.5" stroke="#606060" stroke-width="1.0"/>
           <path id="arrow"
             d="M 11.500037,31.436501 C 11.940474,20.09759 22.043105,11.32322 32.158766,21.979434 L 37.068811,17.246167 C 37.068811,17.246167 37.088388,32 37.088388,32 L 22.160133,31.978069 C 22.160133,31.978069 26.997745,27.140456 26.997745,27.140456 C 18.528582,18.264221 13.291696,25.230495 11.500037,31.436501 z"
             style="fill:#404040;"/>
          </a>
         </g>
        </svg>
</svg>
