<?xml version="1.0" encoding="UTF-8" standalone="no"?>
<!DOCTYPE svg PUBLIC "-//W3C//DTD SVG 1.1//EN"
 "http://www.w3.org/Graphics/SVG/1.1/DTD/svg11.dtd">
<!-- Generated by graphviz version 2.40.1 (20161225.0304)
 -->
<!-- Title: JS_SetPrivateField Pages: 1 -->
<svg width="707pt" height="1043pt"
 viewBox="0.00 0.00 707.00 1042.87" xmlns="http://www.w3.org/2000/svg" xmlns:xlink="http://www.w3.org/1999/xlink">
<g id="graph0" class="graph" transform="scale(1 1) rotate(0) translate(4 1038.8661)">
<title>JS_SetPrivateField</title>
<!-- Node161032 -->
<g id="node1" class="node">
<title>Node161032</title>
<polygon fill="#bfbfbf" stroke="#000000" points="0,-162.3661 0,-181.3661 101,-181.3661 101,-162.3661 0,-162.3661"/>
<text text-anchor="middle" x="50.5" y="-169.3661" font-family="Helvetica,sans-Serif" font-size="10.00" fill="#000000">JS_SetPrivateField</text>
</g>
<!-- Node161033 -->
<g id="node2" class="node">
<title>Node161033</title>
<g id="a_node2"><a xlink:href="quickjs_8c.html#ac2894ff4edcdb4e6841bcce9c76081e3" target="_top" xlink:title="JS_CallInternal">
<polygon fill="none" stroke="#000000" points="137,-162.3661 137,-181.3661 220,-181.3661 220,-162.3661 137,-162.3661"/>
<text text-anchor="middle" x="178.5" y="-169.3661" font-family="Helvetica,sans-Serif" font-size="10.00" fill="#000000">JS_CallInternal</text>
</a>
</g>
</g>
<!-- Node161032&#45;&gt;Node161033 -->
<g id="edge1" class="edge">
<title>Node161032&#45;&gt;Node161033</title>
<path fill="none" stroke="#191970" d="M111.2268,-171.8661C119.9273,-171.8661 128.7087,-171.8661 136.9255,-171.8661"/>
<polygon fill="#191970" stroke="#191970" points="111.089,-168.3662 101.089,-171.8661 111.089,-175.3662 111.089,-168.3662"/>
</g>
<!-- Node161033&#45;&gt;Node161033 -->
<g id="edge43" class="edge">
<title>Node161033&#45;&gt;Node161033</title>
<path fill="none" stroke="#191970" d="M154.6906,-190.8953C155.9893,-195.9941 163.9258,-199.8661 178.5,-199.8661 201.25,-199.8661 207.8262,-190.4314 198.2285,-181.6232"/>
<polygon fill="#191970" stroke="#191970" points="157.9465,-192.1859 158.7715,-181.6232 151.5396,-189.366 157.9465,-192.1859"/>
</g>
<!-- Node161034 -->
<g id="node3" class="node">
<title>Node161034</title>
<g id="a_node3"><a xlink:href="quickjs_8c.html#ade71a22dc56e7371392393df663b28b3" target="_top" xlink:title="async_func_resume">
<polygon fill="none" stroke="#000000" points="256,-922.3661 256,-941.3661 360,-941.3661 360,-922.3661 256,-922.3661"/>
<text text-anchor="middle" x="308" y="-929.3661" font-family="Helvetica,sans-Serif" font-size="10.00" fill="#000000">async_func_resume</text>
</a>
</g>
</g>
<!-- Node161033&#45;&gt;Node161034 -->
<g id="edge2" class="edge">
<title>Node161033&#45;&gt;Node161034</title>
<path fill="none" stroke="#191970" d="M179.2876,-191.5782C183.468,-290.8774 204.8246,-736.549 256,-863.8661 265.4226,-887.3083 285.2617,-909.6029 297.5278,-921.9365"/>
<polygon fill="#191970" stroke="#191970" points="182.7792,-191.3012 178.871,-181.4535 175.7852,-191.589 182.7792,-191.3012"/>
</g>
<!-- Node161046 -->
<g id="node8" class="node">
<title>Node161046</title>
<g id="a_node8"><a xlink:href="quickjs_8c.html#a1a4c02a29525d5cb2085dd8bca3af350" target="_top" xlink:title="JS_Call">
<polygon fill="none" stroke="#ff0000" points="282.5,-402.3661 282.5,-421.3661 333.5,-421.3661 333.5,-402.3661 282.5,-402.3661"/>
<text text-anchor="middle" x="308" y="-409.3661" font-family="Helvetica,sans-Serif" font-size="10.00" fill="#000000">JS_Call</text>
</a>
</g>
</g>
<!-- Node161033&#45;&gt;Node161046 -->
<g id="edge7" class="edge">
<title>Node161033&#45;&gt;Node161046</title>
<path fill="none" stroke="#191970" d="M190.6785,-190.2909C218.8408,-238.5243 287.3481,-366.0423 304.2053,-402.3522"/>
<polygon fill="#191970" stroke="#191970" points="193.5776,-188.318 185.4625,-181.5066 187.5588,-191.892 193.5776,-188.318"/>
</g>
<!-- Node161078 -->
<g id="node15" class="node">
<title>Node161078</title>
<g id="a_node15"><a xlink:href="quickjs_8c.html#ad35594576a14c10812efaf958c99af8a" target="_top" xlink:title="JS_CallConstructorInternal">
<polygon fill="none" stroke="#ff0000" points="565,-1.3661 565,-20.3661 699,-20.3661 699,-1.3661 565,-1.3661"/>
<text text-anchor="middle" x="632" y="-8.3661" font-family="Helvetica,sans-Serif" font-size="10.00" fill="#000000">JS_CallConstructorInternal</text>
</a>
</g>
</g>
<!-- Node161033&#45;&gt;Node161078 -->
<g id="edge38" class="edge">
<title>Node161033&#45;&gt;Node161078</title>
<path fill="none" stroke="#191970" d="M185.6956,-152.8534C197.5549,-128.8303 223.1945,-89.1616 256,-67.8661 352.8661,-4.9862 492.0678,2.8715 571.094,-1.3603"/>
<polygon fill="#191970" stroke="#191970" points="182.447,-151.5416 181.476,-162.0919 188.8143,-154.4498 182.447,-151.5416"/>
</g>
<!-- Node161129 -->
<g id="node30" class="node">
<title>Node161129</title>
<g id="a_node30"><a xlink:href="quickjs_8c.html#a75f6ee5e4235a7dc99889f3d2eb2c147" target="_top" xlink:title="JS_CallFree">
<polygon fill="none" stroke="#ff0000" points="272.5,-86.3661 272.5,-105.3661 343.5,-105.3661 343.5,-86.3661 272.5,-86.3661"/>
<text text-anchor="middle" x="308" y="-93.3661" font-family="Helvetica,sans-Serif" font-size="10.00" fill="#000000">JS_CallFree</text>
</a>
</g>
</g>
<!-- Node161033&#45;&gt;Node161129 -->
<g id="edge39" class="edge">
<title>Node161033&#45;&gt;Node161129</title>
<path fill="none" stroke="#191970" d="M191.9766,-155.2892C207.1168,-141.8557 232.6365,-123.9866 256,-110.8661 261.2017,-107.945 266.8215,-105.0748 272.3777,-102.5079"/>
<polygon fill="#191970" stroke="#191970" points="189.5197,-152.7959 184.7129,-162.2375 194.3585,-157.8542 189.5197,-152.7959"/>
</g>
<!-- Node161035 -->
<g id="node4" class="node">
<title>Node161035</title>
<g id="a_node4"><a xlink:href="quickjs_8c.html#a9d95ebd661628910e9e05ee872340848" target="_top" xlink:title="js_generator_function_call">
<polygon fill="none" stroke="#ff0000" points="397.5,-1015.3661 397.5,-1034.3661 527.5,-1034.3661 527.5,-1015.3661 397.5,-1015.3661"/>
<text text-anchor="middle" x="462.5" y="-1022.3661" font-family="Helvetica,sans-Serif" font-size="10.00" fill="#000000">js_generator_function_call</text>
</a>
</g>
</g>
<!-- Node161034&#45;&gt;Node161035 -->
<g id="edge3" class="edge">
<title>Node161034&#45;&gt;Node161035</title>
<path fill="none" stroke="#191970" d="M323.9957,-949.003C340.529,-965.7622 367.8284,-990.8851 396,-1005.8661 403.1029,-1009.6433 411.0429,-1012.7448 418.8953,-1015.2656"/>
<polygon fill="#191970" stroke="#191970" points="326.2486,-946.2972 316.7875,-941.5287 321.21,-951.1564 326.2486,-946.2972"/>
</g>
<!-- Node161039 -->
<g id="node5" class="node">
<title>Node161039</title>
<g id="a_node5"><a xlink:href="quickjs_8c.html#a1bf6b62983e8fff99c0a5d5a9f486115" target="_top" xlink:title="js_async_function_resume">
<polygon fill="none" stroke="#ff0000" points="396,-878.3661 396,-897.3661 529,-897.3661 529,-878.3661 396,-878.3661"/>
<text text-anchor="middle" x="462.5" y="-885.3661" font-family="Helvetica,sans-Serif" font-size="10.00" fill="#000000">js_async_function_resume</text>
</a>
</g>
</g>
<!-- Node161034&#45;&gt;Node161039 -->
<g id="edge4" class="edge">
<title>Node161034&#45;&gt;Node161039</title>
<path fill="none" stroke="#191970" d="M351.3344,-919.5249C375.9423,-912.5169 406.279,-903.8773 429.0412,-897.3948"/>
<polygon fill="#191970" stroke="#191970" points="350.1831,-916.2136 341.5242,-922.3188 352.1005,-922.9459 350.1831,-916.2136"/>
</g>
<!-- Node161044 -->
<g id="node6" class="node">
<title>Node161044</title>
<g id="a_node6"><a xlink:href="quickjs_8c.html#a89b019c704a2d2914bc30b30a72040b3" target="_top" xlink:title="js_async_generator\l_resume_next">
<polygon fill="none" stroke="#000000" points="412,-965.8661 412,-995.8661 513,-995.8661 513,-965.8661 412,-965.8661"/>
<text text-anchor="start" x="420" y="-983.8661" font-family="Helvetica,sans-Serif" font-size="10.00" fill="#000000">js_async_generator</text>
<text text-anchor="middle" x="462.5" y="-972.8661" font-family="Helvetica,sans-Serif" font-size="10.00" fill="#000000">_resume_next</text>
</a>
</g>
</g>
<!-- Node161034&#45;&gt;Node161044 -->
<g id="edge5" class="edge">
<title>Node161034&#45;&gt;Node161044</title>
<path fill="none" stroke="#191970" d="M347.8274,-944.4975C368.364,-951.0107 393.5533,-958.9995 415.0875,-965.8292"/>
<polygon fill="#191970" stroke="#191970" points="348.7461,-941.1171 338.1559,-941.4301 346.6299,-947.7896 348.7461,-941.1171"/>
</g>
<!-- Node161045 -->
<g id="node7" class="node">
<title>Node161045</title>
<g id="a_node7"><a xlink:href="quickjs_8c.html#aa74a153277ad53578233b4465c122100" target="_top" xlink:title="js_async_generator\l_function_call">
<polygon fill="none" stroke="#ff0000" points="412,-916.8661 412,-946.8661 513,-946.8661 513,-916.8661 412,-916.8661"/>
<text text-anchor="start" x="420" y="-934.8661" font-family="Helvetica,sans-Serif" font-size="10.00" fill="#000000">js_async_generator</text>
<text text-anchor="middle" x="462.5" y="-923.8661" font-family="Helvetica,sans-Serif" font-size="10.00" fill="#000000">_function_call</text>
</a>
</g>
</g>
<!-- Node161034&#45;&gt;Node161045 -->
<g id="edge6" class="edge">
<title>Node161034&#45;&gt;Node161045</title>
<path fill="none" stroke="#191970" d="M370.6264,-931.8661C384.3228,-931.8661 398.6559,-931.8661 411.8173,-931.8661"/>
<polygon fill="#191970" stroke="#191970" points="370.3067,-928.3662 360.3067,-931.8661 370.3066,-935.3662 370.3067,-928.3662"/>
</g>
<!-- Node161046&#45;&gt;Node161033 -->
<g id="edge18" class="edge">
<title>Node161046&#45;&gt;Node161033</title>
<path fill="none" stroke="#191970" d="M295.8914,-393.5611C267.8175,-345.4959 199.3844,-218.1267 182.3757,-181.5545"/>
<polygon fill="#191970" stroke="#191970" points="292.9725,-395.5006 301.089,-402.3104 298.9907,-391.9254 292.9725,-395.5006"/>
</g>
<!-- Node161046&#45;&gt;Node161039 -->
<g id="edge19" class="edge">
<title>Node161046&#45;&gt;Node161039</title>
<path fill="none" stroke="#191970" d="M309.1272,-431.8423C314.0011,-511.2099 335.8045,-803.1214 396,-868.8661 399.4866,-872.6741 403.6781,-875.7389 408.2394,-878.2028"/>
<polygon fill="#191970" stroke="#191970" points="312.6133,-431.5024 308.5284,-421.7267 305.6255,-431.9161 312.6133,-431.5024"/>
</g>
<!-- Node161047 -->
<g id="node9" class="node">
<title>Node161047</title>
<g id="a_node9"><a xlink:href="structqjs_1_1js__traits_3_01std_1_1function_3_01R_07Args_8_8_8_08_4_01_4.html#abc36cacd670b6b5f1773734a0586a02b" target="_top" xlink:title="qjs::js_traits\&lt; std\l::function\&lt; R(Args...)\l\&gt; \&gt;::unwrap">
<polygon fill="none" stroke="#000000" points="408,-516.3661 408,-557.3661 517,-557.3661 517,-516.3661 408,-516.3661"/>
<text text-anchor="start" x="416" y="-545.3661" font-family="Helvetica,sans-Serif" font-size="10.00" fill="#000000">qjs::js_traits&lt; std</text>
<text text-anchor="start" x="416" y="-534.3661" font-family="Helvetica,sans-Serif" font-size="10.00" fill="#000000">::function&lt; R(Args...)</text>
<text text-anchor="middle" x="462.5" y="-523.3661" font-family="Helvetica,sans-Serif" font-size="10.00" fill="#000000">&gt; &gt;::unwrap</text>
</a>
</g>
</g>
<!-- Node161046&#45;&gt;Node161047 -->
<g id="edge8" class="edge">
<title>Node161046&#45;&gt;Node161047</title>
<path fill="none" stroke="#191970" d="M320.8989,-429.6386C336.6897,-450.385 365.1609,-484.6766 396,-506.8661 400.7292,-510.2689 405.906,-513.4174 411.2168,-516.2932"/>
<polygon fill="#191970" stroke="#191970" points="323.5394,-427.3247 314.7551,-421.4013 317.9282,-431.5098 323.5394,-427.3247"/>
</g>
<!-- Node161048 -->
<g id="node10" class="node">
<title>Node161048</title>
<g id="a_node10"><a xlink:href="quickjs-libc_8c.html#abb1cbe3fdf905e81f603a3a0bfce475a" target="_top" xlink:title="call_handler">
<polygon fill="none" stroke="#ff0000" points="428.5,-478.3661 428.5,-497.3661 496.5,-497.3661 496.5,-478.3661 428.5,-478.3661"/>
<text text-anchor="middle" x="462.5" y="-485.3661" font-family="Helvetica,sans-Serif" font-size="10.00" fill="#000000">call_handler</text>
</a>
</g>
</g>
<!-- Node161046&#45;&gt;Node161048 -->
<g id="edge9" class="edge">
<title>Node161046&#45;&gt;Node161048</title>
<path fill="none" stroke="#191970" d="M328.32,-427.5286C345.54,-440.1713 371.3041,-457.6434 396,-468.8661 406.1661,-473.486 417.7222,-477.2567 428.3166,-480.1856"/>
<polygon fill="#191970" stroke="#191970" points="330.2495,-424.6011 320.1448,-421.4162 326.0579,-430.2074 330.2495,-424.6011"/>
</g>
<!-- Node161053 -->
<g id="node11" class="node">
<title>Node161053</title>
<g id="a_node11"><a xlink:href="quickjs_8c.html#aa049793cc8648d35fe81876a2543ca4e" target="_top" xlink:title="JS_GetIterator2">
<polygon fill="none" stroke="#ff0000" points="419.5,-440.3661 419.5,-459.3661 505.5,-459.3661 505.5,-440.3661 419.5,-440.3661"/>
<text text-anchor="middle" x="462.5" y="-447.3661" font-family="Helvetica,sans-Serif" font-size="10.00" fill="#000000">JS_GetIterator2</text>
</a>
</g>
</g>
<!-- Node161046&#45;&gt;Node161053 -->
<g id="edge10" class="edge">
<title>Node161046&#45;&gt;Node161053</title>
<path fill="none" stroke="#191970" d="M343.2646,-420.5396C367.2256,-426.4329 398.9273,-434.2301 423.6191,-440.3032"/>
<polygon fill="#191970" stroke="#191970" points="344.0591,-417.1308 333.5125,-418.1411 342.3872,-423.9282 344.0591,-417.1308"/>
</g>
<!-- Node161072 -->
<g id="node12" class="node">
<title>Node161072</title>
<g id="a_node12"><a xlink:href="quickjs_8c.html#ad6303fbd3add4afa0cb64b0aa6d431ce" target="_top" xlink:title="JS_IteratorNext2">
<polygon fill="none" stroke="#ff0000" points="417,-402.3661 417,-421.3661 508,-421.3661 508,-402.3661 417,-402.3661"/>
<text text-anchor="middle" x="462.5" y="-409.3661" font-family="Helvetica,sans-Serif" font-size="10.00" fill="#000000">JS_IteratorNext2</text>
</a>
</g>
</g>
<!-- Node161046&#45;&gt;Node161072 -->
<g id="edge11" class="edge">
<title>Node161046&#45;&gt;Node161072</title>
<path fill="none" stroke="#191970" d="M343.6603,-411.8661C365.4599,-411.8661 393.5551,-411.8661 416.9545,-411.8661"/>
<polygon fill="#191970" stroke="#191970" points="343.5126,-408.3662 333.5125,-411.8661 343.5125,-415.3662 343.5126,-408.3662"/>
</g>
<!-- Node161076 -->
<g id="node13" class="node">
<title>Node161076</title>
<g id="a_node13"><a xlink:href="quickjs_8c.html#a62424fefab7bcc97f49c978205c7a1c1" target="_top" xlink:title="js_for_await_of_next">
<polygon fill="none" stroke="#000000" points="409,-802.3661 409,-821.3661 516,-821.3661 516,-802.3661 409,-802.3661"/>
<text text-anchor="middle" x="462.5" y="-809.3661" font-family="Helvetica,sans-Serif" font-size="10.00" fill="#000000">js_for_await_of_next</text>
</a>
</g>
</g>
<!-- Node161046&#45;&gt;Node161076 -->
<g id="edge12" class="edge">
<title>Node161046&#45;&gt;Node161076</title>
<path fill="none" stroke="#191970" d="M313.2938,-431.4564C323.0566,-467.8527 344.3294,-548.4267 360,-616.8661 377.8203,-694.6938 341.7446,-734.2908 396,-792.8661 399.6717,-796.8301 404.1073,-799.9876 408.9249,-802.4997"/>
<polygon fill="#191970" stroke="#191970" points="316.6311,-430.3885 310.6525,-421.6417 309.8716,-432.2077 316.6311,-430.3885"/>
</g>
<!-- Node161077 -->
<g id="node14" class="node">
<title>Node161077</title>
<g id="a_node14"><a xlink:href="quickjs_8c.html#afd4ef2d701fa0702f321925b61c57bbf" target="_top" xlink:title="js_call_bound_function">
<polygon fill="none" stroke="#000000" points="404.5,-840.3661 404.5,-859.3661 520.5,-859.3661 520.5,-840.3661 404.5,-840.3661"/>
<text text-anchor="middle" x="462.5" y="-847.3661" font-family="Helvetica,sans-Serif" font-size="10.00" fill="#000000">js_call_bound_function</text>
</a>
</g>
</g>
<!-- Node161046&#45;&gt;Node161077 -->
<g id="edge14" class="edge">
<title>Node161046&#45;&gt;Node161077</title>
<path fill="none" stroke="#191970" d="M309.5246,-432.0726C315.6132,-507.507 340.5869,-771.3551 396,-830.8661 399.6002,-834.7326 403.9274,-837.8313 408.6252,-840.3118"/>
<polygon fill="#191970" stroke="#191970" points="312.978,-431.3399 308.7078,-421.6437 305.9994,-431.8865 312.978,-431.3399"/>
</g>
<!-- Node161107 -->
<g id="node16" class="node">
<title>Node161107</title>
<g id="a_node16"><a xlink:href="quickjs_8c.html#a3e852026d167fa03c673f86697dd3e67" target="_top" xlink:title="js_async_generator\l_resolve_or_reject">
<polygon fill="none" stroke="#ff0000" points="412,-352.8661 412,-382.8661 513,-382.8661 513,-352.8661 412,-352.8661"/>
<text text-anchor="start" x="420" y="-370.8661" font-family="Helvetica,sans-Serif" font-size="10.00" fill="#000000">js_async_generator</text>
<text text-anchor="middle" x="462.5" y="-359.8661" font-family="Helvetica,sans-Serif" font-size="10.00" fill="#000000">_resolve_or_reject</text>
</a>
</g>
</g>
<!-- Node161046&#45;&gt;Node161107 -->
<g id="edge20" class="edge">
<title>Node161046&#45;&gt;Node161107</title>
<path fill="none" stroke="#191970" d="M343.2915,-401.8155C363.6101,-396.029 389.4881,-388.6592 411.9377,-382.2658"/>
<polygon fill="#191970" stroke="#191970" points="342.1715,-398.4952 333.5125,-404.6004 344.0888,-405.2275 342.1715,-398.4952"/>
</g>
<!-- Node161090 -->
<g id="node17" class="node">
<title>Node161090</title>
<g id="a_node17"><a xlink:href="quickjs_8c.html#a2355fabf91f59212ea65baba1b0b7c1b" target="_top" xlink:title="js_async_generator_next">
<polygon fill="none" stroke="#000000" points="400,-314.3661 400,-333.3661 525,-333.3661 525,-314.3661 400,-314.3661"/>
<text text-anchor="middle" x="462.5" y="-321.3661" font-family="Helvetica,sans-Serif" font-size="10.00" fill="#000000">js_async_generator_next</text>
</a>
</g>
</g>
<!-- Node161046&#45;&gt;Node161090 -->
<g id="edge21" class="edge">
<title>Node161046&#45;&gt;Node161090</title>
<path fill="none" stroke="#191970" d="M325.4,-395.2695C342.2568,-379.995 369.1452,-357.6774 396,-343.8661 404.1481,-339.6756 413.3192,-336.2105 422.1878,-333.4094"/>
<polygon fill="#191970" stroke="#191970" points="322.9418,-392.7755 317.9748,-402.1339 327.6937,-397.9155 322.9418,-392.7755"/>
</g>
<!-- Node161091 -->
<g id="node18" class="node">
<title>Node161091</title>
<g id="a_node18"><a xlink:href="quickjs_8c.html#a50e94675d1c4cf67c88e72169ea3c21a" target="_top" xlink:title="js_dynamic_import">
<polygon fill="none" stroke="#000000" points="413.5,-162.3661 413.5,-181.3661 511.5,-181.3661 511.5,-162.3661 413.5,-162.3661"/>
<text text-anchor="middle" x="462.5" y="-169.3661" font-family="Helvetica,sans-Serif" font-size="10.00" fill="#000000">js_dynamic_import</text>
</a>
</g>
</g>
<!-- Node161046&#45;&gt;Node161091 -->
<g id="edge22" class="edge">
<title>Node161046&#45;&gt;Node161091</title>
<path fill="none" stroke="#191970" d="M310.0618,-392.2028C315.6391,-349.1581 334.9774,-246.0367 396,-190.8661 400.9877,-186.3567 406.9754,-182.911 413.287,-180.2794"/>
<polygon fill="#191970" stroke="#191970" points="306.5752,-391.8842 308.8764,-402.2261 313.5267,-392.7065 306.5752,-391.8842"/>
</g>
<!-- Node161102 -->
<g id="node19" class="node">
<title>Node161102</title>
<g id="a_node19"><a xlink:href="quickjs_8c.html#a8d4b24969540aff427939eeda47f451d" target="_top" xlink:title="js_function_apply">
<polygon fill="none" stroke="#ff0000" points="416.5,-124.3661 416.5,-143.3661 508.5,-143.3661 508.5,-124.3661 416.5,-124.3661"/>
<text text-anchor="middle" x="462.5" y="-131.3661" font-family="Helvetica,sans-Serif" font-size="10.00" fill="#000000">js_function_apply</text>
</a>
</g>
</g>
<!-- Node161046&#45;&gt;Node161102 -->
<g id="edge24" class="edge">
<title>Node161046&#45;&gt;Node161102</title>
<path fill="none" stroke="#191970" d="M312.2336,-392.0745C324.2654,-337.5652 360.1142,-187.0273 396,-152.8661 401.7398,-147.4021 408.9401,-143.4926 416.4664,-140.6993"/>
<polygon fill="#191970" stroke="#191970" points="308.7427,-391.6567 310.0363,-402.1723 315.5826,-393.1452 308.7427,-391.6567"/>
</g>
<!-- Node161110 -->
<g id="node20" class="node">
<title>Node161110</title>
<g id="a_node20"><a xlink:href="quickjs_8c.html#a677ad630a103e1f3d5129e0549112b50" target="_top" xlink:title="js_function_call">
<polygon fill="none" stroke="#000000" points="420.5,-276.3661 420.5,-295.3661 504.5,-295.3661 504.5,-276.3661 420.5,-276.3661"/>
<text text-anchor="middle" x="462.5" y="-283.3661" font-family="Helvetica,sans-Serif" font-size="10.00" fill="#000000">js_function_call</text>
</a>
</g>
</g>
<!-- Node161046&#45;&gt;Node161110 -->
<g id="edge26" class="edge">
<title>Node161046&#45;&gt;Node161110</title>
<path fill="none" stroke="#191970" d="M318.3075,-393.4007C332.6354,-369.4271 360.8218,-327.9346 396,-304.8661 403.3298,-300.0596 411.8867,-296.4493 420.3748,-293.7438"/>
<polygon fill="#191970" stroke="#191970" points="315.1829,-391.8119 313.1925,-402.2181 321.2378,-395.3245 315.1829,-391.8119"/>
</g>
<!-- Node161056 -->
<g id="node21" class="node">
<title>Node161056</title>
<g id="a_node21"><a xlink:href="quickjs_8c.html#a5e32da9a43002cb96dcbd62a1a340144" target="_top" xlink:title="js_array_from">
<polygon fill="none" stroke="#000000" points="424.5,-238.3661 424.5,-257.3661 500.5,-257.3661 500.5,-238.3661 424.5,-238.3661"/>
<text text-anchor="middle" x="462.5" y="-245.3661" font-family="Helvetica,sans-Serif" font-size="10.00" fill="#000000">js_array_from</text>
</a>
</g>
</g>
<!-- Node161046&#45;&gt;Node161056 -->
<g id="edge27" class="edge">
<title>Node161046&#45;&gt;Node161056</title>
<path fill="none" stroke="#191970" d="M314.5272,-392.3038C325.9726,-361.0314 352.6523,-299.9432 396,-266.8661 404.2091,-260.602 414.4075,-256.4024 424.3323,-253.5871"/>
<polygon fill="#191970" stroke="#191970" points="311.1237,-391.4322 311.1118,-402.027 317.7282,-393.7521 311.1237,-391.4322"/>
</g>
<!-- Node161068 -->
<g id="node22" class="node">
<title>Node161068</title>
<g id="a_node22"><a xlink:href="quickjs_8c.html#aa0bbf08a7e91459c68a312fba7016c6d" target="_top" xlink:title="js_array_every">
<polygon fill="none" stroke="#000000" points="422.5,-200.3661 422.5,-219.3661 502.5,-219.3661 502.5,-200.3661 422.5,-200.3661"/>
<text text-anchor="middle" x="462.5" y="-207.3661" font-family="Helvetica,sans-Serif" font-size="10.00" fill="#000000">js_array_every</text>
</a>
</g>
</g>
<!-- Node161046&#45;&gt;Node161068 -->
<g id="edge28" class="edge">
<title>Node161046&#45;&gt;Node161068</title>
<path fill="none" stroke="#191970" d="M311.9099,-392.0584C320.3718,-354.4897 343.9715,-272.7276 396,-228.8661 403.436,-222.5974 412.8239,-218.3934 422.1841,-215.5752"/>
<polygon fill="#191970" stroke="#191970" points="308.4082,-391.699 309.755,-402.2079 315.2556,-393.1528 308.4082,-391.699"/>
</g>
<!-- Node161111 -->
<g id="node23" class="node">
<title>Node161111</title>
<g id="a_node23"><a xlink:href="quickjs_8c.html#a36c1692489542a86dd79a7d39ab8ff95" target="_top" xlink:title="js_array_reduce">
<polygon fill="none" stroke="#000000" points="419.5,-764.3661 419.5,-783.3661 505.5,-783.3661 505.5,-764.3661 419.5,-764.3661"/>
<text text-anchor="middle" x="462.5" y="-771.3661" font-family="Helvetica,sans-Serif" font-size="10.00" fill="#000000">js_array_reduce</text>
</a>
</g>
</g>
<!-- Node161046&#45;&gt;Node161111 -->
<g id="edge29" class="edge">
<title>Node161046&#45;&gt;Node161111</title>
<path fill="none" stroke="#191970" d="M312.9493,-431.4242C331.3084,-503.9395 394.5344,-753.3601 396,-754.8661 402.2807,-761.3197 410.589,-765.6227 419.1979,-768.4813"/>
<polygon fill="#191970" stroke="#191970" points="316.338,-430.5479 310.4911,-421.7125 309.552,-432.2657 316.338,-430.5479"/>
</g>
<!-- Node161112 -->
<g id="node24" class="node">
<title>Node161112</title>
<g id="a_node24"><a xlink:href="quickjs_8c.html#a9dd41b086da4e13b3487cc9c6e2af2b8" target="_top" xlink:title="js_array_find">
<polygon fill="none" stroke="#000000" points="426.5,-726.3661 426.5,-745.3661 498.5,-745.3661 498.5,-726.3661 426.5,-726.3661"/>
<text text-anchor="middle" x="462.5" y="-733.3661" font-family="Helvetica,sans-Serif" font-size="10.00" fill="#000000">js_array_find</text>
</a>
</g>
</g>
<!-- Node161046&#45;&gt;Node161112 -->
<g id="edge30" class="edge">
<title>Node161046&#45;&gt;Node161112</title>
<path fill="none" stroke="#191970" d="M313.1139,-431.5358C330.2995,-497.3587 385.4874,-706.3808 396,-716.8661 404.0763,-724.9215 415.3162,-729.6147 426.2595,-732.3319"/>
<polygon fill="#191970" stroke="#191970" points="316.4375,-430.4101 310.5288,-421.6159 309.6637,-432.1754 316.4375,-430.4101"/>
</g>
<!-- Node161113 -->
<g id="node25" class="node">
<title>Node161113</title>
<g id="a_node25"><a xlink:href="quickjs_8c.html#ad90c33b4aae1181151bda4a98ac2ef23" target="_top" xlink:title="JS_FlattenIntoArray">
<polygon fill="none" stroke="#ff0000" points="410.5,-670.3661 410.5,-689.3661 514.5,-689.3661 514.5,-670.3661 410.5,-670.3661"/>
<text text-anchor="middle" x="462.5" y="-677.3661" font-family="Helvetica,sans-Serif" font-size="10.00" fill="#000000">JS_FlattenIntoArray</text>
</a>
</g>
</g>
<!-- Node161046&#45;&gt;Node161113 -->
<g id="edge31" class="edge">
<title>Node161046&#45;&gt;Node161113</title>
<path fill="none" stroke="#191970" d="M309.0468,-431.4176C312.6248,-478.1517 328.2703,-597.1732 396,-660.8661 400.1986,-664.8144 405.1605,-667.9501 410.4521,-670.4391"/>
<polygon fill="#191970" stroke="#191970" points="312.537,-431.1511 308.3855,-421.4035 305.5522,-431.6124 312.537,-431.1511"/>
</g>
<!-- Node161114 -->
<g id="node26" class="node">
<title>Node161114</title>
<g id="a_node26"><a xlink:href="quickjs_8c.html#a753547f952d9c8a7eba88924497c3847" target="_top" xlink:title="js_string_replace">
<polygon fill="none" stroke="#000000" points="417.5,-48.3661 417.5,-67.3661 507.5,-67.3661 507.5,-48.3661 417.5,-48.3661"/>
<text text-anchor="middle" x="462.5" y="-55.3661" font-family="Helvetica,sans-Serif" font-size="10.00" fill="#000000">js_string_replace</text>
</a>
</g>
</g>
<!-- Node161046&#45;&gt;Node161114 -->
<g id="edge33" class="edge">
<title>Node161046&#45;&gt;Node161114</title>
<path fill="none" stroke="#191970" d="M310.6171,-392.0468C319.5591,-327.2167 350.8638,-122.9795 396,-76.8661 401.7953,-70.9454 409.2975,-66.836 417.1656,-63.9917"/>
<polygon fill="#191970" stroke="#191970" points="307.1223,-391.7732 309.2501,-402.1522 314.0592,-392.7117 307.1223,-391.7732"/>
</g>
<!-- Node161115 -->
<g id="node27" class="node">
<title>Node161115</title>
<g id="a_node27"><a xlink:href="quickjs_8c.html#a624282391413d4c5a030adbd8b77aa80" target="_top" xlink:title="internalize_json_property">
<polygon fill="none" stroke="#ff0000" points="400,-614.3661 400,-633.3661 525,-633.3661 525,-614.3661 400,-614.3661"/>
<text text-anchor="middle" x="462.5" y="-621.3661" font-family="Helvetica,sans-Serif" font-size="10.00" fill="#000000">internalize_json_property</text>
</a>
</g>
</g>
<!-- Node161046&#45;&gt;Node161115 -->
<g id="edge34" class="edge">
<title>Node161046&#45;&gt;Node161115</title>
<path fill="none" stroke="#191970" d="M311.3642,-431.6755C319.0554,-470.7639 341.6357,-558.0771 396,-604.8661 400.5503,-608.7824 405.86,-611.8937 411.4587,-614.365"/>
<polygon fill="#191970" stroke="#191970" points="314.7608,-430.7946 309.5055,-421.5951 307.8769,-432.064 314.7608,-430.7946"/>
</g>
<!-- Node161117 -->
<g id="node28" class="node">
<title>Node161117</title>
<g id="a_node28"><a xlink:href="quickjs_8c.html#a0da6493b4bc0edb7ddddfab807241d0b" target="_top" xlink:title="js_json_check">
<polygon fill="none" stroke="#ff0000" points="423,-86.3661 423,-105.3661 502,-105.3661 502,-86.3661 423,-86.3661"/>
<text text-anchor="middle" x="462.5" y="-93.3661" font-family="Helvetica,sans-Serif" font-size="10.00" fill="#000000">js_json_check</text>
</a>
</g>
</g>
<!-- Node161046&#45;&gt;Node161117 -->
<g id="edge36" class="edge">
<title>Node161046&#45;&gt;Node161117</title>
<path fill="none" stroke="#191970" d="M311.2691,-392.3827C321.6261,-332.8641 355.4348,-155.0375 396,-114.8661 403.2519,-107.6846 413.0193,-103.1775 422.8324,-100.3604"/>
<polygon fill="#191970" stroke="#191970" points="307.8008,-391.9005 309.5633,-402.3477 314.7005,-393.0816 307.8008,-391.9005"/>
</g>
<!-- Node161120 -->
<g id="node29" class="node">
<title>Node161120</title>
<g id="a_node29"><a xlink:href="quickjs_8c.html#ab586d841244b113ba73eec314395775d" target="_top" xlink:title="js_proxy_call">
<polygon fill="none" stroke="#ff0000" points="425.5,-576.3661 425.5,-595.3661 499.5,-595.3661 499.5,-576.3661 425.5,-576.3661"/>
<text text-anchor="middle" x="462.5" y="-583.3661" font-family="Helvetica,sans-Serif" font-size="10.00" fill="#000000">js_proxy_call</text>
</a>
</g>
</g>
<!-- Node161046&#45;&gt;Node161120 -->
<g id="edge37" class="edge">
<title>Node161046&#45;&gt;Node161120</title>
<path fill="none" stroke="#191970" d="M313.6872,-431.3726C324.3098,-464.3306 350.3253,-530.9495 396,-566.8661 404.4002,-573.4717 414.9972,-577.7808 425.2482,-580.5918"/>
<polygon fill="#191970" stroke="#191970" points="316.9589,-430.1044 310.6687,-421.5789 310.2694,-432.1662 316.9589,-430.1044"/>
</g>
<!-- Node161076&#45;&gt;Node161033 -->
<g id="edge13" class="edge">
<title>Node161076&#45;&gt;Node161033</title>
<path fill="none" stroke="#191970" d="M401.5256,-797.2225C399.5804,-795.8935 397.729,-794.445 396,-792.8661 268.6171,-676.5457 311.8794,-594.0664 256,-430.8661 223.1595,-334.9527 190.564,-216.5074 181.1797,-181.8349"/>
<polygon fill="#191970" stroke="#191970" points="400.1354,-800.4565 410.5658,-802.3164 403.5718,-794.358 400.1354,-800.4565"/>
</g>
<!-- Node161077&#45;&gt;Node161033 -->
<g id="edge15" class="edge">
<title>Node161077&#45;&gt;Node161033</title>
<path fill="none" stroke="#191970" d="M403.9996,-836.0003C401.1931,-834.465 398.5054,-832.7599 396,-830.8661 301.7416,-759.6198 298.2704,-715.2015 256,-604.8661 194.2547,-443.6967 181.1282,-229.6301 178.8996,-181.6715"/>
<polygon fill="#191970" stroke="#191970" points="402.7491,-839.2793 413.2899,-840.3484 405.7165,-832.9394 402.7491,-839.2793"/>
</g>
<!-- Node161077&#45;&gt;Node161078 -->
<g id="edge16" class="edge">
<title>Node161077&#45;&gt;Node161078</title>
<path fill="none" stroke="#191970" d="M525.7238,-834.2415C526.8789,-833.1863 527.9743,-832.0626 529,-830.8661 584.7983,-765.7812 626.1852,-107.5123 631.4359,-20.3729"/>
<polygon fill="#191970" stroke="#191970" points="523.4216,-831.5856 517.3365,-840.2587 527.5021,-837.2733 523.4216,-831.5856"/>
</g>
<!-- Node161078&#45;&gt;Node161033 -->
<g id="edge17" class="edge">
<title>Node161078&#45;&gt;Node161033</title>
<path fill="none" stroke="#191970" d="M554.7467,-14.0661C473.9372,-16.4003 346.4941,-27.1226 256,-85.8661 224.3996,-106.3793 199.4483,-143.9406 187.058,-162.1949"/>
<polygon fill="#191970" stroke="#191970" points="554.9449,-17.5623 564.8529,-13.8095 554.7672,-10.5646 554.9449,-17.5623"/>
</g>
<!-- Node161091&#45;&gt;Node161033 -->
<g id="edge23" class="edge">
<title>Node161091&#45;&gt;Node161033</title>
<path fill="none" stroke="#191970" d="M402.8798,-171.8661C348.0941,-171.8661 268.2991,-171.8661 220.1002,-171.8661"/>
<polygon fill="#191970" stroke="#191970" points="403.1457,-175.3662 413.1457,-171.8661 403.1456,-168.3662 403.1457,-175.3662"/>
</g>
<!-- Node161102&#45;&gt;Node161033 -->
<g id="edge25" class="edge">
<title>Node161102&#45;&gt;Node161033</title>
<path fill="none" stroke="#191970" d="M405.8165,-141.4505C350.9799,-148.7878 269.1675,-159.7346 220.1002,-166.2999"/>
<polygon fill="#191970" stroke="#191970" points="406.6194,-144.8744 416.0669,-140.079 405.691,-137.9362 406.6194,-144.8744"/>
</g>
<!-- Node161113&#45;&gt;Node161113 -->
<g id="edge32" class="edge">
<title>Node161113&#45;&gt;Node161113</title>
<path fill="none" stroke="#191970" d="M433.7542,-698.5201C434.9558,-703.8029 444.5377,-707.8661 462.5,-707.8661 489.8711,-707.8661 497.7831,-698.4314 486.2359,-689.6232"/>
<polygon fill="#191970" stroke="#191970" points="436.9072,-700.054 438.7641,-689.6232 430.8077,-696.6193 436.9072,-700.054"/>
</g>
<!-- Node161115&#45;&gt;Node161115 -->
<g id="edge35" class="edge">
<title>Node161115&#45;&gt;Node161115</title>
<path fill="none" stroke="#191970" d="M433.7542,-642.5201C434.9558,-647.8029 444.5377,-651.8661 462.5,-651.8661 489.8711,-651.8661 497.7831,-642.4314 486.2359,-633.6232"/>
<polygon fill="#191970" stroke="#191970" points="436.9072,-644.054 438.7641,-633.6232 430.8077,-640.6193 436.9072,-644.054"/>
</g>
<!-- Node161129&#45;&gt;Node161033 -->
<g id="edge40" class="edge">
<title>Node161129&#45;&gt;Node161033</title>
<path fill="none" stroke="#191970" d="M290.8815,-110.7619C280.5736,-116.4147 267.3,-122.5202 256,-128.8661 237.3516,-139.3387 217.3295,-152.8367 202.3083,-162.2219"/>
<polygon fill="#191970" stroke="#191970" points="292.911,-113.6263 299.6946,-105.4879 289.3164,-107.6197 292.911,-113.6263"/>
</g>
<!-- Node161129&#45;&gt;Node161114 -->
<g id="edge42" class="edge">
<title>Node161129&#45;&gt;Node161114</title>
<path fill="none" stroke="#191970" d="M353.7158,-84.6221C375.941,-79.1557 402.3704,-72.6553 423.6129,-67.4306"/>
<polygon fill="#191970" stroke="#191970" points="352.7084,-81.2655 343.8337,-87.0526 354.3803,-88.0629 352.7084,-81.2655"/>
</g>
<!-- Node161129&#45;&gt;Node161117 -->
<g id="edge41" class="edge">
<title>Node161129&#45;&gt;Node161117</title>
<path fill="none" stroke="#191970" d="M353.8985,-95.8661C375.7986,-95.8661 401.7473,-95.8661 422.7877,-95.8661"/>
<polygon fill="#191970" stroke="#191970" points="353.8338,-92.3662 343.8337,-95.8661 353.8337,-99.3662 353.8338,-92.3662"/>
</g>
</g>
</svg>
