<?xml version="1.0" encoding="UTF-8" standalone="no"?>
<!DOCTYPE svg PUBLIC "-//W3C//DTD SVG 1.1//EN"
 "http://www.w3.org/Graphics/SVG/1.1/DTD/svg11.dtd">
<!-- Generated by graphviz version 2.40.1 (20161225.0304)
 -->
<!-- Title: JS_ThrowOutOfMemory Pages: 1 -->
<!--zoomable 968 -->
<svg id="main" version="1.1" xmlns="http://www.w3.org/2000/svg" xmlns:xlink="http://www.w3.org/1999/xlink" xml:space="preserve" onload="init(evt)">
<style type="text/css"><![CDATA[
.edge:hover path { stroke: red; }
.edge:hover polygon { stroke: red; fill: red; }
]]></style>
<script type="text/javascript"><![CDATA[
var edges = document.getElementsByTagName('g');
if (edges && edges.length) {
  for (var i=0;i<edges.length;i++) {
    if (edges[i].id.substr(0,4)=='edge') {
      edges[i].setAttribute('class','edge');
    }
  }
}
]]></script>
        <defs>
                <circle id="rim" cx="0" cy="0" r="7"/>
                <circle id="rim2" cx="0" cy="0" r="3.5"/>
                <g id="zoomPlus">
                        <use xlink:href="#rim" fill="#404040">
                                <set attributeName="fill" to="#808080" begin="zoomplus.mouseover" end="zoomplus.mouseout"/>
                        </use>
                        <path d="M-4,0h8M0,-4v8" fill="none" stroke="white" stroke-width="1.5" pointer-events="none"/>
                </g>
                <g id="zoomMin">
                        <use xlink:href="#rim" fill="#404040">
                                <set attributeName="fill" to="#808080" begin="zoomminus.mouseover" end="zoomminus.mouseout"/>
                        </use>
                        <path d="M-4,0h8" fill="none" stroke="white" stroke-width="1.5" pointer-events="none"/>
                </g>
                <g id="dirArrow">
                        <path fill="none" stroke="white" stroke-width="1.5" d="M0,-3.0v7 M-2.5,-0.5L0,-3.0L2.5,-0.5"/>
                </g>
               <g id="resetDef">
                       <use xlink:href="#rim2" fill="#404040">
                               <set attributeName="fill" to="#808080" begin="reset.mouseover" end="reset.mouseout"/>
                       </use>
               </g>
        </defs>

<script type="text/javascript">
var viewWidth = 538;
var viewHeight = 968;
var sectionId = 'dynsection-57';
</script>
<script xlink:href="svgpan.js"/>
<svg id="graph" class="graph">
<g id="viewport">
<title>JS_ThrowOutOfMemory</title>
<!-- Node19753 -->
<g id="node1" class="node">
<title>Node19753</title>
<polygon fill="#bfbfbf" stroke="#000000" points="0,-380.5 0,-399.5 122,-399.5 122,-380.5 0,-380.5"/>
<text text-anchor="middle" x="61" y="-387.5" font-family="Helvetica,sans-Serif" font-size="10.00" fill="#000000">JS_ThrowOutOfMemory</text>
</g>
<!-- Node19754 -->
<g id="node2" class="node">
<title>Node19754</title>
<g id="a_node2"><a xlink:href="quickjs_8c.html#ad303a9bc56766627b5fca41574933930" target="_top" xlink:title="js_alloc_string">
<polygon fill="none" stroke="#000000" points="182,-807.5 182,-826.5 261,-826.5 261,-807.5 182,-807.5"/>
<text text-anchor="middle" x="221.5" y="-814.5" font-family="Helvetica,sans-Serif" font-size="10.00" fill="#000000">js_alloc_string</text>
</a>
</g>
</g>
<!-- Node19753&#45;&gt;Node19754 -->
<g id="edge1" class="edge">
<title>Node19753&#45;&gt;Node19754</title>
<path fill="none" stroke="#191970" d="M62.8132,-409.638C68.7279,-466.1328 91.099,-632.5939 158,-751 171.2189,-774.3958 194.6584,-795.665 209.0633,-807.4194"/>
<polygon fill="#191970" stroke="#191970" points="66.2856,-409.1849 61.8159,-399.5791 59.3197,-409.8756 66.2856,-409.1849"/>
</g>
<!-- Node20441 -->
<g id="node10" class="node">
<title>Node20441</title>
<g id="a_node10"><a xlink:href="quickjs_8c.html#a02b32ec1011cb060587afbc2594c6a86" target="_top" xlink:title="js_atof2">
<polygon fill="none" stroke="#ff0000" points="196,-722.5 196,-741.5 247,-741.5 247,-722.5 196,-722.5"/>
<text text-anchor="middle" x="221.5" y="-729.5" font-family="Helvetica,sans-Serif" font-size="10.00" fill="#000000">js_atof2</text>
</a>
</g>
</g>
<!-- Node19753&#45;&gt;Node20441 -->
<g id="edge11" class="edge">
<title>Node19753&#45;&gt;Node20441</title>
<path fill="none" stroke="#191970" d="M64.4447,-409.9209C75.781,-473.3124 113.7405,-668.785 158,-713 168.0133,-723.0033 183.0635,-727.7802 195.9988,-730.0437"/>
<polygon fill="#191970" stroke="#191970" points="67.824,-408.9289 62.6423,-399.6876 60.9301,-410.1432 67.824,-408.9289"/>
</g>
<!-- Node20433 -->
<g id="node12" class="node">
<title>Node20433</title>
<g id="a_node12"><a xlink:href="quickjs_8c.html#a2f6e4a35f244cc899894a560d9721671" target="_top" xlink:title="js_bigdecimal_to_string">
<polygon fill="none" stroke="#ff0000" points="162,-684.5 162,-703.5 281,-703.5 281,-684.5 162,-684.5"/>
<text text-anchor="middle" x="221.5" y="-691.5" font-family="Helvetica,sans-Serif" font-size="10.00" fill="#000000">js_bigdecimal_to_string</text>
</a>
</g>
</g>
<!-- Node19753&#45;&gt;Node20433 -->
<g id="edge13" class="edge">
<title>Node19753&#45;&gt;Node20433</title>
<path fill="none" stroke="#191970" d="M61.7849,-409.8758C64.9123,-461.3769 80.4873,-600.3273 158,-675 162.0607,-678.912 166.8934,-682.0225 172.0537,-684.495"/>
<polygon fill="#191970" stroke="#191970" points="65.2737,-409.5651 61.2675,-399.7569 58.2828,-409.9226 65.2737,-409.5651"/>
</g>
<!-- Node20294 -->
<g id="node13" class="node">
<title>Node20294</title>
<g id="a_node13"><a xlink:href="quickjs_8c.html#a1c70a5b8ab7b883612cb9dcbd40d1e62" target="_top" xlink:title="js_bigint_to_string1">
<polygon fill="none" stroke="#ff0000" points="171,-646.5 171,-665.5 272,-665.5 272,-646.5 171,-646.5"/>
<text text-anchor="middle" x="221.5" y="-653.5" font-family="Helvetica,sans-Serif" font-size="10.00" fill="#000000">js_bigint_to_string1</text>
</a>
</g>
</g>
<!-- Node19753&#45;&gt;Node20294 -->
<g id="edge14" class="edge">
<title>Node19753&#45;&gt;Node20294</title>
<path fill="none" stroke="#191970" d="M62.9575,-409.704C68.645,-456.2641 89.3991,-573.8992 158,-637 162.2346,-640.8951 167.2374,-643.9935 172.5468,-646.4578"/>
<polygon fill="#191970" stroke="#191970" points="66.4293,-409.2561 61.8395,-399.7071 59.4727,-410.0341 66.4293,-409.2561"/>
</g>
<!-- Node20283 -->
<g id="node14" class="node">
<title>Node20283</title>
<g id="a_node14"><a xlink:href="quickjs_8c.html#a1fee789102995207275aacbbaee299cf" target="_top" xlink:title="js_ftoa">
<polygon fill="none" stroke="#ff0000" points="198.5,-608.5 198.5,-627.5 244.5,-627.5 244.5,-608.5 198.5,-608.5"/>
<text text-anchor="middle" x="221.5" y="-615.5" font-family="Helvetica,sans-Serif" font-size="10.00" fill="#000000">js_ftoa</text>
</a>
</g>
</g>
<!-- Node19753&#45;&gt;Node20283 -->
<g id="edge15" class="edge">
<title>Node19753&#45;&gt;Node20283</title>
<path fill="none" stroke="#191970" d="M64.4772,-409.4282C72.8748,-450.6232 98.1581,-547.1988 158,-599 169.2234,-608.7154 185.2598,-613.464 198.4086,-615.7844"/>
<polygon fill="#191970" stroke="#191970" points="67.907,-408.7292 62.5796,-399.5712 61.0332,-410.0526 67.907,-408.7292"/>
</g>
<!-- Node20443 -->
<g id="node15" class="node">
<title>Node20443</title>
<g id="a_node15"><a xlink:href="quickjs_8c.html#a78b7f6b85f2739b551ff54f16156128b" target="_top" xlink:title="js_malloc">
<polygon fill="none" stroke="#ff0000" points="192.5,-570.5 192.5,-589.5 250.5,-589.5 250.5,-570.5 192.5,-570.5"/>
<text text-anchor="middle" x="221.5" y="-577.5" font-family="Helvetica,sans-Serif" font-size="10.00" fill="#000000">js_malloc</text>
</a>
</g>
</g>
<!-- Node19753&#45;&gt;Node20443 -->
<g id="edge16" class="edge">
<title>Node19753&#45;&gt;Node20443</title>
<path fill="none" stroke="#191970" d="M66.6848,-409.4952C78.0471,-445.0103 106.956,-520.3296 158,-561 167.8098,-568.8161 180.7778,-573.4209 192.4362,-576.1319"/>
<polygon fill="#191970" stroke="#191970" points="69.9991,-408.3649 63.7168,-399.8336 63.3077,-410.4205 69.9991,-408.3649"/>
</g>
<!-- Node20478 -->
<g id="node16" class="node">
<title>Node20478</title>
<g id="a_node16"><a xlink:href="quickjs_8c.html#af93ae8bbbe4e639dd7248f5b30c54bd7" target="_top" xlink:title="js_mallocz">
<polygon fill="none" stroke="#000000" points="190,-532.5 190,-551.5 253,-551.5 253,-532.5 190,-532.5"/>
<text text-anchor="middle" x="221.5" y="-539.5" font-family="Helvetica,sans-Serif" font-size="10.00" fill="#000000">js_mallocz</text>
</a>
</g>
</g>
<!-- Node19753&#45;&gt;Node20478 -->
<g id="edge17" class="edge">
<title>Node19753&#45;&gt;Node20478</title>
<path fill="none" stroke="#191970" d="M69.66,-408.7292C83.9537,-437.583 115.2158,-492.7331 158,-523 167.3942,-529.6457 179.1385,-533.9987 189.9634,-536.836"/>
<polygon fill="#191970" stroke="#191970" points="72.8082,-407.1997 65.3207,-399.7038 66.4994,-410.2329 72.8082,-407.1997"/>
</g>
<!-- Node20479 -->
<g id="node17" class="node">
<title>Node20479</title>
<g id="a_node17"><a xlink:href="quickjs_8c.html#a39b3fcf371c5080c1887bb3753d7c122" target="_top" xlink:title="js_mul_pow10_to_float64">
<polygon fill="none" stroke="#ff0000" points="158,-494.5 158,-513.5 285,-513.5 285,-494.5 158,-494.5"/>
<text text-anchor="middle" x="221.5" y="-501.5" font-family="Helvetica,sans-Serif" font-size="10.00" fill="#000000">js_mul_pow10_to_float64</text>
</a>
</g>
</g>
<!-- Node19753&#45;&gt;Node20479 -->
<g id="edge18" class="edge">
<title>Node19753&#45;&gt;Node20479</title>
<path fill="none" stroke="#191970" d="M74.3809,-407.5483C91.5217,-428.8547 123.2025,-464.4777 158,-485 164.4427,-488.7997 171.7075,-491.8947 178.9615,-494.398"/>
<polygon fill="#191970" stroke="#191970" points="77.0881,-405.3288 68.1539,-399.6339 71.5867,-409.6572 77.0881,-405.3288"/>
</g>
<!-- Node20480 -->
<g id="node18" class="node">
<title>Node20480</title>
<g id="a_node18"><a xlink:href="quickjs_8c.html#a4709c57b3c941673dcc69e07eb45182c" target="_top" xlink:title="JS_NewSymbol">
<polygon fill="none" stroke="#ff0000" points="178,-456.5 178,-475.5 265,-475.5 265,-456.5 178,-456.5"/>
<text text-anchor="middle" x="221.5" y="-463.5" font-family="Helvetica,sans-Serif" font-size="10.00" fill="#000000">JS_NewSymbol</text>
</a>
</g>
</g>
<!-- Node19753&#45;&gt;Node20480 -->
<g id="edge19" class="edge">
<title>Node19753&#45;&gt;Node20480</title>
<path fill="none" stroke="#191970" d="M83.2238,-405.1511C102.3745,-417.6874 131.1033,-435.2778 158,-447 166.2281,-450.586 175.3373,-453.7507 184.0266,-456.4178"/>
<polygon fill="#191970" stroke="#191970" points="85.158,-402.2341 74.8911,-399.6186 81.2861,-408.0658 85.158,-402.2341"/>
</g>
<!-- Node20149 -->
<g id="node19" class="node">
<title>Node20149</title>
<g id="a_node19"><a xlink:href="quickjs-libc_8c.html#a2abec3aeee82a6dd3dd063725bbeecfe" target="_top" xlink:title="js_printf_internal">
<polygon fill="none" stroke="#ff0000" points="177.5,-418.5 177.5,-437.5 265.5,-437.5 265.5,-418.5 177.5,-418.5"/>
<text text-anchor="middle" x="221.5" y="-425.5" font-family="Helvetica,sans-Serif" font-size="10.00" fill="#000000">js_printf_internal</text>
</a>
</g>
</g>
<!-- Node19753&#45;&gt;Node20149 -->
<g id="edge20" class="edge">
<title>Node19753&#45;&gt;Node20149</title>
<path fill="none" stroke="#191970" d="M111.2453,-401.8961C133.8052,-407.2374 160.0609,-413.4537 181.2903,-418.4799"/>
<polygon fill="#191970" stroke="#191970" points="112.0383,-398.4871 101.5009,-399.589 110.4255,-405.2988 112.0383,-398.4871"/>
</g>
<!-- Node20482 -->
<g id="node20" class="node">
<title>Node20482</title>
<g id="a_node20"><a xlink:href="quickjs_8c.html#a9521065b30ddae4ec518a195486c83c8" target="_top" xlink:title="JS_ReadBigNum">
<polygon fill="none" stroke="#ff0000" points="175.5,-380.5 175.5,-399.5 267.5,-399.5 267.5,-380.5 175.5,-380.5"/>
<text text-anchor="middle" x="221.5" y="-387.5" font-family="Helvetica,sans-Serif" font-size="10.00" fill="#000000">JS_ReadBigNum</text>
</a>
</g>
</g>
<!-- Node19753&#45;&gt;Node20482 -->
<g id="edge21" class="edge">
<title>Node19753&#45;&gt;Node20482</title>
<path fill="none" stroke="#191970" d="M132.1659,-390C146.7826,-390 161.8065,-390 175.2643,-390"/>
<polygon fill="#191970" stroke="#191970" points="132.1361,-386.5001 122.136,-390 132.136,-393.5001 132.1361,-386.5001"/>
</g>
<!-- Node20483 -->
<g id="node21" class="node">
<title>Node20483</title>
<g id="a_node21"><a xlink:href="quickjs_8c.html#afc4635015897c24a35aa18566311c298" target="_top" xlink:title="js_realloc">
<polygon fill="none" stroke="#ff0000" points="192.5,-342.5 192.5,-361.5 250.5,-361.5 250.5,-342.5 192.5,-342.5"/>
<text text-anchor="middle" x="221.5" y="-349.5" font-family="Helvetica,sans-Serif" font-size="10.00" fill="#000000">js_realloc</text>
</a>
</g>
</g>
<!-- Node19753&#45;&gt;Node20483 -->
<g id="edge22" class="edge">
<title>Node19753&#45;&gt;Node20483</title>
<path fill="none" stroke="#191970" d="M111.4034,-378.0665C137.9683,-371.777 169.6216,-364.2827 192.1552,-358.9477"/>
<polygon fill="#191970" stroke="#191970" points="110.4255,-374.7012 101.5009,-380.411 112.0383,-381.5129 110.4255,-374.7012"/>
</g>
<!-- Node20484 -->
<g id="node22" class="node">
<title>Node20484</title>
<g id="a_node22"><a xlink:href="quickjs_8c.html#a1c31248142879982abb1595f97817cd9" target="_top" xlink:title="js_realloc2">
<polygon fill="none" stroke="#ff0000" points="190,-304.5 190,-323.5 253,-323.5 253,-304.5 190,-304.5"/>
<text text-anchor="middle" x="221.5" y="-311.5" font-family="Helvetica,sans-Serif" font-size="10.00" fill="#000000">js_realloc2</text>
</a>
</g>
</g>
<!-- Node19753&#45;&gt;Node20484 -->
<g id="edge23" class="edge">
<title>Node19753&#45;&gt;Node20484</title>
<path fill="none" stroke="#191970" d="M83.2238,-374.8489C102.3745,-362.3126 131.1033,-344.7222 158,-333 168.1269,-328.5864 179.5884,-324.8112 189.9593,-321.8161"/>
<polygon fill="#191970" stroke="#191970" points="81.2861,-371.9342 74.8911,-380.3814 85.158,-377.7659 81.2861,-371.9342"/>
</g>
<!-- Node20008 -->
<g id="node23" class="node">
<title>Node20008</title>
<g id="a_node23"><a xlink:href="quickjs-libc_8c.html#af31f002f20b3b7e983dd4efabd18d65e" target="_top" xlink:title="js_std_file_getline">
<polygon fill="none" stroke="#000000" points="174,-266.5 174,-285.5 269,-285.5 269,-266.5 174,-266.5"/>
<text text-anchor="middle" x="221.5" y="-273.5" font-family="Helvetica,sans-Serif" font-size="10.00" fill="#000000">js_std_file_getline</text>
</a>
</g>
</g>
<!-- Node19753&#45;&gt;Node20008 -->
<g id="edge24" class="edge">
<title>Node19753&#45;&gt;Node20008</title>
<path fill="none" stroke="#191970" d="M74.3809,-372.4517C91.5217,-351.1453 123.2025,-315.5223 158,-295 164.4427,-291.2003 171.7075,-288.1053 178.9615,-285.602"/>
<polygon fill="#191970" stroke="#191970" points="71.5867,-370.3428 68.1539,-380.3661 77.0881,-374.6712 71.5867,-370.3428"/>
</g>
<!-- Node20495 -->
<g id="node24" class="node">
<title>Node20495</title>
<g id="a_node24"><a xlink:href="quickjs_8c.html#aa065d694b78eff5e7065075c1bb5dec2" target="_top" xlink:title="js_string_to_bigdecimal">
<polygon fill="none" stroke="#ff0000" points="162,-228.5 162,-247.5 281,-247.5 281,-228.5 162,-228.5"/>
<text text-anchor="middle" x="221.5" y="-235.5" font-family="Helvetica,sans-Serif" font-size="10.00" fill="#000000">js_string_to_bigdecimal</text>
</a>
</g>
</g>
<!-- Node19753&#45;&gt;Node20495 -->
<g id="edge25" class="edge">
<title>Node19753&#45;&gt;Node20495</title>
<path fill="none" stroke="#191970" d="M69.66,-371.2708C83.9537,-342.417 115.2158,-287.2669 158,-257 163.4486,-253.1455 169.6878,-250.0622 176.0797,-247.5987"/>
<polygon fill="#191970" stroke="#191970" points="66.4994,-369.7671 65.3207,-380.2962 72.8082,-372.8003 66.4994,-369.7671"/>
</g>
<!-- Node20496 -->
<g id="node25" class="node">
<title>Node20496</title>
<g id="a_node25"><a xlink:href="quickjs_8c.html#ac63af686d19db382b407745f76f10480" target="_top" xlink:title="js_string_to_bigfloat">
<polygon fill="none" stroke="#ff0000" points="169.5,-190.5 169.5,-209.5 273.5,-209.5 273.5,-190.5 169.5,-190.5"/>
<text text-anchor="middle" x="221.5" y="-197.5" font-family="Helvetica,sans-Serif" font-size="10.00" fill="#000000">js_string_to_bigfloat</text>
</a>
</g>
</g>
<!-- Node19753&#45;&gt;Node20496 -->
<g id="edge26" class="edge">
<title>Node19753&#45;&gt;Node20496</title>
<path fill="none" stroke="#191970" d="M66.6848,-370.5048C78.0471,-334.9897 106.956,-259.6704 158,-219 162.8599,-215.1278 168.4949,-212.0438 174.3618,-209.5877"/>
<polygon fill="#191970" stroke="#191970" points="63.3077,-369.5795 63.7168,-380.1664 69.9991,-371.6351 63.3077,-369.5795"/>
</g>
<!-- Node20497 -->
<g id="node26" class="node">
<title>Node20497</title>
<g id="a_node26"><a xlink:href="quickjs_8c.html#aece01bde59b5a902bb7afa2cbdf333a1" target="_top" xlink:title="js_string_to_bigint">
<polygon fill="none" stroke="#ff0000" points="174,-152.5 174,-171.5 269,-171.5 269,-152.5 174,-152.5"/>
<text text-anchor="middle" x="221.5" y="-159.5" font-family="Helvetica,sans-Serif" font-size="10.00" fill="#000000">js_string_to_bigint</text>
</a>
</g>
</g>
<!-- Node19753&#45;&gt;Node20497 -->
<g id="edge27" class="edge">
<title>Node19753&#45;&gt;Node20497</title>
<path fill="none" stroke="#191970" d="M64.4772,-370.5718C72.8748,-329.3768 98.1581,-232.8012 158,-181 162.6112,-177.0084 168.0348,-173.8552 173.7367,-171.3643"/>
<polygon fill="#191970" stroke="#191970" points="61.0332,-369.9474 62.5796,-380.4288 67.907,-371.2708 61.0332,-369.9474"/>
</g>
<!-- Node20297 -->
<g id="node27" class="node">
<title>Node20297</title>
<g id="a_node27"><a xlink:href="quickjs_8c.html#a2d5d78b0d76e30e16ede8777a5476688" target="_top" xlink:title="JS_ToBigIntValueFree">
<polygon fill="none" stroke="#ff0000" points="164,-114.5 164,-133.5 279,-133.5 279,-114.5 164,-114.5"/>
<text text-anchor="middle" x="221.5" y="-121.5" font-family="Helvetica,sans-Serif" font-size="10.00" fill="#000000">JS_ToBigIntValueFree</text>
</a>
</g>
</g>
<!-- Node19753&#45;&gt;Node20297 -->
<g id="edge28" class="edge">
<title>Node19753&#45;&gt;Node20297</title>
<path fill="none" stroke="#191970" d="M62.9575,-370.296C68.645,-323.7359 89.3991,-206.1008 158,-143 162.2346,-139.1049 167.2374,-136.0065 172.5468,-133.5422"/>
<polygon fill="#191970" stroke="#191970" points="59.4727,-369.9659 61.8395,-380.2929 66.4293,-370.7439 59.4727,-369.9659"/>
</g>
<!-- Node20498 -->
<g id="node28" class="node">
<title>Node20498</title>
<g id="a_node28"><a xlink:href="quickjs_8c.html#ad0d311d4ce409584384f835f1a3e185a" target="_top" xlink:title="resolve_labels">
<polygon fill="none" stroke="#ff0000" points="182,-76.5 182,-95.5 261,-95.5 261,-76.5 182,-76.5"/>
<text text-anchor="middle" x="221.5" y="-83.5" font-family="Helvetica,sans-Serif" font-size="10.00" fill="#000000">resolve_labels</text>
</a>
</g>
</g>
<!-- Node19753&#45;&gt;Node20498 -->
<g id="edge29" class="edge">
<title>Node19753&#45;&gt;Node20498</title>
<path fill="none" stroke="#191970" d="M61.7849,-370.1242C64.9123,-318.6231 80.4873,-179.6727 158,-105 164.5469,-98.693 173.1003,-94.4692 181.7982,-91.6435"/>
<polygon fill="#191970" stroke="#191970" points="58.2828,-370.0774 61.2675,-380.2431 65.2737,-370.4349 58.2828,-370.0774"/>
</g>
<!-- Node20157 -->
<g id="node29" class="node">
<title>Node20157</title>
<g id="a_node29"><a xlink:href="quickjs_8c.html#a7a4eedc4cc552a71e165f4d28ad43985" target="_top" xlink:title="resolve_variables">
<polygon fill="none" stroke="#ff0000" points="175.5,-38.5 175.5,-57.5 267.5,-57.5 267.5,-38.5 175.5,-38.5"/>
<text text-anchor="middle" x="221.5" y="-45.5" font-family="Helvetica,sans-Serif" font-size="10.00" fill="#000000">resolve_variables</text>
</a>
</g>
</g>
<!-- Node19753&#45;&gt;Node20157 -->
<g id="edge30" class="edge">
<title>Node19753&#45;&gt;Node20157</title>
<path fill="none" stroke="#191970" d="M64.4447,-370.0791C75.781,-306.6876 113.7405,-111.215 158,-67 162.8846,-62.1204 168.9676,-58.4843 175.4191,-55.7771"/>
<polygon fill="#191970" stroke="#191970" points="60.9301,-369.8568 62.6423,-380.3124 67.824,-371.0711 60.9301,-369.8568"/>
</g>
<!-- Node20499 -->
<g id="node30" class="node">
<title>Node20499</title>
<g id="a_node30"><a xlink:href="quickjs_8c.html#aede914d44979f89370794cbc8086e743" target="_top" xlink:title="throw_bf_exception">
<polygon fill="none" stroke="#ff0000" points="171,-.5 171,-19.5 272,-19.5 272,-.5 171,-.5"/>
<text text-anchor="middle" x="221.5" y="-7.5" font-family="Helvetica,sans-Serif" font-size="10.00" fill="#000000">throw_bf_exception</text>
</a>
</g>
</g>
<!-- Node19753&#45;&gt;Node20499 -->
<g id="edge31" class="edge">
<title>Node19753&#45;&gt;Node20499</title>
<path fill="none" stroke="#191970" d="M63.7856,-369.9983C73.6758,-301.7136 109.1437,-79.2556 158,-29 161.7699,-25.1221 166.296,-22.0277 171.1734,-19.5597"/>
<polygon fill="#191970" stroke="#191970" points="60.2723,-369.8448 62.3283,-380.2382 67.2025,-370.8311 60.2723,-369.8448"/>
</g>
<!-- Node19755 -->
<g id="node3" class="node">
<title>Node19755</title>
<g id="a_node3"><a xlink:href="quickjs_8c.html#aa923510185fe24e3083baf7405b09f51" target="_top" xlink:title="js_new_string8">
<polygon fill="none" stroke="#ff0000" points="329.5,-940.5 329.5,-959.5 411.5,-959.5 411.5,-940.5 329.5,-940.5"/>
<text text-anchor="middle" x="370.5" y="-947.5" font-family="Helvetica,sans-Serif" font-size="10.00" fill="#000000">js_new_string8</text>
</a>
</g>
</g>
<!-- Node19754&#45;&gt;Node19755 -->
<g id="edge2" class="edge">
<title>Node19754&#45;&gt;Node19755</title>
<path fill="none" stroke="#191970" d="M234.3489,-834.8575C251.8419,-858.1872 285.1084,-899.2106 321,-926 328.6537,-931.7127 337.881,-936.6244 346.2847,-940.4893"/>
<polygon fill="#191970" stroke="#191970" points="236.997,-832.5511 228.2472,-826.5769 231.3617,-836.7036 236.997,-832.5511"/>
</g>
<!-- Node20387 -->
<g id="node4" class="node">
<title>Node20387</title>
<g id="a_node4"><a xlink:href="quickjs_8c.html#a011157b8ff30c8418be989eadf509c92" target="_top" xlink:title="js_sub_string">
<polygon fill="none" stroke="#ff0000" points="456,-902.5 456,-921.5 530,-921.5 530,-902.5 456,-902.5"/>
<text text-anchor="middle" x="493" y="-909.5" font-family="Helvetica,sans-Serif" font-size="10.00" fill="#000000">js_sub_string</text>
</a>
</g>
</g>
<!-- Node19754&#45;&gt;Node20387 -->
<g id="edge6" class="edge">
<title>Node19754&#45;&gt;Node20387</title>
<path fill="none" stroke="#191970" d="M237.7807,-834.044C256.1367,-852.0648 287.7812,-879.6876 321,-893 364.9217,-910.6016 419.9034,-913.7367 455.7112,-913.5435"/>
<polygon fill="#191970" stroke="#191970" points="240.0714,-831.3835 230.5425,-826.752 235.1033,-836.3149 240.0714,-831.3835"/>
</g>
<!-- Node20435 -->
<g id="node5" class="node">
<title>Node20435</title>
<g id="a_node5"><a xlink:href="quickjs_8c.html#a960b48be1175b0982ecc03505711fc56" target="_top" xlink:title="js_new_string16">
<polygon fill="none" stroke="#ff0000" points="327,-864.5 327,-883.5 414,-883.5 414,-864.5 327,-864.5"/>
<text text-anchor="middle" x="370.5" y="-871.5" font-family="Helvetica,sans-Serif" font-size="10.00" fill="#000000">js_new_string16</text>
</a>
</g>
</g>
<!-- Node19754&#45;&gt;Node20435 -->
<g id="edge4" class="edge">
<title>Node19754&#45;&gt;Node20435</title>
<path fill="none" stroke="#191970" d="M256.013,-830.203C283.3716,-840.669 320.9542,-855.0462 345.4794,-864.4284"/>
<polygon fill="#191970" stroke="#191970" points="257.0297,-826.8446 246.4392,-826.5405 254.5286,-833.3825 257.0297,-826.8446"/>
</g>
<!-- Node20436 -->
<g id="node6" class="node">
<title>Node20436</title>
<g id="a_node6"><a xlink:href="quickjs_8c.html#ac43dee2ed14e80248f1af195bd3d8181" target="_top" xlink:title="string_buffer_init2">
<polygon fill="none" stroke="#ff0000" points="323.5,-826.5 323.5,-845.5 417.5,-845.5 417.5,-826.5 323.5,-826.5"/>
<text text-anchor="middle" x="370.5" y="-833.5" font-family="Helvetica,sans-Serif" font-size="10.00" fill="#000000">string_buffer_init2</text>
</a>
</g>
</g>
<!-- Node19754&#45;&gt;Node20436 -->
<g id="edge7" class="edge">
<title>Node19754&#45;&gt;Node20436</title>
<path fill="none" stroke="#191970" d="M271.224,-823.3406C288.035,-825.4843 306.7454,-827.8702 323.3507,-829.9877"/>
<polygon fill="#191970" stroke="#191970" points="271.4005,-819.8349 261.0381,-822.0418 270.515,-826.7787 271.4005,-819.8349"/>
</g>
<!-- Node20145 -->
<g id="node7" class="node">
<title>Node20145</title>
<g id="a_node7"><a xlink:href="quickjs_8c.html#af49e67b73f845dc1f9c3ee648dd9f95c" target="_top" xlink:title="JS_ToCStringLen2">
<polygon fill="none" stroke="#ff0000" points="321,-788.5 321,-807.5 420,-807.5 420,-788.5 321,-788.5"/>
<text text-anchor="middle" x="370.5" y="-795.5" font-family="Helvetica,sans-Serif" font-size="10.00" fill="#000000">JS_ToCStringLen2</text>
</a>
</g>
</g>
<!-- Node19754&#45;&gt;Node20145 -->
<g id="edge8" class="edge">
<title>Node19754&#45;&gt;Node20145</title>
<path fill="none" stroke="#191970" d="M271.2562,-810.6553C287.2358,-808.6176 304.9287,-806.3614 320.8973,-804.3252"/>
<polygon fill="#191970" stroke="#191970" points="270.515,-807.2213 261.0381,-811.9582 271.4005,-814.1651 270.515,-807.2213"/>
</g>
<!-- Node20438 -->
<g id="node8" class="node">
<title>Node20438</title>
<g id="a_node8"><a xlink:href="quickjs_8c.html#aa864584f81729321ec9d527d6362c633" target="_top" xlink:title="JS_ConcatString1">
<polygon fill="none" stroke="#ff0000" points="322.5,-750.5 322.5,-769.5 418.5,-769.5 418.5,-750.5 322.5,-750.5"/>
<text text-anchor="middle" x="370.5" y="-757.5" font-family="Helvetica,sans-Serif" font-size="10.00" fill="#000000">JS_ConcatString1</text>
</a>
</g>
</g>
<!-- Node19754&#45;&gt;Node20438 -->
<g id="edge9" class="edge">
<title>Node19754&#45;&gt;Node20438</title>
<path fill="none" stroke="#191970" d="M256.013,-803.797C283.3716,-793.331 320.9542,-778.9538 345.4794,-769.5716"/>
<polygon fill="#191970" stroke="#191970" points="254.5286,-800.6175 246.4392,-807.4595 257.0297,-807.1554 254.5286,-800.6175"/>
</g>
<!-- Node20439 -->
<g id="node9" class="node">
<title>Node20439</title>
<g id="a_node9"><a xlink:href="quickjs_8c.html#a73a002c998fe7508eae9aa069fac802b" target="_top" xlink:title="JS_ReadString">
<polygon fill="none" stroke="#ff0000" points="329,-712.5 329,-731.5 412,-731.5 412,-712.5 329,-712.5"/>
<text text-anchor="middle" x="370.5" y="-719.5" font-family="Helvetica,sans-Serif" font-size="10.00" fill="#000000">JS_ReadString</text>
</a>
</g>
</g>
<!-- Node19754&#45;&gt;Node20439 -->
<g id="edge10" class="edge">
<title>Node19754&#45;&gt;Node20439</title>
<path fill="none" stroke="#191970" d="M239.4506,-800.7375C258.5689,-784.0524 290.2524,-758.1744 321,-741 327.4291,-737.4089 334.674,-734.2068 341.597,-731.5013"/>
<polygon fill="#191970" stroke="#191970" points="236.9992,-798.2332 231.8324,-807.4828 241.6396,-803.4741 236.9992,-798.2332"/>
</g>
<!-- Node19755&#45;&gt;Node20387 -->
<g id="edge3" class="edge">
<title>Node19755&#45;&gt;Node20387</title>
<path fill="none" stroke="#191970" d="M411.3777,-937.3196C427.9294,-932.1852 446.7211,-926.3559 462.098,-921.5859"/>
<polygon fill="#191970" stroke="#191970" points="409.926,-934.1053 401.4119,-940.411 411.9999,-940.791 409.926,-934.1053"/>
</g>
<!-- Node20435&#45;&gt;Node20387 -->
<g id="edge5" class="edge">
<title>Node20435&#45;&gt;Node20387</title>
<path fill="none" stroke="#191970" d="M411.3777,-886.6804C427.9294,-891.8148 446.7211,-897.6441 462.098,-902.4141"/>
<polygon fill="#191970" stroke="#191970" points="411.9999,-883.209 401.4119,-883.589 409.926,-889.8947 411.9999,-883.209"/>
</g>
<!-- Node20442 -->
<g id="node11" class="node">
<title>Node20442</title>
<g id="a_node11"><a xlink:href="quickjs_8c.html#a40bcef4994dba57dfb34b6eed66daef0" target="_top" xlink:title="js_atof">
<polygon fill="none" stroke="#ff0000" points="347.5,-674.5 347.5,-693.5 393.5,-693.5 393.5,-674.5 347.5,-674.5"/>
<text text-anchor="middle" x="370.5" y="-681.5" font-family="Helvetica,sans-Serif" font-size="10.00" fill="#000000">js_atof</text>
</a>
</g>
</g>
<!-- Node20441&#45;&gt;Node20442 -->
<g id="edge12" class="edge">
<title>Node20441&#45;&gt;Node20442</title>
<path fill="none" stroke="#191970" d="M256.8425,-721.6728C266.0308,-718.9201 275.9027,-715.9028 285,-713 306.2043,-706.2341 330.1916,-698.0515 347.3504,-692.1055"/>
<polygon fill="#191970" stroke="#191970" points="255.7968,-718.3322 247.2095,-724.5378 257.7923,-725.0417 255.7968,-718.3322"/>
</g>
</g>
</svg>
        <g id="navigator" transform="translate(0 0)" fill="#404254">
                <rect fill="#f2f5e9" fill-opacity="0.5" stroke="#606060" stroke-width=".5" x="0" y="0" width="60" height="60"/>
                <use id="zoomplus" xlink:href="#zoomPlus" x="17" y="9" onmousedown="handleZoom(evt,'in')"/>
                <use id="zoomminus" xlink:href="#zoomMin" x="42" y="9" onmousedown="handleZoom(evt,'out')"/>
                <use id="reset" xlink:href="#resetDef" x="30" y="36" onmousedown="handleReset()"/>
                <g id="arrowUp" xlink:href="#dirArrow" transform="translate(30 24)" onmousedown="handlePan(0,-1)">
                  <use xlink:href="#rim" fill="#404040">
                        <set attributeName="fill" to="#808080" begin="arrowUp.mouseover" end="arrowUp.mouseout"/>
                  </use>
                  <path fill="none" stroke="white" stroke-width="1.5" d="M0,-3.0v7 M-2.5,-0.5L0,-3.0L2.5,-0.5"/>
                </g>
                <g id="arrowRight" xlink:href="#dirArrow" transform="rotate(90) translate(36 -43)" onmousedown="handlePan(1,0)">
                  <use xlink:href="#rim" fill="#404040">
                        <set attributeName="fill" to="#808080" begin="arrowRight.mouseover" end="arrowRight.mouseout"/>
                  </use>
                  <path fill="none" stroke="white" stroke-width="1.5" d="M0,-3.0v7 M-2.5,-0.5L0,-3.0L2.5,-0.5"/>
                </g>
                <g id="arrowDown" xlink:href="#dirArrow" transform="rotate(180) translate(-30 -48)" onmousedown="handlePan(0,1)">
                  <use xlink:href="#rim" fill="#404040">
                        <set attributeName="fill" to="#808080" begin="arrowDown.mouseover" end="arrowDown.mouseout"/>
                  </use>
                  <path fill="none" stroke="white" stroke-width="1.5" d="M0,-3.0v7 M-2.5,-0.5L0,-3.0L2.5,-0.5"/>
                </g>
                <g id="arrowLeft" xlink:href="#dirArrow" transform="rotate(270) translate(-36 17)" onmousedown="handlePan(-1,0)">
                  <use xlink:href="#rim" fill="#404040">
                        <set attributeName="fill" to="#808080" begin="arrowLeft.mouseover" end="arrowLeft.mouseout"/>
                  </use>
                  <path fill="none" stroke="white" stroke-width="1.5" d="M0,-3.0v7 M-2.5,-0.5L0,-3.0L2.5,-0.5"/>
                </g>
        </g>
        <svg viewBox="0 0 15 15" width="100%" height="30px" preserveAspectRatio="xMaxYMin meet">
         <g id="arrow_out" transform="scale(0.3 0.3)">
          <a xlink:href="quickjs_8c_a344d6c0e45d9bf3861fd9269724045a2_icgraph_org.svg" target="_base">
           <rect id="button" ry="5" rx="5" y="6" x="6" height="38" width="38"
                fill="#f2f5e9" fill-opacity="0.5" stroke="#606060" stroke-width="1.0"/>
           <path id="arrow"
             d="M 11.500037,31.436501 C 11.940474,20.09759 22.043105,11.32322 32.158766,21.979434 L 37.068811,17.246167 C 37.068811,17.246167 37.088388,32 37.088388,32 L 22.160133,31.978069 C 22.160133,31.978069 26.997745,27.140456 26.997745,27.140456 C 18.528582,18.264221 13.291696,25.230495 11.500037,31.436501 z"
             style="fill:#404040;"/>
          </a>
         </g>
        </svg>
</svg>
