<?xml version="1.0" encoding="UTF-8" standalone="no"?>
<!DOCTYPE svg PUBLIC "-//W3C//DTD SVG 1.1//EN"
 "http://www.w3.org/Graphics/SVG/1.1/DTD/svg11.dtd">
<!-- Generated by graphviz version 2.40.1 (20161225.0304)
 -->
<!-- Title: emit_atom Pages: 1 -->
<svg width="1198pt" height="1176pt"
 viewBox="0.00 0.00 1198.00 1175.76" xmlns="http://www.w3.org/2000/svg" xmlns:xlink="http://www.w3.org/1999/xlink">
<g id="graph0" class="graph" transform="scale(1 1) rotate(0) translate(4 1171.7611)">
<title>emit_atom</title>
<!-- Node334081 -->
<g id="node1" class="node">
<title>Node334081</title>
<polygon fill="#bfbfbf" stroke="#000000" points="0,-512.9517 0,-531.9517 62,-531.9517 62,-512.9517 0,-512.9517"/>
<text text-anchor="middle" x="31" y="-519.9517" font-family="Helvetica,sans-Serif" font-size="10.00" fill="#000000">emit_atom</text>
</g>
<!-- Node334082 -->
<g id="node2" class="node">
<title>Node334082</title>
<g id="a_node2"><a xlink:href="quickjs_8c.html#a1e86277b96b55991d572603e00fef94d" target="_top" xlink:title="emit_class_field_init">
<polygon fill="none" stroke="#000000" points="376,-227.9517 376,-246.9517 481,-246.9517 481,-227.9517 376,-227.9517"/>
<text text-anchor="middle" x="428.5" y="-234.9517" font-family="Helvetica,sans-Serif" font-size="10.00" fill="#000000">emit_class_field_init</text>
</a>
</g>
</g>
<!-- Node334081&#45;&gt;Node334082 -->
<g id="edge1" class="edge">
<title>Node334081&#45;&gt;Node334082</title>
<path fill="none" stroke="#191970" d="M34.8793,-502.5366C42.2903,-468.5861 61.1097,-398.6078 98,-351.4517 140.6262,-296.9633 160.425,-286.272 225,-261.4517 273.8133,-242.6896 333.667,-237.5612 375.7869,-236.5953"/>
<polygon fill="#191970" stroke="#191970" points="31.3993,-502.0814 32.7938,-512.584 38.2532,-503.5041 31.3993,-502.0814"/>
</g>
<!-- Node334083 -->
<g id="node3" class="node">
<title>Node334083</title>
<g id="a_node3"><a xlink:href="quickjs_8c.html#acdcc62310b4f6f73fa7bc7267b18b1d4" target="_top" xlink:title="js_parse_postfix_expr">
<polygon fill="none" stroke="#000000" points="521,-835.9517 521,-854.9517 633,-854.9517 633,-835.9517 521,-835.9517"/>
<text text-anchor="middle" x="577" y="-842.9517" font-family="Helvetica,sans-Serif" font-size="10.00" fill="#000000">js_parse_postfix_expr</text>
</a>
</g>
</g>
<!-- Node334081&#45;&gt;Node334083 -->
<g id="edge63" class="edge">
<title>Node334081&#45;&gt;Node334083</title>
<path fill="none" stroke="#191970" d="M31.7627,-542.0751C34.9383,-614.2298 49.3095,-863.738 98,-923.4517 207.7868,-1058.0934 331.1308,-1059.1103 485,-978.4517 536.4742,-951.4688 564.8568,-881.1637 573.8361,-855.2386"/>
<polygon fill="#191970" stroke="#191970" points="35.2593,-541.9191 31.3456,-532.0737 28.2654,-542.2109 35.2593,-541.9191"/>
</g>
<!-- Node334084 -->
<g id="node4" class="node">
<title>Node334084</title>
<g id="a_node4"><a xlink:href="quickjs_8c.html#a00eb789430243c24dab4a63ad6a79653" target="_top" xlink:title="js_parse_class">
<polygon fill="none" stroke="#000000" points="970,-379.9517 970,-398.9517 1052,-398.9517 1052,-379.9517 970,-379.9517"/>
<text text-anchor="middle" x="1011" y="-386.9517" font-family="Helvetica,sans-Serif" font-size="10.00" fill="#000000">js_parse_class</text>
</a>
</g>
</g>
<!-- Node334081&#45;&gt;Node334084 -->
<g id="edge56" class="edge">
<title>Node334081&#45;&gt;Node334084</title>
<path fill="none" stroke="#191970" d="M31.6188,-502.5862C34.223,-432.807 46.6711,-200.4918 98,-151.4517 206.9652,-47.3453 637.2206,-107.6993 776,-166.4517 856.7099,-200.6203 872.2968,-222.2078 934,-284.4517 965.0335,-315.7571 993.466,-360.2933 1005.2538,-379.7401"/>
<polygon fill="#191970" stroke="#191970" points="28.1179,-502.5543 31.2704,-512.6692 35.1137,-502.7961 28.1179,-502.5543"/>
</g>
<!-- Node334092 -->
<g id="node6" class="node">
<title>Node334092</title>
<g id="a_node6"><a xlink:href="quickjs_8c.html#a498e1d5c7de1b59c1630e9847cde1e41" target="_top" xlink:title="js_parse_export">
<polygon fill="none" stroke="#ff0000" points="1096,-341.9517 1096,-360.9517 1182,-360.9517 1182,-341.9517 1096,-341.9517"/>
<text text-anchor="middle" x="1139" y="-348.9517" font-family="Helvetica,sans-Serif" font-size="10.00" fill="#000000">js_parse_export</text>
</a>
</g>
</g>
<!-- Node334081&#45;&gt;Node334092 -->
<g id="edge59" class="edge">
<title>Node334081&#45;&gt;Node334092</title>
<path fill="none" stroke="#191970" d="M32.3341,-502.4477C38.3594,-414.8851 64.2125,-68.229 98,-34.4517 155.8986,23.4294 198.6314,-9.4517 280.5,-9.4517 280.5,-9.4517 280.5,-9.4517 873,-9.4517 965.2327,-9.4517 992.8608,-43.6744 1052,-114.4517 1112.9856,-187.4387 1133.0929,-306.9794 1137.8039,-341.7081"/>
<polygon fill="#191970" stroke="#191970" points="28.8288,-502.4091 31.6435,-512.6232 35.8127,-502.8832 28.8288,-502.4091"/>
</g>
<!-- Node334099 -->
<g id="node7" class="node">
<title>Node334099</title>
<g id="a_node7"><a xlink:href="quickjs_8c.html#aff9f2e2a1548acfc8307a4070bb444ec" target="_top" xlink:title="js_parse_destructing\l_element">
<polygon fill="none" stroke="#000000" points="669,-678.4517 669,-708.4517 776,-708.4517 776,-678.4517 669,-678.4517"/>
<text text-anchor="start" x="677" y="-696.4517" font-family="Helvetica,sans-Serif" font-size="10.00" fill="#000000">js_parse_destructing</text>
<text text-anchor="middle" x="722.5" y="-685.4517" font-family="Helvetica,sans-Serif" font-size="10.00" fill="#000000">_element</text>
</a>
</g>
</g>
<!-- Node334081&#45;&gt;Node334099 -->
<g id="edge58" class="edge">
<title>Node334081&#45;&gt;Node334099</title>
<path fill="none" stroke="#191970" d="M72.0324,-517.4047C121.4153,-511.7759 206.8898,-503.4517 280.5,-503.4517 280.5,-503.4517 280.5,-503.4517 428.5,-503.4517 557.0345,-503.4517 673.8585,-633.1381 710.5892,-678.2244"/>
<polygon fill="#191970" stroke="#191970" points="71.59,-513.9324 62.0597,-518.5609 72.3962,-520.8858 71.59,-513.9324"/>
</g>
<!-- Node334100 -->
<g id="node8" class="node">
<title>Node334100</title>
<g id="a_node8"><a xlink:href="quickjs_8c.html#a42924858317b848c3aea0a0a978fab3a" target="_top" xlink:title="js_parse_var">
<polygon fill="none" stroke="#000000" points="837,-563.9517 837,-582.9517 909,-582.9517 909,-563.9517 837,-563.9517"/>
<text text-anchor="middle" x="873" y="-570.9517" font-family="Helvetica,sans-Serif" font-size="10.00" fill="#000000">js_parse_var</text>
</a>
</g>
</g>
<!-- Node334081&#45;&gt;Node334100 -->
<g id="edge65" class="edge">
<title>Node334081&#45;&gt;Node334100</title>
<path fill="none" stroke="#191970" d="M33.7633,-502.7165C41.5686,-449.6775 65.3535,-305.8125 98,-272.4517 219.4645,-148.3292 320.1098,-163.9429 485,-218.4517 637.9292,-269.0064 663.7855,-318.905 776,-434.4517 817.8228,-477.5164 854.5865,-540.2131 867.7961,-563.9068"/>
<polygon fill="#191970" stroke="#191970" points="30.2659,-502.4486 32.3061,-512.8452 37.1946,-503.4455 30.2659,-502.4486"/>
</g>
<!-- Node334087 -->
<g id="node9" class="node">
<title>Node334087</title>
<g id="a_node9"><a xlink:href="quickjs_8c.html#ac188b916dd086803591a67de7e7a85f6" target="_top" xlink:title="js_parse_for_in_of">
<polygon fill="none" stroke="#000000" points="825,-858.9517 825,-877.9517 921,-877.9517 921,-858.9517 825,-858.9517"/>
<text text-anchor="middle" x="873" y="-865.9517" font-family="Helvetica,sans-Serif" font-size="10.00" fill="#000000">js_parse_for_in_of</text>
</a>
</g>
</g>
<!-- Node334081&#45;&gt;Node334087 -->
<g id="edge60" class="edge">
<title>Node334081&#45;&gt;Node334087</title>
<path fill="none" stroke="#191970" d="M31.5978,-542.4028C34.2862,-620.5133 47.4336,-904.7746 98,-976.4517 150.9516,-1051.5097 188.6437,-1073.4517 280.5,-1073.4517 280.5,-1073.4517 280.5,-1073.4517 577,-1073.4517 716.0845,-1073.4517 837.001,-918.5936 866.2654,-878.0643"/>
<polygon fill="#191970" stroke="#191970" points="35.0847,-541.9413 31.2628,-532.0599 28.0884,-542.168 35.0847,-541.9413"/>
</g>
<!-- Node334090 -->
<g id="node10" class="node">
<title>Node334090</title>
<g id="a_node10"><a xlink:href="quickjs_8c.html#acc9eb677cab8dfcf45f59381f8a19601" target="_top" xlink:title="js_parse_function_decl2">
<polygon fill="none" stroke="#ff0000" points="812,-293.9517 812,-312.9517 934,-312.9517 934,-293.9517 812,-293.9517"/>
<text text-anchor="middle" x="873" y="-300.9517" font-family="Helvetica,sans-Serif" font-size="10.00" fill="#000000">js_parse_function_decl2</text>
</a>
</g>
</g>
<!-- Node334081&#45;&gt;Node334090 -->
<g id="edge61" class="edge">
<title>Node334081&#45;&gt;Node334090</title>
<path fill="none" stroke="#191970" d="M32.3212,-502.4353C36.9404,-438.7541 54.5108,-242.5011 98,-199.4517 214.379,-84.2496 680.7955,-155.9558 776,-200.4517 820.5058,-221.2524 854.6754,-272.4182 867.4949,-293.8079"/>
<polygon fill="#191970" stroke="#191970" points="28.8085,-502.4976 31.6061,-512.7164 35.7917,-502.9834 28.8085,-502.4976"/>
</g>
<!-- Node334102 -->
<g id="node12" class="node">
<title>Node334102</title>
<g id="a_node12"><a xlink:href="quickjs_8c.html#a2ecfb6abb190101748202a8aa5821fba" target="_top" xlink:title="js_parse_delete">
<polygon fill="none" stroke="#000000" points="830.5,-1101.9517 830.5,-1120.9517 915.5,-1120.9517 915.5,-1101.9517 830.5,-1101.9517"/>
<text text-anchor="middle" x="873" y="-1108.9517" font-family="Helvetica,sans-Serif" font-size="10.00" fill="#000000">js_parse_delete</text>
</a>
</g>
</g>
<!-- Node334081&#45;&gt;Node334102 -->
<g id="edge57" class="edge">
<title>Node334081&#45;&gt;Node334102</title>
<path fill="none" stroke="#191970" d="M31.5675,-542.4673C34.2461,-626.0758 47.6825,-947.0176 98,-1032.4517 149.2007,-1119.3855 179.6089,-1167.4517 280.5,-1167.4517 280.5,-1167.4517 280.5,-1167.4517 577,-1167.4517 665.8467,-1167.4517 689.4889,-1168.6893 776,-1148.4517 803.378,-1142.0471 833.4088,-1129.7086 852.6929,-1121.0464"/>
<polygon fill="#191970" stroke="#191970" points="35.0606,-542.1831 31.2583,-532.2941 28.0638,-542.3959 35.0606,-542.1831"/>
</g>
<!-- Node334114 -->
<g id="node13" class="node">
<title>Node334114</title>
<g id="a_node13"><a xlink:href="quickjs_8c.html#a38e4107378b0d9abd638e4fe13541678" target="_top" xlink:title="emit_class_init_start">
<polygon fill="none" stroke="#000000" points="669,-37.9517 669,-56.9517 776,-56.9517 776,-37.9517 669,-37.9517"/>
<text text-anchor="middle" x="722.5" y="-44.9517" font-family="Helvetica,sans-Serif" font-size="10.00" fill="#000000">emit_class_init_start</text>
</a>
</g>
</g>
<!-- Node334081&#45;&gt;Node334114 -->
<g id="edge27" class="edge">
<title>Node334081&#45;&gt;Node334114</title>
<path fill="none" stroke="#191970" d="M32.5689,-502.3919C39.281,-418.9512 66.6684,-102.2636 98,-71.4517 156.3297,-14.0894 198.6905,-47.4517 280.5,-47.4517 280.5,-47.4517 280.5,-47.4517 428.5,-47.4517 512.4635,-47.4517 609.9154,-47.4517 668.8518,-47.4517"/>
<polygon fill="#191970" stroke="#191970" points="29.0639,-502.3179 31.7608,-512.5637 36.0419,-502.8723 29.0639,-502.3179"/>
</g>
<!-- Node334116 -->
<g id="node15" class="node">
<title>Node334116</title>
<g id="a_node15"><a xlink:href="quickjs_8c.html#acea69d5aa6481a035d0833b8bce455f5" target="_top" xlink:title="emit_return">
<polygon fill="none" stroke="#000000" points="111,-569.9517 111,-588.9517 176,-588.9517 176,-569.9517 111,-569.9517"/>
<text text-anchor="middle" x="143.5" y="-576.9517" font-family="Helvetica,sans-Serif" font-size="10.00" fill="#000000">emit_return</text>
</a>
</g>
</g>
<!-- Node334081&#45;&gt;Node334116 -->
<g id="edge31" class="edge">
<title>Node334081&#45;&gt;Node334116</title>
<path fill="none" stroke="#191970" d="M58.9824,-536.6294C79.4482,-546.9988 106.6598,-560.786 124.6086,-569.88"/>
<polygon fill="#191970" stroke="#191970" points="60.3322,-533.3898 49.83,-531.9922 57.1684,-539.634 60.3322,-533.3898"/>
</g>
<!-- Node334108 -->
<g id="node17" class="node">
<title>Node334108</title>
<g id="a_node17"><a xlink:href="quickjs_8c.html#a035daca514f14aacc1e0cff81d8e423a" target="_top" xlink:title="js_parse_template">
<polygon fill="none" stroke="#000000" points="380.5,-949.9517 380.5,-968.9517 476.5,-968.9517 476.5,-949.9517 380.5,-949.9517"/>
<text text-anchor="middle" x="428.5" y="-956.9517" font-family="Helvetica,sans-Serif" font-size="10.00" fill="#000000">js_parse_template</text>
</a>
</g>
</g>
<!-- Node334081&#45;&gt;Node334108 -->
<g id="edge64" class="edge">
<title>Node334081&#45;&gt;Node334108</title>
<path fill="none" stroke="#191970" d="M32.2258,-541.9723C36.7759,-608.6442 54.7184,-826.1043 98,-878.4517 166.9835,-961.8845 306.5552,-967.3758 380.3111,-963.759"/>
<polygon fill="#191970" stroke="#191970" points="35.7172,-541.7249 31.5683,-531.9762 28.7323,-542.1844 35.7172,-541.7249"/>
</g>
<!-- Node334094 -->
<g id="node18" class="node">
<title>Node334094</title>
<g id="a_node18"><a xlink:href="quickjs_8c.html#aee6d0acd87f136d43f157ae1426436e6" target="_top" xlink:title="js_parse_object_literal">
<polygon fill="none" stroke="#000000" points="372,-835.9517 372,-854.9517 485,-854.9517 485,-835.9517 372,-835.9517"/>
<text text-anchor="middle" x="428.5" y="-842.9517" font-family="Helvetica,sans-Serif" font-size="10.00" fill="#000000">js_parse_object_literal</text>
</a>
</g>
</g>
<!-- Node334081&#45;&gt;Node334094 -->
<g id="edge62" class="edge">
<title>Node334081&#45;&gt;Node334094</title>
<path fill="none" stroke="#191970" d="M46.2165,-540.2252C59.6354,-555.7745 79.827,-578.8712 98,-598.4517 152.9475,-657.6548 161.8505,-678.0891 225,-728.4517 284.8916,-776.2161 304.6836,-781.8875 372,-818.4517 383.3683,-824.6266 396.3762,-830.8949 407.0428,-835.8356"/>
<polygon fill="#191970" stroke="#191970" points="48.6888,-537.7322 39.5141,-532.4334 43.382,-542.2971 48.6888,-537.7322"/>
</g>
<!-- Node334109 -->
<g id="node19" class="node">
<title>Node334109</title>
<g id="a_node19"><a xlink:href="quickjs_8c.html#a253917187cfb6b3db09d355b31edb3d5" target="_top" xlink:title="js_parse_array_literal">
<polygon fill="none" stroke="#000000" points="374,-911.9517 374,-930.9517 483,-930.9517 483,-911.9517 374,-911.9517"/>
<text text-anchor="middle" x="428.5" y="-918.9517" font-family="Helvetica,sans-Serif" font-size="10.00" fill="#000000">js_parse_array_literal</text>
</a>
</g>
</g>
<!-- Node334081&#45;&gt;Node334109 -->
<g id="edge55" class="edge">
<title>Node334081&#45;&gt;Node334109</title>
<path fill="none" stroke="#191970" d="M32.555,-542.1596C37.8281,-604.0027 57.0312,-792.6527 98,-835.4517 170.464,-911.153 300.4125,-923.317 373.9244,-923.5936"/>
<polygon fill="#191970" stroke="#191970" points="36.0398,-541.8304 31.7304,-532.1516 29.0635,-542.4053 36.0398,-541.8304"/>
</g>
<!-- Node334117 -->
<g id="node20" class="node">
<title>Node334117</title>
<g id="a_node20"><a xlink:href="quickjs_8c.html#a069baa06a1214006c4ec473875de010e" target="_top" xlink:title="get_lvalue">
<polygon fill="none" stroke="#000000" points="113,-806.9517 113,-825.9517 174,-825.9517 174,-806.9517 113,-806.9517"/>
<text text-anchor="middle" x="143.5" y="-813.9517" font-family="Helvetica,sans-Serif" font-size="10.00" fill="#000000">get_lvalue</text>
</a>
</g>
</g>
<!-- Node334081&#45;&gt;Node334117 -->
<g id="edge49" class="edge">
<title>Node334081&#45;&gt;Node334117</title>
<path fill="none" stroke="#191970" d="M33.5371,-542.3679C39.5994,-585.0575 57.5403,-687.649 98,-763.4517 107.1365,-780.5692 122.6258,-796.993 132.958,-806.9036"/>
<polygon fill="#191970" stroke="#191970" points="36.971,-541.6434 32.161,-532.2034 30.0343,-542.5826 36.971,-541.6434"/>
</g>
<!-- Node334118 -->
<g id="node21" class="node">
<title>Node334118</title>
<g id="a_node21"><a xlink:href="quickjs_8c.html#ab87db7e4e299e811a54acab5fe3620a7" target="_top" xlink:title="set_object_name">
<polygon fill="none" stroke="#000000" points="98,-360.9517 98,-379.9517 189,-379.9517 189,-360.9517 98,-360.9517"/>
<text text-anchor="middle" x="143.5" y="-367.9517" font-family="Helvetica,sans-Serif" font-size="10.00" fill="#000000">set_object_name</text>
</a>
</g>
</g>
<!-- Node334081&#45;&gt;Node334118 -->
<g id="edge66" class="edge">
<title>Node334081&#45;&gt;Node334118</title>
<path fill="none" stroke="#191970" d="M44.036,-504.8386C67.9344,-472.5492 118.0011,-404.9036 136.4653,-379.9564"/>
<polygon fill="#191970" stroke="#191970" points="41.1733,-502.8233 38.0374,-512.9434 46.7998,-506.9877 41.1733,-502.8233"/>
</g>
<!-- Node334082&#45;&gt;Node334083 -->
<g id="edge2" class="edge">
<title>Node334082&#45;&gt;Node334083</title>
<path fill="none" stroke="#191970" d="M433.2073,-256.7248C456.3893,-351.6382 557.9723,-767.5472 574.6726,-835.9225"/>
<polygon fill="#191970" stroke="#191970" points="436.6054,-255.8859 430.8326,-247.0019 429.8053,-257.5468 436.6054,-255.8859"/>
</g>
<!-- Node334082&#45;&gt;Node334090 -->
<g id="edge26" class="edge">
<title>Node334082&#45;&gt;Node334090</title>
<path fill="none" stroke="#191970" d="M472.2023,-225.4744C539.6652,-209.2097 672.224,-186.1782 776,-223.4517 815.6496,-237.6928 850.6474,-275.9309 865.4716,-293.8888"/>
<polygon fill="#191970" stroke="#191970" points="471.2055,-222.1154 462.34,-227.9166 472.8882,-228.9102 471.2055,-222.1154"/>
</g>
<!-- Node334083&#45;&gt;Node334083 -->
<g id="edge20" class="edge">
<title>Node334083&#45;&gt;Node334083</title>
<path fill="none" stroke="#191970" d="M550.1208,-864.1056C551.2444,-869.3885 560.2041,-873.4517 577,-873.4517 602.5938,-873.4517 609.9919,-864.017 599.1946,-855.2087"/>
<polygon fill="#191970" stroke="#191970" points="553.2433,-865.6878 554.8054,-855.2087 547.0494,-862.4264 553.2433,-865.6878"/>
</g>
<!-- Node334083&#45;&gt;Node334084 -->
<g id="edge3" class="edge">
<title>Node334083&#45;&gt;Node334084</title>
<path fill="none" stroke="#191970" d="M606.758,-832.7931C647.6042,-819.7091 722.1017,-797.5979 776,-760.4517 862.8263,-700.6119 879.2751,-673.5893 934,-583.4517 973.71,-518.0453 998.86,-428.7231 1007.5716,-399.0291"/>
<polygon fill="#191970" stroke="#191970" points="605.5557,-829.5037 597.1314,-835.9287 607.7237,-836.1595 605.5557,-829.5037"/>
</g>
<!-- Node334083&#45;&gt;Node334099 -->
<g id="edge8" class="edge">
<title>Node334083&#45;&gt;Node334099</title>
<path fill="none" stroke="#191970" d="M590.3397,-827.414C616.2866,-796.9997 673.6214,-736.8952 703.5216,-708.5508"/>
<polygon fill="#191970" stroke="#191970" points="587.326,-825.5645 583.6299,-835.4938 592.7112,-830.0366 587.326,-825.5645"/>
</g>
<!-- Node334083&#45;&gt;Node334087 -->
<g id="edge25" class="edge">
<title>Node334083&#45;&gt;Node334087</title>
<path fill="none" stroke="#191970" d="M627.9212,-857.0033C641.2233,-859.5833 655.5919,-861.9863 669,-863.4517 722.0025,-869.2443 783.1912,-869.9542 824.6224,-869.5554"/>
<polygon fill="#191970" stroke="#191970" points="628.484,-853.5465 617.9906,-855.0084 627.1054,-860.4094 628.484,-853.5465"/>
</g>
<!-- Node334101 -->
<g id="node11" class="node">
<title>Node334101</title>
<g id="a_node11"><a xlink:href="quickjs_8c.html#af99673e7430294cf15dc24dc5dac227f" target="_top" xlink:title="js_parse_unary">
<polygon fill="none" stroke="#ff0000" points="681,-1101.9517 681,-1120.9517 764,-1120.9517 764,-1101.9517 681,-1101.9517"/>
<text text-anchor="middle" x="722.5" y="-1108.9517" font-family="Helvetica,sans-Serif" font-size="10.00" fill="#000000">js_parse_unary</text>
</a>
</g>
</g>
<!-- Node334083&#45;&gt;Node334101 -->
<g id="edge21" class="edge">
<title>Node334083&#45;&gt;Node334101</title>
<path fill="none" stroke="#191970" d="M587.2063,-864.1106C615.7954,-916.3767 695.964,-1062.9391 717.2538,-1101.8607"/>
<polygon fill="#191970" stroke="#191970" points="590.2206,-862.3279 582.351,-855.2342 584.0793,-865.6872 590.2206,-862.3279"/>
</g>
<!-- Node334084&#45;&gt;Node334083 -->
<g id="edge4" class="edge">
<title>Node334084&#45;&gt;Node334083</title>
<path fill="none" stroke="#191970" d="M1007.3859,-408.8751C998.5065,-447.9749 973.4315,-536.504 934,-601.4517 879.2751,-691.5893 862.8263,-718.6119 776,-778.4517 732.3028,-808.5674 675.0659,-828.8007 633.1988,-839.1829"/>
<polygon fill="#191970" stroke="#191970" points="1010.8258,-409.5259 1009.4999,-399.0143 1003.9813,-408.0584 1010.8258,-409.5259"/>
</g>
<!-- Node334085 -->
<g id="node5" class="node">
<title>Node334085</title>
<g id="a_node5"><a xlink:href="quickjs_8c.html#a9d844c16dcc71701436848074337d32c" target="_top" xlink:title="js_parse_statement\l_or_decl">
<polygon fill="none" stroke="#ff0000" points="1088,-652.4517 1088,-682.4517 1190,-682.4517 1190,-652.4517 1088,-652.4517"/>
<text text-anchor="start" x="1096" y="-670.4517" font-family="Helvetica,sans-Serif" font-size="10.00" fill="#000000">js_parse_statement</text>
<text text-anchor="middle" x="1139" y="-659.4517" font-family="Helvetica,sans-Serif" font-size="10.00" fill="#000000">_or_decl</text>
</a>
</g>
</g>
<!-- Node334084&#45;&gt;Node334085 -->
<g id="edge5" class="edge">
<title>Node334084&#45;&gt;Node334085</title>
<path fill="none" stroke="#191970" d="M1019.7233,-408.3977C1043.6782,-460.4247 1110.1396,-604.7704 1131.9595,-652.1605"/>
<polygon fill="#191970" stroke="#191970" points="1022.7676,-406.6407 1015.406,-399.0211 1016.4092,-409.5683 1022.7676,-406.6407"/>
</g>
<!-- Node334084&#45;&gt;Node334092 -->
<g id="edge7" class="edge">
<title>Node334084&#45;&gt;Node334092</title>
<path fill="none" stroke="#191970" d="M1053.2242,-376.9164C1070.6371,-371.7469 1090.4917,-365.8526 1106.7105,-361.0376"/>
<polygon fill="#191970" stroke="#191970" points="1051.8902,-373.6614 1043.2998,-379.8627 1053.8824,-380.3719 1051.8902,-373.6614"/>
</g>
<!-- Node334085&#45;&gt;Node334085 -->
<g id="edge6" class="edge">
<title>Node334085&#45;&gt;Node334085</title>
<path fill="none" stroke="#191970" d="M1116.2559,-692.9096C1119.0788,-697.6307 1126.6602,-700.9517 1139,-700.9517 1159.25,-700.9517 1166.6855,-692.0083 1161.3066,-682.6107"/>
<polygon fill="#191970" stroke="#191970" points="1119.7658,-692.7502 1116.6934,-682.6107 1112.7721,-692.4531 1119.7658,-692.7502"/>
</g>
<!-- Node334099&#45;&gt;Node334083 -->
<g id="edge10" class="edge">
<title>Node334099&#45;&gt;Node334083</title>
<path fill="none" stroke="#191970" d="M704.6106,-716.7594C674.97,-750.7348 616.351,-811.7929 590.1688,-835.7748"/>
<polygon fill="#191970" stroke="#191970" points="707.6314,-718.6135 711.4846,-708.7442 702.3178,-714.0565 707.6314,-718.6135"/>
</g>
<!-- Node334099&#45;&gt;Node334085 -->
<g id="edge16" class="edge">
<title>Node334099&#45;&gt;Node334085</title>
<path fill="none" stroke="#191970" d="M786.603,-693.4488C853.1159,-692.9 960.0719,-690.4875 1052,-681.4517 1063.5711,-680.3143 1075.9396,-678.6184 1087.6122,-676.7958"/>
<polygon fill="#191970" stroke="#191970" points="786.2589,-689.9511 776.2839,-693.5217 786.3083,-696.9509 786.2589,-689.9511"/>
</g>
<!-- Node334099&#45;&gt;Node334099 -->
<g id="edge9" class="edge">
<title>Node334099&#45;&gt;Node334099</title>
<path fill="none" stroke="#191970" d="M696.9129,-718.9096C700.0887,-723.6307 708.6177,-726.9517 722.5,-726.9517 745.2813,-726.9517 753.6462,-718.0083 747.595,-708.6107"/>
<polygon fill="#191970" stroke="#191970" points="700.4237,-718.7664 697.405,-708.6107 693.4317,-718.4322 700.4237,-718.7664"/>
</g>
<!-- Node334099&#45;&gt;Node334100 -->
<g id="edge11" class="edge">
<title>Node334099&#45;&gt;Node334100</title>
<path fill="none" stroke="#191970" d="M739.4866,-669.928C755.9571,-648.5526 782.6964,-617.3977 812,-597.4517 820.7493,-591.4963 831.1921,-586.7005 840.9432,-583.0078"/>
<polygon fill="#191970" stroke="#191970" points="736.5115,-668.0601 733.2837,-678.1513 742.1,-672.2755 736.5115,-668.0601"/>
</g>
<!-- Node334099&#45;&gt;Node334087 -->
<g id="edge14" class="edge">
<title>Node334099&#45;&gt;Node334087</title>
<path fill="none" stroke="#191970" d="M742.1546,-716.3059C775.3553,-754.9114 841.2089,-831.4852 864.5529,-858.6295"/>
<polygon fill="#191970" stroke="#191970" points="744.7667,-713.9754 735.5926,-708.6757 739.4594,-718.5397 744.7667,-713.9754"/>
</g>
<!-- Node334099&#45;&gt;Node334090 -->
<g id="edge17" class="edge">
<title>Node334099&#45;&gt;Node334090</title>
<path fill="none" stroke="#191970" d="M732.1626,-668.4124C761.682,-591.9168 849.8488,-363.4448 869.2125,-313.2666"/>
<polygon fill="#191970" stroke="#191970" points="728.7347,-667.5737 728.3998,-678.1632 735.2654,-670.0939 728.7347,-667.5737"/>
</g>
<!-- Node334100&#45;&gt;Node334085 -->
<g id="edge12" class="edge">
<title>Node334100&#45;&gt;Node334085</title>
<path fill="none" stroke="#191970" d="M909.4888,-586.3462C958.2442,-603.5756 1044.4873,-634.0525 1096.2371,-652.34"/>
<polygon fill="#191970" stroke="#191970" points="910.5641,-583.0142 899.9693,-582.9822 908.2317,-589.6142 910.5641,-583.0142"/>
</g>
<!-- Node334100&#45;&gt;Node334092 -->
<g id="edge13" class="edge">
<title>Node334100&#45;&gt;Node334092</title>
<path fill="none" stroke="#191970" d="M919.1821,-578.9974C958.3469,-581.1719 1014.0511,-578.0047 1052,-549.4517 1116.5062,-500.9167 1134.0265,-394.2485 1137.9839,-361.3263"/>
<polygon fill="#191970" stroke="#191970" points="919.3208,-575.4988 909.1033,-578.3008 918.8381,-582.4821 919.3208,-575.4988"/>
</g>
<!-- Node334087&#45;&gt;Node334085 -->
<g id="edge15" class="edge">
<title>Node334087&#45;&gt;Node334085</title>
<path fill="none" stroke="#191970" d="M893.9995,-852.5836C944.0958,-814.7289 1070.0765,-719.533 1119.0714,-682.5105"/>
<polygon fill="#191970" stroke="#191970" points="891.698,-849.9358 885.8297,-858.757 895.9182,-855.5207 891.698,-849.9358"/>
</g>
<!-- Node334090&#45;&gt;Node334084 -->
<g id="edge18" class="edge">
<title>Node334090&#45;&gt;Node334084</title>
<path fill="none" stroke="#191970" d="M896.8084,-318.2888C925.152,-335.9522 971.6569,-364.9335 995.6358,-379.8769"/>
<polygon fill="#191970" stroke="#191970" points="898.6337,-315.3023 888.2957,-312.9838 894.9314,-321.2432 898.6337,-315.3023"/>
</g>
<!-- Node334090&#45;&gt;Node334092 -->
<g id="edge19" class="edge">
<title>Node334090&#45;&gt;Node334092</title>
<path fill="none" stroke="#191970" d="M935.7941,-314.783C985.1161,-323.6832 1052.4956,-335.8419 1095.8853,-343.6716"/>
<polygon fill="#191970" stroke="#191970" points="936.3337,-311.3239 925.8711,-312.9923 935.0906,-318.2126 936.3337,-311.3239"/>
</g>
<!-- Node334101&#45;&gt;Node334101 -->
<g id="edge24" class="edge">
<title>Node334101&#45;&gt;Node334101</title>
<path fill="none" stroke="#191970" d="M695.6208,-1130.1056C696.7444,-1135.3885 705.7041,-1139.4517 722.5,-1139.4517 748.0938,-1139.4517 755.4919,-1130.017 744.6946,-1121.2087"/>
<polygon fill="#191970" stroke="#191970" points="698.7433,-1131.6878 700.3054,-1121.2087 692.5494,-1128.4264 698.7433,-1131.6878"/>
</g>
<!-- Node334101&#45;&gt;Node334102 -->
<g id="edge22" class="edge">
<title>Node334101&#45;&gt;Node334102</title>
<path fill="none" stroke="#191970" d="M774.2241,-1105.0039C792.508,-1104.5195 812.8521,-1104.6174 830.3028,-1105.2977"/>
<polygon fill="#191970" stroke="#191970" points="773.9008,-1101.5126 764.0232,-1105.3445 774.1345,-1108.5087 773.9008,-1101.5126"/>
</g>
<!-- Node334102&#45;&gt;Node334101 -->
<g id="edge23" class="edge">
<title>Node334102&#45;&gt;Node334101</title>
<path fill="none" stroke="#191970" d="M820.2943,-1117.9249C801.8531,-1118.3906 781.4217,-1118.2686 764.0232,-1117.5589"/>
<polygon fill="#191970" stroke="#191970" points="820.4195,-1121.4228 830.3028,-1117.6057 820.1963,-1114.4263 820.4195,-1121.4228"/>
</g>
<!-- Node334114&#45;&gt;Node334084 -->
<g id="edge30" class="edge">
<title>Node334114&#45;&gt;Node334084</title>
<path fill="none" stroke="#191970" d="M786.3433,-48.413C833.2405,-52.5564 895.2822,-65.7581 934,-104.4517 974.7845,-145.2106 1003.3582,-334.4787 1009.6803,-379.7194"/>
<polygon fill="#191970" stroke="#191970" points="786.5183,-44.9162 776.2798,-47.6407 785.9826,-51.8957 786.5183,-44.9162"/>
</g>
<!-- Node334115 -->
<g id="node14" class="node">
<title>Node334115</title>
<g id="a_node14"><a xlink:href="quickjs_8c.html#ac9030f2b94f2e8292ad37ab68fc99bbd" target="_top" xlink:title="add_brand">
<polygon fill="none" stroke="#000000" points="842,-113.9517 842,-132.9517 904,-132.9517 904,-113.9517 842,-113.9517"/>
<text text-anchor="middle" x="873" y="-120.9517" font-family="Helvetica,sans-Serif" font-size="10.00" fill="#000000">add_brand</text>
</a>
</g>
</g>
<!-- Node334114&#45;&gt;Node334115 -->
<g id="edge28" class="edge">
<title>Node334114&#45;&gt;Node334115</title>
<path fill="none" stroke="#191970" d="M750.7316,-61.7082C780.9523,-76.9691 828.0548,-100.7551 854.0938,-113.9044"/>
<polygon fill="#191970" stroke="#191970" points="752.0651,-58.4606 741.5609,-57.0771 748.9096,-64.7091 752.0651,-58.4606"/>
</g>
<!-- Node334115&#45;&gt;Node334084 -->
<g id="edge29" class="edge">
<title>Node334115&#45;&gt;Node334084</title>
<path fill="none" stroke="#191970" d="M913.4013,-133.477C921.0244,-136.8863 928.3626,-141.4246 934,-147.4517 967.5058,-183.2735 1000.9353,-339.635 1009.1107,-379.9444"/>
<polygon fill="#191970" stroke="#191970" points="914.6456,-130.2056 904.0566,-129.8541 912.1152,-136.7323 914.6456,-130.2056"/>
</g>
<!-- Node334116&#45;&gt;Node334085 -->
<g id="edge47" class="edge">
<title>Node334116&#45;&gt;Node334085</title>
<path fill="none" stroke="#191970" d="M186.0194,-583.2103C346.3535,-597.3835 914.0408,-647.5658 1087.9699,-662.9407"/>
<polygon fill="#191970" stroke="#191970" points="186.3255,-579.7238 176.0561,-582.3296 185.709,-586.6966 186.3255,-579.7238"/>
</g>
<!-- Node334116&#45;&gt;Node334090 -->
<g id="edge48" class="edge">
<title>Node334116&#45;&gt;Node334090</title>
<path fill="none" stroke="#191970" d="M165.7443,-564.2159C235.7613,-517.3001 459.4249,-375.3036 669,-327.4517 716.282,-316.6559 770.9011,-310.5572 811.7174,-307.2118"/>
<polygon fill="#191970" stroke="#191970" points="163.589,-561.448 157.2578,-569.9431 167.5048,-567.2503 163.589,-561.448"/>
</g>
<!-- Node334107 -->
<g id="node16" class="node">
<title>Node334107</title>
<g id="a_node16"><a xlink:href="quickjs_8c.html#a4fa2fc1719feb03edf64eaf034103fd2" target="_top" xlink:title="js_parse_assign_expr">
<polygon fill="none" stroke="#ff0000" points="225,-645.9517 225,-664.9517 336,-664.9517 336,-645.9517 225,-645.9517"/>
<text text-anchor="middle" x="280.5" y="-652.9517" font-family="Helvetica,sans-Serif" font-size="10.00" fill="#000000">js_parse_assign_expr</text>
</a>
</g>
</g>
<!-- Node334116&#45;&gt;Node334107 -->
<g id="edge32" class="edge">
<title>Node334116&#45;&gt;Node334107</title>
<path fill="none" stroke="#191970" d="M165.6019,-594.9175C181.6767,-605.8243 204.1807,-620.3994 225,-631.4517 234.9212,-636.7185 246.2447,-641.7754 256.0649,-645.8777"/>
<polygon fill="#191970" stroke="#191970" points="167.1671,-591.7468 156.9415,-588.974 163.2061,-597.5183 167.1671,-591.7468"/>
</g>
<!-- Node334107&#45;&gt;Node334083 -->
<g id="edge41" class="edge">
<title>Node334107&#45;&gt;Node334083</title>
<path fill="none" stroke="#191970" d="M305.8516,-670.4225C316.2665,-677.5602 327.7842,-686.8594 336,-697.4517 361.3957,-730.1931 341.2344,-755.6953 372,-783.4517 395.1902,-804.3736 476.2294,-824.5367 529.2036,-835.9266"/>
<polygon fill="#191970" stroke="#191970" points="307.7483,-667.481 297.4592,-664.9543 303.9269,-673.3459 307.7483,-667.481"/>
</g>
<!-- Node334107&#45;&gt;Node334084 -->
<g id="edge37" class="edge">
<title>Node334107&#45;&gt;Node334084</title>
<path fill="none" stroke="#191970" d="M293.6557,-637.7357C309.8282,-617.2362 339.195,-583.9373 372,-565.4517 596.5412,-438.9231 689.9228,-505.2441 934,-422.4517 953.8334,-415.7241 975.7175,-406.1236 991.0699,-399.0109"/>
<polygon fill="#191970" stroke="#191970" points="290.6946,-635.8449 287.3744,-645.906 296.2441,-640.1113 290.6946,-635.8449"/>
</g>
<!-- Node334107&#45;&gt;Node334092 -->
<g id="edge45" class="edge">
<title>Node334107&#45;&gt;Node334092</title>
<path fill="none" stroke="#191970" d="M319.0391,-642.6281C335.3531,-637.2486 354.5797,-630.9726 372,-625.4517 621.0077,-546.5349 686.9369,-538.2604 934,-453.4517 987.0879,-435.2283 1002.0127,-433.9799 1052,-408.4517 1079.821,-394.2436 1109.7714,-373.2079 1126.2678,-361.061"/>
<polygon fill="#191970" stroke="#191970" points="317.6964,-639.3856 309.2999,-645.8471 319.8931,-646.032 317.6964,-639.3856"/>
</g>
<!-- Node334107&#45;&gt;Node334099 -->
<g id="edge40" class="edge">
<title>Node334107&#45;&gt;Node334099</title>
<path fill="none" stroke="#191970" d="M346.1522,-666.1716C354.8301,-667.3904 363.6192,-668.5252 372,-669.4517 476.8793,-681.0455 600.0741,-687.9299 668.9336,-691.1753"/>
<polygon fill="#191970" stroke="#191970" points="346.4454,-662.6777 336.0473,-664.7097 345.4431,-669.6056 346.4454,-662.6777"/>
</g>
<!-- Node334107&#45;&gt;Node334100 -->
<g id="edge43" class="edge">
<title>Node334107&#45;&gt;Node334100</title>
<path fill="none" stroke="#191970" d="M346.2781,-646.5728C441.2042,-633.7258 622.1094,-609.1165 776,-587.4517 796.0499,-584.6291 818.4194,-581.4055 836.6196,-578.7636"/>
<polygon fill="#191970" stroke="#191970" points="345.69,-643.1204 336.2495,-647.9296 346.6285,-650.0572 345.69,-643.1204"/>
</g>
<!-- Node334107&#45;&gt;Node334087 -->
<g id="edge44" class="edge">
<title>Node334107&#45;&gt;Node334087</title>
<path fill="none" stroke="#191970" d="M315.6429,-668.6283C332.6465,-674.9735 353.3659,-682.6611 372,-689.4517 552.5051,-755.2311 770.4277,-832.2869 845.8028,-858.8703"/>
<polygon fill="#191970" stroke="#191970" points="316.6971,-665.2859 306.1046,-665.0643 314.247,-671.8431 316.6971,-665.2859"/>
</g>
<!-- Node334107&#45;&gt;Node334090 -->
<g id="edge46" class="edge">
<title>Node334107&#45;&gt;Node334090</title>
<path fill="none" stroke="#191970" d="M289.8386,-636.5362C304.1597,-609.2125 333.9313,-558.5722 372,-527.4517 520.8222,-405.792 746.2358,-336.7671 835.0892,-312.9758"/>
<polygon fill="#191970" stroke="#191970" points="286.5506,-635.2793 285.1213,-645.7773 292.7852,-638.4619 286.5506,-635.2793"/>
</g>
<!-- Node334107&#45;&gt;Node334107 -->
<g id="edge42" class="edge">
<title>Node334107&#45;&gt;Node334107</title>
<path fill="none" stroke="#191970" d="M255.2025,-674.4809C256.5824,-679.5797 265.0149,-683.4517 280.5,-683.4517 304.6719,-683.4517 311.6591,-674.017 301.4615,-665.2087"/>
<polygon fill="#191970" stroke="#191970" points="258.4728,-675.7499 259.5385,-665.2087 252.1319,-672.7846 258.4728,-675.7499"/>
</g>
<!-- Node334107&#45;&gt;Node334108 -->
<g id="edge33" class="edge">
<title>Node334107&#45;&gt;Node334108</title>
<path fill="none" stroke="#191970" d="M284.4296,-675.2078C296.3277,-733.2181 333.5117,-901.4307 372,-940.4517 375.8516,-944.3566 380.5302,-947.4591 385.5281,-949.9239"/>
<polygon fill="#191970" stroke="#191970" points="287.8075,-674.2535 282.3942,-665.146 280.9465,-675.6414 287.8075,-674.2535"/>
</g>
<!-- Node334107&#45;&gt;Node334094 -->
<g id="edge35" class="edge">
<title>Node334107&#45;&gt;Node334094</title>
<path fill="none" stroke="#191970" d="M307.4233,-670.6501C317.6682,-677.6301 328.6353,-686.7504 336,-697.4517 368.534,-744.725 333.909,-778.5295 372,-821.4517 377.5884,-827.7488 385.1082,-832.445 392.8352,-835.9286"/>
<polygon fill="#191970" stroke="#191970" points="309.0251,-667.52 298.7148,-665.0812 305.2539,-673.4173 309.0251,-667.52"/>
</g>
<!-- Node334107&#45;&gt;Node334109 -->
<g id="edge38" class="edge">
<title>Node334107&#45;&gt;Node334109</title>
<path fill="none" stroke="#191970" d="M286.4274,-675.1879C298.5773,-713.7641 328.8432,-800.938 372,-864.4517 384.6862,-883.1218 403.9419,-900.9883 416.3724,-911.5918"/>
<polygon fill="#191970" stroke="#191970" points="289.6555,-673.7787 283.364,-665.2542 282.9664,-675.8415 289.6555,-673.7787"/>
</g>
<!-- Node334108&#45;&gt;Node334083 -->
<g id="edge34" class="edge">
<title>Node334108&#45;&gt;Node334083</title>
<path fill="none" stroke="#191970" d="M474.4772,-946.1131C478.141,-944.4181 481.6975,-942.5357 485,-940.4517 522.8626,-916.5594 556.4237,-873.945 570.2679,-854.9932"/>
<polygon fill="#191970" stroke="#191970" points="473.1277,-942.8836 465.2322,-949.9485 475.8101,-949.3493 473.1277,-942.8836"/>
</g>
<!-- Node334094&#45;&gt;Node334083 -->
<g id="edge36" class="edge">
<title>Node334094&#45;&gt;Node334083</title>
<path fill="none" stroke="#191970" d="M495.2828,-845.4517C503.7369,-845.4517 512.3215,-845.4517 520.5922,-845.4517"/>
<polygon fill="#191970" stroke="#191970" points="495.0651,-841.9518 485.0651,-845.4517 495.0651,-848.9518 495.0651,-841.9518"/>
</g>
<!-- Node334109&#45;&gt;Node334083 -->
<g id="edge39" class="edge">
<title>Node334109&#45;&gt;Node334083</title>
<path fill="none" stroke="#191970" d="M462.0522,-907.9359C469.6708,-904.6639 477.6742,-901.0636 485,-897.4517 512.4808,-883.9024 543.2586,-865.902 561.3373,-855.0237"/>
<polygon fill="#191970" stroke="#191970" points="460.5445,-904.7731 452.6877,-911.8808 463.2621,-911.224 460.5445,-904.7731"/>
</g>
<!-- Node334117&#45;&gt;Node334099 -->
<g id="edge50" class="edge">
<title>Node334117&#45;&gt;Node334099</title>
<path fill="none" stroke="#191970" d="M184.1465,-807.8169C286.2863,-786.1188 553.7256,-729.3053 668.6949,-704.8818"/>
<polygon fill="#191970" stroke="#191970" points="183.2752,-804.4239 174.2208,-809.9255 184.7298,-811.2711 183.2752,-804.4239"/>
</g>
<!-- Node334117&#45;&gt;Node334100 -->
<g id="edge53" class="edge">
<title>Node334117&#45;&gt;Node334100</title>
<path fill="none" stroke="#191970" d="M184.1657,-827.4846C262.5602,-847.8885 431.5747,-887.4316 485,-864.4517 506.3713,-855.2592 501.6689,-839.3956 521,-826.4517 579.5701,-787.2338 602.4924,-792.8019 669,-769.4517 716.0812,-752.9219 741.9269,-771.9058 776,-735.4517 821.9309,-686.3111 764.4597,-636.037 812,-588.4517 818.6288,-581.8166 827.6879,-577.9467 836.7965,-575.7328"/>
<polygon fill="#191970" stroke="#191970" points="184.7343,-824.0153 174.1731,-824.8595 182.9556,-830.7856 184.7343,-824.0153"/>
</g>
<!-- Node334117&#45;&gt;Node334087 -->
<g id="edge54" class="edge">
<title>Node334117&#45;&gt;Node334087</title>
<path fill="none" stroke="#191970" d="M159.6699,-833.5636C194.4457,-868.9613 280.6317,-949.3489 372,-978.4517 558.2472,-1037.7754 793.4309,-914.4993 856.7088,-878.1403"/>
<polygon fill="#191970" stroke="#191970" points="161.7897,-830.721 152.3212,-825.9673 156.7587,-835.5881 161.7897,-830.721"/>
</g>
<!-- Node334117&#45;&gt;Node334101 -->
<g id="edge51" class="edge">
<title>Node334117&#45;&gt;Node334101</title>
<path fill="none" stroke="#191970" d="M153.8108,-835.1169C167.925,-859.7125 194.9602,-903.5811 225,-935.4517 281.7081,-995.616 297.7221,-1013.1426 372,-1049.4517 474.9847,-1099.7934 612.7551,-1109.7326 680.8261,-1111.389"/>
<polygon fill="#191970" stroke="#191970" points="156.7019,-833.1184 148.7387,-826.13 150.6058,-836.559 156.7019,-833.1184"/>
</g>
<!-- Node334117&#45;&gt;Node334107 -->
<g id="edge52" class="edge">
<title>Node334117&#45;&gt;Node334107</title>
<path fill="none" stroke="#191970" d="M158.1809,-799.199C186.8932,-765.4568 249.6442,-691.7129 272.2098,-665.1941"/>
<polygon fill="#191970" stroke="#191970" points="155.4748,-796.9784 151.6597,-806.8626 160.8059,-801.5149 155.4748,-796.9784"/>
</g>
<!-- Node334118&#45;&gt;Node334084 -->
<g id="edge68" class="edge">
<title>Node334118&#45;&gt;Node334084</title>
<path fill="none" stroke="#191970" d="M199.0649,-360.3876C207.7199,-359.1679 216.5817,-358.1189 225,-357.4517 274.1791,-353.5541 286.6678,-357.1206 336,-357.4517 402.2267,-357.8961 418.8128,-357.1211 485,-359.4517 665.7656,-365.8168 881.1245,-380.2492 969.7707,-386.4875"/>
<polygon fill="#191970" stroke="#191970" points="198.4119,-356.9462 189.0386,-361.8851 199.446,-363.8694 198.4119,-356.9462"/>
</g>
<!-- Node334118&#45;&gt;Node334092 -->
<g id="edge72" class="edge">
<title>Node334118&#45;&gt;Node334092</title>
<path fill="none" stroke="#191970" d="M153.3578,-351.816C166.6697,-328.3249 192.5117,-288.157 225,-264.4517 414.8276,-125.9429 487.5123,-85.4517 722.5,-85.4517 722.5,-85.4517 722.5,-85.4517 873,-85.4517 1020.9253,-85.4517 1115.3197,-293.6792 1135.1103,-341.6691"/>
<polygon fill="#191970" stroke="#191970" points="150.188,-350.3168 148.4371,-360.7659 156.322,-353.6894 150.188,-350.3168"/>
</g>
<!-- Node334118&#45;&gt;Node334099 -->
<g id="edge69" class="edge">
<title>Node334118&#45;&gt;Node334099</title>
<path fill="none" stroke="#191970" d="M199.1898,-368.045C298.8478,-366.8183 508.8472,-378.6543 633,-489.4517 667.6199,-520.3474 650.5155,-544.891 669,-587.4517 683.3706,-620.5401 703.0945,-657.9243 714.1373,-678.2689"/>
<polygon fill="#191970" stroke="#191970" points="198.9706,-364.5481 189.0326,-368.2205 199.0916,-371.5471 198.9706,-364.5481"/>
</g>
<!-- Node334118&#45;&gt;Node334100 -->
<g id="edge71" class="edge">
<title>Node334118&#45;&gt;Node334100</title>
<path fill="none" stroke="#191970" d="M199.2949,-364.9063C293.3421,-357.9244 487.4057,-353.8203 633,-419.4517 726.877,-461.7698 826.6414,-536.985 860.7526,-563.703"/>
<polygon fill="#191970" stroke="#191970" points="198.8441,-361.4308 189.1476,-365.7001 199.3901,-368.4094 198.8441,-361.4308"/>
</g>
<!-- Node334118&#45;&gt;Node334090 -->
<g id="edge73" class="edge">
<title>Node334118&#45;&gt;Node334090</title>
<path fill="none" stroke="#191970" d="M161.3026,-353.8186C182.9285,-333.7941 217.4659,-302.4584 225,-299.4517 408.4454,-226.2428 471.5312,-284.6749 669,-280.4517 716.5447,-279.4349 728.7663,-274.9284 776,-280.4517 798.0033,-283.0247 822.2533,-288.7747 841.0025,-293.8814"/>
<polygon fill="#191970" stroke="#191970" points="158.672,-351.4852 153.7297,-360.8567 163.4374,-356.6127 158.672,-351.4852"/>
</g>
<!-- Node334118&#45;&gt;Node334107 -->
<g id="edge70" class="edge">
<title>Node334118&#45;&gt;Node334107</title>
<path fill="none" stroke="#191970" d="M152.5584,-389.2958C179.0896,-444.4884 255.9983,-604.4811 275.804,-645.6826"/>
<polygon fill="#191970" stroke="#191970" points="155.7028,-387.7584 148.2159,-380.262 149.3939,-390.7912 155.7028,-387.7584"/>
</g>
<!-- Node334118&#45;&gt;Node334094 -->
<g id="edge67" class="edge">
<title>Node334118&#45;&gt;Node334094</title>
<path fill="none" stroke="#191970" d="M148.2548,-390.2593C164.8997,-459.4631 219.8181,-686.5975 225,-692.4517 260.066,-732.0672 297.8556,-698.7908 336,-735.4517 364.9905,-763.3146 344.092,-789.5046 372,-818.4517 379.3192,-826.0434 389.2035,-831.7584 398.6583,-835.9289"/>
<polygon fill="#191970" stroke="#191970" points="151.5857,-389.1407 145.846,-380.2354 144.7795,-390.7764 151.5857,-389.1407"/>
</g>
</g>
</svg>
