<?xml version="1.0" encoding="UTF-8" standalone="no"?>
<!DOCTYPE svg PUBLIC "-//W3C//DTD SVG 1.1//EN"
 "http://www.w3.org/Graphics/SVG/1.1/DTD/svg11.dtd">
<!-- Generated by graphviz version 2.40.1 (20161225.0304)
 -->
<!-- Title: js_array_buffer_constructor2 Pages: 1 -->
<svg width="642pt" height="344pt"
 viewBox="0.00 0.00 642.00 344.00" xmlns="http://www.w3.org/2000/svg" xmlns:xlink="http://www.w3.org/1999/xlink">
<g id="graph0" class="graph" transform="scale(1 1) rotate(0) translate(4 340)">
<title>js_array_buffer_constructor2</title>
<!-- Node437727 -->
<g id="node1" class="node">
<title>Node437727</title>
<polygon fill="#bfbfbf" stroke="#000000" points="0,-66.5 0,-85.5 140,-85.5 140,-66.5 0,-66.5"/>
<text text-anchor="middle" x="70" y="-73.5" font-family="Helvetica,sans-Serif" font-size="10.00" fill="#000000">js_array_buffer_constructor2</text>
</g>
<!-- Node437728 -->
<g id="node2" class="node">
<title>Node437728</title>
<g id="a_node2"><a xlink:href="quickjs_8c.html#a06f84cf8ea00e2baf1a9b94f1a319b18" target="_top" xlink:title="js_array_buffer_constructor3">
<polygon fill="none" stroke="#000000" points="176,-123.5 176,-142.5 316,-142.5 316,-123.5 176,-123.5"/>
<text text-anchor="middle" x="246" y="-130.5" font-family="Helvetica,sans-Serif" font-size="10.00" fill="#000000">js_array_buffer_constructor3</text>
</a>
</g>
</g>
<!-- Node437727&#45;&gt;Node437728 -->
<g id="edge1" class="edge">
<title>Node437727&#45;&gt;Node437728</title>
<path fill="none" stroke="#191970" d="M99.4584,-85.5405C128.9012,-95.076 174.3451,-109.7936 206.8166,-120.3099"/>
<polygon fill="#191970" stroke="#191970" points="205.8535,-123.6769 216.4455,-123.4284 208.0103,-117.0175 205.8535,-123.6769"/>
</g>
<!-- Node438146 -->
<g id="node16" class="node">
<title>Node438146</title>
<g id="a_node16"><a xlink:href="quickjs_8c.html#a4e2ed26457b779e5bd73472de8be124c" target="_top" xlink:title="js_array_buffer_free">
<polygon fill="none" stroke="#000000" points="194.5,-47.5 194.5,-66.5 297.5,-66.5 297.5,-47.5 194.5,-47.5"/>
<text text-anchor="middle" x="246" y="-54.5" font-family="Helvetica,sans-Serif" font-size="10.00" fill="#000000">js_array_buffer_free</text>
</a>
</g>
</g>
<!-- Node437727&#45;&gt;Node438146 -->
<g id="edge17" class="edge">
<title>Node437727&#45;&gt;Node438146</title>
<path fill="none" stroke="#191970" d="M140.0656,-68.4361C154.6446,-66.8622 169.9096,-65.2143 184.1665,-63.6752"/>
<polygon fill="#191970" stroke="#191970" points="184.7789,-67.1295 194.3454,-62.5763 184.0275,-60.17 184.7789,-67.1295"/>
</g>
<!-- Node437729 -->
<g id="node3" class="node">
<title>Node437729</title>
<g id="a_node3"><a xlink:href="list_8h.html#a663527a4d757540b2177bef0db1ce5c0" target="_top" xlink:title="init_list_head">
<polygon fill="none" stroke="#000000" points="366.5,-238.5 366.5,-257.5 440.5,-257.5 440.5,-238.5 366.5,-238.5"/>
<text text-anchor="middle" x="403.5" y="-245.5" font-family="Helvetica,sans-Serif" font-size="10.00" fill="#000000">init_list_head</text>
</a>
</g>
</g>
<!-- Node437728&#45;&gt;Node437729 -->
<g id="edge2" class="edge">
<title>Node437728&#45;&gt;Node437729</title>
<path fill="none" stroke="#191970" d="M255.501,-142.7652C273.2241,-160.5953 313.0676,-198.8943 352,-224 357.6035,-227.6135 363.8383,-230.9919 369.9804,-234.0076"/>
<polygon fill="#191970" stroke="#191970" points="368.9101,-237.3705 379.4519,-238.4294 371.8713,-231.0277 368.9101,-237.3705"/>
</g>
<!-- Node437730 -->
<g id="node4" class="node">
<title>Node437730</title>
<g id="a_node4"><a xlink:href="quickjs_8c.html#a93dbf502b17d1328c524401335f60499" target="_top" xlink:title="js_create_from_ctor">
<polygon fill="none" stroke="#000000" points="352,-162.5 352,-181.5 455,-181.5 455,-162.5 352,-162.5"/>
<text text-anchor="middle" x="403.5" y="-169.5" font-family="Helvetica,sans-Serif" font-size="10.00" fill="#000000">js_create_from_ctor</text>
</a>
</g>
</g>
<!-- Node437728&#45;&gt;Node437730 -->
<g id="edge3" class="edge">
<title>Node437728&#45;&gt;Node437730</title>
<path fill="none" stroke="#191970" d="M284.5288,-142.5405C305.8687,-147.8246 332.5948,-154.4425 355.3073,-160.0666"/>
<polygon fill="#191970" stroke="#191970" points="354.5482,-163.4842 365.0963,-162.4905 356.2307,-156.6894 354.5482,-163.4842"/>
</g>
<!-- Node437732 -->
<g id="node6" class="node">
<title>Node437732</title>
<g id="a_node6"><a xlink:href="quickjs_8h.html#afaa20c47565bc704c6c85f3d77254e7d" target="_top" xlink:title="JS_FreeValue">
<polygon fill="none" stroke="#ff0000" points="523.5,-316.5 523.5,-335.5 601.5,-335.5 601.5,-316.5 523.5,-316.5"/>
<text text-anchor="middle" x="562.5" y="-323.5" font-family="Helvetica,sans-Serif" font-size="10.00" fill="#000000">JS_FreeValue</text>
</a>
</g>
</g>
<!-- Node437728&#45;&gt;Node437732 -->
<g id="edge14" class="edge">
<title>Node437728&#45;&gt;Node437732</title>
<path fill="none" stroke="#191970" d="M261.7856,-142.5969C282.1728,-154.7656 318.9682,-175.9685 352,-191 396.4117,-211.21 419.1625,-195.8864 455,-229 483.0426,-254.9112 461.7746,-282.4307 491,-307 497.501,-312.4653 505.414,-316.3749 513.5758,-319.1678"/>
<polygon fill="#191970" stroke="#191970" points="512.6225,-322.5355 523.2017,-321.9598 514.5726,-315.8126 512.6225,-322.5355"/>
</g>
<!-- Node437770 -->
<g id="node8" class="node">
<title>Node437770</title>
<g id="a_node8"><a xlink:href="quickjs_8h.html#ad80a83d73e9b7d872b88fbf2943aebe9" target="_top" xlink:title="JS_IsException">
<polygon fill="none" stroke="#000000" points="519.5,-38.5 519.5,-57.5 605.5,-57.5 605.5,-38.5 519.5,-38.5"/>
<text text-anchor="middle" x="562.5" y="-45.5" font-family="Helvetica,sans-Serif" font-size="10.00" fill="#000000">JS_IsException</text>
</a>
</g>
</g>
<!-- Node437728&#45;&gt;Node437770 -->
<g id="edge15" class="edge">
<title>Node437728&#45;&gt;Node437770</title>
<path fill="none" stroke="#191970" d="M316.3603,-140.149C358.9283,-141.3021 412.9243,-136.9154 455,-114 477.799,-101.5831 469.4243,-82.4383 491,-68 496.6859,-64.195 503.0877,-61.1081 509.6641,-58.605"/>
<polygon fill="#191970" stroke="#191970" points="511.0009,-61.8481 519.3611,-55.3399 508.767,-55.2141 511.0009,-61.8481"/>
</g>
<!-- Node437801 -->
<g id="node13" class="node">
<title>Node437801</title>
<g id="a_node13"><a xlink:href="quickjs_8c.html#a80e54dcf9ac687d4ccc2f90273565f30" target="_top" xlink:title="js_free">
<polygon fill="none" stroke="#000000" points="380.5,-85.5 380.5,-104.5 426.5,-104.5 426.5,-85.5 380.5,-85.5"/>
<text text-anchor="middle" x="403.5" y="-92.5" font-family="Helvetica,sans-Serif" font-size="10.00" fill="#000000">js_free</text>
</a>
</g>
</g>
<!-- Node437728&#45;&gt;Node437801 -->
<g id="edge12" class="edge">
<title>Node437728&#45;&gt;Node437801</title>
<path fill="none" stroke="#191970" d="M285.7439,-123.411C311.8979,-117.1008 345.7313,-108.9378 370.4169,-102.982"/>
<polygon fill="#191970" stroke="#191970" points="371.4871,-106.3243 380.3872,-100.5764 369.8452,-99.5195 371.4871,-106.3243"/>
</g>
<!-- Node437988 -->
<g id="node15" class="node">
<title>Node437988</title>
<g id="a_node15"><a xlink:href="quickjs_8c.html#a0ddf716409e51648f0d59e7521150d19" target="_top" xlink:title="JS_SetOpaque">
<polygon fill="none" stroke="#000000" points="362,-47.5 362,-66.5 445,-66.5 445,-47.5 362,-47.5"/>
<text text-anchor="middle" x="403.5" y="-54.5" font-family="Helvetica,sans-Serif" font-size="10.00" fill="#000000">JS_SetOpaque</text>
</a>
</g>
</g>
<!-- Node437728&#45;&gt;Node437988 -->
<g id="edge16" class="edge">
<title>Node437728&#45;&gt;Node437988</title>
<path fill="none" stroke="#191970" d="M262.1652,-123.386C282.6477,-111.4211 319.2347,-90.7663 352,-76 356.4366,-74.0006 361.1522,-72.0429 365.8591,-70.1898"/>
<polygon fill="#191970" stroke="#191970" points="367.3147,-73.3808 375.4161,-66.5531 364.8251,-66.8384 367.3147,-73.3808"/>
</g>
<!-- Node437731 -->
<g id="node5" class="node">
<title>Node437731</title>
<g id="a_node5"><a xlink:href="quickjs_8h.html#a775522f2d084fc8fa0fcb33f390006b4" target="_top" xlink:title="JS_DupValue">
<polygon fill="none" stroke="#000000" points="524,-278.5 524,-297.5 601,-297.5 601,-278.5 524,-278.5"/>
<text text-anchor="middle" x="562.5" y="-285.5" font-family="Helvetica,sans-Serif" font-size="10.00" fill="#000000">JS_DupValue</text>
</a>
</g>
</g>
<!-- Node437730&#45;&gt;Node437731 -->
<g id="edge4" class="edge">
<title>Node437730&#45;&gt;Node437731</title>
<path fill="none" stroke="#191970" d="M432.9101,-181.5996C440.77,-185.1972 448.7947,-189.93 455,-196 480.8603,-221.296 463.0125,-246.0797 491,-269 497.6422,-274.4396 505.6905,-278.334 513.9577,-281.1192"/>
<polygon fill="#191970" stroke="#191970" points="513.115,-284.5184 523.692,-283.9053 515.0412,-277.7887 513.115,-284.5184"/>
</g>
<!-- Node437730&#45;&gt;Node437732 -->
<g id="edge5" class="edge">
<title>Node437730&#45;&gt;Node437732</title>
<path fill="none" stroke="#191970" d="M434.5703,-181.5385C442.0787,-185.0759 449.5105,-189.7934 455,-196 489.3596,-234.8483 453.3526,-271.3286 491,-307 497.2992,-312.9685 505.2535,-317.1101 513.5507,-319.9732"/>
<polygon fill="#191970" stroke="#191970" points="512.7927,-323.3967 523.3696,-322.78 514.7167,-316.6663 512.7927,-323.3967"/>
</g>
<!-- Node437761 -->
<g id="node7" class="node">
<title>Node437761</title>
<g id="a_node7"><a xlink:href="quickjs_8h.html#a89b7c8686c7eee70b86be722ee4730ad" target="_top" xlink:title="JS_GetProperty">
<polygon fill="none" stroke="#ff0000" points="519.5,-240.5 519.5,-259.5 605.5,-259.5 605.5,-240.5 519.5,-240.5"/>
<text text-anchor="middle" x="562.5" y="-247.5" font-family="Helvetica,sans-Serif" font-size="10.00" fill="#000000">JS_GetProperty</text>
</a>
</g>
</g>
<!-- Node437730&#45;&gt;Node437761 -->
<g id="edge6" class="edge">
<title>Node437730&#45;&gt;Node437761</title>
<path fill="none" stroke="#191970" d="M428.2565,-181.5204C437.0519,-185.4154 446.7982,-190.3441 455,-196 473.3709,-208.6684 471.5849,-219.9987 491,-231 496.6467,-234.1996 502.85,-236.8764 509.1702,-239.112"/>
<polygon fill="#191970" stroke="#191970" points="508.5446,-242.5855 519.1349,-242.2739 510.6618,-235.9133 508.5446,-242.5855"/>
</g>
<!-- Node437730&#45;&gt;Node437770 -->
<g id="edge7" class="edge">
<title>Node437730&#45;&gt;Node437770</title>
<path fill="none" stroke="#191970" d="M431.964,-162.4223C440.1662,-158.613 448.6136,-153.5438 455,-147 481.9494,-119.3863 461.688,-93.0918 491,-68 496.5202,-63.2745 503.0765,-59.6604 509.9449,-56.8973"/>
<polygon fill="#191970" stroke="#191970" points="511.1186,-60.195 519.4363,-53.6325 508.8416,-53.5756 511.1186,-60.195"/>
</g>
<!-- Node438002 -->
<g id="node9" class="node">
<title>Node438002</title>
<g id="a_node9"><a xlink:href="quickjs_8h.html#a3d68fe446df2d9c7d1900b16371bff5b" target="_top" xlink:title="JS_IsObject">
<polygon fill="none" stroke="#000000" points="527,-202.5 527,-221.5 598,-221.5 598,-202.5 527,-202.5"/>
<text text-anchor="middle" x="562.5" y="-209.5" font-family="Helvetica,sans-Serif" font-size="10.00" fill="#000000">JS_IsObject</text>
</a>
</g>
</g>
<!-- Node437730&#45;&gt;Node438002 -->
<g id="edge8" class="edge">
<title>Node437730&#45;&gt;Node438002</title>
<path fill="none" stroke="#191970" d="M441.5845,-181.581C464.254,-187.284 493.157,-194.5552 517.0199,-200.5585"/>
<polygon fill="#191970" stroke="#191970" points="516.3537,-203.9999 526.9055,-203.0454 518.0616,-197.2114 516.3537,-203.9999"/>
</g>
<!-- Node437926 -->
<g id="node10" class="node">
<title>Node437926</title>
<g id="a_node10"><a xlink:href="quickjs_8h.html#a4e407128a9605afb77523e49e9a627fd" target="_top" xlink:title="JS_IsUndefined">
<polygon fill="none" stroke="#000000" points="519.5,-164.5 519.5,-183.5 605.5,-183.5 605.5,-164.5 519.5,-164.5"/>
<text text-anchor="middle" x="562.5" y="-171.5" font-family="Helvetica,sans-Serif" font-size="10.00" fill="#000000">JS_IsUndefined</text>
</a>
</g>
</g>
<!-- Node437730&#45;&gt;Node437926 -->
<g id="edge9" class="edge">
<title>Node437730&#45;&gt;Node437926</title>
<path fill="none" stroke="#191970" d="M455.1227,-172.6493C472.4811,-172.8677 491.8698,-173.1116 509.3439,-173.3314"/>
<polygon fill="#191970" stroke="#191970" points="509.3381,-176.8315 519.3814,-173.4576 509.4263,-169.832 509.3381,-176.8315"/>
</g>
<!-- Node437890 -->
<g id="node11" class="node">
<title>Node437890</title>
<g id="a_node11"><a xlink:href="quickjs_8c.html#a73738c650f11459db0d7af3dcdf8316b" target="_top" xlink:title="JS_NewObjectProtoClass">
<polygon fill="none" stroke="#ff0000" points="497,-126.5 497,-145.5 628,-145.5 628,-126.5 497,-126.5"/>
<text text-anchor="middle" x="562.5" y="-133.5" font-family="Helvetica,sans-Serif" font-size="10.00" fill="#000000">JS_NewObjectProtoClass</text>
</a>
</g>
</g>
<!-- Node437730&#45;&gt;Node437890 -->
<g id="edge10" class="edge">
<title>Node437730&#45;&gt;Node437890</title>
<path fill="none" stroke="#191970" d="M445.6916,-162.4472C465.5366,-157.954 489.3926,-152.5526 510.3578,-147.8058"/>
<polygon fill="#191970" stroke="#191970" points="511.4071,-151.1569 520.3873,-145.5349 509.8613,-144.3297 511.4071,-151.1569"/>
</g>
<!-- Node437925 -->
<g id="node12" class="node">
<title>Node437925</title>
<g id="a_node12"><a xlink:href="quickjs_8c.html#a199d64ccbee0a90d93e1ad12745417f6" target="_top" xlink:title="JS_ThrowTypeErrorRevoked\lProxy">
<polygon fill="none" stroke="#000000" points="491,-77 491,-107 634,-107 634,-77 491,-77"/>
<text text-anchor="start" x="499" y="-95" font-family="Helvetica,sans-Serif" font-size="10.00" fill="#000000">JS_ThrowTypeErrorRevoked</text>
<text text-anchor="middle" x="562.5" y="-84" font-family="Helvetica,sans-Serif" font-size="10.00" fill="#000000">Proxy</text>
</a>
</g>
</g>
<!-- Node437730&#45;&gt;Node437925 -->
<g id="edge11" class="edge">
<title>Node437730&#45;&gt;Node437925</title>
<path fill="none" stroke="#191970" d="M426.1943,-162.4322C435.4076,-158.1816 445.9825,-152.8224 455,-147 472.497,-135.7025 472.8798,-127.2682 491,-117 494.6682,-114.9213 498.5392,-112.9712 502.5045,-111.15"/>
<polygon fill="#191970" stroke="#191970" points="504.0635,-114.2898 511.8773,-107.1347 501.307,-107.8554 504.0635,-114.2898"/>
</g>
<!-- Node437745 -->
<g id="node14" class="node">
<title>Node437745</title>
<g id="a_node14"><a xlink:href="quickjs_8c.html#a69e19dda8a93d613203e0baa06f0ed8d" target="_top" xlink:title="js_free_rt">
<polygon fill="none" stroke="#000000" points="534,-.5 534,-19.5 591,-19.5 591,-.5 534,-.5"/>
<text text-anchor="middle" x="562.5" y="-7.5" font-family="Helvetica,sans-Serif" font-size="10.00" fill="#000000">js_free_rt</text>
</a>
</g>
</g>
<!-- Node437801&#45;&gt;Node437745 -->
<g id="edge13" class="edge">
<title>Node437801&#45;&gt;Node437745</title>
<path fill="none" stroke="#191970" d="M426.6707,-89.4979C436.0615,-86.5238 446.639,-82.1643 455,-76 476.1787,-60.3857 469.1132,-43.6052 491,-29 500.7338,-22.5045 512.5955,-18.2259 523.8376,-15.4089"/>
<polygon fill="#191970" stroke="#191970" points="524.8851,-18.7628 533.9089,-13.2112 523.3926,-11.9237 524.8851,-18.7628"/>
</g>
<!-- Node438146&#45;&gt;Node437745 -->
<g id="edge18" class="edge">
<title>Node438146&#45;&gt;Node437745</title>
<path fill="none" stroke="#191970" d="M296.3362,-47.4982C313.9184,-44.3066 333.8046,-40.8394 352,-38 411.7731,-28.6724 481.4062,-19.7983 523.7,-14.6287"/>
<polygon fill="#191970" stroke="#191970" points="524.3363,-18.0772 533.841,-13.3962 523.4917,-11.1283 524.3363,-18.0772"/>
</g>
</g>
</svg>
