<?xml version="1.0" encoding="UTF-8" standalone="no"?>
<!DOCTYPE svg PUBLIC "-//W3C//DTD SVG 1.1//EN"
 "http://www.w3.org/Graphics/SVG/1.1/DTD/svg11.dtd">
<!-- Generated by graphviz version 2.40.1 (20161225.0304)
 -->
<!-- Title: JS_RunGC Pages: 1 -->
<!--zoomable 462 -->
<svg id="main" version="1.1" xmlns="http://www.w3.org/2000/svg" xmlns:xlink="http://www.w3.org/1999/xlink" xml:space="preserve" onload="init(evt)">
<style type="text/css"><![CDATA[
.edge:hover path { stroke: red; }
.edge:hover polygon { stroke: red; fill: red; }
]]></style>
<script type="text/javascript"><![CDATA[
var edges = document.getElementsByTagName('g');
if (edges && edges.length) {
  for (var i=0;i<edges.length;i++) {
    if (edges[i].id.substr(0,4)=='edge') {
      edges[i].setAttribute('class','edge');
    }
  }
}
]]></script>
        <defs>
                <circle id="rim" cx="0" cy="0" r="7"/>
                <circle id="rim2" cx="0" cy="0" r="3.5"/>
                <g id="zoomPlus">
                        <use xlink:href="#rim" fill="#404040">
                                <set attributeName="fill" to="#808080" begin="zoomplus.mouseover" end="zoomplus.mouseout"/>
                        </use>
                        <path d="M-4,0h8M0,-4v8" fill="none" stroke="white" stroke-width="1.5" pointer-events="none"/>
                </g>
                <g id="zoomMin">
                        <use xlink:href="#rim" fill="#404040">
                                <set attributeName="fill" to="#808080" begin="zoomminus.mouseover" end="zoomminus.mouseout"/>
                        </use>
                        <path d="M-4,0h8" fill="none" stroke="white" stroke-width="1.5" pointer-events="none"/>
                </g>
                <g id="dirArrow">
                        <path fill="none" stroke="white" stroke-width="1.5" d="M0,-3.0v7 M-2.5,-0.5L0,-3.0L2.5,-0.5"/>
                </g>
               <g id="resetDef">
                       <use xlink:href="#rim2" fill="#404040">
                               <set attributeName="fill" to="#808080" begin="reset.mouseover" end="reset.mouseout"/>
                       </use>
               </g>
        </defs>

<script type="text/javascript">
var viewWidth = 675;
var viewHeight = 462;
var sectionId = 'dynsection-450';
</script>
<script xlink:href="svgpan.js"/>
<svg id="graph" class="graph">
<g id="viewport">
<title>JS_RunGC</title>
<!-- Node141448 -->
<g id="node1" class="node">
<title>Node141448</title>
<polygon fill="#bfbfbf" stroke="#000000" points="0,-206.1475 0,-225.1475 67,-225.1475 67,-206.1475 0,-206.1475"/>
<text text-anchor="middle" x="33.5" y="-213.1475" font-family="Helvetica,sans-Serif" font-size="10.00" fill="#000000">JS_RunGC</text>
</g>
<!-- Node141449 -->
<g id="node2" class="node">
<title>Node141449</title>
<g id="a_node2"><a xlink:href="quickjs_8c.html#ae09ca4f159971d3c1f1dafc8682ba04b" target="_top" xlink:title="gc_decref">
<polygon fill="none" stroke="#000000" points="115,-320.1475 115,-339.1475 174,-339.1475 174,-320.1475 115,-320.1475"/>
<text text-anchor="middle" x="144.5" y="-327.1475" font-family="Helvetica,sans-Serif" font-size="10.00" fill="#000000">gc_decref</text>
</a>
</g>
</g>
<!-- Node141448&#45;&gt;Node141449 -->
<g id="edge1" class="edge">
<title>Node141448&#45;&gt;Node141449</title>
<path fill="none" stroke="#191970" d="M42.9638,-225.3671C61.8049,-244.7174 104.2205,-288.2794 127.8341,-312.5312"/>
<polygon fill="#191970" stroke="#191970" points="125.5763,-315.2294 135.0602,-319.9525 130.5916,-310.3461 125.5763,-315.2294"/>
</g>
<!-- Node141456 -->
<g id="node6" class="node">
<title>Node141456</title>
<g id="a_node6"><a xlink:href="quickjs_8c.html#af7c53b26778d6b7e155fab5349a4585e" target="_top" xlink:title="gc_free_cycles">
<polygon fill="none" stroke="#000000" points="103,-111.1475 103,-130.1475 186,-130.1475 186,-111.1475 103,-111.1475"/>
<text text-anchor="middle" x="144.5" y="-118.1475" font-family="Helvetica,sans-Serif" font-size="10.00" fill="#000000">gc_free_cycles</text>
</a>
</g>
</g>
<!-- Node141448&#45;&gt;Node141456 -->
<g id="edge6" class="edge">
<title>Node141448&#45;&gt;Node141456</title>
<path fill="none" stroke="#191970" d="M44.9609,-205.8386C64.0033,-189.541 102.3502,-156.7217 125.4925,-136.9152"/>
<polygon fill="#191970" stroke="#191970" points="127.9452,-139.4229 133.2668,-130.2615 123.3936,-134.1047 127.9452,-139.4229"/>
</g>
<!-- Node141479 -->
<g id="node14" class="node">
<title>Node141479</title>
<g id="a_node14"><a xlink:href="quickjs_8c.html#adee2db09b659dd2c1a1a3c408658a753" target="_top" xlink:title="gc_scan">
<polygon fill="none" stroke="#000000" points="118,-206.1475 118,-225.1475 171,-225.1475 171,-206.1475 118,-206.1475"/>
<text text-anchor="middle" x="144.5" y="-213.1475" font-family="Helvetica,sans-Serif" font-size="10.00" fill="#000000">gc_scan</text>
</a>
</g>
</g>
<!-- Node141448&#45;&gt;Node141479 -->
<g id="edge16" class="edge">
<title>Node141448&#45;&gt;Node141479</title>
<path fill="none" stroke="#191970" d="M67.1049,-215.6475C79.8936,-215.6475 94.5295,-215.6475 107.6067,-215.6475"/>
<polygon fill="#191970" stroke="#191970" points="107.6953,-219.1476 117.6952,-215.6475 107.6952,-212.1476 107.6953,-219.1476"/>
</g>
<!-- Node141450 -->
<g id="node3" class="node">
<title>Node141450</title>
<g id="a_node3"><a xlink:href="quickjs_8c.html#addb72dbb3fd476d2b5b0e7f7a0817ce3" target="_top" xlink:title="gc_decref_mark">
<polygon fill="none" stroke="#000000" points="222,-410.1475 222,-429.1475 308,-429.1475 308,-410.1475 222,-410.1475"/>
<text text-anchor="middle" x="265" y="-417.1475" font-family="Helvetica,sans-Serif" font-size="10.00" fill="#000000">gc_decref_mark</text>
</a>
</g>
</g>
<!-- Node141449&#45;&gt;Node141450 -->
<g id="edge2" class="edge">
<title>Node141449&#45;&gt;Node141450</title>
<path fill="none" stroke="#191970" d="M157.3956,-339.2791C178.1423,-354.7746 219.1262,-385.3849 244.0933,-404.0326"/>
<polygon fill="#191970" stroke="#191970" points="242.0907,-406.9053 252.1971,-410.0852 246.2796,-401.2969 242.0907,-406.9053"/>
</g>
<!-- Node141451 -->
<g id="node4" class="node">
<title>Node141451</title>
<g id="a_node4"><a xlink:href="quickjs_8c.html#a42de5f90ee5997d6dc40f631e2ba0e33" target="_top" xlink:title="gc_decref_child">
<polygon fill="none" stroke="#000000" points="358,-434.1475 358,-453.1475 443,-453.1475 443,-434.1475 358,-434.1475"/>
<text text-anchor="middle" x="400.5" y="-441.1475" font-family="Helvetica,sans-Serif" font-size="10.00" fill="#000000">gc_decref_child</text>
</a>
</g>
</g>
<!-- Node141450&#45;&gt;Node141451 -->
<g id="edge3" class="edge">
<title>Node141450&#45;&gt;Node141451</title>
<path fill="none" stroke="#191970" d="M308.2456,-420.966C327.1509,-423.6567 348.9984,-427.6625 366.6857,-431.7256"/>
<polygon fill="#191970" stroke="#191970" points="366.0228,-435.1661 376.5653,-434.115 367.6683,-428.3622 366.0228,-435.1661"/>
</g>
<!-- Node141452 -->
<g id="node5" class="node">
<title>Node141452</title>
<g id="a_node5"><a xlink:href="quickjs_8c.html#a3e45efa5c25304a002f4c0c3e8215fe8" target="_top" xlink:title="mark_children">
<polygon fill="none" stroke="#ff0000" points="493,-301.1475 493,-320.1475 570,-320.1475 570,-301.1475 493,-301.1475"/>
<text text-anchor="middle" x="531.5" y="-308.1475" font-family="Helvetica,sans-Serif" font-size="10.00" fill="#000000">mark_children</text>
</a>
</g>
</g>
<!-- Node141450&#45;&gt;Node141452 -->
<g id="edge5" class="edge">
<title>Node141450&#45;&gt;Node141452</title>
<path fill="none" stroke="#191970" d="M308.2207,-419.7038C348.8022,-418.0824 410.1183,-411.221 457,-386.6475 483.3383,-372.842 506.0057,-346.356 519.2075,-328.5905"/>
<polygon fill="#191970" stroke="#191970" points="522.2349,-330.3747 525.2178,-320.2085 516.5462,-326.2957 522.2349,-330.3747"/>
</g>
<!-- Node141451&#45;&gt;Node141450 -->
<g id="edge4" class="edge">
<title>Node141451&#45;&gt;Node141450</title>
<path fill="none" stroke="#191970" d="M357.9385,-442.4259C338.8188,-439.7268 316.5784,-435.6565 298.6485,-431.5313"/>
<polygon fill="#191970" stroke="#191970" points="299.4556,-428.1256 288.9128,-429.1744 297.8085,-434.9291 299.4556,-428.1256"/>
</g>
<!-- Node141457 -->
<g id="node7" class="node">
<title>Node141457</title>
<g id="a_node7"><a xlink:href="quickjs_8c.html#a445304af312d8f13a51fed8af701ff5c" target="_top" xlink:title="free_object2">
<polygon fill="none" stroke="#000000" points="230,-92.1475 230,-111.1475 300,-111.1475 300,-92.1475 230,-92.1475"/>
<text text-anchor="middle" x="265" y="-99.1475" font-family="Helvetica,sans-Serif" font-size="10.00" fill="#000000">free_object2</text>
</a>
</g>
</g>
<!-- Node141456&#45;&gt;Node141457 -->
<g id="edge7" class="edge">
<title>Node141456&#45;&gt;Node141457</title>
<path fill="none" stroke="#191970" d="M186.3069,-114.0555C197.0215,-112.3661 208.5973,-110.5409 219.4885,-108.8236"/>
<polygon fill="#191970" stroke="#191970" points="220.3376,-112.233 229.6704,-107.2181 219.2472,-105.3185 220.3376,-112.233"/>
</g>
<!-- Node141461 -->
<g id="node9" class="node">
<title>Node141461</title>
<g id="a_node9"><a xlink:href="quickjs_8c.html#a69e19dda8a93d613203e0baa06f0ed8d" target="_top" xlink:title="js_free_rt">
<polygon fill="none" stroke="#000000" points="503,-16.1475 503,-35.1475 560,-35.1475 560,-16.1475 503,-16.1475"/>
<text text-anchor="middle" x="531.5" y="-23.1475" font-family="Helvetica,sans-Serif" font-size="10.00" fill="#000000">js_free_rt</text>
</a>
</g>
</g>
<!-- Node141456&#45;&gt;Node141461 -->
<g id="edge15" class="edge">
<title>Node141456&#45;&gt;Node141461</title>
<path fill="none" stroke="#191970" d="M156.1145,-111.0329C185.3631,-87.524 265.3478,-27.5347 344,-6.6475 394.3647,6.7276 454.6349,-3.8937 492.9914,-13.8302"/>
<polygon fill="#191970" stroke="#191970" points="492.1597,-17.2309 502.7265,-16.46 493.9853,-10.4731 492.1597,-17.2309"/>
</g>
<!-- Node141478 -->
<g id="node13" class="node">
<title>Node141478</title>
<g id="a_node13"><a xlink:href="list_8h.html#a663527a4d757540b2177bef0db1ce5c0" target="_top" xlink:title="init_list_head">
<polygon fill="none" stroke="#000000" points="228,-130.1475 228,-149.1475 302,-149.1475 302,-130.1475 228,-130.1475"/>
<text text-anchor="middle" x="265" y="-137.1475" font-family="Helvetica,sans-Serif" font-size="10.00" fill="#000000">init_list_head</text>
</a>
</g>
</g>
<!-- Node141456&#45;&gt;Node141478 -->
<g id="edge14" class="edge">
<title>Node141456&#45;&gt;Node141478</title>
<path fill="none" stroke="#191970" d="M186.3069,-127.2394C196.4012,-128.8311 207.2599,-130.5432 217.5904,-132.1721"/>
<polygon fill="#191970" stroke="#191970" points="217.2739,-135.6654 227.697,-133.7657 218.3642,-128.7508 217.2739,-135.6654"/>
</g>
<!-- Node141458 -->
<g id="node8" class="node">
<title>Node141458</title>
<g id="a_node8"><a xlink:href="quickjs_8c.html#ad0024a55f68035452880ee86d78d40f3" target="_top" xlink:title="free_object_struct">
<polygon fill="none" stroke="#ff0000" points="353,-16.1475 353,-35.1475 448,-35.1475 448,-16.1475 353,-16.1475"/>
<text text-anchor="middle" x="400.5" y="-23.1475" font-family="Helvetica,sans-Serif" font-size="10.00" fill="#000000">free_object_struct</text>
</a>
</g>
</g>
<!-- Node141457&#45;&gt;Node141458 -->
<g id="edge8" class="edge">
<title>Node141457&#45;&gt;Node141458</title>
<path fill="none" stroke="#191970" d="M277.9678,-92.0569C293.2613,-80.9993 319.6855,-62.6763 344,-49.6475 350.8457,-45.9793 358.3724,-42.4547 365.6376,-39.2891"/>
<polygon fill="#191970" stroke="#191970" points="367.441,-42.3271 375.2942,-35.2153 364.7201,-35.8775 367.441,-42.3271"/>
</g>
<!-- Node141457&#45;&gt;Node141461 -->
<g id="edge10" class="edge">
<title>Node141457&#45;&gt;Node141461</title>
<path fill="none" stroke="#191970" d="M298.4826,-92.099C348.0234,-77.971 440.6143,-51.5661 492.9293,-36.647"/>
<polygon fill="#191970" stroke="#191970" points="494.1739,-39.9317 502.8306,-33.8234 492.2541,-33.2001 494.1739,-39.9317"/>
</g>
<!-- Node141476 -->
<g id="node10" class="node">
<title>Node141476</title>
<g id="a_node10"><a xlink:href="list_8h.html#a3a5d0733570b2fafc18f4c71a2968ea5" target="_top" xlink:title="list_add_tail">
<polygon fill="none" stroke="#000000" points="497.5,-244.1475 497.5,-263.1475 565.5,-263.1475 565.5,-244.1475 497.5,-244.1475"/>
<text text-anchor="middle" x="531.5" y="-251.1475" font-family="Helvetica,sans-Serif" font-size="10.00" fill="#000000">list_add_tail</text>
</a>
</g>
</g>
<!-- Node141457&#45;&gt;Node141476 -->
<g id="edge11" class="edge">
<title>Node141457&#45;&gt;Node141476</title>
<path fill="none" stroke="#191970" d="M287.9811,-111.1779C324.8471,-126.8663 398.9514,-160.061 457,-196.6475 476.8092,-209.1327 497.8676,-225.5738 512.5233,-237.5887"/>
<polygon fill="#191970" stroke="#191970" points="510.4242,-240.395 520.3546,-244.0881 514.8947,-235.0085 510.4242,-240.395"/>
</g>
<!-- Node141467 -->
<g id="node12" class="node">
<title>Node141467</title>
<g id="a_node12"><a xlink:href="list_8h.html#ab60d5d18869ebeb5d6ab694289576fa7" target="_top" xlink:title="list_del">
<polygon fill="none" stroke="#000000" points="508,-168.1475 508,-187.1475 555,-187.1475 555,-168.1475 508,-168.1475"/>
<text text-anchor="middle" x="531.5" y="-175.1475" font-family="Helvetica,sans-Serif" font-size="10.00" fill="#000000">list_del</text>
</a>
</g>
</g>
<!-- Node141457&#45;&gt;Node141467 -->
<g id="edge13" class="edge">
<title>Node141457&#45;&gt;Node141467</title>
<path fill="none" stroke="#191970" d="M300.2052,-101.0442C339.6696,-101.4923 404.9468,-105.6455 457,-125.6475 478.2156,-133.7998 499.1511,-149.2493 513.4003,-161.1986"/>
<polygon fill="#191970" stroke="#191970" points="511.5021,-164.185 521.3511,-168.0898 516.0868,-158.8954 511.5021,-164.185"/>
</g>
<!-- Node141458&#45;&gt;Node141461 -->
<g id="edge9" class="edge">
<title>Node141458&#45;&gt;Node141461</title>
<path fill="none" stroke="#191970" d="M448.1646,-25.6475C462.7387,-25.6475 478.5881,-25.6475 492.5139,-25.6475"/>
<polygon fill="#191970" stroke="#191970" points="492.7351,-29.1476 502.735,-25.6475 492.735,-22.1476 492.7351,-29.1476"/>
</g>
<!-- Node141477 -->
<g id="node11" class="node">
<title>Node141477</title>
<g id="a_node11"><a xlink:href="list_8h.html#a16286d5bff74a27aec51a3134ffc7b43" target="_top" xlink:title="__list_add">
<polygon fill="none" stroke="#000000" points="606,-296.1475 606,-315.1475 667,-315.1475 667,-296.1475 606,-296.1475"/>
<text text-anchor="middle" x="636.5" y="-303.1475" font-family="Helvetica,sans-Serif" font-size="10.00" fill="#000000">__list_add</text>
</a>
</g>
</g>
<!-- Node141476&#45;&gt;Node141477 -->
<g id="edge12" class="edge">
<title>Node141476&#45;&gt;Node141477</title>
<path fill="none" stroke="#191970" d="M550.7586,-263.1851C566.791,-271.1249 589.8492,-282.5442 608.0165,-291.5414"/>
<polygon fill="#191970" stroke="#191970" points="606.4933,-294.6927 617.0079,-295.9943 609.5999,-288.4198 606.4933,-294.6927"/>
</g>
<!-- Node141479&#45;&gt;Node141467 -->
<g id="edge31" class="edge">
<title>Node141479&#45;&gt;Node141467</title>
<path fill="none" stroke="#191970" d="M171.1632,-207.8581C186.0014,-203.841 204.8801,-199.2501 222,-196.6475 321.2497,-181.5594 440.1337,-178.371 497.3822,-177.752"/>
<polygon fill="#191970" stroke="#191970" points="497.6924,-181.2495 507.6613,-177.6618 497.6309,-174.2497 497.6924,-181.2495"/>
</g>
<!-- Node141479&#45;&gt;Node141478 -->
<g id="edge28" class="edge">
<title>Node141479&#45;&gt;Node141478</title>
<path fill="none" stroke="#191970" d="M157.999,-206.0984C173.2909,-195.3973 199.0701,-177.7066 222,-163.6475 227.1361,-160.4984 232.7028,-157.2644 238.0739,-154.231"/>
<polygon fill="#191970" stroke="#191970" points="239.7813,-157.2863 246.8177,-149.3655 236.3776,-151.1695 239.7813,-157.2863"/>
</g>
<!-- Node141480 -->
<g id="node15" class="node">
<title>Node141480</title>
<g id="a_node15"><a xlink:href="quickjs_8c.html#a116f2b63a89379ccf1c92168338f0f80" target="_top" xlink:title="gc_scan_obj">
<polygon fill="none" stroke="#000000" points="229.5,-244.1475 229.5,-263.1475 300.5,-263.1475 300.5,-244.1475 229.5,-244.1475"/>
<text text-anchor="middle" x="265" y="-251.1475" font-family="Helvetica,sans-Serif" font-size="10.00" fill="#000000">gc_scan_obj</text>
</a>
</g>
</g>
<!-- Node141479&#45;&gt;Node141480 -->
<g id="edge17" class="edge">
<title>Node141479&#45;&gt;Node141480</title>
<path fill="none" stroke="#191970" d="M171.2429,-224.0809C186.8923,-229.016 206.964,-235.3457 224.518,-240.8814"/>
<polygon fill="#191970" stroke="#191970" points="223.9204,-244.3628 234.51,-244.0324 226.0257,-237.6868 223.9204,-244.3628"/>
</g>
<!-- Node141484 -->
<g id="node17" class="node">
<title>Node141484</title>
<g id="a_node17"><a xlink:href="quickjs_8c.html#a005228ed4bbf7b09b0db1467310b49e3" target="_top" xlink:title="gc_scan_obj2">
<polygon fill="none" stroke="#000000" points="226.5,-206.1475 226.5,-225.1475 303.5,-225.1475 303.5,-206.1475 226.5,-206.1475"/>
<text text-anchor="middle" x="265" y="-213.1475" font-family="Helvetica,sans-Serif" font-size="10.00" fill="#000000">gc_scan_obj2</text>
</a>
</g>
</g>
<!-- Node141479&#45;&gt;Node141484 -->
<g id="edge24" class="edge">
<title>Node141479&#45;&gt;Node141484</title>
<path fill="none" stroke="#191970" d="M171.2429,-215.6475C184.4255,-215.6475 200.746,-215.6475 216.0562,-215.6475"/>
<polygon fill="#191970" stroke="#191970" points="216.4433,-219.1476 226.4433,-215.6475 216.4432,-212.1476 216.4433,-219.1476"/>
</g>
<!-- Node141486 -->
<g id="node19" class="node">
<title>Node141486</title>
<g id="a_node19"><a xlink:href="list_8h.html#af52c94b2e3212cc6f081c57082bd4422" target="_top" xlink:title="list_add">
<polygon fill="none" stroke="#000000" points="375.5,-358.1475 375.5,-377.1475 425.5,-377.1475 425.5,-358.1475 375.5,-358.1475"/>
<text text-anchor="middle" x="400.5" y="-365.1475" font-family="Helvetica,sans-Serif" font-size="10.00" fill="#000000">list_add</text>
</a>
</g>
</g>
<!-- Node141479&#45;&gt;Node141486 -->
<g id="edge29" class="edge">
<title>Node141479&#45;&gt;Node141486</title>
<path fill="none" stroke="#191970" d="M152.6409,-225.5724C165.8405,-241.1508 193.337,-271.5335 222,-290.6475 267.9425,-321.2843 328.0734,-344.2128 365.4894,-356.7715"/>
<polygon fill="#191970" stroke="#191970" points="364.8167,-360.2347 375.4096,-360.0365 367.0051,-353.5856 364.8167,-360.2347"/>
</g>
<!-- Node141480&#45;&gt;Node141452 -->
<g id="edge23" class="edge">
<title>Node141480&#45;&gt;Node141452</title>
<path fill="none" stroke="#191970" d="M275.2455,-263.1705C289.4287,-275.6559 316.4297,-296.9859 344,-305.6475 389.2929,-319.8768 443.8096,-319.5205 482.354,-316.5767"/>
<polygon fill="#191970" stroke="#191970" points="483.1146,-320.0246 492.7811,-315.6877 482.5199,-313.0499 483.1146,-320.0246"/>
</g>
<!-- Node141480&#45;&gt;Node141480 -->
<g id="edge22" class="edge">
<title>Node141480&#45;&gt;Node141480</title>
<path fill="none" stroke="#191970" d="M246.5045,-263.4046C237.5067,-272.2128 243.6719,-281.6475 265,-281.6475 278.6633,-281.6475 286.1038,-277.7755 287.3213,-272.6767"/>
<polygon fill="#191970" stroke="#191970" points="290.5452,-271.3136 283.4955,-263.4046 284.0744,-273.9836 290.5452,-271.3136"/>
</g>
<!-- Node141481 -->
<g id="node16" class="node">
<title>Node141481</title>
<g id="a_node16"><a xlink:href="quickjs_8c.html#a49a3423e82488411a47d02debf679259" target="_top" xlink:title="gc_scan_incref">
<polygon fill="none" stroke="#ff0000" points="359,-244.1475 359,-263.1475 442,-263.1475 442,-244.1475 359,-244.1475"/>
<text text-anchor="middle" x="400.5" y="-251.1475" font-family="Helvetica,sans-Serif" font-size="10.00" fill="#000000">gc_scan_incref</text>
</a>
</g>
</g>
<!-- Node141480&#45;&gt;Node141481 -->
<g id="edge18" class="edge">
<title>Node141480&#45;&gt;Node141481</title>
<path fill="none" stroke="#191970" d="M300.601,-253.6475C315.2663,-253.6475 332.5478,-253.6475 348.5773,-253.6475"/>
<polygon fill="#191970" stroke="#191970" points="348.8901,-257.1476 358.8901,-253.6475 348.89,-250.1476 348.8901,-257.1476"/>
</g>
<!-- Node141481&#45;&gt;Node141452 -->
<g id="edge21" class="edge">
<title>Node141481&#45;&gt;Node141452</title>
<path fill="none" stroke="#191970" d="M423.3514,-263.2606C433.649,-267.6167 445.9521,-272.8545 457,-277.6475 471.4111,-283.8995 487.3379,-290.9369 500.7538,-296.902"/>
<polygon fill="#191970" stroke="#191970" points="499.4623,-300.1582 510.0213,-301.0294 502.3102,-293.7637 499.4623,-300.1582"/>
</g>
<!-- Node141481&#45;&gt;Node141476 -->
<g id="edge19" class="edge">
<title>Node141481&#45;&gt;Node141476</title>
<path fill="none" stroke="#191970" d="M442.3094,-253.6475C456.5294,-253.6475 472.4711,-253.6475 486.9009,-253.6475"/>
<polygon fill="#191970" stroke="#191970" points="487.0947,-257.1476 497.0947,-253.6475 487.0946,-250.1476 487.0947,-257.1476"/>
</g>
<!-- Node141481&#45;&gt;Node141467 -->
<g id="edge20" class="edge">
<title>Node141481&#45;&gt;Node141467</title>
<path fill="none" stroke="#191970" d="M435.016,-244.0495C442.4602,-241.4315 450.1471,-238.2917 457,-234.6475 477.9144,-223.5256 499.1131,-206.6411 513.5213,-194.1328"/>
<polygon fill="#191970" stroke="#191970" points="516.0086,-196.605 521.1665,-187.3504 511.3632,-191.3686 516.0086,-196.605"/>
</g>
<!-- Node141484&#45;&gt;Node141452 -->
<g id="edge27" class="edge">
<title>Node141484&#45;&gt;Node141452</title>
<path fill="none" stroke="#191970" d="M291.3627,-225.3159C297.0819,-227.9457 302.931,-231.0726 308,-234.6475 327.012,-248.0557 323.6529,-261.3678 344,-272.6475 367.3419,-285.5874 435.2691,-297.2563 482.6046,-304.1504"/>
<polygon fill="#191970" stroke="#191970" points="482.2712,-307.6383 492.666,-305.5895 483.2624,-300.7088 482.2712,-307.6383"/>
</g>
<!-- Node141485 -->
<g id="node18" class="node">
<title>Node141485</title>
<g id="a_node18"><a xlink:href="quickjs_8c.html#acece6e56d760a5ddf169021d2d508a49" target="_top" xlink:title="gc_scan_incref_child2">
<polygon fill="none" stroke="#000000" points="344,-206.1475 344,-225.1475 457,-225.1475 457,-206.1475 344,-206.1475"/>
<text text-anchor="middle" x="400.5" y="-213.1475" font-family="Helvetica,sans-Serif" font-size="10.00" fill="#000000">gc_scan_incref_child2</text>
</a>
</g>
</g>
<!-- Node141484&#45;&gt;Node141485 -->
<g id="edge25" class="edge">
<title>Node141484&#45;&gt;Node141485</title>
<path fill="none" stroke="#191970" d="M303.8289,-209.4768C313.2132,-209.0773 323.509,-208.8844 333.7734,-208.8982"/>
<polygon fill="#191970" stroke="#191970" points="333.9645,-212.3997 343.9925,-208.9808 334.0211,-205.4 333.9645,-212.3997"/>
</g>
<!-- Node141485&#45;&gt;Node141484 -->
<g id="edge26" class="edge">
<title>Node141485&#45;&gt;Node141484</title>
<path fill="none" stroke="#191970" d="M343.9925,-222.3142C334.0649,-222.4625 323.806,-222.4127 314.1008,-222.1649"/>
<polygon fill="#191970" stroke="#191970" points="313.9413,-218.6576 303.8289,-221.8181 313.7051,-225.6536 313.9413,-218.6576"/>
</g>
<!-- Node141486&#45;&gt;Node141477 -->
<g id="edge30" class="edge">
<title>Node141486&#45;&gt;Node141477</title>
<path fill="none" stroke="#191970" d="M425.7369,-363.0205C459.0743,-356.6745 519.475,-344.365 570,-329.6475 580.8056,-326.4999 592.4021,-322.5281 602.8366,-318.7262"/>
<polygon fill="#191970" stroke="#191970" points="604.2658,-321.9291 612.421,-315.1657 601.8281,-315.3672 604.2658,-321.9291"/>
</g>
</g>
</svg>
        <g id="navigator" transform="translate(0 0)" fill="#404254">
                <rect fill="#f2f5e9" fill-opacity="0.5" stroke="#606060" stroke-width=".5" x="0" y="0" width="60" height="60"/>
                <use id="zoomplus" xlink:href="#zoomPlus" x="17" y="9" onmousedown="handleZoom(evt,'in')"/>
                <use id="zoomminus" xlink:href="#zoomMin" x="42" y="9" onmousedown="handleZoom(evt,'out')"/>
                <use id="reset" xlink:href="#resetDef" x="30" y="36" onmousedown="handleReset()"/>
                <g id="arrowUp" xlink:href="#dirArrow" transform="translate(30 24)" onmousedown="handlePan(0,-1)">
                  <use xlink:href="#rim" fill="#404040">
                        <set attributeName="fill" to="#808080" begin="arrowUp.mouseover" end="arrowUp.mouseout"/>
                  </use>
                  <path fill="none" stroke="white" stroke-width="1.5" d="M0,-3.0v7 M-2.5,-0.5L0,-3.0L2.5,-0.5"/>
                </g>
                <g id="arrowRight" xlink:href="#dirArrow" transform="rotate(90) translate(36 -43)" onmousedown="handlePan(1,0)">
                  <use xlink:href="#rim" fill="#404040">
                        <set attributeName="fill" to="#808080" begin="arrowRight.mouseover" end="arrowRight.mouseout"/>
                  </use>
                  <path fill="none" stroke="white" stroke-width="1.5" d="M0,-3.0v7 M-2.5,-0.5L0,-3.0L2.5,-0.5"/>
                </g>
                <g id="arrowDown" xlink:href="#dirArrow" transform="rotate(180) translate(-30 -48)" onmousedown="handlePan(0,1)">
                  <use xlink:href="#rim" fill="#404040">
                        <set attributeName="fill" to="#808080" begin="arrowDown.mouseover" end="arrowDown.mouseout"/>
                  </use>
                  <path fill="none" stroke="white" stroke-width="1.5" d="M0,-3.0v7 M-2.5,-0.5L0,-3.0L2.5,-0.5"/>
                </g>
                <g id="arrowLeft" xlink:href="#dirArrow" transform="rotate(270) translate(-36 17)" onmousedown="handlePan(-1,0)">
                  <use xlink:href="#rim" fill="#404040">
                        <set attributeName="fill" to="#808080" begin="arrowLeft.mouseover" end="arrowLeft.mouseout"/>
                  </use>
                  <path fill="none" stroke="white" stroke-width="1.5" d="M0,-3.0v7 M-2.5,-0.5L0,-3.0L2.5,-0.5"/>
                </g>
        </g>
        <svg viewBox="0 0 15 15" width="100%" height="30px" preserveAspectRatio="xMaxYMin meet">
         <g id="arrow_out" transform="scale(0.3 0.3)">
          <a xlink:href="quickjs_8c_aeeea589ee4cec4bbc3145210f4cf6e42_cgraph_org.svg" target="_base">
           <rect id="button" ry="5" rx="5" y="6" x="6" height="38" width="38"
                fill="#f2f5e9" fill-opacity="0.5" stroke="#606060" stroke-width="1.0"/>
           <path id="arrow"
             d="M 11.500037,31.436501 C 11.940474,20.09759 22.043105,11.32322 32.158766,21.979434 L 37.068811,17.246167 C 37.068811,17.246167 37.088388,32 37.088388,32 L 22.160133,31.978069 C 22.160133,31.978069 26.997745,27.140456 26.997745,27.140456 C 18.528582,18.264221 13.291696,25.230495 11.500037,31.436501 z"
             style="fill:#404040;"/>
          </a>
         </g>
        </svg>
</svg>
