<?xml version="1.0" encoding="UTF-8" standalone="no"?>
<!DOCTYPE svg PUBLIC "-//W3C//DTD SVG 1.1//EN"
 "http://www.w3.org/Graphics/SVG/1.1/DTD/svg11.dtd">
<!-- Generated by graphviz version 2.40.1 (20161225.0304)
 -->
<!-- Title: js_std_init Pages: 1 -->
<!--zoomable 614 -->
<svg id="main" version="1.1" xmlns="http://www.w3.org/2000/svg" xmlns:xlink="http://www.w3.org/1999/xlink" xml:space="preserve" onload="init(evt)">
<style type="text/css"><![CDATA[
.edge:hover path { stroke: red; }
.edge:hover polygon { stroke: red; fill: red; }
]]></style>
<script type="text/javascript"><![CDATA[
var edges = document.getElementsByTagName('g');
if (edges && edges.length) {
  for (var i=0;i<edges.length;i++) {
    if (edges[i].id.substr(0,4)=='edge') {
      edges[i].setAttribute('class','edge');
    }
  }
}
]]></script>
        <defs>
                <circle id="rim" cx="0" cy="0" r="7"/>
                <circle id="rim2" cx="0" cy="0" r="3.5"/>
                <g id="zoomPlus">
                        <use xlink:href="#rim" fill="#404040">
                                <set attributeName="fill" to="#808080" begin="zoomplus.mouseover" end="zoomplus.mouseout"/>
                        </use>
                        <path d="M-4,0h8M0,-4v8" fill="none" stroke="white" stroke-width="1.5" pointer-events="none"/>
                </g>
                <g id="zoomMin">
                        <use xlink:href="#rim" fill="#404040">
                                <set attributeName="fill" to="#808080" begin="zoomminus.mouseover" end="zoomminus.mouseout"/>
                        </use>
                        <path d="M-4,0h8" fill="none" stroke="white" stroke-width="1.5" pointer-events="none"/>
                </g>
                <g id="dirArrow">
                        <path fill="none" stroke="white" stroke-width="1.5" d="M0,-3.0v7 M-2.5,-0.5L0,-3.0L2.5,-0.5"/>
                </g>
               <g id="resetDef">
                       <use xlink:href="#rim2" fill="#404040">
                               <set attributeName="fill" to="#808080" begin="reset.mouseover" end="reset.mouseout"/>
                       </use>
               </g>
        </defs>

<script type="text/javascript">
var viewWidth = 670;
var viewHeight = 614;
var sectionId = 'dynsection-56';
</script>
<script xlink:href="svgpan.js"/>
<svg id="graph" class="graph">
<g id="viewport">
<title>js_std_init</title>
<!-- Node14233 -->
<g id="node1" class="node">
<title>Node14233</title>
<polygon fill="#bfbfbf" stroke="#000000" points="0,-293.8082 0,-312.8082 61,-312.8082 61,-293.8082 0,-293.8082"/>
<text text-anchor="middle" x="30.5" y="-300.8082" font-family="Helvetica,sans-Serif" font-size="10.00" fill="#000000">js_std_init</text>
</g>
<!-- Node14234 -->
<g id="node2" class="node">
<title>Node14234</title>
<g id="a_node2"><a xlink:href="quickjs_8c.html#af1866c7f8a91153f11602a2b521d9399" target="_top" xlink:title="JS_GetRuntime">
<polygon fill="none" stroke="#000000" points="123.5,-530.8082 123.5,-549.8082 209.5,-549.8082 209.5,-530.8082 123.5,-530.8082"/>
<text text-anchor="middle" x="166.5" y="-537.8082" font-family="Helvetica,sans-Serif" font-size="10.00" fill="#000000">JS_GetRuntime</text>
</a>
</g>
</g>
<!-- Node14233&#45;&gt;Node14234 -->
<g id="edge1" class="edge">
<title>Node14233&#45;&gt;Node14234</title>
<path fill="none" stroke="#191970" d="M32.1763,-312.9685C38.9852,-351.1476 65.7053,-490.9148 97,-521.3082 101.711,-525.8835 107.4127,-529.3813 113.5006,-532.0511"/>
<polygon fill="#191970" stroke="#191970" points="112.7042,-535.4852 123.2985,-535.6009 115.0887,-528.9038 112.7042,-535.4852"/>
</g>
<!-- Node14235 -->
<g id="node3" class="node">
<title>Node14235</title>
<g id="a_node3"><a xlink:href="quickjs-libc_8c.html#a4f611dfcb682754b3f25bb3e06f61ab5" target="_top" xlink:title="js_new_std_file">
<polygon fill="none" stroke="#000000" points="124.5,-454.8082 124.5,-473.8082 208.5,-473.8082 208.5,-454.8082 124.5,-454.8082"/>
<text text-anchor="middle" x="166.5" y="-461.8082" font-family="Helvetica,sans-Serif" font-size="10.00" fill="#000000">js_new_std_file</text>
</a>
</g>
</g>
<!-- Node14233&#45;&gt;Node14235 -->
<g id="edge2" class="edge">
<title>Node14233&#45;&gt;Node14235</title>
<path fill="none" stroke="#191970" d="M33.6232,-313.1121C41.2146,-335.6223 62.5794,-391.7248 97,-426.3082 106.798,-436.1526 119.6828,-444.144 131.6936,-450.2122"/>
<polygon fill="#191970" stroke="#191970" points="130.5287,-453.5338 141.063,-454.6652 133.5335,-447.2115 130.5287,-453.5338"/>
</g>
<!-- Node14311 -->
<g id="node9" class="node">
<title>Node14311</title>
<g id="a_node9"><a xlink:href="quickjs_8c.html#a76d4772691a319f48dc636a0e7f6c1ed" target="_top" xlink:title="JS_NewCFunction2">
<polygon fill="none" stroke="#000000" points="114.5,-397.8082 114.5,-416.8082 218.5,-416.8082 218.5,-397.8082 114.5,-397.8082"/>
<text text-anchor="middle" x="166.5" y="-404.8082" font-family="Helvetica,sans-Serif" font-size="10.00" fill="#000000">JS_NewCFunction2</text>
</a>
</g>
</g>
<!-- Node14233&#45;&gt;Node14311 -->
<g id="edge8" class="edge">
<title>Node14233&#45;&gt;Node14311</title>
<path fill="none" stroke="#191970" d="M41.0135,-312.9765C53.8656,-324.6392 76.4467,-344.6309 97,-360.3082 111.6795,-371.5052 128.8602,-383.1362 142.4667,-392.0266"/>
<polygon fill="#191970" stroke="#191970" points="140.9439,-395.21 151.2409,-397.7046 144.747,-389.3332 140.9439,-395.21"/>
</g>
<!-- Node14655 -->
<g id="node13" class="node">
<title>Node14655</title>
<g id="a_node13"><a xlink:href="quickjs_8c.html#a9f0339d81c06451de278073572cc194e" target="_top" xlink:title="JS_NewClass">
<polygon fill="none" stroke="#000000" points="126.5,-293.8082 126.5,-312.8082 206.5,-312.8082 206.5,-293.8082 126.5,-293.8082"/>
<text text-anchor="middle" x="166.5" y="-300.8082" font-family="Helvetica,sans-Serif" font-size="10.00" fill="#000000">JS_NewClass</text>
</a>
</g>
</g>
<!-- Node14233&#45;&gt;Node14655 -->
<g id="edge14" class="edge">
<title>Node14233&#45;&gt;Node14655</title>
<path fill="none" stroke="#191970" d="M61.0211,-303.3082C77.2763,-303.3082 97.687,-303.3082 116.2124,-303.3082"/>
<polygon fill="#191970" stroke="#191970" points="116.2719,-306.8083 126.2719,-303.3082 116.2719,-299.8083 116.2719,-306.8083"/>
</g>
<!-- Node14659 -->
<g id="node18" class="node">
<title>Node14659</title>
<g id="a_node18"><a xlink:href="quickjs_8c.html#a4f56d0a794368a8861c89819fc79cdb5" target="_top" xlink:title="JS_NewClassID">
<polygon fill="none" stroke="#000000" points="121.5,-331.8082 121.5,-350.8082 211.5,-350.8082 211.5,-331.8082 121.5,-331.8082"/>
<text text-anchor="middle" x="166.5" y="-338.8082" font-family="Helvetica,sans-Serif" font-size="10.00" fill="#000000">JS_NewClassID</text>
</a>
</g>
</g>
<!-- Node14233&#45;&gt;Node14659 -->
<g id="edge19" class="edge">
<title>Node14233&#45;&gt;Node14659</title>
<path fill="none" stroke="#191970" d="M61.2697,-312.1789C72.5059,-315.3972 85.3205,-319.0434 97,-322.3082 104.8794,-324.5108 113.2693,-326.8282 121.3945,-329.0579"/>
<polygon fill="#191970" stroke="#191970" points="120.5527,-332.4562 131.122,-331.7205 122.4009,-325.7045 120.5527,-332.4562"/>
</g>
<!-- Node14407 -->
<g id="node19" class="node">
<title>Node14407</title>
<g id="a_node19"><a xlink:href="quickjs_8c.html#afc0d8ea75588216ec132a6e1655524a7" target="_top" xlink:title="JS_NewObject">
<polygon fill="none" stroke="#000000" points="125,-492.8082 125,-511.8082 208,-511.8082 208,-492.8082 125,-492.8082"/>
<text text-anchor="middle" x="166.5" y="-499.8082" font-family="Helvetica,sans-Serif" font-size="10.00" fill="#000000">JS_NewObject</text>
</a>
</g>
</g>
<!-- Node14233&#45;&gt;Node14407 -->
<g id="edge20" class="edge">
<title>Node14233&#45;&gt;Node14407</title>
<path fill="none" stroke="#191970" d="M31.1039,-313.2034C33.4973,-343.4618 44.9342,-435.5874 97,-483.3082 102.1424,-488.0215 108.3423,-491.5829 114.895,-494.2706"/>
<polygon fill="#191970" stroke="#191970" points="114.0712,-497.688 124.6658,-497.6158 116.3385,-491.0653 114.0712,-497.688"/>
</g>
<!-- Node14660 -->
<g id="node20" class="node">
<title>Node14660</title>
<g id="a_node20"><a xlink:href="quickjs_8c.html#a742ee8af627e4502758e503d152b0cd0" target="_top" xlink:title="JS_SetClassProto">
<polygon fill="none" stroke="#000000" points="117.5,-141.8082 117.5,-160.8082 215.5,-160.8082 215.5,-141.8082 117.5,-141.8082"/>
<text text-anchor="middle" x="166.5" y="-148.8082" font-family="Helvetica,sans-Serif" font-size="10.00" fill="#000000">JS_SetClassProto</text>
</a>
</g>
</g>
<!-- Node14233&#45;&gt;Node14660 -->
<g id="edge22" class="edge">
<title>Node14233&#45;&gt;Node14660</title>
<path fill="none" stroke="#191970" d="M32.8298,-293.7417C39.061,-270.1501 58.3272,-208.6883 97,-175.3082 101.8196,-171.1482 107.3992,-167.6982 113.2598,-164.8395"/>
<polygon fill="#191970" stroke="#191970" points="114.8229,-167.9774 122.6316,-160.8167 112.0618,-161.5449 114.8229,-167.9774"/>
</g>
<!-- Node14661 -->
<g id="node22" class="node">
<title>Node14661</title>
<g id="a_node22"><a xlink:href="quickjs_8c.html#acc3990661d2851b858601061a62cc7d6" target="_top" xlink:title="JS_SetModuleExport">
<polygon fill="none" stroke="#000000" points="272,-179.8082 272,-198.8082 381,-198.8082 381,-179.8082 272,-179.8082"/>
<text text-anchor="middle" x="326.5" y="-186.8082" font-family="Helvetica,sans-Serif" font-size="10.00" fill="#000000">JS_SetModuleExport</text>
</a>
</g>
</g>
<!-- Node14233&#45;&gt;Node14661 -->
<g id="edge25" class="edge">
<title>Node14233&#45;&gt;Node14661</title>
<path fill="none" stroke="#191970" d="M35.8316,-293.7282C45.5994,-277.1701 68.0487,-243.4275 97,-227.3082 147.5667,-199.1541 213.4374,-190.6129 261.6321,-188.5489"/>
<polygon fill="#191970" stroke="#191970" points="261.7635,-192.0466 271.6362,-188.2021 261.5209,-185.0508 261.7635,-192.0466"/>
</g>
<!-- Node14662 -->
<g id="node24" class="node">
<title>Node14662</title>
<g id="a_node24"><a xlink:href="quickjs_8c.html#a04f1ec3f8d1f5c012280eb23e64a7b58" target="_top" xlink:title="JS_SetModuleExportList">
<polygon fill="none" stroke="#000000" points="104,-103.8082 104,-122.8082 229,-122.8082 229,-103.8082 104,-103.8082"/>
<text text-anchor="middle" x="166.5" y="-110.8082" font-family="Helvetica,sans-Serif" font-size="10.00" fill="#000000">JS_SetModuleExportList</text>
</a>
</g>
</g>
<!-- Node14233&#45;&gt;Node14662 -->
<g id="edge31" class="edge">
<title>Node14233&#45;&gt;Node14662</title>
<path fill="none" stroke="#191970" d="M31.3134,-293.485C34.27,-264.2915 47.0683,-177.2981 97,-132.3082 98.7366,-130.7435 100.59,-129.3059 102.534,-127.9854"/>
<polygon fill="#191970" stroke="#191970" points="104.5541,-130.8649 111.5551,-122.9128 101.1231,-124.7633 104.5541,-130.8649"/>
</g>
<!-- Node14663 -->
<g id="node29" class="node">
<title>Node14663</title>
<g id="a_node29"><a xlink:href="quickjs_8c.html#ac00854b7f1f0f8567af964a2f8f2adb0" target="_top" xlink:title="JS_SetPropertyFunctionList">
<polygon fill="none" stroke="#ff0000" points="97,-236.8082 97,-255.8082 236,-255.8082 236,-236.8082 97,-236.8082"/>
<text text-anchor="middle" x="166.5" y="-243.8082" font-family="Helvetica,sans-Serif" font-size="10.00" fill="#000000">JS_SetPropertyFunctionList</text>
</a>
</g>
</g>
<!-- Node14233&#45;&gt;Node14663 -->
<g id="edge39" class="edge">
<title>Node14233&#45;&gt;Node14663</title>
<path fill="none" stroke="#191970" d="M53.2633,-293.7677C75.4262,-284.4789 109.3222,-270.2724 134.2554,-259.8225"/>
<polygon fill="#191970" stroke="#191970" points="135.7926,-262.9733 143.6624,-255.8799 133.0867,-256.5174 135.7926,-262.9733"/>
</g>
<!-- Node14666 -->
<g id="node30" class="node">
<title>Node14666</title>
<g id="a_node30"><a xlink:href="quickjs-libc_8c.html#a2c7d35766a152fe56823e1a89e99e407" target="_top" xlink:title="js_std_error_constructor">
<polygon fill="none" stroke="#ff0000" points="105.5,-65.8082 105.5,-84.8082 227.5,-84.8082 227.5,-65.8082 105.5,-65.8082"/>
<text text-anchor="middle" x="166.5" y="-72.8082" font-family="Helvetica,sans-Serif" font-size="10.00" fill="#000000">js_std_error_constructor</text>
</a>
</g>
</g>
<!-- Node14233&#45;&gt;Node14666 -->
<g id="edge41" class="edge">
<title>Node14233&#45;&gt;Node14666</title>
<path fill="none" stroke="#191970" d="M32.2824,-293.792C39.3885,-256.8165 66.7792,-123.3091 97,-94.3082 98.6499,-92.7249 100.4186,-91.2708 102.2807,-89.9356"/>
<polygon fill="#191970" stroke="#191970" points="104.1316,-92.9073 110.9646,-84.8103 100.5737,-86.879 104.1316,-92.9073"/>
</g>
<!-- Node14236 -->
<g id="node4" class="node">
<title>Node14236</title>
<g id="a_node4"><a xlink:href="quickjs_8h.html#afaa20c47565bc704c6c85f3d77254e7d" target="_top" xlink:title="JS_FreeValue">
<polygon fill="none" stroke="#ff0000" points="584,-217.8082 584,-236.8082 662,-236.8082 662,-217.8082 584,-217.8082"/>
<text text-anchor="middle" x="623" y="-224.8082" font-family="Helvetica,sans-Serif" font-size="10.00" fill="#000000">JS_FreeValue</text>
</a>
</g>
</g>
<!-- Node14235&#45;&gt;Node14236 -->
<g id="edge3" class="edge">
<title>Node14235&#45;&gt;Node14236</title>
<path fill="none" stroke="#191970" d="M208.6697,-469.2833C296.6369,-478.7295 495.8691,-494.974 548,-455.3082 582.2215,-429.2695 610.0118,-297.0209 619.4975,-246.7427"/>
<polygon fill="#191970" stroke="#191970" points="622.9551,-247.2925 621.3305,-236.823 616.0716,-246.0206 622.9551,-247.2925"/>
</g>
<!-- Node14265 -->
<g id="node5" class="node">
<title>Node14265</title>
<g id="a_node5"><a xlink:href="quickjs_8h.html#ad80a83d73e9b7d872b88fbf2943aebe9" target="_top" xlink:title="JS_IsException">
<polygon fill="none" stroke="#000000" points="439.5,-426.8082 439.5,-445.8082 525.5,-445.8082 525.5,-426.8082 439.5,-426.8082"/>
<text text-anchor="middle" x="482.5" y="-433.8082" font-family="Helvetica,sans-Serif" font-size="10.00" fill="#000000">JS_IsException</text>
</a>
</g>
</g>
<!-- Node14235&#45;&gt;Node14265 -->
<g id="edge4" class="edge">
<title>Node14235&#45;&gt;Node14265</title>
<path fill="none" stroke="#191970" d="M208.7893,-460.5611C265.822,-455.5075 367.3814,-446.5086 429.463,-441.0077"/>
<polygon fill="#191970" stroke="#191970" points="429.7977,-444.4919 439.4497,-440.1228 429.1798,-437.5192 429.7977,-444.4919"/>
</g>
<!-- Node14266 -->
<g id="node6" class="node">
<title>Node14266</title>
<g id="a_node6"><a xlink:href="quickjs_8c.html#a659dc0db7e440fd6eb012d613627faa3" target="_top" xlink:title="JS_NewObjectClass">
<polygon fill="none" stroke="#000000" points="272.5,-559.8082 272.5,-578.8082 380.5,-578.8082 380.5,-559.8082 272.5,-559.8082"/>
<text text-anchor="middle" x="326.5" y="-566.8082" font-family="Helvetica,sans-Serif" font-size="10.00" fill="#000000">JS_NewObjectClass</text>
</a>
</g>
</g>
<!-- Node14235&#45;&gt;Node14266 -->
<g id="edge5" class="edge">
<title>Node14235&#45;&gt;Node14266</title>
<path fill="none" stroke="#191970" d="M208.7788,-470.0643C218.4475,-472.8834 228.1706,-477.076 236,-483.3082 262.448,-504.361 246.2894,-528.3609 272,-550.3082 273.9672,-551.9875 276.0918,-553.5213 278.3221,-554.9219"/>
<polygon fill="#191970" stroke="#191970" points="276.862,-558.109 287.3383,-559.6896 280.1343,-551.9209 276.862,-558.109"/>
</g>
<!-- Node14310 -->
<g id="node8" class="node">
<title>Node14310</title>
<g id="a_node8"><a xlink:href="quickjs_8c.html#a0ddf716409e51648f0d59e7521150d19" target="_top" xlink:title="JS_SetOpaque">
<polygon fill="none" stroke="#000000" points="285,-521.8082 285,-540.8082 368,-540.8082 368,-521.8082 285,-521.8082"/>
<text text-anchor="middle" x="326.5" y="-528.8082" font-family="Helvetica,sans-Serif" font-size="10.00" fill="#000000">JS_SetOpaque</text>
</a>
</g>
</g>
<!-- Node14235&#45;&gt;Node14310 -->
<g id="edge7" class="edge">
<title>Node14235&#45;&gt;Node14310</title>
<path fill="none" stroke="#191970" d="M208.796,-473.5392C217.9622,-476.1782 227.4625,-479.4192 236,-483.3082 253.4996,-491.2796 255.1374,-498.0653 272,-507.3082 278.6692,-510.9638 286.0057,-514.5002 293.0754,-517.6841"/>
<polygon fill="#191970" stroke="#191970" points="291.8978,-520.9891 302.4627,-521.7854 294.7003,-514.5745 291.8978,-520.9891"/>
</g>
<!-- Node14267 -->
<g id="node7" class="node">
<title>Node14267</title>
<g id="a_node7"><a xlink:href="quickjs_8c.html#a73738c650f11459db0d7af3dcdf8316b" target="_top" xlink:title="JS_NewObjectProtoClass">
<polygon fill="none" stroke="#ff0000" points="417,-559.8082 417,-578.8082 548,-578.8082 548,-559.8082 417,-559.8082"/>
<text text-anchor="middle" x="482.5" y="-566.8082" font-family="Helvetica,sans-Serif" font-size="10.00" fill="#000000">JS_NewObjectProtoClass</text>
</a>
</g>
</g>
<!-- Node14266&#45;&gt;Node14267 -->
<g id="edge6" class="edge">
<title>Node14266&#45;&gt;Node14267</title>
<path fill="none" stroke="#191970" d="M380.6234,-569.3082C389.0358,-569.3082 397.8582,-569.3082 406.6443,-569.3082"/>
<polygon fill="#191970" stroke="#191970" points="406.915,-572.8083 416.915,-569.3082 406.915,-565.8083 406.915,-572.8083"/>
</g>
<!-- Node14312 -->
<g id="node10" class="node">
<title>Node14312</title>
<g id="a_node10"><a xlink:href="quickjs_8c.html#a21cfe4c4fc9372dc0b95b37667cff0c9" target="_top" xlink:title="JS_NewCFunction3">
<polygon fill="none" stroke="#ff0000" points="274.5,-407.8082 274.5,-426.8082 378.5,-426.8082 378.5,-407.8082 274.5,-407.8082"/>
<text text-anchor="middle" x="326.5" y="-414.8082" font-family="Helvetica,sans-Serif" font-size="10.00" fill="#000000">JS_NewCFunction3</text>
</a>
</g>
</g>
<!-- Node14311&#45;&gt;Node14312 -->
<g id="edge9" class="edge">
<title>Node14311&#45;&gt;Node14312</title>
<path fill="none" stroke="#191970" d="M218.89,-410.5826C233.3297,-411.4851 249.1373,-412.473 264.0834,-413.4072"/>
<polygon fill="#191970" stroke="#191970" points="264.0668,-416.9129 274.2657,-414.0436 264.5035,-409.9265 264.0668,-416.9129"/>
</g>
<!-- Node14312&#45;&gt;Node14265 -->
<g id="edge11" class="edge">
<title>Node14312&#45;&gt;Node14265</title>
<path fill="none" stroke="#191970" d="M378.8797,-423.6878C394.9991,-425.6511 412.7607,-427.8143 428.9571,-429.787"/>
<polygon fill="#191970" stroke="#191970" points="428.9916,-433.3169 439.3414,-431.0517 429.8379,-426.3683 428.9916,-433.3169"/>
</g>
<!-- Node14312&#45;&gt;Node14267 -->
<g id="edge10" class="edge">
<title>Node14312&#45;&gt;Node14267</title>
<path fill="none" stroke="#191970" d="M336.2585,-426.8165C362.0853,-451.981 432.4825,-520.5732 465.2698,-552.5198"/>
<polygon fill="#191970" stroke="#191970" points="463.1403,-555.3317 472.7452,-559.8035 468.0254,-550.318 463.1403,-555.3317"/>
</g>
<!-- Node14313 -->
<g id="node11" class="node">
<title>Node14313</title>
<g id="a_node11"><a xlink:href="quickjs_8c.html#aa2ef5af1544a3012f91a80c98c326b8f" target="_top" xlink:title="JS_NewAtom">
<polygon fill="none" stroke="#ff0000" points="444,-331.8082 444,-350.8082 521,-350.8082 521,-331.8082 444,-331.8082"/>
<text text-anchor="middle" x="482.5" y="-338.8082" font-family="Helvetica,sans-Serif" font-size="10.00" fill="#000000">JS_NewAtom</text>
</a>
</g>
</g>
<!-- Node14312&#45;&gt;Node14313 -->
<g id="edge12" class="edge">
<title>Node14312&#45;&gt;Node14313</title>
<path fill="none" stroke="#191970" d="M356.8559,-407.7878C364.8213,-405.0026 373.3268,-401.7678 381,-398.3082 408.6404,-385.8463 438.7428,-368.415 458.929,-356.1185"/>
<polygon fill="#191970" stroke="#191970" points="460.7803,-359.0889 467.4616,-350.8663 457.1109,-353.1277 460.7803,-359.0889"/>
</g>
<!-- Node14419 -->
<g id="node12" class="node">
<title>Node14419</title>
<g id="a_node12"><a xlink:href="quickjs_8c.html#ab7fc45a99935a1c0ba50b0216d9401a9" target="_top" xlink:title="JS_FreeAtom">
<polygon fill="none" stroke="#ff0000" points="444,-255.8082 444,-274.8082 521,-274.8082 521,-255.8082 444,-255.8082"/>
<text text-anchor="middle" x="482.5" y="-262.8082" font-family="Helvetica,sans-Serif" font-size="10.00" fill="#000000">JS_FreeAtom</text>
</a>
</g>
</g>
<!-- Node14312&#45;&gt;Node14419 -->
<g id="edge13" class="edge">
<title>Node14312&#45;&gt;Node14419</title>
<path fill="none" stroke="#191970" d="M366.1164,-407.7626C371.5149,-405.2917 376.6767,-402.1923 381,-398.3082 408.8031,-373.3297 394.4247,-352.0957 417,-322.3082 429.2151,-306.1907 446.6156,-291.3122 460.4122,-280.8004"/>
<polygon fill="#191970" stroke="#191970" points="462.5008,-283.6089 468.4581,-274.8476 458.3374,-277.9816 462.5008,-283.6089"/>
</g>
<!-- Node14316 -->
<g id="node14" class="node">
<title>Node14316</title>
<g id="a_node14"><a xlink:href="quickjs_8c.html#ac8c91ebeea0cf07e3079c49a16de739f" target="_top" xlink:title="__JS_FindAtom">
<polygon fill="none" stroke="#ff0000" points="283.5,-255.8082 283.5,-274.8082 369.5,-274.8082 369.5,-255.8082 283.5,-255.8082"/>
<text text-anchor="middle" x="326.5" y="-262.8082" font-family="Helvetica,sans-Serif" font-size="10.00" fill="#000000">__JS_FindAtom</text>
</a>
</g>
</g>
<!-- Node14655&#45;&gt;Node14316 -->
<g id="edge15" class="edge">
<title>Node14655&#45;&gt;Node14316</title>
<path fill="none" stroke="#191970" d="M206.8748,-293.7192C227.9885,-288.7047 254.0287,-282.5201 276.4169,-277.203"/>
<polygon fill="#191970" stroke="#191970" points="277.495,-280.5443 286.4156,-274.8283 275.8774,-273.7338 277.495,-280.5443"/>
</g>
<!-- Node14656 -->
<g id="node15" class="node">
<title>Node14656</title>
<g id="a_node15"><a xlink:href="quickjs_8c.html#a128673f932e71b867730af75a44e3f97" target="_top" xlink:title="__JS_NewAtomInit">
<polygon fill="none" stroke="#ff0000" points="276,-369.8082 276,-388.8082 377,-388.8082 377,-369.8082 276,-369.8082"/>
<text text-anchor="middle" x="326.5" y="-376.8082" font-family="Helvetica,sans-Serif" font-size="10.00" fill="#000000">__JS_NewAtomInit</text>
</a>
</g>
</g>
<!-- Node14655&#45;&gt;Node14656 -->
<g id="edge16" class="edge">
<title>Node14655&#45;&gt;Node14656</title>
<path fill="none" stroke="#191970" d="M206.6174,-310.3029C216.6561,-313.1008 227.0931,-316.9735 236,-322.3082 255.9584,-334.2621 252.4632,-347.677 272,-360.3082 275.0845,-362.3025 278.4031,-364.1152 281.8256,-365.7574"/>
<polygon fill="#191970" stroke="#191970" points="280.4682,-368.9836 291.0378,-369.7141 283.2307,-362.5517 280.4682,-368.9836"/>
</g>
<!-- Node14657 -->
<g id="node16" class="node">
<title>Node14657</title>
<g id="a_node16"><a xlink:href="quickjs_8c.html#ab515cd66efd3e476d2c22d6a55f13194" target="_top" xlink:title="JS_NewClass1">
<polygon fill="none" stroke="#ff0000" points="284,-331.8082 284,-350.8082 369,-350.8082 369,-331.8082 284,-331.8082"/>
<text text-anchor="middle" x="326.5" y="-338.8082" font-family="Helvetica,sans-Serif" font-size="10.00" fill="#000000">JS_NewClass1</text>
</a>
</g>
</g>
<!-- Node14655&#45;&gt;Node14657 -->
<g id="edge17" class="edge">
<title>Node14655&#45;&gt;Node14657</title>
<path fill="none" stroke="#191970" d="M206.8748,-312.8972C227.9885,-317.9117 254.0287,-324.0963 276.4169,-329.4135"/>
<polygon fill="#191970" stroke="#191970" points="275.8774,-332.8826 286.4156,-331.7882 277.495,-326.0721 275.8774,-332.8826"/>
</g>
<!-- Node14255 -->
<g id="node17" class="node">
<title>Node14255</title>
<g id="a_node17"><a xlink:href="quickjs_8c.html#a5a0aca30abbb4d4ae86746541bf4cbc7" target="_top" xlink:title="JS_FreeAtomRT">
<polygon fill="none" stroke="#ff0000" points="281.5,-293.8082 281.5,-312.8082 371.5,-312.8082 371.5,-293.8082 281.5,-293.8082"/>
<text text-anchor="middle" x="326.5" y="-300.8082" font-family="Helvetica,sans-Serif" font-size="10.00" fill="#000000">JS_FreeAtomRT</text>
</a>
</g>
</g>
<!-- Node14655&#45;&gt;Node14255 -->
<g id="edge18" class="edge">
<title>Node14655&#45;&gt;Node14255</title>
<path fill="none" stroke="#191970" d="M206.8748,-303.3082C226.3662,-303.3082 250.0563,-303.3082 271.1956,-303.3082"/>
<polygon fill="#191970" stroke="#191970" points="271.3387,-306.8083 281.3387,-303.3082 271.3386,-299.8083 271.3387,-306.8083"/>
</g>
<!-- Node14407&#45;&gt;Node14267 -->
<g id="edge21" class="edge">
<title>Node14407&#45;&gt;Node14267</title>
<path fill="none" stroke="#191970" d="M208.0538,-507.8555C217.9602,-510.6751 227.9749,-514.9202 236,-521.3082 262.448,-542.361 242.9864,-570.961 272,-588.3082 328.2443,-621.9366 408.4578,-599.3992 451.826,-582.6942"/>
<polygon fill="#191970" stroke="#191970" points="453.2725,-585.8854 461.261,-578.926 450.6761,-579.3847 453.2725,-585.8854"/>
</g>
<!-- Node14515 -->
<g id="node21" class="node">
<title>Node14515</title>
<g id="a_node21"><a xlink:href="quickjs_8c.html#a0ec52a675282f321a6f42aa1298a53fe" target="_top" xlink:title="set_value">
<polygon fill="none" stroke="#000000" points="453,-141.8082 453,-160.8082 512,-160.8082 512,-141.8082 453,-141.8082"/>
<text text-anchor="middle" x="482.5" y="-148.8082" font-family="Helvetica,sans-Serif" font-size="10.00" fill="#000000">set_value</text>
</a>
</g>
</g>
<!-- Node14660&#45;&gt;Node14515 -->
<g id="edge23" class="edge">
<title>Node14660&#45;&gt;Node14515</title>
<path fill="none" stroke="#191970" d="M215.5283,-151.3082C278.0335,-151.3082 384.901,-151.3082 442.652,-151.3082"/>
<polygon fill="#191970" stroke="#191970" points="442.842,-154.8083 452.842,-151.3082 442.8419,-147.8083 442.842,-154.8083"/>
</g>
<!-- Node14515&#45;&gt;Node14236 -->
<g id="edge24" class="edge">
<title>Node14515&#45;&gt;Node14236</title>
<path fill="none" stroke="#191970" d="M512.0623,-157.4239C523.6312,-160.4409 536.7881,-164.6679 548,-170.3082 569.2506,-180.9987 590.5649,-197.942 605.0102,-210.5816"/>
<polygon fill="#191970" stroke="#191970" points="602.8866,-213.3783 612.6693,-217.4465 607.5587,-208.1657 602.8866,-213.3783"/>
</g>
<!-- Node14661&#45;&gt;Node14236 -->
<g id="edge30" class="edge">
<title>Node14661&#45;&gt;Node14236</title>
<path fill="none" stroke="#191970" d="M366.8658,-198.8194C382.4579,-202.2202 400.4896,-205.8221 417,-208.3082 470.2036,-216.3196 531.6808,-221.461 573.5302,-224.348"/>
<polygon fill="#191970" stroke="#191970" points="573.5177,-227.855 583.73,-225.0338 573.9874,-220.8707 573.5177,-227.855"/>
</g>
<!-- Node14661&#45;&gt;Node14313 -->
<g id="edge26" class="edge">
<title>Node14661&#45;&gt;Node14313</title>
<path fill="none" stroke="#191970" d="M335.771,-198.9773C346.6268,-210.3056 365.1425,-229.6467 381,-246.3082 397.0388,-263.1602 400.2057,-268.209 417,-284.3082 431.8183,-298.5132 449.4049,-313.7339 462.622,-324.8706"/>
<polygon fill="#191970" stroke="#191970" points="460.6877,-327.8157 470.6035,-331.5476 465.1792,-322.4466 460.6877,-327.8157"/>
</g>
<!-- Node14661&#45;&gt;Node14419 -->
<g id="edge28" class="edge">
<title>Node14661&#45;&gt;Node14419</title>
<path fill="none" stroke="#191970" d="M351.5586,-198.8173C361.0404,-202.8054 371.7664,-207.7993 381,-213.3082 398.4071,-223.6936 399.2715,-231.4815 417,-241.3082 424.4611,-245.4438 432.7751,-249.1206 440.9078,-252.2779"/>
<polygon fill="#191970" stroke="#191970" points="439.7163,-255.5688 450.3097,-255.742 442.1365,-249.0005 439.7163,-255.5688"/>
</g>
<!-- Node14661&#45;&gt;Node14515 -->
<g id="edge29" class="edge">
<title>Node14661&#45;&gt;Node14515</title>
<path fill="none" stroke="#191970" d="M365.8654,-179.7192C389.4532,-173.9735 419.3473,-166.6916 442.9652,-160.9385"/>
<polygon fill="#191970" stroke="#191970" points="444.1096,-164.2621 452.9971,-158.4948 442.4529,-157.461 444.1096,-164.2621"/>
</g>
<!-- Node14506 -->
<g id="node23" class="node">
<title>Node14506</title>
<g id="a_node23"><a xlink:href="quickjs_8c.html#af5a10beab08419072e00fedfe4e467af" target="_top" xlink:title="find_export_entry">
<polygon fill="none" stroke="#000000" points="436.5,-179.8082 436.5,-198.8082 528.5,-198.8082 528.5,-179.8082 436.5,-179.8082"/>
<text text-anchor="middle" x="482.5" y="-186.8082" font-family="Helvetica,sans-Serif" font-size="10.00" fill="#000000">find_export_entry</text>
</a>
</g>
</g>
<!-- Node14661&#45;&gt;Node14506 -->
<g id="edge27" class="edge">
<title>Node14661&#45;&gt;Node14506</title>
<path fill="none" stroke="#191970" d="M381.0612,-189.3082C395.5552,-189.3082 411.2395,-189.3082 425.8426,-189.3082"/>
<polygon fill="#191970" stroke="#191970" points="426.2523,-192.8083 436.2523,-189.3082 426.2523,-185.8083 426.2523,-192.8083"/>
</g>
<!-- Node14662&#45;&gt;Node14661 -->
<g id="edge38" class="edge">
<title>Node14662&#45;&gt;Node14661</title>
<path fill="none" stroke="#191970" d="M209.0885,-122.8112C218.1456,-125.4205 227.5273,-128.5806 236,-132.3082 261.3285,-143.4515 287.8359,-160.9367 305.5666,-173.6041"/>
<polygon fill="#191970" stroke="#191970" points="303.8406,-176.6767 313.9859,-179.7301 307.9591,-171.0165 303.8406,-176.6767"/>
</g>
<!-- Node14323 -->
<g id="node25" class="node">
<title>Node14323</title>
<g id="a_node25"><a xlink:href="quickjs_8c.html#a0ee6a3654a6016393fac5e1c108f403a" target="_top" xlink:title="JS_NewString">
<polygon fill="none" stroke="#ff0000" points="286.5,-27.8082 286.5,-46.8082 366.5,-46.8082 366.5,-27.8082 286.5,-27.8082"/>
<text text-anchor="middle" x="326.5" y="-34.8082" font-family="Helvetica,sans-Serif" font-size="10.00" fill="#000000">JS_NewString</text>
</a>
</g>
</g>
<!-- Node14662&#45;&gt;Node14323 -->
<g id="edge32" class="edge">
<title>Node14662&#45;&gt;Node14323</title>
<path fill="none" stroke="#191970" d="M215.0136,-103.7317C222.323,-101.257 229.5613,-98.1646 236,-94.3082 255.9584,-82.3543 252.4632,-68.9394 272,-56.3082 275.0845,-54.314 278.4031,-52.5013 281.8256,-50.859"/>
<polygon fill="#191970" stroke="#191970" points="283.2307,-54.0647 291.0378,-46.9023 280.4682,-47.6329 283.2307,-54.0647"/>
</g>
<!-- Node14309 -->
<g id="node26" class="node">
<title>Node14309</title>
<g id="a_node26"><a xlink:href="quickjs_8h.html#a2050bc428da1c65ac7eb87c3fa3b0392" target="_top" xlink:title="JS_NewInt32">
<polygon fill="none" stroke="#000000" points="444.5,-27.8082 444.5,-46.8082 520.5,-46.8082 520.5,-27.8082 444.5,-27.8082"/>
<text text-anchor="middle" x="482.5" y="-34.8082" font-family="Helvetica,sans-Serif" font-size="10.00" fill="#000000">JS_NewInt32</text>
</a>
</g>
</g>
<!-- Node14662&#45;&gt;Node14309 -->
<g id="edge33" class="edge">
<title>Node14662&#45;&gt;Node14309</title>
<path fill="none" stroke="#191970" d="M220.4733,-103.7006C226.0794,-101.2441 231.3986,-98.1654 236,-94.3082 264.6432,-70.2977 240.4172,-38.2948 272,-18.3082 327.8058,17.0074 409.1886,-6.7254 452.6011,-23.9346"/>
<polygon fill="#191970" stroke="#191970" points="451.4449,-27.2434 462.0247,-27.8063 454.1051,-20.7686 451.4449,-27.2434"/>
</g>
<!-- Node14607 -->
<g id="node27" class="node">
<title>Node14607</title>
<g id="a_node27"><a xlink:href="quickjs_8c.html#acfced0527a056a74dd8439904b7936dd" target="_top" xlink:title="JS_NewInt64">
<polygon fill="none" stroke="#000000" points="288.5,-65.8082 288.5,-84.8082 364.5,-84.8082 364.5,-65.8082 288.5,-65.8082"/>
<text text-anchor="middle" x="326.5" y="-72.8082" font-family="Helvetica,sans-Serif" font-size="10.00" fill="#000000">JS_NewInt64</text>
</a>
</g>
</g>
<!-- Node14662&#45;&gt;Node14607 -->
<g id="edge34" class="edge">
<title>Node14662&#45;&gt;Node14607</title>
<path fill="none" stroke="#191970" d="M206.8748,-103.7192C228.6481,-98.548 255.6605,-92.1326 278.5042,-86.7072"/>
<polygon fill="#191970" stroke="#191970" points="279.4206,-90.087 288.3412,-84.3709 277.8031,-83.2765 279.4206,-90.087"/>
</g>
<!-- Node14421 -->
<g id="node28" class="node">
<title>Node14421</title>
<g id="a_node28"><a xlink:href="quickjs_8h.html#a9bf98b18de88b4199910a43e933eb97d" target="_top" xlink:title="__JS_NewFloat64">
<polygon fill="none" stroke="#000000" points="434,-103.8082 434,-122.8082 531,-122.8082 531,-103.8082 434,-103.8082"/>
<text text-anchor="middle" x="482.5" y="-110.8082" font-family="Helvetica,sans-Serif" font-size="10.00" fill="#000000">__JS_NewFloat64</text>
</a>
</g>
</g>
<!-- Node14662&#45;&gt;Node14421 -->
<g id="edge37" class="edge">
<title>Node14662&#45;&gt;Node14421</title>
<path fill="none" stroke="#191970" d="M229.3092,-113.3082C285.7862,-113.3082 368.1333,-113.3082 423.4301,-113.3082"/>
<polygon fill="#191970" stroke="#191970" points="423.7703,-116.8083 433.7703,-113.3082 423.7703,-109.8083 423.7703,-116.8083"/>
</g>
<!-- Node14607&#45;&gt;Node14309 -->
<g id="edge35" class="edge">
<title>Node14607&#45;&gt;Node14309</title>
<path fill="none" stroke="#191970" d="M364.6619,-66.0124C385.7037,-60.8868 412.0328,-54.4733 434.4634,-49.0094"/>
<polygon fill="#191970" stroke="#191970" points="435.5745,-52.3412 444.462,-46.5739 433.9178,-45.5401 435.5745,-52.3412"/>
</g>
<!-- Node14607&#45;&gt;Node14421 -->
<g id="edge36" class="edge">
<title>Node14607&#45;&gt;Node14421</title>
<path fill="none" stroke="#191970" d="M364.6619,-84.6041C385.3908,-89.6534 411.251,-95.9527 433.4602,-101.3626"/>
<polygon fill="#191970" stroke="#191970" points="432.8318,-104.8118 443.3761,-103.778 434.4885,-98.0107 432.8318,-104.8118"/>
</g>
<!-- Node14663&#45;&gt;Node14419 -->
<g id="edge40" class="edge">
<title>Node14663&#45;&gt;Node14419</title>
<path fill="none" stroke="#191970" d="M236.2042,-243.0576C278.2349,-241.9052 332.7956,-241.8353 381,-246.3082 398.2959,-247.9131 417.039,-251.0248 433.6563,-254.2729"/>
<polygon fill="#191970" stroke="#191970" points="433.2013,-257.7516 443.6963,-256.3007 434.5871,-250.8901 433.2013,-257.7516"/>
</g>
</g>
</svg>
        <g id="navigator" transform="translate(0 0)" fill="#404254">
                <rect fill="#f2f5e9" fill-opacity="0.5" stroke="#606060" stroke-width=".5" x="0" y="0" width="60" height="60"/>
                <use id="zoomplus" xlink:href="#zoomPlus" x="17" y="9" onmousedown="handleZoom(evt,'in')"/>
                <use id="zoomminus" xlink:href="#zoomMin" x="42" y="9" onmousedown="handleZoom(evt,'out')"/>
                <use id="reset" xlink:href="#resetDef" x="30" y="36" onmousedown="handleReset()"/>
                <g id="arrowUp" xlink:href="#dirArrow" transform="translate(30 24)" onmousedown="handlePan(0,-1)">
                  <use xlink:href="#rim" fill="#404040">
                        <set attributeName="fill" to="#808080" begin="arrowUp.mouseover" end="arrowUp.mouseout"/>
                  </use>
                  <path fill="none" stroke="white" stroke-width="1.5" d="M0,-3.0v7 M-2.5,-0.5L0,-3.0L2.5,-0.5"/>
                </g>
                <g id="arrowRight" xlink:href="#dirArrow" transform="rotate(90) translate(36 -43)" onmousedown="handlePan(1,0)">
                  <use xlink:href="#rim" fill="#404040">
                        <set attributeName="fill" to="#808080" begin="arrowRight.mouseover" end="arrowRight.mouseout"/>
                  </use>
                  <path fill="none" stroke="white" stroke-width="1.5" d="M0,-3.0v7 M-2.5,-0.5L0,-3.0L2.5,-0.5"/>
                </g>
                <g id="arrowDown" xlink:href="#dirArrow" transform="rotate(180) translate(-30 -48)" onmousedown="handlePan(0,1)">
                  <use xlink:href="#rim" fill="#404040">
                        <set attributeName="fill" to="#808080" begin="arrowDown.mouseover" end="arrowDown.mouseout"/>
                  </use>
                  <path fill="none" stroke="white" stroke-width="1.5" d="M0,-3.0v7 M-2.5,-0.5L0,-3.0L2.5,-0.5"/>
                </g>
                <g id="arrowLeft" xlink:href="#dirArrow" transform="rotate(270) translate(-36 17)" onmousedown="handlePan(-1,0)">
                  <use xlink:href="#rim" fill="#404040">
                        <set attributeName="fill" to="#808080" begin="arrowLeft.mouseover" end="arrowLeft.mouseout"/>
                  </use>
                  <path fill="none" stroke="white" stroke-width="1.5" d="M0,-3.0v7 M-2.5,-0.5L0,-3.0L2.5,-0.5"/>
                </g>
        </g>
        <svg viewBox="0 0 15 15" width="100%" height="30px" preserveAspectRatio="xMaxYMin meet">
         <g id="arrow_out" transform="scale(0.3 0.3)">
          <a xlink:href="quickjs-libc_8c_a08cea1a0226b7603e6969e2208d99d55_cgraph_org.svg" target="_base">
           <rect id="button" ry="5" rx="5" y="6" x="6" height="38" width="38"
                fill="#f2f5e9" fill-opacity="0.5" stroke="#606060" stroke-width="1.0"/>
           <path id="arrow"
             d="M 11.500037,31.436501 C 11.940474,20.09759 22.043105,11.32322 32.158766,21.979434 L 37.068811,17.246167 C 37.068811,17.246167 37.088388,32 37.088388,32 L 22.160133,31.978069 C 22.160133,31.978069 26.997745,27.140456 26.997745,27.140456 C 18.528582,18.264221 13.291696,25.230495 11.500037,31.436501 z"
             style="fill:#404040;"/>
          </a>
         </g>
        </svg>
</svg>
