<?xml version="1.0" encoding="UTF-8" standalone="no"?>
<!DOCTYPE svg PUBLIC "-//W3C//DTD SVG 1.1//EN"
 "http://www.w3.org/Graphics/SVG/1.1/DTD/svg11.dtd">
<!-- Generated by graphviz version 2.40.1 (20161225.0304)
 -->
<!-- Title: get_typed_array Pages: 1 -->
<!--zoomable 828 -->
<svg id="main" version="1.1" xmlns="http://www.w3.org/2000/svg" xmlns:xlink="http://www.w3.org/1999/xlink" xml:space="preserve" onload="init(evt)">
<style type="text/css"><![CDATA[
.edge:hover path { stroke: red; }
.edge:hover polygon { stroke: red; fill: red; }
]]></style>
<script type="text/javascript"><![CDATA[
var edges = document.getElementsByTagName('g');
if (edges && edges.length) {
  for (var i=0;i<edges.length;i++) {
    if (edges[i].id.substr(0,4)=='edge') {
      edges[i].setAttribute('class','edge');
    }
  }
}
]]></script>
        <defs>
                <circle id="rim" cx="0" cy="0" r="7"/>
                <circle id="rim2" cx="0" cy="0" r="3.5"/>
                <g id="zoomPlus">
                        <use xlink:href="#rim" fill="#404040">
                                <set attributeName="fill" to="#808080" begin="zoomplus.mouseover" end="zoomplus.mouseout"/>
                        </use>
                        <path d="M-4,0h8M0,-4v8" fill="none" stroke="white" stroke-width="1.5" pointer-events="none"/>
                </g>
                <g id="zoomMin">
                        <use xlink:href="#rim" fill="#404040">
                                <set attributeName="fill" to="#808080" begin="zoomminus.mouseover" end="zoomminus.mouseout"/>
                        </use>
                        <path d="M-4,0h8" fill="none" stroke="white" stroke-width="1.5" pointer-events="none"/>
                </g>
                <g id="dirArrow">
                        <path fill="none" stroke="white" stroke-width="1.5" d="M0,-3.0v7 M-2.5,-0.5L0,-3.0L2.5,-0.5"/>
                </g>
               <g id="resetDef">
                       <use xlink:href="#rim2" fill="#404040">
                               <set attributeName="fill" to="#808080" begin="reset.mouseover" end="reset.mouseout"/>
                       </use>
               </g>
        </defs>

<script type="text/javascript">
var viewWidth = 732;
var viewHeight = 828;
var sectionId = 'dynsection-1736';
</script>
<script xlink:href="svgpan.js"/>
<svg id="graph" class="graph">
<g id="viewport">
<title>get_typed_array</title>
<!-- Node435771 -->
<g id="node1" class="node">
<title>Node435771</title>
<polygon fill="#bfbfbf" stroke="#000000" points="0,-205 0,-224 86,-224 86,-205 0,-205"/>
<text text-anchor="middle" x="43" y="-212" font-family="Helvetica,sans-Serif" font-size="10.00" fill="#000000">get_typed_array</text>
</g>
<!-- Node435772 -->
<g id="node2" class="node">
<title>Node435772</title>
<g id="a_node2"><a xlink:href="quickjs_8c.html#ae5a8e884ec4a3364f63ebfeae6b08bdc" target="_top" xlink:title="js_typed_array___species\lCreate">
<polygon fill="none" stroke="#000000" points="435,-326.5 435,-356.5 565,-356.5 565,-326.5 435,-326.5"/>
<text text-anchor="start" x="443" y="-344.5" font-family="Helvetica,sans-Serif" font-size="10.00" fill="#000000">js_typed_array___species</text>
<text text-anchor="middle" x="500" y="-333.5" font-family="Helvetica,sans-Serif" font-size="10.00" fill="#000000">Create</text>
</a>
</g>
</g>
<!-- Node435771&#45;&gt;Node435772 -->
<g id="edge1" class="edge">
<title>Node435771&#45;&gt;Node435772</title>
<path fill="none" stroke="#191970" d="M86.8516,-226.6893C98.2593,-229.7138 110.5591,-232.8464 122,-235.5 244.2687,-263.8591 280.3316,-249.6138 399,-290.5 425.9294,-299.7783 454.7552,-314.9076 474.6898,-326.2833"/>
<polygon fill="#191970" stroke="#191970" points="87.6657,-223.284 77.1003,-224.074 85.8523,-230.0451 87.6657,-223.284"/>
</g>
<!-- Node435774 -->
<g id="node4" class="node">
<title>Node435774</title>
<g id="a_node4"><a xlink:href="quickjs_8c.html#a04f45f4b341a84aa1039cfd862adbcd2" target="_top" xlink:title="js_typed_array_slice">
<polygon fill="none" stroke="#000000" points="609.5,-699 609.5,-718 715.5,-718 715.5,-699 609.5,-699"/>
<text text-anchor="middle" x="662.5" y="-706" font-family="Helvetica,sans-Serif" font-size="10.00" fill="#000000">js_typed_array_slice</text>
</a>
</g>
</g>
<!-- Node435771&#45;&gt;Node435774 -->
<g id="edge28" class="edge">
<title>Node435771&#45;&gt;Node435774</title>
<path fill="none" stroke="#191970" d="M43.2821,-234.1962C44.9052,-320.6888 55.5157,-666.0976 122,-746.5 255.9775,-908.525 567.9927,-758.6752 645.056,-718.016"/>
<polygon fill="#191970" stroke="#191970" points="46.7811,-234.0992 43.1136,-224.1594 39.7821,-234.2168 46.7811,-234.0992"/>
</g>
<!-- Node435775 -->
<g id="node5" class="node">
<title>Node435775</title>
<g id="a_node5"><a xlink:href="quickjs_8c.html#a355310420e303302c981eb7c73a222fb" target="_top" xlink:title="js_typed_array_subarray">
<polygon fill="none" stroke="#000000" points="601,-208 601,-227 724,-227 724,-208 601,-208"/>
<text text-anchor="middle" x="662.5" y="-215" font-family="Helvetica,sans-Serif" font-size="10.00" fill="#000000">js_typed_array_subarray</text>
</a>
</g>
</g>
<!-- Node435771&#45;&gt;Node435775 -->
<g id="edge29" class="edge">
<title>Node435771&#45;&gt;Node435775</title>
<path fill="none" stroke="#191970" d="M96.479,-214.2559C191.0062,-213.9018 393.8046,-213.4895 565,-215.5 576.5967,-215.6362 588.9682,-215.8427 600.8695,-216.0721"/>
<polygon fill="#191970" stroke="#191970" points="96.2984,-210.7564 86.3121,-214.2953 96.3257,-217.7564 96.2984,-210.7564"/>
</g>
<!-- Node435776 -->
<g id="node6" class="node">
<title>Node435776</title>
<g id="a_node6"><a xlink:href="quickjs_8c.html#abc2c575324de462a96cdb647086336b7" target="_top" xlink:title="js_typed_array_get\l_buffer">
<polygon fill="none" stroke="#000000" points="450.5,-136.5 450.5,-166.5 549.5,-166.5 549.5,-136.5 450.5,-136.5"/>
<text text-anchor="start" x="458.5" y="-154.5" font-family="Helvetica,sans-Serif" font-size="10.00" fill="#000000">js_typed_array_get</text>
<text text-anchor="middle" x="500" y="-143.5" font-family="Helvetica,sans-Serif" font-size="10.00" fill="#000000">_buffer</text>
</a>
</g>
</g>
<!-- Node435771&#45;&gt;Node435776 -->
<g id="edge5" class="edge">
<title>Node435771&#45;&gt;Node435776</title>
<path fill="none" stroke="#191970" d="M70.4076,-200.5238C85.2848,-193.5924 104.2237,-185.802 122,-181.5 237.1717,-153.6273 377.2606,-150.1191 450.2878,-150.4926"/>
<polygon fill="#191970" stroke="#191970" points="68.7715,-197.4268 61.2708,-204.9094 71.8006,-203.7374 68.7715,-197.4268"/>
</g>
<!-- Node435777 -->
<g id="node7" class="node">
<title>Node435777</title>
<g id="a_node7"><a xlink:href="quickjs_8c.html#acbb1daa9c97eac9594da8f4408e8fa5b" target="_top" xlink:title="js_typed_array_get\l_byteLength">
<polygon fill="none" stroke="#000000" points="126,-98.5 126,-128.5 225,-128.5 225,-98.5 126,-98.5"/>
<text text-anchor="start" x="134" y="-116.5" font-family="Helvetica,sans-Serif" font-size="10.00" fill="#000000">js_typed_array_get</text>
<text text-anchor="middle" x="175.5" y="-105.5" font-family="Helvetica,sans-Serif" font-size="10.00" fill="#000000">_byteLength</text>
</a>
</g>
</g>
<!-- Node435771&#45;&gt;Node435777 -->
<g id="edge7" class="edge">
<title>Node435771&#45;&gt;Node435777</title>
<path fill="none" stroke="#191970" d="M59.8511,-197.3306C75.2377,-182.1629 99.0212,-159.9598 122,-143.5 129.445,-138.1671 137.9256,-133.0316 145.9058,-128.5627"/>
<polygon fill="#191970" stroke="#191970" points="57.2214,-195.0104 52.6191,-204.5534 62.168,-199.9633 57.2214,-195.0104"/>
</g>
<!-- Node435778 -->
<g id="node8" class="node">
<title>Node435778</title>
<g id="a_node8"><a xlink:href="quickjs_8c.html#a7797b02f56511eb67985f7d50493c2a5" target="_top" xlink:title="js_typed_array_get\l_byteOffset">
<polygon fill="none" stroke="#000000" points="450.5,-224.5 450.5,-254.5 549.5,-254.5 549.5,-224.5 450.5,-224.5"/>
<text text-anchor="start" x="458.5" y="-242.5" font-family="Helvetica,sans-Serif" font-size="10.00" fill="#000000">js_typed_array_get</text>
<text text-anchor="middle" x="500" y="-231.5" font-family="Helvetica,sans-Serif" font-size="10.00" fill="#000000">_byteOffset</text>
</a>
</g>
</g>
<!-- Node435771&#45;&gt;Node435778 -->
<g id="edge8" class="edge">
<title>Node435771&#45;&gt;Node435778</title>
<path fill="none" stroke="#191970" d="M96.5819,-217.4312C185.8595,-222.3151 363.777,-232.048 450.3632,-236.7846"/>
<polygon fill="#191970" stroke="#191970" points="96.5817,-213.926 86.4055,-216.8745 96.1993,-220.9156 96.5817,-213.926"/>
</g>
<!-- Node435779 -->
<g id="node9" class="node">
<title>Node435779</title>
<g id="a_node9"><a xlink:href="quickjs_8c.html#a30f6cc2c62593afda48e8c7999089616" target="_top" xlink:title="js_typed_array_get\l_length">
<polygon fill="none" stroke="#000000" points="126,-49.5 126,-79.5 225,-79.5 225,-49.5 126,-49.5"/>
<text text-anchor="start" x="134" y="-67.5" font-family="Helvetica,sans-Serif" font-size="10.00" fill="#000000">js_typed_array_get</text>
<text text-anchor="middle" x="175.5" y="-56.5" font-family="Helvetica,sans-Serif" font-size="10.00" fill="#000000">_length</text>
</a>
</g>
</g>
<!-- Node435771&#45;&gt;Node435779 -->
<g id="edge10" class="edge">
<title>Node435771&#45;&gt;Node435779</title>
<path fill="none" stroke="#191970" d="M50.6391,-195.4907C62.3475,-168.4722 87.0987,-118.8787 122,-88.5 125.8393,-85.1582 130.2197,-82.2063 134.7835,-79.6194"/>
<polygon fill="#191970" stroke="#191970" points="47.3083,-194.3834 46.6727,-204.9592 53.7647,-197.0881 47.3083,-194.3834"/>
</g>
<!-- Node435780 -->
<g id="node10" class="node">
<title>Node435780</title>
<g id="a_node10"><a xlink:href="quickjs_8c.html#add71c7e0efcb1fd14572d39e2672971d" target="_top" xlink:title="js_typed_array_get\l_length_internal">
<polygon fill="none" stroke="#000000" points="126,-465.5 126,-495.5 225,-495.5 225,-465.5 126,-465.5"/>
<text text-anchor="start" x="134" y="-483.5" font-family="Helvetica,sans-Serif" font-size="10.00" fill="#000000">js_typed_array_get</text>
<text text-anchor="middle" x="175.5" y="-472.5" font-family="Helvetica,sans-Serif" font-size="10.00" fill="#000000">_length_internal</text>
</a>
</g>
</g>
<!-- Node435771&#45;&gt;Node435780 -->
<g id="edge11" class="edge">
<title>Node435771&#45;&gt;Node435780</title>
<path fill="none" stroke="#191970" d="M52.4032,-233.3773C77.4079,-283.5754 145.182,-419.6353 167.935,-465.3129"/>
<polygon fill="#191970" stroke="#191970" points="55.4645,-231.673 47.8729,-224.2825 49.1988,-234.7941 55.4645,-231.673"/>
</g>
<!-- Node435792 -->
<g id="node22" class="node">
<title>Node435792</title>
<g id="a_node22"><a xlink:href="quickjs_8c.html#a28f4d08e4321e751cebe37ea7259fe3c" target="_top" xlink:title="js_typed_array_set\l_internal">
<polygon fill="none" stroke="#000000" points="126,-.5 126,-30.5 225,-30.5 225,-.5 126,-.5"/>
<text text-anchor="start" x="134" y="-18.5" font-family="Helvetica,sans-Serif" font-size="10.00" fill="#000000">js_typed_array_set</text>
<text text-anchor="middle" x="175.5" y="-7.5" font-family="Helvetica,sans-Serif" font-size="10.00" fill="#000000">_internal</text>
</a>
</g>
</g>
<!-- Node435771&#45;&gt;Node435792 -->
<g id="edge26" class="edge">
<title>Node435771&#45;&gt;Node435792</title>
<path fill="none" stroke="#191970" d="M47.0533,-194.7429C55.2738,-159.2728 77.0696,-84.3248 122,-39.5 125.3872,-36.1208 129.334,-33.1734 133.5207,-30.6132"/>
<polygon fill="#191970" stroke="#191970" points="43.5748,-194.2659 44.8492,-204.7838 50.412,-195.7668 43.5748,-194.2659"/>
</g>
<!-- Node435794 -->
<g id="node24" class="node">
<title>Node435794</title>
<g id="a_node24"><a xlink:href="quickjs_8c.html#a997c03968a234b51305ddb93c80a4b97" target="_top" xlink:title="validate_typed_array">
<polygon fill="none" stroke="#000000" points="122,-718 122,-737 229,-737 229,-718 122,-718"/>
<text text-anchor="middle" x="175.5" y="-725" font-family="Helvetica,sans-Serif" font-size="10.00" fill="#000000">validate_typed_array</text>
</a>
</g>
</g>
<!-- Node435771&#45;&gt;Node435794 -->
<g id="edge30" class="edge">
<title>Node435771&#45;&gt;Node435794</title>
<path fill="none" stroke="#191970" d="M48.0937,-234.2213C70.1355,-319.5607 156.9106,-655.5274 172.9449,-717.6074"/>
<polygon fill="#191970" stroke="#191970" points="51.4182,-233.0967 45.5285,-224.2898 44.6406,-234.8473 51.4182,-233.0967"/>
</g>
<!-- Node435773 -->
<g id="node3" class="node">
<title>Node435773</title>
<g id="a_node3"><a xlink:href="quickjs_8c.html#aa0bbf08a7e91459c68a312fba7016c6d" target="_top" xlink:title="js_array_every">
<polygon fill="none" stroke="#000000" points="622.5,-392 622.5,-411 702.5,-411 702.5,-392 622.5,-392"/>
<text text-anchor="middle" x="662.5" y="-399" font-family="Helvetica,sans-Serif" font-size="10.00" fill="#000000">js_array_every</text>
</a>
</g>
</g>
<!-- Node435772&#45;&gt;Node435773 -->
<g id="edge2" class="edge">
<title>Node435772&#45;&gt;Node435773</title>
<path fill="none" stroke="#191970" d="M550.4524,-360.1286C579.0582,-370.6907 613.642,-383.4601 636.7514,-391.9928"/>
<polygon fill="#191970" stroke="#191970" points="551.5989,-356.821 541.0056,-356.6405 549.1743,-363.3877 551.5989,-356.821"/>
</g>
<!-- Node435772&#45;&gt;Node435774 -->
<g id="edge3" class="edge">
<title>Node435772&#45;&gt;Node435774</title>
<path fill="none" stroke="#191970" d="M561.1628,-362.7465C562.5107,-363.9311 563.7941,-365.1811 565,-366.5 612.4943,-418.4448 652.7276,-649.1417 660.9605,-698.9853"/>
<polygon fill="#191970" stroke="#191970" points="562.9667,-359.7296 552.8286,-356.6523 558.8349,-365.3802 562.9667,-359.7296"/>
</g>
<!-- Node435772&#45;&gt;Node435775 -->
<g id="edge4" class="edge">
<title>Node435772&#45;&gt;Node435775</title>
<path fill="none" stroke="#191970" d="M528.0063,-320.1291C563.6929,-292.8974 623.8635,-246.9826 649.8841,-227.1269"/>
<polygon fill="#191970" stroke="#191970" points="525.7523,-317.4464 519.9257,-326.2952 529.9988,-323.0112 525.7523,-317.4464"/>
</g>
<!-- Node435776&#45;&gt;Node435775 -->
<g id="edge6" class="edge">
<title>Node435776&#45;&gt;Node435775</title>
<path fill="none" stroke="#191970" d="M546.7785,-170.4993C576.9594,-182.7573 614.9304,-198.1794 638.9674,-207.9422"/>
<polygon fill="#191970" stroke="#191970" points="547.8628,-167.1621 537.2808,-166.6417 545.2287,-173.6475 547.8628,-167.1621"/>
</g>
<!-- Node435778&#45;&gt;Node435775 -->
<g id="edge9" class="edge">
<title>Node435778&#45;&gt;Node435775</title>
<path fill="none" stroke="#191970" d="M559.6957,-231.4181C573.0974,-229.6037 587.3425,-227.6752 600.8231,-225.8501"/>
<polygon fill="#191970" stroke="#191970" points="559.0783,-227.9697 549.6383,-232.7797 560.0175,-234.9064 559.0783,-227.9697"/>
</g>
<!-- Node435780&#45;&gt;Node435773 -->
<g id="edge12" class="edge">
<title>Node435780&#45;&gt;Node435773</title>
<path fill="none" stroke="#191970" d="M235.2264,-480.2062C312.4946,-478.5759 450.7413,-471.3902 565,-442.5 593.8401,-435.2078 625.2235,-420.7263 644.3823,-411.0746"/>
<polygon fill="#191970" stroke="#191970" points="235.1282,-476.7074 225.1954,-480.3937 235.259,-483.7062 235.1282,-476.7074"/>
</g>
<!-- Node435780&#45;&gt;Node435774 -->
<g id="edge24" class="edge">
<title>Node435780&#45;&gt;Node435774</title>
<path fill="none" stroke="#191970" d="M179.2627,-505.473C187.0231,-547.3819 209.0293,-631.1356 265,-670.5 292.5729,-689.8921 507.7023,-701.7526 609.474,-706.332"/>
<polygon fill="#191970" stroke="#191970" points="182.6976,-504.7953 177.547,-495.5367 175.7997,-505.9864 182.6976,-504.7953"/>
</g>
<!-- Node435781 -->
<g id="node11" class="node">
<title>Node435781</title>
<g id="a_node11"><a xlink:href="quickjs_8c.html#a36c1692489542a86dd79a7d39ab8ff95" target="_top" xlink:title="js_array_reduce">
<polygon fill="none" stroke="#000000" points="289,-642 289,-661 375,-661 375,-642 289,-642"/>
<text text-anchor="middle" x="332" y="-649" font-family="Helvetica,sans-Serif" font-size="10.00" fill="#000000">js_array_reduce</text>
</a>
</g>
</g>
<!-- Node435780&#45;&gt;Node435781 -->
<g id="edge13" class="edge">
<title>Node435780&#45;&gt;Node435781</title>
<path fill="none" stroke="#191970" d="M183.4231,-505.1698C195.5493,-538.969 221.9444,-599.2575 265,-632.5 271.9862,-637.8939 280.4361,-641.7566 288.9469,-644.5227"/>
<polygon fill="#191970" stroke="#191970" points="186.6875,-503.9 180.1152,-495.5901 180.0709,-506.1848 186.6875,-503.9"/>
</g>
<!-- Node435782 -->
<g id="node12" class="node">
<title>Node435782</title>
<g id="a_node12"><a xlink:href="quickjs_8c.html#abe83a22e4d81b08015c382d8f4e7f833" target="_top" xlink:title="js_typed_array_copyWithin">
<polygon fill="none" stroke="#000000" points="265,-604 265,-623 399,-623 399,-604 265,-604"/>
<text text-anchor="middle" x="332" y="-611" font-family="Helvetica,sans-Serif" font-size="10.00" fill="#000000">js_typed_array_copyWithin</text>
</a>
</g>
</g>
<!-- Node435780&#45;&gt;Node435782 -->
<g id="edge14" class="edge">
<title>Node435780&#45;&gt;Node435782</title>
<path fill="none" stroke="#191970" d="M188.1379,-504.3978C203.0896,-530.3774 230.3817,-571.2825 265,-594.5 270.824,-598.406 277.4482,-601.5174 284.2109,-603.9937"/>
<polygon fill="#191970" stroke="#191970" points="191.1326,-502.5818 183.1971,-495.562 185.0229,-505.9983 191.1326,-502.5818"/>
</g>
<!-- Node435783 -->
<g id="node13" class="node">
<title>Node435783</title>
<g id="a_node13"><a xlink:href="quickjs_8c.html#a8c18ce4b7a8c97ab520d4d37a1c6fc72" target="_top" xlink:title="js_typed_array_create">
<polygon fill="none" stroke="#000000" points="275.5,-414 275.5,-433 388.5,-433 388.5,-414 275.5,-414"/>
<text text-anchor="middle" x="332" y="-421" font-family="Helvetica,sans-Serif" font-size="10.00" fill="#000000">js_typed_array_create</text>
</a>
</g>
</g>
<!-- Node435780&#45;&gt;Node435783 -->
<g id="edge15" class="edge">
<title>Node435780&#45;&gt;Node435783</title>
<path fill="none" stroke="#191970" d="M225.6094,-461.9308C238.4414,-457.2012 252.2249,-452.1432 265,-447.5 278.2382,-442.6885 292.9725,-437.403 305.2452,-433.0197"/>
<polygon fill="#191970" stroke="#191970" points="224.1846,-458.7258 216.0146,-465.4713 226.6079,-465.293 224.1846,-458.7258"/>
</g>
<!-- Node435786 -->
<g id="node16" class="node">
<title>Node435786</title>
<g id="a_node16"><a xlink:href="quickjs_8c.html#ae93231189fcdcb0450f2b21c208f293f" target="_top" xlink:title="js_typed_array_fill">
<polygon fill="none" stroke="#000000" points="284.5,-566 284.5,-585 379.5,-585 379.5,-566 284.5,-566"/>
<text text-anchor="middle" x="332" y="-573" font-family="Helvetica,sans-Serif" font-size="10.00" fill="#000000">js_typed_array_fill</text>
</a>
</g>
</g>
<!-- Node435780&#45;&gt;Node435786 -->
<g id="edge19" class="edge">
<title>Node435780&#45;&gt;Node435786</title>
<path fill="none" stroke="#191970" d="M196.4384,-502.8857C213.4337,-519.8373 238.7991,-542.5191 265,-556.5 272.1469,-560.3136 280.1421,-563.4325 288.0521,-565.959"/>
<polygon fill="#191970" stroke="#191970" points="198.7467,-500.2408 189.2458,-495.5522 193.7492,-505.1423 198.7467,-500.2408"/>
</g>
<!-- Node435787 -->
<g id="node17" class="node">
<title>Node435787</title>
<g id="a_node17"><a xlink:href="quickjs_8c.html#a0b8ae7efe63abc1be33d9e828d43ce8d" target="_top" xlink:title="js_typed_array_find">
<polygon fill="none" stroke="#000000" points="281.5,-528 281.5,-547 382.5,-547 382.5,-528 281.5,-528"/>
<text text-anchor="middle" x="332" y="-535" font-family="Helvetica,sans-Serif" font-size="10.00" fill="#000000">js_typed_array_find</text>
</a>
</g>
</g>
<!-- Node435780&#45;&gt;Node435787 -->
<g id="edge20" class="edge">
<title>Node435780&#45;&gt;Node435787</title>
<path fill="none" stroke="#191970" d="M217.6674,-499.6868C232.4756,-506.0808 249.3283,-512.9754 265,-518.5 274.6924,-521.9168 285.3348,-525.1593 295.2279,-527.9665"/>
<polygon fill="#191970" stroke="#191970" points="218.8292,-496.3749 208.2644,-495.5767 216.0255,-502.7889 218.8292,-496.3749"/>
</g>
<!-- Node435788 -->
<g id="node18" class="node">
<title>Node435788</title>
<g id="a_node18"><a xlink:href="quickjs_8c.html#a5552c2701abfaa12a9c9b029a377725d" target="_top" xlink:title="js_typed_array_indexOf">
<polygon fill="none" stroke="#000000" points="272.5,-490 272.5,-509 391.5,-509 391.5,-490 272.5,-490"/>
<text text-anchor="middle" x="332" y="-497" font-family="Helvetica,sans-Serif" font-size="10.00" fill="#000000">js_typed_array_indexOf</text>
</a>
</g>
</g>
<!-- Node435780&#45;&gt;Node435788 -->
<g id="edge21" class="edge">
<title>Node435780&#45;&gt;Node435788</title>
<path fill="none" stroke="#191970" d="M235.0984,-487.7356C247.3134,-489.2186 260.1722,-490.7797 272.3876,-492.2627"/>
<polygon fill="#191970" stroke="#191970" points="235.3665,-484.2425 225.0176,-486.5117 234.5228,-491.1915 235.3665,-484.2425"/>
</g>
<!-- Node435789 -->
<g id="node19" class="node">
<title>Node435789</title>
<g id="a_node19"><a xlink:href="quickjs_8c.html#aa04ea5aa5c3614856e8cd9843f1ebaa1" target="_top" xlink:title="js_typed_array_join">
<polygon fill="none" stroke="#000000" points="281.5,-376 281.5,-395 382.5,-395 382.5,-376 281.5,-376"/>
<text text-anchor="middle" x="332" y="-383" font-family="Helvetica,sans-Serif" font-size="10.00" fill="#000000">js_typed_array_join</text>
</a>
</g>
</g>
<!-- Node435780&#45;&gt;Node435789 -->
<g id="edge22" class="edge">
<title>Node435780&#45;&gt;Node435789</title>
<path fill="none" stroke="#191970" d="M196.4384,-458.1143C213.4337,-441.1627 238.7991,-418.4809 265,-404.5 272.1469,-400.6864 280.1421,-397.5675 288.0521,-395.041"/>
<polygon fill="#191970" stroke="#191970" points="193.7492,-455.8577 189.2458,-465.4478 198.7467,-460.7592 193.7492,-455.8577"/>
</g>
<!-- Node435790 -->
<g id="node20" class="node">
<title>Node435790</title>
<g id="a_node20"><a xlink:href="quickjs_8c.html#a1cbe16f416f7695b59db3032a6b76af6" target="_top" xlink:title="js_typed_array_reverse">
<polygon fill="none" stroke="#000000" points="273,-338 273,-357 391,-357 391,-338 273,-338"/>
<text text-anchor="middle" x="332" y="-345" font-family="Helvetica,sans-Serif" font-size="10.00" fill="#000000">js_typed_array_reverse</text>
</a>
</g>
</g>
<!-- Node435780&#45;&gt;Node435790 -->
<g id="edge23" class="edge">
<title>Node435780&#45;&gt;Node435790</title>
<path fill="none" stroke="#191970" d="M188.1379,-456.6022C203.0896,-430.6226 230.3817,-389.7175 265,-366.5 270.824,-362.594 277.4482,-359.4826 284.2109,-357.0063"/>
<polygon fill="#191970" stroke="#191970" points="185.0229,-455.0017 183.1971,-465.438 191.1326,-458.4182 185.0229,-455.0017"/>
</g>
<!-- Node435791 -->
<g id="node21" class="node">
<title>Node435791</title>
<g id="a_node21"><a xlink:href="quickjs_8c.html#ad24e5f774218bb0d2859db9dc569d118" target="_top" xlink:title="js_typed_array_sort">
<polygon fill="none" stroke="#000000" points="281,-300 281,-319 383,-319 383,-300 281,-300"/>
<text text-anchor="middle" x="332" y="-307" font-family="Helvetica,sans-Serif" font-size="10.00" fill="#000000">js_typed_array_sort</text>
</a>
</g>
</g>
<!-- Node435780&#45;&gt;Node435791 -->
<g id="edge25" class="edge">
<title>Node435780&#45;&gt;Node435791</title>
<path fill="none" stroke="#191970" d="M183.4231,-455.8302C195.5493,-422.031 221.9444,-361.7425 265,-328.5 270.0722,-324.5839 275.9159,-321.4749 281.9943,-319.0067"/>
<polygon fill="#191970" stroke="#191970" points="180.0709,-454.8152 180.1152,-465.4099 186.6875,-457.1 180.0709,-454.8152"/>
</g>
<!-- Node435783&#45;&gt;Node435772 -->
<g id="edge16" class="edge">
<title>Node435783&#45;&gt;Node435772</title>
<path fill="none" stroke="#191970" d="M387.5347,-410.3495C391.5252,-408.625 395.3929,-406.6837 399,-404.5 418.9016,-392.4518 415.666,-379.4395 435,-366.5 440.6269,-362.7342 446.9023,-359.4196 453.2734,-356.5391"/>
<polygon fill="#191970" stroke="#191970" points="386.1427,-407.1349 378.066,-413.9918 388.6559,-413.6682 386.1427,-407.1349"/>
</g>
<!-- Node435784 -->
<g id="node14" class="node">
<title>Node435784</title>
<g id="a_node14"><a xlink:href="quickjs_8c.html#a5f46f50deddd4e3a23da24e8173db28e" target="_top" xlink:title="js_typed_array_from">
<polygon fill="none" stroke="#000000" points="447.5,-414 447.5,-433 552.5,-433 552.5,-414 447.5,-414"/>
<text text-anchor="middle" x="500" y="-421" font-family="Helvetica,sans-Serif" font-size="10.00" fill="#000000">js_typed_array_from</text>
</a>
</g>
</g>
<!-- Node435783&#45;&gt;Node435784 -->
<g id="edge17" class="edge">
<title>Node435783&#45;&gt;Node435784</title>
<path fill="none" stroke="#191970" d="M399.2625,-423.5C415.2912,-423.5 432.1675,-423.5 447.427,-423.5"/>
<polygon fill="#191970" stroke="#191970" points="398.8772,-420.0001 388.8771,-423.5 398.8771,-427.0001 398.8772,-420.0001"/>
</g>
<!-- Node435785 -->
<g id="node15" class="node">
<title>Node435785</title>
<g id="a_node15"><a xlink:href="quickjs_8c.html#a36967d647cc965999043c6cfdeb9e943" target="_top" xlink:title="js_typed_array_of">
<polygon fill="none" stroke="#000000" points="453,-376 453,-395 547,-395 547,-376 453,-376"/>
<text text-anchor="middle" x="500" y="-383" font-family="Helvetica,sans-Serif" font-size="10.00" fill="#000000">js_typed_array_of</text>
</a>
</g>
</g>
<!-- Node435783&#45;&gt;Node435785 -->
<g id="edge18" class="edge">
<title>Node435783&#45;&gt;Node435785</title>
<path fill="none" stroke="#191970" d="M384.2757,-411.6757C407.9607,-406.3184 435.5903,-400.0689 457.9114,-395.0201"/>
<polygon fill="#191970" stroke="#191970" points="383.3749,-408.291 374.3935,-413.911 384.9193,-415.1185 383.3749,-408.291"/>
</g>
<!-- Node435793 -->
<g id="node23" class="node">
<title>Node435793</title>
<g id="a_node23"><a xlink:href="quickjs_8c.html#af7649a967804b86dcc5e5e66df32769e" target="_top" xlink:title="js_typed_array_set">
<polygon fill="none" stroke="#000000" points="282.5,-6 282.5,-25 381.5,-25 381.5,-6 282.5,-6"/>
<text text-anchor="middle" x="332" y="-13" font-family="Helvetica,sans-Serif" font-size="10.00" fill="#000000">js_typed_array_set</text>
</a>
</g>
</g>
<!-- Node435792&#45;&gt;Node435793 -->
<g id="edge27" class="edge">
<title>Node435792&#45;&gt;Node435793</title>
<path fill="none" stroke="#191970" d="M235.0723,-15.5C250.6451,-15.5 267.2662,-15.5 282.2674,-15.5"/>
<polygon fill="#191970" stroke="#191970" points="235.0176,-12.0001 225.0176,-15.5 235.0175,-19.0001 235.0176,-12.0001"/>
</g>
<!-- Node435794&#45;&gt;Node435774 -->
<g id="edge32" class="edge">
<title>Node435794&#45;&gt;Node435774</title>
<path fill="none" stroke="#191970" d="M239.2594,-725.0125C336.2226,-721.2295 518.9899,-714.099 609.2713,-710.5767"/>
<polygon fill="#191970" stroke="#191970" points="238.8665,-721.525 229.0106,-725.4123 239.1395,-728.5197 238.8665,-721.525"/>
</g>
<!-- Node435795 -->
<g id="node25" class="node">
<title>Node435795</title>
<g id="a_node25"><a xlink:href="quickjs_8c.html#a1e80be77ffd5dbb921de62f804a26675" target="_top" xlink:title="js_create_typed_array\l_iterator">
<polygon fill="none" stroke="#000000" points="275.5,-756.5 275.5,-786.5 388.5,-786.5 388.5,-756.5 275.5,-756.5"/>
<text text-anchor="start" x="283.5" y="-774.5" font-family="Helvetica,sans-Serif" font-size="10.00" fill="#000000">js_create_typed_array</text>
<text text-anchor="middle" x="332" y="-763.5" font-family="Helvetica,sans-Serif" font-size="10.00" fill="#000000">_iterator</text>
</a>
</g>
</g>
<!-- Node435794&#45;&gt;Node435795 -->
<g id="edge31" class="edge">
<title>Node435794&#45;&gt;Node435795</title>
<path fill="none" stroke="#191970" d="M219.2907,-739.8118C237.6355,-744.9694 259.1377,-751.0148 278.4152,-756.4346"/>
<polygon fill="#191970" stroke="#191970" points="220.0323,-736.3846 209.4582,-737.0473 218.1376,-743.1233 220.0323,-736.3846"/>
</g>
</g>
</svg>
        <g id="navigator" transform="translate(0 0)" fill="#404254">
                <rect fill="#f2f5e9" fill-opacity="0.5" stroke="#606060" stroke-width=".5" x="0" y="0" width="60" height="60"/>
                <use id="zoomplus" xlink:href="#zoomPlus" x="17" y="9" onmousedown="handleZoom(evt,'in')"/>
                <use id="zoomminus" xlink:href="#zoomMin" x="42" y="9" onmousedown="handleZoom(evt,'out')"/>
                <use id="reset" xlink:href="#resetDef" x="30" y="36" onmousedown="handleReset()"/>
                <g id="arrowUp" xlink:href="#dirArrow" transform="translate(30 24)" onmousedown="handlePan(0,-1)">
                  <use xlink:href="#rim" fill="#404040">
                        <set attributeName="fill" to="#808080" begin="arrowUp.mouseover" end="arrowUp.mouseout"/>
                  </use>
                  <path fill="none" stroke="white" stroke-width="1.5" d="M0,-3.0v7 M-2.5,-0.5L0,-3.0L2.5,-0.5"/>
                </g>
                <g id="arrowRight" xlink:href="#dirArrow" transform="rotate(90) translate(36 -43)" onmousedown="handlePan(1,0)">
                  <use xlink:href="#rim" fill="#404040">
                        <set attributeName="fill" to="#808080" begin="arrowRight.mouseover" end="arrowRight.mouseout"/>
                  </use>
                  <path fill="none" stroke="white" stroke-width="1.5" d="M0,-3.0v7 M-2.5,-0.5L0,-3.0L2.5,-0.5"/>
                </g>
                <g id="arrowDown" xlink:href="#dirArrow" transform="rotate(180) translate(-30 -48)" onmousedown="handlePan(0,1)">
                  <use xlink:href="#rim" fill="#404040">
                        <set attributeName="fill" to="#808080" begin="arrowDown.mouseover" end="arrowDown.mouseout"/>
                  </use>
                  <path fill="none" stroke="white" stroke-width="1.5" d="M0,-3.0v7 M-2.5,-0.5L0,-3.0L2.5,-0.5"/>
                </g>
                <g id="arrowLeft" xlink:href="#dirArrow" transform="rotate(270) translate(-36 17)" onmousedown="handlePan(-1,0)">
                  <use xlink:href="#rim" fill="#404040">
                        <set attributeName="fill" to="#808080" begin="arrowLeft.mouseover" end="arrowLeft.mouseout"/>
                  </use>
                  <path fill="none" stroke="white" stroke-width="1.5" d="M0,-3.0v7 M-2.5,-0.5L0,-3.0L2.5,-0.5"/>
                </g>
        </g>
        <svg viewBox="0 0 15 15" width="100%" height="30px" preserveAspectRatio="xMaxYMin meet">
         <g id="arrow_out" transform="scale(0.3 0.3)">
          <a xlink:href="quickjs_8c_af894945c3459f86096c1821a0a696934_icgraph_org.svg" target="_base">
           <rect id="button" ry="5" rx="5" y="6" x="6" height="38" width="38"
                fill="#f2f5e9" fill-opacity="0.5" stroke="#606060" stroke-width="1.0"/>
           <path id="arrow"
             d="M 11.500037,31.436501 C 11.940474,20.09759 22.043105,11.32322 32.158766,21.979434 L 37.068811,17.246167 C 37.068811,17.246167 37.088388,32 37.088388,32 L 22.160133,31.978069 C 22.160133,31.978069 26.997745,27.140456 26.997745,27.140456 C 18.528582,18.264221 13.291696,25.230495 11.500037,31.436501 z"
             style="fill:#404040;"/>
          </a>
         </g>
        </svg>
</svg>
