<?xml version="1.0" encoding="UTF-8" standalone="no"?>
<!DOCTYPE svg PUBLIC "-//W3C//DTD SVG 1.1//EN"
 "http://www.w3.org/Graphics/SVG/1.1/DTD/svg11.dtd">
<!-- Generated by graphviz version 2.40.1 (20161225.0304)
 -->
<!-- Title: JS_DefinePropertyDesc Pages: 1 -->
<!--zoomable 1104 -->
<svg id="main" version="1.1" xmlns="http://www.w3.org/2000/svg" xmlns:xlink="http://www.w3.org/1999/xlink" xml:space="preserve" onload="init(evt)">
<style type="text/css"><![CDATA[
.edge:hover path { stroke: red; }
.edge:hover polygon { stroke: red; fill: red; }
]]></style>
<script type="text/javascript"><![CDATA[
var edges = document.getElementsByTagName('g');
if (edges && edges.length) {
  for (var i=0;i<edges.length;i++) {
    if (edges[i].id.substr(0,4)=='edge') {
      edges[i].setAttribute('class','edge');
    }
  }
}
]]></script>
        <defs>
                <circle id="rim" cx="0" cy="0" r="7"/>
                <circle id="rim2" cx="0" cy="0" r="3.5"/>
                <g id="zoomPlus">
                        <use xlink:href="#rim" fill="#404040">
                                <set attributeName="fill" to="#808080" begin="zoomplus.mouseover" end="zoomplus.mouseout"/>
                        </use>
                        <path d="M-4,0h8M0,-4v8" fill="none" stroke="white" stroke-width="1.5" pointer-events="none"/>
                </g>
                <g id="zoomMin">
                        <use xlink:href="#rim" fill="#404040">
                                <set attributeName="fill" to="#808080" begin="zoomminus.mouseover" end="zoomminus.mouseout"/>
                        </use>
                        <path d="M-4,0h8" fill="none" stroke="white" stroke-width="1.5" pointer-events="none"/>
                </g>
                <g id="dirArrow">
                        <path fill="none" stroke="white" stroke-width="1.5" d="M0,-3.0v7 M-2.5,-0.5L0,-3.0L2.5,-0.5"/>
                </g>
               <g id="resetDef">
                       <use xlink:href="#rim2" fill="#404040">
                               <set attributeName="fill" to="#808080" begin="reset.mouseover" end="reset.mouseout"/>
                       </use>
               </g>
        </defs>

<script type="text/javascript">
var viewWidth = 914;
var viewHeight = 1104;
var sectionId = 'dynsection-1402';
</script>
<script xlink:href="svgpan.js"/>
<svg id="graph" class="graph">
<g id="viewport">
<title>JS_DefinePropertyDesc</title>
<!-- Node390573 -->
<g id="node1" class="node">
<title>Node390573</title>
<polygon fill="#bfbfbf" stroke="#000000" points="0,-568.4067 0,-587.4067 122,-587.4067 122,-568.4067 0,-568.4067"/>
<text text-anchor="middle" x="61" y="-575.4067" font-family="Helvetica,sans-Serif" font-size="10.00" fill="#000000">JS_DefinePropertyDesc</text>
</g>
<!-- Node390574 -->
<g id="node2" class="node">
<title>Node390574</title>
<g id="a_node2"><a xlink:href="quickjs_8c.html#ab50618f1bf78e444caa6da0e3e2785d7" target="_top" xlink:title="JS_DefineProperty">
<polygon fill="none" stroke="#ff0000" points="158,-568.4067 158,-587.4067 257,-587.4067 257,-568.4067 158,-568.4067"/>
<text text-anchor="middle" x="207.5" y="-575.4067" font-family="Helvetica,sans-Serif" font-size="10.00" fill="#000000">JS_DefineProperty</text>
</a>
</g>
</g>
<!-- Node390573&#45;&gt;Node390574 -->
<g id="edge1" class="edge">
<title>Node390573&#45;&gt;Node390574</title>
<path fill="none" stroke="#191970" d="M122.2803,-577.9067C130.6418,-577.9067 139.2171,-577.9067 147.5545,-577.9067"/>
<polygon fill="#191970" stroke="#191970" points="147.5759,-581.4068 157.5759,-577.9067 147.5759,-574.4068 147.5759,-581.4068"/>
</g>
<!-- Node390915 -->
<g id="node29" class="node">
<title>Node390915</title>
<g id="a_node29"><a xlink:href="quickjs_8c.html#adfe21c674d998ca6586b7f7400352dc4" target="_top" xlink:title="js_free_desc">
<polygon fill="none" stroke="#000000" points="171.5,-853.4067 171.5,-872.4067 243.5,-872.4067 243.5,-853.4067 171.5,-853.4067"/>
<text text-anchor="middle" x="207.5" y="-860.4067" font-family="Helvetica,sans-Serif" font-size="10.00" fill="#000000">js_free_desc</text>
</a>
</g>
</g>
<!-- Node390573&#45;&gt;Node390915 -->
<g id="edge55" class="edge">
<title>Node390573&#45;&gt;Node390915</title>
<path fill="none" stroke="#191970" d="M66.0429,-587.717C87.2626,-628.9978 169.5068,-788.9951 197.8418,-844.1177"/>
<polygon fill="#191970" stroke="#191970" points="194.7938,-845.8439 202.4783,-853.1376 201.0194,-842.6437 194.7938,-845.8439"/>
</g>
<!-- Node391042 -->
<g id="node30" class="node">
<title>Node391042</title>
<g id="a_node30"><a xlink:href="quickjs_8c.html#a26ceb6b90296d2572803b252df73cded" target="_top" xlink:title="js_obj_to_desc">
<polygon fill="none" stroke="#ff0000" points="166.5,-74.4067 166.5,-93.4067 248.5,-93.4067 248.5,-74.4067 166.5,-74.4067"/>
<text text-anchor="middle" x="207.5" y="-81.4067" font-family="Helvetica,sans-Serif" font-size="10.00" fill="#000000">js_obj_to_desc</text>
</a>
</g>
</g>
<!-- Node390573&#45;&gt;Node391042 -->
<g id="edge57" class="edge">
<title>Node390573&#45;&gt;Node391042</title>
<path fill="none" stroke="#191970" d="M63.9264,-568.0388C81.8729,-507.5228 177.0878,-186.4571 201.6929,-103.4884"/>
<polygon fill="#191970" stroke="#191970" points="205.0789,-104.3804 204.5666,-93.798 198.3678,-102.3902 205.0789,-104.3804"/>
</g>
<!-- Node390575 -->
<g id="node3" class="node">
<title>Node390575</title>
<g id="a_node3"><a xlink:href="quickjs_8c.html#a2f49d212e519c9e138d8b48148b6f955" target="_top" xlink:title="__attribute__">
<polygon fill="none" stroke="#ff0000" points="524,-701.4067 524,-720.4067 597,-720.4067 597,-701.4067 524,-701.4067"/>
<text text-anchor="middle" x="560.5" y="-708.4067" font-family="Helvetica,sans-Serif" font-size="10.00" fill="#000000">__attribute__</text>
</a>
</g>
</g>
<!-- Node390574&#45;&gt;Node390575 -->
<g id="edge2" class="edge">
<title>Node390574&#45;&gt;Node390575</title>
<path fill="none" stroke="#191970" d="M209.4734,-587.7569C215.7418,-616.0883 238.1153,-697.8075 293,-729.9067 358.9876,-768.4993 388.9238,-737.401 465,-729.9067 481.0085,-728.3297 498.3108,-725.2999 513.7333,-722.1152"/>
<polygon fill="#191970" stroke="#191970" points="514.5167,-725.5269 523.5641,-720.0138 513.0534,-718.6816 514.5167,-725.5269"/>
</g>
<!-- Node390633 -->
<g id="node4" class="node">
<title>Node390633</title>
<g id="a_node4"><a xlink:href="quickjs_8c.html#a288254c06a39c9fca740a7abdad2834e" target="_top" xlink:title="__JS_AtomIsTaggedInt">
<polygon fill="none" stroke="#000000" points="501,-549.4067 501,-568.4067 620,-568.4067 620,-549.4067 501,-549.4067"/>
<text text-anchor="middle" x="560.5" y="-556.4067" font-family="Helvetica,sans-Serif" font-size="10.00" fill="#000000">__JS_AtomIsTaggedInt</text>
</a>
</g>
</g>
<!-- Node390574&#45;&gt;Node390633 -->
<g id="edge3" class="edge">
<title>Node390574&#45;&gt;Node390633</title>
<path fill="none" stroke="#191970" d="M257.0056,-580.7785C308.9551,-583.1207 392.927,-585.0067 465,-577.9067 480.3093,-576.3985 496.8018,-573.5618 511.7019,-570.5316"/>
<polygon fill="#191970" stroke="#191970" points="512.6665,-573.9052 521.7289,-568.4167 511.2218,-567.0559 512.6665,-573.9052"/>
</g>
<!-- Node390634 -->
<g id="node5" class="node">
<title>Node390634</title>
<g id="a_node5"><a xlink:href="quickjs_8c.html#a89f38938cee8077ce1fbba07946ed185" target="_top" xlink:title="__JS_AtomToUInt32">
<polygon fill="none" stroke="#000000" points="506.5,-435.4067 506.5,-454.4067 614.5,-454.4067 614.5,-435.4067 506.5,-435.4067"/>
<text text-anchor="middle" x="560.5" y="-442.4067" font-family="Helvetica,sans-Serif" font-size="10.00" fill="#000000">__JS_AtomToUInt32</text>
</a>
</g>
</g>
<!-- Node390574&#45;&gt;Node390634 -->
<g id="edge4" class="edge">
<title>Node390574&#45;&gt;Node390634</title>
<path fill="none" stroke="#191970" d="M211.8253,-568.3663C222.2372,-546.6564 250.982,-493.6847 293,-470.9067 355.8485,-436.8364 439.2849,-434.2347 496.1539,-437.6379"/>
<polygon fill="#191970" stroke="#191970" points="496.2383,-441.1516 506.4524,-438.337 496.7125,-434.1676 496.2383,-441.1516"/>
</g>
<!-- Node391036 -->
<g id="node6" class="node">
<title>Node391036</title>
<g id="a_node6"><a xlink:href="quickjs_8c.html#a68c7ae36cec3bf8bbf6cc0868a71cc4b" target="_top" xlink:title="check_define_prop_flags">
<polygon fill="none" stroke="#000000" points="316.5,-701.4067 316.5,-720.4067 441.5,-720.4067 441.5,-701.4067 316.5,-701.4067"/>
<text text-anchor="middle" x="379" y="-708.4067" font-family="Helvetica,sans-Serif" font-size="10.00" fill="#000000">check_define_prop_flags</text>
</a>
</g>
</g>
<!-- Node390574&#45;&gt;Node391036 -->
<g id="edge5" class="edge">
<title>Node390574&#45;&gt;Node391036</title>
<path fill="none" stroke="#191970" d="M211.8554,-587.7021C222.3303,-610.0563 251.1988,-664.9736 293,-691.9067 297.308,-694.6823 301.962,-697.0569 306.7976,-699.0878"/>
<polygon fill="#191970" stroke="#191970" points="305.6841,-702.4075 316.2774,-702.5848 308.1068,-695.8401 305.6841,-702.4075"/>
</g>
<!-- Node390858 -->
<g id="node7" class="node">
<title>Node390858</title>
<g id="a_node7"><a xlink:href="quickjs_8c.html#ac93c982cb636a5430b191d104083af3e" target="_top" xlink:title="convert_fast_array\l_to_array">
<polygon fill="none" stroke="#ff0000" points="511.5,-891.9067 511.5,-921.9067 609.5,-921.9067 609.5,-891.9067 511.5,-891.9067"/>
<text text-anchor="start" x="519.5" y="-909.9067" font-family="Helvetica,sans-Serif" font-size="10.00" fill="#000000">convert_fast_array</text>
<text text-anchor="middle" x="560.5" y="-898.9067" font-family="Helvetica,sans-Serif" font-size="10.00" fill="#000000">_to_array</text>
</a>
</g>
</g>
<!-- Node390574&#45;&gt;Node390858 -->
<g id="edge6" class="edge">
<title>Node390574&#45;&gt;Node390858</title>
<path fill="none" stroke="#191970" d="M208.8281,-587.6397C215.4467,-634.6454 246.4156,-837.5113 293,-876.9067 350.5124,-925.5436 441.6396,-924.8292 501.2571,-917.6269"/>
<polygon fill="#191970" stroke="#191970" points="501.8118,-921.0843 511.275,-916.3201 500.9062,-914.1431 501.8118,-921.0843"/>
</g>
<!-- Node390859 -->
<g id="node8" class="node">
<title>Node390859</title>
<g id="a_node8"><a xlink:href="quickjs_8c.html#a3dd8e78607dbc729614deacf55901b95" target="_top" xlink:title="js_shape_prepare_update">
<polygon fill="none" stroke="#ff0000" points="656,-921.4067 656,-940.4067 784,-940.4067 784,-921.4067 656,-921.4067"/>
<text text-anchor="middle" x="720" y="-928.4067" font-family="Helvetica,sans-Serif" font-size="10.00" fill="#000000">js_shape_prepare_update</text>
</a>
</g>
</g>
<!-- Node390574&#45;&gt;Node390859 -->
<g id="edge45" class="edge">
<title>Node390574&#45;&gt;Node390859</title>
<path fill="none" stroke="#191970" d="M209.1202,-587.6954C218.4291,-643.4225 265.6468,-919.0829 293,-944.9067 346.1584,-995.0926 548.8499,-997.7029 620,-980.9067 648.5395,-974.1694 678.2206,-957.971 697.7567,-945.8245"/>
<polygon fill="#191970" stroke="#191970" points="699.6869,-948.7447 706.2304,-940.412 695.9188,-942.8454 699.6869,-948.7447"/>
</g>
<!-- Node390592 -->
<g id="node9" class="node">
<title>Node390592</title>
<g id="a_node9"><a xlink:href="quickjs_8c.html#a643df594b75933007bcdbb071b5ea8c5" target="_top" xlink:title="get_shape_prop">
<polygon fill="none" stroke="#000000" points="820,-777.4067 820,-796.4067 906,-796.4067 906,-777.4067 820,-777.4067"/>
<text text-anchor="middle" x="863" y="-784.4067" font-family="Helvetica,sans-Serif" font-size="10.00" fill="#000000">get_shape_prop</text>
</a>
</g>
</g>
<!-- Node390574&#45;&gt;Node390592 -->
<g id="edge13" class="edge">
<title>Node390574&#45;&gt;Node390592</title>
<path fill="none" stroke="#191970" d="M209.1407,-587.6893C216.6955,-631.4452 249.6258,-808.4359 293,-839.9067 375.9511,-900.0931 695.1924,-828.9062 816.1657,-798.9578"/>
<polygon fill="#191970" stroke="#191970" points="817.3714,-802.2644 826.2273,-796.4485 815.6775,-795.4724 817.3714,-802.2644"/>
</g>
<!-- Node390591 -->
<g id="node10" class="node">
<title>Node390591</title>
<g id="a_node10"><a xlink:href="quickjs_8c.html#a06b76f5124fd985e35f4c652fd018d6d" target="_top" xlink:title="find_own_property">
<polygon fill="none" stroke="#000000" points="672,-321.4067 672,-340.4067 768,-340.4067 768,-321.4067 672,-321.4067"/>
<text text-anchor="middle" x="720" y="-328.4067" font-family="Helvetica,sans-Serif" font-size="10.00" fill="#000000">find_own_property</text>
</a>
</g>
</g>
<!-- Node390574&#45;&gt;Node390591 -->
<g id="edge9" class="edge">
<title>Node390574&#45;&gt;Node390591</title>
<path fill="none" stroke="#191970" d="M208.1993,-568.1012C212.2374,-514.5696 234.4678,-258.3413 293,-211.9067 349.9349,-166.7392 554.2931,-185.8538 620,-216.9067 662.846,-237.1556 694.8791,-285.2912 710.122,-312.0857"/>
<polygon fill="#191970" stroke="#191970" points="707.2491,-314.1257 715.1294,-321.2075 713.3853,-310.7572 707.2491,-314.1257"/>
</g>
<!-- Node390621 -->
<g id="node11" class="node">
<title>Node390621</title>
<g id="a_node11"><a xlink:href="quickjs_8c.html#a9e7b4bccf927d811b0f99b40b08c0472" target="_top" xlink:title="free_var_ref">
<polygon fill="none" stroke="#ff0000" points="345,-549.4067 345,-568.4067 413,-568.4067 413,-549.4067 345,-549.4067"/>
<text text-anchor="middle" x="379" y="-556.4067" font-family="Helvetica,sans-Serif" font-size="10.00" fill="#000000">free_var_ref</text>
</a>
</g>
</g>
<!-- Node390574&#45;&gt;Node390621 -->
<g id="edge11" class="edge">
<title>Node390574&#45;&gt;Node390621</title>
<path fill="none" stroke="#191970" d="M257.1049,-572.4111C281.6646,-569.6902 311.0663,-566.4328 334.84,-563.799"/>
<polygon fill="#191970" stroke="#191970" points="335.4369,-567.2544 344.9906,-562.6745 334.666,-560.297 335.4369,-567.2544"/>
</g>
<!-- Node390860 -->
<g id="node12" class="node">
<title>Node390860</title>
<g id="a_node12"><a xlink:href="quickjs_8c.html#a6df3ef223d7e76a0db2c14d972dbfa77" target="_top" xlink:title="get_prop_flags">
<polygon fill="none" stroke="#000000" points="520.5,-473.4067 520.5,-492.4067 600.5,-492.4067 600.5,-473.4067 520.5,-473.4067"/>
<text text-anchor="middle" x="560.5" y="-480.4067" font-family="Helvetica,sans-Serif" font-size="10.00" fill="#000000">get_prop_flags</text>
</a>
</g>
</g>
<!-- Node390574&#45;&gt;Node390860 -->
<g id="edge12" class="edge">
<title>Node390574&#45;&gt;Node390860</title>
<path fill="none" stroke="#191970" d="M214.6846,-568.2784C227.9728,-551.3256 258.2262,-516.5586 293,-501.9067 363.739,-472.1007 454.316,-472.8062 509.8365,-477.0851"/>
<polygon fill="#191970" stroke="#191970" points="509.8616,-480.5995 520.1197,-477.9498 510.4482,-473.6241 509.8616,-480.5995"/>
</g>
<!-- Node390687 -->
<g id="node13" class="node">
<title>Node390687</title>
<g id="a_node13"><a xlink:href="quickjs_8c.html#ab4e100a9cde5f7ec87c92f5e766dbbab" target="_top" xlink:title="JS_AtomIsNumericIndex1">
<polygon fill="none" stroke="#ff0000" points="313.5,-397.4067 313.5,-416.4067 444.5,-416.4067 444.5,-397.4067 313.5,-397.4067"/>
<text text-anchor="middle" x="379" y="-404.4067" font-family="Helvetica,sans-Serif" font-size="10.00" fill="#000000">JS_AtomIsNumericIndex1</text>
</a>
</g>
</g>
<!-- Node390574&#45;&gt;Node390687 -->
<g id="edge14" class="edge">
<title>Node390574&#45;&gt;Node390687</title>
<path fill="none" stroke="#191970" d="M210.2661,-568.3019C218.3371,-542.0336 244.4145,-468.464 293,-430.9067 298.5207,-426.6391 304.7591,-423.1302 311.2919,-420.2452"/>
<polygon fill="#191970" stroke="#191970" points="312.9802,-423.3436 321.0248,-416.4491 310.4366,-416.8221 312.9802,-423.3436"/>
</g>
<!-- Node390600 -->
<g id="node14" class="node">
<title>Node390600</title>
<g id="a_node14"><a xlink:href="quickjs_8h.html#afaa20c47565bc704c6c85f3d77254e7d" target="_top" xlink:title="JS_FreeValue">
<polygon fill="none" stroke="#ff0000" points="681,-663.4067 681,-682.4067 759,-682.4067 759,-663.4067 681,-663.4067"/>
<text text-anchor="middle" x="720" y="-670.4067" font-family="Helvetica,sans-Serif" font-size="10.00" fill="#000000">JS_FreeValue</text>
</a>
</g>
</g>
<!-- Node390574&#45;&gt;Node390600 -->
<g id="edge32" class="edge">
<title>Node390574&#45;&gt;Node390600</title>
<path fill="none" stroke="#191970" d="M209.5829,-587.4892C218.4579,-627.3477 254.4309,-779.1783 293,-805.9067 413.579,-889.468 491.4043,-831.5107 620,-760.9067 654.0565,-742.2083 686.4802,-710.1531 704.7473,-690.3246"/>
<polygon fill="#191970" stroke="#191970" points="707.5719,-692.4189 711.6728,-682.6499 702.3749,-687.7293 707.5719,-692.4189"/>
</g>
<!-- Node390628 -->
<g id="node15" class="node">
<title>Node390628</title>
<g id="a_node15"><a xlink:href="quickjs_8h.html#ad80a83d73e9b7d872b88fbf2943aebe9" target="_top" xlink:title="JS_IsException">
<polygon fill="none" stroke="#000000" points="517.5,-264.4067 517.5,-283.4067 603.5,-283.4067 603.5,-264.4067 517.5,-264.4067"/>
<text text-anchor="middle" x="560.5" y="-271.4067" font-family="Helvetica,sans-Serif" font-size="10.00" fill="#000000">JS_IsException</text>
</a>
</g>
</g>
<!-- Node390574&#45;&gt;Node390628 -->
<g id="edge33" class="edge">
<title>Node390574&#45;&gt;Node390628</title>
<path fill="none" stroke="#191970" d="M209.0218,-568.2448C216.2959,-523.3557 248.9954,-335.8318 293,-299.9067 353.1352,-250.8127 448.0912,-254.5496 507.2082,-263.1835"/>
<polygon fill="#191970" stroke="#191970" points="506.6754,-266.6427 517.0947,-264.7219 507.7518,-259.7259 506.6754,-266.6427"/>
</g>
<!-- Node390689 -->
<g id="node16" class="node">
<title>Node390689</title>
<g id="a_node16"><a xlink:href="quickjs_8h.html#a2050bc428da1c65ac7eb87c3fa3b0392" target="_top" xlink:title="JS_NewInt32">
<polygon fill="none" stroke="#000000" points="522.5,-321.4067 522.5,-340.4067 598.5,-340.4067 598.5,-321.4067 522.5,-321.4067"/>
<text text-anchor="middle" x="560.5" y="-328.4067" font-family="Helvetica,sans-Serif" font-size="10.00" fill="#000000">JS_NewInt32</text>
</a>
</g>
</g>
<!-- Node390574&#45;&gt;Node390689 -->
<g id="edge36" class="edge">
<title>Node390574&#45;&gt;Node390689</title>
<path fill="none" stroke="#191970" d="M209.3781,-568.2859C217.6868,-526.8047 252.5231,-364.0309 293,-334.9067 360.4349,-286.3854 464.2248,-303.715 520.6468,-318.5627"/>
<polygon fill="#191970" stroke="#191970" points="520.0421,-322.0258 530.6114,-321.2898 521.89,-315.2741 520.0421,-322.0258"/>
</g>
<!-- Node390857 -->
<g id="node17" class="node">
<title>Node390857</title>
<g id="a_node17"><a xlink:href="quickjs_8c.html#ad5565bb5cfd5321f181573257f3b0c91" target="_top" xlink:title="JS_CreateProperty">
<polygon fill="none" stroke="#ff0000" points="329,-511.4067 329,-530.4067 429,-530.4067 429,-511.4067 329,-511.4067"/>
<text text-anchor="middle" x="379" y="-518.4067" font-family="Helvetica,sans-Serif" font-size="10.00" fill="#000000">JS_CreateProperty</text>
</a>
</g>
</g>
<!-- Node390574&#45;&gt;Node390857 -->
<g id="edge20" class="edge">
<title>Node390574&#45;&gt;Node390857</title>
<path fill="none" stroke="#191970" d="M226.0867,-568.3392C243.1237,-559.8876 269.2375,-547.7242 293,-539.9067 301.337,-537.1639 310.2588,-534.696 319.0841,-532.5174"/>
<polygon fill="#191970" stroke="#191970" points="320.0435,-535.8872 328.9707,-530.1815 318.4339,-529.0747 320.0435,-535.8872"/>
</g>
<!-- Node390599 -->
<g id="node18" class="node">
<title>Node390599</title>
<g id="a_node18"><a xlink:href="quickjs_8h.html#a775522f2d084fc8fa0fcb33f390006b4" target="_top" xlink:title="JS_DupValue">
<polygon fill="none" stroke="#000000" points="522,-359.4067 522,-378.4067 599,-378.4067 599,-359.4067 522,-359.4067"/>
<text text-anchor="middle" x="560.5" y="-366.4067" font-family="Helvetica,sans-Serif" font-size="10.00" fill="#000000">JS_DupValue</text>
</a>
</g>
</g>
<!-- Node390574&#45;&gt;Node390599 -->
<g id="edge31" class="edge">
<title>Node390574&#45;&gt;Node390599</title>
<path fill="none" stroke="#191970" d="M209.5829,-568.3242C218.4579,-528.4656 254.4309,-376.6351 293,-349.9067 327.2603,-326.1643 444.4616,-344.9302 511.8176,-358.3552"/>
<polygon fill="#191970" stroke="#191970" points="511.2826,-361.8179 521.7786,-360.3741 512.6731,-354.9574 511.2826,-361.8179"/>
</g>
<!-- Node390846 -->
<g id="node19" class="node">
<title>Node390846</title>
<g id="a_node19"><a xlink:href="quickjs_8c.html#a1ca9cdb1fa2ffc3e6506e92b200e490f" target="_top" xlink:title="JS_IsFunction">
<polygon fill="none" stroke="#000000" points="520.5,-226.4067 520.5,-245.4067 600.5,-245.4067 600.5,-226.4067 520.5,-226.4067"/>
<text text-anchor="middle" x="560.5" y="-233.4067" font-family="Helvetica,sans-Serif" font-size="10.00" fill="#000000">JS_IsFunction</text>
</a>
</g>
</g>
<!-- Node390574&#45;&gt;Node390846 -->
<g id="edge34" class="edge">
<title>Node390574&#45;&gt;Node390846</title>
<path fill="none" stroke="#191970" d="M208.5532,-568.3527C214.1602,-519.3604 242.1719,-296.9824 293,-254.9067 354.7448,-203.794 454.4242,-212.8359 513.0898,-224.2399"/>
<polygon fill="#191970" stroke="#191970" points="512.6977,-227.7321 523.1963,-226.3071 514.1005,-220.8741 512.6977,-227.7321"/>
</g>
<!-- Node390763 -->
<g id="node20" class="node">
<title>Node390763</title>
<g id="a_node20"><a xlink:href="quickjs_8c.html#a0ec52a675282f321a6f42aa1298a53fe" target="_top" xlink:title="set_value">
<polygon fill="none" stroke="#000000" points="531,-625.4067 531,-644.4067 590,-644.4067 590,-625.4067 531,-625.4067"/>
<text text-anchor="middle" x="560.5" y="-632.4067" font-family="Helvetica,sans-Serif" font-size="10.00" fill="#000000">set_value</text>
</a>
</g>
</g>
<!-- Node390574&#45;&gt;Node390763 -->
<g id="edge54" class="edge">
<title>Node390574&#45;&gt;Node390763</title>
<path fill="none" stroke="#191970" d="M257.1827,-587.49C268.9144,-589.6736 281.3878,-591.9308 293,-593.9067 373.598,-607.6209 468.2207,-621.6346 520.5627,-629.2042"/>
<polygon fill="#191970" stroke="#191970" points="520.3631,-632.7115 530.7603,-630.6747 521.3623,-625.7832 520.3631,-632.7115"/>
</g>
<!-- Node390715 -->
<g id="node21" class="node">
<title>Node390715</title>
<g id="a_node21"><a xlink:href="quickjs_8h.html#a4e407128a9605afb77523e49e9a627fd" target="_top" xlink:title="JS_IsUndefined">
<polygon fill="none" stroke="#000000" points="336,-93.4067 336,-112.4067 422,-112.4067 422,-93.4067 336,-93.4067"/>
<text text-anchor="middle" x="379" y="-100.4067" font-family="Helvetica,sans-Serif" font-size="10.00" fill="#000000">JS_IsUndefined</text>
</a>
</g>
</g>
<!-- Node390574&#45;&gt;Node390715 -->
<g id="edge35" class="edge">
<title>Node390574&#45;&gt;Node390715</title>
<path fill="none" stroke="#191970" d="M207.8997,-568.4044C210.5925,-508.9993 228.0009,-189.0257 293,-121.9067 301.6427,-112.982 313.4623,-107.8085 325.5716,-104.9041"/>
<polygon fill="#191970" stroke="#191970" points="326.5797,-108.2751 335.7481,-102.9655 325.2698,-101.3987 326.5797,-108.2751"/>
</g>
<!-- Node391037 -->
<g id="node22" class="node">
<title>Node391037</title>
<g id="a_node22"><a xlink:href="quickjs_8c.html#af2333dd9d30e60437b73af383477188c" target="_top" xlink:title="JS_NumberIsInteger">
<polygon fill="none" stroke="#ff0000" points="325.5,-1043.4067 325.5,-1062.4067 432.5,-1062.4067 432.5,-1043.4067 325.5,-1043.4067"/>
<text text-anchor="middle" x="379" y="-1050.4067" font-family="Helvetica,sans-Serif" font-size="10.00" fill="#000000">JS_NumberIsInteger</text>
</a>
</g>
</g>
<!-- Node390574&#45;&gt;Node391037 -->
<g id="edge37" class="edge">
<title>Node390574&#45;&gt;Node391037</title>
<path fill="none" stroke="#191970" d="M209.2631,-587.4074C221.3878,-652.7322 291.9756,-1032.8489 293,-1033.9067 299.2602,-1040.371 307.1871,-1044.8673 315.6835,-1047.9588"/>
<polygon fill="#191970" stroke="#191970" points="314.8762,-1051.3705 325.4598,-1050.8824 316.8818,-1044.664 314.8762,-1051.3705"/>
</g>
<!-- Node391040 -->
<g id="node23" class="node">
<title>Node391040</title>
<g id="a_node23"><a xlink:href="quickjs_8c.html#aced4796120beed3ba63dc0b234b399ab" target="_top" xlink:title="JS_NumberIsNegativeOrMinusZero">
<polygon fill="none" stroke="#000000" points="293,-1005.4067 293,-1024.4067 465,-1024.4067 465,-1005.4067 293,-1005.4067"/>
<text text-anchor="middle" x="379" y="-1012.4067" font-family="Helvetica,sans-Serif" font-size="10.00" fill="#000000">JS_NumberIsNegativeOrMinusZero</text>
</a>
</g>
</g>
<!-- Node390574&#45;&gt;Node391040 -->
<g id="edge38" class="edge">
<title>Node390574&#45;&gt;Node391040</title>
<path fill="none" stroke="#191970" d="M209.2313,-587.7066C220.0618,-648.8049 278.5042,-975.39 293,-990.9067 296.5466,-994.7031 300.6386,-997.9168 305.0724,-1000.6353"/>
<polygon fill="#191970" stroke="#191970" points="303.4819,-1003.7531 313.9667,-1005.2758 306.7199,-997.547 303.4819,-1003.7531"/>
</g>
<!-- Node391023 -->
<g id="node24" class="node">
<title>Node391023</title>
<g id="a_node24"><a xlink:href="quickjs_8c.html#a24be89a128d1cd7c0908604815b2b854" target="_top" xlink:title="js_same_value">
<polygon fill="none" stroke="#ff0000" points="338,-359.4067 338,-378.4067 420,-378.4067 420,-359.4067 338,-359.4067"/>
<text text-anchor="middle" x="379" y="-366.4067" font-family="Helvetica,sans-Serif" font-size="10.00" fill="#000000">js_same_value</text>
</a>
</g>
</g>
<!-- Node390574&#45;&gt;Node391023 -->
<g id="edge39" class="edge">
<title>Node390574&#45;&gt;Node391023</title>
<path fill="none" stroke="#191970" d="M208.7992,-568.1858C213.5463,-536.7012 232.9406,-436.7422 293,-387.9067 302.9228,-379.8382 315.5419,-375.0138 328.0361,-372.175"/>
<polygon fill="#191970" stroke="#191970" points="328.7977,-375.5932 337.9756,-370.3 327.5,-368.7145 328.7977,-375.5932"/>
</g>
<!-- Node390864 -->
<g id="node25" class="node">
<title>Node390864</title>
<g id="a_node25"><a xlink:href="quickjs_8c.html#aee75cc1546e19479e3ccda58f3b50a96" target="_top" xlink:title="JS_SetPropertyValue">
<polygon fill="none" stroke="#ff0000" points="324,-663.4067 324,-682.4067 434,-682.4067 434,-663.4067 324,-663.4067"/>
<text text-anchor="middle" x="379" y="-670.4067" font-family="Helvetica,sans-Serif" font-size="10.00" fill="#000000">JS_SetPropertyValue</text>
</a>
</g>
</g>
<!-- Node390574&#45;&gt;Node390864 -->
<g id="edge41" class="edge">
<title>Node390574&#45;&gt;Node390864</title>
<path fill="none" stroke="#191970" d="M216.5226,-587.6866C231.1413,-602.9607 261.5524,-632.4315 293,-648.9067 301.8564,-653.5465 311.7093,-657.3718 321.4944,-660.4985"/>
<polygon fill="#191970" stroke="#191970" points="320.6343,-663.8942 331.2174,-663.3966 322.6339,-657.1859 320.6343,-663.8942"/>
</g>
<!-- Node390802 -->
<g id="node26" class="node">
<title>Node390802</title>
<g id="a_node26"><a xlink:href="quickjs_8c.html#a726b00d108e0a0f4d958c36c2e426a64" target="_top" xlink:title="JS_ThrowTypeErrorNotAnObject">
<polygon fill="none" stroke="#000000" points="299,-131.4067 299,-150.4067 459,-150.4067 459,-131.4067 299,-131.4067"/>
<text text-anchor="middle" x="379" y="-138.4067" font-family="Helvetica,sans-Serif" font-size="10.00" fill="#000000">JS_ThrowTypeErrorNotAnObject</text>
</a>
</g>
</g>
<!-- Node390574&#45;&gt;Node390802 -->
<g id="edge46" class="edge">
<title>Node390574&#45;&gt;Node390802</title>
<path fill="none" stroke="#191970" d="M208.1612,-568.2652C212.2082,-512.0121 235.3918,-226.5722 293,-164.9067 296.5466,-161.1103 300.6386,-157.8966 305.0724,-155.1781"/>
<polygon fill="#191970" stroke="#191970" points="306.7199,-158.2663 313.9667,-150.5375 303.4819,-152.0602 306.7199,-158.2663"/>
</g>
<!-- Node391041 -->
<g id="node27" class="node">
<title>Node391041</title>
<g id="a_node27"><a xlink:href="quickjs_8c.html#a6d48937f79966a773376cc24834c663f" target="_top" xlink:title="js_update_property\l_flags">
<polygon fill="none" stroke="#000000" points="511,-940.9067 511,-970.9067 610,-970.9067 610,-940.9067 511,-940.9067"/>
<text text-anchor="start" x="519" y="-958.9067" font-family="Helvetica,sans-Serif" font-size="10.00" fill="#000000">js_update_property</text>
<text text-anchor="middle" x="560.5" y="-947.9067" font-family="Helvetica,sans-Serif" font-size="10.00" fill="#000000">_flags</text>
</a>
</g>
</g>
<!-- Node390574&#45;&gt;Node391041 -->
<g id="edge47" class="edge">
<title>Node390574&#45;&gt;Node391041</title>
<path fill="none" stroke="#191970" d="M208.5686,-587.7261C214.2524,-638.0921 242.586,-866.8607 293,-912.9067 322.5663,-939.9113 431.1275,-950.0157 500.5302,-953.7549"/>
<polygon fill="#191970" stroke="#191970" points="500.7281,-957.2694 510.893,-954.2818 501.0836,-950.2784 500.7281,-957.2694"/>
</g>
<!-- Node390886 -->
<g id="node28" class="node">
<title>Node390886</title>
<g id="a_node28"><a xlink:href="quickjs_8c.html#aeb73aae9c3ad7daaf7646e3f2f89245a" target="_top" xlink:title="set_array_length">
<polygon fill="none" stroke="#ff0000" points="334.5,-777.4067 334.5,-796.4067 423.5,-796.4067 423.5,-777.4067 334.5,-777.4067"/>
<text text-anchor="middle" x="379" y="-784.4067" font-family="Helvetica,sans-Serif" font-size="10.00" fill="#000000">set_array_length</text>
</a>
</g>
</g>
<!-- Node390574&#45;&gt;Node390886 -->
<g id="edge49" class="edge">
<title>Node390574&#45;&gt;Node390886</title>
<path fill="none" stroke="#191970" d="M209.0682,-587.678C214.5283,-618.4287 235.6022,-714.0675 293,-762.9067 301.9483,-770.5207 313.1369,-775.7299 324.4547,-779.2909"/>
<polygon fill="#191970" stroke="#191970" points="323.8111,-782.7436 334.3809,-782.015 325.6637,-775.9932 323.8111,-782.7436"/>
</g>
<!-- Node390858&#45;&gt;Node390859 -->
<g id="edge7" class="edge">
<title>Node390858&#45;&gt;Node390859</title>
<path fill="none" stroke="#191970" d="M609.6567,-914.3033C621.3572,-916.0639 634.0933,-917.9803 646.6185,-919.8649"/>
<polygon fill="#191970" stroke="#191970" points="646.1849,-923.339 656.5944,-921.366 647.2266,-916.4169 646.1849,-923.339"/>
</g>
<!-- Node390859&#45;&gt;Node390592 -->
<g id="edge8" class="edge">
<title>Node390859&#45;&gt;Node390592</title>
<path fill="none" stroke="#191970" d="M732.7485,-921.0812C746.0224,-910.6407 767.1848,-893.3963 784,-876.9067 808.2197,-853.1558 833.6573,-823.1212 848.922,-804.4604"/>
<polygon fill="#191970" stroke="#191970" points="851.7814,-806.4912 855.3638,-796.5204 846.3455,-802.081 851.7814,-806.4912"/>
</g>
<!-- Node390591&#45;&gt;Node390592 -->
<g id="edge10" class="edge">
<title>Node390591&#45;&gt;Node390592</title>
<path fill="none" stroke="#191970" d="M723.8668,-340.742C734.2495,-367.3125 763.3483,-442.8515 784,-506.9067 815.2136,-603.7215 846.2084,-721.4984 858.0108,-767.3377"/>
<polygon fill="#191970" stroke="#191970" points="854.6544,-768.3396 860.5281,-777.1571 861.4351,-766.6012 854.6544,-768.3396"/>
</g>
<!-- Node390687&#45;&gt;Node390633 -->
<g id="edge15" class="edge">
<title>Node390687&#45;&gt;Node390633</title>
<path fill="none" stroke="#191970" d="M390.3536,-416.4149C420.6567,-441.7928 503.6985,-511.3373 541.4136,-542.9225"/>
<polygon fill="#191970" stroke="#191970" points="539.2368,-545.6647 549.1507,-549.402 543.7312,-540.2981 539.2368,-545.6647"/>
</g>
<!-- Node390687&#45;&gt;Node390634 -->
<g id="edge16" class="edge">
<title>Node390687&#45;&gt;Node390634</title>
<path fill="none" stroke="#191970" d="M424.8001,-416.4957C449.1826,-421.6005 479.3567,-427.918 505.0557,-433.2985"/>
<polygon fill="#191970" stroke="#191970" points="504.5242,-436.763 515.0292,-435.3866 505.9587,-429.9116 504.5242,-436.763"/>
</g>
<!-- Node390687&#45;&gt;Node390600 -->
<g id="edge17" class="edge">
<title>Node390687&#45;&gt;Node390600</title>
<path fill="none" stroke="#191970" d="M424.2257,-397.3982C476.5966,-389.1006 562.9564,-384.106 620,-425.9067 696.0032,-481.6007 714.368,-605.0184 718.7002,-653.1462"/>
<polygon fill="#191970" stroke="#191970" points="715.2174,-653.5026 719.494,-663.1959 722.1956,-652.9513 715.2174,-653.5026"/>
</g>
<!-- Node390687&#45;&gt;Node390628 -->
<g id="edge18" class="edge">
<title>Node390687&#45;&gt;Node390628</title>
<path fill="none" stroke="#191970" d="M444.8257,-399.0546C452.0975,-396.3004 459.0214,-392.6718 465,-387.9067 494.2277,-364.6112 476.2875,-339.9465 501,-311.9067 509.2738,-302.5189 520.4115,-294.5752 530.8129,-288.4168"/>
<polygon fill="#191970" stroke="#191970" points="532.6461,-291.4019 539.6735,-283.4731 529.2355,-285.289 532.6461,-291.4019"/>
</g>
<!-- Node390687&#45;&gt;Node390689 -->
<g id="edge19" class="edge">
<title>Node390687&#45;&gt;Node390689</title>
<path fill="none" stroke="#191970" d="M442.6135,-397.3995C450.4228,-394.9313 458.0799,-391.8224 465,-387.9067 485.2477,-376.4496 481.2984,-362.2793 501,-349.9067 504.7694,-347.5395 508.8596,-345.443 513.071,-343.5911"/>
<polygon fill="#191970" stroke="#191970" points="514.3823,-346.8365 522.4063,-339.918 511.8192,-340.3225 514.3823,-346.8365"/>
</g>
<!-- Node390857&#45;&gt;Node390575 -->
<g id="edge21" class="edge">
<title>Node390857&#45;&gt;Node390575</title>
<path fill="none" stroke="#191970" d="M429.1237,-523.0724C442.1111,-525.8539 455.1869,-530.9252 465,-539.9067 504.1948,-575.7798 472.9403,-608.7872 501,-653.9067 510.8209,-669.6985 526.0109,-684.1505 538.5845,-694.5512"/>
<polygon fill="#191970" stroke="#191970" points="536.7699,-697.5803 546.7731,-701.0711 541.1301,-692.1041 536.7699,-697.5803"/>
</g>
<!-- Node390857&#45;&gt;Node390633 -->
<g id="edge22" class="edge">
<title>Node390857&#45;&gt;Node390633</title>
<path fill="none" stroke="#191970" d="M424.8001,-530.4957C449.1826,-535.6005 479.3567,-541.918 505.0557,-547.2985"/>
<polygon fill="#191970" stroke="#191970" points="504.5242,-550.763 515.0292,-549.3866 505.9587,-543.9116 504.5242,-550.763"/>
</g>
<!-- Node390857&#45;&gt;Node390634 -->
<g id="edge23" class="edge">
<title>Node390857&#45;&gt;Node390634</title>
<path fill="none" stroke="#191970" d="M397.6913,-511.2571C421.3543,-499.2556 463.5556,-478.563 501,-463.9067 506.5632,-461.7291 512.4877,-459.6089 518.3603,-457.622"/>
<polygon fill="#191970" stroke="#191970" points="519.7119,-460.8622 528.1214,-454.4179 517.5286,-454.2114 519.7119,-460.8622"/>
</g>
<!-- Node390857&#45;&gt;Node390858 -->
<g id="edge24" class="edge">
<title>Node390857&#45;&gt;Node390858</title>
<path fill="none" stroke="#191970" d="M429.3942,-522.2379C442.5398,-524.9866 455.63,-530.2495 465,-539.9067 524.8495,-601.5905 479.2561,-646.7558 501,-729.9067 515.4197,-785.049 538.0966,-847.9334 550.8881,-881.918"/>
<polygon fill="#191970" stroke="#191970" points="547.702,-883.3873 554.5204,-891.4966 554.2472,-880.9052 547.702,-883.3873"/>
</g>
<!-- Node390857&#45;&gt;Node390592 -->
<g id="edge26" class="edge">
<title>Node390857&#45;&gt;Node390592</title>
<path fill="none" stroke="#191970" d="M429.0431,-517.3719C478.9194,-515.5551 556.9584,-517.3893 620,-539.9067 703.5962,-569.7659 723.5133,-588.9355 784,-653.9067 816.9405,-689.2894 842.6155,-740.6701 854.9564,-768.0577"/>
<polygon fill="#191970" stroke="#191970" points="851.79,-769.5521 859.0206,-777.2961 858.1974,-766.7333 851.79,-769.5521"/>
</g>
<!-- Node390857&#45;&gt;Node390860 -->
<g id="edge25" class="edge">
<title>Node390857&#45;&gt;Node390860</title>
<path fill="none" stroke="#191970" d="M424.8001,-511.3177C450.8735,-505.8588 483.5697,-499.0133 510.3343,-493.4097"/>
<polygon fill="#191970" stroke="#191970" points="511.2051,-496.8033 520.2756,-491.3283 509.7705,-489.9519 511.2051,-496.8033"/>
</g>
<!-- Node390857&#45;&gt;Node390599 -->
<g id="edge27" class="edge">
<title>Node390857&#45;&gt;Node390599</title>
<path fill="none" stroke="#191970" d="M390.3536,-511.3984C420.6567,-486.0206 503.6985,-416.476 541.4136,-384.8908"/>
<polygon fill="#191970" stroke="#191970" points="543.7312,-387.5152 549.1507,-378.4114 539.2368,-382.1486 543.7312,-387.5152"/>
</g>
<!-- Node390857&#45;&gt;Node390846 -->
<g id="edge28" class="edge">
<title>Node390857&#45;&gt;Node390846</title>
<path fill="none" stroke="#191970" d="M391.1684,-511.2434C410.1112,-495.4963 446.4025,-462.3732 465,-425.9067 500.285,-356.7187 448.9413,-312.5425 501,-254.9067 503.9028,-251.6928 507.3481,-249.0194 511.0958,-246.7958"/>
<polygon fill="#191970" stroke="#191970" points="512.7808,-249.8692 520.2766,-242.3816 509.7475,-243.5606 512.7808,-249.8692"/>
</g>
<!-- Node390857&#45;&gt;Node390763 -->
<g id="edge29" class="edge">
<title>Node390857&#45;&gt;Node390763</title>
<path fill="none" stroke="#191970" d="M429.058,-526.7495C441.3423,-529.5635 454.0876,-533.7319 465,-539.9067 485.2477,-551.3638 484.5954,-561.4105 501,-577.9067 514.7687,-591.7522 530.7706,-607.0382 542.7096,-618.2922"/>
<polygon fill="#191970" stroke="#191970" points="540.5631,-621.0777 550.2486,-625.372 545.355,-615.975 540.5631,-621.0777"/>
</g>
<!-- Node390763&#45;&gt;Node390600 -->
<g id="edge30" class="edge">
<title>Node390763&#45;&gt;Node390600</title>
<path fill="none" stroke="#191970" d="M590.1269,-641.9651C612.8142,-647.3702 644.6026,-654.9436 671.0508,-661.2448"/>
<polygon fill="#191970" stroke="#191970" points="670.3569,-664.6774 680.8958,-663.5903 671.9792,-657.8679 670.3569,-664.6774"/>
</g>
<!-- Node391023&#45;&gt;Node390599 -->
<g id="edge40" class="edge">
<title>Node391023&#45;&gt;Node390599</title>
<path fill="none" stroke="#191970" d="M420.1852,-368.9067C447.3851,-368.9067 483.1544,-368.9067 511.7701,-368.9067"/>
<polygon fill="#191970" stroke="#191970" points="511.96,-372.4068 521.9599,-368.9067 511.9599,-365.4068 511.96,-372.4068"/>
</g>
<!-- Node390864&#45;&gt;Node390575 -->
<g id="edge42" class="edge">
<title>Node390864&#45;&gt;Node390575</title>
<path fill="none" stroke="#191970" d="M424.8001,-682.4957C451.9909,-688.1885 486.3844,-695.3893 513.7418,-701.1171"/>
<polygon fill="#191970" stroke="#191970" points="513.3477,-704.6104 523.8527,-703.234 514.7822,-697.7589 513.3477,-704.6104"/>
</g>
<!-- Node390864&#45;&gt;Node390600 -->
<g id="edge43" class="edge">
<title>Node390864&#45;&gt;Node390600</title>
<path fill="none" stroke="#191970" d="M434.1665,-672.9067C499.6968,-672.9067 608.0172,-672.9067 670.807,-672.9067"/>
<polygon fill="#191970" stroke="#191970" points="670.8551,-676.4068 680.855,-672.9067 670.855,-669.4068 670.8551,-676.4068"/>
</g>
<!-- Node390864&#45;&gt;Node390763 -->
<g id="edge44" class="edge">
<title>Node390864&#45;&gt;Node390763</title>
<path fill="none" stroke="#191970" d="M424.8001,-663.3177C454.4489,-657.1102 492.6615,-649.1098 520.9781,-643.1812"/>
<polygon fill="#191970" stroke="#191970" points="521.8581,-646.573 530.9286,-641.0979 520.4236,-639.7215 521.8581,-646.573"/>
</g>
<!-- Node391041&#45;&gt;Node390859 -->
<g id="edge48" class="edge">
<title>Node391041&#45;&gt;Node390859</title>
<path fill="none" stroke="#191970" d="M610.0925,-948.1336C622.4809,-946.1918 636.0079,-944.0716 649.2037,-942.0033"/>
<polygon fill="#191970" stroke="#191970" points="649.8684,-945.4419 659.2058,-940.4355 648.7844,-938.5263 649.8684,-945.4419"/>
</g>
<!-- Node390886&#45;&gt;Node390575 -->
<g id="edge50" class="edge">
<title>Node390886&#45;&gt;Node390575</title>
<path fill="none" stroke="#191970" d="M423.5382,-777.9947C437.2548,-774.3323 452.125,-769.3917 465,-762.9067 483.1031,-753.7884 483.4319,-745.0174 501,-734.9067 507.7034,-731.0487 515.1479,-727.5179 522.4382,-724.4207"/>
<polygon fill="#191970" stroke="#191970" points="524.2397,-727.4677 532.1999,-720.4758 521.6169,-720.9776 524.2397,-727.4677"/>
</g>
<!-- Node390886&#45;&gt;Node390592 -->
<g id="edge51" class="edge">
<title>Node390886&#45;&gt;Node390592</title>
<path fill="none" stroke="#191970" d="M423.666,-786.9067C513.08,-786.9067 713.7022,-786.9067 809.7619,-786.9067"/>
<polygon fill="#191970" stroke="#191970" points="809.8355,-790.4068 819.8355,-786.9067 809.8354,-783.4068 809.8355,-790.4068"/>
</g>
<!-- Node390886&#45;&gt;Node390600 -->
<g id="edge52" class="edge">
<title>Node390886&#45;&gt;Node390600</title>
<path fill="none" stroke="#191970" d="M423.6856,-780.2736C472.9567,-772.0659 553.9929,-755.9009 620,-729.9067 648.09,-718.8446 677.8521,-700.988 697.5302,-688.2087"/>
<polygon fill="#191970" stroke="#191970" points="699.6583,-690.9977 706.074,-682.5663 695.8007,-685.1566 699.6583,-690.9977"/>
</g>
<!-- Node390886&#45;&gt;Node390763 -->
<g id="edge53" class="edge">
<title>Node390886&#45;&gt;Node390763</title>
<path fill="none" stroke="#191970" d="M395.9531,-777.2417C413.8943,-766.6628 442.6476,-748.6906 465,-729.9067 482.8106,-714.9395 484.5954,-708.4028 501,-691.9067 514.7687,-678.0611 530.7706,-662.7751 542.7096,-651.5211"/>
<polygon fill="#191970" stroke="#191970" points="545.355,-653.8383 550.2486,-644.4414 540.5631,-648.7356 545.355,-653.8383"/>
</g>
<!-- Node390915&#45;&gt;Node390600 -->
<g id="edge56" class="edge">
<title>Node390915&#45;&gt;Node390600</title>
<path fill="none" stroke="#191970" d="M207.9307,-872.679C210.0461,-907.288 222.3692,-1024.4886 293,-1071.9067 356.4681,-1114.516 391.2328,-1091.9606 465,-1071.9067 542.0861,-1050.9505 569.9606,-1043.1762 620,-980.9067 657.385,-934.3844 701.5426,-753.175 715.5241,-692.6869"/>
<polygon fill="#191970" stroke="#191970" points="719.0216,-693.0933 717.8415,-682.5643 712.1981,-691.5311 719.0216,-693.0933"/>
</g>
<!-- Node391042&#45;&gt;Node390600 -->
<g id="edge58" class="edge">
<title>Node391042&#45;&gt;Node390600</title>
<path fill="none" stroke="#191970" d="M216.8453,-73.9414C231.4345,-59.1968 261.2576,-32.2044 293,-21.9067 365.7138,1.6827 396.1524,11.3162 465,-21.9067 564.7083,-70.0215 572.4694,-116.9185 620,-216.9067 639.3165,-257.542 700.3617,-570.7732 716.2106,-653.1246"/>
<polygon fill="#191970" stroke="#191970" points="712.8147,-653.9997 718.138,-663.16 719.689,-652.6794 712.8147,-653.9997"/>
</g>
<!-- Node391042&#45;&gt;Node390628 -->
<g id="edge59" class="edge">
<title>Node391042&#45;&gt;Node390628</title>
<path fill="none" stroke="#191970" d="M233.6444,-74.2911C284.5018,-57.4381 397.6532,-29.2619 465,-83.9067 525.3103,-132.8421 448.9413,-197.2708 501,-254.9067 503.1476,-257.2843 505.5921,-259.3663 508.2363,-261.1891"/>
<polygon fill="#191970" stroke="#191970" points="506.7982,-264.3934 517.2425,-266.1733 510.1878,-258.2688 506.7982,-264.3934"/>
</g>
<!-- Node391042&#45;&gt;Node390846 -->
<g id="edge60" class="edge">
<title>Node391042&#45;&gt;Node390846</title>
<path fill="none" stroke="#191970" d="M224.1874,-74.3315C268.7666,-50.1534 392.1869,7.4233 465,-50.9067 522.2248,-96.749 453.5577,-156.0012 501,-211.9067 504.1666,-215.6381 507.9989,-218.7957 512.1752,-221.4665"/>
<polygon fill="#191970" stroke="#191970" points="510.6642,-224.6281 521.1274,-226.2927 513.986,-218.4664 510.6642,-224.6281"/>
</g>
<!-- Node391042&#45;&gt;Node390715 -->
<g id="edge61" class="edge">
<title>Node391042&#45;&gt;Node390715</title>
<path fill="none" stroke="#191970" d="M248.5785,-88.4576C271.7459,-91.0243 300.949,-94.2596 325.8453,-97.0178"/>
<polygon fill="#191970" stroke="#191970" points="325.5388,-100.5052 335.8634,-98.1277 326.3097,-93.5478 325.5388,-100.5052"/>
</g>
<!-- Node391042&#45;&gt;Node390802 -->
<g id="edge62" class="edge">
<title>Node391042&#45;&gt;Node390802</title>
<path fill="none" stroke="#191970" d="M226.0867,-93.4741C243.1237,-101.9258 269.2375,-114.0892 293,-121.9067 300.9342,-124.5169 309.398,-126.8782 317.8042,-128.9781"/>
<polygon fill="#191970" stroke="#191970" points="317.0709,-132.4014 327.6107,-131.3223 318.6984,-125.5932 317.0709,-132.4014"/>
</g>
</g>
</svg>
        <g id="navigator" transform="translate(0 0)" fill="#404254">
                <rect fill="#f2f5e9" fill-opacity="0.5" stroke="#606060" stroke-width=".5" x="0" y="0" width="60" height="60"/>
                <use id="zoomplus" xlink:href="#zoomPlus" x="17" y="9" onmousedown="handleZoom(evt,'in')"/>
                <use id="zoomminus" xlink:href="#zoomMin" x="42" y="9" onmousedown="handleZoom(evt,'out')"/>
                <use id="reset" xlink:href="#resetDef" x="30" y="36" onmousedown="handleReset()"/>
                <g id="arrowUp" xlink:href="#dirArrow" transform="translate(30 24)" onmousedown="handlePan(0,-1)">
                  <use xlink:href="#rim" fill="#404040">
                        <set attributeName="fill" to="#808080" begin="arrowUp.mouseover" end="arrowUp.mouseout"/>
                  </use>
                  <path fill="none" stroke="white" stroke-width="1.5" d="M0,-3.0v7 M-2.5,-0.5L0,-3.0L2.5,-0.5"/>
                </g>
                <g id="arrowRight" xlink:href="#dirArrow" transform="rotate(90) translate(36 -43)" onmousedown="handlePan(1,0)">
                  <use xlink:href="#rim" fill="#404040">
                        <set attributeName="fill" to="#808080" begin="arrowRight.mouseover" end="arrowRight.mouseout"/>
                  </use>
                  <path fill="none" stroke="white" stroke-width="1.5" d="M0,-3.0v7 M-2.5,-0.5L0,-3.0L2.5,-0.5"/>
                </g>
                <g id="arrowDown" xlink:href="#dirArrow" transform="rotate(180) translate(-30 -48)" onmousedown="handlePan(0,1)">
                  <use xlink:href="#rim" fill="#404040">
                        <set attributeName="fill" to="#808080" begin="arrowDown.mouseover" end="arrowDown.mouseout"/>
                  </use>
                  <path fill="none" stroke="white" stroke-width="1.5" d="M0,-3.0v7 M-2.5,-0.5L0,-3.0L2.5,-0.5"/>
                </g>
                <g id="arrowLeft" xlink:href="#dirArrow" transform="rotate(270) translate(-36 17)" onmousedown="handlePan(-1,0)">
                  <use xlink:href="#rim" fill="#404040">
                        <set attributeName="fill" to="#808080" begin="arrowLeft.mouseover" end="arrowLeft.mouseout"/>
                  </use>
                  <path fill="none" stroke="white" stroke-width="1.5" d="M0,-3.0v7 M-2.5,-0.5L0,-3.0L2.5,-0.5"/>
                </g>
        </g>
        <svg viewBox="0 0 15 15" width="100%" height="30px" preserveAspectRatio="xMaxYMin meet">
         <g id="arrow_out" transform="scale(0.3 0.3)">
          <a xlink:href="quickjs_8c_af40540b5f7e973f44e4e89d87938bfc6_cgraph_org.svg" target="_base">
           <rect id="button" ry="5" rx="5" y="6" x="6" height="38" width="38"
                fill="#f2f5e9" fill-opacity="0.5" stroke="#606060" stroke-width="1.0"/>
           <path id="arrow"
             d="M 11.500037,31.436501 C 11.940474,20.09759 22.043105,11.32322 32.158766,21.979434 L 37.068811,17.246167 C 37.068811,17.246167 37.088388,32 37.088388,32 L 22.160133,31.978069 C 22.160133,31.978069 26.997745,27.140456 26.997745,27.140456 C 18.528582,18.264221 13.291696,25.230495 11.500037,31.436501 z"
             style="fill:#404040;"/>
          </a>
         </g>
        </svg>
</svg>
