<?xml version="1.0" encoding="UTF-8" standalone="no"?>
<!DOCTYPE svg PUBLIC "-//W3C//DTD SVG 1.1//EN"
 "http://www.w3.org/Graphics/SVG/1.1/DTD/svg11.dtd">
<!-- Generated by graphviz version 2.40.1 (20161225.0304)
 -->
<!-- Title: JS_IteratorNext2 Pages: 1 -->
<svg width="750pt" height="1082pt"
 viewBox="0.00 0.00 750.00 1082.00" xmlns="http://www.w3.org/2000/svg" xmlns:xlink="http://www.w3.org/1999/xlink">
<g id="graph0" class="graph" transform="scale(1 1) rotate(0) translate(4 1078)">
<title>JS_IteratorNext2</title>
<!-- Node254194 -->
<g id="node1" class="node">
<title>Node254194</title>
<polygon fill="#bfbfbf" stroke="#000000" points="0,-760.5 0,-779.5 91,-779.5 91,-760.5 0,-760.5"/>
<text text-anchor="middle" x="45.5" y="-767.5" font-family="Helvetica,sans-Serif" font-size="10.00" fill="#000000">JS_IteratorNext2</text>
</g>
<!-- Node254195 -->
<g id="node2" class="node">
<title>Node254195</title>
<g id="a_node2"><a xlink:href="quickjs_8c.html#a1a4c02a29525d5cb2085dd8bca3af350" target="_top" xlink:title="JS_Call">
<polygon fill="none" stroke="#000000" points="127,-513.5 127,-532.5 178,-532.5 178,-513.5 127,-513.5"/>
<text text-anchor="middle" x="152.5" y="-520.5" font-family="Helvetica,sans-Serif" font-size="10.00" fill="#000000">JS_Call</text>
</a>
</g>
</g>
<!-- Node254194&#45;&gt;Node254195 -->
<g id="edge1" class="edge">
<title>Node254194&#45;&gt;Node254195</title>
<path fill="none" stroke="#191970" d="M49.6945,-760.3173C65.6746,-723.4287 122.919,-591.2851 144.3359,-541.8461"/>
<polygon fill="#191970" stroke="#191970" points="147.571,-543.1831 148.3345,-532.6158 141.1478,-540.4005 147.571,-543.1831"/>
</g>
<!-- Node254243 -->
<g id="node9" class="node">
<title>Node254243</title>
<g id="a_node9"><a xlink:href="quickjs_8h.html#afaa20c47565bc704c6c85f3d77254e7d" target="_top" xlink:title="JS_FreeValue">
<polygon fill="none" stroke="#ff0000" points="664,-608.5 664,-627.5 742,-627.5 742,-608.5 664,-608.5"/>
<text text-anchor="middle" x="703" y="-615.5" font-family="Helvetica,sans-Serif" font-size="10.00" fill="#000000">JS_FreeValue</text>
</a>
</g>
</g>
<!-- Node254194&#45;&gt;Node254243 -->
<g id="edge54" class="edge">
<title>Node254194&#45;&gt;Node254243</title>
<path fill="none" stroke="#191970" d="M47.1751,-779.7703C56.7035,-831.8045 108.9265,-1074 255.5,-1074 255.5,-1074 255.5,-1074 403,-1074 615.2174,-1074 685.7204,-725.0455 700.049,-637.6577"/>
<polygon fill="#191970" stroke="#191970" points="703.5465,-637.9474 701.647,-627.5242 696.632,-636.8569 703.5465,-637.9474"/>
</g>
<!-- Node254253 -->
<g id="node10" class="node">
<title>Node254253</title>
<g id="a_node10"><a xlink:href="quickjs_8h.html#ad80a83d73e9b7d872b88fbf2943aebe9" target="_top" xlink:title="JS_IsException">
<polygon fill="none" stroke="#000000" points="525.5,-532.5 525.5,-551.5 611.5,-551.5 611.5,-532.5 525.5,-532.5"/>
<text text-anchor="middle" x="568.5" y="-539.5" font-family="Helvetica,sans-Serif" font-size="10.00" fill="#000000">JS_IsException</text>
</a>
</g>
</g>
<!-- Node254194&#45;&gt;Node254253 -->
<g id="edge55" class="edge">
<title>Node254194&#45;&gt;Node254253</title>
<path fill="none" stroke="#191970" d="M52.1889,-779.6341C94.318,-839.2331 325.9018,-1150.8213 473,-1017 535.7433,-959.9199 481.7547,-717.3278 509,-637 518.9917,-607.5413 539.7028,-577.8331 553.8517,-559.6718"/>
<polygon fill="#191970" stroke="#191970" points="556.6854,-561.7323 560.1947,-551.7355 551.2173,-557.3619 556.6854,-561.7323"/>
</g>
<!-- Node254393 -->
<g id="node30" class="node">
<title>Node254393</title>
<g id="a_node30"><a xlink:href="quickjs_8h.html#a3d68fe446df2d9c7d1900b16371bff5b" target="_top" xlink:title="JS_IsObject">
<polygon fill="none" stroke="#000000" points="367.5,-.5 367.5,-19.5 438.5,-19.5 438.5,-.5 367.5,-.5"/>
<text text-anchor="middle" x="403" y="-7.5" font-family="Helvetica,sans-Serif" font-size="10.00" fill="#000000">JS_IsObject</text>
</a>
</g>
</g>
<!-- Node254194&#45;&gt;Node254393 -->
<g id="edge56" class="edge">
<title>Node254194&#45;&gt;Node254393</title>
<path fill="none" stroke="#191970" d="M48.0736,-760.2074C57.3927,-725.089 90.7404,-602.3381 127,-504 206.6075,-288.0996 158.9925,-179.5712 333,-29 339.993,-22.9489 348.7343,-18.8059 357.6454,-15.9743"/>
<polygon fill="#191970" stroke="#191970" points="358.552,-19.3549 367.3069,-13.3882 356.7419,-12.593 358.552,-19.3549"/>
</g>
<!-- Node254196 -->
<g id="node3" class="node">
<title>Node254196</title>
<g id="a_node3"><a xlink:href="quickjs_8c.html#ac2894ff4edcdb4e6841bcce9c76081e3" target="_top" xlink:title="JS_CallInternal">
<polygon fill="none" stroke="#ff0000" points="214,-513.5 214,-532.5 297,-532.5 297,-513.5 214,-513.5"/>
<text text-anchor="middle" x="255.5" y="-520.5" font-family="Helvetica,sans-Serif" font-size="10.00" fill="#000000">JS_CallInternal</text>
</a>
</g>
</g>
<!-- Node254195&#45;&gt;Node254196 -->
<g id="edge2" class="edge">
<title>Node254195&#45;&gt;Node254196</title>
<path fill="none" stroke="#191970" d="M178.2256,-517.0658C185.9345,-516.5331 194.6815,-516.2613 203.4498,-516.2503"/>
<polygon fill="#191970" stroke="#191970" points="203.6557,-519.7526 213.6918,-516.3574 203.729,-512.753 203.6557,-519.7526"/>
</g>
<!-- Node254196&#45;&gt;Node254195 -->
<g id="edge49" class="edge">
<title>Node254196&#45;&gt;Node254195</title>
<path fill="none" stroke="#191970" d="M213.6918,-529.6426C205.2502,-529.8317 196.4481,-529.7711 188.2376,-529.4608"/>
<polygon fill="#191970" stroke="#191970" points="188.3956,-525.9643 178.2256,-528.9342 188.0279,-532.9547 188.3956,-525.9643"/>
</g>
<!-- Node254196&#45;&gt;Node254196 -->
<g id="edge50" class="edge">
<title>Node254196&#45;&gt;Node254196</title>
<path fill="none" stroke="#191970" d="M239.7788,-532.7571C232.1307,-541.5653 237.3711,-551 255.5,-551 266.8306,-551 273.1266,-547.3146 274.388,-542.4"/>
<polygon fill="#191970" stroke="#191970" points="277.6666,-541.1658 271.2212,-532.7571 271.0161,-543.3499 277.6666,-541.1658"/>
</g>
<!-- Node254197 -->
<g id="node4" class="node">
<title>Node254197</title>
<g id="a_node4"><a xlink:href="quickjs_8c.html#a853f0924d441ea4225488f37c8b69f9a" target="_top" xlink:title="__attribute__">
<polygon fill="none" stroke="#000000" points="532,-817.5 532,-836.5 605,-836.5 605,-817.5 532,-817.5"/>
<text text-anchor="middle" x="568.5" y="-824.5" font-family="Helvetica,sans-Serif" font-size="10.00" fill="#000000">__attribute__</text>
</a>
</g>
</g>
<!-- Node254196&#45;&gt;Node254197 -->
<g id="edge3" class="edge">
<title>Node254196&#45;&gt;Node254197</title>
<path fill="none" stroke="#191970" d="M256.4099,-532.6723C261.1069,-580.3031 284.2936,-789.1527 333,-827 390.3867,-871.5924 481.6205,-854.2592 532.0303,-839.4976"/>
<polygon fill="#191970" stroke="#191970" points="533.2996,-842.7697 541.8433,-836.5044 531.2572,-836.0743 533.2996,-842.7697"/>
</g>
<!-- Node254198 -->
<g id="node5" class="node">
<title>Node254198</title>
<g id="a_node5"><a xlink:href="quickjs_8c.html#a877fcb7651d95b411ce70e62b7f4a1f0" target="_top" xlink:title="__JS_AtomFromUInt32">
<polygon fill="none" stroke="#000000" points="509,-313.5 509,-332.5 628,-332.5 628,-313.5 509,-313.5"/>
<text text-anchor="middle" x="568.5" y="-320.5" font-family="Helvetica,sans-Serif" font-size="10.00" fill="#000000">__JS_AtomFromUInt32</text>
</a>
</g>
</g>
<!-- Node254196&#45;&gt;Node254198 -->
<g id="edge4" class="edge">
<title>Node254196&#45;&gt;Node254198</title>
<path fill="none" stroke="#191970" d="M256.0061,-513.3313C258.2692,-481.1284 270.3513,-377.0639 333,-333 388.5836,-293.9053 471.1484,-301.322 522.3025,-311.359"/>
<polygon fill="#191970" stroke="#191970" points="521.9061,-314.8512 532.4087,-313.4564 523.3286,-307.9973 521.9061,-314.8512"/>
</g>
<!-- Node254199 -->
<g id="node6" class="node">
<title>Node254199</title>
<g id="a_node6"><a xlink:href="quickjs_8c.html#a74547db03bf739a52c83a326b32db997" target="_top" xlink:title="add_property">
<polygon fill="none" stroke="#ff0000" points="532,-413.5 532,-432.5 605,-432.5 605,-413.5 532,-413.5"/>
<text text-anchor="middle" x="568.5" y="-420.5" font-family="Helvetica,sans-Serif" font-size="10.00" fill="#000000">add_property</text>
</a>
</g>
</g>
<!-- Node254196&#45;&gt;Node254199 -->
<g id="edge5" class="edge">
<title>Node254196&#45;&gt;Node254199</title>
<path fill="none" stroke="#191970" d="M258.5689,-513.2872C266.4895,-490.0946 290.0631,-431.7297 333,-409 397.2097,-375.009 485.5039,-394.8444 533.6784,-410.2329"/>
<polygon fill="#191970" stroke="#191970" points="532.7329,-413.6067 543.3262,-413.4282 534.9337,-406.9617 532.7329,-413.6067"/>
</g>
<!-- Node254241 -->
<g id="node7" class="node">
<title>Node254241</title>
<g id="a_node7"><a xlink:href="quickjs_8c.html#a4956f45ffd2849b96dc051277264f87a" target="_top" xlink:title="build_arg_list">
<polygon fill="none" stroke="#ff0000" points="366,-646.5 366,-665.5 440,-665.5 440,-646.5 366,-646.5"/>
<text text-anchor="middle" x="403" y="-653.5" font-family="Helvetica,sans-Serif" font-size="10.00" fill="#000000">build_arg_list</text>
</a>
</g>
</g>
<!-- Node254196&#45;&gt;Node254241 -->
<g id="edge6" class="edge">
<title>Node254196&#45;&gt;Node254241</title>
<path fill="none" stroke="#191970" d="M259.271,-532.658C268.3938,-554.723 293.8326,-609.0741 333,-637 339.9273,-641.9391 348.0738,-645.5946 356.3134,-648.3"/>
<polygon fill="#191970" stroke="#191970" points="355.3844,-651.6745 365.9613,-651.0594 357.3093,-644.9444 355.3844,-651.6745"/>
</g>
<!-- Node254242 -->
<g id="node8" class="node">
<title>Node254242</title>
<g id="a_node8"><a xlink:href="quickjs_8c.html#ac864482356b3efc2d0b0a509fcfa4c7c" target="_top" xlink:title="free_arg_list">
<polygon fill="none" stroke="#ff0000" points="533.5,-646.5 533.5,-665.5 603.5,-665.5 603.5,-646.5 533.5,-646.5"/>
<text text-anchor="middle" x="568.5" y="-653.5" font-family="Helvetica,sans-Serif" font-size="10.00" fill="#000000">free_arg_list</text>
</a>
</g>
</g>
<!-- Node254196&#45;&gt;Node254242 -->
<g id="edge13" class="edge">
<title>Node254196&#45;&gt;Node254242</title>
<path fill="none" stroke="#191970" d="M256.9698,-532.8119C261.7872,-561.0396 279.9578,-642.5056 333,-675 397.002,-714.2085 489.8293,-687.6585 537.5747,-669.3239"/>
<polygon fill="#191970" stroke="#191970" points="539.0483,-672.5047 547.0522,-665.5628 536.4663,-665.9983 539.0483,-672.5047"/>
</g>
<!-- Node254196&#45;&gt;Node254243 -->
<g id="edge51" class="edge">
<title>Node254196&#45;&gt;Node254243</title>
<path fill="none" stroke="#191970" d="M256.2414,-532.5054C259.2082,-563.2042 273.1586,-659.9645 333,-699 443.1757,-770.8694 506.9292,-726.4371 628,-675 650.1458,-665.5913 671.6085,-648.1707 685.8588,-635.0547"/>
<polygon fill="#191970" stroke="#191970" points="688.5268,-637.3477 693.3664,-627.9228 683.7056,-632.2726 688.5268,-637.3477"/>
</g>
<!-- Node254196&#45;&gt;Node254253 -->
<g id="edge52" class="edge">
<title>Node254196&#45;&gt;Node254253</title>
<path fill="none" stroke="#191970" d="M297.3154,-520.5743C341.1951,-518.5959 412.1228,-517.0029 473,-523 488.3093,-524.5081 504.8018,-527.3449 519.7019,-530.3751"/>
<polygon fill="#191970" stroke="#191970" points="519.2218,-533.8508 529.7289,-532.4899 520.6665,-527.0015 519.2218,-533.8508"/>
</g>
<!-- Node254352 -->
<g id="node11" class="node">
<title>Node254352</title>
<g id="a_node11"><a xlink:href="quickjs_8c.html#a80b89f140c8e343469b5c98482a4310d" target="_top" xlink:title="build_backtrace">
<polygon fill="none" stroke="#ff0000" points="360.5,-190.5 360.5,-209.5 445.5,-209.5 445.5,-190.5 360.5,-190.5"/>
<text text-anchor="middle" x="403" y="-197.5" font-family="Helvetica,sans-Serif" font-size="10.00" fill="#000000">build_backtrace</text>
</a>
</g>
</g>
<!-- Node254196&#45;&gt;Node254352 -->
<g id="edge10" class="edge">
<title>Node254196&#45;&gt;Node254352</title>
<path fill="none" stroke="#191970" d="M256.7471,-513.4756C262.9496,-467.4481 291.8258,-268.459 333,-224 337.9813,-218.6213 344.2198,-214.4481 350.9076,-211.2101"/>
<polygon fill="#191970" stroke="#191970" points="352.3304,-214.4092 360.2299,-207.3489 349.6517,-207.9419 352.3304,-214.4092"/>
</g>
<!-- Node254432 -->
<g id="node12" class="node">
<title>Node254432</title>
<g id="a_node12"><a xlink:href="quickjs_8c.html#a344894112559c2ba75043fd10bcfa02f" target="_top" xlink:title="close_lexical_var">
<polygon fill="none" stroke="#ff0000" points="357,-152.5 357,-171.5 449,-171.5 449,-152.5 357,-152.5"/>
<text text-anchor="middle" x="403" y="-159.5" font-family="Helvetica,sans-Serif" font-size="10.00" fill="#000000">close_lexical_var</text>
</a>
</g>
</g>
<!-- Node254196&#45;&gt;Node254432 -->
<g id="edge11" class="edge">
<title>Node254196&#45;&gt;Node254432</title>
<path fill="none" stroke="#191970" d="M256.3548,-513.4191C261.0195,-463.2382 284.9705,-231.1003 333,-181 337.1312,-176.6907 342.1327,-173.3259 347.5407,-170.7035"/>
<polygon fill="#191970" stroke="#191970" points="348.9504,-173.9095 356.9436,-166.9554 346.3584,-167.407 348.9504,-173.9095"/>
</g>
<!-- Node254433 -->
<g id="node13" class="node">
<title>Node254433</title>
<g id="a_node13"><a xlink:href="quickjs_8c.html#a1782043fce951bd4f0d91c7796b31e24" target="_top" xlink:title="close_var_refs">
<polygon fill="none" stroke="#ff0000" points="363,-114.5 363,-133.5 443,-133.5 443,-114.5 363,-114.5"/>
<text text-anchor="middle" x="403" y="-121.5" font-family="Helvetica,sans-Serif" font-size="10.00" fill="#000000">close_var_refs</text>
</a>
</g>
</g>
<!-- Node254196&#45;&gt;Node254433 -->
<g id="edge12" class="edge">
<title>Node254196&#45;&gt;Node254433</title>
<path fill="none" stroke="#191970" d="M256.8635,-513.2823C264.8822,-456.7045 306.4547,-171.2969 333,-143 338.452,-137.1883 345.4859,-133.0888 352.9864,-130.2102"/>
<polygon fill="#191970" stroke="#191970" points="354.1577,-133.5111 362.6528,-127.1799 352.0637,-126.8316 354.1577,-133.5111"/>
</g>
<!-- Node254236 -->
<g id="node14" class="node">
<title>Node254236</title>
<g id="a_node14"><a xlink:href="quickjs_8c.html#a9e7b4bccf927d811b0f99b40b08c0472" target="_top" xlink:title="free_var_ref">
<polygon fill="none" stroke="#ff0000" points="534.5,-266.5 534.5,-285.5 602.5,-285.5 602.5,-266.5 534.5,-266.5"/>
<text text-anchor="middle" x="568.5" y="-273.5" font-family="Helvetica,sans-Serif" font-size="10.00" fill="#000000">free_var_ref</text>
</a>
</g>
</g>
<!-- Node254196&#45;&gt;Node254236 -->
<g id="edge14" class="edge">
<title>Node254196&#45;&gt;Node254236</title>
<path fill="none" stroke="#191970" d="M257.403,-513.4752C265.3832,-474.5321 297.3903,-328.1505 333,-300 387.4423,-256.9617 472.5306,-260.2596 524.1459,-267.4906"/>
<polygon fill="#191970" stroke="#191970" points="523.9055,-270.9939 534.3162,-269.0272 524.9513,-264.0725 523.9055,-270.9939"/>
</g>
<!-- Node254435 -->
<g id="node15" class="node">
<title>Node254435</title>
<g id="a_node15"><a xlink:href="cutils_8h.html#a7c82a3ee025fee89db5b11ff5b7691b8" target="_top" xlink:title="get_i16">
<polygon fill="none" stroke="#000000" points="379,-76.5 379,-95.5 427,-95.5 427,-76.5 379,-76.5"/>
<text text-anchor="middle" x="403" y="-83.5" font-family="Helvetica,sans-Serif" font-size="10.00" fill="#000000">get_i16</text>
</a>
</g>
</g>
<!-- Node254196&#45;&gt;Node254435 -->
<g id="edge15" class="edge">
<title>Node254196&#45;&gt;Node254435</title>
<path fill="none" stroke="#191970" d="M256.9719,-513.4784C266.4069,-452.6762 318.4648,-120.7743 333,-105 342.1571,-95.0623 355.9374,-90.1175 368.8559,-87.7259"/>
<polygon fill="#191970" stroke="#191970" points="369.5121,-91.1681 378.9268,-86.3086 368.5366,-84.2364 369.5121,-91.1681"/>
</g>
<!-- Node254436 -->
<g id="node16" class="node">
<title>Node254436</title>
<g id="a_node16"><a xlink:href="cutils_8h.html#a288ee4e688944e23500af2ecc813c306" target="_top" xlink:title="get_i8">
<polygon fill="none" stroke="#000000" points="381.5,-38.5 381.5,-57.5 424.5,-57.5 424.5,-38.5 381.5,-38.5"/>
<text text-anchor="middle" x="403" y="-45.5" font-family="Helvetica,sans-Serif" font-size="10.00" fill="#000000">get_i8</text>
</a>
</g>
</g>
<!-- Node254196&#45;&gt;Node254436 -->
<g id="edge16" class="edge">
<title>Node254196&#45;&gt;Node254436</title>
<path fill="none" stroke="#191970" d="M257.0082,-513.2528C267.1398,-447.8916 325.1235,-75.6774 333,-67 342.6444,-56.3748 357.5726,-51.4441 371.1697,-49.2437"/>
<polygon fill="#191970" stroke="#191970" points="371.685,-52.7071 381.1985,-48.044 370.8535,-45.7566 371.685,-52.7071"/>
</g>
<!-- Node254437 -->
<g id="node17" class="node">
<title>Node254437</title>
<g id="a_node17"><a xlink:href="cutils_8h.html#ad587834d17e95461893d59661e5e9676" target="_top" xlink:title="get_u16">
<polygon fill="none" stroke="#000000" points="377.5,-988.5 377.5,-1007.5 428.5,-1007.5 428.5,-988.5 377.5,-988.5"/>
<text text-anchor="middle" x="403" y="-995.5" font-family="Helvetica,sans-Serif" font-size="10.00" fill="#000000">get_u16</text>
</a>
</g>
</g>
<!-- Node254196&#45;&gt;Node254437 -->
<g id="edge17" class="edge">
<title>Node254196&#45;&gt;Node254437</title>
<path fill="none" stroke="#191970" d="M255.7771,-532.8391C257.6666,-592.9312 270.528,-910.1752 333,-979 341.6619,-988.5427 354.5857,-993.4921 366.9795,-995.9957"/>
<polygon fill="#191970" stroke="#191970" points="366.7429,-999.5006 377.1604,-997.5705 367.813,-992.5829 366.7429,-999.5006"/>
</g>
<!-- Node254438 -->
<g id="node18" class="node">
<title>Node254438</title>
<g id="a_node18"><a xlink:href="cutils_8h.html#a941262a5f72fda2ec43ae7911e97a0dc" target="_top" xlink:title="get_u32">
<polygon fill="none" stroke="#000000" points="377.5,-950.5 377.5,-969.5 428.5,-969.5 428.5,-950.5 377.5,-950.5"/>
<text text-anchor="middle" x="403" y="-957.5" font-family="Helvetica,sans-Serif" font-size="10.00" fill="#000000">get_u32</text>
</a>
</g>
</g>
<!-- Node254196&#45;&gt;Node254438 -->
<g id="edge18" class="edge">
<title>Node254196&#45;&gt;Node254438</title>
<path fill="none" stroke="#191970" d="M255.9379,-532.754C258.6874,-589.664 275.3594,-878.4456 333,-941 341.7331,-950.4776 354.6712,-955.4139 367.0565,-957.9253"/>
<polygon fill="#191970" stroke="#191970" points="366.8058,-961.4284 377.2256,-959.5109 367.8843,-954.5119 366.8058,-961.4284"/>
</g>
<!-- Node254439 -->
<g id="node19" class="node">
<title>Node254439</title>
<g id="a_node19"><a xlink:href="quickjs_8c.html#a37fe43b6649456a848bd54846450b995" target="_top" xlink:title="get_var_ref">
<polygon fill="none" stroke="#ff0000" points="536,-228.5 536,-247.5 601,-247.5 601,-228.5 536,-228.5"/>
<text text-anchor="middle" x="568.5" y="-235.5" font-family="Helvetica,sans-Serif" font-size="10.00" fill="#000000">get_var_ref</text>
</a>
</g>
</g>
<!-- Node254196&#45;&gt;Node254439 -->
<g id="edge19" class="edge">
<title>Node254196&#45;&gt;Node254439</title>
<path fill="none" stroke="#191970" d="M256.9006,-513.2874C263.3736,-469.8298 291.8381,-293.8818 333,-260 387.131,-215.4429 473.8108,-220.534 525.5449,-228.8678"/>
<polygon fill="#191970" stroke="#191970" points="525.2684,-232.3717 535.7176,-230.6213 526.4575,-225.4734 525.2684,-232.3717"/>
</g>
<!-- Node254388 -->
<g id="node20" class="node">
<title>Node254388</title>
<g id="a_node20"><a xlink:href="list_8h.html#a663527a4d757540b2177bef0db1ce5c0" target="_top" xlink:title="init_list_head">
<polygon fill="none" stroke="#000000" points="366,-912.5 366,-931.5 440,-931.5 440,-912.5 366,-912.5"/>
<text text-anchor="middle" x="403" y="-919.5" font-family="Helvetica,sans-Serif" font-size="10.00" fill="#000000">init_list_head</text>
</a>
</g>
</g>
<!-- Node254196&#45;&gt;Node254388 -->
<g id="edge20" class="edge">
<title>Node254196&#45;&gt;Node254388</title>
<path fill="none" stroke="#191970" d="M256.1201,-532.5612C259.7707,-585.9341 280.1397,-846.6517 333,-903 339.1971,-909.606 347.438,-913.9997 356.085,-916.9029"/>
<polygon fill="#191970" stroke="#191970" points="355.3646,-920.3341 365.933,-919.5857 357.2046,-913.5802 355.3646,-920.3341"/>
</g>
<!-- Node254369 -->
<g id="node21" class="node">
<title>Node254369</title>
<g id="a_node21"><a xlink:href="quickjs_8c.html#a686cf78f8b0361621ee2ba6182195c31" target="_top" xlink:title="is_strict_mode">
<polygon fill="none" stroke="#000000" points="363,-874.5 363,-893.5 443,-893.5 443,-874.5 363,-874.5"/>
<text text-anchor="middle" x="403" y="-881.5" font-family="Helvetica,sans-Serif" font-size="10.00" fill="#000000">is_strict_mode</text>
</a>
</g>
</g>
<!-- Node254196&#45;&gt;Node254369 -->
<g id="edge21" class="edge">
<title>Node254196&#45;&gt;Node254369</title>
<path fill="none" stroke="#191970" d="M256.4683,-532.7138C261.6186,-582.5613 287.2941,-809.2621 333,-860 338.5629,-866.1754 345.7848,-870.7623 353.4718,-874.1692"/>
<polygon fill="#191970" stroke="#191970" points="352.407,-877.5083 362.9986,-877.7672 354.8801,-870.9598 352.407,-877.5083"/>
</g>
<!-- Node254440 -->
<g id="node22" class="node">
<title>Node254440</title>
<g id="a_node22"><a xlink:href="quickjs_8c.html#ae8ff05447c0d51fe277baccf616dc7c6" target="_top" xlink:title="js_add_slow">
<polygon fill="none" stroke="#ff0000" points="367.5,-608.5 367.5,-627.5 438.5,-627.5 438.5,-608.5 367.5,-608.5"/>
<text text-anchor="middle" x="403" y="-615.5" font-family="Helvetica,sans-Serif" font-size="10.00" fill="#000000">js_add_slow</text>
</a>
</g>
</g>
<!-- Node254196&#45;&gt;Node254440 -->
<g id="edge22" class="edge">
<title>Node254196&#45;&gt;Node254440</title>
<path fill="none" stroke="#191970" d="M262.4929,-532.5099C274.8734,-548.6553 302.2606,-581.3861 333,-599 340.5389,-603.3198 349.0991,-606.6913 357.5825,-609.3118"/>
<polygon fill="#191970" stroke="#191970" points="356.8678,-612.7458 367.4401,-612.0549 358.7445,-606.0021 356.8678,-612.7458"/>
</g>
<!-- Node254447 -->
<g id="node23" class="node">
<title>Node254447</title>
<g id="a_node23"><a xlink:href="quickjs_8c.html#a6a21784a40b8684f2e779bd460dd13b2" target="_top" xlink:title="JS_AddBrand">
<polygon fill="none" stroke="#ff0000" points="364.5,-456.5 364.5,-475.5 441.5,-475.5 441.5,-456.5 364.5,-456.5"/>
<text text-anchor="middle" x="403" y="-463.5" font-family="Helvetica,sans-Serif" font-size="10.00" fill="#000000">JS_AddBrand</text>
</a>
</g>
</g>
<!-- Node254196&#45;&gt;Node254447 -->
<g id="edge25" class="edge">
<title>Node254196&#45;&gt;Node254447</title>
<path fill="none" stroke="#191970" d="M276.7127,-513.4774C292.194,-506.6482 313.7492,-497.3876 333,-490 342.8953,-486.2026 353.6827,-482.3602 363.7594,-478.8962"/>
<polygon fill="#191970" stroke="#191970" points="365.197,-482.1044 373.5399,-475.5741 362.9455,-475.4763 365.197,-482.1044"/>
</g>
<!-- Node254450 -->
<g id="node24" class="node">
<title>Node254450</title>
<g id="a_node24"><a xlink:href="quickjs_8c.html#a43208b0746998d2b6b9b8bd1ef8b5f99" target="_top" xlink:title="js_append_enumerate">
<polygon fill="none" stroke="#ff0000" points="347,-760.5 347,-779.5 459,-779.5 459,-760.5 347,-760.5"/>
<text text-anchor="middle" x="403" y="-767.5" font-family="Helvetica,sans-Serif" font-size="10.00" fill="#000000">js_append_enumerate</text>
</a>
</g>
</g>
<!-- Node254196&#45;&gt;Node254450 -->
<g id="edge29" class="edge">
<title>Node254196&#45;&gt;Node254450</title>
<path fill="none" stroke="#191970" d="M255.96,-532.58C258.1126,-566.6478 269.9779,-683.2407 333,-746 336.9827,-749.9661 341.6486,-753.2775 346.6478,-756.0423"/>
<polygon fill="#191970" stroke="#191970" points="345.3963,-759.3225 355.9308,-760.4516 348.3997,-752.9996 345.3963,-759.3225"/>
</g>
<!-- Node254278 -->
<g id="node25" class="node">
<title>Node254278</title>
<g id="a_node25"><a xlink:href="quickjs_8c.html#a260bfa297ff6cb5bd18e229afaa54663" target="_top" xlink:title="JS_AtomToString">
<polygon fill="none" stroke="#ff0000" points="356,-798.5 356,-817.5 450,-817.5 450,-798.5 356,-798.5"/>
<text text-anchor="middle" x="403" y="-805.5" font-family="Helvetica,sans-Serif" font-size="10.00" fill="#000000">JS_AtomToString</text>
</a>
</g>
</g>
<!-- Node254196&#45;&gt;Node254278 -->
<g id="edge33" class="edge">
<title>Node254196&#45;&gt;Node254278</title>
<path fill="none" stroke="#191970" d="M257.028,-532.6606C264.0531,-575.9086 294.5562,-751.2595 333,-789 336.9314,-792.8595 341.5635,-795.9547 346.542,-798.4342"/>
<polygon fill="#191970" stroke="#191970" points="345.2223,-801.6759 355.8008,-802.2644 347.8982,-795.2075 345.2223,-801.6759"/>
</g>
<!-- Node254476 -->
<g id="node26" class="node">
<title>Node254476</title>
<g id="a_node26"><a xlink:href="quickjs_8c.html#afa67965c1017685fc6783776d6d0d4d7" target="_top" xlink:title="JS_AtomToValue">
<polygon fill="none" stroke="#ff0000" points="356.5,-532.5 356.5,-551.5 449.5,-551.5 449.5,-532.5 356.5,-532.5"/>
<text text-anchor="middle" x="403" y="-539.5" font-family="Helvetica,sans-Serif" font-size="10.00" fill="#000000">JS_AtomToValue</text>
</a>
</g>
</g>
<!-- Node254196&#45;&gt;Node254476 -->
<g id="edge34" class="edge">
<title>Node254196&#45;&gt;Node254476</title>
<path fill="none" stroke="#191970" d="M297.373,-528.3938C312.608,-530.3563 330.0902,-532.6082 346.39,-534.7079"/>
<polygon fill="#191970" stroke="#191970" points="345.9902,-538.1852 356.3554,-535.9915 346.8845,-531.2426 345.9902,-538.1852"/>
</g>
<!-- Node254477 -->
<g id="node27" class="node">
<title>Node254477</title>
<g id="a_node27"><a xlink:href="quickjs_8c.html#a04d312757919ff6b4d79cd0c2c3e5bb2" target="_top" xlink:title="js_build_arguments">
<polygon fill="none" stroke="#ff0000" points="352.5,-418.5 352.5,-437.5 453.5,-437.5 453.5,-418.5 352.5,-418.5"/>
<text text-anchor="middle" x="403" y="-425.5" font-family="Helvetica,sans-Serif" font-size="10.00" fill="#000000">js_build_arguments</text>
</a>
</g>
</g>
<!-- Node254196&#45;&gt;Node254477 -->
<g id="edge35" class="edge">
<title>Node254196&#45;&gt;Node254477</title>
<path fill="none" stroke="#191970" d="M262.4929,-513.4901C274.8734,-497.3447 302.2606,-464.6139 333,-447 336.9163,-444.756 341.1081,-442.7678 345.4217,-441.008"/>
<polygon fill="#191970" stroke="#191970" points="346.8075,-444.228 354.9994,-437.5091 344.4055,-437.653 346.8075,-444.228"/>
</g>
<!-- Node254478 -->
<g id="node28" class="node">
<title>Node254478</title>
<g id="a_node28"><a xlink:href="quickjs_8c.html#a1c459034f2971c4abc3a8d6d4693ef5f" target="_top" xlink:title="js_build_mapped_arguments">
<polygon fill="none" stroke="#ff0000" points="333,-342.5 333,-361.5 473,-361.5 473,-342.5 333,-342.5"/>
<text text-anchor="middle" x="403" y="-349.5" font-family="Helvetica,sans-Serif" font-size="10.00" fill="#000000">js_build_mapped_arguments</text>
</a>
</g>
</g>
<!-- Node254196&#45;&gt;Node254478 -->
<g id="edge39" class="edge">
<title>Node254196&#45;&gt;Node254478</title>
<path fill="none" stroke="#191970" d="M257.9446,-513.1734C264.9608,-486.9787 287.6309,-414.8352 333,-376 337.8037,-371.8881 343.3478,-368.4702 349.17,-365.6314"/>
<polygon fill="#191970" stroke="#191970" points="350.6755,-368.794 358.4816,-361.6306 347.9121,-362.3625 350.6755,-368.794"/>
</g>
<!-- Node254479 -->
<g id="node29" class="node">
<title>Node254479</title>
<g id="a_node29"><a xlink:href="quickjs_8c.html#a72f4829a5b32f5445fe3f2a59efeb8ea" target="_top" xlink:title="js_build_rest">
<polygon fill="none" stroke="#ff0000" points="367.5,-570.5 367.5,-589.5 438.5,-589.5 438.5,-570.5 367.5,-570.5"/>
<text text-anchor="middle" x="403" y="-577.5" font-family="Helvetica,sans-Serif" font-size="10.00" fill="#000000">js_build_rest</text>
</a>
</g>
</g>
<!-- Node254196&#45;&gt;Node254479 -->
<g id="edge46" class="edge">
<title>Node254196&#45;&gt;Node254479</title>
<path fill="none" stroke="#191970" d="M272.6229,-532.5772C288.0538,-540.9195 311.5461,-552.9134 333,-561 340.7907,-563.9365 349.2265,-566.6236 357.4544,-568.9942"/>
<polygon fill="#191970" stroke="#191970" points="356.7592,-572.4332 367.3303,-571.7243 358.6244,-565.6863 356.7592,-572.4332"/>
</g>
<!-- Node254196&#45;&gt;Node254393 -->
<g id="edge53" class="edge">
<title>Node254196&#45;&gt;Node254393</title>
<path fill="none" stroke="#191970" d="M257.0032,-513.1823C267.6144,-443.9057 330.8771,-31.3689 333,-29 339.3568,-21.9065 348.0683,-17.3461 357.1881,-14.4412"/>
<polygon fill="#191970" stroke="#191970" points="358.3288,-17.7623 367.1522,-11.8972 356.5971,-10.9799 358.3288,-17.7623"/>
</g>
<!-- Node254241&#45;&gt;Node254242 -->
<g id="edge7" class="edge">
<title>Node254241&#45;&gt;Node254242</title>
<path fill="none" stroke="#191970" d="M440.1414,-656C464.7928,-656 497.2972,-656 523.4282,-656"/>
<polygon fill="#191970" stroke="#191970" points="523.4642,-659.5001 533.4642,-656 523.4641,-652.5001 523.4642,-659.5001"/>
</g>
<!-- Node254241&#45;&gt;Node254253 -->
<g id="edge9" class="edge">
<title>Node254241&#45;&gt;Node254253</title>
<path fill="none" stroke="#191970" d="M440.0259,-649.7335C451.107,-646.8795 462.9688,-642.7957 473,-637 507.7048,-616.9489 538.7446,-581.1661 555.472,-559.7027"/>
<polygon fill="#191970" stroke="#191970" points="558.2722,-561.8026 561.543,-551.7252 552.7018,-557.5633 558.2722,-561.8026"/>
</g>
<!-- Node254242&#45;&gt;Node254243 -->
<g id="edge8" class="edge">
<title>Node254242&#45;&gt;Node254243</title>
<path fill="none" stroke="#191970" d="M602.44,-646.411C619.7231,-641.5281 640.9329,-635.5357 659.4112,-630.315"/>
<polygon fill="#191970" stroke="#191970" points="660.3992,-633.673 669.0708,-627.5859 658.4959,-626.9367 660.3992,-633.673"/>
</g>
<!-- Node254440&#45;&gt;Node254243 -->
<g id="edge23" class="edge">
<title>Node254440&#45;&gt;Node254243</title>
<path fill="none" stroke="#191970" d="M438.592,-618C491.9984,-618 593.0434,-618 653.5736,-618"/>
<polygon fill="#191970" stroke="#191970" points="653.6551,-621.5001 663.655,-618 653.655,-614.5001 653.6551,-621.5001"/>
</g>
<!-- Node254440&#45;&gt;Node254253 -->
<g id="edge24" class="edge">
<title>Node254440&#45;&gt;Node254253</title>
<path fill="none" stroke="#191970" d="M438.5282,-610.3622C449.7728,-607.4174 462.1047,-603.6267 473,-599 499.7281,-587.6499 528.011,-569.9639 546.7976,-557.3032"/>
<polygon fill="#191970" stroke="#191970" points="548.9368,-560.0803 555.2089,-551.5415 544.9809,-554.3053 548.9368,-560.0803"/>
</g>
<!-- Node254447&#45;&gt;Node254199 -->
<g id="edge26" class="edge">
<title>Node254447&#45;&gt;Node254199</title>
<path fill="none" stroke="#191970" d="M439.7298,-456.4569C463.942,-450.1661 495.8614,-441.8729 521.863,-435.1172"/>
<polygon fill="#191970" stroke="#191970" points="523.0744,-438.4187 531.8729,-432.5164 521.314,-431.6437 523.0744,-438.4187"/>
</g>
<!-- Node254447&#45;&gt;Node254243 -->
<g id="edge27" class="edge">
<title>Node254447&#45;&gt;Node254243</title>
<path fill="none" stroke="#191970" d="M441.8218,-468.279C489.2165,-472.6706 570.1854,-485.5081 628,-523 657.9667,-542.433 681.2025,-577.9389 693.4354,-599.6084"/>
<polygon fill="#191970" stroke="#191970" points="690.4113,-601.3737 698.2663,-608.4836 696.5595,-598.0271 690.4113,-601.3737"/>
</g>
<!-- Node254447&#45;&gt;Node254253 -->
<g id="edge28" class="edge">
<title>Node254447&#45;&gt;Node254253</title>
<path fill="none" stroke="#191970" d="M436.0566,-475.541C447.9516,-479.4381 461.3128,-484.3629 473,-490 490.1014,-498.2485 492.4389,-503.7143 509,-513 518.3218,-518.2267 528.7231,-523.4831 538.1894,-528.0578"/>
<polygon fill="#191970" stroke="#191970" points="536.7357,-531.2421 547.2694,-532.379 539.7438,-524.9214 536.7357,-531.2421"/>
</g>
<!-- Node254450&#45;&gt;Node254197 -->
<g id="edge30" class="edge">
<title>Node254450&#45;&gt;Node254197</title>
<path fill="none" stroke="#191970" d="M441.3817,-779.5747C451.7178,-782.3819 462.8461,-785.614 473,-789 494.6669,-796.2252 518.5411,-805.7249 536.999,-813.4184"/>
<polygon fill="#191970" stroke="#191970" points="535.8072,-816.7141 546.3818,-817.3678 538.5229,-810.2623 535.8072,-816.7141"/>
</g>
<!-- Node254450&#45;&gt;Node254243 -->
<g id="edge32" class="edge">
<title>Node254450&#45;&gt;Node254243</title>
<path fill="none" stroke="#191970" d="M459.3963,-777.3769C507.9257,-780.7854 577.8424,-778.3993 628,-746 667.3273,-720.5965 688.6192,-666.7323 697.6598,-637.6338"/>
<polygon fill="#191970" stroke="#191970" points="701.0865,-638.3857 700.5368,-627.8051 694.3684,-636.4191 701.0865,-638.3857"/>
</g>
<!-- Node254450&#45;&gt;Node254253 -->
<g id="edge31" class="edge">
<title>Node254450&#45;&gt;Node254253</title>
<path fill="none" stroke="#191970" d="M410.1942,-760.3189C422.9237,-743.1707 450.2233,-706.3125 473,-675 502.7851,-634.0527 537.3565,-585.6973 555.6334,-560.0671"/>
<polygon fill="#191970" stroke="#191970" points="558.637,-561.8832 561.5907,-551.7084 552.9366,-557.8204 558.637,-561.8832"/>
</g>
<!-- Node254477&#45;&gt;Node254199 -->
<g id="edge36" class="edge">
<title>Node254477&#45;&gt;Node254199</title>
<path fill="none" stroke="#191970" d="M453.5547,-426.4727C475.2848,-425.8162 500.524,-425.0537 521.8073,-424.4107"/>
<polygon fill="#191970" stroke="#191970" points="522.0152,-427.9061 531.9049,-424.1056 521.8038,-420.9093 522.0152,-427.9061"/>
</g>
<!-- Node254477&#45;&gt;Node254243 -->
<g id="edge37" class="edge">
<title>Node254477&#45;&gt;Node254243</title>
<path fill="none" stroke="#191970" d="M453.7377,-436.2473C515.7496,-446.6882 614.1875,-464.5683 628,-475 669.4233,-506.2844 690.1612,-567.1269 698.4658,-598.4006"/>
<polygon fill="#191970" stroke="#191970" points="695.0778,-599.2796 700.8983,-608.1324 701.8689,-597.5821 695.0778,-599.2796"/>
</g>
<!-- Node254477&#45;&gt;Node254253 -->
<g id="edge38" class="edge">
<title>Node254477&#45;&gt;Node254253</title>
<path fill="none" stroke="#191970" d="M451.3935,-437.5889C458.893,-440.067 466.3489,-443.1572 473,-447 491.2838,-457.5637 531.2939,-500.4967 553.2801,-524.8748"/>
<polygon fill="#191970" stroke="#191970" points="550.7067,-527.2476 559.9879,-532.3573 555.9189,-522.575 550.7067,-527.2476"/>
</g>
<!-- Node254478&#45;&gt;Node254198 -->
<g id="edge40" class="edge">
<title>Node254478&#45;&gt;Node254198</title>
<path fill="none" stroke="#191970" d="M457.6496,-342.4239C472.5559,-339.812 488.8428,-336.9581 504.2311,-334.2616"/>
<polygon fill="#191970" stroke="#191970" points="504.9442,-337.6901 514.19,-332.5165 503.736,-330.7951 504.9442,-337.6901"/>
</g>
<!-- Node254478&#45;&gt;Node254199 -->
<g id="edge41" class="edge">
<title>Node254478&#45;&gt;Node254199</title>
<path fill="none" stroke="#191970" d="M433.6351,-361.5659C445.9943,-365.667 460.3058,-370.7252 473,-376 496.7949,-385.8874 523.0019,-398.9481 541.9336,-408.7916"/>
<polygon fill="#191970" stroke="#191970" points="540.378,-411.9279 550.8594,-413.4745 543.6301,-405.7292 540.378,-411.9279"/>
</g>
<!-- Node254478&#45;&gt;Node254243 -->
<g id="edge44" class="edge">
<title>Node254478&#45;&gt;Node254243</title>
<path fill="none" stroke="#191970" d="M473.1885,-351.2367C522.1385,-354.3827 585.9656,-366.3513 628,-404 657.9317,-430.8088 687.8169,-550.9345 698.6977,-598.5087"/>
<polygon fill="#191970" stroke="#191970" points="695.3284,-599.4787 700.9385,-608.4663 702.1576,-597.9419 695.3284,-599.4787"/>
</g>
<!-- Node254478&#45;&gt;Node254253 -->
<g id="edge45" class="edge">
<title>Node254478&#45;&gt;Node254253</title>
<path fill="none" stroke="#191970" d="M416.7988,-361.5416C431.6113,-372.1543 455.3851,-390.2829 473,-409 508.0487,-446.2418 541.0004,-496.8243 557.493,-523.6043"/>
<polygon fill="#191970" stroke="#191970" points="554.6105,-525.6005 562.7979,-532.3249 560.5909,-521.9625 554.6105,-525.6005"/>
</g>
<!-- Node254478&#45;&gt;Node254236 -->
<g id="edge42" class="edge">
<title>Node254478&#45;&gt;Node254236</title>
<path fill="none" stroke="#191970" d="M423.9607,-342.3745C452.9352,-329.069 505.3913,-304.9804 538.5087,-289.7724"/>
<polygon fill="#191970" stroke="#191970" points="540.0825,-292.9012 547.7095,-285.5473 537.1613,-286.5399 540.0825,-292.9012"/>
</g>
<!-- Node254478&#45;&gt;Node254439 -->
<g id="edge43" class="edge">
<title>Node254478&#45;&gt;Node254439</title>
<path fill="none" stroke="#191970" d="M411.0637,-342.4666C427.5668,-323.5294 467.179,-280.9401 509,-257 514.4348,-253.8889 520.4455,-251.2145 526.4956,-248.9382"/>
<polygon fill="#191970" stroke="#191970" points="527.6407,-252.2457 535.9584,-245.6832 525.3637,-245.6263 527.6407,-252.2457"/>
</g>
<!-- Node254479&#45;&gt;Node254243 -->
<g id="edge47" class="edge">
<title>Node254479&#45;&gt;Node254243</title>
<path fill="none" stroke="#191970" d="M438.592,-584.5083C491.9984,-591.2731 593.0434,-604.0722 653.5736,-611.7393"/>
<polygon fill="#191970" stroke="#191970" points="653.2944,-615.2318 663.655,-613.0163 654.1741,-608.2873 653.2944,-615.2318"/>
</g>
<!-- Node254479&#45;&gt;Node254253 -->
<g id="edge48" class="edge">
<title>Node254479&#45;&gt;Node254253</title>
<path fill="none" stroke="#191970" d="M438.5039,-571.848C461.3946,-566.5922 491.5392,-559.6708 517.0365,-553.8164"/>
<polygon fill="#191970" stroke="#191970" points="517.9537,-557.197 526.9168,-551.5478 516.3871,-550.3745 517.9537,-557.197"/>
</g>
</g>
</svg>
