<?xml version="1.0" encoding="UTF-8" standalone="no"?>
<!DOCTYPE svg PUBLIC "-//W3C//DTD SVG 1.1//EN"
 "http://www.w3.org/Graphics/SVG/1.1/DTD/svg11.dtd">
<!-- Generated by graphviz version 2.40.1 (20161225.0304)
 -->
<!-- Title: JS_ToFloat64Free Pages: 1 -->
<svg width="686pt" height="650pt"
 viewBox="0.00 0.00 686.00 649.65" xmlns="http://www.w3.org/2000/svg" xmlns:xlink="http://www.w3.org/1999/xlink">
<g id="graph0" class="graph" transform="scale(1 1) rotate(0) translate(4 645.6532)">
<title>JS_ToFloat64Free</title>
<!-- Node215500 -->
<g id="node1" class="node">
<title>Node215500</title>
<polygon fill="#bfbfbf" stroke="#000000" points="0,-272.5 0,-291.5 97,-291.5 97,-272.5 0,-272.5"/>
<text text-anchor="middle" x="48.5" y="-279.5" font-family="Helvetica,sans-Serif" font-size="10.00" fill="#000000">JS_ToFloat64Free</text>
</g>
<!-- Node215501 -->
<g id="node2" class="node">
<title>Node215501</title>
<g id="a_node2"><a xlink:href="quickjs_8c.html#ae8ff05447c0d51fe277baccf616dc7c6" target="_top" xlink:title="js_add_slow">
<polygon fill="none" stroke="#000000" points="472,-620.5 472,-639.5 543,-639.5 543,-620.5 472,-620.5"/>
<text text-anchor="middle" x="507.5" y="-627.5" font-family="Helvetica,sans-Serif" font-size="10.00" fill="#000000">js_add_slow</text>
</a>
</g>
</g>
<!-- Node215500&#45;&gt;Node215501 -->
<g id="edge1" class="edge">
<title>Node215500&#45;&gt;Node215501</title>
<path fill="none" stroke="#191970" d="M51.8543,-301.63C62.0766,-359.2579 94.5014,-526.2707 133,-564 225.8884,-655.0321 397.5865,-645.0439 471.7948,-635.6047"/>
<polygon fill="#191970" stroke="#191970" points="55.277,-300.8834 50.1107,-291.6336 48.3811,-302.0863 55.277,-300.8834"/>
</g>
<!-- Node216012 -->
<g id="node4" class="node">
<title>Node216012</title>
<g id="a_node4"><a xlink:href="quickjs_8c.html#a341f4d5925a607eeaad8d3cbb03e9de1" target="_top" xlink:title="js_array_cmp_generic">
<polygon fill="none" stroke="#ff0000" points="140,-310.5 140,-329.5 252,-329.5 252,-310.5 140,-310.5"/>
<text text-anchor="middle" x="196" y="-317.5" font-family="Helvetica,sans-Serif" font-size="10.00" fill="#000000">js_array_cmp_generic</text>
</a>
</g>
</g>
<!-- Node215500&#45;&gt;Node216012 -->
<g id="edge4" class="edge">
<title>Node215500&#45;&gt;Node216012</title>
<path fill="none" stroke="#191970" d="M95.5141,-294.1121C116.0566,-299.4044 139.7998,-305.5213 159.0472,-310.4799"/>
<polygon fill="#191970" stroke="#191970" points="96.2775,-290.6946 85.7205,-291.589 94.5311,-297.4732 96.2775,-290.6946"/>
</g>
<!-- Node216061 -->
<g id="node5" class="node">
<title>Node216061</title>
<g id="a_node5"><a xlink:href="quickjs_8c.html#a3c8e7fb12a7f3cf1846a36b0a7fc499f" target="_top" xlink:title="js_binary_arith_slow">
<polygon fill="none" stroke="#000000" points="143.5,-272.5 143.5,-291.5 248.5,-291.5 248.5,-272.5 143.5,-272.5"/>
<text text-anchor="middle" x="196" y="-279.5" font-family="Helvetica,sans-Serif" font-size="10.00" fill="#000000">js_binary_arith_slow</text>
</a>
</g>
</g>
<!-- Node215500&#45;&gt;Node216061 -->
<g id="edge5" class="edge">
<title>Node215500&#45;&gt;Node216061</title>
<path fill="none" stroke="#191970" d="M107.4456,-282C119.2903,-282 131.6664,-282 143.2828,-282"/>
<polygon fill="#191970" stroke="#191970" points="107.2058,-278.5001 97.2058,-282 107.2058,-285.5001 107.2058,-278.5001"/>
</g>
<!-- Node215957 -->
<g id="node6" class="node">
<title>Node215957</title>
<g id="a_node6"><a xlink:href="quickjs_8c.html#a7e4e02ec8849f3beaf28dc0613bb4016" target="_top" xlink:title="js_date_constructor">
<polygon fill="none" stroke="#ff0000" points="306.5,-468.5 306.5,-487.5 408.5,-487.5 408.5,-468.5 306.5,-468.5"/>
<text text-anchor="middle" x="357.5" y="-475.5" font-family="Helvetica,sans-Serif" font-size="10.00" fill="#000000">js_date_constructor</text>
</a>
</g>
</g>
<!-- Node215500&#45;&gt;Node215957 -->
<g id="edge6" class="edge">
<title>Node215500&#45;&gt;Node215957</title>
<path fill="none" stroke="#191970" d="M61.1415,-299.8943C76.3698,-320.4835 103.5972,-354.3588 133,-377 196.9385,-426.2348 220.1139,-428.9289 295,-459 303.6298,-462.4654 313.1437,-465.6601 322.0898,-468.4021"/>
<polygon fill="#191970" stroke="#191970" points="63.9064,-297.7451 55.2011,-291.7061 58.2404,-301.8557 63.9064,-297.7451"/>
</g>
<!-- Node215868 -->
<g id="node7" class="node">
<title>Node215868</title>
<g id="a_node7"><a xlink:href="quickjs_8c.html#a404705cd4008db4015ea19f234721fc2" target="_top" xlink:title="js_eq_slow">
<polygon fill="none" stroke="#000000" points="475,-582.5 475,-601.5 540,-601.5 540,-582.5 475,-582.5"/>
<text text-anchor="middle" x="507.5" y="-589.5" font-family="Helvetica,sans-Serif" font-size="10.00" fill="#000000">js_eq_slow</text>
</a>
</g>
</g>
<!-- Node215500&#45;&gt;Node215868 -->
<g id="edge7" class="edge">
<title>Node215500&#45;&gt;Node215868</title>
<path fill="none" stroke="#191970" d="M49.6989,-301.7787C53.5196,-346.9896 69.2575,-458.6362 133,-519 228.9532,-609.8672 402.7895,-603.4425 474.8481,-596.1805"/>
<polygon fill="#191970" stroke="#191970" points="53.1881,-301.503 48.9623,-291.7874 46.2071,-302.0177 53.1881,-301.503"/>
</g>
<!-- Node215915 -->
<g id="node8" class="node">
<title>Node215915</title>
<g id="a_node8"><a xlink:href="quickjs_8c.html#afad8d7db437ba0647d2dbf77cd9769d6" target="_top" xlink:title="js_number_toExponential">
<polygon fill="none" stroke="#000000" points="133,-234.5 133,-253.5 259,-253.5 259,-234.5 133,-234.5"/>
<text text-anchor="middle" x="196" y="-241.5" font-family="Helvetica,sans-Serif" font-size="10.00" fill="#000000">js_number_toExponential</text>
</a>
</g>
</g>
<!-- Node215500&#45;&gt;Node215915 -->
<g id="edge9" class="edge">
<title>Node215500&#45;&gt;Node215915</title>
<path fill="none" stroke="#191970" d="M95.5141,-269.8879C116.0566,-264.5956 139.7998,-258.4787 159.0472,-253.5201"/>
<polygon fill="#191970" stroke="#191970" points="94.5311,-266.5268 85.7205,-272.411 96.2775,-273.3054 94.5311,-266.5268"/>
</g>
<!-- Node215914 -->
<g id="node9" class="node">
<title>Node215914</title>
<g id="a_node9"><a xlink:href="quickjs_8c.html#a7440a8b206568f2729470433d57d9a98" target="_top" xlink:title="js_number_toFixed">
<polygon fill="none" stroke="#000000" points="146.5,-196.5 146.5,-215.5 245.5,-215.5 245.5,-196.5 146.5,-196.5"/>
<text text-anchor="middle" x="196" y="-203.5" font-family="Helvetica,sans-Serif" font-size="10.00" fill="#000000">js_number_toFixed</text>
</a>
</g>
</g>
<!-- Node215500&#45;&gt;Node215914 -->
<g id="edge10" class="edge">
<title>Node215500&#45;&gt;Node215914</title>
<path fill="none" stroke="#191970" d="M68.4106,-266.0339C84.9089,-253.4465 109.3953,-236.2044 133,-225 140.7403,-221.3259 149.3526,-218.1738 157.6617,-215.5532"/>
<polygon fill="#191970" stroke="#191970" points="65.8676,-263.5778 60.1231,-272.4801 70.1653,-269.1031 65.8676,-263.5778"/>
</g>
<!-- Node215916 -->
<g id="node10" class="node">
<title>Node215916</title>
<g id="a_node10"><a xlink:href="quickjs_8c.html#a806a4bbff6962ecc09ab3ae101b3755a" target="_top" xlink:title="js_number_toPrecision">
<polygon fill="none" stroke="#000000" points="138,-158.5 138,-177.5 254,-177.5 254,-158.5 138,-158.5"/>
<text text-anchor="middle" x="196" y="-165.5" font-family="Helvetica,sans-Serif" font-size="10.00" fill="#000000">js_number_toPrecision</text>
</a>
</g>
</g>
<!-- Node215500&#45;&gt;Node215916 -->
<g id="edge11" class="edge">
<title>Node215500&#45;&gt;Node215916</title>
<path fill="none" stroke="#191970" d="M60.0293,-263.8265C74.5324,-242.4068 101.4004,-207.1818 133,-187 139.0656,-183.1261 145.9612,-180.0081 152.911,-177.5088"/>
<polygon fill="#191970" stroke="#191970" points="57.0032,-262.0581 54.4278,-272.3352 62.8499,-265.9072 57.0032,-262.0581"/>
</g>
<!-- Node215913 -->
<g id="node11" class="node">
<title>Node215913</title>
<g id="a_node11"><a xlink:href="quickjs_8c.html#adf92b748274979904d269c4d3682e4dd" target="_top" xlink:title="js_number_toString">
<polygon fill="none" stroke="#000000" points="145.5,-120.5 145.5,-139.5 246.5,-139.5 246.5,-120.5 145.5,-120.5"/>
<text text-anchor="middle" x="196" y="-127.5" font-family="Helvetica,sans-Serif" font-size="10.00" fill="#000000">js_number_toString</text>
</a>
</g>
</g>
<!-- Node215500&#45;&gt;Node215913 -->
<g id="edge12" class="edge">
<title>Node215500&#45;&gt;Node215913</title>
<path fill="none" stroke="#191970" d="M55.5445,-262.9029C67.1916,-233.9626 93.2035,-179.1816 133,-149 138.0974,-145.1342 143.9793,-142.0504 150.0586,-139.5917"/>
<polygon fill="#191970" stroke="#191970" points="52.2519,-261.7133 51.9045,-272.3025 58.7796,-264.2412 52.2519,-261.7133"/>
</g>
<!-- Node216062 -->
<g id="node12" class="node">
<title>Node216062</title>
<g id="a_node12"><a xlink:href="quickjs_8c.html#aa7214e281acc07325a3c1a70d816a1d2" target="_top" xlink:title="js_post_inc_slow">
<polygon fill="none" stroke="#000000" points="150,-82.5 150,-101.5 242,-101.5 242,-82.5 150,-82.5"/>
<text text-anchor="middle" x="196" y="-89.5" font-family="Helvetica,sans-Serif" font-size="10.00" fill="#000000">js_post_inc_slow</text>
</a>
</g>
</g>
<!-- Node215500&#45;&gt;Node216062 -->
<g id="edge13" class="edge">
<title>Node215500&#45;&gt;Node216062</title>
<path fill="none" stroke="#191970" d="M52.8224,-262.0898C61.5941,-226.462 84.8749,-151.731 133,-111 137.9705,-106.7932 143.8508,-103.5178 149.9894,-100.9676"/>
<polygon fill="#191970" stroke="#191970" points="49.3295,-261.6575 50.4711,-272.1906 56.1472,-263.2446 49.3295,-261.6575"/>
</g>
<!-- Node215869 -->
<g id="node13" class="node">
<title>Node215869</title>
<g id="a_node13"><a xlink:href="quickjs_8c.html#ad48277f7656d161f492b5f1ff5d8c388" target="_top" xlink:title="js_relational_slow">
<polygon fill="none" stroke="#000000" points="149,-44.5 149,-63.5 243,-63.5 243,-44.5 149,-44.5"/>
<text text-anchor="middle" x="196" y="-51.5" font-family="Helvetica,sans-Serif" font-size="10.00" fill="#000000">js_relational_slow</text>
</a>
</g>
</g>
<!-- Node215500&#45;&gt;Node215869 -->
<g id="edge14" class="edge">
<title>Node215500&#45;&gt;Node215869</title>
<path fill="none" stroke="#191970" d="M50.7821,-262.3702C56.6245,-221.1478 75.9229,-125.0901 133,-73 137.5567,-68.8415 142.9942,-65.5919 148.7381,-63.0529"/>
<polygon fill="#191970" stroke="#191970" points="47.2887,-262.0931 49.4708,-272.4608 54.2304,-262.9953 47.2887,-262.0931"/>
</g>
<!-- Node215633 -->
<g id="node14" class="node">
<title>Node215633</title>
<g id="a_node14"><a xlink:href="quickjs_8c.html#aee75cc1546e19479e3ccda58f3b50a96" target="_top" xlink:title="JS_SetPropertyValue">
<polygon fill="none" stroke="#ff0000" points="302.5,-506.5 302.5,-525.5 412.5,-525.5 412.5,-506.5 302.5,-506.5"/>
<text text-anchor="middle" x="357.5" y="-513.5" font-family="Helvetica,sans-Serif" font-size="10.00" fill="#000000">JS_SetPropertyValue</text>
</a>
</g>
</g>
<!-- Node215500&#45;&gt;Node215633 -->
<g id="edge15" class="edge">
<title>Node215500&#45;&gt;Node215633</title>
<path fill="none" stroke="#191970" d="M55.4915,-301.4583C67.2121,-331.6119 93.4928,-389.8107 133,-425 183.7185,-470.1753 259.7918,-494.5685 309.0442,-506.4219"/>
<polygon fill="#191970" stroke="#191970" points="58.6247,-299.8455 51.8346,-291.7125 52.0709,-302.3047 58.6247,-299.8455"/>
</g>
<!-- Node216063 -->
<g id="node16" class="node">
<title>Node216063</title>
<g id="a_node16"><a xlink:href="quickjs_8c.html#a9e158c521e5f706d415601df28dbe712" target="_top" xlink:title="js_TA_cmp_generic">
<polygon fill="none" stroke="#000000" points="144.5,-3.5 144.5,-22.5 247.5,-22.5 247.5,-3.5 144.5,-3.5"/>
<text text-anchor="middle" x="196" y="-10.5" font-family="Helvetica,sans-Serif" font-size="10.00" fill="#000000">js_TA_cmp_generic</text>
</a>
</g>
</g>
<!-- Node215500&#45;&gt;Node216063 -->
<g id="edge19" class="edge">
<title>Node215500&#45;&gt;Node216063</title>
<path fill="none" stroke="#191970" d="M49.5853,-262.2595C53.1816,-216.0581 68.5048,-99.9056 133,-35 138.3079,-29.6584 144.9818,-25.611 151.986,-22.5449"/>
<polygon fill="#191970" stroke="#191970" points="46.0807,-262.2121 48.9009,-272.4247 53.0649,-262.6824 46.0807,-262.2121"/>
</g>
<!-- Node216065 -->
<g id="node18" class="node">
<title>Node216065</title>
<g id="a_node18"><a xlink:href="quickjs_8c.html#a8cc9386cd04cfa067d0c6bf588c6bb58" target="_top" xlink:title="JS_ToFloat64">
<polygon fill="none" stroke="#ff0000" points="157.5,-348.5 157.5,-367.5 234.5,-367.5 234.5,-348.5 157.5,-348.5"/>
<text text-anchor="middle" x="196" y="-355.5" font-family="Helvetica,sans-Serif" font-size="10.00" fill="#000000">JS_ToFloat64</text>
</a>
</g>
</g>
<!-- Node215500&#45;&gt;Node216065 -->
<g id="edge21" class="edge">
<title>Node215500&#45;&gt;Node216065</title>
<path fill="none" stroke="#191970" d="M68.4106,-297.9661C84.9089,-310.5535 109.3953,-327.7956 133,-339 140.7403,-342.6741 149.3526,-345.8262 157.6617,-348.4468"/>
<polygon fill="#191970" stroke="#191970" points="70.1653,-294.8969 60.1231,-291.5199 65.8676,-300.4222 70.1653,-294.8969"/>
</g>
<!-- Node216087 -->
<g id="node30" class="node">
<title>Node216087</title>
<g id="a_node30"><a xlink:href="quickjs_8c.html#a6a81009df3c2dbacf14bbe0b69b6a6cd" target="_top" xlink:title="js_unary_arith_slow">
<polygon fill="none" stroke="#000000" points="456,-544.5 456,-563.5 559,-563.5 559,-544.5 456,-544.5"/>
<text text-anchor="middle" x="507.5" y="-551.5" font-family="Helvetica,sans-Serif" font-size="10.00" fill="#000000">js_unary_arith_slow</text>
</a>
</g>
</g>
<!-- Node215500&#45;&gt;Node216087 -->
<g id="edge35" class="edge">
<title>Node215500&#45;&gt;Node216087</title>
<path fill="none" stroke="#191970" d="M52.0118,-301.7369C59.8049,-339.9609 82.0429,-424.5778 133,-473 221.4863,-557.0844 375.5365,-562.2435 455.6945,-558.4218"/>
<polygon fill="#191970" stroke="#191970" points="55.4367,-301.0128 50.1124,-291.853 48.5625,-302.3338 55.4367,-301.0128"/>
</g>
<!-- Node215502 -->
<g id="node3" class="node">
<title>Node215502</title>
<g id="a_node3"><a xlink:href="quickjs_8c.html#ac2894ff4edcdb4e6841bcce9c76081e3" target="_top" xlink:title="JS_CallInternal">
<polygon fill="none" stroke="#ff0000" points="595,-544.5 595,-563.5 678,-563.5 678,-544.5 595,-544.5"/>
<text text-anchor="middle" x="636.5" y="-551.5" font-family="Helvetica,sans-Serif" font-size="10.00" fill="#000000">JS_CallInternal</text>
</a>
</g>
</g>
<!-- Node215501&#45;&gt;Node215502 -->
<g id="edge2" class="edge">
<title>Node215501&#45;&gt;Node215502</title>
<path fill="none" stroke="#191970" d="M547.2431,-616.6313C551.2848,-614.8901 555.271,-613.0072 559,-611 584.59,-597.2257 611.1967,-575.8432 625.616,-563.5584"/>
<polygon fill="#191970" stroke="#191970" points="545.7768,-613.4485 537.8065,-620.4289 548.3902,-619.9424 545.7768,-613.4485"/>
</g>
<!-- Node215502&#45;&gt;Node215502 -->
<g id="edge3" class="edge">
<title>Node215502&#45;&gt;Node215502</title>
<path fill="none" stroke="#191970" d="M612.6906,-573.0292C613.9893,-578.128 621.9258,-582 636.5,-582 659.25,-582 665.8262,-572.5653 656.2285,-563.7571"/>
<polygon fill="#191970" stroke="#191970" points="615.9465,-574.3197 616.7715,-563.7571 609.5396,-571.4998 615.9465,-574.3197"/>
</g>
<!-- Node215868&#45;&gt;Node215502 -->
<g id="edge8" class="edge">
<title>Node215868&#45;&gt;Node215502</title>
<path fill="none" stroke="#191970" d="M550.054,-579.4647C567.603,-574.2952 587.6127,-568.4009 603.9583,-563.5859"/>
<polygon fill="#191970" stroke="#191970" points="548.6556,-576.2279 540.0521,-582.411 550.6336,-582.9426 548.6556,-576.2279"/>
</g>
<!-- Node215633&#45;&gt;Node215502 -->
<g id="edge16" class="edge">
<title>Node215633&#45;&gt;Node215502</title>
<path fill="none" stroke="#191970" d="M422.5817,-519.7106C462.2042,-522.5702 513.7401,-527.3604 559,-535 573.3431,-537.421 588.958,-541.0524 602.3886,-544.4939"/>
<polygon fill="#191970" stroke="#191970" points="422.737,-516.213 412.5172,-519.0071 422.2488,-523.196 422.737,-516.213"/>
</g>
<!-- Node215634 -->
<g id="node15" class="node">
<title>Node215634</title>
<g id="a_node15"><a xlink:href="quickjs_8c.html#ab50618f1bf78e444caa6da0e3e2785d7" target="_top" xlink:title="JS_DefineProperty">
<polygon fill="none" stroke="#ff0000" points="458,-468.5 458,-487.5 557,-487.5 557,-468.5 458,-468.5"/>
<text text-anchor="middle" x="507.5" y="-475.5" font-family="Helvetica,sans-Serif" font-size="10.00" fill="#000000">JS_DefineProperty</text>
</a>
</g>
</g>
<!-- Node215633&#45;&gt;Node215634 -->
<g id="edge17" class="edge">
<title>Node215633&#45;&gt;Node215634</title>
<path fill="none" stroke="#191970" d="M405.311,-503.8879C426.2016,-498.5956 450.3472,-492.4787 469.9209,-487.5201"/>
<polygon fill="#191970" stroke="#191970" points="404.1856,-500.5623 395.3513,-506.411 405.9047,-507.348 404.1856,-500.5623"/>
</g>
<!-- Node215634&#45;&gt;Node215502 -->
<g id="edge18" class="edge">
<title>Node215634&#45;&gt;Node215502</title>
<path fill="none" stroke="#191970" d="M539.3295,-491.8922C545.9277,-495.0326 552.7655,-498.4837 559,-502 582.5686,-515.2929 608.3679,-533.3714 623.4578,-544.335"/>
<polygon fill="#191970" stroke="#191970" points="540.4771,-488.5666 529.9319,-487.542 537.5365,-494.9191 540.4771,-488.5666"/>
</g>
<!-- Node216064 -->
<g id="node17" class="node">
<title>Node216064</title>
<g id="a_node17"><a xlink:href="quickjs_8c.html#ad24e5f774218bb0d2859db9dc569d118" target="_top" xlink:title="js_typed_array_sort">
<polygon fill="none" stroke="#000000" points="306.5,-.5 306.5,-19.5 408.5,-19.5 408.5,-.5 306.5,-.5"/>
<text text-anchor="middle" x="357.5" y="-7.5" font-family="Helvetica,sans-Serif" font-size="10.00" fill="#000000">js_typed_array_sort</text>
</a>
</g>
</g>
<!-- Node216063&#45;&gt;Node216064 -->
<g id="edge20" class="edge">
<title>Node216063&#45;&gt;Node216064</title>
<path fill="none" stroke="#191970" d="M257.9037,-11.8501C273.9428,-11.5521 291.0326,-11.2347 306.4454,-10.9484"/>
<polygon fill="#191970" stroke="#191970" points="257.4769,-8.3573 247.5436,-12.0425 257.607,-15.3561 257.4769,-8.3573"/>
</g>
<!-- Node216065&#45;&gt;Node215957 -->
<g id="edge34" class="edge">
<title>Node216065&#45;&gt;Node215957</title>
<path fill="none" stroke="#191970" d="M212.1926,-374.7294C239.6232,-403.0403 292.5174,-457.4941 295,-459 301.3027,-462.8232 308.4341,-465.9299 315.567,-468.4374"/>
<polygon fill="#191970" stroke="#191970" points="214.6653,-372.2516 205.194,-367.5032 209.6369,-377.1215 214.6653,-372.2516"/>
</g>
<!-- Node216066 -->
<g id="node19" class="node">
<title>Node216066</title>
<g id="a_node19"><a xlink:href="structqjs_1_1js__traits_3_01double_01_4.html#a2c3b4c0572fdc8cad26ddbf9cb4712a9" target="_top" xlink:title="qjs::js_traits\&lt; double\l \&gt;::unwrap">
<polygon fill="none" stroke="#000000" points="304,-153 304,-183 411,-183 411,-153 304,-153"/>
<text text-anchor="start" x="312" y="-171" font-family="Helvetica,sans-Serif" font-size="10.00" fill="#000000">qjs::js_traits&lt; double</text>
<text text-anchor="middle" x="357.5" y="-160" font-family="Helvetica,sans-Serif" font-size="10.00" fill="#000000"> &gt;::unwrap</text>
</a>
</g>
</g>
<!-- Node216065&#45;&gt;Node216066 -->
<g id="edge22" class="edge">
<title>Node216065&#45;&gt;Node216066</title>
<path fill="none" stroke="#191970" d="M244.2968,-349.3168C249.7765,-346.7158 254.8664,-343.3506 259,-339 305.0335,-290.5491 251.132,-243.4199 295,-193 298.3752,-189.1207 302.4365,-185.8364 306.8483,-183.0571"/>
<polygon fill="#191970" stroke="#191970" points="242.8557,-346.1219 234.8069,-353.0115 245.3954,-352.6449 242.8557,-346.1219"/>
</g>
<!-- Node215885 -->
<g id="node20" class="node">
<title>Node215885</title>
<g id="a_node20"><a xlink:href="quickjs-libc_8c.html#a2abec3aeee82a6dd3dd063725bbeecfe" target="_top" xlink:title="js_printf_internal">
<polygon fill="none" stroke="#ff0000" points="313.5,-114.5 313.5,-133.5 401.5,-133.5 401.5,-114.5 313.5,-114.5"/>
<text text-anchor="middle" x="357.5" y="-121.5" font-family="Helvetica,sans-Serif" font-size="10.00" fill="#000000">js_printf_internal</text>
</a>
</g>
</g>
<!-- Node216065&#45;&gt;Node215885 -->
<g id="edge23" class="edge">
<title>Node216065&#45;&gt;Node215885</title>
<path fill="none" stroke="#191970" d="M244.3489,-349.6446C249.8649,-346.9938 254.9502,-343.5274 259,-339 318.0481,-272.9874 236.0249,-209.0778 295,-143 299.9086,-137.5003 306.3538,-133.5685 313.2389,-130.7629"/>
<polygon fill="#191970" stroke="#191970" points="242.8127,-346.4868 234.7661,-353.379 245.3545,-353.0091 242.8127,-346.4868"/>
</g>
<!-- Node216067 -->
<g id="node21" class="node">
<title>Node216067</title>
<g id="a_node21"><a xlink:href="quickjs_8c.html#af2333dd9d30e60437b73af383477188c" target="_top" xlink:title="JS_NumberIsInteger">
<polygon fill="none" stroke="#ff0000" points="304,-278.5 304,-297.5 411,-297.5 411,-278.5 304,-278.5"/>
<text text-anchor="middle" x="357.5" y="-285.5" font-family="Helvetica,sans-Serif" font-size="10.00" fill="#000000">JS_NumberIsInteger</text>
</a>
</g>
</g>
<!-- Node216065&#45;&gt;Node216067 -->
<g id="edge24" class="edge">
<title>Node216065&#45;&gt;Node216067</title>
<path fill="none" stroke="#191970" d="M244.4671,-345.7585C249.5046,-343.7915 254.4427,-341.5478 259,-339 277.6854,-328.5536 276.3261,-317.467 295,-307 301.7272,-303.2293 309.2903,-300.1212 316.7707,-297.5898"/>
<polygon fill="#191970" stroke="#191970" points="242.9883,-342.5691 234.7308,-349.2071 245.3255,-349.1674 242.9883,-342.5691"/>
</g>
<!-- Node215696 -->
<g id="node22" class="node">
<title>Node215696</title>
<g id="a_node22"><a xlink:href="quickjs_8c.html#a3486836f2ac17a9fa315904e14858e5a" target="_top" xlink:title="js_call_c_function">
<polygon fill="none" stroke="#ff0000" points="310,-76.5 310,-95.5 405,-95.5 405,-76.5 310,-76.5"/>
<text text-anchor="middle" x="357.5" y="-83.5" font-family="Helvetica,sans-Serif" font-size="10.00" fill="#000000">js_call_c_function</text>
</a>
</g>
</g>
<!-- Node216065&#45;&gt;Node215696 -->
<g id="edge26" class="edge">
<title>Node216065&#45;&gt;Node215696</title>
<path fill="none" stroke="#191970" d="M244.2745,-349.8504C249.8478,-347.1703 254.9683,-343.6409 259,-339 328.0076,-259.5648 226.0802,-184.5114 295,-105 299.0855,-100.2866 304.3004,-96.7216 309.9708,-94.0289"/>
<polygon fill="#191970" stroke="#191970" points="242.6406,-346.7298 234.5796,-353.6052 245.1688,-353.2573 242.6406,-346.7298"/>
</g>
<!-- Node215978 -->
<g id="node23" class="node">
<title>Node215978</title>
<g id="a_node23"><a xlink:href="quickjs_8c.html#acf2f211c47aeb52306aa1467fc034915" target="_top" xlink:title="__attribute">
<polygon fill="none" stroke="#000000" points="326.5,-38.5 326.5,-57.5 388.5,-57.5 388.5,-38.5 326.5,-38.5"/>
<text text-anchor="middle" x="357.5" y="-45.5" font-family="Helvetica,sans-Serif" font-size="10.00" fill="#000000">__attribute</text>
</a>
</g>
</g>
<!-- Node216065&#45;&gt;Node215978 -->
<g id="edge27" class="edge">
<title>Node216065&#45;&gt;Node215978</title>
<path fill="none" stroke="#191970" d="M244.3664,-349.9293C249.9254,-347.237 255.0174,-343.6831 259,-339 337.9987,-246.1059 216.104,-159.9814 295,-67 302.7778,-57.8337 314.8301,-53.0007 326.2836,-50.4841"/>
<polygon fill="#191970" stroke="#191970" points="242.7352,-346.8082 234.6834,-353.6944 245.2721,-353.3324 242.7352,-346.8082"/>
</g>
<!-- Node216069 -->
<g id="node24" class="node">
<title>Node216069</title>
<g id="a_node24"><a xlink:href="quickjs_8c.html#a591e7b9111823408a871a7ac8aca3fb2" target="_top" xlink:title="js_global_isNaN">
<polygon fill="none" stroke="#ff0000" points="313.5,-430.5 313.5,-449.5 401.5,-449.5 401.5,-430.5 313.5,-430.5"/>
<text text-anchor="middle" x="357.5" y="-437.5" font-family="Helvetica,sans-Serif" font-size="10.00" fill="#000000">js_global_isNaN</text>
</a>
</g>
</g>
<!-- Node216065&#45;&gt;Node216069 -->
<g id="edge28" class="edge">
<title>Node216065&#45;&gt;Node216069</title>
<path fill="none" stroke="#191970" d="M216.5877,-373.4604C235.9803,-387.4373 266.2675,-407.7905 295,-421 302.9342,-424.6477 311.7499,-427.82 320.1989,-430.4729"/>
<polygon fill="#191970" stroke="#191970" points="218.6264,-370.6153 208.489,-367.5358 214.4934,-376.2649 218.6264,-370.6153"/>
</g>
<!-- Node216071 -->
<g id="node25" class="node">
<title>Node216071</title>
<g id="a_node25"><a xlink:href="quickjs_8c.html#abde92eeb026b3eaced267662c487b0b9" target="_top" xlink:title="js_global_isFinite">
<polygon fill="none" stroke="#ff0000" points="311.5,-392.5 311.5,-411.5 403.5,-411.5 403.5,-392.5 311.5,-392.5"/>
<text text-anchor="middle" x="357.5" y="-399.5" font-family="Helvetica,sans-Serif" font-size="10.00" fill="#000000">js_global_isFinite</text>
</a>
</g>
</g>
<!-- Node216065&#45;&gt;Node216071 -->
<g id="edge29" class="edge">
<title>Node216065&#45;&gt;Node216071</title>
<path fill="none" stroke="#191970" d="M240.9552,-370.2478C266.7385,-377.2724 298.626,-385.96 322.5253,-392.4713"/>
<polygon fill="#191970" stroke="#191970" points="241.6115,-366.7991 231.0431,-367.5473 239.7714,-373.553 241.6115,-366.7991"/>
</g>
<!-- Node216073 -->
<g id="node26" class="node">
<title>Node216073</title>
<g id="a_node26"><a xlink:href="quickjs_8c.html#a6626abf10d249f55912cc327b60f84bd" target="_top" xlink:title="js_number_isSafeInteger">
<polygon fill="none" stroke="#000000" points="295,-354.5 295,-373.5 420,-373.5 420,-354.5 295,-354.5"/>
<text text-anchor="middle" x="357.5" y="-361.5" font-family="Helvetica,sans-Serif" font-size="10.00" fill="#000000">js_number_isSafeInteger</text>
</a>
</g>
</g>
<!-- Node216065&#45;&gt;Node216073 -->
<g id="edge30" class="edge">
<title>Node216065&#45;&gt;Node216073</title>
<path fill="none" stroke="#191970" d="M244.7353,-359.8106C260.5061,-360.3965 278.2208,-361.0546 294.8549,-361.6726"/>
<polygon fill="#191970" stroke="#191970" points="244.8064,-356.3109 234.6833,-359.4371 244.5464,-363.3061 244.8064,-356.3109"/>
</g>
<!-- Node216074 -->
<g id="node27" class="node">
<title>Node216074</title>
<g id="a_node27"><a xlink:href="quickjs_8c.html#affbdac19b10671cfe3ac54f3d8f33b38" target="_top" xlink:title="js_string_fromCodePoint">
<polygon fill="none" stroke="#000000" points="295.5,-316.5 295.5,-335.5 419.5,-335.5 419.5,-316.5 295.5,-316.5"/>
<text text-anchor="middle" x="357.5" y="-323.5" font-family="Helvetica,sans-Serif" font-size="10.00" fill="#000000">js_string_fromCodePoint</text>
</a>
</g>
</g>
<!-- Node216065&#45;&gt;Node216074 -->
<g id="edge31" class="edge">
<title>Node216065&#45;&gt;Node216074</title>
<path fill="none" stroke="#191970" d="M244.7376,-348.343C265.1897,-344.2906 288.9107,-339.5904 309.3044,-335.5496"/>
<polygon fill="#191970" stroke="#191970" points="243.8123,-344.9582 234.6833,-350.3352 245.1729,-351.8247 243.8123,-344.9582"/>
</g>
<!-- Node215923 -->
<g id="node28" class="node">
<title>Node215923</title>
<g id="a_node28"><a xlink:href="quickjs_8c.html#a7e93a76184ec9bc88adb834f83f679d8" target="_top" xlink:title="js_string_indexOf">
<polygon fill="none" stroke="#000000" points="311.5,-240.5 311.5,-259.5 403.5,-259.5 403.5,-240.5 311.5,-240.5"/>
<text text-anchor="middle" x="357.5" y="-247.5" font-family="Helvetica,sans-Serif" font-size="10.00" fill="#000000">js_string_indexOf</text>
</a>
</g>
</g>
<!-- Node216065&#45;&gt;Node215923 -->
<g id="edge32" class="edge">
<title>Node216065&#45;&gt;Node215923</title>
<path fill="none" stroke="#191970" d="M244.4018,-347.9018C249.6592,-345.5332 254.6653,-342.6094 259,-339 285.8844,-316.6141 268.1404,-291.4156 295,-269 299.789,-265.0034 305.405,-261.8471 311.2718,-259.3545"/>
<polygon fill="#191970" stroke="#191970" points="242.8458,-344.7496 234.758,-351.5935 245.3484,-351.287 242.8458,-344.7496"/>
</g>
<!-- Node216075 -->
<g id="node29" class="node">
<title>Node216075</title>
<g id="a_node29"><a xlink:href="quickjs_8c.html#af5a7bd13b47d5c2de41e92111bf21305" target="_top" xlink:title="js_math_min_max">
<polygon fill="none" stroke="#000000" points="309.5,-202.5 309.5,-221.5 405.5,-221.5 405.5,-202.5 309.5,-202.5"/>
<text text-anchor="middle" x="357.5" y="-209.5" font-family="Helvetica,sans-Serif" font-size="10.00" fill="#000000">js_math_min_max</text>
</a>
</g>
</g>
<!-- Node216065&#45;&gt;Node216075 -->
<g id="edge33" class="edge">
<title>Node216065&#45;&gt;Node216075</title>
<path fill="none" stroke="#191970" d="M244.1756,-348.9033C249.6317,-346.3678 254.7482,-343.1309 259,-339 295.2892,-303.7425 258.7498,-266.2976 295,-231 299.1439,-226.965 304.1173,-223.7836 309.4251,-221.2758"/>
<polygon fill="#191970" stroke="#191970" points="242.83,-345.671 234.7656,-352.5425 245.3549,-352.1998 242.83,-345.671"/>
</g>
<!-- Node216067&#45;&gt;Node215634 -->
<g id="edge25" class="edge">
<title>Node216067&#45;&gt;Node215634</title>
<path fill="none" stroke="#191970" d="M413.5495,-302.3749C415.8182,-303.7757 417.9827,-305.313 420,-307 473.9774,-352.1406 498.4184,-439.0363 505.3431,-468.1908"/>
<polygon fill="#191970" stroke="#191970" points="414.8637,-299.1139 404.3747,-297.6201 411.6428,-305.3289 414.8637,-299.1139"/>
</g>
<!-- Node216087&#45;&gt;Node215502 -->
<g id="edge36" class="edge">
<title>Node216087&#45;&gt;Node215502</title>
<path fill="none" stroke="#191970" d="M569.2655,-554C577.8746,-554 586.5488,-554 594.6731,-554"/>
<polygon fill="#191970" stroke="#191970" points="569.226,-550.5001 559.2259,-554 569.2259,-557.5001 569.226,-550.5001"/>
</g>
</g>
</svg>
