<?xml version="1.0" encoding="UTF-8" standalone="no"?>
<!DOCTYPE svg PUBLIC "-//W3C//DTD SVG 1.1//EN"
 "http://www.w3.org/Graphics/SVG/1.1/DTD/svg11.dtd">
<!-- Generated by graphviz version 2.40.1 (20161225.0304)
 -->
<!-- Title: js_operator_typeof Pages: 1 -->
<!--zoomable 1043 -->
<svg id="main" version="1.1" xmlns="http://www.w3.org/2000/svg" xmlns:xlink="http://www.w3.org/1999/xlink" xml:space="preserve" onload="init(evt)">
<style type="text/css"><![CDATA[
.edge:hover path { stroke: red; }
.edge:hover polygon { stroke: red; fill: red; }
]]></style>
<script type="text/javascript"><![CDATA[
var edges = document.getElementsByTagName('g');
if (edges && edges.length) {
  for (var i=0;i<edges.length;i++) {
    if (edges[i].id.substr(0,4)=='edge') {
      edges[i].setAttribute('class','edge');
    }
  }
}
]]></script>
        <defs>
                <circle id="rim" cx="0" cy="0" r="7"/>
                <circle id="rim2" cx="0" cy="0" r="3.5"/>
                <g id="zoomPlus">
                        <use xlink:href="#rim" fill="#404040">
                                <set attributeName="fill" to="#808080" begin="zoomplus.mouseover" end="zoomplus.mouseout"/>
                        </use>
                        <path d="M-4,0h8M0,-4v8" fill="none" stroke="white" stroke-width="1.5" pointer-events="none"/>
                </g>
                <g id="zoomMin">
                        <use xlink:href="#rim" fill="#404040">
                                <set attributeName="fill" to="#808080" begin="zoomminus.mouseover" end="zoomminus.mouseout"/>
                        </use>
                        <path d="M-4,0h8" fill="none" stroke="white" stroke-width="1.5" pointer-events="none"/>
                </g>
                <g id="dirArrow">
                        <path fill="none" stroke="white" stroke-width="1.5" d="M0,-3.0v7 M-2.5,-0.5L0,-3.0L2.5,-0.5"/>
                </g>
               <g id="resetDef">
                       <use xlink:href="#rim2" fill="#404040">
                               <set attributeName="fill" to="#808080" begin="reset.mouseover" end="reset.mouseout"/>
                       </use>
               </g>
        </defs>

<script type="text/javascript">
var viewWidth = 703;
var viewHeight = 1043;
var sectionId = 'dynsection-732';
</script>
<script xlink:href="svgpan.js"/>
<svg id="graph" class="graph">
<g id="viewport">
<title>js_operator_typeof</title>
<!-- Node244162 -->
<g id="node1" class="node">
<title>Node244162</title>
<polygon fill="#bfbfbf" stroke="#000000" points="0,-162.3661 0,-181.3661 97,-181.3661 97,-162.3661 0,-162.3661"/>
<text text-anchor="middle" x="48.5" y="-169.3661" font-family="Helvetica,sans-Serif" font-size="10.00" fill="#000000">js_operator_typeof</text>
</g>
<!-- Node244163 -->
<g id="node2" class="node">
<title>Node244163</title>
<g id="a_node2"><a xlink:href="quickjs_8c.html#ac2894ff4edcdb4e6841bcce9c76081e3" target="_top" xlink:title="JS_CallInternal">
<polygon fill="none" stroke="#000000" points="133,-162.3661 133,-181.3661 216,-181.3661 216,-162.3661 133,-162.3661"/>
<text text-anchor="middle" x="174.5" y="-169.3661" font-family="Helvetica,sans-Serif" font-size="10.00" fill="#000000">JS_CallInternal</text>
</a>
</g>
</g>
<!-- Node244162&#45;&gt;Node244163 -->
<g id="edge1" class="edge">
<title>Node244162&#45;&gt;Node244163</title>
<path fill="none" stroke="#191970" d="M107.2755,-171.8661C115.9208,-171.8661 124.6726,-171.8661 132.8759,-171.8661"/>
<polygon fill="#191970" stroke="#191970" points="107.2149,-168.3662 97.2149,-171.8661 107.2149,-175.3662 107.2149,-168.3662"/>
</g>
<!-- Node244163&#45;&gt;Node244163 -->
<g id="edge43" class="edge">
<title>Node244163&#45;&gt;Node244163</title>
<path fill="none" stroke="#191970" d="M151.0626,-190.8953C152.341,-195.9941 160.1535,-199.8661 174.5,-199.8661 196.8945,-199.8661 203.368,-190.4314 193.9203,-181.6232"/>
<polygon fill="#191970" stroke="#191970" points="154.3158,-192.1904 155.0797,-181.6232 147.8927,-189.4076 154.3158,-192.1904"/>
</g>
<!-- Node244164 -->
<g id="node3" class="node">
<title>Node244164</title>
<g id="a_node3"><a xlink:href="quickjs_8c.html#ade71a22dc56e7371392393df663b28b3" target="_top" xlink:title="async_func_resume">
<polygon fill="none" stroke="#000000" points="252,-922.3661 252,-941.3661 356,-941.3661 356,-922.3661 252,-922.3661"/>
<text text-anchor="middle" x="304" y="-929.3661" font-family="Helvetica,sans-Serif" font-size="10.00" fill="#000000">async_func_resume</text>
</a>
</g>
</g>
<!-- Node244163&#45;&gt;Node244164 -->
<g id="edge2" class="edge">
<title>Node244163&#45;&gt;Node244164</title>
<path fill="none" stroke="#191970" d="M175.2876,-191.5782C179.468,-290.8774 200.8246,-736.549 252,-863.8661 261.4226,-887.3083 281.2617,-909.6029 293.5278,-921.9365"/>
<polygon fill="#191970" stroke="#191970" points="178.7792,-191.3012 174.871,-181.4535 171.7852,-191.589 178.7792,-191.3012"/>
</g>
<!-- Node244176 -->
<g id="node8" class="node">
<title>Node244176</title>
<g id="a_node8"><a xlink:href="quickjs_8c.html#a1a4c02a29525d5cb2085dd8bca3af350" target="_top" xlink:title="JS_Call">
<polygon fill="none" stroke="#ff0000" points="278.5,-402.3661 278.5,-421.3661 329.5,-421.3661 329.5,-402.3661 278.5,-402.3661"/>
<text text-anchor="middle" x="304" y="-409.3661" font-family="Helvetica,sans-Serif" font-size="10.00" fill="#000000">JS_Call</text>
</a>
</g>
</g>
<!-- Node244163&#45;&gt;Node244176 -->
<g id="edge7" class="edge">
<title>Node244163&#45;&gt;Node244176</title>
<path fill="none" stroke="#191970" d="M186.6785,-190.2909C214.8408,-238.5243 283.3481,-366.0423 300.2053,-402.3522"/>
<polygon fill="#191970" stroke="#191970" points="189.5776,-188.318 181.4625,-181.5066 183.5588,-191.892 189.5776,-188.318"/>
</g>
<!-- Node244208 -->
<g id="node15" class="node">
<title>Node244208</title>
<g id="a_node15"><a xlink:href="quickjs_8c.html#ad35594576a14c10812efaf958c99af8a" target="_top" xlink:title="JS_CallConstructorInternal">
<polygon fill="none" stroke="#ff0000" points="561,-1.3661 561,-20.3661 695,-20.3661 695,-1.3661 561,-1.3661"/>
<text text-anchor="middle" x="628" y="-8.3661" font-family="Helvetica,sans-Serif" font-size="10.00" fill="#000000">JS_CallConstructorInternal</text>
</a>
</g>
</g>
<!-- Node244163&#45;&gt;Node244208 -->
<g id="edge38" class="edge">
<title>Node244163&#45;&gt;Node244208</title>
<path fill="none" stroke="#191970" d="M181.6956,-152.8534C193.5549,-128.8303 219.1945,-89.1616 252,-67.8661 348.8661,-4.9862 488.0678,2.8715 567.094,-1.3603"/>
<polygon fill="#191970" stroke="#191970" points="178.447,-151.5416 177.476,-162.0919 184.8143,-154.4498 178.447,-151.5416"/>
</g>
<!-- Node244259 -->
<g id="node30" class="node">
<title>Node244259</title>
<g id="a_node30"><a xlink:href="quickjs_8c.html#a75f6ee5e4235a7dc99889f3d2eb2c147" target="_top" xlink:title="JS_CallFree">
<polygon fill="none" stroke="#ff0000" points="268.5,-86.3661 268.5,-105.3661 339.5,-105.3661 339.5,-86.3661 268.5,-86.3661"/>
<text text-anchor="middle" x="304" y="-93.3661" font-family="Helvetica,sans-Serif" font-size="10.00" fill="#000000">JS_CallFree</text>
</a>
</g>
</g>
<!-- Node244163&#45;&gt;Node244259 -->
<g id="edge39" class="edge">
<title>Node244163&#45;&gt;Node244259</title>
<path fill="none" stroke="#191970" d="M187.9766,-155.2892C203.1168,-141.8557 228.6365,-123.9866 252,-110.8661 257.2017,-107.945 262.8215,-105.0748 268.3777,-102.5079"/>
<polygon fill="#191970" stroke="#191970" points="185.5197,-152.7959 180.7129,-162.2375 190.3585,-157.8542 185.5197,-152.7959"/>
</g>
<!-- Node244165 -->
<g id="node4" class="node">
<title>Node244165</title>
<g id="a_node4"><a xlink:href="quickjs_8c.html#a9d95ebd661628910e9e05ee872340848" target="_top" xlink:title="js_generator_function_call">
<polygon fill="none" stroke="#ff0000" points="393.5,-1015.3661 393.5,-1034.3661 523.5,-1034.3661 523.5,-1015.3661 393.5,-1015.3661"/>
<text text-anchor="middle" x="458.5" y="-1022.3661" font-family="Helvetica,sans-Serif" font-size="10.00" fill="#000000">js_generator_function_call</text>
</a>
</g>
</g>
<!-- Node244164&#45;&gt;Node244165 -->
<g id="edge3" class="edge">
<title>Node244164&#45;&gt;Node244165</title>
<path fill="none" stroke="#191970" d="M319.9957,-949.003C336.529,-965.7622 363.8284,-990.8851 392,-1005.8661 399.1029,-1009.6433 407.0429,-1012.7448 414.8953,-1015.2656"/>
<polygon fill="#191970" stroke="#191970" points="322.2486,-946.2972 312.7875,-941.5287 317.21,-951.1564 322.2486,-946.2972"/>
</g>
<!-- Node244169 -->
<g id="node5" class="node">
<title>Node244169</title>
<g id="a_node5"><a xlink:href="quickjs_8c.html#a1bf6b62983e8fff99c0a5d5a9f486115" target="_top" xlink:title="js_async_function_resume">
<polygon fill="none" stroke="#ff0000" points="392,-878.3661 392,-897.3661 525,-897.3661 525,-878.3661 392,-878.3661"/>
<text text-anchor="middle" x="458.5" y="-885.3661" font-family="Helvetica,sans-Serif" font-size="10.00" fill="#000000">js_async_function_resume</text>
</a>
</g>
</g>
<!-- Node244164&#45;&gt;Node244169 -->
<g id="edge4" class="edge">
<title>Node244164&#45;&gt;Node244169</title>
<path fill="none" stroke="#191970" d="M347.3344,-919.5249C371.9423,-912.5169 402.279,-903.8773 425.0412,-897.3948"/>
<polygon fill="#191970" stroke="#191970" points="346.1831,-916.2136 337.5242,-922.3188 348.1005,-922.9459 346.1831,-916.2136"/>
</g>
<!-- Node244174 -->
<g id="node6" class="node">
<title>Node244174</title>
<g id="a_node6"><a xlink:href="quickjs_8c.html#a89b019c704a2d2914bc30b30a72040b3" target="_top" xlink:title="js_async_generator\l_resume_next">
<polygon fill="none" stroke="#000000" points="408,-965.8661 408,-995.8661 509,-995.8661 509,-965.8661 408,-965.8661"/>
<text text-anchor="start" x="416" y="-983.8661" font-family="Helvetica,sans-Serif" font-size="10.00" fill="#000000">js_async_generator</text>
<text text-anchor="middle" x="458.5" y="-972.8661" font-family="Helvetica,sans-Serif" font-size="10.00" fill="#000000">_resume_next</text>
</a>
</g>
</g>
<!-- Node244164&#45;&gt;Node244174 -->
<g id="edge5" class="edge">
<title>Node244164&#45;&gt;Node244174</title>
<path fill="none" stroke="#191970" d="M343.8274,-944.4975C364.364,-951.0107 389.5533,-958.9995 411.0875,-965.8292"/>
<polygon fill="#191970" stroke="#191970" points="344.7461,-941.1171 334.1559,-941.4301 342.6299,-947.7896 344.7461,-941.1171"/>
</g>
<!-- Node244175 -->
<g id="node7" class="node">
<title>Node244175</title>
<g id="a_node7"><a xlink:href="quickjs_8c.html#aa74a153277ad53578233b4465c122100" target="_top" xlink:title="js_async_generator\l_function_call">
<polygon fill="none" stroke="#ff0000" points="408,-916.8661 408,-946.8661 509,-946.8661 509,-916.8661 408,-916.8661"/>
<text text-anchor="start" x="416" y="-934.8661" font-family="Helvetica,sans-Serif" font-size="10.00" fill="#000000">js_async_generator</text>
<text text-anchor="middle" x="458.5" y="-923.8661" font-family="Helvetica,sans-Serif" font-size="10.00" fill="#000000">_function_call</text>
</a>
</g>
</g>
<!-- Node244164&#45;&gt;Node244175 -->
<g id="edge6" class="edge">
<title>Node244164&#45;&gt;Node244175</title>
<path fill="none" stroke="#191970" d="M366.6264,-931.8661C380.3228,-931.8661 394.6559,-931.8661 407.8173,-931.8661"/>
<polygon fill="#191970" stroke="#191970" points="366.3067,-928.3662 356.3067,-931.8661 366.3066,-935.3662 366.3067,-928.3662"/>
</g>
<!-- Node244176&#45;&gt;Node244163 -->
<g id="edge18" class="edge">
<title>Node244176&#45;&gt;Node244163</title>
<path fill="none" stroke="#191970" d="M291.8914,-393.5611C263.8175,-345.4959 195.3844,-218.1267 178.3757,-181.5545"/>
<polygon fill="#191970" stroke="#191970" points="288.9725,-395.5006 297.089,-402.3104 294.9907,-391.9254 288.9725,-395.5006"/>
</g>
<!-- Node244176&#45;&gt;Node244169 -->
<g id="edge19" class="edge">
<title>Node244176&#45;&gt;Node244169</title>
<path fill="none" stroke="#191970" d="M305.1272,-431.8423C310.0011,-511.2099 331.8045,-803.1214 392,-868.8661 395.4866,-872.6741 399.6781,-875.7389 404.2394,-878.2028"/>
<polygon fill="#191970" stroke="#191970" points="308.6133,-431.5024 304.5284,-421.7267 301.6255,-431.9161 308.6133,-431.5024"/>
</g>
<!-- Node244177 -->
<g id="node9" class="node">
<title>Node244177</title>
<g id="a_node9"><a xlink:href="structqjs_1_1js__traits_3_01std_1_1function_3_01R_07Args_8_8_8_08_4_01_4.html#abc36cacd670b6b5f1773734a0586a02b" target="_top" xlink:title="qjs::js_traits\&lt; std\l::function\&lt; R(Args...)\l\&gt; \&gt;::unwrap">
<polygon fill="none" stroke="#000000" points="404,-516.3661 404,-557.3661 513,-557.3661 513,-516.3661 404,-516.3661"/>
<text text-anchor="start" x="412" y="-545.3661" font-family="Helvetica,sans-Serif" font-size="10.00" fill="#000000">qjs::js_traits&lt; std</text>
<text text-anchor="start" x="412" y="-534.3661" font-family="Helvetica,sans-Serif" font-size="10.00" fill="#000000">::function&lt; R(Args...)</text>
<text text-anchor="middle" x="458.5" y="-523.3661" font-family="Helvetica,sans-Serif" font-size="10.00" fill="#000000">&gt; &gt;::unwrap</text>
</a>
</g>
</g>
<!-- Node244176&#45;&gt;Node244177 -->
<g id="edge8" class="edge">
<title>Node244176&#45;&gt;Node244177</title>
<path fill="none" stroke="#191970" d="M316.8989,-429.6386C332.6897,-450.385 361.1609,-484.6766 392,-506.8661 396.7292,-510.2689 401.906,-513.4174 407.2168,-516.2932"/>
<polygon fill="#191970" stroke="#191970" points="319.5394,-427.3247 310.7551,-421.4013 313.9282,-431.5098 319.5394,-427.3247"/>
</g>
<!-- Node244178 -->
<g id="node10" class="node">
<title>Node244178</title>
<g id="a_node10"><a xlink:href="quickjs-libc_8c.html#abb1cbe3fdf905e81f603a3a0bfce475a" target="_top" xlink:title="call_handler">
<polygon fill="none" stroke="#ff0000" points="424.5,-478.3661 424.5,-497.3661 492.5,-497.3661 492.5,-478.3661 424.5,-478.3661"/>
<text text-anchor="middle" x="458.5" y="-485.3661" font-family="Helvetica,sans-Serif" font-size="10.00" fill="#000000">call_handler</text>
</a>
</g>
</g>
<!-- Node244176&#45;&gt;Node244178 -->
<g id="edge9" class="edge">
<title>Node244176&#45;&gt;Node244178</title>
<path fill="none" stroke="#191970" d="M324.32,-427.5286C341.54,-440.1713 367.3041,-457.6434 392,-468.8661 402.1661,-473.486 413.7222,-477.2567 424.3166,-480.1856"/>
<polygon fill="#191970" stroke="#191970" points="326.2495,-424.6011 316.1448,-421.4162 322.0579,-430.2074 326.2495,-424.6011"/>
</g>
<!-- Node244183 -->
<g id="node11" class="node">
<title>Node244183</title>
<g id="a_node11"><a xlink:href="quickjs_8c.html#aa049793cc8648d35fe81876a2543ca4e" target="_top" xlink:title="JS_GetIterator2">
<polygon fill="none" stroke="#ff0000" points="415.5,-440.3661 415.5,-459.3661 501.5,-459.3661 501.5,-440.3661 415.5,-440.3661"/>
<text text-anchor="middle" x="458.5" y="-447.3661" font-family="Helvetica,sans-Serif" font-size="10.00" fill="#000000">JS_GetIterator2</text>
</a>
</g>
</g>
<!-- Node244176&#45;&gt;Node244183 -->
<g id="edge10" class="edge">
<title>Node244176&#45;&gt;Node244183</title>
<path fill="none" stroke="#191970" d="M339.2646,-420.5396C363.2256,-426.4329 394.9273,-434.2301 419.6191,-440.3032"/>
<polygon fill="#191970" stroke="#191970" points="340.0591,-417.1308 329.5125,-418.1411 338.3872,-423.9282 340.0591,-417.1308"/>
</g>
<!-- Node244202 -->
<g id="node12" class="node">
<title>Node244202</title>
<g id="a_node12"><a xlink:href="quickjs_8c.html#ad6303fbd3add4afa0cb64b0aa6d431ce" target="_top" xlink:title="JS_IteratorNext2">
<polygon fill="none" stroke="#ff0000" points="413,-402.3661 413,-421.3661 504,-421.3661 504,-402.3661 413,-402.3661"/>
<text text-anchor="middle" x="458.5" y="-409.3661" font-family="Helvetica,sans-Serif" font-size="10.00" fill="#000000">JS_IteratorNext2</text>
</a>
</g>
</g>
<!-- Node244176&#45;&gt;Node244202 -->
<g id="edge11" class="edge">
<title>Node244176&#45;&gt;Node244202</title>
<path fill="none" stroke="#191970" d="M339.6603,-411.8661C361.4599,-411.8661 389.5551,-411.8661 412.9545,-411.8661"/>
<polygon fill="#191970" stroke="#191970" points="339.5126,-408.3662 329.5125,-411.8661 339.5125,-415.3662 339.5126,-408.3662"/>
</g>
<!-- Node244206 -->
<g id="node13" class="node">
<title>Node244206</title>
<g id="a_node13"><a xlink:href="quickjs_8c.html#a62424fefab7bcc97f49c978205c7a1c1" target="_top" xlink:title="js_for_await_of_next">
<polygon fill="none" stroke="#000000" points="405,-802.3661 405,-821.3661 512,-821.3661 512,-802.3661 405,-802.3661"/>
<text text-anchor="middle" x="458.5" y="-809.3661" font-family="Helvetica,sans-Serif" font-size="10.00" fill="#000000">js_for_await_of_next</text>
</a>
</g>
</g>
<!-- Node244176&#45;&gt;Node244206 -->
<g id="edge12" class="edge">
<title>Node244176&#45;&gt;Node244206</title>
<path fill="none" stroke="#191970" d="M309.2938,-431.4564C319.0566,-467.8527 340.3294,-548.4267 356,-616.8661 373.8203,-694.6938 337.7446,-734.2908 392,-792.8661 395.6717,-796.8301 400.1073,-799.9876 404.9249,-802.4997"/>
<polygon fill="#191970" stroke="#191970" points="312.6311,-430.3885 306.6525,-421.6417 305.8716,-432.2077 312.6311,-430.3885"/>
</g>
<!-- Node244207 -->
<g id="node14" class="node">
<title>Node244207</title>
<g id="a_node14"><a xlink:href="quickjs_8c.html#afd4ef2d701fa0702f321925b61c57bbf" target="_top" xlink:title="js_call_bound_function">
<polygon fill="none" stroke="#000000" points="400.5,-840.3661 400.5,-859.3661 516.5,-859.3661 516.5,-840.3661 400.5,-840.3661"/>
<text text-anchor="middle" x="458.5" y="-847.3661" font-family="Helvetica,sans-Serif" font-size="10.00" fill="#000000">js_call_bound_function</text>
</a>
</g>
</g>
<!-- Node244176&#45;&gt;Node244207 -->
<g id="edge14" class="edge">
<title>Node244176&#45;&gt;Node244207</title>
<path fill="none" stroke="#191970" d="M305.5246,-432.0726C311.6132,-507.507 336.5869,-771.3551 392,-830.8661 395.6002,-834.7326 399.9274,-837.8313 404.6252,-840.3118"/>
<polygon fill="#191970" stroke="#191970" points="308.978,-431.3399 304.7078,-421.6437 301.9994,-431.8865 308.978,-431.3399"/>
</g>
<!-- Node244237 -->
<g id="node16" class="node">
<title>Node244237</title>
<g id="a_node16"><a xlink:href="quickjs_8c.html#a3e852026d167fa03c673f86697dd3e67" target="_top" xlink:title="js_async_generator\l_resolve_or_reject">
<polygon fill="none" stroke="#ff0000" points="408,-352.8661 408,-382.8661 509,-382.8661 509,-352.8661 408,-352.8661"/>
<text text-anchor="start" x="416" y="-370.8661" font-family="Helvetica,sans-Serif" font-size="10.00" fill="#000000">js_async_generator</text>
<text text-anchor="middle" x="458.5" y="-359.8661" font-family="Helvetica,sans-Serif" font-size="10.00" fill="#000000">_resolve_or_reject</text>
</a>
</g>
</g>
<!-- Node244176&#45;&gt;Node244237 -->
<g id="edge20" class="edge">
<title>Node244176&#45;&gt;Node244237</title>
<path fill="none" stroke="#191970" d="M339.2915,-401.8155C359.6101,-396.029 385.4881,-388.6592 407.9377,-382.2658"/>
<polygon fill="#191970" stroke="#191970" points="338.1715,-398.4952 329.5125,-404.6004 340.0888,-405.2275 338.1715,-398.4952"/>
</g>
<!-- Node244220 -->
<g id="node17" class="node">
<title>Node244220</title>
<g id="a_node17"><a xlink:href="quickjs_8c.html#a2355fabf91f59212ea65baba1b0b7c1b" target="_top" xlink:title="js_async_generator_next">
<polygon fill="none" stroke="#000000" points="396,-314.3661 396,-333.3661 521,-333.3661 521,-314.3661 396,-314.3661"/>
<text text-anchor="middle" x="458.5" y="-321.3661" font-family="Helvetica,sans-Serif" font-size="10.00" fill="#000000">js_async_generator_next</text>
</a>
</g>
</g>
<!-- Node244176&#45;&gt;Node244220 -->
<g id="edge21" class="edge">
<title>Node244176&#45;&gt;Node244220</title>
<path fill="none" stroke="#191970" d="M321.4,-395.2695C338.2568,-379.995 365.1452,-357.6774 392,-343.8661 400.1481,-339.6756 409.3192,-336.2105 418.1878,-333.4094"/>
<polygon fill="#191970" stroke="#191970" points="318.9418,-392.7755 313.9748,-402.1339 323.6937,-397.9155 318.9418,-392.7755"/>
</g>
<!-- Node244221 -->
<g id="node18" class="node">
<title>Node244221</title>
<g id="a_node18"><a xlink:href="quickjs_8c.html#a50e94675d1c4cf67c88e72169ea3c21a" target="_top" xlink:title="js_dynamic_import">
<polygon fill="none" stroke="#000000" points="409.5,-162.3661 409.5,-181.3661 507.5,-181.3661 507.5,-162.3661 409.5,-162.3661"/>
<text text-anchor="middle" x="458.5" y="-169.3661" font-family="Helvetica,sans-Serif" font-size="10.00" fill="#000000">js_dynamic_import</text>
</a>
</g>
</g>
<!-- Node244176&#45;&gt;Node244221 -->
<g id="edge22" class="edge">
<title>Node244176&#45;&gt;Node244221</title>
<path fill="none" stroke="#191970" d="M306.0618,-392.2028C311.6391,-349.1581 330.9774,-246.0367 392,-190.8661 396.9877,-186.3567 402.9754,-182.911 409.287,-180.2794"/>
<polygon fill="#191970" stroke="#191970" points="302.5752,-391.8842 304.8764,-402.2261 309.5267,-392.7065 302.5752,-391.8842"/>
</g>
<!-- Node244232 -->
<g id="node19" class="node">
<title>Node244232</title>
<g id="a_node19"><a xlink:href="quickjs_8c.html#a8d4b24969540aff427939eeda47f451d" target="_top" xlink:title="js_function_apply">
<polygon fill="none" stroke="#ff0000" points="412.5,-124.3661 412.5,-143.3661 504.5,-143.3661 504.5,-124.3661 412.5,-124.3661"/>
<text text-anchor="middle" x="458.5" y="-131.3661" font-family="Helvetica,sans-Serif" font-size="10.00" fill="#000000">js_function_apply</text>
</a>
</g>
</g>
<!-- Node244176&#45;&gt;Node244232 -->
<g id="edge24" class="edge">
<title>Node244176&#45;&gt;Node244232</title>
<path fill="none" stroke="#191970" d="M308.2336,-392.0745C320.2654,-337.5652 356.1142,-187.0273 392,-152.8661 397.7398,-147.4021 404.9401,-143.4926 412.4664,-140.6993"/>
<polygon fill="#191970" stroke="#191970" points="304.7427,-391.6567 306.0363,-402.1723 311.5826,-393.1452 304.7427,-391.6567"/>
</g>
<!-- Node244240 -->
<g id="node20" class="node">
<title>Node244240</title>
<g id="a_node20"><a xlink:href="quickjs_8c.html#a677ad630a103e1f3d5129e0549112b50" target="_top" xlink:title="js_function_call">
<polygon fill="none" stroke="#000000" points="416.5,-276.3661 416.5,-295.3661 500.5,-295.3661 500.5,-276.3661 416.5,-276.3661"/>
<text text-anchor="middle" x="458.5" y="-283.3661" font-family="Helvetica,sans-Serif" font-size="10.00" fill="#000000">js_function_call</text>
</a>
</g>
</g>
<!-- Node244176&#45;&gt;Node244240 -->
<g id="edge26" class="edge">
<title>Node244176&#45;&gt;Node244240</title>
<path fill="none" stroke="#191970" d="M314.3075,-393.4007C328.6354,-369.4271 356.8218,-327.9346 392,-304.8661 399.3298,-300.0596 407.8867,-296.4493 416.3748,-293.7438"/>
<polygon fill="#191970" stroke="#191970" points="311.1829,-391.8119 309.1925,-402.2181 317.2378,-395.3245 311.1829,-391.8119"/>
</g>
<!-- Node244186 -->
<g id="node21" class="node">
<title>Node244186</title>
<g id="a_node21"><a xlink:href="quickjs_8c.html#a5e32da9a43002cb96dcbd62a1a340144" target="_top" xlink:title="js_array_from">
<polygon fill="none" stroke="#000000" points="420.5,-238.3661 420.5,-257.3661 496.5,-257.3661 496.5,-238.3661 420.5,-238.3661"/>
<text text-anchor="middle" x="458.5" y="-245.3661" font-family="Helvetica,sans-Serif" font-size="10.00" fill="#000000">js_array_from</text>
</a>
</g>
</g>
<!-- Node244176&#45;&gt;Node244186 -->
<g id="edge27" class="edge">
<title>Node244176&#45;&gt;Node244186</title>
<path fill="none" stroke="#191970" d="M310.5272,-392.3038C321.9726,-361.0314 348.6523,-299.9432 392,-266.8661 400.2091,-260.602 410.4075,-256.4024 420.3323,-253.5871"/>
<polygon fill="#191970" stroke="#191970" points="307.1237,-391.4322 307.1118,-402.027 313.7282,-393.7521 307.1237,-391.4322"/>
</g>
<!-- Node244198 -->
<g id="node22" class="node">
<title>Node244198</title>
<g id="a_node22"><a xlink:href="quickjs_8c.html#aa0bbf08a7e91459c68a312fba7016c6d" target="_top" xlink:title="js_array_every">
<polygon fill="none" stroke="#000000" points="418.5,-200.3661 418.5,-219.3661 498.5,-219.3661 498.5,-200.3661 418.5,-200.3661"/>
<text text-anchor="middle" x="458.5" y="-207.3661" font-family="Helvetica,sans-Serif" font-size="10.00" fill="#000000">js_array_every</text>
</a>
</g>
</g>
<!-- Node244176&#45;&gt;Node244198 -->
<g id="edge28" class="edge">
<title>Node244176&#45;&gt;Node244198</title>
<path fill="none" stroke="#191970" d="M307.9099,-392.0584C316.3718,-354.4897 339.9715,-272.7276 392,-228.8661 399.436,-222.5974 408.8239,-218.3934 418.1841,-215.5752"/>
<polygon fill="#191970" stroke="#191970" points="304.4082,-391.699 305.755,-402.2079 311.2556,-393.1528 304.4082,-391.699"/>
</g>
<!-- Node244241 -->
<g id="node23" class="node">
<title>Node244241</title>
<g id="a_node23"><a xlink:href="quickjs_8c.html#a36c1692489542a86dd79a7d39ab8ff95" target="_top" xlink:title="js_array_reduce">
<polygon fill="none" stroke="#000000" points="415.5,-764.3661 415.5,-783.3661 501.5,-783.3661 501.5,-764.3661 415.5,-764.3661"/>
<text text-anchor="middle" x="458.5" y="-771.3661" font-family="Helvetica,sans-Serif" font-size="10.00" fill="#000000">js_array_reduce</text>
</a>
</g>
</g>
<!-- Node244176&#45;&gt;Node244241 -->
<g id="edge29" class="edge">
<title>Node244176&#45;&gt;Node244241</title>
<path fill="none" stroke="#191970" d="M308.9493,-431.4242C327.3084,-503.9395 390.5344,-753.3601 392,-754.8661 398.2807,-761.3197 406.589,-765.6227 415.1979,-768.4813"/>
<polygon fill="#191970" stroke="#191970" points="312.338,-430.5479 306.4911,-421.7125 305.552,-432.2657 312.338,-430.5479"/>
</g>
<!-- Node244242 -->
<g id="node24" class="node">
<title>Node244242</title>
<g id="a_node24"><a xlink:href="quickjs_8c.html#a9dd41b086da4e13b3487cc9c6e2af2b8" target="_top" xlink:title="js_array_find">
<polygon fill="none" stroke="#000000" points="422.5,-726.3661 422.5,-745.3661 494.5,-745.3661 494.5,-726.3661 422.5,-726.3661"/>
<text text-anchor="middle" x="458.5" y="-733.3661" font-family="Helvetica,sans-Serif" font-size="10.00" fill="#000000">js_array_find</text>
</a>
</g>
</g>
<!-- Node244176&#45;&gt;Node244242 -->
<g id="edge30" class="edge">
<title>Node244176&#45;&gt;Node244242</title>
<path fill="none" stroke="#191970" d="M309.1139,-431.5358C326.2995,-497.3587 381.4874,-706.3808 392,-716.8661 400.0763,-724.9215 411.3162,-729.6147 422.2595,-732.3319"/>
<polygon fill="#191970" stroke="#191970" points="312.4375,-430.4101 306.5288,-421.6159 305.6637,-432.1754 312.4375,-430.4101"/>
</g>
<!-- Node244243 -->
<g id="node25" class="node">
<title>Node244243</title>
<g id="a_node25"><a xlink:href="quickjs_8c.html#ad90c33b4aae1181151bda4a98ac2ef23" target="_top" xlink:title="JS_FlattenIntoArray">
<polygon fill="none" stroke="#ff0000" points="406.5,-670.3661 406.5,-689.3661 510.5,-689.3661 510.5,-670.3661 406.5,-670.3661"/>
<text text-anchor="middle" x="458.5" y="-677.3661" font-family="Helvetica,sans-Serif" font-size="10.00" fill="#000000">JS_FlattenIntoArray</text>
</a>
</g>
</g>
<!-- Node244176&#45;&gt;Node244243 -->
<g id="edge31" class="edge">
<title>Node244176&#45;&gt;Node244243</title>
<path fill="none" stroke="#191970" d="M305.0468,-431.4176C308.6248,-478.1517 324.2703,-597.1732 392,-660.8661 396.1986,-664.8144 401.1605,-667.9501 406.4521,-670.4391"/>
<polygon fill="#191970" stroke="#191970" points="308.537,-431.1511 304.3855,-421.4035 301.5522,-431.6124 308.537,-431.1511"/>
</g>
<!-- Node244244 -->
<g id="node26" class="node">
<title>Node244244</title>
<g id="a_node26"><a xlink:href="quickjs_8c.html#a753547f952d9c8a7eba88924497c3847" target="_top" xlink:title="js_string_replace">
<polygon fill="none" stroke="#000000" points="413.5,-48.3661 413.5,-67.3661 503.5,-67.3661 503.5,-48.3661 413.5,-48.3661"/>
<text text-anchor="middle" x="458.5" y="-55.3661" font-family="Helvetica,sans-Serif" font-size="10.00" fill="#000000">js_string_replace</text>
</a>
</g>
</g>
<!-- Node244176&#45;&gt;Node244244 -->
<g id="edge33" class="edge">
<title>Node244176&#45;&gt;Node244244</title>
<path fill="none" stroke="#191970" d="M306.6171,-392.0468C315.5591,-327.2167 346.8638,-122.9795 392,-76.8661 397.7953,-70.9454 405.2975,-66.836 413.1656,-63.9917"/>
<polygon fill="#191970" stroke="#191970" points="303.1223,-391.7732 305.2501,-402.1522 310.0592,-392.7117 303.1223,-391.7732"/>
</g>
<!-- Node244245 -->
<g id="node27" class="node">
<title>Node244245</title>
<g id="a_node27"><a xlink:href="quickjs_8c.html#a624282391413d4c5a030adbd8b77aa80" target="_top" xlink:title="internalize_json_property">
<polygon fill="none" stroke="#ff0000" points="396,-614.3661 396,-633.3661 521,-633.3661 521,-614.3661 396,-614.3661"/>
<text text-anchor="middle" x="458.5" y="-621.3661" font-family="Helvetica,sans-Serif" font-size="10.00" fill="#000000">internalize_json_property</text>
</a>
</g>
</g>
<!-- Node244176&#45;&gt;Node244245 -->
<g id="edge34" class="edge">
<title>Node244176&#45;&gt;Node244245</title>
<path fill="none" stroke="#191970" d="M307.3642,-431.6755C315.0554,-470.7639 337.6357,-558.0771 392,-604.8661 396.5503,-608.7824 401.86,-611.8937 407.4587,-614.365"/>
<polygon fill="#191970" stroke="#191970" points="310.7608,-430.7946 305.5055,-421.5951 303.8769,-432.064 310.7608,-430.7946"/>
</g>
<!-- Node244247 -->
<g id="node28" class="node">
<title>Node244247</title>
<g id="a_node28"><a xlink:href="quickjs_8c.html#a0da6493b4bc0edb7ddddfab807241d0b" target="_top" xlink:title="js_json_check">
<polygon fill="none" stroke="#ff0000" points="419,-86.3661 419,-105.3661 498,-105.3661 498,-86.3661 419,-86.3661"/>
<text text-anchor="middle" x="458.5" y="-93.3661" font-family="Helvetica,sans-Serif" font-size="10.00" fill="#000000">js_json_check</text>
</a>
</g>
</g>
<!-- Node244176&#45;&gt;Node244247 -->
<g id="edge36" class="edge">
<title>Node244176&#45;&gt;Node244247</title>
<path fill="none" stroke="#191970" d="M307.2691,-392.3827C317.6261,-332.8641 351.4348,-155.0375 392,-114.8661 399.2519,-107.6846 409.0193,-103.1775 418.8324,-100.3604"/>
<polygon fill="#191970" stroke="#191970" points="303.8008,-391.9005 305.5633,-402.3477 310.7005,-393.0816 303.8008,-391.9005"/>
</g>
<!-- Node244250 -->
<g id="node29" class="node">
<title>Node244250</title>
<g id="a_node29"><a xlink:href="quickjs_8c.html#ab586d841244b113ba73eec314395775d" target="_top" xlink:title="js_proxy_call">
<polygon fill="none" stroke="#ff0000" points="421.5,-576.3661 421.5,-595.3661 495.5,-595.3661 495.5,-576.3661 421.5,-576.3661"/>
<text text-anchor="middle" x="458.5" y="-583.3661" font-family="Helvetica,sans-Serif" font-size="10.00" fill="#000000">js_proxy_call</text>
</a>
</g>
</g>
<!-- Node244176&#45;&gt;Node244250 -->
<g id="edge37" class="edge">
<title>Node244176&#45;&gt;Node244250</title>
<path fill="none" stroke="#191970" d="M309.6872,-431.3726C320.3098,-464.3306 346.3253,-530.9495 392,-566.8661 400.4002,-573.4717 410.9972,-577.7808 421.2482,-580.5918"/>
<polygon fill="#191970" stroke="#191970" points="312.9589,-430.1044 306.6687,-421.5789 306.2694,-432.1662 312.9589,-430.1044"/>
</g>
<!-- Node244206&#45;&gt;Node244163 -->
<g id="edge13" class="edge">
<title>Node244206&#45;&gt;Node244163</title>
<path fill="none" stroke="#191970" d="M397.5256,-797.2225C395.5804,-795.8935 393.729,-794.445 392,-792.8661 264.6171,-676.5457 307.8794,-594.0664 252,-430.8661 219.1595,-334.9527 186.564,-216.5074 177.1797,-181.8349"/>
<polygon fill="#191970" stroke="#191970" points="396.1354,-800.4565 406.5658,-802.3164 399.5718,-794.358 396.1354,-800.4565"/>
</g>
<!-- Node244207&#45;&gt;Node244163 -->
<g id="edge15" class="edge">
<title>Node244207&#45;&gt;Node244163</title>
<path fill="none" stroke="#191970" d="M399.9996,-836.0003C397.1931,-834.465 394.5054,-832.7599 392,-830.8661 297.7416,-759.6198 294.2704,-715.2015 252,-604.8661 190.2547,-443.6967 177.1282,-229.6301 174.8996,-181.6715"/>
<polygon fill="#191970" stroke="#191970" points="398.7491,-839.2793 409.2899,-840.3484 401.7165,-832.9394 398.7491,-839.2793"/>
</g>
<!-- Node244207&#45;&gt;Node244208 -->
<g id="edge16" class="edge">
<title>Node244207&#45;&gt;Node244208</title>
<path fill="none" stroke="#191970" d="M521.7238,-834.2415C522.8789,-833.1863 523.9743,-832.0626 525,-830.8661 580.7983,-765.7812 622.1852,-107.5123 627.4359,-20.3729"/>
<polygon fill="#191970" stroke="#191970" points="519.4216,-831.5856 513.3365,-840.2587 523.5021,-837.2733 519.4216,-831.5856"/>
</g>
<!-- Node244208&#45;&gt;Node244163 -->
<g id="edge17" class="edge">
<title>Node244208&#45;&gt;Node244163</title>
<path fill="none" stroke="#191970" d="M550.7467,-14.0661C469.9372,-16.4003 342.4941,-27.1226 252,-85.8661 220.3996,-106.3793 195.4483,-143.9406 183.058,-162.1949"/>
<polygon fill="#191970" stroke="#191970" points="550.9449,-17.5623 560.8529,-13.8095 550.7672,-10.5646 550.9449,-17.5623"/>
</g>
<!-- Node244221&#45;&gt;Node244163 -->
<g id="edge23" class="edge">
<title>Node244221&#45;&gt;Node244163</title>
<path fill="none" stroke="#191970" d="M398.8798,-171.8661C344.0941,-171.8661 264.2991,-171.8661 216.1002,-171.8661"/>
<polygon fill="#191970" stroke="#191970" points="399.1457,-175.3662 409.1457,-171.8661 399.1456,-168.3662 399.1457,-175.3662"/>
</g>
<!-- Node244232&#45;&gt;Node244163 -->
<g id="edge25" class="edge">
<title>Node244232&#45;&gt;Node244163</title>
<path fill="none" stroke="#191970" d="M401.8165,-141.4505C346.9799,-148.7878 265.1675,-159.7346 216.1002,-166.2999"/>
<polygon fill="#191970" stroke="#191970" points="402.6194,-144.8744 412.0669,-140.079 401.691,-137.9362 402.6194,-144.8744"/>
</g>
<!-- Node244243&#45;&gt;Node244243 -->
<g id="edge32" class="edge">
<title>Node244243&#45;&gt;Node244243</title>
<path fill="none" stroke="#191970" d="M429.7542,-698.5201C430.9558,-703.8029 440.5377,-707.8661 458.5,-707.8661 485.8711,-707.8661 493.7831,-698.4314 482.2359,-689.6232"/>
<polygon fill="#191970" stroke="#191970" points="432.9072,-700.054 434.7641,-689.6232 426.8077,-696.6193 432.9072,-700.054"/>
</g>
<!-- Node244245&#45;&gt;Node244245 -->
<g id="edge35" class="edge">
<title>Node244245&#45;&gt;Node244245</title>
<path fill="none" stroke="#191970" d="M429.7542,-642.5201C430.9558,-647.8029 440.5377,-651.8661 458.5,-651.8661 485.8711,-651.8661 493.7831,-642.4314 482.2359,-633.6232"/>
<polygon fill="#191970" stroke="#191970" points="432.9072,-644.054 434.7641,-633.6232 426.8077,-640.6193 432.9072,-644.054"/>
</g>
<!-- Node244259&#45;&gt;Node244163 -->
<g id="edge40" class="edge">
<title>Node244259&#45;&gt;Node244163</title>
<path fill="none" stroke="#191970" d="M286.8815,-110.7619C276.5736,-116.4147 263.3,-122.5202 252,-128.8661 233.3516,-139.3387 213.3295,-152.8367 198.3083,-162.2219"/>
<polygon fill="#191970" stroke="#191970" points="288.911,-113.6263 295.6946,-105.4879 285.3164,-107.6197 288.911,-113.6263"/>
</g>
<!-- Node244259&#45;&gt;Node244244 -->
<g id="edge42" class="edge">
<title>Node244259&#45;&gt;Node244244</title>
<path fill="none" stroke="#191970" d="M349.7158,-84.6221C371.941,-79.1557 398.3704,-72.6553 419.6129,-67.4306"/>
<polygon fill="#191970" stroke="#191970" points="348.7084,-81.2655 339.8337,-87.0526 350.3803,-88.0629 348.7084,-81.2655"/>
</g>
<!-- Node244259&#45;&gt;Node244247 -->
<g id="edge41" class="edge">
<title>Node244259&#45;&gt;Node244247</title>
<path fill="none" stroke="#191970" d="M349.8985,-95.8661C371.7986,-95.8661 397.7473,-95.8661 418.7877,-95.8661"/>
<polygon fill="#191970" stroke="#191970" points="349.8338,-92.3662 339.8337,-95.8661 349.8337,-99.3662 349.8338,-92.3662"/>
</g>
</g>
</svg>
        <g id="navigator" transform="translate(0 0)" fill="#404254">
                <rect fill="#f2f5e9" fill-opacity="0.5" stroke="#606060" stroke-width=".5" x="0" y="0" width="60" height="60"/>
                <use id="zoomplus" xlink:href="#zoomPlus" x="17" y="9" onmousedown="handleZoom(evt,'in')"/>
                <use id="zoomminus" xlink:href="#zoomMin" x="42" y="9" onmousedown="handleZoom(evt,'out')"/>
                <use id="reset" xlink:href="#resetDef" x="30" y="36" onmousedown="handleReset()"/>
                <g id="arrowUp" xlink:href="#dirArrow" transform="translate(30 24)" onmousedown="handlePan(0,-1)">
                  <use xlink:href="#rim" fill="#404040">
                        <set attributeName="fill" to="#808080" begin="arrowUp.mouseover" end="arrowUp.mouseout"/>
                  </use>
                  <path fill="none" stroke="white" stroke-width="1.5" d="M0,-3.0v7 M-2.5,-0.5L0,-3.0L2.5,-0.5"/>
                </g>
                <g id="arrowRight" xlink:href="#dirArrow" transform="rotate(90) translate(36 -43)" onmousedown="handlePan(1,0)">
                  <use xlink:href="#rim" fill="#404040">
                        <set attributeName="fill" to="#808080" begin="arrowRight.mouseover" end="arrowRight.mouseout"/>
                  </use>
                  <path fill="none" stroke="white" stroke-width="1.5" d="M0,-3.0v7 M-2.5,-0.5L0,-3.0L2.5,-0.5"/>
                </g>
                <g id="arrowDown" xlink:href="#dirArrow" transform="rotate(180) translate(-30 -48)" onmousedown="handlePan(0,1)">
                  <use xlink:href="#rim" fill="#404040">
                        <set attributeName="fill" to="#808080" begin="arrowDown.mouseover" end="arrowDown.mouseout"/>
                  </use>
                  <path fill="none" stroke="white" stroke-width="1.5" d="M0,-3.0v7 M-2.5,-0.5L0,-3.0L2.5,-0.5"/>
                </g>
                <g id="arrowLeft" xlink:href="#dirArrow" transform="rotate(270) translate(-36 17)" onmousedown="handlePan(-1,0)">
                  <use xlink:href="#rim" fill="#404040">
                        <set attributeName="fill" to="#808080" begin="arrowLeft.mouseover" end="arrowLeft.mouseout"/>
                  </use>
                  <path fill="none" stroke="white" stroke-width="1.5" d="M0,-3.0v7 M-2.5,-0.5L0,-3.0L2.5,-0.5"/>
                </g>
        </g>
        <svg viewBox="0 0 15 15" width="100%" height="30px" preserveAspectRatio="xMaxYMin meet">
         <g id="arrow_out" transform="scale(0.3 0.3)">
          <a xlink:href="quickjs_8c_aa914147e4af4aa3d6efcce2527f8b90a_icgraph_org.svg" target="_base">
           <rect id="button" ry="5" rx="5" y="6" x="6" height="38" width="38"
                fill="#f2f5e9" fill-opacity="0.5" stroke="#606060" stroke-width="1.0"/>
           <path id="arrow"
             d="M 11.500037,31.436501 C 11.940474,20.09759 22.043105,11.32322 32.158766,21.979434 L 37.068811,17.246167 C 37.068811,17.246167 37.088388,32 37.088388,32 L 22.160133,31.978069 C 22.160133,31.978069 26.997745,27.140456 26.997745,27.140456 C 18.528582,18.264221 13.291696,25.230495 11.500037,31.436501 z"
             style="fill:#404040;"/>
          </a>
         </g>
        </svg>
</svg>
