<?xml version="1.0" encoding="UTF-8" standalone="no"?>
<!DOCTYPE svg PUBLIC "-//W3C//DTD SVG 1.1//EN"
 "http://www.w3.org/Graphics/SVG/1.1/DTD/svg11.dtd">
<!-- Generated by graphviz version 2.40.1 (20161225.0304)
 -->
<!-- Title: JS_IsInstanceOf Pages: 1 -->
<!--zoomable 1226 -->
<svg id="main" version="1.1" xmlns="http://www.w3.org/2000/svg" xmlns:xlink="http://www.w3.org/1999/xlink" xml:space="preserve" onload="init(evt)">
<style type="text/css"><![CDATA[
.edge:hover path { stroke: red; }
.edge:hover polygon { stroke: red; fill: red; }
]]></style>
<script type="text/javascript"><![CDATA[
var edges = document.getElementsByTagName('g');
if (edges && edges.length) {
  for (var i=0;i<edges.length;i++) {
    if (edges[i].id.substr(0,4)=='edge') {
      edges[i].setAttribute('class','edge');
    }
  }
}
]]></script>
        <defs>
                <circle id="rim" cx="0" cy="0" r="7"/>
                <circle id="rim2" cx="0" cy="0" r="3.5"/>
                <g id="zoomPlus">
                        <use xlink:href="#rim" fill="#404040">
                                <set attributeName="fill" to="#808080" begin="zoomplus.mouseover" end="zoomplus.mouseout"/>
                        </use>
                        <path d="M-4,0h8M0,-4v8" fill="none" stroke="white" stroke-width="1.5" pointer-events="none"/>
                </g>
                <g id="zoomMin">
                        <use xlink:href="#rim" fill="#404040">
                                <set attributeName="fill" to="#808080" begin="zoomminus.mouseover" end="zoomminus.mouseout"/>
                        </use>
                        <path d="M-4,0h8" fill="none" stroke="white" stroke-width="1.5" pointer-events="none"/>
                </g>
                <g id="dirArrow">
                        <path fill="none" stroke="white" stroke-width="1.5" d="M0,-3.0v7 M-2.5,-0.5L0,-3.0L2.5,-0.5"/>
                </g>
               <g id="resetDef">
                       <use xlink:href="#rim2" fill="#404040">
                               <set attributeName="fill" to="#808080" begin="reset.mouseover" end="reset.mouseout"/>
                       </use>
               </g>
        </defs>

<script type="text/javascript">
var viewWidth = 806;
var viewHeight = 1226;
var sectionId = 'dynsection-538';
</script>
<script xlink:href="svgpan.js"/>
<svg id="graph" class="graph">
<g id="viewport">
<title>JS_IsInstanceOf</title>
<!-- Node178718 -->
<g id="node1" class="node">
<title>Node178718</title>
<polygon fill="#bfbfbf" stroke="#000000" points="0,-209.5 0,-228.5 90,-228.5 90,-209.5 0,-209.5"/>
<text text-anchor="middle" x="45" y="-216.5" font-family="Helvetica,sans-Serif" font-size="10.00" fill="#000000">JS_IsInstanceOf</text>
</g>
<!-- Node178719 -->
<g id="node2" class="node">
<title>Node178719</title>
<g id="a_node2"><a xlink:href="quickjs_8c.html#a75f6ee5e4235a7dc99889f3d2eb2c147" target="_top" xlink:title="JS_CallFree">
<polygon fill="none" stroke="#000000" points="126,-627.5 126,-646.5 197,-646.5 197,-627.5 126,-627.5"/>
<text text-anchor="middle" x="161.5" y="-634.5" font-family="Helvetica,sans-Serif" font-size="10.00" fill="#000000">JS_CallFree</text>
</a>
</g>
</g>
<!-- Node178718&#45;&gt;Node178719 -->
<g id="edge1" class="edge">
<title>Node178718&#45;&gt;Node178719</title>
<path fill="none" stroke="#191970" d="M47.6522,-228.5159C62.5035,-281.8022 135.4202,-543.4261 156.0519,-617.4523"/>
<polygon fill="#191970" stroke="#191970" points="152.7447,-618.6228 158.801,-627.316 159.4877,-616.7435 152.7447,-618.6228"/>
</g>
<!-- Node178810 -->
<g id="node10" class="node">
<title>Node178810</title>
<g id="a_node10"><a xlink:href="quickjs_8h.html#ad80a83d73e9b7d872b88fbf2943aebe9" target="_top" xlink:title="JS_IsException">
<polygon fill="none" stroke="#000000" points="567.5,-969.5 567.5,-988.5 653.5,-988.5 653.5,-969.5 567.5,-969.5"/>
<text text-anchor="middle" x="610.5" y="-976.5" font-family="Helvetica,sans-Serif" font-size="10.00" fill="#000000">JS_IsException</text>
</a>
</g>
</g>
<!-- Node178718&#45;&gt;Node178810 -->
<g id="edge40" class="edge">
<title>Node178718&#45;&gt;Node178810</title>
<path fill="none" stroke="#191970" d="M45.3771,-228.7043C48.5361,-307.5954 71.8282,-844.687 126,-996 155.0842,-1077.2382 158.43,-1114.5851 233,-1158 341.3959,-1221.1085 416.6178,-1246.8029 515,-1169 569.4543,-1125.9363 510.8035,-1073.6038 551,-1017 557.9004,-1007.283 568.1427,-999.4654 578.1927,-993.5062"/>
<polygon fill="#191970" stroke="#191970" points="580.1653,-996.4171 587.267,-988.5547 576.8123,-990.2723 580.1653,-996.4171"/>
</g>
<!-- Node178776 -->
<g id="node22" class="node">
<title>Node178776</title>
<g id="a_node22"><a xlink:href="quickjs_8h.html#a89b7c8686c7eee70b86be722ee4730ad" target="_top" xlink:title="JS_GetProperty">
<polygon fill="none" stroke="#000000" points="412.5,-152.5 412.5,-171.5 498.5,-171.5 498.5,-152.5 412.5,-152.5"/>
<text text-anchor="middle" x="455.5" y="-159.5" font-family="Helvetica,sans-Serif" font-size="10.00" fill="#000000">JS_GetProperty</text>
</a>
</g>
</g>
<!-- Node178718&#45;&gt;Node178776 -->
<g id="edge39" class="edge">
<title>Node178718&#45;&gt;Node178776</title>
<path fill="none" stroke="#191970" d="M90.1049,-212.737C166.5026,-202.1288 320.9797,-180.6788 402.4468,-169.3667"/>
<polygon fill="#191970" stroke="#191970" points="403.0638,-172.8147 412.4874,-167.9725 402.101,-165.8812 403.0638,-172.8147"/>
</g>
<!-- Node178811 -->
<g id="node25" class="node">
<title>Node178811</title>
<g id="a_node25"><a xlink:href="quickjs_8h.html#a149f24b67e745bad93573b3b4c80db4c" target="_top" xlink:title="JS_IsNull">
<polygon fill="none" stroke="#000000" points="426,-266.5 426,-285.5 485,-285.5 485,-266.5 426,-266.5"/>
<text text-anchor="middle" x="455.5" y="-273.5" font-family="Helvetica,sans-Serif" font-size="10.00" fill="#000000">JS_IsNull</text>
</a>
</g>
</g>
<!-- Node178718&#45;&gt;Node178811 -->
<g id="edge42" class="edge">
<title>Node178718&#45;&gt;Node178811</title>
<path fill="none" stroke="#191970" d="M81.5088,-228.5096C95.3687,-231.8699 111.3436,-235.4447 126,-238 229.7663,-256.0912 353.4698,-267.7299 415.6421,-272.9007"/>
<polygon fill="#191970" stroke="#191970" points="415.5463,-276.4045 425.7988,-273.7331 416.1182,-269.4278 415.5463,-276.4045"/>
</g>
<!-- Node179037 -->
<g id="node26" class="node">
<title>Node179037</title>
<g id="a_node26"><a xlink:href="quickjs_8h.html#a3d68fe446df2d9c7d1900b16371bff5b" target="_top" xlink:title="JS_IsObject">
<polygon fill="none" stroke="#000000" points="420,-228.5 420,-247.5 491,-247.5 491,-228.5 420,-228.5"/>
<text text-anchor="middle" x="455.5" y="-235.5" font-family="Helvetica,sans-Serif" font-size="10.00" fill="#000000">JS_IsObject</text>
</a>
</g>
</g>
<!-- Node178718&#45;&gt;Node179037 -->
<g id="edge43" class="edge">
<title>Node178718&#45;&gt;Node179037</title>
<path fill="none" stroke="#191970" d="M90.1049,-221.0877C168.8385,-224.7319 330.4994,-232.2143 409.7107,-235.8806"/>
<polygon fill="#191970" stroke="#191970" points="409.7152,-239.3845 419.8664,-236.3507 410.039,-232.392 409.7152,-239.3845"/>
</g>
<!-- Node178814 -->
<g id="node27" class="node">
<title>Node178814</title>
<g id="a_node27"><a xlink:href="quickjs_8h.html#a4e407128a9605afb77523e49e9a627fd" target="_top" xlink:title="JS_IsUndefined">
<polygon fill="none" stroke="#000000" points="412.5,-190.5 412.5,-209.5 498.5,-209.5 498.5,-190.5 412.5,-190.5"/>
<text text-anchor="middle" x="455.5" y="-197.5" font-family="Helvetica,sans-Serif" font-size="10.00" fill="#000000">JS_IsUndefined</text>
</a>
</g>
</g>
<!-- Node178718&#45;&gt;Node178814 -->
<g id="edge44" class="edge">
<title>Node178718&#45;&gt;Node178814</title>
<path fill="none" stroke="#191970" d="M90.1049,-216.9123C166.5026,-213.3763 320.9797,-206.2263 402.4468,-202.4556"/>
<polygon fill="#191970" stroke="#191970" points="402.6599,-205.9495 412.4874,-201.9908 402.3362,-198.957 402.6599,-205.9495"/>
</g>
<!-- Node178815 -->
<g id="node28" class="node">
<title>Node178815</title>
<g id="a_node28"><a xlink:href="quickjs_8c.html#a2bf30c9cddfe98a32535843202495069" target="_top" xlink:title="JS_ToBoolFree">
<polygon fill="none" stroke="#000000" points="413.5,-1140.5 413.5,-1159.5 497.5,-1159.5 497.5,-1140.5 413.5,-1140.5"/>
<text text-anchor="middle" x="455.5" y="-1147.5" font-family="Helvetica,sans-Serif" font-size="10.00" fill="#000000">JS_ToBoolFree</text>
</a>
</g>
</g>
<!-- Node178718&#45;&gt;Node178815 -->
<g id="edge52" class="edge">
<title>Node178718&#45;&gt;Node178815</title>
<path fill="none" stroke="#191970" d="M45.4778,-228.7778C50.0733,-318.4943 89.4411,-998.2485 233,-1126 279.0254,-1166.9575 353.4044,-1166.3828 403.3507,-1160.0135"/>
<polygon fill="#191970" stroke="#191970" points="403.8871,-1163.4727 413.3085,-1158.6263 402.9211,-1156.5396 403.8871,-1163.4727"/>
</g>
<!-- Node178855 -->
<g id="node29" class="node">
<title>Node178855</title>
<g id="a_node29"><a xlink:href="quickjs_8c.html#a1ca9cdb1fa2ffc3e6506e92b200e490f" target="_top" xlink:title="JS_IsFunction">
<polygon fill="none" stroke="#000000" points="415.5,-.5 415.5,-19.5 495.5,-19.5 495.5,-.5 415.5,-.5"/>
<text text-anchor="middle" x="455.5" y="-7.5" font-family="Helvetica,sans-Serif" font-size="10.00" fill="#000000">JS_IsFunction</text>
</a>
</g>
</g>
<!-- Node178718&#45;&gt;Node178855 -->
<g id="edge41" class="edge">
<title>Node178718&#45;&gt;Node178855</title>
<path fill="none" stroke="#191970" d="M50.3885,-209.414C61.8105,-189.9386 90.3545,-145.5179 126,-121 213.7527,-60.6412 337.0663,-30.7554 405.236,-18.0095"/>
<polygon fill="#191970" stroke="#191970" points="406.0746,-21.4145 415.2862,-16.1803 404.8211,-14.5276 406.0746,-21.4145"/>
</g>
<!-- Node179185 -->
<g id="node30" class="node">
<title>Node179185</title>
<g id="a_node30"><a xlink:href="quickjs_8c.html#aa0b5c1a59ff4832154e2a98d7c63a4b2" target="_top" xlink:title="JS_OrdinaryIsInstanceOf">
<polygon fill="none" stroke="#000000" points="233,-105.5 233,-124.5 360,-124.5 360,-105.5 233,-105.5"/>
<text text-anchor="middle" x="296.5" y="-112.5" font-family="Helvetica,sans-Serif" font-size="10.00" fill="#000000">JS_OrdinaryIsInstanceOf</text>
</a>
</g>
</g>
<!-- Node178718&#45;&gt;Node179185 -->
<g id="edge45" class="edge">
<title>Node178718&#45;&gt;Node179185</title>
<path fill="none" stroke="#191970" d="M49.2642,-209.2984C60.3415,-191.2473 91.5725,-155.8622 126,-139 155.8003,-124.4042 191.4905,-116.259 222.4983,-112.4309"/>
<polygon fill="#191970" stroke="#191970" points="223.2622,-115.868 232.8193,-111.2951 222.4964,-108.9101 223.2622,-115.868"/>
</g>
<!-- Node178720 -->
<g id="node3" class="node">
<title>Node178720</title>
<g id="a_node3"><a xlink:href="quickjs_8c.html#ac2894ff4edcdb4e6841bcce9c76081e3" target="_top" xlink:title="JS_CallInternal">
<polygon fill="none" stroke="#ff0000" points="255,-627.5 255,-646.5 338,-646.5 338,-627.5 255,-627.5"/>
<text text-anchor="middle" x="296.5" y="-634.5" font-family="Helvetica,sans-Serif" font-size="10.00" fill="#000000">JS_CallInternal</text>
</a>
</g>
</g>
<!-- Node178719&#45;&gt;Node178720 -->
<g id="edge2" class="edge">
<title>Node178719&#45;&gt;Node178720</title>
<path fill="none" stroke="#191970" d="M197.3231,-630.9595C211.8047,-630.26 228.8021,-630.0777 244.5947,-630.4127"/>
<polygon fill="#191970" stroke="#191970" points="244.6629,-633.9161 254.7601,-630.7074 244.8657,-626.919 244.6629,-633.9161"/>
</g>
<!-- Node178773 -->
<g id="node9" class="node">
<title>Node178773</title>
<g id="a_node9"><a xlink:href="quickjs_8h.html#afaa20c47565bc704c6c85f3d77254e7d" target="_top" xlink:title="JS_FreeValue">
<polygon fill="none" stroke="#ff0000" points="713,-855.5 713,-874.5 791,-874.5 791,-855.5 713,-855.5"/>
<text text-anchor="middle" x="752" y="-862.5" font-family="Helvetica,sans-Serif" font-size="10.00" fill="#000000">JS_FreeValue</text>
</a>
</g>
</g>
<!-- Node178719&#45;&gt;Node178773 -->
<g id="edge38" class="edge">
<title>Node178719&#45;&gt;Node178773</title>
<path fill="none" stroke="#191970" d="M162.6754,-646.6426C170.1424,-703.0011 216.5609,-990.3631 396,-1080 505.3939,-1134.6466 573.52,-1130.1325 670,-1055 725.3288,-1011.9135 743.956,-924.0736 749.6834,-884.7747"/>
<polygon fill="#191970" stroke="#191970" points="753.1544,-885.2235 751.001,-874.8499 746.2153,-884.3022 753.1544,-885.2235"/>
</g>
<!-- Node178720&#45;&gt;Node178719 -->
<g id="edge22" class="edge">
<title>Node178720&#45;&gt;Node178719</title>
<path fill="none" stroke="#191970" d="M254.7601,-643.2926C239.8175,-643.8489 222.8935,-643.8978 207.6032,-643.4391"/>
<polygon fill="#191970" stroke="#191970" points="207.4512,-639.9306 197.3231,-643.0405 207.1799,-646.9254 207.4512,-639.9306"/>
</g>
<!-- Node178720&#45;&gt;Node178720 -->
<g id="edge23" class="edge">
<title>Node178720&#45;&gt;Node178720</title>
<path fill="none" stroke="#191970" d="M275.8467,-646.7571C265.7992,-655.5653 272.6836,-665 296.5,-665 311.7574,-665 320.0659,-661.128 321.4255,-656.0292"/>
<polygon fill="#191970" stroke="#191970" points="324.5169,-654.3747 317.1533,-646.7571 318.1593,-657.304 324.5169,-654.3747"/>
</g>
<!-- Node178721 -->
<g id="node4" class="node">
<title>Node178721</title>
<g id="a_node4"><a xlink:href="quickjs_8c.html#a853f0924d441ea4225488f37c8b69f9a" target="_top" xlink:title="__attribute__">
<polygon fill="none" stroke="#000000" points="419,-912.5 419,-931.5 492,-931.5 492,-912.5 419,-912.5"/>
<text text-anchor="middle" x="455.5" y="-919.5" font-family="Helvetica,sans-Serif" font-size="10.00" fill="#000000">__attribute__</text>
</a>
</g>
</g>
<!-- Node178720&#45;&gt;Node178721 -->
<g id="edge3" class="edge">
<title>Node178720&#45;&gt;Node178721</title>
<path fill="none" stroke="#191970" d="M297.1675,-646.6015C300.3469,-684.8644 317.2694,-828.0247 396,-903 399.8282,-906.6456 404.356,-909.5917 409.1783,-911.9726"/>
<polygon fill="#191970" stroke="#191970" points="408.1281,-915.325 418.7079,-915.8897 410.7895,-908.8507 408.1281,-915.325"/>
</g>
<!-- Node178722 -->
<g id="node5" class="node">
<title>Node178722</title>
<g id="a_node5"><a xlink:href="quickjs_8c.html#a877fcb7651d95b411ce70e62b7f4a1f0" target="_top" xlink:title="__JS_AtomFromUInt32">
<polygon fill="none" stroke="#000000" points="396,-874.5 396,-893.5 515,-893.5 515,-874.5 396,-874.5"/>
<text text-anchor="middle" x="455.5" y="-881.5" font-family="Helvetica,sans-Serif" font-size="10.00" fill="#000000">__JS_AtomFromUInt32</text>
</a>
</g>
</g>
<!-- Node178720&#45;&gt;Node178722 -->
<g id="edge4" class="edge">
<title>Node178720&#45;&gt;Node178722</title>
<path fill="none" stroke="#191970" d="M297.88,-646.8905C303.3089,-682.0455 326.4261,-802.2089 396,-865 397.7333,-866.5643 399.5959,-867.9999 401.5538,-869.3173"/>
<polygon fill="#191970" stroke="#191970" points="400.2023,-872.5704 410.6432,-874.3696 403.6032,-866.452 400.2023,-872.5704"/>
</g>
<!-- Node178723 -->
<g id="node6" class="node">
<title>Node178723</title>
<g id="a_node6"><a xlink:href="quickjs_8c.html#a74547db03bf739a52c83a326b32db997" target="_top" xlink:title="add_property">
<polygon fill="none" stroke="#ff0000" points="419,-836.5 419,-855.5 492,-855.5 492,-836.5 419,-836.5"/>
<text text-anchor="middle" x="455.5" y="-843.5" font-family="Helvetica,sans-Serif" font-size="10.00" fill="#000000">add_property</text>
</a>
</g>
</g>
<!-- Node178720&#45;&gt;Node178723 -->
<g id="edge5" class="edge">
<title>Node178720&#45;&gt;Node178723</title>
<path fill="none" stroke="#191970" d="M298.7292,-646.5254C306.4512,-677.411 334.9895,-775.7431 396,-827 399.9969,-830.3579 404.5947,-833.1248 409.4259,-835.4043"/>
<polygon fill="#191970" stroke="#191970" points="408.324,-838.7334 418.908,-839.2141 410.9339,-832.2381 408.324,-838.7334"/>
</g>
<!-- Node178771 -->
<g id="node7" class="node">
<title>Node178771</title>
<g id="a_node7"><a xlink:href="quickjs_8c.html#a4956f45ffd2849b96dc051277264f87a" target="_top" xlink:title="build_arg_list">
<polygon fill="none" stroke="#ff0000" points="418.5,-1026.5 418.5,-1045.5 492.5,-1045.5 492.5,-1026.5 418.5,-1026.5"/>
<text text-anchor="middle" x="455.5" y="-1033.5" font-family="Helvetica,sans-Serif" font-size="10.00" fill="#000000">build_arg_list</text>
</a>
</g>
</g>
<!-- Node178720&#45;&gt;Node178771 -->
<g id="edge6" class="edge">
<title>Node178720&#45;&gt;Node178771</title>
<path fill="none" stroke="#191970" d="M297.6649,-646.7717C303.0026,-688.7057 327.8559,-856.612 396,-974 406.199,-991.5693 422.3829,-1007.99 435.2989,-1019.5128"/>
<polygon fill="#191970" stroke="#191970" points="433.3595,-1022.462 443.2189,-1026.3406 437.9302,-1017.1602 433.3595,-1022.462"/>
</g>
<!-- Node178772 -->
<g id="node8" class="node">
<title>Node178772</title>
<g id="a_node8"><a xlink:href="quickjs_8c.html#ac864482356b3efc2d0b0a509fcfa4c7c" target="_top" xlink:title="free_arg_list">
<polygon fill="none" stroke="#ff0000" points="575.5,-1026.5 575.5,-1045.5 645.5,-1045.5 645.5,-1026.5 575.5,-1026.5"/>
<text text-anchor="middle" x="610.5" y="-1033.5" font-family="Helvetica,sans-Serif" font-size="10.00" fill="#000000">free_arg_list</text>
</a>
</g>
</g>
<!-- Node178720&#45;&gt;Node178772 -->
<g id="edge13" class="edge">
<title>Node178720&#45;&gt;Node178772</title>
<path fill="none" stroke="#191970" d="M297.227,-646.6525C301.7794,-704.2234 328.3889,-1001.5938 396,-1055 450.0031,-1097.6571 537.2489,-1069.1448 582.009,-1049.7571"/>
<polygon fill="#191970" stroke="#191970" points="583.7072,-1052.8316 591.4028,-1045.5496 580.8457,-1046.4432 583.7072,-1052.8316"/>
</g>
<!-- Node178720&#45;&gt;Node178773 -->
<g id="edge24" class="edge">
<title>Node178720&#45;&gt;Node178773</title>
<path fill="none" stroke="#191970" d="M320.4889,-646.5922C340.5568,-654.5125 369.9974,-665.891 396,-675 448.3979,-693.3557 464.7607,-689.3678 515,-713 600.3276,-753.1374 691.6365,-819.0958 731.4593,-849.1683"/>
<polygon fill="#191970" stroke="#191970" points="729.508,-852.0815 739.5864,-855.349 733.7453,-846.5097 729.508,-852.0815"/>
</g>
<!-- Node178720&#45;&gt;Node178810 -->
<g id="edge32" class="edge">
<title>Node178720&#45;&gt;Node178810</title>
<path fill="none" stroke="#191970" d="M298.2673,-646.5377C307.1649,-693.5239 348.5078,-899.7719 396,-941 440.1678,-979.3422 509.2529,-985.2266 557.0306,-983.8765"/>
<polygon fill="#191970" stroke="#191970" points="557.3324,-987.3673 567.1853,-983.4724 557.054,-980.3729 557.3324,-987.3673"/>
</g>
<!-- Node178905 -->
<g id="node11" class="node">
<title>Node178905</title>
<g id="a_node11"><a xlink:href="quickjs_8c.html#a61c8dfb5e807af1b6ff7d8ca61576dda" target="_top" xlink:title="build_backtrace">
<polygon fill="none" stroke="#ff0000" points="413,-798.5 413,-817.5 498,-817.5 498,-798.5 413,-798.5"/>
<text text-anchor="middle" x="455.5" y="-805.5" font-family="Helvetica,sans-Serif" font-size="10.00" fill="#000000">build_backtrace</text>
</a>
</g>
</g>
<!-- Node178720&#45;&gt;Node178905 -->
<g id="edge10" class="edge">
<title>Node178720&#45;&gt;Node178905</title>
<path fill="none" stroke="#191970" d="M300.1748,-646.8392C310.7319,-673.7651 343.7799,-749.2904 396,-789 398.4667,-790.8758 401.1242,-792.5695 403.8992,-794.0986"/>
<polygon fill="#191970" stroke="#191970" points="402.5359,-797.3255 413.0717,-798.4422 405.5318,-790.999 402.5359,-797.3255"/>
</g>
<!-- Node179004 -->
<g id="node12" class="node">
<title>Node179004</title>
<g id="a_node12"><a xlink:href="quickjs_8c.html#a344894112559c2ba75043fd10bcfa02f" target="_top" xlink:title="close_lexical_var">
<polygon fill="none" stroke="#ff0000" points="409.5,-760.5 409.5,-779.5 501.5,-779.5 501.5,-760.5 409.5,-760.5"/>
<text text-anchor="middle" x="455.5" y="-767.5" font-family="Helvetica,sans-Serif" font-size="10.00" fill="#000000">close_lexical_var</text>
</a>
</g>
</g>
<!-- Node178720&#45;&gt;Node179004 -->
<g id="edge11" class="edge">
<title>Node178720&#45;&gt;Node179004</title>
<path fill="none" stroke="#191970" d="M302.1933,-646.5109C315.6973,-668.2666 351.8659,-722.012 396,-751 399.0816,-753.024 402.3942,-754.8456 405.822,-756.4827"/>
<polygon fill="#191970" stroke="#191970" points="404.5118,-759.7287 415.0855,-760.3981 407.2371,-753.281 404.5118,-759.7287"/>
</g>
<!-- Node179005 -->
<g id="node13" class="node">
<title>Node179005</title>
<g id="a_node13"><a xlink:href="quickjs_8c.html#a1782043fce951bd4f0d91c7796b31e24" target="_top" xlink:title="close_var_refs">
<polygon fill="none" stroke="#ff0000" points="415.5,-722.5 415.5,-741.5 495.5,-741.5 495.5,-722.5 415.5,-722.5"/>
<text text-anchor="middle" x="455.5" y="-729.5" font-family="Helvetica,sans-Serif" font-size="10.00" fill="#000000">close_var_refs</text>
</a>
</g>
</g>
<!-- Node178720&#45;&gt;Node179005 -->
<g id="edge12" class="edge">
<title>Node178720&#45;&gt;Node179005</title>
<path fill="none" stroke="#191970" d="M308.1463,-646.7128C326.1312,-661.3783 362.1348,-689.4295 396,-708 403.0731,-711.8786 410.9061,-715.4835 418.503,-718.6591"/>
<polygon fill="#191970" stroke="#191970" points="417.3404,-721.9638 427.9246,-722.4402 419.9476,-715.4674 417.3404,-721.9638"/>
</g>
<!-- Node178769 -->
<g id="node14" class="node">
<title>Node178769</title>
<g id="a_node14"><a xlink:href="quickjs_8c.html#a9e7b4bccf927d811b0f99b40b08c0472" target="_top" xlink:title="free_var_ref">
<polygon fill="none" stroke="#ff0000" points="421.5,-646.5 421.5,-665.5 489.5,-665.5 489.5,-646.5 421.5,-646.5"/>
<text text-anchor="middle" x="455.5" y="-653.5" font-family="Helvetica,sans-Serif" font-size="10.00" fill="#000000">free_var_ref</text>
</a>
</g>
</g>
<!-- Node178720&#45;&gt;Node178769 -->
<g id="edge14" class="edge">
<title>Node178720&#45;&gt;Node178769</title>
<path fill="none" stroke="#191970" d="M338.2754,-641.992C360.7761,-644.6808 388.5253,-647.9967 411.3762,-650.7273"/>
<polygon fill="#191970" stroke="#191970" points="411.1495,-654.2251 421.4942,-651.9364 411.9801,-647.2745 411.1495,-654.2251"/>
</g>
<!-- Node179007 -->
<g id="node15" class="node">
<title>Node179007</title>
<g id="a_node15"><a xlink:href="cutils_8h.html#a7c82a3ee025fee89db5b11ff5b7691b8" target="_top" xlink:title="get_i16">
<polygon fill="none" stroke="#000000" points="431.5,-608.5 431.5,-627.5 479.5,-627.5 479.5,-608.5 431.5,-608.5"/>
<text text-anchor="middle" x="455.5" y="-615.5" font-family="Helvetica,sans-Serif" font-size="10.00" fill="#000000">get_i16</text>
</a>
</g>
</g>
<!-- Node178720&#45;&gt;Node179007 -->
<g id="edge15" class="edge">
<title>Node178720&#45;&gt;Node179007</title>
<path fill="none" stroke="#191970" d="M338.2754,-632.008C364.0834,-628.924 396.7963,-625.0149 421.1029,-622.1103"/>
<polygon fill="#191970" stroke="#191970" points="421.7778,-625.5547 431.2919,-620.8928 420.9472,-618.6041 421.7778,-625.5547"/>
</g>
<!-- Node179008 -->
<g id="node16" class="node">
<title>Node179008</title>
<g id="a_node16"><a xlink:href="cutils_8h.html#a288ee4e688944e23500af2ecc813c306" target="_top" xlink:title="get_i8">
<polygon fill="none" stroke="#000000" points="434,-570.5 434,-589.5 477,-589.5 477,-570.5 434,-570.5"/>
<text text-anchor="middle" x="455.5" y="-577.5" font-family="Helvetica,sans-Serif" font-size="10.00" fill="#000000">get_i8</text>
</a>
</g>
</g>
<!-- Node178720&#45;&gt;Node179008 -->
<g id="edge16" class="edge">
<title>Node178720&#45;&gt;Node179008</title>
<path fill="none" stroke="#191970" d="M320.4889,-627.4078C340.5568,-619.4875 369.9974,-608.109 396,-599 405.0714,-595.8222 414.9944,-592.5671 424.0915,-589.6692"/>
<polygon fill="#191970" stroke="#191970" points="425.4359,-592.9153 433.9223,-586.5724 423.3327,-586.2388 425.4359,-592.9153"/>
</g>
<!-- Node179009 -->
<g id="node17" class="node">
<title>Node179009</title>
<g id="a_node17"><a xlink:href="cutils_8h.html#ad587834d17e95461893d59661e5e9676" target="_top" xlink:title="get_u16">
<polygon fill="none" stroke="#000000" points="430,-532.5 430,-551.5 481,-551.5 481,-532.5 430,-532.5"/>
<text text-anchor="middle" x="455.5" y="-539.5" font-family="Helvetica,sans-Serif" font-size="10.00" fill="#000000">get_u16</text>
</a>
</g>
</g>
<!-- Node178720&#45;&gt;Node179009 -->
<g id="edge17" class="edge">
<title>Node178720&#45;&gt;Node179009</title>
<path fill="none" stroke="#191970" d="M306.7088,-627.2538C323.8697,-611.3436 360.151,-579.6948 396,-561 403.5191,-557.0789 411.9968,-553.7803 420.1458,-551.0899"/>
<polygon fill="#191970" stroke="#191970" points="421.3073,-554.3946 429.8361,-548.1089 419.249,-547.704 421.3073,-554.3946"/>
</g>
<!-- Node178765 -->
<g id="node18" class="node">
<title>Node178765</title>
<g id="a_node18"><a xlink:href="cutils_8h.html#a941262a5f72fda2ec43ae7911e97a0dc" target="_top" xlink:title="get_u32">
<polygon fill="none" stroke="#000000" points="430,-494.5 430,-513.5 481,-513.5 481,-494.5 430,-494.5"/>
<text text-anchor="middle" x="455.5" y="-501.5" font-family="Helvetica,sans-Serif" font-size="10.00" fill="#000000">get_u32</text>
</a>
</g>
</g>
<!-- Node178720&#45;&gt;Node178765 -->
<g id="edge18" class="edge">
<title>Node178720&#45;&gt;Node178765</title>
<path fill="none" stroke="#191970" d="M302.1933,-627.4891C315.6973,-605.7334 351.8659,-551.988 396,-523 403.2962,-518.2078 411.8871,-514.5507 420.2371,-511.7887"/>
<polygon fill="#191970" stroke="#191970" points="421.2437,-515.1409 429.8366,-508.9431 419.2542,-508.4296 421.2437,-515.1409"/>
</g>
<!-- Node179010 -->
<g id="node19" class="node">
<title>Node179010</title>
<g id="a_node19"><a xlink:href="quickjs_8c.html#a37fe43b6649456a848bd54846450b995" target="_top" xlink:title="get_var_ref">
<polygon fill="none" stroke="#ff0000" points="423,-456.5 423,-475.5 488,-475.5 488,-456.5 423,-456.5"/>
<text text-anchor="middle" x="455.5" y="-463.5" font-family="Helvetica,sans-Serif" font-size="10.00" fill="#000000">get_var_ref</text>
</a>
</g>
</g>
<!-- Node178720&#45;&gt;Node179010 -->
<g id="edge19" class="edge">
<title>Node178720&#45;&gt;Node179010</title>
<path fill="none" stroke="#191970" d="M300.1748,-627.1608C310.7319,-600.2349 343.7799,-524.7096 396,-485 401.1547,-481.0802 407.1423,-477.9553 413.2937,-475.4677"/>
<polygon fill="#191970" stroke="#191970" points="414.7229,-478.6755 422.9989,-472.0605 412.4041,-472.0706 414.7229,-478.6755"/>
</g>
<!-- Node178941 -->
<g id="node20" class="node">
<title>Node178941</title>
<g id="a_node20"><a xlink:href="list_8h.html#a663527a4d757540b2177bef0db1ce5c0" target="_top" xlink:title="init_list_head">
<polygon fill="none" stroke="#000000" points="418.5,-418.5 418.5,-437.5 492.5,-437.5 492.5,-418.5 418.5,-418.5"/>
<text text-anchor="middle" x="455.5" y="-425.5" font-family="Helvetica,sans-Serif" font-size="10.00" fill="#000000">init_list_head</text>
</a>
</g>
</g>
<!-- Node178720&#45;&gt;Node178941 -->
<g id="edge20" class="edge">
<title>Node178720&#45;&gt;Node178941</title>
<path fill="none" stroke="#191970" d="M298.7292,-627.4746C306.4512,-596.589 334.9895,-498.2569 396,-447 399.7958,-443.811 404.1336,-441.1551 408.6986,-438.9435"/>
<polygon fill="#191970" stroke="#191970" points="410.3704,-442.0404 418.2873,-434.9996 407.7077,-435.5666 410.3704,-442.0404"/>
</g>
<!-- Node179011 -->
<g id="node21" class="node">
<title>Node179011</title>
<g id="a_node21"><a xlink:href="quickjs_8c.html#a2bb0a2ca3b8320f3ff778c65034fce49" target="_top" xlink:title="is_backtrace_needed">
<polygon fill="none" stroke="#ff0000" points="401,-380.5 401,-399.5 510,-399.5 510,-380.5 401,-380.5"/>
<text text-anchor="middle" x="455.5" y="-387.5" font-family="Helvetica,sans-Serif" font-size="10.00" fill="#000000">is_backtrace_needed</text>
</a>
</g>
</g>
<!-- Node178720&#45;&gt;Node179011 -->
<g id="edge21" class="edge">
<title>Node178720&#45;&gt;Node179011</title>
<path fill="none" stroke="#191970" d="M297.88,-627.1095C303.3089,-591.9545 326.4261,-471.7911 396,-409 397.7333,-407.4357 399.5959,-406.0001 401.5538,-404.6827"/>
<polygon fill="#191970" stroke="#191970" points="403.6032,-407.548 410.6432,-399.6304 400.2023,-401.4296 403.6032,-407.548"/>
</g>
<!-- Node178720&#45;&gt;Node178776 -->
<g id="edge25" class="edge">
<title>Node178720&#45;&gt;Node178776</title>
<path fill="none" stroke="#191970" d="M297.3251,-627.1759C302.5516,-567.1734 332.8775,-250.3715 396,-181 398.1563,-178.6302 400.6075,-176.5544 403.2567,-174.7362"/>
<polygon fill="#191970" stroke="#191970" points="405.2085,-177.6568 412.2738,-169.7617 401.8271,-171.5276 405.2085,-177.6568"/>
</g>
<!-- Node178777 -->
<g id="node23" class="node">
<title>Node178777</title>
<g id="a_node23"><a xlink:href="quickjs_8c.html#a5762c57ae0c9937e986040c01222833a" target="_top" xlink:title="JS_GetPropertyInternal">
<polygon fill="none" stroke="#ff0000" points="551,-342.5 551,-361.5 670,-361.5 670,-342.5 551,-342.5"/>
<text text-anchor="middle" x="610.5" y="-349.5" font-family="Helvetica,sans-Serif" font-size="10.00" fill="#000000">JS_GetPropertyInternal</text>
</a>
</g>
</g>
<!-- Node178720&#45;&gt;Node178777 -->
<g id="edge30" class="edge">
<title>Node178720&#45;&gt;Node178777</title>
<path fill="none" stroke="#191970" d="M298.6484,-627.4315C308.642,-583.8157 351.9603,-404.5208 396,-371 439.7893,-337.6698 504.1395,-336.3873 550.928,-341.3175"/>
<polygon fill="#191970" stroke="#191970" points="550.5884,-344.8016 560.9286,-342.4929 551.4056,-337.8495 550.5884,-344.8016"/>
</g>
<!-- Node178802 -->
<g id="node24" class="node">
<title>Node178802</title>
<g id="a_node24"><a xlink:href="quickjs_8c.html#a23a30fec3b10bfa38c3dc29b4cb1c99d" target="_top" xlink:title="JS_GetPrototype">
<polygon fill="none" stroke="#ff0000" points="706,-304.5 706,-323.5 798,-323.5 798,-304.5 706,-304.5"/>
<text text-anchor="middle" x="752" y="-311.5" font-family="Helvetica,sans-Serif" font-size="10.00" fill="#000000">JS_GetPrototype</text>
</a>
</g>
</g>
<!-- Node178720&#45;&gt;Node178802 -->
<g id="edge31" class="edge">
<title>Node178720&#45;&gt;Node178802</title>
<path fill="none" stroke="#191970" d="M298.1853,-627.412C306.6903,-580.1939 346.4483,-373.1189 396,-335 441.4336,-300.0491 607.395,-304.6723 695.7551,-309.9063"/>
<polygon fill="#191970" stroke="#191970" points="695.6774,-313.4081 705.8734,-310.5285 696.1071,-306.4213 695.6774,-313.4081"/>
</g>
<!-- Node178720&#45;&gt;Node178811 -->
<g id="edge33" class="edge">
<title>Node178720&#45;&gt;Node178811</title>
<path fill="none" stroke="#191970" d="M298.1905,-627.3098C307.0345,-577.58 349.3513,-351.3724 396,-300 401.4755,-293.97 408.6777,-289.4267 416.1734,-286.0127"/>
<polygon fill="#191970" stroke="#191970" points="417.688,-289.1782 425.717,-282.2654 415.1296,-282.6624 417.688,-289.1782"/>
</g>
<!-- Node178720&#45;&gt;Node179037 -->
<g id="edge34" class="edge">
<title>Node178720&#45;&gt;Node179037</title>
<path fill="none" stroke="#191970" d="M297.7468,-627.4527C304.885,-574.1556 342.1508,-313.7816 396,-257 400.0632,-252.7155 405.0899,-249.3941 410.4864,-246.8199"/>
<polygon fill="#191970" stroke="#191970" points="411.7855,-250.07 419.8125,-243.1549 409.2252,-243.555 411.7855,-250.07"/>
</g>
<!-- Node178720&#45;&gt;Node178814 -->
<g id="edge35" class="edge">
<title>Node178720&#45;&gt;Node178814</title>
<path fill="none" stroke="#191970" d="M297.525,-627.2605C303.6892,-570.4328 337.5424,-282.0404 396,-219 398.2488,-216.5749 400.8064,-214.4579 403.5672,-212.6101"/>
<polygon fill="#191970" stroke="#191970" points="405.2385,-215.6853 412.3537,-207.8352 401.8961,-209.5348 405.2385,-215.6853"/>
</g>
<!-- Node178720&#45;&gt;Node178815 -->
<g id="edge36" class="edge">
<title>Node178720&#45;&gt;Node178815</title>
<path fill="none" stroke="#191970" d="M296.7271,-646.5432C298.2712,-696.0108 309.9935,-927.1356 396,-1088 405.6696,-1106.0859 422.1115,-1122.626 435.2641,-1134.0653"/>
<polygon fill="#191970" stroke="#191970" points="433.0259,-1136.7562 442.9384,-1140.497 437.5222,-1131.3912 433.0259,-1136.7562"/>
</g>
<!-- Node178771&#45;&gt;Node178772 -->
<g id="edge7" class="edge">
<title>Node178771&#45;&gt;Node178772</title>
<path fill="none" stroke="#191970" d="M492.6264,-1036C514.373,-1036 542.0038,-1036 565.0467,-1036"/>
<polygon fill="#191970" stroke="#191970" points="565.2736,-1039.5001 575.2736,-1036 565.2736,-1032.5001 565.2736,-1039.5001"/>
</g>
<!-- Node178771&#45;&gt;Node178810 -->
<g id="edge9" class="edge">
<title>Node178771&#45;&gt;Node178810</title>
<path fill="none" stroke="#191970" d="M481.4435,-1026.4595C507.0379,-1017.0473 546.3621,-1002.5862 574.8769,-992.1001"/>
<polygon fill="#191970" stroke="#191970" points="576.2944,-995.3081 584.4718,-988.5716 573.8783,-988.7382 576.2944,-995.3081"/>
</g>
<!-- Node178772&#45;&gt;Node178773 -->
<g id="edge8" class="edge">
<title>Node178772&#45;&gt;Node178773</title>
<path fill="none" stroke="#191970" d="M630.0328,-1026.4607C642.4812,-1019.7153 658.3929,-1009.7927 670,-998 704.2517,-963.2005 730.8772,-911.5828 743.6668,-884.0031"/>
<polygon fill="#191970" stroke="#191970" points="746.9448,-885.2488 747.8782,-874.6951 740.5672,-882.3632 746.9448,-885.2488"/>
</g>
<!-- Node178776&#45;&gt;Node178777 -->
<g id="edge26" class="edge">
<title>Node178776&#45;&gt;Node178777</title>
<path fill="none" stroke="#191970" d="M498.7891,-171.5023C504.6102,-173.9764 510.2145,-177.0882 515,-181 565.3421,-222.1512 593.7608,-297.2331 604.9199,-332.5972"/>
<polygon fill="#191970" stroke="#191970" points="601.5848,-333.6601 607.8341,-342.2156 608.284,-331.6303 601.5848,-333.6601"/>
</g>
<!-- Node178777&#45;&gt;Node178719 -->
<g id="edge28" class="edge">
<title>Node178777&#45;&gt;Node178719</title>
<path fill="none" stroke="#191970" d="M609.6545,-361.9656C603.2567,-436.2249 561.4496,-901.4751 515,-941 377.1146,-1058.3294 210.3204,-738.5674 170.392,-655.9336"/>
<polygon fill="#191970" stroke="#191970" points="173.5366,-654.3964 166.0693,-646.8804 167.2197,-657.4126 173.5366,-654.3964"/>
</g>
<!-- Node178777&#45;&gt;Node178773 -->
<g id="edge29" class="edge">
<title>Node178777&#45;&gt;Node178773</title>
<path fill="none" stroke="#191970" d="M613.2003,-361.7898C630.2575,-423.6295 723.0949,-760.2061 746.5932,-845.3981"/>
<polygon fill="#191970" stroke="#191970" points="743.2383,-846.3981 749.2713,-855.1074 749.9863,-844.5367 743.2383,-846.3981"/>
</g>
<!-- Node178777&#45;&gt;Node178802 -->
<g id="edge27" class="edge">
<title>Node178777&#45;&gt;Node178802</title>
<path fill="none" stroke="#191970" d="M646.2064,-342.411C664.4727,-337.5056 686.9084,-331.4804 706.4112,-326.2429"/>
<polygon fill="#191970" stroke="#191970" points="707.555,-329.5599 716.305,-323.5859 705.7394,-322.7994 707.555,-329.5599"/>
</g>
<!-- Node178815&#45;&gt;Node178773 -->
<g id="edge37" class="edge">
<title>Node178815&#45;&gt;Node178773</title>
<path fill="none" stroke="#191970" d="M497.7344,-1157.7388C545.1307,-1163.8731 621.6932,-1165.7805 670,-1126 708.4174,-1094.3634 738.8867,-939.6233 748.6767,-884.5257"/>
<polygon fill="#191970" stroke="#191970" points="752.1324,-885.0822 750.4014,-874.6297 745.2363,-883.8802 752.1324,-885.0822"/>
</g>
<!-- Node179185&#45;&gt;Node178718 -->
<g id="edge51" class="edge">
<title>Node179185&#45;&gt;Node178718</title>
<path fill="none" stroke="#191970" d="M251.7395,-124.5465C216.113,-129.5179 165.8028,-137.5051 126,-157 102.8323,-168.3473 81.1121,-188.0827 66.0071,-202.4623"/>
<polygon fill="#191970" stroke="#191970" points="63.5415,-199.9773 58.7385,-209.421 68.3823,-205.0338 63.5415,-199.9773"/>
</g>
<!-- Node179185&#45;&gt;Node178773 -->
<g id="edge46" class="edge">
<title>Node179185&#45;&gt;Node178773</title>
<path fill="none" stroke="#191970" d="M320.549,-105.4809C362.748,-90.4099 451.6561,-66.059 515,-100 624.6302,-158.7422 625.0269,-217.0394 670,-333 707.6367,-430.0442 741.8621,-761.0187 750.1153,-845.3307"/>
<polygon fill="#191970" stroke="#191970" points="746.6376,-845.7314 751.0865,-855.3469 753.6049,-845.0557 746.6376,-845.7314"/>
</g>
<!-- Node179185&#45;&gt;Node178810 -->
<g id="edge49" class="edge">
<title>Node179185&#45;&gt;Node178810</title>
<path fill="none" stroke="#191970" d="M347.5065,-105.4808C397.4204,-99.3895 472.0292,-99.436 515,-143 529.8909,-158.0965 596.3649,-833.8765 608.5711,-959.138"/>
<polygon fill="#191970" stroke="#191970" points="605.1003,-959.6089 609.5523,-969.2229 612.0674,-958.931 605.1003,-959.6089"/>
</g>
<!-- Node179185&#45;&gt;Node178776 -->
<g id="edge47" class="edge">
<title>Node179185&#45;&gt;Node178776</title>
<path fill="none" stroke="#191970" d="M328.676,-124.5112C353.0564,-131.7179 386.7728,-141.6844 413.3132,-149.5297"/>
<polygon fill="#191970" stroke="#191970" points="412.5174,-152.9441 423.0994,-152.4224 414.5017,-146.2312 412.5174,-152.9441"/>
</g>
<!-- Node179185&#45;&gt;Node178802 -->
<g id="edge48" class="edge">
<title>Node179185&#45;&gt;Node178802</title>
<path fill="none" stroke="#191970" d="M314.1947,-105.3351C371.7533,-75.341 556.4821,9.3929 670,-72 707.449,-98.8511 738.1206,-241.5034 748.351,-294.3165"/>
<polygon fill="#191970" stroke="#191970" points="744.9634,-295.2381 750.2674,-304.4097 751.8405,-293.9323 744.9634,-295.2381"/>
</g>
<!-- Node179185&#45;&gt;Node178855 -->
<g id="edge50" class="edge">
<title>Node179185&#45;&gt;Node178855</title>
<path fill="none" stroke="#191970" d="M306.1987,-105.3973C323.1819,-88.9942 359.9397,-55.29 396,-34 402.5942,-30.1068 409.9379,-26.5737 417.1528,-23.4882"/>
<polygon fill="#191970" stroke="#191970" points="418.8762,-26.5663 426.8292,-19.5662 416.2467,-20.0789 418.8762,-26.5663"/>
</g>
</g>
</svg>
        <g id="navigator" transform="translate(0 0)" fill="#404254">
                <rect fill="#f2f5e9" fill-opacity="0.5" stroke="#606060" stroke-width=".5" x="0" y="0" width="60" height="60"/>
                <use id="zoomplus" xlink:href="#zoomPlus" x="17" y="9" onmousedown="handleZoom(evt,'in')"/>
                <use id="zoomminus" xlink:href="#zoomMin" x="42" y="9" onmousedown="handleZoom(evt,'out')"/>
                <use id="reset" xlink:href="#resetDef" x="30" y="36" onmousedown="handleReset()"/>
                <g id="arrowUp" xlink:href="#dirArrow" transform="translate(30 24)" onmousedown="handlePan(0,-1)">
                  <use xlink:href="#rim" fill="#404040">
                        <set attributeName="fill" to="#808080" begin="arrowUp.mouseover" end="arrowUp.mouseout"/>
                  </use>
                  <path fill="none" stroke="white" stroke-width="1.5" d="M0,-3.0v7 M-2.5,-0.5L0,-3.0L2.5,-0.5"/>
                </g>
                <g id="arrowRight" xlink:href="#dirArrow" transform="rotate(90) translate(36 -43)" onmousedown="handlePan(1,0)">
                  <use xlink:href="#rim" fill="#404040">
                        <set attributeName="fill" to="#808080" begin="arrowRight.mouseover" end="arrowRight.mouseout"/>
                  </use>
                  <path fill="none" stroke="white" stroke-width="1.5" d="M0,-3.0v7 M-2.5,-0.5L0,-3.0L2.5,-0.5"/>
                </g>
                <g id="arrowDown" xlink:href="#dirArrow" transform="rotate(180) translate(-30 -48)" onmousedown="handlePan(0,1)">
                  <use xlink:href="#rim" fill="#404040">
                        <set attributeName="fill" to="#808080" begin="arrowDown.mouseover" end="arrowDown.mouseout"/>
                  </use>
                  <path fill="none" stroke="white" stroke-width="1.5" d="M0,-3.0v7 M-2.5,-0.5L0,-3.0L2.5,-0.5"/>
                </g>
                <g id="arrowLeft" xlink:href="#dirArrow" transform="rotate(270) translate(-36 17)" onmousedown="handlePan(-1,0)">
                  <use xlink:href="#rim" fill="#404040">
                        <set attributeName="fill" to="#808080" begin="arrowLeft.mouseover" end="arrowLeft.mouseout"/>
                  </use>
                  <path fill="none" stroke="white" stroke-width="1.5" d="M0,-3.0v7 M-2.5,-0.5L0,-3.0L2.5,-0.5"/>
                </g>
        </g>
        <svg viewBox="0 0 15 15" width="100%" height="30px" preserveAspectRatio="xMaxYMin meet">
         <g id="arrow_out" transform="scale(0.3 0.3)">
          <a xlink:href="quickjs_8c_af4cd70eee97bbcab2d0f2e46cf53ccd7_cgraph_org.svg" target="_base">
           <rect id="button" ry="5" rx="5" y="6" x="6" height="38" width="38"
                fill="#f2f5e9" fill-opacity="0.5" stroke="#606060" stroke-width="1.0"/>
           <path id="arrow"
             d="M 11.500037,31.436501 C 11.940474,20.09759 22.043105,11.32322 32.158766,21.979434 L 37.068811,17.246167 C 37.068811,17.246167 37.088388,32 37.088388,32 L 22.160133,31.978069 C 22.160133,31.978069 26.997745,27.140456 26.997745,27.140456 C 18.528582,18.264221 13.291696,25.230495 11.500037,31.436501 z"
             style="fill:#404040;"/>
          </a>
         </g>
        </svg>
</svg>
