<?xml version="1.0" encoding="UTF-8" standalone="no"?>
<!DOCTYPE svg PUBLIC "-//W3C//DTD SVG 1.1//EN"
 "http://www.w3.org/Graphics/SVG/1.1/DTD/svg11.dtd">
<!-- Generated by graphviz version 2.40.1 (20161225.0304)
 -->
<!-- Title: js_parse_function_decl2 Pages: 1 -->
<!--zoomable 343 -->
<svg id="main" version="1.1" xmlns="http://www.w3.org/2000/svg" xmlns:xlink="http://www.w3.org/1999/xlink" xml:space="preserve" onload="init(evt)">
<style type="text/css"><![CDATA[
.edge:hover path { stroke: red; }
.edge:hover polygon { stroke: red; fill: red; }
]]></style>
<script type="text/javascript"><![CDATA[
var edges = document.getElementsByTagName('g');
if (edges && edges.length) {
  for (var i=0;i<edges.length;i++) {
    if (edges[i].id.substr(0,4)=='edge') {
      edges[i].setAttribute('class','edge');
    }
  }
}
]]></script>
        <defs>
                <circle id="rim" cx="0" cy="0" r="7"/>
                <circle id="rim2" cx="0" cy="0" r="3.5"/>
                <g id="zoomPlus">
                        <use xlink:href="#rim" fill="#404040">
                                <set attributeName="fill" to="#808080" begin="zoomplus.mouseover" end="zoomplus.mouseout"/>
                        </use>
                        <path d="M-4,0h8M0,-4v8" fill="none" stroke="white" stroke-width="1.5" pointer-events="none"/>
                </g>
                <g id="zoomMin">
                        <use xlink:href="#rim" fill="#404040">
                                <set attributeName="fill" to="#808080" begin="zoomminus.mouseover" end="zoomminus.mouseout"/>
                        </use>
                        <path d="M-4,0h8" fill="none" stroke="white" stroke-width="1.5" pointer-events="none"/>
                </g>
                <g id="dirArrow">
                        <path fill="none" stroke="white" stroke-width="1.5" d="M0,-3.0v7 M-2.5,-0.5L0,-3.0L2.5,-0.5"/>
                </g>
               <g id="resetDef">
                       <use xlink:href="#rim2" fill="#404040">
                               <set attributeName="fill" to="#808080" begin="reset.mouseover" end="reset.mouseout"/>
                       </use>
               </g>
        </defs>

<script type="text/javascript">
var viewWidth = 1178;
var viewHeight = 343;
var sectionId = 'dynsection-951';
</script>
<script xlink:href="svgpan.js"/>
<svg id="graph" class="graph">
<g id="viewport">
<title>js_parse_function_decl2</title>
<!-- Node291311 -->
<g id="node1" class="node">
<title>Node291311</title>
<polygon fill="#bfbfbf" stroke="#000000" points="0,-223.5 0,-242.5 122,-242.5 122,-223.5 0,-223.5"/>
<text text-anchor="middle" x="61" y="-230.5" font-family="Helvetica,sans-Serif" font-size="10.00" fill="#000000">js_parse_function_decl2</text>
</g>
<!-- Node291312 -->
<g id="node2" class="node">
<title>Node291312</title>
<g id="a_node2"><a xlink:href="quickjs_8c.html#a00eb789430243c24dab4a63ad6a79653" target="_top" xlink:title="js_parse_class">
<polygon fill="none" stroke="#000000" points="347.5,-254.5 347.5,-273.5 429.5,-273.5 429.5,-254.5 347.5,-254.5"/>
<text text-anchor="middle" x="388.5" y="-261.5" font-family="Helvetica,sans-Serif" font-size="10.00" fill="#000000">js_parse_class</text>
</a>
</g>
</g>
<!-- Node291311&#45;&gt;Node291312 -->
<g id="edge1" class="edge">
<title>Node291311&#45;&gt;Node291312</title>
<path fill="none" stroke="#191970" d="M132.5031,-239.7682C198.2418,-245.9908 293.4199,-255.0001 347.2804,-260.0983"/>
<polygon fill="#191970" stroke="#191970" points="132.5014,-236.2525 122.2161,-238.7945 131.8417,-243.2214 132.5014,-236.2525"/>
</g>
<!-- Node291325 -->
<g id="node9" class="node">
<title>Node291325</title>
<g id="a_node9"><a xlink:href="quickjs_8c.html#a498e1d5c7de1b59c1630e9847cde1e41" target="_top" xlink:title="js_parse_export">
<polygon fill="none" stroke="#000000" points="494,-304.5 494,-323.5 580,-323.5 580,-304.5 494,-304.5"/>
<text text-anchor="middle" x="537" y="-311.5" font-family="Helvetica,sans-Serif" font-size="10.00" fill="#000000">js_parse_export</text>
</a>
</g>
</g>
<!-- Node291311&#45;&gt;Node291325 -->
<g id="edge23" class="edge">
<title>Node291311&#45;&gt;Node291325</title>
<path fill="none" stroke="#191970" d="M75.9979,-250.0708C93.5234,-268.6129 124.43,-297.1667 158,-309 273.7447,-349.7996 421.9943,-333.8066 493.9584,-322.1158"/>
<polygon fill="#191970" stroke="#191970" points="78.4698,-247.5878 69.1313,-242.5834 73.3108,-252.3191 78.4698,-247.5878"/>
</g>
<!-- Node291340 -->
<g id="node10" class="node">
<title>Node291340</title>
<g id="a_node10"><a xlink:href="quickjs_8c.html#adf95ddf430ef93fd9efea1cc2f8a2fbe" target="_top" xlink:title="js_parse_class_default_ctor">
<polygon fill="none" stroke="#000000" points="158,-280.5 158,-299.5 296,-299.5 296,-280.5 158,-280.5"/>
<text text-anchor="middle" x="227" y="-287.5" font-family="Helvetica,sans-Serif" font-size="10.00" fill="#000000">js_parse_class_default_ctor</text>
</a>
</g>
</g>
<!-- Node291311&#45;&gt;Node291340 -->
<g id="edge21" class="edge">
<title>Node291311&#45;&gt;Node291340</title>
<path fill="none" stroke="#191970" d="M98.2536,-245.7919C128.8264,-256.2898 171.4418,-270.9228 199.1247,-280.4284"/>
<polygon fill="#191970" stroke="#191970" points="99.3793,-242.4779 88.7847,-242.5405 97.1059,-249.0985 99.3793,-242.4779"/>
</g>
<!-- Node291341 -->
<g id="node11" class="node">
<title>Node291341</title>
<g id="a_node11"><a xlink:href="quickjs_8c.html#a3cad0b329e5f016dce8d42b4196c3499" target="_top" xlink:title="js_parse_function_decl">
<polygon fill="none" stroke="#000000" points="169,-110.5 169,-129.5 285,-129.5 285,-110.5 169,-110.5"/>
<text text-anchor="middle" x="227" y="-117.5" font-family="Helvetica,sans-Serif" font-size="10.00" fill="#000000">js_parse_function_decl</text>
</a>
</g>
</g>
<!-- Node291311&#45;&gt;Node291341 -->
<g id="edge24" class="edge">
<title>Node291311&#45;&gt;Node291341</title>
<path fill="none" stroke="#191970" d="M83.7046,-217.5445C118.5321,-193.8366 184.1239,-149.1867 212.8828,-129.6099"/>
<polygon fill="#191970" stroke="#191970" points="81.45,-214.8452 75.1531,-223.3657 85.3891,-220.6317 81.45,-214.8452"/>
</g>
<!-- Node291313 -->
<g id="node3" class="node">
<title>Node291313</title>
<g id="a_node3"><a xlink:href="quickjs_8c.html#acdcc62310b4f6f73fa7bc7267b18b1d4" target="_top" xlink:title="js_parse_postfix_expr">
<polygon fill="none" stroke="#000000" points="481,-148.5 481,-167.5 593,-167.5 593,-148.5 481,-148.5"/>
<text text-anchor="middle" x="537" y="-155.5" font-family="Helvetica,sans-Serif" font-size="10.00" fill="#000000">js_parse_postfix_expr</text>
</a>
</g>
</g>
<!-- Node291312&#45;&gt;Node291313 -->
<g id="edge2" class="edge">
<title>Node291312&#45;&gt;Node291313</title>
<path fill="none" stroke="#191970" d="M405.2516,-247.5787C432.7393,-225.0258 487.3086,-185.9624 516.8592,-167.5777"/>
<polygon fill="#191970" stroke="#191970" points="402.7146,-245.1406 397.3446,-254.2738 407.2381,-250.4828 402.7146,-245.1406"/>
</g>
<!-- Node291316 -->
<g id="node6" class="node">
<title>Node291316</title>
<g id="a_node6"><a xlink:href="quickjs_8c.html#a9d844c16dcc71701436848074337d32c" target="_top" xlink:title="js_parse_statement\l_or_decl">
<polygon fill="none" stroke="#ff0000" points="904,-157 904,-187 1006,-187 1006,-157 904,-157"/>
<text text-anchor="start" x="912" y="-175" font-family="Helvetica,sans-Serif" font-size="10.00" fill="#000000">js_parse_statement</text>
<text text-anchor="middle" x="955" y="-164" font-family="Helvetica,sans-Serif" font-size="10.00" fill="#000000">_or_decl</text>
</a>
</g>
</g>
<!-- Node291312&#45;&gt;Node291316 -->
<g id="edge18" class="edge">
<title>Node291312&#45;&gt;Node291316</title>
<path fill="none" stroke="#191970" d="M439.6186,-267.9472C507.8194,-272.0849 632.0555,-275.6714 736,-257 797.1482,-246.0161 810.2675,-233.9502 868,-211 886.4579,-203.6625 906.7277,-194.6346 923.0551,-187.1132"/>
<polygon fill="#191970" stroke="#191970" points="439.7706,-264.4499 429.5687,-267.3086 439.3266,-271.4358 439.7706,-264.4499"/>
</g>
<!-- Node291312&#45;&gt;Node291325 -->
<g id="edge19" class="edge">
<title>Node291312&#45;&gt;Node291325</title>
<path fill="none" stroke="#191970" d="M426.5246,-276.8029C452.1024,-285.4149 485.2768,-296.5848 508.5715,-304.4281"/>
<polygon fill="#191970" stroke="#191970" points="427.3753,-273.3963 416.7813,-273.5223 425.1416,-280.0304 427.3753,-273.3963"/>
</g>
<!-- Node291313&#45;&gt;Node291312 -->
<g id="edge3" class="edge">
<title>Node291313&#45;&gt;Node291312</title>
<path fill="none" stroke="#191970" d="M520.39,-174.3051C492.9133,-196.8686 438.1023,-236.1062 408.5274,-254.4929"/>
<polygon fill="#191970" stroke="#191970" points="522.9195,-176.7492 528.2838,-167.6128 518.3928,-171.4098 522.9195,-176.7492"/>
</g>
<!-- Node291313&#45;&gt;Node291313 -->
<g id="edge14" class="edge">
<title>Node291313&#45;&gt;Node291313</title>
<path fill="none" stroke="#191970" d="M510.1208,-176.6539C511.2444,-181.9368 520.2041,-186 537,-186 562.5938,-186 569.9919,-176.5653 559.1946,-167.7571"/>
<polygon fill="#191970" stroke="#191970" points="513.2433,-178.2361 514.8054,-167.7571 507.0494,-174.9747 513.2433,-178.2361"/>
</g>
<!-- Node291314 -->
<g id="node4" class="node">
<title>Node291314</title>
<g id="a_node4"><a xlink:href="quickjs_8c.html#aff9f2e2a1548acfc8307a4070bb444ec" target="_top" xlink:title="js_parse_destructing\l_element">
<polygon fill="none" stroke="#ff0000" points="629,-199 629,-229 736,-229 736,-199 629,-199"/>
<text text-anchor="start" x="637" y="-217" font-family="Helvetica,sans-Serif" font-size="10.00" fill="#000000">js_parse_destructing</text>
<text text-anchor="middle" x="682.5" y="-206" font-family="Helvetica,sans-Serif" font-size="10.00" fill="#000000">_element</text>
</a>
</g>
</g>
<!-- Node291313&#45;&gt;Node291314 -->
<g id="edge4" class="edge">
<title>Node291313&#45;&gt;Node291314</title>
<path fill="none" stroke="#191970" d="M587.3928,-170.9368C610.8623,-179.339 637.7702,-190.0877 656.962,-198.8897"/>
<polygon fill="#191970" stroke="#191970" points="588.5119,-167.6203 577.9171,-167.6088 586.1922,-174.2249 588.5119,-167.6203"/>
</g>
<!-- Node291318 -->
<g id="node5" class="node">
<title>Node291318</title>
<g id="a_node5"><a xlink:href="quickjs_8c.html#ac188b916dd086803591a67de7e7a85f6" target="_top" xlink:title="js_parse_for_in_of">
<polygon fill="none" stroke="#000000" points="772,-162.5 772,-181.5 868,-181.5 868,-162.5 772,-162.5"/>
<text text-anchor="middle" x="820" y="-169.5" font-family="Helvetica,sans-Serif" font-size="10.00" fill="#000000">js_parse_for_in_of</text>
</a>
</g>
</g>
<!-- Node291313&#45;&gt;Node291318 -->
<g id="edge17" class="edge">
<title>Node291313&#45;&gt;Node291318</title>
<path fill="none" stroke="#191970" d="M603.3193,-161.2808C654.9858,-163.8368 725.4974,-167.325 771.8602,-169.6185"/>
<polygon fill="#191970" stroke="#191970" points="603.4108,-157.7812 593.2501,-160.7827 603.0649,-164.7726 603.4108,-157.7812"/>
</g>
<!-- Node291326 -->
<g id="node8" class="node">
<title>Node291326</title>
<g id="a_node8"><a xlink:href="quickjs_8c.html#af99673e7430294cf15dc24dc5dac227f" target="_top" xlink:title="js_parse_unary">
<polygon fill="none" stroke="#ff0000" points="641,-104.5 641,-123.5 724,-123.5 724,-104.5 641,-104.5"/>
<text text-anchor="middle" x="682.5" y="-111.5" font-family="Helvetica,sans-Serif" font-size="10.00" fill="#000000">js_parse_unary</text>
</a>
</g>
</g>
<!-- Node291313&#45;&gt;Node291326 -->
<g id="edge15" class="edge">
<title>Node291313&#45;&gt;Node291326</title>
<path fill="none" stroke="#191970" d="M578.4293,-145.4715C601.4918,-138.4973 629.7446,-129.9535 650.9903,-123.5287"/>
<polygon fill="#191970" stroke="#191970" points="577.1301,-142.2078 568.5713,-148.4527 579.1564,-148.9082 577.1301,-142.2078"/>
</g>
<!-- Node291314&#45;&gt;Node291311 -->
<g id="edge13" class="edge">
<title>Node291314&#45;&gt;Node291311</title>
<path fill="none" stroke="#191970" d="M618.595,-215.9537C498.3567,-219.6295 239.9882,-227.5281 122.0079,-231.1349"/>
<polygon fill="#191970" stroke="#191970" points="618.8611,-219.4472 628.7494,-215.6432 618.6471,-212.4505 618.8611,-219.4472"/>
</g>
<!-- Node291314&#45;&gt;Node291313 -->
<g id="edge6" class="edge">
<title>Node291314&#45;&gt;Node291313</title>
<path fill="none" stroke="#191970" d="M619.0904,-196.2952C593.7073,-186.7972 566.7818,-175.5937 550.9512,-167.5483"/>
<polygon fill="#191970" stroke="#191970" points="618.1234,-199.6689 628.7168,-199.8418 620.5433,-193.1005 618.1234,-199.6689"/>
</g>
<!-- Node291314&#45;&gt;Node291314 -->
<g id="edge5" class="edge">
<title>Node291314&#45;&gt;Node291314</title>
<path fill="none" stroke="#191970" d="M658.3344,-239.4579C661.3337,-244.179 669.3889,-247.5 682.5,-247.5 704.0156,-247.5 711.9159,-238.5566 706.2008,-229.159"/>
<polygon fill="#191970" stroke="#191970" points="661.8447,-239.3066 658.7992,-229.159 654.8519,-238.991 661.8447,-239.3066"/>
</g>
<!-- Node291314&#45;&gt;Node291318 -->
<g id="edge7" class="edge">
<title>Node291314&#45;&gt;Node291318</title>
<path fill="none" stroke="#191970" d="M741.6851,-195.9217C757.8394,-190.9872 774.7123,-185.8333 788.6419,-181.5785"/>
<polygon fill="#191970" stroke="#191970" points="740.2936,-192.687 731.7523,-198.9557 742.3386,-199.3816 740.2936,-192.687"/>
</g>
<!-- Node291314&#45;&gt;Node291316 -->
<g id="edge12" class="edge">
<title>Node291314&#45;&gt;Node291316</title>
<path fill="none" stroke="#191970" d="M746.5836,-207.5189C782.4162,-203.5283 827.8224,-197.8631 868,-191 879.582,-189.0216 891.9549,-186.5433 903.6283,-184.0363"/>
<polygon fill="#191970" stroke="#191970" points="745.8247,-204.0811 736.2663,-208.6512 746.5885,-211.0393 745.8247,-204.0811"/>
</g>
<!-- Node291318&#45;&gt;Node291316 -->
<g id="edge8" class="edge">
<title>Node291318&#45;&gt;Node291316</title>
<path fill="none" stroke="#191970" d="M878.4959,-172C886.9152,-172 895.5247,-172 903.7878,-172"/>
<polygon fill="#191970" stroke="#191970" points="878.3568,-168.5001 868.3568,-172 878.3568,-175.5001 878.3568,-168.5001"/>
</g>
<!-- Node291316&#45;&gt;Node291316 -->
<g id="edge9" class="edge">
<title>Node291316&#45;&gt;Node291316</title>
<path fill="none" stroke="#191970" d="M931.1898,-197.4579C934.145,-202.179 942.0817,-205.5 955,-205.5 976.1992,-205.5 983.9833,-196.5566 978.3523,-187.159"/>
<polygon fill="#191970" stroke="#191970" points="934.7,-197.3046 931.6477,-187.159 927.7069,-196.9936 934.7,-197.3046"/>
</g>
<!-- Node291320 -->
<g id="node7" class="node">
<title>Node291320</title>
<g id="a_node7"><a xlink:href="quickjs_8c.html#ab59a3267a100decc9d2d81eb3297794a" target="_top" xlink:title="js_parse_source_element">
<polygon fill="none" stroke="#ff0000" points="1042,-97.5 1042,-116.5 1170,-116.5 1170,-97.5 1042,-97.5"/>
<text text-anchor="middle" x="1106" y="-104.5" font-family="Helvetica,sans-Serif" font-size="10.00" fill="#000000">js_parse_source_element</text>
</a>
</g>
</g>
<!-- Node291316&#45;&gt;Node291320 -->
<g id="edge10" class="edge">
<title>Node291316&#45;&gt;Node291320</title>
<path fill="none" stroke="#191970" d="M999.5181,-152.8366C1027.2495,-140.8992 1061.7276,-126.0576 1083.8006,-116.556"/>
<polygon fill="#191970" stroke="#191970" points="997.8233,-149.7556 990.022,-156.9243 1000.591,-156.1852 997.8233,-149.7556"/>
</g>
<!-- Node291320&#45;&gt;Node291311 -->
<g id="edge11" class="edge">
<title>Node291320&#45;&gt;Node291311</title>
<path fill="none" stroke="#191970" d="M1086.0697,-91.3087C1066.6666,-76.7673 1035.8212,-55.5468 1006,-43 927.7931,-10.0957 904.847,0 820,0 388.5,0 388.5,0 388.5,0 276.6524,0 245.3187,-31.1049 158,-101 112.7078,-137.2545 78.0041,-199.5497 65.7745,-223.3612"/>
<polygon fill="#191970" stroke="#191970" points="1084.0621,-94.1793 1094.1347,-97.4647 1088.3093,-88.615 1084.0621,-94.1793"/>
</g>
<!-- Node291326&#45;&gt;Node291326 -->
<g id="edge16" class="edge">
<title>Node291326&#45;&gt;Node291326</title>
<path fill="none" stroke="#191970" d="M657.2025,-133.0292C658.5824,-138.128 667.0149,-142 682.5,-142 706.6719,-142 713.6591,-132.5653 703.4615,-123.7571"/>
<polygon fill="#191970" stroke="#191970" points="660.4728,-134.2982 661.5385,-123.7571 654.1319,-131.3329 660.4728,-134.2982"/>
</g>
<!-- Node291325&#45;&gt;Node291320 -->
<g id="edge20" class="edge">
<title>Node291325&#45;&gt;Node291320</title>
<path fill="none" stroke="#191970" d="M590.3488,-313.2839C681.5385,-309.8643 870.6356,-293.0479 1006,-215 1050.2744,-189.4724 1086.4052,-137.9137 1100.0938,-116.5783"/>
<polygon fill="#191970" stroke="#191970" points="590.1277,-309.7892 580.2505,-313.6223 590.3622,-316.7853 590.1277,-309.7892"/>
</g>
<!-- Node291340&#45;&gt;Node291312 -->
<g id="edge22" class="edge">
<title>Node291340&#45;&gt;Node291312</title>
<path fill="none" stroke="#191970" d="M296.367,-278.8326C313.7857,-276.0283 331.9255,-273.108 347.4563,-270.6077"/>
<polygon fill="#191970" stroke="#191970" points="295.5361,-275.4212 286.2196,-280.4662 296.6488,-282.3322 295.5361,-275.4212"/>
</g>
<!-- Node291341&#45;&gt;Node291313 -->
<g id="edge27" class="edge">
<title>Node291341&#45;&gt;Node291313</title>
<path fill="none" stroke="#191970" d="M295.1387,-123.8872C338.2454,-126.8527 395.0613,-131.6925 445,-139 461.7829,-141.4558 480.1133,-145.052 495.964,-148.4568"/>
<polygon fill="#191970" stroke="#191970" points="295.2581,-120.3874 285.0461,-123.2098 294.7893,-127.3717 295.2581,-120.3874"/>
</g>
<!-- Node291341&#45;&gt;Node291316 -->
<g id="edge29" class="edge">
<title>Node291341&#45;&gt;Node291316</title>
<path fill="none" stroke="#191970" d="M277.6366,-108.3383C338.7584,-95.3029 444.8288,-76 537,-76 537,-76 537,-76 682.5,-76 778.5544,-76 883.3864,-129.7191 930.1143,-156.7885"/>
<polygon fill="#191970" stroke="#191970" points="276.8913,-104.9185 267.8567,-110.4527 278.3705,-111.7604 276.8913,-104.9185"/>
</g>
<!-- Node291341&#45;&gt;Node291320 -->
<g id="edge28" class="edge">
<title>Node291341&#45;&gt;Node291320</title>
<path fill="none" stroke="#191970" d="M257.3636,-106.3464C312.085,-83.0234 431.3968,-38 537,-38 537,-38 537,-38 820,-38 920.1117,-38 1034.5753,-78.4465 1082.7308,-97.4058"/>
<polygon fill="#191970" stroke="#191970" points="255.7041,-103.2507 247.9154,-110.4331 258.4831,-109.6755 255.7041,-103.2507"/>
</g>
<!-- Node291334 -->
<g id="node12" class="node">
<title>Node291334</title>
<g id="a_node12"><a xlink:href="quickjs_8c.html#aee6d0acd87f136d43f157ae1426436e6" target="_top" xlink:title="js_parse_object_literal">
<polygon fill="none" stroke="#000000" points="332,-148.5 332,-167.5 445,-167.5 445,-148.5 332,-148.5"/>
<text text-anchor="middle" x="388.5" y="-155.5" font-family="Helvetica,sans-Serif" font-size="10.00" fill="#000000">js_parse_object_literal</text>
</a>
</g>
</g>
<!-- Node291341&#45;&gt;Node291334 -->
<g id="edge25" class="edge">
<title>Node291341&#45;&gt;Node291334</title>
<path fill="none" stroke="#191970" d="M277.5583,-131.8961C300.2588,-137.2374 326.6781,-143.4537 348.0398,-148.4799"/>
<polygon fill="#191970" stroke="#191970" points="278.2891,-128.4725 267.7533,-129.589 276.6858,-135.2864 278.2891,-128.4725"/>
</g>
<!-- Node291334&#45;&gt;Node291313 -->
<g id="edge26" class="edge">
<title>Node291334&#45;&gt;Node291313</title>
<path fill="none" stroke="#191970" d="M455.2828,-158C463.7369,-158 472.3215,-158 480.5922,-158"/>
<polygon fill="#191970" stroke="#191970" points="455.0651,-154.5001 445.0651,-158 455.0651,-161.5001 455.0651,-154.5001"/>
</g>
</g>
</svg>
        <g id="navigator" transform="translate(0 0)" fill="#404254">
                <rect fill="#f2f5e9" fill-opacity="0.5" stroke="#606060" stroke-width=".5" x="0" y="0" width="60" height="60"/>
                <use id="zoomplus" xlink:href="#zoomPlus" x="17" y="9" onmousedown="handleZoom(evt,'in')"/>
                <use id="zoomminus" xlink:href="#zoomMin" x="42" y="9" onmousedown="handleZoom(evt,'out')"/>
                <use id="reset" xlink:href="#resetDef" x="30" y="36" onmousedown="handleReset()"/>
                <g id="arrowUp" xlink:href="#dirArrow" transform="translate(30 24)" onmousedown="handlePan(0,-1)">
                  <use xlink:href="#rim" fill="#404040">
                        <set attributeName="fill" to="#808080" begin="arrowUp.mouseover" end="arrowUp.mouseout"/>
                  </use>
                  <path fill="none" stroke="white" stroke-width="1.5" d="M0,-3.0v7 M-2.5,-0.5L0,-3.0L2.5,-0.5"/>
                </g>
                <g id="arrowRight" xlink:href="#dirArrow" transform="rotate(90) translate(36 -43)" onmousedown="handlePan(1,0)">
                  <use xlink:href="#rim" fill="#404040">
                        <set attributeName="fill" to="#808080" begin="arrowRight.mouseover" end="arrowRight.mouseout"/>
                  </use>
                  <path fill="none" stroke="white" stroke-width="1.5" d="M0,-3.0v7 M-2.5,-0.5L0,-3.0L2.5,-0.5"/>
                </g>
                <g id="arrowDown" xlink:href="#dirArrow" transform="rotate(180) translate(-30 -48)" onmousedown="handlePan(0,1)">
                  <use xlink:href="#rim" fill="#404040">
                        <set attributeName="fill" to="#808080" begin="arrowDown.mouseover" end="arrowDown.mouseout"/>
                  </use>
                  <path fill="none" stroke="white" stroke-width="1.5" d="M0,-3.0v7 M-2.5,-0.5L0,-3.0L2.5,-0.5"/>
                </g>
                <g id="arrowLeft" xlink:href="#dirArrow" transform="rotate(270) translate(-36 17)" onmousedown="handlePan(-1,0)">
                  <use xlink:href="#rim" fill="#404040">
                        <set attributeName="fill" to="#808080" begin="arrowLeft.mouseover" end="arrowLeft.mouseout"/>
                  </use>
                  <path fill="none" stroke="white" stroke-width="1.5" d="M0,-3.0v7 M-2.5,-0.5L0,-3.0L2.5,-0.5"/>
                </g>
        </g>
        <svg viewBox="0 0 15 15" width="100%" height="30px" preserveAspectRatio="xMaxYMin meet">
         <g id="arrow_out" transform="scale(0.3 0.3)">
          <a xlink:href="quickjs_8c_acc9eb677cab8dfcf45f59381f8a19601_icgraph_org.svg" target="_base">
           <rect id="button" ry="5" rx="5" y="6" x="6" height="38" width="38"
                fill="#f2f5e9" fill-opacity="0.5" stroke="#606060" stroke-width="1.0"/>
           <path id="arrow"
             d="M 11.500037,31.436501 C 11.940474,20.09759 22.043105,11.32322 32.158766,21.979434 L 37.068811,17.246167 C 37.068811,17.246167 37.088388,32 37.088388,32 L 22.160133,31.978069 C 22.160133,31.978069 26.997745,27.140456 26.997745,27.140456 C 18.528582,18.264221 13.291696,25.230495 11.500037,31.436501 z"
             style="fill:#404040;"/>
          </a>
         </g>
        </svg>
</svg>
