<?xml version="1.0" encoding="UTF-8" standalone="no"?>
<!DOCTYPE svg PUBLIC "-//W3C//DTD SVG 1.1//EN"
 "http://www.w3.org/Graphics/SVG/1.1/DTD/svg11.dtd">
<!-- Generated by graphviz version 2.40.1 (20161225.0304)
 -->
<!-- Title: js_free_shape Pages: 1 -->
<!--zoomable 256 -->
<svg id="main" version="1.1" xmlns="http://www.w3.org/2000/svg" xmlns:xlink="http://www.w3.org/1999/xlink" xml:space="preserve" onload="init(evt)">
<style type="text/css"><![CDATA[
.edge:hover path { stroke: red; }
.edge:hover polygon { stroke: red; fill: red; }
]]></style>
<script type="text/javascript"><![CDATA[
var edges = document.getElementsByTagName('g');
if (edges && edges.length) {
  for (var i=0;i<edges.length;i++) {
    if (edges[i].id.substr(0,4)=='edge') {
      edges[i].setAttribute('class','edge');
    }
  }
}
]]></script>
        <defs>
                <circle id="rim" cx="0" cy="0" r="7"/>
                <circle id="rim2" cx="0" cy="0" r="3.5"/>
                <g id="zoomPlus">
                        <use xlink:href="#rim" fill="#404040">
                                <set attributeName="fill" to="#808080" begin="zoomplus.mouseover" end="zoomplus.mouseout"/>
                        </use>
                        <path d="M-4,0h8M0,-4v8" fill="none" stroke="white" stroke-width="1.5" pointer-events="none"/>
                </g>
                <g id="zoomMin">
                        <use xlink:href="#rim" fill="#404040">
                                <set attributeName="fill" to="#808080" begin="zoomminus.mouseover" end="zoomminus.mouseout"/>
                        </use>
                        <path d="M-4,0h8" fill="none" stroke="white" stroke-width="1.5" pointer-events="none"/>
                </g>
                <g id="dirArrow">
                        <path fill="none" stroke="white" stroke-width="1.5" d="M0,-3.0v7 M-2.5,-0.5L0,-3.0L2.5,-0.5"/>
                </g>
               <g id="resetDef">
                       <use xlink:href="#rim2" fill="#404040">
                               <set attributeName="fill" to="#808080" begin="reset.mouseover" end="reset.mouseout"/>
                       </use>
               </g>
        </defs>

<script type="text/javascript">
var viewWidth = 604;
var viewHeight = 256;
var sectionId = 'dynsection-99';
</script>
<script xlink:href="svgpan.js"/>
<svg id="graph" class="graph">
<g id="viewport">
<title>js_free_shape</title>
<!-- Node35483 -->
<g id="node1" class="node">
<title>Node35483</title>
<polygon fill="#bfbfbf" stroke="#000000" points="0,-133.5 0,-152.5 77,-152.5 77,-133.5 0,-133.5"/>
<text text-anchor="middle" x="38.5" y="-140.5" font-family="Helvetica,sans-Serif" font-size="10.00" fill="#000000">js_free_shape</text>
</g>
<!-- Node35484 -->
<g id="node2" class="node">
<title>Node35484</title>
<g id="a_node2"><a xlink:href="quickjs_8c.html#a7da0cfa6f27af0e1b9599d7f359edbe2" target="_top" xlink:title="get_alloc_from_shape">
<polygon fill="none" stroke="#000000" points="113.5,-228.5 113.5,-247.5 225.5,-247.5 225.5,-228.5 113.5,-228.5"/>
<text text-anchor="middle" x="169.5" y="-235.5" font-family="Helvetica,sans-Serif" font-size="10.00" fill="#000000">get_alloc_from_shape</text>
</a>
</g>
</g>
<!-- Node35483&#45;&gt;Node35484 -->
<g id="edge1" class="edge">
<title>Node35483&#45;&gt;Node35484</title>
<path fill="none" stroke="#191970" d="M45.4387,-152.5881C57.4665,-168.5559 83.7243,-200.6503 113,-219 116.3088,-221.0739 119.8698,-222.9493 123.5366,-224.6395"/>
<polygon fill="#191970" stroke="#191970" points="122.2079,-227.8775 132.7863,-228.4674 124.8847,-221.4094 122.2079,-227.8775"/>
</g>
<!-- Node35485 -->
<g id="node3" class="node">
<title>Node35485</title>
<g id="a_node3"><a xlink:href="quickjs_8c.html#a643df594b75933007bcdbb071b5ea8c5" target="_top" xlink:title="get_shape_prop">
<polygon fill="none" stroke="#000000" points="126.5,-190.5 126.5,-209.5 212.5,-209.5 212.5,-190.5 126.5,-190.5"/>
<text text-anchor="middle" x="169.5" y="-197.5" font-family="Helvetica,sans-Serif" font-size="10.00" fill="#000000">get_shape_prop</text>
</a>
</g>
</g>
<!-- Node35483&#45;&gt;Node35485 -->
<g id="edge2" class="edge">
<title>Node35483&#45;&gt;Node35485</title>
<path fill="none" stroke="#191970" d="M59.9787,-152.6181C74.8414,-159.2481 95.0911,-168.2305 113,-176 120.8543,-179.4075 129.3431,-183.0398 137.2947,-186.4203"/>
<polygon fill="#191970" stroke="#191970" points="136.0757,-189.7051 146.6486,-190.3869 138.8086,-183.2606 136.0757,-189.7051"/>
</g>
<!-- Node35486 -->
<g id="node4" class="node">
<title>Node35486</title>
<g id="a_node4"><a xlink:href="quickjs_8c.html#a69e19dda8a93d613203e0baa06f0ed8d" target="_top" xlink:title="js_free_rt">
<polygon fill="none" stroke="#000000" points="539,-76.5 539,-95.5 596,-95.5 596,-76.5 539,-76.5"/>
<text text-anchor="middle" x="567.5" y="-83.5" font-family="Helvetica,sans-Serif" font-size="10.00" fill="#000000">js_free_rt</text>
</a>
</g>
</g>
<!-- Node35483&#45;&gt;Node35486 -->
<g id="edge3" class="edge">
<title>Node35483&#45;&gt;Node35486</title>
<path fill="none" stroke="#191970" d="M77.0535,-146.3009C138.2122,-150.7974 261.0851,-156.8141 364,-143 427.4755,-134.4798 441.3908,-122.4938 503,-105 511.4749,-102.5936 520.5585,-99.9547 529.1554,-97.4297"/>
<polygon fill="#191970" stroke="#191970" points="530.3568,-100.7244 538.9582,-94.5384 528.3765,-94.0104 530.3568,-100.7244"/>
</g>
<!-- Node35487 -->
<g id="node5" class="node">
<title>Node35487</title>
<g id="a_node5"><a xlink:href="quickjs_8c.html#a5a0aca30abbb4d4ae86746541bf4cbc7" target="_top" xlink:title="JS_FreeAtomRT">
<polygon fill="none" stroke="#000000" points="124.5,-114.5 124.5,-133.5 214.5,-133.5 214.5,-114.5 124.5,-114.5"/>
<text text-anchor="middle" x="169.5" y="-121.5" font-family="Helvetica,sans-Serif" font-size="10.00" fill="#000000">JS_FreeAtomRT</text>
</a>
</g>
</g>
<!-- Node35483&#45;&gt;Node35487 -->
<g id="edge4" class="edge">
<title>Node35483&#45;&gt;Node35487</title>
<path fill="none" stroke="#191970" d="M77.0958,-137.4021C88.768,-135.7092 101.8199,-133.8162 114.353,-131.9984"/>
<polygon fill="#191970" stroke="#191970" points="114.8627,-135.4612 124.2567,-130.562 113.8579,-128.5337 114.8627,-135.4612"/>
</g>
<!-- Node35492 -->
<g id="node9" class="node">
<title>Node35492</title>
<g id="a_node9"><a xlink:href="quickjs_8h.html#ab8db583fa5e7c2b1935854a42859daed" target="_top" xlink:title="JS_FreeValueRT">
<polygon fill="none" stroke="#000000" points="123.5,-57.5 123.5,-76.5 215.5,-76.5 215.5,-57.5 123.5,-57.5"/>
<text text-anchor="middle" x="169.5" y="-64.5" font-family="Helvetica,sans-Serif" font-size="10.00" fill="#000000">JS_FreeValueRT</text>
</a>
</g>
</g>
<!-- Node35483&#45;&gt;Node35492 -->
<g id="edge9" class="edge">
<title>Node35483&#45;&gt;Node35492</title>
<path fill="none" stroke="#191970" d="M55.0912,-133.3745C77.5336,-120.3546 117.7734,-97.0093 144.0523,-81.7636"/>
<polygon fill="#191970" stroke="#191970" points="146.1501,-84.5929 153.0435,-76.5473 142.6373,-78.5381 146.1501,-84.5929"/>
</g>
<!-- Node35503 -->
<g id="node12" class="node">
<title>Node35503</title>
<g id="a_node12"><a xlink:href="quickjs_8c.html#ae5e76f4be6214208cc91f10a192fc810" target="_top" xlink:title="js_shape_hash_unlink">
<polygon fill="none" stroke="#000000" points="113,-10.5 113,-29.5 226,-29.5 226,-10.5 113,-10.5"/>
<text text-anchor="middle" x="169.5" y="-17.5" font-family="Helvetica,sans-Serif" font-size="10.00" fill="#000000">js_shape_hash_unlink</text>
</a>
</g>
</g>
<!-- Node35483&#45;&gt;Node35503 -->
<g id="edge14" class="edge">
<title>Node35483&#45;&gt;Node35503</title>
<path fill="none" stroke="#191970" d="M43.9424,-133.4977C54.9377,-114.9858 81.4575,-73.6604 113,-48 119.6412,-42.5973 127.4974,-37.8825 135.2065,-33.9395"/>
<polygon fill="#191970" stroke="#191970" points="136.9359,-36.9921 144.4454,-29.5183 133.9142,-30.6778 136.9359,-36.9921"/>
</g>
<!-- Node35488 -->
<g id="node6" class="node">
<title>Node35488</title>
<g id="a_node6"><a xlink:href="quickjs_8c.html#a7f6796ee7a195631366f57c713a33f65" target="_top" xlink:title="__JS_AtomIsConst">
<polygon fill="none" stroke="#000000" points="262,-114.5 262,-133.5 364,-133.5 364,-114.5 262,-114.5"/>
<text text-anchor="middle" x="313" y="-121.5" font-family="Helvetica,sans-Serif" font-size="10.00" fill="#000000">__JS_AtomIsConst</text>
</a>
</g>
</g>
<!-- Node35487&#45;&gt;Node35488 -->
<g id="edge5" class="edge">
<title>Node35487&#45;&gt;Node35488</title>
<path fill="none" stroke="#191970" d="M214.5106,-124C226.2619,-124 239.1299,-124 251.5747,-124"/>
<polygon fill="#191970" stroke="#191970" points="251.895,-127.5001 261.895,-124 251.895,-120.5001 251.895,-127.5001"/>
</g>
<!-- Node35489 -->
<g id="node7" class="node">
<title>Node35489</title>
<g id="a_node7"><a xlink:href="quickjs_8c.html#a0bbd9e3ecd55e3ea6c9d44bfda382095" target="_top" xlink:title="__JS_FreeAtom">
<polygon fill="none" stroke="#000000" points="269.5,-76.5 269.5,-95.5 356.5,-95.5 356.5,-76.5 269.5,-76.5"/>
<text text-anchor="middle" x="313" y="-83.5" font-family="Helvetica,sans-Serif" font-size="10.00" fill="#000000">__JS_FreeAtom</text>
</a>
</g>
</g>
<!-- Node35487&#45;&gt;Node35489 -->
<g id="edge6" class="edge">
<title>Node35487&#45;&gt;Node35489</title>
<path fill="none" stroke="#191970" d="M205.7111,-114.411C224.3206,-109.4831 247.1972,-103.4251 267.0389,-98.1709"/>
<polygon fill="#191970" stroke="#191970" points="268.0296,-101.5292 276.8005,-95.5859 266.2377,-94.7625 268.0296,-101.5292"/>
</g>
<!-- Node35490 -->
<g id="node8" class="node">
<title>Node35490</title>
<g id="a_node8"><a xlink:href="quickjs_8c.html#a58c8965dad50b15b75918a09f3d9dc7c" target="_top" xlink:title="JS_FreeAtomStruct">
<polygon fill="none" stroke="#ff0000" points="400,-76.5 400,-95.5 503,-95.5 503,-76.5 400,-76.5"/>
<text text-anchor="middle" x="451.5" y="-83.5" font-family="Helvetica,sans-Serif" font-size="10.00" fill="#000000">JS_FreeAtomStruct</text>
</a>
</g>
</g>
<!-- Node35489&#45;&gt;Node35490 -->
<g id="edge7" class="edge">
<title>Node35489&#45;&gt;Node35490</title>
<path fill="none" stroke="#191970" d="M356.8223,-86C367.2585,-86 378.5896,-86 389.6647,-86"/>
<polygon fill="#191970" stroke="#191970" points="389.7308,-89.5001 399.7308,-86 389.7307,-82.5001 389.7308,-89.5001"/>
</g>
<!-- Node35490&#45;&gt;Node35486 -->
<g id="edge8" class="edge">
<title>Node35490&#45;&gt;Node35486</title>
<path fill="none" stroke="#191970" d="M503.0548,-86C511.7341,-86 520.6084,-86 528.8871,-86"/>
<polygon fill="#191970" stroke="#191970" points="528.9956,-89.5001 538.9955,-86 528.9955,-82.5001 528.9956,-89.5001"/>
</g>
<!-- Node35493 -->
<g id="node10" class="node">
<title>Node35493</title>
<g id="a_node10"><a xlink:href="quickjs_8c.html#ab1ea3fad7d138be12144a38be4d36423" target="_top" xlink:title="__JS_FreeValueRT">
<polygon fill="none" stroke="#000000" points="262,-38.5 262,-57.5 364,-57.5 364,-38.5 262,-38.5"/>
<text text-anchor="middle" x="313" y="-45.5" font-family="Helvetica,sans-Serif" font-size="10.00" fill="#000000">__JS_FreeValueRT</text>
</a>
</g>
</g>
<!-- Node35492&#45;&gt;Node35493 -->
<g id="edge10" class="edge">
<title>Node35492&#45;&gt;Node35493</title>
<path fill="none" stroke="#191970" d="M215.6942,-60.8837C227.216,-59.3582 239.7492,-57.6987 251.8689,-56.094"/>
<polygon fill="#191970" stroke="#191970" points="252.467,-59.5455 261.9211,-54.7631 251.5481,-52.606 252.467,-59.5455"/>
</g>
<!-- Node35493&#45;&gt;Node35486 -->
<g id="edge12" class="edge">
<title>Node35493&#45;&gt;Node35486</title>
<path fill="none" stroke="#191970" d="M364.1827,-50.5211C402.6424,-53.0416 456.4754,-57.9042 503,-67 511.6463,-68.6904 520.8002,-71.0354 529.4111,-73.5021"/>
<polygon fill="#191970" stroke="#191970" points="528.6239,-76.9195 539.207,-76.4217 530.6234,-70.2112 528.6239,-76.9195"/>
</g>
<!-- Node35493&#45;&gt;Node35490 -->
<g id="edge11" class="edge">
<title>Node35493&#45;&gt;Node35490</title>
<path fill="none" stroke="#191970" d="M347.9494,-57.589C365.8284,-62.4944 387.7884,-68.5196 406.8778,-73.7571"/>
<polygon fill="#191970" stroke="#191970" points="405.9921,-77.1434 416.5618,-76.4141 407.8443,-70.3928 405.9921,-77.1434"/>
</g>
<!-- Node35494 -->
<g id="node11" class="node">
<title>Node35494</title>
<g id="a_node11"><a xlink:href="quickjs_8c.html#a41a4918c15192dc3489dc3ecb3fdc24d" target="_top" xlink:title="free_object">
<polygon fill="none" stroke="#ff0000" points="419,-.5 419,-19.5 484,-19.5 484,-.5 419,-.5"/>
<text text-anchor="middle" x="451.5" y="-7.5" font-family="Helvetica,sans-Serif" font-size="10.00" fill="#000000">free_object</text>
</a>
</g>
</g>
<!-- Node35493&#45;&gt;Node35494 -->
<g id="edge13" class="edge">
<title>Node35493&#45;&gt;Node35494</title>
<path fill="none" stroke="#191970" d="M347.9494,-38.411C366.5108,-33.3183 389.4707,-27.0189 409.0506,-21.6468"/>
<polygon fill="#191970" stroke="#191970" points="410.2229,-24.9546 418.9404,-18.9333 408.3707,-18.204 410.2229,-24.9546"/>
</g>
<!-- Node35504 -->
<g id="node13" class="node">
<title>Node35504</title>
<g id="a_node13"><a xlink:href="quickjs_8c.html#a8291bf195606b5d1b0faed795b6dc3ff" target="_top" xlink:title="get_shape_hash">
<polygon fill="none" stroke="#000000" points="269,-.5 269,-19.5 357,-19.5 357,-.5 269,-.5"/>
<text text-anchor="middle" x="313" y="-7.5" font-family="Helvetica,sans-Serif" font-size="10.00" fill="#000000">get_shape_hash</text>
</a>
</g>
</g>
<!-- Node35503&#45;&gt;Node35504 -->
<g id="edge15" class="edge">
<title>Node35503&#45;&gt;Node35504</title>
<path fill="none" stroke="#191970" d="M226.215,-16.0477C236.7911,-15.3107 247.8235,-14.5419 258.3362,-13.8093"/>
<polygon fill="#191970" stroke="#191970" points="258.9072,-17.2781 268.6397,-13.0913 258.4205,-10.295 258.9072,-17.2781"/>
</g>
</g>
</svg>
        <g id="navigator" transform="translate(0 0)" fill="#404254">
                <rect fill="#f2f5e9" fill-opacity="0.5" stroke="#606060" stroke-width=".5" x="0" y="0" width="60" height="60"/>
                <use id="zoomplus" xlink:href="#zoomPlus" x="17" y="9" onmousedown="handleZoom(evt,'in')"/>
                <use id="zoomminus" xlink:href="#zoomMin" x="42" y="9" onmousedown="handleZoom(evt,'out')"/>
                <use id="reset" xlink:href="#resetDef" x="30" y="36" onmousedown="handleReset()"/>
                <g id="arrowUp" xlink:href="#dirArrow" transform="translate(30 24)" onmousedown="handlePan(0,-1)">
                  <use xlink:href="#rim" fill="#404040">
                        <set attributeName="fill" to="#808080" begin="arrowUp.mouseover" end="arrowUp.mouseout"/>
                  </use>
                  <path fill="none" stroke="white" stroke-width="1.5" d="M0,-3.0v7 M-2.5,-0.5L0,-3.0L2.5,-0.5"/>
                </g>
                <g id="arrowRight" xlink:href="#dirArrow" transform="rotate(90) translate(36 -43)" onmousedown="handlePan(1,0)">
                  <use xlink:href="#rim" fill="#404040">
                        <set attributeName="fill" to="#808080" begin="arrowRight.mouseover" end="arrowRight.mouseout"/>
                  </use>
                  <path fill="none" stroke="white" stroke-width="1.5" d="M0,-3.0v7 M-2.5,-0.5L0,-3.0L2.5,-0.5"/>
                </g>
                <g id="arrowDown" xlink:href="#dirArrow" transform="rotate(180) translate(-30 -48)" onmousedown="handlePan(0,1)">
                  <use xlink:href="#rim" fill="#404040">
                        <set attributeName="fill" to="#808080" begin="arrowDown.mouseover" end="arrowDown.mouseout"/>
                  </use>
                  <path fill="none" stroke="white" stroke-width="1.5" d="M0,-3.0v7 M-2.5,-0.5L0,-3.0L2.5,-0.5"/>
                </g>
                <g id="arrowLeft" xlink:href="#dirArrow" transform="rotate(270) translate(-36 17)" onmousedown="handlePan(-1,0)">
                  <use xlink:href="#rim" fill="#404040">
                        <set attributeName="fill" to="#808080" begin="arrowLeft.mouseover" end="arrowLeft.mouseout"/>
                  </use>
                  <path fill="none" stroke="white" stroke-width="1.5" d="M0,-3.0v7 M-2.5,-0.5L0,-3.0L2.5,-0.5"/>
                </g>
        </g>
        <svg viewBox="0 0 15 15" width="100%" height="30px" preserveAspectRatio="xMaxYMin meet">
         <g id="arrow_out" transform="scale(0.3 0.3)">
          <a xlink:href="quickjs_8c_a3a9f27520d96cf58aa5bd7359e9cddee_cgraph_org.svg" target="_base">
           <rect id="button" ry="5" rx="5" y="6" x="6" height="38" width="38"
                fill="#f2f5e9" fill-opacity="0.5" stroke="#606060" stroke-width="1.0"/>
           <path id="arrow"
             d="M 11.500037,31.436501 C 11.940474,20.09759 22.043105,11.32322 32.158766,21.979434 L 37.068811,17.246167 C 37.068811,17.246167 37.088388,32 37.088388,32 L 22.160133,31.978069 C 22.160133,31.978069 26.997745,27.140456 26.997745,27.140456 C 18.528582,18.264221 13.291696,25.230495 11.500037,31.436501 z"
             style="fill:#404040;"/>
          </a>
         </g>
        </svg>
</svg>
