<?xml version="1.0" encoding="UTF-8" standalone="no"?>
<!DOCTYPE svg PUBLIC "-//W3C//DTD SVG 1.1//EN"
 "http://www.w3.org/Graphics/SVG/1.1/DTD/svg11.dtd">
<!-- Generated by graphviz version 2.40.1 (20161225.0304)
 -->
<!-- Title: js_os_dup2 Pages: 1 -->
<!--zoomable 332 -->
<svg id="main" version="1.1" xmlns="http://www.w3.org/2000/svg" xmlns:xlink="http://www.w3.org/1999/xlink" xml:space="preserve" onload="init(evt)">
<style type="text/css"><![CDATA[
.edge:hover path { stroke: red; }
.edge:hover polygon { stroke: red; fill: red; }
]]></style>
<script type="text/javascript"><![CDATA[
var edges = document.getElementsByTagName('g');
if (edges && edges.length) {
  for (var i=0;i<edges.length;i++) {
    if (edges[i].id.substr(0,4)=='edge') {
      edges[i].setAttribute('class','edge');
    }
  }
}
]]></script>
        <defs>
                <circle id="rim" cx="0" cy="0" r="7"/>
                <circle id="rim2" cx="0" cy="0" r="3.5"/>
                <g id="zoomPlus">
                        <use xlink:href="#rim" fill="#404040">
                                <set attributeName="fill" to="#808080" begin="zoomplus.mouseover" end="zoomplus.mouseout"/>
                        </use>
                        <path d="M-4,0h8M0,-4v8" fill="none" stroke="white" stroke-width="1.5" pointer-events="none"/>
                </g>
                <g id="zoomMin">
                        <use xlink:href="#rim" fill="#404040">
                                <set attributeName="fill" to="#808080" begin="zoomminus.mouseover" end="zoomminus.mouseout"/>
                        </use>
                        <path d="M-4,0h8" fill="none" stroke="white" stroke-width="1.5" pointer-events="none"/>
                </g>
                <g id="dirArrow">
                        <path fill="none" stroke="white" stroke-width="1.5" d="M0,-3.0v7 M-2.5,-0.5L0,-3.0L2.5,-0.5"/>
                </g>
               <g id="resetDef">
                       <use xlink:href="#rim2" fill="#404040">
                               <set attributeName="fill" to="#808080" begin="reset.mouseover" end="reset.mouseout"/>
                       </use>
               </g>
        </defs>

<script type="text/javascript">
var viewWidth = 555;
var viewHeight = 332;
var sectionId = 'dynsection-110';
</script>
<script xlink:href="svgpan.js"/>
<svg id="graph" class="graph">
<g id="viewport">
<title>js_os_dup2</title>
<!-- Node31247 -->
<g id="node1" class="node">
<title>Node31247</title>
<polygon fill="#bfbfbf" stroke="#000000" points="0,-95.5 0,-114.5 66,-114.5 66,-95.5 0,-95.5"/>
<text text-anchor="middle" x="33" y="-102.5" font-family="Helvetica,sans-Serif" font-size="10.00" fill="#000000">js_os_dup2</text>
</g>
<!-- Node31248 -->
<g id="node2" class="node">
<title>Node31248</title>
<g id="a_node2"><a xlink:href="quickjs-libc_8c.html#ac3abb3f7c3750d07bbc4c20d5f4558f7" target="_top" xlink:title="js_os_return">
<polygon fill="none" stroke="#000000" points="102,-152.5 102,-171.5 172,-171.5 172,-152.5 102,-152.5"/>
<text text-anchor="middle" x="137" y="-159.5" font-family="Helvetica,sans-Serif" font-size="10.00" fill="#000000">js_os_return</text>
</a>
</g>
</g>
<!-- Node31247&#45;&gt;Node31248 -->
<g id="edge1" class="edge">
<title>Node31247&#45;&gt;Node31248</title>
<path fill="none" stroke="#191970" d="M50.6422,-114.6693C67.1016,-123.6903 91.8737,-137.2673 110.6713,-147.5698"/>
<polygon fill="#191970" stroke="#191970" points="109.1669,-150.7365 119.6184,-152.4735 112.5313,-144.598 109.1669,-150.7365"/>
</g>
<!-- Node31268 -->
<g id="node9" class="node">
<title>Node31268</title>
<g id="a_node9"><a xlink:href="quickjs_8c.html#a4073bd2b4f247bf6077cd956759193b9" target="_top" xlink:title="JS_ToInt32">
<polygon fill="none" stroke="#000000" points="103.5,-76.5 103.5,-95.5 170.5,-95.5 170.5,-76.5 103.5,-76.5"/>
<text text-anchor="middle" x="137" y="-83.5" font-family="Helvetica,sans-Serif" font-size="10.00" fill="#000000">JS_ToInt32</text>
</a>
</g>
</g>
<!-- Node31247&#45;&gt;Node31268 -->
<g id="edge9" class="edge">
<title>Node31247&#45;&gt;Node31268</title>
<path fill="none" stroke="#191970" d="M66.1922,-98.936C74.8304,-97.3579 84.2689,-95.6336 93.3577,-93.9731"/>
<polygon fill="#191970" stroke="#191970" points="94.2011,-97.3771 103.4092,-92.1368 92.943,-90.491 94.2011,-97.3771"/>
</g>
<!-- Node31249 -->
<g id="node3" class="node">
<title>Node31249</title>
<g id="a_node3"><a xlink:href="quickjs_8c.html#acfced0527a056a74dd8439904b7936dd" target="_top" xlink:title="JS_NewInt64">
<polygon fill="none" stroke="#000000" points="213,-209.5 213,-228.5 289,-228.5 289,-209.5 213,-209.5"/>
<text text-anchor="middle" x="251" y="-216.5" font-family="Helvetica,sans-Serif" font-size="10.00" fill="#000000">JS_NewInt64</text>
</a>
</g>
</g>
<!-- Node31248&#45;&gt;Node31249 -->
<g id="edge2" class="edge">
<title>Node31248&#45;&gt;Node31249</title>
<path fill="none" stroke="#191970" d="M156.081,-171.5405C174.3299,-180.665 202.0689,-194.5344 222.8548,-204.9274"/>
<polygon fill="#191970" stroke="#191970" points="221.3472,-208.0867 231.8567,-209.4284 224.4777,-201.8257 221.3472,-208.0867"/>
</g>
<!-- Node31250 -->
<g id="node4" class="node">
<title>Node31250</title>
<g id="a_node4"><a xlink:href="quickjs_8h.html#a2050bc428da1c65ac7eb87c3fa3b0392" target="_top" xlink:title="JS_NewInt32">
<polygon fill="none" stroke="#000000" points="341.5,-304.5 341.5,-323.5 417.5,-323.5 417.5,-304.5 341.5,-304.5"/>
<text text-anchor="middle" x="379.5" y="-311.5" font-family="Helvetica,sans-Serif" font-size="10.00" fill="#000000">JS_NewInt32</text>
</a>
</g>
</g>
<!-- Node31249&#45;&gt;Node31250 -->
<g id="edge3" class="edge">
<title>Node31249&#45;&gt;Node31250</title>
<path fill="none" stroke="#191970" d="M260.0046,-228.6748C273.9676,-243.2906 302.1457,-271.2779 330,-290 335.3578,-293.6012 341.3372,-296.9739 347.2365,-299.9877"/>
<polygon fill="#191970" stroke="#191970" points="345.8156,-303.1885 356.3399,-304.4094 348.874,-296.892 345.8156,-303.1885"/>
</g>
<!-- Node31251 -->
<g id="node5" class="node">
<title>Node31251</title>
<g id="a_node5"><a xlink:href="quickjs_8c.html#aaaa960ff4bdf4b4dd3017b555844c397" target="_top" xlink:title="is_bigint_mode">
<polygon fill="none" stroke="#000000" points="465,-152.5 465,-171.5 547,-171.5 547,-152.5 465,-152.5"/>
<text text-anchor="middle" x="506" y="-159.5" font-family="Helvetica,sans-Serif" font-size="10.00" fill="#000000">is_bigint_mode</text>
</a>
</g>
</g>
<!-- Node31249&#45;&gt;Node31251 -->
<g id="edge4" class="edge">
<title>Node31249&#45;&gt;Node31251</title>
<path fill="none" stroke="#191970" d="M266.537,-228.6757C298.4533,-247.2177 373.093,-283.6509 429,-257 462.0538,-241.2433 485.5204,-203.5958 497.3145,-180.7071"/>
<polygon fill="#191970" stroke="#191970" points="500.5041,-182.1522 501.7768,-171.6341 494.2227,-179.0628 500.5041,-182.1522"/>
</g>
<!-- Node31252 -->
<g id="node6" class="node">
<title>Node31252</title>
<g id="a_node6"><a xlink:href="libbf_8h.html#abacc1410890af049e02ebd788364ac48" target="_top" xlink:title="bf_init">
<polygon fill="none" stroke="#000000" points="358,-228.5 358,-247.5 401,-247.5 401,-228.5 358,-228.5"/>
<text text-anchor="middle" x="379.5" y="-235.5" font-family="Helvetica,sans-Serif" font-size="10.00" fill="#000000">bf_init</text>
</a>
</g>
</g>
<!-- Node31249&#45;&gt;Node31252 -->
<g id="edge5" class="edge">
<title>Node31249&#45;&gt;Node31252</title>
<path fill="none" stroke="#191970" d="M289.2063,-224.6492C307.7085,-227.3849 329.6792,-230.6335 347.3154,-233.2412"/>
<polygon fill="#191970" stroke="#191970" points="347.2621,-236.7713 357.6665,-234.7717 348.286,-229.8466 347.2621,-236.7713"/>
</g>
<!-- Node31253 -->
<g id="node7" class="node">
<title>Node31253</title>
<g id="a_node7"><a xlink:href="libbf_8h.html#a60ee3eaad83309aaf8a8b8fb81d8b44d" target="_top" xlink:title="bf_set_si">
<polygon fill="none" stroke="#ff0000" points="351.5,-190.5 351.5,-209.5 407.5,-209.5 407.5,-190.5 351.5,-190.5"/>
<text text-anchor="middle" x="379.5" y="-197.5" font-family="Helvetica,sans-Serif" font-size="10.00" fill="#000000">bf_set_si</text>
</a>
</g>
</g>
<!-- Node31249&#45;&gt;Node31253 -->
<g id="edge6" class="edge">
<title>Node31249&#45;&gt;Node31253</title>
<path fill="none" stroke="#191970" d="M289.2063,-213.3508C305.592,-210.928 324.698,-208.103 341.1045,-205.6772"/>
<polygon fill="#191970" stroke="#191970" points="342.0598,-209.074 351.4403,-204.1489 341.0359,-202.1493 342.0598,-209.074"/>
</g>
<!-- Node31259 -->
<g id="node8" class="node">
<title>Node31259</title>
<g id="a_node8"><a xlink:href="quickjs_8c.html#aece934cd3d738b1562b8cf5fe5ce9b67" target="_top" xlink:title="JS_NewBigInt">
<polygon fill="none" stroke="#ff0000" points="339.5,-152.5 339.5,-171.5 419.5,-171.5 419.5,-152.5 339.5,-152.5"/>
<text text-anchor="middle" x="379.5" y="-159.5" font-family="Helvetica,sans-Serif" font-size="10.00" fill="#000000">JS_NewBigInt</text>
</a>
</g>
</g>
<!-- Node31249&#45;&gt;Node31259 -->
<g id="edge7" class="edge">
<title>Node31249&#45;&gt;Node31259</title>
<path fill="none" stroke="#191970" d="M269.9545,-209.3431C285.833,-201.3843 309.1792,-189.9856 330,-181 334.4661,-179.0726 339.1977,-177.1313 343.8947,-175.264"/>
<polygon fill="#191970" stroke="#191970" points="345.3448,-178.4553 353.3914,-171.5631 342.8031,-171.933 345.3448,-178.4553"/>
</g>
<!-- Node31259&#45;&gt;Node31251 -->
<g id="edge8" class="edge">
<title>Node31259&#45;&gt;Node31251</title>
<path fill="none" stroke="#191970" d="M419.5254,-162C430.7223,-162 443.0468,-162 454.7955,-162"/>
<polygon fill="#191970" stroke="#191970" points="454.9291,-165.5001 464.9291,-162 454.929,-158.5001 454.9291,-165.5001"/>
</g>
<!-- Node31269 -->
<g id="node10" class="node">
<title>Node31269</title>
<g id="a_node10"><a xlink:href="quickjs_8c.html#a643088ab23784b7f3c6ff94c37228256" target="_top" xlink:title="JS_ToInt32Free">
<polygon fill="none" stroke="#000000" points="208,-76.5 208,-95.5 294,-95.5 294,-76.5 208,-76.5"/>
<text text-anchor="middle" x="251" y="-83.5" font-family="Helvetica,sans-Serif" font-size="10.00" fill="#000000">JS_ToInt32Free</text>
</a>
</g>
</g>
<!-- Node31268&#45;&gt;Node31269 -->
<g id="edge10" class="edge">
<title>Node31268&#45;&gt;Node31269</title>
<path fill="none" stroke="#191970" d="M170.5872,-86C179.0812,-86 188.4148,-86 197.6218,-86"/>
<polygon fill="#191970" stroke="#191970" points="197.9117,-89.5001 207.9116,-86 197.9116,-82.5001 197.9117,-89.5001"/>
</g>
<!-- Node31331 -->
<g id="node14" class="node">
<title>Node31331</title>
<g id="a_node14"><a xlink:href="quickjs_8h.html#a775522f2d084fc8fa0fcb33f390006b4" target="_top" xlink:title="JS_DupValue">
<polygon fill="none" stroke="#000000" points="212.5,-38.5 212.5,-57.5 289.5,-57.5 289.5,-38.5 212.5,-38.5"/>
<text text-anchor="middle" x="251" y="-45.5" font-family="Helvetica,sans-Serif" font-size="10.00" fill="#000000">JS_DupValue</text>
</a>
</g>
</g>
<!-- Node31268&#45;&gt;Node31331 -->
<g id="edge15" class="edge">
<title>Node31268&#45;&gt;Node31331</title>
<path fill="none" stroke="#191970" d="M165.767,-76.411C179.9433,-71.6856 197.2366,-65.9211 212.5322,-60.8226"/>
<polygon fill="#191970" stroke="#191970" points="213.8622,-64.0687 222.2422,-57.5859 211.6485,-57.4279 213.8622,-64.0687"/>
</g>
<!-- Node31269&#45;&gt;Node31251 -->
<g id="edge12" class="edge">
<title>Node31269&#45;&gt;Node31251</title>
<path fill="none" stroke="#191970" d="M283.0377,-95.5485C328.9359,-109.2279 413.4526,-134.4173 464.2124,-149.5456"/>
<polygon fill="#191970" stroke="#191970" points="463.3096,-152.9287 473.8928,-152.4308 465.309,-146.2203 463.3096,-152.9287"/>
</g>
<!-- Node31270 -->
<g id="node11" class="node">
<title>Node31270</title>
<g id="a_node11"><a xlink:href="quickjs_8h.html#afaa20c47565bc704c6c85f3d77254e7d" target="_top" xlink:title="JS_FreeValue">
<polygon fill="none" stroke="#ff0000" points="340.5,-76.5 340.5,-95.5 418.5,-95.5 418.5,-76.5 340.5,-76.5"/>
<text text-anchor="middle" x="379.5" y="-83.5" font-family="Helvetica,sans-Serif" font-size="10.00" fill="#000000">JS_FreeValue</text>
</a>
</g>
</g>
<!-- Node31269&#45;&gt;Node31270 -->
<g id="edge11" class="edge">
<title>Node31269&#45;&gt;Node31270</title>
<path fill="none" stroke="#191970" d="M294.1461,-86C305.6502,-86 318.1696,-86 329.9862,-86"/>
<polygon fill="#191970" stroke="#191970" points="330.1464,-89.5001 340.1464,-86 330.1463,-82.5001 330.1464,-89.5001"/>
</g>
<!-- Node31299 -->
<g id="node12" class="node">
<title>Node31299</title>
<g id="a_node12"><a xlink:href="quickjs_8c.html#ae738291483438efefca5c9fa4d269504" target="_top" xlink:title="JS_ToNumberFree">
<polygon fill="none" stroke="#ff0000" points="330,-38.5 330,-57.5 429,-57.5 429,-38.5 330,-38.5"/>
<text text-anchor="middle" x="379.5" y="-45.5" font-family="Helvetica,sans-Serif" font-size="10.00" fill="#000000">JS_ToNumberFree</text>
</a>
</g>
</g>
<!-- Node31269&#45;&gt;Node31299 -->
<g id="edge13" class="edge">
<title>Node31269&#45;&gt;Node31299</title>
<path fill="none" stroke="#191970" d="M283.426,-76.411C299.7097,-71.5956 319.6421,-65.7012 337.122,-60.532"/>
<polygon fill="#191970" stroke="#191970" points="338.4875,-63.7781 347.0844,-57.5859 336.5024,-57.0655 338.4875,-63.7781"/>
</g>
<!-- Node31343 -->
<g id="node13" class="node">
<title>Node31343</title>
<g id="a_node13"><a xlink:href="quickjs_8h.html#ad80a83d73e9b7d872b88fbf2943aebe9" target="_top" xlink:title="JS_IsException">
<polygon fill="none" stroke="#000000" points="336.5,-.5 336.5,-19.5 422.5,-19.5 422.5,-.5 336.5,-.5"/>
<text text-anchor="middle" x="379.5" y="-7.5" font-family="Helvetica,sans-Serif" font-size="10.00" fill="#000000">JS_IsException</text>
</a>
</g>
</g>
<!-- Node31269&#45;&gt;Node31343 -->
<g id="edge14" class="edge">
<title>Node31269&#45;&gt;Node31343</title>
<path fill="none" stroke="#191970" d="M277.3627,-76.3316C283.0819,-73.7018 288.931,-70.5749 294,-67 313.012,-53.5918 310.6616,-41.9329 330,-29 332.8801,-27.0739 335.9834,-25.3034 339.182,-23.6844"/>
<polygon fill="#191970" stroke="#191970" points="340.6878,-26.8446 348.3425,-19.5196 337.7906,-20.4723 340.6878,-26.8446"/>
</g>
</g>
</svg>
        <g id="navigator" transform="translate(0 0)" fill="#404254">
                <rect fill="#f2f5e9" fill-opacity="0.5" stroke="#606060" stroke-width=".5" x="0" y="0" width="60" height="60"/>
                <use id="zoomplus" xlink:href="#zoomPlus" x="17" y="9" onmousedown="handleZoom(evt,'in')"/>
                <use id="zoomminus" xlink:href="#zoomMin" x="42" y="9" onmousedown="handleZoom(evt,'out')"/>
                <use id="reset" xlink:href="#resetDef" x="30" y="36" onmousedown="handleReset()"/>
                <g id="arrowUp" xlink:href="#dirArrow" transform="translate(30 24)" onmousedown="handlePan(0,-1)">
                  <use xlink:href="#rim" fill="#404040">
                        <set attributeName="fill" to="#808080" begin="arrowUp.mouseover" end="arrowUp.mouseout"/>
                  </use>
                  <path fill="none" stroke="white" stroke-width="1.5" d="M0,-3.0v7 M-2.5,-0.5L0,-3.0L2.5,-0.5"/>
                </g>
                <g id="arrowRight" xlink:href="#dirArrow" transform="rotate(90) translate(36 -43)" onmousedown="handlePan(1,0)">
                  <use xlink:href="#rim" fill="#404040">
                        <set attributeName="fill" to="#808080" begin="arrowRight.mouseover" end="arrowRight.mouseout"/>
                  </use>
                  <path fill="none" stroke="white" stroke-width="1.5" d="M0,-3.0v7 M-2.5,-0.5L0,-3.0L2.5,-0.5"/>
                </g>
                <g id="arrowDown" xlink:href="#dirArrow" transform="rotate(180) translate(-30 -48)" onmousedown="handlePan(0,1)">
                  <use xlink:href="#rim" fill="#404040">
                        <set attributeName="fill" to="#808080" begin="arrowDown.mouseover" end="arrowDown.mouseout"/>
                  </use>
                  <path fill="none" stroke="white" stroke-width="1.5" d="M0,-3.0v7 M-2.5,-0.5L0,-3.0L2.5,-0.5"/>
                </g>
                <g id="arrowLeft" xlink:href="#dirArrow" transform="rotate(270) translate(-36 17)" onmousedown="handlePan(-1,0)">
                  <use xlink:href="#rim" fill="#404040">
                        <set attributeName="fill" to="#808080" begin="arrowLeft.mouseover" end="arrowLeft.mouseout"/>
                  </use>
                  <path fill="none" stroke="white" stroke-width="1.5" d="M0,-3.0v7 M-2.5,-0.5L0,-3.0L2.5,-0.5"/>
                </g>
        </g>
        <svg viewBox="0 0 15 15" width="100%" height="30px" preserveAspectRatio="xMaxYMin meet">
         <g id="arrow_out" transform="scale(0.3 0.3)">
          <a xlink:href="quickjs-libc_8c_a60f83eb2908d4f2a93099f33b8219fc5_cgraph_org.svg" target="_base">
           <rect id="button" ry="5" rx="5" y="6" x="6" height="38" width="38"
                fill="#f2f5e9" fill-opacity="0.5" stroke="#606060" stroke-width="1.0"/>
           <path id="arrow"
             d="M 11.500037,31.436501 C 11.940474,20.09759 22.043105,11.32322 32.158766,21.979434 L 37.068811,17.246167 C 37.068811,17.246167 37.088388,32 37.088388,32 L 22.160133,31.978069 C 22.160133,31.978069 26.997745,27.140456 26.997745,27.140456 C 18.528582,18.264221 13.291696,25.230495 11.500037,31.436501 z"
             style="fill:#404040;"/>
          </a>
         </g>
        </svg>
</svg>
