<?xml version="1.0" encoding="UTF-8" standalone="no"?>
<!DOCTYPE svg PUBLIC "-//W3C//DTD SVG 1.1//EN"
 "http://www.w3.org/Graphics/SVG/1.1/DTD/svg11.dtd">
<!-- Generated by graphviz version 2.40.1 (20161225.0304)
 -->
<!-- Title: JS_NewRuntime2 Pages: 1 -->
<!--zoomable 739 -->
<svg id="main" version="1.1" xmlns="http://www.w3.org/2000/svg" xmlns:xlink="http://www.w3.org/1999/xlink" xml:space="preserve" onload="init(evt)">
<style type="text/css"><![CDATA[
.edge:hover path { stroke: red; }
.edge:hover polygon { stroke: red; fill: red; }
]]></style>
<script type="text/javascript"><![CDATA[
var edges = document.getElementsByTagName('g');
if (edges && edges.length) {
  for (var i=0;i<edges.length;i++) {
    if (edges[i].id.substr(0,4)=='edge') {
      edges[i].setAttribute('class','edge');
    }
  }
}
]]></script>
        <defs>
                <circle id="rim" cx="0" cy="0" r="7"/>
                <circle id="rim2" cx="0" cy="0" r="3.5"/>
                <g id="zoomPlus">
                        <use xlink:href="#rim" fill="#404040">
                                <set attributeName="fill" to="#808080" begin="zoomplus.mouseover" end="zoomplus.mouseout"/>
                        </use>
                        <path d="M-4,0h8M0,-4v8" fill="none" stroke="white" stroke-width="1.5" pointer-events="none"/>
                </g>
                <g id="zoomMin">
                        <use xlink:href="#rim" fill="#404040">
                                <set attributeName="fill" to="#808080" begin="zoomminus.mouseover" end="zoomminus.mouseout"/>
                        </use>
                        <path d="M-4,0h8" fill="none" stroke="white" stroke-width="1.5" pointer-events="none"/>
                </g>
                <g id="dirArrow">
                        <path fill="none" stroke="white" stroke-width="1.5" d="M0,-3.0v7 M-2.5,-0.5L0,-3.0L2.5,-0.5"/>
                </g>
               <g id="resetDef">
                       <use xlink:href="#rim2" fill="#404040">
                               <set attributeName="fill" to="#808080" begin="reset.mouseover" end="reset.mouseout"/>
                       </use>
               </g>
        </defs>

<script type="text/javascript">
var viewWidth = 689;
var viewHeight = 739;
var sectionId = 'dynsection-4';
</script>
<script xlink:href="svgpan.js"/>
<svg id="graph" class="graph">
<g id="viewport">
<title>JS_NewRuntime2</title>
<!-- Node449 -->
<g id="node1" class="node">
<title>Node449</title>
<polygon fill="#bfbfbf" stroke="#000000" points="0,-426.1289 0,-445.1289 96,-445.1289 96,-426.1289 0,-426.1289"/>
<text text-anchor="middle" x="48" y="-433.1289" font-family="Helvetica,sans-Serif" font-size="10.00" fill="#000000">JS_NewRuntime2</text>
</g>
<!-- Node450 -->
<g id="node2" class="node">
<title>Node450</title>
<g id="a_node2"><a xlink:href="quickjs_8c.html#a4883d074a00e989747e68453c718c862" target="_top" xlink:title="init_class_range">
<polygon fill="none" stroke="#000000" points="153.5,-635.1289 153.5,-654.1289 240.5,-654.1289 240.5,-635.1289 153.5,-635.1289"/>
<text text-anchor="middle" x="197" y="-642.1289" font-family="Helvetica,sans-Serif" font-size="10.00" fill="#000000">init_class_range</text>
</a>
</g>
</g>
<!-- Node449&#45;&gt;Node450 -->
<g id="edge1" class="edge">
<title>Node449&#45;&gt;Node450</title>
<path fill="none" stroke="#191970" d="M54.7894,-445.1523C77.9146,-477.5896 153.855,-584.1101 184.2536,-626.7498"/>
<polygon fill="#191970" stroke="#191970" points="181.5158,-628.9387 190.1707,-635.0496 187.2156,-624.8752 181.5158,-628.9387"/>
</g>
<!-- Node455 -->
<g id="node7" class="node">
<title>Node455</title>
<g id="a_node7"><a xlink:href="list_8h.html#a663527a4d757540b2177bef0db1ce5c0" target="_top" xlink:title="init_list_head">
<polygon fill="none" stroke="#000000" points="461,-445.1289 461,-464.1289 535,-464.1289 535,-445.1289 461,-445.1289"/>
<text text-anchor="middle" x="498" y="-452.1289" font-family="Helvetica,sans-Serif" font-size="10.00" fill="#000000">init_list_head</text>
</a>
</g>
</g>
<!-- Node449&#45;&gt;Node455 -->
<g id="edge6" class="edge">
<title>Node449&#45;&gt;Node455</title>
<path fill="none" stroke="#191970" d="M96.2629,-432.1061C166.9365,-427.7439 302.6109,-422.3925 417,-435.6289 429.5549,-437.0817 442.9902,-439.761 455.2373,-442.6587"/>
<polygon fill="#191970" stroke="#191970" points="454.6522,-446.1194 465.2,-445.122 456.3324,-439.324 454.6522,-446.1194"/>
</g>
<!-- Node456 -->
<g id="node8" class="node">
<title>Node456</title>
<g id="a_node8"><a xlink:href="quickjs_8c.html#a1aca23241f0d5313e2eaefa3aabeeb4b" target="_top" xlink:title="init_shape_hash">
<polygon fill="none" stroke="#000000" points="153.5,-483.1289 153.5,-502.1289 240.5,-502.1289 240.5,-483.1289 153.5,-483.1289"/>
<text text-anchor="middle" x="197" y="-490.1289" font-family="Helvetica,sans-Serif" font-size="10.00" fill="#000000">init_shape_hash</text>
</a>
</g>
</g>
<!-- Node449&#45;&gt;Node456 -->
<g id="edge7" class="edge">
<title>Node449&#45;&gt;Node456</title>
<path fill="none" stroke="#191970" d="M67.0295,-445.1651C83.849,-453.3686 109.1844,-465.1812 132,-473.6289 138.0778,-475.8792 144.552,-478.0414 150.9701,-480.0491"/>
<polygon fill="#191970" stroke="#191970" points="150.3593,-483.521 160.9445,-483.0673 152.3867,-476.821 150.3593,-483.521"/>
</g>
<!-- Node457 -->
<g id="node9" class="node">
<title>Node457</title>
<g id="a_node9"><a xlink:href="quickjs_8c.html#a31e26b7ddb2fbcdf55a5ffff63b38e57" target="_top" xlink:title="js_c_function_data_call">
<polygon fill="none" stroke="#000000" points="137.5,-445.1289 137.5,-464.1289 256.5,-464.1289 256.5,-445.1289 137.5,-445.1289"/>
<text text-anchor="middle" x="197" y="-452.1289" font-family="Helvetica,sans-Serif" font-size="10.00" fill="#000000">js_c_function_data_call</text>
</a>
</g>
</g>
<!-- Node449&#45;&gt;Node457 -->
<g id="edge8" class="edge">
<title>Node449&#45;&gt;Node457</title>
<path fill="none" stroke="#191970" d="M96.376,-441.7976C106.2928,-443.0622 116.9168,-444.4169 127.4102,-445.755"/>
<polygon fill="#191970" stroke="#191970" points="127.0412,-449.2362 137.4036,-447.0293 127.9267,-442.2924 127.0412,-449.2362"/>
</g>
<!-- Node458 -->
<g id="node10" class="node">
<title>Node458</title>
<g id="a_node10"><a xlink:href="quickjs_8c.html#ad80a65b72c3a346d8a0047858a5f0b13" target="_top" xlink:title="JS_FreeRuntime">
<polygon fill="none" stroke="#000000" points="152,-521.1289 152,-540.1289 242,-540.1289 242,-521.1289 152,-521.1289"/>
<text text-anchor="middle" x="197" y="-528.1289" font-family="Helvetica,sans-Serif" font-size="10.00" fill="#000000">JS_FreeRuntime</text>
</a>
</g>
</g>
<!-- Node449&#45;&gt;Node458 -->
<g id="edge9" class="edge">
<title>Node449&#45;&gt;Node458</title>
<path fill="none" stroke="#191970" d="M56.0221,-445.304C69.8762,-461.4 99.9022,-493.6784 132,-511.6289 135.9153,-513.8185 140.1075,-515.7775 144.407,-517.526"/>
<polygon fill="#191970" stroke="#191970" points="143.3316,-520.8596 153.9251,-521.0252 145.747,-514.2895 143.3316,-520.8596"/>
</g>
<!-- Node506 -->
<g id="node19" class="node">
<title>Node506</title>
<g id="a_node19"><a xlink:href="quickjs_8c.html#a9d95ebd661628910e9e05ee872340848" target="_top" xlink:title="js_generator_function_call">
<polygon fill="none" stroke="#000000" points="132,-160.1289 132,-179.1289 262,-179.1289 262,-160.1289 132,-160.1289"/>
<text text-anchor="middle" x="197" y="-167.1289" font-family="Helvetica,sans-Serif" font-size="10.00" fill="#000000">js_generator_function_call</text>
</a>
</g>
</g>
<!-- Node449&#45;&gt;Node506 -->
<g id="edge21" class="edge">
<title>Node449&#45;&gt;Node506</title>
<path fill="none" stroke="#191970" d="M53.2627,-426.001C66.4276,-401.9391 101.8916,-337.2626 132,-283.6289 150.9439,-249.883 173.3657,-210.7291 186.3096,-188.2011"/>
<polygon fill="#191970" stroke="#191970" points="189.4406,-189.7773 191.3914,-179.3636 183.3723,-186.2879 189.4406,-189.7773"/>
</g>
<!-- Node880 -->
<g id="node27" class="node">
<title>Node880</title>
<g id="a_node27"><a xlink:href="quickjs_8c.html#a2469c0e8a95a75d5835ec98ea967085f" target="_top" xlink:title="JS_InitAtoms">
<polygon fill="none" stroke="#000000" points="159,-293.1289 159,-312.1289 235,-312.1289 235,-293.1289 159,-293.1289"/>
<text text-anchor="middle" x="197" y="-300.1289" font-family="Helvetica,sans-Serif" font-size="10.00" fill="#000000">JS_InitAtoms</text>
</a>
</g>
</g>
<!-- Node449&#45;&gt;Node880 -->
<g id="edge35" class="edge">
<title>Node449&#45;&gt;Node880</title>
<path fill="none" stroke="#191970" d="M58.7157,-426.0639C83.8297,-403.6467 146.7448,-347.4875 178.3159,-319.3066"/>
<polygon fill="#191970" stroke="#191970" points="180.8498,-321.7364 185.9794,-312.4661 176.1884,-316.5142 180.8498,-321.7364"/>
</g>
<!-- Node882 -->
<g id="node30" class="node">
<title>Node882</title>
<g id="a_node30"><a xlink:href="quickjs_8c.html#a13dc07fcd82cf239eb10a991e6be507d" target="_top" xlink:title="js_malloc_usable_size\l_unknown">
<polygon fill="none" stroke="#000000" points="139.5,-110.6289 139.5,-140.6289 254.5,-140.6289 254.5,-110.6289 139.5,-110.6289"/>
<text text-anchor="start" x="147.5" y="-128.6289" font-family="Helvetica,sans-Serif" font-size="10.00" fill="#000000">js_malloc_usable_size</text>
<text text-anchor="middle" x="197" y="-117.6289" font-family="Helvetica,sans-Serif" font-size="10.00" fill="#000000">_unknown</text>
</a>
</g>
</g>
<!-- Node449&#45;&gt;Node882 -->
<g id="edge39" class="edge">
<title>Node449&#45;&gt;Node882</title>
<path fill="none" stroke="#191970" d="M49.6659,-425.9799C57.5822,-381.1147 92.6511,-193.2823 132,-150.6289 133.2118,-149.3153 134.5003,-148.0701 135.8528,-146.8897"/>
<polygon fill="#191970" stroke="#191970" points="138.1783,-149.5262 144.2068,-140.8137 134.0609,-143.8651 138.1783,-149.5262"/>
</g>
<!-- Node451 -->
<g id="node3" class="node">
<title>Node451</title>
<g id="a_node3"><a xlink:href="quickjs_8c.html#ab515cd66efd3e476d2c22d6a55f13194" target="_top" xlink:title="JS_NewClass1">
<polygon fill="none" stroke="#000000" points="315,-711.1289 315,-730.1289 400,-730.1289 400,-711.1289 315,-711.1289"/>
<text text-anchor="middle" x="357.5" y="-718.1289" font-family="Helvetica,sans-Serif" font-size="10.00" fill="#000000">JS_NewClass1</text>
</a>
</g>
</g>
<!-- Node450&#45;&gt;Node451 -->
<g id="edge2" class="edge">
<title>Node450&#45;&gt;Node451</title>
<path fill="none" stroke="#191970" d="M214.276,-654.1415C234.1976,-664.9653 268.0543,-682.9158 298,-696.6289 306.0068,-700.2955 314.7432,-703.9864 322.9948,-707.337"/>
<polygon fill="#191970" stroke="#191970" points="321.8012,-710.6291 332.386,-711.092 324.4002,-704.1294 321.8012,-710.6291"/>
</g>
<!-- Node452 -->
<g id="node4" class="node">
<title>Node452</title>
<g id="a_node4"><a xlink:href="quickjs_8c.html#aa1e14f2e125d8bad48dd20650505f4fa" target="_top" xlink:title="JS_DupAtomRT">
<polygon fill="none" stroke="#000000" points="453.5,-711.1289 453.5,-730.1289 542.5,-730.1289 542.5,-711.1289 453.5,-711.1289"/>
<text text-anchor="middle" x="498" y="-718.1289" font-family="Helvetica,sans-Serif" font-size="10.00" fill="#000000">JS_DupAtomRT</text>
</a>
</g>
</g>
<!-- Node451&#45;&gt;Node452 -->
<g id="edge3" class="edge">
<title>Node451&#45;&gt;Node452</title>
<path fill="none" stroke="#191970" d="M400.0359,-720.6289C413.5543,-720.6289 428.7033,-720.6289 442.9722,-720.6289"/>
<polygon fill="#191970" stroke="#191970" points="443.1707,-724.129 453.1707,-720.6289 443.1707,-717.129 443.1707,-724.129"/>
</g>
<!-- Node454 -->
<g id="node6" class="node">
<title>Node454</title>
<g id="a_node6"><a xlink:href="cutils_8h.html#a94f155fcce337a2b9d4719ed8042cbbe" target="_top" xlink:title="max_int">
<polygon fill="none" stroke="#000000" points="472.5,-559.1289 472.5,-578.1289 523.5,-578.1289 523.5,-559.1289 472.5,-559.1289"/>
<text text-anchor="middle" x="498" y="-566.1289" font-family="Helvetica,sans-Serif" font-size="10.00" fill="#000000">max_int</text>
</a>
</g>
</g>
<!-- Node451&#45;&gt;Node454 -->
<g id="edge5" class="edge">
<title>Node451&#45;&gt;Node454</title>
<path fill="none" stroke="#191970" d="M368.3481,-710.8511C380.5225,-699.739 400.7021,-680.8993 417,-663.6289 441.5102,-637.6562 468.0237,-605.7635 483.8086,-586.3301"/>
<polygon fill="#191970" stroke="#191970" points="486.6986,-588.3222 490.2604,-578.344 481.2535,-583.9232 486.6986,-588.3222"/>
</g>
<!-- Node453 -->
<g id="node5" class="node">
<title>Node453</title>
<g id="a_node5"><a xlink:href="quickjs_8c.html#a7f6796ee7a195631366f57c713a33f65" target="_top" xlink:title="__JS_AtomIsConst">
<polygon fill="none" stroke="#000000" points="579,-692.1289 579,-711.1289 681,-711.1289 681,-692.1289 579,-692.1289"/>
<text text-anchor="middle" x="630" y="-699.1289" font-family="Helvetica,sans-Serif" font-size="10.00" fill="#000000">__JS_AtomIsConst</text>
</a>
</g>
</g>
<!-- Node452&#45;&gt;Node453 -->
<g id="edge4" class="edge">
<title>Node452&#45;&gt;Node453</title>
<path fill="none" stroke="#191970" d="M542.6892,-714.1964C551.1665,-712.9761 560.1694,-711.6803 569.0496,-710.4021"/>
<polygon fill="#191970" stroke="#191970" points="569.5896,-713.8605 578.989,-708.9714 568.5923,-706.9319 569.5896,-713.8605"/>
</g>
<!-- Node458&#45;&gt;Node455 -->
<g id="edge11" class="edge">
<title>Node458&#45;&gt;Node455</title>
<path fill="none" stroke="#191970" d="M234.8171,-521.0804C289.5956,-507.2493 390.9758,-481.6516 450.6525,-466.5837"/>
<polygon fill="#191970" stroke="#191970" points="451.7349,-469.9204 460.5738,-464.0787 450.0212,-463.1334 451.7349,-469.9204"/>
</g>
<!-- Node459 -->
<g id="node11" class="node">
<title>Node459</title>
<g id="a_node11"><a xlink:href="quickjs_8c.html#ac3bdf708c1dc092fd52508b5d29bd0ce" target="_top" xlink:title="atom_is_free">
<polygon fill="none" stroke="#000000" points="321,-521.1289 321,-540.1289 394,-540.1289 394,-521.1289 321,-521.1289"/>
<text text-anchor="middle" x="357.5" y="-528.1289" font-family="Helvetica,sans-Serif" font-size="10.00" fill="#000000">atom_is_free</text>
</a>
</g>
</g>
<!-- Node458&#45;&gt;Node459 -->
<g id="edge10" class="edge">
<title>Node458&#45;&gt;Node459</title>
<path fill="none" stroke="#191970" d="M242.1353,-530.6289C263.4896,-530.6289 288.9759,-530.6289 310.5559,-530.6289"/>
<polygon fill="#191970" stroke="#191970" points="310.8007,-534.129 320.8007,-530.6289 310.8007,-527.129 310.8007,-534.129"/>
</g>
<!-- Node460 -->
<g id="node12" class="node">
<title>Node460</title>
<g id="a_node12"><a xlink:href="quickjs_8c.html#a69e19dda8a93d613203e0baa06f0ed8d" target="_top" xlink:title="js_free_rt">
<polygon fill="none" stroke="#000000" points="469.5,-312.1289 469.5,-331.1289 526.5,-331.1289 526.5,-312.1289 469.5,-312.1289"/>
<text text-anchor="middle" x="498" y="-319.1289" font-family="Helvetica,sans-Serif" font-size="10.00" fill="#000000">js_free_rt</text>
</a>
</g>
</g>
<!-- Node458&#45;&gt;Node460 -->
<g id="edge12" class="edge">
<title>Node458&#45;&gt;Node460</title>
<path fill="none" stroke="#191970" d="M242.1847,-522.8396C249.3517,-520.1426 256.2761,-516.513 262,-511.6289 290.4317,-487.3683 272.5904,-463.0385 298,-435.6289 323.5367,-408.0822 419.3981,-359.5275 468.5444,-335.6663"/>
<polygon fill="#191970" stroke="#191970" points="470.2334,-338.7375 477.7161,-331.2368 467.1891,-332.4341 470.2334,-338.7375"/>
</g>
<!-- Node461 -->
<g id="node13" class="node">
<title>Node461</title>
<g id="a_node13"><a xlink:href="quickjs_8c.html#a5a0aca30abbb4d4ae86746541bf4cbc7" target="_top" xlink:title="JS_FreeAtomRT">
<polygon fill="none" stroke="#ff0000" points="453,-673.1289 453,-692.1289 543,-692.1289 543,-673.1289 453,-673.1289"/>
<text text-anchor="middle" x="498" y="-680.1289" font-family="Helvetica,sans-Serif" font-size="10.00" fill="#000000">JS_FreeAtomRT</text>
</a>
</g>
</g>
<!-- Node458&#45;&gt;Node461 -->
<g id="edge13" class="edge">
<title>Node458&#45;&gt;Node461</title>
<path fill="none" stroke="#191970" d="M203.7354,-540.4027C224.1199,-569.8492 284.574,-656.1539 298,-663.6289 342.1996,-688.2371 400.5147,-691.0599 442.7626,-688.8838"/>
<polygon fill="#191970" stroke="#191970" points="443.1058,-692.3693 452.8683,-688.253 442.6696,-685.3829 443.1058,-692.3693"/>
</g>
<!-- Node465 -->
<g id="node14" class="node">
<title>Node465</title>
<g id="a_node14"><a xlink:href="quickjs_8c.html#a1b4fe6eb1b7bcaec6713bd5ac2921f1b" target="_top" xlink:title="JS_FreeContext">
<polygon fill="none" stroke="#ff0000" points="313.5,-331.1289 313.5,-350.1289 401.5,-350.1289 401.5,-331.1289 313.5,-331.1289"/>
<text text-anchor="middle" x="357.5" y="-338.1289" font-family="Helvetica,sans-Serif" font-size="10.00" fill="#000000">JS_FreeContext</text>
</a>
</g>
</g>
<!-- Node458&#45;&gt;Node465 -->
<g id="edge15" class="edge">
<title>Node458&#45;&gt;Node465</title>
<path fill="none" stroke="#191970" d="M242.0693,-524.159C249.5071,-521.3346 256.5545,-517.3206 262,-511.6289 308.4998,-463.0263 253.9624,-415.4731 298,-364.6289 301.2474,-360.8796 305.1654,-357.7084 309.4225,-355.0278"/>
<polygon fill="#191970" stroke="#191970" points="311.3435,-357.9705 318.5306,-350.1861 308.0578,-351.7895 311.3435,-357.9705"/>
</g>
<!-- Node469 -->
<g id="node16" class="node">
<title>Node469</title>
<g id="a_node16"><a xlink:href="quickjs_8h.html#ab8db583fa5e7c2b1935854a42859daed" target="_top" xlink:title="JS_FreeValueRT">
<polygon fill="none" stroke="#ff0000" points="311.5,-635.1289 311.5,-654.1289 403.5,-654.1289 403.5,-635.1289 311.5,-635.1289"/>
<text text-anchor="middle" x="357.5" y="-642.1289" font-family="Helvetica,sans-Serif" font-size="10.00" fill="#000000">JS_FreeValueRT</text>
</a>
</g>
</g>
<!-- Node458&#45;&gt;Node469 -->
<g id="edge18" class="edge">
<title>Node458&#45;&gt;Node469</title>
<path fill="none" stroke="#191970" d="M204.5799,-540.1846C220.1188,-559.1619 257.5448,-601.8197 298,-625.6289 301.6272,-627.7636 305.5222,-629.6877 309.5204,-631.4161"/>
<polygon fill="#191970" stroke="#191970" points="308.3714,-634.7247 318.9596,-635.1006 310.9168,-628.2039 308.3714,-634.7247"/>
</g>
<!-- Node489 -->
<g id="node17" class="node">
<title>Node489</title>
<g id="a_node17"><a xlink:href="quickjs_8c.html#aeeea589ee4cec4bbc3145210f4cf6e42" target="_top" xlink:title="JS_RunGC">
<polygon fill="none" stroke="#ff0000" points="324,-597.1289 324,-616.1289 391,-616.1289 391,-597.1289 324,-597.1289"/>
<text text-anchor="middle" x="357.5" y="-604.1289" font-family="Helvetica,sans-Serif" font-size="10.00" fill="#000000">JS_RunGC</text>
</a>
</g>
</g>
<!-- Node458&#45;&gt;Node489 -->
<g id="edge19" class="edge">
<title>Node458&#45;&gt;Node489</title>
<path fill="none" stroke="#191970" d="M211.8985,-540.3257C231.1736,-552.5649 266.0745,-573.6982 298,-587.6289 303.0936,-589.8515 308.5325,-591.9457 313.9741,-593.8738"/>
<polygon fill="#191970" stroke="#191970" points="313.1041,-597.2741 323.6983,-597.1568 315.3433,-590.6419 313.1041,-597.2741"/>
</g>
<!-- Node505 -->
<g id="node18" class="node">
<title>Node505</title>
<g id="a_node18"><a xlink:href="list_8h.html#acc8877b883e77ef12325dd5bfa4be0d3" target="_top" xlink:title="list_empty">
<polygon fill="none" stroke="#000000" points="326.5,-559.1289 326.5,-578.1289 388.5,-578.1289 388.5,-559.1289 326.5,-559.1289"/>
<text text-anchor="middle" x="357.5" y="-566.1289" font-family="Helvetica,sans-Serif" font-size="10.00" fill="#000000">list_empty</text>
</a>
</g>
</g>
<!-- Node458&#45;&gt;Node505 -->
<g id="edge20" class="edge">
<title>Node458&#45;&gt;Node505</title>
<path fill="none" stroke="#191970" d="M237.5009,-540.2179C261.6342,-545.9317 292.1837,-553.1646 316.4188,-558.9025"/>
<polygon fill="#191970" stroke="#191970" points="315.8442,-562.3631 326.3815,-561.2613 317.4569,-555.5514 315.8442,-562.3631"/>
</g>
<!-- Node461&#45;&gt;Node453 -->
<g id="edge14" class="edge">
<title>Node461&#45;&gt;Node453</title>
<path fill="none" stroke="#191970" d="M543.0577,-689.1145C551.3246,-690.3044 560.0804,-691.5647 568.7275,-692.8094"/>
<polygon fill="#191970" stroke="#191970" points="568.396,-696.2976 578.7927,-694.2581 569.3934,-689.369 568.396,-696.2976"/>
</g>
<!-- Node465&#45;&gt;Node460 -->
<g id="edge16" class="edge">
<title>Node465&#45;&gt;Node460</title>
<path fill="none" stroke="#191970" d="M401.5696,-334.6693C420.0025,-332.1766 441.2417,-329.3044 459.0874,-326.8911"/>
<polygon fill="#191970" stroke="#191970" points="459.7149,-330.3382 469.1557,-325.5295 458.7768,-323.4013 459.7149,-330.3382"/>
</g>
<!-- Node486 -->
<g id="node15" class="node">
<title>Node486</title>
<g id="a_node15"><a xlink:href="quickjs_8h.html#afaa20c47565bc704c6c85f3d77254e7d" target="_top" xlink:title="JS_FreeValue">
<polygon fill="none" stroke="#ff0000" points="459,-141.1289 459,-160.1289 537,-160.1289 537,-141.1289 459,-141.1289"/>
<text text-anchor="middle" x="498" y="-148.1289" font-family="Helvetica,sans-Serif" font-size="10.00" fill="#000000">JS_FreeValue</text>
</a>
</g>
</g>
<!-- Node465&#45;&gt;Node486 -->
<g id="edge17" class="edge">
<title>Node465&#45;&gt;Node486</title>
<path fill="none" stroke="#191970" d="M401.6395,-331.1458C407.205,-328.6726 412.5113,-325.5559 417,-321.6289 464.0721,-280.4468 485.9302,-205.9357 494.0419,-170.4502"/>
<polygon fill="#191970" stroke="#191970" points="497.5242,-170.9046 496.2071,-160.3919 490.681,-169.4314 497.5242,-170.9046"/>
</g>
<!-- Node506&#45;&gt;Node486 -->
<g id="edge32" class="edge">
<title>Node506&#45;&gt;Node486</title>
<path fill="none" stroke="#191970" d="M262.3125,-165.5062C318.2812,-161.9733 397.6866,-156.961 448.5229,-153.752"/>
<polygon fill="#191970" stroke="#191970" points="448.8464,-157.2387 458.606,-153.1155 448.4054,-150.2526 448.8464,-157.2387"/>
</g>
<!-- Node507 -->
<g id="node20" class="node">
<title>Node507</title>
<g id="a_node20"><a xlink:href="quickjs_8c.html#a4bd986b91b68c6aa485f57c6142acccb" target="_top" xlink:title="async_func_init">
<polygon fill="none" stroke="#ff0000" points="315,-445.1289 315,-464.1289 400,-464.1289 400,-445.1289 315,-445.1289"/>
<text text-anchor="middle" x="357.5" y="-452.1289" font-family="Helvetica,sans-Serif" font-size="10.00" fill="#000000">async_func_init</text>
</a>
</g>
</g>
<!-- Node506&#45;&gt;Node507 -->
<g id="edge22" class="edge">
<title>Node506&#45;&gt;Node507</title>
<path fill="none" stroke="#191970" d="M202.8166,-179.2511C214.5038,-198.7077 241.4735,-244.2288 262,-283.6289 279.2688,-316.7759 280.0497,-326.8459 298,-359.6289 313.0317,-387.0816 332.6599,-417.5353 345.1766,-436.3844"/>
<polygon fill="#191970" stroke="#191970" points="342.3861,-438.5078 350.8552,-444.8738 348.2045,-434.6159 342.3861,-438.5078"/>
</g>
<!-- Node509 -->
<g id="node21" class="node">
<title>Node509</title>
<g id="a_node21"><a xlink:href="quickjs_8c.html#ade71a22dc56e7371392393df663b28b3" target="_top" xlink:title="async_func_resume">
<polygon fill="none" stroke="#ff0000" points="305.5,-65.1289 305.5,-84.1289 409.5,-84.1289 409.5,-65.1289 305.5,-65.1289"/>
<text text-anchor="middle" x="357.5" y="-72.1289" font-family="Helvetica,sans-Serif" font-size="10.00" fill="#000000">async_func_resume</text>
</a>
</g>
</g>
<!-- Node506&#45;&gt;Node509 -->
<g id="edge25" class="edge">
<title>Node506&#45;&gt;Node509</title>
<path fill="none" stroke="#191970" d="M244.7388,-160.0816C250.8913,-157.6181 256.8364,-154.5212 262,-150.6289 285.9266,-132.5929 274.2981,-111.9591 298,-93.6289 300.3321,-91.8253 302.8399,-90.1905 305.4599,-88.709"/>
<polygon fill="#191970" stroke="#191970" points="307.2264,-91.7427 314.7071,-84.24 304.1804,-85.4401 307.2264,-91.7427"/>
</g>
<!-- Node878 -->
<g id="node22" class="node">
<title>Node878</title>
<g id="a_node22"><a xlink:href="quickjs_8c.html#a79e765cc00783901041f08e060c14287" target="_top" xlink:title="free_generator_stack_rt">
<polygon fill="none" stroke="#ff0000" points="298,-27.1289 298,-46.1289 417,-46.1289 417,-27.1289 298,-27.1289"/>
<text text-anchor="middle" x="357.5" y="-34.1289" font-family="Helvetica,sans-Serif" font-size="10.00" fill="#000000">free_generator_stack_rt</text>
</a>
</g>
</g>
<!-- Node506&#45;&gt;Node878 -->
<g id="edge26" class="edge">
<title>Node506&#45;&gt;Node878</title>
<path fill="none" stroke="#191970" d="M247.4725,-160.1239C252.7796,-157.6514 257.771,-154.5409 262,-150.6289 295.1455,-119.968 265.2358,-86.6969 298,-55.6289 299.6623,-54.0527 301.4553,-52.6072 303.3463,-51.2817"/>
<polygon fill="#191970" stroke="#191970" points="305.2436,-54.2281 312.1624,-46.2043 301.75,-48.1621 305.2436,-54.2281"/>
</g>
<!-- Node757 -->
<g id="node23" class="node">
<title>Node757</title>
<g id="a_node23"><a xlink:href="quickjs_8c.html#a93dbf502b17d1328c524401335f60499" target="_top" xlink:title="js_create_from_ctor">
<polygon fill="none" stroke="#ff0000" points="306,-103.1289 306,-122.1289 409,-122.1289 409,-103.1289 306,-103.1289"/>
<text text-anchor="middle" x="357.5" y="-110.1289" font-family="Helvetica,sans-Serif" font-size="10.00" fill="#000000">js_create_from_ctor</text>
</a>
</g>
</g>
<!-- Node506&#45;&gt;Node757 -->
<g id="edge27" class="edge">
<title>Node506&#45;&gt;Node757</title>
<path fill="none" stroke="#191970" d="M231.9365,-160.0735C241.7235,-157.2191 252.3285,-153.9583 262,-150.6289 268.256,-148.4753 299.317,-136.0627 324.3418,-126.0009"/>
<polygon fill="#191970" stroke="#191970" points="325.946,-129.1282 333.9163,-122.1478 323.3326,-122.6343 325.946,-129.1282"/>
</g>
<!-- Node540 -->
<g id="node24" class="node">
<title>Node540</title>
<g id="a_node24"><a xlink:href="quickjs_8h.html#ad80a83d73e9b7d872b88fbf2943aebe9" target="_top" xlink:title="JS_IsException">
<polygon fill="none" stroke="#000000" points="455,-46.1289 455,-65.1289 541,-65.1289 541,-46.1289 455,-46.1289"/>
<text text-anchor="middle" x="498" y="-53.1289" font-family="Helvetica,sans-Serif" font-size="10.00" fill="#000000">JS_IsException</text>
</a>
</g>
</g>
<!-- Node506&#45;&gt;Node540 -->
<g id="edge33" class="edge">
<title>Node506&#45;&gt;Node540</title>
<path fill="none" stroke="#191970" d="M248.8159,-160.0458C253.6905,-157.5789 258.2143,-154.4912 262,-150.6289 304.8659,-106.8951 249.3691,-54.8466 298,-17.6289 350.9891,22.9241 434.596,-17.0038 474.8417,-40.7626"/>
<polygon fill="#191970" stroke="#191970" points="473.0584,-43.7745 483.4222,-45.9747 476.6925,-37.7917 473.0584,-43.7745"/>
</g>
<!-- Node484 -->
<g id="node25" class="node">
<title>Node484</title>
<g id="a_node25"><a xlink:href="quickjs_8c.html#a80e54dcf9ac687d4ccc2f90273565f30" target="_top" xlink:title="js_free">
<polygon fill="none" stroke="#000000" points="334.5,-217.1289 334.5,-236.1289 380.5,-236.1289 380.5,-217.1289 334.5,-217.1289"/>
<text text-anchor="middle" x="357.5" y="-224.1289" font-family="Helvetica,sans-Serif" font-size="10.00" fill="#000000">js_free</text>
</a>
</g>
</g>
<!-- Node506&#45;&gt;Node484 -->
<g id="edge30" class="edge">
<title>Node506&#45;&gt;Node484</title>
<path fill="none" stroke="#191970" d="M221.3646,-179.1925C241.7434,-187.0958 271.6322,-198.4652 298,-207.6289 306.54,-210.5968 315.8284,-213.6468 324.472,-216.4107"/>
<polygon fill="#191970" stroke="#191970" points="323.6491,-219.8213 334.2391,-219.5017 325.7612,-213.1475 323.6491,-219.8213"/>
</g>
<!-- Node727 -->
<g id="node26" class="node">
<title>Node727</title>
<g id="a_node26"><a xlink:href="quickjs_8c.html#a0ddf716409e51648f0d59e7521150d19" target="_top" xlink:title="JS_SetOpaque">
<polygon fill="none" stroke="#000000" points="316,-179.1289 316,-198.1289 399,-198.1289 399,-179.1289 316,-179.1289"/>
<text text-anchor="middle" x="357.5" y="-186.1289" font-family="Helvetica,sans-Serif" font-size="10.00" fill="#000000">JS_SetOpaque</text>
</a>
</g>
</g>
<!-- Node506&#45;&gt;Node727 -->
<g id="edge34" class="edge">
<title>Node506&#45;&gt;Node727</title>
<path fill="none" stroke="#191970" d="M262.2815,-177.3569C276.6666,-179.0598 291.7169,-180.8415 305.4942,-182.4724"/>
<polygon fill="#191970" stroke="#191970" points="305.4074,-185.9865 315.7495,-183.6865 306.2303,-179.0351 305.4074,-185.9865"/>
</g>
<!-- Node507&#45;&gt;Node454 -->
<g id="edge24" class="edge">
<title>Node507&#45;&gt;Node454</title>
<path fill="none" stroke="#191970" d="M369.479,-464.3485C393.6385,-483.9512 448.4213,-528.4013 478.0622,-552.4516"/>
<polygon fill="#191970" stroke="#191970" points="476.0807,-555.351 486.0514,-558.9339 480.4912,-549.9153 476.0807,-555.351"/>
</g>
<!-- Node507&#45;&gt;Node455 -->
<g id="edge23" class="edge">
<title>Node507&#45;&gt;Node455</title>
<path fill="none" stroke="#191970" d="M400.0359,-454.6289C415.9369,-454.6289 434.0941,-454.6289 450.4211,-454.6289"/>
<polygon fill="#191970" stroke="#191970" points="450.844,-458.129 460.844,-454.6289 450.844,-451.129 450.844,-458.129"/>
</g>
<!-- Node757&#45;&gt;Node486 -->
<g id="edge28" class="edge">
<title>Node757&#45;&gt;Node486</title>
<path fill="none" stroke="#191970" d="M392.9541,-122.2179C411.0913,-127.1233 433.3684,-133.1485 452.7334,-138.386"/>
<polygon fill="#191970" stroke="#191970" points="451.9903,-141.8107 462.5573,-141.0429 453.8179,-135.0534 451.9903,-141.8107"/>
</g>
<!-- Node757&#45;&gt;Node540 -->
<g id="edge29" class="edge">
<title>Node757&#45;&gt;Node540</title>
<path fill="none" stroke="#191970" d="M389.8821,-103.1268C398.7552,-100.2966 408.3186,-97.0348 417,-93.6289 435.0819,-86.5349 454.8254,-77.3045 470.293,-69.7175"/>
<polygon fill="#191970" stroke="#191970" points="471.9158,-72.8195 479.3182,-65.2396 468.8045,-66.5489 471.9158,-72.8195"/>
</g>
<!-- Node484&#45;&gt;Node460 -->
<g id="edge31" class="edge">
<title>Node484&#45;&gt;Node460</title>
<path fill="none" stroke="#191970" d="M380.5369,-231.4361C392.0066,-234.4489 405.7815,-239.0357 417,-245.6289 443.7167,-261.3303 468.8101,-287.2677 483.7901,-304.4025"/>
<polygon fill="#191970" stroke="#191970" points="481.1403,-306.6892 490.2943,-312.0236 486.4648,-302.145 481.1403,-306.6892"/>
</g>
<!-- Node881 -->
<g id="node28" class="node">
<title>Node881</title>
<g id="a_node28"><a xlink:href="quickjs_8c.html#a128673f932e71b867730af75a44e3f97" target="_top" xlink:title="__JS_NewAtomInit">
<polygon fill="none" stroke="#ff0000" points="307,-255.1289 307,-274.1289 408,-274.1289 408,-255.1289 307,-255.1289"/>
<text text-anchor="middle" x="357.5" y="-262.1289" font-family="Helvetica,sans-Serif" font-size="10.00" fill="#000000">__JS_NewAtomInit</text>
</a>
</g>
</g>
<!-- Node880&#45;&gt;Node881 -->
<g id="edge36" class="edge">
<title>Node880&#45;&gt;Node881</title>
<path fill="none" stroke="#191970" d="M235.0363,-293.6234C256.6931,-288.4959 284.084,-282.0109 307.4669,-276.4747"/>
<polygon fill="#191970" stroke="#191970" points="308.2897,-279.8768 317.2143,-274.1669 306.6769,-273.0651 308.2897,-279.8768"/>
</g>
<!-- Node608 -->
<g id="node29" class="node">
<title>Node608</title>
<g id="a_node29"><a xlink:href="quickjs_8c.html#ac8b63cf5ecd077231532b9ad543aad23" target="_top" xlink:title="JS_ResizeAtomHash">
<polygon fill="none" stroke="#000000" points="302,-293.1289 302,-312.1289 413,-312.1289 413,-293.1289 302,-293.1289"/>
<text text-anchor="middle" x="357.5" y="-300.1289" font-family="Helvetica,sans-Serif" font-size="10.00" fill="#000000">JS_ResizeAtomHash</text>
</a>
</g>
</g>
<!-- Node880&#45;&gt;Node608 -->
<g id="edge37" class="edge">
<title>Node880&#45;&gt;Node608</title>
<path fill="none" stroke="#191970" d="M235.0363,-302.6289C251.9303,-302.6289 272.3137,-302.6289 291.5618,-302.6289"/>
<polygon fill="#191970" stroke="#191970" points="291.8031,-306.129 301.803,-302.6289 291.803,-299.129 291.8031,-306.129"/>
</g>
<!-- Node608&#45;&gt;Node460 -->
<g id="edge38" class="edge">
<title>Node608&#45;&gt;Node460</title>
<path fill="none" stroke="#191970" d="M413.0293,-310.1382C428.5833,-312.2416 445.1454,-314.4813 459.4772,-316.4194"/>
<polygon fill="#191970" stroke="#191970" points="459.0936,-319.8993 469.4725,-317.7711 460.0318,-312.9624 459.0936,-319.8993"/>
</g>
</g>
</svg>
        <g id="navigator" transform="translate(0 0)" fill="#404254">
                <rect fill="#f2f5e9" fill-opacity="0.5" stroke="#606060" stroke-width=".5" x="0" y="0" width="60" height="60"/>
                <use id="zoomplus" xlink:href="#zoomPlus" x="17" y="9" onmousedown="handleZoom(evt,'in')"/>
                <use id="zoomminus" xlink:href="#zoomMin" x="42" y="9" onmousedown="handleZoom(evt,'out')"/>
                <use id="reset" xlink:href="#resetDef" x="30" y="36" onmousedown="handleReset()"/>
                <g id="arrowUp" xlink:href="#dirArrow" transform="translate(30 24)" onmousedown="handlePan(0,-1)">
                  <use xlink:href="#rim" fill="#404040">
                        <set attributeName="fill" to="#808080" begin="arrowUp.mouseover" end="arrowUp.mouseout"/>
                  </use>
                  <path fill="none" stroke="white" stroke-width="1.5" d="M0,-3.0v7 M-2.5,-0.5L0,-3.0L2.5,-0.5"/>
                </g>
                <g id="arrowRight" xlink:href="#dirArrow" transform="rotate(90) translate(36 -43)" onmousedown="handlePan(1,0)">
                  <use xlink:href="#rim" fill="#404040">
                        <set attributeName="fill" to="#808080" begin="arrowRight.mouseover" end="arrowRight.mouseout"/>
                  </use>
                  <path fill="none" stroke="white" stroke-width="1.5" d="M0,-3.0v7 M-2.5,-0.5L0,-3.0L2.5,-0.5"/>
                </g>
                <g id="arrowDown" xlink:href="#dirArrow" transform="rotate(180) translate(-30 -48)" onmousedown="handlePan(0,1)">
                  <use xlink:href="#rim" fill="#404040">
                        <set attributeName="fill" to="#808080" begin="arrowDown.mouseover" end="arrowDown.mouseout"/>
                  </use>
                  <path fill="none" stroke="white" stroke-width="1.5" d="M0,-3.0v7 M-2.5,-0.5L0,-3.0L2.5,-0.5"/>
                </g>
                <g id="arrowLeft" xlink:href="#dirArrow" transform="rotate(270) translate(-36 17)" onmousedown="handlePan(-1,0)">
                  <use xlink:href="#rim" fill="#404040">
                        <set attributeName="fill" to="#808080" begin="arrowLeft.mouseover" end="arrowLeft.mouseout"/>
                  </use>
                  <path fill="none" stroke="white" stroke-width="1.5" d="M0,-3.0v7 M-2.5,-0.5L0,-3.0L2.5,-0.5"/>
                </g>
        </g>
        <svg viewBox="0 0 15 15" width="100%" height="30px" preserveAspectRatio="xMaxYMin meet">
         <g id="arrow_out" transform="scale(0.3 0.3)">
          <a xlink:href="quickjs_8h_a27966451027feb455b5da12c1578771c_cgraph_org.svg" target="_base">
           <rect id="button" ry="5" rx="5" y="6" x="6" height="38" width="38"
                fill="#f2f5e9" fill-opacity="0.5" stroke="#606060" stroke-width="1.0"/>
           <path id="arrow"
             d="M 11.500037,31.436501 C 11.940474,20.09759 22.043105,11.32322 32.158766,21.979434 L 37.068811,17.246167 C 37.068811,17.246167 37.088388,32 37.088388,32 L 22.160133,31.978069 C 22.160133,31.978069 26.997745,27.140456 26.997745,27.140456 C 18.528582,18.264221 13.291696,25.230495 11.500037,31.436501 z"
             style="fill:#404040;"/>
          </a>
         </g>
        </svg>
</svg>
