<?xml version="1.0" encoding="UTF-8" standalone="no"?>
<!DOCTYPE svg PUBLIC "-//W3C//DTD SVG 1.1//EN"
 "http://www.w3.org/Graphics/SVG/1.1/DTD/svg11.dtd">
<!-- Generated by graphviz version 2.40.1 (20161225.0304)
 -->
<!-- Title: JS_SetPropertyValue Pages: 1 -->
<!--zoomable 715 -->
<svg id="main" version="1.1" xmlns="http://www.w3.org/2000/svg" xmlns:xlink="http://www.w3.org/1999/xlink" xml:space="preserve" onload="init(evt)">
<style type="text/css"><![CDATA[
.edge:hover path { stroke: red; }
.edge:hover polygon { stroke: red; fill: red; }
]]></style>
<script type="text/javascript"><![CDATA[
var edges = document.getElementsByTagName('g');
if (edges && edges.length) {
  for (var i=0;i<edges.length;i++) {
    if (edges[i].id.substr(0,4)=='edge') {
      edges[i].setAttribute('class','edge');
    }
  }
}
]]></script>
        <defs>
                <circle id="rim" cx="0" cy="0" r="7"/>
                <circle id="rim2" cx="0" cy="0" r="3.5"/>
                <g id="zoomPlus">
                        <use xlink:href="#rim" fill="#404040">
                                <set attributeName="fill" to="#808080" begin="zoomplus.mouseover" end="zoomplus.mouseout"/>
                        </use>
                        <path d="M-4,0h8M0,-4v8" fill="none" stroke="white" stroke-width="1.5" pointer-events="none"/>
                </g>
                <g id="zoomMin">
                        <use xlink:href="#rim" fill="#404040">
                                <set attributeName="fill" to="#808080" begin="zoomminus.mouseover" end="zoomminus.mouseout"/>
                        </use>
                        <path d="M-4,0h8" fill="none" stroke="white" stroke-width="1.5" pointer-events="none"/>
                </g>
                <g id="dirArrow">
                        <path fill="none" stroke="white" stroke-width="1.5" d="M0,-3.0v7 M-2.5,-0.5L0,-3.0L2.5,-0.5"/>
                </g>
               <g id="resetDef">
                       <use xlink:href="#rim2" fill="#404040">
                               <set attributeName="fill" to="#808080" begin="reset.mouseover" end="reset.mouseout"/>
                       </use>
               </g>
        </defs>

<script type="text/javascript">
var viewWidth = 875;
var viewHeight = 715;
var sectionId = 'dynsection-102';
</script>
<script xlink:href="svgpan.js"/>
<svg id="graph" class="graph">
<g id="viewport">
<title>JS_SetPropertyValue</title>
<!-- Node38254 -->
<g id="node1" class="node">
<title>Node38254</title>
<polygon fill="#bfbfbf" stroke="#000000" points="0,-424.5 0,-443.5 110,-443.5 110,-424.5 0,-424.5"/>
<text text-anchor="middle" x="55" y="-431.5" font-family="Helvetica,sans-Serif" font-size="10.00" fill="#000000">JS_SetPropertyValue</text>
</g>
<!-- Node38255 -->
<g id="node2" class="node">
<title>Node38255</title>
<g id="a_node2"><a xlink:href="quickjs_8c.html#a2f49d212e519c9e138d8b48148b6f955" target="_top" xlink:title="__attribute__">
<polygon fill="none" stroke="#000000" points="336.5,-620.5 336.5,-639.5 409.5,-639.5 409.5,-620.5 336.5,-620.5"/>
<text text-anchor="middle" x="373" y="-627.5" font-family="Helvetica,sans-Serif" font-size="10.00" fill="#000000">__attribute__</text>
</a>
</g>
</g>
<!-- Node38254&#45;&gt;Node38255 -->
<g id="edge1" class="edge">
<title>Node38254&#45;&gt;Node38255</title>
<path fill="none" stroke="#191970" d="M56.7951,-443.5154C62.9805,-473.3842 86.3984,-565.6821 146,-606 199.6284,-642.2773 277.2622,-642.0255 326.4183,-637.0946"/>
<polygon fill="#191970" stroke="#191970" points="326.9026,-640.5624 336.4565,-635.9828 326.132,-633.605 326.9026,-640.5624"/>
</g>
<!-- Node38534 -->
<g id="node8" class="node">
<title>Node38534</title>
<g id="a_node8"><a xlink:href="quickjs_8c.html#adbffd820afae76d09c641b5b911e3600" target="_top" xlink:title="add_fast_array_element">
<polygon fill="none" stroke="#ff0000" points="312.5,-266.5 312.5,-285.5 433.5,-285.5 433.5,-266.5 312.5,-266.5"/>
<text text-anchor="middle" x="373" y="-273.5" font-family="Helvetica,sans-Serif" font-size="10.00" fill="#000000">add_fast_array_element</text>
</a>
</g>
</g>
<!-- Node38254&#45;&gt;Node38534 -->
<g id="edge7" class="edge">
<title>Node38254&#45;&gt;Node38534</title>
<path fill="none" stroke="#191970" d="M57.3571,-424.1973C64.7247,-395.9946 90.2359,-314.5897 146,-282 200.6561,-250.0579 276.059,-255.827 324.6769,-264.5656"/>
<polygon fill="#191970" stroke="#191970" points="324.1492,-268.028 334.6278,-266.4629 325.4603,-261.1519 324.1492,-268.028"/>
</g>
<!-- Node38339 -->
<g id="node9" class="node">
<title>Node38339</title>
<g id="a_node9"><a xlink:href="quickjs_8h.html#afaa20c47565bc704c6c85f3d77254e7d" target="_top" xlink:title="JS_FreeValue">
<polygon fill="none" stroke="#ff0000" points="492.5,-380.5 492.5,-399.5 570.5,-399.5 570.5,-380.5 492.5,-380.5"/>
<text text-anchor="middle" x="531.5" y="-387.5" font-family="Helvetica,sans-Serif" font-size="10.00" fill="#000000">JS_FreeValue</text>
</a>
</g>
</g>
<!-- Node38254&#45;&gt;Node38339 -->
<g id="edge11" class="edge">
<title>Node38254&#45;&gt;Node38339</title>
<path fill="none" stroke="#191970" d="M59.1299,-443.7689C69.599,-467.0857 99.6779,-525.7059 146,-548 185.2036,-566.8681 432.9162,-543.1059 446,-535 492.6481,-506.0997 516.864,-441.5844 526.4583,-409.2493"/>
<polygon fill="#191970" stroke="#191970" points="529.8298,-410.1888 529.1627,-399.615 523.0903,-408.2969 529.8298,-410.1888"/>
</g>
<!-- Node38449 -->
<g id="node11" class="node">
<title>Node38449</title>
<g id="a_node11"><a xlink:href="quickjs_8c.html#ab7fc45a99935a1c0ba50b0216d9401a9" target="_top" xlink:title="JS_FreeAtom">
<polygon fill="none" stroke="#ff0000" points="166.5,-519.5 166.5,-538.5 243.5,-538.5 243.5,-519.5 166.5,-519.5"/>
<text text-anchor="middle" x="205" y="-526.5" font-family="Helvetica,sans-Serif" font-size="10.00" fill="#000000">JS_FreeAtom</text>
</a>
</g>
</g>
<!-- Node38254&#45;&gt;Node38449 -->
<g id="edge10" class="edge">
<title>Node38254&#45;&gt;Node38449</title>
<path fill="none" stroke="#191970" d="M65.2355,-443.548C81.3962,-458.2467 114.2583,-486.6379 146,-505 152.6465,-508.8449 160.0281,-512.3697 167.257,-515.4652"/>
<polygon fill="#191970" stroke="#191970" points="166.3552,-518.8772 176.9367,-519.41 168.997,-512.3948 166.3552,-518.8772"/>
</g>
<!-- Node38525 -->
<g id="node12" class="node">
<title>Node38525</title>
<g id="a_node12"><a xlink:href="quickjs_8c.html#ad7f03358a8088ca920ab308225c6b2e6" target="_top" xlink:title="JS_SetPropertyInternal">
<polygon fill="none" stroke="#ff0000" points="146,-443.5 146,-462.5 264,-462.5 264,-443.5 146,-443.5"/>
<text text-anchor="middle" x="205" y="-450.5" font-family="Helvetica,sans-Serif" font-size="10.00" fill="#000000">JS_SetPropertyInternal</text>
</a>
</g>
</g>
<!-- Node38254&#45;&gt;Node38525 -->
<g id="edge12" class="edge">
<title>Node38254&#45;&gt;Node38525</title>
<path fill="none" stroke="#191970" d="M110.0027,-434.435C127.8672,-436.2997 147.3646,-438.9166 164.0213,-441.7189"/>
<polygon fill="#191970" stroke="#191970" points="163.5283,-445.186 173.9853,-443.4827 164.7485,-438.2932 163.5283,-445.186"/>
</g>
<!-- Node38526 -->
<g id="node13" class="node">
<title>Node38526</title>
<g id="a_node13"><a xlink:href="quickjs_8c.html#a0ec52a675282f321a6f42aa1298a53fe" target="_top" xlink:title="set_value">
<polygon fill="none" stroke="#000000" points="343.5,-506.5 343.5,-525.5 402.5,-525.5 402.5,-506.5 343.5,-506.5"/>
<text text-anchor="middle" x="373" y="-513.5" font-family="Helvetica,sans-Serif" font-size="10.00" fill="#000000">set_value</text>
</a>
</g>
</g>
<!-- Node38254&#45;&gt;Node38526 -->
<g id="edge54" class="edge">
<title>Node38254&#45;&gt;Node38526</title>
<path fill="none" stroke="#191970" d="M74.8074,-443.6576C92.9574,-452.17 120.7617,-464.3719 146,-472 210.1691,-491.3948 287.2129,-504.2092 333.0299,-510.7754"/>
<polygon fill="#191970" stroke="#191970" points="332.7577,-514.2714 343.1473,-512.1962 333.7313,-507.3395 332.7577,-514.2714"/>
</g>
<!-- Node38512 -->
<g id="node15" class="node">
<title>Node38512</title>
<g id="a_node15"><a xlink:href="quickjs_8c.html#a869fa88a646c0a1914ec2e559b193b5c" target="_top" xlink:title="typed_array_is_detached">
<polygon fill="none" stroke="#000000" points="310.5,-392.5 310.5,-411.5 435.5,-411.5 435.5,-392.5 310.5,-392.5"/>
<text text-anchor="middle" x="373" y="-399.5" font-family="Helvetica,sans-Serif" font-size="10.00" fill="#000000">typed_array_is_detached</text>
</a>
</g>
</g>
<!-- Node38254&#45;&gt;Node38512 -->
<g id="edge55" class="edge">
<title>Node38254&#45;&gt;Node38512</title>
<path fill="none" stroke="#191970" d="M110.0283,-428.4626C162.685,-423.1638 242.4335,-415.1388 300.3012,-409.3156"/>
<polygon fill="#191970" stroke="#191970" points="300.878,-412.7753 310.4773,-408.2916 300.1771,-405.8105 300.878,-412.7753"/>
</g>
<!-- Node38513 -->
<g id="node16" class="node">
<title>Node38513</title>
<g id="a_node16"><a xlink:href="quickjs_8c.html#a033dd3ebd29c4eb9f0baff1dd0fec0b1" target="_top" xlink:title="JS_ThrowTypeErrorDetached\lArrayBuffer">
<polygon fill="none" stroke="#000000" points="300,-343 300,-373 446,-373 446,-343 300,-343"/>
<text text-anchor="start" x="308" y="-361" font-family="Helvetica,sans-Serif" font-size="10.00" fill="#000000">JS_ThrowTypeErrorDetached</text>
<text text-anchor="middle" x="373" y="-350" font-family="Helvetica,sans-Serif" font-size="10.00" fill="#000000">ArrayBuffer</text>
</a>
</g>
</g>
<!-- Node38254&#45;&gt;Node38513 -->
<g id="edge23" class="edge">
<title>Node38254&#45;&gt;Node38513</title>
<path fill="none" stroke="#191970" d="M90.3683,-424.3848C107.1875,-419.886 127.5971,-414.5333 146,-410 195.3492,-397.8435 250.9687,-385.0872 294.801,-375.2515"/>
<polygon fill="#191970" stroke="#191970" points="295.8273,-378.6084 304.8209,-373.0078 294.2977,-371.7776 295.8273,-378.6084"/>
</g>
<!-- Node38705 -->
<g id="node17" class="node">
<title>Node38705</title>
<g id="a_node17"><a xlink:href="quickjs_8c.html#a87b8d619eab9353bf9d183256a6c26b7" target="_top" xlink:title="JS_ToBigInt64Free">
<polygon fill="none" stroke="#000000" points="154.5,-209.5 154.5,-228.5 255.5,-228.5 255.5,-209.5 154.5,-209.5"/>
<text text-anchor="middle" x="205" y="-216.5" font-family="Helvetica,sans-Serif" font-size="10.00" fill="#000000">JS_ToBigInt64Free</text>
</a>
</g>
</g>
<!-- Node38254&#45;&gt;Node38705 -->
<g id="edge24" class="edge">
<title>Node38254&#45;&gt;Node38705</title>
<path fill="none" stroke="#191970" d="M57.417,-424.27C65.2713,-394.4377 92.7004,-303.0113 146,-249 152.3335,-242.5819 160.3276,-237.2797 168.3693,-233.0124"/>
<polygon fill="#191970" stroke="#191970" points="169.92,-236.1502 177.3827,-228.6298 166.859,-229.8549 169.92,-236.1502"/>
</g>
<!-- Node38493 -->
<g id="node25" class="node">
<title>Node38493</title>
<g id="a_node25"><a xlink:href="quickjs_8c.html#ab1b614ef35f1cea05da0ad4927c53118" target="_top" xlink:title="JS_ToFloat64Free">
<polygon fill="none" stroke="#ff0000" points="156.5,-291.5 156.5,-310.5 253.5,-310.5 253.5,-291.5 156.5,-291.5"/>
<text text-anchor="middle" x="205" y="-298.5" font-family="Helvetica,sans-Serif" font-size="10.00" fill="#000000">JS_ToFloat64Free</text>
</a>
</g>
</g>
<!-- Node38254&#45;&gt;Node38493 -->
<g id="edge35" class="edge">
<title>Node38254&#45;&gt;Node38493</title>
<path fill="none" stroke="#191970" d="M60.633,-424.4979C73.3699,-403.748 106.3825,-353.931 146,-325 151.5201,-320.9689 157.8142,-317.4853 164.1867,-314.5197"/>
<polygon fill="#191970" stroke="#191970" points="165.6771,-317.6891 173.4983,-310.5421 162.9273,-311.2518 165.6771,-317.6891"/>
</g>
<!-- Node38412 -->
<g id="node26" class="node">
<title>Node38412</title>
<g id="a_node26"><a xlink:href="quickjs_8c.html#a643088ab23784b7f3c6ff94c37228256" target="_top" xlink:title="JS_ToInt32Free">
<polygon fill="none" stroke="#000000" points="330,-304.5 330,-323.5 416,-323.5 416,-304.5 330,-304.5"/>
<text text-anchor="middle" x="373" y="-311.5" font-family="Helvetica,sans-Serif" font-size="10.00" fill="#000000">JS_ToInt32Free</text>
</a>
</g>
</g>
<!-- Node38254&#45;&gt;Node38412 -->
<g id="edge36" class="edge">
<title>Node38254&#45;&gt;Node38412</title>
<path fill="none" stroke="#191970" d="M68.2861,-424.4831C85.5079,-412.5039 116.8002,-391.9333 146,-379 211.3127,-350.0713 231.2021,-352.2216 300,-333 308.2496,-330.6951 317.0489,-328.3278 325.5786,-326.0803"/>
<polygon fill="#191970" stroke="#191970" points="326.6291,-329.4234 335.4188,-323.5079 324.8587,-322.6509 326.6291,-329.4234"/>
</g>
<!-- Node38721 -->
<g id="node27" class="node">
<title>Node38721</title>
<g id="a_node27"><a xlink:href="quickjs_8c.html#a4623c0fbf1417b8c089ba0f5037c5362" target="_top" xlink:title="JS_ToUint8ClampFree">
<polygon fill="none" stroke="#000000" points="315,-114.5 315,-133.5 431,-133.5 431,-114.5 315,-114.5"/>
<text text-anchor="middle" x="373" y="-121.5" font-family="Helvetica,sans-Serif" font-size="10.00" fill="#000000">JS_ToUint8ClampFree</text>
</a>
</g>
</g>
<!-- Node38254&#45;&gt;Node38721 -->
<g id="edge41" class="edge">
<title>Node38254&#45;&gt;Node38721</title>
<path fill="none" stroke="#191970" d="M55.9422,-424.4679C59.9001,-389.4705 78.2595,-266.6387 146,-200 188.5465,-158.1454 254.7912,-139.333 304.758,-130.8818"/>
<polygon fill="#191970" stroke="#191970" points="305.514,-134.3057 314.8403,-129.2785 304.4146,-127.3925 305.514,-134.3057"/>
</g>
<!-- Node38426 -->
<g id="node30" class="node">
<title>Node38426</title>
<g id="a_node30"><a xlink:href="quickjs_8c.html#a859d5c989a2aaecef1653b3ac279e108" target="_top" xlink:title="JS_ValueToAtom">
<polygon fill="none" stroke="#ff0000" points="634.5,-658.5 634.5,-677.5 727.5,-677.5 727.5,-658.5 634.5,-658.5"/>
<text text-anchor="middle" x="681" y="-665.5" font-family="Helvetica,sans-Serif" font-size="10.00" fill="#000000">JS_ValueToAtom</text>
</a>
</g>
</g>
<!-- Node38254&#45;&gt;Node38426 -->
<g id="edge52" class="edge">
<title>Node38254&#45;&gt;Node38426</title>
<path fill="none" stroke="#191970" d="M55.9751,-443.8012C59.9011,-477.4706 77.7929,-588.9653 146,-637 297.3429,-743.5829 536.591,-703.2213 635.6941,-679.9433"/>
<polygon fill="#191970" stroke="#191970" points="636.7739,-683.2835 645.679,-677.5434 635.1379,-676.4774 636.7739,-683.2835"/>
</g>
<!-- Node38256 -->
<g id="node3" class="node">
<title>Node38256</title>
<g id="a_node3"><a xlink:href="quickjs_8c.html#a686cf78f8b0361621ee2ba6182195c31" target="_top" xlink:title="is_strict_mode">
<polygon fill="none" stroke="#000000" points="491.5,-620.5 491.5,-639.5 571.5,-639.5 571.5,-620.5 491.5,-620.5"/>
<text text-anchor="middle" x="531.5" y="-627.5" font-family="Helvetica,sans-Serif" font-size="10.00" fill="#000000">is_strict_mode</text>
</a>
</g>
</g>
<!-- Node38255&#45;&gt;Node38256 -->
<g id="edge2" class="edge">
<title>Node38255&#45;&gt;Node38256</title>
<path fill="none" stroke="#191970" d="M409.7615,-630C431.0312,-630 458.098,-630 481.3061,-630"/>
<polygon fill="#191970" stroke="#191970" points="481.3245,-633.5001 491.3245,-630 481.3245,-626.5001 481.3245,-633.5001"/>
</g>
<!-- Node38257 -->
<g id="node4" class="node">
<title>Node38257</title>
<g id="a_node4"><a xlink:href="quickjs_8c.html#a1b110b017211230b8b6310e853cd2b54" target="_top" xlink:title="JS_ThrowError">
<polygon fill="none" stroke="#000000" points="490.5,-582.5 490.5,-601.5 572.5,-601.5 572.5,-582.5 490.5,-582.5"/>
<text text-anchor="middle" x="531.5" y="-589.5" font-family="Helvetica,sans-Serif" font-size="10.00" fill="#000000">JS_ThrowError</text>
</a>
</g>
</g>
<!-- Node38255&#45;&gt;Node38257 -->
<g id="edge3" class="edge">
<title>Node38255&#45;&gt;Node38257</title>
<path fill="none" stroke="#191970" d="M409.7615,-621.1865C431.2065,-616.0451 458.5448,-609.4908 481.8795,-603.8964"/>
<polygon fill="#191970" stroke="#191970" points="482.6977,-607.2995 491.6061,-601.5645 481.0656,-600.4924 482.6977,-607.2995"/>
</g>
<!-- Node38258 -->
<g id="node5" class="node">
<title>Node38258</title>
<g id="a_node5"><a xlink:href="quickjs_8c.html#a7a7b507694cc1ecc4e3b5129fed3f5f6" target="_top" xlink:title="JS_GetFunctionBytecode">
<polygon fill="none" stroke="#ff0000" points="617,-620.5 617,-639.5 745,-639.5 745,-620.5 617,-620.5"/>
<text text-anchor="middle" x="681" y="-627.5" font-family="Helvetica,sans-Serif" font-size="10.00" fill="#000000">JS_GetFunctionBytecode</text>
</a>
</g>
</g>
<!-- Node38257&#45;&gt;Node38258 -->
<g id="edge4" class="edge">
<title>Node38257&#45;&gt;Node38258</title>
<path fill="none" stroke="#191970" d="M569.2252,-601.589C588.7756,-606.5583 612.8466,-612.6767 633.6374,-617.9613"/>
<polygon fill="#191970" stroke="#191970" points="632.9921,-621.4085 643.5461,-620.4799 634.7165,-614.6243 632.9921,-621.4085"/>
</g>
<!-- Node38260 -->
<g id="node6" class="node">
<title>Node38260</title>
<g id="a_node6"><a xlink:href="quickjs_8c.html#aeafb37b03b5560171754f8c4505b0f6b" target="_top" xlink:title="JS_ThrowError2">
<polygon fill="none" stroke="#ff0000" points="637.5,-582.5 637.5,-601.5 724.5,-601.5 724.5,-582.5 637.5,-582.5"/>
<text text-anchor="middle" x="681" y="-589.5" font-family="Helvetica,sans-Serif" font-size="10.00" fill="#000000">JS_ThrowError2</text>
</a>
</g>
</g>
<!-- Node38257&#45;&gt;Node38260 -->
<g id="edge5" class="edge">
<title>Node38257&#45;&gt;Node38260</title>
<path fill="none" stroke="#191970" d="M572.7473,-592C589.5872,-592 609.2875,-592 627.2322,-592"/>
<polygon fill="#191970" stroke="#191970" points="627.2748,-595.5001 637.2748,-592 627.2747,-588.5001 627.2748,-595.5001"/>
</g>
<!-- Node38331 -->
<g id="node7" class="node">
<title>Node38331</title>
<g id="a_node7"><a xlink:href="quickjs_8h.html#ad80a83d73e9b7d872b88fbf2943aebe9" target="_top" xlink:title="JS_IsException">
<polygon fill="none" stroke="#000000" points="781,-512.5 781,-531.5 867,-531.5 867,-512.5 781,-512.5"/>
<text text-anchor="middle" x="824" y="-519.5" font-family="Helvetica,sans-Serif" font-size="10.00" fill="#000000">JS_IsException</text>
</a>
</g>
</g>
<!-- Node38260&#45;&gt;Node38331 -->
<g id="edge6" class="edge">
<title>Node38260&#45;&gt;Node38331</title>
<path fill="none" stroke="#191970" d="M709.4639,-582.4905C720.7098,-578.4337 733.6357,-573.3922 745,-568 764.2363,-558.8727 785.0066,-546.6788 800.4203,-537.1391"/>
<polygon fill="#191970" stroke="#191970" points="802.6512,-539.8714 809.2637,-531.5934 798.9322,-533.941 802.6512,-539.8714"/>
</g>
<!-- Node38534&#45;&gt;Node38339 -->
<g id="edge8" class="edge">
<title>Node38534&#45;&gt;Node38339</title>
<path fill="none" stroke="#191970" d="M430.4087,-285.6248C436.0302,-288.0839 441.3598,-291.1584 446,-295 474.7895,-318.8349 454.588,-345.5929 482,-371 483.7005,-372.5761 485.5455,-374.026 487.4901,-375.3592"/>
<polygon fill="#191970" stroke="#191970" points="486.0917,-378.5901 496.5152,-380.4874 489.5499,-372.504 486.0917,-378.5901"/>
</g>
<!-- Node38323 -->
<g id="node10" class="node">
<title>Node38323</title>
<g id="a_node10"><a xlink:href="cutils_8h.html#a94f155fcce337a2b9d4719ed8042cbbe" target="_top" xlink:title="max_int">
<polygon fill="none" stroke="#000000" points="506,-228.5 506,-247.5 557,-247.5 557,-228.5 506,-228.5"/>
<text text-anchor="middle" x="531.5" y="-235.5" font-family="Helvetica,sans-Serif" font-size="10.00" fill="#000000">max_int</text>
</a>
</g>
</g>
<!-- Node38534&#45;&gt;Node38323 -->
<g id="edge9" class="edge">
<title>Node38534&#45;&gt;Node38323</title>
<path fill="none" stroke="#191970" d="M412.9962,-266.411C438.5139,-260.2932 471.2956,-252.4339 495.9095,-246.5328"/>
<polygon fill="#191970" stroke="#191970" points="497.0048,-249.8694 505.9132,-244.1344 495.3727,-243.0623 497.0048,-249.8694"/>
</g>
<!-- Node38525&#45;&gt;Node38254 -->
<g id="edge16" class="edge">
<title>Node38525&#45;&gt;Node38254</title>
<path fill="none" stroke="#191970" d="M145.7648,-452.1126C129.1873,-450.2991 111.5336,-447.8915 96.2446,-445.3257"/>
<polygon fill="#191970" stroke="#191970" points="96.5366,-441.8232 86.0801,-443.5295 95.3184,-448.7164 96.5366,-441.8232"/>
</g>
<!-- Node38525&#45;&gt;Node38255 -->
<g id="edge21" class="edge">
<title>Node38525&#45;&gt;Node38255</title>
<path fill="none" stroke="#191970" d="M216.6989,-462.7513C229.2422,-473.5432 249.3299,-491.824 264,-510 283.0553,-533.6091 280.1984,-545.0133 300,-568 315.15,-585.5869 335.4851,-602.43 350.8449,-614.1106"/>
<polygon fill="#191970" stroke="#191970" points="349.1255,-617.194 359.2369,-620.358 353.3056,-611.579 349.1255,-617.194"/>
</g>
<!-- Node38525&#45;&gt;Node38331 -->
<g id="edge18" class="edge">
<title>Node38525&#45;&gt;Node38331</title>
<path fill="none" stroke="#191970" d="M214.3064,-462.5623C234.0098,-482.5404 279.7833,-527.4816 300,-535 467.2997,-597.2172 685.8496,-556.4611 778.8989,-534.0025"/>
<polygon fill="#191970" stroke="#191970" points="779.9508,-537.3481 788.825,-531.5603 778.2784,-530.5508 779.9508,-537.3481"/>
</g>
<!-- Node38525&#45;&gt;Node38534 -->
<g id="edge22" class="edge">
<title>Node38525&#45;&gt;Node38534</title>
<path fill="none" stroke="#191970" d="M207.8854,-443.4277C216.7278,-415.7851 246.169,-335.2501 300,-295 302.4893,-293.1387 305.1445,-291.4592 307.9135,-289.9439"/>
<polygon fill="#191970" stroke="#191970" points="309.515,-293.0586 317.08,-285.6409 306.5404,-286.722 309.515,-293.0586"/>
</g>
<!-- Node38525&#45;&gt;Node38339 -->
<g id="edge13" class="edge">
<title>Node38525&#45;&gt;Node38339</title>
<path fill="none" stroke="#191970" d="M256.336,-462.5052C306.1739,-469.6022 383.2745,-474.8759 446,-454 473.5659,-444.8257 499.4177,-422.9063 515.3269,-407.2802"/>
<polygon fill="#191970" stroke="#191970" points="518.1822,-409.3682 522.6965,-399.7832 513.1903,-404.461 518.1822,-409.3682"/>
</g>
<!-- Node38525&#45;&gt;Node38526 -->
<g id="edge14" class="edge">
<title>Node38525&#45;&gt;Node38526</title>
<path fill="none" stroke="#191970" d="M228.5608,-462.531C239.3682,-466.9165 252.3431,-472.2007 264,-477 280.028,-483.599 283.7548,-485.9554 300,-492 310.8175,-496.025 322.6608,-500.0706 333.6011,-503.6631"/>
<polygon fill="#191970" stroke="#191970" points="332.7472,-507.0656 343.3392,-506.8214 334.9067,-500.407 332.7472,-507.0656"/>
</g>
<!-- Node38371 -->
<g id="node14" class="node">
<title>Node38371</title>
<g id="a_node14"><a xlink:href="quickjs_8c.html#ae738291483438efefca5c9fa4d269504" target="_top" xlink:title="JS_ToNumberFree">
<polygon fill="none" stroke="#ff0000" points="482,-342.5 482,-361.5 581,-361.5 581,-342.5 482,-342.5"/>
<text text-anchor="middle" x="531.5" y="-349.5" font-family="Helvetica,sans-Serif" font-size="10.00" fill="#000000">JS_ToNumberFree</text>
</a>
</g>
</g>
<!-- Node38525&#45;&gt;Node38371 -->
<g id="edge17" class="edge">
<title>Node38525&#45;&gt;Node38371</title>
<path fill="none" stroke="#191970" d="M264.2187,-450.4756C325.4731,-446.9343 416.2585,-438.8033 446,-421 469.4952,-406.9357 460.3113,-387.7161 482,-371 484.324,-369.2089 486.8366,-367.5692 489.4549,-366.071"/>
<polygon fill="#191970" stroke="#191970" points="491.2437,-369.0906 498.6436,-361.5082 488.1304,-362.821 491.2437,-369.0906"/>
</g>
<!-- Node38525&#45;&gt;Node38512 -->
<g id="edge19" class="edge">
<title>Node38525&#45;&gt;Node38512</title>
<path fill="none" stroke="#191970" d="M236.5995,-443.4073C263.4674,-435.251 302.244,-423.4795 331.5903,-414.5708"/>
<polygon fill="#191970" stroke="#191970" points="332.9901,-417.8037 341.5422,-411.5497 330.9567,-411.1055 332.9901,-417.8037"/>
</g>
<!-- Node38525&#45;&gt;Node38513 -->
<g id="edge20" class="edge">
<title>Node38525&#45;&gt;Node38513</title>
<path fill="none" stroke="#191970" d="M215.6674,-443.4137C232.5141,-428.6908 266.7889,-400.3952 300,-383 304.0477,-380.8799 308.3128,-378.8809 312.6654,-377.0085"/>
<polygon fill="#191970" stroke="#191970" points="314.3285,-380.1112 322.2835,-373.1134 311.7009,-373.623 314.3285,-380.1112"/>
</g>
<!-- Node38526&#45;&gt;Node38339 -->
<g id="edge15" class="edge">
<title>Node38526&#45;&gt;Node38339</title>
<path fill="none" stroke="#191970" d="M402.7638,-510.1995C416.7184,-506.5195 433.077,-500.7542 446,-492 478.9764,-469.6615 506.3087,-431.1604 520.6466,-408.3905"/>
<polygon fill="#191970" stroke="#191970" points="523.738,-410.0442 525.9745,-399.6881 517.768,-406.3892 523.738,-410.0442"/>
</g>
<!-- Node38706 -->
<g id="node18" class="node">
<title>Node38706</title>
<g id="a_node18"><a xlink:href="libbf_8h.html#af13de179dd890536edc12e703add2c64" target="_top" xlink:title="bf_get_int64">
<polygon fill="none" stroke="#ff0000" points="338,-190.5 338,-209.5 408,-209.5 408,-190.5 338,-190.5"/>
<text text-anchor="middle" x="373" y="-197.5" font-family="Helvetica,sans-Serif" font-size="10.00" fill="#000000">bf_get_int64</text>
</a>
</g>
</g>
<!-- Node38705&#45;&gt;Node38706 -->
<g id="edge25" class="edge">
<title>Node38705&#45;&gt;Node38706</title>
<path fill="none" stroke="#191970" d="M255.8615,-213.2478C278.7054,-210.6643 305.4434,-207.6403 327.6018,-205.1343"/>
<polygon fill="#191970" stroke="#191970" points="328.208,-208.5882 337.7513,-203.9865 327.4213,-201.6325 328.208,-208.5882"/>
</g>
<!-- Node38707 -->
<g id="node19" class="node">
<title>Node38707</title>
<g id="a_node19"><a xlink:href="quickjs_8c.html#affb3f9a62ad71eeba577ed2ddcf8b2eb" target="_top" xlink:title="JS_FreeBigInt">
<polygon fill="none" stroke="#000000" points="333.5,-228.5 333.5,-247.5 412.5,-247.5 412.5,-228.5 333.5,-228.5"/>
<text text-anchor="middle" x="373" y="-235.5" font-family="Helvetica,sans-Serif" font-size="10.00" fill="#000000">JS_FreeBigInt</text>
</a>
</g>
</g>
<!-- Node38705&#45;&gt;Node38707 -->
<g id="edge26" class="edge">
<title>Node38705&#45;&gt;Node38707</title>
<path fill="none" stroke="#191970" d="M255.8615,-224.7522C277.1911,-227.1645 301.9157,-229.9607 323.1374,-232.3608"/>
<polygon fill="#191970" stroke="#191970" points="322.9137,-235.8577 333.2437,-233.5038 323.7004,-228.902 322.9137,-235.8577"/>
</g>
<!-- Node38708 -->
<g id="node21" class="node">
<title>Node38708</title>
<g id="a_node21"><a xlink:href="quickjs_8c.html#a3edc603bab6d2519f647b4762a5dad09" target="_top" xlink:title="JS_ToBigIntFree">
<polygon fill="none" stroke="#ff0000" points="328,-152.5 328,-171.5 418,-171.5 418,-152.5 328,-152.5"/>
<text text-anchor="middle" x="373" y="-159.5" font-family="Helvetica,sans-Serif" font-size="10.00" fill="#000000">JS_ToBigIntFree</text>
</a>
</g>
</g>
<!-- Node38705&#45;&gt;Node38708 -->
<g id="edge29" class="edge">
<title>Node38705&#45;&gt;Node38708</title>
<path fill="none" stroke="#191970" d="M226.5972,-209.4555C245.6677,-201.2467 274.3495,-189.4311 300,-181 307.348,-178.5848 315.1911,-176.2727 322.9098,-174.1447"/>
<polygon fill="#191970" stroke="#191970" points="323.821,-177.524 332.5735,-171.5537 322.0082,-170.7628 323.821,-177.524"/>
</g>
<!-- Node38707&#45;&gt;Node38339 -->
<g id="edge28" class="edge">
<title>Node38707&#45;&gt;Node38339</title>
<path fill="none" stroke="#191970" d="M412.6,-240.9249C424.6021,-243.6055 436.9803,-248.4312 446,-257 484.5211,-293.5956 445.5851,-332.308 482,-371 483.3721,-372.458 484.8684,-373.8053 486.4579,-375.0504"/>
<polygon fill="#191970" stroke="#191970" points="484.7124,-378.0874 495.0379,-380.4612 488.4463,-372.1664 484.7124,-378.0874"/>
</g>
<!-- Node38349 -->
<g id="node20" class="node">
<title>Node38349</title>
<g id="a_node20"><a xlink:href="libbf_8h.html#a2b9d906b21e903f2f7f1c9044674ab7d" target="_top" xlink:title="bf_delete">
<polygon fill="none" stroke="#ff0000" points="503.5,-190.5 503.5,-209.5 559.5,-209.5 559.5,-190.5 503.5,-190.5"/>
<text text-anchor="middle" x="531.5" y="-197.5" font-family="Helvetica,sans-Serif" font-size="10.00" fill="#000000">bf_delete</text>
</a>
</g>
</g>
<!-- Node38707&#45;&gt;Node38349 -->
<g id="edge27" class="edge">
<title>Node38707&#45;&gt;Node38349</title>
<path fill="none" stroke="#191970" d="M412.5874,-228.509C437.2985,-222.5846 468.9416,-214.9982 493.3726,-209.1409"/>
<polygon fill="#191970" stroke="#191970" points="494.4519,-212.4815 503.3603,-206.7464 492.8198,-205.6744 494.4519,-212.4815"/>
</g>
<!-- Node38708&#45;&gt;Node38331 -->
<g id="edge34" class="edge">
<title>Node38708&#45;&gt;Node38331</title>
<path fill="none" stroke="#191970" d="M418.0065,-167.2268C428.0285,-170.0674 438.0309,-174.4024 446,-181 474.7895,-204.8349 454.588,-231.5929 482,-257 516.566,-289.0379 541.0422,-270.0078 581,-295 680.1594,-357.0206 774.5574,-463.0404 809.6303,-504.5793"/>
<polygon fill="#191970" stroke="#191970" points="807.0933,-507.0014 816.1944,-512.4255 812.4622,-502.5098 807.0933,-507.0014"/>
</g>
<!-- Node38708&#45;&gt;Node38339 -->
<g id="edge33" class="edge">
<title>Node38708&#45;&gt;Node38339</title>
<path fill="none" stroke="#191970" d="M418.1653,-165.5284C428.5415,-168.3866 438.6667,-173.1552 446,-181 504.6923,-243.7859 426.9096,-305.031 482,-371 482.9957,-372.1923 484.0752,-373.3099 485.2231,-374.3576"/>
<polygon fill="#191970" stroke="#191970" points="483.4448,-377.3869 493.6296,-380.306 487.4881,-371.6727 483.4448,-377.3869"/>
</g>
<!-- Node38352 -->
<g id="node22" class="node">
<title>Node38352</title>
<g id="a_node22"><a xlink:href="quickjs_8c.html#aaaa960ff4bdf4b4dd3017b555844c397" target="_top" xlink:title="is_bigint_mode">
<polygon fill="none" stroke="#000000" points="490.5,-304.5 490.5,-323.5 572.5,-323.5 572.5,-304.5 490.5,-304.5"/>
<text text-anchor="middle" x="531.5" y="-311.5" font-family="Helvetica,sans-Serif" font-size="10.00" fill="#000000">is_bigint_mode</text>
</a>
</g>
</g>
<!-- Node38708&#45;&gt;Node38352 -->
<g id="edge30" class="edge">
<title>Node38708&#45;&gt;Node38352</title>
<path fill="none" stroke="#191970" d="M418.2318,-166.4322C428.3624,-169.2914 438.3573,-173.8341 446,-181 483.2176,-215.8958 448.3912,-251.6162 482,-290 485.2126,-293.6691 489.113,-296.8293 493.299,-299.5377"/>
<polygon fill="#191970" stroke="#191970" points="491.7251,-302.6674 502.1636,-304.4807 495.1343,-296.5536 491.7251,-302.6674"/>
</g>
<!-- Node38359 -->
<g id="node23" class="node">
<title>Node38359</title>
<g id="a_node23"><a xlink:href="libbf_8h.html#abacc1410890af049e02ebd788364ac48" target="_top" xlink:title="bf_init">
<polygon fill="none" stroke="#000000" points="510,-114.5 510,-133.5 553,-133.5 553,-114.5 510,-114.5"/>
<text text-anchor="middle" x="531.5" y="-121.5" font-family="Helvetica,sans-Serif" font-size="10.00" fill="#000000">bf_init</text>
</a>
</g>
</g>
<!-- Node38708&#45;&gt;Node38359 -->
<g id="edge31" class="edge">
<title>Node38708&#45;&gt;Node38359</title>
<path fill="none" stroke="#191970" d="M412.9962,-152.411C439.7978,-145.9854 474.6128,-137.6386 499.5607,-131.6574"/>
<polygon fill="#191970" stroke="#191970" points="500.6881,-134.9863 509.5965,-129.2513 499.056,-128.1792 500.6881,-134.9863"/>
</g>
<!-- Node38711 -->
<g id="node24" class="node">
<title>Node38711</title>
<g id="a_node24"><a xlink:href="libbf_8h.html#aaf7d6961c71cf6614ec51fd78755a031" target="_top" xlink:title="bf_rint">
<polygon fill="none" stroke="#ff0000" points="509.5,-152.5 509.5,-171.5 553.5,-171.5 553.5,-152.5 509.5,-152.5"/>
<text text-anchor="middle" x="531.5" y="-159.5" font-family="Helvetica,sans-Serif" font-size="10.00" fill="#000000">bf_rint</text>
</a>
</g>
</g>
<!-- Node38708&#45;&gt;Node38711 -->
<g id="edge32" class="edge">
<title>Node38708&#45;&gt;Node38711</title>
<path fill="none" stroke="#191970" d="M418.4197,-162C444.2807,-162 476.0585,-162 499.3347,-162"/>
<polygon fill="#191970" stroke="#191970" points="499.3792,-165.5001 509.3792,-162 499.3791,-158.5001 499.3792,-165.5001"/>
</g>
<!-- Node38412&#45;&gt;Node38331 -->
<g id="edge40" class="edge">
<title>Node38412&#45;&gt;Node38331</title>
<path fill="none" stroke="#191970" d="M416.1039,-318.7052C426.7542,-321.5277 437.5266,-325.9848 446,-333 474.7895,-356.8349 453.9939,-384.2493 482,-409 565.0673,-482.4114 697.0961,-508.3379 770.4383,-517.3412"/>
<polygon fill="#191970" stroke="#191970" points="770.4828,-520.87 780.8206,-518.5504 771.2927,-513.917 770.4828,-520.87"/>
</g>
<!-- Node38412&#45;&gt;Node38339 -->
<g id="edge37" class="edge">
<title>Node38412&#45;&gt;Node38339</title>
<path fill="none" stroke="#191970" d="M416.2779,-321.0382C426.4677,-323.8184 436.9794,-327.6719 446,-333 466.0312,-344.8316 462.6616,-358.0671 482,-371 484.8801,-372.9261 487.9834,-374.6966 491.182,-376.3156"/>
<polygon fill="#191970" stroke="#191970" points="489.7906,-379.5277 500.3425,-380.4804 492.6878,-373.1554 489.7906,-379.5277"/>
</g>
<!-- Node38412&#45;&gt;Node38371 -->
<g id="edge39" class="edge">
<title>Node38412&#45;&gt;Node38371</title>
<path fill="none" stroke="#191970" d="M412.9962,-323.589C433.912,-328.6035 459.7081,-334.7881 481.8864,-340.1053"/>
<polygon fill="#191970" stroke="#191970" points="481.2509,-343.552 491.7914,-342.4799 482.883,-336.7449 481.2509,-343.552"/>
</g>
<!-- Node38412&#45;&gt;Node38352 -->
<g id="edge38" class="edge">
<title>Node38412&#45;&gt;Node38352</title>
<path fill="none" stroke="#191970" d="M416.3108,-314C436.0703,-314 459.6115,-314 480.2467,-314"/>
<polygon fill="#191970" stroke="#191970" points="480.4246,-317.5001 490.4246,-314 480.4246,-310.5001 480.4246,-317.5001"/>
</g>
<!-- Node38721&#45;&gt;Node38331 -->
<g id="edge51" class="edge">
<title>Node38721&#45;&gt;Node38331</title>
<path fill="none" stroke="#191970" d="M395.9581,-114.4535C435.8673,-99.4224 519.637,-74.8887 581,-105 744.8691,-185.4117 805.8104,-430.9324 820.3358,-502.3312"/>
<polygon fill="#191970" stroke="#191970" points="816.9202,-503.1025 822.2771,-512.2433 823.7897,-501.757 816.9202,-503.1025"/>
</g>
<!-- Node38721&#45;&gt;Node38339 -->
<g id="edge45" class="edge">
<title>Node38721&#45;&gt;Node38339</title>
<path fill="none" stroke="#191970" d="M431.2559,-132.1953C436.7897,-134.9135 441.8662,-138.4397 446,-143 514.9001,-219.008 417.457,-291.2589 482,-371 482.9773,-372.2074 484.0408,-373.3382 485.175,-374.3972"/>
<polygon fill="#191970" stroke="#191970" points="483.3571,-377.4009 493.5196,-380.3964 487.4432,-371.7172 483.3571,-377.4009"/>
</g>
<!-- Node38721&#45;&gt;Node38323 -->
<g id="edge42" class="edge">
<title>Node38721&#45;&gt;Node38323</title>
<path fill="none" stroke="#191970" d="M430.4087,-133.6248C436.0302,-136.0839 441.3598,-139.1584 446,-143 474.7895,-166.8349 454.588,-193.5929 482,-219 486.1351,-222.8327 491.1251,-225.919 496.3241,-228.3967"/>
<polygon fill="#191970" stroke="#191970" points="495.1866,-231.7122 505.7688,-232.229 497.8186,-225.2258 495.1866,-231.7122"/>
</g>
<!-- Node38721&#45;&gt;Node38371 -->
<g id="edge50" class="edge">
<title>Node38721&#45;&gt;Node38371</title>
<path fill="none" stroke="#191970" d="M431.1171,-132.3231C436.6763,-135.0178 441.7968,-138.5036 446,-143 504.6923,-205.7859 426.9096,-267.031 482,-333 482.9957,-334.1923 484.0752,-335.3099 485.2231,-336.3576"/>
<polygon fill="#191970" stroke="#191970" points="483.4448,-339.3869 493.6296,-342.306 487.4881,-333.6727 483.4448,-339.3869"/>
</g>
<!-- Node38721&#45;&gt;Node38349 -->
<g id="edge49" class="edge">
<title>Node38721&#45;&gt;Node38349</title>
<path fill="none" stroke="#191970" d="M424.7198,-133.5837C432.1364,-136.0493 439.46,-139.1371 446,-143 466.0312,-154.8316 462.6616,-168.0671 482,-181 485.7601,-183.5146 489.9005,-185.7639 494.1368,-187.7572"/>
<polygon fill="#191970" stroke="#191970" points="492.8808,-191.0263 503.4533,-191.7151 495.618,-184.5836 492.8808,-191.0263"/>
</g>
<!-- Node38721&#45;&gt;Node38352 -->
<g id="edge44" class="edge">
<title>Node38721&#45;&gt;Node38352</title>
<path fill="none" stroke="#191970" d="M431.3187,-133.173C436.7014,-135.722 441.7275,-138.9411 446,-143 484.5211,-179.5956 456.0392,-210.6411 482,-257 490.4511,-272.0913 503.3433,-286.7707 513.8521,-297.4526"/>
<polygon fill="#191970" stroke="#191970" points="511.4029,-299.9529 520.9852,-304.4728 516.313,-294.9638 511.4029,-299.9529"/>
</g>
<!-- Node38721&#45;&gt;Node38359 -->
<g id="edge46" class="edge">
<title>Node38721&#45;&gt;Node38359</title>
<path fill="none" stroke="#191970" d="M431.1195,-124C454.2289,-124 479.9243,-124 499.5324,-124"/>
<polygon fill="#191970" stroke="#191970" points="499.7444,-127.5001 509.7444,-124 499.7443,-120.5001 499.7444,-127.5001"/>
</g>
<!-- Node38721&#45;&gt;Node38711 -->
<g id="edge47" class="edge">
<title>Node38721&#45;&gt;Node38711</title>
<path fill="none" stroke="#191970" d="M412.9962,-133.589C439.6373,-139.9761 474.1961,-148.2615 499.1115,-154.2349"/>
<polygon fill="#191970" stroke="#191970" points="498.6075,-157.7132 509.1479,-156.6411 500.2395,-150.9061 498.6075,-157.7132"/>
</g>
<!-- Node38357 -->
<g id="node28" class="node">
<title>Node38357</title>
<g id="a_node28"><a xlink:href="cutils_8h.html#a29a7a26d9387c01c1b4e9fe4fff5704a" target="_top" xlink:title="min_int">
<polygon fill="none" stroke="#000000" points="507.5,-.5 507.5,-19.5 555.5,-19.5 555.5,-.5 507.5,-.5"/>
<text text-anchor="middle" x="531.5" y="-7.5" font-family="Helvetica,sans-Serif" font-size="10.00" fill="#000000">min_int</text>
</a>
</g>
</g>
<!-- Node38721&#45;&gt;Node38357 -->
<g id="edge43" class="edge">
<title>Node38721&#45;&gt;Node38357</title>
<path fill="none" stroke="#191970" d="M381.7409,-114.4005C399.1921,-95.7183 440.2733,-54.108 482,-29 486.8803,-26.0634 492.2931,-23.4364 497.696,-21.1409"/>
<polygon fill="#191970" stroke="#191970" points="499.2649,-24.2851 507.2933,-17.3717 496.706,-17.7696 499.2649,-24.2851"/>
</g>
<!-- Node38419 -->
<g id="node29" class="node">
<title>Node38419</title>
<g id="a_node29"><a xlink:href="libbf_8h.html#a3718b08eb6f31658749f63f728324879" target="_top" xlink:title="bf_get_int32">
<polygon fill="none" stroke="#ff0000" points="496.5,-38.5 496.5,-57.5 566.5,-57.5 566.5,-38.5 496.5,-38.5"/>
<text text-anchor="middle" x="531.5" y="-45.5" font-family="Helvetica,sans-Serif" font-size="10.00" fill="#000000">bf_get_int32</text>
</a>
</g>
</g>
<!-- Node38721&#45;&gt;Node38419 -->
<g id="edge48" class="edge">
<title>Node38721&#45;&gt;Node38419</title>
<path fill="none" stroke="#191970" d="M393.0741,-114.3745C420.704,-101.1261 470.6297,-77.187 502.3678,-61.9687"/>
<polygon fill="#191970" stroke="#191970" points="504.0851,-65.0269 511.5889,-57.5473 501.0586,-58.715 504.0851,-65.0269"/>
</g>
<!-- Node38426&#45;&gt;Node38331 -->
<g id="edge53" class="edge">
<title>Node38426&#45;&gt;Node38331</title>
<path fill="none" stroke="#191970" d="M727.7016,-658.536C733.8729,-656.0585 739.8386,-652.9356 745,-649 782.3512,-620.5196 806.3612,-568.8782 817.2349,-541.0271"/>
<polygon fill="#191970" stroke="#191970" points="820.53,-542.2079 820.7596,-531.6156 813.9746,-539.7528 820.53,-542.2079"/>
</g>
</g>
</svg>
        <g id="navigator" transform="translate(0 0)" fill="#404254">
                <rect fill="#f2f5e9" fill-opacity="0.5" stroke="#606060" stroke-width=".5" x="0" y="0" width="60" height="60"/>
                <use id="zoomplus" xlink:href="#zoomPlus" x="17" y="9" onmousedown="handleZoom(evt,'in')"/>
                <use id="zoomminus" xlink:href="#zoomMin" x="42" y="9" onmousedown="handleZoom(evt,'out')"/>
                <use id="reset" xlink:href="#resetDef" x="30" y="36" onmousedown="handleReset()"/>
                <g id="arrowUp" xlink:href="#dirArrow" transform="translate(30 24)" onmousedown="handlePan(0,-1)">
                  <use xlink:href="#rim" fill="#404040">
                        <set attributeName="fill" to="#808080" begin="arrowUp.mouseover" end="arrowUp.mouseout"/>
                  </use>
                  <path fill="none" stroke="white" stroke-width="1.5" d="M0,-3.0v7 M-2.5,-0.5L0,-3.0L2.5,-0.5"/>
                </g>
                <g id="arrowRight" xlink:href="#dirArrow" transform="rotate(90) translate(36 -43)" onmousedown="handlePan(1,0)">
                  <use xlink:href="#rim" fill="#404040">
                        <set attributeName="fill" to="#808080" begin="arrowRight.mouseover" end="arrowRight.mouseout"/>
                  </use>
                  <path fill="none" stroke="white" stroke-width="1.5" d="M0,-3.0v7 M-2.5,-0.5L0,-3.0L2.5,-0.5"/>
                </g>
                <g id="arrowDown" xlink:href="#dirArrow" transform="rotate(180) translate(-30 -48)" onmousedown="handlePan(0,1)">
                  <use xlink:href="#rim" fill="#404040">
                        <set attributeName="fill" to="#808080" begin="arrowDown.mouseover" end="arrowDown.mouseout"/>
                  </use>
                  <path fill="none" stroke="white" stroke-width="1.5" d="M0,-3.0v7 M-2.5,-0.5L0,-3.0L2.5,-0.5"/>
                </g>
                <g id="arrowLeft" xlink:href="#dirArrow" transform="rotate(270) translate(-36 17)" onmousedown="handlePan(-1,0)">
                  <use xlink:href="#rim" fill="#404040">
                        <set attributeName="fill" to="#808080" begin="arrowLeft.mouseover" end="arrowLeft.mouseout"/>
                  </use>
                  <path fill="none" stroke="white" stroke-width="1.5" d="M0,-3.0v7 M-2.5,-0.5L0,-3.0L2.5,-0.5"/>
                </g>
        </g>
        <svg viewBox="0 0 15 15" width="100%" height="30px" preserveAspectRatio="xMaxYMin meet">
         <g id="arrow_out" transform="scale(0.3 0.3)">
          <a xlink:href="quickjs_8c_aee75cc1546e19479e3ccda58f3b50a96_cgraph_org.svg" target="_base">
           <rect id="button" ry="5" rx="5" y="6" x="6" height="38" width="38"
                fill="#f2f5e9" fill-opacity="0.5" stroke="#606060" stroke-width="1.0"/>
           <path id="arrow"
             d="M 11.500037,31.436501 C 11.940474,20.09759 22.043105,11.32322 32.158766,21.979434 L 37.068811,17.246167 C 37.068811,17.246167 37.088388,32 37.088388,32 L 22.160133,31.978069 C 22.160133,31.978069 26.997745,27.140456 26.997745,27.140456 C 18.528582,18.264221 13.291696,25.230495 11.500037,31.436501 z"
             style="fill:#404040;"/>
          </a>
         </g>
        </svg>
</svg>
