<?xml version="1.0" encoding="UTF-8" standalone="no"?>
<!DOCTYPE svg PUBLIC "-//W3C//DTD SVG 1.1//EN"
 "http://www.w3.org/Graphics/SVG/1.1/DTD/svg11.dtd">
<!-- Generated by graphviz version 2.40.1 (20161225.0304)
 -->
<!-- Title: JS_GetFunctionBytecode Pages: 1 -->
<svg width="621pt" height="104pt"
 viewBox="0.00 0.00 621.00 104.00" xmlns="http://www.w3.org/2000/svg" xmlns:xlink="http://www.w3.org/1999/xlink">
<g id="graph0" class="graph" transform="scale(1 1) rotate(0) translate(4 100)">
<title>JS_GetFunctionBytecode</title>
<!-- Node122676 -->
<g id="node1" class="node">
<title>Node122676</title>
<polygon fill="#bfbfbf" stroke="#000000" points="0,-38.5 0,-57.5 128,-57.5 128,-38.5 0,-38.5"/>
<text text-anchor="middle" x="64" y="-45.5" font-family="Helvetica,sans-Serif" font-size="10.00" fill="#000000">JS_GetFunctionBytecode</text>
</g>
<!-- Node122677 -->
<g id="node2" class="node">
<title>Node122677</title>
<g id="a_node2"><a xlink:href="quickjs_8c.html#adaeef1b86e37da5560f25b630c2d090c" target="_top" xlink:title="js_function_proto_caller">
<polygon fill="none" stroke="#000000" points="177.5,-76.5 177.5,-95.5 296.5,-95.5 296.5,-76.5 177.5,-76.5"/>
<text text-anchor="middle" x="237" y="-83.5" font-family="Helvetica,sans-Serif" font-size="10.00" fill="#000000">js_function_proto_caller</text>
</a>
</g>
</g>
<!-- Node122676&#45;&gt;Node122677 -->
<g id="edge1" class="edge">
<title>Node122676&#45;&gt;Node122677</title>
<path fill="none" stroke="#191970" d="M117.5051,-59.7526C141.9673,-65.1258 170.5707,-71.4086 193.6587,-76.4799"/>
<polygon fill="#191970" stroke="#191970" points="118.1733,-56.316 107.6552,-57.589 116.6714,-63.153 118.1733,-56.316"/>
</g>
<!-- Node122680 -->
<g id="node5" class="node">
<title>Node122680</title>
<g id="a_node5"><a xlink:href="quickjs_8c.html#a9605bd425a349d4b00391cb6f5d5cfd8" target="_top" xlink:title="js_function_proto_fileName">
<polygon fill="none" stroke="#000000" points="169.5,-38.5 169.5,-57.5 304.5,-57.5 304.5,-38.5 169.5,-38.5"/>
<text text-anchor="middle" x="237" y="-45.5" font-family="Helvetica,sans-Serif" font-size="10.00" fill="#000000">js_function_proto_fileName</text>
</a>
</g>
</g>
<!-- Node122676&#45;&gt;Node122680 -->
<g id="edge4" class="edge">
<title>Node122676&#45;&gt;Node122680</title>
<path fill="none" stroke="#191970" d="M138.5531,-48C148.785,-48 159.2442,-48 169.3433,-48"/>
<polygon fill="#191970" stroke="#191970" points="138.4188,-44.5001 128.4188,-48 138.4188,-51.5001 138.4188,-44.5001"/>
</g>
<!-- Node122681 -->
<g id="node6" class="node">
<title>Node122681</title>
<g id="a_node6"><a xlink:href="quickjs_8c.html#acd4bb9514182c7152570ca80a1a0650d" target="_top" xlink:title="js_function_proto_lineNumber">
<polygon fill="none" stroke="#000000" points="164,-.5 164,-19.5 310,-19.5 310,-.5 164,-.5"/>
<text text-anchor="middle" x="237" y="-7.5" font-family="Helvetica,sans-Serif" font-size="10.00" fill="#000000">js_function_proto_lineNumber</text>
</a>
</g>
</g>
<!-- Node122676&#45;&gt;Node122681 -->
<g id="edge5" class="edge">
<title>Node122676&#45;&gt;Node122681</title>
<path fill="none" stroke="#191970" d="M117.5051,-36.2474C141.9673,-30.8742 170.5707,-24.5914 193.6587,-19.5201"/>
<polygon fill="#191970" stroke="#191970" points="116.6714,-32.847 107.6552,-38.411 118.1733,-39.684 116.6714,-32.847"/>
</g>
<!-- Node122678 -->
<g id="node3" class="node">
<title>Node122678</title>
<g id="a_node3"><a xlink:href="quickjs_8c.html#a4c9489297c684663f30e517204a9ec14" target="_top" xlink:title="JS_AddIntrinsicBaseObjects">
<polygon fill="none" stroke="#000000" points="346,-76.5 346,-95.5 488,-95.5 488,-76.5 346,-76.5"/>
<text text-anchor="middle" x="417" y="-83.5" font-family="Helvetica,sans-Serif" font-size="10.00" fill="#000000">JS_AddIntrinsicBaseObjects</text>
</a>
</g>
</g>
<!-- Node122677&#45;&gt;Node122678 -->
<g id="edge2" class="edge">
<title>Node122677&#45;&gt;Node122678</title>
<path fill="none" stroke="#191970" d="M307.0012,-86C319.726,-86 333.0126,-86 345.7724,-86"/>
<polygon fill="#191970" stroke="#191970" points="306.9374,-82.5001 296.9374,-86 306.9374,-89.5001 306.9374,-82.5001"/>
</g>
<!-- Node122679 -->
<g id="node4" class="node">
<title>Node122679</title>
<g id="a_node4"><a xlink:href="quickjs_8c.html#ad8aedb643b8753b7a15f6cb2df61945e" target="_top" xlink:title="JS_NewContext">
<polygon fill="none" stroke="#000000" points="524,-76.5 524,-95.5 613,-95.5 613,-76.5 524,-76.5"/>
<text text-anchor="middle" x="568.5" y="-83.5" font-family="Helvetica,sans-Serif" font-size="10.00" fill="#000000">JS_NewContext</text>
</a>
</g>
</g>
<!-- Node122678&#45;&gt;Node122679 -->
<g id="edge3" class="edge">
<title>Node122678&#45;&gt;Node122679</title>
<path fill="none" stroke="#191970" d="M498.5534,-86C507.2595,-86 515.8628,-86 523.8995,-86"/>
<polygon fill="#191970" stroke="#191970" points="498.3138,-82.5001 488.3138,-86 498.3137,-89.5001 498.3138,-82.5001"/>
</g>
</g>
</svg>
