<?xml version="1.0" encoding="UTF-8" standalone="no"?>
<!DOCTYPE svg PUBLIC "-//W3C//DTD SVG 1.1//EN"
 "http://www.w3.org/Graphics/SVG/1.1/DTD/svg11.dtd">
<!-- Generated by graphviz version 2.40.1 (20161225.0304)
 -->
<!-- Title: js_number_toPrecision Pages: 1 -->
<!--zoomable 332 -->
<svg id="main" version="1.1" xmlns="http://www.w3.org/2000/svg" xmlns:xlink="http://www.w3.org/1999/xlink" xml:space="preserve" onload="init(evt)">
<style type="text/css"><![CDATA[
.edge:hover path { stroke: red; }
.edge:hover polygon { stroke: red; fill: red; }
]]></style>
<script type="text/javascript"><![CDATA[
var edges = document.getElementsByTagName('g');
if (edges && edges.length) {
  for (var i=0;i<edges.length;i++) {
    if (edges[i].id.substr(0,4)=='edge') {
      edges[i].setAttribute('class','edge');
    }
  }
}
]]></script>
        <defs>
                <circle id="rim" cx="0" cy="0" r="7"/>
                <circle id="rim2" cx="0" cy="0" r="3.5"/>
                <g id="zoomPlus">
                        <use xlink:href="#rim" fill="#404040">
                                <set attributeName="fill" to="#808080" begin="zoomplus.mouseover" end="zoomplus.mouseout"/>
                        </use>
                        <path d="M-4,0h8M0,-4v8" fill="none" stroke="white" stroke-width="1.5" pointer-events="none"/>
                </g>
                <g id="zoomMin">
                        <use xlink:href="#rim" fill="#404040">
                                <set attributeName="fill" to="#808080" begin="zoomminus.mouseover" end="zoomminus.mouseout"/>
                        </use>
                        <path d="M-4,0h8" fill="none" stroke="white" stroke-width="1.5" pointer-events="none"/>
                </g>
                <g id="dirArrow">
                        <path fill="none" stroke="white" stroke-width="1.5" d="M0,-3.0v7 M-2.5,-0.5L0,-3.0L2.5,-0.5"/>
                </g>
               <g id="resetDef">
                       <use xlink:href="#rim2" fill="#404040">
                               <set attributeName="fill" to="#808080" begin="reset.mouseover" end="reset.mouseout"/>
                       </use>
               </g>
        </defs>

<script type="text/javascript">
var viewWidth = 542;
var viewHeight = 332;
var sectionId = 'dynsection-1409';
</script>
<script xlink:href="svgpan.js"/>
<svg id="graph" class="graph">
<g id="viewport">
<title>js_number_toPrecision</title>
<!-- Node368495 -->
<g id="node1" class="node">
<title>Node368495</title>
<polygon fill="#bfbfbf" stroke="#000000" points="0,-114.5 0,-133.5 116,-133.5 116,-114.5 0,-114.5"/>
<text text-anchor="middle" x="58" y="-121.5" font-family="Helvetica,sans-Serif" font-size="10.00" fill="#000000">js_number_toPrecision</text>
</g>
<!-- Node368496 -->
<g id="node2" class="node">
<title>Node368496</title>
<g id="a_node2"><a xlink:href="quickjs_8c.html#a6508a2922531adcb280bbff485a9a44a" target="_top" xlink:title="js_dtoa">
<polygon fill="none" stroke="#000000" points="180,-228.5 180,-247.5 228,-247.5 228,-228.5 180,-228.5"/>
<text text-anchor="middle" x="204" y="-235.5" font-family="Helvetica,sans-Serif" font-size="10.00" fill="#000000">js_dtoa</text>
</a>
</g>
</g>
<!-- Node368495&#45;&gt;Node368496 -->
<g id="edge1" class="edge">
<title>Node368495&#45;&gt;Node368496</title>
<path fill="none" stroke="#191970" d="M66.2051,-133.761C81.5637,-151.563 116.336,-189.7037 152,-214 157.7418,-217.9116 164.2233,-221.476 170.6128,-224.5911"/>
<polygon fill="#191970" stroke="#191970" points="169.2639,-227.8231 179.8115,-228.822 172.1889,-221.4636 169.2639,-227.8231"/>
</g>
<!-- Node368531 -->
<g id="node9" class="node">
<title>Node368531</title>
<g id="a_node9"><a xlink:href="quickjs_8h.html#ad80a83d73e9b7d872b88fbf2943aebe9" target="_top" xlink:title="JS_IsException">
<polygon fill="none" stroke="#000000" points="441.5,-152.5 441.5,-171.5 527.5,-171.5 527.5,-152.5 441.5,-152.5"/>
<text text-anchor="middle" x="484.5" y="-159.5" font-family="Helvetica,sans-Serif" font-size="10.00" fill="#000000">JS_IsException</text>
</a>
</g>
</g>
<!-- Node368495&#45;&gt;Node368531 -->
<g id="edge8" class="edge">
<title>Node368495&#45;&gt;Node368531</title>
<path fill="none" stroke="#191970" d="M69.187,-133.6431C85.8833,-147.3293 118.9144,-171.7524 152,-181 251.3727,-208.7752 373.7732,-188.5946 438.8094,-173.8199"/>
<polygon fill="#191970" stroke="#191970" points="439.7988,-177.1832 448.7424,-171.5032 438.2088,-170.3661 439.7988,-177.1832"/>
</g>
<!-- Node368532 -->
<g id="node10" class="node">
<title>Node368532</title>
<g id="a_node10"><a xlink:href="quickjs_8h.html#a4e407128a9605afb77523e49e9a627fd" target="_top" xlink:title="JS_IsUndefined">
<polygon fill="none" stroke="#000000" points="161,-38.5 161,-57.5 247,-57.5 247,-38.5 161,-38.5"/>
<text text-anchor="middle" x="204" y="-45.5" font-family="Helvetica,sans-Serif" font-size="10.00" fill="#000000">JS_IsUndefined</text>
</a>
</g>
</g>
<!-- Node368495&#45;&gt;Node368532 -->
<g id="edge9" class="edge">
<title>Node368495&#45;&gt;Node368532</title>
<path fill="none" stroke="#191970" d="M71.8499,-114.4176C89.7722,-102.2991 122.2364,-81.2934 152,-67 156.1575,-65.0035 160.5834,-63.0878 165.0309,-61.2929"/>
<polygon fill="#191970" stroke="#191970" points="166.6291,-64.4283 174.7063,-57.5719 164.1164,-57.8948 166.6291,-64.4283"/>
</g>
<!-- Node368533 -->
<g id="node11" class="node">
<title>Node368533</title>
<g id="a_node11"><a xlink:href="quickjs_8c.html#a0d3fa47d2f86605d823f947020971a39" target="_top" xlink:title="js_thisNumberValue">
<polygon fill="none" stroke="#000000" points="152,-76.5 152,-95.5 256,-95.5 256,-76.5 152,-76.5"/>
<text text-anchor="middle" x="204" y="-83.5" font-family="Helvetica,sans-Serif" font-size="10.00" fill="#000000">js_thisNumberValue</text>
</a>
</g>
</g>
<!-- Node368495&#45;&gt;Node368533 -->
<g id="edge10" class="edge">
<title>Node368495&#45;&gt;Node368533</title>
<path fill="none" stroke="#191970" d="M94.842,-114.411C113.8479,-109.4642 137.2286,-103.3789 157.4692,-98.1108"/>
<polygon fill="#191970" stroke="#191970" points="158.627,-101.4261 167.423,-95.5201 156.8638,-94.6518 158.627,-101.4261"/>
</g>
<!-- Node368535 -->
<g id="node14" class="node">
<title>Node368535</title>
<g id="a_node14"><a xlink:href="quickjs_8c.html#ab1b614ef35f1cea05da0ad4927c53118" target="_top" xlink:title="JS_ToFloat64Free">
<polygon fill="none" stroke="#000000" points="155.5,-152.5 155.5,-171.5 252.5,-171.5 252.5,-152.5 155.5,-152.5"/>
<text text-anchor="middle" x="204" y="-159.5" font-family="Helvetica,sans-Serif" font-size="10.00" fill="#000000">JS_ToFloat64Free</text>
</a>
</g>
</g>
<!-- Node368495&#45;&gt;Node368535 -->
<g id="edge13" class="edge">
<title>Node368495&#45;&gt;Node368535</title>
<path fill="none" stroke="#191970" d="M94.842,-133.589C113.8479,-138.5358 137.2286,-144.6211 157.4692,-149.8892"/>
<polygon fill="#191970" stroke="#191970" points="156.8638,-153.3482 167.423,-152.4799 158.627,-146.5739 156.8638,-153.3482"/>
</g>
<!-- Node368911 -->
<g id="node17" class="node">
<title>Node368911</title>
<g id="a_node17"><a xlink:href="quickjs_8c.html#ad698ea01233894f912303776fe3c08c8" target="_top" xlink:title="JS_ToInt32Sat">
<polygon fill="none" stroke="#000000" points="163,-114.5 163,-133.5 245,-133.5 245,-114.5 163,-114.5"/>
<text text-anchor="middle" x="204" y="-121.5" font-family="Helvetica,sans-Serif" font-size="10.00" fill="#000000">JS_ToInt32Sat</text>
</a>
</g>
</g>
<!-- Node368495&#45;&gt;Node368911 -->
<g id="edge17" class="edge">
<title>Node368495&#45;&gt;Node368911</title>
<path fill="none" stroke="#191970" d="M116.1226,-124C128.1774,-124 140.7976,-124 152.5915,-124"/>
<polygon fill="#191970" stroke="#191970" points="152.7082,-127.5001 162.7081,-124 152.7081,-120.5001 152.7082,-127.5001"/>
</g>
<!-- Node368744 -->
<g id="node19" class="node">
<title>Node368744</title>
<g id="a_node19"><a xlink:href="quickjs_8c.html#a38cad713b74c445668210ea8614bfb65" target="_top" xlink:title="JS_ToStringFree">
<polygon fill="none" stroke="#ff0000" points="159,-.5 159,-19.5 249,-19.5 249,-.5 159,-.5"/>
<text text-anchor="middle" x="204" y="-7.5" font-family="Helvetica,sans-Serif" font-size="10.00" fill="#000000">JS_ToStringFree</text>
</a>
</g>
</g>
<!-- Node368495&#45;&gt;Node368744 -->
<g id="edge22" class="edge">
<title>Node368495&#45;&gt;Node368744</title>
<path fill="none" stroke="#191970" d="M65.2038,-114.26C79.6677,-95.3313 114.1162,-53.3091 152,-29 155.0942,-27.0145 158.4246,-25.1982 161.8516,-23.5448"/>
<polygon fill="#191970" stroke="#191970" points="163.2775,-26.7415 171.0527,-19.5445 160.4864,-20.3219 163.2775,-26.7415"/>
</g>
<!-- Node368497 -->
<g id="node3" class="node">
<title>Node368497</title>
<g id="a_node3"><a xlink:href="quickjs_8c.html#a7ba39dd8c4124908e1c12e2d3267767c" target="_top" xlink:title="js_dtoa1">
<polygon fill="none" stroke="#000000" points="319,-228.5 319,-247.5 372,-247.5 372,-228.5 319,-228.5"/>
<text text-anchor="middle" x="345.5" y="-235.5" font-family="Helvetica,sans-Serif" font-size="10.00" fill="#000000">js_dtoa1</text>
</a>
</g>
</g>
<!-- Node368496&#45;&gt;Node368497 -->
<g id="edge2" class="edge">
<title>Node368496&#45;&gt;Node368497</title>
<path fill="none" stroke="#191970" d="M228.0035,-238C250.1798,-238 283.4468,-238 308.9284,-238"/>
<polygon fill="#191970" stroke="#191970" points="308.968,-241.5001 318.968,-238 308.9679,-234.5001 308.968,-241.5001"/>
</g>
<!-- Node368503 -->
<g id="node7" class="node">
<title>Node368503</title>
<g id="a_node7"><a xlink:href="quickjs_8c.html#a0ee6a3654a6016393fac5e1c108f403a" target="_top" xlink:title="JS_NewString">
<polygon fill="none" stroke="#000000" points="305.5,-285.5 305.5,-304.5 385.5,-304.5 385.5,-285.5 305.5,-285.5"/>
<text text-anchor="middle" x="345.5" y="-292.5" font-family="Helvetica,sans-Serif" font-size="10.00" fill="#000000">JS_NewString</text>
</a>
</g>
</g>
<!-- Node368496&#45;&gt;Node368503 -->
<g id="edge6" class="edge">
<title>Node368496&#45;&gt;Node368503</title>
<path fill="none" stroke="#191970" d="M227.6839,-247.5405C250.8451,-256.8705 286.3222,-271.1616 312.2952,-281.6242"/>
<polygon fill="#191970" stroke="#191970" points="311.1553,-284.9383 321.7388,-285.4284 313.7709,-278.4453 311.1553,-284.9383"/>
</g>
<!-- Node368498 -->
<g id="node4" class="node">
<title>Node368498</title>
<g id="a_node4"><a xlink:href="quickjs_8c.html#a8005e0fac8fb44a3516d0d75375af433" target="_top" xlink:title="i64toa">
<polygon fill="none" stroke="#000000" points="463,-228.5 463,-247.5 506,-247.5 506,-228.5 463,-228.5"/>
<text text-anchor="middle" x="484.5" y="-235.5" font-family="Helvetica,sans-Serif" font-size="10.00" fill="#000000">i64toa</text>
</a>
</g>
</g>
<!-- Node368497&#45;&gt;Node368498 -->
<g id="edge3" class="edge">
<title>Node368497&#45;&gt;Node368498</title>
<path fill="none" stroke="#191970" d="M372.3006,-238C395.2533,-238 428.3506,-238 452.6514,-238"/>
<polygon fill="#191970" stroke="#191970" points="452.8004,-241.5001 462.8003,-238 452.8003,-234.5001 452.8004,-241.5001"/>
</g>
<!-- Node368499 -->
<g id="node5" class="node">
<title>Node368499</title>
<g id="a_node5"><a xlink:href="quickjs_8c.html#a3361a59ceaddbd4c2081315f6f5f1978" target="_top" xlink:title="js_ecvt">
<polygon fill="none" stroke="#ff0000" points="460.5,-190.5 460.5,-209.5 508.5,-209.5 508.5,-190.5 460.5,-190.5"/>
<text text-anchor="middle" x="484.5" y="-197.5" font-family="Helvetica,sans-Serif" font-size="10.00" fill="#000000">js_ecvt</text>
</a>
</g>
</g>
<!-- Node368497&#45;&gt;Node368499 -->
<g id="edge4" class="edge">
<title>Node368497&#45;&gt;Node368499</title>
<path fill="none" stroke="#191970" d="M372.3006,-230.6732C394.5279,-224.5967 426.2686,-215.9194 450.3215,-209.3438"/>
<polygon fill="#191970" stroke="#191970" points="451.386,-212.6813 460.1091,-206.668 449.54,-205.929 451.386,-212.6813"/>
</g>
<!-- Node368501 -->
<g id="node6" class="node">
<title>Node368501</title>
<g id="a_node6"><a xlink:href="quickjs_8c.html#a982972948d4f4a4a0fe7306056c44a92" target="_top" xlink:title="js_fcvt">
<polygon fill="none" stroke="#ff0000" points="461.5,-266.5 461.5,-285.5 507.5,-285.5 507.5,-266.5 461.5,-266.5"/>
<text text-anchor="middle" x="484.5" y="-273.5" font-family="Helvetica,sans-Serif" font-size="10.00" fill="#000000">js_fcvt</text>
</a>
</g>
</g>
<!-- Node368497&#45;&gt;Node368501 -->
<g id="edge5" class="edge">
<title>Node368497&#45;&gt;Node368501</title>
<path fill="none" stroke="#191970" d="M372.3006,-245.3268C394.9421,-251.5165 427.4548,-260.4049 451.658,-267.0216"/>
<polygon fill="#191970" stroke="#191970" points="450.9,-270.4428 461.469,-269.7038 452.746,-263.6905 450.9,-270.4428"/>
</g>
<!-- Node368504 -->
<g id="node8" class="node">
<title>Node368504</title>
<g id="a_node8"><a xlink:href="quickjs_8c.html#ac34cc554aab1e98c45a7f845fff64385" target="_top" xlink:title="JS_NewStringLen">
<polygon fill="none" stroke="#ff0000" points="437,-304.5 437,-323.5 532,-323.5 532,-304.5 437,-304.5"/>
<text text-anchor="middle" x="484.5" y="-311.5" font-family="Helvetica,sans-Serif" font-size="10.00" fill="#000000">JS_NewStringLen</text>
</a>
</g>
</g>
<!-- Node368503&#45;&gt;Node368504 -->
<g id="edge7" class="edge">
<title>Node368503&#45;&gt;Node368504</title>
<path fill="none" stroke="#191970" d="M385.7046,-300.4956C398.544,-302.2506 413.0161,-304.2288 426.8437,-306.1189"/>
<polygon fill="#191970" stroke="#191970" points="426.384,-309.5885 436.7659,-307.4752 427.3321,-302.653 426.384,-309.5885"/>
</g>
<!-- Node368514 -->
<g id="node12" class="node">
<title>Node368514</title>
<g id="a_node12"><a xlink:href="quickjs_8h.html#a775522f2d084fc8fa0fcb33f390006b4" target="_top" xlink:title="JS_DupValue">
<polygon fill="none" stroke="#000000" points="307,-76.5 307,-95.5 384,-95.5 384,-76.5 307,-76.5"/>
<text text-anchor="middle" x="345.5" y="-83.5" font-family="Helvetica,sans-Serif" font-size="10.00" fill="#000000">JS_DupValue</text>
</a>
</g>
</g>
<!-- Node368533&#45;&gt;Node368514 -->
<g id="edge11" class="edge">
<title>Node368533&#45;&gt;Node368514</title>
<path fill="none" stroke="#191970" d="M256.2874,-86C269.4569,-86 283.544,-86 296.5434,-86"/>
<polygon fill="#191970" stroke="#191970" points="296.6971,-89.5001 306.6971,-86 296.697,-82.5001 296.6971,-89.5001"/>
</g>
<!-- Node368534 -->
<g id="node13" class="node">
<title>Node368534</title>
<g id="a_node13"><a xlink:href="quickjs_8c.html#a80748588bc6abe4b1e93c193dde82c00" target="_top" xlink:title="JS_IsNumber">
<polygon fill="none" stroke="#000000" points="307,-38.5 307,-57.5 384,-57.5 384,-38.5 307,-38.5"/>
<text text-anchor="middle" x="345.5" y="-45.5" font-family="Helvetica,sans-Serif" font-size="10.00" fill="#000000">JS_IsNumber</text>
</a>
</g>
</g>
<!-- Node368533&#45;&gt;Node368534 -->
<g id="edge12" class="edge">
<title>Node368533&#45;&gt;Node368534</title>
<path fill="none" stroke="#191970" d="M239.7064,-76.411C257.9727,-71.5056 280.4084,-65.4804 299.9112,-60.2429"/>
<polygon fill="#191970" stroke="#191970" points="301.055,-63.5599 309.805,-57.5859 299.2394,-56.7994 301.055,-63.5599"/>
</g>
<!-- Node368536 -->
<g id="node15" class="node">
<title>Node368536</title>
<g id="a_node15"><a xlink:href="quickjs_8c.html#a9a2e141f21d9ea38a3a23c9b4eb6e356" target="_top" xlink:title="__JS_ToFloat64Free">
<polygon fill="none" stroke="#000000" points="292,-152.5 292,-171.5 399,-171.5 399,-152.5 292,-152.5"/>
<text text-anchor="middle" x="345.5" y="-159.5" font-family="Helvetica,sans-Serif" font-size="10.00" fill="#000000">__JS_ToFloat64Free</text>
</a>
</g>
</g>
<!-- Node368535&#45;&gt;Node368536 -->
<g id="edge14" class="edge">
<title>Node368535&#45;&gt;Node368536</title>
<path fill="none" stroke="#191970" d="M252.6963,-162C262.0709,-162 272.0194,-162 281.7873,-162"/>
<polygon fill="#191970" stroke="#191970" points="281.8694,-165.5001 291.8694,-162 281.8693,-158.5001 281.8694,-165.5001"/>
</g>
<!-- Node368536&#45;&gt;Node368531 -->
<g id="edge15" class="edge">
<title>Node368536&#45;&gt;Node368531</title>
<path fill="none" stroke="#191970" d="M399.241,-162C409.669,-162 420.5967,-162 431.0164,-162"/>
<polygon fill="#191970" stroke="#191970" points="431.2295,-165.5001 441.2295,-162 431.2295,-158.5001 431.2295,-165.5001"/>
</g>
<!-- Node368537 -->
<g id="node16" class="node">
<title>Node368537</title>
<g id="a_node16"><a xlink:href="quickjs_8c.html#ae738291483438efefca5c9fa4d269504" target="_top" xlink:title="JS_ToNumberFree">
<polygon fill="none" stroke="#ff0000" points="435,-114.5 435,-133.5 534,-133.5 534,-114.5 435,-114.5"/>
<text text-anchor="middle" x="484.5" y="-121.5" font-family="Helvetica,sans-Serif" font-size="10.00" fill="#000000">JS_ToNumberFree</text>
</a>
</g>
</g>
<!-- Node368536&#45;&gt;Node368537 -->
<g id="edge16" class="edge">
<title>Node368536&#45;&gt;Node368537</title>
<path fill="none" stroke="#191970" d="M380.5756,-152.411C398.5191,-147.5056 420.5584,-141.4804 439.7167,-136.2429"/>
<polygon fill="#191970" stroke="#191970" points="440.7126,-139.5992 449.4357,-133.5859 438.8666,-132.8469 440.7126,-139.5992"/>
</g>
<!-- Node368911&#45;&gt;Node368514 -->
<g id="edge18" class="edge">
<title>Node368911&#45;&gt;Node368514</title>
<path fill="none" stroke="#191970" d="M239.7064,-114.411C257.9727,-109.5056 280.4084,-103.4804 299.9112,-98.2429"/>
<polygon fill="#191970" stroke="#191970" points="301.055,-101.5599 309.805,-95.5859 299.2394,-94.7994 301.055,-101.5599"/>
</g>
<!-- Node368912 -->
<g id="node18" class="node">
<title>Node368912</title>
<g id="a_node18"><a xlink:href="quickjs_8c.html#a419bec82cb80e98e08626a9a5212ec4c" target="_top" xlink:title="JS_ToInt32SatFree">
<polygon fill="none" stroke="#000000" points="295,-114.5 295,-133.5 396,-133.5 396,-114.5 295,-114.5"/>
<text text-anchor="middle" x="345.5" y="-121.5" font-family="Helvetica,sans-Serif" font-size="10.00" fill="#000000">JS_ToInt32SatFree</text>
</a>
</g>
</g>
<!-- Node368911&#45;&gt;Node368912 -->
<g id="edge19" class="edge">
<title>Node368911&#45;&gt;Node368912</title>
<path fill="none" stroke="#191970" d="M245.308,-124C257.6588,-124 271.4665,-124 284.7894,-124"/>
<polygon fill="#191970" stroke="#191970" points="284.8508,-127.5001 294.8508,-124 284.8508,-120.5001 284.8508,-127.5001"/>
</g>
<!-- Node368912&#45;&gt;Node368531 -->
<g id="edge20" class="edge">
<title>Node368912&#45;&gt;Node368531</title>
<path fill="none" stroke="#191970" d="M380.5756,-133.589C398.5191,-138.4944 420.5584,-144.5196 439.7167,-149.7571"/>
<polygon fill="#191970" stroke="#191970" points="438.8666,-153.1531 449.4357,-152.4141 440.7126,-146.4008 438.8666,-153.1531"/>
</g>
<!-- Node368912&#45;&gt;Node368537 -->
<g id="edge21" class="edge">
<title>Node368912&#45;&gt;Node368537</title>
<path fill="none" stroke="#191970" d="M396.0754,-124C405.3102,-124 415.0276,-124 424.5047,-124"/>
<polygon fill="#191970" stroke="#191970" points="424.6599,-127.5001 434.6598,-124 424.6598,-120.5001 424.6599,-127.5001"/>
</g>
</g>
</svg>
        <g id="navigator" transform="translate(0 0)" fill="#404254">
                <rect fill="#f2f5e9" fill-opacity="0.5" stroke="#606060" stroke-width=".5" x="0" y="0" width="60" height="60"/>
                <use id="zoomplus" xlink:href="#zoomPlus" x="17" y="9" onmousedown="handleZoom(evt,'in')"/>
                <use id="zoomminus" xlink:href="#zoomMin" x="42" y="9" onmousedown="handleZoom(evt,'out')"/>
                <use id="reset" xlink:href="#resetDef" x="30" y="36" onmousedown="handleReset()"/>
                <g id="arrowUp" xlink:href="#dirArrow" transform="translate(30 24)" onmousedown="handlePan(0,-1)">
                  <use xlink:href="#rim" fill="#404040">
                        <set attributeName="fill" to="#808080" begin="arrowUp.mouseover" end="arrowUp.mouseout"/>
                  </use>
                  <path fill="none" stroke="white" stroke-width="1.5" d="M0,-3.0v7 M-2.5,-0.5L0,-3.0L2.5,-0.5"/>
                </g>
                <g id="arrowRight" xlink:href="#dirArrow" transform="rotate(90) translate(36 -43)" onmousedown="handlePan(1,0)">
                  <use xlink:href="#rim" fill="#404040">
                        <set attributeName="fill" to="#808080" begin="arrowRight.mouseover" end="arrowRight.mouseout"/>
                  </use>
                  <path fill="none" stroke="white" stroke-width="1.5" d="M0,-3.0v7 M-2.5,-0.5L0,-3.0L2.5,-0.5"/>
                </g>
                <g id="arrowDown" xlink:href="#dirArrow" transform="rotate(180) translate(-30 -48)" onmousedown="handlePan(0,1)">
                  <use xlink:href="#rim" fill="#404040">
                        <set attributeName="fill" to="#808080" begin="arrowDown.mouseover" end="arrowDown.mouseout"/>
                  </use>
                  <path fill="none" stroke="white" stroke-width="1.5" d="M0,-3.0v7 M-2.5,-0.5L0,-3.0L2.5,-0.5"/>
                </g>
                <g id="arrowLeft" xlink:href="#dirArrow" transform="rotate(270) translate(-36 17)" onmousedown="handlePan(-1,0)">
                  <use xlink:href="#rim" fill="#404040">
                        <set attributeName="fill" to="#808080" begin="arrowLeft.mouseover" end="arrowLeft.mouseout"/>
                  </use>
                  <path fill="none" stroke="white" stroke-width="1.5" d="M0,-3.0v7 M-2.5,-0.5L0,-3.0L2.5,-0.5"/>
                </g>
        </g>
        <svg viewBox="0 0 15 15" width="100%" height="30px" preserveAspectRatio="xMaxYMin meet">
         <g id="arrow_out" transform="scale(0.3 0.3)">
          <a xlink:href="quickjs_8c_a806a4bbff6962ecc09ab3ae101b3755a_cgraph_org.svg" target="_base">
           <rect id="button" ry="5" rx="5" y="6" x="6" height="38" width="38"
                fill="#f2f5e9" fill-opacity="0.5" stroke="#606060" stroke-width="1.0"/>
           <path id="arrow"
             d="M 11.500037,31.436501 C 11.940474,20.09759 22.043105,11.32322 32.158766,21.979434 L 37.068811,17.246167 C 37.068811,17.246167 37.088388,32 37.088388,32 L 22.160133,31.978069 C 22.160133,31.978069 26.997745,27.140456 26.997745,27.140456 C 18.528582,18.264221 13.291696,25.230495 11.500037,31.436501 z"
             style="fill:#404040;"/>
          </a>
         </g>
        </svg>
</svg>
