<?xml version="1.0" encoding="UTF-8" standalone="no"?>
<!DOCTYPE svg PUBLIC "-//W3C//DTD SVG 1.1//EN"
 "http://www.w3.org/Graphics/SVG/1.1/DTD/svg11.dtd">
<!-- Generated by graphviz version 2.40.1 (20161225.0304)
 -->
<!-- Title: js_os_seek Pages: 1 -->
<svg width="437pt" height="175pt"
 viewBox="0.00 0.00 437.00 175.00" xmlns="http://www.w3.org/2000/svg" xmlns:xlink="http://www.w3.org/1999/xlink">
<g id="graph0" class="graph" transform="scale(1 1) rotate(0) translate(4 171)">
<title>js_os_seek</title>
<!-- Node15977 -->
<g id="node1" class="node">
<title>Node15977</title>
<polygon fill="#bfbfbf" stroke="#000000" points="0,-76.5 0,-95.5 66,-95.5 66,-76.5 0,-76.5"/>
<text text-anchor="middle" x="33" y="-83.5" font-family="Helvetica,sans-Serif" font-size="10.00" fill="#000000">js_os_seek</text>
</g>
<!-- Node15978 -->
<g id="node2" class="node">
<title>Node15978</title>
<g id="a_node2"><a xlink:href="quickjs-libc_8c.html#ac3abb3f7c3750d07bbc4c20d5f4558f7" target="_top" xlink:title="js_os_return">
<polygon fill="none" stroke="#000000" points="102,-114.5 102,-133.5 172,-133.5 172,-114.5 102,-114.5"/>
<text text-anchor="middle" x="137" y="-121.5" font-family="Helvetica,sans-Serif" font-size="10.00" fill="#000000">js_os_return</text>
</a>
</g>
</g>
<!-- Node15977&#45;&gt;Node15978 -->
<g id="edge1" class="edge">
<title>Node15977&#45;&gt;Node15978</title>
<path fill="none" stroke="#191970" d="M59.2436,-95.589C71.93,-100.2244 87.3527,-105.8596 101.1072,-110.8853"/>
<polygon fill="#191970" stroke="#191970" points="100.171,-114.2695 110.7648,-114.4141 102.5733,-107.6946 100.171,-114.2695"/>
</g>
<!-- Node15982 -->
<g id="node6" class="node">
<title>Node15982</title>
<g id="a_node6"><a xlink:href="quickjs_8c.html#a4073bd2b4f247bf6077cd956759193b9" target="_top" xlink:title="JS_ToInt32">
<polygon fill="none" stroke="#000000" points="103.5,-76.5 103.5,-95.5 170.5,-95.5 170.5,-76.5 103.5,-76.5"/>
<text text-anchor="middle" x="137" y="-83.5" font-family="Helvetica,sans-Serif" font-size="10.00" fill="#000000">JS_ToInt32</text>
</a>
</g>
</g>
<!-- Node15977&#45;&gt;Node15982 -->
<g id="edge5" class="edge">
<title>Node15977&#45;&gt;Node15982</title>
<path fill="none" stroke="#191970" d="M66.1922,-86C74.8304,-86 84.2689,-86 93.3577,-86"/>
<polygon fill="#191970" stroke="#191970" points="93.4092,-89.5001 103.4092,-86 93.4092,-82.5001 93.4092,-89.5001"/>
</g>
<!-- Node16396 -->
<g id="node11" class="node">
<title>Node16396</title>
<g id="a_node11"><a xlink:href="quickjs_8c.html#ae2829a2d31c667739617023e2374a6b2" target="_top" xlink:title="JS_ToInt64">
<polygon fill="none" stroke="#000000" points="103.5,-38.5 103.5,-57.5 170.5,-57.5 170.5,-38.5 103.5,-38.5"/>
<text text-anchor="middle" x="137" y="-45.5" font-family="Helvetica,sans-Serif" font-size="10.00" fill="#000000">JS_ToInt64</text>
</a>
</g>
</g>
<!-- Node15977&#45;&gt;Node16396 -->
<g id="edge10" class="edge">
<title>Node15977&#45;&gt;Node16396</title>
<path fill="none" stroke="#191970" d="M59.2436,-76.411C71.93,-71.7756 87.3527,-66.1404 101.1072,-61.1147"/>
<polygon fill="#191970" stroke="#191970" points="102.5733,-64.3054 110.7648,-57.5859 100.171,-57.7305 102.5733,-64.3054"/>
</g>
<!-- Node15979 -->
<g id="node3" class="node">
<title>Node15979</title>
<g id="a_node3"><a xlink:href="quickjs_8c.html#acfced0527a056a74dd8439904b7936dd" target="_top" xlink:title="JS_NewInt64">
<polygon fill="none" stroke="#000000" points="213,-114.5 213,-133.5 289,-133.5 289,-114.5 213,-114.5"/>
<text text-anchor="middle" x="251" y="-121.5" font-family="Helvetica,sans-Serif" font-size="10.00" fill="#000000">JS_NewInt64</text>
</a>
</g>
</g>
<!-- Node15978&#45;&gt;Node15979 -->
<g id="edge2" class="edge">
<title>Node15978&#45;&gt;Node15979</title>
<path fill="none" stroke="#191970" d="M172.134,-124C181.751,-124 192.3468,-124 202.5666,-124"/>
<polygon fill="#191970" stroke="#191970" points="202.6109,-127.5001 212.6109,-124 202.6108,-120.5001 202.6109,-127.5001"/>
</g>
<!-- Node15980 -->
<g id="node4" class="node">
<title>Node15980</title>
<g id="a_node4"><a xlink:href="quickjs_8h.html#a2050bc428da1c65ac7eb87c3fa3b0392" target="_top" xlink:title="JS_NewInt32">
<polygon fill="none" stroke="#000000" points="341.5,-147.5 341.5,-166.5 417.5,-166.5 417.5,-147.5 341.5,-147.5"/>
<text text-anchor="middle" x="379.5" y="-154.5" font-family="Helvetica,sans-Serif" font-size="10.00" fill="#000000">JS_NewInt32</text>
</a>
</g>
</g>
<!-- Node15979&#45;&gt;Node15980 -->
<g id="edge3" class="edge">
<title>Node15979&#45;&gt;Node15980</title>
<path fill="none" stroke="#191970" d="M288.1675,-133.545C302.0192,-137.1022 317.9266,-141.1874 332.5437,-144.9412"/>
<polygon fill="#191970" stroke="#191970" points="331.8597,-148.379 342.416,-147.4765 333.6009,-141.599 331.8597,-148.379"/>
</g>
<!-- Node15981 -->
<g id="node5" class="node">
<title>Node15981</title>
<g id="a_node5"><a xlink:href="quickjs_8h.html#a9bf98b18de88b4199910a43e933eb97d" target="_top" xlink:title="__JS_NewFloat64">
<polygon fill="none" stroke="#000000" points="331,-109.5 331,-128.5 428,-128.5 428,-109.5 331,-109.5"/>
<text text-anchor="middle" x="379.5" y="-116.5" font-family="Helvetica,sans-Serif" font-size="10.00" fill="#000000">__JS_NewFloat64</text>
</a>
</g>
</g>
<!-- Node15979&#45;&gt;Node15981 -->
<g id="edge4" class="edge">
<title>Node15979&#45;&gt;Node15981</title>
<path fill="none" stroke="#191970" d="M289.2063,-122.5134C299.0735,-122.1294 309.9272,-121.7071 320.5839,-121.2925"/>
<polygon fill="#191970" stroke="#191970" points="320.8457,-124.785 330.7021,-120.8988 320.5735,-117.7903 320.8457,-124.785"/>
</g>
<!-- Node15983 -->
<g id="node7" class="node">
<title>Node15983</title>
<g id="a_node7"><a xlink:href="quickjs_8c.html#a643088ab23784b7f3c6ff94c37228256" target="_top" xlink:title="JS_ToInt32Free">
<polygon fill="none" stroke="#000000" points="208,-76.5 208,-95.5 294,-95.5 294,-76.5 208,-76.5"/>
<text text-anchor="middle" x="251" y="-83.5" font-family="Helvetica,sans-Serif" font-size="10.00" fill="#000000">JS_ToInt32Free</text>
</a>
</g>
</g>
<!-- Node15982&#45;&gt;Node15983 -->
<g id="edge6" class="edge">
<title>Node15982&#45;&gt;Node15983</title>
<path fill="none" stroke="#191970" d="M170.5872,-86C179.0812,-86 188.4148,-86 197.6218,-86"/>
<polygon fill="#191970" stroke="#191970" points="197.9117,-89.5001 207.9116,-86 197.9116,-82.5001 197.9117,-89.5001"/>
</g>
<!-- Node16017 -->
<g id="node10" class="node">
<title>Node16017</title>
<g id="a_node10"><a xlink:href="quickjs_8h.html#a775522f2d084fc8fa0fcb33f390006b4" target="_top" xlink:title="JS_DupValue">
<polygon fill="none" stroke="#000000" points="212.5,-38.5 212.5,-57.5 289.5,-57.5 289.5,-38.5 212.5,-38.5"/>
<text text-anchor="middle" x="251" y="-45.5" font-family="Helvetica,sans-Serif" font-size="10.00" fill="#000000">JS_DupValue</text>
</a>
</g>
</g>
<!-- Node15982&#45;&gt;Node16017 -->
<g id="edge9" class="edge">
<title>Node15982&#45;&gt;Node16017</title>
<path fill="none" stroke="#191970" d="M165.767,-76.411C179.9433,-71.6856 197.2366,-65.9211 212.5322,-60.8226"/>
<polygon fill="#191970" stroke="#191970" points="213.8622,-64.0687 222.2422,-57.5859 211.6485,-57.4279 213.8622,-64.0687"/>
</g>
<!-- Node15984 -->
<g id="node8" class="node">
<title>Node15984</title>
<g id="a_node8"><a xlink:href="quickjs_8c.html#ae738291483438efefca5c9fa4d269504" target="_top" xlink:title="JS_ToNumberFree">
<polygon fill="none" stroke="#ff0000" points="330,-66.5 330,-85.5 429,-85.5 429,-66.5 330,-66.5"/>
<text text-anchor="middle" x="379.5" y="-73.5" font-family="Helvetica,sans-Serif" font-size="10.00" fill="#000000">JS_ToNumberFree</text>
</a>
</g>
</g>
<!-- Node15983&#45;&gt;Node15984 -->
<g id="edge7" class="edge">
<title>Node15983&#45;&gt;Node15984</title>
<path fill="none" stroke="#191970" d="M294.1461,-82.6423C302.3213,-82.0061 311.0093,-81.33 319.5934,-80.662"/>
<polygon fill="#191970" stroke="#191970" points="319.8875,-84.1498 329.5858,-79.8844 319.3443,-77.1709 319.8875,-84.1498"/>
</g>
<!-- Node16029 -->
<g id="node9" class="node">
<title>Node16029</title>
<g id="a_node9"><a xlink:href="quickjs_8h.html#ad80a83d73e9b7d872b88fbf2943aebe9" target="_top" xlink:title="JS_IsException">
<polygon fill="none" stroke="#000000" points="336.5,-19.5 336.5,-38.5 422.5,-38.5 422.5,-19.5 336.5,-19.5"/>
<text text-anchor="middle" x="379.5" y="-26.5" font-family="Helvetica,sans-Serif" font-size="10.00" fill="#000000">JS_IsException</text>
</a>
</g>
</g>
<!-- Node15983&#45;&gt;Node16029 -->
<g id="edge8" class="edge">
<title>Node15983&#45;&gt;Node16029</title>
<path fill="none" stroke="#191970" d="M272.8792,-76.3433C279.651,-73.3516 287.1352,-70.0421 294,-67 312.0786,-58.9884 332.2972,-50.0036 348.5324,-42.7826"/>
<polygon fill="#191970" stroke="#191970" points="350.3576,-45.8015 358.0717,-38.539 347.5124,-39.4058 350.3576,-45.8015"/>
</g>
<!-- Node16396&#45;&gt;Node16017 -->
<g id="edge14" class="edge">
<title>Node16396&#45;&gt;Node16017</title>
<path fill="none" stroke="#191970" d="M170.5872,-48C180.5415,-48 191.6489,-48 202.3544,-48"/>
<polygon fill="#191970" stroke="#191970" points="202.4446,-51.5001 212.4445,-48 202.4445,-44.5001 202.4446,-51.5001"/>
</g>
<!-- Node16397 -->
<g id="node12" class="node">
<title>Node16397</title>
<g id="a_node12"><a xlink:href="quickjs_8c.html#a96b34a3e22e35e0ac6d7b388e7c2b5c6" target="_top" xlink:title="JS_ToInt64Free">
<polygon fill="none" stroke="#000000" points="208,-.5 208,-19.5 294,-19.5 294,-.5 208,-.5"/>
<text text-anchor="middle" x="251" y="-7.5" font-family="Helvetica,sans-Serif" font-size="10.00" fill="#000000">JS_ToInt64Free</text>
</a>
</g>
</g>
<!-- Node16396&#45;&gt;Node16397 -->
<g id="edge11" class="edge">
<title>Node16396&#45;&gt;Node16397</title>
<path fill="none" stroke="#191970" d="M165.767,-38.411C179.9433,-33.6856 197.2366,-27.9211 212.5322,-22.8226"/>
<polygon fill="#191970" stroke="#191970" points="213.8622,-26.0687 222.2422,-19.5859 211.6485,-19.4279 213.8622,-26.0687"/>
</g>
<!-- Node16397&#45;&gt;Node15984 -->
<g id="edge12" class="edge">
<title>Node16397&#45;&gt;Node15984</title>
<path fill="none" stroke="#191970" d="M273.9326,-19.6941C280.4695,-22.5755 287.5623,-25.8157 294,-29 305.3889,-34.6333 332.7926,-49.8053 353.5296,-61.4014"/>
<polygon fill="#191970" stroke="#191970" points="352.0719,-64.5965 362.5068,-66.4306 355.4932,-58.4895 352.0719,-64.5965"/>
</g>
<!-- Node16397&#45;&gt;Node16029 -->
<g id="edge13" class="edge">
<title>Node16397&#45;&gt;Node16029</title>
<path fill="none" stroke="#191970" d="M294.1461,-16.3796C304.4232,-17.8991 315.5107,-19.5385 326.1834,-21.1166"/>
<polygon fill="#191970" stroke="#191970" points="325.8446,-24.6045 336.249,-22.6049 326.8686,-17.6798 325.8446,-24.6045"/>
</g>
</g>
</svg>
