<?xml version="1.0" encoding="UTF-8" standalone="no"?>
<!DOCTYPE svg PUBLIC "-//W3C//DTD SVG 1.1//EN"
 "http://www.w3.org/Graphics/SVG/1.1/DTD/svg11.dtd">
<!-- Generated by graphviz version 2.40.1 (20161225.0304)
 -->
<!-- Title: JS_ToQuotedString Pages: 1 -->
<svg width="504pt" height="66pt"
 viewBox="0.00 0.00 504.00 66.00" xmlns="http://www.w3.org/2000/svg" xmlns:xlink="http://www.w3.org/1999/xlink">
<g id="graph0" class="graph" transform="scale(1 1) rotate(0) translate(4 62)">
<title>JS_ToQuotedString</title>
<!-- Node233815 -->
<g id="node1" class="node">
<title>Node233815</title>
<polygon fill="#bfbfbf" stroke="#000000" points="0,-19.5 0,-38.5 102,-38.5 102,-19.5 0,-19.5"/>
<text text-anchor="middle" x="51" y="-26.5" font-family="Helvetica,sans-Serif" font-size="10.00" fill="#000000">JS_ToQuotedString</text>
</g>
<!-- Node233816 -->
<g id="node2" class="node">
<title>Node233816</title>
<g id="a_node2"><a xlink:href="quickjs_8c.html#ac35792540c2fe73eb3ca6c6a69593e26" target="_top" xlink:title="js_string___quote">
<polygon fill="none" stroke="#000000" points="152.5,-38.5 152.5,-57.5 245.5,-57.5 245.5,-38.5 152.5,-38.5"/>
<text text-anchor="middle" x="199" y="-45.5" font-family="Helvetica,sans-Serif" font-size="10.00" fill="#000000">js_string___quote</text>
</a>
</g>
</g>
<!-- Node233815&#45;&gt;Node233816 -->
<g id="edge1" class="edge">
<title>Node233815&#45;&gt;Node233816</title>
<path fill="none" stroke="#191970" d="M112.3864,-36.8807C125.6955,-38.5893 139.5654,-40.3699 152.2052,-41.9926"/>
<polygon fill="#191970" stroke="#191970" points="112.7122,-33.3939 102.3479,-35.592 111.8208,-40.3369 112.7122,-33.3939"/>
</g>
<!-- Node233817 -->
<g id="node3" class="node">
<title>Node233817</title>
<g id="a_node3"><a xlink:href="quickjs_8c.html#ac5732685af4e38c0c0122b2ab25908e1" target="_top" xlink:title="JS_ToQuotedStringFree">
<polygon fill="none" stroke="#000000" points="138,-.5 138,-19.5 260,-19.5 260,-.5 138,-.5"/>
<text text-anchor="middle" x="199" y="-7.5" font-family="Helvetica,sans-Serif" font-size="10.00" fill="#000000">JS_ToQuotedStringFree</text>
</a>
</g>
</g>
<!-- Node233815&#45;&gt;Node233817 -->
<g id="edge2" class="edge">
<title>Node233815&#45;&gt;Node233817</title>
<path fill="none" stroke="#191970" d="M112.4368,-21.1128C120.8228,-20.0363 129.4306,-18.9312 137.8121,-17.8552"/>
<polygon fill="#191970" stroke="#191970" points="111.8208,-17.6631 102.3479,-22.408 112.7122,-24.6061 111.8208,-17.6631"/>
</g>
<!-- Node233818 -->
<g id="node4" class="node">
<title>Node233818</title>
<g id="a_node4"><a xlink:href="quickjs_8c.html#a60d84dd116a9d7d912d08f298a4734dd" target="_top" xlink:title="js_json_to_str">
<polygon fill="none" stroke="#000000" points="296,-.5 296,-19.5 373,-19.5 373,-.5 296,-.5"/>
<text text-anchor="middle" x="334.5" y="-7.5" font-family="Helvetica,sans-Serif" font-size="10.00" fill="#000000">js_json_to_str</text>
</a>
</g>
</g>
<!-- Node233817&#45;&gt;Node233818 -->
<g id="edge3" class="edge">
<title>Node233817&#45;&gt;Node233818</title>
<path fill="none" stroke="#191970" d="M270.071,-10C278.9813,-10 287.8147,-10 295.953,-10"/>
<polygon fill="#191970" stroke="#191970" points="270.0114,-6.5001 260.0114,-10 270.0113,-13.5001 270.0114,-6.5001"/>
</g>
<!-- Node233818&#45;&gt;Node233818 -->
<g id="edge4" class="edge">
<title>Node233818&#45;&gt;Node233818</title>
<path fill="none" stroke="#191970" d="M312.5507,-29.0292C313.748,-34.128 321.0644,-38 334.5,-38 355.4727,-38 361.5351,-28.5653 352.6872,-19.7571"/>
<polygon fill="#191970" stroke="#191970" points="315.7962,-30.3393 316.3128,-19.7571 309.3098,-27.7074 315.7962,-30.3393"/>
</g>
<!-- Node233819 -->
<g id="node5" class="node">
<title>Node233819</title>
<g id="a_node5"><a xlink:href="quickjs_8c.html#ad2e4811daaaacb846df56bc88bd84e03" target="_top" xlink:title="js_json_stringify">
<polygon fill="none" stroke="#000000" points="409,-.5 409,-19.5 496,-19.5 496,-.5 409,-.5"/>
<text text-anchor="middle" x="452.5" y="-7.5" font-family="Helvetica,sans-Serif" font-size="10.00" fill="#000000">js_json_stringify</text>
</a>
</g>
</g>
<!-- Node233818&#45;&gt;Node233819 -->
<g id="edge5" class="edge">
<title>Node233818&#45;&gt;Node233819</title>
<path fill="none" stroke="#191970" d="M383.2886,-10C391.7688,-10 400.5392,-10 408.8702,-10"/>
<polygon fill="#191970" stroke="#191970" points="383.1376,-6.5001 373.1376,-10 383.1376,-13.5001 383.1376,-6.5001"/>
</g>
</g>
</svg>
