<?xml version="1.0" encoding="UTF-8" standalone="no"?>
<!DOCTYPE svg PUBLIC "-//W3C//DTD SVG 1.1//EN"
 "http://www.w3.org/Graphics/SVG/1.1/DTD/svg11.dtd">
<!-- Generated by graphviz version 2.40.1 (20161225.0304)
 -->
<!-- Title: js_parseInt Pages: 1 -->
<!--zoomable 636 -->
<svg id="main" version="1.1" xmlns="http://www.w3.org/2000/svg" xmlns:xlink="http://www.w3.org/1999/xlink" xml:space="preserve" onload="init(evt)">
<style type="text/css"><![CDATA[
.edge:hover path { stroke: red; }
.edge:hover polygon { stroke: red; fill: red; }
]]></style>
<script type="text/javascript"><![CDATA[
var edges = document.getElementsByTagName('g');
if (edges && edges.length) {
  for (var i=0;i<edges.length;i++) {
    if (edges[i].id.substr(0,4)=='edge') {
      edges[i].setAttribute('class','edge');
    }
  }
}
]]></script>
        <defs>
                <circle id="rim" cx="0" cy="0" r="7"/>
                <circle id="rim2" cx="0" cy="0" r="3.5"/>
                <g id="zoomPlus">
                        <use xlink:href="#rim" fill="#404040">
                                <set attributeName="fill" to="#808080" begin="zoomplus.mouseover" end="zoomplus.mouseout"/>
                        </use>
                        <path d="M-4,0h8M0,-4v8" fill="none" stroke="white" stroke-width="1.5" pointer-events="none"/>
                </g>
                <g id="zoomMin">
                        <use xlink:href="#rim" fill="#404040">
                                <set attributeName="fill" to="#808080" begin="zoomminus.mouseover" end="zoomminus.mouseout"/>
                        </use>
                        <path d="M-4,0h8" fill="none" stroke="white" stroke-width="1.5" pointer-events="none"/>
                </g>
                <g id="dirArrow">
                        <path fill="none" stroke="white" stroke-width="1.5" d="M0,-3.0v7 M-2.5,-0.5L0,-3.0L2.5,-0.5"/>
                </g>
               <g id="resetDef">
                       <use xlink:href="#rim2" fill="#404040">
                               <set attributeName="fill" to="#808080" begin="reset.mouseover" end="reset.mouseout"/>
                       </use>
               </g>
        </defs>

<script type="text/javascript">
var viewWidth = 610;
var viewHeight = 636;
var sectionId = 'dynsection-1514';
</script>
<script xlink:href="svgpan.js"/>
<svg id="graph" class="graph">
<g id="viewport">
<title>js_parseInt</title>
<!-- Node427051 -->
<g id="node1" class="node">
<title>Node427051</title>
<polygon fill="#bfbfbf" stroke="#000000" points="0,-95.5 0,-114.5 65,-114.5 65,-95.5 0,-95.5"/>
<text text-anchor="middle" x="32.5" y="-102.5" font-family="Helvetica,sans-Serif" font-size="10.00" fill="#000000">js_parseInt</text>
</g>
<!-- Node427052 -->
<g id="node2" class="node">
<title>Node427052</title>
<g id="a_node2"><a xlink:href="quickjs_8c.html#aaaa960ff4bdf4b4dd3017b555844c397" target="_top" xlink:title="is_bigint_mode">
<polygon fill="none" stroke="#000000" points="101,-190.5 101,-209.5 183,-209.5 183,-190.5 101,-190.5"/>
<text text-anchor="middle" x="142" y="-197.5" font-family="Helvetica,sans-Serif" font-size="10.00" fill="#000000">is_bigint_mode</text>
</a>
</g>
</g>
<!-- Node427051&#45;&gt;Node427052 -->
<g id="edge1" class="edge">
<title>Node427051&#45;&gt;Node427052</title>
<path fill="none" stroke="#191970" d="M39.1004,-114.5401C50.2996,-130.1537 74.413,-161.3859 101,-181 103.3082,-182.7029 105.7935,-184.3069 108.3581,-185.8056"/>
<polygon fill="#191970" stroke="#191970" points="106.7626,-188.921 117.2413,-190.4856 110.0254,-182.7279 106.7626,-188.921"/>
</g>
<!-- Node427053 -->
<g id="node3" class="node">
<title>Node427053</title>
<g id="a_node3"><a xlink:href="quickjs_8c.html#a40bcef4994dba57dfb34b6eed66daef0" target="_top" xlink:title="js_atof">
<polygon fill="none" stroke="#000000" points="119,-152.5 119,-171.5 165,-171.5 165,-152.5 119,-152.5"/>
<text text-anchor="middle" x="142" y="-159.5" font-family="Helvetica,sans-Serif" font-size="10.00" fill="#000000">js_atof</text>
</a>
</g>
</g>
<!-- Node427051&#45;&gt;Node427053 -->
<g id="edge2" class="edge">
<title>Node427051&#45;&gt;Node427053</title>
<path fill="none" stroke="#191970" d="M48.9295,-114.5545C62.6942,-122.4524 82.9357,-133.819 101,-143 104.3439,-144.6995 107.8689,-146.4269 111.3907,-148.1126"/>
<polygon fill="#191970" stroke="#191970" points="110.0399,-151.3449 120.5791,-152.4291 113.0164,-145.0092 110.0399,-151.3449"/>
</g>
<!-- Node427069 -->
<g id="node15" class="node">
<title>Node427069</title>
<g id="a_node15"><a xlink:href="quickjs_8c.html#ae0bc4f65da64810facb2cb9e476eda2e" target="_top" xlink:title="JS_FreeCString">
<polygon fill="none" stroke="#000000" points="225.5,-76.5 225.5,-95.5 311.5,-95.5 311.5,-76.5 225.5,-76.5"/>
<text text-anchor="middle" x="268.5" y="-83.5" font-family="Helvetica,sans-Serif" font-size="10.00" fill="#000000">JS_FreeCString</text>
</a>
</g>
</g>
<!-- Node427051&#45;&gt;Node427069 -->
<g id="edge15" class="edge">
<title>Node427051&#45;&gt;Node427069</title>
<path fill="none" stroke="#191970" d="M65.3148,-102.3581C104.0538,-99.2393 169.021,-94.0089 215.0539,-90.3029"/>
<polygon fill="#191970" stroke="#191970" points="215.467,-93.781 225.1539,-89.4897 214.9052,-86.8036 215.467,-93.781"/>
</g>
<!-- Node427098 -->
<g id="node18" class="node">
<title>Node427098</title>
<g id="a_node18"><a xlink:href="quickjs_8h.html#af931f06630ab719b5f82a16eb27effd1" target="_top" xlink:title="JS_ToCString">
<polygon fill="none" stroke="#000000" points="103,-114.5 103,-133.5 181,-133.5 181,-114.5 103,-114.5"/>
<text text-anchor="middle" x="142" y="-121.5" font-family="Helvetica,sans-Serif" font-size="10.00" fill="#000000">JS_ToCString</text>
</a>
</g>
</g>
<!-- Node427051&#45;&gt;Node427098 -->
<g id="edge18" class="edge">
<title>Node427051&#45;&gt;Node427098</title>
<path fill="none" stroke="#191970" d="M65.0571,-110.6492C73.7609,-112.1594 83.3654,-113.826 92.752,-115.4547"/>
<polygon fill="#191970" stroke="#191970" points="92.3478,-118.9368 102.799,-117.198 93.5446,-112.0398 92.3478,-118.9368"/>
</g>
<!-- Node427290 -->
<g id="node25" class="node">
<title>Node427290</title>
<g id="a_node25"><a xlink:href="quickjs_8c.html#a4073bd2b4f247bf6077cd956759193b9" target="_top" xlink:title="JS_ToInt32">
<polygon fill="none" stroke="#ff0000" points="235,-38.5 235,-57.5 302,-57.5 302,-38.5 235,-38.5"/>
<text text-anchor="middle" x="268.5" y="-45.5" font-family="Helvetica,sans-Serif" font-size="10.00" fill="#000000">JS_ToInt32</text>
</a>
</g>
</g>
<!-- Node427051&#45;&gt;Node427290 -->
<g id="edge27" class="edge">
<title>Node427051&#45;&gt;Node427290</title>
<path fill="none" stroke="#191970" d="M65.3148,-97.0744C106.9671,-87.0143 178.9407,-69.6308 225.0988,-58.4825"/>
<polygon fill="#191970" stroke="#191970" points="225.9214,-61.8845 234.8202,-56.1345 224.278,-55.0802 225.9214,-61.8845"/>
</g>
<!-- Node427174 -->
<g id="node26" class="node">
<title>Node427174</title>
<g id="a_node26"><a xlink:href="quickjs_8c.html#a55c008c257c5802e77f5fec646e3ebf1" target="_top" xlink:title="skip_spaces">
<polygon fill="none" stroke="#ff0000" points="106.5,-.5 106.5,-19.5 177.5,-19.5 177.5,-.5 106.5,-.5"/>
<text text-anchor="middle" x="142" y="-7.5" font-family="Helvetica,sans-Serif" font-size="10.00" fill="#000000">skip_spaces</text>
</a>
</g>
</g>
<!-- Node427051&#45;&gt;Node427174 -->
<g id="edge29" class="edge">
<title>Node427051&#45;&gt;Node427174</title>
<path fill="none" stroke="#191970" d="M40.2199,-95.4628C52.2124,-81.0268 76.4975,-53.2712 101,-34 105.1086,-30.7686 109.6957,-27.6663 114.2725,-24.8271"/>
<polygon fill="#191970" stroke="#191970" points="116.092,-27.8175 122.9327,-19.7271 112.5398,-21.7857 116.092,-27.8175"/>
</g>
<!-- Node427054 -->
<g id="node4" class="node">
<title>Node427054</title>
<g id="a_node4"><a xlink:href="quickjs_8c.html#a02b32ec1011cb060587afbc2594c6a86" target="_top" xlink:title="js_atof2">
<polygon fill="none" stroke="#000000" points="243,-418.5 243,-437.5 294,-437.5 294,-418.5 243,-418.5"/>
<text text-anchor="middle" x="268.5" y="-425.5" font-family="Helvetica,sans-Serif" font-size="10.00" fill="#000000">js_atof2</text>
</a>
</g>
</g>
<!-- Node427053&#45;&gt;Node427054 -->
<g id="edge3" class="edge">
<title>Node427053&#45;&gt;Node427054</title>
<path fill="none" stroke="#191970" d="M165.3879,-168.9994C171.7918,-171.8591 178.265,-175.7624 183,-181 244.1581,-248.6496 261.9856,-362.3055 266.8241,-408.0437"/>
<polygon fill="#191970" stroke="#191970" points="263.3536,-408.5195 267.7928,-418.1394 270.3216,-407.8508 263.3536,-408.5195"/>
</g>
<!-- Node427055 -->
<g id="node5" class="node">
<title>Node427055</title>
<g id="a_node5"><a xlink:href="libbf_8h.html#abacc1410890af049e02ebd788364ac48" target="_top" xlink:title="bf_init">
<polygon fill="none" stroke="#000000" points="377.5,-304.5 377.5,-323.5 420.5,-323.5 420.5,-304.5 377.5,-304.5"/>
<text text-anchor="middle" x="399" y="-311.5" font-family="Helvetica,sans-Serif" font-size="10.00" fill="#000000">bf_init</text>
</a>
</g>
</g>
<!-- Node427054&#45;&gt;Node427055 -->
<g id="edge4" class="edge">
<title>Node427054&#45;&gt;Node427055</title>
<path fill="none" stroke="#191970" d="M274.9454,-418.3759C287.9139,-399.6504 318.9338,-357.9679 354,-333 358.2938,-329.9427 363.1554,-327.25 368.0558,-324.925"/>
<polygon fill="#191970" stroke="#191970" points="369.5869,-328.0764 377.3885,-320.908 366.8194,-321.6467 369.5869,-328.0764"/>
</g>
<!-- Node427056 -->
<g id="node6" class="node">
<title>Node427056</title>
<g id="a_node6"><a xlink:href="libbf_8h.html#a88d3dcee173f1e4fd4e55000edb04595" target="_top" xlink:title="bf_set_inf">
<polygon fill="none" stroke="#ff0000" points="369.5,-266.5 369.5,-285.5 428.5,-285.5 428.5,-266.5 369.5,-266.5"/>
<text text-anchor="middle" x="399" y="-273.5" font-family="Helvetica,sans-Serif" font-size="10.00" fill="#000000">bf_set_inf</text>
</a>
</g>
</g>
<!-- Node427054&#45;&gt;Node427056 -->
<g id="edge5" class="edge">
<title>Node427054&#45;&gt;Node427056</title>
<path fill="none" stroke="#191970" d="M272.3463,-418.2293C282.2997,-394.1028 311.152,-331.0528 354,-295 355.9872,-293.3279 358.143,-291.784 360.3985,-290.3615"/>
<polygon fill="#191970" stroke="#191970" points="362.3197,-293.3015 369.4471,-285.4625 358.9869,-287.1457 362.3197,-293.3015"/>
</g>
<!-- Node427058 -->
<g id="node7" class="node">
<title>Node427058</title>
<g id="a_node7"><a xlink:href="quickjs_8c.html#ab3ca6381d29dea396b12acd7f755c51a" target="_top" xlink:title="is_digit">
<polygon fill="none" stroke="#000000" points="375.5,-608.5 375.5,-627.5 422.5,-627.5 422.5,-608.5 375.5,-608.5"/>
<text text-anchor="middle" x="399" y="-615.5" font-family="Helvetica,sans-Serif" font-size="10.00" fill="#000000">is_digit</text>
</a>
</g>
</g>
<!-- Node427054&#45;&gt;Node427058 -->
<g id="edge6" class="edge">
<title>Node427054&#45;&gt;Node427058</title>
<path fill="none" stroke="#191970" d="M270.7615,-437.5527C277.9575,-465.9906 302.916,-551.0914 354,-599 357.5258,-602.3067 361.7125,-605.0828 366.0909,-607.4007"/>
<polygon fill="#191970" stroke="#191970" points="364.645,-610.588 375.1972,-611.538 367.5406,-604.2149 364.645,-610.588"/>
</g>
<!-- Node427059 -->
<g id="node8" class="node">
<title>Node427059</title>
<g id="a_node8"><a xlink:href="quickjs_8c.html#a69e19dda8a93d613203e0baa06f0ed8d" target="_top" xlink:title="js_free_rt">
<polygon fill="none" stroke="#000000" points="370.5,-570.5 370.5,-589.5 427.5,-589.5 427.5,-570.5 370.5,-570.5"/>
<text text-anchor="middle" x="399" y="-577.5" font-family="Helvetica,sans-Serif" font-size="10.00" fill="#000000">js_free_rt</text>
</a>
</g>
</g>
<!-- Node427054&#45;&gt;Node427059 -->
<g id="edge7" class="edge">
<title>Node427054&#45;&gt;Node427059</title>
<path fill="none" stroke="#191970" d="M272.3463,-437.7707C282.2997,-461.8972 311.152,-524.9472 354,-561 356.2508,-562.8939 358.7179,-564.6234 361.3013,-566.1982"/>
<polygon fill="#191970" stroke="#191970" points="359.9068,-569.4192 370.3874,-570.9712 363.1622,-563.2222 359.9068,-569.4192"/>
</g>
<!-- Node427060 -->
<g id="node9" class="node">
<title>Node427060</title>
<g id="a_node9"><a xlink:href="quickjs_8c.html#aa8cb113c1ac4d2c2178315c888788051" target="_top" xlink:title="JS_NewBigFloat">
<polygon fill="none" stroke="#ff0000" points="354,-532.5 354,-551.5 444,-551.5 444,-532.5 354,-532.5"/>
<text text-anchor="middle" x="399" y="-539.5" font-family="Helvetica,sans-Serif" font-size="10.00" fill="#000000">JS_NewBigFloat</text>
</a>
</g>
</g>
<!-- Node427054&#45;&gt;Node427060 -->
<g id="edge8" class="edge">
<title>Node427054&#45;&gt;Node427060</title>
<path fill="none" stroke="#191970" d="M274.9454,-437.6241C287.9139,-456.3496 318.9338,-498.0321 354,-523 356.4761,-524.7631 359.1411,-526.4049 361.8934,-527.9249"/>
<polygon fill="#191970" stroke="#191970" points="360.3431,-531.0628 370.8577,-532.364 363.4495,-524.7898 360.3431,-531.0628"/>
</g>
<!-- Node427063 -->
<g id="node10" class="node">
<title>Node427063</title>
<g id="a_node10"><a xlink:href="quickjs_8h.html#ae91f44bd7249613050c18c7133702c67" target="_top" xlink:title="JS_NewFloat64">
<polygon fill="none" stroke="#000000" points="356,-494.5 356,-513.5 442,-513.5 442,-494.5 356,-494.5"/>
<text text-anchor="middle" x="399" y="-501.5" font-family="Helvetica,sans-Serif" font-size="10.00" fill="#000000">JS_NewFloat64</text>
</a>
</g>
</g>
<!-- Node427054&#45;&gt;Node427063 -->
<g id="edge9" class="edge">
<title>Node427054&#45;&gt;Node427063</title>
<path fill="none" stroke="#191970" d="M281.348,-437.6862C297.6723,-449.7256 326.9803,-470.4573 354,-485 357.3323,-486.7936 360.8703,-488.5391 364.4409,-490.199"/>
<polygon fill="#191970" stroke="#191970" points="363.2894,-493.5169 373.8501,-494.3666 366.1243,-487.1166 363.2894,-493.5169"/>
</g>
<!-- Node427064 -->
<g id="node11" class="node">
<title>Node427064</title>
<g id="a_node11"><a xlink:href="quickjs_8c.html#afe15bf5b8db2df1ac795c3803a1f67a6" target="_top" xlink:title="js_strtod">
<polygon fill="none" stroke="#000000" points="372,-456.5 372,-475.5 426,-475.5 426,-456.5 372,-456.5"/>
<text text-anchor="middle" x="399" y="-463.5" font-family="Helvetica,sans-Serif" font-size="10.00" fill="#000000">js_strtod</text>
</a>
</g>
</g>
<!-- Node427054&#45;&gt;Node427064 -->
<g id="edge10" class="edge">
<title>Node427054&#45;&gt;Node427064</title>
<path fill="none" stroke="#191970" d="M294.2826,-435.5076C313.6484,-441.1467 340.4437,-448.9491 362.0811,-455.2497"/>
<polygon fill="#191970" stroke="#191970" points="361.3434,-458.6802 371.9232,-458.1156 363.3005,-451.9593 361.3434,-458.6802"/>
</g>
<!-- Node427065 -->
<g id="node12" class="node">
<title>Node427065</title>
<g id="a_node12"><a xlink:href="quickjs_8c.html#aee06949e4c5ec85b3da174509b93dc65" target="_top" xlink:title="to_digit">
<polygon fill="none" stroke="#000000" points="517,-437.5 517,-456.5 565,-456.5 565,-437.5 517,-437.5"/>
<text text-anchor="middle" x="541" y="-444.5" font-family="Helvetica,sans-Serif" font-size="10.00" fill="#000000">to_digit</text>
</a>
</g>
</g>
<!-- Node427054&#45;&gt;Node427065 -->
<g id="edge14" class="edge">
<title>Node427054&#45;&gt;Node427065</title>
<path fill="none" stroke="#191970" d="M294.1361,-429.7875C343.4257,-433.2242 451.421,-440.7541 506.787,-444.6145"/>
<polygon fill="#191970" stroke="#191970" points="506.587,-448.109 516.8062,-445.3131 507.0739,-441.1259 506.587,-448.109"/>
</g>
<!-- Node427066 -->
<g id="node13" class="node">
<title>Node427066</title>
<g id="a_node13"><a xlink:href="quickjs_8c.html#a344d6c0e45d9bf3861fd9269724045a2" target="_top" xlink:title="JS_ThrowOutOfMemory">
<polygon fill="none" stroke="#ff0000" points="480,-266.5 480,-285.5 602,-285.5 602,-266.5 480,-266.5"/>
<text text-anchor="middle" x="541" y="-273.5" font-family="Helvetica,sans-Serif" font-size="10.00" fill="#000000">JS_ThrowOutOfMemory</text>
</a>
</g>
</g>
<!-- Node427054&#45;&gt;Node427066 -->
<g id="edge12" class="edge">
<title>Node427054&#45;&gt;Node427066</title>
<path fill="none" stroke="#191970" d="M294.1651,-423.5169C329.7992,-416.4668 395.3605,-400.455 444,-371 478.5561,-350.0736 510.3186,-314.5876 527.54,-293.4159"/>
<polygon fill="#191970" stroke="#191970" points="530.3078,-295.5586 533.7993,-285.5556 524.8319,-291.198 530.3078,-295.5586"/>
</g>
<!-- Node427068 -->
<g id="node14" class="node">
<title>Node427068</title>
<g id="a_node14"><a xlink:href="cutils_8h.html#ac86d2d258aae26d8f600c60e9953c9cc" target="_top" xlink:title="strstart">
<polygon fill="none" stroke="#000000" points="375.5,-342.5 375.5,-361.5 422.5,-361.5 422.5,-342.5 375.5,-342.5"/>
<text text-anchor="middle" x="399" y="-349.5" font-family="Helvetica,sans-Serif" font-size="10.00" fill="#000000">strstart</text>
</a>
</g>
</g>
<!-- Node427054&#45;&gt;Node427068 -->
<g id="edge13" class="edge">
<title>Node427054&#45;&gt;Node427068</title>
<path fill="none" stroke="#191970" d="M283.7901,-418.3418C300.7771,-407.6962 329.0971,-390.1986 354,-376 359.6535,-372.7766 365.77,-369.4258 371.6177,-366.2865"/>
<polygon fill="#191970" stroke="#191970" points="373.2929,-369.3598 380.4805,-361.5759 370.0076,-363.1786 373.2929,-369.3598"/>
</g>
<!-- Node427064&#45;&gt;Node427065 -->
<g id="edge11" class="edge">
<title>Node427064&#45;&gt;Node427065</title>
<path fill="none" stroke="#191970" d="M426.0434,-462.3815C448.9971,-459.3103 482.0561,-454.8869 506.8359,-451.5713"/>
<polygon fill="#191970" stroke="#191970" points="507.4478,-455.0207 516.8953,-450.2253 506.5194,-448.0825 507.4478,-455.0207"/>
</g>
<!-- Node427070 -->
<g id="node16" class="node">
<title>Node427070</title>
<g id="a_node16"><a xlink:href="quickjs_8h.html#afaa20c47565bc704c6c85f3d77254e7d" target="_top" xlink:title="JS_FreeValue">
<polygon fill="none" stroke="#000000" points="360,-76.5 360,-95.5 438,-95.5 438,-76.5 360,-76.5"/>
<text text-anchor="middle" x="399" y="-83.5" font-family="Helvetica,sans-Serif" font-size="10.00" fill="#000000">JS_FreeValue</text>
</a>
</g>
</g>
<!-- Node427069&#45;&gt;Node427070 -->
<g id="edge16" class="edge">
<title>Node427069&#45;&gt;Node427070</title>
<path fill="none" stroke="#191970" d="M311.5923,-86C323.7725,-86 337.1217,-86 349.6401,-86"/>
<polygon fill="#191970" stroke="#191970" points="349.9162,-89.5001 359.9162,-86 349.9161,-82.5001 349.9162,-89.5001"/>
</g>
<!-- Node427071 -->
<g id="node17" class="node">
<title>Node427071</title>
<g id="a_node17"><a xlink:href="quickjs_8c.html#aa059f309c30fd5166d16c82a97973146" target="_top" xlink:title="__JS_FreeValue">
<polygon fill="none" stroke="#ff0000" points="496.5,-76.5 496.5,-95.5 585.5,-95.5 585.5,-76.5 496.5,-76.5"/>
<text text-anchor="middle" x="541" y="-83.5" font-family="Helvetica,sans-Serif" font-size="10.00" fill="#000000">__JS_FreeValue</text>
</a>
</g>
</g>
<!-- Node427070&#45;&gt;Node427071 -->
<g id="edge17" class="edge">
<title>Node427070&#45;&gt;Node427071</title>
<path fill="none" stroke="#191970" d="M438.178,-86C452.9931,-86 470.1389,-86 486.1317,-86"/>
<polygon fill="#191970" stroke="#191970" points="486.4387,-89.5001 496.4386,-86 486.4386,-82.5001 486.4387,-89.5001"/>
</g>
<!-- Node427099 -->
<g id="node19" class="node">
<title>Node427099</title>
<g id="a_node19"><a xlink:href="quickjs_8c.html#af49e67b73f845dc1f9c3ee648dd9f95c" target="_top" xlink:title="JS_ToCStringLen2">
<polygon fill="none" stroke="#000000" points="219,-114.5 219,-133.5 318,-133.5 318,-114.5 219,-114.5"/>
<text text-anchor="middle" x="268.5" y="-121.5" font-family="Helvetica,sans-Serif" font-size="10.00" fill="#000000">JS_ToCStringLen2</text>
</a>
</g>
</g>
<!-- Node427098&#45;&gt;Node427099 -->
<g id="edge19" class="edge">
<title>Node427098&#45;&gt;Node427099</title>
<path fill="none" stroke="#191970" d="M181.332,-124C190.0671,-124 199.5159,-124 208.8594,-124"/>
<polygon fill="#191970" stroke="#191970" points="208.918,-127.5001 218.9179,-124 208.9179,-120.5001 208.918,-127.5001"/>
</g>
<!-- Node427099&#45;&gt;Node427070 -->
<g id="edge23" class="edge">
<title>Node427099&#45;&gt;Node427070</title>
<path fill="none" stroke="#191970" d="M301.4307,-114.411C318.1224,-109.5506 338.5892,-103.5909 356.4595,-98.3873"/>
<polygon fill="#191970" stroke="#191970" points="357.4572,-101.7422 366.0799,-95.5859 355.5001,-95.0213 357.4572,-101.7422"/>
</g>
<!-- Node427100 -->
<g id="node20" class="node">
<title>Node427100</title>
<g id="a_node20"><a xlink:href="quickjs_8c.html#ad303a9bc56766627b5fca41574933930" target="_top" xlink:title="js_alloc_string">
<polygon fill="none" stroke="#ff0000" points="359.5,-114.5 359.5,-133.5 438.5,-133.5 438.5,-114.5 359.5,-114.5"/>
<text text-anchor="middle" x="399" y="-121.5" font-family="Helvetica,sans-Serif" font-size="10.00" fill="#000000">js_alloc_string</text>
</a>
</g>
</g>
<!-- Node427099&#45;&gt;Node427100 -->
<g id="edge20" class="edge">
<title>Node427099&#45;&gt;Node427100</title>
<path fill="none" stroke="#191970" d="M318.2087,-124C328.2591,-124 338.8319,-124 348.8958,-124"/>
<polygon fill="#191970" stroke="#191970" points="349.1561,-127.5001 359.156,-124 349.156,-120.5001 349.1561,-127.5001"/>
</g>
<!-- Node427102 -->
<g id="node21" class="node">
<title>Node427102</title>
<g id="a_node21"><a xlink:href="quickjs_8h.html#a775522f2d084fc8fa0fcb33f390006b4" target="_top" xlink:title="JS_DupValue">
<polygon fill="none" stroke="#000000" points="360.5,-38.5 360.5,-57.5 437.5,-57.5 437.5,-38.5 360.5,-38.5"/>
<text text-anchor="middle" x="399" y="-45.5" font-family="Helvetica,sans-Serif" font-size="10.00" fill="#000000">JS_DupValue</text>
</a>
</g>
</g>
<!-- Node427099&#45;&gt;Node427102 -->
<g id="edge22" class="edge">
<title>Node427099&#45;&gt;Node427102</title>
<path fill="none" stroke="#191970" d="M299.6575,-114.4804C305.9891,-111.8856 312.4143,-108.7356 318,-105 337.3384,-92.0671 334.8777,-80.2504 354,-67 356.566,-65.2219 359.3245,-63.5624 362.1672,-62.024"/>
<polygon fill="#191970" stroke="#191970" points="363.9431,-65.0521 371.4004,-57.5262 360.8775,-58.759 363.9431,-65.0521"/>
</g>
<!-- Node427103 -->
<g id="node22" class="node">
<title>Node427103</title>
<g id="a_node22"><a xlink:href="quickjs_8h.html#ad80a83d73e9b7d872b88fbf2943aebe9" target="_top" xlink:title="JS_IsException">
<polygon fill="none" stroke="#000000" points="356,-152.5 356,-171.5 442,-171.5 442,-152.5 356,-152.5"/>
<text text-anchor="middle" x="399" y="-159.5" font-family="Helvetica,sans-Serif" font-size="10.00" fill="#000000">JS_IsException</text>
</a>
</g>
</g>
<!-- Node427099&#45;&gt;Node427103 -->
<g id="edge24" class="edge">
<title>Node427099&#45;&gt;Node427103</title>
<path fill="none" stroke="#191970" d="M301.4307,-133.589C318.1224,-138.4494 338.5892,-144.4091 356.4595,-149.6127"/>
<polygon fill="#191970" stroke="#191970" points="355.5001,-152.9787 366.0799,-152.4141 357.4572,-146.2578 355.5001,-152.9787"/>
</g>
<!-- Node427104 -->
<g id="node23" class="node">
<title>Node427104</title>
<g id="a_node23"><a xlink:href="quickjs_8c.html#a7bcb8e1a20cbc8374a5f9ba4a2088cec" target="_top" xlink:title="JS_ToString">
<polygon fill="none" stroke="#ff0000" points="363.5,-228.5 363.5,-247.5 434.5,-247.5 434.5,-228.5 363.5,-228.5"/>
<text text-anchor="middle" x="399" y="-235.5" font-family="Helvetica,sans-Serif" font-size="10.00" fill="#000000">JS_ToString</text>
</a>
</g>
</g>
<!-- Node427099&#45;&gt;Node427104 -->
<g id="edge25" class="edge">
<title>Node427099&#45;&gt;Node427104</title>
<path fill="none" stroke="#191970" d="M274.9454,-133.6241C287.9139,-152.3496 318.9338,-194.0321 354,-219 356.4761,-220.7631 359.1411,-222.4049 361.8934,-223.9249"/>
<polygon fill="#191970" stroke="#191970" points="360.3431,-227.0628 370.8577,-228.364 363.4495,-220.7898 360.3431,-227.0628"/>
</g>
<!-- Node427232 -->
<g id="node24" class="node">
<title>Node427232</title>
<g id="a_node24"><a xlink:href="cutils_8h.html#aad4e0decb15ab19e9f45b0ee69542a28" target="_top" xlink:title="unicode_to_utf8">
<polygon fill="none" stroke="#000000" points="356,-190.5 356,-209.5 442,-209.5 442,-190.5 356,-190.5"/>
<text text-anchor="middle" x="399" y="-197.5" font-family="Helvetica,sans-Serif" font-size="10.00" fill="#000000">unicode_to_utf8</text>
</a>
</g>
</g>
<!-- Node427099&#45;&gt;Node427232 -->
<g id="edge26" class="edge">
<title>Node427099&#45;&gt;Node427232</title>
<path fill="none" stroke="#191970" d="M281.348,-133.6862C297.6723,-145.7256 326.9803,-166.4573 354,-181 357.3323,-182.7936 360.8703,-184.5391 364.4409,-186.199"/>
<polygon fill="#191970" stroke="#191970" points="363.2894,-189.5169 373.8501,-190.3666 366.1243,-183.1166 363.2894,-189.5169"/>
</g>
<!-- Node427100&#45;&gt;Node427066 -->
<g id="edge21" class="edge">
<title>Node427100&#45;&gt;Node427066</title>
<path fill="none" stroke="#191970" d="M428.378,-133.6765C433.8746,-136.2221 439.3474,-139.3133 444,-143 484.6966,-175.2479 516.4858,-228.7139 531.5122,-257.0371"/>
<polygon fill="#191970" stroke="#191970" points="528.5732,-258.9733 536.2753,-266.2485 534.7911,-255.7581 528.5732,-258.9733"/>
</g>
<!-- Node427290&#45;&gt;Node427102 -->
<g id="edge28" class="edge">
<title>Node427290&#45;&gt;Node427102</title>
<path fill="none" stroke="#191970" d="M302.107,-48C316.7272,-48 334.1439,-48 350.1522,-48"/>
<polygon fill="#191970" stroke="#191970" points="350.425,-51.5001 360.4249,-48 350.4249,-44.5001 350.425,-51.5001"/>
</g>
</g>
</svg>
        <g id="navigator" transform="translate(0 0)" fill="#404254">
                <rect fill="#f2f5e9" fill-opacity="0.5" stroke="#606060" stroke-width=".5" x="0" y="0" width="60" height="60"/>
                <use id="zoomplus" xlink:href="#zoomPlus" x="17" y="9" onmousedown="handleZoom(evt,'in')"/>
                <use id="zoomminus" xlink:href="#zoomMin" x="42" y="9" onmousedown="handleZoom(evt,'out')"/>
                <use id="reset" xlink:href="#resetDef" x="30" y="36" onmousedown="handleReset()"/>
                <g id="arrowUp" xlink:href="#dirArrow" transform="translate(30 24)" onmousedown="handlePan(0,-1)">
                  <use xlink:href="#rim" fill="#404040">
                        <set attributeName="fill" to="#808080" begin="arrowUp.mouseover" end="arrowUp.mouseout"/>
                  </use>
                  <path fill="none" stroke="white" stroke-width="1.5" d="M0,-3.0v7 M-2.5,-0.5L0,-3.0L2.5,-0.5"/>
                </g>
                <g id="arrowRight" xlink:href="#dirArrow" transform="rotate(90) translate(36 -43)" onmousedown="handlePan(1,0)">
                  <use xlink:href="#rim" fill="#404040">
                        <set attributeName="fill" to="#808080" begin="arrowRight.mouseover" end="arrowRight.mouseout"/>
                  </use>
                  <path fill="none" stroke="white" stroke-width="1.5" d="M0,-3.0v7 M-2.5,-0.5L0,-3.0L2.5,-0.5"/>
                </g>
                <g id="arrowDown" xlink:href="#dirArrow" transform="rotate(180) translate(-30 -48)" onmousedown="handlePan(0,1)">
                  <use xlink:href="#rim" fill="#404040">
                        <set attributeName="fill" to="#808080" begin="arrowDown.mouseover" end="arrowDown.mouseout"/>
                  </use>
                  <path fill="none" stroke="white" stroke-width="1.5" d="M0,-3.0v7 M-2.5,-0.5L0,-3.0L2.5,-0.5"/>
                </g>
                <g id="arrowLeft" xlink:href="#dirArrow" transform="rotate(270) translate(-36 17)" onmousedown="handlePan(-1,0)">
                  <use xlink:href="#rim" fill="#404040">
                        <set attributeName="fill" to="#808080" begin="arrowLeft.mouseover" end="arrowLeft.mouseout"/>
                  </use>
                  <path fill="none" stroke="white" stroke-width="1.5" d="M0,-3.0v7 M-2.5,-0.5L0,-3.0L2.5,-0.5"/>
                </g>
        </g>
        <svg viewBox="0 0 15 15" width="100%" height="30px" preserveAspectRatio="xMaxYMin meet">
         <g id="arrow_out" transform="scale(0.3 0.3)">
          <a xlink:href="quickjs_8c_aed39bc2ad38569d153500dc6ae23cd6c_cgraph_org.svg" target="_base">
           <rect id="button" ry="5" rx="5" y="6" x="6" height="38" width="38"
                fill="#f2f5e9" fill-opacity="0.5" stroke="#606060" stroke-width="1.0"/>
           <path id="arrow"
             d="M 11.500037,31.436501 C 11.940474,20.09759 22.043105,11.32322 32.158766,21.979434 L 37.068811,17.246167 C 37.068811,17.246167 37.088388,32 37.088388,32 L 22.160133,31.978069 C 22.160133,31.978069 26.997745,27.140456 26.997745,27.140456 C 18.528582,18.264221 13.291696,25.230495 11.500037,31.436501 z"
             style="fill:#404040;"/>
          </a>
         </g>
        </svg>
</svg>
