<?xml version="1.0" encoding="UTF-8" standalone="no"?>
<!DOCTYPE svg PUBLIC "-//W3C//DTD SVG 1.1//EN"
 "http://www.w3.org/Graphics/SVG/1.1/DTD/svg11.dtd">
<!-- Generated by graphviz version 2.40.1 (20161225.0304)
 -->
<!-- Title: js_TA_cmp_generic Pages: 1 -->
<svg width="785pt" height="104pt"
 viewBox="0.00 0.00 785.00 104.00" xmlns="http://www.w3.org/2000/svg" xmlns:xlink="http://www.w3.org/1999/xlink">
<g id="graph0" class="graph" transform="scale(1 1) rotate(0) translate(4 100)">
<title>js_TA_cmp_generic</title>
<!-- Node522276 -->
<g id="node1" class="node">
<title>Node522276</title>
<polygon fill="#bfbfbf" stroke="#000000" points="0,-38.5 0,-57.5 103,-57.5 103,-38.5 0,-38.5"/>
<text text-anchor="middle" x="51.5" y="-45.5" font-family="Helvetica,sans-Serif" font-size="10.00" fill="#000000">js_TA_cmp_generic</text>
</g>
<!-- Node522277 -->
<g id="node2" class="node">
<title>Node522277</title>
<g id="a_node2"><a xlink:href="quickjs_8h.html#afaa20c47565bc704c6c85f3d77254e7d" target="_top" xlink:title="JS_FreeValue">
<polygon fill="none" stroke="#000000" points="425.5,-76.5 425.5,-95.5 503.5,-95.5 503.5,-76.5 425.5,-76.5"/>
<text text-anchor="middle" x="464.5" y="-83.5" font-family="Helvetica,sans-Serif" font-size="10.00" fill="#000000">JS_FreeValue</text>
</a>
</g>
</g>
<!-- Node522276&#45;&gt;Node522277 -->
<g id="edge1" class="edge">
<title>Node522276&#45;&gt;Node522277</title>
<path fill="none" stroke="#191970" d="M89.1723,-57.524C104.5309,-61.0544 122.5206,-64.7438 139,-67 236.3532,-80.3287 351.3404,-84.3176 415.2861,-85.5045"/>
<polygon fill="#191970" stroke="#191970" points="415.4212,-89.0072 425.4793,-85.6778 415.5402,-82.0083 415.4212,-89.0072"/>
</g>
<!-- Node522306 -->
<g id="node5" class="node">
<title>Node522306</title>
<g id="a_node5"><a xlink:href="quickjs_8h.html#ad80a83d73e9b7d872b88fbf2943aebe9" target="_top" xlink:title="JS_IsException">
<polygon fill="none" stroke="#000000" points="421.5,-.5 421.5,-19.5 507.5,-19.5 507.5,-.5 421.5,-.5"/>
<text text-anchor="middle" x="464.5" y="-7.5" font-family="Helvetica,sans-Serif" font-size="10.00" fill="#000000">JS_IsException</text>
</a>
</g>
</g>
<!-- Node522276&#45;&gt;Node522306 -->
<g id="edge4" class="edge">
<title>Node522276&#45;&gt;Node522306</title>
<path fill="none" stroke="#191970" d="M89.1723,-38.476C104.5309,-34.9456 122.5206,-31.2562 139,-29 234.2282,-15.9623 346.3289,-11.861 411.0264,-10.5773"/>
<polygon fill="#191970" stroke="#191970" points="411.4454,-14.0703 421.3797,-10.388 411.3174,-7.0715 411.4454,-14.0703"/>
</g>
<!-- Node522307 -->
<g id="node6" class="node">
<title>Node522307</title>
<g id="a_node6"><a xlink:href="quickjs_8c.html#ab1b614ef35f1cea05da0ad4927c53118" target="_top" xlink:title="JS_ToFloat64Free">
<polygon fill="none" stroke="#000000" points="139,-38.5 139,-57.5 236,-57.5 236,-38.5 139,-38.5"/>
<text text-anchor="middle" x="187.5" y="-45.5" font-family="Helvetica,sans-Serif" font-size="10.00" fill="#000000">JS_ToFloat64Free</text>
</a>
</g>
</g>
<!-- Node522276&#45;&gt;Node522307 -->
<g id="edge5" class="edge">
<title>Node522276&#45;&gt;Node522307</title>
<path fill="none" stroke="#191970" d="M103.3037,-48C111.629,-48 120.2981,-48 128.7715,-48"/>
<polygon fill="#191970" stroke="#191970" points="128.9739,-51.5001 138.9739,-48 128.9738,-44.5001 128.9739,-51.5001"/>
</g>
<!-- Node522278 -->
<g id="node3" class="node">
<title>Node522278</title>
<g id="a_node3"><a xlink:href="quickjs_8c.html#aa059f309c30fd5166d16c82a97973146" target="_top" xlink:title="__JS_FreeValue">
<polygon fill="none" stroke="#000000" points="550,-76.5 550,-95.5 639,-95.5 639,-76.5 550,-76.5"/>
<text text-anchor="middle" x="594.5" y="-83.5" font-family="Helvetica,sans-Serif" font-size="10.00" fill="#000000">__JS_FreeValue</text>
</a>
</g>
</g>
<!-- Node522277&#45;&gt;Node522278 -->
<g id="edge2" class="edge">
<title>Node522277&#45;&gt;Node522278</title>
<path fill="none" stroke="#191970" d="M503.5043,-86C514.8396,-86 527.4377,-86 539.5577,-86"/>
<polygon fill="#191970" stroke="#191970" points="539.5879,-89.5001 549.5879,-86 539.5878,-82.5001 539.5879,-89.5001"/>
</g>
<!-- Node522279 -->
<g id="node4" class="node">
<title>Node522279</title>
<g id="a_node4"><a xlink:href="quickjs_8c.html#ab1ea3fad7d138be12144a38be4d36423" target="_top" xlink:title="__JS_FreeValueRT">
<polygon fill="none" stroke="#ff0000" points="675,-76.5 675,-95.5 777,-95.5 777,-76.5 675,-76.5"/>
<text text-anchor="middle" x="726" y="-83.5" font-family="Helvetica,sans-Serif" font-size="10.00" fill="#000000">__JS_FreeValueRT</text>
</a>
</g>
</g>
<!-- Node522278&#45;&gt;Node522279 -->
<g id="edge3" class="edge">
<title>Node522278&#45;&gt;Node522279</title>
<path fill="none" stroke="#191970" d="M639.0199,-86C647.2672,-86 656.0138,-86 664.6583,-86"/>
<polygon fill="#191970" stroke="#191970" points="664.7233,-89.5001 674.7233,-86 664.7232,-82.5001 664.7233,-89.5001"/>
</g>
<!-- Node522308 -->
<g id="node7" class="node">
<title>Node522308</title>
<g id="a_node7"><a xlink:href="quickjs_8c.html#a9a2e141f21d9ea38a3a23c9b4eb6e356" target="_top" xlink:title="__JS_ToFloat64Free">
<polygon fill="none" stroke="#000000" points="272,-38.5 272,-57.5 379,-57.5 379,-38.5 272,-38.5"/>
<text text-anchor="middle" x="325.5" y="-45.5" font-family="Helvetica,sans-Serif" font-size="10.00" fill="#000000">__JS_ToFloat64Free</text>
</a>
</g>
</g>
<!-- Node522307&#45;&gt;Node522308 -->
<g id="edge6" class="edge">
<title>Node522307&#45;&gt;Node522308</title>
<path fill="none" stroke="#191970" d="M236.1536,-48C244.3186,-48 252.901,-48 261.3844,-48"/>
<polygon fill="#191970" stroke="#191970" points="261.6485,-51.5001 271.6485,-48 261.6485,-44.5001 261.6485,-51.5001"/>
</g>
<!-- Node522308&#45;&gt;Node522277 -->
<g id="edge7" class="edge">
<title>Node522308&#45;&gt;Node522277</title>
<path fill="none" stroke="#191970" d="M360.5756,-57.589C378.5191,-62.4944 400.5584,-68.5196 419.7167,-73.7571"/>
<polygon fill="#191970" stroke="#191970" points="418.8666,-77.1531 429.4357,-76.4141 420.7126,-70.4008 418.8666,-77.1531"/>
</g>
<!-- Node522308&#45;&gt;Node522306 -->
<g id="edge8" class="edge">
<title>Node522308&#45;&gt;Node522306</title>
<path fill="none" stroke="#191970" d="M360.5756,-38.411C378.5191,-33.5056 400.5584,-27.4804 419.7167,-22.2429"/>
<polygon fill="#191970" stroke="#191970" points="420.7126,-25.5992 429.4357,-19.5859 418.8666,-18.8469 420.7126,-25.5992"/>
</g>
<!-- Node522309 -->
<g id="node8" class="node">
<title>Node522309</title>
<g id="a_node8"><a xlink:href="quickjs_8c.html#ae738291483438efefca5c9fa4d269504" target="_top" xlink:title="JS_ToNumberFree">
<polygon fill="none" stroke="#ff0000" points="415,-38.5 415,-57.5 514,-57.5 514,-38.5 415,-38.5"/>
<text text-anchor="middle" x="464.5" y="-45.5" font-family="Helvetica,sans-Serif" font-size="10.00" fill="#000000">JS_ToNumberFree</text>
</a>
</g>
</g>
<!-- Node522308&#45;&gt;Node522309 -->
<g id="edge9" class="edge">
<title>Node522308&#45;&gt;Node522309</title>
<path fill="none" stroke="#191970" d="M379.241,-48C387.6052,-48 396.2907,-48 404.7778,-48"/>
<polygon fill="#191970" stroke="#191970" points="404.9969,-51.5001 414.9968,-48 404.9968,-44.5001 404.9969,-51.5001"/>
</g>
</g>
</svg>
