<?xml version="1.0" encoding="UTF-8" standalone="no"?>
<!DOCTYPE svg PUBLIC "-//W3C//DTD SVG 1.1//EN"
 "http://www.w3.org/Graphics/SVG/1.1/DTD/svg11.dtd">
<!-- Generated by graphviz version 2.40.1 (20161225.0304)
 -->
<!-- Title: JS_DefinePropertyValueValue Pages: 1 -->
<!--zoomable 1077 -->
<svg id="main" version="1.1" xmlns="http://www.w3.org/2000/svg" xmlns:xlink="http://www.w3.org/1999/xlink" xml:space="preserve" onload="init(evt)">
<style type="text/css"><![CDATA[
.edge:hover path { stroke: red; }
.edge:hover polygon { stroke: red; fill: red; }
]]></style>
<script type="text/javascript"><![CDATA[
var edges = document.getElementsByTagName('g');
if (edges && edges.length) {
  for (var i=0;i<edges.length;i++) {
    if (edges[i].id.substr(0,4)=='edge') {
      edges[i].setAttribute('class','edge');
    }
  }
}
]]></script>
        <defs>
                <circle id="rim" cx="0" cy="0" r="7"/>
                <circle id="rim2" cx="0" cy="0" r="3.5"/>
                <g id="zoomPlus">
                        <use xlink:href="#rim" fill="#404040">
                                <set attributeName="fill" to="#808080" begin="zoomplus.mouseover" end="zoomplus.mouseout"/>
                        </use>
                        <path d="M-4,0h8M0,-4v8" fill="none" stroke="white" stroke-width="1.5" pointer-events="none"/>
                </g>
                <g id="zoomMin">
                        <use xlink:href="#rim" fill="#404040">
                                <set attributeName="fill" to="#808080" begin="zoomminus.mouseover" end="zoomminus.mouseout"/>
                        </use>
                        <path d="M-4,0h8" fill="none" stroke="white" stroke-width="1.5" pointer-events="none"/>
                </g>
                <g id="dirArrow">
                        <path fill="none" stroke="white" stroke-width="1.5" d="M0,-3.0v7 M-2.5,-0.5L0,-3.0L2.5,-0.5"/>
                </g>
               <g id="resetDef">
                       <use xlink:href="#rim2" fill="#404040">
                               <set attributeName="fill" to="#808080" begin="reset.mouseover" end="reset.mouseout"/>
                       </use>
               </g>
        </defs>

<script type="text/javascript">
var viewWidth = 1101;
var viewHeight = 1077;
var sectionId = 'dynsection-576';
</script>
<script xlink:href="svgpan.js"/>
<svg id="graph" class="graph">
<g id="viewport">
<title>JS_DefinePropertyValueValue</title>
<!-- Node187702 -->
<g id="node1" class="node">
<title>Node187702</title>
<polygon fill="#bfbfbf" stroke="#000000" points="0,-927.683 0,-946.683 149,-946.683 149,-927.683 0,-927.683"/>
<text text-anchor="middle" x="74.5" y="-934.683" font-family="Helvetica,sans-Serif" font-size="10.00" fill="#000000">JS_DefinePropertyValueValue</text>
</g>
<!-- Node187703 -->
<g id="node2" class="node">
<title>Node187703</title>
<g id="a_node2"><a xlink:href="quickjs_8c.html#a0a8765bd4012467d9139bc24aabcb3ca" target="_top" xlink:title="JS_DefinePropertyValue">
<polygon fill="none" stroke="#000000" points="185,-870.683 185,-889.683 309,-889.683 309,-870.683 185,-870.683"/>
<text text-anchor="middle" x="247" y="-877.683" font-family="Helvetica,sans-Serif" font-size="10.00" fill="#000000">JS_DefinePropertyValue</text>
</a>
</g>
</g>
<!-- Node187702&#45;&gt;Node187703 -->
<g id="edge1" class="edge">
<title>Node187702&#45;&gt;Node187703</title>
<path fill="none" stroke="#191970" d="M103.3726,-927.6425C132.1055,-918.1481 176.3864,-903.5162 208.1836,-893.0093"/>
<polygon fill="#191970" stroke="#191970" points="209.6363,-896.2155 218.0332,-889.7546 207.44,-889.5689 209.6363,-896.2155"/>
</g>
<!-- Node187730 -->
<g id="node15" class="node">
<title>Node187730</title>
<g id="a_node15"><a xlink:href="quickjs_8h.html#afaa20c47565bc704c6c85f3d77254e7d" target="_top" xlink:title="JS_FreeValue">
<polygon fill="none" stroke="#ff0000" points="708.5,-794.683 708.5,-813.683 786.5,-813.683 786.5,-794.683 708.5,-794.683"/>
<text text-anchor="middle" x="747.5" y="-801.683" font-family="Helvetica,sans-Serif" font-size="10.00" fill="#000000">JS_FreeValue</text>
</a>
</g>
</g>
<!-- Node187702&#45;&gt;Node187730 -->
<g id="edge57" class="edge">
<title>Node187702&#45;&gt;Node187730</title>
<path fill="none" stroke="#191970" d="M102.32,-946.7479C190.9314,-975.3682 471.3322,-1051.5153 652,-937.183 683.5828,-917.1964 666.1433,-891.5017 688,-861.183 699.0109,-845.9091 714.4285,-831.2731 726.8105,-820.6569"/>
<polygon fill="#191970" stroke="#191970" points="729.3665,-823.0828 734.8062,-813.9909 724.8841,-817.7061 729.3665,-823.0828"/>
</g>
<!-- Node187837 -->
<g id="node26" class="node">
<title>Node187837</title>
<g id="a_node26"><a xlink:href="quickjs_8c.html#ab7fc45a99935a1c0ba50b0216d9401a9" target="_top" xlink:title="JS_FreeAtom">
<polygon fill="none" stroke="#ff0000" points="709,-870.683 709,-889.683 786,-889.683 786,-870.683 709,-870.683"/>
<text text-anchor="middle" x="747.5" y="-877.683" font-family="Helvetica,sans-Serif" font-size="10.00" fill="#000000">JS_FreeAtom</text>
</a>
</g>
</g>
<!-- Node187702&#45;&gt;Node187837 -->
<g id="edge56" class="edge">
<title>Node187702&#45;&gt;Node187837</title>
<path fill="none" stroke="#191970" d="M84.7474,-946.7325C103.1257,-963.1292 143.6479,-996.043 185,-1008.183 384.1507,-1066.6492 466.4731,-1101.2371 652,-1008.183 697.6688,-985.2771 727.0733,-929.0257 739.9655,-899.3026"/>
<polygon fill="#191970" stroke="#191970" points="743.2285,-900.571 743.8365,-889.9936 736.7651,-897.8832 743.2285,-900.571"/>
</g>
<!-- Node187839 -->
<g id="node27" class="node">
<title>Node187839</title>
<g id="a_node27"><a xlink:href="quickjs_8c.html#a859d5c989a2aaecef1653b3ac279e108" target="_top" xlink:title="JS_ValueToAtom">
<polygon fill="none" stroke="#ff0000" points="701,-718.683 701,-737.683 794,-737.683 794,-718.683 701,-718.683"/>
<text text-anchor="middle" x="747.5" y="-725.683" font-family="Helvetica,sans-Serif" font-size="10.00" fill="#000000">JS_ValueToAtom</text>
</a>
</g>
</g>
<!-- Node187702&#45;&gt;Node187839 -->
<g id="edge58" class="edge">
<title>Node187702&#45;&gt;Node187839</title>
<path fill="none" stroke="#191970" d="M84.436,-927.5902C102.6412,-910.6935 143.321,-876.0125 185,-861.183 283.0964,-826.28 558.1005,-868.1722 652,-823.183 672.9806,-813.1308 671.5954,-801.6792 688,-785.183 701.7687,-771.3374 717.7706,-756.0514 729.7096,-744.7975"/>
<polygon fill="#191970" stroke="#191970" points="732.355,-747.1147 737.2486,-737.7177 727.5631,-742.0119 732.355,-747.1147"/>
</g>
<!-- Node187704 -->
<g id="node3" class="node">
<title>Node187704</title>
<g id="a_node3"><a xlink:href="quickjs_8c.html#ab50618f1bf78e444caa6da0e3e2785d7" target="_top" xlink:title="JS_DefineProperty">
<polygon fill="none" stroke="#ff0000" points="345,-471.683 345,-490.683 444,-490.683 444,-471.683 345,-471.683"/>
<text text-anchor="middle" x="394.5" y="-478.683" font-family="Helvetica,sans-Serif" font-size="10.00" fill="#000000">JS_DefineProperty</text>
</a>
</g>
</g>
<!-- Node187703&#45;&gt;Node187704 -->
<g id="edge2" class="edge">
<title>Node187703&#45;&gt;Node187704</title>
<path fill="none" stroke="#191970" d="M250.6461,-870.32C270.0566,-817.813 361.3466,-570.8659 387.4889,-500.1486"/>
<polygon fill="#191970" stroke="#191970" points="390.7968,-501.2945 390.9814,-490.7012 384.231,-498.8672 390.7968,-501.2945"/>
</g>
<!-- Node187703&#45;&gt;Node187730 -->
<g id="edge55" class="edge">
<title>Node187703&#45;&gt;Node187730</title>
<path fill="none" stroke="#191970" d="M309.1214,-884.7763C389.8359,-888.8882 534.3468,-889.8748 652,-856.183 679.2942,-848.3669 707.478,-831.7883 726.0866,-819.4399"/>
<polygon fill="#191970" stroke="#191970" points="728.1108,-822.2959 734.4068,-813.7747 724.1711,-816.5099 728.1108,-822.2959"/>
</g>
<!-- Node187705 -->
<g id="node4" class="node">
<title>Node187705</title>
<g id="a_node4"><a xlink:href="quickjs_8c.html#a2f49d212e519c9e138d8b48148b6f955" target="_top" xlink:title="__attribute__">
<polygon fill="none" stroke="#ff0000" points="711,-680.683 711,-699.683 784,-699.683 784,-680.683 711,-680.683"/>
<text text-anchor="middle" x="747.5" y="-687.683" font-family="Helvetica,sans-Serif" font-size="10.00" fill="#000000">__attribute__</text>
</a>
</g>
</g>
<!-- Node187704&#45;&gt;Node187705 -->
<g id="edge3" class="edge">
<title>Node187704&#45;&gt;Node187705</title>
<path fill="none" stroke="#191970" d="M395.6504,-490.9667C399.9416,-522.5989 418.0977,-622.5786 480,-666.183 545.4482,-712.2851 643.429,-707.3438 700.8668,-699.089"/>
<polygon fill="#191970" stroke="#191970" points="701.4023,-702.5479 710.7584,-697.5766 700.3443,-695.6283 701.4023,-702.5479"/>
</g>
<!-- Node187763 -->
<g id="node5" class="node">
<title>Node187763</title>
<g id="a_node5"><a xlink:href="quickjs_8c.html#a288254c06a39c9fca740a7abdad2834e" target="_top" xlink:title="__JS_AtomIsTaggedInt">
<polygon fill="none" stroke="#000000" points="688,-300.683 688,-319.683 807,-319.683 807,-300.683 688,-300.683"/>
<text text-anchor="middle" x="747.5" y="-307.683" font-family="Helvetica,sans-Serif" font-size="10.00" fill="#000000">__JS_AtomIsTaggedInt</text>
</a>
</g>
</g>
<!-- Node187704&#45;&gt;Node187763 -->
<g id="edge4" class="edge">
<title>Node187704&#45;&gt;Node187763</title>
<path fill="none" stroke="#191970" d="M395.3513,-471.3729C398.7748,-438.7229 414.6925,-333.4099 480,-291.183 553.4598,-243.6849 663.185,-276.144 716.3705,-296.7777"/>
<polygon fill="#191970" stroke="#191970" points="715.3396,-300.1347 725.9244,-300.5952 717.937,-293.6345 715.3396,-300.1347"/>
</g>
<!-- Node187764 -->
<g id="node6" class="node">
<title>Node187764</title>
<g id="a_node6"><a xlink:href="quickjs_8c.html#a89f38938cee8077ce1fbba07946ed185" target="_top" xlink:title="__JS_AtomToUInt32">
<polygon fill="none" stroke="#000000" points="693.5,-174.683 693.5,-193.683 801.5,-193.683 801.5,-174.683 693.5,-174.683"/>
<text text-anchor="middle" x="747.5" y="-181.683" font-family="Helvetica,sans-Serif" font-size="10.00" fill="#000000">__JS_AtomToUInt32</text>
</a>
</g>
</g>
<!-- Node187704&#45;&gt;Node187764 -->
<g id="edge5" class="edge">
<title>Node187704&#45;&gt;Node187764</title>
<path fill="none" stroke="#191970" d="M395.111,-471.3686C398.7405,-416.6186 419.4079,-149.6567 480,-101.183 539.6931,-53.4285 586.0124,-62.5903 652,-101.183 680.1714,-117.659 662.7005,-144.5669 688,-165.183 690.246,-167.0133 692.6714,-168.6684 695.2141,-170.1651"/>
<polygon fill="#191970" stroke="#191970" points="693.712,-173.3271 704.2217,-174.6675 696.8417,-167.0657 693.712,-173.3271"/>
</g>
<!-- Node188113 -->
<g id="node7" class="node">
<title>Node188113</title>
<g id="a_node7"><a xlink:href="quickjs_8c.html#a68c7ae36cec3bf8bbf6cc0868a71cc4b" target="_top" xlink:title="check_define_prop_flags">
<polygon fill="none" stroke="#000000" points="503.5,-110.683 503.5,-129.683 628.5,-129.683 628.5,-110.683 503.5,-110.683"/>
<text text-anchor="middle" x="566" y="-117.683" font-family="Helvetica,sans-Serif" font-size="10.00" fill="#000000">check_define_prop_flags</text>
</a>
</g>
</g>
<!-- Node187704&#45;&gt;Node188113 -->
<g id="edge6" class="edge">
<title>Node187704&#45;&gt;Node188113</title>
<path fill="none" stroke="#191970" d="M395.6594,-471.4091C401.7962,-421.2618 432.0281,-193.3045 480,-144.183 484.1629,-139.9203 489.0145,-136.3966 494.2542,-133.4861"/>
<polygon fill="#191970" stroke="#191970" points="495.8571,-136.5996 503.3853,-129.1447 492.8513,-130.2777 495.8571,-136.5996"/>
</g>
<!-- Node187932 -->
<g id="node8" class="node">
<title>Node187932</title>
<g id="a_node8"><a xlink:href="quickjs_8c.html#ac93c982cb636a5430b191d104083af3e" target="_top" xlink:title="convert_fast_array\l_to_array">
<polygon fill="none" stroke="#ff0000" points="698.5,-213.183 698.5,-243.183 796.5,-243.183 796.5,-213.183 698.5,-213.183"/>
<text text-anchor="start" x="706.5" y="-231.183" font-family="Helvetica,sans-Serif" font-size="10.00" fill="#000000">convert_fast_array</text>
<text text-anchor="middle" x="747.5" y="-220.183" font-family="Helvetica,sans-Serif" font-size="10.00" fill="#000000">_to_array</text>
</a>
</g>
</g>
<!-- Node187704&#45;&gt;Node187932 -->
<g id="edge7" class="edge">
<title>Node187704&#45;&gt;Node187932</title>
<path fill="none" stroke="#191970" d="M396.0664,-471.5488C403.4184,-427.6427 435.9999,-247.2573 480,-215.183 544.6425,-168.0612 643.2176,-190.1482 700.9194,-209.7024"/>
<polygon fill="#191970" stroke="#191970" points="699.914,-213.0587 710.5088,-213.0568 702.2253,-206.4512 699.914,-213.0587"/>
</g>
<!-- Node187933 -->
<g id="node9" class="node">
<title>Node187933</title>
<g id="a_node9"><a xlink:href="quickjs_8c.html#a3dd8e78607dbc729614deacf55901b95" target="_top" xlink:title="js_shape_prepare_update">
<polygon fill="none" stroke="#ff0000" points="843,-158.683 843,-177.683 971,-177.683 971,-158.683 843,-158.683"/>
<text text-anchor="middle" x="907" y="-165.683" font-family="Helvetica,sans-Serif" font-size="10.00" fill="#000000">js_shape_prepare_update</text>
</a>
</g>
</g>
<!-- Node187704&#45;&gt;Node187933 -->
<g id="edge46" class="edge">
<title>Node187704&#45;&gt;Node187933</title>
<path fill="none" stroke="#191970" d="M395.95,-471.6109C403.1403,-425.3643 436.3751,-225.5623 480,-183.183 536.5972,-128.2018 576.3012,-161.4511 652,-139.183 668.1799,-134.4234 671.3523,-129.8846 688,-127.183 740.206,-118.7111 755.1089,-116.9583 807,-127.183 833.1044,-132.3266 860.9705,-144.351 880.6379,-154.0556"/>
<polygon fill="#191970" stroke="#191970" points="879.0885,-157.1941 889.5906,-158.593 882.2531,-150.9502 879.0885,-157.1941"/>
</g>
<!-- Node187722 -->
<g id="node10" class="node">
<title>Node187722</title>
<g id="a_node10"><a xlink:href="quickjs_8c.html#a643df594b75933007bcdbb071b5ea8c5" target="_top" xlink:title="get_shape_prop">
<polygon fill="none" stroke="#000000" points="1007,-908.683 1007,-927.683 1093,-927.683 1093,-908.683 1007,-908.683"/>
<text text-anchor="middle" x="1050" y="-915.683" font-family="Helvetica,sans-Serif" font-size="10.00" fill="#000000">get_shape_prop</text>
</a>
</g>
</g>
<!-- Node187704&#45;&gt;Node187722 -->
<g id="edge14" class="edge">
<title>Node187704&#45;&gt;Node187722</title>
<path fill="none" stroke="#191970" d="M394.6384,-490.8617C395.7571,-554.3468 405.337,-910.8165 480,-981.183 638.8199,-1130.8636 769.9908,-1060.1734 971,-975.183 994.1324,-965.4022 1017.0104,-947.7887 1032.1453,-934.7208"/>
<polygon fill="#191970" stroke="#191970" points="1034.5537,-937.2629 1039.7093,-928.0071 1029.907,-932.0276 1034.5537,-937.2629"/>
</g>
<!-- Node187721 -->
<g id="node11" class="node">
<title>Node187721</title>
<g id="a_node11"><a xlink:href="quickjs_8c.html#a06b76f5124fd985e35f4c652fd018d6d" target="_top" xlink:title="find_own_property">
<polygon fill="none" stroke="#000000" points="859,-946.683 859,-965.683 955,-965.683 955,-946.683 859,-946.683"/>
<text text-anchor="middle" x="907" y="-953.683" font-family="Helvetica,sans-Serif" font-size="10.00" fill="#000000">find_own_property</text>
</a>
</g>
</g>
<!-- Node187704&#45;&gt;Node187721 -->
<g id="edge10" class="edge">
<title>Node187704&#45;&gt;Node187721</title>
<path fill="none" stroke="#191970" d="M394.7532,-490.8399C396.551,-551.1901 409.4463,-875.9293 480,-937.183 590.8083,-1033.3852 785.2189,-992.2985 867.9514,-968.621"/>
<polygon fill="#191970" stroke="#191970" points="869.0954,-971.933 877.7064,-965.7604 867.1256,-965.2159 869.0954,-971.933"/>
</g>
<!-- Node187751 -->
<g id="node12" class="node">
<title>Node187751</title>
<g id="a_node12"><a xlink:href="quickjs_8c.html#a9e7b4bccf927d811b0f99b40b08c0472" target="_top" xlink:title="free_var_ref">
<polygon fill="none" stroke="#ff0000" points="532,-794.683 532,-813.683 600,-813.683 600,-794.683 532,-794.683"/>
<text text-anchor="middle" x="566" y="-801.683" font-family="Helvetica,sans-Serif" font-size="10.00" fill="#000000">free_var_ref</text>
</a>
</g>
</g>
<!-- Node187704&#45;&gt;Node187751 -->
<g id="edge12" class="edge">
<title>Node187704&#45;&gt;Node187751</title>
<path fill="none" stroke="#191970" d="M395.9643,-490.7674C403.2218,-537.0763 436.7228,-737.1808 480,-780.183 491.0782,-791.1909 506.7568,-797.2516 521.6989,-800.5541"/>
<polygon fill="#191970" stroke="#191970" points="521.3915,-804.0563 531.8602,-802.4268 522.6602,-797.1723 521.3915,-804.0563"/>
</g>
<!-- Node187934 -->
<g id="node13" class="node">
<title>Node187934</title>
<g id="a_node13"><a xlink:href="quickjs_8c.html#a6df3ef223d7e76a0db2c14d972dbfa77" target="_top" xlink:title="get_prop_flags">
<polygon fill="none" stroke="#000000" points="707.5,-452.683 707.5,-471.683 787.5,-471.683 787.5,-452.683 707.5,-452.683"/>
<text text-anchor="middle" x="747.5" y="-459.683" font-family="Helvetica,sans-Serif" font-size="10.00" fill="#000000">get_prop_flags</text>
</a>
</g>
</g>
<!-- Node187704&#45;&gt;Node187934 -->
<g id="edge13" class="edge">
<title>Node187704&#45;&gt;Node187934</title>
<path fill="none" stroke="#191970" d="M444.3276,-478.5011C511.3452,-474.8939 629.861,-468.5148 697.1467,-464.8932"/>
<polygon fill="#191970" stroke="#191970" points="697.6926,-468.369 707.49,-464.3365 697.3164,-461.3791 697.6926,-468.369"/>
</g>
<!-- Node187788 -->
<g id="node14" class="node">
<title>Node187788</title>
<g id="a_node14"><a xlink:href="quickjs_8c.html#ab4e100a9cde5f7ec87c92f5e766dbbab" target="_top" xlink:title="JS_AtomIsNumericIndex1">
<polygon fill="none" stroke="#ff0000" points="500.5,-224.683 500.5,-243.683 631.5,-243.683 631.5,-224.683 500.5,-224.683"/>
<text text-anchor="middle" x="566" y="-231.683" font-family="Helvetica,sans-Serif" font-size="10.00" fill="#000000">JS_AtomIsNumericIndex1</text>
</a>
</g>
</g>
<!-- Node187704&#45;&gt;Node187788 -->
<g id="edge15" class="edge">
<title>Node187704&#45;&gt;Node187788</title>
<path fill="none" stroke="#191970" d="M395.2155,-471.4502C398.2924,-436.8662 413.4596,-318.7467 480,-258.183 484.4063,-254.1725 489.4283,-250.8252 494.7816,-248.0324"/>
<polygon fill="#191970" stroke="#191970" points="496.3859,-251.1482 504.0535,-243.8368 493.4999,-244.7708 496.3859,-251.1482"/>
</g>
<!-- Node187704&#45;&gt;Node187730 -->
<g id="edge31" class="edge">
<title>Node187704&#45;&gt;Node187730</title>
<path fill="none" stroke="#191970" d="M396.2844,-490.9052C404.4623,-534.4201 439.6928,-710.7562 480,-747.183 484.0827,-750.8727 622.5904,-779.1214 698.649,-794.4165"/>
<polygon fill="#191970" stroke="#191970" points="698.0047,-797.8569 708.4981,-796.395 699.3833,-790.994 698.0047,-797.8569"/>
</g>
<!-- Node187758 -->
<g id="node16" class="node">
<title>Node187758</title>
<g id="a_node16"><a xlink:href="quickjs_8h.html#ad80a83d73e9b7d872b88fbf2943aebe9" target="_top" xlink:title="JS_IsException">
<polygon fill="none" stroke="#000000" points="864,-642.683 864,-661.683 950,-661.683 950,-642.683 864,-642.683"/>
<text text-anchor="middle" x="907" y="-649.683" font-family="Helvetica,sans-Serif" font-size="10.00" fill="#000000">JS_IsException</text>
</a>
</g>
</g>
<!-- Node187704&#45;&gt;Node187758 -->
<g id="edge32" class="edge">
<title>Node187704&#45;&gt;Node187758</title>
<path fill="none" stroke="#191970" d="M396.5438,-490.9158C403.0031,-518.929 425.8425,-599.8716 480,-633.183 541.0457,-670.7312 753.0764,-662.4331 853.4857,-656.0974"/>
<polygon fill="#191970" stroke="#191970" points="853.9624,-659.5739 863.7149,-655.4342 853.5094,-652.5886 853.9624,-659.5739"/>
</g>
<!-- Node187791 -->
<g id="node17" class="node">
<title>Node187791</title>
<g id="a_node17"><a xlink:href="quickjs_8h.html#a2050bc428da1c65ac7eb87c3fa3b0392" target="_top" xlink:title="JS_NewInt32">
<polygon fill="none" stroke="#000000" points="709.5,-136.683 709.5,-155.683 785.5,-155.683 785.5,-136.683 709.5,-136.683"/>
<text text-anchor="middle" x="747.5" y="-143.683" font-family="Helvetica,sans-Serif" font-size="10.00" fill="#000000">JS_NewInt32</text>
</a>
</g>
</g>
<!-- Node187704&#45;&gt;Node187791 -->
<g id="edge35" class="edge">
<title>Node187704&#45;&gt;Node187791</title>
<path fill="none" stroke="#191970" d="M394.8986,-471.5957C397.493,-414.4112 413.9988,-118.9986 480,-65.183 539.2462,-16.8752 580.2352,-38.8473 652,-65.183 686.3127,-77.7748 716.7453,-108.7621 733.5955,-128.5527"/>
<polygon fill="#191970" stroke="#191970" points="731.0909,-131.017 740.1523,-136.5072 736.4924,-126.5645 731.0909,-131.017"/>
</g>
<!-- Node187931 -->
<g id="node18" class="node">
<title>Node187931</title>
<g id="a_node18"><a xlink:href="quickjs_8c.html#ad5565bb5cfd5321f181573257f3b0c91" target="_top" xlink:title="JS_CreateProperty">
<polygon fill="none" stroke="#ff0000" points="516,-300.683 516,-319.683 616,-319.683 616,-300.683 516,-300.683"/>
<text text-anchor="middle" x="566" y="-307.683" font-family="Helvetica,sans-Serif" font-size="10.00" fill="#000000">JS_CreateProperty</text>
</a>
</g>
</g>
<!-- Node187704&#45;&gt;Node187931 -->
<g id="edge21" class="edge">
<title>Node187704&#45;&gt;Node187931</title>
<path fill="none" stroke="#191970" d="M397.2661,-471.5782C405.3371,-445.31 431.4145,-371.7403 480,-334.183 487.6459,-328.2726 496.6681,-323.8176 505.943,-320.4596"/>
<polygon fill="#191970" stroke="#191970" points="507.2012,-323.7317 515.6526,-317.3423 505.0614,-317.0667 507.2012,-323.7317"/>
</g>
<!-- Node187729 -->
<g id="node19" class="node">
<title>Node187729</title>
<g id="a_node19"><a xlink:href="quickjs_8h.html#a775522f2d084fc8fa0fcb33f390006b4" target="_top" xlink:title="JS_DupValue">
<polygon fill="none" stroke="#000000" points="709,-414.683 709,-433.683 786,-433.683 786,-414.683 709,-414.683"/>
<text text-anchor="middle" x="747.5" y="-421.683" font-family="Helvetica,sans-Serif" font-size="10.00" fill="#000000">JS_DupValue</text>
</a>
</g>
</g>
<!-- Node187704&#45;&gt;Node187729 -->
<g id="edge30" class="edge">
<title>Node187704&#45;&gt;Node187729</title>
<path fill="none" stroke="#191970" d="M437.4549,-471.5901C451.0295,-468.7064 466.111,-465.655 480,-463.183 556.1814,-449.6243 645.1906,-437.3536 698.9053,-430.3358"/>
<polygon fill="#191970" stroke="#191970" points="699.3725,-433.8046 708.8382,-429.0455 698.4706,-426.8629 699.3725,-433.8046"/>
</g>
<!-- Node187908 -->
<g id="node20" class="node">
<title>Node187908</title>
<g id="a_node20"><a xlink:href="quickjs_8c.html#a1ca9cdb1fa2ffc3e6506e92b200e490f" target="_top" xlink:title="JS_IsFunction">
<polygon fill="none" stroke="#000000" points="707.5,-376.683 707.5,-395.683 787.5,-395.683 787.5,-376.683 707.5,-376.683"/>
<text text-anchor="middle" x="747.5" y="-383.683" font-family="Helvetica,sans-Serif" font-size="10.00" fill="#000000">JS_IsFunction</text>
</a>
</g>
</g>
<!-- Node187704&#45;&gt;Node187908 -->
<g id="edge33" class="edge">
<title>Node187704&#45;&gt;Node187908</title>
<path fill="none" stroke="#191970" d="M398.2007,-471.4354C407.6382,-448.1658 435.0807,-389.6427 480,-367.183 556.4823,-328.9419 660.9079,-355.3512 713.8156,-373.3293"/>
<polygon fill="#191970" stroke="#191970" points="712.787,-376.6775 723.3819,-376.6807 715.1015,-370.0712 712.787,-376.6775"/>
</g>
<!-- Node187809 -->
<g id="node21" class="node">
<title>Node187809</title>
<g id="a_node21"><a xlink:href="quickjs_8h.html#a4e407128a9605afb77523e49e9a627fd" target="_top" xlink:title="JS_IsUndefined">
<polygon fill="none" stroke="#000000" points="523,-604.683 523,-623.683 609,-623.683 609,-604.683 523,-604.683"/>
<text text-anchor="middle" x="566" y="-611.683" font-family="Helvetica,sans-Serif" font-size="10.00" fill="#000000">JS_IsUndefined</text>
</a>
</g>
</g>
<!-- Node187704&#45;&gt;Node187809 -->
<g id="edge34" class="edge">
<title>Node187704&#45;&gt;Node187809</title>
<path fill="none" stroke="#191970" d="M398.8554,-490.9785C409.3303,-513.3326 438.1988,-568.25 480,-595.183 489.842,-601.5244 501.4903,-605.7721 512.9838,-608.6112"/>
<polygon fill="#191970" stroke="#191970" points="512.483,-612.0834 522.995,-610.7609 513.9527,-605.2394 512.483,-612.0834"/>
</g>
<!-- Node188114 -->
<g id="node22" class="node">
<title>Node188114</title>
<g id="a_node22"><a xlink:href="quickjs_8c.html#af2333dd9d30e60437b73af383477188c" target="_top" xlink:title="JS_NumberIsInteger">
<polygon fill="none" stroke="#ff0000" points="512.5,-566.683 512.5,-585.683 619.5,-585.683 619.5,-566.683 512.5,-566.683"/>
<text text-anchor="middle" x="566" y="-573.683" font-family="Helvetica,sans-Serif" font-size="10.00" fill="#000000">JS_NumberIsInteger</text>
</a>
</g>
</g>
<!-- Node187704&#45;&gt;Node188114 -->
<g id="edge36" class="edge">
<title>Node187704&#45;&gt;Node188114</title>
<path fill="none" stroke="#191970" d="M402.3541,-490.8276C416.223,-507.1764 446.7458,-540.2056 480,-557.183 486.9901,-560.7517 494.6344,-563.6531 502.3896,-566.0115"/>
<polygon fill="#191970" stroke="#191970" points="501.6611,-569.441 512.2312,-568.7175 503.517,-562.6915 501.6611,-569.441"/>
</g>
<!-- Node188117 -->
<g id="node23" class="node">
<title>Node188117</title>
<g id="a_node23"><a xlink:href="quickjs_8c.html#aced4796120beed3ba63dc0b234b399ab" target="_top" xlink:title="JS_NumberIsNegativeOrMinusZero">
<polygon fill="none" stroke="#000000" points="480,-528.683 480,-547.683 652,-547.683 652,-528.683 480,-528.683"/>
<text text-anchor="middle" x="566" y="-535.683" font-family="Helvetica,sans-Serif" font-size="10.00" fill="#000000">JS_NumberIsNegativeOrMinusZero</text>
</a>
</g>
</g>
<!-- Node187704&#45;&gt;Node188117 -->
<g id="edge37" class="edge">
<title>Node187704&#45;&gt;Node188117</title>
<path fill="none" stroke="#191970" d="M413.0867,-490.7504C430.1237,-499.2021 456.2375,-511.3655 480,-519.183 487.9342,-521.7932 496.398,-524.1546 504.8042,-526.2544"/>
<polygon fill="#191970" stroke="#191970" points="504.0709,-529.6777 514.6107,-528.5986 505.6984,-522.8695 504.0709,-529.6777"/>
</g>
<!-- Node188091 -->
<g id="node24" class="node">
<title>Node188091</title>
<g id="a_node24"><a xlink:href="quickjs_8c.html#a24be89a128d1cd7c0908604815b2b854" target="_top" xlink:title="js_same_value">
<polygon fill="none" stroke="#ff0000" points="525,-376.683 525,-395.683 607,-395.683 607,-376.683 525,-376.683"/>
<text text-anchor="middle" x="566" y="-383.683" font-family="Helvetica,sans-Serif" font-size="10.00" fill="#000000">js_same_value</text>
</a>
</g>
</g>
<!-- Node187704&#45;&gt;Node188091 -->
<g id="edge38" class="edge">
<title>Node187704&#45;&gt;Node188091</title>
<path fill="none" stroke="#191970" d="M403.5226,-471.4031C418.1413,-456.129 448.5524,-426.6581 480,-410.183 490.8345,-404.5069 503.1604,-400.0498 515.029,-396.5994"/>
<polygon fill="#191970" stroke="#191970" points="516.1148,-399.9314 524.8482,-393.9332 514.2805,-393.176 516.1148,-399.9314"/>
</g>
<!-- Node187952 -->
<g id="node25" class="node">
<title>Node187952</title>
<g id="a_node25"><a xlink:href="quickjs_8c.html#aee75cc1546e19479e3ccda58f3b50a96" target="_top" xlink:title="JS_SetPropertyValue">
<polygon fill="none" stroke="#ff0000" points="511,-718.683 511,-737.683 621,-737.683 621,-718.683 511,-718.683"/>
<text text-anchor="middle" x="566" y="-725.683" font-family="Helvetica,sans-Serif" font-size="10.00" fill="#000000">JS_SetPropertyValue</text>
</a>
</g>
</g>
<!-- Node187704&#45;&gt;Node187952 -->
<g id="edge40" class="edge">
<title>Node187704&#45;&gt;Node187952</title>
<path fill="none" stroke="#191970" d="M395.2155,-490.9159C398.2924,-525.4998 413.4596,-643.6193 480,-704.183 486.1124,-709.7464 493.4095,-714.0335 501.1325,-717.3345"/>
<polygon fill="#191970" stroke="#191970" points="500.1201,-720.692 510.7131,-720.8915 502.5566,-714.1297 500.1201,-720.692"/>
</g>
<!-- Node187874 -->
<g id="node28" class="node">
<title>Node187874</title>
<g id="a_node28"><a xlink:href="quickjs_8c.html#a726b00d108e0a0f4d958c36c2e426a64" target="_top" xlink:title="JS_ThrowTypeErrorNotAnObject">
<polygon fill="none" stroke="#000000" points="486,-490.683 486,-509.683 646,-509.683 646,-490.683 486,-490.683"/>
<text text-anchor="middle" x="566" y="-497.683" font-family="Helvetica,sans-Serif" font-size="10.00" fill="#000000">JS_ThrowTypeErrorNotAnObject</text>
</a>
</g>
</g>
<!-- Node187704&#45;&gt;Node187874 -->
<g id="edge47" class="edge">
<title>Node187704&#45;&gt;Node187874</title>
<path fill="none" stroke="#191970" d="M444.1049,-486.6786C454.1027,-487.7862 464.9029,-488.9827 475.7991,-490.1899"/>
<polygon fill="#191970" stroke="#191970" points="475.488,-493.6768 485.8126,-491.2993 476.2589,-486.7193 475.488,-493.6768"/>
</g>
<!-- Node188118 -->
<g id="node29" class="node">
<title>Node188118</title>
<g id="a_node29"><a xlink:href="quickjs_8c.html#a6d48937f79966a773376cc24834c663f" target="_top" xlink:title="js_update_property\l_flags">
<polygon fill="none" stroke="#000000" points="698,-20.183 698,-50.183 797,-50.183 797,-20.183 698,-20.183"/>
<text text-anchor="start" x="706" y="-38.183" font-family="Helvetica,sans-Serif" font-size="10.00" fill="#000000">js_update_property</text>
<text text-anchor="middle" x="747.5" y="-27.183" font-family="Helvetica,sans-Serif" font-size="10.00" fill="#000000">_flags</text>
</a>
</g>
</g>
<!-- Node187704&#45;&gt;Node188118 -->
<g id="edge48" class="edge">
<title>Node187704&#45;&gt;Node188118</title>
<path fill="none" stroke="#191970" d="M394.7474,-471.6524C396.5095,-412.0977 409.2254,-91.7278 480,-33.183 540.2149,16.6268 636.84,.0938 695.9969,-17.0885"/>
<polygon fill="#191970" stroke="#191970" points="695.2887,-20.5305 705.8733,-20.0644 697.3083,-13.8282 695.2887,-20.5305"/>
</g>
<!-- Node187955 -->
<g id="node30" class="node">
<title>Node187955</title>
<g id="a_node30"><a xlink:href="quickjs_8c.html#aeb73aae9c3ad7daaf7646e3f2f89245a" target="_top" xlink:title="set_array_length">
<polygon fill="none" stroke="#ff0000" points="521.5,-908.683 521.5,-927.683 610.5,-927.683 610.5,-908.683 521.5,-908.683"/>
<text text-anchor="middle" x="566" y="-915.683" font-family="Helvetica,sans-Serif" font-size="10.00" fill="#000000">set_array_length</text>
</a>
</g>
</g>
<!-- Node187704&#45;&gt;Node187955 -->
<g id="edge50" class="edge">
<title>Node187704&#45;&gt;Node187955</title>
<path fill="none" stroke="#191970" d="M395.1919,-490.7648C398.5517,-532.6314 415.7266,-702.7834 480,-823.183 496.8679,-854.7807 526.5341,-884.2091 546.2292,-901.6992"/>
<polygon fill="#191970" stroke="#191970" points="544.146,-904.5255 553.993,-908.4355 548.7335,-899.2383 544.146,-904.5255"/>
</g>
<!-- Node187932&#45;&gt;Node187933 -->
<g id="edge8" class="edge">
<title>Node187932&#45;&gt;Node187933</title>
<path fill="none" stroke="#191970" d="M787.7486,-213.0425C813.8195,-203.2352 847.4252,-190.5936 872.3141,-181.231"/>
<polygon fill="#191970" stroke="#191970" points="873.5994,-184.487 881.7268,-177.6902 871.1347,-177.9352 873.5994,-184.487"/>
</g>
<!-- Node187933&#45;&gt;Node187722 -->
<g id="edge9" class="edge">
<title>Node187933&#45;&gt;Node187722</title>
<path fill="none" stroke="#191970" d="M911.734,-178.0203C923.6885,-203.2988 955.2599,-272.8519 971,-334.183 1026.5261,-550.5401 1044.8014,-822.6107 1048.9782,-898.0137"/>
<polygon fill="#191970" stroke="#191970" points="1045.5038,-898.5886 1049.5311,-908.3881 1052.4939,-898.216 1045.5038,-898.5886"/>
</g>
<!-- Node187721&#45;&gt;Node187722 -->
<g id="edge11" class="edge">
<title>Node187721&#45;&gt;Node187722</title>
<path fill="none" stroke="#191970" d="M943.0849,-946.594C961.6296,-941.6661 984.4265,-935.6081 1004.199,-930.3539"/>
<polygon fill="#191970" stroke="#191970" points="1005.1609,-933.7198 1013.9266,-927.7689 1003.3631,-926.9546 1005.1609,-933.7198"/>
</g>
<!-- Node187788&#45;&gt;Node187763 -->
<g id="edge16" class="edge">
<title>Node187788&#45;&gt;Node187763</title>
<path fill="none" stroke="#191970" d="M612.7601,-243.6968C625.848,-247.2931 639.8172,-252.0467 652,-258.183 670.1031,-267.3013 670.4319,-276.0723 688,-286.183 694.7034,-290.0409 702.1479,-293.5717 709.4382,-296.669"/>
<polygon fill="#191970" stroke="#191970" points="708.6169,-300.1121 719.1999,-300.6139 711.2397,-293.622 708.6169,-300.1121"/>
</g>
<!-- Node187788&#45;&gt;Node187764 -->
<g id="edge17" class="edge">
<title>Node187788&#45;&gt;Node187764</title>
<path fill="none" stroke="#191970" d="M600.566,-224.6607C629.615,-216.6582 671.3266,-205.1674 702.8913,-196.4719"/>
<polygon fill="#191970" stroke="#191970" points="704.0428,-199.7851 712.7541,-193.7549 702.1836,-193.0365 704.0428,-199.7851"/>
</g>
<!-- Node187788&#45;&gt;Node187730 -->
<g id="edge18" class="edge">
<title>Node187788&#45;&gt;Node187730</title>
<path fill="none" stroke="#191970" d="M591.8222,-243.8602C611.9075,-252.8569 638.5495,-268.3385 652,-291.183 703.5737,-378.7764 644.4448,-655.3387 688,-747.183 695.9444,-763.9354 711.096,-778.3353 724.1205,-788.4708"/>
<polygon fill="#191970" stroke="#191970" points="722.1528,-791.3687 732.2752,-794.4973 726.3132,-785.7391 722.1528,-791.3687"/>
</g>
<!-- Node187788&#45;&gt;Node187758 -->
<g id="edge19" class="edge">
<title>Node187788&#45;&gt;Node187758</title>
<path fill="none" stroke="#191970" d="M618.7579,-243.7195C685.4976,-256.2289 793.4297,-278.1186 807,-291.183 857.5998,-339.8964 894.0049,-563.4147 904.1452,-632.0683"/>
<polygon fill="#191970" stroke="#191970" points="900.7395,-632.9709 905.6391,-642.3647 907.6669,-631.9657 900.7395,-632.9709"/>
</g>
<!-- Node187788&#45;&gt;Node187791 -->
<g id="edge20" class="edge">
<title>Node187788&#45;&gt;Node187791</title>
<path fill="none" stroke="#191970" d="M580.5156,-224.6644C602.8754,-210.3083 647.4173,-182.9136 688,-165.183 693.0305,-162.9852 698.3982,-160.9136 703.7731,-159.0043"/>
<polygon fill="#191970" stroke="#191970" points="705.0347,-162.2724 713.3843,-155.7505 702.79,-155.642 705.0347,-162.2724"/>
</g>
<!-- Node187931&#45;&gt;Node187705 -->
<g id="edge22" class="edge">
<title>Node187931&#45;&gt;Node187705</title>
<path fill="none" stroke="#191970" d="M588.6519,-319.7363C608.1738,-329.0881 635.7109,-345.1435 652,-367.183 656.7122,-373.5587 722.0091,-601.0488 741.8334,-670.349"/>
<polygon fill="#191970" stroke="#191970" points="738.589,-671.734 744.7032,-680.3867 745.3194,-669.8098 738.589,-671.734"/>
</g>
<!-- Node187931&#45;&gt;Node187763 -->
<g id="edge23" class="edge">
<title>Node187931&#45;&gt;Node187763</title>
<path fill="none" stroke="#191970" d="M616.0761,-310.183C635.1057,-310.183 657.1439,-310.183 677.6715,-310.183"/>
<polygon fill="#191970" stroke="#191970" points="677.9248,-313.6831 687.9248,-310.183 677.9248,-306.6831 677.9248,-313.6831"/>
</g>
<!-- Node187931&#45;&gt;Node187764 -->
<g id="edge24" class="edge">
<title>Node187931&#45;&gt;Node187764</title>
<path fill="none" stroke="#191970" d="M584.4976,-300.5303C602.9159,-290.3507 631.3462,-273.0524 652,-253.183 671.7338,-234.1987 665.8405,-219.2698 688,-203.183 690.6764,-201.24 693.5597,-199.4903 696.5625,-197.9154"/>
<polygon fill="#191970" stroke="#191970" points="698.1875,-201.0215 705.8424,-193.6967 695.2904,-194.6491 698.1875,-201.0215"/>
</g>
<!-- Node187931&#45;&gt;Node187932 -->
<g id="edge25" class="edge">
<title>Node187931&#45;&gt;Node187932</title>
<path fill="none" stroke="#191970" d="M587.1756,-300.6161C615.8462,-287.6629 667.6713,-264.2489 704.6383,-247.5475"/>
<polygon fill="#191970" stroke="#191970" points="706.4935,-250.5501 714.1655,-243.2432 703.6114,-244.1709 706.4935,-250.5501"/>
</g>
<!-- Node187931&#45;&gt;Node187722 -->
<g id="edge27" class="edge">
<title>Node187931&#45;&gt;Node187722</title>
<path fill="none" stroke="#191970" d="M616.0639,-317.4082C677.3871,-327.0369 776.846,-345.4148 807,-367.183 994.8293,-502.7774 1039.5568,-816.4336 1048.1891,-898.3308"/>
<polygon fill="#191970" stroke="#191970" points="1044.7085,-898.7005 1049.1787,-908.3061 1051.6743,-898.0094 1044.7085,-898.7005"/>
</g>
<!-- Node187931&#45;&gt;Node187934 -->
<g id="edge26" class="edge">
<title>Node187931&#45;&gt;Node187934</title>
<path fill="none" stroke="#191970" d="M586.7398,-319.813C605.7701,-329.5173 633.7026,-346.0637 652,-367.183 676.4739,-395.4313 659.8702,-418.573 688,-443.183 691.035,-445.8382 694.4437,-448.1229 698.0537,-450.0888"/>
<polygon fill="#191970" stroke="#191970" points="696.7942,-453.3616 707.343,-454.348 699.7117,-446.9986 696.7942,-453.3616"/>
</g>
<!-- Node187931&#45;&gt;Node187729 -->
<g id="edge28" class="edge">
<title>Node187931&#45;&gt;Node187729</title>
<path fill="none" stroke="#191970" d="M582.9531,-319.848C600.8943,-330.4269 629.6476,-348.3991 652,-367.183 669.8106,-382.1502 668.2984,-392.8104 688,-405.183 691.5642,-407.4213 695.4153,-409.4177 699.3844,-411.1939"/>
<polygon fill="#191970" stroke="#191970" points="698.1955,-414.4879 708.7803,-414.9496 700.7937,-407.9879 698.1955,-414.4879"/>
</g>
<!-- Node187931&#45;&gt;Node187908 -->
<g id="edge29" class="edge">
<title>Node187931&#45;&gt;Node187908</title>
<path fill="none" stroke="#191970" d="M612.7601,-319.6968C625.848,-323.2931 639.8172,-328.0467 652,-334.183 670.1031,-343.3013 670.4319,-352.0723 688,-362.183 694.7034,-366.0409 702.1479,-369.5717 709.4382,-372.669"/>
<polygon fill="#191970" stroke="#191970" points="708.6169,-376.1121 719.1999,-376.6139 711.2397,-369.622 708.6169,-376.1121"/>
</g>
<!-- Node188091&#45;&gt;Node187729 -->
<g id="edge39" class="edge">
<title>Node188091&#45;&gt;Node187729</title>
<path fill="none" stroke="#191970" d="M607.1852,-394.8058C634.5044,-400.5255 670.4683,-408.0552 699.1462,-414.0593"/>
<polygon fill="#191970" stroke="#191970" points="698.4549,-417.4904 708.9599,-416.114 699.8894,-410.639 698.4549,-417.4904"/>
</g>
<!-- Node187952&#45;&gt;Node187705 -->
<g id="edge41" class="edge">
<title>Node187952&#45;&gt;Node187705</title>
<path fill="none" stroke="#191970" d="M611.8001,-718.594C638.9909,-712.9012 673.3844,-705.7003 700.7418,-699.9726"/>
<polygon fill="#191970" stroke="#191970" points="701.7822,-703.3308 710.8527,-697.8557 700.3477,-696.4793 701.7822,-703.3308"/>
</g>
<!-- Node187952&#45;&gt;Node187730 -->
<g id="edge43" class="edge">
<title>Node187952&#45;&gt;Node187730</title>
<path fill="none" stroke="#191970" d="M607.7539,-737.7988C622.021,-741.6171 637.9231,-746.4725 652,-752.183 677.5573,-762.5507 705.0464,-778.0202 723.9392,-789.392"/>
<polygon fill="#191970" stroke="#191970" points="722.1183,-792.3811 732.4771,-794.6051 725.7662,-786.4067 722.1183,-792.3811"/>
</g>
<!-- Node187952&#45;&gt;Node187837 -->
<g id="edge42" class="edge">
<title>Node187952&#45;&gt;Node187837</title>
<path fill="none" stroke="#191970" d="M582.9531,-737.848C600.8943,-748.4269 629.6476,-766.3991 652,-785.183 669.8106,-800.1502 671.5954,-806.6868 688,-823.183 701.7687,-837.0286 717.7706,-852.3146 729.7096,-863.5685"/>
<polygon fill="#191970" stroke="#191970" points="727.5631,-866.3541 737.2486,-870.6483 732.355,-861.2513 727.5631,-866.3541"/>
</g>
<!-- Node187952&#45;&gt;Node187839 -->
<g id="edge44" class="edge">
<title>Node187952&#45;&gt;Node187839</title>
<path fill="none" stroke="#191970" d="M621.4422,-728.183C643.4014,-728.183 668.6283,-728.183 690.7175,-728.183"/>
<polygon fill="#191970" stroke="#191970" points="690.9508,-731.6831 700.9508,-728.183 690.9507,-724.6831 690.9508,-731.6831"/>
</g>
<!-- Node187839&#45;&gt;Node187758 -->
<g id="edge45" class="edge">
<title>Node187839&#45;&gt;Node187758</title>
<path fill="none" stroke="#191970" d="M781.624,-718.6344C790.0472,-715.9113 798.9571,-712.713 807,-709.183 834.3284,-697.1887 863.8049,-679.7895 883.6222,-667.374"/>
<polygon fill="#191970" stroke="#191970" points="885.6949,-670.204 892.2639,-661.8914 881.9448,-664.2932 885.6949,-670.204"/>
</g>
<!-- Node188118&#45;&gt;Node187933 -->
<g id="edge49" class="edge">
<title>Node188118&#45;&gt;Node187933</title>
<path fill="none" stroke="#191970" d="M765.7967,-50.4398C796.0139,-75.6366 856.0973,-125.7375 887.2456,-151.7107"/>
<polygon fill="#191970" stroke="#191970" points="885.2932,-154.6398 895.2149,-158.3559 889.7761,-149.2636 885.2932,-154.6398"/>
</g>
<!-- Node187955&#45;&gt;Node187705 -->
<g id="edge51" class="edge">
<title>Node187955&#45;&gt;Node187705</title>
<path fill="none" stroke="#191970" d="M577.4503,-908.5525C595.7287,-892.5979 631.5212,-858.884 652,-823.183 678.4375,-777.0943 650.4898,-746.814 688,-709.183 691.7786,-705.3922 696.3121,-702.3569 701.1689,-699.9266"/>
<polygon fill="#191970" stroke="#191970" points="702.8821,-703.0062 710.7936,-695.9593 700.2144,-696.5344 702.8821,-703.0062"/>
</g>
<!-- Node187955&#45;&gt;Node187722 -->
<g id="edge52" class="edge">
<title>Node187955&#45;&gt;Node187722</title>
<path fill="none" stroke="#191970" d="M610.666,-918.183C700.08,-918.183 900.7022,-918.183 996.7619,-918.183"/>
<polygon fill="#191970" stroke="#191970" points="996.8355,-921.6831 1006.8355,-918.183 996.8354,-914.6831 996.8355,-921.6831"/>
</g>
<!-- Node187955&#45;&gt;Node187730 -->
<g id="edge54" class="edge">
<title>Node187955&#45;&gt;Node187730</title>
<path fill="none" stroke="#191970" d="M610.9291,-910.0035C624.6641,-906.3755 639.4464,-901.2702 652,-894.183 654.2909,-892.8896 703.0198,-846.5833 729.9624,-820.9117"/>
<polygon fill="#191970" stroke="#191970" points="732.4152,-823.409 737.2386,-813.9757 727.5854,-818.3422 732.4152,-823.409"/>
</g>
<!-- Node187955&#45;&gt;Node187837 -->
<g id="edge53" class="edge">
<title>Node187955&#45;&gt;Node187837</title>
<path fill="none" stroke="#191970" d="M610.8652,-908.7897C637.5802,-903.1965 671.4944,-896.096 698.851,-890.3685"/>
<polygon fill="#191970" stroke="#191970" points="699.9154,-893.7216 708.986,-888.2465 698.4809,-886.8701 699.9154,-893.7216"/>
</g>
</g>
</svg>
        <g id="navigator" transform="translate(0 0)" fill="#404254">
                <rect fill="#f2f5e9" fill-opacity="0.5" stroke="#606060" stroke-width=".5" x="0" y="0" width="60" height="60"/>
                <use id="zoomplus" xlink:href="#zoomPlus" x="17" y="9" onmousedown="handleZoom(evt,'in')"/>
                <use id="zoomminus" xlink:href="#zoomMin" x="42" y="9" onmousedown="handleZoom(evt,'out')"/>
                <use id="reset" xlink:href="#resetDef" x="30" y="36" onmousedown="handleReset()"/>
                <g id="arrowUp" xlink:href="#dirArrow" transform="translate(30 24)" onmousedown="handlePan(0,-1)">
                  <use xlink:href="#rim" fill="#404040">
                        <set attributeName="fill" to="#808080" begin="arrowUp.mouseover" end="arrowUp.mouseout"/>
                  </use>
                  <path fill="none" stroke="white" stroke-width="1.5" d="M0,-3.0v7 M-2.5,-0.5L0,-3.0L2.5,-0.5"/>
                </g>
                <g id="arrowRight" xlink:href="#dirArrow" transform="rotate(90) translate(36 -43)" onmousedown="handlePan(1,0)">
                  <use xlink:href="#rim" fill="#404040">
                        <set attributeName="fill" to="#808080" begin="arrowRight.mouseover" end="arrowRight.mouseout"/>
                  </use>
                  <path fill="none" stroke="white" stroke-width="1.5" d="M0,-3.0v7 M-2.5,-0.5L0,-3.0L2.5,-0.5"/>
                </g>
                <g id="arrowDown" xlink:href="#dirArrow" transform="rotate(180) translate(-30 -48)" onmousedown="handlePan(0,1)">
                  <use xlink:href="#rim" fill="#404040">
                        <set attributeName="fill" to="#808080" begin="arrowDown.mouseover" end="arrowDown.mouseout"/>
                  </use>
                  <path fill="none" stroke="white" stroke-width="1.5" d="M0,-3.0v7 M-2.5,-0.5L0,-3.0L2.5,-0.5"/>
                </g>
                <g id="arrowLeft" xlink:href="#dirArrow" transform="rotate(270) translate(-36 17)" onmousedown="handlePan(-1,0)">
                  <use xlink:href="#rim" fill="#404040">
                        <set attributeName="fill" to="#808080" begin="arrowLeft.mouseover" end="arrowLeft.mouseout"/>
                  </use>
                  <path fill="none" stroke="white" stroke-width="1.5" d="M0,-3.0v7 M-2.5,-0.5L0,-3.0L2.5,-0.5"/>
                </g>
        </g>
        <svg viewBox="0 0 15 15" width="100%" height="30px" preserveAspectRatio="xMaxYMin meet">
         <g id="arrow_out" transform="scale(0.3 0.3)">
          <a xlink:href="quickjs_8c_a0c61bd5a64c743e81188bb528b78e715_cgraph_org.svg" target="_base">
           <rect id="button" ry="5" rx="5" y="6" x="6" height="38" width="38"
                fill="#f2f5e9" fill-opacity="0.5" stroke="#606060" stroke-width="1.0"/>
           <path id="arrow"
             d="M 11.500037,31.436501 C 11.940474,20.09759 22.043105,11.32322 32.158766,21.979434 L 37.068811,17.246167 C 37.068811,17.246167 37.088388,32 37.088388,32 L 22.160133,31.978069 C 22.160133,31.978069 26.997745,27.140456 26.997745,27.140456 C 18.528582,18.264221 13.291696,25.230495 11.500037,31.436501 z"
             style="fill:#404040;"/>
          </a>
         </g>
        </svg>
</svg>
