<?xml version="1.0" encoding="UTF-8" standalone="no"?>
<!DOCTYPE svg PUBLIC "-//W3C//DTD SVG 1.1//EN"
 "http://www.w3.org/Graphics/SVG/1.1/DTD/svg11.dtd">
<!-- Generated by graphviz version 2.40.1 (20161225.0304)
 -->
<!-- Title: js_dataview_constructor Pages: 1 -->
<svg width="910pt" height="625pt"
 viewBox="0.00 0.00 910.00 625.44" xmlns="http://www.w3.org/2000/svg" xmlns:xlink="http://www.w3.org/1999/xlink">
<g id="graph0" class="graph" transform="scale(1 1) rotate(0) translate(4 621.4409)">
<title>js_dataview_constructor</title>
<!-- Node448339 -->
<g id="node1" class="node">
<title>Node448339</title>
<polygon fill="#bfbfbf" stroke="#000000" points="0,-152.5 0,-171.5 122,-171.5 122,-152.5 0,-152.5"/>
<text text-anchor="middle" x="61" y="-159.5" font-family="Helvetica,sans-Serif" font-size="10.00" fill="#000000">js_dataview_constructor</text>
</g>
<!-- Node448340 -->
<g id="node2" class="node">
<title>Node448340</title>
<g id="a_node2"><a xlink:href="quickjs_8c.html#a93dbf502b17d1328c524401335f60499" target="_top" xlink:title="js_create_from_ctor">
<polygon fill="none" stroke="#000000" points="158,-272.5 158,-291.5 261,-291.5 261,-272.5 158,-272.5"/>
<text text-anchor="middle" x="209.5" y="-279.5" font-family="Helvetica,sans-Serif" font-size="10.00" fill="#000000">js_create_from_ctor</text>
</a>
</g>
</g>
<!-- Node448339&#45;&gt;Node448340 -->
<g id="edge1" class="edge">
<title>Node448339&#45;&gt;Node448340</title>
<path fill="none" stroke="#191970" d="M72.9014,-171.6173C98.3172,-192.1553 158.1299,-240.4888 189.5003,-265.8387"/>
<polygon fill="#191970" stroke="#191970" points="187.5642,-268.774 197.542,-272.3369 191.9638,-263.3294 187.5642,-268.774"/>
</g>
<!-- Node448341 -->
<g id="node3" class="node">
<title>Node448341</title>
<g id="a_node3"><a xlink:href="quickjs_8h.html#a775522f2d084fc8fa0fcb33f390006b4" target="_top" xlink:title="JS_DupValue">
<polygon fill="none" stroke="#000000" points="665.5,-411.5 665.5,-430.5 742.5,-430.5 742.5,-411.5 665.5,-411.5"/>
<text text-anchor="middle" x="704" y="-418.5" font-family="Helvetica,sans-Serif" font-size="10.00" fill="#000000">JS_DupValue</text>
</a>
</g>
</g>
<!-- Node448339&#45;&gt;Node448341 -->
<g id="edge15" class="edge">
<title>Node448339&#45;&gt;Node448341</title>
<path fill="none" stroke="#191970" d="M66.0187,-171.7049C87.2557,-211.5163 174.3149,-362.4911 297,-411 418.4072,-459.0036 576.4967,-442.9427 655.133,-430.2742"/>
<polygon fill="#191970" stroke="#191970" points="655.9435,-433.6875 665.2339,-428.5944 654.7951,-426.7824 655.9435,-433.6875"/>
</g>
<!-- Node448342 -->
<g id="node4" class="node">
<title>Node448342</title>
<g id="a_node4"><a xlink:href="quickjs_8h.html#afaa20c47565bc704c6c85f3d77254e7d" target="_top" xlink:title="JS_FreeValue">
<polygon fill="none" stroke="#000000" points="665,-190.5 665,-209.5 743,-209.5 743,-190.5 665,-190.5"/>
<text text-anchor="middle" x="704" y="-197.5" font-family="Helvetica,sans-Serif" font-size="10.00" fill="#000000">JS_FreeValue</text>
</a>
</g>
</g>
<!-- Node448339&#45;&gt;Node448342 -->
<g id="edge16" class="edge">
<title>Node448339&#45;&gt;Node448342</title>
<path fill="none" stroke="#191970" d="M122.0414,-155.7314C169.643,-151.1711 237.4461,-145.3934 297,-143 360.5043,-140.4478 376.8033,-136.2553 440,-143 518.8977,-151.4204 608.8418,-173.6141 660.7556,-187.6934"/>
<polygon fill="#191970" stroke="#191970" points="660.0473,-191.1283 670.6167,-190.3946 661.8967,-184.377 660.0473,-191.1283"/>
</g>
<!-- Node448561 -->
<g id="node8" class="node">
<title>Node448561</title>
<g id="a_node8"><a xlink:href="quickjs_8c.html#a033dd3ebd29c4eb9f0baff1dd0fec0b1" target="_top" xlink:title="JS_ThrowTypeErrorDetached\lArrayBuffer">
<polygon fill="none" stroke="#000000" points="631,-106 631,-136 777,-136 777,-106 631,-106"/>
<text text-anchor="start" x="639" y="-124" font-family="Helvetica,sans-Serif" font-size="10.00" fill="#000000">JS_ThrowTypeErrorDetached</text>
<text text-anchor="middle" x="704" y="-113" font-family="Helvetica,sans-Serif" font-size="10.00" fill="#000000">ArrayBuffer</text>
</a>
</g>
</g>
<!-- Node448339&#45;&gt;Node448561 -->
<g id="edge22" class="edge">
<title>Node448339&#45;&gt;Node448561</title>
<path fill="none" stroke="#191970" d="M97.5855,-152.4802C115.6415,-148.1927 137.8265,-143.533 158,-141 320.9755,-120.5363 513.2911,-118.6059 620.6853,-119.4992"/>
<polygon fill="#191970" stroke="#191970" points="620.777,-123.0001 630.8094,-119.5939 620.8426,-116.0004 620.777,-123.0001"/>
</g>
<!-- Node448380 -->
<g id="node9" class="node">
<title>Node448380</title>
<g id="a_node9"><a xlink:href="quickjs_8h.html#ad80a83d73e9b7d872b88fbf2943aebe9" target="_top" xlink:title="JS_IsException">
<polygon fill="none" stroke="#000000" points="661,-544.5 661,-563.5 747,-563.5 747,-544.5 661,-544.5"/>
<text text-anchor="middle" x="704" y="-551.5" font-family="Helvetica,sans-Serif" font-size="10.00" fill="#000000">JS_IsException</text>
</a>
</g>
</g>
<!-- Node448339&#45;&gt;Node448380 -->
<g id="edge20" class="edge">
<title>Node448339&#45;&gt;Node448380</title>
<path fill="none" stroke="#191970" d="M62.2128,-171.7531C69.026,-225.0325 104.1646,-480.4905 158,-535 296.8821,-675.621 571.4218,-599.9084 668.7619,-566.8718"/>
<polygon fill="#191970" stroke="#191970" points="670.1078,-570.1099 678.4166,-563.5362 667.8219,-563.4937 670.1078,-570.1099"/>
</g>
<!-- Node448537 -->
<g id="node11" class="node">
<title>Node448537</title>
<g id="a_node11"><a xlink:href="quickjs_8h.html#a4e407128a9605afb77523e49e9a627fd" target="_top" xlink:title="JS_IsUndefined">
<polygon fill="none" stroke="#000000" points="325.5,-152.5 325.5,-171.5 411.5,-171.5 411.5,-152.5 325.5,-152.5"/>
<text text-anchor="middle" x="368.5" y="-159.5" font-family="Helvetica,sans-Serif" font-size="10.00" fill="#000000">JS_IsUndefined</text>
</a>
</g>
</g>
<!-- Node448339&#45;&gt;Node448537 -->
<g id="edge21" class="edge">
<title>Node448339&#45;&gt;Node448537</title>
<path fill="none" stroke="#191970" d="M122.1198,-162C178.5584,-162 261.5464,-162 315.3105,-162"/>
<polygon fill="#191970" stroke="#191970" points="315.3266,-165.5001 325.3265,-162 315.3265,-158.5001 315.3266,-165.5001"/>
</g>
<!-- Node448757 -->
<g id="node14" class="node">
<title>Node448757</title>
<g id="a_node14"><a xlink:href="quickjs_8c.html#a939f8b5d288d1f52e00280a42a29b9b4" target="_top" xlink:title="js_get_array_buffer">
<polygon fill="none" stroke="#000000" points="159.5,-38.5 159.5,-57.5 259.5,-57.5 259.5,-38.5 159.5,-38.5"/>
<text text-anchor="middle" x="209.5" y="-45.5" font-family="Helvetica,sans-Serif" font-size="10.00" fill="#000000">js_get_array_buffer</text>
</a>
</g>
</g>
<!-- Node448339&#45;&gt;Node448757 -->
<g id="edge17" class="edge">
<title>Node448339&#45;&gt;Node448757</title>
<path fill="none" stroke="#191970" d="M69.5429,-152.2757C85.5151,-134.5333 121.5903,-96.486 158,-72 163.4791,-68.3153 169.6139,-64.9166 175.6869,-61.9063"/>
<polygon fill="#191970" stroke="#191970" points="177.5038,-64.9204 185.0762,-57.5103 174.5356,-58.5808 177.5038,-64.9204"/>
</g>
<!-- Node448759 -->
<g id="node17" class="node">
<title>Node448759</title>
<g id="a_node17"><a xlink:href="quickjs_8c.html#ad52f50dfe0e0e4aeae7003b97c4c0765" target="_top" xlink:title="JS_ToIndex">
<polygon fill="none" stroke="#000000" points="175,-506.5 175,-525.5 244,-525.5 244,-506.5 175,-506.5"/>
<text text-anchor="middle" x="209.5" y="-513.5" font-family="Helvetica,sans-Serif" font-size="10.00" fill="#000000">JS_ToIndex</text>
</a>
</g>
</g>
<!-- Node448339&#45;&gt;Node448759 -->
<g id="edge23" class="edge">
<title>Node448339&#45;&gt;Node448759</title>
<path fill="none" stroke="#191970" d="M62.8302,-171.604C70.316,-209.4548 100.9437,-351.2594 158,-454 167.2732,-470.6982 181.2992,-487.2163 192.3731,-498.9989"/>
<polygon fill="#191970" stroke="#191970" points="190.0065,-501.5865 199.4733,-506.3436 195.0393,-496.7212 190.0065,-501.5865"/>
</g>
<!-- Node448357 -->
<g id="node20" class="node">
<title>Node448357</title>
<g id="a_node20"><a xlink:href="list_8h.html#a3a5d0733570b2fafc18f4c71a2968ea5" target="_top" xlink:title="list_add_tail">
<polygon fill="none" stroke="#ff0000" points="175.5,-.5 175.5,-19.5 243.5,-19.5 243.5,-.5 175.5,-.5"/>
<text text-anchor="middle" x="209.5" y="-7.5" font-family="Helvetica,sans-Serif" font-size="10.00" fill="#000000">list_add_tail</text>
</a>
</g>
</g>
<!-- Node448339&#45;&gt;Node448357 -->
<g id="edge28" class="edge">
<title>Node448339&#45;&gt;Node448357</title>
<path fill="none" stroke="#191970" d="M65.4498,-152.4727C77.174,-128.3584 111.2556,-64.3182 158,-29 160.5045,-27.1077 163.217,-25.3879 166.0426,-23.8273"/>
<polygon fill="#191970" stroke="#191970" points="167.8332,-26.8503 175.3361,-19.3698 164.8059,-20.5388 167.8332,-26.8503"/>
</g>
<!-- Node448340&#45;&gt;Node448341 -->
<g id="edge2" class="edge">
<title>Node448340&#45;&gt;Node448341</title>
<path fill="none" stroke="#191970" d="M214.4757,-291.6515C225.8439,-312.5671 255.9433,-361.886 297,-383 358.3625,-414.5567 561.344,-420.0981 655.3873,-420.9387"/>
<polygon fill="#191970" stroke="#191970" points="655.4651,-424.4393 665.4912,-421.0146 655.5177,-417.4395 655.4651,-424.4393"/>
</g>
<!-- Node448340&#45;&gt;Node448342 -->
<g id="edge3" class="edge">
<title>Node448340&#45;&gt;Node448342</title>
<path fill="none" stroke="#191970" d="M218.8963,-272.3032C233.8392,-257.6222 264.6526,-230.273 297,-219 419.8986,-176.1701 576.3731,-185.0903 654.6787,-193.4976"/>
<polygon fill="#191970" stroke="#191970" points="654.4163,-196.99 664.7432,-194.6222 655.1937,-190.0333 654.4163,-196.99"/>
</g>
<!-- Node448371 -->
<g id="node6" class="node">
<title>Node448371</title>
<g id="a_node6"><a xlink:href="quickjs_8h.html#a89b7c8686c7eee70b86be722ee4730ad" target="_top" xlink:title="JS_GetProperty">
<polygon fill="none" stroke="#000000" points="325.5,-228.5 325.5,-247.5 411.5,-247.5 411.5,-228.5 325.5,-228.5"/>
<text text-anchor="middle" x="368.5" y="-235.5" font-family="Helvetica,sans-Serif" font-size="10.00" fill="#000000">JS_GetProperty</text>
</a>
</g>
</g>
<!-- Node448340&#45;&gt;Node448371 -->
<g id="edge5" class="edge">
<title>Node448340&#45;&gt;Node448371</title>
<path fill="none" stroke="#191970" d="M244.0006,-272.4527C267.5449,-265.9373 298.9406,-257.2492 324.3133,-250.2278"/>
<polygon fill="#191970" stroke="#191970" points="325.3624,-253.5691 334.0667,-247.5287 323.4954,-246.8226 325.3624,-253.5691"/>
</g>
<!-- Node448340&#45;&gt;Node448380 -->
<g id="edge10" class="edge">
<title>Node448340&#45;&gt;Node448380</title>
<path fill="none" stroke="#191970" d="M213.4504,-291.6354C223.6688,-315.3982 253.2638,-377.3125 297,-411 355.3929,-455.9768 564.5901,-516.3257 658.1781,-541.8209"/>
<polygon fill="#191970" stroke="#191970" points="657.3676,-545.2274 667.9351,-544.4665 659.1996,-538.4714 657.3676,-545.2274"/>
</g>
<!-- Node448613 -->
<g id="node10" class="node">
<title>Node448613</title>
<g id="a_node10"><a xlink:href="quickjs_8h.html#a3d68fe446df2d9c7d1900b16371bff5b" target="_top" xlink:title="JS_IsObject">
<polygon fill="none" stroke="#000000" points="333,-354.5 333,-373.5 404,-373.5 404,-354.5 333,-354.5"/>
<text text-anchor="middle" x="368.5" y="-361.5" font-family="Helvetica,sans-Serif" font-size="10.00" fill="#000000">JS_IsObject</text>
</a>
</g>
</g>
<!-- Node448340&#45;&gt;Node448613 -->
<g id="edge11" class="edge">
<title>Node448340&#45;&gt;Node448613</title>
<path fill="none" stroke="#191970" d="M220.0034,-291.5509C235.6571,-305.2986 266.5424,-330.5912 297,-345 305.0982,-348.8311 314.0913,-351.985 322.8905,-354.5463"/>
<polygon fill="#191970" stroke="#191970" points="322.118,-357.963 332.6847,-357.1909 323.9428,-351.205 322.118,-357.963"/>
</g>
<!-- Node448340&#45;&gt;Node448537 -->
<g id="edge12" class="edge">
<title>Node448340&#45;&gt;Node448537</title>
<path fill="none" stroke="#191970" d="M215.7621,-272.3364C228.6762,-253.1462 260.1634,-210.0167 297,-186 303.6325,-181.6757 311.121,-178.0552 318.691,-175.0474"/>
<polygon fill="#191970" stroke="#191970" points="320.0679,-178.2708 328.2649,-171.5581 317.671,-171.694 320.0679,-178.2708"/>
</g>
<!-- Node448500 -->
<g id="node12" class="node">
<title>Node448500</title>
<g id="a_node12"><a xlink:href="quickjs_8c.html#a73738c650f11459db0d7af3dcdf8316b" target="_top" xlink:title="JS_NewObjectProtoClass">
<polygon fill="none" stroke="#ff0000" points="303,-316.5 303,-335.5 434,-335.5 434,-316.5 303,-316.5"/>
<text text-anchor="middle" x="368.5" y="-323.5" font-family="Helvetica,sans-Serif" font-size="10.00" fill="#000000">JS_NewObjectProtoClass</text>
</a>
</g>
</g>
<!-- Node448340&#45;&gt;Node448500 -->
<g id="edge13" class="edge">
<title>Node448340&#45;&gt;Node448500</title>
<path fill="none" stroke="#191970" d="M242.2846,-291.523C258.6942,-296.2498 278.8756,-302.0031 297,-307 305.1876,-309.2573 313.9159,-311.6162 322.3593,-313.8735"/>
<polygon fill="#191970" stroke="#191970" points="321.5269,-317.2737 332.0908,-316.4646 323.3281,-310.5094 321.5269,-317.2737"/>
</g>
<!-- Node448536 -->
<g id="node13" class="node">
<title>Node448536</title>
<g id="a_node13"><a xlink:href="quickjs_8c.html#a199d64ccbee0a90d93e1ad12745417f6" target="_top" xlink:title="JS_ThrowTypeErrorRevoked\lProxy">
<polygon fill="none" stroke="#000000" points="297,-267 297,-297 440,-297 440,-267 297,-267"/>
<text text-anchor="start" x="305" y="-285" font-family="Helvetica,sans-Serif" font-size="10.00" fill="#000000">JS_ThrowTypeErrorRevoked</text>
<text text-anchor="middle" x="368.5" y="-274" font-family="Helvetica,sans-Serif" font-size="10.00" fill="#000000">Proxy</text>
</a>
</g>
</g>
<!-- Node448340&#45;&gt;Node448536 -->
<g id="edge14" class="edge">
<title>Node448340&#45;&gt;Node448536</title>
<path fill="none" stroke="#191970" d="M261.1227,-282C269.3347,-282 278.0011,-282 286.7042,-282"/>
<polygon fill="#191970" stroke="#191970" points="286.9128,-285.5001 296.9127,-282 286.9127,-278.5001 286.9128,-285.5001"/>
</g>
<!-- Node448343 -->
<g id="node5" class="node">
<title>Node448343</title>
<g id="a_node5"><a xlink:href="quickjs_8c.html#aa059f309c30fd5166d16c82a97973146" target="_top" xlink:title="__JS_FreeValue">
<polygon fill="none" stroke="#ff0000" points="813,-190.5 813,-209.5 902,-209.5 902,-190.5 813,-190.5"/>
<text text-anchor="middle" x="857.5" y="-197.5" font-family="Helvetica,sans-Serif" font-size="10.00" fill="#000000">__JS_FreeValue</text>
</a>
</g>
</g>
<!-- Node448342&#45;&gt;Node448343 -->
<g id="edge4" class="edge">
<title>Node448342&#45;&gt;Node448343</title>
<path fill="none" stroke="#191970" d="M743.1317,-200C761.2096,-200 782.9868,-200 802.6659,-200"/>
<polygon fill="#191970" stroke="#191970" points="802.7348,-203.5001 812.7348,-200 802.7348,-196.5001 802.7348,-203.5001"/>
</g>
<!-- Node448372 -->
<g id="node7" class="node">
<title>Node448372</title>
<g id="a_node7"><a xlink:href="quickjs_8c.html#a5762c57ae0c9937e986040c01222833a" target="_top" xlink:title="JS_GetPropertyInternal">
<polygon fill="none" stroke="#ff0000" points="476,-228.5 476,-247.5 595,-247.5 595,-228.5 476,-228.5"/>
<text text-anchor="middle" x="535.5" y="-235.5" font-family="Helvetica,sans-Serif" font-size="10.00" fill="#000000">JS_GetPropertyInternal</text>
</a>
</g>
</g>
<!-- Node448371&#45;&gt;Node448372 -->
<g id="edge6" class="edge">
<title>Node448371&#45;&gt;Node448372</title>
<path fill="none" stroke="#191970" d="M411.5066,-238C428.0597,-238 447.4141,-238 465.843,-238"/>
<polygon fill="#191970" stroke="#191970" points="465.9625,-241.5001 475.9624,-238 465.9624,-234.5001 465.9625,-241.5001"/>
</g>
<!-- Node448372&#45;&gt;Node448341 -->
<g id="edge7" class="edge">
<title>Node448372&#45;&gt;Node448341</title>
<path fill="none" stroke="#191970" d="M544.322,-247.5812C571.2663,-276.8441 652.7726,-365.3643 687.7602,-403.3628"/>
<polygon fill="#191970" stroke="#191970" points="685.5082,-406.0841 694.8566,-411.0698 690.6578,-401.3425 685.5082,-406.0841"/>
</g>
<!-- Node448372&#45;&gt;Node448342 -->
<g id="edge8" class="edge">
<title>Node448372&#45;&gt;Node448342</title>
<path fill="none" stroke="#191970" d="M578.0197,-228.411C601.4981,-223.1162 630.7611,-216.5168 655.1728,-211.0115"/>
<polygon fill="#191970" stroke="#191970" points="655.9739,-214.4188 664.959,-208.8045 654.4339,-207.5903 655.9739,-214.4188"/>
</g>
<!-- Node448372&#45;&gt;Node448561 -->
<g id="edge9" class="edge">
<title>Node448372&#45;&gt;Node448561</title>
<path fill="none" stroke="#191970" d="M549.2891,-228.4254C576.3578,-209.6299 637.0093,-167.5158 673.8185,-141.9569"/>
<polygon fill="#191970" stroke="#191970" points="675.9642,-144.728 682.182,-136.1496 671.9718,-138.9782 675.9642,-144.728"/>
</g>
<!-- Node448758 -->
<g id="node15" class="node">
<title>Node448758</title>
<g id="a_node15"><a xlink:href="quickjs_8c.html#ab0f713d7a2440dbb2673810323a9a78d" target="_top" xlink:title="JS_ThrowTypeErrorInvalid\lClass">
<polygon fill="none" stroke="#000000" points="302.5,-27 302.5,-57 434.5,-57 434.5,-27 302.5,-27"/>
<text text-anchor="start" x="310.5" y="-45" font-family="Helvetica,sans-Serif" font-size="10.00" fill="#000000">JS_ThrowTypeErrorInvalid</text>
<text text-anchor="middle" x="368.5" y="-34" font-family="Helvetica,sans-Serif" font-size="10.00" fill="#000000">Class</text>
</a>
</g>
</g>
<!-- Node448757&#45;&gt;Node448758 -->
<g id="edge18" class="edge">
<title>Node448757&#45;&gt;Node448758</title>
<path fill="none" stroke="#191970" d="M259.8086,-46.1016C270.1178,-45.7125 281.1876,-45.2948 292.1763,-44.8801"/>
<polygon fill="#191970" stroke="#191970" points="292.3602,-48.3758 302.221,-44.5011 292.0961,-41.3808 292.3602,-48.3758"/>
</g>
<!-- Node448485 -->
<g id="node16" class="node">
<title>Node448485</title>
<g id="a_node16"><a xlink:href="quickjs_8c.html#ab18048ab5eea3e47109a5473f78515bc" target="_top" xlink:title="JS_AtomGetStr">
<polygon fill="none" stroke="#ff0000" points="492.5,-32.5 492.5,-51.5 578.5,-51.5 578.5,-32.5 492.5,-32.5"/>
<text text-anchor="middle" x="535.5" y="-39.5" font-family="Helvetica,sans-Serif" font-size="10.00" fill="#000000">JS_AtomGetStr</text>
</a>
</g>
</g>
<!-- Node448758&#45;&gt;Node448485 -->
<g id="edge19" class="edge">
<title>Node448758&#45;&gt;Node448485</title>
<path fill="none" stroke="#191970" d="M434.5028,-42C450.207,-42 466.7756,-42 481.8497,-42"/>
<polygon fill="#191970" stroke="#191970" points="482.0179,-45.5001 492.0179,-42 482.0178,-38.5001 482.0179,-45.5001"/>
</g>
<!-- Node448760 -->
<g id="node18" class="node">
<title>Node448760</title>
<g id="a_node18"><a xlink:href="quickjs_8c.html#aee6a60a9e9f3c0d9827d5cb0e15c23b4" target="_top" xlink:title="JS_ToInt64Sat">
<polygon fill="none" stroke="#000000" points="327.5,-544.5 327.5,-563.5 409.5,-563.5 409.5,-544.5 327.5,-544.5"/>
<text text-anchor="middle" x="368.5" y="-551.5" font-family="Helvetica,sans-Serif" font-size="10.00" fill="#000000">JS_ToInt64Sat</text>
</a>
</g>
</g>
<!-- Node448759&#45;&gt;Node448760 -->
<g id="edge24" class="edge">
<title>Node448759&#45;&gt;Node448760</title>
<path fill="none" stroke="#191970" d="M244.0006,-524.2454C265.9155,-529.483 294.6327,-536.3462 318.9636,-542.1611"/>
<polygon fill="#191970" stroke="#191970" points="318.2017,-545.5775 328.7413,-544.4979 319.8288,-538.7692 318.2017,-545.5775"/>
</g>
<!-- Node448760&#45;&gt;Node448341 -->
<g id="edge25" class="edge">
<title>Node448760&#45;&gt;Node448341</title>
<path fill="none" stroke="#191970" d="M392.6283,-544.435C451.4857,-521.1025 602.5519,-461.2164 670.2734,-434.37"/>
<polygon fill="#191970" stroke="#191970" points="671.6332,-437.596 679.6395,-430.6571 669.0535,-431.0887 671.6332,-437.596"/>
</g>
<!-- Node448608 -->
<g id="node19" class="node">
<title>Node448608</title>
<g id="a_node19"><a xlink:href="quickjs_8c.html#a8c94da482e7e46bf333be67ff97e58c1" target="_top" xlink:title="JS_ToInt64SatFree">
<polygon fill="none" stroke="#ff0000" points="485,-544.5 485,-563.5 586,-563.5 586,-544.5 485,-544.5"/>
<text text-anchor="middle" x="535.5" y="-551.5" font-family="Helvetica,sans-Serif" font-size="10.00" fill="#000000">JS_ToInt64SatFree</text>
</a>
</g>
</g>
<!-- Node448760&#45;&gt;Node448608 -->
<g id="edge26" class="edge">
<title>Node448760&#45;&gt;Node448608</title>
<path fill="none" stroke="#191970" d="M409.7809,-554C429.376,-554 453.1806,-554 474.7824,-554"/>
<polygon fill="#191970" stroke="#191970" points="474.8545,-557.5001 484.8544,-554 474.8544,-550.5001 474.8545,-557.5001"/>
</g>
<!-- Node448608&#45;&gt;Node448380 -->
<g id="edge27" class="edge">
<title>Node448608&#45;&gt;Node448380</title>
<path fill="none" stroke="#191970" d="M586.0556,-554C606.4559,-554 630.0119,-554 650.683,-554"/>
<polygon fill="#191970" stroke="#191970" points="650.884,-557.5001 660.8839,-554 650.8839,-550.5001 650.884,-557.5001"/>
</g>
</g>
</svg>
