<?xml version="1.0" encoding="UTF-8" standalone="no"?>
<!DOCTYPE svg PUBLIC "-//W3C//DTD SVG 1.1//EN"
 "http://www.w3.org/Graphics/SVG/1.1/DTD/svg11.dtd">
<!-- Generated by graphviz version 2.40.1 (20161225.0304)
 -->
<!-- Title: JS_GetOwnPropertyNamesInternal Pages: 1 -->
<!--zoomable 800 -->
<svg id="main" version="1.1" xmlns="http://www.w3.org/2000/svg" xmlns:xlink="http://www.w3.org/1999/xlink" xml:space="preserve" onload="init(evt)">
<style type="text/css"><![CDATA[
.edge:hover path { stroke: red; }
.edge:hover polygon { stroke: red; fill: red; }
]]></style>
<script type="text/javascript"><![CDATA[
var edges = document.getElementsByTagName('g');
if (edges && edges.length) {
  for (var i=0;i<edges.length;i++) {
    if (edges[i].id.substr(0,4)=='edge') {
      edges[i].setAttribute('class','edge');
    }
  }
}
]]></script>
        <defs>
                <circle id="rim" cx="0" cy="0" r="7"/>
                <circle id="rim2" cx="0" cy="0" r="3.5"/>
                <g id="zoomPlus">
                        <use xlink:href="#rim" fill="#404040">
                                <set attributeName="fill" to="#808080" begin="zoomplus.mouseover" end="zoomplus.mouseout"/>
                        </use>
                        <path d="M-4,0h8M0,-4v8" fill="none" stroke="white" stroke-width="1.5" pointer-events="none"/>
                </g>
                <g id="zoomMin">
                        <use xlink:href="#rim" fill="#404040">
                                <set attributeName="fill" to="#808080" begin="zoomminus.mouseover" end="zoomminus.mouseout"/>
                        </use>
                        <path d="M-4,0h8" fill="none" stroke="white" stroke-width="1.5" pointer-events="none"/>
                </g>
                <g id="dirArrow">
                        <path fill="none" stroke="white" stroke-width="1.5" d="M0,-3.0v7 M-2.5,-0.5L0,-3.0L2.5,-0.5"/>
                </g>
               <g id="resetDef">
                       <use xlink:href="#rim2" fill="#404040">
                               <set attributeName="fill" to="#808080" begin="reset.mouseover" end="reset.mouseout"/>
                       </use>
               </g>
        </defs>

<script type="text/javascript">
var viewWidth = 707;
var viewHeight = 800;
var sectionId = 'dynsection-524';
</script>
<script xlink:href="svgpan.js"/>
<svg id="graph" class="graph">
<g id="viewport">
<title>JS_GetOwnPropertyNamesInternal</title>
<!-- Node164018 -->
<g id="node1" class="node">
<title>Node164018</title>
<polygon fill="#bfbfbf" stroke="#000000" points="0,-304.5 0,-323.5 170,-323.5 170,-304.5 0,-304.5"/>
<text text-anchor="middle" x="85" y="-311.5" font-family="Helvetica,sans-Serif" font-size="10.00" fill="#000000">JS_GetOwnPropertyNamesInternal</text>
</g>
<!-- Node164019 -->
<g id="node2" class="node">
<title>Node164019</title>
<g id="a_node2"><a xlink:href="quickjs_8c.html#a877fcb7651d95b411ce70e62b7f4a1f0" target="_top" xlink:title="__JS_AtomFromUInt32">
<polygon fill="none" stroke="#000000" points="216,-772.5 216,-791.5 335,-791.5 335,-772.5 216,-772.5"/>
<text text-anchor="middle" x="275.5" y="-779.5" font-family="Helvetica,sans-Serif" font-size="10.00" fill="#000000">__JS_AtomFromUInt32</text>
</a>
</g>
</g>
<!-- Node164018&#45;&gt;Node164019 -->
<g id="edge1" class="edge">
<title>Node164018&#45;&gt;Node164019</title>
<path fill="none" stroke="#191970" d="M86.3765,-323.5661C94.9582,-381.9925 142.8163,-690.4724 206,-758 209.614,-761.8624 213.8789,-765.1033 218.4894,-767.8226"/>
<polygon fill="#191970" stroke="#191970" points="217.1925,-771.0875 227.7013,-772.4355 220.3268,-764.8283 217.1925,-771.0875"/>
</g>
<!-- Node164020 -->
<g id="node3" class="node">
<title>Node164020</title>
<g id="a_node3"><a xlink:href="quickjs_8c.html#a643df594b75933007bcdbb071b5ea8c5" target="_top" xlink:title="get_shape_prop">
<polygon fill="none" stroke="#000000" points="605,-620.5 605,-639.5 691,-639.5 691,-620.5 605,-620.5"/>
<text text-anchor="middle" x="648" y="-627.5" font-family="Helvetica,sans-Serif" font-size="10.00" fill="#000000">get_shape_prop</text>
</a>
</g>
</g>
<!-- Node164018&#45;&gt;Node164020 -->
<g id="edge2" class="edge">
<title>Node164018&#45;&gt;Node164020</title>
<path fill="none" stroke="#191970" d="M85.3146,-323.8029C87.3237,-369.6991 101.9208,-565.4171 206,-668 319.8098,-780.1736 414.744,-789.3799 561,-725 596.4623,-709.39 623.7719,-671.3983 637.7219,-648.4682"/>
<polygon fill="#191970" stroke="#191970" points="640.839,-650.0713 642.8673,-639.6724 634.7969,-646.5367 640.839,-650.0713"/>
</g>
<!-- Node164021 -->
<g id="node4" class="node">
<title>Node164021</title>
<g id="a_node4"><a xlink:href="quickjs_8c.html#aff3fe39c77b412895d2260471aafe5aa" target="_top" xlink:title="JS_AtomGetKind">
<polygon fill="none" stroke="#000000" points="229.5,-639.5 229.5,-658.5 321.5,-658.5 321.5,-639.5 229.5,-639.5"/>
<text text-anchor="middle" x="275.5" y="-646.5" font-family="Helvetica,sans-Serif" font-size="10.00" fill="#000000">JS_AtomGetKind</text>
</a>
</g>
</g>
<!-- Node164018&#45;&gt;Node164021 -->
<g id="edge3" class="edge">
<title>Node164018&#45;&gt;Node164021</title>
<path fill="none" stroke="#191970" d="M86.0999,-323.6882C91.2943,-365.1033 116.9669,-529.282 206,-620 212.2545,-626.3729 220.1184,-631.4094 228.2878,-635.3691"/>
<polygon fill="#191970" stroke="#191970" points="227.0047,-638.6276 237.5716,-639.3959 229.7902,-632.2056 227.0047,-638.6276"/>
</g>
<!-- Node164023 -->
<g id="node6" class="node">
<title>Node164023</title>
<g id="a_node6"><a xlink:href="quickjs_8c.html#aae16c5cdefab4e9dd9866993a7f0150e" target="_top" xlink:title="JS_AtomIsArrayIndex">
<polygon fill="none" stroke="#000000" points="219,-591.5 219,-610.5 332,-610.5 332,-591.5 219,-591.5"/>
<text text-anchor="middle" x="275.5" y="-598.5" font-family="Helvetica,sans-Serif" font-size="10.00" fill="#000000">JS_AtomIsArrayIndex</text>
</a>
</g>
</g>
<!-- Node164018&#45;&gt;Node164023 -->
<g id="edge5" class="edge">
<title>Node164018&#45;&gt;Node164023</title>
<path fill="none" stroke="#191970" d="M88.7045,-323.8306C101.455,-356.8617 146.0611,-465.9898 206,-541 219.7252,-558.1763 238.8357,-574.2614 253.5442,-585.4449"/>
<polygon fill="#191970" stroke="#191970" points="251.5044,-588.2896 261.6217,-591.4345 255.6738,-582.6667 251.5044,-588.2896"/>
</g>
<!-- Node164027 -->
<g id="node9" class="node">
<title>Node164027</title>
<g id="a_node9"><a xlink:href="quickjs_8c.html#abbf44eaeace1104a6bef718fbf5700fe" target="_top" xlink:title="JS_DupAtom">
<polygon fill="none" stroke="#000000" points="238,-228.5 238,-247.5 313,-247.5 313,-228.5 238,-228.5"/>
<text text-anchor="middle" x="275.5" y="-235.5" font-family="Helvetica,sans-Serif" font-size="10.00" fill="#000000">JS_DupAtom</text>
</a>
</g>
</g>
<!-- Node164018&#45;&gt;Node164027 -->
<g id="edge9" class="edge">
<title>Node164018&#45;&gt;Node164027</title>
<path fill="none" stroke="#191970" d="M106.225,-304.3166C130.2339,-293.495 170.6022,-275.6968 206,-262 215.8216,-258.1996 226.5308,-254.3562 236.5355,-250.8921"/>
<polygon fill="#191970" stroke="#191970" points="237.9176,-254.1186 246.2464,-247.5702 235.6518,-247.4954 237.9176,-254.1186"/>
</g>
<!-- Node164029 -->
<g id="node11" class="node">
<title>Node164029</title>
<g id="a_node11"><a xlink:href="quickjs_8c.html#a80e54dcf9ac687d4ccc2f90273565f30" target="_top" xlink:title="js_free">
<polygon fill="none" stroke="#000000" points="448,-114.5 448,-133.5 494,-133.5 494,-114.5 448,-114.5"/>
<text text-anchor="middle" x="471" y="-121.5" font-family="Helvetica,sans-Serif" font-size="10.00" fill="#000000">js_free</text>
</a>
</g>
</g>
<!-- Node164018&#45;&gt;Node164029 -->
<g id="edge11" class="edge">
<title>Node164018&#45;&gt;Node164029</title>
<path fill="none" stroke="#191970" d="M88.383,-304.3667C99.5649,-274.1575 138.5181,-181.0378 206,-143 280.0552,-101.257 384.8312,-109.7705 437.7111,-117.8135"/>
<polygon fill="#191970" stroke="#191970" points="437.4447,-121.3157 447.8744,-119.4525 438.5592,-114.405 437.4447,-121.3157"/>
</g>
<!-- Node164031 -->
<g id="node13" class="node">
<title>Node164031</title>
<g id="a_node13"><a xlink:href="quickjs_8c.html#adfe21c674d998ca6586b7f7400352dc4" target="_top" xlink:title="js_free_desc">
<polygon fill="none" stroke="#000000" points="239.5,-512.5 239.5,-531.5 311.5,-531.5 311.5,-512.5 239.5,-512.5"/>
<text text-anchor="middle" x="275.5" y="-519.5" font-family="Helvetica,sans-Serif" font-size="10.00" fill="#000000">js_free_desc</text>
</a>
</g>
</g>
<!-- Node164018&#45;&gt;Node164031 -->
<g id="edge13" class="edge">
<title>Node164018&#45;&gt;Node164031</title>
<path fill="none" stroke="#191970" d="M92.9832,-323.6484C112.0253,-346.5554 161.8217,-405.8285 206,-453 223.2594,-471.4287 243.8813,-491.6951 258.157,-505.4661"/>
<polygon fill="#191970" stroke="#191970" points="255.7362,-507.9939 265.3734,-512.3955 260.5845,-502.9447 255.7362,-507.9939"/>
</g>
<!-- Node164053 -->
<g id="node15" class="node">
<title>Node164053</title>
<g id="a_node15"><a xlink:href="quickjs_8c.html#a6b42cd922447e1eb6bfc52761895a174" target="_top" xlink:title="js_free_prop_enum">
<polygon fill="none" stroke="#000000" points="226,-152.5 226,-171.5 325,-171.5 325,-152.5 226,-152.5"/>
<text text-anchor="middle" x="275.5" y="-159.5" font-family="Helvetica,sans-Serif" font-size="10.00" fill="#000000">js_free_prop_enum</text>
</a>
</g>
</g>
<!-- Node164018&#45;&gt;Node164053 -->
<g id="edge15" class="edge">
<title>Node164018&#45;&gt;Node164053</title>
<path fill="none" stroke="#191970" d="M91.4608,-304.4881C107.8687,-281.0211 153.5813,-219.8212 206,-186 212.6369,-181.7178 220.1256,-178.1036 227.6666,-175.0846"/>
<polygon fill="#191970" stroke="#191970" points="229.0154,-178.3176 237.1864,-171.5734 226.5931,-171.7501 229.0154,-178.3176"/>
</g>
<!-- Node164054 -->
<g id="node16" class="node">
<title>Node164054</title>
<g id="a_node16"><a xlink:href="quickjs_8c.html#ab7fc45a99935a1c0ba50b0216d9401a9" target="_top" xlink:title="JS_FreeAtom">
<polygon fill="none" stroke="#000000" points="432.5,-152.5 432.5,-171.5 509.5,-171.5 509.5,-152.5 432.5,-152.5"/>
<text text-anchor="middle" x="471" y="-159.5" font-family="Helvetica,sans-Serif" font-size="10.00" fill="#000000">JS_FreeAtom</text>
</a>
</g>
</g>
<!-- Node164018&#45;&gt;Node164054 -->
<g id="edge20" class="edge">
<title>Node164018&#45;&gt;Node164054</title>
<path fill="none" stroke="#191970" d="M94.015,-304.4552C112.8581,-285.1108 158.6103,-241.237 206,-219 243.8103,-201.258 356.5908,-180.7159 422.1987,-169.7866"/>
<polygon fill="#191970" stroke="#191970" points="423.0089,-173.2002 432.3046,-168.1169 421.8678,-166.2938 423.0089,-173.2002"/>
</g>
<!-- Node164055 -->
<g id="node18" class="node">
<title>Node164055</title>
<g id="a_node18"><a xlink:href="quickjs_8c.html#ad13892c0a0f11781b566808876658099" target="_top" xlink:title="JS_GetOwnPropertyInternal">
<polygon fill="none" stroke="#000000" points="206,-424.5 206,-443.5 345,-443.5 345,-424.5 206,-424.5"/>
<text text-anchor="middle" x="275.5" y="-431.5" font-family="Helvetica,sans-Serif" font-size="10.00" fill="#000000">JS_GetOwnPropertyInternal</text>
</a>
</g>
</g>
<!-- Node164018&#45;&gt;Node164055 -->
<g id="edge21" class="edge">
<title>Node164018&#45;&gt;Node164055</title>
<path fill="none" stroke="#191970" d="M96.0647,-323.6252C116.6522,-341.2063 162.6919,-379.0013 206,-404 216.6519,-410.1486 228.8039,-415.811 239.9356,-420.5209"/>
<polygon fill="#191970" stroke="#191970" points="238.812,-423.843 249.392,-424.403 241.4704,-417.3674 238.812,-423.843"/>
</g>
<!-- Node164395 -->
<g id="node24" class="node">
<title>Node164395</title>
<g id="a_node24"><a xlink:href="quickjs_8h.html#aaab426b47c95d00479b7355b1cf7f56c" target="_top" xlink:title="JS_IsUninitialized">
<polygon fill="none" stroke="#000000" points="423.5,-354.5 423.5,-373.5 518.5,-373.5 518.5,-354.5 423.5,-354.5"/>
<text text-anchor="middle" x="471" y="-361.5" font-family="Helvetica,sans-Serif" font-size="10.00" fill="#000000">JS_IsUninitialized</text>
</a>
</g>
</g>
<!-- Node164018&#45;&gt;Node164395 -->
<g id="edge35" class="edge">
<title>Node164018&#45;&gt;Node164395</title>
<path fill="none" stroke="#191970" d="M118.6182,-323.5514C142.7427,-330.0374 176.1301,-338.2667 206,-343 276.8713,-354.2305 359.4054,-359.5656 413.2938,-362.0239"/>
<polygon fill="#191970" stroke="#191970" points="413.2016,-365.5231 423.3452,-362.4641 413.508,-358.5298 413.2016,-365.5231"/>
</g>
<!-- Node164396 -->
<g id="node25" class="node">
<title>Node164396</title>
<g id="a_node25"><a xlink:href="quickjs_8c.html#a75ac132a3af4de01e1fadeb0bede6ee7" target="_top" xlink:title="JS_ThrowReferenceErrorUninitialized">
<polygon fill="none" stroke="#ff0000" points="381,-316.5 381,-335.5 561,-335.5 561,-316.5 381,-316.5"/>
<text text-anchor="middle" x="471" y="-323.5" font-family="Helvetica,sans-Serif" font-size="10.00" fill="#000000">JS_ThrowReferenceErrorUninitialized</text>
</a>
</g>
</g>
<!-- Node164018&#45;&gt;Node164396 -->
<g id="edge36" class="edge">
<title>Node164018&#45;&gt;Node164396</title>
<path fill="none" stroke="#191970" d="M155.2622,-323.5158C171.8671,-325.3799 189.5326,-327.0505 206,-328 260.359,-331.1343 321.0926,-330.9432 370.6898,-329.8316"/>
<polygon fill="#191970" stroke="#191970" points="370.8632,-333.3285 380.7763,-329.5895 370.6952,-326.3305 370.8632,-333.3285"/>
</g>
<!-- Node164244 -->
<g id="node26" class="node">
<title>Node164244</title>
<g id="a_node26"><a xlink:href="quickjs_8c.html#a033dd3ebd29c4eb9f0baff1dd0fec0b1" target="_top" xlink:title="JS_ThrowTypeErrorDetached\lArrayBuffer">
<polygon fill="none" stroke="#000000" points="398,-267 398,-297 544,-297 544,-267 398,-267"/>
<text text-anchor="start" x="406" y="-285" font-family="Helvetica,sans-Serif" font-size="10.00" fill="#000000">JS_ThrowTypeErrorDetached</text>
<text text-anchor="middle" x="471" y="-274" font-family="Helvetica,sans-Serif" font-size="10.00" fill="#000000">ArrayBuffer</text>
</a>
</g>
</g>
<!-- Node164018&#45;&gt;Node164244 -->
<g id="edge37" class="edge">
<title>Node164018&#45;&gt;Node164244</title>
<path fill="none" stroke="#191970" d="M170.1872,-306.9378C234.8853,-301.5743 323.3826,-294.2377 387.6294,-288.9116"/>
<polygon fill="#191970" stroke="#191970" points="388.0484,-292.3889 397.7251,-288.0746 387.4701,-285.4128 388.0484,-292.3889"/>
</g>
<!-- Node164243 -->
<g id="node27" class="node">
<title>Node164243</title>
<g id="a_node27"><a xlink:href="quickjs_8c.html#a869fa88a646c0a1914ec2e559b193b5c" target="_top" xlink:title="typed_array_is_detached">
<polygon fill="none" stroke="#000000" points="408.5,-228.5 408.5,-247.5 533.5,-247.5 533.5,-228.5 408.5,-228.5"/>
<text text-anchor="middle" x="471" y="-235.5" font-family="Helvetica,sans-Serif" font-size="10.00" fill="#000000">typed_array_is_detached</text>
</a>
</g>
</g>
<!-- Node164018&#45;&gt;Node164243 -->
<g id="edge41" class="edge">
<title>Node164018&#45;&gt;Node164243</title>
<path fill="none" stroke="#191970" d="M132.9857,-304.4588C155.1992,-300.048 181.9422,-294.7463 206,-290 276.8688,-276.0185 358.4198,-260.0314 412.1258,-249.5169"/>
<polygon fill="#191970" stroke="#191970" points="413.0111,-252.9102 422.1524,-247.5542 411.6663,-246.0405 413.0111,-252.9102"/>
</g>
<!-- Node164434 -->
<g id="node28" class="node">
<title>Node164434</title>
<g id="a_node28"><a xlink:href="quickjs_8c.html#a8bb06965d4c98d9e1220bf31b4970780" target="_top" xlink:title="num_keys_cmp">
<polygon fill="none" stroke="#000000" points="232.5,-76.5 232.5,-95.5 318.5,-95.5 318.5,-76.5 232.5,-76.5"/>
<text text-anchor="middle" x="275.5" y="-83.5" font-family="Helvetica,sans-Serif" font-size="10.00" fill="#000000">num_keys_cmp</text>
</a>
</g>
</g>
<!-- Node164018&#45;&gt;Node164434 -->
<g id="edge38" class="edge">
<title>Node164018&#45;&gt;Node164434</title>
<path fill="none" stroke="#191970" d="M88.0366,-304.283C98.6746,-271.8077 137.3809,-165.9417 206,-110 211.0644,-105.8712 216.8822,-102.434 222.9496,-99.5769"/>
<polygon fill="#191970" stroke="#191970" points="224.7327,-102.6257 232.6172,-95.5486 222.0403,-96.1642 224.7327,-102.6257"/>
</g>
<!-- Node164356 -->
<g id="node29" class="node">
<title>Node164356</title>
<g id="a_node29"><a xlink:href="cutils_8h.html#abafeb6aa16de4471d569ea841ec2d443" target="_top" xlink:title="rqsort">
<polygon fill="none" stroke="#000000" points="255,-38.5 255,-57.5 296,-57.5 296,-38.5 255,-38.5"/>
<text text-anchor="middle" x="275.5" y="-45.5" font-family="Helvetica,sans-Serif" font-size="10.00" fill="#000000">rqsort</text>
</a>
</g>
</g>
<!-- Node164018&#45;&gt;Node164356 -->
<g id="edge39" class="edge">
<title>Node164018&#45;&gt;Node164356</title>
<path fill="none" stroke="#191970" d="M86.7523,-304.4425C94.0134,-267.6371 125.2346,-133.804 206,-67 216.876,-58.0041 231.6665,-53.2471 244.8079,-50.74"/>
<polygon fill="#191970" stroke="#191970" points="245.5432,-54.1679 254.8871,-49.1737 244.4683,-47.2509 245.5432,-54.1679"/>
</g>
<!-- Node164224 -->
<g id="node30" class="node">
<title>Node164224</title>
<g id="a_node30"><a xlink:href="quickjs_8c.html#a3300653c365889b88c41c24ab23b4ca0" target="_top" xlink:title="typed_array_get_length">
<polygon fill="none" stroke="#000000" points="216.5,-.5 216.5,-19.5 334.5,-19.5 334.5,-.5 216.5,-.5"/>
<text text-anchor="middle" x="275.5" y="-7.5" font-family="Helvetica,sans-Serif" font-size="10.00" fill="#000000">typed_array_get_length</text>
</a>
</g>
</g>
<!-- Node164018&#45;&gt;Node164224 -->
<g id="edge40" class="edge">
<title>Node164018&#45;&gt;Node164224</title>
<path fill="none" stroke="#191970" d="M86.0806,-304.4086C91.1354,-264.1794 116.1333,-107.5143 206,-29 207.937,-27.3077 210.0112,-25.7647 212.1881,-24.3579"/>
<polygon fill="#191970" stroke="#191970" points="213.8906,-27.4162 221.0205,-19.5794 210.5597,-21.2595 213.8906,-27.4162"/>
</g>
<!-- Node164022 -->
<g id="node5" class="node">
<title>Node164022</title>
<g id="a_node5"><a xlink:href="quickjs_8c.html#a288254c06a39c9fca740a7abdad2834e" target="_top" xlink:title="__JS_AtomIsTaggedInt">
<polygon fill="none" stroke="#000000" points="411.5,-658.5 411.5,-677.5 530.5,-677.5 530.5,-658.5 411.5,-658.5"/>
<text text-anchor="middle" x="471" y="-665.5" font-family="Helvetica,sans-Serif" font-size="10.00" fill="#000000">__JS_AtomIsTaggedInt</text>
</a>
</g>
</g>
<!-- Node164021&#45;&gt;Node164022 -->
<g id="edge4" class="edge">
<title>Node164021&#45;&gt;Node164022</title>
<path fill="none" stroke="#191970" d="M321.8308,-653.5027C345.4554,-655.7987 374.6818,-658.6391 400.9865,-661.1956"/>
<polygon fill="#191970" stroke="#191970" points="400.9958,-664.7129 411.2875,-662.1967 401.673,-657.7458 400.9958,-664.7129"/>
</g>
<!-- Node164023&#45;&gt;Node164022 -->
<g id="edge6" class="edge">
<title>Node164023&#45;&gt;Node164022</title>
<path fill="none" stroke="#191970" d="M298.528,-610.5665C327.0363,-622.3813 372.8433,-641.2624 381,-644 393.8274,-648.3052 407.8841,-652.36 420.9962,-655.8682"/>
<polygon fill="#191970" stroke="#191970" points="420.2422,-659.2887 430.8029,-658.4394 422.0176,-652.5176 420.2422,-659.2887"/>
</g>
<!-- Node164024 -->
<g id="node7" class="node">
<title>Node164024</title>
<g id="a_node7"><a xlink:href="quickjs_8c.html#a89f38938cee8077ce1fbba07946ed185" target="_top" xlink:title="__JS_AtomToUInt32">
<polygon fill="none" stroke="#000000" points="417,-582.5 417,-601.5 525,-601.5 525,-582.5 417,-582.5"/>
<text text-anchor="middle" x="471" y="-589.5" font-family="Helvetica,sans-Serif" font-size="10.00" fill="#000000">__JS_AtomToUInt32</text>
</a>
</g>
</g>
<!-- Node164023&#45;&gt;Node164024 -->
<g id="edge7" class="edge">
<title>Node164023&#45;&gt;Node164024</title>
<path fill="none" stroke="#191970" d="M332.0467,-598.3968C355.4325,-597.3202 382.6696,-596.0664 406.8017,-594.9554"/>
<polygon fill="#191970" stroke="#191970" points="407.1052,-598.4452 416.9337,-594.489 406.7833,-591.4527 407.1052,-598.4452"/>
</g>
<!-- Node164025 -->
<g id="node8" class="node">
<title>Node164025</title>
<g id="a_node8"><a xlink:href="quickjs_8c.html#a1eaea8fa2599700598076ea84f1afcf3" target="_top" xlink:title="is_num_string">
<polygon fill="none" stroke="#ff0000" points="432.5,-696.5 432.5,-715.5 509.5,-715.5 509.5,-696.5 432.5,-696.5"/>
<text text-anchor="middle" x="471" y="-703.5" font-family="Helvetica,sans-Serif" font-size="10.00" fill="#000000">is_num_string</text>
</a>
</g>
</g>
<!-- Node164023&#45;&gt;Node164025 -->
<g id="edge8" class="edge">
<title>Node164023&#45;&gt;Node164025</title>
<path fill="none" stroke="#191970" d="M309.6321,-610.515C321.7095,-615.0429 334.8122,-621.3947 345,-630 367.89,-649.3345 356.4027,-669.8901 381,-687 393.0261,-695.3654 407.9899,-700.1752 422.2418,-702.9035"/>
<polygon fill="#191970" stroke="#191970" points="422.0126,-706.4115 432.4414,-704.5433 423.1238,-699.5002 422.0126,-706.4115"/>
</g>
<!-- Node164028 -->
<g id="node10" class="node">
<title>Node164028</title>
<g id="a_node10"><a xlink:href="quickjs_8c.html#a7f6796ee7a195631366f57c713a33f65" target="_top" xlink:title="__JS_AtomIsConst">
<polygon fill="none" stroke="#000000" points="597,-190.5 597,-209.5 699,-209.5 699,-190.5 597,-190.5"/>
<text text-anchor="middle" x="648" y="-197.5" font-family="Helvetica,sans-Serif" font-size="10.00" fill="#000000">__JS_AtomIsConst</text>
</a>
</g>
</g>
<!-- Node164027&#45;&gt;Node164028 -->
<g id="edge10" class="edge">
<title>Node164027&#45;&gt;Node164028</title>
<path fill="none" stroke="#191970" d="M313.4384,-230.1521C333.4547,-226.2694 358.4711,-221.822 381,-219 451.177,-210.2095 532.279,-205.1557 586.5138,-202.5026"/>
<polygon fill="#191970" stroke="#191970" points="586.833,-205.9914 596.655,-202.0191 586.4997,-198.9993 586.833,-205.9914"/>
</g>
<!-- Node164030 -->
<g id="node12" class="node">
<title>Node164030</title>
<g id="a_node12"><a xlink:href="quickjs_8c.html#a69e19dda8a93d613203e0baa06f0ed8d" target="_top" xlink:title="js_free_rt">
<polygon fill="none" stroke="#000000" points="619.5,-114.5 619.5,-133.5 676.5,-133.5 676.5,-114.5 619.5,-114.5"/>
<text text-anchor="middle" x="648" y="-121.5" font-family="Helvetica,sans-Serif" font-size="10.00" fill="#000000">js_free_rt</text>
</a>
</g>
</g>
<!-- Node164029&#45;&gt;Node164030 -->
<g id="edge12" class="edge">
<title>Node164029&#45;&gt;Node164030</title>
<path fill="none" stroke="#191970" d="M494.1397,-124C523.2679,-124 573.7391,-124 608.9016,-124"/>
<polygon fill="#191970" stroke="#191970" points="609.2821,-127.5001 619.282,-124 609.282,-120.5001 609.2821,-127.5001"/>
</g>
<!-- Node164032 -->
<g id="node14" class="node">
<title>Node164032</title>
<g id="a_node14"><a xlink:href="quickjs_8h.html#afaa20c47565bc704c6c85f3d77254e7d" target="_top" xlink:title="JS_FreeValue">
<polygon fill="none" stroke="#ff0000" points="609,-506.5 609,-525.5 687,-525.5 687,-506.5 609,-506.5"/>
<text text-anchor="middle" x="648" y="-513.5" font-family="Helvetica,sans-Serif" font-size="10.00" fill="#000000">JS_FreeValue</text>
</a>
</g>
</g>
<!-- Node164031&#45;&gt;Node164032 -->
<g id="edge14" class="edge">
<title>Node164031&#45;&gt;Node164032</title>
<path fill="none" stroke="#191970" d="M286.8263,-531.7304C313.4793,-554.6047 378.1444,-609.9564 381,-611 456.1393,-638.4607 487.7798,-643.2305 561,-611 596.4623,-595.39 623.7719,-557.3983 637.7219,-534.4682"/>
<polygon fill="#191970" stroke="#191970" points="640.839,-536.0713 642.8673,-525.6724 634.7969,-532.5367 640.839,-536.0713"/>
</g>
<!-- Node164053&#45;&gt;Node164029 -->
<g id="edge16" class="edge">
<title>Node164053&#45;&gt;Node164029</title>
<path fill="none" stroke="#191970" d="M324.5806,-152.46C360.0458,-145.5665 406.9867,-136.4425 438.0465,-130.4053"/>
<polygon fill="#191970" stroke="#191970" points="438.783,-133.8277 447.9314,-128.4839 437.4473,-126.9563 438.783,-133.8277"/>
</g>
<!-- Node164053&#45;&gt;Node164054 -->
<g id="edge17" class="edge">
<title>Node164053&#45;&gt;Node164054</title>
<path fill="none" stroke="#191970" d="M325.0856,-162C354.8361,-162 392.522,-162 422.1417,-162"/>
<polygon fill="#191970" stroke="#191970" points="422.256,-165.5001 432.2559,-162 422.2559,-158.5001 422.256,-165.5001"/>
</g>
<!-- Node164054&#45;&gt;Node164028 -->
<g id="edge18" class="edge">
<title>Node164054&#45;&gt;Node164028</title>
<path fill="none" stroke="#191970" d="M509.8434,-170.3393C534.3875,-175.6086 566.4654,-182.4954 593.5328,-188.3065"/>
<polygon fill="#191970" stroke="#191970" points="593.1233,-191.7982 603.6352,-190.4754 594.5927,-184.9542 593.1233,-191.7982"/>
</g>
<!-- Node164045 -->
<g id="node17" class="node">
<title>Node164045</title>
<g id="a_node17"><a xlink:href="quickjs_8c.html#a0bbd9e3ecd55e3ea6c9d44bfda382095" target="_top" xlink:title="__JS_FreeAtom">
<polygon fill="none" stroke="#ff0000" points="604.5,-152.5 604.5,-171.5 691.5,-171.5 691.5,-152.5 604.5,-152.5"/>
<text text-anchor="middle" x="648" y="-159.5" font-family="Helvetica,sans-Serif" font-size="10.00" fill="#000000">__JS_FreeAtom</text>
</a>
</g>
</g>
<!-- Node164054&#45;&gt;Node164045 -->
<g id="edge19" class="edge">
<title>Node164054&#45;&gt;Node164045</title>
<path fill="none" stroke="#191970" d="M509.8434,-162C534.5679,-162 566.9376,-162 594.1291,-162"/>
<polygon fill="#191970" stroke="#191970" points="594.2703,-165.5001 604.2703,-162 594.2702,-158.5001 594.2703,-165.5001"/>
</g>
<!-- Node164055&#45;&gt;Node164022 -->
<g id="edge22" class="edge">
<title>Node164055&#45;&gt;Node164022</title>
<path fill="none" stroke="#191970" d="M288.3278,-443.5986C303.8103,-455.8081 329.67,-478.2954 345,-503 371.6778,-545.9918 349.8193,-571.1533 381,-611 395.8207,-629.9399 418.8053,-644.3452 437.8366,-653.936"/>
<polygon fill="#191970" stroke="#191970" points="436.5567,-657.2041 447.0857,-658.3835 439.5903,-650.8955 436.5567,-657.2041"/>
</g>
<!-- Node164055&#45;&gt;Node164024 -->
<g id="edge23" class="edge">
<title>Node164055&#45;&gt;Node164024</title>
<path fill="none" stroke="#191970" d="M287.1998,-443.572C301.9927,-456.0998 327.6229,-479.2672 345,-503 365.6676,-531.2268 353.1903,-551.7745 381,-573 388.6315,-578.8247 397.6419,-582.9615 406.9628,-585.8819"/>
<polygon fill="#191970" stroke="#191970" points="406.1784,-589.2952 416.7437,-588.5048 407.9916,-582.5341 406.1784,-589.2952"/>
</g>
<!-- Node164056 -->
<g id="node19" class="node">
<title>Node164056</title>
<g id="a_node19"><a xlink:href="quickjs_8c.html#a06b76f5124fd985e35f4c652fd018d6d" target="_top" xlink:title="find_own_property">
<polygon fill="none" stroke="#000000" points="423,-506.5 423,-525.5 519,-525.5 519,-506.5 423,-506.5"/>
<text text-anchor="middle" x="471" y="-513.5" font-family="Helvetica,sans-Serif" font-size="10.00" fill="#000000">find_own_property</text>
</a>
</g>
</g>
<!-- Node164055&#45;&gt;Node164056 -->
<g id="edge24" class="edge">
<title>Node164055&#45;&gt;Node164056</title>
<path fill="none" stroke="#191970" d="M288.4196,-443.659C307.6119,-457.5412 345.2434,-482.9999 381,-497 391.1326,-500.9673 402.2476,-504.1688 413.104,-506.731"/>
<polygon fill="#191970" stroke="#191970" points="412.4465,-510.17 422.9659,-508.908 413.9555,-503.3346 412.4465,-510.17"/>
</g>
<!-- Node164057 -->
<g id="node20" class="node">
<title>Node164057</title>
<g id="a_node20"><a xlink:href="quickjs_8c.html#add3eea1f6d626963ade3c28a1fd563d1" target="_top" xlink:title="JS_AtomIsNumericIndex">
<polygon fill="none" stroke="#ff0000" points="408,-430.5 408,-449.5 534,-449.5 534,-430.5 408,-430.5"/>
<text text-anchor="middle" x="471" y="-437.5" font-family="Helvetica,sans-Serif" font-size="10.00" fill="#000000">JS_AtomIsNumericIndex</text>
</a>
</g>
</g>
<!-- Node164055&#45;&gt;Node164057 -->
<g id="edge26" class="edge">
<title>Node164055&#45;&gt;Node164057</title>
<path fill="none" stroke="#191970" d="M345.252,-436.1407C362.1427,-436.6591 380.2515,-437.2149 397.3168,-437.7386"/>
<polygon fill="#191970" stroke="#191970" points="397.6846,-441.2515 407.7872,-438.06 397.8994,-434.2548 397.6846,-441.2515"/>
</g>
<!-- Node164073 -->
<g id="node21" class="node">
<title>Node164073</title>
<g id="a_node21"><a xlink:href="quickjs_8c.html#a23b7fe57d08a1b3b39ba556f9cbb6c76" target="_top" xlink:title="JS_AutoInitProperty">
<polygon fill="none" stroke="#000000" points="419,-392.5 419,-411.5 523,-411.5 523,-392.5 419,-392.5"/>
<text text-anchor="middle" x="471" y="-399.5" font-family="Helvetica,sans-Serif" font-size="10.00" fill="#000000">JS_AutoInitProperty</text>
</a>
</g>
</g>
<!-- Node164055&#45;&gt;Node164073 -->
<g id="edge28" class="edge">
<title>Node164055&#45;&gt;Node164073</title>
<path fill="none" stroke="#191970" d="M333.6271,-424.4856C357.2636,-420.6167 384.6208,-416.1388 408.6702,-412.2023"/>
<polygon fill="#191970" stroke="#191970" points="409.4508,-415.6212 418.7541,-410.5518 408.32,-408.7131 409.4508,-415.6212"/>
</g>
<!-- Node164067 -->
<g id="node22" class="node">
<title>Node164067</title>
<g id="a_node22"><a xlink:href="quickjs_8h.html#a775522f2d084fc8fa0fcb33f390006b4" target="_top" xlink:title="JS_DupValue">
<polygon fill="none" stroke="#000000" points="432.5,-544.5 432.5,-563.5 509.5,-563.5 509.5,-544.5 432.5,-544.5"/>
<text text-anchor="middle" x="471" y="-551.5" font-family="Helvetica,sans-Serif" font-size="10.00" fill="#000000">JS_DupValue</text>
</a>
</g>
</g>
<!-- Node164055&#45;&gt;Node164067 -->
<g id="edge29" class="edge">
<title>Node164055&#45;&gt;Node164067</title>
<path fill="none" stroke="#191970" d="M285.3407,-443.7046C310.4311,-468.4093 375.2263,-531.9512 381,-535 393.6134,-541.6605 408.3812,-545.9861 422.2646,-548.7955"/>
<polygon fill="#191970" stroke="#191970" points="421.7113,-552.2521 432.1741,-550.5848 422.9552,-545.3635 421.7113,-552.2521"/>
</g>
<!-- Node164098 -->
<g id="node23" class="node">
<title>Node164098</title>
<g id="a_node23"><a xlink:href="quickjs_8c.html#aeb97957655d979e9fe56c955da2b2d4b" target="_top" xlink:title="JS_GetPropertyUint32">
<polygon fill="none" stroke="#ff0000" points="413.5,-468.5 413.5,-487.5 528.5,-487.5 528.5,-468.5 413.5,-468.5"/>
<text text-anchor="middle" x="471" y="-475.5" font-family="Helvetica,sans-Serif" font-size="10.00" fill="#000000">JS_GetPropertyUint32</text>
</a>
</g>
</g>
<!-- Node164055&#45;&gt;Node164098 -->
<g id="edge30" class="edge">
<title>Node164055&#45;&gt;Node164098</title>
<path fill="none" stroke="#191970" d="M315.0245,-443.6094C334.8088,-448.3575 359.1421,-454.1038 381,-459 391.8571,-461.432 403.4708,-463.9476 414.625,-466.3211"/>
<polygon fill="#191970" stroke="#191970" points="414.1966,-469.8079 424.7046,-468.4544 415.6461,-462.9596 414.1966,-469.8079"/>
</g>
<!-- Node164055&#45;&gt;Node164395 -->
<g id="edge31" class="edge">
<title>Node164055&#45;&gt;Node164395</title>
<path fill="none" stroke="#191970" d="M299.6302,-424.4248C313.1527,-418.8507 330.2199,-411.4666 345,-404 361.5333,-395.6477 363.7173,-389.6649 381,-383 391.2669,-379.0407 402.5273,-375.8362 413.5026,-373.2671"/>
<polygon fill="#191970" stroke="#191970" points="414.4466,-376.6434 423.465,-371.083 412.9475,-369.8058 414.4466,-376.6434"/>
</g>
<!-- Node164055&#45;&gt;Node164396 -->
<g id="edge32" class="edge">
<title>Node164055&#45;&gt;Node164396</title>
<path fill="none" stroke="#191970" d="M283.7168,-424.4583C300.181,-405.9947 339.2296,-365.4052 381,-345 385.9324,-342.5905 391.1629,-340.4855 396.5226,-338.6466"/>
<polygon fill="#191970" stroke="#191970" points="397.7624,-341.9265 406.2729,-335.6159 395.6846,-335.242 397.7624,-341.9265"/>
</g>
<!-- Node164055&#45;&gt;Node164244 -->
<g id="edge33" class="edge">
<title>Node164055&#45;&gt;Node164244</title>
<path fill="none" stroke="#191970" d="M280.7135,-424.3406C294.062,-400.5507 331.9059,-338.7649 381,-307 384.1826,-304.9408 387.5343,-303.0492 390.9977,-301.3118"/>
<polygon fill="#191970" stroke="#191970" points="392.7191,-304.3747 400.3873,-297.0637 389.8336,-297.997 392.7191,-304.3747"/>
</g>
<!-- Node164055&#45;&gt;Node164243 -->
<g id="edge34" class="edge">
<title>Node164055&#45;&gt;Node164243</title>
<path fill="none" stroke="#191970" d="M278.3494,-424.1043C287.5912,-393.8836 319.7407,-302.1726 381,-258 386.2824,-254.191 392.1592,-251.0875 398.3079,-248.5616"/>
<polygon fill="#191970" stroke="#191970" points="399.9063,-251.7073 408.1476,-245.0492 397.553,-245.1148 399.9063,-251.7073"/>
</g>
<!-- Node164056&#45;&gt;Node164020 -->
<g id="edge25" class="edge">
<title>Node164056&#45;&gt;Node164020</title>
<path fill="none" stroke="#191970" d="M519.2396,-520.5261C533.3589,-523.3125 548.3793,-527.7958 561,-535 594.3098,-554.014 622.0348,-590.1878 636.7086,-611.9965"/>
<polygon fill="#191970" stroke="#191970" points="633.779,-613.9116 642.1765,-620.3717 639.6404,-610.0849 633.779,-613.9116"/>
</g>
<!-- Node164057&#45;&gt;Node164032 -->
<g id="edge27" class="edge">
<title>Node164057&#45;&gt;Node164032</title>
<path fill="none" stroke="#191970" d="M531.4907,-449.5284C541.5422,-452.0255 551.7102,-455.1376 561,-459 585.9894,-469.3899 611.5381,-487.1511 628.426,-500.0914"/>
<polygon fill="#191970" stroke="#191970" points="626.3889,-502.9416 636.419,-506.3543 630.7063,-497.4316 626.3889,-502.9416"/>
</g>
</g>
</svg>
        <g id="navigator" transform="translate(0 0)" fill="#404254">
                <rect fill="#f2f5e9" fill-opacity="0.5" stroke="#606060" stroke-width=".5" x="0" y="0" width="60" height="60"/>
                <use id="zoomplus" xlink:href="#zoomPlus" x="17" y="9" onmousedown="handleZoom(evt,'in')"/>
                <use id="zoomminus" xlink:href="#zoomMin" x="42" y="9" onmousedown="handleZoom(evt,'out')"/>
                <use id="reset" xlink:href="#resetDef" x="30" y="36" onmousedown="handleReset()"/>
                <g id="arrowUp" xlink:href="#dirArrow" transform="translate(30 24)" onmousedown="handlePan(0,-1)">
                  <use xlink:href="#rim" fill="#404040">
                        <set attributeName="fill" to="#808080" begin="arrowUp.mouseover" end="arrowUp.mouseout"/>
                  </use>
                  <path fill="none" stroke="white" stroke-width="1.5" d="M0,-3.0v7 M-2.5,-0.5L0,-3.0L2.5,-0.5"/>
                </g>
                <g id="arrowRight" xlink:href="#dirArrow" transform="rotate(90) translate(36 -43)" onmousedown="handlePan(1,0)">
                  <use xlink:href="#rim" fill="#404040">
                        <set attributeName="fill" to="#808080" begin="arrowRight.mouseover" end="arrowRight.mouseout"/>
                  </use>
                  <path fill="none" stroke="white" stroke-width="1.5" d="M0,-3.0v7 M-2.5,-0.5L0,-3.0L2.5,-0.5"/>
                </g>
                <g id="arrowDown" xlink:href="#dirArrow" transform="rotate(180) translate(-30 -48)" onmousedown="handlePan(0,1)">
                  <use xlink:href="#rim" fill="#404040">
                        <set attributeName="fill" to="#808080" begin="arrowDown.mouseover" end="arrowDown.mouseout"/>
                  </use>
                  <path fill="none" stroke="white" stroke-width="1.5" d="M0,-3.0v7 M-2.5,-0.5L0,-3.0L2.5,-0.5"/>
                </g>
                <g id="arrowLeft" xlink:href="#dirArrow" transform="rotate(270) translate(-36 17)" onmousedown="handlePan(-1,0)">
                  <use xlink:href="#rim" fill="#404040">
                        <set attributeName="fill" to="#808080" begin="arrowLeft.mouseover" end="arrowLeft.mouseout"/>
                  </use>
                  <path fill="none" stroke="white" stroke-width="1.5" d="M0,-3.0v7 M-2.5,-0.5L0,-3.0L2.5,-0.5"/>
                </g>
        </g>
        <svg viewBox="0 0 15 15" width="100%" height="30px" preserveAspectRatio="xMaxYMin meet">
         <g id="arrow_out" transform="scale(0.3 0.3)">
          <a xlink:href="quickjs_8c_a176ac5ff56a118a0b1b2566798d28823_cgraph_org.svg" target="_base">
           <rect id="button" ry="5" rx="5" y="6" x="6" height="38" width="38"
                fill="#f2f5e9" fill-opacity="0.5" stroke="#606060" stroke-width="1.0"/>
           <path id="arrow"
             d="M 11.500037,31.436501 C 11.940474,20.09759 22.043105,11.32322 32.158766,21.979434 L 37.068811,17.246167 C 37.068811,17.246167 37.088388,32 37.088388,32 L 22.160133,31.978069 C 22.160133,31.978069 26.997745,27.140456 26.997745,27.140456 C 18.528582,18.264221 13.291696,25.230495 11.500037,31.436501 z"
             style="fill:#404040;"/>
          </a>
         </g>
        </svg>
</svg>
