<?xml version="1.0" encoding="UTF-8" standalone="no"?>
<!DOCTYPE svg PUBLIC "-//W3C//DTD SVG 1.1//EN"
 "http://www.w3.org/Graphics/SVG/1.1/DTD/svg11.dtd">
<!-- Generated by graphviz version 2.40.1 (20161225.0304)
 -->
<!-- Title: js_std_dump_error Pages: 1 -->
<svg width="885pt" height="268pt"
 viewBox="0.00 0.00 885.00 267.75" xmlns="http://www.w3.org/2000/svg" xmlns:xlink="http://www.w3.org/1999/xlink">
<g id="graph0" class="graph" transform="scale(1 1) rotate(0) translate(4 263.7515)">
<title>js_std_dump_error</title>
<!-- Node30070 -->
<g id="node1" class="node">
<title>Node30070</title>
<polygon fill="#bfbfbf" stroke="#000000" points="0,-117.1371 0,-136.1371 97,-136.1371 97,-117.1371 0,-117.1371"/>
<text text-anchor="middle" x="48.5" y="-124.1371" font-family="Helvetica,sans-Serif" font-size="10.00" fill="#000000">js_std_dump_error</text>
</g>
<!-- Node30071 -->
<g id="node2" class="node">
<title>Node30071</title>
<g id="a_node2"><a xlink:href="quickjs_8c.html#ae0bc4f65da64810facb2cb9e476eda2e" target="_top" xlink:title="JS_FreeCString">
<polygon fill="none" stroke="#000000" points="268.5,-155.1371 268.5,-174.1371 354.5,-174.1371 354.5,-155.1371 268.5,-155.1371"/>
<text text-anchor="middle" x="311.5" y="-162.1371" font-family="Helvetica,sans-Serif" font-size="10.00" fill="#000000">JS_FreeCString</text>
</a>
</g>
</g>
<!-- Node30070&#45;&gt;Node30071 -->
<g id="edge1" class="edge">
<title>Node30070&#45;&gt;Node30071</title>
<path fill="none" stroke="#191970" d="M55.2711,-136.2377C68.0944,-153.478 97.8135,-189.1414 133,-202.6371 171.5921,-217.4391 185.5671,-211.2176 226,-202.6371 247.3856,-198.0988 269.9164,-187.8296 286.4776,-179.1095"/>
<polygon fill="#191970" stroke="#191970" points="288.3733,-182.0627 295.485,-174.2094 285.0281,-175.9137 288.3733,-182.0627"/>
</g>
<!-- Node30072 -->
<g id="node3" class="node">
<title>Node30072</title>
<g id="a_node3"><a xlink:href="quickjs_8h.html#afaa20c47565bc704c6c85f3d77254e7d" target="_top" xlink:title="JS_FreeValue">
<polygon fill="none" stroke="#000000" points="674,-155.1371 674,-174.1371 752,-174.1371 752,-155.1371 674,-155.1371"/>
<text text-anchor="middle" x="713" y="-162.1371" font-family="Helvetica,sans-Serif" font-size="10.00" fill="#000000">JS_FreeValue</text>
</a>
</g>
</g>
<!-- Node30070&#45;&gt;Node30072 -->
<g id="edge4" class="edge">
<title>Node30070&#45;&gt;Node30072</title>
<path fill="none" stroke="#191970" d="M54.1226,-136.1436C66.0405,-155.3991 95.822,-199.0115 133,-220.6371 203.1935,-261.4671 230.2952,-259.6371 311.5,-259.6371 311.5,-259.6371 311.5,-259.6371 440,-259.6371 536.4803,-259.6371 642.0185,-206.0577 688.5954,-179.3746"/>
<polygon fill="#191970" stroke="#191970" points="690.4809,-182.3268 697.3601,-174.269 686.9575,-176.2782 690.4809,-182.3268"/>
</g>
<!-- Node30096 -->
<g id="node5" class="node">
<title>Node30096</title>
<g id="a_node5"><a xlink:href="quickjs_8c.html#a8551eaac7ef616910807cebdc515760d" target="_top" xlink:title="JS_GetException">
<polygon fill="none" stroke="#000000" points="133,-174.1371 133,-193.1371 226,-193.1371 226,-174.1371 133,-174.1371"/>
<text text-anchor="middle" x="179.5" y="-181.1371" font-family="Helvetica,sans-Serif" font-size="10.00" fill="#000000">JS_GetException</text>
</a>
</g>
</g>
<!-- Node30070&#45;&gt;Node30096 -->
<g id="edge5" class="edge">
<title>Node30070&#45;&gt;Node30096</title>
<path fill="none" stroke="#191970" d="M69.2468,-136.2089C86.2982,-144.0173 111.122,-155.2515 133,-164.6371 137.2627,-166.4658 141.7613,-168.3548 146.2139,-170.2001"/>
<polygon fill="#191970" stroke="#191970" points="145.1982,-173.5666 155.7781,-174.1295 147.8584,-167.0918 145.1982,-173.5666"/>
</g>
<!-- Node30097 -->
<g id="node6" class="node">
<title>Node30097</title>
<g id="a_node6"><a xlink:href="quickjs_8c.html#a04f589361a4fbc30d997402e92a50de2" target="_top" xlink:title="JS_GetPropertyStr">
<polygon fill="none" stroke="#000000" points="262,-22.1371 262,-41.1371 361,-41.1371 361,-22.1371 262,-22.1371"/>
<text text-anchor="middle" x="311.5" y="-29.1371" font-family="Helvetica,sans-Serif" font-size="10.00" fill="#000000">JS_GetPropertyStr</text>
</a>
</g>
</g>
<!-- Node30070&#45;&gt;Node30097 -->
<g id="edge6" class="edge">
<title>Node30070&#45;&gt;Node30097</title>
<path fill="none" stroke="#191970" d="M52.1222,-116.8937C61.3712,-93.6331 88.3323,-35.1286 133,-12.6371 180.0696,11.0638 242.8402,-4.837 280.0313,-18.3629"/>
<polygon fill="#191970" stroke="#191970" points="279.2173,-21.7978 289.8084,-22.08 281.705,-15.2547 279.2173,-21.7978"/>
</g>
<!-- Node30243 -->
<g id="node12" class="node">
<title>Node30243</title>
<g id="a_node12"><a xlink:href="quickjs_8c.html#afc9f16af1ddbee548aa05ae2d28dcd16" target="_top" xlink:title="JS_IsError">
<polygon fill="none" stroke="#ff0000" points="148,-22.1371 148,-41.1371 211,-41.1371 211,-22.1371 148,-22.1371"/>
<text text-anchor="middle" x="179.5" y="-29.1371" font-family="Helvetica,sans-Serif" font-size="10.00" fill="#000000">JS_IsError</text>
</a>
</g>
</g>
<!-- Node30070&#45;&gt;Node30243 -->
<g id="edge13" class="edge">
<title>Node30070&#45;&gt;Node30243</title>
<path fill="none" stroke="#191970" d="M57.025,-117.0716C71.3907,-101.4212 101.91,-70.1374 133,-50.6371 135.9713,-48.7735 139.1567,-47.0264 142.4156,-45.4054"/>
<polygon fill="#191970" stroke="#191970" points="144.0336,-48.5143 151.6777,-41.1782 141.1272,-42.1462 144.0336,-48.5143"/>
</g>
<!-- Node30161 -->
<g id="node13" class="node">
<title>Node30161</title>
<g id="a_node13"><a xlink:href="quickjs_8h.html#a4e407128a9605afb77523e49e9a627fd" target="_top" xlink:title="JS_IsUndefined">
<polygon fill="none" stroke="#000000" points="136.5,-60.1371 136.5,-79.1371 222.5,-79.1371 222.5,-60.1371 136.5,-60.1371"/>
<text text-anchor="middle" x="179.5" y="-67.1371" font-family="Helvetica,sans-Serif" font-size="10.00" fill="#000000">JS_IsUndefined</text>
</a>
</g>
</g>
<!-- Node30070&#45;&gt;Node30161 -->
<g id="edge15" class="edge">
<title>Node30070&#45;&gt;Node30161</title>
<path fill="none" stroke="#191970" d="M70.4265,-117.0966C91.68,-107.8489 124.1356,-93.727 148.1216,-83.2903"/>
<polygon fill="#191970" stroke="#191970" points="149.7289,-86.408 157.502,-79.2088 146.936,-79.9893 149.7289,-86.408"/>
</g>
<!-- Node30488 -->
<g id="node14" class="node">
<title>Node30488</title>
<g id="a_node14"><a xlink:href="quickjs-libc_8c.html#a26a501e5bf41a733d365f221143ff3d5" target="_top" xlink:title="js_print">
<polygon fill="none" stroke="#000000" points="155.5,-136.1371 155.5,-155.1371 203.5,-155.1371 203.5,-136.1371 155.5,-136.1371"/>
<text text-anchor="middle" x="179.5" y="-143.1371" font-family="Helvetica,sans-Serif" font-size="10.00" fill="#000000">js_print</text>
</a>
</g>
</g>
<!-- Node30070&#45;&gt;Node30488 -->
<g id="edge16" class="edge">
<title>Node30070&#45;&gt;Node30488</title>
<path fill="none" stroke="#191970" d="M97.2796,-133.712C113.2015,-136.0213 130.5361,-138.5355 145.1659,-140.6574"/>
<polygon fill="#191970" stroke="#191970" points="144.8828,-144.1529 155.2817,-142.1246 145.8877,-137.2254 144.8828,-144.1529"/>
</g>
<!-- Node30172 -->
<g id="node15" class="node">
<title>Node30172</title>
<g id="a_node15"><a xlink:href="quickjs_8h.html#af931f06630ab719b5f82a16eb27effd1" target="_top" xlink:title="JS_ToCString">
<polygon fill="none" stroke="#ff0000" points="272.5,-117.1371 272.5,-136.1371 350.5,-136.1371 350.5,-117.1371 272.5,-117.1371"/>
<text text-anchor="middle" x="311.5" y="-124.1371" font-family="Helvetica,sans-Serif" font-size="10.00" fill="#000000">JS_ToCString</text>
</a>
</g>
</g>
<!-- Node30070&#45;&gt;Node30172 -->
<g id="edge19" class="edge">
<title>Node30070&#45;&gt;Node30172</title>
<path fill="none" stroke="#191970" d="M97.0447,-126.6371C144.0587,-126.6371 214.9833,-126.6371 262.2385,-126.6371"/>
<polygon fill="#191970" stroke="#191970" points="262.2395,-130.1372 272.2395,-126.6371 262.2395,-123.1372 262.2395,-130.1372"/>
</g>
<!-- Node30071&#45;&gt;Node30072 -->
<g id="edge2" class="edge">
<title>Node30071&#45;&gt;Node30072</title>
<path fill="none" stroke="#191970" d="M354.849,-164.6371C430.1438,-164.6371 584.6066,-164.6371 663.8,-164.6371"/>
<polygon fill="#191970" stroke="#191970" points="663.9977,-168.1372 673.9977,-164.6371 663.9976,-161.1372 663.9977,-168.1372"/>
</g>
<!-- Node30073 -->
<g id="node4" class="node">
<title>Node30073</title>
<g id="a_node4"><a xlink:href="quickjs_8c.html#aa059f309c30fd5166d16c82a97973146" target="_top" xlink:title="__JS_FreeValue">
<polygon fill="none" stroke="#ff0000" points="788,-155.1371 788,-174.1371 877,-174.1371 877,-155.1371 788,-155.1371"/>
<text text-anchor="middle" x="832.5" y="-162.1371" font-family="Helvetica,sans-Serif" font-size="10.00" fill="#000000">__JS_FreeValue</text>
</a>
</g>
</g>
<!-- Node30072&#45;&gt;Node30073 -->
<g id="edge3" class="edge">
<title>Node30072&#45;&gt;Node30073</title>
<path fill="none" stroke="#191970" d="M752.1288,-164.6371C760.3481,-164.6371 769.1608,-164.6371 777.8298,-164.6371"/>
<polygon fill="#191970" stroke="#191970" points="777.8964,-168.1372 787.8964,-164.6371 777.8964,-161.1372 777.8964,-168.1372"/>
</g>
<!-- Node30098 -->
<g id="node7" class="node">
<title>Node30098</title>
<g id="a_node7"><a xlink:href="quickjs_8c.html#aa2ef5af1544a3012f91a80c98c326b8f" target="_top" xlink:title="JS_NewAtom">
<polygon fill="none" stroke="#000000" points="401.5,-3.1371 401.5,-22.1371 478.5,-22.1371 478.5,-3.1371 401.5,-3.1371"/>
<text text-anchor="middle" x="440" y="-10.1371" font-family="Helvetica,sans-Serif" font-size="10.00" fill="#000000">JS_NewAtom</text>
</a>
</g>
</g>
<!-- Node30097&#45;&gt;Node30098 -->
<g id="edge7" class="edge">
<title>Node30097&#45;&gt;Node30098</title>
<path fill="none" stroke="#191970" d="M361.1815,-24.2912C371.0358,-22.8342 381.3728,-21.3057 391.1976,-19.8531"/>
<polygon fill="#191970" stroke="#191970" points="391.8284,-23.2979 401.2088,-18.3728 390.8044,-16.3732 391.8284,-23.2979"/>
</g>
<!-- Node30145 -->
<g id="node9" class="node">
<title>Node30145</title>
<g id="a_node9"><a xlink:href="quickjs_8h.html#a89b7c8686c7eee70b86be722ee4730ad" target="_top" xlink:title="JS_GetProperty">
<polygon fill="none" stroke="#000000" points="397,-108.1371 397,-127.1371 483,-127.1371 483,-108.1371 397,-108.1371"/>
<text text-anchor="middle" x="440" y="-115.1371" font-family="Helvetica,sans-Serif" font-size="10.00" fill="#000000">JS_GetProperty</text>
</a>
</g>
</g>
<!-- Node30097&#45;&gt;Node30145 -->
<g id="edge9" class="edge">
<title>Node30097&#45;&gt;Node30145</title>
<path fill="none" stroke="#191970" d="M325.7427,-41.1692C347.838,-55.9567 390.5823,-84.5638 417.0649,-102.2876"/>
<polygon fill="#191970" stroke="#191970" points="415.4362,-105.4091 425.6935,-108.0624 419.3296,-99.5917 415.4362,-105.4091"/>
</g>
<!-- Node30257 -->
<g id="node11" class="node">
<title>Node30257</title>
<g id="a_node11"><a xlink:href="quickjs_8c.html#ab7fc45a99935a1c0ba50b0216d9401a9" target="_top" xlink:title="JS_FreeAtom">
<polygon fill="none" stroke="#ff0000" points="401.5,-41.1371 401.5,-60.1371 478.5,-60.1371 478.5,-41.1371 401.5,-41.1371"/>
<text text-anchor="middle" x="440" y="-48.1371" font-family="Helvetica,sans-Serif" font-size="10.00" fill="#000000">JS_FreeAtom</text>
</a>
</g>
</g>
<!-- Node30097&#45;&gt;Node30257 -->
<g id="edge12" class="edge">
<title>Node30097&#45;&gt;Node30257</title>
<path fill="none" stroke="#191970" d="M361.1815,-38.983C371.0358,-40.4401 381.3728,-41.9685 391.1976,-43.4212"/>
<polygon fill="#191970" stroke="#191970" points="390.8044,-46.9011 401.2088,-44.9015 391.8284,-39.9763 390.8044,-46.9011"/>
</g>
<!-- Node30099 -->
<g id="node8" class="node">
<title>Node30099</title>
<g id="a_node8"><a xlink:href="quickjs_8c.html#a522741f41afb1d0da0aa55968cd8579e" target="_top" xlink:title="JS_NewAtomLen">
<polygon fill="none" stroke="#ff0000" points="532,-3.1371 532,-22.1371 625,-22.1371 625,-3.1371 532,-3.1371"/>
<text text-anchor="middle" x="578.5" y="-10.1371" font-family="Helvetica,sans-Serif" font-size="10.00" fill="#000000">JS_NewAtomLen</text>
</a>
</g>
</g>
<!-- Node30098&#45;&gt;Node30099 -->
<g id="edge8" class="edge">
<title>Node30098&#45;&gt;Node30099</title>
<path fill="none" stroke="#191970" d="M478.58,-12.6371C491.848,-12.6371 506.9985,-12.6371 521.4216,-12.6371"/>
<polygon fill="#191970" stroke="#191970" points="521.7581,-16.1372 531.7581,-12.6371 521.758,-9.1372 521.7581,-16.1372"/>
</g>
<!-- Node30146 -->
<g id="node10" class="node">
<title>Node30146</title>
<g id="a_node10"><a xlink:href="quickjs_8c.html#a5762c57ae0c9937e986040c01222833a" target="_top" xlink:title="JS_GetPropertyInternal">
<polygon fill="none" stroke="#ff0000" points="519,-117.1371 519,-136.1371 638,-136.1371 638,-117.1371 519,-117.1371"/>
<text text-anchor="middle" x="578.5" y="-124.1371" font-family="Helvetica,sans-Serif" font-size="10.00" fill="#000000">JS_GetPropertyInternal</text>
</a>
</g>
</g>
<!-- Node30145&#45;&gt;Node30146 -->
<g id="edge10" class="edge">
<title>Node30145&#45;&gt;Node30146</title>
<path fill="none" stroke="#191970" d="M483.0631,-120.4355C491.2247,-120.9658 499.9555,-121.5332 508.6981,-122.1013"/>
<polygon fill="#191970" stroke="#191970" points="508.7271,-125.6105 518.933,-122.7664 509.1811,-118.6252 508.7271,-125.6105"/>
</g>
<!-- Node30146&#45;&gt;Node30072 -->
<g id="edge11" class="edge">
<title>Node30146&#45;&gt;Node30072</title>
<path fill="none" stroke="#191970" d="M612.44,-136.2261C629.7231,-141.1091 650.9329,-147.1015 669.4112,-152.3221"/>
<polygon fill="#191970" stroke="#191970" points="668.4959,-155.7004 679.0708,-155.0512 670.3992,-148.9641 668.4959,-155.7004"/>
</g>
<!-- Node30243&#45;&gt;Node30097 -->
<g id="edge14" class="edge">
<title>Node30243&#45;&gt;Node30097</title>
<path fill="none" stroke="#191970" d="M211.1173,-31.6371C223.3309,-31.6371 237.7239,-31.6371 251.7384,-31.6371"/>
<polygon fill="#191970" stroke="#191970" points="251.8397,-35.1372 261.8396,-31.6371 251.8396,-28.1372 251.8397,-35.1372"/>
</g>
<!-- Node30488&#45;&gt;Node30071 -->
<g id="edge17" class="edge">
<title>Node30488&#45;&gt;Node30071</title>
<path fill="none" stroke="#191970" d="M203.7108,-149.122C219.0416,-151.3287 239.4827,-154.271 258.4411,-156.9999"/>
<polygon fill="#191970" stroke="#191970" points="258.0842,-160.4845 268.4809,-158.445 259.0816,-153.5559 258.0842,-160.4845"/>
</g>
<!-- Node30488&#45;&gt;Node30172 -->
<g id="edge18" class="edge">
<title>Node30488&#45;&gt;Node30172</title>
<path fill="none" stroke="#191970" d="M203.7108,-142.1522C220.138,-139.7877 242.4325,-136.5787 262.4833,-133.6926"/>
<polygon fill="#191970" stroke="#191970" points="263.0154,-137.1521 272.4147,-132.2631 262.018,-130.2236 263.0154,-137.1521"/>
</g>
</g>
</svg>
