<?xml version="1.0" encoding="UTF-8" standalone="no"?>
<!DOCTYPE svg PUBLIC "-//W3C//DTD SVG 1.1//EN"
 "http://www.w3.org/Graphics/SVG/1.1/DTD/svg11.dtd">
<!-- Generated by graphviz version 2.40.1 (20161225.0304)
 -->
<!-- Title: js_std_file_seek Pages: 1 -->
<!--zoomable 218 -->
<svg id="main" version="1.1" xmlns="http://www.w3.org/2000/svg" xmlns:xlink="http://www.w3.org/1999/xlink" xml:space="preserve" onload="init(evt)">
<style type="text/css"><![CDATA[
.edge:hover path { stroke: red; }
.edge:hover polygon { stroke: red; fill: red; }
]]></style>
<script type="text/javascript"><![CDATA[
var edges = document.getElementsByTagName('g');
if (edges && edges.length) {
  for (var i=0;i<edges.length;i++) {
    if (edges[i].id.substr(0,4)=='edge') {
      edges[i].setAttribute('class','edge');
    }
  }
}
]]></script>
        <defs>
                <circle id="rim" cx="0" cy="0" r="7"/>
                <circle id="rim2" cx="0" cy="0" r="3.5"/>
                <g id="zoomPlus">
                        <use xlink:href="#rim" fill="#404040">
                                <set attributeName="fill" to="#808080" begin="zoomplus.mouseover" end="zoomplus.mouseout"/>
                        </use>
                        <path d="M-4,0h8M0,-4v8" fill="none" stroke="white" stroke-width="1.5" pointer-events="none"/>
                </g>
                <g id="zoomMin">
                        <use xlink:href="#rim" fill="#404040">
                                <set attributeName="fill" to="#808080" begin="zoomminus.mouseover" end="zoomminus.mouseout"/>
                        </use>
                        <path d="M-4,0h8" fill="none" stroke="white" stroke-width="1.5" pointer-events="none"/>
                </g>
                <g id="dirArrow">
                        <path fill="none" stroke="white" stroke-width="1.5" d="M0,-3.0v7 M-2.5,-0.5L0,-3.0L2.5,-0.5"/>
                </g>
               <g id="resetDef">
                       <use xlink:href="#rim2" fill="#404040">
                               <set attributeName="fill" to="#808080" begin="reset.mouseover" end="reset.mouseout"/>
                       </use>
               </g>
        </defs>

<script type="text/javascript">
var viewWidth = 595;
var viewHeight = 218;
var sectionId = 'dynsection-44';
</script>
<script xlink:href="svgpan.js"/>
<svg id="graph" class="graph">
<g id="viewport">
<title>js_std_file_seek</title>
<!-- Node11608 -->
<g id="node1" class="node">
<title>Node11608</title>
<polygon fill="#bfbfbf" stroke="#000000" points="0,-133.5 0,-152.5 87,-152.5 87,-133.5 0,-133.5"/>
<text text-anchor="middle" x="43.5" y="-140.5" font-family="Helvetica,sans-Serif" font-size="10.00" fill="#000000">js_std_file_seek</text>
</g>
<!-- Node11609 -->
<g id="node2" class="node">
<title>Node11609</title>
<g id="a_node2"><a xlink:href="quickjs-libc_8c.html#ae0b015235e2737bee13533c992f0b71b" target="_top" xlink:title="js_std_file_get">
<polygon fill="none" stroke="#000000" points="123,-190.5 123,-209.5 203,-209.5 203,-190.5 123,-190.5"/>
<text text-anchor="middle" x="163" y="-197.5" font-family="Helvetica,sans-Serif" font-size="10.00" fill="#000000">js_std_file_get</text>
</a>
</g>
</g>
<!-- Node11608&#45;&gt;Node11609 -->
<g id="edge1" class="edge">
<title>Node11608&#45;&gt;Node11609</title>
<path fill="none" stroke="#191970" d="M63.5016,-152.5405C82.7171,-161.7061 111.9703,-175.6595 133.7909,-186.0676"/>
<polygon fill="#191970" stroke="#191970" points="132.4005,-189.2821 142.9331,-190.4284 135.4142,-182.9641 132.4005,-189.2821"/>
</g>
<!-- Node11610 -->
<g id="node3" class="node">
<title>Node11610</title>
<g id="a_node3"><a xlink:href="quickjs-libc_8c.html#ada7a3010456e1b1c398aa2ba7f3fc2f9" target="_top" xlink:title="js_std_throw_errno">
<polygon fill="none" stroke="#000000" points="239,-152.5 239,-171.5 338,-171.5 338,-152.5 239,-152.5"/>
<text text-anchor="middle" x="288.5" y="-159.5" font-family="Helvetica,sans-Serif" font-size="10.00" fill="#000000">js_std_throw_errno</text>
</a>
</g>
</g>
<!-- Node11608&#45;&gt;Node11610 -->
<g id="edge7" class="edge">
<title>Node11608&#45;&gt;Node11610</title>
<path fill="none" stroke="#191970" d="M87.0188,-146.3749C126.3547,-149.4255 184.6316,-153.9449 228.4044,-157.3395"/>
<polygon fill="#191970" stroke="#191970" points="228.3944,-160.8492 238.6351,-158.1329 228.9357,-153.8701 228.3944,-160.8492"/>
</g>
<!-- Node11942 -->
<g id="node8" class="node">
<title>Node11942</title>
<g id="a_node8"><a xlink:href="quickjs_8c.html#a4073bd2b4f247bf6077cd956759193b9" target="_top" xlink:title="JS_ToInt32">
<polygon fill="none" stroke="#ff0000" points="129.5,-114.5 129.5,-133.5 196.5,-133.5 196.5,-114.5 129.5,-114.5"/>
<text text-anchor="middle" x="163" y="-121.5" font-family="Helvetica,sans-Serif" font-size="10.00" fill="#000000">JS_ToInt32</text>
</a>
</g>
</g>
<!-- Node11608&#45;&gt;Node11942 -->
<g id="edge8" class="edge">
<title>Node11608&#45;&gt;Node11942</title>
<path fill="none" stroke="#191970" d="M87.3188,-136.033C97.7103,-134.3808 108.7953,-132.6183 119.1865,-130.9662"/>
<polygon fill="#191970" stroke="#191970" points="119.9687,-134.3858 129.295,-129.3589 118.8695,-127.4727 119.9687,-134.3858"/>
</g>
<!-- Node12082 -->
<g id="node10" class="node">
<title>Node12082</title>
<g id="a_node10"><a xlink:href="quickjs_8c.html#ae2829a2d31c667739617023e2374a6b2" target="_top" xlink:title="JS_ToInt64">
<polygon fill="none" stroke="#000000" points="129.5,-76.5 129.5,-95.5 196.5,-95.5 196.5,-76.5 129.5,-76.5"/>
<text text-anchor="middle" x="163" y="-83.5" font-family="Helvetica,sans-Serif" font-size="10.00" fill="#000000">JS_ToInt64</text>
</a>
</g>
</g>
<!-- Node11608&#45;&gt;Node12082 -->
<g id="edge10" class="edge">
<title>Node11608&#45;&gt;Node12082</title>
<path fill="none" stroke="#191970" d="M63.4234,-133.4604C79.4992,-125.767 102.6991,-114.6732 123,-105 126.3921,-103.3837 129.947,-101.692 133.4789,-100.0126"/>
<polygon fill="#191970" stroke="#191970" points="135.1165,-103.1095 142.6464,-95.6562 132.1121,-96.787 135.1165,-103.1095"/>
</g>
<!-- Node11609&#45;&gt;Node11610 -->
<g id="edge2" class="edge">
<title>Node11609&#45;&gt;Node11610</title>
<path fill="none" stroke="#191970" d="M194.6689,-190.411C210.5725,-185.5956 230.0396,-179.7012 247.1114,-174.532"/>
<polygon fill="#191970" stroke="#191970" points="248.2846,-177.8338 256.8412,-171.5859 246.256,-171.1342 248.2846,-177.8338"/>
</g>
<!-- Node11611 -->
<g id="node4" class="node">
<title>Node11611</title>
<g id="a_node4"><a xlink:href="quickjs_8h.html#ad80a83d73e9b7d872b88fbf2943aebe9" target="_top" xlink:title="JS_IsException">
<polygon fill="none" stroke="#000000" points="380.5,-114.5 380.5,-133.5 466.5,-133.5 466.5,-114.5 380.5,-114.5"/>
<text text-anchor="middle" x="423.5" y="-121.5" font-family="Helvetica,sans-Serif" font-size="10.00" fill="#000000">JS_IsException</text>
</a>
</g>
</g>
<!-- Node11610&#45;&gt;Node11611 -->
<g id="edge3" class="edge">
<title>Node11610&#45;&gt;Node11611</title>
<path fill="none" stroke="#191970" d="M322.5662,-152.411C339.9135,-147.5281 361.2022,-141.5357 379.7492,-136.315"/>
<polygon fill="#191970" stroke="#191970" points="380.7671,-139.6646 389.4447,-133.5859 378.8704,-132.9265 380.7671,-139.6646"/>
</g>
<!-- Node11612 -->
<g id="node5" class="node">
<title>Node11612</title>
<g id="a_node5"><a xlink:href="quickjs-libc_8c.html#a980a3e92299b994c60d696fc295edf11" target="_top" xlink:title="js_new_std_error">
<polygon fill="none" stroke="#ff0000" points="378,-190.5 378,-209.5 469,-209.5 469,-190.5 378,-190.5"/>
<text text-anchor="middle" x="423.5" y="-197.5" font-family="Helvetica,sans-Serif" font-size="10.00" fill="#000000">js_new_std_error</text>
</a>
</g>
</g>
<!-- Node11610&#45;&gt;Node11612 -->
<g id="edge4" class="edge">
<title>Node11610&#45;&gt;Node11612</title>
<path fill="none" stroke="#191970" d="M322.5662,-171.589C339.9135,-176.4719 361.2022,-182.4643 379.7492,-187.685"/>
<polygon fill="#191970" stroke="#191970" points="378.8704,-191.0735 389.4447,-190.4141 380.7671,-184.3354 378.8704,-191.0735"/>
</g>
<!-- Node11855 -->
<g id="node6" class="node">
<title>Node11855</title>
<g id="a_node6"><a xlink:href="quickjs_8c.html#a3ae8a83da71ef07d6e858d172d9c5a81" target="_top" xlink:title="JS_Throw">
<polygon fill="none" stroke="#000000" points="393,-152.5 393,-171.5 454,-171.5 454,-152.5 393,-152.5"/>
<text text-anchor="middle" x="423.5" y="-159.5" font-family="Helvetica,sans-Serif" font-size="10.00" fill="#000000">JS_Throw</text>
</a>
</g>
</g>
<!-- Node11610&#45;&gt;Node11855 -->
<g id="edge5" class="edge">
<title>Node11610&#45;&gt;Node11855</title>
<path fill="none" stroke="#191970" d="M338.0024,-162C352.6342,-162 368.4832,-162 382.5146,-162"/>
<polygon fill="#191970" stroke="#191970" points="382.8401,-165.5001 392.84,-162 382.84,-158.5001 382.8401,-165.5001"/>
</g>
<!-- Node11773 -->
<g id="node7" class="node">
<title>Node11773</title>
<g id="a_node7"><a xlink:href="quickjs_8h.html#afaa20c47565bc704c6c85f3d77254e7d" target="_top" xlink:title="JS_FreeValue">
<polygon fill="none" stroke="#ff0000" points="509,-114.5 509,-133.5 587,-133.5 587,-114.5 509,-114.5"/>
<text text-anchor="middle" x="548" y="-121.5" font-family="Helvetica,sans-Serif" font-size="10.00" fill="#000000">JS_FreeValue</text>
</a>
</g>
</g>
<!-- Node11855&#45;&gt;Node11773 -->
<g id="edge6" class="edge">
<title>Node11855&#45;&gt;Node11773</title>
<path fill="none" stroke="#191970" d="M454.2753,-152.6067C470.1665,-147.7564 489.7714,-141.7726 506.9361,-136.5336"/>
<polygon fill="#191970" stroke="#191970" points="508.1713,-139.816 516.714,-133.5491 506.1278,-133.1209 508.1713,-139.816"/>
</g>
<!-- Node11628 -->
<g id="node9" class="node">
<title>Node11628</title>
<g id="a_node9"><a xlink:href="quickjs_8h.html#a775522f2d084fc8fa0fcb33f390006b4" target="_top" xlink:title="JS_DupValue">
<polygon fill="none" stroke="#000000" points="250,-114.5 250,-133.5 327,-133.5 327,-114.5 250,-114.5"/>
<text text-anchor="middle" x="288.5" y="-121.5" font-family="Helvetica,sans-Serif" font-size="10.00" fill="#000000">JS_DupValue</text>
</a>
</g>
</g>
<!-- Node11942&#45;&gt;Node11628 -->
<g id="edge9" class="edge">
<title>Node11942&#45;&gt;Node11628</title>
<path fill="none" stroke="#191970" d="M196.6317,-124C209.8359,-124 225.2504,-124 239.6391,-124"/>
<polygon fill="#191970" stroke="#191970" points="239.8887,-127.5001 249.8887,-124 239.8887,-120.5001 239.8887,-127.5001"/>
</g>
<!-- Node12082&#45;&gt;Node11628 -->
<g id="edge16" class="edge">
<title>Node12082&#45;&gt;Node11628</title>
<path fill="none" stroke="#191970" d="M194.6689,-95.589C210.5725,-100.4044 230.0396,-106.2988 247.1114,-111.468"/>
<polygon fill="#191970" stroke="#191970" points="246.256,-114.8658 256.8412,-114.4141 248.2846,-108.1662 246.256,-114.8658"/>
</g>
<!-- Node12083 -->
<g id="node11" class="node">
<title>Node12083</title>
<g id="a_node11"><a xlink:href="quickjs_8c.html#a96b34a3e22e35e0ac6d7b388e7c2b5c6" target="_top" xlink:title="JS_ToInt64Free">
<polygon fill="none" stroke="#000000" points="245.5,-76.5 245.5,-95.5 331.5,-95.5 331.5,-76.5 245.5,-76.5"/>
<text text-anchor="middle" x="288.5" y="-83.5" font-family="Helvetica,sans-Serif" font-size="10.00" fill="#000000">JS_ToInt64Free</text>
</a>
</g>
</g>
<!-- Node12082&#45;&gt;Node12083 -->
<g id="edge11" class="edge">
<title>Node12082&#45;&gt;Node12083</title>
<path fill="none" stroke="#191970" d="M196.6317,-86C208.4337,-86 222.0014,-86 235.0242,-86"/>
<polygon fill="#191970" stroke="#191970" points="235.3073,-89.5001 245.3073,-86 235.3072,-82.5001 235.3073,-89.5001"/>
</g>
<!-- Node12083&#45;&gt;Node11611 -->
<g id="edge15" class="edge">
<title>Node12083&#45;&gt;Node11611</title>
<path fill="none" stroke="#191970" d="M322.5662,-95.589C339.9135,-100.4719 361.2022,-106.4643 379.7492,-111.685"/>
<polygon fill="#191970" stroke="#191970" points="378.8704,-115.0735 389.4447,-114.4141 380.7671,-108.3354 378.8704,-115.0735"/>
</g>
<!-- Node12083&#45;&gt;Node11773 -->
<g id="edge12" class="edge">
<title>Node12083&#45;&gt;Node11773</title>
<path fill="none" stroke="#191970" d="M331.6181,-88.6585C369.1671,-91.3971 424.9642,-96.4887 473,-105 483.4239,-106.847 494.5379,-109.3575 504.9292,-111.948"/>
<polygon fill="#191970" stroke="#191970" points="504.0682,-115.3404 514.6244,-114.4371 505.8089,-108.5603 504.0682,-115.3404"/>
</g>
<!-- Node11755 -->
<g id="node12" class="node">
<title>Node11755</title>
<g id="a_node12"><a xlink:href="quickjs_8c.html#aaaa960ff4bdf4b4dd3017b555844c397" target="_top" xlink:title="is_bigint_mode">
<polygon fill="none" stroke="#000000" points="382.5,-38.5 382.5,-57.5 464.5,-57.5 464.5,-38.5 382.5,-38.5"/>
<text text-anchor="middle" x="423.5" y="-45.5" font-family="Helvetica,sans-Serif" font-size="10.00" fill="#000000">is_bigint_mode</text>
</a>
</g>
</g>
<!-- Node12083&#45;&gt;Node11755 -->
<g id="edge13" class="edge">
<title>Node12083&#45;&gt;Node11755</title>
<path fill="none" stroke="#191970" d="M322.5662,-76.411C339.9135,-71.5281 361.2022,-65.5357 379.7492,-60.315"/>
<polygon fill="#191970" stroke="#191970" points="380.7671,-63.6646 389.4447,-57.5859 378.8704,-56.9265 380.7671,-63.6646"/>
</g>
<!-- Node11831 -->
<g id="node13" class="node">
<title>Node11831</title>
<g id="a_node13"><a xlink:href="quickjs_8c.html#ae738291483438efefca5c9fa4d269504" target="_top" xlink:title="JS_ToNumberFree">
<polygon fill="none" stroke="#ff0000" points="374,-.5 374,-19.5 473,-19.5 473,-.5 374,-.5"/>
<text text-anchor="middle" x="423.5" y="-7.5" font-family="Helvetica,sans-Serif" font-size="10.00" fill="#000000">JS_ToNumberFree</text>
</a>
</g>
</g>
<!-- Node12083&#45;&gt;Node11831 -->
<g id="edge14" class="edge">
<title>Node12083&#45;&gt;Node11831</title>
<path fill="none" stroke="#191970" d="M300.9896,-76.3808C317.1772,-64.2234 346.5855,-43.1766 374,-29 377.7714,-27.0497 381.7907,-25.1854 385.8462,-23.4394"/>
<polygon fill="#191970" stroke="#191970" points="387.3362,-26.6117 395.2748,-19.5954 384.6935,-20.1297 387.3362,-26.6117"/>
</g>
</g>
</svg>
        <g id="navigator" transform="translate(0 0)" fill="#404254">
                <rect fill="#f2f5e9" fill-opacity="0.5" stroke="#606060" stroke-width=".5" x="0" y="0" width="60" height="60"/>
                <use id="zoomplus" xlink:href="#zoomPlus" x="17" y="9" onmousedown="handleZoom(evt,'in')"/>
                <use id="zoomminus" xlink:href="#zoomMin" x="42" y="9" onmousedown="handleZoom(evt,'out')"/>
                <use id="reset" xlink:href="#resetDef" x="30" y="36" onmousedown="handleReset()"/>
                <g id="arrowUp" xlink:href="#dirArrow" transform="translate(30 24)" onmousedown="handlePan(0,-1)">
                  <use xlink:href="#rim" fill="#404040">
                        <set attributeName="fill" to="#808080" begin="arrowUp.mouseover" end="arrowUp.mouseout"/>
                  </use>
                  <path fill="none" stroke="white" stroke-width="1.5" d="M0,-3.0v7 M-2.5,-0.5L0,-3.0L2.5,-0.5"/>
                </g>
                <g id="arrowRight" xlink:href="#dirArrow" transform="rotate(90) translate(36 -43)" onmousedown="handlePan(1,0)">
                  <use xlink:href="#rim" fill="#404040">
                        <set attributeName="fill" to="#808080" begin="arrowRight.mouseover" end="arrowRight.mouseout"/>
                  </use>
                  <path fill="none" stroke="white" stroke-width="1.5" d="M0,-3.0v7 M-2.5,-0.5L0,-3.0L2.5,-0.5"/>
                </g>
                <g id="arrowDown" xlink:href="#dirArrow" transform="rotate(180) translate(-30 -48)" onmousedown="handlePan(0,1)">
                  <use xlink:href="#rim" fill="#404040">
                        <set attributeName="fill" to="#808080" begin="arrowDown.mouseover" end="arrowDown.mouseout"/>
                  </use>
                  <path fill="none" stroke="white" stroke-width="1.5" d="M0,-3.0v7 M-2.5,-0.5L0,-3.0L2.5,-0.5"/>
                </g>
                <g id="arrowLeft" xlink:href="#dirArrow" transform="rotate(270) translate(-36 17)" onmousedown="handlePan(-1,0)">
                  <use xlink:href="#rim" fill="#404040">
                        <set attributeName="fill" to="#808080" begin="arrowLeft.mouseover" end="arrowLeft.mouseout"/>
                  </use>
                  <path fill="none" stroke="white" stroke-width="1.5" d="M0,-3.0v7 M-2.5,-0.5L0,-3.0L2.5,-0.5"/>
                </g>
        </g>
        <svg viewBox="0 0 15 15" width="100%" height="30px" preserveAspectRatio="xMaxYMin meet">
         <g id="arrow_out" transform="scale(0.3 0.3)">
          <a xlink:href="quickjs-libc_8c_ab4e00836dd0e1609a2b081eb5e335df9_cgraph_org.svg" target="_base">
           <rect id="button" ry="5" rx="5" y="6" x="6" height="38" width="38"
                fill="#f2f5e9" fill-opacity="0.5" stroke="#606060" stroke-width="1.0"/>
           <path id="arrow"
             d="M 11.500037,31.436501 C 11.940474,20.09759 22.043105,11.32322 32.158766,21.979434 L 37.068811,17.246167 C 37.068811,17.246167 37.088388,32 37.088388,32 L 22.160133,31.978069 C 22.160133,31.978069 26.997745,27.140456 26.997745,27.140456 C 18.528582,18.264221 13.291696,25.230495 11.500037,31.436501 z"
             style="fill:#404040;"/>
          </a>
         </g>
        </svg>
</svg>
