<?xml version="1.0" encoding="UTF-8" standalone="no"?>
<!DOCTYPE svg PUBLIC "-//W3C//DTD SVG 1.1//EN"
 "http://www.w3.org/Graphics/SVG/1.1/DTD/svg11.dtd">
<!-- Generated by graphviz version 2.40.1 (20161225.0304)
 -->
<!-- Title: js_create_array Pages: 1 -->
<svg width="522pt" height="160pt"
 viewBox="0.00 0.00 522.00 160.00" xmlns="http://www.w3.org/2000/svg" xmlns:xlink="http://www.w3.org/1999/xlink">
<g id="graph0" class="graph" transform="scale(1 1) rotate(0) translate(4 156)">
<title>js_create_array</title>
<!-- Node366892 -->
<g id="node1" class="node">
<title>Node366892</title>
<polygon fill="#bfbfbf" stroke="#000000" points="0,-57.5 0,-76.5 83,-76.5 83,-57.5 0,-57.5"/>
<text text-anchor="middle" x="41.5" y="-64.5" font-family="Helvetica,sans-Serif" font-size="10.00" fill="#000000">js_create_array</text>
</g>
<!-- Node366893 -->
<g id="node2" class="node">
<title>Node366893</title>
<g id="a_node2"><a xlink:href="quickjs_8c.html#a4398c126700f887a947501bf25910f75" target="_top" xlink:title="js_array_iterator_next">
<polygon fill="none" stroke="#000000" points="128,-114.5 128,-133.5 238,-133.5 238,-114.5 128,-114.5"/>
<text text-anchor="middle" x="183" y="-121.5" font-family="Helvetica,sans-Serif" font-size="10.00" fill="#000000">js_array_iterator_next</text>
</a>
</g>
</g>
<!-- Node366892&#45;&gt;Node366893 -->
<g id="edge1" class="edge">
<title>Node366892&#45;&gt;Node366893</title>
<path fill="none" stroke="#191970" d="M68.0157,-81.3735C82.7593,-89.0139 101.5949,-98.2045 119,-105 127.9612,-108.4988 137.8392,-111.726 147.0975,-114.4901"/>
<polygon fill="#191970" stroke="#191970" points="69.4537,-78.1753 58.974,-76.6173 66.1948,-84.3705 69.4537,-78.1753"/>
</g>
<!-- Node367472 -->
<g id="node5" class="node">
<title>Node367472</title>
<g id="a_node5"><a xlink:href="quickjs_8c.html#a1ad7bf3085e6a0e933fcc6d84748ea72" target="_top" xlink:title="js_map_iterator_next">
<polygon fill="none" stroke="#000000" points="129.5,-76.5 129.5,-95.5 236.5,-95.5 236.5,-76.5 129.5,-76.5"/>
<text text-anchor="middle" x="183" y="-83.5" font-family="Helvetica,sans-Serif" font-size="10.00" fill="#000000">js_map_iterator_next</text>
</a>
</g>
</g>
<!-- Node366892&#45;&gt;Node367472 -->
<g id="edge5" class="edge">
<title>Node366892&#45;&gt;Node367472</title>
<path fill="none" stroke="#191970" d="M93.2616,-73.9503C104.9838,-75.5243 117.457,-77.1992 129.259,-78.7839"/>
<polygon fill="#191970" stroke="#191970" points="93.5662,-70.4599 83.1893,-72.5979 92.6346,-77.3976 93.5662,-70.4599"/>
</g>
<!-- Node366983 -->
<g id="node6" class="node">
<title>Node366983</title>
<g id="a_node6"><a xlink:href="quickjs_8c.html#ab586d841244b113ba73eec314395775d" target="_top" xlink:title="js_proxy_call">
<polygon fill="none" stroke="#ff0000" points="146,-38.5 146,-57.5 220,-57.5 220,-38.5 146,-38.5"/>
<text text-anchor="middle" x="183" y="-45.5" font-family="Helvetica,sans-Serif" font-size="10.00" fill="#000000">js_proxy_call</text>
</a>
</g>
</g>
<!-- Node366892&#45;&gt;Node366983 -->
<g id="edge6" class="edge">
<title>Node366892&#45;&gt;Node366983</title>
<path fill="none" stroke="#191970" d="M93.2435,-60.0521C110.7076,-57.7071 129.8405,-55.138 145.9381,-52.9765"/>
<polygon fill="#191970" stroke="#191970" points="92.6346,-56.6024 83.1893,-61.4021 93.5662,-63.5401 92.6346,-56.6024"/>
</g>
<!-- Node366958 -->
<g id="node7" class="node">
<title>Node366958</title>
<g id="a_node7"><a xlink:href="quickjs_8c.html#af97646b66d6fcb8bd19543d93baeadd7" target="_top" xlink:title="js_proxy_call_constructor">
<polygon fill="none" stroke="#ff0000" points="119,-.5 119,-19.5 247,-19.5 247,-.5 119,-.5"/>
<text text-anchor="middle" x="183" y="-7.5" font-family="Helvetica,sans-Serif" font-size="10.00" fill="#000000">js_proxy_call_constructor</text>
</a>
</g>
</g>
<!-- Node366892&#45;&gt;Node366958 -->
<g id="edge7" class="edge">
<title>Node366892&#45;&gt;Node366958</title>
<path fill="none" stroke="#191970" d="M68.0157,-52.6265C82.7593,-44.9861 101.5949,-35.7955 119,-29 127.9612,-25.5012 137.8392,-22.274 147.0975,-19.5099"/>
<polygon fill="#191970" stroke="#191970" points="66.1948,-49.6295 58.974,-57.3827 69.4537,-55.8247 66.1948,-49.6295"/>
</g>
<!-- Node366894 -->
<g id="node3" class="node">
<title>Node366894</title>
<g id="a_node3"><a xlink:href="quickjs_8c.html#a43208b0746998d2b6b9b8bd1ef8b5f99" target="_top" xlink:title="js_append_enumerate">
<polygon fill="none" stroke="#000000" points="283,-114.5 283,-133.5 395,-133.5 395,-114.5 283,-114.5"/>
<text text-anchor="middle" x="339" y="-121.5" font-family="Helvetica,sans-Serif" font-size="10.00" fill="#000000">js_append_enumerate</text>
</a>
</g>
</g>
<!-- Node366893&#45;&gt;Node366894 -->
<g id="edge2" class="edge">
<title>Node366893&#45;&gt;Node366894</title>
<path fill="none" stroke="#191970" d="M248.7568,-124C260.1319,-124 271.8634,-124 282.9507,-124"/>
<polygon fill="#191970" stroke="#191970" points="248.439,-120.5001 238.439,-124 248.439,-127.5001 248.439,-120.5001"/>
</g>
<!-- Node366895 -->
<g id="node4" class="node">
<title>Node366895</title>
<g id="a_node4"><a xlink:href="quickjs_8c.html#ac2894ff4edcdb4e6841bcce9c76081e3" target="_top" xlink:title="JS_CallInternal">
<polygon fill="none" stroke="#ff0000" points="431,-114.5 431,-133.5 514,-133.5 514,-114.5 431,-114.5"/>
<text text-anchor="middle" x="472.5" y="-121.5" font-family="Helvetica,sans-Serif" font-size="10.00" fill="#000000">JS_CallInternal</text>
</a>
</g>
</g>
<!-- Node366894&#45;&gt;Node366895 -->
<g id="edge3" class="edge">
<title>Node366894&#45;&gt;Node366895</title>
<path fill="none" stroke="#191970" d="M405.4045,-124C414.1057,-124 422.8148,-124 430.9402,-124"/>
<polygon fill="#191970" stroke="#191970" points="405.2291,-120.5001 395.2291,-124 405.2291,-127.5001 405.2291,-120.5001"/>
</g>
<!-- Node366895&#45;&gt;Node366895 -->
<g id="edge4" class="edge">
<title>Node366895&#45;&gt;Node366895</title>
<path fill="none" stroke="#191970" d="M447.9465,-143.0292C449.2858,-148.128 457.4703,-152 472.5,-152 495.9609,-152 502.7426,-142.5653 492.845,-133.7571"/>
<polygon fill="#191970" stroke="#191970" points="451.209,-144.3096 452.155,-133.7571 444.8348,-141.4164 451.209,-144.3096"/>
</g>
</g>
</svg>
