<?xml version="1.0" encoding="UTF-8" standalone="no"?>
<!DOCTYPE svg PUBLIC "-//W3C//DTD SVG 1.1//EN"
 "http://www.w3.org/Graphics/SVG/1.1/DTD/svg11.dtd">
<!-- Generated by graphviz version 2.40.1 (20161225.0304)
 -->
<!-- Title: JS_GetPropertyUint32 Pages: 1 -->
<!--zoomable 888 -->
<svg id="main" version="1.1" xmlns="http://www.w3.org/2000/svg" xmlns:xlink="http://www.w3.org/1999/xlink" xml:space="preserve" onload="init(evt)">
<style type="text/css"><![CDATA[
.edge:hover path { stroke: red; }
.edge:hover polygon { stroke: red; fill: red; }
]]></style>
<script type="text/javascript"><![CDATA[
var edges = document.getElementsByTagName('g');
if (edges && edges.length) {
  for (var i=0;i<edges.length;i++) {
    if (edges[i].id.substr(0,4)=='edge') {
      edges[i].setAttribute('class','edge');
    }
  }
}
]]></script>
        <defs>
                <circle id="rim" cx="0" cy="0" r="7"/>
                <circle id="rim2" cx="0" cy="0" r="3.5"/>
                <g id="zoomPlus">
                        <use xlink:href="#rim" fill="#404040">
                                <set attributeName="fill" to="#808080" begin="zoomplus.mouseover" end="zoomplus.mouseout"/>
                        </use>
                        <path d="M-4,0h8M0,-4v8" fill="none" stroke="white" stroke-width="1.5" pointer-events="none"/>
                </g>
                <g id="zoomMin">
                        <use xlink:href="#rim" fill="#404040">
                                <set attributeName="fill" to="#808080" begin="zoomminus.mouseover" end="zoomminus.mouseout"/>
                        </use>
                        <path d="M-4,0h8" fill="none" stroke="white" stroke-width="1.5" pointer-events="none"/>
                </g>
                <g id="dirArrow">
                        <path fill="none" stroke="white" stroke-width="1.5" d="M0,-3.0v7 M-2.5,-0.5L0,-3.0L2.5,-0.5"/>
                </g>
               <g id="resetDef">
                       <use xlink:href="#rim2" fill="#404040">
                               <set attributeName="fill" to="#808080" begin="reset.mouseover" end="reset.mouseout"/>
                       </use>
               </g>
        </defs>

<script type="text/javascript">
var viewWidth = 828;
var viewHeight = 888;
var sectionId = 'dynsection-169';
</script>
<script xlink:href="svgpan.js"/>
<svg id="graph" class="graph">
<g id="viewport">
<title>JS_GetPropertyUint32</title>
<!-- Node61293 -->
<g id="node1" class="node">
<title>Node61293</title>
<polygon fill="#bfbfbf" stroke="#000000" points="0,-334.5 0,-353.5 115,-353.5 115,-334.5 0,-334.5"/>
<text text-anchor="middle" x="57.5" y="-341.5" font-family="Helvetica,sans-Serif" font-size="10.00" fill="#000000">JS_GetPropertyUint32</text>
</g>
<!-- Node61294 -->
<g id="node2" class="node">
<title>Node61294</title>
<g id="a_node2"><a xlink:href="quickjs_8c.html#a4956f45ffd2849b96dc051277264f87a" target="_top" xlink:title="build_arg_list">
<polygon fill="none" stroke="#000000" points="190,-707.5 190,-726.5 264,-726.5 264,-707.5 190,-707.5"/>
<text text-anchor="middle" x="227" y="-714.5" font-family="Helvetica,sans-Serif" font-size="10.00" fill="#000000">build_arg_list</text>
</a>
</g>
</g>
<!-- Node61293&#45;&gt;Node61294 -->
<g id="edge1" class="edge">
<title>Node61293&#45;&gt;Node61294</title>
<path fill="none" stroke="#191970" d="M60.6784,-363.5908C69.2331,-412.4243 95.9156,-542.3569 151,-636 168.501,-665.7515 198.6848,-693.4989 215.259,-707.499"/>
<polygon fill="#191970" stroke="#191970" points="64.1259,-362.9857 59.0045,-353.711 57.2242,-364.1551 64.1259,-362.9857"/>
</g>
<!-- Node61347 -->
<g id="node7" class="node">
<title>Node61347</title>
<g id="a_node7"><a xlink:href="quickjs_8c.html#a27dcb5e2923cd6c0201c70546d704748" target="_top" xlink:title="js_map_constructor">
<polygon fill="none" stroke="#ff0000" points="701,-726.5 701,-745.5 803,-745.5 803,-726.5 701,-726.5"/>
<text text-anchor="middle" x="752" y="-733.5" font-family="Helvetica,sans-Serif" font-size="10.00" fill="#000000">js_map_constructor</text>
</a>
</g>
</g>
<!-- Node61293&#45;&gt;Node61347 -->
<g id="edge25" class="edge">
<title>Node61293&#45;&gt;Node61347</title>
<path fill="none" stroke="#191970" d="M58.5239,-363.8919C62.1303,-411.2907 78.3553,-531.101 151,-587 327.0905,-722.4992 448.939,-542.2954 648,-641 668.8428,-651.3349 667.0575,-663.0568 684,-679 702.6226,-696.5242 725.6861,-715.2886 739.6009,-726.3163"/>
<polygon fill="#191970" stroke="#191970" points="62.0042,-363.4734 57.8646,-353.7208 55.0188,-363.9262 62.0042,-363.4734"/>
</g>
<!-- Node61629 -->
<g id="node10" class="node">
<title>Node61629</title>
<g id="a_node10"><a xlink:href="quickjs_8c.html#a5762c57ae0c9937e986040c01222833a" target="_top" xlink:title="JS_GetPropertyInternal">
<polygon fill="none" stroke="#ff0000" points="692.5,-650.5 692.5,-669.5 811.5,-669.5 811.5,-650.5 692.5,-650.5"/>
<text text-anchor="middle" x="752" y="-657.5" font-family="Helvetica,sans-Serif" font-size="10.00" fill="#000000">JS_GetPropertyInternal</text>
</a>
</g>
</g>
<!-- Node61293&#45;&gt;Node61629 -->
<g id="edge24" class="edge">
<title>Node61293&#45;&gt;Node61629</title>
<path fill="none" stroke="#191970" d="M59.7413,-363.6088C65.7686,-406.38 86.506,-507.9809 151,-555 240.7511,-620.4327 541.408,-576.7777 648,-608 681.7086,-617.8737 717.64,-638.348 737.2,-650.4514"/>
<polygon fill="#191970" stroke="#191970" points="63.2053,-363.104 58.4571,-353.6327 56.2626,-363.9977 63.2053,-363.104"/>
</g>
<!-- Node61651 -->
<g id="node11" class="node">
<title>Node61651</title>
<g id="a_node11"><a xlink:href="quickjs_8c.html#a438b354d69a8f0674195b0cdc19dd686" target="_top" xlink:title="js_proxy_get_own_property\l_names">
<polygon fill="none" stroke="#000000" points="684,-531 684,-561 820,-561 820,-531 684,-531"/>
<text text-anchor="start" x="692" y="-549" font-family="Helvetica,sans-Serif" font-size="10.00" fill="#000000">js_proxy_get_own_property</text>
<text text-anchor="middle" x="752" y="-538" font-family="Helvetica,sans-Serif" font-size="10.00" fill="#000000">_names</text>
</a>
</g>
</g>
<!-- Node61293&#45;&gt;Node61651 -->
<g id="edge28" class="edge">
<title>Node61293&#45;&gt;Node61651</title>
<path fill="none" stroke="#191970" d="M63.6882,-363.0436C75.1934,-395.0464 103.1539,-458.9569 151,-488 173.5141,-501.6663 531.1727,-529.6275 683.8149,-541.0113"/>
<polygon fill="#191970" stroke="#191970" points="66.9722,-361.8301 60.4124,-353.5102 60.3521,-364.1049 66.9722,-361.8301"/>
</g>
<!-- Node61671 -->
<g id="node13" class="node">
<title>Node61671</title>
<g id="a_node13"><a xlink:href="structqjs_1_1js__property__traits_3_01uint32__t_01_4.html#af19da02fec28059477a39b16c531a97c" target="_top" xlink:title="qjs::js_property_traits\l\&lt; uint32_t \&gt;::get_property">
<polygon fill="none" stroke="#000000" points="162.5,-449 162.5,-479 291.5,-479 291.5,-449 162.5,-449"/>
<text text-anchor="start" x="170.5" y="-467" font-family="Helvetica,sans-Serif" font-size="10.00" fill="#000000">qjs::js_property_traits</text>
<text text-anchor="middle" x="227" y="-456" font-family="Helvetica,sans-Serif" font-size="10.00" fill="#000000">&lt; uint32_t &gt;::get_property</text>
</a>
</g>
</g>
<!-- Node61293&#45;&gt;Node61671 -->
<g id="edge19" class="edge">
<title>Node61293&#45;&gt;Node61671</title>
<path fill="none" stroke="#191970" d="M70.5681,-361.7016C87.0897,-382.9079 117.4538,-418.1744 151,-439 157.1365,-442.8095 163.9157,-446.1029 170.8235,-448.9327"/>
<polygon fill="#191970" stroke="#191970" points="73.209,-359.3925 64.3659,-353.5571 67.6399,-363.6334 73.209,-359.3925"/>
</g>
<!-- Node61535 -->
<g id="node14" class="node">
<title>Node61535</title>
<g id="a_node14"><a xlink:href="quickjs_8c.html#a4398c126700f887a947501bf25910f75" target="_top" xlink:title="js_array_iterator_next">
<polygon fill="none" stroke="#ff0000" points="172,-410.5 172,-429.5 282,-429.5 282,-410.5 172,-410.5"/>
<text text-anchor="middle" x="227" y="-417.5" font-family="Helvetica,sans-Serif" font-size="10.00" fill="#000000">js_array_iterator_next</text>
</a>
</g>
</g>
<!-- Node61293&#45;&gt;Node61535 -->
<g id="edge20" class="edge">
<title>Node61293&#45;&gt;Node61535</title>
<path fill="none" stroke="#191970" d="M78.6419,-359.4645C96.9698,-372.2244 124.624,-389.9657 151,-401 159.9082,-404.7267 169.7211,-407.8478 179.2515,-410.4124"/>
<polygon fill="#191970" stroke="#191970" points="80.6228,-356.5785 70.4402,-353.6519 76.5752,-362.2897 80.6228,-356.5785"/>
</g>
<!-- Node61590 -->
<g id="node15" class="node">
<title>Node61590</title>
<g id="a_node15"><a xlink:href="quickjs_8c.html#a4f8035820871c730dd7e98d46e137bc1" target="_top" xlink:title="js_array_join">
<polygon fill="none" stroke="#000000" points="191.5,-372.5 191.5,-391.5 262.5,-391.5 262.5,-372.5 191.5,-372.5"/>
<text text-anchor="middle" x="227" y="-379.5" font-family="Helvetica,sans-Serif" font-size="10.00" fill="#000000">js_array_join</text>
</a>
</g>
</g>
<!-- Node61293&#45;&gt;Node61590 -->
<g id="edge21" class="edge">
<title>Node61293&#45;&gt;Node61590</title>
<path fill="none" stroke="#191970" d="M110.1293,-355.7989C136.5418,-361.7203 167.8394,-368.7368 191.3962,-374.018"/>
<polygon fill="#191970" stroke="#191970" points="110.7955,-352.3614 100.272,-353.589 109.2641,-359.1919 110.7955,-352.3614"/>
</g>
<!-- Node61672 -->
<g id="node16" class="node">
<title>Node61672</title>
<g id="a_node16"><a xlink:href="quickjs_8c.html#ad13892c0a0f11781b566808876658099" target="_top" xlink:title="JS_GetOwnPropertyInternal">
<polygon fill="none" stroke="#ff0000" points="339,-536.5 339,-555.5 478,-555.5 478,-536.5 339,-536.5"/>
<text text-anchor="middle" x="408.5" y="-543.5" font-family="Helvetica,sans-Serif" font-size="10.00" fill="#000000">JS_GetOwnPropertyInternal</text>
</a>
</g>
</g>
<!-- Node61293&#45;&gt;Node61672 -->
<g id="edge22" class="edge">
<title>Node61293&#45;&gt;Node61672</title>
<path fill="none" stroke="#191970" d="M61.4132,-363.7147C70.0842,-401.6446 94.7703,-484.3485 151,-522 209.8522,-561.4076 293.9505,-561.3616 349.834,-555.5218"/>
<polygon fill="#191970" stroke="#191970" points="64.8221,-362.9186 59.2986,-353.8775 57.9784,-364.3898 64.8221,-362.9186"/>
</g>
<!-- Node61349 -->
<g id="node17" class="node">
<title>Node61349</title>
<g id="a_node17"><a xlink:href="quickjs_8c.html#ad6908ae6db4e80d175180b55e19b203e" target="_top" xlink:title="js_object_fromEntries">
<polygon fill="none" stroke="#000000" points="171.5,-334.5 171.5,-353.5 282.5,-353.5 282.5,-334.5 171.5,-334.5"/>
<text text-anchor="middle" x="227" y="-341.5" font-family="Helvetica,sans-Serif" font-size="10.00" fill="#000000">js_object_fromEntries</text>
</a>
</g>
</g>
<!-- Node61293&#45;&gt;Node61349 -->
<g id="edge26" class="edge">
<title>Node61293&#45;&gt;Node61349</title>
<path fill="none" stroke="#191970" d="M125.7219,-344C140.8978,-344 156.8094,-344 171.4068,-344"/>
<polygon fill="#191970" stroke="#191970" points="125.3582,-340.5001 115.3582,-344 125.3582,-347.5001 125.3582,-340.5001"/>
</g>
<!-- Node61662 -->
<g id="node18" class="node">
<title>Node61662</title>
<g id="a_node18"><a xlink:href="quickjs-libc_8c.html#a0b92fee4bb5dda499a0b6d86da0e8be8" target="_top" xlink:title="js_os_exec">
<polygon fill="none" stroke="#000000" points="194,-296.5 194,-315.5 260,-315.5 260,-296.5 194,-296.5"/>
<text text-anchor="middle" x="227" y="-303.5" font-family="Helvetica,sans-Serif" font-size="10.00" fill="#000000">js_os_exec</text>
</a>
</g>
</g>
<!-- Node61293&#45;&gt;Node61662 -->
<g id="edge27" class="edge">
<title>Node61293&#45;&gt;Node61662</title>
<path fill="none" stroke="#191970" d="M110.0868,-332.2106C137.4421,-326.0779 170.0468,-318.7683 193.8659,-313.4283"/>
<polygon fill="#191970" stroke="#191970" points="109.2641,-328.8081 100.272,-334.411 110.7955,-335.6386 109.2641,-328.8081"/>
</g>
<!-- Node61337 -->
<g id="node19" class="node">
<title>Node61337</title>
<g id="a_node19"><a xlink:href="quickjs_8c.html#acf0e1803a9586d86d752b002a89fb8ed" target="_top" xlink:title="js_typed_array_constructor_obj">
<polygon fill="none" stroke="#ff0000" points="151,-258.5 151,-277.5 303,-277.5 303,-258.5 151,-258.5"/>
<text text-anchor="middle" x="227" y="-265.5" font-family="Helvetica,sans-Serif" font-size="10.00" fill="#000000">js_typed_array_constructor_obj</text>
</a>
</g>
</g>
<!-- Node61293&#45;&gt;Node61337 -->
<g id="edge29" class="edge">
<title>Node61293&#45;&gt;Node61337</title>
<path fill="none" stroke="#191970" d="M78.6419,-328.5355C96.9698,-315.7756 124.624,-298.0343 151,-287 159.9082,-283.2733 169.7211,-280.1522 179.2515,-277.5876"/>
<polygon fill="#191970" stroke="#191970" points="76.5752,-325.7103 70.4402,-334.3481 80.6228,-331.4215 76.5752,-325.7103"/>
</g>
<!-- Node61618 -->
<g id="node20" class="node">
<title>Node61618</title>
<g id="a_node20"><a xlink:href="quickjs_8c.html#a19e15727ea84a3735a3850b18da03330" target="_top" xlink:title="js_typed_array_constructor_ta">
<polygon fill="none" stroke="#ff0000" points="153,-220.5 153,-239.5 301,-239.5 301,-220.5 153,-220.5"/>
<text text-anchor="middle" x="227" y="-227.5" font-family="Helvetica,sans-Serif" font-size="10.00" fill="#000000">js_typed_array_constructor_ta</text>
</a>
</g>
</g>
<!-- Node61293&#45;&gt;Node61618 -->
<g id="edge30" class="edge">
<title>Node61293&#45;&gt;Node61618</title>
<path fill="none" stroke="#191970" d="M70.0732,-326.2178C86.2901,-304.6348 116.5422,-268.6911 151,-249 157.7308,-245.1536 165.232,-242.0782 172.827,-239.621"/>
<polygon fill="#191970" stroke="#191970" points="67.0937,-324.3627 64.0111,-334.4992 72.7421,-328.4975 67.0937,-324.3627"/>
</g>
<!-- Node61688 -->
<g id="node21" class="node">
<title>Node61688</title>
<g id="a_node21"><a xlink:href="quickjs_8c.html#a5552c2701abfaa12a9c9b029a377725d" target="_top" xlink:title="js_typed_array_indexOf">
<polygon fill="none" stroke="#000000" points="167.5,-182.5 167.5,-201.5 286.5,-201.5 286.5,-182.5 167.5,-182.5"/>
<text text-anchor="middle" x="227" y="-189.5" font-family="Helvetica,sans-Serif" font-size="10.00" fill="#000000">js_typed_array_indexOf</text>
</a>
</g>
</g>
<!-- Node61293&#45;&gt;Node61688 -->
<g id="edge31" class="edge">
<title>Node61293&#45;&gt;Node61688</title>
<path fill="none" stroke="#191970" d="M65.6767,-324.6513C79.07,-295.3779 108.5122,-240.1622 151,-211 156.6067,-207.1518 162.9224,-204.082 169.4563,-201.6333"/>
<polygon fill="#191970" stroke="#191970" points="62.3128,-323.6046 61.4739,-334.1662 68.716,-326.4329 62.3128,-323.6046"/>
</g>
<!-- Node61689 -->
<g id="node22" class="node">
<title>Node61689</title>
<g id="a_node22"><a xlink:href="quickjs_8c.html#aa04ea5aa5c3614856e8cd9843f1ebaa1" target="_top" xlink:title="js_typed_array_join">
<polygon fill="none" stroke="#000000" points="176.5,-144.5 176.5,-163.5 277.5,-163.5 277.5,-144.5 176.5,-144.5"/>
<text text-anchor="middle" x="227" y="-151.5" font-family="Helvetica,sans-Serif" font-size="10.00" fill="#000000">js_typed_array_join</text>
</a>
</g>
</g>
<!-- Node61293&#45;&gt;Node61689 -->
<g id="edge32" class="edge">
<title>Node61293&#45;&gt;Node61689</title>
<path fill="none" stroke="#191970" d="M62.4495,-324.797C72.6649,-289.1432 99.5538,-212.7385 151,-173 158.4268,-167.2633 167.3712,-163.2388 176.4757,-160.4202"/>
<polygon fill="#191970" stroke="#191970" points="59.0667,-323.899 59.8058,-334.468 65.8189,-325.7449 59.0667,-323.899"/>
</g>
<!-- Node61612 -->
<g id="node23" class="node">
<title>Node61612</title>
<g id="a_node23"><a xlink:href="quickjs_8c.html#a28f4d08e4321e751cebe37ea7259fe3c" target="_top" xlink:title="js_typed_array_set\l_internal">
<polygon fill="none" stroke="#ff0000" points="177.5,-95 177.5,-125 276.5,-125 276.5,-95 177.5,-95"/>
<text text-anchor="start" x="185.5" y="-113" font-family="Helvetica,sans-Serif" font-size="10.00" fill="#000000">js_typed_array_set</text>
<text text-anchor="middle" x="227" y="-102" font-family="Helvetica,sans-Serif" font-size="10.00" fill="#000000">_internal</text>
</a>
</g>
</g>
<!-- Node61293&#45;&gt;Node61612 -->
<g id="edge33" class="edge">
<title>Node61293&#45;&gt;Node61612</title>
<path fill="none" stroke="#191970" d="M60.7915,-324.4453C68.7233,-283.3668 92.7253,-187.5687 151,-135 158.4258,-128.3013 167.6863,-123.3931 177.1621,-119.798"/>
<polygon fill="#191970" stroke="#191970" points="57.3089,-324.0346 58.9654,-334.4992 64.1962,-325.2857 57.3089,-324.0346"/>
</g>
<!-- Node61653 -->
<g id="node24" class="node">
<title>Node61653</title>
<g id="a_node24"><a xlink:href="quickjs_8c.html#aa9342f7444c1c9f8743d43aa4d7f89e3" target="_top" xlink:title="JS_WriteObjectRec">
<polygon fill="none" stroke="#ff0000" points="175,-38.5 175,-57.5 279,-57.5 279,-38.5 175,-38.5"/>
<text text-anchor="middle" x="227" y="-45.5" font-family="Helvetica,sans-Serif" font-size="10.00" fill="#000000">JS_WriteObjectRec</text>
</a>
</g>
</g>
<!-- Node61293&#45;&gt;Node61653 -->
<g id="edge34" class="edge">
<title>Node61293&#45;&gt;Node61653</title>
<path fill="none" stroke="#191970" d="M59.5413,-324.4219C65.3931,-277.4853 86.2028,-157.1024 151,-85 162.4767,-72.2295 179.3376,-63.4035 194.2641,-57.584"/>
<polygon fill="#191970" stroke="#191970" points="56.0518,-324.1306 58.3826,-334.4659 63.0057,-324.9329 56.0518,-324.1306"/>
</g>
<!-- Node61619 -->
<g id="node25" class="node">
<title>Node61619</title>
<g id="a_node25"><a xlink:href="quickjs_8c.html#ae34b58b803dc65ed20305c6201ca711b" target="_top" xlink:title="remainingElementsCount_add">
<polygon fill="none" stroke="#ff0000" points="153.5,-.5 153.5,-19.5 300.5,-19.5 300.5,-.5 153.5,-.5"/>
<text text-anchor="middle" x="227" y="-7.5" font-family="Helvetica,sans-Serif" font-size="10.00" fill="#000000">remainingElementsCount_add</text>
</a>
</g>
</g>
<!-- Node61293&#45;&gt;Node61619 -->
<g id="edge36" class="edge">
<title>Node61293&#45;&gt;Node61619</title>
<path fill="none" stroke="#191970" d="M60.7789,-324.0812C71.4533,-261.5891 107.0681,-71.0586 151,-29 155.0279,-25.1438 159.7151,-22.0355 164.7469,-19.5344"/>
<polygon fill="#191970" stroke="#191970" points="57.2849,-323.7534 59.0796,-334.1952 64.1882,-324.9133 57.2849,-323.7534"/>
</g>
<!-- Node61295 -->
<g id="node3" class="node">
<title>Node61295</title>
<g id="a_node3"><a xlink:href="quickjs_8c.html#ac2894ff4edcdb4e6841bcce9c76081e3" target="_top" xlink:title="JS_CallInternal">
<polygon fill="none" stroke="#000000" points="367,-726.5 367,-745.5 450,-745.5 450,-726.5 367,-726.5"/>
<text text-anchor="middle" x="408.5" y="-733.5" font-family="Helvetica,sans-Serif" font-size="10.00" fill="#000000">JS_CallInternal</text>
</a>
</g>
</g>
<!-- Node61294&#45;&gt;Node61295 -->
<g id="edge2" class="edge">
<title>Node61294&#45;&gt;Node61295</title>
<path fill="none" stroke="#191970" d="M274.3708,-721.9589C303.0781,-724.9641 339.3582,-728.762 366.9456,-731.65"/>
<polygon fill="#191970" stroke="#191970" points="274.4773,-718.451 264.1672,-720.8908 273.7484,-725.413 274.4773,-718.451"/>
</g>
<!-- Node61331 -->
<g id="node6" class="node">
<title>Node61331</title>
<g id="a_node6"><a xlink:href="quickjs_8c.html#a8d4b24969540aff427939eeda47f451d" target="_top" xlink:title="js_function_apply">
<polygon fill="none" stroke="#ff0000" points="706,-802.5 706,-821.5 798,-821.5 798,-802.5 706,-802.5"/>
<text text-anchor="middle" x="752" y="-809.5" font-family="Helvetica,sans-Serif" font-size="10.00" fill="#000000">js_function_apply</text>
</a>
</g>
</g>
<!-- Node61294&#45;&gt;Node61331 -->
<g id="edge17" class="edge">
<title>Node61294&#45;&gt;Node61331</title>
<path fill="none" stroke="#191970" d="M247.6431,-732.585C292.9021,-765.6583 405.5019,-842.0425 514,-869 571.7982,-883.3606 590.306,-883.7737 648,-869 683.9028,-859.8064 720.7333,-835.3614 739.4371,-821.6574"/>
<polygon fill="#191970" stroke="#191970" points="249.6329,-729.7034 239.5104,-726.5753 245.4728,-735.3332 249.6329,-729.7034"/>
</g>
<!-- Node61392 -->
<g id="node12" class="node">
<title>Node61392</title>
<g id="a_node12"><a xlink:href="quickjs_8c.html#a392bb9e4d465d6a061eb3f6c830e0efa" target="_top" xlink:title="js_reflect_construct">
<polygon fill="none" stroke="#000000" points="357.5,-688.5 357.5,-707.5 459.5,-707.5 459.5,-688.5 357.5,-688.5"/>
<text text-anchor="middle" x="408.5" y="-695.5" font-family="Helvetica,sans-Serif" font-size="10.00" fill="#000000">js_reflect_construct</text>
</a>
</g>
</g>
<!-- Node61294&#45;&gt;Node61392 -->
<g id="edge18" class="edge">
<title>Node61294&#45;&gt;Node61392</title>
<path fill="none" stroke="#191970" d="M274.3249,-712.0459C299.7947,-709.3796 331.2357,-706.0883 357.2786,-703.362"/>
<polygon fill="#191970" stroke="#191970" points="273.7484,-708.587 264.1672,-713.1092 274.4773,-715.549 273.7484,-708.587"/>
</g>
<!-- Node61295&#45;&gt;Node61295 -->
<g id="edge16" class="edge">
<title>Node61295&#45;&gt;Node61295</title>
<path fill="none" stroke="#191970" d="M376.3144,-754.2746C377.232,-759.741 387.9606,-764 408.5,-764 439.0703,-764 447.907,-754.5653 435.0102,-745.7571"/>
<polygon fill="#191970" stroke="#191970" points="379.3574,-756.0197 381.9898,-745.7571 373.5321,-752.1381 379.3574,-756.0197"/>
</g>
<!-- Node61296 -->
<g id="node4" class="node">
<title>Node61296</title>
<g id="a_node4"><a xlink:href="quickjs_8c.html#ade71a22dc56e7371392393df663b28b3" target="_top" xlink:title="async_func_resume">
<polygon fill="none" stroke="#ff0000" points="529,-840.5 529,-859.5 633,-859.5 633,-840.5 529,-840.5"/>
<text text-anchor="middle" x="581" y="-847.5" font-family="Helvetica,sans-Serif" font-size="10.00" fill="#000000">async_func_resume</text>
</a>
</g>
</g>
<!-- Node61295&#45;&gt;Node61296 -->
<g id="edge3" class="edge">
<title>Node61295&#45;&gt;Node61296</title>
<path fill="none" stroke="#191970" d="M424.6609,-753.1393C444.1967,-773.0103 478.8471,-805.6329 514,-826 524.1564,-831.8845 536.0014,-836.7066 546.8832,-840.4445"/>
<polygon fill="#191970" stroke="#191970" points="426.9523,-750.4739 417.4851,-745.7175 421.9198,-755.3396 426.9523,-750.4739"/>
</g>
<!-- Node61308 -->
<g id="node5" class="node">
<title>Node61308</title>
<g id="a_node5"><a xlink:href="quickjs_8c.html#a1a4c02a29525d5cb2085dd8bca3af350" target="_top" xlink:title="JS_Call">
<polygon fill="none" stroke="#ff0000" points="555.5,-764.5 555.5,-783.5 606.5,-783.5 606.5,-764.5 555.5,-764.5"/>
<text text-anchor="middle" x="581" y="-771.5" font-family="Helvetica,sans-Serif" font-size="10.00" fill="#000000">JS_Call</text>
</a>
</g>
</g>
<!-- Node61295&#45;&gt;Node61308 -->
<g id="edge4" class="edge">
<title>Node61295&#45;&gt;Node61308</title>
<path fill="none" stroke="#191970" d="M460.2182,-741.1488C493.2381,-747.4032 534.3458,-756.9806 559.0871,-764.4942"/>
<polygon fill="#191970" stroke="#191970" points="460.725,-737.6835 450.2574,-739.3205 459.4612,-744.5684 460.725,-737.6835"/>
</g>
<!-- Node61379 -->
<g id="node8" class="node">
<title>Node61379</title>
<g id="a_node8"><a xlink:href="quickjs_8c.html#ad35594576a14c10812efaf958c99af8a" target="_top" xlink:title="JS_CallConstructorInternal">
<polygon fill="none" stroke="#ff0000" points="514,-726.5 514,-745.5 648,-745.5 648,-726.5 514,-726.5"/>
<text text-anchor="middle" x="581" y="-733.5" font-family="Helvetica,sans-Serif" font-size="10.00" fill="#000000">JS_CallConstructorInternal</text>
</a>
</g>
</g>
<!-- Node61295&#45;&gt;Node61379 -->
<g id="edge9" class="edge">
<title>Node61295&#45;&gt;Node61379</title>
<path fill="none" stroke="#191970" d="M460.402,-729.7502C477.1704,-729.2358 496.0091,-729.1181 513.7242,-729.3973"/>
<polygon fill="#191970" stroke="#191970" points="460.1226,-726.258 450.2574,-730.1218 460.3789,-733.2533 460.1226,-726.258"/>
</g>
<!-- Node61393 -->
<g id="node9" class="node">
<title>Node61393</title>
<g id="a_node9"><a xlink:href="quickjs_8c.html#a75f6ee5e4235a7dc99889f3d2eb2c147" target="_top" xlink:title="JS_CallFree">
<polygon fill="none" stroke="#ff0000" points="545.5,-650.5 545.5,-669.5 616.5,-669.5 616.5,-650.5 545.5,-650.5"/>
<text text-anchor="middle" x="581" y="-657.5" font-family="Helvetica,sans-Serif" font-size="10.00" fill="#000000">JS_CallFree</text>
</a>
</g>
</g>
<!-- Node61295&#45;&gt;Node61393 -->
<g id="edge11" class="edge">
<title>Node61295&#45;&gt;Node61393</title>
<path fill="none" stroke="#191970" d="M435.2675,-723.7107C448.6785,-719.9078 464.8229,-715.2742 478,-708 497.002,-697.5102 495.4164,-686.2144 514,-675 523.6267,-669.1907 534.8754,-664.4789 545.3765,-661.2226"/>
<polygon fill="#191970" stroke="#191970" points="434.2781,-720.3534 425.6392,-726.4869 436.2174,-727.0794 434.2781,-720.3534"/>
</g>
<!-- Node61308&#45;&gt;Node61295 -->
<g id="edge5" class="edge">
<title>Node61308&#45;&gt;Node61295</title>
<path fill="none" stroke="#191970" d="M545.1099,-771.6942C510.6367,-765.8893 459.6432,-754.3566 430.6982,-745.5924"/>
<polygon fill="#191970" stroke="#191970" points="544.8102,-775.1904 555.2355,-773.3024 545.9083,-768.2771 544.8102,-775.1904"/>
</g>
<!-- Node61308&#45;&gt;Node61331 -->
<g id="edge6" class="edge">
<title>Node61308&#45;&gt;Node61331</title>
<path fill="none" stroke="#191970" d="M616.717,-781.9371C643.5633,-787.903 680.4583,-796.1018 708.9375,-802.4305"/>
<polygon fill="#191970" stroke="#191970" points="617.1216,-778.4417 606.6004,-779.689 615.603,-785.275 617.1216,-778.4417"/>
</g>
<!-- Node61308&#45;&gt;Node61347 -->
<g id="edge8" class="edge">
<title>Node61308&#45;&gt;Node61347</title>
<path fill="none" stroke="#191970" d="M616.717,-766.0629C643.5633,-760.097 680.4583,-751.8982 708.9375,-745.5695"/>
<polygon fill="#191970" stroke="#191970" points="615.603,-762.725 606.6004,-768.311 617.1216,-769.5583 615.603,-762.725"/>
</g>
<!-- Node61331&#45;&gt;Node61295 -->
<g id="edge7" class="edge">
<title>Node61331&#45;&gt;Node61295</title>
<path fill="none" stroke="#191970" d="M695.7095,-813.9876C646.7171,-814.2015 574.3035,-810.8318 514,-793 478.2648,-782.4331 440.9234,-758.7756 421.6931,-745.5002"/>
<polygon fill="#191970" stroke="#191970" points="695.8295,-817.4867 705.7956,-813.8915 695.7627,-810.487 695.8295,-817.4867"/>
</g>
<!-- Node61379&#45;&gt;Node61295 -->
<g id="edge10" class="edge">
<title>Node61379&#45;&gt;Node61295</title>
<path fill="none" stroke="#191970" d="M503.5983,-742.7183C485.2328,-742.8502 466.3264,-742.5702 450.2574,-741.8782"/>
<polygon fill="#191970" stroke="#191970" points="503.7649,-746.2168 513.7242,-742.6027 503.6849,-739.2172 503.7649,-746.2168"/>
</g>
<!-- Node61393&#45;&gt;Node61295 -->
<g id="edge12" class="edge">
<title>Node61393&#45;&gt;Node61295</title>
<path fill="none" stroke="#191970" d="M558.7394,-673.3335C545.2051,-678.5036 527.9094,-684.6063 514,-693 495.4164,-704.2144 497.002,-715.5102 478,-726 469.4583,-730.7153 459.6697,-734.3211 450.187,-736.8012"/>
<polygon fill="#191970" stroke="#191970" points="560.2496,-676.4992 568.2375,-669.5391 557.6527,-669.9987 560.2496,-676.4992"/>
</g>
<!-- Node61393&#45;&gt;Node61629 -->
<g id="edge13" class="edge">
<title>Node61393&#45;&gt;Node61629</title>
<path fill="none" stroke="#191970" d="M626.9774,-660C647.0614,-660 670.8758,-660 692.3041,-660"/>
<polygon fill="#191970" stroke="#191970" points="626.8472,-656.5001 616.8472,-660 626.8472,-663.5001 626.8472,-656.5001"/>
</g>
<!-- Node61393&#45;&gt;Node61651 -->
<g id="edge15" class="edge">
<title>Node61393&#45;&gt;Node61651</title>
<path fill="none" stroke="#191970" d="M603.7589,-644.8274C636.5359,-622.9761 696.6753,-582.8831 729.3766,-561.0822"/>
<polygon fill="#191970" stroke="#191970" points="601.6643,-642.0173 595.2852,-650.4765 605.5472,-647.8416 601.6643,-642.0173"/>
</g>
<!-- Node61629&#45;&gt;Node61295 -->
<g id="edge14" class="edge">
<title>Node61629&#45;&gt;Node61295</title>
<path fill="none" stroke="#191970" d="M698.75,-671.7817C630.2524,-686.9369 512.6904,-712.9477 450.2764,-726.7569"/>
<polygon fill="#191970" stroke="#191970" points="699.8891,-675.1144 708.8969,-669.5366 698.3769,-668.2796 699.8891,-675.1144"/>
</g>
<!-- Node61672&#45;&gt;Node61651 -->
<g id="edge23" class="edge">
<title>Node61672&#45;&gt;Node61651</title>
<path fill="none" stroke="#191970" d="M488.0802,-546C547.3434,-546 627.4103,-546 683.7633,-546"/>
<polygon fill="#191970" stroke="#191970" points="488.0124,-542.5001 478.0124,-546 488.0123,-549.5001 488.0124,-542.5001"/>
</g>
<!-- Node61653&#45;&gt;Node61653 -->
<g id="edge35" class="edge">
<title>Node61653&#45;&gt;Node61653</title>
<path fill="none" stroke="#191970" d="M195.5629,-66.2746C196.4592,-71.741 206.9382,-76 227,-76 256.8594,-76 265.4906,-66.5653 252.8937,-57.7571"/>
<polygon fill="#191970" stroke="#191970" points="198.585,-68.0475 201.1063,-57.7571 192.7181,-64.2291 198.585,-68.0475"/>
</g>
</g>
</svg>
        <g id="navigator" transform="translate(0 0)" fill="#404254">
                <rect fill="#f2f5e9" fill-opacity="0.5" stroke="#606060" stroke-width=".5" x="0" y="0" width="60" height="60"/>
                <use id="zoomplus" xlink:href="#zoomPlus" x="17" y="9" onmousedown="handleZoom(evt,'in')"/>
                <use id="zoomminus" xlink:href="#zoomMin" x="42" y="9" onmousedown="handleZoom(evt,'out')"/>
                <use id="reset" xlink:href="#resetDef" x="30" y="36" onmousedown="handleReset()"/>
                <g id="arrowUp" xlink:href="#dirArrow" transform="translate(30 24)" onmousedown="handlePan(0,-1)">
                  <use xlink:href="#rim" fill="#404040">
                        <set attributeName="fill" to="#808080" begin="arrowUp.mouseover" end="arrowUp.mouseout"/>
                  </use>
                  <path fill="none" stroke="white" stroke-width="1.5" d="M0,-3.0v7 M-2.5,-0.5L0,-3.0L2.5,-0.5"/>
                </g>
                <g id="arrowRight" xlink:href="#dirArrow" transform="rotate(90) translate(36 -43)" onmousedown="handlePan(1,0)">
                  <use xlink:href="#rim" fill="#404040">
                        <set attributeName="fill" to="#808080" begin="arrowRight.mouseover" end="arrowRight.mouseout"/>
                  </use>
                  <path fill="none" stroke="white" stroke-width="1.5" d="M0,-3.0v7 M-2.5,-0.5L0,-3.0L2.5,-0.5"/>
                </g>
                <g id="arrowDown" xlink:href="#dirArrow" transform="rotate(180) translate(-30 -48)" onmousedown="handlePan(0,1)">
                  <use xlink:href="#rim" fill="#404040">
                        <set attributeName="fill" to="#808080" begin="arrowDown.mouseover" end="arrowDown.mouseout"/>
                  </use>
                  <path fill="none" stroke="white" stroke-width="1.5" d="M0,-3.0v7 M-2.5,-0.5L0,-3.0L2.5,-0.5"/>
                </g>
                <g id="arrowLeft" xlink:href="#dirArrow" transform="rotate(270) translate(-36 17)" onmousedown="handlePan(-1,0)">
                  <use xlink:href="#rim" fill="#404040">
                        <set attributeName="fill" to="#808080" begin="arrowLeft.mouseover" end="arrowLeft.mouseout"/>
                  </use>
                  <path fill="none" stroke="white" stroke-width="1.5" d="M0,-3.0v7 M-2.5,-0.5L0,-3.0L2.5,-0.5"/>
                </g>
        </g>
        <svg viewBox="0 0 15 15" width="100%" height="30px" preserveAspectRatio="xMaxYMin meet">
         <g id="arrow_out" transform="scale(0.3 0.3)">
          <a xlink:href="quickjs_8h_aeb97957655d979e9fe56c955da2b2d4b_icgraph_org.svg" target="_base">
           <rect id="button" ry="5" rx="5" y="6" x="6" height="38" width="38"
                fill="#f2f5e9" fill-opacity="0.5" stroke="#606060" stroke-width="1.0"/>
           <path id="arrow"
             d="M 11.500037,31.436501 C 11.940474,20.09759 22.043105,11.32322 32.158766,21.979434 L 37.068811,17.246167 C 37.068811,17.246167 37.088388,32 37.088388,32 L 22.160133,31.978069 C 22.160133,31.978069 26.997745,27.140456 26.997745,27.140456 C 18.528582,18.264221 13.291696,25.230495 11.500037,31.436501 z"
             style="fill:#404040;"/>
          </a>
         </g>
        </svg>
</svg>
