<?xml version="1.0" encoding="UTF-8" standalone="no"?>
<!DOCTYPE svg PUBLIC "-//W3C//DTD SVG 1.1//EN"
 "http://www.w3.org/Graphics/SVG/1.1/DTD/svg11.dtd">
<!-- Generated by graphviz version 2.40.1 (20161225.0304)
 -->
<!-- Title: js_float_env_get_expBits Pages: 1 -->
<svg width="256pt" height="66pt"
 viewBox="0.00 0.00 256.00 66.00" xmlns="http://www.w3.org/2000/svg" xmlns:xlink="http://www.w3.org/1999/xlink">
<g id="graph0" class="graph" transform="scale(1 1) rotate(0) translate(4 62)">
<title>js_float_env_get_expBits</title>
<!-- Node506751 -->
<g id="node1" class="node">
<title>Node506751</title>
<polygon fill="#bfbfbf" stroke="#000000" points="0,-19.5 0,-38.5 126,-38.5 126,-19.5 0,-19.5"/>
<text text-anchor="middle" x="63" y="-26.5" font-family="Helvetica,sans-Serif" font-size="10.00" fill="#000000">js_float_env_get_expBits</text>
</g>
<!-- Node506752 -->
<g id="node2" class="node">
<title>Node506752</title>
<g id="a_node2"><a xlink:href="libbf_8h.html#a933c9dd8c3450f560876d02e3b36b1a5" target="_top" xlink:title="bf_get_exp_bits">
<polygon fill="none" stroke="#000000" points="162,-38.5 162,-57.5 248,-57.5 248,-38.5 162,-38.5"/>
<text text-anchor="middle" x="205" y="-45.5" font-family="Helvetica,sans-Serif" font-size="10.00" fill="#000000">bf_get_exp_bits</text>
</a>
</g>
</g>
<!-- Node506751&#45;&gt;Node506752 -->
<g id="edge1" class="edge">
<title>Node506751&#45;&gt;Node506752</title>
<path fill="none" stroke="#191970" d="M126.1102,-37.4443C134.6412,-38.5858 143.326,-39.7478 151.6638,-40.8635"/>
<polygon fill="#191970" stroke="#191970" points="151.2524,-44.3395 161.6283,-42.1967 152.1808,-37.4014 151.2524,-44.3395"/>
</g>
<!-- Node506753 -->
<g id="node3" class="node">
<title>Node506753</title>
<g id="a_node3"><a xlink:href="quickjs_8h.html#a2050bc428da1c65ac7eb87c3fa3b0392" target="_top" xlink:title="JS_NewInt32">
<polygon fill="none" stroke="#000000" points="167,-.5 167,-19.5 243,-19.5 243,-.5 167,-.5"/>
<text text-anchor="middle" x="205" y="-7.5" font-family="Helvetica,sans-Serif" font-size="10.00" fill="#000000">JS_NewInt32</text>
</a>
</g>
</g>
<!-- Node506751&#45;&gt;Node506753 -->
<g id="edge2" class="edge">
<title>Node506751&#45;&gt;Node506753</title>
<path fill="none" stroke="#191970" d="M126.1102,-20.5557C136.4455,-19.1728 147.0066,-17.7597 156.9029,-16.4355"/>
<polygon fill="#191970" stroke="#191970" points="157.4904,-19.8882 166.9379,-15.0928 156.562,-12.95 157.4904,-19.8882"/>
</g>
</g>
</svg>
