<?xml version="1.0" encoding="UTF-8" standalone="no"?>
<!DOCTYPE svg PUBLIC "-//W3C//DTD SVG 1.1//EN"
 "http://www.w3.org/Graphics/SVG/1.1/DTD/svg11.dtd">
<!-- Generated by graphviz version 2.40.1 (20161225.0304)
 -->
<!-- Title: js_string_charAt Pages: 1 -->
<!--zoomable 294 -->
<svg id="main" version="1.1" xmlns="http://www.w3.org/2000/svg" xmlns:xlink="http://www.w3.org/1999/xlink" xml:space="preserve" onload="init(evt)">
<style type="text/css"><![CDATA[
.edge:hover path { stroke: red; }
.edge:hover polygon { stroke: red; fill: red; }
]]></style>
<script type="text/javascript"><![CDATA[
var edges = document.getElementsByTagName('g');
if (edges && edges.length) {
  for (var i=0;i<edges.length;i++) {
    if (edges[i].id.substr(0,4)=='edge') {
      edges[i].setAttribute('class','edge');
    }
  }
}
]]></script>
        <defs>
                <circle id="rim" cx="0" cy="0" r="7"/>
                <circle id="rim2" cx="0" cy="0" r="3.5"/>
                <g id="zoomPlus">
                        <use xlink:href="#rim" fill="#404040">
                                <set attributeName="fill" to="#808080" begin="zoomplus.mouseover" end="zoomplus.mouseout"/>
                        </use>
                        <path d="M-4,0h8M0,-4v8" fill="none" stroke="white" stroke-width="1.5" pointer-events="none"/>
                </g>
                <g id="zoomMin">
                        <use xlink:href="#rim" fill="#404040">
                                <set attributeName="fill" to="#808080" begin="zoomminus.mouseover" end="zoomminus.mouseout"/>
                        </use>
                        <path d="M-4,0h8" fill="none" stroke="white" stroke-width="1.5" pointer-events="none"/>
                </g>
                <g id="dirArrow">
                        <path fill="none" stroke="white" stroke-width="1.5" d="M0,-3.0v7 M-2.5,-0.5L0,-3.0L2.5,-0.5"/>
                </g>
               <g id="resetDef">
                       <use xlink:href="#rim2" fill="#404040">
                               <set attributeName="fill" to="#808080" begin="reset.mouseover" end="reset.mouseout"/>
                       </use>
               </g>
        </defs>

<script type="text/javascript">
var viewWidth = 827;
var viewHeight = 294;
var sectionId = 'dynsection-1532';
</script>
<script xlink:href="svgpan.js"/>
<svg id="graph" class="graph">
<g id="viewport">
<title>js_string_charAt</title>
<!-- Node430916 -->
<g id="node1" class="node">
<title>Node430916</title>
<polygon fill="#bfbfbf" stroke="#000000" points="0,-133.5 0,-152.5 87,-152.5 87,-133.5 0,-133.5"/>
<text text-anchor="middle" x="43.5" y="-140.5" font-family="Helvetica,sans-Serif" font-size="10.00" fill="#000000">js_string_charAt</text>
</g>
<!-- Node430917 -->
<g id="node2" class="node">
<title>Node430917</title>
<g id="a_node2"><a xlink:href="quickjs_8h.html#afaa20c47565bc704c6c85f3d77254e7d" target="_top" xlink:title="JS_FreeValue">
<polygon fill="none" stroke="#000000" points="434.5,-266.5 434.5,-285.5 512.5,-285.5 512.5,-266.5 434.5,-266.5"/>
<text text-anchor="middle" x="473.5" y="-273.5" font-family="Helvetica,sans-Serif" font-size="10.00" fill="#000000">JS_FreeValue</text>
</a>
</g>
</g>
<!-- Node430916&#45;&gt;Node430917 -->
<g id="edge1" class="edge">
<title>Node430916&#45;&gt;Node430917</title>
<path fill="none" stroke="#191970" d="M51.672,-152.694C64.9668,-167.7713 92.8429,-196.6003 123,-211 222.7352,-258.6225 353.8857,-271.4341 424.0876,-274.8277"/>
<polygon fill="#191970" stroke="#191970" points="424.2611,-278.3385 434.4046,-275.2793 424.5673,-271.3452 424.2611,-278.3385"/>
</g>
<!-- Node430946 -->
<g id="node5" class="node">
<title>Node430946</title>
<g id="a_node5"><a xlink:href="quickjs_8h.html#ad80a83d73e9b7d872b88fbf2943aebe9" target="_top" xlink:title="JS_IsException">
<polygon fill="none" stroke="#000000" points="430.5,-228.5 430.5,-247.5 516.5,-247.5 516.5,-228.5 430.5,-228.5"/>
<text text-anchor="middle" x="473.5" y="-235.5" font-family="Helvetica,sans-Serif" font-size="10.00" fill="#000000">JS_IsException</text>
</a>
</g>
</g>
<!-- Node430916&#45;&gt;Node430946 -->
<g id="edge4" class="edge">
<title>Node430916&#45;&gt;Node430946</title>
<path fill="none" stroke="#191970" d="M60.7156,-152.5829C76.5122,-161.045 100.765,-173.215 123,-181 224.2823,-216.4615 349.8753,-230.0517 419.8947,-235.1185"/>
<polygon fill="#191970" stroke="#191970" points="420.0101,-238.6348 430.2279,-235.8333 420.4932,-231.6515 420.0101,-238.6348"/>
</g>
<!-- Node430947 -->
<g id="node6" class="node">
<title>Node430947</title>
<g id="a_node6"><a xlink:href="quickjs_8c.html#aa923510185fe24e3083baf7405b09f51" target="_top" xlink:title="js_new_string8">
<polygon fill="none" stroke="#000000" points="296.5,-76.5 296.5,-95.5 378.5,-95.5 378.5,-76.5 296.5,-76.5"/>
<text text-anchor="middle" x="337.5" y="-83.5" font-family="Helvetica,sans-Serif" font-size="10.00" fill="#000000">js_new_string8</text>
</a>
</g>
</g>
<!-- Node430916&#45;&gt;Node430947 -->
<g id="edge5" class="edge">
<title>Node430916&#45;&gt;Node430947</title>
<path fill="none" stroke="#191970" d="M87.3049,-135.4381C129.3595,-128.0696 194.6323,-116.3484 251,-105 262.4248,-102.6999 274.6672,-100.0962 286.2415,-97.5703"/>
<polygon fill="#191970" stroke="#191970" points="287.1884,-100.9458 296.2036,-95.3802 285.6853,-94.1091 287.1884,-100.9458"/>
</g>
<!-- Node430974 -->
<g id="node13" class="node">
<title>Node430974</title>
<g id="a_node13"><a xlink:href="quickjs_8c.html#a077ffa6455c0d7831bd4547542b5f2f7" target="_top" xlink:title="js_new_string_char">
<polygon fill="none" stroke="#000000" points="136.5,-76.5 136.5,-95.5 237.5,-95.5 237.5,-76.5 136.5,-76.5"/>
<text text-anchor="middle" x="187" y="-83.5" font-family="Helvetica,sans-Serif" font-size="10.00" fill="#000000">js_new_string_char</text>
</a>
</g>
</g>
<!-- Node430916&#45;&gt;Node430974 -->
<g id="edge12" class="edge">
<title>Node430916&#45;&gt;Node430974</title>
<path fill="none" stroke="#191970" d="M66.032,-133.4027C81.9024,-126.7029 103.6799,-117.6297 123,-110 132.0781,-106.415 141.9293,-102.6562 151.1198,-99.2053"/>
<polygon fill="#191970" stroke="#191970" points="152.6209,-102.3809 160.7652,-95.6044 150.1726,-95.823 152.6209,-102.3809"/>
</g>
<!-- Node430976 -->
<g id="node15" class="node">
<title>Node430976</title>
<g id="a_node15"><a xlink:href="quickjs_8c.html#ad698ea01233894f912303776fe3c08c8" target="_top" xlink:title="JS_ToInt32Sat">
<polygon fill="none" stroke="#000000" points="146,-152.5 146,-171.5 228,-171.5 228,-152.5 146,-152.5"/>
<text text-anchor="middle" x="187" y="-159.5" font-family="Helvetica,sans-Serif" font-size="10.00" fill="#000000">JS_ToInt32Sat</text>
</a>
</g>
</g>
<!-- Node430916&#45;&gt;Node430976 -->
<g id="edge16" class="edge">
<title>Node430916&#45;&gt;Node430976</title>
<path fill="none" stroke="#191970" d="M87.3345,-148.8039C102.615,-150.8271 119.8967,-153.1152 135.7271,-155.2113"/>
<polygon fill="#191970" stroke="#191970" points="135.5117,-158.7132 145.8847,-156.5562 136.4306,-151.7738 135.5117,-158.7132"/>
</g>
<!-- Node431237 -->
<g id="node19" class="node">
<title>Node431237</title>
<g id="a_node19"><a xlink:href="quickjs_8c.html#a4d1d0760c9f9efcb8c0a8db414e46c8a" target="_top" xlink:title="JS_ToStringCheckObject">
<polygon fill="none" stroke="#ff0000" points="123,-38.5 123,-57.5 251,-57.5 251,-38.5 123,-38.5"/>
<text text-anchor="middle" x="187" y="-45.5" font-family="Helvetica,sans-Serif" font-size="10.00" fill="#000000">JS_ToStringCheckObject</text>
</a>
</g>
</g>
<!-- Node430916&#45;&gt;Node431237 -->
<g id="edge23" class="edge">
<title>Node430916&#45;&gt;Node431237</title>
<path fill="none" stroke="#191970" d="M50.9821,-133.3181C63.9315,-117.2121 92.1158,-84.9193 123,-67 126.7218,-64.8406 130.7102,-62.9078 134.8094,-61.1815"/>
<polygon fill="#191970" stroke="#191970" points="136.3854,-64.3276 144.5024,-57.5185 133.9108,-57.7796 136.3854,-64.3276"/>
</g>
<!-- Node430918 -->
<g id="node3" class="node">
<title>Node430918</title>
<g id="a_node3"><a xlink:href="quickjs_8c.html#aa059f309c30fd5166d16c82a97973146" target="_top" xlink:title="__JS_FreeValue">
<polygon fill="none" stroke="#000000" points="575.5,-266.5 575.5,-285.5 664.5,-285.5 664.5,-266.5 575.5,-266.5"/>
<text text-anchor="middle" x="620" y="-273.5" font-family="Helvetica,sans-Serif" font-size="10.00" fill="#000000">__JS_FreeValue</text>
</a>
</g>
</g>
<!-- Node430917&#45;&gt;Node430918 -->
<g id="edge2" class="edge">
<title>Node430917&#45;&gt;Node430918</title>
<path fill="none" stroke="#191970" d="M512.7593,-276C528.9133,-276 547.9011,-276 565.3745,-276"/>
<polygon fill="#191970" stroke="#191970" points="565.4547,-279.5001 575.4547,-276 565.4547,-272.5001 565.4547,-279.5001"/>
</g>
<!-- Node430919 -->
<g id="node4" class="node">
<title>Node430919</title>
<g id="a_node4"><a xlink:href="quickjs_8c.html#ab1ea3fad7d138be12144a38be4d36423" target="_top" xlink:title="__JS_FreeValueRT">
<polygon fill="none" stroke="#ff0000" points="717,-266.5 717,-285.5 819,-285.5 819,-266.5 717,-266.5"/>
<text text-anchor="middle" x="768" y="-273.5" font-family="Helvetica,sans-Serif" font-size="10.00" fill="#000000">__JS_FreeValueRT</text>
</a>
</g>
</g>
<!-- Node430918&#45;&gt;Node430919 -->
<g id="edge3" class="edge">
<title>Node430918&#45;&gt;Node430919</title>
<path fill="none" stroke="#191970" d="M664.8065,-276C678.0196,-276 692.7116,-276 706.7695,-276"/>
<polygon fill="#191970" stroke="#191970" points="706.8636,-279.5001 716.8636,-276 706.8636,-272.5001 706.8636,-279.5001"/>
</g>
<!-- Node430948 -->
<g id="node7" class="node">
<title>Node430948</title>
<g id="a_node7"><a xlink:href="quickjs_8c.html#ad303a9bc56766627b5fca41574933930" target="_top" xlink:title="js_alloc_string">
<polygon fill="none" stroke="#000000" points="434,-38.5 434,-57.5 513,-57.5 513,-38.5 434,-38.5"/>
<text text-anchor="middle" x="473.5" y="-45.5" font-family="Helvetica,sans-Serif" font-size="10.00" fill="#000000">js_alloc_string</text>
</a>
</g>
</g>
<!-- Node430947&#45;&gt;Node430948 -->
<g id="edge6" class="edge">
<title>Node430947&#45;&gt;Node430948</title>
<path fill="none" stroke="#191970" d="M371.8185,-76.411C389.2943,-71.5281 410.7407,-65.5357 429.4251,-60.315"/>
<polygon fill="#191970" stroke="#191970" points="430.5032,-63.6479 439.1924,-57.5859 428.6194,-56.9062 430.5032,-63.6479"/>
</g>
<!-- Node430952 -->
<g id="node10" class="node">
<title>Node430952</title>
<g id="a_node10"><a xlink:href="quickjs_8c.html#a260bfa297ff6cb5bd18e229afaa54663" target="_top" xlink:title="JS_AtomToString">
<polygon fill="none" stroke="#000000" points="426.5,-76.5 426.5,-95.5 520.5,-95.5 520.5,-76.5 426.5,-76.5"/>
<text text-anchor="middle" x="473.5" y="-83.5" font-family="Helvetica,sans-Serif" font-size="10.00" fill="#000000">JS_AtomToString</text>
</a>
</g>
</g>
<!-- Node430947&#45;&gt;Node430952 -->
<g id="edge9" class="edge">
<title>Node430947&#45;&gt;Node430952</title>
<path fill="none" stroke="#191970" d="M378.6736,-86C390.4006,-86 403.3954,-86 415.9085,-86"/>
<polygon fill="#191970" stroke="#191970" points="416.2678,-89.5001 426.2678,-86 416.2678,-82.5001 416.2678,-89.5001"/>
</g>
<!-- Node430949 -->
<g id="node8" class="node">
<title>Node430949</title>
<g id="a_node8"><a xlink:href="quickjs_8c.html#a5837dfc67b8f09e0579a28c827b39d93" target="_top" xlink:title="js_alloc_string_rt">
<polygon fill="none" stroke="#000000" points="575,-.5 575,-19.5 665,-19.5 665,-.5 575,-.5"/>
<text text-anchor="middle" x="620" y="-7.5" font-family="Helvetica,sans-Serif" font-size="10.00" fill="#000000">js_alloc_string_rt</text>
</a>
</g>
</g>
<!-- Node430948&#45;&gt;Node430949 -->
<g id="edge7" class="edge">
<title>Node430948&#45;&gt;Node430949</title>
<path fill="none" stroke="#191970" d="M510.4681,-38.411C529.6262,-33.4417 553.2142,-27.3233 573.5878,-22.0387"/>
<polygon fill="#191970" stroke="#191970" points="574.4968,-25.4188 583.2977,-19.5201 572.7392,-18.643 574.4968,-25.4188"/>
</g>
<!-- Node430950 -->
<g id="node9" class="node">
<title>Node430950</title>
<g id="a_node9"><a xlink:href="quickjs_8c.html#a344d6c0e45d9bf3861fd9269724045a2" target="_top" xlink:title="JS_ThrowOutOfMemory">
<polygon fill="none" stroke="#ff0000" points="559,-38.5 559,-57.5 681,-57.5 681,-38.5 559,-38.5"/>
<text text-anchor="middle" x="620" y="-45.5" font-family="Helvetica,sans-Serif" font-size="10.00" fill="#000000">JS_ThrowOutOfMemory</text>
</a>
</g>
</g>
<!-- Node430948&#45;&gt;Node430950 -->
<g id="edge8" class="edge">
<title>Node430948&#45;&gt;Node430950</title>
<path fill="none" stroke="#191970" d="M513.145,-48C524.1347,-48 536.4127,-48 548.6214,-48"/>
<polygon fill="#191970" stroke="#191970" points="548.8307,-51.5001 558.8306,-48 548.8306,-44.5001 548.8307,-51.5001"/>
</g>
<!-- Node430953 -->
<g id="node11" class="node">
<title>Node430953</title>
<g id="a_node11"><a xlink:href="quickjs_8c.html#a06ff303a11e6641cbf1f6634e6a61811" target="_top" xlink:title="__JS_AtomToValue">
<polygon fill="none" stroke="#ff0000" points="568,-76.5 568,-95.5 672,-95.5 672,-76.5 568,-76.5"/>
<text text-anchor="middle" x="620" y="-83.5" font-family="Helvetica,sans-Serif" font-size="10.00" fill="#000000">__JS_AtomToValue</text>
</a>
</g>
</g>
<!-- Node430952&#45;&gt;Node430953 -->
<g id="edge10" class="edge">
<title>Node430952&#45;&gt;Node430953</title>
<path fill="none" stroke="#191970" d="M520.6599,-86C532.4226,-86 545.2178,-86 557.5909,-86"/>
<polygon fill="#191970" stroke="#191970" points="557.8532,-89.5001 567.8532,-86 557.8532,-82.5001 557.8532,-89.5001"/>
</g>
<!-- Node430956 -->
<g id="node12" class="node">
<title>Node430956</title>
<g id="a_node12"><a xlink:href="quickjs_8h.html#a775522f2d084fc8fa0fcb33f390006b4" target="_top" xlink:title="JS_DupValue">
<polygon fill="none" stroke="#000000" points="729.5,-95.5 729.5,-114.5 806.5,-114.5 806.5,-95.5 729.5,-95.5"/>
<text text-anchor="middle" x="768" y="-102.5" font-family="Helvetica,sans-Serif" font-size="10.00" fill="#000000">JS_DupValue</text>
</a>
</g>
</g>
<!-- Node430953&#45;&gt;Node430956 -->
<g id="edge11" class="edge">
<title>Node430953&#45;&gt;Node430956</title>
<path fill="none" stroke="#191970" d="M672.1793,-92.6987C687.4611,-94.6605 704.1063,-96.7974 719.1715,-98.7315"/>
<polygon fill="#191970" stroke="#191970" points="718.9483,-102.2315 729.3126,-100.0334 719.8397,-95.2884 718.9483,-102.2315"/>
</g>
<!-- Node430974&#45;&gt;Node430947 -->
<g id="edge15" class="edge">
<title>Node430974&#45;&gt;Node430947</title>
<path fill="none" stroke="#191970" d="M237.533,-86C253.2242,-86 270.5284,-86 286.2668,-86"/>
<polygon fill="#191970" stroke="#191970" points="286.3504,-89.5001 296.3503,-86 286.3503,-82.5001 286.3504,-89.5001"/>
</g>
<!-- Node430975 -->
<g id="node14" class="node">
<title>Node430975</title>
<g id="a_node14"><a xlink:href="quickjs_8c.html#a960b48be1175b0982ecc03505711fc56" target="_top" xlink:title="js_new_string16">
<polygon fill="none" stroke="#000000" points="294,-38.5 294,-57.5 381,-57.5 381,-38.5 294,-38.5"/>
<text text-anchor="middle" x="337.5" y="-45.5" font-family="Helvetica,sans-Serif" font-size="10.00" fill="#000000">js_new_string16</text>
</a>
</g>
</g>
<!-- Node430974&#45;&gt;Node430975 -->
<g id="edge13" class="edge">
<title>Node430974&#45;&gt;Node430975</title>
<path fill="none" stroke="#191970" d="M224.9775,-76.411C244.6587,-71.4417 268.8907,-65.3233 289.8206,-60.0387"/>
<polygon fill="#191970" stroke="#191970" points="290.9567,-63.3617 299.7956,-57.5201 289.243,-56.5747 290.9567,-63.3617"/>
</g>
<!-- Node430975&#45;&gt;Node430948 -->
<g id="edge14" class="edge">
<title>Node430975&#45;&gt;Node430948</title>
<path fill="none" stroke="#191970" d="M381.2799,-48C394.7692,-48 409.7213,-48 423.5906,-48"/>
<polygon fill="#191970" stroke="#191970" points="423.9434,-51.5001 433.9433,-48 423.9433,-44.5001 423.9434,-51.5001"/>
</g>
<!-- Node430976&#45;&gt;Node430956 -->
<g id="edge17" class="edge">
<title>Node430976&#45;&gt;Node430956</title>
<path fill="none" stroke="#191970" d="M228.3183,-157.9464C332.7746,-147.6985 607.0505,-120.7902 719.1752,-109.79"/>
<polygon fill="#191970" stroke="#191970" points="719.5817,-113.2671 729.1921,-108.8073 718.8982,-106.3005 719.5817,-113.2671"/>
</g>
<!-- Node430977 -->
<g id="node16" class="node">
<title>Node430977</title>
<g id="a_node16"><a xlink:href="quickjs_8c.html#a419bec82cb80e98e08626a9a5212ec4c" target="_top" xlink:title="JS_ToInt32SatFree">
<polygon fill="none" stroke="#000000" points="287,-190.5 287,-209.5 388,-209.5 388,-190.5 287,-190.5"/>
<text text-anchor="middle" x="337.5" y="-197.5" font-family="Helvetica,sans-Serif" font-size="10.00" fill="#000000">JS_ToInt32SatFree</text>
</a>
</g>
</g>
<!-- Node430976&#45;&gt;Node430977 -->
<g id="edge18" class="edge">
<title>Node430976&#45;&gt;Node430977</title>
<path fill="none" stroke="#191970" d="M224.9775,-171.589C244.6587,-176.5583 268.8907,-182.6767 289.8206,-187.9613"/>
<polygon fill="#191970" stroke="#191970" points="289.243,-191.4253 299.7956,-190.4799 290.9567,-184.6383 289.243,-191.4253"/>
</g>
<!-- Node430977&#45;&gt;Node430917 -->
<g id="edge20" class="edge">
<title>Node430977&#45;&gt;Node430917</title>
<path fill="none" stroke="#191970" d="M350.1546,-209.6063C366.5516,-221.75 396.3249,-242.7824 424,-257 427.8227,-258.9638 431.8974,-260.8433 436.0051,-262.6039"/>
<polygon fill="#191970" stroke="#191970" points="434.9646,-265.9589 445.5466,-266.4798 437.5991,-259.4735 434.9646,-265.9589"/>
</g>
<!-- Node430977&#45;&gt;Node430946 -->
<g id="edge21" class="edge">
<title>Node430977&#45;&gt;Node430946</title>
<path fill="none" stroke="#191970" d="M371.8185,-209.589C389.2943,-214.4719 410.7407,-220.4643 429.4251,-225.685"/>
<polygon fill="#191970" stroke="#191970" points="428.6194,-229.0938 439.1924,-228.4141 430.5032,-222.3521 428.6194,-229.0938"/>
</g>
<!-- Node430978 -->
<g id="node17" class="node">
<title>Node430978</title>
<g id="a_node17"><a xlink:href="quickjs_8c.html#aaaa960ff4bdf4b4dd3017b555844c397" target="_top" xlink:title="is_bigint_mode">
<polygon fill="none" stroke="#000000" points="432.5,-152.5 432.5,-171.5 514.5,-171.5 514.5,-152.5 432.5,-152.5"/>
<text text-anchor="middle" x="473.5" y="-159.5" font-family="Helvetica,sans-Serif" font-size="10.00" fill="#000000">is_bigint_mode</text>
</a>
</g>
</g>
<!-- Node430977&#45;&gt;Node430978 -->
<g id="edge19" class="edge">
<title>Node430977&#45;&gt;Node430978</title>
<path fill="none" stroke="#191970" d="M371.8185,-190.411C389.2943,-185.5281 410.7407,-179.5357 429.4251,-174.315"/>
<polygon fill="#191970" stroke="#191970" points="430.5032,-177.6479 439.1924,-171.5859 428.6194,-170.9062 430.5032,-177.6479"/>
</g>
<!-- Node430979 -->
<g id="node18" class="node">
<title>Node430979</title>
<g id="a_node18"><a xlink:href="quickjs_8c.html#ae738291483438efefca5c9fa4d269504" target="_top" xlink:title="JS_ToNumberFree">
<polygon fill="none" stroke="#ff0000" points="424,-190.5 424,-209.5 523,-209.5 523,-190.5 424,-190.5"/>
<text text-anchor="middle" x="473.5" y="-197.5" font-family="Helvetica,sans-Serif" font-size="10.00" fill="#000000">JS_ToNumberFree</text>
</a>
</g>
</g>
<!-- Node430977&#45;&gt;Node430979 -->
<g id="edge22" class="edge">
<title>Node430977&#45;&gt;Node430979</title>
<path fill="none" stroke="#191970" d="M388.1414,-200C396.4097,-200 405.0451,-200 413.5123,-200"/>
<polygon fill="#191970" stroke="#191970" points="413.7213,-203.5001 423.7212,-200 413.7212,-196.5001 413.7213,-203.5001"/>
</g>
</g>
</svg>
        <g id="navigator" transform="translate(0 0)" fill="#404254">
                <rect fill="#f2f5e9" fill-opacity="0.5" stroke="#606060" stroke-width=".5" x="0" y="0" width="60" height="60"/>
                <use id="zoomplus" xlink:href="#zoomPlus" x="17" y="9" onmousedown="handleZoom(evt,'in')"/>
                <use id="zoomminus" xlink:href="#zoomMin" x="42" y="9" onmousedown="handleZoom(evt,'out')"/>
                <use id="reset" xlink:href="#resetDef" x="30" y="36" onmousedown="handleReset()"/>
                <g id="arrowUp" xlink:href="#dirArrow" transform="translate(30 24)" onmousedown="handlePan(0,-1)">
                  <use xlink:href="#rim" fill="#404040">
                        <set attributeName="fill" to="#808080" begin="arrowUp.mouseover" end="arrowUp.mouseout"/>
                  </use>
                  <path fill="none" stroke="white" stroke-width="1.5" d="M0,-3.0v7 M-2.5,-0.5L0,-3.0L2.5,-0.5"/>
                </g>
                <g id="arrowRight" xlink:href="#dirArrow" transform="rotate(90) translate(36 -43)" onmousedown="handlePan(1,0)">
                  <use xlink:href="#rim" fill="#404040">
                        <set attributeName="fill" to="#808080" begin="arrowRight.mouseover" end="arrowRight.mouseout"/>
                  </use>
                  <path fill="none" stroke="white" stroke-width="1.5" d="M0,-3.0v7 M-2.5,-0.5L0,-3.0L2.5,-0.5"/>
                </g>
                <g id="arrowDown" xlink:href="#dirArrow" transform="rotate(180) translate(-30 -48)" onmousedown="handlePan(0,1)">
                  <use xlink:href="#rim" fill="#404040">
                        <set attributeName="fill" to="#808080" begin="arrowDown.mouseover" end="arrowDown.mouseout"/>
                  </use>
                  <path fill="none" stroke="white" stroke-width="1.5" d="M0,-3.0v7 M-2.5,-0.5L0,-3.0L2.5,-0.5"/>
                </g>
                <g id="arrowLeft" xlink:href="#dirArrow" transform="rotate(270) translate(-36 17)" onmousedown="handlePan(-1,0)">
                  <use xlink:href="#rim" fill="#404040">
                        <set attributeName="fill" to="#808080" begin="arrowLeft.mouseover" end="arrowLeft.mouseout"/>
                  </use>
                  <path fill="none" stroke="white" stroke-width="1.5" d="M0,-3.0v7 M-2.5,-0.5L0,-3.0L2.5,-0.5"/>
                </g>
        </g>
        <svg viewBox="0 0 15 15" width="100%" height="30px" preserveAspectRatio="xMaxYMin meet">
         <g id="arrow_out" transform="scale(0.3 0.3)">
          <a xlink:href="quickjs_8c_a187940a18f6d1d4a5405405f37b5cf46_cgraph_org.svg" target="_base">
           <rect id="button" ry="5" rx="5" y="6" x="6" height="38" width="38"
                fill="#f2f5e9" fill-opacity="0.5" stroke="#606060" stroke-width="1.0"/>
           <path id="arrow"
             d="M 11.500037,31.436501 C 11.940474,20.09759 22.043105,11.32322 32.158766,21.979434 L 37.068811,17.246167 C 37.068811,17.246167 37.088388,32 37.088388,32 L 22.160133,31.978069 C 22.160133,31.978069 26.997745,27.140456 26.997745,27.140456 C 18.528582,18.264221 13.291696,25.230495 11.500037,31.436501 z"
             style="fill:#404040;"/>
          </a>
         </g>
        </svg>
</svg>
