<?xml version="1.0" encoding="UTF-8" standalone="no"?>
<!DOCTYPE svg PUBLIC "-//W3C//DTD SVG 1.1//EN"
 "http://www.w3.org/Graphics/SVG/1.1/DTD/svg11.dtd">
<!-- Generated by graphviz version 2.40.1 (20161225.0304)
 -->
<!-- Title: js_std_file_flush Pages: 1 -->
<svg width="473pt" height="104pt"
 viewBox="0.00 0.00 473.00 104.00" xmlns="http://www.w3.org/2000/svg" xmlns:xlink="http://www.w3.org/1999/xlink">
<g id="graph0" class="graph" transform="scale(1 1) rotate(0) translate(4 100)">
<title>js_std_file_flush</title>
<!-- Node9110 -->
<g id="node1" class="node">
<title>Node9110</title>
<polygon fill="#bfbfbf" stroke="#000000" points="0,-38.5 0,-57.5 87,-57.5 87,-38.5 0,-38.5"/>
<text text-anchor="middle" x="43.5" y="-45.5" font-family="Helvetica,sans-Serif" font-size="10.00" fill="#000000">js_std_file_flush</text>
</g>
<!-- Node9111 -->
<g id="node2" class="node">
<title>Node9111</title>
<g id="a_node2"><a xlink:href="quickjs-libc_8c.html#ae0b015235e2737bee13533c992f0b71b" target="_top" xlink:title="js_std_file_get">
<polygon fill="none" stroke="#000000" points="123,-38.5 123,-57.5 203,-57.5 203,-38.5 123,-38.5"/>
<text text-anchor="middle" x="163" y="-45.5" font-family="Helvetica,sans-Serif" font-size="10.00" fill="#000000">js_std_file_get</text>
</a>
</g>
</g>
<!-- Node9110&#45;&gt;Node9111 -->
<g id="edge1" class="edge">
<title>Node9110&#45;&gt;Node9111</title>
<path fill="none" stroke="#191970" d="M87.3188,-48C95.5589,-48 104.2351,-48 112.6556,-48"/>
<polygon fill="#191970" stroke="#191970" points="112.7536,-51.5001 122.7536,-48 112.7535,-44.5001 112.7536,-51.5001"/>
</g>
<!-- Node9112 -->
<g id="node3" class="node">
<title>Node9112</title>
<g id="a_node3"><a xlink:href="quickjs-libc_8c.html#ada7a3010456e1b1c398aa2ba7f3fc2f9" target="_top" xlink:title="js_std_throw_errno">
<polygon fill="none" stroke="#000000" points="239,-38.5 239,-57.5 338,-57.5 338,-38.5 239,-38.5"/>
<text text-anchor="middle" x="288.5" y="-45.5" font-family="Helvetica,sans-Serif" font-size="10.00" fill="#000000">js_std_throw_errno</text>
</a>
</g>
</g>
<!-- Node9111&#45;&gt;Node9112 -->
<g id="edge2" class="edge">
<title>Node9111&#45;&gt;Node9112</title>
<path fill="none" stroke="#191970" d="M203.054,-48C211.2005,-48 219.9367,-48 228.6004,-48"/>
<polygon fill="#191970" stroke="#191970" points="228.6977,-51.5001 238.6977,-48 228.6977,-44.5001 228.6977,-51.5001"/>
</g>
<!-- Node9113 -->
<g id="node4" class="node">
<title>Node9113</title>
<g id="a_node4"><a xlink:href="quickjs_8h.html#ad80a83d73e9b7d872b88fbf2943aebe9" target="_top" xlink:title="JS_IsException">
<polygon fill="none" stroke="#000000" points="376.5,-76.5 376.5,-95.5 462.5,-95.5 462.5,-76.5 376.5,-76.5"/>
<text text-anchor="middle" x="419.5" y="-83.5" font-family="Helvetica,sans-Serif" font-size="10.00" fill="#000000">JS_IsException</text>
</a>
</g>
</g>
<!-- Node9112&#45;&gt;Node9113 -->
<g id="edge3" class="edge">
<title>Node9112&#45;&gt;Node9113</title>
<path fill="none" stroke="#191970" d="M321.5568,-57.589C338.3125,-62.4494 358.8577,-68.4091 376.7965,-73.6127"/>
<polygon fill="#191970" stroke="#191970" points="375.8745,-76.9895 386.4537,-76.4141 377.8247,-70.2666 375.8745,-76.9895"/>
</g>
<!-- Node9114 -->
<g id="node5" class="node">
<title>Node9114</title>
<g id="a_node5"><a xlink:href="quickjs-libc_8c.html#a980a3e92299b994c60d696fc295edf11" target="_top" xlink:title="js_new_std_error">
<polygon fill="none" stroke="#ff0000" points="374,-38.5 374,-57.5 465,-57.5 465,-38.5 374,-38.5"/>
<text text-anchor="middle" x="419.5" y="-45.5" font-family="Helvetica,sans-Serif" font-size="10.00" fill="#000000">js_new_std_error</text>
</a>
</g>
</g>
<!-- Node9112&#45;&gt;Node9114 -->
<g id="edge4" class="edge">
<title>Node9112&#45;&gt;Node9114</title>
<path fill="none" stroke="#191970" d="M338.0255,-48C346.3702,-48 355.0834,-48 363.577,-48"/>
<polygon fill="#191970" stroke="#191970" points="363.7889,-51.5001 373.7889,-48 363.7889,-44.5001 363.7889,-51.5001"/>
</g>
<!-- Node9234 -->
<g id="node6" class="node">
<title>Node9234</title>
<g id="a_node6"><a xlink:href="quickjs_8c.html#a3ae8a83da71ef07d6e858d172d9c5a81" target="_top" xlink:title="JS_Throw">
<polygon fill="none" stroke="#ff0000" points="389,-.5 389,-19.5 450,-19.5 450,-.5 389,-.5"/>
<text text-anchor="middle" x="419.5" y="-7.5" font-family="Helvetica,sans-Serif" font-size="10.00" fill="#000000">JS_Throw</text>
</a>
</g>
</g>
<!-- Node9112&#45;&gt;Node9234 -->
<g id="edge5" class="edge">
<title>Node9112&#45;&gt;Node9234</title>
<path fill="none" stroke="#191970" d="M321.5568,-38.411C339.0326,-33.3417 360.6306,-27.0766 379.0943,-21.7207"/>
<polygon fill="#191970" stroke="#191970" points="380.0745,-25.0807 388.7036,-18.9333 378.1244,-18.3579 380.0745,-25.0807"/>
</g>
</g>
</svg>
