<?xml version="1.0" encoding="UTF-8" standalone="no"?>
<!DOCTYPE svg PUBLIC "-//W3C//DTD SVG 1.1//EN"
 "http://www.w3.org/Graphics/SVG/1.1/DTD/svg11.dtd">
<!-- Generated by graphviz version 2.40.1 (20161225.0304)
 -->
<!-- Title: js_append_enumerate Pages: 1 -->
<svg width="634pt" height="1180pt"
 viewBox="0.00 0.00 634.00 1180.00" xmlns="http://www.w3.org/2000/svg" xmlns:xlink="http://www.w3.org/1999/xlink">
<g id="graph0" class="graph" transform="scale(1 1) rotate(0) translate(4 1176)">
<title>js_append_enumerate</title>
<!-- Node264490 -->
<g id="node1" class="node">
<title>Node264490</title>
<polygon fill="#bfbfbf" stroke="#000000" points="0,-570.5 0,-589.5 112,-589.5 112,-570.5 0,-570.5"/>
<text text-anchor="middle" x="56" y="-577.5" font-family="Helvetica,sans-Serif" font-size="10.00" fill="#000000">js_append_enumerate</text>
</g>
<!-- Node264491 -->
<g id="node2" class="node">
<title>Node264491</title>
<g id="a_node2"><a xlink:href="quickjs_8c.html#a853f0924d441ea4225488f37c8b69f9a" target="_top" xlink:title="__attribute__">
<polygon fill="none" stroke="#000000" points="187.5,-1152.5 187.5,-1171.5 260.5,-1171.5 260.5,-1152.5 187.5,-1152.5"/>
<text text-anchor="middle" x="224" y="-1159.5" font-family="Helvetica,sans-Serif" font-size="10.00" fill="#000000">__attribute__</text>
</a>
</g>
</g>
<!-- Node264490&#45;&gt;Node264491 -->
<g id="edge1" class="edge">
<title>Node264490&#45;&gt;Node264491</title>
<path fill="none" stroke="#191970" d="M56.2545,-589.7314C58.2011,-656.8659 72.7594,-1051.1963 148,-1138 155.6404,-1146.8146 166.4907,-1152.4264 177.6081,-1155.9889"/>
<polygon fill="#191970" stroke="#191970" points="176.8065,-1159.3977 187.3728,-1158.6211 178.6284,-1152.6389 176.8065,-1159.3977"/>
</g>
<!-- Node264492 -->
<g id="node3" class="node">
<title>Node264492</title>
<g id="a_node3"><a xlink:href="quickjs_8c.html#a4398c126700f887a947501bf25910f75" target="_top" xlink:title="js_array_iterator_next">
<polygon fill="none" stroke="#000000" points="169,-668.5 169,-687.5 279,-687.5 279,-668.5 169,-668.5"/>
<text text-anchor="middle" x="224" y="-675.5" font-family="Helvetica,sans-Serif" font-size="10.00" fill="#000000">js_array_iterator_next</text>
</a>
</g>
</g>
<!-- Node264490&#45;&gt;Node264492 -->
<g id="edge2" class="edge">
<title>Node264490&#45;&gt;Node264492</title>
<path fill="none" stroke="#191970" d="M72.4144,-589.5751C101.8217,-606.7293 163.671,-642.8081 198.5949,-663.1804"/>
<polygon fill="#191970" stroke="#191970" points="196.8687,-666.2253 207.2701,-668.2409 200.3958,-660.1789 196.8687,-666.2253"/>
</g>
<!-- Node264557 -->
<g id="node6" class="node">
<title>Node264557</title>
<g id="a_node6"><a xlink:href="quickjs_8h.html#ad80a83d73e9b7d872b88fbf2943aebe9" target="_top" xlink:title="JS_IsException">
<polygon fill="none" stroke="#000000" points="529,-753.5 529,-772.5 615,-772.5 615,-753.5 529,-753.5"/>
<text text-anchor="middle" x="572" y="-760.5" font-family="Helvetica,sans-Serif" font-size="10.00" fill="#000000">JS_IsException</text>
</a>
</g>
</g>
<!-- Node264490&#45;&gt;Node264557 -->
<g id="edge47" class="edge">
<title>Node264490&#45;&gt;Node264557</title>
<path fill="none" stroke="#191970" d="M112.3303,-574.0324C198.5041,-567.7095 365.3247,-566.7788 482,-637 524.0523,-662.3093 551.8999,-715.6073 564.4144,-744.0976"/>
<polygon fill="#191970" stroke="#191970" points="561.2164,-745.5216 568.3292,-753.3739 567.6656,-742.7998 561.2164,-745.5216"/>
</g>
<!-- Node264525 -->
<g id="node7" class="node">
<title>Node264525</title>
<g id="a_node7"><a xlink:href="quickjs_8h.html#a775522f2d084fc8fa0fcb33f390006b4" target="_top" xlink:title="JS_DupValue">
<polygon fill="none" stroke="#000000" points="533.5,-190.5 533.5,-209.5 610.5,-209.5 610.5,-190.5 533.5,-190.5"/>
<text text-anchor="middle" x="572" y="-197.5" font-family="Helvetica,sans-Serif" font-size="10.00" fill="#000000">JS_DupValue</text>
</a>
</g>
</g>
<!-- Node264490&#45;&gt;Node264525 -->
<g id="edge32" class="edge">
<title>Node264490&#45;&gt;Node264525</title>
<path fill="none" stroke="#191970" d="M57.4095,-570.2929C64.8206,-520.4828 100.7366,-293.9914 148,-244 246.6682,-139.6367 439.4021,-168.2174 526.883,-188.1548"/>
<polygon fill="#191970" stroke="#191970" points="526.2317,-191.5969 536.7668,-190.4735 527.8305,-184.782 526.2317,-191.5969"/>
</g>
<!-- Node264583 -->
<g id="node8" class="node">
<title>Node264583</title>
<g id="a_node8"><a xlink:href="quickjs_8h.html#afaa20c47565bc704c6c85f3d77254e7d" target="_top" xlink:title="JS_FreeValue">
<polygon fill="none" stroke="#ff0000" points="533,-905.5 533,-924.5 611,-924.5 611,-905.5 533,-905.5"/>
<text text-anchor="middle" x="572" y="-912.5" font-family="Helvetica,sans-Serif" font-size="10.00" fill="#000000">JS_FreeValue</text>
</a>
</g>
</g>
<!-- Node264490&#45;&gt;Node264583 -->
<g id="edge33" class="edge">
<title>Node264490&#45;&gt;Node264583</title>
<path fill="none" stroke="#191970" d="M57.9802,-589.7818C67.193,-634.4007 107.143,-818.1602 148,-858 249.2802,-956.7588 434.5464,-940.1182 522.7713,-925.1244"/>
<polygon fill="#191970" stroke="#191970" points="523.5433,-928.5424 532.7832,-923.3584 522.3273,-921.6488 523.5433,-928.5424"/>
</g>
<!-- Node264621 -->
<g id="node10" class="node">
<title>Node264621</title>
<g id="a_node10"><a xlink:href="quickjs_8h.html#a89b7c8686c7eee70b86be722ee4730ad" target="_top" xlink:title="JS_GetProperty">
<polygon fill="none" stroke="#ff0000" points="529,-1019.5 529,-1038.5 615,-1038.5 615,-1019.5 529,-1019.5"/>
<text text-anchor="middle" x="572" y="-1026.5" font-family="Helvetica,sans-Serif" font-size="10.00" fill="#000000">JS_GetProperty</text>
</a>
</g>
</g>
<!-- Node264490&#45;&gt;Node264621 -->
<g id="edge45" class="edge">
<title>Node264490&#45;&gt;Node264621</title>
<path fill="none" stroke="#191970" d="M56.4378,-589.6614C59.4379,-651.5215 78.9481,-991.7327 148,-1063 200.0547,-1116.7248 413.2806,-1134.5584 482,-1105 503.3713,-1095.8075 500.3999,-1082.2141 518,-1067 527.4286,-1058.8496 538.5881,-1050.7684 548.3078,-1044.1675"/>
<polygon fill="#191970" stroke="#191970" points="550.3488,-1047.0135 556.7383,-1038.5622 546.4731,-1041.1844 550.3488,-1047.0135"/>
</g>
<!-- Node264647 -->
<g id="node12" class="node">
<title>Node264647</title>
<g id="a_node12"><a xlink:href="quickjs_8c.html#a22f31ae7a52ea79fa375d19427daa797" target="_top" xlink:title="JS_NewUint32">
<polygon fill="none" stroke="#000000" points="530.5,-361.5 530.5,-380.5 613.5,-380.5 613.5,-361.5 530.5,-361.5"/>
<text text-anchor="middle" x="572" y="-368.5" font-family="Helvetica,sans-Serif" font-size="10.00" fill="#000000">JS_NewUint32</text>
</a>
</g>
</g>
<!-- Node264490&#45;&gt;Node264647 -->
<g id="edge58" class="edge">
<title>Node264490&#45;&gt;Node264647</title>
<path fill="none" stroke="#191970" d="M57.5883,-570.2969C65.323,-524.3566 100.6064,-329.5027 148,-295 268.1316,-207.5437 341.86,-260.5938 482,-310 509.6902,-319.7622 536.9576,-340.1815 554.0931,-354.7032"/>
<polygon fill="#191970" stroke="#191970" points="551.8097,-357.3558 561.6487,-361.2858 556.4079,-352.0779 551.8097,-357.3558"/>
</g>
<!-- Node264896 -->
<g id="node16" class="node">
<title>Node264896</title>
<g id="a_node16"><a xlink:href="quickjs_8c.html#a4e9176ba046f72bfa8c511cbe58242e8" target="_top" xlink:title="js_create_array_iterator">
<polygon fill="none" stroke="#000000" points="164.5,-380.5 164.5,-399.5 283.5,-399.5 283.5,-380.5 164.5,-380.5"/>
<text text-anchor="middle" x="224" y="-387.5" font-family="Helvetica,sans-Serif" font-size="10.00" fill="#000000">js_create_array_iterator</text>
</a>
</g>
</g>
<!-- Node264490&#45;&gt;Node264896 -->
<g id="edge19" class="edge">
<title>Node264490&#45;&gt;Node264896</title>
<path fill="none" stroke="#191970" d="M64.5621,-570.3167C91.2926,-540.0857 173.4803,-447.1353 208.2283,-407.8371"/>
<polygon fill="#191970" stroke="#191970" points="211.2516,-409.7016 215.2537,-399.8917 206.0076,-405.0648 211.2516,-409.7016"/>
</g>
<!-- Node264544 -->
<g id="node20" class="node">
<title>Node264544</title>
<g id="a_node20"><a xlink:href="quickjs_8h.html#a2050bc428da1c65ac7eb87c3fa3b0392" target="_top" xlink:title="JS_NewInt32">
<polygon fill="none" stroke="#000000" points="534,-133.5 534,-152.5 610,-152.5 610,-133.5 534,-133.5"/>
<text text-anchor="middle" x="572" y="-140.5" font-family="Helvetica,sans-Serif" font-size="10.00" fill="#000000">JS_NewInt32</text>
</a>
</g>
</g>
<!-- Node264490&#45;&gt;Node264544 -->
<g id="edge57" class="edge">
<title>Node264490&#45;&gt;Node264544</title>
<path fill="none" stroke="#191970" d="M56.6536,-570.2316C60.6786,-513.2658 84.0668,-224.6007 148,-170 257.3021,-76.6529 445.8872,-109.7757 529.7163,-130.9162"/>
<polygon fill="#191970" stroke="#191970" points="529.0872,-134.3688 539.6455,-133.4889 530.843,-127.5925 529.0872,-134.3688"/>
</g>
<!-- Node264721 -->
<g id="node22" class="node">
<title>Node264721</title>
<g id="a_node22"><a xlink:href="quickjs_8c.html#a12aed667595f49667e0095f0a028e0d4" target="_top" xlink:title="JS_DefinePropertyValueUint32">
<polygon fill="none" stroke="#ff0000" points="148,-304.5 148,-323.5 300,-323.5 300,-304.5 148,-304.5"/>
<text text-anchor="middle" x="224" y="-311.5" font-family="Helvetica,sans-Serif" font-size="10.00" fill="#000000">JS_DefinePropertyValueUint32</text>
</a>
</g>
</g>
<!-- Node264490&#45;&gt;Node264721 -->
<g id="edge30" class="edge">
<title>Node264490&#45;&gt;Node264721</title>
<path fill="none" stroke="#191970" d="M58.3569,-570.3348C66.4028,-538.8504 95.2507,-437.4472 148,-371 161.6299,-353.8307 181.5935,-339.1247 197.6398,-328.9524"/>
<polygon fill="#191970" stroke="#191970" points="199.8498,-331.7037 206.5575,-323.5026 196.1995,-325.7307 199.8498,-331.7037"/>
</g>
<!-- Node264898 -->
<g id="node23" class="node">
<title>Node264898</title>
<g id="a_node23"><a xlink:href="quickjs_8c.html#a4e7bf9ce9c03f0cac9529a14161183e0" target="_top" xlink:title="js_get_fast_array">
<polygon fill="none" stroke="#000000" points="178,-76.5 178,-95.5 270,-95.5 270,-76.5 178,-76.5"/>
<text text-anchor="middle" x="224" y="-83.5" font-family="Helvetica,sans-Serif" font-size="10.00" fill="#000000">js_get_fast_array</text>
</a>
</g>
</g>
<!-- Node264490&#45;&gt;Node264898 -->
<g id="edge34" class="edge">
<title>Node264490&#45;&gt;Node264898</title>
<path fill="none" stroke="#191970" d="M56.5799,-570.2785C60.3936,-509.4925 83.7451,-181.9287 148,-110 153.5049,-103.8376 160.5773,-99.2443 168.1862,-95.8233"/>
<polygon fill="#191970" stroke="#191970" points="169.57,-99.0415 177.6642,-92.2052 167.0735,-92.5018 169.57,-99.0415"/>
</g>
<!-- Node264899 -->
<g id="node24" class="node">
<title>Node264899</title>
<g id="a_node24"><a xlink:href="quickjs_8c.html#a5f848f76409193212a44e6221e430919" target="_top" xlink:title="js_get_length64">
<polygon fill="none" stroke="#000000" points="181.5,-829.5 181.5,-848.5 266.5,-848.5 266.5,-829.5 181.5,-829.5"/>
<text text-anchor="middle" x="224" y="-836.5" font-family="Helvetica,sans-Serif" font-size="10.00" fill="#000000">js_get_length64</text>
</a>
</g>
</g>
<!-- Node264490&#45;&gt;Node264899 -->
<g id="edge35" class="edge">
<title>Node264490&#45;&gt;Node264899</title>
<path fill="none" stroke="#191970" d="M62.1785,-589.5251C86.9266,-627.6785 179.1466,-769.851 212.155,-820.739"/>
<polygon fill="#191970" stroke="#191970" points="209.387,-822.9033 217.7654,-829.3883 215.2598,-819.094 209.387,-822.9033"/>
</g>
<!-- Node264847 -->
<g id="node26" class="node">
<title>Node264847</title>
<g id="a_node26"><a xlink:href="quickjs_8c.html#a5ec5d4521881c24fd8de4e8a4f602fba" target="_top" xlink:title="JS_GetIterator">
<polygon fill="none" stroke="#ff0000" points="369,-1000.5 369,-1019.5 449,-1019.5 449,-1000.5 369,-1000.5"/>
<text text-anchor="middle" x="409" y="-1007.5" font-family="Helvetica,sans-Serif" font-size="10.00" fill="#000000">JS_GetIterator</text>
</a>
</g>
</g>
<!-- Node264490&#45;&gt;Node264847 -->
<g id="edge40" class="edge">
<title>Node264490&#45;&gt;Node264847</title>
<path fill="none" stroke="#191970" d="M56.7204,-589.5401C61.1258,-645.1799 86.3116,-927.1989 148,-982 205.5317,-1033.1085 300.7247,-1028.9757 358.8637,-1020.2407"/>
<polygon fill="#191970" stroke="#191970" points="359.5992,-1023.6676 368.919,-1018.6285 358.491,-1016.7558 359.5992,-1023.6676"/>
</g>
<!-- Node264903 -->
<g id="node27" class="node">
<title>Node264903</title>
<g id="a_node27"><a xlink:href="quickjs_8c.html#ac9b42f78cab1ed108c007cb019a33692" target="_top" xlink:title="JS_IsCFunction">
<polygon fill="none" stroke="#000000" points="180.5,-38.5 180.5,-57.5 267.5,-57.5 267.5,-38.5 180.5,-38.5"/>
<text text-anchor="middle" x="224" y="-45.5" font-family="Helvetica,sans-Serif" font-size="10.00" fill="#000000">JS_IsCFunction</text>
</a>
</g>
</g>
<!-- Node264490&#45;&gt;Node264903 -->
<g id="edge46" class="edge">
<title>Node264490&#45;&gt;Node264903</title>
<path fill="none" stroke="#191970" d="M56.3514,-570.1863C58.8548,-505.7993 76.0204,-144.0121 148,-67 154.0728,-60.5027 162.0018,-56.0849 170.4427,-53.1083"/>
<polygon fill="#191970" stroke="#191970" points="171.4752,-56.4533 180.1184,-50.3259 169.5406,-49.7259 171.4752,-56.4533"/>
</g>
<!-- Node264863 -->
<g id="node28" class="node">
<title>Node264863</title>
<g id="a_node28"><a xlink:href="quickjs_8c.html#abb88b24dc63d82fcc312bba0cf93c3d7" target="_top" xlink:title="JS_IteratorClose">
<polygon fill="none" stroke="#ff0000" points="364,-1076.5 364,-1095.5 454,-1095.5 454,-1076.5 364,-1076.5"/>
<text text-anchor="middle" x="409" y="-1083.5" font-family="Helvetica,sans-Serif" font-size="10.00" fill="#000000">JS_IteratorClose</text>
</a>
</g>
</g>
<!-- Node264490&#45;&gt;Node264863 -->
<g id="edge48" class="edge">
<title>Node264490&#45;&gt;Node264863</title>
<path fill="none" stroke="#191970" d="M56.6959,-589.8315C61.0432,-648.5057 86.3134,-952.0871 148,-1017 201.2249,-1073.0087 294.1315,-1085.496 353.5424,-1087.288"/>
<polygon fill="#191970" stroke="#191970" points="353.7951,-1090.7939 363.8656,-1087.5023 353.9404,-1083.7954 353.7951,-1090.7939"/>
</g>
<!-- Node264844 -->
<g id="node29" class="node">
<title>Node264844</title>
<g id="a_node29"><a xlink:href="quickjs_8c.html#a44f6eee98516c994a594533cfa8618ed" target="_top" xlink:title="JS_IteratorNext">
<polygon fill="none" stroke="#ff0000" points="366,-962.5 366,-981.5 452,-981.5 452,-962.5 366,-962.5"/>
<text text-anchor="middle" x="409" y="-969.5" font-family="Helvetica,sans-Serif" font-size="10.00" fill="#000000">JS_IteratorNext</text>
</a>
</g>
</g>
<!-- Node264490&#45;&gt;Node264844 -->
<g id="edge53" class="edge">
<title>Node264490&#45;&gt;Node264844</title>
<path fill="none" stroke="#191970" d="M56.9439,-589.7792C62.3078,-643.1787 90.7553,-898.9201 148,-948 205.6815,-997.4544 299.1535,-992.6062 357.1887,-983.2535"/>
<polygon fill="#191970" stroke="#191970" points="357.9782,-986.6694 367.2435,-981.531 356.7961,-979.7699 357.9782,-986.6694"/>
</g>
<!-- Node264752 -->
<g id="node30" class="node">
<title>Node264752</title>
<g id="a_node30"><a xlink:href="quickjs_8h.html#af763b173e78debf2075670ca2c128a30" target="_top" xlink:title="JS_SetProperty">
<polygon fill="none" stroke="#ff0000" points="181,-.5 181,-19.5 267,-19.5 267,-.5 181,-.5"/>
<text text-anchor="middle" x="224" y="-7.5" font-family="Helvetica,sans-Serif" font-size="10.00" fill="#000000">JS_SetProperty</text>
</a>
</g>
</g>
<!-- Node264490&#45;&gt;Node264752 -->
<g id="edge59" class="edge">
<title>Node264490&#45;&gt;Node264752</title>
<path fill="none" stroke="#191970" d="M56.2159,-570.3385C57.9016,-503.6941 71.0171,-112.3628 148,-29 154.1677,-22.3211 162.2961,-17.8347 170.9406,-14.8511"/>
<polygon fill="#191970" stroke="#191970" points="172.1537,-18.1463 180.843,-12.0844 170.27,-11.4045 172.1537,-18.1463"/>
</g>
<!-- Node264493 -->
<g id="node4" class="node">
<title>Node264493</title>
<g id="a_node4"><a xlink:href="quickjs_8c.html#a339d687d765143d3f8ea0ea89fa47b0f" target="_top" xlink:title="js_create_array">
<polygon fill="none" stroke="#ff0000" points="367.5,-494.5 367.5,-513.5 450.5,-513.5 450.5,-494.5 367.5,-494.5"/>
<text text-anchor="middle" x="409" y="-501.5" font-family="Helvetica,sans-Serif" font-size="10.00" fill="#000000">js_create_array</text>
</a>
</g>
</g>
<!-- Node264492&#45;&gt;Node264493 -->
<g id="edge3" class="edge">
<title>Node264492&#45;&gt;Node264493</title>
<path fill="none" stroke="#191970" d="M234.2099,-668.3972C264.3359,-640.0624 353.1253,-556.5524 391.2635,-520.6819"/>
<polygon fill="#191970" stroke="#191970" points="393.7072,-523.1884 398.5936,-513.7877 388.9113,-518.0894 393.7072,-523.1884"/>
</g>
<!-- Node264492&#45;&gt;Node264557 -->
<g id="edge14" class="edge">
<title>Node264492&#45;&gt;Node264557</title>
<path fill="none" stroke="#191970" d="M242.9212,-687.5819C264.7957,-698.2679 302.1412,-715.3193 336,-725 397.3362,-742.537 470.1047,-752.7145 518.4602,-758.0477"/>
<polygon fill="#191970" stroke="#191970" points="518.38,-761.5591 528.696,-759.1444 519.1259,-754.5989 518.38,-761.5591"/>
</g>
<!-- Node264492&#45;&gt;Node264583 -->
<g id="edge8" class="edge">
<title>Node264492&#45;&gt;Node264583</title>
<path fill="none" stroke="#191970" d="M237.9728,-687.7357C259.0002,-702.2998 300.1399,-730.458 336,-753 399.7586,-793.0793 420.5672,-795.4395 482,-839 508.2358,-857.6032 536.2022,-882.0313 553.8719,-898.1069"/>
<polygon fill="#191970" stroke="#191970" points="551.9336,-901.079 561.6662,-905.2655 556.6687,-895.9234 551.9336,-901.079"/>
</g>
<!-- Node264620 -->
<g id="node9" class="node">
<title>Node264620</title>
<g id="a_node9"><a xlink:href="quickjs_8c.html#a718e904644ebc55548a5bdbd44f3adb9" target="_top" xlink:title="js_get_length32">
<polygon fill="none" stroke="#ff0000" points="366.5,-848.5 366.5,-867.5 451.5,-867.5 451.5,-848.5 366.5,-848.5"/>
<text text-anchor="middle" x="409" y="-855.5" font-family="Helvetica,sans-Serif" font-size="10.00" fill="#000000">js_get_length32</text>
</a>
</g>
</g>
<!-- Node264492&#45;&gt;Node264620 -->
<g id="edge9" class="edge">
<title>Node264492&#45;&gt;Node264620</title>
<path fill="none" stroke="#191970" d="M228.2577,-687.6763C240.7189,-714.8895 279.8137,-792.7853 336,-834 342.2778,-838.605 349.4871,-842.3577 356.8769,-845.4073"/>
<polygon fill="#191970" stroke="#191970" points="355.6845,-848.698 366.2773,-848.9055 358.1259,-842.1376 355.6845,-848.698"/>
</g>
<!-- Node264644 -->
<g id="node11" class="node">
<title>Node264644</title>
<g id="a_node11"><a xlink:href="quickjs_8c.html#aeb97957655d979e9fe56c955da2b2d4b" target="_top" xlink:title="JS_GetPropertyUint32">
<polygon fill="none" stroke="#ff0000" points="351.5,-456.5 351.5,-475.5 466.5,-475.5 466.5,-456.5 351.5,-456.5"/>
<text text-anchor="middle" x="409" y="-463.5" font-family="Helvetica,sans-Serif" font-size="10.00" fill="#000000">JS_GetPropertyUint32</text>
</a>
</g>
</g>
<!-- Node264492&#45;&gt;Node264644 -->
<g id="edge12" class="edge">
<title>Node264492&#45;&gt;Node264644</title>
<path fill="none" stroke="#191970" d="M226.7246,-668.1703C236.0763,-636.3253 269.9916,-535.1593 336,-485 338.4748,-483.1194 341.1181,-481.4243 343.8776,-479.8963"/>
<polygon fill="#191970" stroke="#191970" points="345.4835,-483.0084 353.0211,-475.5629 342.4856,-476.6828 345.4835,-483.0084"/>
</g>
<!-- Node264492&#45;&gt;Node264647 -->
<g id="edge16" class="edge">
<title>Node264492&#45;&gt;Node264647</title>
<path fill="none" stroke="#191970" d="M225.7051,-668.3149C232.4806,-632.8052 260.8786,-508.6205 336,-447 387.8411,-404.4759 418.5038,-430.5414 482,-409 502.4082,-402.0764 524.7293,-392.6644 542.0368,-384.9397"/>
<polygon fill="#191970" stroke="#191970" points="543.9254,-387.927 551.5955,-380.6181 541.0416,-381.5486 543.9254,-387.927"/>
</g>
<!-- Node264642 -->
<g id="node13" class="node">
<title>Node264642</title>
<g id="a_node13"><a xlink:href="quickjs_8h.html#a4e407128a9605afb77523e49e9a627fd" target="_top" xlink:title="JS_IsUndefined">
<polygon fill="none" stroke="#000000" points="529,-1076.5 529,-1095.5 615,-1095.5 615,-1076.5 529,-1076.5"/>
<text text-anchor="middle" x="572" y="-1083.5" font-family="Helvetica,sans-Serif" font-size="10.00" fill="#000000">JS_IsUndefined</text>
</a>
</g>
</g>
<!-- Node264492&#45;&gt;Node264642 -->
<g id="edge15" class="edge">
<title>Node264492&#45;&gt;Node264642</title>
<path fill="none" stroke="#191970" d="M230.8813,-687.763C246.1837,-710.019 283.0182,-766.7175 300,-820 319.3848,-880.8222 288.1157,-1062.7838 336,-1105 394.2683,-1156.3711 495.1161,-1121.5434 543.9255,-1099.7872"/>
<polygon fill="#191970" stroke="#191970" points="545.6145,-1102.863 553.2415,-1095.5092 542.6933,-1096.5017 545.6145,-1102.863"/>
</g>
<!-- Node264685 -->
<g id="node14" class="node">
<title>Node264685</title>
<g id="a_node14"><a xlink:href="quickjs_8c.html#a033dd3ebd29c4eb9f0baff1dd0fec0b1" target="_top" xlink:title="JS_ThrowTypeErrorDetached\lArrayBuffer">
<polygon fill="none" stroke="#000000" points="336,-685 336,-715 482,-715 482,-685 336,-685"/>
<text text-anchor="start" x="344" y="-703" font-family="Helvetica,sans-Serif" font-size="10.00" fill="#000000">JS_ThrowTypeErrorDetached</text>
<text text-anchor="middle" x="409" y="-692" font-family="Helvetica,sans-Serif" font-size="10.00" fill="#000000">ArrayBuffer</text>
</a>
</g>
</g>
<!-- Node264492&#45;&gt;Node264685 -->
<g id="edge17" class="edge">
<title>Node264492&#45;&gt;Node264685</title>
<path fill="none" stroke="#191970" d="M279.0052,-684.5412C293.5962,-686.2763 309.6855,-688.1896 325.4267,-690.0616"/>
<polygon fill="#191970" stroke="#191970" points="325.3581,-693.578 335.7015,-691.2834 326.1848,-686.627 325.3581,-693.578"/>
</g>
<!-- Node264686 -->
<g id="node15" class="node">
<title>Node264686</title>
<g id="a_node15"><a xlink:href="quickjs_8c.html#a869fa88a646c0a1914ec2e559b193b5c" target="_top" xlink:title="typed_array_is_detached">
<polygon fill="none" stroke="#000000" points="346.5,-646.5 346.5,-665.5 471.5,-665.5 471.5,-646.5 346.5,-646.5"/>
<text text-anchor="middle" x="409" y="-653.5" font-family="Helvetica,sans-Serif" font-size="10.00" fill="#000000">typed_array_is_detached</text>
</a>
</g>
</g>
<!-- Node264492&#45;&gt;Node264686 -->
<g id="edge18" class="edge">
<title>Node264492&#45;&gt;Node264686</title>
<path fill="none" stroke="#191970" d="M279.0052,-671.4588C296.9717,-669.3223 317.2098,-666.9156 336.2726,-664.6487"/>
<polygon fill="#191970" stroke="#191970" points="336.9001,-668.0988 346.4168,-663.4423 336.0735,-661.1478 336.9001,-668.0988"/>
</g>
<!-- Node264494 -->
<g id="node5" class="node">
<title>Node264494</title>
<g id="a_node5"><a xlink:href="quickjs_8c.html#ad4ba09e4c7ab9f28c144182e1aacf1f6" target="_top" xlink:title="JS_NewArray">
<polygon fill="none" stroke="#ff0000" points="533.5,-494.5 533.5,-513.5 610.5,-513.5 610.5,-494.5 533.5,-494.5"/>
<text text-anchor="middle" x="572" y="-501.5" font-family="Helvetica,sans-Serif" font-size="10.00" fill="#000000">JS_NewArray</text>
</a>
</g>
</g>
<!-- Node264493&#45;&gt;Node264494 -->
<g id="edge4" class="edge">
<title>Node264493&#45;&gt;Node264494</title>
<path fill="none" stroke="#191970" d="M450.5535,-504C472.6381,-504 499.9218,-504 523.031,-504"/>
<polygon fill="#191970" stroke="#191970" points="523.3213,-507.5001 533.3212,-504 523.3212,-500.5001 523.3213,-507.5001"/>
</g>
<!-- Node264493&#45;&gt;Node264557 -->
<g id="edge5" class="edge">
<title>Node264493&#45;&gt;Node264557</title>
<path fill="none" stroke="#191970" d="M450.6921,-510.857C461.9626,-514.412 473.4047,-519.8086 482,-528 545.4246,-588.4442 564.7095,-698.4004 570.0885,-743.2033"/>
<polygon fill="#191970" stroke="#191970" points="566.6312,-743.7861 571.197,-753.3467 573.5898,-743.0256 566.6312,-743.7861"/>
</g>
<!-- Node264493&#45;&gt;Node264525 -->
<g id="edge6" class="edge">
<title>Node264493&#45;&gt;Node264525</title>
<path fill="none" stroke="#191970" d="M450.5299,-501.5882C462.2045,-498.8909 473.9083,-493.9265 482,-485 550.9001,-408.992 472.6868,-349.0389 518,-257 525.8273,-241.1014 539.6302,-226.651 551.3212,-216.2778"/>
<polygon fill="#191970" stroke="#191970" points="553.6182,-218.9191 558.9782,-209.7801 549.0889,-213.5818 553.6182,-218.9191"/>
</g>
<!-- Node264493&#45;&gt;Node264583 -->
<g id="edge7" class="edge">
<title>Node264493&#45;&gt;Node264583</title>
<path fill="none" stroke="#191970" d="M418.2664,-513.5913C433.9736,-530.4242 465.7045,-567.0209 482,-604 514.5475,-677.8595 494.7176,-704.7181 518,-782 530.5732,-823.7344 551.1721,-870.5235 562.9613,-895.9797"/>
<polygon fill="#191970" stroke="#191970" points="559.8771,-897.6466 567.2885,-905.2177 566.2162,-894.6773 559.8771,-897.6466"/>
</g>
<!-- Node264620&#45;&gt;Node264557 -->
<g id="edge11" class="edge">
<title>Node264620&#45;&gt;Node264557</title>
<path fill="none" stroke="#191970" d="M425.5263,-848.3681C454.0829,-831.7247 512.8396,-797.48 546.6126,-777.7963"/>
<polygon fill="#191970" stroke="#191970" points="548.5526,-780.7168 555.4299,-772.6574 545.0278,-774.669 548.5526,-780.7168"/>
</g>
<!-- Node264620&#45;&gt;Node264621 -->
<g id="edge10" class="edge">
<title>Node264620&#45;&gt;Node264621</title>
<path fill="none" stroke="#191970" d="M451.6782,-863.2443C462.3318,-866.0626 473.2122,-870.3829 482,-877 488.098,-881.5917 539.1616,-971.0037 561.55,-1010.506"/>
<polygon fill="#191970" stroke="#191970" points="558.6076,-1012.413 566.5793,-1019.3917 564.6994,-1008.9649 558.6076,-1012.413"/>
</g>
<!-- Node264644&#45;&gt;Node264647 -->
<g id="edge13" class="edge">
<title>Node264644&#45;&gt;Node264647</title>
<path fill="none" stroke="#191970" d="M446.4278,-456.4584C458.1745,-452.7444 470.9516,-447.9327 482,-442 509.7254,-427.1124 537.5373,-403.528 554.7509,-387.6705"/>
<polygon fill="#191970" stroke="#191970" points="557.4093,-389.9754 562.3031,-380.5785 552.6175,-384.8726 557.4093,-389.9754"/>
</g>
<!-- Node264896&#45;&gt;Node264557 -->
<g id="edge21" class="edge">
<title>Node264896&#45;&gt;Node264557</title>
<path fill="none" stroke="#191970" d="M229.3956,-399.7028C243.5376,-424.2289 284.1918,-489.1558 336,-523 392.6318,-559.9952 430.8927,-521.6847 482,-566 537.4518,-614.0824 560.6653,-703.3693 568.5645,-743.0737"/>
<polygon fill="#191970" stroke="#191970" points="565.1587,-743.9024 570.4366,-753.089 572.0396,-742.6161 565.1587,-743.9024"/>
</g>
<!-- Node264896&#45;&gt;Node264583 -->
<g id="edge20" class="edge">
<title>Node264896&#45;&gt;Node264583</title>
<path fill="none" stroke="#191970" d="M228.2805,-399.5189C241.0868,-427.1245 281.6085,-508.3967 336,-558 390.514,-607.715 436.8181,-578.6737 482,-637 522.6635,-689.4935 497.4583,-718.8563 518,-782 531.5518,-823.6574 551.9531,-870.8142 563.4081,-896.2774"/>
<polygon fill="#191970" stroke="#191970" points="560.2719,-897.8362 567.592,-905.4956 566.6461,-894.9431 560.2719,-897.8362"/>
</g>
<!-- Node264734 -->
<g id="node17" class="node">
<title>Node264734</title>
<g id="a_node17"><a xlink:href="quickjs_8c.html#a659dc0db7e440fd6eb012d613627faa3" target="_top" xlink:title="JS_NewObjectClass">
<polygon fill="none" stroke="#ff0000" points="518,-266.5 518,-285.5 626,-285.5 626,-266.5 518,-266.5"/>
<text text-anchor="middle" x="572" y="-273.5" font-family="Helvetica,sans-Serif" font-size="10.00" fill="#000000">JS_NewObjectClass</text>
</a>
</g>
</g>
<!-- Node264896&#45;&gt;Node264734 -->
<g id="edge22" class="edge">
<title>Node264896&#45;&gt;Node264734</title>
<path fill="none" stroke="#191970" d="M239.7857,-380.4656C260.998,-368.0089 300.1848,-346.2311 336,-333 392.6614,-312.0678 459.8401,-296.709 508.0054,-287.2432"/>
<polygon fill="#191970" stroke="#191970" points="508.8309,-290.6485 517.9842,-285.3129 507.5014,-283.7759 508.8309,-290.6485"/>
</g>
<!-- Node264824 -->
<g id="node18" class="node">
<title>Node264824</title>
<g id="a_node18"><a xlink:href="quickjs_8c.html#a0ddf716409e51648f0d59e7521150d19" target="_top" xlink:title="JS_SetOpaque">
<polygon fill="none" stroke="#000000" points="367.5,-342.5 367.5,-361.5 450.5,-361.5 450.5,-342.5 367.5,-342.5"/>
<text text-anchor="middle" x="409" y="-349.5" font-family="Helvetica,sans-Serif" font-size="10.00" fill="#000000">JS_SetOpaque</text>
</a>
</g>
</g>
<!-- Node264896&#45;&gt;Node264824 -->
<g id="edge23" class="edge">
<title>Node264896&#45;&gt;Node264824</title>
<path fill="none" stroke="#191970" d="M270.6833,-380.411C297.0696,-374.9911 330.1104,-368.2044 357.2815,-362.6233"/>
<polygon fill="#191970" stroke="#191970" points="358.2903,-365.9892 367.3815,-360.5487 356.8818,-359.1324 358.2903,-365.9892"/>
</g>
<!-- Node264783 -->
<g id="node19" class="node">
<title>Node264783</title>
<g id="a_node19"><a xlink:href="quickjs_8c.html#a710289a14c2810467e5b448d3c28bd55" target="_top" xlink:title="JS_ToObject">
<polygon fill="none" stroke="#ff0000" points="372,-190.5 372,-209.5 446,-209.5 446,-190.5 372,-190.5"/>
<text text-anchor="middle" x="409" y="-197.5" font-family="Helvetica,sans-Serif" font-size="10.00" fill="#000000">JS_ToObject</text>
</a>
</g>
</g>
<!-- Node264896&#45;&gt;Node264783 -->
<g id="edge24" class="edge">
<title>Node264896&#45;&gt;Node264783</title>
<path fill="none" stroke="#191970" d="M238.8232,-380.4557C254.7699,-369.8408 280.4665,-351.7102 300,-333 338.9569,-295.685 377.2241,-244.7848 396.3665,-218.0681"/>
<polygon fill="#191970" stroke="#191970" points="399.3793,-219.8701 402.3095,-209.6886 393.6695,-215.8206 399.3793,-219.8701"/>
</g>
<!-- Node264897 -->
<g id="node21" class="node">
<title>Node264897</title>
<g id="a_node21"><a xlink:href="quickjs_8c.html#a4d1d0760c9f9efcb8c0a8db414e46c8a" target="_top" xlink:title="JS_ToStringCheckObject">
<polygon fill="none" stroke="#ff0000" points="345,-380.5 345,-399.5 473,-399.5 473,-380.5 345,-380.5"/>
<text text-anchor="middle" x="409" y="-387.5" font-family="Helvetica,sans-Serif" font-size="10.00" fill="#000000">JS_ToStringCheckObject</text>
</a>
</g>
</g>
<!-- Node264896&#45;&gt;Node264897 -->
<g id="edge29" class="edge">
<title>Node264896&#45;&gt;Node264897</title>
<path fill="none" stroke="#191970" d="M283.5535,-390C299.736,-390 317.466,-390 334.3685,-390"/>
<polygon fill="#191970" stroke="#191970" points="334.7645,-393.5001 344.7645,-390 334.7645,-386.5001 334.7645,-393.5001"/>
</g>
<!-- Node264783&#45;&gt;Node264557 -->
<g id="edge26" class="edge">
<title>Node264783&#45;&gt;Node264557</title>
<path fill="none" stroke="#191970" d="M415.6118,-209.5072C430.0032,-230.6638 464.292,-283.6657 482,-333 511.0358,-413.8937 500.5643,-438.8403 518,-523 535.0269,-605.1866 557.7349,-702.6249 567.3673,-743.4644"/>
<polygon fill="#191970" stroke="#191970" points="564.0147,-744.4964 569.7218,-753.4227 570.8268,-742.8856 564.0147,-744.4964"/>
</g>
<!-- Node264783&#45;&gt;Node264525 -->
<g id="edge25" class="edge">
<title>Node264783&#45;&gt;Node264525</title>
<path fill="none" stroke="#191970" d="M446.3955,-200C469.1765,-200 498.5365,-200 523.1415,-200"/>
<polygon fill="#191970" stroke="#191970" points="523.3624,-203.5001 533.3624,-200 523.3624,-196.5001 523.3624,-203.5001"/>
</g>
<!-- Node264783&#45;&gt;Node264734 -->
<g id="edge28" class="edge">
<title>Node264783&#45;&gt;Node264734</title>
<path fill="none" stroke="#191970" d="M442.9837,-209.5716C455.4673,-213.5025 469.5792,-218.4416 482,-224 505.7047,-234.608 531.2001,-249.7226 548.9815,-260.9245"/>
<polygon fill="#191970" stroke="#191970" points="547.2147,-263.9489 557.5266,-266.3811 550.9821,-258.0492 547.2147,-263.9489"/>
</g>
<!-- Node264783&#45;&gt;Node264544 -->
<g id="edge27" class="edge">
<title>Node264783&#45;&gt;Node264544</title>
<path fill="none" stroke="#191970" d="M436.2825,-190.4595C463.3155,-181.0062 504.9132,-166.4598 534.9304,-155.963"/>
<polygon fill="#191970" stroke="#191970" points="536.3443,-159.1765 544.6285,-152.5716 534.0336,-152.5688 536.3443,-159.1765"/>
</g>
<!-- Node264721&#45;&gt;Node264647 -->
<g id="edge31" class="edge">
<title>Node264721&#45;&gt;Node264647</title>
<path fill="none" stroke="#191970" d="M300.0736,-313.1429C351.9902,-314.1226 421.9639,-318.5298 482,-333 504.1203,-338.3315 527.7728,-348.5109 545.2767,-356.9929"/>
<polygon fill="#191970" stroke="#191970" points="543.8073,-360.171 554.3198,-361.489 546.9237,-353.903 543.8073,-360.171"/>
</g>
<!-- Node264899&#45;&gt;Node264557 -->
<g id="edge37" class="edge">
<title>Node264899&#45;&gt;Node264557</title>
<path fill="none" stroke="#191970" d="M266.6716,-829.6809C330.3314,-815.7782 450.062,-789.6301 519.164,-774.5389"/>
<polygon fill="#191970" stroke="#191970" points="519.9564,-777.9484 528.9793,-772.3953 518.4628,-771.1096 519.9564,-777.9484"/>
</g>
<!-- Node264899&#45;&gt;Node264621 -->
<g id="edge36" class="edge">
<title>Node264899&#45;&gt;Node264621</title>
<path fill="none" stroke="#191970" d="M226.1978,-848.9169C234.106,-881.9045 264.5192,-988.1605 336,-1029 396.0746,-1063.3228 479.5823,-1052.3646 529.469,-1040.9288"/>
<polygon fill="#191970" stroke="#191970" points="530.3755,-1044.3107 539.2823,-1038.5731 528.7415,-1037.5041 530.3755,-1044.3107"/>
</g>
<!-- Node264900 -->
<g id="node25" class="node">
<title>Node264900</title>
<g id="a_node25"><a xlink:href="quickjs_8c.html#a07acd485a57197356906928a788a0644" target="_top" xlink:title="JS_ToLengthFree">
<polygon fill="none" stroke="#ff0000" points="362,-886.5 362,-905.5 456,-905.5 456,-886.5 362,-886.5"/>
<text text-anchor="middle" x="409" y="-893.5" font-family="Helvetica,sans-Serif" font-size="10.00" fill="#000000">JS_ToLengthFree</text>
</a>
</g>
</g>
<!-- Node264899&#45;&gt;Node264900 -->
<g id="edge38" class="edge">
<title>Node264899&#45;&gt;Node264900</title>
<path fill="none" stroke="#191970" d="M250.5284,-848.6068C273.1132,-856.6392 306.494,-868.1673 336,-877 343.849,-879.3496 352.2214,-881.6855 360.3928,-883.8742"/>
<polygon fill="#191970" stroke="#191970" points="359.6497,-887.2978 370.2115,-886.4618 361.4336,-880.5289 359.6497,-887.2978"/>
</g>
<!-- Node264900&#45;&gt;Node264583 -->
<g id="edge39" class="edge">
<title>Node264900&#45;&gt;Node264583</title>
<path fill="none" stroke="#191970" d="M456.1464,-901.4956C477.074,-903.935 501.7006,-906.8056 522.8552,-909.2715"/>
<polygon fill="#191970" stroke="#191970" points="522.5919,-912.7644 532.9299,-910.4458 523.4024,-905.8115 522.5919,-912.7644"/>
</g>
<!-- Node264847&#45;&gt;Node264557 -->
<g id="edge43" class="edge">
<title>Node264847&#45;&gt;Node264557</title>
<path fill="none" stroke="#191970" d="M449.0754,-1006.5964C460.8253,-1003.8687 472.9374,-999.1364 482,-991 515.5981,-960.8357 501.506,-938.0317 518,-896 534.0024,-855.2212 553.4889,-807.7364 564.1299,-781.9814"/>
<polygon fill="#191970" stroke="#191970" points="567.4026,-783.2263 567.9923,-772.6479 560.9345,-780.5497 567.4026,-783.2263"/>
</g>
<!-- Node264847&#45;&gt;Node264583 -->
<g id="edge41" class="edge">
<title>Node264847&#45;&gt;Node264583</title>
<path fill="none" stroke="#191970" d="M449.2106,-1002.9431C460.2118,-1000.1134 471.8833,-996.2404 482,-991 511.1823,-975.8836 539.1923,-949.7968 556.0021,-932.4696"/>
<polygon fill="#191970" stroke="#191970" points="558.9748,-934.4208 563.3106,-924.7537 553.8927,-929.607 558.9748,-934.4208"/>
</g>
<!-- Node264847&#45;&gt;Node264621 -->
<g id="edge42" class="edge">
<title>Node264847&#45;&gt;Node264621</title>
<path fill="none" stroke="#191970" d="M449.2921,-1014.6966C470.2213,-1017.1362 496.0704,-1020.1493 518.6383,-1022.7799"/>
<polygon fill="#191970" stroke="#191970" points="518.4089,-1026.2768 528.7469,-1023.9582 519.2194,-1019.3239 518.4089,-1026.2768"/>
</g>
<!-- Node264847&#45;&gt;Node264642 -->
<g id="edge44" class="edge">
<title>Node264847&#45;&gt;Node264642</title>
<path fill="none" stroke="#191970" d="M429.6441,-1019.6255C458.0584,-1032.8739 509.4015,-1056.813 542.0407,-1072.0313"/>
<polygon fill="#191970" stroke="#191970" points="540.9812,-1075.399 551.5236,-1076.4527 543.9394,-1069.0547 540.9812,-1075.399"/>
</g>
<!-- Node264863&#45;&gt;Node264557 -->
<g id="edge51" class="edge">
<title>Node264863&#45;&gt;Node264557</title>
<path fill="none" stroke="#191970" d="M427.0433,-1076.4557C443.744,-1066.705 468.0367,-1050.0315 482,-1029 515.8719,-977.9822 498.4454,-954.0322 518,-896 531.9882,-854.4871 552.2266,-807.2764 563.5366,-781.7652"/>
<polygon fill="#191970" stroke="#191970" points="566.7799,-783.0859 567.6633,-772.528 560.3887,-780.2307 566.7799,-783.0859"/>
</g>
<!-- Node264863&#45;&gt;Node264583 -->
<g id="edge49" class="edge">
<title>Node264863&#45;&gt;Node264583</title>
<path fill="none" stroke="#191970" d="M423.2636,-1076.4117C438.6027,-1065.7591 463.3036,-1047.5966 482,-1029 513.0926,-998.0734 543.4762,-956.5537 559.7644,-933.107"/>
<polygon fill="#191970" stroke="#191970" points="562.6986,-935.0171 565.4744,-924.7923 556.9282,-931.0543 562.6986,-935.0171"/>
</g>
<!-- Node264863&#45;&gt;Node264621 -->
<g id="edge50" class="edge">
<title>Node264863&#45;&gt;Node264621</title>
<path fill="none" stroke="#191970" d="M438.9113,-1076.4185C452.1496,-1072.1129 467.8865,-1066.9059 482,-1062 500.0947,-1055.7102 520.1134,-1048.4047 536.6673,-1042.2687"/>
<polygon fill="#191970" stroke="#191970" points="538.3265,-1045.3859 546.4786,-1038.6188 535.8858,-1038.8252 538.3265,-1045.3859"/>
</g>
<!-- Node264863&#45;&gt;Node264642 -->
<g id="edge52" class="edge">
<title>Node264863&#45;&gt;Node264642</title>
<path fill="none" stroke="#191970" d="M454.4046,-1086C474.3091,-1086 497.8133,-1086 518.5558,-1086"/>
<polygon fill="#191970" stroke="#191970" points="518.802,-1089.5001 528.802,-1086 518.802,-1082.5001 518.802,-1089.5001"/>
</g>
<!-- Node264844&#45;&gt;Node264557 -->
<g id="edge56" class="edge">
<title>Node264844&#45;&gt;Node264557</title>
<path fill="none" stroke="#191970" d="M424.6355,-962.3093C440.4399,-951.9742 464.9061,-934.4417 482,-915 519.3156,-872.5592 549.5428,-812.4607 563.5516,-782.1154"/>
<polygon fill="#191970" stroke="#191970" points="566.8782,-783.2537 567.8154,-772.7004 560.5016,-780.3659 566.8782,-783.2537"/>
</g>
<!-- Node264844&#45;&gt;Node264583 -->
<g id="edge54" class="edge">
<title>Node264844&#45;&gt;Node264583</title>
<path fill="none" stroke="#191970" d="M438.9113,-962.4185C452.1496,-958.1129 467.8865,-952.9059 482,-948 500.0947,-941.7102 520.1134,-934.4047 536.6673,-928.2687"/>
<polygon fill="#191970" stroke="#191970" points="538.3265,-931.3859 546.4786,-924.6188 535.8858,-924.8252 538.3265,-931.3859"/>
</g>
<!-- Node264844&#45;&gt;Node264621 -->
<g id="edge55" class="edge">
<title>Node264844&#45;&gt;Node264621</title>
<path fill="none" stroke="#191970" d="M449.8528,-981.5191C460.4143,-984.283 471.7067,-987.5079 482,-991 502.4082,-997.9236 524.7293,-1007.3356 542.0368,-1015.0603"/>
<polygon fill="#191970" stroke="#191970" points="541.0416,-1018.4514 551.5955,-1019.3819 543.9254,-1012.073 541.0416,-1018.4514"/>
</g>
</g>
</svg>
