<?xml version="1.0" encoding="UTF-8" standalone="no"?>
<!DOCTYPE svg PUBLIC "-//W3C//DTD SVG 1.1//EN"
 "http://www.w3.org/Graphics/SVG/1.1/DTD/svg11.dtd">
<!-- Generated by graphviz version 2.40.1 (20161225.0304)
 -->
<!-- Title: find_export_entry Pages: 1 -->
<svg width="827pt" height="432pt"
 viewBox="0.00 0.00 827.00 432.00" xmlns="http://www.w3.org/2000/svg" xmlns:xlink="http://www.w3.org/1999/xlink">
<g id="graph0" class="graph" transform="scale(1 1) rotate(0) translate(4 428)">
<title>find_export_entry</title>
<!-- Node307717 -->
<g id="node1" class="node">
<title>Node307717</title>
<polygon fill="#bfbfbf" stroke="#000000" points="0,-135.5 0,-154.5 92,-154.5 92,-135.5 0,-135.5"/>
<text text-anchor="middle" x="46" y="-142.5" font-family="Helvetica,sans-Serif" font-size="10.00" fill="#000000">find_export_entry</text>
</g>
<!-- Node307718 -->
<g id="node2" class="node">
<title>Node307718</title>
<g id="a_node2"><a xlink:href="quickjs_8c.html#aaea4bacf94d0db93f4a13f6e88860ad0" target="_top" xlink:title="add_export_entry2">
<polygon fill="none" stroke="#000000" points="134,-217.5 134,-236.5 231,-236.5 231,-217.5 134,-217.5"/>
<text text-anchor="middle" x="182.5" y="-224.5" font-family="Helvetica,sans-Serif" font-size="10.00" fill="#000000">add_export_entry2</text>
</a>
</g>
</g>
<!-- Node307717&#45;&gt;Node307718 -->
<g id="edge1" class="edge">
<title>Node307717&#45;&gt;Node307718</title>
<path fill="none" stroke="#191970" d="M70.6868,-159.8302C98.5654,-176.5777 143.1052,-203.3343 166.676,-217.494"/>
<polygon fill="#191970" stroke="#191970" points="72.3,-156.7163 61.9254,-154.5669 68.6952,-162.7168 72.3,-156.7163"/>
</g>
<!-- Node307757 -->
<g id="node12" class="node">
<title>Node307757</title>
<g id="a_node12"><a xlink:href="quickjs_8c.html#a9796602fa908587aec571ec952dab68e" target="_top" xlink:title="js_resolve_export1">
<polygon fill="none" stroke="#000000" points="133.5,-63.5 133.5,-82.5 231.5,-82.5 231.5,-63.5 133.5,-63.5"/>
<text text-anchor="middle" x="182.5" y="-70.5" font-family="Helvetica,sans-Serif" font-size="10.00" fill="#000000">js_resolve_export1</text>
</a>
</g>
</g>
<!-- Node307717&#45;&gt;Node307757 -->
<g id="edge16" class="edge">
<title>Node307717&#45;&gt;Node307757</title>
<path fill="none" stroke="#191970" d="M73.0634,-130.7248C100.0988,-116.4644 140.9076,-94.9388 164.2989,-82.6006"/>
<polygon fill="#191970" stroke="#191970" points="71.3382,-127.6777 64.1261,-135.439 74.6041,-133.8692 71.3382,-127.6777"/>
</g>
<!-- Node308313 -->
<g id="node16" class="node">
<title>Node308313</title>
<g id="a_node16"><a xlink:href="quickjs_8c.html#acc3990661d2851b858601061a62cc7d6" target="_top" xlink:title="JS_SetModuleExport">
<polygon fill="none" stroke="#000000" points="128,-135.5 128,-154.5 237,-154.5 237,-135.5 128,-135.5"/>
<text text-anchor="middle" x="182.5" y="-142.5" font-family="Helvetica,sans-Serif" font-size="10.00" fill="#000000">JS_SetModuleExport</text>
</a>
</g>
</g>
<!-- Node307717&#45;&gt;Node308313 -->
<g id="edge22" class="edge">
<title>Node307717&#45;&gt;Node308313</title>
<path fill="none" stroke="#191970" d="M102.3354,-145C110.7655,-145 119.4459,-145 127.8404,-145"/>
<polygon fill="#191970" stroke="#191970" points="102.2127,-141.5001 92.2127,-145 102.2126,-148.5001 102.2127,-141.5001"/>
</g>
<!-- Node307719 -->
<g id="node3" class="node">
<title>Node307719</title>
<g id="a_node3"><a xlink:href="quickjs_8c.html#ac4a40e2d5f6c48850ba11ed6ce953925" target="_top" xlink:title="add_export_entry">
<polygon fill="none" stroke="#000000" points="289.5,-328.5 289.5,-347.5 381.5,-347.5 381.5,-328.5 289.5,-328.5"/>
<text text-anchor="middle" x="335.5" y="-335.5" font-family="Helvetica,sans-Serif" font-size="10.00" fill="#000000">add_export_entry</text>
</a>
</g>
</g>
<!-- Node307718&#45;&gt;Node307719 -->
<g id="edge2" class="edge">
<title>Node307718&#45;&gt;Node307719</title>
<path fill="none" stroke="#191970" d="M204.0936,-242.6659C236.2045,-265.9621 295.5978,-309.0514 322.1117,-328.2869"/>
<polygon fill="#191970" stroke="#191970" points="205.9596,-239.6957 195.8101,-236.6563 201.849,-245.3616 205.9596,-239.6957"/>
</g>
<!-- Node307751 -->
<g id="node8" class="node">
<title>Node307751</title>
<g id="a_node8"><a xlink:href="quickjs_8c.html#a369af749a1fb181216fe8a8b55f841b0" target="_top" xlink:title="JS_AddModuleExport">
<polygon fill="none" stroke="#000000" points="280,-217.5 280,-236.5 391,-236.5 391,-217.5 280,-217.5"/>
<text text-anchor="middle" x="335.5" y="-224.5" font-family="Helvetica,sans-Serif" font-size="10.00" fill="#000000">JS_AddModuleExport</text>
</a>
</g>
</g>
<!-- Node307718&#45;&gt;Node307751 -->
<g id="edge11" class="edge">
<title>Node307718&#45;&gt;Node307751</title>
<path fill="none" stroke="#191970" d="M241.3308,-227C254.0192,-227 267.3935,-227 279.9516,-227"/>
<polygon fill="#191970" stroke="#191970" points="241.3309,-223.5001 231.3308,-227 241.3308,-230.5001 241.3309,-223.5001"/>
</g>
<!-- Node307720 -->
<g id="node4" class="node">
<title>Node307720</title>
<g id="a_node4"><a xlink:href="quickjs_8c.html#a00eb789430243c24dab4a63ad6a79653" target="_top" xlink:title="js_parse_class">
<polygon fill="none" stroke="#ff0000" points="607,-404.5 607,-423.5 689,-423.5 689,-404.5 607,-404.5"/>
<text text-anchor="middle" x="648" y="-411.5" font-family="Helvetica,sans-Serif" font-size="10.00" fill="#000000">js_parse_class</text>
</a>
</g>
</g>
<!-- Node307719&#45;&gt;Node307720 -->
<g id="edge3" class="edge">
<title>Node307719&#45;&gt;Node307720</title>
<path fill="none" stroke="#191970" d="M356.2604,-353.6509C375.3692,-367.1374 405.0553,-385.8374 434,-395 491.9625,-413.3483 562.8713,-416.034 606.7414,-415.5638"/>
<polygon fill="#191970" stroke="#191970" points="358.1768,-350.7175 348.0225,-347.6942 354.0752,-356.39 358.1768,-350.7175"/>
</g>
<!-- Node307721 -->
<g id="node5" class="node">
<title>Node307721</title>
<g id="a_node5"><a xlink:href="quickjs_8c.html#a498e1d5c7de1b59c1630e9847cde1e41" target="_top" xlink:title="js_parse_export">
<polygon fill="none" stroke="#ff0000" points="733,-347.5 733,-366.5 819,-366.5 819,-347.5 733,-347.5"/>
<text text-anchor="middle" x="776" y="-354.5" font-family="Helvetica,sans-Serif" font-size="10.00" fill="#000000">js_parse_export</text>
</a>
</g>
</g>
<!-- Node307719&#45;&gt;Node307721 -->
<g id="edge5" class="edge">
<title>Node307719&#45;&gt;Node307721</title>
<path fill="none" stroke="#191970" d="M392.0103,-340.4374C481.2485,-344.2865 652.8681,-351.689 732.9169,-355.1417"/>
<polygon fill="#191970" stroke="#191970" points="391.9502,-336.9317 381.8086,-339.9974 391.6485,-343.9252 391.9502,-336.9317"/>
</g>
<!-- Node307723 -->
<g id="node6" class="node">
<title>Node307723</title>
<g id="a_node6"><a xlink:href="quickjs_8c.html#acc9eb677cab8dfcf45f59381f8a19601" target="_top" xlink:title="js_parse_function_decl2">
<polygon fill="none" stroke="#ff0000" points="437.5,-366.5 437.5,-385.5 559.5,-385.5 559.5,-366.5 437.5,-366.5"/>
<text text-anchor="middle" x="498.5" y="-373.5" font-family="Helvetica,sans-Serif" font-size="10.00" fill="#000000">js_parse_function_decl2</text>
</a>
</g>
</g>
<!-- Node307719&#45;&gt;Node307723 -->
<g id="edge6" class="edge">
<title>Node307719&#45;&gt;Node307723</title>
<path fill="none" stroke="#191970" d="M386.5279,-349.8961C409.4392,-355.2374 436.1039,-361.4537 457.664,-366.4799"/>
<polygon fill="#191970" stroke="#191970" points="387.1653,-346.4509 376.6318,-347.589 385.576,-353.2681 387.1653,-346.4509"/>
</g>
<!-- Node307733 -->
<g id="node7" class="node">
<title>Node307733</title>
<g id="a_node7"><a xlink:href="quickjs_8c.html#a42924858317b848c3aea0a0a978fab3a" target="_top" xlink:title="js_parse_var">
<polygon fill="none" stroke="#ff0000" points="612,-290.5 612,-309.5 684,-309.5 684,-290.5 612,-290.5"/>
<text text-anchor="middle" x="648" y="-297.5" font-family="Helvetica,sans-Serif" font-size="10.00" fill="#000000">js_parse_var</text>
</a>
</g>
</g>
<!-- Node307719&#45;&gt;Node307733 -->
<g id="edge9" class="edge">
<title>Node307719&#45;&gt;Node307733</title>
<path fill="none" stroke="#191970" d="M391.4746,-329.7521C405.3597,-327.7867 420.2119,-325.7526 434,-324 496.4921,-316.0565 569.4307,-308.1723 611.9904,-303.7107"/>
<polygon fill="#191970" stroke="#191970" points="390.9695,-326.2887 381.5641,-331.1661 391.9583,-333.2185 390.9695,-326.2887"/>
</g>
<!-- Node307720&#45;&gt;Node307721 -->
<g id="edge4" class="edge">
<title>Node307720&#45;&gt;Node307721</title>
<path fill="none" stroke="#191970" d="M678.581,-400.3819C701.9991,-389.9535 733.7144,-375.8303 754.5058,-366.5716"/>
<polygon fill="#191970" stroke="#191970" points="677.1357,-397.1941 669.4243,-404.4595 679.9833,-403.5887 677.1357,-397.1941"/>
</g>
<!-- Node307723&#45;&gt;Node307720 -->
<g id="edge7" class="edge">
<title>Node307723&#45;&gt;Node307720</title>
<path fill="none" stroke="#191970" d="M546.1516,-388.1121C566.9726,-393.4044 591.0377,-399.5213 610.5461,-404.4799"/>
<polygon fill="#191970" stroke="#191970" points="546.7792,-384.6604 536.2252,-385.589 545.0547,-391.4447 546.7792,-384.6604"/>
</g>
<!-- Node307723&#45;&gt;Node307721 -->
<g id="edge8" class="edge">
<title>Node307723&#45;&gt;Node307721</title>
<path fill="none" stroke="#191970" d="M569.8315,-371.116C621.4351,-367.5828 689.4755,-362.9242 732.9932,-359.9446"/>
<polygon fill="#191970" stroke="#191970" points="569.4796,-367.6318 559.7421,-371.8068 569.9578,-374.6155 569.4796,-367.6318"/>
</g>
<!-- Node307733&#45;&gt;Node307721 -->
<g id="edge10" class="edge">
<title>Node307733&#45;&gt;Node307721</title>
<path fill="none" stroke="#191970" d="M678.581,-313.6181C701.9991,-324.0465 733.7144,-338.1697 754.5058,-347.4284"/>
<polygon fill="#191970" stroke="#191970" points="679.9833,-310.4113 669.4243,-309.5405 677.1357,-316.8059 679.9833,-310.4113"/>
</g>
<!-- Node307752 -->
<g id="node9" class="node">
<title>Node307752</title>
<g id="a_node9"><a xlink:href="classqjs_1_1Context_1_1Module.html#aa51896e065a04689c9dbe80a282805bb" target="_top" xlink:title="qjs::Context::Module::add">
<polygon fill="none" stroke="#000000" points="434,-214.5 434,-233.5 563,-233.5 563,-214.5 434,-214.5"/>
<text text-anchor="middle" x="498.5" y="-221.5" font-family="Helvetica,sans-Serif" font-size="10.00" fill="#000000">qjs::Context::Module::add</text>
</a>
</g>
</g>
<!-- Node307751&#45;&gt;Node307752 -->
<g id="edge12" class="edge">
<title>Node307751&#45;&gt;Node307752</title>
<path fill="none" stroke="#191970" d="M401.2906,-225.7891C412.0259,-225.5915 423.1392,-225.387 433.8467,-225.1899"/>
<polygon fill="#191970" stroke="#191970" points="401.0733,-222.2924 391.1395,-225.976 401.2022,-229.2913 401.0733,-222.2924"/>
</g>
<!-- Node307753 -->
<g id="node10" class="node">
<title>Node307753</title>
<g id="a_node10"><a xlink:href="quickjs-libc_8c.html#a0e65c67dfff872a664f8d29e7eae5a61" target="_top" xlink:title="js_init_module_std">
<polygon fill="none" stroke="#ff0000" points="599,-176.5 599,-195.5 697,-195.5 697,-176.5 599,-176.5"/>
<text text-anchor="middle" x="648" y="-183.5" font-family="Helvetica,sans-Serif" font-size="10.00" fill="#000000">js_init_module_std</text>
</a>
</g>
</g>
<!-- Node307751&#45;&gt;Node307753 -->
<g id="edge13" class="edge">
<title>Node307751&#45;&gt;Node307753</title>
<path fill="none" stroke="#191970" d="M382.4971,-215.1843C398.7261,-211.4564 417.0807,-207.6289 434,-205 490.2064,-196.2666 555.3887,-191.1958 598.9074,-188.5232"/>
<polygon fill="#191970" stroke="#191970" points="381.6362,-211.7912 372.6988,-217.481 383.2337,-218.6065 381.6362,-211.7912"/>
</g>
<!-- Node307755 -->
<g id="node11" class="node">
<title>Node307755</title>
<g id="a_node11"><a xlink:href="quickjs_8c.html#ac7a9b88dd7ca1a70cd0ecd9a28905e25" target="_top" xlink:title="JS_AddModuleExportList">
<polygon fill="none" stroke="#ff0000" points="435,-252.5 435,-271.5 562,-271.5 562,-252.5 435,-252.5"/>
<text text-anchor="middle" x="498.5" y="-259.5" font-family="Helvetica,sans-Serif" font-size="10.00" fill="#000000">JS_AddModuleExportList</text>
</a>
</g>
</g>
<!-- Node307751&#45;&gt;Node307755 -->
<g id="edge14" class="edge">
<title>Node307751&#45;&gt;Node307755</title>
<path fill="none" stroke="#191970" d="M390.0112,-238.7049C410.8112,-243.1711 434.2549,-248.205 454.0134,-252.4477"/>
<polygon fill="#191970" stroke="#191970" points="390.5524,-235.2414 380.0405,-236.5639 389.0828,-242.0854 390.5524,-235.2414"/>
</g>
<!-- Node307755&#45;&gt;Node307753 -->
<g id="edge15" class="edge">
<title>Node307755&#45;&gt;Node307753</title>
<path fill="none" stroke="#191970" d="M547.6007,-249.2539C552.8848,-247.3773 558.112,-245.2928 563,-243 591.1507,-229.7956 620.5346,-208.008 636.3109,-195.5424"/>
<polygon fill="#191970" stroke="#191970" points="546.4792,-245.9383 538.0887,-252.4074 548.6821,-252.5827 546.4792,-245.9383"/>
</g>
<!-- Node307757&#45;&gt;Node307757 -->
<g id="edge17" class="edge">
<title>Node307757&#45;&gt;Node307757</title>
<path fill="none" stroke="#191970" d="M157.2025,-92.0292C158.5824,-97.128 167.0149,-101 182.5,-101 206.6719,-101 213.6591,-91.5653 203.4615,-82.7571"/>
<polygon fill="#191970" stroke="#191970" points="160.4728,-93.2982 161.5385,-82.7571 154.1319,-90.3329 160.4728,-93.2982"/>
</g>
<!-- Node307758 -->
<g id="node13" class="node">
<title>Node307758</title>
<g id="a_node13"><a xlink:href="quickjs_8c.html#a844d3c1554247d20a0cab7287e45173a" target="_top" xlink:title="js_resolve_export">
<polygon fill="none" stroke="#000000" points="289,-38.5 289,-57.5 382,-57.5 382,-38.5 289,-38.5"/>
<text text-anchor="middle" x="335.5" y="-45.5" font-family="Helvetica,sans-Serif" font-size="10.00" fill="#000000">js_resolve_export</text>
</a>
</g>
</g>
<!-- Node307757&#45;&gt;Node307758 -->
<g id="edge18" class="edge">
<title>Node307757&#45;&gt;Node307758</title>
<path fill="none" stroke="#191970" d="M241.845,-63.3031C257.4685,-60.7502 274.0985,-58.0329 288.9425,-55.6074"/>
<polygon fill="#191970" stroke="#191970" points="241.057,-59.8854 231.7523,-64.9522 242.1859,-66.7937 241.057,-59.8854"/>
</g>
<!-- Node307759 -->
<g id="node14" class="node">
<title>Node307759</title>
<g id="a_node14"><a xlink:href="quickjs_8c.html#ad12b6863ca31850fc39d208bb865420e" target="_top" xlink:title="js_build_module_ns">
<polygon fill="none" stroke="#ff0000" points="447.5,-.5 447.5,-19.5 549.5,-19.5 549.5,-.5 447.5,-.5"/>
<text text-anchor="middle" x="498.5" y="-7.5" font-family="Helvetica,sans-Serif" font-size="10.00" fill="#000000">js_build_module_ns</text>
</a>
</g>
</g>
<!-- Node307758&#45;&gt;Node307759 -->
<g id="edge19" class="edge">
<title>Node307758&#45;&gt;Node307759</title>
<path fill="none" stroke="#191970" d="M386.5279,-36.1039C409.4392,-30.7626 436.1039,-24.5463 457.664,-19.5201"/>
<polygon fill="#191970" stroke="#191970" points="385.576,-32.7319 376.6318,-38.411 387.1653,-39.5491 385.576,-32.7319"/>
</g>
<!-- Node307761 -->
<g id="node15" class="node">
<title>Node307761</title>
<g id="a_node15"><a xlink:href="quickjs_8c.html#a89e4f0ec49cdd0029ab50c0509ccc445" target="_top" xlink:title="js_instantiate_module">
<polygon fill="none" stroke="#ff0000" points="443,-38.5 443,-57.5 554,-57.5 554,-38.5 443,-38.5"/>
<text text-anchor="middle" x="498.5" y="-45.5" font-family="Helvetica,sans-Serif" font-size="10.00" fill="#000000">js_instantiate_module</text>
</a>
</g>
</g>
<!-- Node307758&#45;&gt;Node307761 -->
<g id="edge20" class="edge">
<title>Node307758&#45;&gt;Node307761</title>
<path fill="none" stroke="#191970" d="M392.6694,-48C408.9463,-48 426.6487,-48 442.8347,-48"/>
<polygon fill="#191970" stroke="#191970" points="392.2093,-44.5001 382.2093,-48 392.2092,-51.5001 392.2093,-44.5001"/>
</g>
<!-- Node307761&#45;&gt;Node307761 -->
<g id="edge21" class="edge">
<title>Node307761&#45;&gt;Node307761</title>
<path fill="none" stroke="#191970" d="M470.8742,-66.6539C472.0289,-71.9368 481.2375,-76 498.5,-76 524.8047,-76 532.4084,-66.5653 521.3111,-57.7571"/>
<polygon fill="#191970" stroke="#191970" points="474.0076,-68.2176 475.6889,-57.7571 467.8512,-64.886 474.0076,-68.2176"/>
</g>
<!-- Node308314 -->
<g id="node17" class="node">
<title>Node308314</title>
<g id="a_node17"><a xlink:href="classqjs_1_1Context_1_1Module.html#a3b16e4ca57ab1de004a35ae1930b40d2" target="_top" xlink:title="qjs::Context::Module\l::Module">
<polygon fill="none" stroke="#000000" points="282,-130 282,-160 389,-160 389,-130 282,-130"/>
<text text-anchor="start" x="290" y="-148" font-family="Helvetica,sans-Serif" font-size="10.00" fill="#000000">qjs::Context::Module</text>
<text text-anchor="middle" x="335.5" y="-137" font-family="Helvetica,sans-Serif" font-size="10.00" fill="#000000">::Module</text>
</a>
</g>
</g>
<!-- Node308313&#45;&gt;Node308314 -->
<g id="edge23" class="edge">
<title>Node308313&#45;&gt;Node308314</title>
<path fill="none" stroke="#191970" d="M247.65,-145C259.0532,-145 270.8004,-145 281.8478,-145"/>
<polygon fill="#191970" stroke="#191970" points="247.3044,-141.5001 237.3044,-145 247.3043,-148.5001 247.3044,-141.5001"/>
</g>
<!-- Node307931 -->
<g id="node18" class="node">
<title>Node307931</title>
<g id="a_node18"><a xlink:href="quickjs-libc_8c.html#a08cea1a0226b7603e6969e2208d99d55" target="_top" xlink:title="js_std_init">
<polygon fill="none" stroke="#000000" points="468,-138.5 468,-157.5 529,-157.5 529,-138.5 468,-138.5"/>
<text text-anchor="middle" x="498.5" y="-145.5" font-family="Helvetica,sans-Serif" font-size="10.00" fill="#000000">js_std_init</text>
</a>
</g>
</g>
<!-- Node308313&#45;&gt;Node307931 -->
<g id="edge24" class="edge">
<title>Node308313&#45;&gt;Node307931</title>
<path fill="none" stroke="#191970" d="M219.4694,-157.6401C235.6861,-162.549 255.0758,-167.5698 273,-170 328.0519,-177.4641 342.7667,-175.9747 398,-170 421.795,-167.426 448.2153,-161.519 467.993,-156.4734"/>
<polygon fill="#191970" stroke="#191970" points="220.4126,-154.268 209.8236,-154.6223 218.3223,-160.9486 220.4126,-154.268"/>
</g>
<!-- Node308315 -->
<g id="node19" class="node">
<title>Node308315</title>
<g id="a_node19"><a xlink:href="quickjs_8c.html#a04f1ec3f8d1f5c012280eb23e64a7b58" target="_top" xlink:title="JS_SetModuleExportList">
<polygon fill="none" stroke="#000000" points="273,-91.5 273,-110.5 398,-110.5 398,-91.5 273,-91.5"/>
<text text-anchor="middle" x="335.5" y="-98.5" font-family="Helvetica,sans-Serif" font-size="10.00" fill="#000000">JS_SetModuleExportList</text>
</a>
</g>
</g>
<!-- Node308313&#45;&gt;Node308315 -->
<g id="edge26" class="edge">
<title>Node308313&#45;&gt;Node308315</title>
<path fill="none" stroke="#191970" d="M225.4137,-132.6588C249.7826,-125.6507 279.8249,-117.0112 302.3661,-110.5287"/>
<polygon fill="#191970" stroke="#191970" points="224.3419,-129.3251 215.6987,-135.4527 226.2766,-136.0525 224.3419,-129.3251"/>
</g>
<!-- Node307931&#45;&gt;Node307753 -->
<g id="edge25" class="edge">
<title>Node307931&#45;&gt;Node307753</title>
<path fill="none" stroke="#191970" d="M538.9524,-158.2822C561.2457,-163.9487 588.7357,-170.9362 610.5371,-176.4777"/>
<polygon fill="#191970" stroke="#191970" points="539.6684,-154.853 529.1143,-155.7816 537.9439,-161.6372 539.6684,-154.853"/>
</g>
<!-- Node308315&#45;&gt;Node307931 -->
<g id="edge27" class="edge">
<title>Node308315&#45;&gt;Node307931</title>
<path fill="none" stroke="#191970" d="M378.4375,-113.3807C406.519,-121.4779 442.5383,-131.8638 467.7691,-139.139"/>
<polygon fill="#191970" stroke="#191970" points="379.0637,-109.9188 368.4855,-110.5112 377.1243,-116.6448 379.0637,-109.9188"/>
</g>
<!-- Node307781 -->
<g id="node20" class="node">
<title>Node307781</title>
<g id="a_node20"><a xlink:href="quickjs-libc_8c.html#a066e7962ce24f22d5df20968a8baa346" target="_top" xlink:title="js_os_init">
<polygon fill="none" stroke="#ff0000" points="469.5,-94.5 469.5,-113.5 527.5,-113.5 527.5,-94.5 469.5,-94.5"/>
<text text-anchor="middle" x="498.5" y="-101.5" font-family="Helvetica,sans-Serif" font-size="10.00" fill="#000000">js_os_init</text>
</a>
</g>
</g>
<!-- Node308315&#45;&gt;Node307781 -->
<g id="edge28" class="edge">
<title>Node308315&#45;&gt;Node307781</title>
<path fill="none" stroke="#191970" d="M408.1804,-102.3377C429.6764,-102.7333 452.0004,-103.1442 469.0763,-103.4585"/>
<polygon fill="#191970" stroke="#191970" points="408.1166,-98.836 398.0539,-102.1513 407.9878,-105.8348 408.1166,-98.836"/>
</g>
</g>
</svg>
