<?xml version="1.0" encoding="UTF-8" standalone="no"?>
<!DOCTYPE svg PUBLIC "-//W3C//DTD SVG 1.1//EN"
 "http://www.w3.org/Graphics/SVG/1.1/DTD/svg11.dtd">
<!-- Generated by graphviz version 2.40.1 (20161225.0304)
 -->
<!-- Title: JS_ToIndex Pages: 1 -->
<svg width="467pt" height="142pt"
 viewBox="0.00 0.00 467.00 142.00" xmlns="http://www.w3.org/2000/svg" xmlns:xlink="http://www.w3.org/1999/xlink">
<g id="graph0" class="graph" transform="scale(1 1) rotate(0) translate(4 138)">
<title>JS_ToIndex</title>
<!-- Node45841 -->
<g id="node1" class="node">
<title>Node45841</title>
<polygon fill="#bfbfbf" stroke="#000000" points="0,-76.5 0,-95.5 69,-95.5 69,-76.5 0,-76.5"/>
<text text-anchor="middle" x="34.5" y="-83.5" font-family="Helvetica,sans-Serif" font-size="10.00" fill="#000000">JS_ToIndex</text>
</g>
<!-- Node45842 -->
<g id="node2" class="node">
<title>Node45842</title>
<g id="a_node2"><a xlink:href="quickjs_8c.html#aee6a60a9e9f3c0d9827d5cb0e15c23b4" target="_top" xlink:title="JS_ToInt64Sat">
<polygon fill="none" stroke="#000000" points="105,-76.5 105,-95.5 187,-95.5 187,-76.5 105,-76.5"/>
<text text-anchor="middle" x="146" y="-83.5" font-family="Helvetica,sans-Serif" font-size="10.00" fill="#000000">JS_ToInt64Sat</text>
</a>
</g>
</g>
<!-- Node45841&#45;&gt;Node45842 -->
<g id="edge1" class="edge">
<title>Node45841&#45;&gt;Node45842</title>
<path fill="none" stroke="#191970" d="M69.1681,-86C77.255,-86 86.0359,-86 94.6743,-86"/>
<polygon fill="#191970" stroke="#191970" points="94.6994,-89.5001 104.6994,-86 94.6993,-82.5001 94.6994,-89.5001"/>
</g>
<!-- Node45843 -->
<g id="node3" class="node">
<title>Node45843</title>
<g id="a_node3"><a xlink:href="quickjs_8h.html#a775522f2d084fc8fa0fcb33f390006b4" target="_top" xlink:title="JS_DupValue">
<polygon fill="none" stroke="#000000" points="235,-95.5 235,-114.5 312,-114.5 312,-95.5 235,-95.5"/>
<text text-anchor="middle" x="273.5" y="-102.5" font-family="Helvetica,sans-Serif" font-size="10.00" fill="#000000">JS_DupValue</text>
</a>
</g>
</g>
<!-- Node45842&#45;&gt;Node45843 -->
<g id="edge2" class="edge">
<title>Node45842&#45;&gt;Node45843</title>
<path fill="none" stroke="#191970" d="M187.0436,-92.1163C198.987,-93.8961 212.1534,-95.8581 224.5327,-97.7029"/>
<polygon fill="#191970" stroke="#191970" points="224.2954,-101.2061 234.7021,-99.2184 225.3272,-94.2826 224.2954,-101.2061"/>
</g>
<!-- Node45844 -->
<g id="node4" class="node">
<title>Node45844</title>
<g id="a_node4"><a xlink:href="quickjs_8c.html#a8c94da482e7e46bf333be67ff97e58c1" target="_top" xlink:title="JS_ToInt64SatFree">
<polygon fill="none" stroke="#000000" points="223,-57.5 223,-76.5 324,-76.5 324,-57.5 223,-57.5"/>
<text text-anchor="middle" x="273.5" y="-64.5" font-family="Helvetica,sans-Serif" font-size="10.00" fill="#000000">JS_ToInt64SatFree</text>
</a>
</g>
</g>
<!-- Node45842&#45;&gt;Node45844 -->
<g id="edge3" class="edge">
<title>Node45842&#45;&gt;Node45844</title>
<path fill="none" stroke="#191970" d="M187.0436,-79.8837C195.206,-78.6673 203.9397,-77.3658 212.603,-76.0748"/>
<polygon fill="#191970" stroke="#191970" points="213.3273,-79.5056 222.7022,-74.5699 212.2955,-72.5821 213.3273,-79.5056"/>
</g>
<!-- Node45845 -->
<g id="node5" class="node">
<title>Node45845</title>
<g id="a_node5"><a xlink:href="quickjs_8c.html#aaaa960ff4bdf4b4dd3017b555844c397" target="_top" xlink:title="is_bigint_mode">
<polygon fill="none" stroke="#000000" points="368.5,-114.5 368.5,-133.5 450.5,-133.5 450.5,-114.5 368.5,-114.5"/>
<text text-anchor="middle" x="409.5" y="-121.5" font-family="Helvetica,sans-Serif" font-size="10.00" fill="#000000">is_bigint_mode</text>
</a>
</g>
</g>
<!-- Node45844&#45;&gt;Node45845 -->
<g id="edge4" class="edge">
<title>Node45844&#45;&gt;Node45845</title>
<path fill="none" stroke="#191970" d="M300.7499,-76.5371C308.3548,-79.3912 316.5678,-82.6565 324,-86 340.499,-93.4223 343.5257,-97.523 360,-105 364.216,-106.9135 368.686,-108.8085 373.1477,-110.6184"/>
<polygon fill="#191970" stroke="#191970" points="372.2124,-114.0116 382.7994,-114.4189 374.7771,-107.4984 372.2124,-114.0116"/>
</g>
<!-- Node45846 -->
<g id="node6" class="node">
<title>Node45846</title>
<g id="a_node6"><a xlink:href="quickjs_8h.html#afaa20c47565bc704c6c85f3d77254e7d" target="_top" xlink:title="JS_FreeValue">
<polygon fill="none" stroke="#ff0000" points="370.5,-76.5 370.5,-95.5 448.5,-95.5 448.5,-76.5 370.5,-76.5"/>
<text text-anchor="middle" x="409.5" y="-83.5" font-family="Helvetica,sans-Serif" font-size="10.00" fill="#000000">JS_FreeValue</text>
</a>
</g>
</g>
<!-- Node45844&#45;&gt;Node45846 -->
<g id="edge5" class="edge">
<title>Node45844&#45;&gt;Node45846</title>
<path fill="none" stroke="#191970" d="M324.1414,-74.0749C335.9403,-75.7233 348.4866,-77.4761 360.2254,-79.116"/>
<polygon fill="#191970" stroke="#191970" points="359.9062,-82.6054 370.2943,-80.5227 360.8748,-75.6727 359.9062,-82.6054"/>
</g>
<!-- Node45875 -->
<g id="node7" class="node">
<title>Node45875</title>
<g id="a_node7"><a xlink:href="quickjs_8h.html#ad80a83d73e9b7d872b88fbf2943aebe9" target="_top" xlink:title="JS_IsException">
<polygon fill="none" stroke="#000000" points="366.5,-38.5 366.5,-57.5 452.5,-57.5 452.5,-38.5 366.5,-38.5"/>
<text text-anchor="middle" x="409.5" y="-45.5" font-family="Helvetica,sans-Serif" font-size="10.00" fill="#000000">JS_IsException</text>
</a>
</g>
</g>
<!-- Node45844&#45;&gt;Node45875 -->
<g id="edge6" class="edge">
<title>Node45844&#45;&gt;Node45875</title>
<path fill="none" stroke="#191970" d="M324.1414,-59.9251C334.6718,-58.4539 345.7975,-56.8996 356.4132,-55.4165"/>
<polygon fill="#191970" stroke="#191970" points="356.9792,-58.8715 366.3987,-54.0215 356.0106,-51.9389 356.9792,-58.8715"/>
</g>
<!-- Node45876 -->
<g id="node8" class="node">
<title>Node45876</title>
<g id="a_node8"><a xlink:href="quickjs_8c.html#ae738291483438efefca5c9fa4d269504" target="_top" xlink:title="JS_ToNumberFree">
<polygon fill="none" stroke="#ff0000" points="360,-.5 360,-19.5 459,-19.5 459,-.5 360,-.5"/>
<text text-anchor="middle" x="409.5" y="-7.5" font-family="Helvetica,sans-Serif" font-size="10.00" fill="#000000">JS_ToNumberFree</text>
</a>
</g>
</g>
<!-- Node45844&#45;&gt;Node45876 -->
<g id="edge7" class="edge">
<title>Node45844&#45;&gt;Node45876</title>
<path fill="none" stroke="#191970" d="M294.7084,-57.3473C312.1462,-49.492 337.549,-38.2341 360,-29 364.5997,-27.1081 369.4629,-25.1685 374.2733,-23.2855"/>
<polygon fill="#191970" stroke="#191970" points="375.9085,-26.4057 383.9722,-19.5334 373.3829,-19.8772 375.9085,-26.4057"/>
</g>
</g>
</svg>
