<?xml version="1.0" encoding="UTF-8" standalone="no"?>
<!DOCTYPE svg PUBLIC "-//W3C//DTD SVG 1.1//EN"
 "http://www.w3.org/Graphics/SVG/1.1/DTD/svg11.dtd">
<!-- Generated by graphviz version 2.40.1 (20161225.0304)
 -->
<!-- Title: JS_NewString Pages: 1 -->
<svg width="573pt" height="990pt"
 viewBox="0.00 0.00 573.00 989.50" xmlns="http://www.w3.org/2000/svg" xmlns:xlink="http://www.w3.org/1999/xlink">
<g id="graph0" class="graph" transform="scale(1 1) rotate(0) translate(4 985.5)">
<title>JS_NewString</title>
<!-- Node101660 -->
<g id="node1" class="node">
<title>Node101660</title>
<polygon fill="#bfbfbf" stroke="#000000" points="0,-423 0,-442 80,-442 80,-423 0,-423"/>
<text text-anchor="middle" x="40" y="-430" font-family="Helvetica,sans-Serif" font-size="10.00" fill="#000000">JS_NewString</text>
</g>
<!-- Node101661 -->
<g id="node2" class="node">
<title>Node101661</title>
<g id="a_node2"><a xlink:href="quickjs_8c.html#a06ff303a11e6641cbf1f6634e6a61811" target="_top" xlink:title="__JS_AtomToValue">
<polygon fill="none" stroke="#000000" points="133.5,-821 133.5,-840 237.5,-840 237.5,-821 133.5,-821"/>
<text text-anchor="middle" x="185.5" y="-828" font-family="Helvetica,sans-Serif" font-size="10.00" fill="#000000">__JS_AtomToValue</text>
</a>
</g>
</g>
<!-- Node101660&#45;&gt;Node101661 -->
<g id="edge1" class="edge">
<title>Node101660&#45;&gt;Node101661</title>
<path fill="none" stroke="#191970" d="M41.4618,-452.2032C46.9747,-521.4591 68.647,-752.443 116,-806.5 121.5514,-812.8374 128.8599,-817.5022 136.6504,-820.9358"/>
<polygon fill="#191970" stroke="#191970" points="44.9489,-451.8998 40.6897,-442.1988 37.9696,-452.4385 44.9489,-451.8998"/>
</g>
<!-- Node101964 -->
<g id="node5" class="node">
<title>Node101964</title>
<g id="a_node5"><a xlink:href="quickjs_8c.html#ae69c38078aefed427b6c0d7b6870bd9c" target="_top" xlink:title="js_object_toString">
<polygon fill="none" stroke="#ff0000" points="461.5,-802 461.5,-821 556.5,-821 556.5,-802 461.5,-802"/>
<text text-anchor="middle" x="509" y="-809" font-family="Helvetica,sans-Serif" font-size="10.00" fill="#000000">js_object_toString</text>
</a>
</g>
</g>
<!-- Node101660&#45;&gt;Node101964 -->
<g id="edge28" class="edge">
<title>Node101660&#45;&gt;Node101964</title>
<path fill="none" stroke="#191970" d="M42.793,-452.1697C51.3628,-509.929 78.965,-677.4326 116,-716.5 163.2055,-766.296 367.5075,-795.4399 461.4357,-806.4338"/>
<polygon fill="#191970" stroke="#191970" points="46.2388,-451.5436 41.3356,-442.1517 39.3117,-452.5514 46.2388,-451.5436"/>
</g>
<!-- Node102038 -->
<g id="node6" class="node">
<title>Node102038</title>
<g id="a_node6"><a xlink:href="quickjs_8c.html#a46d6ebdd8c73102fd9e02a89b1f1d09a" target="_top" xlink:title="JS_ToStringInternal">
<polygon fill="none" stroke="#ff0000" points="457.5,-669 457.5,-688 560.5,-688 560.5,-669 457.5,-669"/>
<text text-anchor="middle" x="509" y="-676" font-family="Helvetica,sans-Serif" font-size="10.00" fill="#000000">JS_ToStringInternal</text>
</a>
</g>
</g>
<!-- Node101660&#45;&gt;Node102038 -->
<g id="edge38" class="edge">
<title>Node101660&#45;&gt;Node102038</title>
<path fill="none" stroke="#191970" d="M44.2064,-452.2068C54.7774,-499.6701 83.9146,-618.0634 116,-640.5 166.6275,-675.9027 195.0344,-655.3534 255,-640.5 272.561,-636.1502 273.439,-625.8498 291,-621.5 345.3573,-608.0358 363.1399,-606.1673 417,-621.5 449.5284,-630.7601 481.7971,-655.1781 498.0898,-668.8602"/>
<polygon fill="#191970" stroke="#191970" points="47.5838,-451.2677 42.03,-442.2452 40.7451,-452.7618 47.5838,-451.2677"/>
</g>
<!-- Node101857 -->
<g id="node9" class="node">
<title>Node101857</title>
<g id="a_node9"><a xlink:href="quickjs_8c.html#a61c8dfb5e807af1b6ff7d8ca61576dda" target="_top" xlink:title="build_backtrace">
<polygon fill="none" stroke="#ff0000" points="143,-925 143,-944 228,-944 228,-925 143,-925"/>
<text text-anchor="middle" x="185.5" y="-932" font-family="Helvetica,sans-Serif" font-size="10.00" fill="#000000">build_backtrace</text>
</a>
</g>
</g>
<!-- Node101660&#45;&gt;Node101857 -->
<g id="edge12" class="edge">
<title>Node101660&#45;&gt;Node101857</title>
<path fill="none" stroke="#191970" d="M40.7982,-452.1803C44.3764,-531.7103 61.2393,-828.5726 116,-901.5 124.1807,-912.3947 136.8758,-919.8465 149.189,-924.8694"/>
<polygon fill="#191970" stroke="#191970" points="44.2902,-451.9162 40.3638,-442.0759 37.2967,-452.217 44.2902,-451.9162"/>
</g>
<!-- Node101858 -->
<g id="node10" class="node">
<title>Node101858</title>
<g id="a_node10"><a xlink:href="quickjs_8c.html#aeafb37b03b5560171754f8c4505b0f6b" target="_top" xlink:title="JS_ThrowError2">
<polygon fill="none" stroke="#ff0000" points="310.5,-897 310.5,-916 397.5,-916 397.5,-897 310.5,-897"/>
<text text-anchor="middle" x="354" y="-904" font-family="Helvetica,sans-Serif" font-size="10.00" fill="#000000">JS_ThrowError2</text>
</a>
</g>
</g>
<!-- Node101660&#45;&gt;Node101858 -->
<g id="edge37" class="edge">
<title>Node101660&#45;&gt;Node101858</title>
<path fill="none" stroke="#191970" d="M40.8423,-452.6584C44.3987,-527.9064 60.6559,-791.0372 116,-849.5 166.2399,-902.571 256.407,-910.0585 310.1699,-909.2583"/>
<polygon fill="#191970" stroke="#191970" points="44.3203,-452.0883 40.3765,-442.2549 37.3273,-452.4015 44.3203,-452.0883"/>
</g>
<!-- Node102074 -->
<g id="node11" class="node">
<title>Node102074</title>
<g id="a_node11"><a xlink:href="quickjs_8c.html#ab522181d975cc7949088c8ff67fedde0" target="_top" xlink:title="get_date_string">
<polygon fill="none" stroke="#ff0000" points="144,-612 144,-631 227,-631 227,-612 144,-612"/>
<text text-anchor="middle" x="185.5" y="-619" font-family="Helvetica,sans-Serif" font-size="10.00" fill="#000000">get_date_string</text>
</a>
</g>
</g>
<!-- Node101660&#45;&gt;Node102074 -->
<g id="edge16" class="edge">
<title>Node101660&#45;&gt;Node102074</title>
<path fill="none" stroke="#191970" d="M43.2078,-452.3794C50.0086,-487.9361 69.2658,-562.4421 116,-602.5 123.8828,-609.2567 133.9598,-613.6293 143.9795,-616.4536"/>
<polygon fill="#191970" stroke="#191970" points="46.6121,-451.5312 41.4184,-442.2967 39.7198,-452.7545 46.6121,-451.5312"/>
</g>
<!-- Node102293 -->
<g id="node12" class="node">
<title>Node102293</title>
<g id="a_node12"><a xlink:href="quickjs_8c.html#a6508a2922531adcb280bbff485a9a44a" target="_top" xlink:title="js_dtoa">
<polygon fill="none" stroke="#ff0000" points="161.5,-688 161.5,-707 209.5,-707 209.5,-688 161.5,-688"/>
<text text-anchor="middle" x="185.5" y="-695" font-family="Helvetica,sans-Serif" font-size="10.00" fill="#000000">js_dtoa</text>
</a>
</g>
</g>
<!-- Node101660&#45;&gt;Node102293 -->
<g id="edge17" class="edge">
<title>Node101660&#45;&gt;Node102293</title>
<path fill="none" stroke="#191970" d="M43.7628,-451.8161C54.1009,-503.0869 84.2848,-640.916 116,-673.5 127.9308,-685.7576 146.4136,-691.7587 161.3204,-694.6946"/>
<polygon fill="#191970" stroke="#191970" points="47.1952,-451.131 41.8149,-442.0039 40.3291,-452.4941 47.1952,-451.131"/>
</g>
<!-- Node101768 -->
<g id="node16" class="node">
<title>Node101768</title>
<g id="a_node16"><a xlink:href="quickjs_8c.html#a60d84dd116a9d7d912d08f298a4734dd" target="_top" xlink:title="js_json_to_str">
<polygon fill="none" stroke="#ff0000" points="147,-556 147,-575 224,-575 224,-556 147,-556"/>
<text text-anchor="middle" x="185.5" y="-563" font-family="Helvetica,sans-Serif" font-size="10.00" fill="#000000">js_json_to_str</text>
</a>
</g>
</g>
<!-- Node101660&#45;&gt;Node101768 -->
<g id="edge22" class="edge">
<title>Node101660&#45;&gt;Node101768</title>
<path fill="none" stroke="#191970" d="M47.554,-451.4793C58.6826,-476.976 81.9179,-521.9192 116,-546.5 125.0294,-553.0122 136.1806,-557.2928 146.8871,-560.1064"/>
<polygon fill="#191970" stroke="#191970" points="50.7389,-450.0234 43.6469,-442.1522 44.2824,-452.728 50.7389,-450.0234"/>
</g>
<!-- Node101895 -->
<g id="node17" class="node">
<title>Node101895</title>
<g id="a_node17"><a xlink:href="quickjs-libc_8c.html#a5cc3e22713f1916d49867f60a7375505" target="_top" xlink:title="js_module_set_import_meta">
<polygon fill="none" stroke="#ff0000" points="116,-518 116,-537 255,-537 255,-518 116,-518"/>
<text text-anchor="middle" x="185.5" y="-525" font-family="Helvetica,sans-Serif" font-size="10.00" fill="#000000">js_module_set_import_meta</text>
</a>
</g>
</g>
<!-- Node101660&#45;&gt;Node101895 -->
<g id="edge24" class="edge">
<title>Node101660&#45;&gt;Node101895</title>
<path fill="none" stroke="#191970" d="M53.1307,-450.1911C66.9219,-467.5372 90.167,-493.498 116,-508.5 122.5984,-512.3319 129.9983,-515.4164 137.4431,-517.8922"/>
<polygon fill="#191970" stroke="#191970" points="55.6972,-447.7879 46.817,-442.0092 50.1553,-452.0644 55.6972,-447.7879"/>
</g>
<!-- Node101897 -->
<g id="node18" class="node">
<title>Node101897</title>
<g id="a_node18"><a xlink:href="quickjs-libc_8c.html#a980a3e92299b994c60d696fc295edf11" target="_top" xlink:title="js_new_std_error">
<polygon fill="none" stroke="#ff0000" points="140,-480 140,-499 231,-499 231,-480 140,-480"/>
<text text-anchor="middle" x="185.5" y="-487" font-family="Helvetica,sans-Serif" font-size="10.00" fill="#000000">js_new_std_error</text>
</a>
</g>
</g>
<!-- Node101660&#45;&gt;Node101897 -->
<g id="edge25" class="edge">
<title>Node101660&#45;&gt;Node101897</title>
<path fill="none" stroke="#191970" d="M65.6297,-446.8999C80.1026,-454.6244 98.7067,-463.8868 116,-470.5 125.3469,-474.0744 135.639,-477.2702 145.3729,-479.9751"/>
<polygon fill="#191970" stroke="#191970" points="67.2289,-443.7856 56.7707,-442.0892 63.8884,-449.9371 67.2289,-443.7856"/>
</g>
<!-- Node102294 -->
<g id="node19" class="node">
<title>Node102294</title>
<g id="a_node19"><a xlink:href="quickjs_8c.html#aa641af3a921335927dab07dc83285917" target="_top" xlink:title="JS_NewAtomInt64">
<polygon fill="none" stroke="#ff0000" points="136,-442 136,-461 235,-461 235,-442 136,-442"/>
<text text-anchor="middle" x="185.5" y="-449" font-family="Helvetica,sans-Serif" font-size="10.00" fill="#000000">JS_NewAtomInt64</text>
</a>
</g>
</g>
<!-- Node101660&#45;&gt;Node102294 -->
<g id="edge26" class="edge">
<title>Node101660&#45;&gt;Node102294</title>
<path fill="none" stroke="#191970" d="M90.1338,-439.0467C104.9337,-440.9793 121.1203,-443.093 135.8873,-445.0214"/>
<polygon fill="#191970" stroke="#191970" points="90.5127,-435.5665 80.1437,-437.7421 89.6063,-442.5076 90.5127,-435.5665"/>
</g>
<!-- Node102295 -->
<g id="node20" class="node">
<title>Node102295</title>
<g id="a_node20"><a xlink:href="quickjs_8c.html#a7445082229205ad47aec019d74536f8e" target="_top" xlink:title="JS_NewAtomUInt32">
<polygon fill="none" stroke="#ff0000" points="132,-404 132,-423 239,-423 239,-404 132,-404"/>
<text text-anchor="middle" x="185.5" y="-411" font-family="Helvetica,sans-Serif" font-size="10.00" fill="#000000">JS_NewAtomUInt32</text>
</a>
</g>
</g>
<!-- Node101660&#45;&gt;Node102295 -->
<g id="edge27" class="edge">
<title>Node101660&#45;&gt;Node102295</title>
<path fill="none" stroke="#191970" d="M90.1754,-425.9479C103.631,-424.1908 118.2302,-422.2844 131.8652,-420.5039"/>
<polygon fill="#191970" stroke="#191970" points="89.6063,-422.4924 80.1437,-427.2579 90.5127,-429.4335 89.6063,-422.4924"/>
</g>
<!-- Node101869 -->
<g id="node21" class="node">
<title>Node101869</title>
<g id="a_node21"><a xlink:href="quickjs-libc_8c.html#a64270f007df853e9d2f443383d26ec60" target="_top" xlink:title="js_os_readdir">
<polygon fill="none" stroke="#000000" points="148.5,-366 148.5,-385 222.5,-385 222.5,-366 148.5,-366"/>
<text text-anchor="middle" x="185.5" y="-373" font-family="Helvetica,sans-Serif" font-size="10.00" fill="#000000">js_os_readdir</text>
</a>
</g>
</g>
<!-- Node101660&#45;&gt;Node101869 -->
<g id="edge29" class="edge">
<title>Node101660&#45;&gt;Node101869</title>
<path fill="none" stroke="#191970" d="M65.6297,-418.1001C80.1026,-410.3756 98.7067,-401.1132 116,-394.5 126.2815,-390.5682 137.7069,-387.0944 148.2749,-384.2283"/>
<polygon fill="#191970" stroke="#191970" points="63.8884,-415.0629 56.7707,-422.9108 67.2289,-421.2144 63.8884,-415.0629"/>
</g>
<!-- Node101787 -->
<g id="node22" class="node">
<title>Node101787</title>
<g id="a_node22"><a xlink:href="quickjs_8c.html#a0bfdeb7e158aebcb79b7c9367a60be80" target="_top" xlink:title="js_promise_all_resolve\l_element">
<polygon fill="none" stroke="#ff0000" points="127.5,-316.5 127.5,-346.5 243.5,-346.5 243.5,-316.5 127.5,-316.5"/>
<text text-anchor="start" x="135.5" y="-334.5" font-family="Helvetica,sans-Serif" font-size="10.00" fill="#000000">js_promise_all_resolve</text>
<text text-anchor="middle" x="185.5" y="-323.5" font-family="Helvetica,sans-Serif" font-size="10.00" fill="#000000">_element</text>
</a>
</g>
</g>
<!-- Node101660&#45;&gt;Node101787 -->
<g id="edge30" class="edge">
<title>Node101660&#45;&gt;Node101787</title>
<path fill="none" stroke="#191970" d="M53.6108,-414.9582C67.6265,-397.9399 90.9093,-372.4182 116,-356.5 121.9552,-352.7219 128.5595,-349.4132 135.2591,-346.5467"/>
<polygon fill="#191970" stroke="#191970" points="50.6966,-412.9975 47.1658,-422.9867 56.1553,-417.3796 50.6966,-412.9975"/>
</g>
<!-- Node102291 -->
<g id="node23" class="node">
<title>Node102291</title>
<g id="a_node23"><a xlink:href="quickjs_8c.html#a32ee6be61757664e4eea552e5508ad6e" target="_top" xlink:title="js_regexp_get_source">
<polygon fill="none" stroke="#000000" points="129.5,-278 129.5,-297 241.5,-297 241.5,-278 129.5,-278"/>
<text text-anchor="middle" x="185.5" y="-285" font-family="Helvetica,sans-Serif" font-size="10.00" fill="#000000">js_regexp_get_source</text>
</a>
</g>
</g>
<!-- Node101660&#45;&gt;Node102291 -->
<g id="edge31" class="edge">
<title>Node101660&#45;&gt;Node102291</title>
<path fill="none" stroke="#191970" d="M46.4041,-413.1554C56.626,-385.3133 79.3037,-334.2495 116,-306.5 121.0884,-302.6522 126.9077,-299.5834 132.9648,-297.136"/>
<polygon fill="#191970" stroke="#191970" points="42.9911,-412.3117 42.9881,-422.9066 49.5975,-414.626 42.9911,-412.3117"/>
</g>
<!-- Node102271 -->
<g id="node24" class="node">
<title>Node102271</title>
<g id="a_node24"><a xlink:href="quickjs_8c.html#a04f1ec3f8d1f5c012280eb23e64a7b58" target="_top" xlink:title="JS_SetModuleExportList">
<polygon fill="none" stroke="#ff0000" points="123,-240 123,-259 248,-259 248,-240 123,-240"/>
<text text-anchor="middle" x="185.5" y="-247" font-family="Helvetica,sans-Serif" font-size="10.00" fill="#000000">JS_SetModuleExportList</text>
</a>
</g>
</g>
<!-- Node101660&#45;&gt;Node102271 -->
<g id="edge32" class="edge">
<title>Node101660&#45;&gt;Node102271</title>
<path fill="none" stroke="#191970" d="M43.5287,-412.818C50.7649,-378.3041 70.5902,-306.8921 116,-268.5 120.5851,-264.6235 125.8941,-261.5327 131.4944,-259.0693"/>
<polygon fill="#191970" stroke="#191970" points="40.0926,-412.1524 41.6052,-422.6387 46.9621,-413.4979 40.0926,-412.1524"/>
</g>
<!-- Node101837 -->
<g id="node25" class="node">
<title>Node101837</title>
<g id="a_node25"><a xlink:href="quickjs-libc_8c.html#ad04466feec6822a3b838baf229f6dfa0" target="_top" xlink:title="js_std_add_helpers">
<polygon fill="none" stroke="#ff0000" points="135,-202 135,-221 236,-221 236,-202 135,-202"/>
<text text-anchor="middle" x="185.5" y="-209" font-family="Helvetica,sans-Serif" font-size="10.00" fill="#000000">js_std_add_helpers</text>
</a>
</g>
</g>
<!-- Node101660&#45;&gt;Node101837 -->
<g id="edge33" class="edge">
<title>Node101660&#45;&gt;Node101837</title>
<path fill="none" stroke="#191970" d="M41.6142,-412.6276C45.9863,-372.1905 61.6837,-279.9863 116,-230.5 121.363,-225.6139 127.8634,-221.9665 134.7105,-219.2474"/>
<polygon fill="#191970" stroke="#191970" points="38.1103,-412.5026 40.6414,-422.7906 45.0784,-413.1697 38.1103,-412.5026"/>
</g>
<!-- Node102107 -->
<g id="node26" class="node">
<title>Node102107</title>
<g id="a_node26"><a xlink:href="quickjs-libc_8c.html#ac03b9f7f2657dc7ac8f896f1548f55fc" target="_top" xlink:title="js_std_error_strerror">
<polygon fill="none" stroke="#000000" points="133.5,-164 133.5,-183 237.5,-183 237.5,-164 133.5,-164"/>
<text text-anchor="middle" x="185.5" y="-171" font-family="Helvetica,sans-Serif" font-size="10.00" fill="#000000">js_std_error_strerror</text>
</a>
</g>
</g>
<!-- Node101660&#45;&gt;Node102107 -->
<g id="edge34" class="edge">
<title>Node101660&#45;&gt;Node102107</title>
<path fill="none" stroke="#191970" d="M43.6599,-413.1487C53.7404,-361.8021 83.3375,-223.8872 116,-192.5 120.9606,-187.733 126.9977,-184.1374 133.4197,-181.4298"/>
<polygon fill="#191970" stroke="#191970" points="40.2216,-412.4948 41.7626,-422.977 47.0947,-413.8217 40.2216,-412.4948"/>
</g>
<!-- Node102172 -->
<g id="node27" class="node">
<title>Node102172</title>
<g id="a_node27"><a xlink:href="quickjs-libc_8c.html#a1e9ea68a66c0e646ba3250625a52a3e2" target="_top" xlink:title="js_std_getenv">
<polygon fill="none" stroke="#000000" points="147,-126 147,-145 224,-145 224,-126 147,-126"/>
<text text-anchor="middle" x="185.5" y="-133" font-family="Helvetica,sans-Serif" font-size="10.00" fill="#000000">js_std_getenv</text>
</a>
</g>
</g>
<!-- Node101660&#45;&gt;Node102172 -->
<g id="edge35" class="edge">
<title>Node101660&#45;&gt;Node102172</title>
<path fill="none" stroke="#191970" d="M42.8239,-412.7795C51.3862,-355.6497 78.768,-191.732 116,-154.5 124.2259,-146.2741 135.6473,-141.5174 146.8569,-138.7948"/>
<polygon fill="#191970" stroke="#191970" points="39.3554,-412.31 41.365,-422.7125 46.2811,-413.3273 39.3554,-412.31"/>
</g>
<!-- Node101795 -->
<g id="node28" class="node">
<title>Node101795</title>
<g id="a_node28"><a xlink:href="quickjs_8c.html#a48c74f10715547bf679361ae42e2a97f" target="_top" xlink:title="js_string_match">
<polygon fill="none" stroke="#000000" points="142.5,-88 142.5,-107 228.5,-107 228.5,-88 142.5,-88"/>
<text text-anchor="middle" x="185.5" y="-95" font-family="Helvetica,sans-Serif" font-size="10.00" fill="#000000">js_string_match</text>
</a>
</g>
</g>
<!-- Node101660&#45;&gt;Node101795 -->
<g id="edge36" class="edge">
<title>Node101660&#45;&gt;Node101795</title>
<path fill="none" stroke="#191970" d="M42.1487,-412.6014C49.2808,-350.1604 74.123,-159.6886 116,-116.5 123.0531,-109.2259 132.6008,-104.6528 142.3583,-101.7997"/>
<polygon fill="#191970" stroke="#191970" points="38.6518,-412.3801 41.0229,-422.7062 45.6087,-413.1553 38.6518,-412.3801"/>
</g>
<!-- Node101871 -->
<g id="node29" class="node">
<title>Node101871</title>
<g id="a_node29"><a xlink:href="quickjs-libc_8c.html#ae77b81ae623983a6ab0351277d33e0f4" target="_top" xlink:title="make_string_error">
<polygon fill="none" stroke="#ff0000" points="138,-50 138,-69 233,-69 233,-50 138,-50"/>
<text text-anchor="middle" x="185.5" y="-57" font-family="Helvetica,sans-Serif" font-size="10.00" fill="#000000">make_string_error</text>
</a>
</g>
</g>
<!-- Node101660&#45;&gt;Node101871 -->
<g id="edge39" class="edge">
<title>Node101660&#45;&gt;Node101871</title>
<path fill="none" stroke="#191970" d="M41.5691,-412.8886C47.3137,-345.9362 69.343,-127.8152 116,-78.5 121.9317,-72.2303 129.7149,-67.9601 137.9205,-65.0669"/>
<polygon fill="#191970" stroke="#191970" points="38.075,-412.673 40.7339,-422.9287 45.0509,-413.2533 38.075,-412.673"/>
</g>
<!-- Node102296 -->
<g id="node30" class="node">
<title>Node102296</title>
<g id="a_node30"><a xlink:href="structqjs_1_1js__traits_3_01const_01char_01_5_01_4.html#ae1a13e887841edd9c73cc2ea8e72d7bb" target="_top" xlink:title="qjs::js_traits\&lt; const\l char * \&gt;::wrap">
<polygon fill="none" stroke="#000000" points="134,-.5 134,-30.5 237,-30.5 237,-.5 134,-.5"/>
<text text-anchor="start" x="142" y="-18.5" font-family="Helvetica,sans-Serif" font-size="10.00" fill="#000000">qjs::js_traits&lt; const</text>
<text text-anchor="middle" x="185.5" y="-7.5" font-family="Helvetica,sans-Serif" font-size="10.00" fill="#000000"> char * &gt;::wrap</text>
</a>
</g>
</g>
<!-- Node101660&#45;&gt;Node102296 -->
<g id="edge40" class="edge">
<title>Node101660&#45;&gt;Node102296</title>
<path fill="none" stroke="#191970" d="M41.3184,-412.3513C46.4051,-340.4491 66.9682,-97.7185 116,-40.5 120.8394,-34.8526 127.0534,-30.4809 133.7707,-27.0968"/>
<polygon fill="#191970" stroke="#191970" points="37.8006,-412.4946 40.6106,-422.71 44.7843,-412.9719 37.8006,-412.4946"/>
</g>
<!-- Node101662 -->
<g id="node3" class="node">
<title>Node101662</title>
<g id="a_node3"><a xlink:href="quickjs_8c.html#a260bfa297ff6cb5bd18e229afaa54663" target="_top" xlink:title="JS_AtomToString">
<polygon fill="none" stroke="#ff0000" points="307,-821 307,-840 401,-840 401,-821 307,-821"/>
<text text-anchor="middle" x="354" y="-828" font-family="Helvetica,sans-Serif" font-size="10.00" fill="#000000">JS_AtomToString</text>
</a>
</g>
</g>
<!-- Node101661&#45;&gt;Node101662 -->
<g id="edge2" class="edge">
<title>Node101661&#45;&gt;Node101662</title>
<path fill="none" stroke="#191970" d="M247.9006,-830.5C267.3802,-830.5 288.5339,-830.5 306.7902,-830.5"/>
<polygon fill="#191970" stroke="#191970" points="247.8908,-827.0001 237.8908,-830.5 247.8908,-834.0001 247.8908,-827.0001"/>
</g>
<!-- Node102292 -->
<g id="node7" class="node">
<title>Node102292</title>
<g id="a_node7"><a xlink:href="quickjs_8c.html#afa67965c1017685fc6783776d6d0d4d7" target="_top" xlink:title="JS_AtomToValue">
<polygon fill="none" stroke="#ff0000" points="307.5,-859 307.5,-878 400.5,-878 400.5,-859 307.5,-859"/>
<text text-anchor="middle" x="354" y="-866" font-family="Helvetica,sans-Serif" font-size="10.00" fill="#000000">JS_AtomToValue</text>
</a>
</g>
</g>
<!-- Node101661&#45;&gt;Node102292 -->
<g id="edge8" class="edge">
<title>Node101661&#45;&gt;Node102292</title>
<path fill="none" stroke="#191970" d="M237.9313,-842.3243C261.6868,-847.6816 289.3986,-853.9311 311.7861,-858.9799"/>
<polygon fill="#191970" stroke="#191970" points="238.5447,-838.8748 228.0197,-840.089 237.0047,-845.7033 238.5447,-838.8748"/>
</g>
<!-- Node101708 -->
<g id="node4" class="node">
<title>Node101708</title>
<g id="a_node4"><a xlink:href="quickjs_8c.html#ac2894ff4edcdb4e6841bcce9c76081e3" target="_top" xlink:title="JS_CallInternal">
<polygon fill="none" stroke="#ff0000" points="467.5,-859 467.5,-878 550.5,-878 550.5,-859 467.5,-859"/>
<text text-anchor="middle" x="509" y="-866" font-family="Helvetica,sans-Serif" font-size="10.00" fill="#000000">JS_CallInternal</text>
</a>
</g>
</g>
<!-- Node101662&#45;&gt;Node101708 -->
<g id="edge3" class="edge">
<title>Node101662&#45;&gt;Node101708</title>
<path fill="none" stroke="#191970" d="M403.1105,-842.54C424.7647,-847.8488 449.8502,-853.9988 470.1682,-858.9799"/>
<polygon fill="#191970" stroke="#191970" points="403.6588,-839.0708 393.113,-840.089 401.992,-845.8695 403.6588,-839.0708"/>
</g>
<!-- Node101662&#45;&gt;Node101964 -->
<g id="edge5" class="edge">
<title>Node101662&#45;&gt;Node101964</title>
<path fill="none" stroke="#191970" d="M411.3972,-823.4642C427.8544,-821.4469 445.6107,-819.2703 461.4085,-817.3338"/>
<polygon fill="#191970" stroke="#191970" points="410.8472,-820.0053 401.3473,-824.6961 411.6989,-826.9533 410.8472,-820.0053"/>
</g>
<!-- Node101662&#45;&gt;Node102038 -->
<g id="edge6" class="edge">
<title>Node101662&#45;&gt;Node102038</title>
<path fill="none" stroke="#191970" d="M372.9955,-813.901C385.6556,-802.6958 402.5589,-787.4594 417,-773.5 448.3646,-743.1815 483.8499,-705.537 500.0622,-688.1418"/>
<polygon fill="#191970" stroke="#191970" points="370.5483,-811.3923 365.3573,-820.6283 375.175,-816.6454 370.5483,-811.3923"/>
</g>
<!-- Node101708&#45;&gt;Node101708 -->
<g id="edge4" class="edge">
<title>Node101708&#45;&gt;Node101708</title>
<path fill="none" stroke="#191970" d="M480.2542,-887.1539C481.4558,-892.4368 491.0377,-896.5 509,-896.5 536.3711,-896.5 544.2831,-887.0653 532.7359,-878.2571"/>
<polygon fill="#191970" stroke="#191970" points="483.4072,-888.6879 485.2641,-878.2571 477.3077,-885.2532 483.4072,-888.6879"/>
</g>
<!-- Node102038&#45;&gt;Node102038 -->
<g id="edge7" class="edge">
<title>Node102038&#45;&gt;Node102038</title>
<path fill="none" stroke="#191970" d="M480.2542,-697.1539C481.4558,-702.4368 491.0377,-706.5 509,-706.5 536.3711,-706.5 544.2831,-697.0653 532.7359,-688.2571"/>
<polygon fill="#191970" stroke="#191970" points="483.4072,-698.6879 485.2641,-688.2571 477.3077,-695.2532 483.4072,-698.6879"/>
</g>
<!-- Node102292&#45;&gt;Node101708 -->
<g id="edge9" class="edge">
<title>Node102292&#45;&gt;Node101708</title>
<path fill="none" stroke="#191970" d="M410.6947,-868.5C429.415,-868.5 449.8844,-868.5 467.2749,-868.5"/>
<polygon fill="#191970" stroke="#191970" points="410.5051,-865.0001 400.5051,-868.5 410.5051,-872.0001 410.5051,-865.0001"/>
</g>
<!-- Node101670 -->
<g id="node8" class="node">
<title>Node101670</title>
<g id="a_node8"><a xlink:href="quickjs_8c.html#acdcc62310b4f6f73fa7bc7267b18b1d4" target="_top" xlink:title="js_parse_postfix_expr">
<polygon fill="none" stroke="#ff0000" points="453,-944 453,-963 565,-963 565,-944 453,-944"/>
<text text-anchor="middle" x="509" y="-951" font-family="Helvetica,sans-Serif" font-size="10.00" fill="#000000">js_parse_postfix_expr</text>
</a>
</g>
</g>
<!-- Node102292&#45;&gt;Node101670 -->
<g id="edge10" class="edge">
<title>Node102292&#45;&gt;Node101670</title>
<path fill="none" stroke="#191970" d="M402.6174,-881.3801C407.564,-883.2162 412.4409,-885.2548 417,-887.5 448.9188,-903.2191 481.6926,-929.7034 498.1564,-943.8723"/>
<polygon fill="#191970" stroke="#191970" points="403.6787,-878.0439 393.084,-878.0979 401.3999,-884.6627 403.6787,-878.0439"/>
</g>
<!-- Node101670&#45;&gt;Node101670 -->
<g id="edge11" class="edge">
<title>Node101670&#45;&gt;Node101670</title>
<path fill="none" stroke="#191970" d="M480.2542,-972.1539C481.4558,-977.4368 491.0377,-981.5 509,-981.5 536.3711,-981.5 544.2831,-972.0653 532.7359,-963.2571"/>
<polygon fill="#191970" stroke="#191970" points="483.4072,-973.6879 485.2641,-963.2571 477.3077,-970.2532 483.4072,-973.6879"/>
</g>
<!-- Node101857&#45;&gt;Node101708 -->
<g id="edge14" class="edge">
<title>Node101857&#45;&gt;Node101708</title>
<path fill="none" stroke="#191970" d="M238.5174,-939.9964C286.2841,-943.1926 357.8742,-943.5807 417,-925.5 449.1627,-915.6646 481.3273,-891.7157 497.7666,-878.1988"/>
<polygon fill="#191970" stroke="#191970" points="238.6313,-936.4954 228.4018,-939.2536 238.1186,-943.4766 238.6313,-936.4954"/>
</g>
<!-- Node101857&#45;&gt;Node101670 -->
<g id="edge15" class="edge">
<title>Node101857&#45;&gt;Node101670</title>
<path fill="none" stroke="#191970" d="M228.7332,-946.6314C247.6764,-951.3481 270.2721,-956.1721 291,-958.5 346.6501,-964.75 361.0206,-960.0201 417,-958.5 428.5127,-958.1874 440.8269,-957.6551 452.581,-957.0515"/>
<polygon fill="#191970" stroke="#191970" points="229.4613,-943.205 218.9055,-944.1139 227.7242,-949.9861 229.4613,-943.205"/>
</g>
<!-- Node101857&#45;&gt;Node101858 -->
<g id="edge13" class="edge">
<title>Node101857&#45;&gt;Node101858</title>
<path fill="none" stroke="#191970" d="M238.0499,-925.7677C261.2626,-921.9104 288.2339,-917.4285 310.3194,-913.7585"/>
<polygon fill="#191970" stroke="#191970" points="237.3106,-922.3424 228.0197,-927.4344 238.4582,-929.2477 237.3106,-922.3424"/>
</g>
<!-- Node102293&#45;&gt;Node102038 -->
<g id="edge18" class="edge">
<title>Node102293&#45;&gt;Node102038</title>
<path fill="none" stroke="#191970" d="M219.8019,-695.4854C276.6544,-692.1463 390.7321,-685.4462 457.3593,-681.533"/>
<polygon fill="#191970" stroke="#191970" points="219.3283,-692.007 209.5508,-696.0874 219.7388,-698.995 219.3283,-692.007"/>
</g>
<!-- Node102090 -->
<g id="node13" class="node">
<title>Node102090</title>
<g id="a_node13"><a xlink:href="quickjs_8c.html#adf92b748274979904d269c4d3682e4dd" target="_top" xlink:title="js_number_toString">
<polygon fill="none" stroke="#000000" points="303.5,-707 303.5,-726 404.5,-726 404.5,-707 303.5,-707"/>
<text text-anchor="middle" x="354" y="-714" font-family="Helvetica,sans-Serif" font-size="10.00" fill="#000000">js_number_toString</text>
</a>
</g>
</g>
<!-- Node102293&#45;&gt;Node102090 -->
<g id="edge19" class="edge">
<title>Node102293&#45;&gt;Node102090</title>
<path fill="none" stroke="#191970" d="M219.6865,-701.3549C243.671,-704.0593 276.1495,-707.7216 303.1606,-710.7674"/>
<polygon fill="#191970" stroke="#191970" points="219.9712,-697.8649 209.6419,-700.2222 219.1868,-704.8208 219.9712,-697.8649"/>
</g>
<!-- Node102091 -->
<g id="node14" class="node">
<title>Node102091</title>
<g id="a_node14"><a xlink:href="quickjs_8c.html#a7440a8b206568f2729470433d57d9a98" target="_top" xlink:title="js_number_toFixed">
<polygon fill="none" stroke="#000000" points="304.5,-631 304.5,-650 403.5,-650 403.5,-631 304.5,-631"/>
<text text-anchor="middle" x="354" y="-638" font-family="Helvetica,sans-Serif" font-size="10.00" fill="#000000">js_number_toFixed</text>
</a>
</g>
</g>
<!-- Node102293&#45;&gt;Node102091 -->
<g id="edge20" class="edge">
<title>Node102293&#45;&gt;Node102091</title>
<path fill="none" stroke="#191970" d="M219.2211,-686.0929C250.435,-675.5339 296.3234,-660.0108 325.6826,-650.0792"/>
<polygon fill="#191970" stroke="#191970" points="217.9931,-682.8134 209.6419,-689.3333 220.2362,-689.4443 217.9931,-682.8134"/>
</g>
<!-- Node102092 -->
<g id="node15" class="node">
<title>Node102092</title>
<g id="a_node15"><a xlink:href="quickjs_8c.html#afad8d7db437ba0647d2dbf77cd9769d6" target="_top" xlink:title="js_number_toExponential">
<polygon fill="none" stroke="#000000" points="291,-745 291,-764 417,-764 417,-745 291,-745"/>
<text text-anchor="middle" x="354" y="-752" font-family="Helvetica,sans-Serif" font-size="10.00" fill="#000000">js_number_toExponential</text>
</a>
</g>
</g>
<!-- Node102293&#45;&gt;Node102092 -->
<g id="edge21" class="edge">
<title>Node102293&#45;&gt;Node102092</title>
<path fill="none" stroke="#191970" d="M219.2543,-710.1715C239.8828,-717.7871 266.8556,-727.5171 291,-735.5 300.7619,-738.7276 311.4466,-742.0341 321.1986,-744.9652"/>
<polygon fill="#191970" stroke="#191970" points="220.2705,-706.8154 209.6774,-706.6196 217.8363,-713.3786 220.2705,-706.8154"/>
</g>
<!-- Node101768&#45;&gt;Node101768 -->
<g id="edge23" class="edge">
<title>Node101768&#45;&gt;Node101768</title>
<path fill="none" stroke="#191970" d="M158.6208,-584.1539C159.7444,-589.4368 168.7041,-593.5 185.5,-593.5 211.0938,-593.5 218.4919,-584.0653 207.6946,-575.2571"/>
<polygon fill="#191970" stroke="#191970" points="161.7433,-585.7361 163.3054,-575.2571 155.5494,-582.4747 161.7433,-585.7361"/>
</g>
</g>
</svg>
