<?xml version="1.0" encoding="UTF-8" standalone="no"?>
<!DOCTYPE svg PUBLIC "-//W3C//DTD SVG 1.1//EN"
 "http://www.w3.org/Graphics/SVG/1.1/DTD/svg11.dtd">
<!-- Generated by graphviz version 2.40.1 (20161225.0304)
 -->
<!-- Title: JS_NewContextRaw Pages: 1 -->
<!--zoomable 749 -->
<svg id="main" version="1.1" xmlns="http://www.w3.org/2000/svg" xmlns:xlink="http://www.w3.org/1999/xlink" xml:space="preserve" onload="init(evt)">
<style type="text/css"><![CDATA[
.edge:hover path { stroke: red; }
.edge:hover polygon { stroke: red; fill: red; }
]]></style>
<script type="text/javascript"><![CDATA[
var edges = document.getElementsByTagName('g');
if (edges && edges.length) {
  for (var i=0;i<edges.length;i++) {
    if (edges[i].id.substr(0,4)=='edge') {
      edges[i].setAttribute('class','edge');
    }
  }
}
]]></script>
        <defs>
                <circle id="rim" cx="0" cy="0" r="7"/>
                <circle id="rim2" cx="0" cy="0" r="3.5"/>
                <g id="zoomPlus">
                        <use xlink:href="#rim" fill="#404040">
                                <set attributeName="fill" to="#808080" begin="zoomplus.mouseover" end="zoomplus.mouseout"/>
                        </use>
                        <path d="M-4,0h8M0,-4v8" fill="none" stroke="white" stroke-width="1.5" pointer-events="none"/>
                </g>
                <g id="zoomMin">
                        <use xlink:href="#rim" fill="#404040">
                                <set attributeName="fill" to="#808080" begin="zoomminus.mouseover" end="zoomminus.mouseout"/>
                        </use>
                        <path d="M-4,0h8" fill="none" stroke="white" stroke-width="1.5" pointer-events="none"/>
                </g>
                <g id="dirArrow">
                        <path fill="none" stroke="white" stroke-width="1.5" d="M0,-3.0v7 M-2.5,-0.5L0,-3.0L2.5,-0.5"/>
                </g>
               <g id="resetDef">
                       <use xlink:href="#rim2" fill="#404040">
                               <set attributeName="fill" to="#808080" begin="reset.mouseover" end="reset.mouseout"/>
                       </use>
               </g>
        </defs>

<script type="text/javascript">
var viewWidth = 934;
var viewHeight = 749;
var sectionId = 'dynsection-179';
</script>
<script xlink:href="svgpan.js"/>
<svg id="graph" class="graph">
<g id="viewport">
<title>JS_NewContextRaw</title>
<!-- Node59763 -->
<g id="node1" class="node">
<title>Node59763</title>
<polygon fill="#bfbfbf" stroke="#000000" points="0,-303.4771 0,-322.4771 109,-322.4771 109,-303.4771 0,-303.4771"/>
<text text-anchor="middle" x="54.5" y="-310.4771" font-family="Helvetica,sans-Serif" font-size="10.00" fill="#000000">JS_NewContextRaw</text>
</g>
<!-- Node59764 -->
<g id="node2" class="node">
<title>Node59764</title>
<g id="a_node2"><a xlink:href="list_8h.html#a663527a4d757540b2177bef0db1ce5c0" target="_top" xlink:title="init_list_head">
<polygon fill="none" stroke="#000000" points="180,-721.4771 180,-740.4771 254,-740.4771 254,-721.4771 180,-721.4771"/>
<text text-anchor="middle" x="217" y="-728.4771" font-family="Helvetica,sans-Serif" font-size="10.00" fill="#000000">init_list_head</text>
</a>
</g>
</g>
<!-- Node59763&#45;&gt;Node59764 -->
<g id="edge1" class="edge">
<title>Node59763&#45;&gt;Node59764</title>
<path fill="none" stroke="#191970" d="M55.4316,-322.4951C60.926,-376.8088 90.7315,-647.2334 145,-706.9771 151.7774,-714.4382 160.9337,-719.5833 170.4419,-723.1303"/>
<polygon fill="#191970" stroke="#191970" points="169.4019,-726.4722 179.9924,-726.1712 171.5257,-719.8022 169.4019,-726.4722"/>
</g>
<!-- Node59765 -->
<g id="node3" class="node">
<title>Node59765</title>
<g id="a_node3"><a xlink:href="quickjs_8c.html#a7efb53c2f76fd5cc0e584449437ec09c" target="_top" xlink:title="JS_AddIntrinsicBasicObjects">
<polygon fill="none" stroke="#000000" points="145,-303.4771 145,-322.4771 289,-322.4771 289,-303.4771 145,-303.4771"/>
<text text-anchor="middle" x="217" y="-310.4771" font-family="Helvetica,sans-Serif" font-size="10.00" fill="#000000">JS_AddIntrinsicBasicObjects</text>
</a>
</g>
</g>
<!-- Node59763&#45;&gt;Node59765 -->
<g id="edge2" class="edge">
<title>Node59763&#45;&gt;Node59765</title>
<path fill="none" stroke="#191970" d="M109.0622,-312.9771C117.3461,-312.9771 126.0463,-312.9771 134.7617,-312.9771"/>
<polygon fill="#191970" stroke="#191970" points="134.9758,-316.4772 144.9757,-312.9771 134.9757,-309.4772 134.9758,-316.4772"/>
</g>
<!-- Node59779 -->
<g id="node8" class="node">
<title>Node59779</title>
<g id="a_node8"><a xlink:href="list_8h.html#a3a5d0733570b2fafc18f4c71a2968ea5" target="_top" xlink:title="list_add_tail">
<polygon fill="none" stroke="#ff0000" points="685,-664.4771 685,-683.4771 753,-683.4771 753,-664.4771 685,-664.4771"/>
<text text-anchor="middle" x="719" y="-671.4771" font-family="Helvetica,sans-Serif" font-size="10.00" fill="#000000">list_add_tail</text>
</a>
</g>
</g>
<!-- Node59763&#45;&gt;Node59779 -->
<g id="edge44" class="edge">
<title>Node59763&#45;&gt;Node59779</title>
<path fill="none" stroke="#191970" d="M61.5139,-322.6691C99.0281,-373.492 282.4205,-609.359 500,-673.9771 558.4974,-691.35 629.7258,-686.9392 674.7288,-681.2304"/>
<polygon fill="#191970" stroke="#191970" points="675.3054,-684.6845 684.7495,-679.8824 674.3721,-677.747 675.3054,-684.6845"/>
</g>
<!-- Node59782 -->
<g id="node29" class="node">
<title>Node59782</title>
<g id="a_node29"><a xlink:href="quickjs_8c.html#a69e19dda8a93d613203e0baa06f0ed8d" target="_top" xlink:title="js_free_rt">
<polygon fill="none" stroke="#000000" points="188.5,-265.4771 188.5,-284.4771 245.5,-284.4771 245.5,-265.4771 188.5,-265.4771"/>
<text text-anchor="middle" x="217" y="-272.4771" font-family="Helvetica,sans-Serif" font-size="10.00" fill="#000000">js_free_rt</text>
</a>
</g>
</g>
<!-- Node59763&#45;&gt;Node59782 -->
<g id="edge42" class="edge">
<title>Node59763&#45;&gt;Node59782</title>
<path fill="none" stroke="#191970" d="M95.5056,-303.3881C120.9577,-297.4362 153.4586,-289.836 178.4398,-283.9942"/>
<polygon fill="#191970" stroke="#191970" points="179.3587,-287.3739 188.299,-281.6887 177.7647,-280.5577 179.3587,-287.3739"/>
</g>
<!-- Node59891 -->
<g id="node30" class="node">
<title>Node59891</title>
<g id="a_node30"><a xlink:href="quickjs_8c.html#acad70023f36797496683e579a4d60461" target="_top" xlink:title="js_get_stack_pointer">
<polygon fill="none" stroke="#000000" points="163.5,-227.4771 163.5,-246.4771 270.5,-246.4771 270.5,-227.4771 163.5,-227.4771"/>
<text text-anchor="middle" x="217" y="-234.4771" font-family="Helvetica,sans-Serif" font-size="10.00" fill="#000000">js_get_stack_pointer</text>
</a>
</g>
</g>
<!-- Node59763&#45;&gt;Node59891 -->
<g id="edge43" class="edge">
<title>Node59763&#45;&gt;Node59891</title>
<path fill="none" stroke="#191970" d="M66.9968,-303.3594C83.8507,-290.8106 115.1988,-268.9309 145,-255.9771 150.4687,-253.6 156.3041,-251.4626 162.1965,-249.5559"/>
<polygon fill="#191970" stroke="#191970" points="163.5502,-252.8033 172.1122,-246.563 161.5274,-246.1019 163.5502,-252.8033"/>
</g>
<!-- Node59766 -->
<g id="node4" class="node">
<title>Node59766</title>
<g id="a_node4"><a xlink:href="quickjs_8c.html#a3cadcaa2bd1e3f9359f1c006f396cfa0" target="_top" xlink:title="add_shape_property">
<polygon fill="none" stroke="#000000" points="342.5,-493.4771 342.5,-512.4771 446.5,-512.4771 446.5,-493.4771 342.5,-493.4771"/>
<text text-anchor="middle" x="394.5" y="-500.4771" font-family="Helvetica,sans-Serif" font-size="10.00" fill="#000000">add_shape_property</text>
</a>
</g>
</g>
<!-- Node59765&#45;&gt;Node59766 -->
<g id="edge3" class="edge">
<title>Node59765&#45;&gt;Node59766</title>
<path fill="none" stroke="#191970" d="M223.7317,-322.549C239.8772,-345.2015 282.6181,-403.3883 325,-445.9771 340.0407,-461.0912 358.8253,-476.3097 373.0723,-487.2154"/>
<polygon fill="#191970" stroke="#191970" points="371.1915,-490.1807 381.2826,-493.4088 375.4071,-484.5924 371.1915,-490.1807"/>
</g>
<!-- Node59791 -->
<g id="node13" class="node">
<title>Node59791</title>
<g id="a_node13"><a xlink:href="quickjs_8c.html#aab0be018b8f7bdcff45226f502c3f820" target="_top" xlink:title="get_proto_obj">
<polygon fill="none" stroke="#000000" points="681.5,-113.4771 681.5,-132.4771 756.5,-132.4771 756.5,-113.4771 681.5,-113.4771"/>
<text text-anchor="middle" x="719" y="-120.4771" font-family="Helvetica,sans-Serif" font-size="10.00" fill="#000000">get_proto_obj</text>
</a>
</g>
</g>
<!-- Node59765&#45;&gt;Node59791 -->
<g id="edge12" class="edge">
<title>Node59765&#45;&gt;Node59791</title>
<path fill="none" stroke="#191970" d="M276.7475,-303.3045C281.2938,-300.8258 285.4751,-297.7607 289,-293.9771 347.5861,-231.092 258.8108,-158.8028 325,-103.9771 376.4056,-61.3969 577.9905,-94.6832 671.2251,-112.9835"/>
<polygon fill="#191970" stroke="#191970" points="670.7497,-116.4574 681.2401,-114.9737 672.114,-109.5917 670.7497,-116.4574"/>
</g>
<!-- Node59792 -->
<g id="node14" class="node">
<title>Node59792</title>
<g id="a_node14"><a xlink:href="quickjs_8c.html#a260bfa297ff6cb5bd18e229afaa54663" target="_top" xlink:title="JS_AtomToString">
<polygon fill="none" stroke="#000000" points="518.5,-265.4771 518.5,-284.4771 612.5,-284.4771 612.5,-265.4771 518.5,-265.4771"/>
<text text-anchor="middle" x="565.5" y="-272.4771" font-family="Helvetica,sans-Serif" font-size="10.00" fill="#000000">JS_AtomToString</text>
</a>
</g>
</g>
<!-- Node59765&#45;&gt;Node59792 -->
<g id="edge13" class="edge">
<title>Node59765&#45;&gt;Node59792</title>
<path fill="none" stroke="#191970" d="M244.0735,-322.4911C290.7584,-337.3024 388.644,-361.2893 464,-331.9771 484.2286,-324.1085 481.4572,-310.2588 500,-298.9771 506.8383,-294.8166 514.5116,-291.2046 522.1329,-288.1353"/>
<polygon fill="#191970" stroke="#191970" points="523.5659,-291.3357 531.6919,-284.5372 521.1,-284.7844 523.5659,-291.3357"/>
</g>
<!-- Node59813 -->
<g id="node16" class="node">
<title>Node59813</title>
<g id="a_node16"><a xlink:href="quickjs_8h.html#a775522f2d084fc8fa0fcb33f390006b4" target="_top" xlink:title="JS_DupValue">
<polygon fill="none" stroke="#000000" points="828,-265.4771 828,-284.4771 905,-284.4771 905,-265.4771 828,-265.4771"/>
<text text-anchor="middle" x="866.5" y="-272.4771" font-family="Helvetica,sans-Serif" font-size="10.00" fill="#000000">JS_DupValue</text>
</a>
</g>
</g>
<!-- Node59765&#45;&gt;Node59813 -->
<g id="edge24" class="edge">
<title>Node59765&#45;&gt;Node59813</title>
<path fill="none" stroke="#191970" d="M276.8311,-303.3816C281.3599,-300.8867 285.5142,-297.7968 289,-293.9771 354.0139,-222.7358 251.3614,-142.2626 325,-79.9771 476.5635,48.2194 607.746,8.9564 771,-103.9771 824.7268,-141.1435 851.5997,-218.8368 861.665,-255.2937"/>
<polygon fill="#191970" stroke="#191970" points="858.3388,-256.408 864.2603,-265.1935 865.11,-254.6328 858.3388,-256.408"/>
</g>
<!-- Node59814 -->
<g id="node17" class="node">
<title>Node59814</title>
<g id="a_node17"><a xlink:href="quickjs_8c.html#a0a8765bd4012467d9139bc24aabcb3ca" target="_top" xlink:title="JS_DefinePropertyValue">
<polygon fill="none" stroke="#000000" points="332.5,-379.4771 332.5,-398.4771 456.5,-398.4771 456.5,-379.4771 332.5,-379.4771"/>
<text text-anchor="middle" x="394.5" y="-386.4771" font-family="Helvetica,sans-Serif" font-size="10.00" fill="#000000">JS_DefinePropertyValue</text>
</a>
</g>
</g>
<!-- Node59765&#45;&gt;Node59814 -->
<g id="edge17" class="edge">
<title>Node59765&#45;&gt;Node59814</title>
<path fill="none" stroke="#191970" d="M235.432,-322.664C256.6963,-333.6477 292.8648,-351.7447 325,-364.9771 334.5609,-368.914 345.0294,-372.7623 354.874,-376.1839"/>
<polygon fill="#191970" stroke="#191970" points="353.8594,-379.5358 364.4539,-379.4508 356.1188,-372.9104 353.8594,-379.5358"/>
</g>
<!-- Node60179 -->
<g id="node20" class="node">
<title>Node60179</title>
<g id="a_node20"><a xlink:href="quickjs_8c.html#ae11c9bc0861d37234b3118d9d4cde05d" target="_top" xlink:title="js_function_proto">
<polygon fill="none" stroke="#000000" points="349,-303.4771 349,-322.4771 440,-322.4771 440,-303.4771 349,-303.4771"/>
<text text-anchor="middle" x="394.5" y="-310.4771" font-family="Helvetica,sans-Serif" font-size="10.00" fill="#000000">js_function_proto</text>
</a>
</g>
</g>
<!-- Node59765&#45;&gt;Node60179 -->
<g id="edge25" class="edge">
<title>Node59765&#45;&gt;Node60179</title>
<path fill="none" stroke="#191970" d="M289.196,-312.9771C305.7301,-312.9771 323.0589,-312.9771 338.776,-312.9771"/>
<polygon fill="#191970" stroke="#191970" points="338.847,-316.4772 348.847,-312.9771 338.847,-309.4772 338.847,-316.4772"/>
</g>
<!-- Node59830 -->
<g id="node21" class="node">
<title>Node59830</title>
<g id="a_node21"><a xlink:href="quickjs_8c.html#a1030d2020be7d911eb62869f21cc3b70" target="_top" xlink:title="js_new_shape2">
<polygon fill="none" stroke="#ff0000" points="352.5,-417.4771 352.5,-436.4771 436.5,-436.4771 436.5,-417.4771 352.5,-417.4771"/>
<text text-anchor="middle" x="394.5" y="-424.4771" font-family="Helvetica,sans-Serif" font-size="10.00" fill="#000000">js_new_shape2</text>
</a>
</g>
</g>
<!-- Node59765&#45;&gt;Node59830 -->
<g id="edge26" class="edge">
<title>Node59765&#45;&gt;Node59830</title>
<path fill="none" stroke="#191970" d="M225.1717,-322.6544C241.9068,-341.8503 282.1306,-384.8818 325,-407.9771 330.4924,-410.936 336.4827,-413.4632 342.5683,-415.6145"/>
<polygon fill="#191970" stroke="#191970" points="341.5609,-418.967 352.1522,-418.6938 343.7023,-412.3026 341.5609,-418.967"/>
</g>
<!-- Node60180 -->
<g id="node22" class="node">
<title>Node60180</title>
<g id="a_node22"><a xlink:href="quickjs_8c.html#a27c3a725d4014a35b5bedcdf6e70dec7" target="_top" xlink:title="JS_NewAtomString">
<polygon fill="none" stroke="#ff0000" points="343,-265.4771 343,-284.4771 446,-284.4771 446,-265.4771 343,-265.4771"/>
<text text-anchor="middle" x="394.5" y="-272.4771" font-family="Helvetica,sans-Serif" font-size="10.00" fill="#000000">JS_NewAtomString</text>
</a>
</g>
</g>
<!-- Node59765&#45;&gt;Node60180 -->
<g id="edge29" class="edge">
<title>Node59765&#45;&gt;Node60180</title>
<path fill="none" stroke="#191970" d="M261.7907,-303.3881C285.5303,-298.3058 314.8839,-292.0216 339.9437,-286.6567"/>
<polygon fill="#191970" stroke="#191970" points="340.9856,-290.0131 350.0313,-284.4971 339.5202,-283.1682 340.9856,-290.0131"/>
</g>
<!-- Node60181 -->
<g id="node24" class="node">
<title>Node60181</title>
<g id="a_node24"><a xlink:href="quickjs_8c.html#a21cfe4c4fc9372dc0b95b37667cff0c9" target="_top" xlink:title="JS_NewCFunction3">
<polygon fill="none" stroke="#ff0000" points="342.5,-227.4771 342.5,-246.4771 446.5,-246.4771 446.5,-227.4771 342.5,-227.4771"/>
<text text-anchor="middle" x="394.5" y="-234.4771" font-family="Helvetica,sans-Serif" font-size="10.00" fill="#000000">JS_NewCFunction3</text>
</a>
</g>
</g>
<!-- Node59765&#45;&gt;Node60181 -->
<g id="edge32" class="edge">
<title>Node59765&#45;&gt;Node60181</title>
<path fill="none" stroke="#191970" d="M267.6342,-303.4506C275.0781,-300.9735 282.4392,-297.8673 289,-293.9771 309.0111,-282.1116 305.0416,-267.931 325,-255.9771 328.6218,-253.8079 332.4965,-251.8804 336.4947,-250.1686"/>
<polygon fill="#191970" stroke="#191970" points="337.887,-253.3836 345.9864,-246.5536 335.3955,-246.842 337.887,-253.3836"/>
</g>
<!-- Node59825 -->
<g id="node25" class="node">
<title>Node59825</title>
<g id="a_node25"><a xlink:href="quickjs_8c.html#a73738c650f11459db0d7af3dcdf8316b" target="_top" xlink:title="JS_NewObjectProtoClass">
<polygon fill="none" stroke="#ff0000" points="500,-151.4771 500,-170.4771 631,-170.4771 631,-151.4771 500,-151.4771"/>
<text text-anchor="middle" x="565.5" y="-158.4771" font-family="Helvetica,sans-Serif" font-size="10.00" fill="#000000">JS_NewObjectProtoClass</text>
</a>
</g>
</g>
<!-- Node59765&#45;&gt;Node59825 -->
<g id="edge40" class="edge">
<title>Node59765&#45;&gt;Node59825</title>
<path fill="none" stroke="#191970" d="M275.2316,-303.3711C280.2728,-300.8958 284.9762,-297.8127 289,-293.9771 327.4591,-257.3164 283.4153,-213.0501 325,-179.9771 378.2764,-137.6056 460.8405,-141.3764 514.0316,-149.7793"/>
<polygon fill="#191970" stroke="#191970" points="513.4912,-153.2375 523.9342,-151.4505 514.6562,-146.3351 513.4912,-153.2375"/>
</g>
<!-- Node60047 -->
<g id="node26" class="node">
<title>Node60047</title>
<g id="a_node26"><a xlink:href="quickjs_8c.html#afc0d8ea75588216ec132a6e1655524a7" target="_top" xlink:title="JS_NewObject">
<polygon fill="none" stroke="#000000" points="353,-113.4771 353,-132.4771 436,-132.4771 436,-113.4771 353,-113.4771"/>
<text text-anchor="middle" x="394.5" y="-120.4771" font-family="Helvetica,sans-Serif" font-size="10.00" fill="#000000">JS_NewObject</text>
</a>
</g>
</g>
<!-- Node59765&#45;&gt;Node60047 -->
<g id="edge36" class="edge">
<title>Node59765&#45;&gt;Node60047</title>
<path fill="none" stroke="#191970" d="M275.8452,-303.4638C280.7005,-300.9645 285.195,-297.8506 289,-293.9771 336.1368,-245.992 279.6829,-196.6842 325,-146.9771 330.0257,-141.4645 336.3785,-137.2181 343.1905,-133.947"/>
<polygon fill="#191970" stroke="#191970" points="344.7527,-137.0895 352.6829,-130.0637 342.1022,-130.6107 344.7527,-137.0895"/>
</g>
<!-- Node60043 -->
<g id="node27" class="node">
<title>Node60043</title>
<g id="a_node27"><a xlink:href="quickjs_8c.html#a884d294acbf5be675ffc760e38bd0521" target="_top" xlink:title="JS_NewObjectProto">
<polygon fill="none" stroke="#000000" points="341.5,-189.4771 341.5,-208.4771 447.5,-208.4771 447.5,-189.4771 341.5,-189.4771"/>
<text text-anchor="middle" x="394.5" y="-196.4771" font-family="Helvetica,sans-Serif" font-size="10.00" fill="#000000">JS_NewObjectProto</text>
</a>
</g>
</g>
<!-- Node59765&#45;&gt;Node60043 -->
<g id="edge38" class="edge">
<title>Node59765&#45;&gt;Node60043</title>
<path fill="none" stroke="#191970" d="M273.2651,-303.4269C278.9418,-300.9573 284.3263,-297.8598 289,-293.9771 317.7492,-270.0936 296.3568,-241.9876 325,-217.9771 327.2468,-216.0937 329.6647,-214.3959 332.2036,-212.8655"/>
<polygon fill="#191970" stroke="#191970" points="333.8984,-215.9303 341.2289,-208.2808 330.7281,-209.6894 333.8984,-215.9303"/>
</g>
<!-- Node60182 -->
<g id="node28" class="node">
<title>Node60182</title>
<g id="a_node28"><a xlink:href="quickjs_8c.html#ac00854b7f1f0f8567af964a2f8f2adb0" target="_top" xlink:title="JS_SetPropertyFunctionList">
<polygon fill="none" stroke="#ff0000" points="325,-531.4771 325,-550.4771 464,-550.4771 464,-531.4771 325,-531.4771"/>
<text text-anchor="middle" x="394.5" y="-538.4771" font-family="Helvetica,sans-Serif" font-size="10.00" fill="#000000">JS_SetPropertyFunctionList</text>
</a>
</g>
</g>
<!-- Node59765&#45;&gt;Node60182 -->
<g id="edge41" class="edge">
<title>Node59765&#45;&gt;Node60182</title>
<path fill="none" stroke="#191970" d="M219.0633,-322.6255C226.6825,-355.8443 256.4215,-466.4804 325,-521.9771 327.0845,-523.664 329.3073,-525.2016 331.6305,-526.603"/>
<polygon fill="#191970" stroke="#191970" points="330.5081,-529.9583 341.0096,-531.3618 333.6754,-523.7158 330.5081,-529.9583"/>
</g>
<!-- Node59767 -->
<g id="node5" class="node">
<title>Node59767</title>
<g id="a_node5"><a xlink:href="quickjs_8c.html#ae5e76f4be6214208cc91f10a192fc810" target="_top" xlink:title="js_shape_hash_unlink">
<polygon fill="none" stroke="#ff0000" points="509,-531.4771 509,-550.4771 622,-550.4771 622,-531.4771 509,-531.4771"/>
<text text-anchor="middle" x="565.5" y="-538.4771" font-family="Helvetica,sans-Serif" font-size="10.00" fill="#000000">js_shape_hash_unlink</text>
</a>
</g>
</g>
<!-- Node59766&#45;&gt;Node59767 -->
<g id="edge4" class="edge">
<title>Node59766&#45;&gt;Node59767</title>
<path fill="none" stroke="#191970" d="M437.6505,-512.5661C460.4191,-517.6258 488.5482,-523.8767 512.6194,-529.2258"/>
<polygon fill="#191970" stroke="#191970" points="512.1386,-532.7043 522.6598,-531.457 513.6572,-525.871 512.1386,-532.7043"/>
</g>
<!-- Node59769 -->
<g id="node6" class="node">
<title>Node59769</title>
<g id="a_node6"><a xlink:href="quickjs_8c.html#a11f047846c1027dc6066a5f1b2ef292a" target="_top" xlink:title="shape_hash">
<polygon fill="none" stroke="#000000" points="531,-493.4771 531,-512.4771 600,-512.4771 600,-493.4771 531,-493.4771"/>
<text text-anchor="middle" x="565.5" y="-500.4771" font-family="Helvetica,sans-Serif" font-size="10.00" fill="#000000">shape_hash</text>
</a>
</g>
</g>
<!-- Node59766&#45;&gt;Node59769 -->
<g id="edge5" class="edge">
<title>Node59766&#45;&gt;Node59769</title>
<path fill="none" stroke="#191970" d="M446.7348,-502.9771C470.4132,-502.9771 498.1242,-502.9771 520.8207,-502.9771"/>
<polygon fill="#191970" stroke="#191970" points="520.8635,-506.4772 530.8634,-502.9771 520.8634,-499.4772 520.8635,-506.4772"/>
</g>
<!-- Node59770 -->
<g id="node7" class="node">
<title>Node59770</title>
<g id="a_node7"><a xlink:href="quickjs_8c.html#aa80740ff93b724ea7e0c280826f4a25a" target="_top" xlink:title="resize_properties">
<polygon fill="none" stroke="#ff0000" points="520,-645.4771 520,-664.4771 611,-664.4771 611,-645.4771 520,-645.4771"/>
<text text-anchor="middle" x="565.5" y="-652.4771" font-family="Helvetica,sans-Serif" font-size="10.00" fill="#000000">resize_properties</text>
</a>
</g>
</g>
<!-- Node59766&#45;&gt;Node59770 -->
<g id="edge6" class="edge">
<title>Node59766&#45;&gt;Node59770</title>
<path fill="none" stroke="#191970" d="M446.5261,-510.9635C452.9563,-513.6626 459.0101,-517.2408 464,-521.9771 501.0034,-557.0999 464.5106,-594.3252 500,-630.9771 503.8437,-634.9467 508.3979,-638.2637 513.2871,-641.0346"/>
<polygon fill="#191970" stroke="#191970" points="511.8454,-644.2254 522.3686,-645.4554 514.9093,-637.9315 511.8454,-644.2254"/>
</g>
<!-- Node59786 -->
<g id="node9" class="node">
<title>Node59786</title>
<g id="a_node9"><a xlink:href="quickjs_8c.html#a82dbe63adeac7849406fd48d96f39f7b" target="_top" xlink:title="js_shape_hash_link">
<polygon fill="none" stroke="#ff0000" points="514.5,-417.4771 514.5,-436.4771 616.5,-436.4771 616.5,-417.4771 514.5,-417.4771"/>
<text text-anchor="middle" x="565.5" y="-424.4771" font-family="Helvetica,sans-Serif" font-size="10.00" fill="#000000">js_shape_hash_link</text>
</a>
</g>
</g>
<!-- Node59766&#45;&gt;Node59786 -->
<g id="edge8" class="edge">
<title>Node59766&#45;&gt;Node59786</title>
<path fill="none" stroke="#191970" d="M412.5209,-493.3595C433.3074,-482.4393 468.6517,-464.4006 500,-450.9771 508.9117,-447.161 518.6543,-443.3849 527.8369,-439.9969"/>
<polygon fill="#191970" stroke="#191970" points="529.3063,-443.1872 537.5154,-436.4892 526.9212,-436.606 529.3063,-443.1872"/>
</g>
<!-- Node59787 -->
<g id="node10" class="node">
<title>Node59787</title>
<g id="a_node10"><a xlink:href="quickjs_8c.html#a643df594b75933007bcdbb071b5ea8c5" target="_top" xlink:title="get_shape_prop">
<polygon fill="none" stroke="#000000" points="676,-379.4771 676,-398.4771 762,-398.4771 762,-379.4771 676,-379.4771"/>
<text text-anchor="middle" x="719" y="-386.4771" font-family="Helvetica,sans-Serif" font-size="10.00" fill="#000000">get_shape_prop</text>
</a>
</g>
</g>
<!-- Node59766&#45;&gt;Node59787 -->
<g id="edge9" class="edge">
<title>Node59766&#45;&gt;Node59787</title>
<path fill="none" stroke="#191970" d="M442.3748,-493.4334C501.2281,-481.3559 597.4316,-460.3933 631,-445.9771 656.0674,-435.2117 681.9455,-417.5147 699.0932,-404.6921"/>
<polygon fill="#191970" stroke="#191970" points="701.3885,-407.3432 707.214,-398.4936 697.1413,-401.7789 701.3885,-407.3432"/>
</g>
<!-- Node59788 -->
<g id="node11" class="node">
<title>Node59788</title>
<g id="a_node11"><a xlink:href="quickjs_8c.html#abbf44eaeace1104a6bef718fbf5700fe" target="_top" xlink:title="JS_DupAtom">
<polygon fill="none" stroke="#ff0000" points="528,-569.4771 528,-588.4771 603,-588.4771 603,-569.4771 528,-569.4771"/>
<text text-anchor="middle" x="565.5" y="-576.4771" font-family="Helvetica,sans-Serif" font-size="10.00" fill="#000000">JS_DupAtom</text>
</a>
</g>
</g>
<!-- Node59766&#45;&gt;Node59788 -->
<g id="edge10" class="edge">
<title>Node59766&#45;&gt;Node59788</title>
<path fill="none" stroke="#191970" d="M443.0136,-512.5536C450.323,-515.0283 457.5613,-518.1207 464,-521.9771 483.9584,-533.931 480.1346,-547.8692 500,-559.9771 505.507,-563.3336 511.6358,-566.1219 517.8724,-568.4319"/>
<polygon fill="#191970" stroke="#191970" points="517.0945,-571.8611 527.6878,-571.681 519.2944,-565.2157 517.0945,-571.8611"/>
</g>
<!-- Node59790 -->
<g id="node12" class="node">
<title>Node59790</title>
<g id="a_node12"><a xlink:href="quickjs_8c.html#a288254c06a39c9fca740a7abdad2834e" target="_top" xlink:title="__JS_AtomIsTaggedInt">
<polygon fill="none" stroke="#000000" points="807,-341.4771 807,-360.4771 926,-360.4771 926,-341.4771 807,-341.4771"/>
<text text-anchor="middle" x="866.5" y="-348.4771" font-family="Helvetica,sans-Serif" font-size="10.00" fill="#000000">__JS_AtomIsTaggedInt</text>
</a>
</g>
</g>
<!-- Node59766&#45;&gt;Node59790 -->
<g id="edge11" class="edge">
<title>Node59766&#45;&gt;Node59790</title>
<path fill="none" stroke="#191970" d="M446.7126,-511.8371C452.9635,-514.4083 458.9193,-517.7181 464,-521.9771 492.6432,-545.9876 468.4172,-577.9905 500,-597.9771 549.1984,-629.1114 577.479,-620.8971 631,-597.9771 743.6099,-549.7527 827.9358,-418.3104 856.2108,-369.5264"/>
<polygon fill="#191970" stroke="#191970" points="859.3439,-371.0973 861.2475,-360.6749 853.2598,-367.6353 859.3439,-371.0973"/>
</g>
<!-- Node59770&#45;&gt;Node59779 -->
<g id="edge7" class="edge">
<title>Node59770&#45;&gt;Node59779</title>
<path fill="none" stroke="#191970" d="M611.1395,-660.6263C631.3081,-663.1227 654.927,-666.0462 674.9131,-668.5201"/>
<polygon fill="#191970" stroke="#191970" points="674.6416,-672.0131 684.9959,-669.7681 675.5016,-665.0661 674.6416,-672.0131"/>
</g>
<!-- Node59793 -->
<g id="node15" class="node">
<title>Node59793</title>
<g id="a_node15"><a xlink:href="quickjs_8c.html#a06ff303a11e6641cbf1f6634e6a61811" target="_top" xlink:title="__JS_AtomToValue">
<polygon fill="none" stroke="#ff0000" points="667,-227.4771 667,-246.4771 771,-246.4771 771,-227.4771 667,-227.4771"/>
<text text-anchor="middle" x="719" y="-234.4771" font-family="Helvetica,sans-Serif" font-size="10.00" fill="#000000">__JS_AtomToValue</text>
</a>
</g>
</g>
<!-- Node59792&#45;&gt;Node59793 -->
<g id="edge14" class="edge">
<title>Node59792&#45;&gt;Node59793</title>
<path fill="none" stroke="#191970" d="M604.2345,-265.3881C624.3993,-260.3962 649.2479,-254.2447 670.6611,-248.9437"/>
<polygon fill="#191970" stroke="#191970" points="671.6781,-252.2977 680.544,-246.4971 669.9959,-245.5028 671.6781,-252.2977"/>
</g>
<!-- Node59793&#45;&gt;Node59790 -->
<g id="edge15" class="edge">
<title>Node59793&#45;&gt;Node59790</title>
<path fill="none" stroke="#191970" d="M752.2842,-246.532C758.7575,-249.0991 765.2969,-252.2295 771,-255.9771 790.4424,-268.7531 790.5954,-277.4809 807,-293.9771 820.7687,-307.8227 836.7706,-323.1086 848.7096,-334.3626"/>
<polygon fill="#191970" stroke="#191970" points="846.5631,-337.1482 856.2486,-341.4424 851.355,-332.0454 846.5631,-337.1482"/>
</g>
<!-- Node59793&#45;&gt;Node59813 -->
<g id="edge16" class="edge">
<title>Node59793&#45;&gt;Node59813</title>
<path fill="none" stroke="#191970" d="M756.2205,-246.5661C775.5093,-251.5354 799.2584,-257.6538 819.771,-262.9384"/>
<polygon fill="#191970" stroke="#191970" points="818.9902,-266.3515 829.5472,-265.457 820.7366,-259.5728 818.9902,-266.3515"/>
</g>
<!-- Node59815 -->
<g id="node18" class="node">
<title>Node59815</title>
<g id="a_node18"><a xlink:href="quickjs_8c.html#ab50618f1bf78e444caa6da0e3e2785d7" target="_top" xlink:title="JS_DefineProperty">
<polygon fill="none" stroke="#ff0000" points="516,-341.4771 516,-360.4771 615,-360.4771 615,-341.4771 516,-341.4771"/>
<text text-anchor="middle" x="565.5" y="-348.4771" font-family="Helvetica,sans-Serif" font-size="10.00" fill="#000000">JS_DefineProperty</text>
</a>
</g>
</g>
<!-- Node59814&#45;&gt;Node59815 -->
<g id="edge18" class="edge">
<title>Node59814&#45;&gt;Node59815</title>
<path fill="none" stroke="#191970" d="M437.6505,-379.3881C460.4191,-374.3284 488.5482,-368.0775 512.6194,-362.7283"/>
<polygon fill="#191970" stroke="#191970" points="513.6572,-366.0832 522.6598,-360.4971 512.1386,-359.2499 513.6572,-366.0832"/>
</g>
<!-- Node59900 -->
<g id="node19" class="node">
<title>Node59900</title>
<g id="a_node19"><a xlink:href="quickjs_8h.html#afaa20c47565bc704c6c85f3d77254e7d" target="_top" xlink:title="JS_FreeValue">
<polygon fill="none" stroke="#ff0000" points="680,-265.4771 680,-284.4771 758,-284.4771 758,-265.4771 680,-265.4771"/>
<text text-anchor="middle" x="719" y="-272.4771" font-family="Helvetica,sans-Serif" font-size="10.00" fill="#000000">JS_FreeValue</text>
</a>
</g>
</g>
<!-- Node59814&#45;&gt;Node59900 -->
<g id="edge23" class="edge">
<title>Node59814&#45;&gt;Node59900</title>
<path fill="none" stroke="#191970" d="M412.8392,-379.3283C426.8796,-371.9135 446.7084,-361.3821 464,-351.9771 480.0789,-343.2317 483.0082,-338.7808 500,-331.9771 530.6443,-319.7067 615.4196,-298.9853 670.0578,-286.1945"/>
<polygon fill="#191970" stroke="#191970" points="670.9453,-289.5816 679.8894,-283.9023 669.3559,-282.7644 670.9453,-289.5816"/>
</g>
<!-- Node59815&#45;&gt;Node59787 -->
<g id="edge21" class="edge">
<title>Node59815&#45;&gt;Node59787</title>
<path fill="none" stroke="#191970" d="M604.2345,-360.5661C624.3993,-365.558 649.2479,-371.7095 670.6611,-377.0104"/>
<polygon fill="#191970" stroke="#191970" points="669.9959,-380.4514 680.544,-379.457 671.6781,-373.6565 669.9959,-380.4514"/>
</g>
<!-- Node59815&#45;&gt;Node59790 -->
<g id="edge22" class="edge">
<title>Node59815&#45;&gt;Node59790</title>
<path fill="none" stroke="#191970" d="M615.204,-350.9771C664.72,-350.9771 741.1768,-350.9771 796.7565,-350.9771"/>
<polygon fill="#191970" stroke="#191970" points="796.8804,-354.4772 806.8804,-350.9771 796.8803,-347.4772 796.8804,-354.4772"/>
</g>
<!-- Node59815&#45;&gt;Node59813 -->
<g id="edge20" class="edge">
<title>Node59815&#45;&gt;Node59813</title>
<path fill="none" stroke="#191970" d="M603.3171,-341.4286C657.9464,-327.6351 758.9237,-302.1392 818.6638,-287.0553"/>
<polygon fill="#191970" stroke="#191970" points="819.762,-290.388 828.6009,-284.5463 818.0483,-283.601 819.762,-290.388"/>
</g>
<!-- Node59815&#45;&gt;Node59900 -->
<g id="edge19" class="edge">
<title>Node59815&#45;&gt;Node59900</title>
<path fill="none" stroke="#191970" d="M597.6903,-341.4109C608.5877,-337.5966 620.6194,-332.731 631,-326.9771 648.7285,-317.1503 649.6849,-309.5152 667,-298.9771 672.9919,-295.3303 679.6304,-291.8709 686.1039,-288.7725"/>
<polygon fill="#191970" stroke="#191970" points="687.7511,-291.8675 695.376,-284.5115 684.828,-285.507 687.7511,-291.8675"/>
</g>
<!-- Node59830&#45;&gt;Node59786 -->
<g id="edge28" class="edge">
<title>Node59830&#45;&gt;Node59786</title>
<path fill="none" stroke="#191970" d="M436.7697,-426.9771C457.0964,-426.9771 481.847,-426.9771 504.1944,-426.9771"/>
<polygon fill="#191970" stroke="#191970" points="504.2686,-430.4772 514.2686,-426.9771 504.2685,-423.4772 504.2686,-430.4772"/>
</g>
<!-- Node59830&#45;&gt;Node59813 -->
<g id="edge27" class="edge">
<title>Node59830&#45;&gt;Node59813</title>
<path fill="none" stroke="#191970" d="M436.618,-417.6167C455.8395,-413.8042 478.9607,-409.8565 500,-407.9771 500,-407.9771 771,-407.9771 771,-407.9771 802.5828,-387.9905 785.1433,-362.2958 807,-331.9771 818.0109,-316.7032 833.4285,-302.0672 845.8105,-291.451"/>
<polygon fill="#191970" stroke="#191970" points="848.3665,-293.8768 853.8062,-284.785 843.8841,-288.5002 848.3665,-293.8768"/>
</g>
<!-- Node60180&#45;&gt;Node59792 -->
<g id="edge31" class="edge">
<title>Node60180&#45;&gt;Node59792</title>
<path fill="none" stroke="#191970" d="M446.2697,-274.9771C465.7738,-274.9771 488.0669,-274.9771 508.0583,-274.9771"/>
<polygon fill="#191970" stroke="#191970" points="508.2757,-278.4772 518.2757,-274.9771 508.2756,-271.4772 508.2757,-278.4772"/>
</g>
<!-- Node60099 -->
<g id="node23" class="node">
<title>Node60099</title>
<g id="a_node23"><a xlink:href="quickjs_8c.html#aa2ef5af1544a3012f91a80c98c326b8f" target="_top" xlink:title="JS_NewAtom">
<polygon fill="none" stroke="#ff0000" points="527,-227.4771 527,-246.4771 604,-246.4771 604,-227.4771 527,-227.4771"/>
<text text-anchor="middle" x="565.5" y="-234.4771" font-family="Helvetica,sans-Serif" font-size="10.00" fill="#000000">JS_NewAtom</text>
</a>
</g>
</g>
<!-- Node60180&#45;&gt;Node60099 -->
<g id="edge30" class="edge">
<title>Node60180&#45;&gt;Node60099</title>
<path fill="none" stroke="#191970" d="M437.6505,-265.3881C461.7382,-260.0353 491.8254,-253.3492 516.7604,-247.8081"/>
<polygon fill="#191970" stroke="#191970" points="517.7416,-251.1755 526.7442,-245.5895 516.2231,-244.3422 517.7416,-251.1755"/>
</g>
<!-- Node60181&#45;&gt;Node60099 -->
<g id="edge35" class="edge">
<title>Node60181&#45;&gt;Node60099</title>
<path fill="none" stroke="#191970" d="M446.7348,-236.9771C469.0347,-236.9771 494.9113,-236.9771 516.8074,-236.9771"/>
<polygon fill="#191970" stroke="#191970" points="516.8811,-240.4772 526.881,-236.9771 516.881,-233.4772 516.8811,-240.4772"/>
</g>
<!-- Node60181&#45;&gt;Node59825 -->
<g id="edge33" class="edge">
<title>Node60181&#45;&gt;Node59825</title>
<path fill="none" stroke="#191970" d="M435.8494,-227.4613C445.2507,-224.8079 455.0889,-221.6325 464,-217.9771 492.2136,-206.4037 522.4303,-188.6709 542.4872,-176.0604"/>
<polygon fill="#191970" stroke="#191970" points="544.3944,-178.9953 550.9438,-170.6673 540.6305,-173.0933 544.3944,-178.9953"/>
</g>
<!-- Node59825&#45;&gt;Node59791 -->
<g id="edge34" class="edge">
<title>Node59825&#45;&gt;Node59791</title>
<path fill="none" stroke="#191970" d="M604.2345,-151.3881C624.6293,-146.3392 649.8154,-140.1042 671.3925,-134.7627"/>
<polygon fill="#191970" stroke="#191970" points="672.4732,-138.1008 681.3391,-132.3003 670.7911,-131.306 672.4732,-138.1008"/>
</g>
<!-- Node60047&#45;&gt;Node59825 -->
<g id="edge37" class="edge">
<title>Node60047&#45;&gt;Node59825</title>
<path fill="none" stroke="#191970" d="M436.3313,-132.2729C459.3604,-137.3905 488.1673,-143.792 512.7296,-149.2503"/>
<polygon fill="#191970" stroke="#191970" points="512.093,-152.6942 522.6141,-151.4469 513.6115,-145.8609 512.093,-152.6942"/>
</g>
<!-- Node60043&#45;&gt;Node59825 -->
<g id="edge39" class="edge">
<title>Node60043&#45;&gt;Node59825</title>
<path fill="none" stroke="#191970" d="M437.6505,-189.3881C460.4191,-184.3284 488.5482,-178.0775 512.6194,-172.7283"/>
<polygon fill="#191970" stroke="#191970" points="513.6572,-176.0832 522.6598,-170.4971 512.1386,-169.2499 513.6572,-176.0832"/>
</g>
</g>
</svg>
        <g id="navigator" transform="translate(0 0)" fill="#404254">
                <rect fill="#f2f5e9" fill-opacity="0.5" stroke="#606060" stroke-width=".5" x="0" y="0" width="60" height="60"/>
                <use id="zoomplus" xlink:href="#zoomPlus" x="17" y="9" onmousedown="handleZoom(evt,'in')"/>
                <use id="zoomminus" xlink:href="#zoomMin" x="42" y="9" onmousedown="handleZoom(evt,'out')"/>
                <use id="reset" xlink:href="#resetDef" x="30" y="36" onmousedown="handleReset()"/>
                <g id="arrowUp" xlink:href="#dirArrow" transform="translate(30 24)" onmousedown="handlePan(0,-1)">
                  <use xlink:href="#rim" fill="#404040">
                        <set attributeName="fill" to="#808080" begin="arrowUp.mouseover" end="arrowUp.mouseout"/>
                  </use>
                  <path fill="none" stroke="white" stroke-width="1.5" d="M0,-3.0v7 M-2.5,-0.5L0,-3.0L2.5,-0.5"/>
                </g>
                <g id="arrowRight" xlink:href="#dirArrow" transform="rotate(90) translate(36 -43)" onmousedown="handlePan(1,0)">
                  <use xlink:href="#rim" fill="#404040">
                        <set attributeName="fill" to="#808080" begin="arrowRight.mouseover" end="arrowRight.mouseout"/>
                  </use>
                  <path fill="none" stroke="white" stroke-width="1.5" d="M0,-3.0v7 M-2.5,-0.5L0,-3.0L2.5,-0.5"/>
                </g>
                <g id="arrowDown" xlink:href="#dirArrow" transform="rotate(180) translate(-30 -48)" onmousedown="handlePan(0,1)">
                  <use xlink:href="#rim" fill="#404040">
                        <set attributeName="fill" to="#808080" begin="arrowDown.mouseover" end="arrowDown.mouseout"/>
                  </use>
                  <path fill="none" stroke="white" stroke-width="1.5" d="M0,-3.0v7 M-2.5,-0.5L0,-3.0L2.5,-0.5"/>
                </g>
                <g id="arrowLeft" xlink:href="#dirArrow" transform="rotate(270) translate(-36 17)" onmousedown="handlePan(-1,0)">
                  <use xlink:href="#rim" fill="#404040">
                        <set attributeName="fill" to="#808080" begin="arrowLeft.mouseover" end="arrowLeft.mouseout"/>
                  </use>
                  <path fill="none" stroke="white" stroke-width="1.5" d="M0,-3.0v7 M-2.5,-0.5L0,-3.0L2.5,-0.5"/>
                </g>
        </g>
        <svg viewBox="0 0 15 15" width="100%" height="30px" preserveAspectRatio="xMaxYMin meet">
         <g id="arrow_out" transform="scale(0.3 0.3)">
          <a xlink:href="quickjs_8c_a442ff496ba00319ad39eb0a129b9eb8b_cgraph_org.svg" target="_base">
           <rect id="button" ry="5" rx="5" y="6" x="6" height="38" width="38"
                fill="#f2f5e9" fill-opacity="0.5" stroke="#606060" stroke-width="1.0"/>
           <path id="arrow"
             d="M 11.500037,31.436501 C 11.940474,20.09759 22.043105,11.32322 32.158766,21.979434 L 37.068811,17.246167 C 37.068811,17.246167 37.088388,32 37.088388,32 L 22.160133,31.978069 C 22.160133,31.978069 26.997745,27.140456 26.997745,27.140456 C 18.528582,18.264221 13.291696,25.230495 11.500037,31.436501 z"
             style="fill:#404040;"/>
          </a>
         </g>
        </svg>
</svg>
