<?xml version="1.0" encoding="UTF-8" standalone="no"?>
<!DOCTYPE svg PUBLIC "-//W3C//DTD SVG 1.1//EN"
 "http://www.w3.org/Graphics/SVG/1.1/DTD/svg11.dtd">
<!-- Generated by graphviz version 2.40.1 (20161225.0304)
 -->
<!-- Title: bc_get_sleb128 Pages: 1 -->
<svg width="483pt" height="47pt"
 viewBox="0.00 0.00 483.00 47.00" xmlns="http://www.w3.org/2000/svg" xmlns:xlink="http://www.w3.org/1999/xlink">
<g id="graph0" class="graph" transform="scale(1 1) rotate(0) translate(4 43)">
<title>bc_get_sleb128</title>
<!-- Node381787 -->
<g id="node1" class="node">
<title>Node381787</title>
<polygon fill="#bfbfbf" stroke="#000000" points="0,-.5 0,-19.5 85,-19.5 85,-.5 0,-.5"/>
<text text-anchor="middle" x="42.5" y="-7.5" font-family="Helvetica,sans-Serif" font-size="10.00" fill="#000000">bc_get_sleb128</text>
</g>
<!-- Node381788 -->
<g id="node2" class="node">
<title>Node381788</title>
<g id="a_node2"><a xlink:href="quickjs_8c.html#a9521065b30ddae4ec518a195486c83c8" target="_top" xlink:title="JS_ReadBigNum">
<polygon fill="none" stroke="#000000" points="121,-19.5 121,-38.5 213,-38.5 213,-19.5 121,-19.5"/>
<text text-anchor="middle" x="167" y="-26.5" font-family="Helvetica,sans-Serif" font-size="10.00" fill="#000000">JS_ReadBigNum</text>
</a>
</g>
</g>
<!-- Node381787&#45;&gt;Node381788 -->
<g id="edge1" class="edge">
<title>Node381787&#45;&gt;Node381788</title>
<path fill="none" stroke="#191970" d="M95.4266,-18.0772C103.8198,-19.358 112.4444,-20.6742 120.6712,-21.9297"/>
<polygon fill="#191970" stroke="#191970" points="95.7594,-14.5875 85.3458,-16.5387 94.7033,-21.5074 95.7594,-14.5875"/>
</g>
<!-- Node381789 -->
<g id="node3" class="node">
<title>Node381789</title>
<g id="a_node3"><a xlink:href="quickjs_8c.html#a4b8ef2bb3b35e4a5f6ed8bd837a50e7c" target="_top" xlink:title="JS_ReadObjectRec">
<polygon fill="none" stroke="#000000" points="249,-.5 249,-19.5 353,-19.5 353,-.5 249,-.5"/>
<text text-anchor="middle" x="301" y="-7.5" font-family="Helvetica,sans-Serif" font-size="10.00" fill="#000000">JS_ReadObjectRec</text>
</a>
</g>
</g>
<!-- Node381787&#45;&gt;Node381789 -->
<g id="edge5" class="edge">
<title>Node381787&#45;&gt;Node381789</title>
<path fill="none" stroke="#191970" d="M95.3024,-10C140.1656,-10 204.2105,-10 248.8782,-10"/>
<polygon fill="#191970" stroke="#191970" points="95.1861,-6.5001 85.186,-10 95.186,-13.5001 95.1861,-6.5001"/>
</g>
<!-- Node381788&#45;&gt;Node381789 -->
<g id="edge2" class="edge">
<title>Node381788&#45;&gt;Node381789</title>
<path fill="none" stroke="#191970" d="M223.2855,-21.0192C231.7494,-19.8191 240.4474,-18.5858 248.8204,-17.3986"/>
<polygon fill="#191970" stroke="#191970" points="222.5248,-17.592 213.1152,-22.4613 223.5075,-24.5227 222.5248,-17.592"/>
</g>
<!-- Node381789&#45;&gt;Node381789 -->
<g id="edge3" class="edge">
<title>Node381789&#45;&gt;Node381789</title>
<path fill="none" stroke="#191970" d="M276.8186,-29.0292C278.1376,-34.128 286.1981,-38 301,-38 324.1055,-38 330.7844,-28.5653 321.0368,-19.7571"/>
<polygon fill="#191970" stroke="#191970" points="280.0776,-30.3148 280.9632,-19.7571 273.687,-27.4582 280.0776,-30.3148"/>
</g>
<!-- Node381790 -->
<g id="node4" class="node">
<title>Node381790</title>
<g id="a_node4"><a xlink:href="quickjs_8c.html#a12be2ea9c010752715072489497594e9" target="_top" xlink:title="JS_ReadObject">
<polygon fill="none" stroke="#ff0000" points="389,-.5 389,-19.5 475,-19.5 475,-.5 389,-.5"/>
<text text-anchor="middle" x="432" y="-7.5" font-family="Helvetica,sans-Serif" font-size="10.00" fill="#000000">JS_ReadObject</text>
</a>
</g>
</g>
<!-- Node381789&#45;&gt;Node381790 -->
<g id="edge4" class="edge">
<title>Node381789&#45;&gt;Node381790</title>
<path fill="none" stroke="#191970" d="M363.2525,-10C371.9182,-10 380.66,-10 388.8689,-10"/>
<polygon fill="#191970" stroke="#191970" points="363.1511,-6.5001 353.1511,-10 363.151,-13.5001 363.1511,-6.5001"/>
</g>
</g>
</svg>
