<?xml version="1.0" encoding="UTF-8" standalone="no"?>
<!DOCTYPE svg PUBLIC "-//W3C//DTD SVG 1.1//EN"
 "http://www.w3.org/Graphics/SVG/1.1/DTD/svg11.dtd">
<!-- Generated by graphviz version 2.40.1 (20161225.0304)
 -->
<!-- Title: js_atom_concat_num Pages: 1 -->
<!--zoomable 207 -->
<svg id="main" version="1.1" xmlns="http://www.w3.org/2000/svg" xmlns:xlink="http://www.w3.org/1999/xlink" xml:space="preserve" onload="init(evt)">
<style type="text/css"><![CDATA[
.edge:hover path { stroke: red; }
.edge:hover polygon { stroke: red; fill: red; }
]]></style>
<script type="text/javascript"><![CDATA[
var edges = document.getElementsByTagName('g');
if (edges && edges.length) {
  for (var i=0;i<edges.length;i++) {
    if (edges[i].id.substr(0,4)=='edge') {
      edges[i].setAttribute('class','edge');
    }
  }
}
]]></script>
        <defs>
                <circle id="rim" cx="0" cy="0" r="7"/>
                <circle id="rim2" cx="0" cy="0" r="3.5"/>
                <g id="zoomPlus">
                        <use xlink:href="#rim" fill="#404040">
                                <set attributeName="fill" to="#808080" begin="zoomplus.mouseover" end="zoomplus.mouseout"/>
                        </use>
                        <path d="M-4,0h8M0,-4v8" fill="none" stroke="white" stroke-width="1.5" pointer-events="none"/>
                </g>
                <g id="zoomMin">
                        <use xlink:href="#rim" fill="#404040">
                                <set attributeName="fill" to="#808080" begin="zoomminus.mouseover" end="zoomminus.mouseout"/>
                        </use>
                        <path d="M-4,0h8" fill="none" stroke="white" stroke-width="1.5" pointer-events="none"/>
                </g>
                <g id="dirArrow">
                        <path fill="none" stroke="white" stroke-width="1.5" d="M0,-3.0v7 M-2.5,-0.5L0,-3.0L2.5,-0.5"/>
                </g>
               <g id="resetDef">
                       <use xlink:href="#rim2" fill="#404040">
                               <set attributeName="fill" to="#808080" begin="reset.mouseover" end="reset.mouseout"/>
                       </use>
               </g>
        </defs>

<script type="text/javascript">
var viewWidth = 797;
var viewHeight = 207;
var sectionId = 'dynsection-262';
</script>
<script xlink:href="svgpan.js"/>
<svg id="graph" class="graph">
<g id="viewport">
<title>js_atom_concat_num</title>
<!-- Node85710 -->
<g id="node1" class="node">
<title>Node85710</title>
<polygon fill="#bfbfbf" stroke="#000000" points="0,-88.5 0,-107.5 110,-107.5 110,-88.5 0,-88.5"/>
<text text-anchor="middle" x="55" y="-95.5" font-family="Helvetica,sans-Serif" font-size="10.00" fill="#000000">js_atom_concat_num</text>
</g>
<!-- Node85711 -->
<g id="node2" class="node">
<title>Node85711</title>
<g id="a_node2"><a xlink:href="quickjs_8c.html#a00eb789430243c24dab4a63ad6a79653" target="_top" xlink:title="js_parse_class">
<polygon fill="none" stroke="#000000" points="146,-88.5 146,-107.5 228,-107.5 228,-88.5 146,-88.5"/>
<text text-anchor="middle" x="187" y="-95.5" font-family="Helvetica,sans-Serif" font-size="10.00" fill="#000000">js_parse_class</text>
</a>
</g>
</g>
<!-- Node85710&#45;&gt;Node85711 -->
<g id="edge1" class="edge">
<title>Node85710&#45;&gt;Node85711</title>
<path fill="none" stroke="#191970" d="M120.3074,-98C128.9409,-98 137.5902,-98 145.6644,-98"/>
<polygon fill="#191970" stroke="#191970" points="120.2151,-94.5001 110.2151,-98 120.215,-101.5001 120.2151,-94.5001"/>
</g>
<!-- Node85712 -->
<g id="node3" class="node">
<title>Node85712</title>
<g id="a_node3"><a xlink:href="quickjs_8c.html#acdcc62310b4f6f73fa7bc7267b18b1d4" target="_top" xlink:title="js_parse_postfix_expr">
<polygon fill="none" stroke="#000000" points="264,-113.5 264,-132.5 376,-132.5 376,-113.5 264,-113.5"/>
<text text-anchor="middle" x="320" y="-120.5" font-family="Helvetica,sans-Serif" font-size="10.00" fill="#000000">js_parse_postfix_expr</text>
</a>
</g>
</g>
<!-- Node85711&#45;&gt;Node85712 -->
<g id="edge2" class="edge">
<title>Node85711&#45;&gt;Node85712</title>
<path fill="none" stroke="#191970" d="M238.4545,-101.0778C258.797,-104.4733 281.1219,-109.1238 297.2617,-113.4942"/>
<polygon fill="#191970" stroke="#191970" points="238.7785,-97.5855 228.353,-99.4718 237.6793,-104.4987 238.7785,-97.5855"/>
</g>
<!-- Node85715 -->
<g id="node6" class="node">
<title>Node85715</title>
<g id="a_node6"><a xlink:href="quickjs_8c.html#a9d844c16dcc71701436848074337d32c" target="_top" xlink:title="js_parse_statement\l_or_decl">
<polygon fill="none" stroke="#ff0000" points="687,-114 687,-144 789,-144 789,-114 687,-114"/>
<text text-anchor="start" x="695" y="-132" font-family="Helvetica,sans-Serif" font-size="10.00" fill="#000000">js_parse_statement</text>
<text text-anchor="middle" x="738" y="-121" font-family="Helvetica,sans-Serif" font-size="10.00" fill="#000000">_or_decl</text>
</a>
</g>
</g>
<!-- Node85711&#45;&gt;Node85715 -->
<g id="edge15" class="edge">
<title>Node85711&#45;&gt;Node85715</title>
<path fill="none" stroke="#191970" d="M236.1894,-86.332C301.1424,-72.5413 418.9887,-53.116 519,-67 582.7978,-75.8567 654.1381,-98.5704 697.5516,-113.9045"/>
<polygon fill="#191970" stroke="#191970" points="235.2613,-82.9518 226.2298,-88.491 236.7444,-89.7929 235.2613,-82.9518"/>
</g>
<!-- Node85722 -->
<g id="node8" class="node">
<title>Node85722</title>
<g id="a_node8"><a xlink:href="quickjs_8c.html#a498e1d5c7de1b59c1630e9847cde1e41" target="_top" xlink:title="js_parse_export">
<polygon fill="none" stroke="#ff0000" points="277,-.5 277,-19.5 363,-19.5 363,-.5 277,-.5"/>
<text text-anchor="middle" x="320" y="-7.5" font-family="Helvetica,sans-Serif" font-size="10.00" fill="#000000">js_parse_export</text>
</a>
</g>
</g>
<!-- Node85711&#45;&gt;Node85722 -->
<g id="edge16" class="edge">
<title>Node85711&#45;&gt;Node85722</title>
<path fill="none" stroke="#191970" d="M204.177,-81.2213C219.09,-67.2928 241.7321,-47.6273 264,-34 273.1123,-28.4235 283.7511,-23.5115 293.2935,-19.6077"/>
<polygon fill="#191970" stroke="#191970" points="201.5736,-78.8671 196.7386,-88.2944 206.3973,-83.9399 201.5736,-78.8671"/>
</g>
<!-- Node85712&#45;&gt;Node85711 -->
<g id="edge3" class="edge">
<title>Node85712&#45;&gt;Node85711</title>
<path fill="none" stroke="#191970" d="M254.1094,-117.3643C238.1911,-114.3853 222.2261,-110.8818 209.8635,-107.5397"/>
<polygon fill="#191970" stroke="#191970" points="253.5197,-120.8143 263.9823,-119.1453 254.7624,-113.9255 253.5197,-120.8143"/>
</g>
<!-- Node85712&#45;&gt;Node85712 -->
<g id="edge11" class="edge">
<title>Node85712&#45;&gt;Node85712</title>
<path fill="none" stroke="#191970" d="M295.4465,-142.0292C296.7858,-147.128 304.9703,-151 320,-151 343.4609,-151 350.2426,-141.5653 340.345,-132.7571"/>
<polygon fill="#191970" stroke="#191970" points="298.709,-143.3096 299.655,-132.7571 292.3348,-140.4164 298.709,-143.3096"/>
</g>
<!-- Node85713 -->
<g id="node4" class="node">
<title>Node85713</title>
<g id="a_node4"><a xlink:href="quickjs_8c.html#aff9f2e2a1548acfc8307a4070bb444ec" target="_top" xlink:title="js_parse_destructing\l_element">
<polygon fill="none" stroke="#ff0000" points="412,-133 412,-163 519,-163 519,-133 412,-133"/>
<text text-anchor="start" x="420" y="-151" font-family="Helvetica,sans-Serif" font-size="10.00" fill="#000000">js_parse_destructing</text>
<text text-anchor="middle" x="465.5" y="-140" font-family="Helvetica,sans-Serif" font-size="10.00" fill="#000000">_element</text>
</a>
</g>
</g>
<!-- Node85712&#45;&gt;Node85713 -->
<g id="edge4" class="edge">
<title>Node85712&#45;&gt;Node85713</title>
<path fill="none" stroke="#191970" d="M386.3905,-127.6803C396.2004,-129.2948 406.1657,-131.1007 415.5655,-132.9743"/>
<polygon fill="#191970" stroke="#191970" points="386.679,-124.1824 376.2541,-126.0723 385.5822,-131.0959 386.679,-124.1824"/>
</g>
<!-- Node85717 -->
<g id="node5" class="node">
<title>Node85717</title>
<g id="a_node5"><a xlink:href="quickjs_8c.html#ac188b916dd086803591a67de7e7a85f6" target="_top" xlink:title="js_parse_for_in_of">
<polygon fill="none" stroke="#000000" points="555,-157.5 555,-176.5 651,-176.5 651,-157.5 555,-157.5"/>
<text text-anchor="middle" x="603" y="-164.5" font-family="Helvetica,sans-Serif" font-size="10.00" fill="#000000">js_parse_for_in_of</text>
</a>
</g>
</g>
<!-- Node85712&#45;&gt;Node85717 -->
<g id="edge14" class="edge">
<title>Node85712&#45;&gt;Node85717</title>
<path fill="none" stroke="#191970" d="M336.1519,-140.1014C353.1759,-156.7678 381.6846,-181.0125 412,-191 469.9295,-210.0851 542.3329,-189.7619 579.1331,-176.5187"/>
<polygon fill="#191970" stroke="#191970" points="338.2792,-137.2748 328.7596,-132.6242 333.3012,-142.1962 338.2792,-137.2748"/>
</g>
<!-- Node85729 -->
<g id="node7" class="node">
<title>Node85729</title>
<g id="a_node7"><a xlink:href="quickjs_8c.html#af99673e7430294cf15dc24dc5dac227f" target="_top" xlink:title="js_parse_unary">
<polygon fill="none" stroke="#ff0000" points="424,-76.5 424,-95.5 507,-95.5 507,-76.5 424,-76.5"/>
<text text-anchor="middle" x="465.5" y="-83.5" font-family="Helvetica,sans-Serif" font-size="10.00" fill="#000000">js_parse_unary</text>
</a>
</g>
</g>
<!-- Node85712&#45;&gt;Node85729 -->
<g id="edge12" class="edge">
<title>Node85712&#45;&gt;Node85729</title>
<path fill="none" stroke="#191970" d="M367.1639,-111.0064C386.8386,-106.0032 409.3744,-100.2725 427.9045,-95.5604"/>
<polygon fill="#191970" stroke="#191970" points="366.2988,-107.6149 357.4699,-113.4716 368.024,-114.399 366.2988,-107.6149"/>
</g>
<!-- Node85713&#45;&gt;Node85712 -->
<g id="edge6" class="edge">
<title>Node85713&#45;&gt;Node85712</title>
<path fill="none" stroke="#191970" d="M401.8334,-143.7637C381.7465,-140.5212 360.7211,-136.4216 345.0123,-132.5397"/>
<polygon fill="#191970" stroke="#191970" points="401.4851,-147.2515 411.9039,-145.3287 402.56,-140.3346 401.4851,-147.2515"/>
</g>
<!-- Node85713&#45;&gt;Node85713 -->
<g id="edge5" class="edge">
<title>Node85713&#45;&gt;Node85713</title>
<path fill="none" stroke="#191970" d="M441.3344,-173.4579C444.3337,-178.179 452.3889,-181.5 465.5,-181.5 487.0156,-181.5 494.9159,-172.5566 489.2008,-163.159"/>
<polygon fill="#191970" stroke="#191970" points="444.8447,-173.3066 441.7992,-163.159 437.8519,-172.991 444.8447,-173.3066"/>
</g>
<!-- Node85713&#45;&gt;Node85717 -->
<g id="edge7" class="edge">
<title>Node85713&#45;&gt;Node85717</title>
<path fill="none" stroke="#191970" d="M529.0956,-156.7878C537.7193,-157.9794 546.4518,-159.1861 554.7462,-160.3322"/>
<polygon fill="#191970" stroke="#191970" points="529.4398,-153.3021 519.0548,-155.4003 528.4816,-160.2363 529.4398,-153.3021"/>
</g>
<!-- Node85713&#45;&gt;Node85715 -->
<g id="edge10" class="edge">
<title>Node85713&#45;&gt;Node85715</title>
<path fill="none" stroke="#191970" d="M528.9944,-143.5729C577.0528,-140.222 642.2,-135.6796 686.916,-132.5618"/>
<polygon fill="#191970" stroke="#191970" points="528.7444,-140.0817 519.0121,-144.2689 529.2314,-147.0648 528.7444,-140.0817"/>
</g>
<!-- Node85717&#45;&gt;Node85715 -->
<g id="edge8" class="edge">
<title>Node85717&#45;&gt;Node85715</title>
<path fill="none" stroke="#191970" d="M646.9622,-154.6254C659.6945,-151.0415 673.7041,-147.0981 686.836,-143.4017"/>
<polygon fill="#191970" stroke="#191970" points="645.7438,-151.3323 637.0662,-157.411 647.6405,-158.0705 645.7438,-151.3323"/>
</g>
<!-- Node85715&#45;&gt;Node85715 -->
<g id="edge9" class="edge">
<title>Node85715&#45;&gt;Node85715</title>
<path fill="none" stroke="#191970" d="M714.1898,-154.4579C717.145,-159.179 725.0817,-162.5 738,-162.5 759.1992,-162.5 766.9833,-153.5566 761.3523,-144.159"/>
<polygon fill="#191970" stroke="#191970" points="717.7,-154.3046 714.6477,-144.159 710.7069,-153.9936 717.7,-154.3046"/>
</g>
<!-- Node85729&#45;&gt;Node85729 -->
<g id="edge13" class="edge">
<title>Node85729&#45;&gt;Node85729</title>
<path fill="none" stroke="#191970" d="M440.2025,-105.0292C441.5824,-110.128 450.0149,-114 465.5,-114 489.6719,-114 496.6591,-104.5653 486.4615,-95.7571"/>
<polygon fill="#191970" stroke="#191970" points="443.4728,-106.2982 444.5385,-95.7571 437.1319,-103.3329 443.4728,-106.2982"/>
</g>
</g>
</svg>
        <g id="navigator" transform="translate(0 0)" fill="#404254">
                <rect fill="#f2f5e9" fill-opacity="0.5" stroke="#606060" stroke-width=".5" x="0" y="0" width="60" height="60"/>
                <use id="zoomplus" xlink:href="#zoomPlus" x="17" y="9" onmousedown="handleZoom(evt,'in')"/>
                <use id="zoomminus" xlink:href="#zoomMin" x="42" y="9" onmousedown="handleZoom(evt,'out')"/>
                <use id="reset" xlink:href="#resetDef" x="30" y="36" onmousedown="handleReset()"/>
                <g id="arrowUp" xlink:href="#dirArrow" transform="translate(30 24)" onmousedown="handlePan(0,-1)">
                  <use xlink:href="#rim" fill="#404040">
                        <set attributeName="fill" to="#808080" begin="arrowUp.mouseover" end="arrowUp.mouseout"/>
                  </use>
                  <path fill="none" stroke="white" stroke-width="1.5" d="M0,-3.0v7 M-2.5,-0.5L0,-3.0L2.5,-0.5"/>
                </g>
                <g id="arrowRight" xlink:href="#dirArrow" transform="rotate(90) translate(36 -43)" onmousedown="handlePan(1,0)">
                  <use xlink:href="#rim" fill="#404040">
                        <set attributeName="fill" to="#808080" begin="arrowRight.mouseover" end="arrowRight.mouseout"/>
                  </use>
                  <path fill="none" stroke="white" stroke-width="1.5" d="M0,-3.0v7 M-2.5,-0.5L0,-3.0L2.5,-0.5"/>
                </g>
                <g id="arrowDown" xlink:href="#dirArrow" transform="rotate(180) translate(-30 -48)" onmousedown="handlePan(0,1)">
                  <use xlink:href="#rim" fill="#404040">
                        <set attributeName="fill" to="#808080" begin="arrowDown.mouseover" end="arrowDown.mouseout"/>
                  </use>
                  <path fill="none" stroke="white" stroke-width="1.5" d="M0,-3.0v7 M-2.5,-0.5L0,-3.0L2.5,-0.5"/>
                </g>
                <g id="arrowLeft" xlink:href="#dirArrow" transform="rotate(270) translate(-36 17)" onmousedown="handlePan(-1,0)">
                  <use xlink:href="#rim" fill="#404040">
                        <set attributeName="fill" to="#808080" begin="arrowLeft.mouseover" end="arrowLeft.mouseout"/>
                  </use>
                  <path fill="none" stroke="white" stroke-width="1.5" d="M0,-3.0v7 M-2.5,-0.5L0,-3.0L2.5,-0.5"/>
                </g>
        </g>
        <svg viewBox="0 0 15 15" width="100%" height="30px" preserveAspectRatio="xMaxYMin meet">
         <g id="arrow_out" transform="scale(0.3 0.3)">
          <a xlink:href="quickjs_8c_aa38698096df1fd806b60ab8b209fa4a8_icgraph_org.svg" target="_base">
           <rect id="button" ry="5" rx="5" y="6" x="6" height="38" width="38"
                fill="#f2f5e9" fill-opacity="0.5" stroke="#606060" stroke-width="1.0"/>
           <path id="arrow"
             d="M 11.500037,31.436501 C 11.940474,20.09759 22.043105,11.32322 32.158766,21.979434 L 37.068811,17.246167 C 37.068811,17.246167 37.088388,32 37.088388,32 L 22.160133,31.978069 C 22.160133,31.978069 26.997745,27.140456 26.997745,27.140456 C 18.528582,18.264221 13.291696,25.230495 11.500037,31.436501 z"
             style="fill:#404040;"/>
          </a>
         </g>
        </svg>
</svg>
