<?xml version="1.0" encoding="UTF-8" standalone="no"?>
<!DOCTYPE svg PUBLIC "-//W3C//DTD SVG 1.1//EN"
 "http://www.w3.org/Graphics/SVG/1.1/DTD/svg11.dtd">
<!-- Generated by graphviz version 2.40.1 (20161225.0304)
 -->
<!-- Title: add_gc_object Pages: 1 -->
<svg width="1245pt" height="695pt"
 viewBox="0.00 0.00 1245.00 694.83" xmlns="http://www.w3.org/2000/svg" xmlns:xlink="http://www.w3.org/1999/xlink">
<g id="graph0" class="graph" transform="scale(1 1) rotate(0) translate(4 690.8268)">
<title>add_gc_object</title>
<!-- Node43744 -->
<g id="node1" class="node">
<title>Node43744</title>
<polygon fill="#bfbfbf" stroke="#000000" points="0,-188.5 0,-207.5 80,-207.5 80,-188.5 0,-188.5"/>
<text text-anchor="middle" x="40" y="-195.5" font-family="Helvetica,sans-Serif" font-size="10.00" fill="#000000">add_gc_object</text>
</g>
<!-- Node43745 -->
<g id="node2" class="node">
<title>Node43745</title>
<g id="a_node2"><a xlink:href="quickjs_8c.html#a344894112559c2ba75043fd10bcfa02f" target="_top" xlink:title="close_lexical_var">
<polygon fill="none" stroke="#000000" points="628.5,-659.5 628.5,-678.5 720.5,-678.5 720.5,-659.5 628.5,-659.5"/>
<text text-anchor="middle" x="674.5" y="-666.5" font-family="Helvetica,sans-Serif" font-size="10.00" fill="#000000">close_lexical_var</text>
</a>
</g>
</g>
<!-- Node43744&#45;&gt;Node43745 -->
<g id="edge1" class="edge">
<title>Node43744&#45;&gt;Node43745</title>
<path fill="none" stroke="#191970" d="M42.3605,-218.0626C50.3965,-283.7661 78.2979,-491.3912 116,-546 230.7923,-712.2686 515.9994,-691.9199 628.151,-676.581"/>
<polygon fill="#191970" stroke="#191970" points="45.7986,-217.3374 41.1301,-207.8266 38.8487,-218.1728 45.7986,-217.3374"/>
</g>
<!-- Node44332 -->
<g id="node8" class="node">
<title>Node44332</title>
<g id="a_node8"><a xlink:href="quickjs_8c.html#a1782043fce951bd4f0d91c7796b31e24" target="_top" xlink:title="close_var_refs">
<polygon fill="none" stroke="#000000" points="134,-517.5 134,-536.5 214,-536.5 214,-517.5 134,-517.5"/>
<text text-anchor="middle" x="174" y="-524.5" font-family="Helvetica,sans-Serif" font-size="10.00" fill="#000000">close_var_refs</text>
</a>
</g>
</g>
<!-- Node43744&#45;&gt;Node44332 -->
<g id="edge11" class="edge">
<title>Node43744&#45;&gt;Node44332</title>
<path fill="none" stroke="#191970" d="M47.8247,-217.2113C73.0064,-279.038 151.3908,-471.4894 170.0053,-517.1921"/>
<polygon fill="#191970" stroke="#191970" points="51.0239,-215.7874 44.0104,-207.8463 44.541,-218.4279 51.0239,-215.7874"/>
</g>
<!-- Node43756 -->
<g id="node14" class="node">
<title>Node43756</title>
<g id="a_node14"><a xlink:href="quickjs_8c.html#a8029b29b8458274699fbcb7ce42a7100" target="_top" xlink:title="js_async_function_call">
<polygon fill="none" stroke="#ff0000" points="116,-112.5 116,-131.5 232,-131.5 232,-112.5 116,-112.5"/>
<text text-anchor="middle" x="174" y="-119.5" font-family="Helvetica,sans-Serif" font-size="10.00" fill="#000000">js_async_function_call</text>
</a>
</g>
</g>
<!-- Node43744&#45;&gt;Node43756 -->
<g id="edge18" class="edge">
<title>Node43744&#45;&gt;Node43756</title>
<path fill="none" stroke="#191970" d="M60.4085,-182.3122C75.3023,-171.2996 96.2555,-156.6891 116,-146 126.0624,-140.5525 137.6277,-135.5362 147.7703,-131.5137"/>
<polygon fill="#191970" stroke="#191970" points="58.2938,-179.5232 52.3944,-188.3237 62.4942,-185.1229 58.2938,-179.5232"/>
</g>
<!-- Node44342 -->
<g id="node15" class="node">
<title>Node44342</title>
<g id="a_node15"><a xlink:href="quickjs_8c.html#a8e34657169da77ae6a386311351ed3de" target="_top" xlink:title="js_clone_shape">
<polygon fill="none" stroke="#000000" points="132,-331.5 132,-350.5 216,-350.5 216,-331.5 132,-331.5"/>
<text text-anchor="middle" x="174" y="-338.5" font-family="Helvetica,sans-Serif" font-size="10.00" fill="#000000">js_clone_shape</text>
</a>
</g>
</g>
<!-- Node43744&#45;&gt;Node44342 -->
<g id="edge19" class="edge">
<title>Node43744&#45;&gt;Node44342</title>
<path fill="none" stroke="#191970" d="M56.0729,-215.1524C84.514,-245.5038 142.8056,-307.7104 165.0781,-331.4789"/>
<polygon fill="#191970" stroke="#191970" points="58.6021,-212.7327 49.2104,-207.829 53.4942,-217.5192 58.6021,-212.7327"/>
</g>
<!-- Node44350 -->
<g id="node20" class="node">
<title>Node44350</title>
<g id="a_node20"><a xlink:href="quickjs_8c.html#a030c2e98b1775a7e3bdd13be1400b1fe" target="_top" xlink:title="JS_NewObjectFromShape">
<polygon fill="none" stroke="#ff0000" points="436,-255.5 436,-274.5 569,-274.5 569,-255.5 436,-255.5"/>
<text text-anchor="middle" x="502.5" y="-262.5" font-family="Helvetica,sans-Serif" font-size="10.00" fill="#000000">JS_NewObjectFromShape</text>
</a>
</g>
</g>
<!-- Node43744&#45;&gt;Node44350 -->
<g id="edge45" class="edge">
<title>Node43744&#45;&gt;Node44350</title>
<path fill="none" stroke="#191970" d="M90.125,-207.5702C98.7437,-209.1193 107.6214,-210.6545 116,-212 227.8433,-229.9601 358.5164,-247.0746 435.6777,-256.7826"/>
<polygon fill="#191970" stroke="#191970" points="90.6373,-204.106 80.1717,-205.7559 89.382,-210.9926 90.6373,-204.106"/>
</g>
<!-- Node44129 -->
<g id="node26" class="node">
<title>Node44129</title>
<g id="a_node26"><a xlink:href="quickjs_8c.html#a97fcc747d8b1c3644174745d2e2739be" target="_top" xlink:title="js_create_function">
<polygon fill="none" stroke="#ff0000" points="126,-56.5 126,-75.5 222,-75.5 222,-56.5 126,-56.5"/>
<text text-anchor="middle" x="174" y="-63.5" font-family="Helvetica,sans-Serif" font-size="10.00" fill="#000000">js_create_function</text>
</a>
</g>
</g>
<!-- Node43744&#45;&gt;Node44129 -->
<g id="edge36" class="edge">
<title>Node43744&#45;&gt;Node44129</title>
<path fill="none" stroke="#191970" d="M51.7802,-179.9025C65.5599,-159.6195 89.8401,-126.503 116,-103 128.0832,-92.144 143.6972,-82.3801 155.6802,-75.6118"/>
<polygon fill="#191970" stroke="#191970" points="48.8574,-177.9769 46.2188,-188.238 54.6803,-181.862 48.8574,-177.9769"/>
</g>
<!-- Node44372 -->
<g id="node27" class="node">
<title>Node44372</title>
<g id="a_node27"><a xlink:href="quickjs_8c.html#a66b74f17c8f724e92b6d7e3856e12b1e" target="_top" xlink:title="js_create_module_var">
<polygon fill="none" stroke="#000000" points="618.5,-141.5 618.5,-160.5 730.5,-160.5 730.5,-141.5 618.5,-141.5"/>
<text text-anchor="middle" x="674.5" y="-148.5" font-family="Helvetica,sans-Serif" font-size="10.00" fill="#000000">js_create_module_var</text>
</a>
</g>
</g>
<!-- Node43744&#45;&gt;Node44372 -->
<g id="edge38" class="edge">
<title>Node43744&#45;&gt;Node44372</title>
<path fill="none" stroke="#191970" d="M90.3999,-193.5909C136.5891,-189.5999 206.8768,-183.6517 268,-179 393.0254,-169.4852 539.7935,-159.7231 618.2594,-154.6175"/>
<polygon fill="#191970" stroke="#191970" points="90.0086,-190.1116 80.3479,-194.4614 90.6126,-197.0855 90.0086,-190.1116"/>
</g>
<!-- Node44373 -->
<g id="node28" class="node">
<title>Node44373</title>
<g id="a_node28"><a xlink:href="quickjs_8c.html#a1030d2020be7d911eb62869f21cc3b70" target="_top" xlink:title="js_new_shape2">
<polygon fill="none" stroke="#000000" points="290,-188.5 290,-207.5 374,-207.5 374,-188.5 290,-188.5"/>
<text text-anchor="middle" x="332" y="-195.5" font-family="Helvetica,sans-Serif" font-size="10.00" fill="#000000">js_new_shape2</text>
</a>
</g>
</g>
<!-- Node43744&#45;&gt;Node44373 -->
<g id="edge41" class="edge">
<title>Node43744&#45;&gt;Node44373</title>
<path fill="none" stroke="#191970" d="M90.4035,-198C146.7424,-198 236.9696,-198 289.7552,-198"/>
<polygon fill="#191970" stroke="#191970" points="90.2948,-194.5001 80.2948,-198 90.2947,-201.5001 90.2948,-194.5001"/>
</g>
<!-- Node43952 -->
<g id="node30" class="node">
<title>Node43952</title>
<g id="a_node30"><a xlink:href="quickjs_8c.html#a4b8ef2bb3b35e4a5f6ed8bd837a50e7c" target="_top" xlink:title="JS_ReadObjectRec">
<polygon fill="none" stroke="#ff0000" points="122,-.5 122,-19.5 226,-19.5 226,-.5 122,-.5"/>
<text text-anchor="middle" x="174" y="-7.5" font-family="Helvetica,sans-Serif" font-size="10.00" fill="#000000">JS_ReadObjectRec</text>
</a>
</g>
</g>
<!-- Node43744&#45;&gt;Node43952 -->
<g id="edge46" class="edge">
<title>Node43744&#45;&gt;Node43952</title>
<path fill="none" stroke="#191970" d="M46.0035,-178.5757C56.2858,-147.7844 79.7319,-87.1517 116,-47 126.488,-35.389 141.4298,-25.9724 153.5209,-19.5449"/>
<polygon fill="#191970" stroke="#191970" points="42.5488,-177.8849 42.8115,-188.4765 49.2112,-180.0329 42.5488,-177.8849"/>
</g>
<!-- Node43746 -->
<g id="node3" class="node">
<title>Node43746</title>
<g id="a_node3"><a xlink:href="quickjs_8c.html#ac2894ff4edcdb4e6841bcce9c76081e3" target="_top" xlink:title="JS_CallInternal">
<polygon fill="none" stroke="#000000" points="970,-369.5 970,-388.5 1053,-388.5 1053,-369.5 970,-369.5"/>
<text text-anchor="middle" x="1011.5" y="-376.5" font-family="Helvetica,sans-Serif" font-size="10.00" fill="#000000">JS_CallInternal</text>
</a>
</g>
</g>
<!-- Node43745&#45;&gt;Node43746 -->
<g id="edge2" class="edge">
<title>Node43745&#45;&gt;Node43746</title>
<path fill="none" stroke="#191970" d="M730.7519,-679.4807C785.041,-686.2421 866.6421,-687.1403 920,-645 963.0202,-611.0241 1000.9548,-432.0723 1009.6389,-388.5478"/>
<polygon fill="#191970" stroke="#191970" points="730.9891,-675.981 720.6105,-678.1103 730.0517,-682.918 730.9891,-675.981"/>
</g>
<!-- Node43746&#45;&gt;Node43746 -->
<g id="edge10" class="edge">
<title>Node43746&#45;&gt;Node43746</title>
<path fill="none" stroke="#191970" d="M982.0076,-397.6539C983.2404,-402.9368 993.0712,-407 1011.5,-407 1039.582,-407 1047.6995,-397.5653 1035.8524,-388.7571"/>
<polygon fill="#191970" stroke="#191970" points="985.1757,-399.1668 987.1476,-388.7571 979.1145,-395.665 985.1757,-399.1668"/>
</g>
<!-- Node43747 -->
<g id="node4" class="node">
<title>Node43747</title>
<g id="a_node4"><a xlink:href="quickjs_8c.html#ade71a22dc56e7371392393df663b28b3" target="_top" xlink:title="async_func_resume">
<polygon fill="none" stroke="#ff0000" points="1118,-445.5 1118,-464.5 1222,-464.5 1222,-445.5 1118,-445.5"/>
<text text-anchor="middle" x="1170" y="-452.5" font-family="Helvetica,sans-Serif" font-size="10.00" fill="#000000">async_func_resume</text>
</a>
</g>
</g>
<!-- Node43746&#45;&gt;Node43747 -->
<g id="edge3" class="edge">
<title>Node43746&#45;&gt;Node43747</title>
<path fill="none" stroke="#191970" d="M1032.7195,-394.6276C1050.6788,-407.2495 1077.4963,-424.7107 1103,-436 1111.2919,-439.6704 1120.4759,-442.821 1129.3177,-445.4413"/>
<polygon fill="#191970" stroke="#191970" points="1034.3591,-391.4972 1024.1893,-388.5266 1030.2869,-397.1909 1034.3591,-391.4972"/>
</g>
<!-- Node43759 -->
<g id="node5" class="node">
<title>Node43759</title>
<g id="a_node5"><a xlink:href="quickjs_8c.html#a1a4c02a29525d5cb2085dd8bca3af350" target="_top" xlink:title="JS_Call">
<polygon fill="none" stroke="#ff0000" points="1144.5,-407.5 1144.5,-426.5 1195.5,-426.5 1195.5,-407.5 1144.5,-407.5"/>
<text text-anchor="middle" x="1170" y="-414.5" font-family="Helvetica,sans-Serif" font-size="10.00" fill="#000000">JS_Call</text>
</a>
</g>
</g>
<!-- Node43746&#45;&gt;Node43759 -->
<g id="edge4" class="edge">
<title>Node43746&#45;&gt;Node43759</title>
<path fill="none" stroke="#191970" d="M1063.3167,-385.046C1092.8504,-391.292 1128.1827,-400.3286 1149.8555,-407.4908"/>
<polygon fill="#191970" stroke="#191970" points="1063.6432,-381.5403 1053.144,-382.9608 1062.2375,-388.3977 1063.6432,-381.5403"/>
</g>
<!-- Node43829 -->
<g id="node6" class="node">
<title>Node43829</title>
<g id="a_node6"><a xlink:href="quickjs_8c.html#ad35594576a14c10812efaf958c99af8a" target="_top" xlink:title="JS_CallConstructorInternal">
<polygon fill="none" stroke="#ff0000" points="1103,-369.5 1103,-388.5 1237,-388.5 1237,-369.5 1103,-369.5"/>
<text text-anchor="middle" x="1170" y="-376.5" font-family="Helvetica,sans-Serif" font-size="10.00" fill="#000000">JS_CallConstructorInternal</text>
</a>
</g>
</g>
<!-- Node43746&#45;&gt;Node43829 -->
<g id="edge6" class="edge">
<title>Node43746&#45;&gt;Node43829</title>
<path fill="none" stroke="#191970" d="M1063.4488,-372.6194C1076.0495,-372.2653 1089.6992,-372.1658 1102.8894,-372.3209"/>
<polygon fill="#191970" stroke="#191970" points="1063.0167,-369.1322 1053.144,-372.9767 1063.2593,-376.128 1063.0167,-369.1322"/>
</g>
<!-- Node43843 -->
<g id="node7" class="node">
<title>Node43843</title>
<g id="a_node7"><a xlink:href="quickjs_8c.html#a75f6ee5e4235a7dc99889f3d2eb2c147" target="_top" xlink:title="JS_CallFree">
<polygon fill="none" stroke="#ff0000" points="1134.5,-331.5 1134.5,-350.5 1205.5,-350.5 1205.5,-331.5 1134.5,-331.5"/>
<text text-anchor="middle" x="1170" y="-338.5" font-family="Helvetica,sans-Serif" font-size="10.00" fill="#000000">JS_CallFree</text>
</a>
</g>
</g>
<!-- Node43746&#45;&gt;Node43843 -->
<g id="edge8" class="edge">
<title>Node43746&#45;&gt;Node43843</title>
<path fill="none" stroke="#191970" d="M1041.7147,-366.3194C1068.0843,-358.3573 1106.3863,-349.0705 1134.2697,-343.8175"/>
<polygon fill="#191970" stroke="#191970" points="1040.3857,-363.0684 1031.8966,-369.4076 1042.4861,-369.7458 1040.3857,-363.0684"/>
</g>
<!-- Node43759&#45;&gt;Node43746 -->
<g id="edge5" class="edge">
<title>Node43759&#45;&gt;Node43746</title>
<path fill="none" stroke="#191970" d="M1134.2889,-414.1861C1102.7031,-408.2367 1057.7373,-397.1078 1031.8966,-388.5924"/>
<polygon fill="#191970" stroke="#191970" points="1133.9819,-417.6864 1144.4407,-415.9939 1135.2092,-410.7949 1133.9819,-417.6864"/>
</g>
<!-- Node43829&#45;&gt;Node43746 -->
<g id="edge7" class="edge">
<title>Node43829&#45;&gt;Node43746</title>
<path fill="none" stroke="#191970" d="M1092.5344,-385.7485C1078.9407,-385.7717 1065.2769,-385.5299 1053.144,-385.0233"/>
<polygon fill="#191970" stroke="#191970" points="1092.9131,-389.2461 1102.8894,-385.6791 1092.8662,-382.2463 1092.9131,-389.2461"/>
</g>
<!-- Node43843&#45;&gt;Node43746 -->
<g id="edge9" class="edge">
<title>Node43843&#45;&gt;Node43746</title>
<path fill="none" stroke="#191970" d="M1140.0229,-353.6087C1115.4608,-361.0379 1080.4308,-369.6367 1053.144,-375.0392"/>
<polygon fill="#191970" stroke="#191970" points="1141.3704,-356.8538 1149.8555,-350.5092 1139.2658,-350.1777 1141.3704,-356.8538"/>
</g>
<!-- Node44332&#45;&gt;Node43746 -->
<g id="edge12" class="edge">
<title>Node44332&#45;&gt;Node43746</title>
<path fill="none" stroke="#191970" d="M222.5051,-539.2219C225.7265,-540.1329 228.9149,-541.063 232,-542 353.0997,-578.7816 375.9377,-631 502.5,-631 502.5,-631 502.5,-631 674.5,-631 839.6057,-631 975.8403,-434.6018 1005.5029,-388.571"/>
<polygon fill="#191970" stroke="#191970" points="223.3818,-535.8331 212.8118,-536.558 221.5268,-542.5829 223.3818,-535.8331"/>
</g>
<!-- Node44333 -->
<g id="node9" class="node">
<title>Node44333</title>
<g id="a_node9"><a xlink:href="quickjs_8c.html#ab3180b5caf3b66ac6db634e41e56a4ef" target="_top" xlink:title="async_func_free">
<polygon fill="none" stroke="#000000" points="287.5,-517.5 287.5,-536.5 376.5,-536.5 376.5,-517.5 287.5,-517.5"/>
<text text-anchor="middle" x="332" y="-524.5" font-family="Helvetica,sans-Serif" font-size="10.00" fill="#000000">async_func_free</text>
</a>
</g>
</g>
<!-- Node44332&#45;&gt;Node44333 -->
<g id="edge13" class="edge">
<title>Node44332&#45;&gt;Node44333</title>
<path fill="none" stroke="#191970" d="M224.5413,-527C244.7291,-527 267.7789,-527 287.3406,-527"/>
<polygon fill="#191970" stroke="#191970" points="224.2789,-523.5001 214.2789,-527 224.2789,-530.5001 224.2789,-523.5001"/>
</g>
<!-- Node44334 -->
<g id="node10" class="node">
<title>Node44334</title>
<g id="a_node10"><a xlink:href="quickjs_8c.html#a79e765cc00783901041f08e060c14287" target="_top" xlink:title="free_generator_stack_rt">
<polygon fill="none" stroke="#ff0000" points="443,-495.5 443,-514.5 562,-514.5 562,-495.5 443,-495.5"/>
<text text-anchor="middle" x="502.5" y="-502.5" font-family="Helvetica,sans-Serif" font-size="10.00" fill="#000000">free_generator_stack_rt</text>
</a>
</g>
</g>
<!-- Node44333&#45;&gt;Node44334 -->
<g id="edge14" class="edge">
<title>Node44333&#45;&gt;Node44334</title>
<path fill="none" stroke="#191970" d="M386.7929,-519.9299C404.7057,-517.6186 424.684,-515.0408 442.931,-512.6863"/>
<polygon fill="#191970" stroke="#191970" points="386.2667,-516.4687 376.7969,-521.2198 387.1626,-523.4112 386.2667,-516.4687"/>
</g>
<!-- Node44336 -->
<g id="node11" class="node">
<title>Node44336</title>
<g id="a_node11"><a xlink:href="quickjs_8c.html#a4b282353917b10409ca38b279b0b1dce" target="_top" xlink:title="js_async_function_terminate">
<polygon fill="none" stroke="#ff0000" points="432,-457.5 432,-476.5 573,-476.5 573,-457.5 432,-457.5"/>
<text text-anchor="middle" x="502.5" y="-464.5" font-family="Helvetica,sans-Serif" font-size="10.00" fill="#000000">js_async_function_terminate</text>
</a>
</g>
</g>
<!-- Node44333&#45;&gt;Node44336 -->
<g id="edge15" class="edge">
<title>Node44333&#45;&gt;Node44336</title>
<path fill="none" stroke="#191970" d="M362.5,-513.3251C382.1146,-504.8237 408.2796,-494.0235 432,-486 442.0867,-482.5881 453.1444,-479.3697 463.45,-476.585"/>
<polygon fill="#191970" stroke="#191970" points="360.9196,-510.1961 353.1626,-517.4127 363.7269,-516.6086 360.9196,-510.1961"/>
</g>
<!-- Node44340 -->
<g id="node12" class="node">
<title>Node44340</title>
<g id="a_node12"><a xlink:href="quickjs_8c.html#a0cf9a02011216d38f2e96ca71f8f274f" target="_top" xlink:title="js_async_generator_free">
<polygon fill="none" stroke="#ff0000" points="441,-583.5 441,-602.5 564,-602.5 564,-583.5 441,-583.5"/>
<text text-anchor="middle" x="502.5" y="-590.5" font-family="Helvetica,sans-Serif" font-size="10.00" fill="#000000">js_async_generator_free</text>
</a>
</g>
</g>
<!-- Node44333&#45;&gt;Node44340 -->
<g id="edge16" class="edge">
<title>Node44333&#45;&gt;Node44340</title>
<path fill="none" stroke="#191970" d="M359.0607,-541.3107C378.8718,-551.3913 406.6151,-564.6962 432,-574 441.6407,-577.5334 452.2386,-580.7329 462.2228,-583.4562"/>
<polygon fill="#191970" stroke="#191970" points="360.5103,-538.1204 350.0176,-536.6527 357.3049,-544.3434 360.5103,-538.1204"/>
</g>
<!-- Node44341 -->
<g id="node13" class="node">
<title>Node44341</title>
<g id="a_node13"><a xlink:href="quickjs_8c.html#ad753838f0911b2c87c2117e0d424e916" target="_top" xlink:title="js_async_generator\l_complete">
<polygon fill="none" stroke="#ff0000" points="452,-534 452,-564 553,-564 553,-534 452,-534"/>
<text text-anchor="start" x="460" y="-552" font-family="Helvetica,sans-Serif" font-size="10.00" fill="#000000">js_async_generator</text>
<text text-anchor="middle" x="502.5" y="-541" font-family="Helvetica,sans-Serif" font-size="10.00" fill="#000000">_complete</text>
</a>
</g>
</g>
<!-- Node44333&#45;&gt;Node44341 -->
<g id="edge17" class="edge">
<title>Node44333&#45;&gt;Node44341</title>
<path fill="none" stroke="#191970" d="M386.8161,-534.073C407.7404,-536.773 431.4805,-539.8362 451.986,-542.4821"/>
<polygon fill="#191970" stroke="#191970" points="387.1626,-530.5888 376.7969,-532.7802 386.2667,-537.5313 387.1626,-530.5888"/>
</g>
<!-- Node44343 -->
<g id="node16" class="node">
<title>Node44343</title>
<g id="a_node16"><a xlink:href="quickjs_8c.html#a74547db03bf739a52c83a326b32db997" target="_top" xlink:title="add_property">
<polygon fill="none" stroke="#ff0000" points="295.5,-331.5 295.5,-350.5 368.5,-350.5 368.5,-331.5 295.5,-331.5"/>
<text text-anchor="middle" x="332" y="-338.5" font-family="Helvetica,sans-Serif" font-size="10.00" fill="#000000">add_property</text>
</a>
</g>
</g>
<!-- Node44342&#45;&gt;Node44343 -->
<g id="edge20" class="edge">
<title>Node44342&#45;&gt;Node44343</title>
<path fill="none" stroke="#191970" d="M226.4681,-341C249.0796,-341 274.972,-341 295.4508,-341"/>
<polygon fill="#191970" stroke="#191970" points="226.3411,-337.5001 216.3411,-341 226.3411,-344.5001 226.3411,-337.5001"/>
</g>
<!-- Node44369 -->
<g id="node25" class="node">
<title>Node44369</title>
<g id="a_node25"><a xlink:href="quickjs_8c.html#a3dd8e78607dbc729614deacf55901b95" target="_top" xlink:title="js_shape_prepare_update">
<polygon fill="none" stroke="#ff0000" points="268,-391.5 268,-410.5 396,-410.5 396,-391.5 268,-391.5"/>
<text text-anchor="middle" x="332" y="-398.5" font-family="Helvetica,sans-Serif" font-size="10.00" fill="#000000">js_shape_prepare_update</text>
</a>
</g>
</g>
<!-- Node44342&#45;&gt;Node44369 -->
<g id="edge34" class="edge">
<title>Node44342&#45;&gt;Node44369</title>
<path fill="none" stroke="#191970" d="M208.5781,-354.1309C238.2335,-365.3925 280.2622,-381.3527 306.8205,-391.4382"/>
<polygon fill="#191970" stroke="#191970" points="209.6268,-350.7853 199.0356,-350.5072 207.1416,-357.3294 209.6268,-350.7853"/>
</g>
<!-- Node44343&#45;&gt;Node43746 -->
<g id="edge26" class="edge">
<title>Node44343&#45;&gt;Node43746</title>
<path fill="none" stroke="#191970" d="M379.0096,-348.546C395.7014,-350.9693 414.65,-353.43 432,-355 633.0697,-373.1947 874.652,-377.6109 969.9501,-378.6705"/>
<polygon fill="#191970" stroke="#191970" points="379.3485,-345.058 368.9427,-347.0502 378.3197,-351.982 379.3485,-345.058"/>
</g>
<!-- Node44344 -->
<g id="node17" class="node">
<title>Node44344</title>
<g id="a_node17"><a xlink:href="quickjs_8c.html#ac93c982cb636a5430b191d104083af3e" target="_top" xlink:title="convert_fast_array\l_to_array">
<polygon fill="none" stroke="#ff0000" points="453.5,-408 453.5,-438 551.5,-438 551.5,-408 453.5,-408"/>
<text text-anchor="start" x="461.5" y="-426" font-family="Helvetica,sans-Serif" font-size="10.00" fill="#000000">convert_fast_array</text>
<text text-anchor="middle" x="502.5" y="-415" font-family="Helvetica,sans-Serif" font-size="10.00" fill="#000000">_to_array</text>
</a>
</g>
</g>
<!-- Node44343&#45;&gt;Node44344 -->
<g id="edge21" class="edge">
<title>Node44343&#45;&gt;Node44344</title>
<path fill="none" stroke="#191970" d="M358.3316,-355.4015C378.3364,-366.1688 406.64,-381.0325 432,-393 442.8265,-398.1091 454.7542,-403.3337 465.6706,-407.9612"/>
<polygon fill="#191970" stroke="#191970" points="359.957,-352.3015 349.4961,-350.6218 356.6263,-358.4584 359.957,-352.3015"/>
</g>
<!-- Node44346 -->
<g id="node18" class="node">
<title>Node44346</title>
<g id="a_node18"><a xlink:href="quickjs_8c.html#a6a21784a40b8684f2e779bd460dd13b2" target="_top" xlink:title="JS_AddBrand">
<polygon fill="none" stroke="#000000" points="636,-331.5 636,-350.5 713,-350.5 713,-331.5 636,-331.5"/>
<text text-anchor="middle" x="674.5" y="-338.5" font-family="Helvetica,sans-Serif" font-size="10.00" fill="#000000">JS_AddBrand</text>
</a>
</g>
</g>
<!-- Node44343&#45;&gt;Node44346 -->
<g id="edge22" class="edge">
<title>Node44343&#45;&gt;Node44346</title>
<path fill="none" stroke="#191970" d="M378.6822,-341C446.852,-341 572.3964,-341 635.7574,-341"/>
<polygon fill="#191970" stroke="#191970" points="378.6535,-337.5001 368.6535,-341 378.6535,-344.5001 378.6535,-337.5001"/>
</g>
<!-- Node43996 -->
<g id="node19" class="node">
<title>Node43996</title>
<g id="a_node19"><a xlink:href="quickjs_8c.html#a04d312757919ff6b4d79cd0c2c3e5bb2" target="_top" xlink:title="js_build_arguments">
<polygon fill="none" stroke="#000000" points="797.5,-293.5 797.5,-312.5 898.5,-312.5 898.5,-293.5 797.5,-293.5"/>
<text text-anchor="middle" x="848" y="-300.5" font-family="Helvetica,sans-Serif" font-size="10.00" fill="#000000">js_build_arguments</text>
</a>
</g>
</g>
<!-- Node44343&#45;&gt;Node43996 -->
<g id="edge24" class="edge">
<title>Node44343&#45;&gt;Node43996</title>
<path fill="none" stroke="#191970" d="M378.7728,-337.5555C475.6199,-330.4233 697.3925,-314.0913 797.4197,-306.7249"/>
<polygon fill="#191970" stroke="#191970" points="378.4117,-334.0725 368.6958,-338.2976 378.9259,-341.0536 378.4117,-334.0725"/>
</g>
<!-- Node44343&#45;&gt;Node44350 -->
<g id="edge27" class="edge">
<title>Node44343&#45;&gt;Node44350</title>
<path fill="none" stroke="#191970" d="M357.3689,-326.4445C377.2798,-315.3572 405.9029,-300.1514 432,-289 444.6028,-283.6148 458.856,-278.5745 471.2321,-274.5167"/>
<polygon fill="#191970" stroke="#191970" points="355.6103,-323.4179 348.6091,-331.3699 359.0411,-329.5196 355.6103,-323.4179"/>
</g>
<!-- Node44346&#45;&gt;Node43746 -->
<g id="edge23" class="edge">
<title>Node44346&#45;&gt;Node43746</title>
<path fill="none" stroke="#191970" d="M723.3918,-344.9913C773.0008,-349.2263 851.9647,-356.476 920,-365 936.2645,-367.0378 954.0941,-369.6742 969.6596,-372.1088"/>
<polygon fill="#191970" stroke="#191970" points="723.5255,-341.4902 713.2658,-344.134 722.9349,-348.4653 723.5255,-341.4902"/>
</g>
<!-- Node43996&#45;&gt;Node43746 -->
<g id="edge25" class="edge">
<title>Node43996&#45;&gt;Node43746</title>
<path fill="none" stroke="#191970" d="M890.6903,-315.7022C900.4608,-319.0281 910.703,-322.8564 920,-327 948.2043,-339.5706 979.0464,-358.206 996.7519,-369.4204"/>
<polygon fill="#191970" stroke="#191970" points="891.7226,-312.3573 881.1295,-312.5506 889.5311,-319.0054 891.7226,-312.3573"/>
</g>
<!-- Node44351 -->
<g id="node21" class="node">
<title>Node44351</title>
<g id="a_node21"><a xlink:href="quickjs_8c.html#a73738c650f11459db0d7af3dcdf8316b" target="_top" xlink:title="JS_NewObjectProtoClass">
<polygon fill="none" stroke="#ff0000" points="609,-217.5 609,-236.5 740,-236.5 740,-217.5 609,-217.5"/>
<text text-anchor="middle" x="674.5" y="-224.5" font-family="Helvetica,sans-Serif" font-size="10.00" fill="#000000">JS_NewObjectProtoClass</text>
</a>
</g>
</g>
<!-- Node44350&#45;&gt;Node44351 -->
<g id="edge28" class="edge">
<title>Node44350&#45;&gt;Node44351</title>
<path fill="none" stroke="#191970" d="M555.6959,-253.2474C580.0166,-247.8742 608.4547,-241.5914 631.4092,-236.5201"/>
<polygon fill="#191970" stroke="#191970" points="554.9123,-249.836 545.9029,-255.411 556.4225,-256.6712 554.9123,-249.836"/>
</g>
<!-- Node44351&#45;&gt;Node43996 -->
<g id="edge29" class="edge">
<title>Node44351&#45;&gt;Node43996</title>
<path fill="none" stroke="#191970" d="M705.6986,-240.6662C740.4707,-255.8978 795.7962,-280.1326 826.2045,-293.4527"/>
<polygon fill="#191970" stroke="#191970" points="707.038,-237.4319 696.4739,-236.6255 704.2293,-243.8438 707.038,-237.4319"/>
</g>
<!-- Node44365 -->
<g id="node22" class="node">
<title>Node44365</title>
<g id="a_node22"><a xlink:href="quickjs_8c.html#a2d91a9da16cf07ff3b9ec053b870c335" target="_top" xlink:title="js_create_module_function">
<polygon fill="none" stroke="#000000" points="781.5,-179.5 781.5,-198.5 914.5,-198.5 914.5,-179.5 781.5,-179.5"/>
<text text-anchor="middle" x="848" y="-186.5" font-family="Helvetica,sans-Serif" font-size="10.00" fill="#000000">js_create_module_function</text>
</a>
</g>
</g>
<!-- Node44351&#45;&gt;Node44365 -->
<g id="edge30" class="edge">
<title>Node44351&#45;&gt;Node44365</title>
<path fill="none" stroke="#191970" d="M728.1598,-215.2474C752.6927,-209.8742 781.3787,-203.5914 804.5335,-198.5201"/>
<polygon fill="#191970" stroke="#191970" points="727.301,-211.8525 718.2814,-217.411 728.7987,-218.6904 727.301,-211.8525"/>
</g>
<!-- Node43886 -->
<g id="node24" class="node">
<title>Node43886</title>
<g id="a_node24"><a xlink:href="quickjs_8c.html#a7efb53c2f76fd5cc0e584449437ec09c" target="_top" xlink:title="JS_AddIntrinsicBasicObjects">
<polygon fill="none" stroke="#ff0000" points="776,-217.5 776,-236.5 920,-236.5 920,-217.5 776,-217.5"/>
<text text-anchor="middle" x="848" y="-224.5" font-family="Helvetica,sans-Serif" font-size="10.00" fill="#000000">JS_AddIntrinsicBasicObjects</text>
</a>
</g>
</g>
<!-- Node44351&#45;&gt;Node43886 -->
<g id="edge33" class="edge">
<title>Node44351&#45;&gt;Node43886</title>
<path fill="none" stroke="#191970" d="M750.3602,-227C758.8534,-227 767.488,-227 775.9316,-227"/>
<polygon fill="#191970" stroke="#191970" points="750.0929,-223.5001 740.0929,-227 750.0929,-230.5001 750.0929,-223.5001"/>
</g>
<!-- Node44006 -->
<g id="node23" class="node">
<title>Node44006</title>
<g id="a_node23"><a xlink:href="quickjs_8c.html#a89e4f0ec49cdd0029ab50c0509ccc445" target="_top" xlink:title="js_instantiate_module">
<polygon fill="none" stroke="#ff0000" points="956,-160.5 956,-179.5 1067,-179.5 1067,-160.5 956,-160.5"/>
<text text-anchor="middle" x="1011.5" y="-167.5" font-family="Helvetica,sans-Serif" font-size="10.00" fill="#000000">js_instantiate_module</text>
</a>
</g>
</g>
<!-- Node44365&#45;&gt;Node44006 -->
<g id="edge31" class="edge">
<title>Node44365&#45;&gt;Node44006</title>
<path fill="none" stroke="#191970" d="M924.5395,-180.1055C935.07,-178.8818 945.7162,-177.6446 955.7755,-176.4756"/>
<polygon fill="#191970" stroke="#191970" points="924.0308,-176.641 914.5017,-181.272 924.8389,-183.5942 924.0308,-176.641"/>
</g>
<!-- Node44006&#45;&gt;Node44006 -->
<g id="edge32" class="edge">
<title>Node44006&#45;&gt;Node44006</title>
<path fill="none" stroke="#191970" d="M982.0076,-188.6539C983.2404,-193.9368 993.0712,-198 1011.5,-198 1039.582,-198 1047.6995,-188.5653 1035.8524,-179.7571"/>
<polygon fill="#191970" stroke="#191970" points="985.1757,-190.1668 987.1476,-179.7571 979.1145,-186.665 985.1757,-190.1668"/>
</g>
<!-- Node44369&#45;&gt;Node44344 -->
<g id="edge35" class="edge">
<title>Node44369&#45;&gt;Node44344</title>
<path fill="none" stroke="#191970" d="M406.7425,-410.6442C422.534,-412.6818 438.814,-414.7824 453.3702,-416.6607"/>
<polygon fill="#191970" stroke="#191970" points="406.8244,-407.1258 396.4587,-409.3173 405.9286,-414.0683 406.8244,-407.1258"/>
</g>
<!-- Node44129&#45;&gt;Node44129 -->
<g id="edge37" class="edge">
<title>Node44129&#45;&gt;Node44129</title>
<path fill="none" stroke="#191970" d="M149.0745,-85.0292C150.4341,-90.128 158.7426,-94 174,-94 197.8164,-94 204.7008,-84.5653 194.6533,-75.7571"/>
<polygon fill="#191970" stroke="#191970" points="152.3407,-86.304 153.3467,-75.7571 145.9831,-83.3747 152.3407,-86.304"/>
</g>
<!-- Node44372&#45;&gt;Node44365 -->
<g id="edge39" class="edge">
<title>Node44372&#45;&gt;Node44365</title>
<path fill="none" stroke="#191970" d="M728.1598,-162.7526C752.6927,-168.1258 781.3787,-174.4086 804.5335,-179.4799"/>
<polygon fill="#191970" stroke="#191970" points="728.7987,-159.3096 718.2814,-160.589 727.301,-166.1475 728.7987,-159.3096"/>
</g>
<!-- Node44372&#45;&gt;Node44006 -->
<g id="edge40" class="edge">
<title>Node44372&#45;&gt;Node44006</title>
<path fill="none" stroke="#191970" d="M740.7226,-154.7336C803.5351,-158.275 896.8487,-163.536 955.9,-166.8653"/>
<polygon fill="#191970" stroke="#191970" points="740.7082,-151.2273 730.527,-154.1588 740.3141,-158.2162 740.7082,-151.2273"/>
</g>
<!-- Node44373&#45;&gt;Node43886 -->
<g id="edge44" class="edge">
<title>Node44373&#45;&gt;Node43886</title>
<path fill="none" stroke="#191970" d="M384.1424,-196.79C461.8709,-195.5486 612.6393,-195.3082 740,-208 760.7438,-210.0672 783.5013,-213.8421 802.7545,-217.4857"/>
<polygon fill="#191970" stroke="#191970" points="384.0616,-193.2908 374.1233,-196.9622 384.182,-200.2898 384.0616,-193.2908"/>
</g>
<!-- Node44374 -->
<g id="node29" class="node">
<title>Node44374</title>
<g id="a_node29"><a xlink:href="quickjs_8c.html#ad6926e49955be5e10423f6df8d8cff3e" target="_top" xlink:title="js_new_shape">
<polygon fill="none" stroke="#000000" points="463,-217.5 463,-236.5 542,-236.5 542,-217.5 463,-217.5"/>
<text text-anchor="middle" x="502.5" y="-224.5" font-family="Helvetica,sans-Serif" font-size="10.00" fill="#000000">js_new_shape</text>
</a>
</g>
</g>
<!-- Node44373&#45;&gt;Node44374 -->
<g id="edge42" class="edge">
<title>Node44373&#45;&gt;Node44374</title>
<path fill="none" stroke="#191970" d="M384.3162,-206.8984C409.6217,-211.2025 439.5022,-216.2848 462.8866,-220.2622"/>
<polygon fill="#191970" stroke="#191970" points="384.5914,-203.395 374.1461,-205.1685 383.4176,-210.2959 384.5914,-203.395"/>
</g>
<!-- Node44374&#45;&gt;Node44351 -->
<g id="edge43" class="edge">
<title>Node44374&#45;&gt;Node44351</title>
<path fill="none" stroke="#191970" d="M552.4555,-227C570.0797,-227 590.1697,-227 608.8914,-227"/>
<polygon fill="#191970" stroke="#191970" points="552.3926,-223.5001 542.3926,-227 552.3925,-230.5001 552.3926,-223.5001"/>
</g>
<!-- Node43952&#45;&gt;Node43952 -->
<g id="edge47" class="edge">
<title>Node43952&#45;&gt;Node43952</title>
<path fill="none" stroke="#191970" d="M149.0745,-29.0292C150.4341,-34.128 158.7426,-38 174,-38 197.8164,-38 204.7008,-28.5653 194.6533,-19.7571"/>
<polygon fill="#191970" stroke="#191970" points="152.3407,-30.304 153.3467,-19.7571 145.9831,-27.3747 152.3407,-30.304"/>
</g>
</g>
</svg>
