<?xml version="1.0" encoding="UTF-8" standalone="no"?>
<!DOCTYPE svg PUBLIC "-//W3C//DTD SVG 1.1//EN"
 "http://www.w3.org/Graphics/SVG/1.1/DTD/svg11.dtd">
<!-- Generated by graphviz version 2.40.1 (20161225.0304)
 -->
<!-- Title: js_call_bound_function Pages: 1 -->
<!--zoomable 493 -->
<svg id="main" version="1.1" xmlns="http://www.w3.org/2000/svg" xmlns:xlink="http://www.w3.org/1999/xlink" xml:space="preserve" onload="init(evt)">
<style type="text/css"><![CDATA[
.edge:hover path { stroke: red; }
.edge:hover polygon { stroke: red; fill: red; }
]]></style>
<script type="text/javascript"><![CDATA[
var edges = document.getElementsByTagName('g');
if (edges && edges.length) {
  for (var i=0;i<edges.length;i++) {
    if (edges[i].id.substr(0,4)=='edge') {
      edges[i].setAttribute('class','edge');
    }
  }
}
]]></script>
        <defs>
                <circle id="rim" cx="0" cy="0" r="7"/>
                <circle id="rim2" cx="0" cy="0" r="3.5"/>
                <g id="zoomPlus">
                        <use xlink:href="#rim" fill="#404040">
                                <set attributeName="fill" to="#808080" begin="zoomplus.mouseover" end="zoomplus.mouseout"/>
                        </use>
                        <path d="M-4,0h8M0,-4v8" fill="none" stroke="white" stroke-width="1.5" pointer-events="none"/>
                </g>
                <g id="zoomMin">
                        <use xlink:href="#rim" fill="#404040">
                                <set attributeName="fill" to="#808080" begin="zoomminus.mouseover" end="zoomminus.mouseout"/>
                        </use>
                        <path d="M-4,0h8" fill="none" stroke="white" stroke-width="1.5" pointer-events="none"/>
                </g>
                <g id="dirArrow">
                        <path fill="none" stroke="white" stroke-width="1.5" d="M0,-3.0v7 M-2.5,-0.5L0,-3.0L2.5,-0.5"/>
                </g>
               <g id="resetDef">
                       <use xlink:href="#rim2" fill="#404040">
                               <set attributeName="fill" to="#808080" begin="reset.mouseover" end="reset.mouseout"/>
                       </use>
               </g>
        </defs>

<script type="text/javascript">
var viewWidth = 732;
var viewHeight = 493;
var sectionId = 'dynsection-800';
</script>
<script xlink:href="svgpan.js"/>
<svg id="graph" class="graph">
<g id="viewport">
<title>js_call_bound_function</title>
<!-- Node273373 -->
<g id="node1" class="node">
<title>Node273373</title>
<polygon fill="#bfbfbf" stroke="#000000" points="0,-199.5 0,-218.5 116,-218.5 116,-199.5 0,-199.5"/>
<text text-anchor="middle" x="58" y="-206.5" font-family="Helvetica,sans-Serif" font-size="10.00" fill="#000000">js_call_bound_function</text>
</g>
<!-- Node273374 -->
<g id="node2" class="node">
<title>Node273374</title>
<g id="a_node2"><a xlink:href="quickjs_8c.html#ad35594576a14c10812efaf958c99af8a" target="_top" xlink:title="JS_CallConstructorInternal">
<polygon fill="none" stroke="#000000" points="152,-199.5 152,-218.5 286,-218.5 286,-199.5 152,-199.5"/>
<text text-anchor="middle" x="219" y="-206.5" font-family="Helvetica,sans-Serif" font-size="10.00" fill="#000000">JS_CallConstructorInternal</text>
</a>
</g>
</g>
<!-- Node273373&#45;&gt;Node273374 -->
<g id="edge1" class="edge">
<title>Node273373&#45;&gt;Node273374</title>
<path fill="none" stroke="#191970" d="M126.344,-209C134.8182,-209 143.4763,-209 151.931,-209"/>
<polygon fill="#191970" stroke="#191970" points="126.1247,-205.5001 116.1247,-209 126.1247,-212.5001 126.1247,-205.5001"/>
</g>
<!-- Node273393 -->
<g id="node15" class="node">
<title>Node273393</title>
<g id="a_node15"><a xlink:href="quickjs_8c.html#ac2894ff4edcdb4e6841bcce9c76081e3" target="_top" xlink:title="JS_CallInternal">
<polygon fill="none" stroke="#ff0000" points="641,-.5 641,-19.5 724,-19.5 724,-.5 641,-.5"/>
<text text-anchor="middle" x="682.5" y="-7.5" font-family="Helvetica,sans-Serif" font-size="10.00" fill="#000000">JS_CallInternal</text>
</a>
</g>
</g>
<!-- Node273373&#45;&gt;Node273393 -->
<g id="edge22" class="edge">
<title>Node273373&#45;&gt;Node273393</title>
<path fill="none" stroke="#191970" d="M78.166,-193.1869C134.9327,-150.0377 302.5513,-31.8956 465,-8 525.71,.9302 596.9835,-2.2826 640.948,-5.8207"/>
<polygon fill="#191970" stroke="#191970" points="75.8219,-190.5741 70.0248,-199.4423 80.0869,-196.1248 75.8219,-190.5741"/>
</g>
<!-- Node273375 -->
<g id="node3" class="node">
<title>Node273375</title>
<g id="a_node3"><a xlink:href="quickjs_8c.html#a28704096ee67c5b0ab1bd60ce050e36a" target="_top" xlink:title="JS_CallConstructor">
<polygon fill="none" stroke="#000000" points="324.5,-199.5 324.5,-218.5 426.5,-218.5 426.5,-199.5 324.5,-199.5"/>
<text text-anchor="middle" x="375.5" y="-206.5" font-family="Helvetica,sans-Serif" font-size="10.00" fill="#000000">JS_CallConstructor</text>
</a>
</g>
</g>
<!-- Node273374&#45;&gt;Node273375 -->
<g id="edge2" class="edge">
<title>Node273374&#45;&gt;Node273375</title>
<path fill="none" stroke="#191970" d="M296.5029,-209C305.9549,-209 315.4215,-209 324.3508,-209"/>
<polygon fill="#191970" stroke="#191970" points="296.2784,-205.5001 286.2783,-209 296.2783,-212.5001 296.2784,-205.5001"/>
</g>
<!-- Node273953 -->
<g id="node13" class="node">
<title>Node273953</title>
<g id="a_node13"><a xlink:href="quickjs_8c.html#a03d5edf3e8bb18809d6675e5c08bac26" target="_top" xlink:title="JS_CallConstructor2">
<polygon fill="none" stroke="#000000" points="322,-389.5 322,-408.5 429,-408.5 429,-389.5 322,-389.5"/>
<text text-anchor="middle" x="375.5" y="-396.5" font-family="Helvetica,sans-Serif" font-size="10.00" fill="#000000">JS_CallConstructor2</text>
</a>
</g>
</g>
<!-- Node273374&#45;&gt;Node273953 -->
<g id="edge12" class="edge">
<title>Node273374&#45;&gt;Node273953</title>
<path fill="none" stroke="#191970" d="M233.4708,-226.5684C265.6375,-265.6207 342.2159,-358.5912 367.3524,-389.1083"/>
<polygon fill="#191970" stroke="#191970" points="236.0354,-224.1768 226.976,-218.6833 230.6323,-228.6273 236.0354,-224.1768"/>
</g>
<!-- Node273374&#45;&gt;Node273393 -->
<g id="edge21" class="edge">
<title>Node273374&#45;&gt;Node273393</title>
<path fill="none" stroke="#191970" d="M232.3176,-191.7826C267.1685,-154.3168 365.2784,-67.419 465,-29 523.2637,-6.5531 596.1391,-1.3751 640.9935,-2.9186"/>
<polygon fill="#191970" stroke="#191970" points="229.5722,-189.6023 225.5225,-199.3926 234.7936,-194.2646 229.5722,-189.6023"/>
</g>
<!-- Node273376 -->
<g id="node4" class="node">
<title>Node273376</title>
<g id="a_node4"><a xlink:href="quickjs_8c.html#a5e32da9a43002cb96dcbd62a1a340144" target="_top" xlink:title="js_array_from">
<polygon fill="none" stroke="#000000" points="497,-275.5 497,-294.5 573,-294.5 573,-275.5 497,-275.5"/>
<text text-anchor="middle" x="535" y="-282.5" font-family="Helvetica,sans-Serif" font-size="10.00" fill="#000000">js_array_from</text>
</a>
</g>
</g>
<!-- Node273375&#45;&gt;Node273376 -->
<g id="edge3" class="edge">
<title>Node273375&#45;&gt;Node273376</title>
<path fill="none" stroke="#191970" d="M396.1696,-224.7291C413.685,-237.4115 439.8893,-254.9045 465,-266 475.0208,-270.4278 486.3152,-274.0405 496.8601,-276.8807"/>
<polygon fill="#191970" stroke="#191970" points="397.979,-221.7147 387.8539,-218.5949 393.8236,-227.3479 397.979,-221.7147"/>
</g>
<!-- Node273377 -->
<g id="node5" class="node">
<title>Node273377</title>
<g id="a_node5"><a xlink:href="quickjs_8c.html#aed64f4c93145310216f62d7548856b8d" target="_top" xlink:title="js_array_of">
<polygon fill="none" stroke="#000000" points="502.5,-237.5 502.5,-256.5 567.5,-256.5 567.5,-237.5 502.5,-237.5"/>
<text text-anchor="middle" x="535" y="-244.5" font-family="Helvetica,sans-Serif" font-size="10.00" fill="#000000">js_array_of</text>
</a>
</g>
</g>
<!-- Node273375&#45;&gt;Node273377 -->
<g id="edge4" class="edge">
<title>Node273375&#45;&gt;Node273377</title>
<path fill="none" stroke="#191970" d="M425.7892,-220.9811C450.7749,-226.9338 480.2498,-233.9561 502.2776,-239.2041"/>
<polygon fill="#191970" stroke="#191970" points="426.2875,-217.502 415.7486,-218.589 424.6651,-224.3114 426.2875,-217.502"/>
</g>
<!-- Node273378 -->
<g id="node6" class="node">
<title>Node273378</title>
<g id="a_node6"><a xlink:href="quickjs_8c.html#a3b818b1ca9d2d4aaa9b55b1cc54c1bc4" target="_top" xlink:title="JS_ArraySpeciesCreate">
<polygon fill="none" stroke="#ff0000" points="474,-199.5 474,-218.5 596,-218.5 596,-199.5 474,-199.5"/>
<text text-anchor="middle" x="535" y="-206.5" font-family="Helvetica,sans-Serif" font-size="10.00" fill="#000000">JS_ArraySpeciesCreate</text>
</a>
</g>
</g>
<!-- Node273375&#45;&gt;Node273378 -->
<g id="edge5" class="edge">
<title>Node273375&#45;&gt;Node273378</title>
<path fill="none" stroke="#191970" d="M437.2022,-209C449.1898,-209 461.7515,-209 473.7252,-209"/>
<polygon fill="#191970" stroke="#191970" points="436.8448,-205.5001 426.8448,-209 436.8447,-212.5001 436.8448,-205.5001"/>
</g>
<!-- Node273383 -->
<g id="node7" class="node">
<title>Node273383</title>
<g id="a_node7"><a xlink:href="quickjs_8c.html#a48c74f10715547bf679361ae42e2a97f" target="_top" xlink:title="js_string_match">
<polygon fill="none" stroke="#000000" points="492,-161.5 492,-180.5 578,-180.5 578,-161.5 492,-161.5"/>
<text text-anchor="middle" x="535" y="-168.5" font-family="Helvetica,sans-Serif" font-size="10.00" fill="#000000">js_string_match</text>
</a>
</g>
</g>
<!-- Node273375&#45;&gt;Node273383 -->
<g id="edge6" class="edge">
<title>Node273375&#45;&gt;Node273383</title>
<path fill="none" stroke="#191970" d="M425.734,-197.032C448.0855,-191.7069 474.0383,-185.5238 495.0408,-180.5201"/>
<polygon fill="#191970" stroke="#191970" points="424.6651,-193.6886 415.7486,-199.411 426.2875,-200.498 424.6651,-193.6886"/>
</g>
<!-- Node273384 -->
<g id="node8" class="node">
<title>Node273384</title>
<g id="a_node8"><a xlink:href="quickjs_8c.html#ace9b3fda4db2506ca054f0c7aaf41880" target="_top" xlink:title="js_regexp_Symbol_matchAll">
<polygon fill="none" stroke="#000000" points="465,-123.5 465,-142.5 605,-142.5 605,-123.5 465,-123.5"/>
<text text-anchor="middle" x="535" y="-130.5" font-family="Helvetica,sans-Serif" font-size="10.00" fill="#000000">js_regexp_Symbol_matchAll</text>
</a>
</g>
</g>
<!-- Node273375&#45;&gt;Node273384 -->
<g id="edge7" class="edge">
<title>Node273375&#45;&gt;Node273384</title>
<path fill="none" stroke="#191970" d="M396.1696,-193.2709C413.685,-180.5885 439.8893,-163.0955 465,-152 473.4083,-148.2847 482.7132,-145.1433 491.7197,-142.5506"/>
<polygon fill="#191970" stroke="#191970" points="393.8236,-190.6521 387.8539,-199.4051 397.979,-196.2853 393.8236,-190.6521"/>
</g>
<!-- Node273385 -->
<g id="node9" class="node">
<title>Node273385</title>
<g id="a_node9"><a xlink:href="quickjs_8c.html#a79872a6d9d139e36d5d1894d16132024" target="_top" xlink:title="js_regexp_Symbol_split">
<polygon fill="none" stroke="#000000" points="475,-85.5 475,-104.5 595,-104.5 595,-85.5 475,-85.5"/>
<text text-anchor="middle" x="535" y="-92.5" font-family="Helvetica,sans-Serif" font-size="10.00" fill="#000000">js_regexp_Symbol_split</text>
</a>
</g>
</g>
<!-- Node273375&#45;&gt;Node273385 -->
<g id="edge8" class="edge">
<title>Node273375&#45;&gt;Node273385</title>
<path fill="none" stroke="#191970" d="M387.6593,-190.9836C403.1248,-169.4628 431.8409,-133.882 465,-114 471.4799,-110.1147 478.7676,-107.0069 486.1285,-104.5256"/>
<polygon fill="#191970" stroke="#191970" points="384.734,-189.0593 381.8682,-199.2592 390.4692,-193.0727 384.734,-189.0593"/>
</g>
<!-- Node273386 -->
<g id="node10" class="node">
<title>Node273386</title>
<g id="a_node10"><a xlink:href="quickjs_8c.html#a28c0ccdd26317bc38d0a693f1dffe4dc" target="_top" xlink:title="js_new_promise_capability">
<polygon fill="none" stroke="#ff0000" points="468,-47.5 468,-66.5 602,-66.5 602,-47.5 468,-47.5"/>
<text text-anchor="middle" x="535" y="-54.5" font-family="Helvetica,sans-Serif" font-size="10.00" fill="#000000">js_new_promise_capability</text>
</a>
</g>
</g>
<!-- Node273375&#45;&gt;Node273386 -->
<g id="edge9" class="edge">
<title>Node273375&#45;&gt;Node273386</title>
<path fill="none" stroke="#191970" d="M383.1702,-189.7587C395.7832,-160.6276 423.6952,-105.5975 465,-76 470.425,-72.1126 476.6041,-69.0205 482.9924,-66.5609"/>
<polygon fill="#191970" stroke="#191970" points="379.8413,-188.6478 379.2191,-199.2244 386.3011,-191.3443 379.8413,-188.6478"/>
</g>
<!-- Node273836 -->
<g id="node11" class="node">
<title>Node273836</title>
<g id="a_node11"><a xlink:href="quickjs_8c.html#a8160f52fd4197ade647faa287b34862e" target="_top" xlink:title="js_array_buffer_slice">
<polygon fill="none" stroke="#000000" points="481.5,-351.5 481.5,-370.5 588.5,-370.5 588.5,-351.5 481.5,-351.5"/>
<text text-anchor="middle" x="535" y="-358.5" font-family="Helvetica,sans-Serif" font-size="10.00" fill="#000000">js_array_buffer_slice</text>
</a>
</g>
</g>
<!-- Node273375&#45;&gt;Node273836 -->
<g id="edge10" class="edge">
<title>Node273375&#45;&gt;Node273836</title>
<path fill="none" stroke="#191970" d="M387.6602,-227.4266C411.4833,-263.4775 462.2354,-340.019 465,-342 470.425,-345.8874 476.6041,-348.9795 482.9924,-351.4391"/>
<polygon fill="#191970" stroke="#191970" points="390.4037,-225.2296 381.9721,-218.814 384.5626,-229.0872 390.4037,-225.2296"/>
</g>
<!-- Node273839 -->
<g id="node12" class="node">
<title>Node273839</title>
<g id="a_node12"><a xlink:href="quickjs_8c.html#a8c18ce4b7a8c97ab520d4d37a1c6fc72" target="_top" xlink:title="js_typed_array_create">
<polygon fill="none" stroke="#ff0000" points="478.5,-313.5 478.5,-332.5 591.5,-332.5 591.5,-313.5 478.5,-313.5"/>
<text text-anchor="middle" x="535" y="-320.5" font-family="Helvetica,sans-Serif" font-size="10.00" fill="#000000">js_typed_array_create</text>
</a>
</g>
</g>
<!-- Node273375&#45;&gt;Node273839 -->
<g id="edge11" class="edge">
<title>Node273375&#45;&gt;Node273839</title>
<path fill="none" stroke="#191970" d="M387.6593,-227.0164C403.1248,-248.5372 431.8409,-284.118 465,-304 471.4799,-307.8853 478.7676,-310.9931 486.1285,-313.4744"/>
<polygon fill="#191970" stroke="#191970" points="390.4692,-224.9273 381.8682,-218.7408 384.734,-228.9407 390.4692,-224.9273"/>
</g>
<!-- Node273953&#45;&gt;Node273373 -->
<g id="edge13" class="edge">
<title>Node273953&#45;&gt;Node273373</title>
<path fill="none" stroke="#191970" d="M350.5368,-384.0614C288.01,-346.6438 125.9865,-249.6848 74.1814,-218.6833"/>
<polygon fill="#191970" stroke="#191970" points="348.973,-387.2044 359.3512,-389.3362 352.5676,-381.1978 348.973,-387.2044"/>
</g>
<!-- Node273435 -->
<g id="node14" class="node">
<title>Node273435</title>
<g id="a_node14"><a xlink:href="quickjs_8c.html#a8d4b24969540aff427939eeda47f451d" target="_top" xlink:title="js_function_apply">
<polygon fill="none" stroke="#ff0000" points="489,-465.5 489,-484.5 581,-484.5 581,-465.5 489,-465.5"/>
<text text-anchor="middle" x="535" y="-472.5" font-family="Helvetica,sans-Serif" font-size="10.00" fill="#000000">js_function_apply</text>
</a>
</g>
</g>
<!-- Node273953&#45;&gt;Node273435 -->
<g id="edge14" class="edge">
<title>Node273953&#45;&gt;Node273435</title>
<path fill="none" stroke="#191970" d="M396.1696,-414.7291C413.685,-427.4115 439.8893,-444.9045 465,-456 473.4083,-459.7153 482.7132,-462.8567 491.7197,-465.4494"/>
<polygon fill="#191970" stroke="#191970" points="397.979,-411.7147 387.8539,-408.5949 393.8236,-417.3479 397.979,-411.7147"/>
</g>
<!-- Node273699 -->
<g id="node16" class="node">
<title>Node273699</title>
<g id="a_node16"><a xlink:href="quickjs_8c.html#a392bb9e4d465d6a061eb3f6c830e0efa" target="_top" xlink:title="js_reflect_construct">
<polygon fill="none" stroke="#000000" points="484,-427.5 484,-446.5 586,-446.5 586,-427.5 484,-427.5"/>
<text text-anchor="middle" x="535" y="-434.5" font-family="Helvetica,sans-Serif" font-size="10.00" fill="#000000">js_reflect_construct</text>
</a>
</g>
</g>
<!-- Node273953&#45;&gt;Node273699 -->
<g id="edge18" class="edge">
<title>Node273953&#45;&gt;Node273699</title>
<path fill="none" stroke="#191970" d="M425.734,-410.968C448.0855,-416.2931 474.0383,-422.4762 495.0408,-427.4799"/>
<polygon fill="#191970" stroke="#191970" points="426.2875,-407.502 415.7486,-408.589 424.6651,-414.3114 426.2875,-407.502"/>
</g>
<!-- Node273450 -->
<g id="node17" class="node">
<title>Node273450</title>
<g id="a_node17"><a xlink:href="quickjs_8c.html#af97646b66d6fcb8bd19543d93baeadd7" target="_top" xlink:title="js_proxy_call_constructor">
<polygon fill="none" stroke="#000000" points="471,-389.5 471,-408.5 599,-408.5 599,-389.5 471,-389.5"/>
<text text-anchor="middle" x="535" y="-396.5" font-family="Helvetica,sans-Serif" font-size="10.00" fill="#000000">js_proxy_call_constructor</text>
</a>
</g>
</g>
<!-- Node273953&#45;&gt;Node273450 -->
<g id="edge19" class="edge">
<title>Node273953&#45;&gt;Node273450</title>
<path fill="none" stroke="#191970" d="M439.2809,-399C449.6599,-399 460.4151,-399 470.8039,-399"/>
<polygon fill="#191970" stroke="#191970" points="439.0549,-395.5001 429.0549,-399 439.0549,-402.5001 439.0549,-395.5001"/>
</g>
<!-- Node273435&#45;&gt;Node273393 -->
<g id="edge15" class="edge">
<title>Node273435&#45;&gt;Node273393</title>
<path fill="none" stroke="#191970" d="M590.6799,-466.5027C596.0478,-463.8428 600.9796,-460.4128 605,-456 666.2654,-388.7549 680.1024,-78.4111 682.1898,-19.6253"/>
<polygon fill="#191970" stroke="#191970" points="589.2763,-463.2949 581.3186,-470.2896 591.9013,-469.7841 589.2763,-463.2949"/>
</g>
<!-- Node273393&#45;&gt;Node273374 -->
<g id="edge16" class="edge">
<title>Node273393&#45;&gt;Node273374</title>
<path fill="none" stroke="#191970" d="M630.8463,-16.9145C585.6826,-20.2137 519.0532,-26.1753 465,-47 366.4729,-84.9589 269.5189,-170.2421 233.597,-199.4401"/>
<polygon fill="#191970" stroke="#191970" points="631.2698,-20.3932 640.9935,-16.1862 630.7686,-13.4111 631.2698,-20.3932"/>
</g>
<!-- Node273393&#45;&gt;Node273393 -->
<g id="edge17" class="edge">
<title>Node273393&#45;&gt;Node273393</title>
<path fill="none" stroke="#191970" d="M655.2475,-28.6539C656.3867,-33.9368 665.4708,-38 682.5,-38 708.4492,-38 715.9502,-28.5653 705.0028,-19.7571"/>
<polygon fill="#191970" stroke="#191970" points="658.3752,-30.227 659.9972,-19.7571 652.2001,-26.9303 658.3752,-30.227"/>
</g>
<!-- Node273450&#45;&gt;Node273374 -->
<g id="edge20" class="edge">
<title>Node273450&#45;&gt;Node273374</title>
<path fill="none" stroke="#191970" d="M480.9636,-386.3553C475.4766,-384.4746 470.0646,-382.3611 465,-380 365.531,-333.6276 262.9136,-247.5306 229.9107,-218.6951"/>
<polygon fill="#191970" stroke="#191970" points="480.2718,-389.8075 490.8619,-389.4924 482.3867,-383.1346 480.2718,-389.8075"/>
</g>
</g>
</svg>
        <g id="navigator" transform="translate(0 0)" fill="#404254">
                <rect fill="#f2f5e9" fill-opacity="0.5" stroke="#606060" stroke-width=".5" x="0" y="0" width="60" height="60"/>
                <use id="zoomplus" xlink:href="#zoomPlus" x="17" y="9" onmousedown="handleZoom(evt,'in')"/>
                <use id="zoomminus" xlink:href="#zoomMin" x="42" y="9" onmousedown="handleZoom(evt,'out')"/>
                <use id="reset" xlink:href="#resetDef" x="30" y="36" onmousedown="handleReset()"/>
                <g id="arrowUp" xlink:href="#dirArrow" transform="translate(30 24)" onmousedown="handlePan(0,-1)">
                  <use xlink:href="#rim" fill="#404040">
                        <set attributeName="fill" to="#808080" begin="arrowUp.mouseover" end="arrowUp.mouseout"/>
                  </use>
                  <path fill="none" stroke="white" stroke-width="1.5" d="M0,-3.0v7 M-2.5,-0.5L0,-3.0L2.5,-0.5"/>
                </g>
                <g id="arrowRight" xlink:href="#dirArrow" transform="rotate(90) translate(36 -43)" onmousedown="handlePan(1,0)">
                  <use xlink:href="#rim" fill="#404040">
                        <set attributeName="fill" to="#808080" begin="arrowRight.mouseover" end="arrowRight.mouseout"/>
                  </use>
                  <path fill="none" stroke="white" stroke-width="1.5" d="M0,-3.0v7 M-2.5,-0.5L0,-3.0L2.5,-0.5"/>
                </g>
                <g id="arrowDown" xlink:href="#dirArrow" transform="rotate(180) translate(-30 -48)" onmousedown="handlePan(0,1)">
                  <use xlink:href="#rim" fill="#404040">
                        <set attributeName="fill" to="#808080" begin="arrowDown.mouseover" end="arrowDown.mouseout"/>
                  </use>
                  <path fill="none" stroke="white" stroke-width="1.5" d="M0,-3.0v7 M-2.5,-0.5L0,-3.0L2.5,-0.5"/>
                </g>
                <g id="arrowLeft" xlink:href="#dirArrow" transform="rotate(270) translate(-36 17)" onmousedown="handlePan(-1,0)">
                  <use xlink:href="#rim" fill="#404040">
                        <set attributeName="fill" to="#808080" begin="arrowLeft.mouseover" end="arrowLeft.mouseout"/>
                  </use>
                  <path fill="none" stroke="white" stroke-width="1.5" d="M0,-3.0v7 M-2.5,-0.5L0,-3.0L2.5,-0.5"/>
                </g>
        </g>
        <svg viewBox="0 0 15 15" width="100%" height="30px" preserveAspectRatio="xMaxYMin meet">
         <g id="arrow_out" transform="scale(0.3 0.3)">
          <a xlink:href="quickjs_8c_afd4ef2d701fa0702f321925b61c57bbf_icgraph_org.svg" target="_base">
           <rect id="button" ry="5" rx="5" y="6" x="6" height="38" width="38"
                fill="#f2f5e9" fill-opacity="0.5" stroke="#606060" stroke-width="1.0"/>
           <path id="arrow"
             d="M 11.500037,31.436501 C 11.940474,20.09759 22.043105,11.32322 32.158766,21.979434 L 37.068811,17.246167 C 37.068811,17.246167 37.088388,32 37.088388,32 L 22.160133,31.978069 C 22.160133,31.978069 26.997745,27.140456 26.997745,27.140456 C 18.528582,18.264221 13.291696,25.230495 11.500037,31.436501 z"
             style="fill:#404040;"/>
          </a>
         </g>
        </svg>
</svg>
