<?xml version="1.0" encoding="UTF-8" standalone="no"?>
<!DOCTYPE svg PUBLIC "-//W3C//DTD SVG 1.1//EN"
 "http://www.w3.org/Graphics/SVG/1.1/DTD/svg11.dtd">
<!-- Generated by graphviz version 2.40.1 (20161225.0304)
 -->
<!-- Title: js_typed_array_of Pages: 1 -->
<svg width="1114pt" height="818pt"
 viewBox="0.00 0.00 1114.00 818.00" xmlns="http://www.w3.org/2000/svg" xmlns:xlink="http://www.w3.org/1999/xlink">
<g id="graph0" class="graph" transform="scale(1 1) rotate(0) translate(4 814)">
<title>js_typed_array_of</title>
<!-- Node442621 -->
<g id="node1" class="node">
<title>Node442621</title>
<polygon fill="#bfbfbf" stroke="#000000" points="0,-509.5 0,-528.5 94,-528.5 94,-509.5 0,-509.5"/>
<text text-anchor="middle" x="47" y="-516.5" font-family="Helvetica,sans-Serif" font-size="10.00" fill="#000000">js_typed_array_of</text>
</g>
<!-- Node442622 -->
<g id="node2" class="node">
<title>Node442622</title>
<g id="a_node2"><a xlink:href="quickjs_8h.html#a775522f2d084fc8fa0fcb33f390006b4" target="_top" xlink:title="JS_DupValue">
<polygon fill="none" stroke="#000000" points="449.5,-762.5 449.5,-781.5 526.5,-781.5 526.5,-762.5 449.5,-762.5"/>
<text text-anchor="middle" x="488" y="-769.5" font-family="Helvetica,sans-Serif" font-size="10.00" fill="#000000">JS_DupValue</text>
</a>
</g>
</g>
<!-- Node442621&#45;&gt;Node442622 -->
<g id="edge1" class="edge">
<title>Node442621&#45;&gt;Node442622</title>
<path fill="none" stroke="#191970" d="M54.9166,-528.5726C68.8212,-544.9538 99.0986,-578.7449 130,-601 236.2787,-677.5415 382.1865,-734.7192 450.2187,-759.0705"/>
<polygon fill="#191970" stroke="#191970" points="449.0824,-762.3811 459.6772,-762.4235 451.4213,-755.7834 449.0824,-762.3811"/>
</g>
<!-- Node442623 -->
<g id="node3" class="node">
<title>Node442623</title>
<g id="a_node3"><a xlink:href="quickjs_8h.html#afaa20c47565bc704c6c85f3d77254e7d" target="_top" xlink:title="JS_FreeValue">
<polygon fill="none" stroke="#000000" points="765,-610.5 765,-629.5 843,-629.5 843,-610.5 765,-610.5"/>
<text text-anchor="middle" x="804" y="-617.5" font-family="Helvetica,sans-Serif" font-size="10.00" fill="#000000">JS_FreeValue</text>
</a>
</g>
</g>
<!-- Node442621&#45;&gt;Node442623 -->
<g id="edge2" class="edge">
<title>Node442621&#45;&gt;Node442623</title>
<path fill="none" stroke="#191970" d="M50.801,-528.6821C71.3223,-579.175 174.0196,-810 336.5,-810 336.5,-810 336.5,-810 488,-810 548.0214,-810 664.7677,-757.5196 729,-709 755.6033,-688.9045 779.0698,-657.7409 792.3915,-638.1248"/>
<polygon fill="#191970" stroke="#191970" points="795.4849,-639.7925 798.0856,-629.5218 789.6476,-635.9289 795.4849,-639.7925"/>
</g>
<!-- Node442652 -->
<g id="node6" class="node">
<title>Node442652</title>
<g id="a_node6"><a xlink:href="quickjs_8h.html#ad80a83d73e9b7d872b88fbf2943aebe9" target="_top" xlink:title="JS_IsException">
<polygon fill="none" stroke="#000000" points="613,-161.5 613,-180.5 699,-180.5 699,-161.5 613,-161.5"/>
<text text-anchor="middle" x="656" y="-168.5" font-family="Helvetica,sans-Serif" font-size="10.00" fill="#000000">JS_IsException</text>
</a>
</g>
</g>
<!-- Node442621&#45;&gt;Node442652 -->
<g id="edge5" class="edge">
<title>Node442621&#45;&gt;Node442652</title>
<path fill="none" stroke="#191970" d="M50.641,-509.4746C73.5296,-451.2354 203.8828,-142.8573 429,-57 478.0016,-38.3113 498.7756,-36.3886 547,-57 592.5234,-76.457 628.1122,-125.2915 645.093,-152.3038"/>
<polygon fill="#191970" stroke="#191970" points="642.3024,-154.4508 650.4912,-161.1736 648.2821,-150.8116 642.3024,-154.4508"/>
</g>
<!-- Node442653 -->
<g id="node7" class="node">
<title>Node442653</title>
<g id="a_node7"><a xlink:href="quickjs_8h.html#a2050bc428da1c65ac7eb87c3fa3b0392" target="_top" xlink:title="JS_NewInt32">
<polygon fill="none" stroke="#000000" points="766,-294.5 766,-313.5 842,-313.5 842,-294.5 766,-294.5"/>
<text text-anchor="middle" x="804" y="-301.5" font-family="Helvetica,sans-Serif" font-size="10.00" fill="#000000">JS_NewInt32</text>
</a>
</g>
</g>
<!-- Node442621&#45;&gt;Node442653 -->
<g id="edge6" class="edge">
<title>Node442621&#45;&gt;Node442653</title>
<path fill="none" stroke="#191970" d="M47.63,-509.0957C52.7696,-437.344 94.0411,0 336.5,0 336.5,0 336.5,0 488,0 614.6355,0 644.2456,-57.9084 729,-152 765.4679,-192.4855 788.419,-253.9271 798.3277,-284.828"/>
<polygon fill="#191970" stroke="#191970" points="794.9899,-285.8814 801.2894,-294.4 801.6771,-283.8122 794.9899,-285.8814"/>
</g>
<!-- Node442654 -->
<g id="node8" class="node">
<title>Node442654</title>
<g id="a_node8"><a xlink:href="quickjs_8c.html#aae909eaec829081b270012adfcd717a4" target="_top" xlink:title="JS_SetPropertyUint32">
<polygon fill="none" stroke="#000000" points="130,-370.5 130,-389.5 244,-389.5 244,-370.5 130,-370.5"/>
<text text-anchor="middle" x="187" y="-377.5" font-family="Helvetica,sans-Serif" font-size="10.00" fill="#000000">JS_SetPropertyUint32</text>
</a>
</g>
</g>
<!-- Node442621&#45;&gt;Node442654 -->
<g id="edge7" class="edge">
<title>Node442621&#45;&gt;Node442654</title>
<path fill="none" stroke="#191970" d="M56.6228,-509.446C80.1006,-486.1359 140.557,-426.1113 170.161,-396.7187"/>
<polygon fill="#191970" stroke="#191970" points="172.6795,-399.1503 177.3099,-389.6209 167.7475,-394.1829 172.6795,-399.1503"/>
</g>
<!-- Node443040 -->
<g id="node23" class="node">
<title>Node443040</title>
<g id="a_node23"><a xlink:href="quickjs_8c.html#a8c18ce4b7a8c97ab520d4d37a1c6fc72" target="_top" xlink:title="js_typed_array_create">
<polygon fill="none" stroke="#000000" points="280,-648.5 280,-667.5 393,-667.5 393,-648.5 280,-648.5"/>
<text text-anchor="middle" x="336.5" y="-655.5" font-family="Helvetica,sans-Serif" font-size="10.00" fill="#000000">js_typed_array_create</text>
</a>
</g>
</g>
<!-- Node442621&#45;&gt;Node443040 -->
<g id="edge38" class="edge">
<title>Node442621&#45;&gt;Node443040</title>
<path fill="none" stroke="#191970" d="M66.8985,-528.554C116.9966,-552.6081 248.52,-615.7575 307.3411,-643.9997"/>
<polygon fill="#191970" stroke="#191970" points="305.9326,-647.2059 316.4622,-648.3791 308.9624,-640.8956 305.9326,-647.2059"/>
</g>
<!-- Node442624 -->
<g id="node4" class="node">
<title>Node442624</title>
<g id="a_node4"><a xlink:href="quickjs_8c.html#aa059f309c30fd5166d16c82a97973146" target="_top" xlink:title="__JS_FreeValue">
<polygon fill="none" stroke="#000000" points="879,-610.5 879,-629.5 968,-629.5 968,-610.5 879,-610.5"/>
<text text-anchor="middle" x="923.5" y="-617.5" font-family="Helvetica,sans-Serif" font-size="10.00" fill="#000000">__JS_FreeValue</text>
</a>
</g>
</g>
<!-- Node442623&#45;&gt;Node442624 -->
<g id="edge3" class="edge">
<title>Node442623&#45;&gt;Node442624</title>
<path fill="none" stroke="#191970" d="M843.1288,-620C851.3481,-620 860.1608,-620 868.8298,-620"/>
<polygon fill="#191970" stroke="#191970" points="868.8964,-623.5001 878.8964,-620 868.8964,-616.5001 868.8964,-623.5001"/>
</g>
<!-- Node442625 -->
<g id="node5" class="node">
<title>Node442625</title>
<g id="a_node5"><a xlink:href="quickjs_8c.html#ab1ea3fad7d138be12144a38be4d36423" target="_top" xlink:title="__JS_FreeValueRT">
<polygon fill="none" stroke="#ff0000" points="1004,-610.5 1004,-629.5 1106,-629.5 1106,-610.5 1004,-610.5"/>
<text text-anchor="middle" x="1055" y="-617.5" font-family="Helvetica,sans-Serif" font-size="10.00" fill="#000000">__JS_FreeValueRT</text>
</a>
</g>
</g>
<!-- Node442624&#45;&gt;Node442625 -->
<g id="edge4" class="edge">
<title>Node442624&#45;&gt;Node442625</title>
<path fill="none" stroke="#191970" d="M968.0199,-620C976.2672,-620 985.0138,-620 993.6583,-620"/>
<polygon fill="#191970" stroke="#191970" points="993.7233,-623.5001 1003.7233,-620 993.7232,-616.5001 993.7233,-623.5001"/>
</g>
<!-- Node442655 -->
<g id="node9" class="node">
<title>Node442655</title>
<g id="a_node9"><a xlink:href="quickjs_8c.html#a22f31ae7a52ea79fa375d19427daa797" target="_top" xlink:title="JS_NewUint32">
<polygon fill="none" stroke="#000000" points="295,-199.5 295,-218.5 378,-218.5 378,-199.5 295,-199.5"/>
<text text-anchor="middle" x="336.5" y="-206.5" font-family="Helvetica,sans-Serif" font-size="10.00" fill="#000000">JS_NewUint32</text>
</a>
</g>
</g>
<!-- Node442654&#45;&gt;Node442655 -->
<g id="edge8" class="edge">
<title>Node442654&#45;&gt;Node442655</title>
<path fill="none" stroke="#191970" d="M195.4661,-370.3163C219.8268,-342.4523 290.338,-261.8007 321.4483,-226.2163"/>
<polygon fill="#191970" stroke="#191970" points="324.1798,-228.4097 328.1267,-218.5774 318.9098,-223.8023 324.1798,-228.4097"/>
</g>
<!-- Node442657 -->
<g id="node11" class="node">
<title>Node442657</title>
<g id="a_node11"><a xlink:href="quickjs_8c.html#aee75cc1546e19479e3ccda58f3b50a96" target="_top" xlink:title="JS_SetPropertyValue">
<polygon fill="none" stroke="#000000" points="281.5,-370.5 281.5,-389.5 391.5,-389.5 391.5,-370.5 281.5,-370.5"/>
<text text-anchor="middle" x="336.5" y="-377.5" font-family="Helvetica,sans-Serif" font-size="10.00" fill="#000000">JS_SetPropertyValue</text>
</a>
</g>
</g>
<!-- Node442654&#45;&gt;Node442657 -->
<g id="edge10" class="edge">
<title>Node442654&#45;&gt;Node442657</title>
<path fill="none" stroke="#191970" d="M244.373,-380C253.2275,-380 262.4264,-380 271.4344,-380"/>
<polygon fill="#191970" stroke="#191970" points="271.4952,-383.5001 281.4951,-380 271.4951,-376.5001 271.4952,-383.5001"/>
</g>
<!-- Node442656 -->
<g id="node10" class="node">
<title>Node442656</title>
<g id="a_node10"><a xlink:href="quickjs_8h.html#a9bf98b18de88b4199910a43e933eb97d" target="_top" xlink:title="__JS_NewFloat64">
<polygon fill="none" stroke="#000000" points="439.5,-66.5 439.5,-85.5 536.5,-85.5 536.5,-66.5 439.5,-66.5"/>
<text text-anchor="middle" x="488" y="-73.5" font-family="Helvetica,sans-Serif" font-size="10.00" fill="#000000">__JS_NewFloat64</text>
</a>
</g>
</g>
<!-- Node442655&#45;&gt;Node442656 -->
<g id="edge9" class="edge">
<title>Node442655&#45;&gt;Node442656</title>
<path fill="none" stroke="#191970" d="M341.6207,-199.4826C353.8129,-177.7131 386.7284,-123.9409 429,-95 431.8844,-93.0252 434.9868,-91.2456 438.2054,-89.6436"/>
<polygon fill="#191970" stroke="#191970" points="439.7365,-92.7942 447.4994,-85.5838 436.9344,-86.3795 439.7365,-92.7942"/>
</g>
<!-- Node442657&#45;&gt;Node442623 -->
<g id="edge16" class="edge">
<title>Node442657&#45;&gt;Node442623</title>
<path fill="none" stroke="#191970" d="M337.1259,-389.668C339.9906,-425.037 355.1231,-548.0319 429,-600 480.1016,-635.947 664.8801,-629.2789 754.5304,-623.6568"/>
<polygon fill="#191970" stroke="#191970" points="754.965,-627.136 764.7177,-622.9966 754.5122,-620.1507 754.965,-627.136"/>
</g>
<!-- Node442658 -->
<g id="node12" class="node">
<title>Node442658</title>
<g id="a_node12"><a xlink:href="quickjs_8c.html#a2f49d212e519c9e138d8b48148b6f955" target="_top" xlink:title="__attribute__">
<polygon fill="none" stroke="#ff0000" points="619.5,-446.5 619.5,-465.5 692.5,-465.5 692.5,-446.5 619.5,-446.5"/>
<text text-anchor="middle" x="656" y="-453.5" font-family="Helvetica,sans-Serif" font-size="10.00" fill="#000000">__attribute__</text>
</a>
</g>
</g>
<!-- Node442657&#45;&gt;Node442658 -->
<g id="edge11" class="edge">
<title>Node442657&#45;&gt;Node442658</title>
<path fill="none" stroke="#191970" d="M347.8661,-389.5039C364.4819,-402.7837 396.9265,-426.4465 429,-437 488.896,-456.7082 562.2372,-459.2373 609.042,-458.3414"/>
<polygon fill="#191970" stroke="#191970" points="609.2804,-461.8365 619.1889,-458.0852 609.1038,-454.8388 609.2804,-461.8365"/>
</g>
<!-- Node442839 -->
<g id="node13" class="node">
<title>Node442839</title>
<g id="a_node13"><a xlink:href="quickjs_8c.html#adbffd820afae76d09c641b5b911e3600" target="_top" xlink:title="add_fast_array_element">
<polygon fill="none" stroke="#ff0000" points="595.5,-294.5 595.5,-313.5 716.5,-313.5 716.5,-294.5 595.5,-294.5"/>
<text text-anchor="middle" x="656" y="-301.5" font-family="Helvetica,sans-Serif" font-size="10.00" fill="#000000">add_fast_array_element</text>
</a>
</g>
</g>
<!-- Node442657&#45;&gt;Node442839 -->
<g id="edge12" class="edge">
<title>Node442657&#45;&gt;Node442839</title>
<path fill="none" stroke="#191970" d="M339.6981,-370.2111C348.7685,-344.2811 377.4008,-273.965 429,-247 498.6172,-210.6191 592.5363,-261.6867 634.3566,-288.8771"/>
<polygon fill="#191970" stroke="#191970" points="632.4286,-291.7982 642.6906,-294.4327 636.3113,-285.9737 632.4286,-291.7982"/>
</g>
<!-- Node442762 -->
<g id="node14" class="node">
<title>Node442762</title>
<g id="a_node14"><a xlink:href="quickjs_8c.html#ab7fc45a99935a1c0ba50b0216d9401a9" target="_top" xlink:title="JS_FreeAtom">
<polygon fill="none" stroke="#ff0000" points="449.5,-294.5 449.5,-313.5 526.5,-313.5 526.5,-294.5 449.5,-294.5"/>
<text text-anchor="middle" x="488" y="-301.5" font-family="Helvetica,sans-Serif" font-size="10.00" fill="#000000">JS_FreeAtom</text>
</a>
</g>
</g>
<!-- Node442657&#45;&gt;Node442762 -->
<g id="edge15" class="edge">
<title>Node442657&#45;&gt;Node442762</title>
<path fill="none" stroke="#191970" d="M352.2178,-370.3597C370.3671,-359.4187 401.2868,-341.3609 429,-328 436.6481,-324.3128 445.0159,-320.6784 452.9836,-317.3968"/>
<polygon fill="#191970" stroke="#191970" points="454.4627,-320.5743 462.4289,-313.5892 451.8455,-314.082 454.4627,-320.5743"/>
</g>
<!-- Node442901 -->
<g id="node15" class="node">
<title>Node442901</title>
<g id="a_node15"><a xlink:href="quickjs_8c.html#ad7f03358a8088ca920ab308225c6b2e6" target="_top" xlink:title="JS_SetPropertyInternal">
<polygon fill="none" stroke="#ff0000" points="429,-408.5 429,-427.5 547,-427.5 547,-408.5 429,-408.5"/>
<text text-anchor="middle" x="488" y="-415.5" font-family="Helvetica,sans-Serif" font-size="10.00" fill="#000000">JS_SetPropertyInternal</text>
</a>
</g>
</g>
<!-- Node442657&#45;&gt;Node442901 -->
<g id="edge17" class="edge">
<title>Node442657&#45;&gt;Node442901</title>
<path fill="none" stroke="#191970" d="M391.6235,-387.3039C414.4291,-392.5093 439.9348,-399.2656 458.9763,-405.2742"/>
<polygon fill="#191970" stroke="#191970" points="457.9704,-408.6277 468.5633,-408.428 460.1579,-401.9783 457.9704,-408.6277"/>
</g>
<!-- Node442800 -->
<g id="node16" class="node">
<title>Node442800</title>
<g id="a_node16"><a xlink:href="quickjs_8c.html#a033dd3ebd29c4eb9f0baff1dd0fec0b1" target="_top" xlink:title="JS_ThrowTypeErrorDetached\lArrayBuffer">
<polygon fill="none" stroke="#000000" points="583,-485 583,-515 729,-515 729,-485 583,-485"/>
<text text-anchor="start" x="591" y="-503" font-family="Helvetica,sans-Serif" font-size="10.00" fill="#000000">JS_ThrowTypeErrorDetached</text>
<text text-anchor="middle" x="656" y="-492" font-family="Helvetica,sans-Serif" font-size="10.00" fill="#000000">ArrayBuffer</text>
</a>
</g>
</g>
<!-- Node442657&#45;&gt;Node442800 -->
<g id="edge28" class="edge">
<title>Node442657&#45;&gt;Node442800</title>
<path fill="none" stroke="#191970" d="M344.2081,-389.758C358.7266,-407.3833 392.0124,-444.3341 429,-462 473.657,-483.3289 528.236,-492.9144 572.6839,-497.127"/>
<polygon fill="#191970" stroke="#191970" points="572.6103,-500.6338 582.8768,-498.0166 573.219,-493.6603 572.6103,-500.6338"/>
</g>
<!-- Node442790 -->
<g id="node17" class="node">
<title>Node442790</title>
<g id="a_node17"><a xlink:href="quickjs_8c.html#a0ec52a675282f321a6f42aa1298a53fe" target="_top" xlink:title="set_value">
<polygon fill="none" stroke="#000000" points="626.5,-370.5 626.5,-389.5 685.5,-389.5 685.5,-370.5 626.5,-370.5"/>
<text text-anchor="middle" x="656" y="-377.5" font-family="Helvetica,sans-Serif" font-size="10.00" fill="#000000">set_value</text>
</a>
</g>
</g>
<!-- Node442657&#45;&gt;Node442790 -->
<g id="edge36" class="edge">
<title>Node442657&#45;&gt;Node442790</title>
<path fill="none" stroke="#191970" d="M391.7879,-380C455.7158,-380 559.3874,-380 615.9913,-380"/>
<polygon fill="#191970" stroke="#191970" points="616.3258,-383.5001 626.3258,-380 616.3258,-376.5001 616.3258,-383.5001"/>
</g>
<!-- Node442801 -->
<g id="node18" class="node">
<title>Node442801</title>
<g id="a_node18"><a xlink:href="quickjs_8c.html#a869fa88a646c0a1914ec2e559b193b5c" target="_top" xlink:title="typed_array_is_detached">
<polygon fill="none" stroke="#000000" points="593.5,-534.5 593.5,-553.5 718.5,-553.5 718.5,-534.5 593.5,-534.5"/>
<text text-anchor="middle" x="656" y="-541.5" font-family="Helvetica,sans-Serif" font-size="10.00" fill="#000000">typed_array_is_detached</text>
</a>
</g>
</g>
<!-- Node442657&#45;&gt;Node442801 -->
<g id="edge37" class="edge">
<title>Node442657&#45;&gt;Node442801</title>
<path fill="none" stroke="#191970" d="M341.5006,-389.602C353.4403,-411.5184 385.8611,-465.3832 429,-492 475.4812,-520.679 536.1163,-533.5705 583.0248,-539.3505"/>
<polygon fill="#191970" stroke="#191970" points="582.7834,-542.8457 593.1179,-540.5114 583.5833,-535.8916 582.7834,-542.8457"/>
</g>
<!-- Node442821 -->
<g id="node19" class="node">
<title>Node442821</title>
<g id="a_node19"><a xlink:href="quickjs_8c.html#ab1b614ef35f1cea05da0ad4927c53118" target="_top" xlink:title="JS_ToFloat64Free">
<polygon fill="none" stroke="#ff0000" points="439.5,-256.5 439.5,-275.5 536.5,-275.5 536.5,-256.5 439.5,-256.5"/>
<text text-anchor="middle" x="488" y="-263.5" font-family="Helvetica,sans-Serif" font-size="10.00" fill="#000000">JS_ToFloat64Free</text>
</a>
</g>
</g>
<!-- Node442657&#45;&gt;Node442821 -->
<g id="edge29" class="edge">
<title>Node442657&#45;&gt;Node442821</title>
<path fill="none" stroke="#191970" d="M343.2552,-370.4188C357.1503,-351.3955 390.8524,-308.6591 429,-285 432.3508,-282.9218 435.9511,-281.0493 439.6607,-279.3662"/>
<polygon fill="#191970" stroke="#191970" points="441.0788,-282.568 449.0276,-275.5631 438.4455,-276.0822 441.0788,-282.568"/>
</g>
<!-- Node442803 -->
<g id="node20" class="node">
<title>Node442803</title>
<g id="a_node20"><a xlink:href="quickjs_8c.html#a643088ab23784b7f3c6ff94c37228256" target="_top" xlink:title="JS_ToInt32Free">
<polygon fill="none" stroke="#ff0000" points="445,-104.5 445,-123.5 531,-123.5 531,-104.5 445,-104.5"/>
<text text-anchor="middle" x="488" y="-111.5" font-family="Helvetica,sans-Serif" font-size="10.00" fill="#000000">JS_ToInt32Free</text>
</a>
</g>
</g>
<!-- Node442657&#45;&gt;Node442803 -->
<g id="edge30" class="edge">
<title>Node442657&#45;&gt;Node442803</title>
<path fill="none" stroke="#191970" d="M340.0764,-370.3647C356.9499,-324.916 427.8328,-134.1138 429,-133 431.1166,-130.9802 433.449,-129.1751 435.9276,-127.5619"/>
<polygon fill="#191970" stroke="#191970" points="437.666,-130.6011 444.8166,-122.7832 434.3514,-124.4356 437.666,-130.6011"/>
</g>
<!-- Node443039 -->
<g id="node21" class="node">
<title>Node443039</title>
<g id="a_node21"><a xlink:href="quickjs_8c.html#a4623c0fbf1417b8c089ba0f5037c5362" target="_top" xlink:title="JS_ToUint8ClampFree">
<polygon fill="none" stroke="#ff0000" points="430,-142.5 430,-161.5 546,-161.5 546,-142.5 430,-142.5"/>
<text text-anchor="middle" x="488" y="-149.5" font-family="Helvetica,sans-Serif" font-size="10.00" fill="#000000">JS_ToUint8ClampFree</text>
</a>
</g>
</g>
<!-- Node442657&#45;&gt;Node443039 -->
<g id="edge32" class="edge">
<title>Node442657&#45;&gt;Node443039</title>
<path fill="none" stroke="#191970" d="M339.5485,-370.4955C351.562,-333.5641 396.5576,-200.1994 429,-171 430.7547,-169.4207 432.6419,-167.9726 434.626,-166.6447"/>
<polygon fill="#191970" stroke="#191970" points="436.7735,-169.4571 443.8357,-161.5593 433.3897,-163.3293 436.7735,-169.4571"/>
</g>
<!-- Node442763 -->
<g id="node22" class="node">
<title>Node442763</title>
<g id="a_node22"><a xlink:href="quickjs_8c.html#a859d5c989a2aaecef1653b3ac279e108" target="_top" xlink:title="JS_ValueToAtom">
<polygon fill="none" stroke="#ff0000" points="441.5,-180.5 441.5,-199.5 534.5,-199.5 534.5,-180.5 441.5,-180.5"/>
<text text-anchor="middle" x="488" y="-187.5" font-family="Helvetica,sans-Serif" font-size="10.00" fill="#000000">JS_ValueToAtom</text>
</a>
</g>
</g>
<!-- Node442657&#45;&gt;Node442763 -->
<g id="edge34" class="edge">
<title>Node442657&#45;&gt;Node442763</title>
<path fill="none" stroke="#191970" d="M339.3606,-370.2941C348.1089,-342.2029 377.1135,-259.9115 429,-214 433.4565,-210.0567 438.6464,-206.7107 444.0645,-203.8852"/>
<polygon fill="#191970" stroke="#191970" points="445.7031,-206.9836 453.309,-199.6078 442.7636,-200.6307 445.7031,-206.9836"/>
</g>
<!-- Node442839&#45;&gt;Node442623 -->
<g id="edge13" class="edge">
<title>Node442839&#45;&gt;Node442623</title>
<path fill="none" stroke="#191970" d="M673.9608,-313.5996C690.6019,-323.3902 714.853,-340.0917 729,-361 781.7212,-438.9184 797.8874,-554.1157 802.4015,-600.0421"/>
<polygon fill="#191970" stroke="#191970" points="798.9299,-600.5155 803.3133,-610.161 805.9016,-599.8872 798.9299,-600.5155"/>
</g>
<!-- Node442839&#45;&gt;Node442653 -->
<g id="edge14" class="edge">
<title>Node442839&#45;&gt;Node442653</title>
<path fill="none" stroke="#191970" d="M716.6243,-304C729.5964,-304 743.1358,-304 755.5757,-304"/>
<polygon fill="#191970" stroke="#191970" points="755.73,-307.5001 765.73,-304 755.7299,-300.5001 755.73,-307.5001"/>
</g>
<!-- Node442901&#45;&gt;Node442623 -->
<g id="edge20" class="edge">
<title>Node442901&#45;&gt;Node442623</title>
<path fill="none" stroke="#191970" d="M533.6613,-408.4609C586.0478,-400.2482 672.0369,-395.4449 729,-437 783.0279,-476.4138 798.2584,-561.7858 802.4532,-600.3674"/>
<polygon fill="#191970" stroke="#191970" points="798.97,-600.7115 803.3996,-610.3359 805.9387,-600.0499 798.97,-600.7115"/>
</g>
<!-- Node442901&#45;&gt;Node442652 -->
<g id="edge21" class="edge">
<title>Node442901&#45;&gt;Node442652</title>
<path fill="none" stroke="#191970" d="M499.0169,-408.2862C511.69,-396.7191 532.5989,-376.3897 547,-356 567.4111,-327.1012 565.4383,-315.7138 583,-285 602.9044,-250.189 628.7047,-211.1394 643.6995,-188.9653"/>
<polygon fill="#191970" stroke="#191970" points="646.6881,-190.7946 649.4156,-180.5568 640.8991,-186.8592 646.6881,-190.7946"/>
</g>
<!-- Node442901&#45;&gt;Node442653 -->
<g id="edge22" class="edge">
<title>Node442901&#45;&gt;Node442653</title>
<path fill="none" stroke="#191970" d="M501.1884,-408.3952C518.9581,-395.8605 551.9507,-373.9965 583,-361 587.0766,-359.2936 692.859,-332.2685 756.5716,-316.0524"/>
<polygon fill="#191970" stroke="#191970" points="757.5856,-319.406 766.4138,-313.5481 755.8595,-312.6221 757.5856,-319.406"/>
</g>
<!-- Node442901&#45;&gt;Node442657 -->
<g id="edge23" class="edge">
<title>Node442901&#45;&gt;Node442657</title>
<path fill="none" stroke="#191970" d="M428.7057,-409.7339C407.0176,-404.678 383.4386,-398.3776 365.5538,-392.7353"/>
<polygon fill="#191970" stroke="#191970" points="366.5888,-389.3913 355.9958,-389.5924 364.4021,-396.041 366.5888,-389.3913"/>
</g>
<!-- Node442901&#45;&gt;Node442658 -->
<g id="edge18" class="edge">
<title>Node442901&#45;&gt;Node442658</title>
<path fill="none" stroke="#191970" d="M530.3935,-427.589C554.4857,-433.0384 584.687,-439.8697 609.437,-445.4679"/>
<polygon fill="#191970" stroke="#191970" points="608.8005,-448.9123 619.3263,-447.7048 610.3449,-442.0848 608.8005,-448.9123"/>
</g>
<!-- Node442901&#45;&gt;Node442839 -->
<g id="edge19" class="edge">
<title>Node442901&#45;&gt;Node442839</title>
<path fill="none" stroke="#191970" d="M497.1447,-408.3242C516.9505,-387.5421 563.5879,-339.5837 583,-328 590.3285,-323.6269 598.5525,-319.9408 606.767,-316.8713"/>
<polygon fill="#191970" stroke="#191970" points="608.0505,-320.1308 616.3515,-313.5471 605.7567,-313.5173 608.0505,-320.1308"/>
</g>
<!-- Node442901&#45;&gt;Node442800 -->
<g id="edge24" class="edge">
<title>Node442901&#45;&gt;Node442800</title>
<path fill="none" stroke="#191970" d="M501.9679,-427.6661C520.0498,-439.873 552.8266,-460.9721 583,-475 587.6635,-477.1681 592.57,-479.2482 597.5418,-481.2179"/>
<polygon fill="#191970" stroke="#191970" points="596.5453,-484.5833 607.1364,-484.8637 599.0318,-478.0398 596.5453,-484.5833"/>
</g>
<!-- Node442901&#45;&gt;Node442790 -->
<g id="edge25" class="edge">
<title>Node442901&#45;&gt;Node442790</title>
<path fill="none" stroke="#191970" d="M530.3935,-408.411C556.824,-402.4327 590.6068,-394.7913 616.4786,-388.9394"/>
<polygon fill="#191970" stroke="#191970" points="617.3462,-392.3316 626.3276,-386.7116 615.8018,-385.5041 617.3462,-392.3316"/>
</g>
<!-- Node442901&#45;&gt;Node442801 -->
<g id="edge27" class="edge">
<title>Node442901&#45;&gt;Node442801</title>
<path fill="none" stroke="#191970" d="M493.8108,-427.5788C506.9684,-448.432 541.1719,-498.1392 583,-524 587.1809,-526.5849 591.6985,-528.8414 596.3653,-530.8103"/>
<polygon fill="#191970" stroke="#191970" points="595.5015,-534.2244 606.0937,-534.4608 597.9608,-527.6706 595.5015,-534.2244"/>
</g>
<!-- Node442790&#45;&gt;Node442623 -->
<g id="edge26" class="edge">
<title>Node442790&#45;&gt;Node442623</title>
<path fill="none" stroke="#191970" d="M685.5267,-383.462C700.2731,-386.6012 717.3962,-392.5868 729,-404 784.9961,-459.0763 799.2365,-558.0459 802.8165,-600.1594"/>
<polygon fill="#191970" stroke="#191970" points="799.3331,-600.5147 803.5563,-610.2314 806.3143,-600.0018 799.3331,-600.5147"/>
</g>
<!-- Node442803&#45;&gt;Node442652 -->
<g id="edge31" class="edge">
<title>Node442803&#45;&gt;Node442652</title>
<path fill="none" stroke="#191970" d="M518.0603,-123.5274C527.3535,-126.5139 537.6133,-129.8529 547,-133 571.2769,-141.1394 598.4716,-150.6196 619.6247,-158.0748"/>
<polygon fill="#191970" stroke="#191970" points="618.5898,-161.4211 629.1846,-161.4511 620.921,-154.8206 618.5898,-161.4211"/>
</g>
<!-- Node443039&#45;&gt;Node442652 -->
<g id="edge33" class="edge">
<title>Node443039&#45;&gt;Node442652</title>
<path fill="none" stroke="#191970" d="M546.2868,-158.592C564.6726,-160.6713 584.8773,-162.9564 602.8827,-164.9927"/>
<polygon fill="#191970" stroke="#191970" points="602.5856,-168.4813 612.9157,-166.1274 603.3724,-161.5257 602.5856,-168.4813"/>
</g>
<!-- Node442763&#45;&gt;Node442652 -->
<g id="edge35" class="edge">
<title>Node442763&#45;&gt;Node442652</title>
<path fill="none" stroke="#191970" d="M534.7974,-184.7074C555.9189,-182.3187 580.973,-179.4852 602.8047,-177.0161"/>
<polygon fill="#191970" stroke="#191970" points="603.363,-180.4754 612.9063,-175.8737 602.5763,-173.5197 603.363,-180.4754"/>
</g>
<!-- Node443040&#45;&gt;Node442622 -->
<g id="edge40" class="edge">
<title>Node443040&#45;&gt;Node442622</title>
<path fill="none" stroke="#191970" d="M344.2017,-667.6487C358.965,-685.6047 392.9925,-724.4595 429,-748 435.1087,-751.9937 441.9892,-755.5233 448.8375,-758.5628"/>
<polygon fill="#191970" stroke="#191970" points="447.5029,-761.7983 458.0805,-762.4011 450.1875,-755.3335 447.5029,-761.7983"/>
</g>
<!-- Node443040&#45;&gt;Node442623 -->
<g id="edge41" class="edge">
<title>Node443040&#45;&gt;Node442623</title>
<path fill="none" stroke="#191970" d="M347.4794,-667.6407C363.8731,-681.3238 396.3325,-705.7431 429,-715 479.4577,-729.2981 494.8331,-720.3879 547,-715 629.196,-706.5106 653.8154,-711.286 729,-677 750.8926,-667.0164 772.3932,-649.6817 786.7214,-636.7428"/>
<polygon fill="#191970" stroke="#191970" points="789.3346,-639.0924 794.2776,-629.7213 784.5696,-633.9645 789.3346,-639.0924"/>
</g>
<!-- Node443040&#45;&gt;Node442652 -->
<g id="edge42" class="edge">
<title>Node443040&#45;&gt;Node442652</title>
<path fill="none" stroke="#191970" d="M337.6648,-648.466C342.5168,-612.2197 363.9995,-480.9081 429,-399 467.7773,-350.1361 501.803,-365.9952 547,-323 590.7337,-281.3967 628.4248,-220.0715 645.7907,-189.5991"/>
<polygon fill="#191970" stroke="#191970" points="648.8567,-191.2875 650.6968,-180.8537 642.7517,-187.8627 648.8567,-191.2875"/>
</g>
<!-- Node442981 -->
<g id="node24" class="node">
<title>Node442981</title>
<g id="a_node24"><a xlink:href="quickjs_8c.html#a28704096ee67c5b0ab1bd60ce050e36a" target="_top" xlink:title="JS_CallConstructor">
<polygon fill="none" stroke="#ff0000" points="437,-686.5 437,-705.5 539,-705.5 539,-686.5 437,-686.5"/>
<text text-anchor="middle" x="488" y="-693.5" font-family="Helvetica,sans-Serif" font-size="10.00" fill="#000000">JS_CallConstructor</text>
</a>
</g>
</g>
<!-- Node443040&#45;&gt;Node442981 -->
<g id="edge39" class="edge">
<title>Node443040&#45;&gt;Node442981</title>
<path fill="none" stroke="#191970" d="M374.7298,-667.589C394.6319,-672.5809 419.1567,-678.7324 440.2909,-684.0334"/>
<polygon fill="#191970" stroke="#191970" points="439.494,-687.4418 450.0451,-686.4799 441.1971,-680.6521 439.494,-687.4418"/>
</g>
<!-- Node442887 -->
<g id="node25" class="node">
<title>Node442887</title>
<g id="a_node25"><a xlink:href="quickjs_8c.html#a07acd485a57197356906928a788a0644" target="_top" xlink:title="JS_ToLengthFree">
<polygon fill="none" stroke="#ff0000" points="609,-648.5 609,-667.5 703,-667.5 703,-648.5 609,-648.5"/>
<text text-anchor="middle" x="656" y="-655.5" font-family="Helvetica,sans-Serif" font-size="10.00" fill="#000000">JS_ToLengthFree</text>
</a>
</g>
</g>
<!-- Node443040&#45;&gt;Node442887 -->
<g id="edge43" class="edge">
<title>Node443040&#45;&gt;Node442887</title>
<path fill="none" stroke="#191970" d="M393.252,-658C451.1903,-658 540.6385,-658 598.7547,-658"/>
<polygon fill="#191970" stroke="#191970" points="598.8705,-661.5001 608.8704,-658 598.8704,-654.5001 598.8705,-661.5001"/>
</g>
<!-- Node443041 -->
<g id="node26" class="node">
<title>Node443041</title>
<g id="a_node26"><a xlink:href="quickjs_8c.html#add71c7e0efcb1fd14572d39e2672971d" target="_top" xlink:title="js_typed_array_get\l_length_internal">
<polygon fill="none" stroke="#000000" points="438.5,-561 438.5,-591 537.5,-591 537.5,-561 438.5,-561"/>
<text text-anchor="start" x="446.5" y="-579" font-family="Helvetica,sans-Serif" font-size="10.00" fill="#000000">js_typed_array_get</text>
<text text-anchor="middle" x="488" y="-568" font-family="Helvetica,sans-Serif" font-size="10.00" fill="#000000">_length_internal</text>
</a>
</g>
</g>
<!-- Node443040&#45;&gt;Node443041 -->
<g id="edge45" class="edge">
<title>Node443040&#45;&gt;Node443041</title>
<path fill="none" stroke="#191970" d="M354.1755,-648.4331C377.8017,-635.6453 420.2648,-612.662 451.0351,-596.0074"/>
<polygon fill="#191970" stroke="#191970" points="453.0469,-598.8983 460.1754,-591.0602 449.7149,-592.7422 453.0469,-598.8983"/>
</g>
<!-- Node442887&#45;&gt;Node442623 -->
<g id="edge44" class="edge">
<title>Node442887&#45;&gt;Node442623</title>
<path fill="none" stroke="#191970" d="M693.3466,-648.411C712.7009,-643.4417 736.5304,-637.3233 757.1126,-632.0387"/>
<polygon fill="#191970" stroke="#191970" points="758.1065,-635.3971 766.9219,-629.5201 756.3656,-628.617 758.1065,-635.3971"/>
</g>
<!-- Node443041&#45;&gt;Node442800 -->
<g id="edge47" class="edge">
<title>Node443041&#45;&gt;Node442800</title>
<path fill="none" stroke="#191970" d="M513.2434,-560.9895C532.0709,-550.1569 558.6354,-535.6277 583,-525 588.065,-522.7906 593.3932,-520.6442 598.7681,-518.5977"/>
<polygon fill="#191970" stroke="#191970" points="600.2743,-521.7728 608.4467,-515.0301 597.8533,-515.2048 600.2743,-521.7728"/>
</g>
<!-- Node443041&#45;&gt;Node442801 -->
<g id="edge48" class="edge">
<title>Node443041&#45;&gt;Node442801</title>
<path fill="none" stroke="#191970" d="M537.9507,-566.4856C556.1519,-563.0187 576.9204,-559.0628 595.9104,-555.4456"/>
<polygon fill="#191970" stroke="#191970" points="596.7832,-558.8424 605.9517,-553.533 595.4734,-551.966 596.7832,-558.8424"/>
</g>
<!-- Node443042 -->
<g id="node27" class="node">
<title>Node443042</title>
<g id="a_node27"><a xlink:href="quickjs_8c.html#af894945c3459f86096c1821a0a696934" target="_top" xlink:title="get_typed_array">
<polygon fill="none" stroke="#000000" points="613,-572.5 613,-591.5 699,-591.5 699,-572.5 613,-572.5"/>
<text text-anchor="middle" x="656" y="-579.5" font-family="Helvetica,sans-Serif" font-size="10.00" fill="#000000">get_typed_array</text>
</a>
</g>
</g>
<!-- Node443041&#45;&gt;Node443042 -->
<g id="edge46" class="edge">
<title>Node443041&#45;&gt;Node443042</title>
<path fill="none" stroke="#191970" d="M537.9507,-577.784C558.3054,-578.5109 581.8711,-579.3525 602.5693,-580.0918"/>
<polygon fill="#191970" stroke="#191970" points="602.6667,-583.5974 612.7853,-580.4566 602.9166,-576.6018 602.6667,-583.5974"/>
</g>
</g>
</svg>
