<?xml version="1.0" encoding="UTF-8" standalone="no"?>
<!DOCTYPE svg PUBLIC "-//W3C//DTD SVG 1.1//EN"
 "http://www.w3.org/Graphics/SVG/1.1/DTD/svg11.dtd">
<!-- Generated by graphviz version 2.40.1 (20161225.0304)
 -->
<!-- Title: array_sort_context Pages: 1 -->
<!--zoomable 289 -->
<svg id="main" version="1.1" xmlns="http://www.w3.org/2000/svg" xmlns:xlink="http://www.w3.org/1999/xlink" xml:space="preserve" onload="init(evt)">
<style type="text/css"><![CDATA[
.edge:hover path { stroke: red; }
.edge:hover polygon { stroke: red; fill: red; }
]]></style>
<script type="text/javascript"><![CDATA[
var edges = document.getElementsByTagName('g');
if (edges && edges.length) {
  for (var i=0;i<edges.length;i++) {
    if (edges[i].id.substr(0,4)=='edge') {
      edges[i].setAttribute('class','edge');
    }
  }
}
]]></script>
        <defs>
                <circle id="rim" cx="0" cy="0" r="7"/>
                <circle id="rim2" cx="0" cy="0" r="3.5"/>
                <g id="zoomPlus">
                        <use xlink:href="#rim" fill="#404040">
                                <set attributeName="fill" to="#808080" begin="zoomplus.mouseover" end="zoomplus.mouseout"/>
                        </use>
                        <path d="M-4,0h8M0,-4v8" fill="none" stroke="white" stroke-width="1.5" pointer-events="none"/>
                </g>
                <g id="zoomMin">
                        <use xlink:href="#rim" fill="#404040">
                                <set attributeName="fill" to="#808080" begin="zoomminus.mouseover" end="zoomminus.mouseout"/>
                        </use>
                        <path d="M-4,0h8" fill="none" stroke="white" stroke-width="1.5" pointer-events="none"/>
                </g>
                <g id="dirArrow">
                        <path fill="none" stroke="white" stroke-width="1.5" d="M0,-3.0v7 M-2.5,-0.5L0,-3.0L2.5,-0.5"/>
                </g>
               <g id="resetDef">
                       <use xlink:href="#rim2" fill="#404040">
                               <set attributeName="fill" to="#808080" begin="reset.mouseover" end="reset.mouseout"/>
                       </use>
               </g>
        </defs>

<script type="text/javascript">
var viewWidth = 672;
var viewHeight = 289;
var sectionId = 'dynsection-0';
</script>
<script xlink:href="svgpan.js"/>
<svg id="graph" class="graph">
<g id="viewport">
<title>array_sort_context</title>
<!-- Node1 -->
<g id="node1" class="node">
<title>Node1</title>
<polygon fill="#bfbfbf" stroke="#000000" points="167.5444,-.5 167.5444,-19.5 265.5444,-19.5 265.5444,-.5 167.5444,-.5"/>
<text text-anchor="middle" x="216.5444" y="-7.5" font-family="Helvetica,sans-Serif" font-size="10.00" fill="#000000">array_sort_context</text>
</g>
<!-- Node2 -->
<g id="node2" class="node">
<title>Node2</title>
<g id="a_node2"><a xlink:href="structJSContext.html" target="_top" xlink:title="JSContext">
<polygon fill="none" stroke="#000000" points="185.0444,-67.5 185.0444,-86.5 248.0444,-86.5 248.0444,-67.5 185.0444,-67.5"/>
<text text-anchor="middle" x="216.5444" y="-74.5" font-family="Helvetica,sans-Serif" font-size="10.00" fill="#000000">JSContext</text>
</a>
</g>
</g>
<!-- Node2&#45;&gt;Node1 -->
<g id="edge1" class="edge">
<title>Node2&#45;&gt;Node1</title>
<path fill="none" stroke="#9a32cd" stroke-dasharray="5,2" d="M216.5444,-57.1079C216.5444,-44.714 216.5444,-29.3263 216.5444,-19.5817"/>
<polygon fill="#9a32cd" stroke="#9a32cd" points="213.0445,-57.4005 216.5444,-67.4005 220.0445,-57.4006 213.0445,-57.4005"/>
<text text-anchor="middle" x="225.0444" y="-41" font-family="Helvetica,sans-Serif" font-size="10.00" fill="#000000"> ctx</text>
</g>
<!-- Node3 -->
<g id="node3" class="node">
<title>Node3</title>
<g id="a_node3"><a xlink:href="structJSRuntime.html" target="_top" xlink:title="JSRuntime">
<polygon fill="none" stroke="#000000" points="266.0444,-135.5 266.0444,-154.5 331.0444,-154.5 331.0444,-135.5 266.0444,-135.5"/>
<text text-anchor="middle" x="298.5444" y="-142.5" font-family="Helvetica,sans-Serif" font-size="10.00" fill="#000000">JSRuntime</text>
</a>
</g>
</g>
<!-- Node3&#45;&gt;Node2 -->
<g id="edge2" class="edge">
<title>Node3&#45;&gt;Node2</title>
<path fill="none" stroke="#9a32cd" stroke-dasharray="5,2" d="M280.5461,-128.4171C272.4256,-121.0882 262.6345,-112.4601 253.5444,-105 245.8228,-98.663 236.9006,-91.8957 229.7525,-86.6016"/>
<polygon fill="#9a32cd" stroke="#9a32cd" points="278.2707,-131.0787 288.022,-135.2215 282.9825,-125.902 278.2707,-131.0787"/>
<text text-anchor="middle" x="271.5444" y="-108" font-family="Helvetica,sans-Serif" font-size="10.00" fill="#000000"> rt</text>
</g>
<!-- Node4 -->
<g id="node4" class="node">
<title>Node4</title>
<g id="a_node4"><a xlink:href="structlist__head.html" target="_top" xlink:title="list_head">
<polygon fill="none" stroke="#000000" points="8.5444,-259.5 8.5444,-278.5 64.5444,-278.5 64.5444,-259.5 8.5444,-259.5"/>
<text text-anchor="middle" x="36.5444" y="-266.5" font-family="Helvetica,sans-Serif" font-size="10.00" fill="#000000">list_head</text>
</a>
</g>
</g>
<!-- Node4&#45;&gt;Node2 -->
<g id="edge11" class="edge">
<title>Node4&#45;&gt;Node2</title>
<path fill="none" stroke="#9a32cd" stroke-dasharray="5,2" d="M25.2466,-250.5561C9.6568,-222.4716 -13.7163,-168.6041 12.5444,-134 33.3853,-106.5377 133.1316,-88.7262 185.0194,-81.1605"/>
<polygon fill="#9a32cd" stroke="#9a32cd" points="22.2971,-252.4469 30.3422,-259.3409 28.3522,-248.9346 22.2971,-252.4469"/>
<text text-anchor="middle" x="49.5444" y="-148" font-family="Helvetica,sans-Serif" font-size="10.00" fill="#000000"> loaded_modules</text>
<text text-anchor="middle" x="49.5444" y="-137" font-family="Helvetica,sans-Serif" font-size="10.00" fill="#000000">link</text>
</g>
<!-- Node4&#45;&gt;Node3 -->
<g id="edge3" class="edge">
<title>Node4&#45;&gt;Node3</title>
<path fill="none" stroke="#9a32cd" stroke-dasharray="5,2" d="M71.4614,-254.6148C78.1259,-250.6471 84.5652,-245.7994 89.5444,-240 109.8768,-216.3184 89.1497,-193.471 113.5444,-174 138.5769,-154.02 225.0964,-162.0704 256.5444,-156 259.5048,-155.4286 262.5655,-154.7671 265.6228,-154.0578"/>
<polygon fill="#9a32cd" stroke="#9a32cd" points="69.5178,-251.6851 62.3496,-259.4868 72.8185,-257.8581 69.5178,-251.6851"/>
<text text-anchor="middle" x="154.0444" y="-232" font-family="Helvetica,sans-Serif" font-size="10.00" fill="#000000"> job_list</text>
<text text-anchor="middle" x="154.0444" y="-221" font-family="Helvetica,sans-Serif" font-size="10.00" fill="#000000">tmp_obj_list</text>
<text text-anchor="start" x="113.5444" y="-210" font-family="Helvetica,sans-Serif" font-size="10.00" fill="#000000">gc_zero_ref_count</text>
<text text-anchor="middle" x="154.0444" y="-199" font-family="Helvetica,sans-Serif" font-size="10.00" fill="#000000">_list</text>
<text text-anchor="middle" x="154.0444" y="-188" font-family="Helvetica,sans-Serif" font-size="10.00" fill="#000000">gc_obj_list</text>
<text text-anchor="middle" x="154.0444" y="-177" font-family="Helvetica,sans-Serif" font-size="10.00" fill="#000000">context_list</text>
</g>
<!-- Node4&#45;&gt;Node4 -->
<g id="edge4" class="edge">
<title>Node4&#45;&gt;Node4</title>
<path fill="none" stroke="#9a32cd" stroke-dasharray="5,2" d="M62.7053,-280.5337C73.4586,-281.2814 82.5444,-277.4368 82.5444,-269 82.5444,-257.9805 67.0445,-254.7951 52.5739,-259.444"/>
<polygon fill="#9a32cd" stroke="#9a32cd" points="63.0592,-277.0368 52.5739,-278.556 61.718,-283.9071 63.0592,-277.0368"/>
<text text-anchor="middle" x="93.5444" y="-272" font-family="Helvetica,sans-Serif" font-size="10.00" fill="#000000"> prev</text>
<text text-anchor="middle" x="93.5444" y="-261" font-family="Helvetica,sans-Serif" font-size="10.00" fill="#000000">next</text>
</g>
<!-- Node28 -->
<g id="node10" class="node">
<title>Node28</title>
<g id="a_node10"><a xlink:href="structJSStackFrame.html" target="_top" xlink:title="JSStackFrame">
<polygon fill="none" stroke="#000000" points="95.5444,-135.5 95.5444,-154.5 177.5444,-154.5 177.5444,-135.5 95.5444,-135.5"/>
<text text-anchor="middle" x="136.5444" y="-142.5" font-family="Helvetica,sans-Serif" font-size="10.00" fill="#000000">JSStackFrame</text>
</a>
</g>
</g>
<!-- Node4&#45;&gt;Node28 -->
<g id="edge14" class="edge">
<title>Node4&#45;&gt;Node28</title>
<path fill="none" stroke="#9a32cd" stroke-dasharray="5,2" d="M30.6242,-249.8232C25.4584,-228.9707 21.0934,-195.7221 37.5444,-174 41.3019,-169.0386 70.1656,-160.9154 95.7641,-154.5265"/>
<polygon fill="#9a32cd" stroke="#9a32cd" points="27.2535,-250.7659 33.2926,-259.471 34.0002,-248.8998 27.2535,-250.7659"/>
<text text-anchor="middle" x="63.5444" y="-204.5" font-family="Helvetica,sans-Serif" font-size="10.00" fill="#000000"> var_ref_list</text>
</g>
<!-- Node5 -->
<g id="node5" class="node">
<title>Node5</title>
<g id="a_node5"><a xlink:href="structJSMallocState.html" target="_top" xlink:title="JSMallocState">
<polygon fill="none" stroke="#000000" points="149.5444,-259.5 149.5444,-278.5 229.5444,-278.5 229.5444,-259.5 149.5444,-259.5"/>
<text text-anchor="middle" x="189.5444" y="-266.5" font-family="Helvetica,sans-Serif" font-size="10.00" fill="#000000">JSMallocState</text>
</a>
</g>
</g>
<!-- Node5&#45;&gt;Node3 -->
<g id="edge5" class="edge">
<title>Node5&#45;&gt;Node3</title>
<path fill="none" stroke="#9a32cd" stroke-dasharray="5,2" d="M194.6424,-249.6248C201.0558,-228.5978 213.93,-195.1962 235.5444,-174 244.3131,-165.4009 256.0957,-159.0504 267.0984,-154.5218"/>
<polygon fill="#9a32cd" stroke="#9a32cd" points="191.2422,-248.7859 191.8655,-259.3624 197.9738,-250.7056 191.2422,-248.7859"/>
<text text-anchor="middle" x="265.0444" y="-204.5" font-family="Helvetica,sans-Serif" font-size="10.00" fill="#000000"> malloc_state</text>
</g>
<!-- Node6 -->
<g id="node6" class="node">
<title>Node6</title>
<g id="a_node6"><a xlink:href="structJSMallocFunctions.html" target="_top" xlink:title="JSMallocFunctions">
<polygon fill="none" stroke="#000000" points="247.5444,-259.5 247.5444,-278.5 347.5444,-278.5 347.5444,-259.5 247.5444,-259.5"/>
<text text-anchor="middle" x="297.5444" y="-266.5" font-family="Helvetica,sans-Serif" font-size="10.00" fill="#000000">JSMallocFunctions</text>
</a>
</g>
</g>
<!-- Node6&#45;&gt;Node3 -->
<g id="edge6" class="edge">
<title>Node6&#45;&gt;Node3</title>
<path fill="none" stroke="#9a32cd" stroke-dasharray="5,2" d="M297.7051,-249.0697C297.9229,-222.0713 298.3031,-174.9273 298.4663,-154.6849"/>
<polygon fill="#9a32cd" stroke="#9a32cd" points="294.2037,-249.242 297.6229,-259.2699 301.2035,-249.2985 294.2037,-249.242"/>
<text text-anchor="middle" x="306.0444" y="-204.5" font-family="Helvetica,sans-Serif" font-size="10.00" fill="#000000"> mf</text>
</g>
<!-- Node7 -->
<g id="node7" class="node">
<title>Node7</title>
<g id="a_node7"><a xlink:href="structJSString.html" target="_top" xlink:title="JSString">
<polygon fill="none" stroke="#ff0000" points="365.5444,-259.5 365.5444,-278.5 419.5444,-278.5 419.5444,-259.5 365.5444,-259.5"/>
<text text-anchor="middle" x="392.5444" y="-266.5" font-family="Helvetica,sans-Serif" font-size="10.00" fill="#000000">JSString</text>
</a>
</g>
</g>
<!-- Node7&#45;&gt;Node3 -->
<g id="edge7" class="edge">
<title>Node7&#45;&gt;Node3</title>
<path fill="none" stroke="#9a32cd" stroke-dasharray="5,2" d="M356.2813,-255.3522C349.0001,-251.2949 341.9394,-246.2244 336.5444,-240 316.1987,-216.5268 325.8221,-202.5341 313.5444,-174 310.6767,-167.3353 306.9267,-160.0853 303.8936,-154.5015"/>
<polygon fill="#9a32cd" stroke="#9a32cd" points="355.003,-258.6259 365.5135,-259.9602 358.1291,-252.3627 355.003,-258.6259"/>
<text text-anchor="middle" x="362.5444" y="-204.5" font-family="Helvetica,sans-Serif" font-size="10.00" fill="#000000"> atom_array</text>
</g>
<!-- Node9 -->
<g id="node8" class="node">
<title>Node9</title>
<g id="a_node8"><a xlink:href="structJSShape.html" target="_top" xlink:title="JSShape">
<polygon fill="none" stroke="#ff0000" points="437.5444,-259.5 437.5444,-278.5 493.5444,-278.5 493.5444,-259.5 437.5444,-259.5"/>
<text text-anchor="middle" x="465.5444" y="-266.5" font-family="Helvetica,sans-Serif" font-size="10.00" fill="#000000">JSShape</text>
</a>
</g>
</g>
<!-- Node9&#45;&gt;Node2 -->
<g id="edge12" class="edge">
<title>Node9&#45;&gt;Node2</title>
<path fill="none" stroke="#9a32cd" stroke-dasharray="5,2" d="M472.1028,-249.5041C477.7446,-228.8655 482.8056,-196.2589 467.5444,-174 441.7874,-136.4326 309.6355,-99.8159 248.1193,-84.4987"/>
<polygon fill="#9a32cd" stroke="#9a32cd" points="468.672,-248.7571 469.1193,-259.3425 475.3708,-250.7886 468.672,-248.7571"/>
<text text-anchor="middle" x="473.0444" y="-142.5" font-family="Helvetica,sans-Serif" font-size="10.00" fill="#000000"> array_shape</text>
</g>
<!-- Node9&#45;&gt;Node3 -->
<g id="edge8" class="edge">
<title>Node9&#45;&gt;Node3</title>
<path fill="none" stroke="#9a32cd" stroke-dasharray="5,2" d="M429.5264,-254.54C422.8775,-250.6032 416.4845,-245.7867 411.5444,-240 391.3754,-216.3748 410.7673,-195.7044 388.5444,-174 380.2061,-165.8562 353.427,-157.8243 331.2305,-152.2858"/>
<polygon fill="#9a32cd" stroke="#9a32cd" points="428.1648,-257.7795 438.6393,-259.3716 431.4438,-251.595 428.1648,-257.7795"/>
<text text-anchor="middle" x="439.5444" y="-204.5" font-family="Helvetica,sans-Serif" font-size="10.00" fill="#000000"> shape_hash</text>
</g>
<!-- Node9&#45;&gt;Node9 -->
<g id="edge9" class="edge">
<title>Node9&#45;&gt;Node9</title>
<path fill="none" stroke="#9a32cd" stroke-dasharray="5,2" d="M491.7053,-280.5337C502.4586,-281.2814 511.5444,-277.4368 511.5444,-269 511.5444,-257.9805 496.0445,-254.7951 481.5739,-259.444"/>
<polygon fill="#9a32cd" stroke="#9a32cd" points="492.0592,-277.0368 481.5739,-278.556 490.718,-283.9071 492.0592,-277.0368"/>
<text text-anchor="middle" x="551.5444" y="-266.5" font-family="Helvetica,sans-Serif" font-size="10.00" fill="#000000"> shape_hash_next</text>
</g>
<!-- Node40 -->
<g id="node9" class="node">
<title>Node40</title>
<g id="a_node9"><a xlink:href="structJSClass.html" target="_top" xlink:title="JSClass">
<polygon fill="none" stroke="#ff0000" points="609.5444,-259.5 609.5444,-278.5 663.5444,-278.5 663.5444,-259.5 609.5444,-259.5"/>
<text text-anchor="middle" x="636.5444" y="-266.5" font-family="Helvetica,sans-Serif" font-size="10.00" fill="#000000">JSClass</text>
</a>
</g>
</g>
<!-- Node40&#45;&gt;Node3 -->
<g id="edge10" class="edge">
<title>Node40&#45;&gt;Node3</title>
<path fill="none" stroke="#9a32cd" stroke-dasharray="5,2" d="M615.1588,-253.311C584.8206,-231.8681 526.8129,-193.8149 471.5444,-174 424.5304,-157.1445 366.7538,-149.9835 331.2988,-147.0134"/>
<polygon fill="#9a32cd" stroke="#9a32cd" points="613.4841,-256.4166 623.652,-259.3938 617.56,-250.7256 613.4841,-256.4166"/>
<text text-anchor="middle" x="621.5444" y="-204.5" font-family="Helvetica,sans-Serif" font-size="10.00" fill="#000000"> class_array</text>
</g>
<!-- Node28&#45;&gt;Node2 -->
<g id="edge13" class="edge">
<title>Node28&#45;&gt;Node2</title>
<path fill="none" stroke="#9a32cd" stroke-dasharray="5,2" d="M144.9819,-126.1568C148.9261,-118.8788 154.1715,-110.9015 160.5444,-105 168.9983,-97.1714 180.0524,-91.0253 190.104,-86.5106"/>
<polygon fill="#9a32cd" stroke="#9a32cd" points="141.7135,-124.8709 140.4264,-135.3873 147.9907,-127.9689 141.7135,-124.8709"/>
<text text-anchor="middle" x="207.0444" y="-108" font-family="Helvetica,sans-Serif" font-size="10.00" fill="#000000"> current_stack_frame</text>
</g>
<!-- Node28&#45;&gt;Node28 -->
<g id="edge15" class="edge">
<title>Node28&#45;&gt;Node28</title>
<path fill="none" stroke="#9a32cd" stroke-dasharray="5,2" d="M187.8024,-150.0941C192.5508,-149.043 195.5444,-147.345 195.5444,-145 195.5444,-141.248 187.8807,-139.1522 177.6276,-138.7125"/>
<polygon fill="#9a32cd" stroke="#9a32cd" points="187.1518,-146.6464 177.6276,-151.2875 187.9672,-153.5987 187.1518,-146.6464"/>
<text text-anchor="middle" x="221.5444" y="-142.5" font-family="Helvetica,sans-Serif" font-size="10.00" fill="#000000"> prev_frame</text>
</g>
</g>
</svg>
        <g id="navigator" transform="translate(0 0)" fill="#404254">
                <rect fill="#f2f5e9" fill-opacity="0.5" stroke="#606060" stroke-width=".5" x="0" y="0" width="60" height="60"/>
                <use id="zoomplus" xlink:href="#zoomPlus" x="17" y="9" onmousedown="handleZoom(evt,'in')"/>
                <use id="zoomminus" xlink:href="#zoomMin" x="42" y="9" onmousedown="handleZoom(evt,'out')"/>
                <use id="reset" xlink:href="#resetDef" x="30" y="36" onmousedown="handleReset()"/>
                <g id="arrowUp" xlink:href="#dirArrow" transform="translate(30 24)" onmousedown="handlePan(0,-1)">
                  <use xlink:href="#rim" fill="#404040">
                        <set attributeName="fill" to="#808080" begin="arrowUp.mouseover" end="arrowUp.mouseout"/>
                  </use>
                  <path fill="none" stroke="white" stroke-width="1.5" d="M0,-3.0v7 M-2.5,-0.5L0,-3.0L2.5,-0.5"/>
                </g>
                <g id="arrowRight" xlink:href="#dirArrow" transform="rotate(90) translate(36 -43)" onmousedown="handlePan(1,0)">
                  <use xlink:href="#rim" fill="#404040">
                        <set attributeName="fill" to="#808080" begin="arrowRight.mouseover" end="arrowRight.mouseout"/>
                  </use>
                  <path fill="none" stroke="white" stroke-width="1.5" d="M0,-3.0v7 M-2.5,-0.5L0,-3.0L2.5,-0.5"/>
                </g>
                <g id="arrowDown" xlink:href="#dirArrow" transform="rotate(180) translate(-30 -48)" onmousedown="handlePan(0,1)">
                  <use xlink:href="#rim" fill="#404040">
                        <set attributeName="fill" to="#808080" begin="arrowDown.mouseover" end="arrowDown.mouseout"/>
                  </use>
                  <path fill="none" stroke="white" stroke-width="1.5" d="M0,-3.0v7 M-2.5,-0.5L0,-3.0L2.5,-0.5"/>
                </g>
                <g id="arrowLeft" xlink:href="#dirArrow" transform="rotate(270) translate(-36 17)" onmousedown="handlePan(-1,0)">
                  <use xlink:href="#rim" fill="#404040">
                        <set attributeName="fill" to="#808080" begin="arrowLeft.mouseover" end="arrowLeft.mouseout"/>
                  </use>
                  <path fill="none" stroke="white" stroke-width="1.5" d="M0,-3.0v7 M-2.5,-0.5L0,-3.0L2.5,-0.5"/>
                </g>
        </g>
        <svg viewBox="0 0 15 15" width="100%" height="30px" preserveAspectRatio="xMaxYMin meet">
         <g id="arrow_out" transform="scale(0.3 0.3)">
          <a xlink:href="structarray__sort__context__coll__graph_org.svg" target="_base">
           <rect id="button" ry="5" rx="5" y="6" x="6" height="38" width="38"
                fill="#f2f5e9" fill-opacity="0.5" stroke="#606060" stroke-width="1.0"/>
           <path id="arrow"
             d="M 11.500037,31.436501 C 11.940474,20.09759 22.043105,11.32322 32.158766,21.979434 L 37.068811,17.246167 C 37.068811,17.246167 37.088388,32 37.088388,32 L 22.160133,31.978069 C 22.160133,31.978069 26.997745,27.140456 26.997745,27.140456 C 18.528582,18.264221 13.291696,25.230495 11.500037,31.436501 z"
             style="fill:#404040;"/>
          </a>
         </g>
        </svg>
</svg>
