<?xml version="1.0" encoding="UTF-8" standalone="no"?>
<!DOCTYPE svg PUBLIC "-//W3C//DTD SVG 1.1//EN"
 "http://www.w3.org/Graphics/SVG/1.1/DTD/svg11.dtd">
<!-- Generated by graphviz version 2.40.1 (20161225.0304)
 -->
<!-- Title: GetExportNamesState Pages: 1 -->
<!--zoomable 197 -->
<svg id="main" version="1.1" xmlns="http://www.w3.org/2000/svg" xmlns:xlink="http://www.w3.org/1999/xlink" xml:space="preserve" onload="init(evt)">
<style type="text/css"><![CDATA[
.edge:hover path { stroke: red; }
.edge:hover polygon { stroke: red; fill: red; }
]]></style>
<script type="text/javascript"><![CDATA[
var edges = document.getElementsByTagName('g');
if (edges && edges.length) {
  for (var i=0;i<edges.length;i++) {
    if (edges[i].id.substr(0,4)=='edge') {
      edges[i].setAttribute('class','edge');
    }
  }
}
]]></script>
        <defs>
                <circle id="rim" cx="0" cy="0" r="7"/>
                <circle id="rim2" cx="0" cy="0" r="3.5"/>
                <g id="zoomPlus">
                        <use xlink:href="#rim" fill="#404040">
                                <set attributeName="fill" to="#808080" begin="zoomplus.mouseover" end="zoomplus.mouseout"/>
                        </use>
                        <path d="M-4,0h8M0,-4v8" fill="none" stroke="white" stroke-width="1.5" pointer-events="none"/>
                </g>
                <g id="zoomMin">
                        <use xlink:href="#rim" fill="#404040">
                                <set attributeName="fill" to="#808080" begin="zoomminus.mouseover" end="zoomminus.mouseout"/>
                        </use>
                        <path d="M-4,0h8" fill="none" stroke="white" stroke-width="1.5" pointer-events="none"/>
                </g>
                <g id="dirArrow">
                        <path fill="none" stroke="white" stroke-width="1.5" d="M0,-3.0v7 M-2.5,-0.5L0,-3.0L2.5,-0.5"/>
                </g>
               <g id="resetDef">
                       <use xlink:href="#rim2" fill="#404040">
                               <set attributeName="fill" to="#808080" begin="reset.mouseover" end="reset.mouseout"/>
                       </use>
               </g>
        </defs>

<script type="text/javascript">
var viewWidth = 1078;
var viewHeight = 197;
var sectionId = 'dynsection-0';
</script>
<script xlink:href="svgpan.js"/>
<svg id="graph" class="graph">
<g id="viewport">
<title>GetExportNamesState</title>
<!-- Node1 -->
<g id="node1" class="node">
<title>Node1</title>
<polygon fill="#bfbfbf" stroke="#000000" points="954,-42.5 954,-61.5 1070,-61.5 1070,-42.5 954,-42.5"/>
<text text-anchor="middle" x="1012" y="-49.5" font-family="Helvetica,sans-Serif" font-size="10.00" fill="#000000">GetExportNamesState</text>
</g>
<!-- Node2 -->
<g id="node2" class="node">
<title>Node2</title>
<g id="a_node2"><a xlink:href="structExportedNameEntry.html" target="_top" xlink:title="ExportedNameEntry">
<polygon fill="none" stroke="#000000" points="737,-135.5 737,-154.5 842,-154.5 842,-135.5 737,-135.5"/>
<text text-anchor="middle" x="789.5" y="-142.5" font-family="Helvetica,sans-Serif" font-size="10.00" fill="#000000">ExportedNameEntry</text>
</a>
</g>
</g>
<!-- Node2&#45;&gt;Node1 -->
<g id="edge1" class="edge">
<title>Node2&#45;&gt;Node1</title>
<path fill="none" stroke="#9a32cd" stroke-dasharray="5,2" d="M821.8892,-131.462C867.4729,-112.4091 949.4148,-78.1592 989.1516,-61.5501"/>
<polygon fill="#9a32cd" stroke="#9a32cd" points="820.3501,-128.3119 812.4734,-135.3976 823.0496,-134.7704 820.3501,-128.3119"/>
<text text-anchor="middle" x="898" y="-117" font-family="Helvetica,sans-Serif" font-size="10.00" fill="#000000"> exported_names</text>
</g>
<!-- Node3 -->
<g id="node3" class="node">
<title>Node3</title>
<g id="a_node3"><a xlink:href="structJSVarRef.html" target="_top" xlink:title="JSVarRef">
<polygon fill="none" stroke="#000000" points="187,-144.5 187,-163.5 246,-163.5 246,-144.5 187,-144.5"/>
<text text-anchor="middle" x="216.5" y="-151.5" font-family="Helvetica,sans-Serif" font-size="10.00" fill="#000000">JSVarRef</text>
</a>
</g>
</g>
<!-- Node3&#45;&gt;Node2 -->
<g id="edge2" class="edge">
<title>Node3&#45;&gt;Node2</title>
<path fill="none" stroke="#9a32cd" stroke-dasharray="5,2" d="M252.7011,-166.3648C256.4863,-167.3767 260.3015,-168.2836 264,-169 286.7564,-173.4078 292.8377,-172.1105 316,-173 495.0585,-179.8767 541.3506,-184.4508 719,-161 730.323,-159.5053 742.5043,-157.0515 753.503,-154.5093"/>
<polygon fill="#9a32cd" stroke="#9a32cd" points="253.4325,-162.9326 242.8529,-163.5 251.4772,-169.654 253.4325,-162.9326"/>
<text text-anchor="middle" x="475.5" y="-181" font-family="Helvetica,sans-Serif" font-size="10.00" fill="#000000"> var_ref</text>
</g>
<!-- Node11 -->
<g id="node11" class="node">
<title>Node11</title>
<g id="a_node11"><a xlink:href="structJSExportEntry.html" target="_top" xlink:title="JSExportEntry">
<polygon fill="none" stroke="#000000" points="325,-144.5 325,-163.5 405,-163.5 405,-144.5 325,-144.5"/>
<text text-anchor="middle" x="365" y="-151.5" font-family="Helvetica,sans-Serif" font-size="10.00" fill="#000000">JSExportEntry</text>
</a>
</g>
</g>
<!-- Node3&#45;&gt;Node11 -->
<g id="edge15" class="edge">
<title>Node3&#45;&gt;Node11</title>
<path fill="none" stroke="#9a32cd" stroke-dasharray="5,2" d="M256.2043,-154C277.4781,-154 303.6209,-154 324.9475,-154"/>
<polygon fill="#9a32cd" stroke="#9a32cd" points="256.1943,-150.5001 246.1943,-154 256.1942,-157.5001 256.1943,-150.5001"/>
<text text-anchor="middle" x="281" y="-157" font-family="Helvetica,sans-Serif" font-size="10.00" fill="#000000"> var_ref</text>
</g>
<!-- Node4 -->
<g id="node4" class="node">
<title>Node4</title>
<g id="a_node4"><a xlink:href="structlist__head.html" target="_top" xlink:title="list_head">
<polygon fill="none" stroke="#000000" points="23,-.5 23,-19.5 79,-19.5 79,-.5 23,-.5"/>
<text text-anchor="middle" x="51" y="-7.5" font-family="Helvetica,sans-Serif" font-size="10.00" fill="#000000">list_head</text>
</a>
</g>
</g>
<!-- Node4&#45;&gt;Node3 -->
<g id="edge3" class="edge">
<title>Node4&#45;&gt;Node3</title>
<path fill="none" stroke="#9a32cd" stroke-dasharray="5,2" d="M69.6602,-26.2361C104.3049,-56.3801 177.5731,-120.13 205.4325,-144.3703"/>
<polygon fill="#9a32cd" stroke="#9a32cd" points="71.9575,-23.5955 62.1159,-19.6718 67.3626,-28.8764 71.9575,-23.5955"/>
<text text-anchor="middle" x="144.5" y="-114" font-family="Helvetica,sans-Serif" font-size="10.00" fill="#000000"> link</text>
</g>
<!-- Node4&#45;&gt;Node4 -->
<g id="edge4" class="edge">
<title>Node4&#45;&gt;Node4</title>
<path fill="none" stroke="#9a32cd" stroke-dasharray="5,2" d="M33.9638,-29.4C35.1015,-34.3146 40.7803,-38 51,-38 67.3516,-38 72.0782,-28.5653 65.1799,-19.7571"/>
<polygon fill="#9a32cd" stroke="#9a32cd" points="37.3358,-30.3393 36.8201,-19.7571 30.6241,-28.3512 37.3358,-30.3393"/>
<text text-anchor="middle" x="51" y="-52" font-family="Helvetica,sans-Serif" font-size="10.00" fill="#000000"> prev</text>
<text text-anchor="middle" x="51" y="-41" font-family="Helvetica,sans-Serif" font-size="10.00" fill="#000000">next</text>
</g>
<!-- Node7 -->
<g id="node7" class="node">
<title>Node7</title>
<g id="a_node7"><a xlink:href="structJSModuleDef.html" target="_top" xlink:title="JSModuleDef">
<polygon fill="none" stroke="#000000" points="537,-59.5 537,-78.5 613,-78.5 613,-59.5 537,-59.5"/>
<text text-anchor="middle" x="575" y="-66.5" font-family="Helvetica,sans-Serif" font-size="10.00" fill="#000000">JSModuleDef</text>
</a>
</g>
</g>
<!-- Node4&#45;&gt;Node7 -->
<g id="edge8" class="edge">
<title>Node4&#45;&gt;Node7</title>
<path fill="none" stroke="#9a32cd" stroke-dasharray="5,2" d="M89.3712,-7.3246C155.7778,-3.3141 296.3201,2.4421 414,-11 461.5609,-16.4327 474.6373,-17.0138 519,-35 534.5999,-41.3248 550.8792,-51.7003 561.8384,-59.329"/>
<polygon fill="#9a32cd" stroke="#9a32cd" points="89.1269,-3.8329 79.3647,-7.95 89.5636,-10.8193 89.1269,-3.8329"/>
<text text-anchor="middle" x="281" y="-7" font-family="Helvetica,sans-Serif" font-size="10.00" fill="#000000"> link</text>
</g>
<!-- Node5 -->
<g id="node5" class="node">
<title>Node5</title>
<g id="a_node5"><a xlink:href="structJSRefCountHeader.html" target="_top" xlink:title="JSRefCountHeader">
<polygon fill="none" stroke="#000000" points="0,-110.5 0,-129.5 102,-129.5 102,-110.5 0,-110.5"/>
<text text-anchor="middle" x="51" y="-117.5" font-family="Helvetica,sans-Serif" font-size="10.00" fill="#000000">JSRefCountHeader</text>
</a>
</g>
</g>
<!-- Node5&#45;&gt;Node3 -->
<g id="edge5" class="edge">
<title>Node5&#45;&gt;Node3</title>
<path fill="none" stroke="#9a32cd" stroke-dasharray="5,2" d="M107.9871,-131.5087C127.3569,-135.4422 149.1264,-139.8871 169,-144 174.7767,-145.1955 180.9457,-146.4849 186.8607,-147.7275"/>
<polygon fill="#9a32cd" stroke="#9a32cd" points="108.5958,-128.0609 98.0995,-129.5028 107.204,-134.9212 108.5958,-128.0609"/>
<text text-anchor="middle" x="144.5" y="-147" font-family="Helvetica,sans-Serif" font-size="10.00" fill="#000000"> header</text>
</g>
<!-- Node5&#45;&gt;Node7 -->
<g id="edge9" class="edge">
<title>Node5&#45;&gt;Node7</title>
<path fill="none" stroke="#9a32cd" stroke-dasharray="5,2" d="M112.2381,-118.3981C202.0061,-115.3191 374.358,-106.6298 519,-83 526.0221,-81.8528 533.4567,-80.2651 540.5347,-78.5694"/>
<polygon fill="#9a32cd" stroke="#9a32cd" points="112.1121,-114.9003 102.2335,-118.7296 112.344,-121.8964 112.1121,-114.9003"/>
<text text-anchor="middle" x="281" y="-113" font-family="Helvetica,sans-Serif" font-size="10.00" fill="#000000"> header</text>
</g>
<!-- Node6 -->
<g id="node6" class="node">
<title>Node6</title>
<g id="a_node6"><a xlink:href="structJSGCHeader.html" target="_top" xlink:title="JSGCHeader">
<polygon fill="none" stroke="#000000" points="13.5,-163.5 13.5,-182.5 88.5,-182.5 88.5,-163.5 13.5,-163.5"/>
<text text-anchor="middle" x="51" y="-170.5" font-family="Helvetica,sans-Serif" font-size="10.00" fill="#000000">JSGCHeader</text>
</a>
</g>
</g>
<!-- Node6&#45;&gt;Node3 -->
<g id="edge6" class="edge">
<title>Node6&#45;&gt;Node3</title>
<path fill="none" stroke="#9a32cd" stroke-dasharray="5,2" d="M98.6892,-167.5251C127.1175,-164.2614 162.3189,-160.2202 186.8045,-157.4092"/>
<polygon fill="#9a32cd" stroke="#9a32cd" points="98.09,-164.0708 88.5545,-168.6886 98.8885,-171.0251 98.09,-164.0708"/>
<text text-anchor="middle" x="144.5" y="-167" font-family="Helvetica,sans-Serif" font-size="10.00" fill="#000000"> gc_header</text>
</g>
<!-- Node7&#45;&gt;Node1 -->
<g id="edge17" class="edge">
<title>Node7&#45;&gt;Node1</title>
<path fill="none" stroke="#9a32cd" stroke-dasharray="5,2" d="M623.2529,-59.8867C625.868,-59.5481 628.4629,-59.2483 631,-59 744.9076,-47.8541 878.8571,-48.5758 953.7413,-50.2154"/>
<polygon fill="#9a32cd" stroke="#9a32cd" points="622.5373,-56.4538 613.1452,-61.3567 623.5448,-63.3809 622.5373,-56.4538"/>
<text text-anchor="middle" x="789.5" y="-55" font-family="Helvetica,sans-Serif" font-size="10.00" fill="#000000"> modules</text>
</g>
<!-- Node7&#45;&gt;Node2 -->
<g id="edge7" class="edge">
<title>Node7&#45;&gt;Node2</title>
<path fill="none" stroke="#9a32cd" stroke-dasharray="5,2" d="M595.4812,-84.4531C605.7081,-91.5599 618.5345,-99.5929 631,-105 664.8471,-119.6817 705.1912,-129.7672 736.7055,-136.1386"/>
<polygon fill="#9a32cd" stroke="#9a32cd" points="597.4022,-81.5237 587.2375,-78.5355 593.3201,-87.2103 597.4022,-81.5237"/>
<text text-anchor="middle" x="675" y="-134" font-family="Helvetica,sans-Serif" font-size="10.00" fill="#000000"> module</text>
</g>
<!-- Node9 -->
<g id="node9" class="node">
<title>Node9</title>
<g id="a_node9"><a xlink:href="structJSReqModuleEntry.html" target="_top" xlink:title="JSReqModuleEntry">
<polygon fill="none" stroke="#000000" points="739,-85.5 739,-104.5 840,-104.5 840,-85.5 739,-85.5"/>
<text text-anchor="middle" x="789.5" y="-92.5" font-family="Helvetica,sans-Serif" font-size="10.00" fill="#000000">JSReqModuleEntry</text>
</a>
</g>
</g>
<!-- Node7&#45;&gt;Node9 -->
<g id="edge12" class="edge">
<title>Node7&#45;&gt;Node9</title>
<path fill="none" stroke="#9a32cd" stroke-dasharray="5,2" d="M623.2349,-64.1454C651.3922,-62.4315 687.4714,-62.1691 719,-68 737.0431,-71.3369 756.4362,-79.099 770.3065,-85.4483"/>
<polygon fill="#9a32cd" stroke="#9a32cd" points="622.9784,-60.6546 613.2426,-64.8339 623.4596,-67.6381 622.9784,-60.6546"/>
<text text-anchor="middle" x="675" y="-71" font-family="Helvetica,sans-Serif" font-size="10.00" fill="#000000"> module</text>
</g>
<!-- Node8 -->
<g id="node8" class="node">
<title>Node8</title>
<g id="a_node8"><a xlink:href="structJSStarExportEntry.html" target="_top" xlink:title="JSStarExportEntry">
<polygon fill="none" stroke="#000000" points="316,-58.5 316,-77.5 414,-77.5 414,-58.5 316,-58.5"/>
<text text-anchor="middle" x="365" y="-65.5" font-family="Helvetica,sans-Serif" font-size="10.00" fill="#000000">JSStarExportEntry</text>
</a>
</g>
</g>
<!-- Node8&#45;&gt;Node7 -->
<g id="edge10" class="edge">
<title>Node8&#45;&gt;Node7</title>
<path fill="none" stroke="#9a32cd" stroke-dasharray="5,2" d="M424.6338,-68.284C460.6914,-68.4557 505.5858,-68.6695 536.8897,-68.8185"/>
<polygon fill="#9a32cd" stroke="#9a32cd" points="424.2523,-64.7822 414.2357,-68.2345 424.2189,-71.7821 424.2523,-64.7822"/>
<text text-anchor="middle" x="475.5" y="-71" font-family="Helvetica,sans-Serif" font-size="10.00" fill="#000000"> star_export_entries</text>
</g>
<!-- Node9&#45;&gt;Node7 -->
<g id="edge11" class="edge">
<title>Node9&#45;&gt;Node7</title>
<path fill="none" stroke="#9a32cd" stroke-dasharray="5,2" d="M728.8028,-91.3959C699.2001,-89.1912 663.132,-85.843 631,-81 625.1992,-80.1257 619.0977,-79.017 613.1422,-77.8284"/>
<polygon fill="#9a32cd" stroke="#9a32cd" points="728.7615,-94.9018 738.9869,-92.1285 729.2639,-87.9199 728.7615,-94.9018"/>
<text text-anchor="middle" x="675" y="-93" font-family="Helvetica,sans-Serif" font-size="10.00" fill="#000000"> req_module_entries</text>
</g>
<!-- Node10 -->
<g id="node10" class="node">
<title>Node10</title>
<g id="a_node10"><a xlink:href="structJSImportEntry.html" target="_top" xlink:title="JSImportEntry">
<polygon fill="none" stroke="#000000" points="325,-20.5 325,-39.5 405,-39.5 405,-20.5 325,-20.5"/>
<text text-anchor="middle" x="365" y="-27.5" font-family="Helvetica,sans-Serif" font-size="10.00" fill="#000000">JSImportEntry</text>
</a>
</g>
</g>
<!-- Node10&#45;&gt;Node7 -->
<g id="edge13" class="edge">
<title>Node10&#45;&gt;Node7</title>
<path fill="none" stroke="#9a32cd" stroke-dasharray="5,2" d="M415.4391,-35.8512C445.6545,-39.773 484.7312,-45.5784 519,-53 527.301,-54.7978 536.1838,-57.1384 544.3728,-59.4721"/>
<polygon fill="#9a32cd" stroke="#9a32cd" points="415.505,-32.3315 405.1435,-34.543 414.6226,-39.2757 415.505,-32.3315"/>
<text text-anchor="middle" x="475.5" y="-56" font-family="Helvetica,sans-Serif" font-size="10.00" fill="#000000"> import_entries</text>
</g>
<!-- Node11&#45;&gt;Node2 -->
<g id="edge16" class="edge">
<title>Node11&#45;&gt;Node2</title>
<path fill="none" stroke="#9a32cd" stroke-dasharray="5,2" d="M415.7621,-152.9238C496.8517,-151.2046 654.8212,-147.8554 736.9964,-146.1132"/>
<polygon fill="#9a32cd" stroke="#9a32cd" points="415.2422,-149.4339 405.3186,-153.1452 415.3906,-156.4323 415.2422,-149.4339"/>
<text text-anchor="middle" x="575" y="-153" font-family="Helvetica,sans-Serif" font-size="10.00" fill="#000000"> me</text>
</g>
<!-- Node11&#45;&gt;Node7 -->
<g id="edge14" class="edge">
<title>Node11&#45;&gt;Node7</title>
<path fill="none" stroke="#9a32cd" stroke-dasharray="5,2" d="M414.2883,-142.0657C457.496,-131.5181 514.1756,-117.4376 519,-115 537.6413,-105.5812 555.6535,-89.0357 566.0144,-78.5663"/>
<polygon fill="#9a32cd" stroke="#9a32cd" points="413.3543,-138.6908 404.4674,-144.4591 415.0118,-145.4918 413.3543,-138.6908"/>
<text text-anchor="middle" x="475.5" y="-140" font-family="Helvetica,sans-Serif" font-size="10.00" fill="#000000"> export_entries</text>
</g>
</g>
</svg>
        <g id="navigator" transform="translate(0 0)" fill="#404254">
                <rect fill="#f2f5e9" fill-opacity="0.5" stroke="#606060" stroke-width=".5" x="0" y="0" width="60" height="60"/>
                <use id="zoomplus" xlink:href="#zoomPlus" x="17" y="9" onmousedown="handleZoom(evt,'in')"/>
                <use id="zoomminus" xlink:href="#zoomMin" x="42" y="9" onmousedown="handleZoom(evt,'out')"/>
                <use id="reset" xlink:href="#resetDef" x="30" y="36" onmousedown="handleReset()"/>
                <g id="arrowUp" xlink:href="#dirArrow" transform="translate(30 24)" onmousedown="handlePan(0,-1)">
                  <use xlink:href="#rim" fill="#404040">
                        <set attributeName="fill" to="#808080" begin="arrowUp.mouseover" end="arrowUp.mouseout"/>
                  </use>
                  <path fill="none" stroke="white" stroke-width="1.5" d="M0,-3.0v7 M-2.5,-0.5L0,-3.0L2.5,-0.5"/>
                </g>
                <g id="arrowRight" xlink:href="#dirArrow" transform="rotate(90) translate(36 -43)" onmousedown="handlePan(1,0)">
                  <use xlink:href="#rim" fill="#404040">
                        <set attributeName="fill" to="#808080" begin="arrowRight.mouseover" end="arrowRight.mouseout"/>
                  </use>
                  <path fill="none" stroke="white" stroke-width="1.5" d="M0,-3.0v7 M-2.5,-0.5L0,-3.0L2.5,-0.5"/>
                </g>
                <g id="arrowDown" xlink:href="#dirArrow" transform="rotate(180) translate(-30 -48)" onmousedown="handlePan(0,1)">
                  <use xlink:href="#rim" fill="#404040">
                        <set attributeName="fill" to="#808080" begin="arrowDown.mouseover" end="arrowDown.mouseout"/>
                  </use>
                  <path fill="none" stroke="white" stroke-width="1.5" d="M0,-3.0v7 M-2.5,-0.5L0,-3.0L2.5,-0.5"/>
                </g>
                <g id="arrowLeft" xlink:href="#dirArrow" transform="rotate(270) translate(-36 17)" onmousedown="handlePan(-1,0)">
                  <use xlink:href="#rim" fill="#404040">
                        <set attributeName="fill" to="#808080" begin="arrowLeft.mouseover" end="arrowLeft.mouseout"/>
                  </use>
                  <path fill="none" stroke="white" stroke-width="1.5" d="M0,-3.0v7 M-2.5,-0.5L0,-3.0L2.5,-0.5"/>
                </g>
        </g>
        <svg viewBox="0 0 15 15" width="100%" height="30px" preserveAspectRatio="xMaxYMin meet">
         <g id="arrow_out" transform="scale(0.3 0.3)">
          <a xlink:href="structGetExportNamesState__coll__graph_org.svg" target="_base">
           <rect id="button" ry="5" rx="5" y="6" x="6" height="38" width="38"
                fill="#f2f5e9" fill-opacity="0.5" stroke="#606060" stroke-width="1.0"/>
           <path id="arrow"
             d="M 11.500037,31.436501 C 11.940474,20.09759 22.043105,11.32322 32.158766,21.979434 L 37.068811,17.246167 C 37.068811,17.246167 37.088388,32 37.088388,32 L 22.160133,31.978069 C 22.160133,31.978069 26.997745,27.140456 26.997745,27.140456 C 18.528582,18.264221 13.291696,25.230495 11.500037,31.436501 z"
             style="fill:#404040;"/>
          </a>
         </g>
        </svg>
</svg>
