<?xml version="1.0" encoding="UTF-8" standalone="no"?>
<!DOCTYPE svg PUBLIC "-//W3C//DTD SVG 1.1//EN"
 "http://www.w3.org/Graphics/SVG/1.1/DTD/svg11.dtd">
<!-- Generated by graphviz version 2.40.1 (20161225.0304)
 -->
<!-- Title: qjs::js_property_traits&lt; uint32_t &gt;::set_property Pages: 1 -->
<svg width="883pt" height="522pt"
 viewBox="0.00 0.00 883.00 522.00" xmlns="http://www.w3.org/2000/svg" xmlns:xlink="http://www.w3.org/1999/xlink">
<g id="graph0" class="graph" transform="scale(1 1) rotate(0) translate(4 518)">
<title>qjs::js_property_traits&lt; uint32_t &gt;::set_property</title>
<!-- Node0 -->
<g id="node1" class="node">
<title>Node0</title>
<polygon fill="#bfbfbf" stroke="#000000" points="0,-242 0,-272 129,-272 129,-242 0,-242"/>
<text text-anchor="start" x="8" y="-260" font-family="Helvetica,sans-Serif" font-size="10.00" fill="#000000">qjs::js_property_traits</text>
<text text-anchor="middle" x="64.5" y="-249" font-family="Helvetica,sans-Serif" font-size="10.00" fill="#000000">&lt; uint32_t &gt;::set_property</text>
</g>
<!-- Node1 -->
<g id="node2" class="node">
<title>Node1</title>
<g id="a_node2"><a xlink:href="quickjs_8c.html#aae909eaec829081b270012adfcd717a4" target="_top" xlink:title="JS_SetPropertyUint32">
<polygon fill="none" stroke="#000000" points="165,-247.5 165,-266.5 279,-266.5 279,-247.5 165,-247.5"/>
<text text-anchor="middle" x="222" y="-254.5" font-family="Helvetica,sans-Serif" font-size="10.00" fill="#000000">JS_SetPropertyUint32</text>
</a>
</g>
</g>
<!-- Node0&#45;&gt;Node1 -->
<g id="edge1" class="edge">
<title>Node0&#45;&gt;Node1</title>
<path fill="none" stroke="#191970" d="M129.0157,-257C137.4712,-257 146.1531,-257 154.6539,-257"/>
<polygon fill="#191970" stroke="#191970" points="154.9058,-260.5001 164.9058,-257 154.9057,-253.5001 154.9058,-260.5001"/>
</g>
<!-- Node2 -->
<g id="node3" class="node">
<title>Node2</title>
<g id="a_node3"><a xlink:href="quickjs_8c.html#a22f31ae7a52ea79fa375d19427daa797" target="_top" xlink:title="JS_NewUint32">
<polygon fill="none" stroke="#000000" points="328.5,-380.5 328.5,-399.5 411.5,-399.5 411.5,-380.5 328.5,-380.5"/>
<text text-anchor="middle" x="370" y="-387.5" font-family="Helvetica,sans-Serif" font-size="10.00" fill="#000000">JS_NewUint32</text>
</a>
</g>
</g>
<!-- Node1&#45;&gt;Node2 -->
<g id="edge2" class="edge">
<title>Node1&#45;&gt;Node2</title>
<path fill="none" stroke="#191970" d="M232.6438,-266.565C257.5892,-288.9822 320.0821,-345.1414 351.4413,-373.3222"/>
<polygon fill="#191970" stroke="#191970" points="349.2759,-376.082 359.0533,-380.1628 353.9548,-370.8754 349.2759,-376.082"/>
</g>
<!-- Node22 -->
<g id="node5" class="node">
<title>Node22</title>
<g id="a_node5"><a xlink:href="quickjs_8c.html#aee75cc1546e19479e3ccda58f3b50a96" target="_top" xlink:title="JS_SetPropertyValue">
<polygon fill="none" stroke="#000000" points="315,-228.5 315,-247.5 425,-247.5 425,-228.5 315,-228.5"/>
<text text-anchor="middle" x="370" y="-235.5" font-family="Helvetica,sans-Serif" font-size="10.00" fill="#000000">JS_SetPropertyValue</text>
</a>
</g>
</g>
<!-- Node1&#45;&gt;Node22 -->
<g id="edge4" class="edge">
<title>Node1&#45;&gt;Node22</title>
<path fill="none" stroke="#191970" d="M279.2207,-249.6541C287.6396,-248.5733 296.3644,-247.4532 304.9273,-246.3539"/>
<polygon fill="#191970" stroke="#191970" points="305.4042,-249.8215 314.8771,-245.0766 304.5128,-242.8785 305.4042,-249.8215"/>
</g>
<!-- Node3 -->
<g id="node4" class="node">
<title>Node3</title>
<g id="a_node4"><a xlink:href="quickjs_8c.html#acfced0527a056a74dd8439904b7936dd" target="_top" xlink:title="JS_NewInt64">
<polygon fill="none" stroke="#ff0000" points="482,-494.5 482,-513.5 558,-513.5 558,-494.5 482,-494.5"/>
<text text-anchor="middle" x="520" y="-501.5" font-family="Helvetica,sans-Serif" font-size="10.00" fill="#000000">JS_NewInt64</text>
</a>
</g>
</g>
<!-- Node2&#45;&gt;Node3 -->
<g id="edge3" class="edge">
<title>Node2&#45;&gt;Node3</title>
<path fill="none" stroke="#191970" d="M376.6077,-399.5866C390.2094,-418.6195 423.2484,-461.3724 461,-485 464.5917,-487.2479 468.4743,-489.2539 472.4734,-491.039"/>
<polygon fill="#191970" stroke="#191970" points="471.3487,-494.3586 481.9337,-494.8138 473.9429,-487.857 471.3487,-494.3586"/>
</g>
<!-- Node23 -->
<g id="node6" class="node">
<title>Node23</title>
<g id="a_node6"><a xlink:href="quickjs_8c.html#a2f49d212e519c9e138d8b48148b6f955" target="_top" xlink:title="__attribute__">
<polygon fill="none" stroke="#ff0000" points="651.5,-228.5 651.5,-247.5 724.5,-247.5 724.5,-228.5 651.5,-228.5"/>
<text text-anchor="middle" x="688" y="-235.5" font-family="Helvetica,sans-Serif" font-size="10.00" fill="#000000">__attribute__</text>
</a>
</g>
</g>
<!-- Node22&#45;&gt;Node23 -->
<g id="edge5" class="edge">
<title>Node22&#45;&gt;Node23</title>
<path fill="none" stroke="#191970" d="M425.0283,-238C486.1108,-238 583.6488,-238 641.1987,-238"/>
<polygon fill="#191970" stroke="#191970" points="641.4614,-241.5001 651.4614,-238 641.4613,-234.5001 641.4614,-241.5001"/>
</g>
<!-- Node243 -->
<g id="node7" class="node">
<title>Node243</title>
<g id="a_node7"><a xlink:href="quickjs_8c.html#adbffd820afae76d09c641b5b911e3600" target="_top" xlink:title="add_fast_array_element">
<polygon fill="none" stroke="#ff0000" points="627.5,-26.5 627.5,-45.5 748.5,-45.5 748.5,-26.5 627.5,-26.5"/>
<text text-anchor="middle" x="688" y="-33.5" font-family="Helvetica,sans-Serif" font-size="10.00" fill="#000000">add_fast_array_element</text>
</a>
</g>
</g>
<!-- Node22&#45;&gt;Node243 -->
<g id="edge6" class="edge">
<title>Node22&#45;&gt;Node243</title>
<path fill="none" stroke="#191970" d="M372.0379,-228.3953C378.8007,-199.0911 403.4224,-110.3728 461,-70 506.2345,-38.2821 569.0504,-30.9466 617.1384,-30.887"/>
<polygon fill="#191970" stroke="#191970" points="617.1331,-34.387 627.1647,-30.9786 617.1971,-27.3873 617.1331,-34.387"/>
</g>
<!-- Node48 -->
<g id="node8" class="node">
<title>Node48</title>
<g id="a_node8"><a xlink:href="quickjs_8h.html#afaa20c47565bc704c6c85f3d77254e7d" target="_top" xlink:title="JS_FreeValue">
<polygon fill="none" stroke="#ff0000" points="797,-203.5 797,-222.5 875,-222.5 875,-203.5 797,-203.5"/>
<text text-anchor="middle" x="836" y="-210.5" font-family="Helvetica,sans-Serif" font-size="10.00" fill="#000000">JS_FreeValue</text>
</a>
</g>
</g>
<!-- Node22&#45;&gt;Node48 -->
<g id="edge9" class="edge">
<title>Node22&#45;&gt;Node48</title>
<path fill="none" stroke="#191970" d="M388.8865,-247.669C447.1069,-276.0651 627.9125,-353.6332 761,-295 790.2829,-282.0991 813.1036,-251.4946 825.544,-231.5417"/>
<polygon fill="#191970" stroke="#191970" points="828.6849,-233.1081 830.8,-222.7266 822.6725,-229.5232 828.6849,-233.1081"/>
</g>
<!-- Node161 -->
<g id="node9" class="node">
<title>Node161</title>
<g id="a_node9"><a xlink:href="quickjs_8c.html#ab7fc45a99935a1c0ba50b0216d9401a9" target="_top" xlink:title="JS_FreeAtom">
<polygon fill="none" stroke="#ff0000" points="481.5,-.5 481.5,-19.5 558.5,-19.5 558.5,-.5 481.5,-.5"/>
<text text-anchor="middle" x="520" y="-7.5" font-family="Helvetica,sans-Serif" font-size="10.00" fill="#000000">JS_FreeAtom</text>
</a>
</g>
</g>
<!-- Node22&#45;&gt;Node161 -->
<g id="edge8" class="edge">
<title>Node22&#45;&gt;Node161</title>
<path fill="none" stroke="#191970" d="M371.6432,-228.439C377.6182,-196.4571 401.0706,-91.9691 461,-34 465.0238,-30.1079 469.7634,-26.8165 474.7784,-24.0406"/>
<polygon fill="#191970" stroke="#191970" points="476.5257,-27.0836 484.0076,-19.5821 473.4808,-20.7805 476.5257,-27.0836"/>
</g>
<!-- Node314 -->
<g id="node10" class="node">
<title>Node314</title>
<g id="a_node10"><a xlink:href="quickjs_8c.html#ad7f03358a8088ca920ab308225c6b2e6" target="_top" xlink:title="JS_SetPropertyInternal">
<polygon fill="none" stroke="#ff0000" points="461,-152.5 461,-171.5 579,-171.5 579,-152.5 461,-152.5"/>
<text text-anchor="middle" x="520" y="-159.5" font-family="Helvetica,sans-Serif" font-size="10.00" fill="#000000">JS_SetPropertyInternal</text>
</a>
</g>
</g>
<!-- Node22&#45;&gt;Node314 -->
<g id="edge10" class="edge">
<title>Node22&#45;&gt;Node314</title>
<path fill="none" stroke="#191970" d="M377.368,-228.3797C392.6241,-214.7943 428.9288,-192.6007 461,-177 461.8266,-176.5979 462.6617,-176.1966 463.5039,-175.7968"/>
<polygon fill="#191970" stroke="#191970" points="465.0791,-178.9255 472.7345,-171.6012 462.1825,-172.5529 465.0791,-178.9255"/>
</g>
<!-- Node201 -->
<g id="node11" class="node">
<title>Node201</title>
<g id="a_node11"><a xlink:href="quickjs_8c.html#a033dd3ebd29c4eb9f0baff1dd0fec0b1" target="_top" xlink:title="JS_ThrowTypeErrorDetached\lArrayBuffer">
<polygon fill="none" stroke="#000000" points="615,-179 615,-209 761,-209 761,-179 615,-179"/>
<text text-anchor="start" x="623" y="-197" font-family="Helvetica,sans-Serif" font-size="10.00" fill="#000000">JS_ThrowTypeErrorDetached</text>
<text text-anchor="middle" x="688" y="-186" font-family="Helvetica,sans-Serif" font-size="10.00" fill="#000000">ArrayBuffer</text>
</a>
</g>
</g>
<!-- Node22&#45;&gt;Node201 -->
<g id="edge19" class="edge">
<title>Node22&#45;&gt;Node201</title>
<path fill="none" stroke="#191970" d="M425.0283,-230.386C474.5826,-223.5294 548.1304,-213.353 604.8551,-205.5043"/>
<polygon fill="#191970" stroke="#191970" points="605.456,-208.9546 614.8819,-204.117 604.4965,-202.0207 605.456,-208.9546"/>
</g>
<!-- Node191 -->
<g id="node12" class="node">
<title>Node191</title>
<g id="a_node12"><a xlink:href="quickjs_8c.html#a0ec52a675282f321a6f42aa1298a53fe" target="_top" xlink:title="set_value">
<polygon fill="none" stroke="#000000" points="658.5,-64.5 658.5,-83.5 717.5,-83.5 717.5,-64.5 658.5,-64.5"/>
<text text-anchor="middle" x="688" y="-71.5" font-family="Helvetica,sans-Serif" font-size="10.00" fill="#000000">set_value</text>
</a>
</g>
</g>
<!-- Node22&#45;&gt;Node191 -->
<g id="edge27" class="edge">
<title>Node22&#45;&gt;Node191</title>
<path fill="none" stroke="#191970" d="M373.7093,-228.204C383.6166,-203.5121 413.2395,-138.5926 461,-109 518.7898,-73.1933 600.2866,-69.5561 648.2824,-71.1213"/>
<polygon fill="#191970" stroke="#191970" points="648.1464,-74.6185 658.2839,-71.5392 648.4387,-67.6246 648.1464,-74.6185"/>
</g>
<!-- Node202 -->
<g id="node13" class="node">
<title>Node202</title>
<g id="a_node13"><a xlink:href="quickjs_8c.html#a869fa88a646c0a1914ec2e559b193b5c" target="_top" xlink:title="typed_array_is_detached">
<polygon fill="none" stroke="#000000" points="625.5,-102.5 625.5,-121.5 750.5,-121.5 750.5,-102.5 625.5,-102.5"/>
<text text-anchor="middle" x="688" y="-109.5" font-family="Helvetica,sans-Serif" font-size="10.00" fill="#000000">typed_array_is_detached</text>
</a>
</g>
</g>
<!-- Node22&#45;&gt;Node202 -->
<g id="edge28" class="edge">
<title>Node22&#45;&gt;Node202</title>
<path fill="none" stroke="#191970" d="M375.8849,-228.4432C388.634,-208.6735 420.9127,-163.4292 461,-143 508.6086,-118.7378 568.7614,-111.4028 615.1825,-109.9106"/>
<polygon fill="#191970" stroke="#191970" points="615.5536,-113.403 625.4681,-109.6676 615.3881,-106.4049 615.5536,-113.403"/>
</g>
<!-- Node453 -->
<g id="node14" class="node">
<title>Node453</title>
<g id="a_node14"><a xlink:href="quickjs_8c.html#a87b8d619eab9353bf9d183256a6c26b7" target="_top" xlink:title="JS_ToBigInt64Free">
<polygon fill="none" stroke="#ff0000" points="469.5,-456.5 469.5,-475.5 570.5,-475.5 570.5,-456.5 469.5,-456.5"/>
<text text-anchor="middle" x="520" y="-463.5" font-family="Helvetica,sans-Serif" font-size="10.00" fill="#000000">JS_ToBigInt64Free</text>
</a>
</g>
</g>
<!-- Node22&#45;&gt;Node453 -->
<g id="edge20" class="edge">
<title>Node22&#45;&gt;Node453</title>
<path fill="none" stroke="#191970" d="M373.9583,-247.6904C390.4044,-287.871 452.8594,-439.6287 461,-447 462.7499,-448.5845 464.6332,-450.037 466.6141,-451.3685"/>
<polygon fill="#191970" stroke="#191970" points="465.3703,-454.6806 475.8138,-456.465 468.7625,-448.5574 465.3703,-454.6806"/>
</g>
<!-- Node224 -->
<g id="node15" class="node">
<title>Node224</title>
<g id="a_node15"><a xlink:href="quickjs_8c.html#ab1b614ef35f1cea05da0ad4927c53118" target="_top" xlink:title="JS_ToFloat64Free">
<polygon fill="none" stroke="#ff0000" points="471.5,-418.5 471.5,-437.5 568.5,-437.5 568.5,-418.5 471.5,-418.5"/>
<text text-anchor="middle" x="520" y="-425.5" font-family="Helvetica,sans-Serif" font-size="10.00" fill="#000000">JS_ToFloat64Free</text>
</a>
</g>
</g>
<!-- Node22&#45;&gt;Node224 -->
<g id="edge21" class="edge">
<title>Node22&#45;&gt;Node224</title>
<path fill="none" stroke="#191970" d="M372.4019,-247.7731C380.0467,-276.8267 406.5752,-363.4696 461,-409 463.0222,-410.6917 465.1977,-412.2336 467.4786,-413.6389"/>
<polygon fill="#191970" stroke="#191970" points="466.208,-416.9222 476.6978,-418.41 469.4253,-410.7054 466.208,-416.9222"/>
</g>
<!-- Node204 -->
<g id="node16" class="node">
<title>Node204</title>
<g id="a_node16"><a xlink:href="quickjs_8c.html#a643088ab23784b7f3c6ff94c37228256" target="_top" xlink:title="JS_ToInt32Free">
<polygon fill="none" stroke="#ff0000" points="645,-266.5 645,-285.5 731,-285.5 731,-266.5 645,-266.5"/>
<text text-anchor="middle" x="688" y="-273.5" font-family="Helvetica,sans-Serif" font-size="10.00" fill="#000000">JS_ToInt32Free</text>
</a>
</g>
</g>
<!-- Node22&#45;&gt;Node204 -->
<g id="edge22" class="edge">
<title>Node22&#45;&gt;Node204</title>
<path fill="none" stroke="#191970" d="M425.2818,-246.933C437.0565,-248.7156 449.4283,-250.499 461,-252 520.3724,-259.7013 588.724,-266.6712 634.78,-271.0909"/>
<polygon fill="#191970" stroke="#191970" points="634.5466,-274.5844 644.8336,-272.0492 635.2109,-267.616 634.5466,-274.5844"/>
</g>
<!-- Node469 -->
<g id="node17" class="node">
<title>Node469</title>
<g id="a_node17"><a xlink:href="quickjs_8c.html#a4623c0fbf1417b8c089ba0f5037c5362" target="_top" xlink:title="JS_ToUint8ClampFree">
<polygon fill="none" stroke="#ff0000" points="630,-342.5 630,-361.5 746,-361.5 746,-342.5 630,-342.5"/>
<text text-anchor="middle" x="688" y="-349.5" font-family="Helvetica,sans-Serif" font-size="10.00" fill="#000000">JS_ToUint8ClampFree</text>
</a>
</g>
</g>
<!-- Node22&#45;&gt;Node469 -->
<g id="edge24" class="edge">
<title>Node22&#45;&gt;Node469</title>
<path fill="none" stroke="#191970" d="M376.3688,-247.7338C389.541,-266.9367 421.8459,-309.4423 461,-328 510.5436,-351.482 572.8353,-356.5929 619.6268,-356.331"/>
<polygon fill="#191970" stroke="#191970" points="619.7148,-359.8302 629.6652,-356.1917 619.6176,-352.8309 619.7148,-359.8302"/>
</g>
<!-- Node164 -->
<g id="node18" class="node">
<title>Node164</title>
<g id="a_node18"><a xlink:href="quickjs_8c.html#a859d5c989a2aaecef1653b3ac279e108" target="_top" xlink:title="JS_ValueToAtom">
<polygon fill="none" stroke="#ff0000" points="473.5,-380.5 473.5,-399.5 566.5,-399.5 566.5,-380.5 473.5,-380.5"/>
<text text-anchor="middle" x="520" y="-387.5" font-family="Helvetica,sans-Serif" font-size="10.00" fill="#000000">JS_ValueToAtom</text>
</a>
</g>
</g>
<!-- Node22&#45;&gt;Node164 -->
<g id="edge26" class="edge">
<title>Node22&#45;&gt;Node164</title>
<path fill="none" stroke="#191970" d="M374.5057,-247.7701C385.8091,-271.2899 417.6004,-331.6481 461,-366 466.0642,-370.0084 471.8887,-373.4371 477.8629,-376.3419"/>
<polygon fill="#191970" stroke="#191970" points="476.7235,-379.6641 487.2866,-380.4833 479.5398,-373.2557 476.7235,-379.6641"/>
</g>
<!-- Node243&#45;&gt;Node48 -->
<g id="edge7" class="edge">
<title>Node243&#45;&gt;Node48</title>
<path fill="none" stroke="#191970" d="M745.4055,-45.6286C751.0276,-48.087 756.3582,-51.1603 761,-55 805.1428,-91.5155 824.9568,-160.0278 832.3256,-193.5396"/>
<polygon fill="#191970" stroke="#191970" points="828.924,-194.3747 834.3647,-203.4658 835.7808,-192.9661 828.924,-194.3747"/>
</g>
<!-- Node314&#45;&gt;Node22 -->
<g id="edge14" class="edge">
<title>Node314&#45;&gt;Node22</title>
<path fill="none" stroke="#191970" d="M510.6363,-171.6392C498.8578,-178.7061 478.1037,-186.6801 461,-195 442.9446,-203.7829 423.5475,-214.6553 407.3197,-223.4635"/>
<polygon fill="#191970" stroke="#191970" points="405.3193,-220.5649 398.1653,-228.3797 408.6312,-226.7319 405.3193,-220.5649"/>
</g>
<!-- Node314&#45;&gt;Node23 -->
<g id="edge11" class="edge">
<title>Node314&#45;&gt;Node23</title>
<path fill="none" stroke="#191970" d="M533.1927,-171.5946C550.9672,-184.1178 583.9651,-205.9692 615,-219 623.3344,-222.4994 632.4813,-225.493 641.3967,-227.9991"/>
<polygon fill="#191970" stroke="#191970" points="640.7459,-231.4473 651.3086,-230.6225 642.537,-224.6803 640.7459,-231.4473"/>
</g>
<!-- Node314&#45;&gt;Node243 -->
<g id="edge12" class="edge">
<title>Node314&#45;&gt;Node243</title>
<path fill="none" stroke="#191970" d="M525.7626,-152.2893C538.8239,-131.1565 572.8474,-80.8254 615,-55 618.5803,-52.8065 622.4089,-50.8643 626.3674,-49.1451"/>
<polygon fill="#191970" stroke="#191970" points="627.7062,-52.3802 635.784,-45.5244 625.194,-45.8465 627.7062,-52.3802"/>
</g>
<!-- Node314&#45;&gt;Node48 -->
<g id="edge13" class="edge">
<title>Node314&#45;&gt;Node48</title>
<path fill="none" stroke="#191970" d="M579.198,-155.6538C628.7682,-152.234 700.856,-151.7185 761,-169 781.1858,-174.8001 801.5823,-187.2912 815.9987,-197.4877"/>
<polygon fill="#191970" stroke="#191970" points="814.0121,-200.3711 824.1468,-203.4596 818.1502,-194.7251 814.0121,-200.3711"/>
</g>
<!-- Node314&#45;&gt;Node201 -->
<g id="edge15" class="edge">
<title>Node314&#45;&gt;Node201</title>
<path fill="none" stroke="#191970" d="M569.9507,-171.5144C580.9831,-173.6158 592.9587,-175.8969 604.9098,-178.1733"/>
<polygon fill="#191970" stroke="#191970" points="604.4434,-181.6473 614.9217,-180.0803 605.7532,-174.7709 604.4434,-181.6473"/>
</g>
<!-- Node314&#45;&gt;Node191 -->
<g id="edge16" class="edge">
<title>Node314&#45;&gt;Node191</title>
<path fill="none" stroke="#191970" d="M530.2694,-152.4985C546.8472,-137.6586 581.0877,-109.0232 615,-93 625.4254,-88.0741 637.3146,-84.2891 648.4276,-81.4428"/>
<polygon fill="#191970" stroke="#191970" points="649.4298,-84.8023 658.3509,-79.087 647.8129,-77.9916 649.4298,-84.8023"/>
</g>
<!-- Node314&#45;&gt;Node202 -->
<g id="edge18" class="edge">
<title>Node314&#45;&gt;Node202</title>
<path fill="none" stroke="#191970" d="M551.995,-152.4777C578.6505,-144.5445 616.8247,-133.1831 645.9483,-124.5154"/>
<polygon fill="#191970" stroke="#191970" points="647.2524,-127.7791 655.8385,-121.5719 645.2555,-121.0699 647.2524,-127.7791"/>
</g>
<!-- Node191&#45;&gt;Node48 -->
<g id="edge17" class="edge">
<title>Node191&#45;&gt;Node48</title>
<path fill="none" stroke="#191970" d="M717.5512,-76.5751C731.782,-79.0217 748.439,-83.7758 761,-93 796.3301,-118.9447 818.8438,-167.0132 829.2449,-193.7652"/>
<polygon fill="#191970" stroke="#191970" points="826.0952,-195.3378 832.856,-203.4952 832.6578,-192.9022 826.0952,-195.3378"/>
</g>
<!-- Node204&#45;&gt;Node48 -->
<g id="edge23" class="edge">
<title>Node204&#45;&gt;Node48</title>
<path fill="none" stroke="#191970" d="M731.1108,-266.8848C741.0989,-264.1984 751.5624,-260.908 761,-257 779.5352,-249.3248 799.0371,-237.7614 813.5075,-228.4148"/>
<polygon fill="#191970" stroke="#191970" points="815.8128,-231.0869 822.2293,-222.6561 811.9557,-225.2454 815.8128,-231.0869"/>
</g>
<!-- Node469&#45;&gt;Node48 -->
<g id="edge25" class="edge">
<title>Node469&#45;&gt;Node48</title>
<path fill="none" stroke="#191970" d="M733.2137,-342.389C743.0055,-338.9252 752.855,-334.2598 761,-328 794.3874,-302.3403 817.4106,-257.331 828.4744,-231.897"/>
<polygon fill="#191970" stroke="#191970" points="831.7328,-233.177 832.3623,-222.6009 825.2749,-230.4761 831.7328,-233.177"/>
</g>
</g>
</svg>
