<?xml version="1.0" encoding="UTF-8" standalone="no"?>
<!DOCTYPE svg PUBLIC "-//W3C//DTD SVG 1.1//EN"
 "http://www.w3.org/Graphics/SVG/1.1/DTD/svg11.dtd">
<!-- Generated by graphviz version 2.40.1 (20161225.0304)
 -->
<!-- Title: JSObject Pages: 1 -->
<svg width="1327pt" height="1048pt"
 viewBox="0.00 0.00 1327.00 1048.00" xmlns="http://www.w3.org/2000/svg" xmlns:xlink="http://www.w3.org/1999/xlink">
<g id="graph0" class="graph" transform="scale(1 1) rotate(0) translate(4 1044)">
<title>JSObject</title>
<!-- Node1 -->
<g id="node1" class="node">
<title>Node1</title>
<polygon fill="#bfbfbf" stroke="#000000" points="1006,-478.5 1006,-497.5 1063,-497.5 1063,-478.5 1006,-478.5"/>
<text text-anchor="middle" x="1034.5" y="-485.5" font-family="Helvetica,sans-Serif" font-size="10.00" fill="#000000">JSObject</text>
</g>
<!-- Node1&#45;&gt;Node1 -->
<g id="edge32" class="edge">
<title>Node1&#45;&gt;Node1</title>
<path fill="none" stroke="#9a32cd" stroke-dasharray="5,2" d="M1016.7231,-507.4C1017.9103,-512.3146 1023.8359,-516 1034.5,-516 1051.5625,-516 1056.4946,-506.5653 1049.2964,-497.7571"/>
<polygon fill="#9a32cd" stroke="#9a32cd" points="1020.0944,-508.3447 1019.7036,-497.7571 1013.4066,-506.2775 1020.0944,-508.3447"/>
<text text-anchor="middle" x="1034.5" y="-519" font-family="Helvetica,sans-Serif" font-size="10.00" fill="#000000"> home_object</text>
</g>
<!-- Node2 -->
<g id="node2" class="node">
<title>Node2</title>
<g id="a_node2"><a xlink:href="structJSProperty.html" target="_top" xlink:title="JSProperty">
<polygon fill="none" stroke="#000000" points="1226.5,-433.5 1226.5,-452.5 1291.5,-452.5 1291.5,-433.5 1226.5,-433.5"/>
<text text-anchor="middle" x="1259" y="-440.5" font-family="Helvetica,sans-Serif" font-size="10.00" fill="#000000">JSProperty</text>
</a>
</g>
</g>
<!-- Node1&#45;&gt;Node2 -->
<g id="edge2" class="edge">
<title>Node1&#45;&gt;Node2</title>
<path fill="none" stroke="#9a32cd" stroke-dasharray="5,2" d="M1046.2932,-469.9089C1054.547,-459.0027 1066.6438,-446.0804 1081,-440 1128.3855,-419.9303 1189.4282,-427.2359 1226.3187,-434.7972"/>
<polygon fill="#9a32cd" stroke="#9a32cd" points="1043.2059,-468.2133 1040.2985,-478.4015 1048.9247,-472.2501 1043.2059,-468.2133"/>
<text text-anchor="middle" x="1131" y="-454" font-family="Helvetica,sans-Serif" font-size="10.00" fill="#000000"> getter</text>
<text text-anchor="middle" x="1131" y="-443" font-family="Helvetica,sans-Serif" font-size="10.00" fill="#000000">setter</text>
</g>
<!-- Node16 -->
<g id="node16" class="node">
<title>Node16</title>
<g id="a_node16"><a xlink:href="structJSTypedArray.html" target="_top" xlink:title="JSTypedArray">
<polygon fill="none" stroke="#000000" points="1219.5,-23.5 1219.5,-42.5 1298.5,-42.5 1298.5,-23.5 1219.5,-23.5"/>
<text text-anchor="middle" x="1259" y="-30.5" font-family="Helvetica,sans-Serif" font-size="10.00" fill="#000000">JSTypedArray</text>
</a>
</g>
</g>
<!-- Node1&#45;&gt;Node16 -->
<g id="edge25" class="edge">
<title>Node1&#45;&gt;Node16</title>
<path fill="none" stroke="#9a32cd" stroke-dasharray="5,2" d="M1036.7412,-468.0404C1041.6097,-424.5936 1053.4797,-318.1892 1063,-229 1067.126,-190.3466 1053.7873,-82.7594 1081,-55 1116.4214,-18.867 1178.5953,-19.7415 1219.2863,-25.2004"/>
<polygon fill="#9a32cd" stroke="#9a32cd" points="1033.2469,-467.7946 1035.6104,-478.1224 1040.2032,-468.5749 1033.2469,-467.7946"/>
<text text-anchor="middle" x="1131" y="-69" font-family="Helvetica,sans-Serif" font-size="10.00" fill="#000000"> obj</text>
<text text-anchor="middle" x="1131" y="-58" font-family="Helvetica,sans-Serif" font-size="10.00" fill="#000000">buffer</text>
</g>
<!-- Node24 -->
<g id="node23" class="node">
<title>Node24</title>
<g id="a_node23"><a xlink:href="structJSAsyncGeneratorData.html" target="_top" xlink:title="JSAsyncGeneratorData">
<polygon fill="none" stroke="#000000" points="1199,-926.5 1199,-945.5 1319,-945.5 1319,-926.5 1199,-926.5"/>
<text text-anchor="middle" x="1259" y="-933.5" font-family="Helvetica,sans-Serif" font-size="10.00" fill="#000000">JSAsyncGeneratorData</text>
</a>
</g>
</g>
<!-- Node1&#45;&gt;Node24 -->
<g id="edge40" class="edge">
<title>Node1&#45;&gt;Node24</title>
<path fill="none" stroke="#9a32cd" stroke-dasharray="5,2" d="M1057.0683,-503.6524C1089.5225,-527.3751 1148.9813,-575.5843 1181,-631 1241.4289,-735.5861 1255.6534,-886.9004 1258.4134,-926.3205"/>
<polygon fill="#9a32cd" stroke="#9a32cd" points="1058.8399,-500.6156 1048.6759,-497.6251 1054.7565,-506.3013 1058.8399,-500.6156"/>
<text text-anchor="middle" x="1131" y="-634" font-family="Helvetica,sans-Serif" font-size="10.00" fill="#000000"> generator</text>
</g>
<!-- Node31 -->
<g id="node28" class="node">
<title>Node31</title>
<g id="a_node28"><a xlink:href="structJSShape.html" target="_top" xlink:title="JSShape">
<polygon fill="none" stroke="#ff0000" points="1231,-138.5 1231,-157.5 1287,-157.5 1287,-138.5 1231,-138.5"/>
<text text-anchor="middle" x="1259" y="-145.5" font-family="Helvetica,sans-Serif" font-size="10.00" fill="#000000">JSShape</text>
</a>
</g>
</g>
<!-- Node1&#45;&gt;Node31 -->
<g id="edge54" class="edge">
<title>Node1&#45;&gt;Node31</title>
<path fill="none" stroke="#9a32cd" stroke-dasharray="5,2" d="M1044.3738,-469.3567C1053.1275,-453.4935 1066.7089,-430.4196 1081,-412 1120.1116,-361.5897 1144.4027,-361.2642 1181,-309 1217.8774,-256.3358 1246.1154,-183.5738 1255.5742,-157.6491"/>
<polygon fill="#9a32cd" stroke="#9a32cd" points="1041.2711,-467.7362 1039.5841,-478.1958 1047.4256,-471.0712 1041.2711,-467.7362"/>
<text text-anchor="middle" x="1131" y="-415" font-family="Helvetica,sans-Serif" font-size="10.00" fill="#000000"> proto</text>
</g>
<!-- Node2&#45;&gt;Node1 -->
<g id="edge1" class="edge">
<title>Node2&#45;&gt;Node1</title>
<path fill="none" stroke="#9a32cd" stroke-dasharray="5,2" d="M1220.3522,-455.5398C1207.8853,-459.2763 1193.9432,-463.1342 1181,-466 1140.4457,-474.9794 1092.7549,-481.385 1063.0718,-484.8905"/>
<polygon fill="#9a32cd" stroke="#9a32cd" points="1221.4493,-458.8643 1229.9868,-452.5904 1219.4003,-452.1709 1221.4493,-458.8643"/>
<text text-anchor="middle" x="1131" y="-485" font-family="Helvetica,sans-Serif" font-size="10.00" fill="#000000"> prop</text>
</g>
<!-- Node3 -->
<g id="node3" class="node">
<title>Node3</title>
<g id="a_node3"><a xlink:href="structJSVarRef.html" target="_top" xlink:title="JSVarRef">
<polygon fill="none" stroke="#000000" points="724,-317.5 724,-336.5 783,-336.5 783,-317.5 724,-317.5"/>
<text text-anchor="middle" x="753.5" y="-324.5" font-family="Helvetica,sans-Serif" font-size="10.00" fill="#000000">JSVarRef</text>
</a>
</g>
</g>
<!-- Node3&#45;&gt;Node1 -->
<g id="edge42" class="edge">
<title>Node3&#45;&gt;Node1</title>
<path fill="none" stroke="#9a32cd" stroke-dasharray="5,2" d="M793.4199,-328.3942C856.373,-330.9395 973.1249,-337.1969 988,-349 1009.0299,-365.6869 1026.9825,-449.2943 1032.6441,-478.1719"/>
<polygon fill="#9a32cd" stroke="#9a32cd" points="793.1935,-324.8828 783.0644,-327.9894 792.92,-331.8775 793.1935,-324.8828"/>
<text text-anchor="middle" x="918" y="-352" font-family="Helvetica,sans-Serif" font-size="10.00" fill="#000000"> var_refs</text>
</g>
<!-- Node3&#45;&gt;Node2 -->
<g id="edge3" class="edge">
<title>Node3&#45;&gt;Node2</title>
<path fill="none" stroke="#9a32cd" stroke-dasharray="5,2" d="M793.2795,-325.3614C806.553,-322.8631 820.3922,-317.8228 830,-308 855.4835,-281.9464 819.5417,-250.7667 848,-228 896.5874,-189.1301 926.8952,-216.2606 988,-228 1078.6939,-245.424 1111.4459,-244.2446 1181,-305 1223.4898,-342.1147 1247.9471,-408.2805 1256.0054,-433.1704"/>
<polygon fill="#9a32cd" stroke="#9a32cd" points="792.7094,-321.9074 783.319,-326.8135 793.7193,-328.8342 792.7094,-321.9074"/>
<text text-anchor="middle" x="1034.5" y="-245" font-family="Helvetica,sans-Serif" font-size="10.00" fill="#000000"> var_ref</text>
</g>
<!-- Node4 -->
<g id="node4" class="node">
<title>Node4</title>
<g id="a_node4"><a xlink:href="structlist__head.html" target="_top" xlink:title="list_head">
<polygon fill="none" stroke="#000000" points="0,-733.5 0,-752.5 56,-752.5 56,-733.5 0,-733.5"/>
<text text-anchor="middle" x="28" y="-740.5" font-family="Helvetica,sans-Serif" font-size="10.00" fill="#000000">list_head</text>
</a>
</g>
</g>
<!-- Node4&#45;&gt;Node1 -->
<g id="edge8" class="edge">
<title>Node4&#45;&gt;Node1</title>
<path fill="none" stroke="#9a32cd" stroke-dasharray="5,2" d="M35.0919,-761.9122C55.8096,-813.5302 121.4604,-953 226,-953 226,-953 226,-953 753.5,-953 805.8399,-953 950.7863,-967.8051 988,-931 1019.959,-899.3919 1032.2222,-559.796 1034.2043,-497.7146"/>
<polygon fill="#9a32cd" stroke="#9a32cd" points="38.3433,-760.6161 31.4518,-752.569 31.8209,-763.1574 38.3433,-760.6161"/>
<text text-anchor="middle" x="481" y="-956" font-family="Helvetica,sans-Serif" font-size="10.00" fill="#000000"> link</text>
</g>
<!-- Node4&#45;&gt;Node3 -->
<g id="edge4" class="edge">
<title>Node4&#45;&gt;Node3</title>
<path fill="none" stroke="#9a32cd" stroke-dasharray="5,2" d="M39.011,-724.8138C78.4053,-661.614 219.5924,-450.6704 399,-364 456.181,-336.3763 649.5495,-329.2635 723.9699,-327.5289"/>
<polygon fill="#9a32cd" stroke="#9a32cd" points="36.0225,-722.992 33.7575,-733.342 41.9824,-726.6635 36.0225,-722.992"/>
<text text-anchor="middle" x="338" y="-431" font-family="Helvetica,sans-Serif" font-size="10.00" fill="#000000"> link</text>
</g>
<!-- Node4&#45;&gt;Node4 -->
<g id="edge5" class="edge">
<title>Node4&#45;&gt;Node4</title>
<path fill="none" stroke="#9a32cd" stroke-dasharray="5,2" d="M12.0749,-762.4C13.1384,-767.3146 18.4468,-771 28,-771 43.2852,-771 47.7035,-761.5653 41.2551,-752.7571"/>
<polygon fill="#9a32cd" stroke="#9a32cd" points="15.4494,-763.3284 14.7449,-752.7571 8.7032,-761.4604 15.4494,-763.3284"/>
<text text-anchor="middle" x="28" y="-785" font-family="Helvetica,sans-Serif" font-size="10.00" fill="#000000"> prev</text>
<text text-anchor="middle" x="28" y="-774" font-family="Helvetica,sans-Serif" font-size="10.00" fill="#000000">next</text>
</g>
<!-- Node12 -->
<g id="node12" class="node">
<title>Node12</title>
<g id="a_node12"><a xlink:href="structJSPromiseData.html" target="_top" xlink:title="JSPromiseData">
<polygon fill="none" stroke="#000000" points="295,-822.5 295,-841.5 381,-841.5 381,-822.5 295,-822.5"/>
<text text-anchor="middle" x="338" y="-829.5" font-family="Helvetica,sans-Serif" font-size="10.00" fill="#000000">JSPromiseData</text>
</a>
</g>
</g>
<!-- Node4&#45;&gt;Node12 -->
<g id="edge15" class="edge">
<title>Node4&#45;&gt;Node12</title>
<path fill="none" stroke="#9a32cd" stroke-dasharray="5,2" d="M46.4576,-758.9209C54.4611,-765.0873 64.2272,-771.6865 74,-776 147.511,-808.4463 241.0107,-822.5522 294.726,-828.3292"/>
<polygon fill="#9a32cd" stroke="#9a32cd" points="48.5253,-756.0918 38.5478,-752.5281 44.1252,-761.5361 48.5253,-756.0918"/>
<text text-anchor="middle" x="115.5" y="-806" font-family="Helvetica,sans-Serif" font-size="10.00" fill="#000000"> promise_reactions</text>
</g>
<!-- Node13 -->
<g id="node13" class="node">
<title>Node13</title>
<g id="a_node13"><a xlink:href="structJSMapRecord.html" target="_top" xlink:title="JSMapRecord">
<polygon fill="none" stroke="#000000" points="441.5,-752.5 441.5,-771.5 520.5,-771.5 520.5,-752.5 441.5,-752.5"/>
<text text-anchor="middle" x="481" y="-759.5" font-family="Helvetica,sans-Serif" font-size="10.00" fill="#000000">JSMapRecord</text>
</a>
</g>
</g>
<!-- Node4&#45;&gt;Node13 -->
<g id="edge17" class="edge">
<title>Node4&#45;&gt;Node13</title>
<path fill="none" stroke="#9a32cd" stroke-dasharray="5,2" d="M66.2588,-747.3755C68.8767,-747.608 71.476,-747.8197 74,-748 208.5202,-757.6113 368.54,-760.6723 441.3735,-761.6083"/>
<polygon fill="#9a32cd" stroke="#9a32cd" points="66.4813,-743.8807 56.1897,-746.3971 65.8043,-750.8479 66.4813,-743.8807"/>
<text text-anchor="middle" x="226" y="-771" font-family="Helvetica,sans-Serif" font-size="10.00" fill="#000000"> link</text>
<text text-anchor="middle" x="226" y="-760" font-family="Helvetica,sans-Serif" font-size="10.00" fill="#000000">hash_link</text>
</g>
<!-- Node14 -->
<g id="node14" class="node">
<title>Node14</title>
<g id="a_node14"><a xlink:href="structJSMapState.html" target="_top" xlink:title="JSMapState">
<polygon fill="none" stroke="#000000" points="190.5,-706.5 190.5,-725.5 261.5,-725.5 261.5,-706.5 190.5,-706.5"/>
<text text-anchor="middle" x="226" y="-713.5" font-family="Helvetica,sans-Serif" font-size="10.00" fill="#000000">JSMapState</text>
</a>
</g>
</g>
<!-- Node4&#45;&gt;Node14 -->
<g id="edge20" class="edge">
<title>Node4&#45;&gt;Node14</title>
<path fill="none" stroke="#9a32cd" stroke-dasharray="5,2" d="M59.5696,-729.9857C64.3401,-728.4145 69.2535,-727.0109 74,-726 113.1867,-717.654 159.2262,-715.684 190.2835,-715.4664"/>
<polygon fill="#9a32cd" stroke="#9a32cd" points="58.3184,-726.7159 50.0772,-733.3742 60.6718,-733.3085 58.3184,-726.7159"/>
<text text-anchor="middle" x="115.5" y="-740" font-family="Helvetica,sans-Serif" font-size="10.00" fill="#000000"> records</text>
<text text-anchor="middle" x="115.5" y="-729" font-family="Helvetica,sans-Serif" font-size="10.00" fill="#000000">hash_table</text>
</g>
<!-- Node4&#45;&gt;Node16 -->
<g id="edge24" class="edge">
<title>Node4&#45;&gt;Node16</title>
<path fill="none" stroke="#9a32cd" stroke-dasharray="5,2" d="M28.5583,-723.0961C31.0469,-641.2082 42.4282,-330.2946 74,-238 114.6229,-119.2462 100.4903,0 226,0 226,0 226,0 1034.5,0 1099.6979,0 1174.425,-13.7921 1219.1113,-23.5435"/>
<polygon fill="#9a32cd" stroke="#9a32cd" points="25.049,-723.3645 28.2543,-733.4628 32.046,-723.5697 25.049,-723.3645"/>
<text text-anchor="middle" x="620" y="-3" font-family="Helvetica,sans-Serif" font-size="10.00" fill="#000000"> link</text>
</g>
<!-- Node23 -->
<g id="node22" class="node">
<title>Node23</title>
<g id="a_node22"><a xlink:href="structJSArrayBuffer.html" target="_top" xlink:title="JSArrayBuffer">
<polygon fill="none" stroke="#000000" points="581,-43.5 581,-62.5 659,-62.5 659,-43.5 581,-43.5"/>
<text text-anchor="middle" x="620" y="-50.5" font-family="Helvetica,sans-Serif" font-size="10.00" fill="#000000">JSArrayBuffer</text>
</a>
</g>
</g>
<!-- Node4&#45;&gt;Node23 -->
<g id="edge36" class="edge">
<title>Node4&#45;&gt;Node23</title>
<path fill="none" stroke="#9a32cd" stroke-dasharray="5,2" d="M28.6927,-723.0633C33.114,-630.4119 65.2633,-239.833 295,-84 382.5984,-24.581 515.3437,-35.3565 580.7511,-45.5341"/>
<polygon fill="#9a32cd" stroke="#9a32cd" points="25.1866,-723.1367 28.2643,-733.2747 32.1805,-723.4302 25.1866,-723.1367"/>
<text text-anchor="middle" x="226" y="-209" font-family="Helvetica,sans-Serif" font-size="10.00" fill="#000000"> array_list</text>
</g>
<!-- Node4&#45;&gt;Node24 -->
<g id="edge38" class="edge">
<title>Node4&#45;&gt;Node24</title>
<path fill="none" stroke="#9a32cd" stroke-dasharray="5,2" d="M30.0899,-762.6872C34.1795,-793.9986 45.4773,-856.0869 74,-900 122.264,-974.3065 137.3949,-1029 226,-1029 226,-1029 226,-1029 1034.5,-1029 1120.9846,-1029 1212.9195,-969.3637 1246.1174,-945.6024"/>
<polygon fill="#9a32cd" stroke="#9a32cd" points="33.5507,-762.1497 28.8908,-752.6346 26.5999,-762.9788 33.5507,-762.1497"/>
<text text-anchor="middle" x="620" y="-1032" font-family="Helvetica,sans-Serif" font-size="10.00" fill="#000000"> queue</text>
</g>
<!-- Node5 -->
<g id="node5" class="node">
<title>Node5</title>
<g id="a_node5"><a xlink:href="structJSRefCountHeader.html" target="_top" xlink:title="JSRefCountHeader">
<polygon fill="none" stroke="#000000" points="175,-338.5 175,-357.5 277,-357.5 277,-338.5 175,-338.5"/>
<text text-anchor="middle" x="226" y="-345.5" font-family="Helvetica,sans-Serif" font-size="10.00" fill="#000000">JSRefCountHeader</text>
</a>
</g>
</g>
<!-- Node5&#45;&gt;Node1 -->
<g id="edge22" class="edge">
<title>Node5&#45;&gt;Node1</title>
<path fill="none" stroke="#9a32cd" stroke-dasharray="5,2" d="M238.2693,-366.3361C263.425,-402.0991 324.7747,-480.3414 399,-511 576.5972,-584.356 637.9453,-551.0716 830,-545 900.3276,-542.7767 923.9543,-564.1386 988,-535 1005.7614,-526.9192 1020.4389,-508.8447 1028.296,-497.6128"/>
<polygon fill="#9a32cd" stroke="#9a32cd" points="240.9649,-364.0795 232.4091,-357.8305 235.2005,-368.051 240.9649,-364.0795"/>
<text text-anchor="middle" x="620" y="-560" font-family="Helvetica,sans-Serif" font-size="10.00" fill="#000000"> header</text>
</g>
<!-- Node5&#45;&gt;Node3 -->
<g id="edge6" class="edge">
<title>Node5&#45;&gt;Node3</title>
<path fill="none" stroke="#9a32cd" stroke-dasharray="5,2" d="M280.7085,-336.4375C314.5985,-329.8721 359.1197,-322.3194 399,-319 514.1573,-309.415 543.5475,-314.1218 659,-319 680.7143,-319.9175 705.1604,-322.0158 723.7479,-323.8332"/>
<polygon fill="#9a32cd" stroke="#9a32cd" points="279.6847,-333.0718 270.5492,-338.4375 281.0369,-339.9399 279.6847,-333.0718"/>
<text text-anchor="middle" x="481" y="-322" font-family="Helvetica,sans-Serif" font-size="10.00" fill="#000000"> header</text>
</g>
<!-- Node18 -->
<g id="node18" class="node">
<title>Node18</title>
<g id="a_node18"><a xlink:href="structJSString.html" target="_top" xlink:title="JSString">
<polygon fill="none" stroke="#000000" points="454,-245.5 454,-264.5 508,-264.5 508,-245.5 454,-245.5"/>
<text text-anchor="middle" x="481" y="-252.5" font-family="Helvetica,sans-Serif" font-size="10.00" fill="#000000">JSString</text>
</a>
</g>
</g>
<!-- Node5&#45;&gt;Node18 -->
<g id="edge28" class="edge">
<title>Node5&#45;&gt;Node18</title>
<path fill="none" stroke="#9a32cd" stroke-dasharray="5,2" d="M238.7556,-330.0346C251.1698,-314.0565 271.5552,-291.4949 295,-280 346.9275,-254.5402 416.2652,-252.3673 453.906,-253.4286"/>
<polygon fill="#9a32cd" stroke="#9a32cd" points="235.8941,-328.0168 232.71,-338.1219 241.5007,-332.208 235.8941,-328.0168"/>
<text text-anchor="middle" x="338" y="-283" font-family="Helvetica,sans-Serif" font-size="10.00" fill="#000000"> header</text>
</g>
<!-- Node26 -->
<g id="node25" class="node">
<title>Node26</title>
<g id="a_node25"><a xlink:href="structJSFunctionBytecode.html" target="_top" xlink:title="JSFunctionBytecode">
<polygon fill="none" stroke="#ff0000" points="700,-355.5 700,-374.5 807,-374.5 807,-355.5 700,-355.5"/>
<text text-anchor="middle" x="753.5" y="-362.5" font-family="Helvetica,sans-Serif" font-size="10.00" fill="#000000">JSFunctionBytecode</text>
</a>
</g>
</g>
<!-- Node5&#45;&gt;Node26 -->
<g id="edge44" class="edge">
<title>Node5&#45;&gt;Node26</title>
<path fill="none" stroke="#9a32cd" stroke-dasharray="5,2" d="M287.4315,-356.7152C371.346,-367.5361 526.5257,-383.6842 659,-376 672.1914,-375.2348 686.3668,-373.8737 699.6228,-372.3637"/>
<polygon fill="#9a32cd" stroke="#9a32cd" points="287.6798,-353.218 277.3103,-355.3912 286.7717,-360.1588 287.6798,-353.218"/>
<text text-anchor="middle" x="481" y="-380" font-family="Helvetica,sans-Serif" font-size="10.00" fill="#000000"> header</text>
</g>
<!-- Node29 -->
<g id="node26" class="node">
<title>Node29</title>
<g id="a_node26"><a xlink:href="structJSAsyncFunctionData.html" target="_top" xlink:title="JSAsyncFunctionData">
<polygon fill="none" stroke="#000000" points="696,-516.5 696,-535.5 811,-535.5 811,-516.5 696,-516.5"/>
<text text-anchor="middle" x="753.5" y="-523.5" font-family="Helvetica,sans-Serif" font-size="10.00" fill="#000000">JSAsyncFunctionData</text>
</a>
</g>
</g>
<!-- Node5&#45;&gt;Node29 -->
<g id="edge48" class="edge">
<title>Node5&#45;&gt;Node29</title>
<path fill="none" stroke="#9a32cd" stroke-dasharray="5,2" d="M248.3004,-363.4562C280.3395,-385.0526 341.8449,-424.2683 399,-448 498.8126,-489.4437 623.9899,-510.3653 695.7517,-519.6615"/>
<polygon fill="#9a32cd" stroke="#9a32cd" points="249.9427,-360.3403 239.7063,-357.6077 246.0043,-366.1274 249.9427,-360.3403"/>
<text text-anchor="middle" x="481" y="-499" font-family="Helvetica,sans-Serif" font-size="10.00" fill="#000000"> header</text>
</g>
<!-- Node5&#45;&gt;Node31 -->
<g id="edge52" class="edge">
<title>Node5&#45;&gt;Node31</title>
<path fill="none" stroke="#9a32cd" stroke-dasharray="5,2" d="M235.842,-329.7078C247.7248,-308.9076 269.3428,-274.8763 295,-252 430.1939,-131.459 497.8176,-136.4795 677,-110 846.7329,-84.9169 891.5023,-110.8067 1063,-116 1115.4505,-117.5883 1129.4625,-110.1275 1181,-120 1200.9244,-123.8167 1222.5629,-131.9232 1237.9831,-138.4361"/>
<polygon fill="#9a32cd" stroke="#9a32cd" points="232.7549,-328.0576 230.9514,-338.4978 238.8719,-331.4609 232.7549,-328.0576"/>
<text text-anchor="middle" x="753.5" y="-113" font-family="Helvetica,sans-Serif" font-size="10.00" fill="#000000"> header</text>
</g>
<!-- Node6 -->
<g id="node6" class="node">
<title>Node6</title>
<g id="a_node6"><a xlink:href="structJSGCHeader.html" target="_top" xlink:title="JSGCHeader">
<polygon fill="none" stroke="#000000" points="443.5,-419.5 443.5,-438.5 518.5,-438.5 518.5,-419.5 443.5,-419.5"/>
<text text-anchor="middle" x="481" y="-426.5" font-family="Helvetica,sans-Serif" font-size="10.00" fill="#000000">JSGCHeader</text>
</a>
</g>
</g>
<!-- Node6&#45;&gt;Node1 -->
<g id="edge31" class="edge">
<title>Node6&#45;&gt;Node1</title>
<path fill="none" stroke="#9a32cd" stroke-dasharray="5,2" d="M528.8044,-432.0185C596.1233,-436.4861 722.6399,-445.677 830,-458 892.9212,-465.2222 966.2881,-476.7461 1005.7878,-483.2069"/>
<polygon fill="#9a32cd" stroke="#9a32cd" points="528.7285,-428.5061 518.5204,-431.3423 528.2692,-435.491 528.7285,-428.5061"/>
<text text-anchor="middle" x="753.5" y="-461" font-family="Helvetica,sans-Serif" font-size="10.00" fill="#000000"> gc_header</text>
</g>
<!-- Node6&#45;&gt;Node3 -->
<g id="edge7" class="edge">
<title>Node6&#45;&gt;Node3</title>
<path fill="none" stroke="#9a32cd" stroke-dasharray="5,2" d="M528.4181,-419.7046C540.2376,-416.1785 552.5186,-411.4057 563,-405 572.9254,-398.9341 571.4233,-392.6026 581,-386 619.0545,-359.7636 633.1114,-360.5012 677,-346 692.2028,-340.9769 709.4884,-336.5765 723.7775,-333.2789"/>
<polygon fill="#9a32cd" stroke="#9a32cd" points="527.3675,-416.3634 518.6479,-422.3817 529.2174,-423.1145 527.3675,-416.3634"/>
<text text-anchor="middle" x="620" y="-389" font-family="Helvetica,sans-Serif" font-size="10.00" fill="#000000"> gc_header</text>
</g>
<!-- Node6&#45;&gt;Node26 -->
<g id="edge45" class="edge">
<title>Node6&#45;&gt;Node26</title>
<path fill="none" stroke="#9a32cd" stroke-dasharray="5,2" d="M528.8006,-429.0765C566.02,-427.3887 618.0607,-421.1016 659,-401 668.8775,-396.1501 667.3439,-389.2769 677,-384 684.0851,-380.1281 691.9677,-377.0318 699.904,-374.5591"/>
<polygon fill="#9a32cd" stroke="#9a32cd" points="528.5854,-425.5818 518.7173,-429.4382 528.8364,-432.5773 528.5854,-425.5818"/>
<text text-anchor="middle" x="620" y="-426" font-family="Helvetica,sans-Serif" font-size="10.00" fill="#000000"> gc_header</text>
</g>
<!-- Node6&#45;&gt;Node29 -->
<g id="edge49" class="edge">
<title>Node6&#45;&gt;Node29</title>
<path fill="none" stroke="#9a32cd" stroke-dasharray="5,2" d="M519.0131,-441.745C537.6625,-447.9465 560.4771,-455.4571 581,-462 615.5569,-473.0171 628.6677,-466.1127 659,-486 669.2802,-492.7401 666.5382,-500.5454 677,-507 683.2891,-510.8802 690.3288,-513.9688 697.5227,-516.4272"/>
<polygon fill="#9a32cd" stroke="#9a32cd" points="519.9926,-438.3823 509.3989,-438.5414 517.7796,-445.0233 519.9926,-438.3823"/>
<text text-anchor="middle" x="620" y="-489" font-family="Helvetica,sans-Serif" font-size="10.00" fill="#000000"> gc_header</text>
</g>
<!-- Node6&#45;&gt;Node31 -->
<g id="edge53" class="edge">
<title>Node6&#45;&gt;Node31</title>
<path fill="none" stroke="#9a32cd" stroke-dasharray="5,2" d="M528.2948,-417.3708C541.5237,-411.8298 554.5731,-403.742 563,-392 610.6509,-325.6034 536.062,-277.2619 581,-209 607.7987,-168.2921 630.5497,-170.7539 677,-156 880.6951,-91.3009 1145.0658,-128.0465 1230.821,-142.7763"/>
<polygon fill="#9a32cd" stroke="#9a32cd" points="526.8282,-414.1827 518.694,-420.9713 529.2862,-420.737 526.8282,-414.1827"/>
<text text-anchor="middle" x="918" y="-126" font-family="Helvetica,sans-Serif" font-size="10.00" fill="#000000"> gc_header</text>
</g>
<!-- Node7 -->
<g id="node7" class="node">
<title>Node7</title>
<g id="a_node7"><a xlink:href="unionJSCFunctionType.html" target="_top" xlink:title="JSCFunctionType">
<polygon fill="none" stroke="#000000" points="706,-867.5 706,-886.5 801,-886.5 801,-867.5 706,-867.5"/>
<text text-anchor="middle" x="753.5" y="-874.5" font-family="Helvetica,sans-Serif" font-size="10.00" fill="#000000">JSCFunctionType</text>
</a>
</g>
</g>
<!-- Node7&#45;&gt;Node1 -->
<g id="edge9" class="edge">
<title>Node7&#45;&gt;Node1</title>
<path fill="none" stroke="#9a32cd" stroke-dasharray="5,2" d="M811.4259,-878.9865C872.6715,-879.7569 963.7353,-876.672 988,-853 1014.2919,-827.3502 1030.8749,-553.1656 1033.9721,-497.7364"/>
<polygon fill="#9a32cd" stroke="#9a32cd" points="811.1707,-875.4819 801.1146,-878.8173 811.0558,-882.481 811.1707,-875.4819"/>
<text text-anchor="middle" x="918" y="-881" font-family="Helvetica,sans-Serif" font-size="10.00" fill="#000000"> c_function</text>
</g>
<!-- Node8 -->
<g id="node8" class="node">
<title>Node8</title>
<g id="a_node8"><a xlink:href="structJSPromiseFunctionData.html" target="_top" xlink:title="JSPromiseFunctionData">
<polygon fill="none" stroke="#000000" points="692,-203.5 692,-222.5 815,-222.5 815,-203.5 692,-203.5"/>
<text text-anchor="middle" x="753.5" y="-210.5" font-family="Helvetica,sans-Serif" font-size="10.00" fill="#000000">JSPromiseFunctionData</text>
</a>
</g>
</g>
<!-- Node8&#45;&gt;Node1 -->
<g id="edge10" class="edge">
<title>Node8&#45;&gt;Node1</title>
<path fill="none" stroke="#9a32cd" stroke-dasharray="5,2" d="M825.3683,-202.9268C877.2529,-199.9348 945.4107,-205.4898 988,-246 1022.4863,-278.8028 1032.1521,-437.3932 1034.0912,-478.3376"/>
<polygon fill="#9a32cd" stroke="#9a32cd" points="824.9543,-199.447 815.2208,-203.6313 825.4392,-206.4302 824.9543,-199.447"/>
<text text-anchor="middle" x="918" y="-249" font-family="Helvetica,sans-Serif" font-size="10.00" fill="#000000"> promise_function_data</text>
</g>
<!-- Node9 -->
<g id="node9" class="node">
<title>Node9</title>
<g id="a_node9"><a xlink:href="structJSPromiseFunctionDataResolved.html" target="_top" xlink:title="JSPromiseFunctionDataResolved">
<polygon fill="none" stroke="#000000" points="399,-203.5 399,-222.5 563,-222.5 563,-203.5 399,-203.5"/>
<text text-anchor="middle" x="481" y="-210.5" font-family="Helvetica,sans-Serif" font-size="10.00" fill="#000000">JSPromiseFunctionDataResolved</text>
</a>
</g>
</g>
<!-- Node9&#45;&gt;Node8 -->
<g id="edge11" class="edge">
<title>Node9&#45;&gt;Node8</title>
<path fill="none" stroke="#9a32cd" stroke-dasharray="5,2" d="M573.4597,-213C612.5161,-213 656.9443,-213 691.8943,-213"/>
<polygon fill="#9a32cd" stroke="#9a32cd" points="573.1286,-209.5001 563.1285,-213 573.1285,-216.5001 573.1286,-209.5001"/>
<text text-anchor="middle" x="620" y="-216" font-family="Helvetica,sans-Serif" font-size="10.00" fill="#000000"> presolved</text>
</g>
<!-- Node10 -->
<g id="node10" class="node">
<title>Node10</title>
<g id="a_node10"><a xlink:href="structJSRegExpStringIteratorData.html" target="_top" xlink:title="JSRegExpStringIteratorData">
<polygon fill="none" stroke="#000000" points="683,-478.5 683,-497.5 824,-497.5 824,-478.5 683,-478.5"/>
<text text-anchor="middle" x="753.5" y="-485.5" font-family="Helvetica,sans-Serif" font-size="10.00" fill="#000000">JSRegExpStringIteratorData</text>
</a>
</g>
</g>
<!-- Node10&#45;&gt;Node1 -->
<g id="edge12" class="edge">
<title>Node10&#45;&gt;Node1</title>
<path fill="none" stroke="#9a32cd" stroke-dasharray="5,2" d="M834.2175,-488C891.7372,-488 965.6892,-488 1005.696,-488"/>
<polygon fill="#9a32cd" stroke="#9a32cd" points="834.0455,-484.5001 824.0455,-488 834.0454,-491.5001 834.0455,-484.5001"/>
<text text-anchor="middle" x="918" y="-491" font-family="Helvetica,sans-Serif" font-size="10.00" fill="#000000"> regexp_string_iterator_data</text>
</g>
<!-- Node11 -->
<g id="node11" class="node">
<title>Node11</title>
<g id="a_node11"><a xlink:href="structJSAsyncFromSyncIteratorData.html" target="_top" xlink:title="JSAsyncFromSyncIteratorData">
<polygon fill="none" stroke="#000000" points="677,-706.5 677,-725.5 830,-725.5 830,-706.5 677,-706.5"/>
<text text-anchor="middle" x="753.5" y="-713.5" font-family="Helvetica,sans-Serif" font-size="10.00" fill="#000000">JSAsyncFromSyncIteratorData</text>
</a>
</g>
</g>
<!-- Node11&#45;&gt;Node1 -->
<g id="edge13" class="edge">
<title>Node11&#45;&gt;Node1</title>
<path fill="none" stroke="#9a32cd" stroke-dasharray="5,2" d="M806.1995,-727.1494C858.7708,-734.9693 938.6236,-737.4084 988,-694 1018.2205,-667.4321 1030.8031,-534.9785 1033.7767,-497.7486"/>
<polygon fill="#9a32cd" stroke="#9a32cd" points="806.494,-723.652 796.0662,-725.5257 805.3864,-730.5638 806.494,-723.652"/>
<text text-anchor="middle" x="918" y="-734" font-family="Helvetica,sans-Serif" font-size="10.00" fill="#000000"> async_from_sync_iterator_data</text>
</g>
<!-- Node12&#45;&gt;Node1 -->
<g id="edge14" class="edge">
<title>Node12&#45;&gt;Node1</title>
<path fill="none" stroke="#9a32cd" stroke-dasharray="5,2" d="M391.2591,-834.633C538.6384,-841.389 943.9258,-856.1841 988,-817 1012.6274,-795.1051 1030.3374,-550.1831 1033.8581,-497.8158"/>
<polygon fill="#9a32cd" stroke="#9a32cd" points="391.2536,-831.129 381.102,-834.1613 390.9289,-838.1215 391.2536,-831.129"/>
<text text-anchor="middle" x="620" y="-845" font-family="Helvetica,sans-Serif" font-size="10.00" fill="#000000"> promise_data</text>
</g>
<!-- Node13&#45;&gt;Node1 -->
<g id="edge16" class="edge">
<title>Node13&#45;&gt;Node1</title>
<path fill="none" stroke="#9a32cd" stroke-dasharray="5,2" d="M530.9553,-763.9167C652.081,-768.0775 953.9899,-775.3519 988,-746 1026.5905,-712.6951 1033.2492,-540.1425 1034.3109,-497.5248"/>
<polygon fill="#9a32cd" stroke="#9a32cd" points="530.9528,-760.4146 520.8362,-763.5618 530.7074,-767.4103 530.9528,-760.4146"/>
<text text-anchor="middle" x="753.5" y="-770" font-family="Helvetica,sans-Serif" font-size="10.00" fill="#000000"> first_weak_ref</text>
</g>
<!-- Node13&#45;&gt;Node13 -->
<g id="edge18" class="edge">
<title>Node13&#45;&gt;Node13</title>
<path fill="none" stroke="#9a32cd" stroke-dasharray="5,2" d="M455.3305,-781.0292C456.7307,-786.128 465.2872,-790 481,-790 505.5273,-790 512.6173,-780.5653 502.2698,-771.7571"/>
<polygon fill="#9a32cd" stroke="#9a32cd" points="458.6052,-782.292 459.7302,-771.7571 452.2811,-779.2911 458.6052,-782.292"/>
<text text-anchor="middle" x="481" y="-793" font-family="Helvetica,sans-Serif" font-size="10.00" fill="#000000"> next_weak_ref</text>
</g>
<!-- Node33 -->
<g id="node29" class="node">
<title>Node33</title>
<g id="a_node29"><a xlink:href="structJSMapIteratorData.html" target="_top" xlink:title="JSMapIteratorData">
<polygon fill="none" stroke="#000000" points="704,-791.5 704,-810.5 803,-810.5 803,-791.5 704,-791.5"/>
<text text-anchor="middle" x="753.5" y="-798.5" font-family="Helvetica,sans-Serif" font-size="10.00" fill="#000000">JSMapIteratorData</text>
</a>
</g>
</g>
<!-- Node13&#45;&gt;Node33 -->
<g id="edge57" class="edge">
<title>Node13&#45;&gt;Node33</title>
<path fill="none" stroke="#9a32cd" stroke-dasharray="5,2" d="M530.6946,-769.1123C579.796,-776.1396 654.4922,-786.8301 703.6481,-793.8652"/>
<polygon fill="#9a32cd" stroke="#9a32cd" points="531.0189,-765.6231 520.6238,-767.6709 530.0271,-772.5525 531.0189,-765.6231"/>
<text text-anchor="middle" x="620" y="-790" font-family="Helvetica,sans-Serif" font-size="10.00" fill="#000000"> cur_record</text>
</g>
<!-- Node14&#45;&gt;Node1 -->
<g id="edge30" class="edge">
<title>Node14&#45;&gt;Node1</title>
<path fill="none" stroke="#9a32cd" stroke-dasharray="5,2" d="M271.5015,-704.2911C338.8737,-687.1396 469.247,-654.6583 581,-631 760.9463,-592.905 833.8059,-656.28 988,-556 1010.0605,-541.653 1024.431,-512.8009 1030.7694,-497.7065"/>
<polygon fill="#9a32cd" stroke="#9a32cd" points="270.4595,-700.9447 261.635,-706.808 272.1899,-707.7275 270.4595,-700.9447"/>
<text text-anchor="middle" x="620" y="-634" font-family="Helvetica,sans-Serif" font-size="10.00" fill="#000000"> map_state</text>
</g>
<!-- Node14&#45;&gt;Node13 -->
<g id="edge19" class="edge">
<title>Node14&#45;&gt;Node13</title>
<path fill="none" stroke="#9a32cd" stroke-dasharray="5,2" d="M271.6483,-720.8431C302.636,-724.4588 344.462,-729.9798 381,-737 403.1432,-741.2545 427.7141,-747.3772 446.9587,-752.4984"/>
<polygon fill="#9a32cd" stroke="#9a32cd" points="271.9114,-717.3504 261.5783,-719.6905 271.1154,-724.305 271.9114,-717.3504"/>
<text text-anchor="middle" x="338" y="-740" font-family="Helvetica,sans-Serif" font-size="10.00" fill="#000000"> map</text>
</g>
<!-- Node15 -->
<g id="node15" class="node">
<title>Node15</title>
<g id="a_node15"><a xlink:href="structJSBoundFunction.html" target="_top" xlink:title="JSBoundFunction">
<polygon fill="none" stroke="#000000" points="706.5,-668.5 706.5,-687.5 800.5,-687.5 800.5,-668.5 706.5,-668.5"/>
<text text-anchor="middle" x="753.5" y="-675.5" font-family="Helvetica,sans-Serif" font-size="10.00" fill="#000000">JSBoundFunction</text>
</a>
</g>
</g>
<!-- Node15&#45;&gt;Node1 -->
<g id="edge21" class="edge">
<title>Node15&#45;&gt;Node1</title>
<path fill="none" stroke="#9a32cd" stroke-dasharray="5,2" d="M810.7967,-679.5692C871.4827,-680.01 962.0509,-676.7902 988,-655 1012.7763,-634.1946 1028.7344,-530.5444 1033.2104,-497.8776"/>
<polygon fill="#9a32cd" stroke="#9a32cd" points="810.62,-676.0672 800.5827,-679.4588 810.5443,-683.0668 810.62,-676.0672"/>
<text text-anchor="middle" x="918" y="-682" font-family="Helvetica,sans-Serif" font-size="10.00" fill="#000000"> bound_function</text>
</g>
<!-- Node16&#45;&gt;Node1 -->
<g id="edge23" class="edge">
<title>Node16&#45;&gt;Node1</title>
<path fill="none" stroke="#9a32cd" stroke-dasharray="5,2" d="M1232.1982,-47.4479C1192.0176,-70.656 1117.045,-120.2795 1081,-185 1051.8036,-237.4236 1037.9631,-432.5933 1035.0796,-478.3544"/>
<polygon fill="#9a32cd" stroke="#9a32cd" points="1233.9415,-50.4829 1240.9195,-42.5106 1230.4929,-44.3913 1233.9415,-50.4829"/>
<text text-anchor="middle" x="1131" y="-188" font-family="Helvetica,sans-Serif" font-size="10.00" fill="#000000"> typed_array</text>
</g>
<!-- Node17 -->
<g id="node17" class="node">
<title>Node17</title>
<g id="a_node17"><a xlink:href="structJSRegExp.html" target="_top" xlink:title="JSRegExp">
<polygon fill="none" stroke="#000000" points="721.5,-241.5 721.5,-260.5 785.5,-260.5 785.5,-241.5 721.5,-241.5"/>
<text text-anchor="middle" x="753.5" y="-248.5" font-family="Helvetica,sans-Serif" font-size="10.00" fill="#000000">JSRegExp</text>
</a>
</g>
</g>
<!-- Node17&#45;&gt;Node1 -->
<g id="edge26" class="edge">
<title>Node17&#45;&gt;Node1</title>
<path fill="none" stroke="#9a32cd" stroke-dasharray="5,2" d="M795.8827,-254.9735C861.514,-261.3061 980.9715,-273.6215 988,-280 1018.1413,-307.3535 1030.8187,-441.3065 1033.7881,-478.4398"/>
<polygon fill="#9a32cd" stroke="#9a32cd" points="796.1253,-251.4808 785.8369,-254.0104 795.4572,-258.4489 796.1253,-251.4808"/>
<text text-anchor="middle" x="918" y="-283" font-family="Helvetica,sans-Serif" font-size="10.00" fill="#000000"> regexp</text>
</g>
<!-- Node18&#45;&gt;Node17 -->
<g id="edge27" class="edge">
<title>Node18&#45;&gt;Node17</title>
<path fill="none" stroke="#9a32cd" stroke-dasharray="5,2" d="M518.2674,-254.453C572.1048,-253.6627 670.7305,-252.215 721.473,-251.4701"/>
<polygon fill="#9a32cd" stroke="#9a32cd" points="518.0721,-250.9553 508.1246,-254.6018 518.1749,-257.9546 518.0721,-250.9553"/>
<text text-anchor="middle" x="620" y="-267" font-family="Helvetica,sans-Serif" font-size="10.00" fill="#000000"> pattern</text>
<text text-anchor="middle" x="620" y="-256" font-family="Helvetica,sans-Serif" font-size="10.00" fill="#000000">bytecode</text>
</g>
<!-- Node19 -->
<g id="node19" class="node">
<title>Node19</title>
<g id="a_node19"><a xlink:href="structJSProxyData.html" target="_top" xlink:title="JSProxyData">
<polygon fill="none" stroke="#000000" points="716,-630.5 716,-649.5 791,-649.5 791,-630.5 716,-630.5"/>
<text text-anchor="middle" x="753.5" y="-637.5" font-family="Helvetica,sans-Serif" font-size="10.00" fill="#000000">JSProxyData</text>
</a>
</g>
</g>
<!-- Node19&#45;&gt;Node1 -->
<g id="edge29" class="edge">
<title>Node19&#45;&gt;Node1</title>
<path fill="none" stroke="#9a32cd" stroke-dasharray="5,2" d="M801.1989,-640.9268C861.2147,-641.126 959.854,-637.942 988,-616 1007.4856,-600.8094 1026.148,-525.1078 1032.3438,-497.8231"/>
<polygon fill="#9a32cd" stroke="#9a32cd" points="801.2146,-637.4269 791.1918,-640.8612 801.1687,-644.4268 801.2146,-637.4269"/>
<text text-anchor="middle" x="918" y="-643" font-family="Helvetica,sans-Serif" font-size="10.00" fill="#000000"> proxy_data</text>
</g>
<!-- Node20 -->
<g id="node20" class="node">
<title>Node20</title>
<g id="a_node20"><a xlink:href="structJSGeneratorData.html" target="_top" xlink:title="JSGeneratorData">
<polygon fill="none" stroke="#000000" points="707.5,-905.5 707.5,-924.5 799.5,-924.5 799.5,-905.5 707.5,-905.5"/>
<text text-anchor="middle" x="753.5" y="-912.5" font-family="Helvetica,sans-Serif" font-size="10.00" fill="#000000">JSGeneratorData</text>
</a>
</g>
</g>
<!-- Node20&#45;&gt;Node1 -->
<g id="edge33" class="edge">
<title>Node20&#45;&gt;Node1</title>
<path fill="none" stroke="#9a32cd" stroke-dasharray="5,2" d="M809.9112,-917.0181C871.2062,-917.9085 963.6694,-915.0191 988,-891 1017.0075,-862.3639 1031.5777,-555.9645 1034.1009,-497.58"/>
<polygon fill="#9a32cd" stroke="#9a32cd" points="809.6679,-913.5132 799.6053,-916.829 809.5394,-920.512 809.6679,-913.5132"/>
<text text-anchor="middle" x="918" y="-919" font-family="Helvetica,sans-Serif" font-size="10.00" fill="#000000"> generator_data</text>
</g>
<!-- Node21 -->
<g id="node21" class="node">
<title>Node21</title>
<g id="a_node21"><a xlink:href="structJSAsyncFunctionState.html" target="_top" xlink:title="JSAsyncFunctionState">
<polygon fill="none" stroke="#ff0000" points="422.5,-897.5 422.5,-916.5 539.5,-916.5 539.5,-897.5 422.5,-897.5"/>
<text text-anchor="middle" x="481" y="-904.5" font-family="Helvetica,sans-Serif" font-size="10.00" fill="#000000">JSAsyncFunctionState</text>
</a>
</g>
</g>
<!-- Node21&#45;&gt;Node20 -->
<g id="edge34" class="edge">
<title>Node21&#45;&gt;Node20</title>
<path fill="none" stroke="#9a32cd" stroke-dasharray="5,2" d="M550.0631,-909.0275C599.3689,-910.475 664.3323,-912.3822 707.4361,-913.6477"/>
<polygon fill="#9a32cd" stroke="#9a32cd" points="549.8914,-905.5211 539.793,-908.726 549.6859,-912.5181 549.8914,-905.5211"/>
<text text-anchor="middle" x="620" y="-915" font-family="Helvetica,sans-Serif" font-size="10.00" fill="#000000"> func_state</text>
</g>
<!-- Node21&#45;&gt;Node24 -->
<g id="edge39" class="edge">
<title>Node21&#45;&gt;Node24</title>
<path fill="none" stroke="#9a32cd" stroke-dasharray="5,2" d="M536.0893,-918.5178C550.665,-921.4281 566.4045,-924.4487 581,-927 760.0456,-958.2971 806.5343,-977.3453 988,-967 1060.8091,-962.8492 1144.0886,-952.4741 1198.8932,-944.8654"/>
<polygon fill="#9a32cd" stroke="#9a32cd" points="536.707,-915.072 526.2126,-916.5276 535.3242,-921.9341 536.707,-915.072"/>
<text text-anchor="middle" x="918" y="-972" font-family="Helvetica,sans-Serif" font-size="10.00" fill="#000000"> func_state</text>
</g>
<!-- Node21&#45;&gt;Node29 -->
<g id="edge47" class="edge">
<title>Node21&#45;&gt;Node29</title>
<path fill="none" stroke="#9a32cd" stroke-dasharray="5,2" d="M498.7269,-889.9148C516.9136,-871.5817 545.0176,-840.909 563,-810 574.667,-789.9463 570.3573,-781.6156 581,-761 615.6088,-693.9606 631.974,-681.5368 677,-621 700.8853,-588.8866 731.1995,-552.41 745.431,-535.5165"/>
<polygon fill="#9a32cd" stroke="#9a32cd" points="495.784,-887.9033 491.1406,-897.4264 500.7092,-892.8774 495.784,-887.9033"/>
<text text-anchor="middle" x="620" y="-764" font-family="Helvetica,sans-Serif" font-size="10.00" fill="#000000"> func_state</text>
</g>
<!-- Node23&#45;&gt;Node1 -->
<g id="edge35" class="edge">
<title>Node23&#45;&gt;Node1</title>
<path fill="none" stroke="#9a32cd" stroke-dasharray="5,2" d="M669.2078,-43.7439C750.267,-31.6961 910.5895,-21.9996 988,-115 994.0275,-122.2414 1027.0387,-420.12 1033.4287,-478.2303"/>
<polygon fill="#9a32cd" stroke="#9a32cd" points="668.5967,-40.2968 659.2548,-45.2948 669.6745,-47.2133 668.5967,-40.2968"/>
<text text-anchor="middle" x="753.5" y="-46" font-family="Helvetica,sans-Serif" font-size="10.00" fill="#000000"> array_buffer</text>
</g>
<!-- Node24&#45;&gt;Node1 -->
<g id="edge37" class="edge">
<title>Node24&#45;&gt;Node1</title>
<path fill="none" stroke="#9a32cd" stroke-dasharray="5,2" d="M1245.542,-917.9562C1213.1106,-873.7404 1129.7231,-755.5866 1081,-646 1057.0697,-592.1768 1041.5425,-522.6668 1036.39,-497.5677"/>
<polygon fill="#9a32cd" stroke="#9a32cd" points="1242.7362,-920.0485 1251.4914,-926.0149 1248.3678,-915.891 1242.7362,-920.0485"/>
<text text-anchor="middle" x="1131" y="-825" font-family="Helvetica,sans-Serif" font-size="10.00" fill="#000000"> async_generator_data</text>
</g>
<!-- Node25 -->
<g id="node24" class="node">
<title>Node25</title>
<g id="a_node24"><a xlink:href="structJSArrayIteratorData.html" target="_top" xlink:title="JSArrayIteratorData">
<polygon fill="none" stroke="#000000" points="701.5,-393.5 701.5,-412.5 805.5,-412.5 805.5,-393.5 701.5,-393.5"/>
<text text-anchor="middle" x="753.5" y="-400.5" font-family="Helvetica,sans-Serif" font-size="10.00" fill="#000000">JSArrayIteratorData</text>
</a>
</g>
</g>
<!-- Node25&#45;&gt;Node1 -->
<g id="edge41" class="edge">
<title>Node25&#45;&gt;Node1</title>
<path fill="none" stroke="#9a32cd" stroke-dasharray="5,2" d="M815.704,-402.8393C875.0716,-403.6989 959.557,-407.8695 988,-424 1009.7431,-436.3309 1024.0728,-463.4764 1030.5404,-478.1396"/>
<polygon fill="#9a32cd" stroke="#9a32cd" points="815.7087,-399.3392 805.6684,-402.7217 815.6267,-406.3388 815.7087,-399.3392"/>
<text text-anchor="middle" x="918" y="-427" font-family="Helvetica,sans-Serif" font-size="10.00" fill="#000000"> array_iterator_data</text>
</g>
<!-- Node26&#45;&gt;Node1 -->
<g id="edge43" class="edge">
<title>Node26&#45;&gt;Node1</title>
<path fill="none" stroke="#9a32cd" stroke-dasharray="5,2" d="M817.2388,-364.3004C877.1325,-364.8598 961.421,-369.159 988,-388 1018.9274,-409.9235 1029.8305,-457.7546 1033.1835,-478.3028"/>
<polygon fill="#9a32cd" stroke="#9a32cd" points="817.126,-360.7998 807.1049,-364.2388 817.0834,-367.7996 817.126,-360.7998"/>
<text text-anchor="middle" x="918" y="-391" font-family="Helvetica,sans-Serif" font-size="10.00" fill="#000000"> function_bytecode</text>
</g>
<!-- Node29&#45;&gt;Node1 -->
<g id="edge46" class="edge">
<title>Node29&#45;&gt;Node1</title>
<path fill="none" stroke="#9a32cd" stroke-dasharray="5,2" d="M821.382,-522.4815C868.4801,-519.2063 932.4791,-513.0939 988,-502 993.7872,-500.8436 999.8863,-499.2729 1005.6939,-497.6009"/>
<polygon fill="#9a32cd" stroke="#9a32cd" points="821.041,-518.9964 811.2975,-523.1575 821.5092,-525.9807 821.041,-518.9964"/>
<text text-anchor="middle" x="918" y="-523" font-family="Helvetica,sans-Serif" font-size="10.00" fill="#000000"> async_function_data</text>
</g>
<!-- Node30 -->
<g id="node27" class="node">
<title>Node30</title>
<g id="a_node27"><a xlink:href="structJSForInIterator.html" target="_top" xlink:title="JSForInIterator">
<polygon fill="none" stroke="#000000" points="712.5,-279.5 712.5,-298.5 794.5,-298.5 794.5,-279.5 712.5,-279.5"/>
<text text-anchor="middle" x="753.5" y="-286.5" font-family="Helvetica,sans-Serif" font-size="10.00" fill="#000000">JSForInIterator</text>
</a>
</g>
</g>
<!-- Node30&#45;&gt;Node1 -->
<g id="edge50" class="edge">
<title>Node30&#45;&gt;Node1</title>
<path fill="none" stroke="#9a32cd" stroke-dasharray="5,2" d="M804.5834,-291.86C869.3785,-295.9464 974.3828,-304.2791 988,-316 1013.32,-337.794 1029.0165,-445.2598 1033.3035,-478.3108"/>
<polygon fill="#9a32cd" stroke="#9a32cd" points="804.7462,-288.3635 794.5496,-291.2407 804.315,-295.3502 804.7462,-288.3635"/>
<text text-anchor="middle" x="918" y="-319" font-family="Helvetica,sans-Serif" font-size="10.00" fill="#000000"> for_in_iterator</text>
</g>
<!-- Node31&#45;&gt;Node1 -->
<g id="edge51" class="edge">
<title>Node31&#45;&gt;Node1</title>
<path fill="none" stroke="#9a32cd" stroke-dasharray="5,2" d="M1232.6443,-162.7203C1193.3157,-186.0984 1119.757,-235.5296 1081,-298 1043.2244,-358.8885 1036.1304,-448.4801 1034.8036,-478.0957"/>
<polygon fill="#9a32cd" stroke="#9a32cd" points="1234.5345,-165.6697 1241.4076,-157.6068 1231.0065,-159.6238 1234.5345,-165.6697"/>
<text text-anchor="middle" x="1131" y="-301" font-family="Helvetica,sans-Serif" font-size="10.00" fill="#000000"> shape</text>
</g>
<!-- Node31&#45;&gt;Node31 -->
<g id="edge55" class="edge">
<title>Node31&#45;&gt;Node31</title>
<path fill="none" stroke="#9a32cd" stroke-dasharray="5,2" d="M1235.1906,-167.0292C1236.4893,-172.128 1244.4258,-176 1259,-176 1281.75,-176 1288.3262,-166.5653 1278.7285,-157.7571"/>
<polygon fill="#9a32cd" stroke="#9a32cd" points="1238.4465,-168.3197 1239.2715,-157.7571 1232.0396,-165.4998 1238.4465,-168.3197"/>
<text text-anchor="middle" x="1259" y="-179" font-family="Helvetica,sans-Serif" font-size="10.00" fill="#000000"> shape_hash_next</text>
</g>
<!-- Node33&#45;&gt;Node1 -->
<g id="edge56" class="edge">
<title>Node33&#45;&gt;Node1</title>
<path fill="none" stroke="#9a32cd" stroke-dasharray="5,2" d="M813.3983,-802.5824C874.4897,-802.8468 963.6631,-799.06 988,-776 1008.818,-756.2743 1029.1986,-546.0045 1033.6192,-497.8058"/>
<polygon fill="#9a32cd" stroke="#9a32cd" points="813.1237,-799.0801 803.0956,-802.4988 813.0668,-806.0799 813.1237,-799.0801"/>
<text text-anchor="middle" x="918" y="-805" font-family="Helvetica,sans-Serif" font-size="10.00" fill="#000000"> map_iterator_data</text>
</g>
<!-- Node34 -->
<g id="node30" class="node">
<title>Node34</title>
<g id="a_node30"><a xlink:href="structJSCFunctionDataRecord.html" target="_top" xlink:title="JSCFunctionDataRecord">
<polygon fill="none" stroke="#000000" points="690.5,-165.5 690.5,-184.5 816.5,-184.5 816.5,-165.5 690.5,-165.5"/>
<text text-anchor="middle" x="753.5" y="-172.5" font-family="Helvetica,sans-Serif" font-size="10.00" fill="#000000">JSCFunctionDataRecord</text>
</a>
</g>
</g>
<!-- Node34&#45;&gt;Node1 -->
<g id="edge58" class="edge">
<title>Node34&#45;&gt;Node1</title>
<path fill="none" stroke="#9a32cd" stroke-dasharray="5,2" d="M794.9862,-163.0571C846.9958,-150.8727 935.661,-139.7516 988,-187 1010.3232,-207.152 1029.6932,-429.198 1033.7294,-478.3882"/>
<polygon fill="#9a32cd" stroke="#9a32cd" points="793.9687,-159.703 785.0947,-165.4911 795.6414,-166.5002 793.9687,-159.703"/>
<text text-anchor="middle" x="918" y="-190" font-family="Helvetica,sans-Serif" font-size="10.00" fill="#000000"> c_function_data_record</text>
</g>
</g>
</svg>
