<?xml version="1.0" encoding="UTF-8" standalone="no"?>
<!DOCTYPE svg PUBLIC "-//W3C//DTD SVG 1.1//EN"
 "http://www.w3.org/Graphics/SVG/1.1/DTD/svg11.dtd">
<!-- Generated by graphviz version 2.40.1 (20161225.0304)
 -->
<!-- Title: StringBuffer Pages: 1 -->
<!--zoomable 355 -->
<svg id="main" version="1.1" xmlns="http://www.w3.org/2000/svg" xmlns:xlink="http://www.w3.org/1999/xlink" xml:space="preserve" onload="init(evt)">
<style type="text/css"><![CDATA[
.edge:hover path { stroke: red; }
.edge:hover polygon { stroke: red; fill: red; }
]]></style>
<script type="text/javascript"><![CDATA[
var edges = document.getElementsByTagName('g');
if (edges && edges.length) {
  for (var i=0;i<edges.length;i++) {
    if (edges[i].id.substr(0,4)=='edge') {
      edges[i].setAttribute('class','edge');
    }
  }
}
]]></script>
        <defs>
                <circle id="rim" cx="0" cy="0" r="7"/>
                <circle id="rim2" cx="0" cy="0" r="3.5"/>
                <g id="zoomPlus">
                        <use xlink:href="#rim" fill="#404040">
                                <set attributeName="fill" to="#808080" begin="zoomplus.mouseover" end="zoomplus.mouseout"/>
                        </use>
                        <path d="M-4,0h8M0,-4v8" fill="none" stroke="white" stroke-width="1.5" pointer-events="none"/>
                </g>
                <g id="zoomMin">
                        <use xlink:href="#rim" fill="#404040">
                                <set attributeName="fill" to="#808080" begin="zoomminus.mouseover" end="zoomminus.mouseout"/>
                        </use>
                        <path d="M-4,0h8" fill="none" stroke="white" stroke-width="1.5" pointer-events="none"/>
                </g>
                <g id="dirArrow">
                        <path fill="none" stroke="white" stroke-width="1.5" d="M0,-3.0v7 M-2.5,-0.5L0,-3.0L2.5,-0.5"/>
                </g>
               <g id="resetDef">
                       <use xlink:href="#rim2" fill="#404040">
                               <set attributeName="fill" to="#808080" begin="reset.mouseover" end="reset.mouseout"/>
                       </use>
               </g>
        </defs>

<script type="text/javascript">
var viewWidth = 733;
var viewHeight = 355;
var sectionId = 'dynsection-0';
</script>
<script xlink:href="svgpan.js"/>
<svg id="graph" class="graph">
<g id="viewport">
<title>StringBuffer</title>
<!-- Node1 -->
<g id="node1" class="node">
<title>Node1</title>
<polygon fill="#bfbfbf" stroke="#000000" points="464,-.5 464,-19.5 532,-19.5 532,-.5 464,-.5"/>
<text text-anchor="middle" x="498" y="-7.5" font-family="Helvetica,sans-Serif" font-size="10.00" fill="#000000">StringBuffer</text>
</g>
<!-- Node2 -->
<g id="node2" class="node">
<title>Node2</title>
<g id="a_node2"><a xlink:href="structJSString.html" target="_top" xlink:title="JSString">
<polygon fill="none" stroke="#000000" points="671,-259.5 671,-278.5 725,-278.5 725,-259.5 671,-259.5"/>
<text text-anchor="middle" x="698" y="-266.5" font-family="Helvetica,sans-Serif" font-size="10.00" fill="#000000">JSString</text>
</a>
</g>
</g>
<!-- Node2&#45;&gt;Node1 -->
<g id="edge1" class="edge">
<title>Node2&#45;&gt;Node1</title>
<path fill="none" stroke="#9a32cd" stroke-dasharray="5,2" d="M698.9359,-249.3017C699.0466,-229.1809 696.823,-197.6269 684,-174 643.1339,-98.7027 553.4089,-41.37 515.4791,-19.5719"/>
<polygon fill="#9a32cd" stroke="#9a32cd" points="695.4338,-249.3443 698.6753,-259.4311 702.4315,-249.5244 695.4338,-249.3443"/>
<text text-anchor="middle" x="647.5" y="-108" font-family="Helvetica,sans-Serif" font-size="10.00" fill="#000000"> str</text>
</g>
<!-- Node5 -->
<g id="node5" class="node">
<title>Node5</title>
<g id="a_node5"><a xlink:href="structJSRuntime.html" target="_top" xlink:title="JSRuntime">
<polygon fill="none" stroke="#000000" points="377.5,-135.5 377.5,-154.5 442.5,-154.5 442.5,-135.5 377.5,-135.5"/>
<text text-anchor="middle" x="410" y="-142.5" font-family="Helvetica,sans-Serif" font-size="10.00" fill="#000000">JSRuntime</text>
</a>
</g>
</g>
<!-- Node2&#45;&gt;Node5 -->
<g id="edge9" class="edge">
<title>Node2&#45;&gt;Node5</title>
<path fill="none" stroke="#9a32cd" stroke-dasharray="5,2" d="M661.2077,-255.8135C648.5882,-250.6788 636.5017,-244.8706 632,-240 610.9156,-217.188 632.9558,-193.7752 609,-174 584.2964,-153.6074 492.762,-147.5494 442.8976,-145.7536"/>
<polygon fill="#9a32cd" stroke="#9a32cd" points="660.257,-259.1998 670.845,-259.5821 662.8064,-252.6805 660.257,-259.1998"/>
<text text-anchor="middle" x="658" y="-204.5" font-family="Helvetica,sans-Serif" font-size="10.00" fill="#000000"> atom_array</text>
</g>
<!-- Node3 -->
<g id="node3" class="node">
<title>Node3</title>
<g id="a_node3"><a xlink:href="structJSRefCountHeader.html" target="_top" xlink:title="JSRefCountHeader">
<polygon fill="none" stroke="#000000" points="417,-327.5 417,-346.5 519,-346.5 519,-327.5 417,-327.5"/>
<text text-anchor="middle" x="468" y="-334.5" font-family="Helvetica,sans-Serif" font-size="10.00" fill="#000000">JSRefCountHeader</text>
</a>
</g>
</g>
<!-- Node3&#45;&gt;Node2 -->
<g id="edge2" class="edge">
<title>Node3&#45;&gt;Node2</title>
<path fill="none" stroke="#9a32cd" stroke-dasharray="5,2" d="M510.7704,-324.577C550.1054,-313.1177 610.0309,-295.5739 662,-280 664.8797,-279.137 667.8868,-278.229 670.8827,-277.32"/>
<polygon fill="#9a32cd" stroke="#9a32cd" points="509.608,-321.27 500.985,-327.4259 511.5648,-327.9909 509.608,-321.27"/>
<text text-anchor="middle" x="614.5" y="-301" font-family="Helvetica,sans-Serif" font-size="10.00" fill="#000000"> header</text>
</g>
<!-- Node9 -->
<g id="node9" class="node">
<title>Node9</title>
<g id="a_node9"><a xlink:href="structJSShape.html" target="_top" xlink:title="JSShape">
<polygon fill="none" stroke="#ff0000" points="211,-259.5 211,-278.5 267,-278.5 267,-259.5 211,-259.5"/>
<text text-anchor="middle" x="239" y="-266.5" font-family="Helvetica,sans-Serif" font-size="10.00" fill="#000000">JSShape</text>
</a>
</g>
</g>
<!-- Node3&#45;&gt;Node9 -->
<g id="edge11" class="edge">
<title>Node3&#45;&gt;Node9</title>
<path fill="none" stroke="#9a32cd" stroke-dasharray="5,2" d="M425.9688,-324.5191C379.8073,-310.8118 306.9646,-289.1816 267.1991,-277.3735"/>
<polygon fill="#9a32cd" stroke="#9a32cd" points="425.093,-327.91 435.6756,-327.4015 427.0856,-321.1996 425.093,-327.91"/>
<text text-anchor="middle" x="384.5" y="-301" font-family="Helvetica,sans-Serif" font-size="10.00" fill="#000000"> header</text>
</g>
<!-- Node4 -->
<g id="node4" class="node">
<title>Node4</title>
<g id="a_node4"><a xlink:href="structJSContext.html" target="_top" xlink:title="JSContext">
<polygon fill="none" stroke="#000000" points="266.5,-67.5 266.5,-86.5 329.5,-86.5 329.5,-67.5 266.5,-67.5"/>
<text text-anchor="middle" x="298" y="-74.5" font-family="Helvetica,sans-Serif" font-size="10.00" fill="#000000">JSContext</text>
</a>
</g>
</g>
<!-- Node4&#45;&gt;Node1 -->
<g id="edge3" class="edge">
<title>Node4&#45;&gt;Node1</title>
<path fill="none" stroke="#9a32cd" stroke-dasharray="5,2" d="M336.5595,-64.0826C375.4296,-51.0611 434.5215,-31.2653 469.398,-19.5817"/>
<polygon fill="#9a32cd" stroke="#9a32cd" points="335.0254,-60.9052 326.6551,-67.4005 337.249,-67.5427 335.0254,-60.9052"/>
<text text-anchor="middle" x="417.5" y="-41" font-family="Helvetica,sans-Serif" font-size="10.00" fill="#000000"> ctx</text>
</g>
<!-- Node5&#45;&gt;Node4 -->
<g id="edge4" class="edge">
<title>Node5&#45;&gt;Node4</title>
<path fill="none" stroke="#9a32cd" stroke-dasharray="5,2" d="M385.2253,-129.9582C363.38,-116.695 332.2166,-97.7744 313.656,-86.5054"/>
<polygon fill="#9a32cd" stroke="#9a32cd" points="383.5888,-133.0592 393.9531,-135.2573 387.2217,-127.0757 383.5888,-133.0592"/>
<text text-anchor="middle" x="366" y="-108" font-family="Helvetica,sans-Serif" font-size="10.00" fill="#000000"> rt</text>
</g>
<!-- Node6 -->
<g id="node6" class="node">
<title>Node6</title>
<g id="a_node6"><a xlink:href="structlist__head.html" target="_top" xlink:title="list_head">
<polygon fill="none" stroke="#000000" points="97,-259.5 97,-278.5 153,-278.5 153,-259.5 97,-259.5"/>
<text text-anchor="middle" x="125" y="-266.5" font-family="Helvetica,sans-Serif" font-size="10.00" fill="#000000">list_head</text>
</a>
</g>
</g>
<!-- Node6&#45;&gt;Node4 -->
<g id="edge14" class="edge">
<title>Node6&#45;&gt;Node4</title>
<path fill="none" stroke="#9a32cd" stroke-dasharray="5,2" d="M147.2064,-253.0619C152.0329,-249.0818 156.912,-244.621 161,-240 197.9283,-198.257 190.7549,-175.4605 228,-134 245.0716,-114.9963 268.7823,-97.0842 283.7567,-86.5779"/>
<polygon fill="#9a32cd" stroke="#9a32cd" points="145.0098,-250.3364 139.2824,-259.2497 149.3182,-255.8535 145.0098,-250.3364"/>
<text text-anchor="middle" x="265" y="-148" font-family="Helvetica,sans-Serif" font-size="10.00" fill="#000000"> loaded_modules</text>
<text text-anchor="middle" x="265" y="-137" font-family="Helvetica,sans-Serif" font-size="10.00" fill="#000000">link</text>
</g>
<!-- Node6&#45;&gt;Node5 -->
<g id="edge5" class="edge">
<title>Node6&#45;&gt;Node5</title>
<path fill="none" stroke="#9a32cd" stroke-dasharray="5,2" d="M163.02,-259.3932C176.1846,-254.8916 190.5071,-248.5807 202,-240 231.4882,-217.9837 220.5226,-193.0643 252,-174 293.2483,-149.0179 311.64,-165.0861 359,-156 364.96,-154.8566 371.2937,-153.5582 377.3971,-152.2643"/>
<polygon fill="#9a32cd" stroke="#9a32cd" points="161.7205,-256.1334 153.2448,-262.4905 163.8349,-262.8064 161.7205,-256.1334"/>
<text text-anchor="middle" x="278.5" y="-232" font-family="Helvetica,sans-Serif" font-size="10.00" fill="#000000"> job_list</text>
<text text-anchor="middle" x="278.5" y="-221" font-family="Helvetica,sans-Serif" font-size="10.00" fill="#000000">el_next</text>
<text text-anchor="middle" x="278.5" y="-210" font-family="Helvetica,sans-Serif" font-size="10.00" fill="#000000">tmp_obj_list</text>
<text text-anchor="middle" x="278.5" y="-199" font-family="Helvetica,sans-Serif" font-size="10.00" fill="#000000">free_obj_list</text>
<text text-anchor="middle" x="278.5" y="-188" font-family="Helvetica,sans-Serif" font-size="10.00" fill="#000000">obj_list</text>
<text text-anchor="middle" x="278.5" y="-177" font-family="Helvetica,sans-Serif" font-size="10.00" fill="#000000">context_list</text>
</g>
<!-- Node6&#45;&gt;Node6 -->
<g id="edge6" class="edge">
<title>Node6&#45;&gt;Node6</title>
<path fill="none" stroke="#9a32cd" stroke-dasharray="5,2" d="M163.5533,-274.4491C168.0634,-273.4467 171,-271.6303 171,-269 171,-264.6836 163.0919,-262.5591 153.2994,-262.6266"/>
<polygon fill="#9a32cd" stroke="#9a32cd" points="162.9447,-270.9897 153.2994,-275.3734 163.5733,-277.9614 162.9447,-270.9897"/>
<text text-anchor="middle" x="182" y="-272" font-family="Helvetica,sans-Serif" font-size="10.00" fill="#000000"> prev</text>
<text text-anchor="middle" x="182" y="-261" font-family="Helvetica,sans-Serif" font-size="10.00" fill="#000000">next</text>
</g>
<!-- Node28 -->
<g id="node11" class="node">
<title>Node28</title>
<g id="a_node11"><a xlink:href="structJSStackFrame.html" target="_top" xlink:title="JSStackFrame">
<polygon fill="none" stroke="#000000" points="0,-135.5 0,-154.5 82,-154.5 82,-135.5 0,-135.5"/>
<text text-anchor="middle" x="41" y="-142.5" font-family="Helvetica,sans-Serif" font-size="10.00" fill="#000000">JSStackFrame</text>
</a>
</g>
</g>
<!-- Node6&#45;&gt;Node28 -->
<g id="edge17" class="edge">
<title>Node6&#45;&gt;Node28</title>
<path fill="none" stroke="#9a32cd" stroke-dasharray="5,2" d="M112.7028,-250.847C94.6444,-224.1893 61.5794,-175.3792 47.5607,-154.6849"/>
<polygon fill="#9a32cd" stroke="#9a32cd" points="109.9024,-252.9537 118.4087,-259.2699 115.6979,-249.0277 109.9024,-252.9537"/>
<text text-anchor="middle" x="131" y="-204.5" font-family="Helvetica,sans-Serif" font-size="10.00" fill="#000000"> var_ref_list</text>
</g>
<!-- Node7 -->
<g id="node7" class="node">
<title>Node7</title>
<g id="a_node7"><a xlink:href="structJSMallocState.html" target="_top" xlink:title="JSMallocState">
<polygon fill="none" stroke="#000000" points="455,-259.5 455,-278.5 535,-278.5 535,-259.5 455,-259.5"/>
<text text-anchor="middle" x="495" y="-266.5" font-family="Helvetica,sans-Serif" font-size="10.00" fill="#000000">JSMallocState</text>
</a>
</g>
</g>
<!-- Node7&#45;&gt;Node5 -->
<g id="edge7" class="edge">
<title>Node7&#45;&gt;Node5</title>
<path fill="none" stroke="#9a32cd" stroke-dasharray="5,2" d="M493.9857,-249.2801C491.9545,-228.4243 485.9091,-195.6097 468,-174 460.8163,-165.3319 450.3947,-159.0107 440.3611,-154.5255"/>
<polygon fill="#9a32cd" stroke="#9a32cd" points="490.5132,-249.7788 494.751,-259.4891 497.4936,-249.2554 490.5132,-249.7788"/>
<text text-anchor="middle" x="521.5" y="-204.5" font-family="Helvetica,sans-Serif" font-size="10.00" fill="#000000"> malloc_state</text>
</g>
<!-- Node8 -->
<g id="node8" class="node">
<title>Node8</title>
<g id="a_node8"><a xlink:href="structJSMallocFunctions.html" target="_top" xlink:title="JSMallocFunctions">
<polygon fill="none" stroke="#000000" points="553,-259.5 553,-278.5 653,-278.5 653,-259.5 553,-259.5"/>
<text text-anchor="middle" x="603" y="-266.5" font-family="Helvetica,sans-Serif" font-size="10.00" fill="#000000">JSMallocFunctions</text>
</a>
</g>
</g>
<!-- Node8&#45;&gt;Node5 -->
<g id="edge8" class="edge">
<title>Node8&#45;&gt;Node5</title>
<path fill="none" stroke="#9a32cd" stroke-dasharray="5,2" d="M595.6382,-249.7972C585.752,-224.9959 567.9345,-183.8364 555,-174 537.6817,-160.8299 479.7303,-152.3866 442.545,-148.1844"/>
<polygon fill="#9a32cd" stroke="#9a32cd" points="592.448,-251.2495 599.3522,-259.2859 598.9665,-248.698 592.448,-251.2495"/>
<text text-anchor="middle" x="598.5" y="-204.5" font-family="Helvetica,sans-Serif" font-size="10.00" fill="#000000"> mf</text>
</g>
<!-- Node9&#45;&gt;Node4 -->
<g id="edge15" class="edge">
<title>Node9&#45;&gt;Node4</title>
<path fill="none" stroke="#9a32cd" stroke-dasharray="5,2" d="M270.5311,-254.0729C275.8195,-250.2086 280.6648,-245.5387 284,-240 314.4757,-189.3895 304.6706,-113.4156 299.9222,-86.7047"/>
<polygon fill="#9a32cd" stroke="#9a32cd" points="268.5699,-251.1722 262.0092,-259.4914 272.3258,-257.0793 268.5699,-251.1722"/>
<text text-anchor="middle" x="334.5" y="-142.5" font-family="Helvetica,sans-Serif" font-size="10.00" fill="#000000"> array_shape</text>
</g>
<!-- Node9&#45;&gt;Node5 -->
<g id="edge10" class="edge">
<title>Node9&#45;&gt;Node5</title>
<path fill="none" stroke="#9a32cd" stroke-dasharray="5,2" d="M276.7225,-258.3031C287.9328,-253.8849 299.6924,-247.901 309,-240 335.3262,-217.6522 324.3267,-197.0949 350,-174 359.2036,-165.7208 371.1954,-159.2962 382.0368,-154.6223"/>
<polygon fill="#9a32cd" stroke="#9a32cd" points="275.299,-255.0961 267.088,-261.7916 277.6822,-261.678 275.299,-255.0961"/>
<text text-anchor="middle" x="378" y="-204.5" font-family="Helvetica,sans-Serif" font-size="10.00" fill="#000000"> shape_hash</text>
</g>
<!-- Node9&#45;&gt;Node9 -->
<g id="edge12" class="edge">
<title>Node9&#45;&gt;Node9</title>
<path fill="none" stroke="#9a32cd" stroke-dasharray="5,2" d="M277.5533,-274.4491C282.0634,-273.4467 285,-271.6303 285,-269 285,-264.6836 277.0919,-262.5591 267.2994,-262.6266"/>
<polygon fill="#9a32cd" stroke="#9a32cd" points="276.9447,-270.9897 267.2994,-275.3734 277.5733,-277.9614 276.9447,-270.9897"/>
<text text-anchor="middle" x="325" y="-266.5" font-family="Helvetica,sans-Serif" font-size="10.00" fill="#000000"> shape_hash_next</text>
</g>
<!-- Node40 -->
<g id="node10" class="node">
<title>Node40</title>
<g id="a_node10"><a xlink:href="structJSClass.html" target="_top" xlink:title="JSClass">
<polygon fill="none" stroke="#ff0000" points="383,-259.5 383,-278.5 437,-278.5 437,-259.5 383,-259.5"/>
<text text-anchor="middle" x="410" y="-266.5" font-family="Helvetica,sans-Serif" font-size="10.00" fill="#000000">JSClass</text>
</a>
</g>
</g>
<!-- Node40&#45;&gt;Node5 -->
<g id="edge13" class="edge">
<title>Node40&#45;&gt;Node5</title>
<path fill="none" stroke="#9a32cd" stroke-dasharray="5,2" d="M410,-249.0697C410,-222.0713 410,-174.9273 410,-154.6849"/>
<polygon fill="#9a32cd" stroke="#9a32cd" points="406.5001,-249.2699 410,-259.2699 413.5001,-249.27 406.5001,-249.2699"/>
<text text-anchor="middle" x="437" y="-204.5" font-family="Helvetica,sans-Serif" font-size="10.00" fill="#000000"> class_array</text>
</g>
<!-- Node28&#45;&gt;Node4 -->
<g id="edge16" class="edge">
<title>Node28&#45;&gt;Node4</title>
<path fill="none" stroke="#9a32cd" stroke-dasharray="5,2" d="M54.139,-127.2721C61.1705,-119.1233 70.5337,-110.1446 81,-105 112.8743,-89.3323 213.9701,-81.6138 266.1515,-78.5912"/>
<polygon fill="#9a32cd" stroke="#9a32cd" points="51.2477,-125.2824 47.707,-135.2681 56.7021,-129.6699 51.2477,-125.2824"/>
<text text-anchor="middle" x="127.5" y="-108" font-family="Helvetica,sans-Serif" font-size="10.00" fill="#000000"> current_stack_frame</text>
</g>
<!-- Node28&#45;&gt;Node28 -->
<g id="edge18" class="edge">
<title>Node28&#45;&gt;Node28</title>
<path fill="none" stroke="#9a32cd" stroke-dasharray="5,2" d="M92.2579,-150.0941C97.0064,-149.043 100,-147.345 100,-145 100,-141.248 92.3363,-139.1522 82.0831,-138.7125"/>
<polygon fill="#9a32cd" stroke="#9a32cd" points="91.6073,-146.6464 82.0831,-151.2875 92.4228,-153.5987 91.6073,-146.6464"/>
<text text-anchor="middle" x="126" y="-142.5" font-family="Helvetica,sans-Serif" font-size="10.00" fill="#000000"> prev_frame</text>
</g>
</g>
</svg>
        <g id="navigator" transform="translate(0 0)" fill="#404254">
                <rect fill="#f2f5e9" fill-opacity="0.5" stroke="#606060" stroke-width=".5" x="0" y="0" width="60" height="60"/>
                <use id="zoomplus" xlink:href="#zoomPlus" x="17" y="9" onmousedown="handleZoom(evt,'in')"/>
                <use id="zoomminus" xlink:href="#zoomMin" x="42" y="9" onmousedown="handleZoom(evt,'out')"/>
                <use id="reset" xlink:href="#resetDef" x="30" y="36" onmousedown="handleReset()"/>
                <g id="arrowUp" xlink:href="#dirArrow" transform="translate(30 24)" onmousedown="handlePan(0,-1)">
                  <use xlink:href="#rim" fill="#404040">
                        <set attributeName="fill" to="#808080" begin="arrowUp.mouseover" end="arrowUp.mouseout"/>
                  </use>
                  <path fill="none" stroke="white" stroke-width="1.5" d="M0,-3.0v7 M-2.5,-0.5L0,-3.0L2.5,-0.5"/>
                </g>
                <g id="arrowRight" xlink:href="#dirArrow" transform="rotate(90) translate(36 -43)" onmousedown="handlePan(1,0)">
                  <use xlink:href="#rim" fill="#404040">
                        <set attributeName="fill" to="#808080" begin="arrowRight.mouseover" end="arrowRight.mouseout"/>
                  </use>
                  <path fill="none" stroke="white" stroke-width="1.5" d="M0,-3.0v7 M-2.5,-0.5L0,-3.0L2.5,-0.5"/>
                </g>
                <g id="arrowDown" xlink:href="#dirArrow" transform="rotate(180) translate(-30 -48)" onmousedown="handlePan(0,1)">
                  <use xlink:href="#rim" fill="#404040">
                        <set attributeName="fill" to="#808080" begin="arrowDown.mouseover" end="arrowDown.mouseout"/>
                  </use>
                  <path fill="none" stroke="white" stroke-width="1.5" d="M0,-3.0v7 M-2.5,-0.5L0,-3.0L2.5,-0.5"/>
                </g>
                <g id="arrowLeft" xlink:href="#dirArrow" transform="rotate(270) translate(-36 17)" onmousedown="handlePan(-1,0)">
                  <use xlink:href="#rim" fill="#404040">
                        <set attributeName="fill" to="#808080" begin="arrowLeft.mouseover" end="arrowLeft.mouseout"/>
                  </use>
                  <path fill="none" stroke="white" stroke-width="1.5" d="M0,-3.0v7 M-2.5,-0.5L0,-3.0L2.5,-0.5"/>
                </g>
        </g>
        <svg viewBox="0 0 15 15" width="100%" height="30px" preserveAspectRatio="xMaxYMin meet">
         <g id="arrow_out" transform="scale(0.3 0.3)">
          <a xlink:href="structStringBuffer__coll__graph_org.svg" target="_base">
           <rect id="button" ry="5" rx="5" y="6" x="6" height="38" width="38"
                fill="#f2f5e9" fill-opacity="0.5" stroke="#606060" stroke-width="1.0"/>
           <path id="arrow"
             d="M 11.500037,31.436501 C 11.940474,20.09759 22.043105,11.32322 32.158766,21.979434 L 37.068811,17.246167 C 37.068811,17.246167 37.088388,32 37.088388,32 L 22.160133,31.978069 C 22.160133,31.978069 26.997745,27.140456 26.997745,27.140456 C 18.528582,18.264221 13.291696,25.230495 11.500037,31.436501 z"
             style="fill:#404040;"/>
          </a>
         </g>
        </svg>
</svg>
