<?xml version="1.0" encoding="UTF-8" standalone="no"?>
<!DOCTYPE svg PUBLIC "-//W3C//DTD SVG 1.1//EN"
 "http://www.w3.org/Graphics/SVG/1.1/DTD/svg11.dtd">
<!-- Generated by graphviz version 2.40.1 (20161225.0304)
 -->
<!-- Title: ExportedNameEntry Pages: 1 -->
<svg width="850pt" height="198pt"
 viewBox="0.00 0.00 850.00 198.00" xmlns="http://www.w3.org/2000/svg" xmlns:xlink="http://www.w3.org/1999/xlink">
<g id="graph0" class="graph" transform="scale(1 1) rotate(0) translate(4 194)">
<title>ExportedNameEntry</title>
<!-- Node1 -->
<g id="node1" class="node">
<title>Node1</title>
<polygon fill="#bfbfbf" stroke="#000000" points="737,-149.5 737,-168.5 842,-168.5 842,-149.5 737,-149.5"/>
<text text-anchor="middle" x="789.5" y="-156.5" font-family="Helvetica,sans-Serif" font-size="10.00" fill="#000000">ExportedNameEntry</text>
</g>
<!-- Node2 -->
<g id="node2" class="node">
<title>Node2</title>
<g id="a_node2"><a xlink:href="structJSVarRef.html" target="_top" xlink:title="JSVarRef">
<polygon fill="none" stroke="#000000" points="187,-142.5 187,-161.5 246,-161.5 246,-142.5 187,-142.5"/>
<text text-anchor="middle" x="216.5" y="-149.5" font-family="Helvetica,sans-Serif" font-size="10.00" fill="#000000">JSVarRef</text>
</a>
</g>
</g>
<!-- Node2&#45;&gt;Node1 -->
<g id="edge1" class="edge">
<title>Node2&#45;&gt;Node1</title>
<path fill="none" stroke="#9a32cd" stroke-dasharray="5,2" d="M252.7011,-164.3648C256.4863,-165.3767 260.3015,-166.2836 264,-167 286.7564,-171.4078 292.8377,-170.1105 316,-171 494.9792,-177.8737 540.5249,-186.0809 719,-171 725.8043,-170.425 732.9391,-169.5432 739.9482,-168.513"/>
<polygon fill="#9a32cd" stroke="#9a32cd" points="253.4325,-160.9326 242.8529,-161.5 251.4772,-167.654 253.4325,-160.9326"/>
<text text-anchor="middle" x="475.5" y="-182" font-family="Helvetica,sans-Serif" font-size="10.00" fill="#000000"> var_ref</text>
</g>
<!-- Node10 -->
<g id="node10" class="node">
<title>Node10</title>
<g id="a_node10"><a xlink:href="structJSExportEntry.html" target="_top" xlink:title="JSExportEntry">
<polygon fill="none" stroke="#000000" points="325,-142.5 325,-161.5 405,-161.5 405,-142.5 325,-142.5"/>
<text text-anchor="middle" x="365" y="-149.5" font-family="Helvetica,sans-Serif" font-size="10.00" fill="#000000">JSExportEntry</text>
</a>
</g>
</g>
<!-- Node2&#45;&gt;Node10 -->
<g id="edge14" class="edge">
<title>Node2&#45;&gt;Node10</title>
<path fill="none" stroke="#9a32cd" stroke-dasharray="5,2" d="M256.2043,-152C277.4781,-152 303.6209,-152 324.9475,-152"/>
<polygon fill="#9a32cd" stroke="#9a32cd" points="256.1943,-148.5001 246.1943,-152 256.1942,-155.5001 256.1943,-148.5001"/>
<text text-anchor="middle" x="281" y="-155" font-family="Helvetica,sans-Serif" font-size="10.00" fill="#000000"> var_ref</text>
</g>
<!-- Node3 -->
<g id="node3" class="node">
<title>Node3</title>
<g id="a_node3"><a xlink:href="structlist__head.html" target="_top" xlink:title="list_head">
<polygon fill="none" stroke="#000000" points="23,-.5 23,-19.5 79,-19.5 79,-.5 23,-.5"/>
<text text-anchor="middle" x="51" y="-7.5" font-family="Helvetica,sans-Serif" font-size="10.00" fill="#000000">list_head</text>
</a>
</g>
</g>
<!-- Node3&#45;&gt;Node2 -->
<g id="edge2" class="edge">
<title>Node3&#45;&gt;Node2</title>
<path fill="none" stroke="#9a32cd" stroke-dasharray="5,2" d="M70.0582,-26.3521C104.6817,-56.0592 176.9212,-118.0411 204.9948,-142.1285"/>
<polygon fill="#9a32cd" stroke="#9a32cd" points="71.9844,-23.393 62.1159,-19.5375 67.4262,-28.7055 71.9844,-23.393"/>
<text text-anchor="middle" x="144.5" y="-113" font-family="Helvetica,sans-Serif" font-size="10.00" fill="#000000"> link</text>
</g>
<!-- Node3&#45;&gt;Node3 -->
<g id="edge3" class="edge">
<title>Node3&#45;&gt;Node3</title>
<path fill="none" stroke="#9a32cd" stroke-dasharray="5,2" d="M33.9638,-29.4C35.1015,-34.3146 40.7803,-38 51,-38 67.3516,-38 72.0782,-28.5653 65.1799,-19.7571"/>
<polygon fill="#9a32cd" stroke="#9a32cd" points="37.3358,-30.3393 36.8201,-19.7571 30.6241,-28.3512 37.3358,-30.3393"/>
<text text-anchor="middle" x="51" y="-52" font-family="Helvetica,sans-Serif" font-size="10.00" fill="#000000"> prev</text>
<text text-anchor="middle" x="51" y="-41" font-family="Helvetica,sans-Serif" font-size="10.00" fill="#000000">next</text>
</g>
<!-- Node6 -->
<g id="node6" class="node">
<title>Node6</title>
<g id="a_node6"><a xlink:href="structJSModuleDef.html" target="_top" xlink:title="JSModuleDef">
<polygon fill="none" stroke="#000000" points="537,-61.5 537,-80.5 613,-80.5 613,-61.5 537,-61.5"/>
<text text-anchor="middle" x="575" y="-68.5" font-family="Helvetica,sans-Serif" font-size="10.00" fill="#000000">JSModuleDef</text>
</a>
</g>
</g>
<!-- Node3&#45;&gt;Node6 -->
<g id="edge7" class="edge">
<title>Node3&#45;&gt;Node6</title>
<path fill="none" stroke="#9a32cd" stroke-dasharray="5,2" d="M89.3712,-7.3246C155.7778,-3.3141 296.3201,2.4421 414,-11 461.5609,-16.4327 474.8719,-16.4456 519,-35 535.1946,-41.8093 551.9003,-53.224 562.801,-61.3746"/>
<polygon fill="#9a32cd" stroke="#9a32cd" points="89.1269,-3.8329 79.3647,-7.95 89.5636,-10.8193 89.1269,-3.8329"/>
<text text-anchor="middle" x="281" y="-7" font-family="Helvetica,sans-Serif" font-size="10.00" fill="#000000"> link</text>
</g>
<!-- Node4 -->
<g id="node4" class="node">
<title>Node4</title>
<g id="a_node4"><a xlink:href="structJSRefCountHeader.html" target="_top" xlink:title="JSRefCountHeader">
<polygon fill="none" stroke="#000000" points="0,-110.5 0,-129.5 102,-129.5 102,-110.5 0,-110.5"/>
<text text-anchor="middle" x="51" y="-117.5" font-family="Helvetica,sans-Serif" font-size="10.00" fill="#000000">JSRefCountHeader</text>
</a>
</g>
</g>
<!-- Node4&#45;&gt;Node2 -->
<g id="edge4" class="edge">
<title>Node4&#45;&gt;Node2</title>
<path fill="none" stroke="#9a32cd" stroke-dasharray="5,2" d="M110.3537,-131.4763C136.3452,-136.5018 165.6918,-142.1761 186.9298,-146.2825"/>
<polygon fill="#9a32cd" stroke="#9a32cd" points="110.69,-127.9765 100.2074,-129.5144 109.3611,-134.8492 110.69,-127.9765"/>
<text text-anchor="middle" x="144.5" y="-145" font-family="Helvetica,sans-Serif" font-size="10.00" fill="#000000"> header</text>
</g>
<!-- Node4&#45;&gt;Node6 -->
<g id="edge8" class="edge">
<title>Node4&#45;&gt;Node6</title>
<path fill="none" stroke="#9a32cd" stroke-dasharray="5,2" d="M112.2374,-118.7404C202.0045,-116.1449 374.3554,-108.3149 519,-85 526.1235,-83.8518 533.6697,-82.242 540.8374,-80.5211"/>
<polygon fill="#9a32cd" stroke="#9a32cd" points="112.132,-115.2418 102.2329,-119.0177 112.3261,-122.2391 112.132,-115.2418"/>
<text text-anchor="middle" x="281" y="-114" font-family="Helvetica,sans-Serif" font-size="10.00" fill="#000000"> header</text>
</g>
<!-- Node5 -->
<g id="node5" class="node">
<title>Node5</title>
<g id="a_node5"><a xlink:href="structJSGCHeader.html" target="_top" xlink:title="JSGCHeader">
<polygon fill="none" stroke="#000000" points="13.5,-163.5 13.5,-182.5 88.5,-182.5 88.5,-163.5 13.5,-163.5"/>
<text text-anchor="middle" x="51" y="-170.5" font-family="Helvetica,sans-Serif" font-size="10.00" fill="#000000">JSGCHeader</text>
</a>
</g>
</g>
<!-- Node5&#45;&gt;Node2 -->
<g id="edge5" class="edge">
<title>Node5&#45;&gt;Node2</title>
<path fill="none" stroke="#9a32cd" stroke-dasharray="5,2" d="M98.6892,-166.9488C127.1175,-163.3416 162.3189,-158.8749 186.8045,-155.768"/>
<polygon fill="#9a32cd" stroke="#9a32cd" points="98.0344,-163.5037 88.5545,-168.2348 98.9156,-170.4481 98.0344,-163.5037"/>
<text text-anchor="middle" x="144.5" y="-166" font-family="Helvetica,sans-Serif" font-size="10.00" fill="#000000"> gc_header</text>
</g>
<!-- Node6&#45;&gt;Node1 -->
<g id="edge6" class="edge">
<title>Node6&#45;&gt;Node1</title>
<path fill="none" stroke="#9a32cd" stroke-dasharray="5,2" d="M607.6896,-84.4111C651.4021,-102.3444 727.8245,-133.6972 766.1652,-149.4268"/>
<polygon fill="#9a32cd" stroke="#9a32cd" points="608.9438,-81.1426 598.3636,-80.5851 606.2868,-87.6188 608.9438,-81.1426"/>
<text text-anchor="middle" x="675" y="-131" font-family="Helvetica,sans-Serif" font-size="10.00" fill="#000000"> module</text>
</g>
<!-- Node8 -->
<g id="node8" class="node">
<title>Node8</title>
<g id="a_node8"><a xlink:href="structJSReqModuleEntry.html" target="_top" xlink:title="JSReqModuleEntry">
<polygon fill="none" stroke="#000000" points="739,-54.5 739,-73.5 840,-73.5 840,-54.5 739,-54.5"/>
<text text-anchor="middle" x="789.5" y="-61.5" font-family="Helvetica,sans-Serif" font-size="10.00" fill="#000000">JSReqModuleEntry</text>
</a>
</g>
</g>
<!-- Node6&#45;&gt;Node8 -->
<g id="edge11" class="edge">
<title>Node6&#45;&gt;Node8</title>
<path fill="none" stroke="#9a32cd" stroke-dasharray="5,2" d="M605.746,-57.8924C613.8156,-55.0455 622.6111,-52.4531 631,-51 669.3586,-44.3558 713.5453,-48.9743 745.5037,-54.4645"/>
<polygon fill="#9a32cd" stroke="#9a32cd" points="604.466,-54.6344 596.339,-61.4317 606.931,-61.186 604.466,-54.6344"/>
<text text-anchor="middle" x="675" y="-54" font-family="Helvetica,sans-Serif" font-size="10.00" fill="#000000"> module</text>
</g>
<!-- Node7 -->
<g id="node7" class="node">
<title>Node7</title>
<g id="a_node7"><a xlink:href="structJSStarExportEntry.html" target="_top" xlink:title="JSStarExportEntry">
<polygon fill="none" stroke="#000000" points="316,-58.5 316,-77.5 414,-77.5 414,-58.5 316,-58.5"/>
<text text-anchor="middle" x="365" y="-65.5" font-family="Helvetica,sans-Serif" font-size="10.00" fill="#000000">JSStarExportEntry</text>
</a>
</g>
</g>
<!-- Node7&#45;&gt;Node6 -->
<g id="edge9" class="edge">
<title>Node7&#45;&gt;Node6</title>
<path fill="none" stroke="#9a32cd" stroke-dasharray="5,2" d="M424.6338,-68.8519C460.6914,-69.367 505.5858,-70.0084 536.8897,-70.4556"/>
<polygon fill="#9a32cd" stroke="#9a32cd" points="424.2847,-65.3467 414.2357,-68.7034 424.1846,-72.3459 424.2847,-65.3467"/>
<text text-anchor="middle" x="475.5" y="-73" font-family="Helvetica,sans-Serif" font-size="10.00" fill="#000000"> star_export_entries</text>
</g>
<!-- Node8&#45;&gt;Node6 -->
<g id="edge10" class="edge">
<title>Node8&#45;&gt;Node6</title>
<path fill="none" stroke="#9a32cd" stroke-dasharray="5,2" d="M728.7779,-65.9816C691.693,-67.1918 645.4013,-68.7025 613.3483,-69.7485"/>
<polygon fill="#9a32cd" stroke="#9a32cd" points="729.0937,-69.4733 738.9742,-65.6489 728.8653,-62.477 729.0937,-69.4733"/>
<text text-anchor="middle" x="675" y="-72" font-family="Helvetica,sans-Serif" font-size="10.00" fill="#000000"> req_module_entries</text>
</g>
<!-- Node9 -->
<g id="node9" class="node">
<title>Node9</title>
<g id="a_node9"><a xlink:href="structJSImportEntry.html" target="_top" xlink:title="JSImportEntry">
<polygon fill="none" stroke="#000000" points="325,-20.5 325,-39.5 405,-39.5 405,-20.5 325,-20.5"/>
<text text-anchor="middle" x="365" y="-27.5" font-family="Helvetica,sans-Serif" font-size="10.00" fill="#000000">JSImportEntry</text>
</a>
</g>
</g>
<!-- Node9&#45;&gt;Node6 -->
<g id="edge12" class="edge">
<title>Node9&#45;&gt;Node6</title>
<path fill="none" stroke="#9a32cd" stroke-dasharray="5,2" d="M415.531,-35.4429C445.7787,-39.2212 484.8571,-45.0191 519,-53 528.7452,-55.2779 539.2357,-58.4496 548.4729,-61.497"/>
<polygon fill="#9a32cd" stroke="#9a32cd" points="415.5721,-31.9222 405.2229,-34.1904 414.7277,-38.8711 415.5721,-31.9222"/>
<text text-anchor="middle" x="475.5" y="-56" font-family="Helvetica,sans-Serif" font-size="10.00" fill="#000000"> import_entries</text>
</g>
<!-- Node10&#45;&gt;Node1 -->
<g id="edge15" class="edge">
<title>Node10&#45;&gt;Node1</title>
<path fill="none" stroke="#9a32cd" stroke-dasharray="5,2" d="M415.7621,-152.8371C496.8517,-154.1742 654.8212,-156.7791 736.9964,-158.1342"/>
<polygon fill="#9a32cd" stroke="#9a32cd" points="415.375,-149.3303 405.3186,-152.6649 415.2595,-156.3293 415.375,-149.3303"/>
<text text-anchor="middle" x="575" y="-159" font-family="Helvetica,sans-Serif" font-size="10.00" fill="#000000"> me</text>
</g>
<!-- Node10&#45;&gt;Node6 -->
<g id="edge13" class="edge">
<title>Node10&#45;&gt;Node6</title>
<path fill="none" stroke="#9a32cd" stroke-dasharray="5,2" d="M410.2236,-139.8239C417.5038,-137.8714 424.9589,-135.8765 432,-134 470.6461,-123.7004 482.8034,-128.012 519,-111 536.0845,-102.9705 553.4119,-89.6156 564.1745,-80.5674"/>
<polygon fill="#9a32cd" stroke="#9a32cd" points="409.2104,-136.4719 400.4599,-142.4451 411.0254,-143.2326 409.2104,-136.4719"/>
<text text-anchor="middle" x="475.5" y="-137" font-family="Helvetica,sans-Serif" font-size="10.00" fill="#000000"> export_entries</text>
</g>
</g>
</svg>
