<?xml version="1.0" encoding="UTF-8" standalone="no"?>
<!DOCTYPE svg PUBLIC "-//W3C//DTD SVG 1.1//EN"
 "http://www.w3.org/Graphics/SVG/1.1/DTD/svg11.dtd">
<!-- Generated by graphviz version 2.40.1 (20161225.0304)
 -->
<!-- Title: JSJobEntry Pages: 1 -->
<!--zoomable 289 -->
<svg id="main" version="1.1" xmlns="http://www.w3.org/2000/svg" xmlns:xlink="http://www.w3.org/1999/xlink" xml:space="preserve" onload="init(evt)">
<style type="text/css"><![CDATA[
.edge:hover path { stroke: red; }
.edge:hover polygon { stroke: red; fill: red; }
]]></style>
<script type="text/javascript"><![CDATA[
var edges = document.getElementsByTagName('g');
if (edges && edges.length) {
  for (var i=0;i<edges.length;i++) {
    if (edges[i].id.substr(0,4)=='edge') {
      edges[i].setAttribute('class','edge');
    }
  }
}
]]></script>
        <defs>
                <circle id="rim" cx="0" cy="0" r="7"/>
                <circle id="rim2" cx="0" cy="0" r="3.5"/>
                <g id="zoomPlus">
                        <use xlink:href="#rim" fill="#404040">
                                <set attributeName="fill" to="#808080" begin="zoomplus.mouseover" end="zoomplus.mouseout"/>
                        </use>
                        <path d="M-4,0h8M0,-4v8" fill="none" stroke="white" stroke-width="1.5" pointer-events="none"/>
                </g>
                <g id="zoomMin">
                        <use xlink:href="#rim" fill="#404040">
                                <set attributeName="fill" to="#808080" begin="zoomminus.mouseover" end="zoomminus.mouseout"/>
                        </use>
                        <path d="M-4,0h8" fill="none" stroke="white" stroke-width="1.5" pointer-events="none"/>
                </g>
                <g id="dirArrow">
                        <path fill="none" stroke="white" stroke-width="1.5" d="M0,-3.0v7 M-2.5,-0.5L0,-3.0L2.5,-0.5"/>
                </g>
               <g id="resetDef">
                       <use xlink:href="#rim2" fill="#404040">
                               <set attributeName="fill" to="#808080" begin="reset.mouseover" end="reset.mouseout"/>
                       </use>
               </g>
        </defs>

<script type="text/javascript">
var viewWidth = 740;
var viewHeight = 289;
var sectionId = 'dynsection-0';
</script>
<script xlink:href="svgpan.js"/>
<svg id="graph" class="graph">
<g id="viewport">
<title>JSJobEntry</title>
<!-- Node1 -->
<g id="node1" class="node">
<title>Node1</title>
<polygon fill="#bfbfbf" stroke="#000000" points="0,-.5 0,-19.5 68,-19.5 68,-.5 0,-.5"/>
<text text-anchor="middle" x="34" y="-7.5" font-family="Helvetica,sans-Serif" font-size="10.00" fill="#000000">JSJobEntry</text>
</g>
<!-- Node2 -->
<g id="node2" class="node">
<title>Node2</title>
<g id="a_node2"><a xlink:href="structlist__head.html" target="_top" xlink:title="list_head">
<polygon fill="none" stroke="#000000" points="53,-259.5 53,-278.5 109,-278.5 109,-259.5 53,-259.5"/>
<text text-anchor="middle" x="81" y="-266.5" font-family="Helvetica,sans-Serif" font-size="10.00" fill="#000000">list_head</text>
</a>
</g>
</g>
<!-- Node2&#45;&gt;Node1 -->
<g id="edge1" class="edge">
<title>Node2&#45;&gt;Node1</title>
<path fill="none" stroke="#9a32cd" stroke-dasharray="5,2" d="M63.8901,-251.6065C61.1714,-248.011 58.6995,-244.0708 57,-240 23.7591,-160.3816 30.1298,-52.2696 33.023,-19.6822"/>
<polygon fill="#9a32cd" stroke="#9a32cd" points="61.2789,-253.9384 70.4346,-259.2697 66.6019,-249.3924 61.2789,-253.9384"/>
<text text-anchor="middle" x="41.5" y="-108" font-family="Helvetica,sans-Serif" font-size="10.00" fill="#000000"> link</text>
</g>
<!-- Node2&#45;&gt;Node2 -->
<g id="edge2" class="edge">
<title>Node2&#45;&gt;Node2</title>
<path fill="none" stroke="#9a32cd" stroke-dasharray="5,2" d="M107.1609,-280.5337C117.9142,-281.2814 127,-277.4368 127,-269 127,-257.9805 111.5001,-254.7951 97.0295,-259.444"/>
<polygon fill="#9a32cd" stroke="#9a32cd" points="107.5148,-277.0368 97.0295,-278.556 106.1736,-283.9071 107.5148,-277.0368"/>
<text text-anchor="middle" x="138" y="-272" font-family="Helvetica,sans-Serif" font-size="10.00" fill="#000000"> prev</text>
<text text-anchor="middle" x="138" y="-261" font-family="Helvetica,sans-Serif" font-size="10.00" fill="#000000">next</text>
</g>
<!-- Node3 -->
<g id="node3" class="node">
<title>Node3</title>
<g id="a_node3"><a xlink:href="structJSContext.html" target="_top" xlink:title="JSContext">
<polygon fill="none" stroke="#000000" points="165.5,-67.5 165.5,-86.5 228.5,-86.5 228.5,-67.5 165.5,-67.5"/>
<text text-anchor="middle" x="197" y="-74.5" font-family="Helvetica,sans-Serif" font-size="10.00" fill="#000000">JSContext</text>
</a>
</g>
</g>
<!-- Node2&#45;&gt;Node3 -->
<g id="edge12" class="edge">
<title>Node2&#45;&gt;Node3</title>
<path fill="none" stroke="#9a32cd" stroke-dasharray="5,2" d="M73.2745,-249.7795C63.4156,-221.8704 50.1952,-169.5816 73,-134 93.2002,-102.4823 135.6999,-88.1568 165.2785,-81.8076"/>
<polygon fill="#9a32cd" stroke="#9a32cd" points="70.0175,-251.0625 76.8063,-259.1966 76.5718,-248.6044 70.0175,-251.0625"/>
<text text-anchor="middle" x="110" y="-148" font-family="Helvetica,sans-Serif" font-size="10.00" fill="#000000"> loaded_modules</text>
<text text-anchor="middle" x="110" y="-137" font-family="Helvetica,sans-Serif" font-size="10.00" fill="#000000">link</text>
</g>
<!-- Node4 -->
<g id="node4" class="node">
<title>Node4</title>
<g id="a_node4"><a xlink:href="structJSRuntime.html" target="_top" xlink:title="JSRuntime">
<polygon fill="none" stroke="#000000" points="326.5,-135.5 326.5,-154.5 391.5,-154.5 391.5,-135.5 326.5,-135.5"/>
<text text-anchor="middle" x="359" y="-142.5" font-family="Helvetica,sans-Serif" font-size="10.00" fill="#000000">JSRuntime</text>
</a>
</g>
</g>
<!-- Node2&#45;&gt;Node4 -->
<g id="edge5" class="edge">
<title>Node2&#45;&gt;Node4</title>
<path fill="none" stroke="#9a32cd" stroke-dasharray="5,2" d="M118.5756,-258.655C129.6436,-254.2528 141.1468,-248.1897 150,-240 174.2223,-217.593 157.0455,-193.0327 184,-174 232.727,-139.5936 258.4844,-167.5778 317,-156 319.9577,-155.4148 323.0165,-154.7439 326.0726,-154.0284"/>
<polygon fill="#9a32cd" stroke="#9a32cd" points="117.25,-255.4125 109.0386,-262.1076 119.6329,-261.9944 117.25,-255.4125"/>
<text text-anchor="middle" x="210.5" y="-232" font-family="Helvetica,sans-Serif" font-size="10.00" fill="#000000"> job_list</text>
<text text-anchor="middle" x="210.5" y="-221" font-family="Helvetica,sans-Serif" font-size="10.00" fill="#000000">el_next</text>
<text text-anchor="middle" x="210.5" y="-210" font-family="Helvetica,sans-Serif" font-size="10.00" fill="#000000">tmp_obj_list</text>
<text text-anchor="middle" x="210.5" y="-199" font-family="Helvetica,sans-Serif" font-size="10.00" fill="#000000">free_obj_list</text>
<text text-anchor="middle" x="210.5" y="-188" font-family="Helvetica,sans-Serif" font-size="10.00" fill="#000000">obj_list</text>
<text text-anchor="middle" x="210.5" y="-177" font-family="Helvetica,sans-Serif" font-size="10.00" fill="#000000">context_list</text>
</g>
<!-- Node28 -->
<g id="node10" class="node">
<title>Node28</title>
<g id="a_node10"><a xlink:href="structJSStackFrame.html" target="_top" xlink:title="JSStackFrame">
<polygon fill="none" stroke="#000000" points="156,-135.5 156,-154.5 238,-154.5 238,-135.5 156,-135.5"/>
<text text-anchor="middle" x="197" y="-142.5" font-family="Helvetica,sans-Serif" font-size="10.00" fill="#000000">JSStackFrame</text>
</a>
</g>
</g>
<!-- Node2&#45;&gt;Node28 -->
<g id="edge15" class="edge">
<title>Node2&#45;&gt;Node28</title>
<path fill="none" stroke="#9a32cd" stroke-dasharray="5,2" d="M78.906,-249.1067C77.8214,-227.8666 79.5959,-194.5049 98,-174 102.202,-169.3184 131.6116,-161.0404 157.2939,-154.5238"/>
<polygon fill="#9a32cd" stroke="#9a32cd" points="75.4288,-249.538 79.6879,-259.239 82.408,-248.9993 75.4288,-249.538"/>
<text text-anchor="middle" x="124" y="-204.5" font-family="Helvetica,sans-Serif" font-size="10.00" fill="#000000"> var_ref_list</text>
</g>
<!-- Node3&#45;&gt;Node1 -->
<g id="edge3" class="edge">
<title>Node3&#45;&gt;Node1</title>
<path fill="none" stroke="#9a32cd" stroke-dasharray="5,2" d="M164.3528,-63.5806C132.6685,-50.557 85.3721,-31.1162 57.3106,-19.5817"/>
<polygon fill="#9a32cd" stroke="#9a32cd" points="163.0663,-66.8359 173.6461,-67.4005 165.7276,-60.3615 163.0663,-66.8359"/>
<text text-anchor="middle" x="133.5" y="-41" font-family="Helvetica,sans-Serif" font-size="10.00" fill="#000000"> ctx</text>
</g>
<!-- Node4&#45;&gt;Node3 -->
<g id="edge4" class="edge">
<title>Node4&#45;&gt;Node3</title>
<path fill="none" stroke="#9a32cd" stroke-dasharray="5,2" d="M337.0549,-129.424C324.8259,-121.2854 309.0647,-111.6614 294,-105 273,-95.7141 248.0921,-88.5997 228.7749,-83.8661"/>
<polygon fill="#9a32cd" stroke="#9a32cd" points="335.4142,-132.5416 345.6479,-135.2845 339.3583,-126.7585 335.4142,-132.5416"/>
<text text-anchor="middle" x="319" y="-108" font-family="Helvetica,sans-Serif" font-size="10.00" fill="#000000"> rt</text>
</g>
<!-- Node5 -->
<g id="node5" class="node">
<title>Node5</title>
<g id="a_node5"><a xlink:href="structJSMallocState.html" target="_top" xlink:title="JSMallocState">
<polygon fill="none" stroke="#000000" points="362,-259.5 362,-278.5 442,-278.5 442,-259.5 362,-259.5"/>
<text text-anchor="middle" x="402" y="-266.5" font-family="Helvetica,sans-Serif" font-size="10.00" fill="#000000">JSMallocState</text>
</a>
</g>
</g>
<!-- Node5&#45;&gt;Node4 -->
<g id="edge6" class="edge">
<title>Node5&#45;&gt;Node4</title>
<path fill="none" stroke="#9a32cd" stroke-dasharray="5,2" d="M399.7944,-249.4937C397.0397,-229.7581 391.2506,-198.7166 380,-174 376.8067,-166.9846 371.7799,-159.9614 367.445,-154.5839"/>
<polygon fill="#9a32cd" stroke="#9a32cd" points="396.3241,-249.9492 401.0562,-259.4285 403.2683,-249.0672 396.3241,-249.9492"/>
<text text-anchor="middle" x="427.5" y="-204.5" font-family="Helvetica,sans-Serif" font-size="10.00" fill="#000000"> malloc_state</text>
</g>
<!-- Node6 -->
<g id="node6" class="node">
<title>Node6</title>
<g id="a_node6"><a xlink:href="structJSMallocFunctions.html" target="_top" xlink:title="JSMallocFunctions">
<polygon fill="none" stroke="#000000" points="460,-259.5 460,-278.5 560,-278.5 560,-259.5 460,-259.5"/>
<text text-anchor="middle" x="510" y="-266.5" font-family="Helvetica,sans-Serif" font-size="10.00" fill="#000000">JSMallocFunctions</text>
</a>
</g>
</g>
<!-- Node6&#45;&gt;Node4 -->
<g id="edge7" class="edge">
<title>Node6&#45;&gt;Node4</title>
<path fill="none" stroke="#9a32cd" stroke-dasharray="5,2" d="M501.1555,-249.9064C488.8731,-223.7145 467.4346,-179.2654 461,-174 450.3497,-165.2849 417.3528,-156.8587 391.7415,-151.3561"/>
<polygon fill="#9a32cd" stroke="#9a32cd" points="498.1081,-251.6531 505.5062,-259.2373 504.4524,-248.695 498.1081,-251.6531"/>
<text text-anchor="middle" x="502.5" y="-204.5" font-family="Helvetica,sans-Serif" font-size="10.00" fill="#000000"> mf</text>
</g>
<!-- Node7 -->
<g id="node7" class="node">
<title>Node7</title>
<g id="a_node7"><a xlink:href="structJSString.html" target="_top" xlink:title="JSString">
<polygon fill="none" stroke="#ff0000" points="218,-259.5 218,-278.5 272,-278.5 272,-259.5 218,-259.5"/>
<text text-anchor="middle" x="245" y="-266.5" font-family="Helvetica,sans-Serif" font-size="10.00" fill="#000000">JSString</text>
</a>
</g>
</g>
<!-- Node7&#45;&gt;Node4 -->
<g id="edge8" class="edge">
<title>Node7&#45;&gt;Node4</title>
<path fill="none" stroke="#9a32cd" stroke-dasharray="5,2" d="M241.9235,-249.1799C239.8193,-228.0031 240.0817,-194.6958 258,-174 259.1792,-172.638 297.3758,-161.9105 326.4472,-153.8969"/>
<polygon fill="#9a32cd" stroke="#9a32cd" points="238.4734,-249.7959 243.1985,-259.2786 245.4182,-248.919 238.4734,-249.7959"/>
<text text-anchor="middle" x="284" y="-204.5" font-family="Helvetica,sans-Serif" font-size="10.00" fill="#000000"> atom_array</text>
</g>
<!-- Node9 -->
<g id="node8" class="node">
<title>Node9</title>
<g id="a_node8"><a xlink:href="structJSShape.html" target="_top" xlink:title="JSShape">
<polygon fill="none" stroke="#ff0000" points="578,-259.5 578,-278.5 634,-278.5 634,-259.5 578,-259.5"/>
<text text-anchor="middle" x="606" y="-266.5" font-family="Helvetica,sans-Serif" font-size="10.00" fill="#000000">JSShape</text>
</a>
</g>
</g>
<!-- Node9&#45;&gt;Node3 -->
<g id="edge13" class="edge">
<title>Node9&#45;&gt;Node3</title>
<path fill="none" stroke="#9a32cd" stroke-dasharray="5,2" d="M608.9297,-249.0723C610.8643,-227.8027 610.2972,-194.4155 592,-174 543.0449,-119.3772 313.411,-89.5285 228.5888,-80.2173"/>
<polygon fill="#9a32cd" stroke="#9a32cd" points="605.4283,-248.8793 607.7326,-259.2205 612.3801,-249.6994 605.4283,-248.8793"/>
<text text-anchor="middle" x="594.5" y="-142.5" font-family="Helvetica,sans-Serif" font-size="10.00" fill="#000000"> array_shape</text>
</g>
<!-- Node9&#45;&gt;Node4 -->
<g id="edge9" class="edge">
<title>Node9&#45;&gt;Node4</title>
<path fill="none" stroke="#9a32cd" stroke-dasharray="5,2" d="M568.3937,-256.5501C554.5122,-251.3201 540.9527,-245.2457 536,-240 514.6746,-217.4132 536.5411,-194.2671 513,-174 495.2172,-158.6903 431.4766,-150.8455 391.7878,-147.3568"/>
<polygon fill="#9a32cd" stroke="#9a32cd" points="567.3594,-259.898 577.9536,-260.0153 569.745,-253.317 567.3594,-259.898"/>
<text text-anchor="middle" x="564" y="-204.5" font-family="Helvetica,sans-Serif" font-size="10.00" fill="#000000"> shape_hash</text>
</g>
<!-- Node9&#45;&gt;Node9 -->
<g id="edge10" class="edge">
<title>Node9&#45;&gt;Node9</title>
<path fill="none" stroke="#9a32cd" stroke-dasharray="5,2" d="M632.1609,-280.5337C642.9142,-281.2814 652,-277.4368 652,-269 652,-257.9805 636.5001,-254.7951 622.0295,-259.444"/>
<polygon fill="#9a32cd" stroke="#9a32cd" points="632.5148,-277.0368 622.0295,-278.556 631.1736,-283.9071 632.5148,-277.0368"/>
<text text-anchor="middle" x="692" y="-266.5" font-family="Helvetica,sans-Serif" font-size="10.00" fill="#000000"> shape_hash_next</text>
</g>
<!-- Node40 -->
<g id="node9" class="node">
<title>Node40</title>
<g id="a_node9"><a xlink:href="structJSClass.html" target="_top" xlink:title="JSClass">
<polygon fill="none" stroke="#ff0000" points="290,-259.5 290,-278.5 344,-278.5 344,-259.5 290,-259.5"/>
<text text-anchor="middle" x="317" y="-266.5" font-family="Helvetica,sans-Serif" font-size="10.00" fill="#000000">JSClass</text>
</a>
</g>
</g>
<!-- Node40&#45;&gt;Node4 -->
<g id="edge11" class="edge">
<title>Node40&#45;&gt;Node4</title>
<path fill="none" stroke="#9a32cd" stroke-dasharray="5,2" d="M314.7931,-249.3694C313.4358,-229.3028 313.8506,-197.7915 326,-174 329.9543,-166.2564 336.9309,-159.6587 343.4538,-154.7218"/>
<polygon fill="#9a32cd" stroke="#9a32cd" points="311.3192,-249.8184 315.6938,-259.4678 318.2915,-249.1964 311.3192,-249.8184"/>
<text text-anchor="middle" x="353" y="-204.5" font-family="Helvetica,sans-Serif" font-size="10.00" fill="#000000"> class_array</text>
</g>
<!-- Node28&#45;&gt;Node3 -->
<g id="edge14" class="edge">
<title>Node28&#45;&gt;Node3</title>
<path fill="none" stroke="#9a32cd" stroke-dasharray="5,2" d="M197,-125.1951C197,-112.5514 197,-96.7157 197,-86.7247"/>
<polygon fill="#9a32cd" stroke="#9a32cd" points="193.5001,-125.2572 197,-135.2573 200.5001,-125.2573 193.5001,-125.2572"/>
<text text-anchor="middle" x="243.5" y="-108" font-family="Helvetica,sans-Serif" font-size="10.00" fill="#000000"> current_stack_frame</text>
</g>
<!-- Node28&#45;&gt;Node28 -->
<g id="edge16" class="edge">
<title>Node28&#45;&gt;Node28</title>
<path fill="none" stroke="#9a32cd" stroke-dasharray="5,2" d="M248.2579,-150.0941C253.0064,-149.043 256,-147.345 256,-145 256,-141.248 248.3363,-139.1522 238.0831,-138.7125"/>
<polygon fill="#9a32cd" stroke="#9a32cd" points="247.6073,-146.6464 238.0831,-151.2875 248.4228,-153.5987 247.6073,-146.6464"/>
<text text-anchor="middle" x="282" y="-142.5" font-family="Helvetica,sans-Serif" font-size="10.00" fill="#000000"> prev_frame</text>
</g>
</g>
</svg>
        <g id="navigator" transform="translate(0 0)" fill="#404254">
                <rect fill="#f2f5e9" fill-opacity="0.5" stroke="#606060" stroke-width=".5" x="0" y="0" width="60" height="60"/>
                <use id="zoomplus" xlink:href="#zoomPlus" x="17" y="9" onmousedown="handleZoom(evt,'in')"/>
                <use id="zoomminus" xlink:href="#zoomMin" x="42" y="9" onmousedown="handleZoom(evt,'out')"/>
                <use id="reset" xlink:href="#resetDef" x="30" y="36" onmousedown="handleReset()"/>
                <g id="arrowUp" xlink:href="#dirArrow" transform="translate(30 24)" onmousedown="handlePan(0,-1)">
                  <use xlink:href="#rim" fill="#404040">
                        <set attributeName="fill" to="#808080" begin="arrowUp.mouseover" end="arrowUp.mouseout"/>
                  </use>
                  <path fill="none" stroke="white" stroke-width="1.5" d="M0,-3.0v7 M-2.5,-0.5L0,-3.0L2.5,-0.5"/>
                </g>
                <g id="arrowRight" xlink:href="#dirArrow" transform="rotate(90) translate(36 -43)" onmousedown="handlePan(1,0)">
                  <use xlink:href="#rim" fill="#404040">
                        <set attributeName="fill" to="#808080" begin="arrowRight.mouseover" end="arrowRight.mouseout"/>
                  </use>
                  <path fill="none" stroke="white" stroke-width="1.5" d="M0,-3.0v7 M-2.5,-0.5L0,-3.0L2.5,-0.5"/>
                </g>
                <g id="arrowDown" xlink:href="#dirArrow" transform="rotate(180) translate(-30 -48)" onmousedown="handlePan(0,1)">
                  <use xlink:href="#rim" fill="#404040">
                        <set attributeName="fill" to="#808080" begin="arrowDown.mouseover" end="arrowDown.mouseout"/>
                  </use>
                  <path fill="none" stroke="white" stroke-width="1.5" d="M0,-3.0v7 M-2.5,-0.5L0,-3.0L2.5,-0.5"/>
                </g>
                <g id="arrowLeft" xlink:href="#dirArrow" transform="rotate(270) translate(-36 17)" onmousedown="handlePan(-1,0)">
                  <use xlink:href="#rim" fill="#404040">
                        <set attributeName="fill" to="#808080" begin="arrowLeft.mouseover" end="arrowLeft.mouseout"/>
                  </use>
                  <path fill="none" stroke="white" stroke-width="1.5" d="M0,-3.0v7 M-2.5,-0.5L0,-3.0L2.5,-0.5"/>
                </g>
        </g>
        <svg viewBox="0 0 15 15" width="100%" height="30px" preserveAspectRatio="xMaxYMin meet">
         <g id="arrow_out" transform="scale(0.3 0.3)">
          <a xlink:href="structJSJobEntry__coll__graph_org.svg" target="_base">
           <rect id="button" ry="5" rx="5" y="6" x="6" height="38" width="38"
                fill="#f2f5e9" fill-opacity="0.5" stroke="#606060" stroke-width="1.0"/>
           <path id="arrow"
             d="M 11.500037,31.436501 C 11.940474,20.09759 22.043105,11.32322 32.158766,21.979434 L 37.068811,17.246167 C 37.068811,17.246167 37.088388,32 37.088388,32 L 22.160133,31.978069 C 22.160133,31.978069 26.997745,27.140456 26.997745,27.140456 C 18.528582,18.264221 13.291696,25.230495 11.500037,31.436501 z"
             style="fill:#404040;"/>
          </a>
         </g>
        </svg>
</svg>
