<?xml version="1.0" encoding="UTF-8" standalone="no"?>
<!DOCTYPE svg PUBLIC "-//W3C//DTD SVG 1.1//EN"
 "http://www.w3.org/Graphics/SVG/1.1/DTD/svg11.dtd">
<!-- Generated by graphviz version 2.40.1 (20161225.0304)
 -->
<!-- Title: qjs::js_property_traits&lt; uint32_t &gt;::set_property Pages: 1 -->
<!--zoomable 458 -->
<svg id="main" version="1.1" xmlns="http://www.w3.org/2000/svg" xmlns:xlink="http://www.w3.org/1999/xlink" xml:space="preserve" onload="init(evt)">
<style type="text/css"><![CDATA[
.edge:hover path { stroke: red; }
.edge:hover polygon { stroke: red; fill: red; }
]]></style>
<script type="text/javascript"><![CDATA[
var edges = document.getElementsByTagName('g');
if (edges && edges.length) {
  for (var i=0;i<edges.length;i++) {
    if (edges[i].id.substr(0,4)=='edge') {
      edges[i].setAttribute('class','edge');
    }
  }
}
]]></script>
        <defs>
                <circle id="rim" cx="0" cy="0" r="7"/>
                <circle id="rim2" cx="0" cy="0" r="3.5"/>
                <g id="zoomPlus">
                        <use xlink:href="#rim" fill="#404040">
                                <set attributeName="fill" to="#808080" begin="zoomplus.mouseover" end="zoomplus.mouseout"/>
                        </use>
                        <path d="M-4,0h8M0,-4v8" fill="none" stroke="white" stroke-width="1.5" pointer-events="none"/>
                </g>
                <g id="zoomMin">
                        <use xlink:href="#rim" fill="#404040">
                                <set attributeName="fill" to="#808080" begin="zoomminus.mouseover" end="zoomminus.mouseout"/>
                        </use>
                        <path d="M-4,0h8" fill="none" stroke="white" stroke-width="1.5" pointer-events="none"/>
                </g>
                <g id="dirArrow">
                        <path fill="none" stroke="white" stroke-width="1.5" d="M0,-3.0v7 M-2.5,-0.5L0,-3.0L2.5,-0.5"/>
                </g>
               <g id="resetDef">
                       <use xlink:href="#rim2" fill="#404040">
                               <set attributeName="fill" to="#808080" begin="reset.mouseover" end="reset.mouseout"/>
                       </use>
               </g>
        </defs>

<script type="text/javascript">
var viewWidth = 883;
var viewHeight = 458;
var sectionId = 'dynsection-0';
</script>
<script xlink:href="svgpan.js"/>
<svg id="graph" class="graph">
<g id="viewport">
<title>qjs::js_property_traits&lt; uint32_t &gt;::set_property</title>
<!-- Node0 -->
<g id="node1" class="node">
<title>Node0</title>
<polygon fill="#bfbfbf" stroke="#000000" points="0,-242 0,-272 129,-272 129,-242 0,-242"/>
<text text-anchor="start" x="8" y="-260" font-family="Helvetica,sans-Serif" font-size="10.00" fill="#000000">qjs::js_property_traits</text>
<text text-anchor="middle" x="64.5" y="-249" font-family="Helvetica,sans-Serif" font-size="10.00" fill="#000000">&lt; uint32_t &gt;::set_property</text>
</g>
<!-- Node1 -->
<g id="node2" class="node">
<title>Node1</title>
<g id="a_node2"><a xlink:href="quickjs_8c.html#aae909eaec829081b270012adfcd717a4" target="_top" xlink:title="JS_SetPropertyUint32">
<polygon fill="none" stroke="#000000" points="165,-247.5 165,-266.5 279,-266.5 279,-247.5 165,-247.5"/>
<text text-anchor="middle" x="222" y="-254.5" font-family="Helvetica,sans-Serif" font-size="10.00" fill="#000000">JS_SetPropertyUint32</text>
</a>
</g>
</g>
<!-- Node0&#45;&gt;Node1 -->
<g id="edge1" class="edge">
<title>Node0&#45;&gt;Node1</title>
<path fill="none" stroke="#191970" d="M129.0157,-257C137.4712,-257 146.1531,-257 154.6539,-257"/>
<polygon fill="#191970" stroke="#191970" points="154.9058,-260.5001 164.9058,-257 154.9057,-253.5001 154.9058,-260.5001"/>
</g>
<!-- Node2 -->
<g id="node3" class="node">
<title>Node2</title>
<g id="a_node3"><a xlink:href="quickjs_8c.html#a22f31ae7a52ea79fa375d19427daa797" target="_top" xlink:title="JS_NewUint32">
<polygon fill="none" stroke="#000000" points="328.5,-266.5 328.5,-285.5 411.5,-285.5 411.5,-266.5 328.5,-266.5"/>
<text text-anchor="middle" x="370" y="-273.5" font-family="Helvetica,sans-Serif" font-size="10.00" fill="#000000">JS_NewUint32</text>
</a>
</g>
</g>
<!-- Node1&#45;&gt;Node2 -->
<g id="edge2" class="edge">
<title>Node1&#45;&gt;Node2</title>
<path fill="none" stroke="#191970" d="M279.2207,-264.3459C291.9304,-265.9775 305.3372,-267.6987 317.8319,-269.3027"/>
<polygon fill="#191970" stroke="#191970" points="317.7134,-272.8162 328.0777,-270.6181 318.6048,-265.8731 317.7134,-272.8162"/>
</g>
<!-- Node3 -->
<g id="node4" class="node">
<title>Node3</title>
<g id="a_node4"><a xlink:href="quickjs_8c.html#aee75cc1546e19479e3ccda58f3b50a96" target="_top" xlink:title="JS_SetPropertyValue">
<polygon fill="none" stroke="#000000" points="315,-228.5 315,-247.5 425,-247.5 425,-228.5 315,-228.5"/>
<text text-anchor="middle" x="370" y="-235.5" font-family="Helvetica,sans-Serif" font-size="10.00" fill="#000000">JS_SetPropertyValue</text>
</a>
</g>
</g>
<!-- Node1&#45;&gt;Node3 -->
<g id="edge3" class="edge">
<title>Node1&#45;&gt;Node3</title>
<path fill="none" stroke="#191970" d="M279.2207,-249.6541C287.6396,-248.5733 296.3644,-247.4532 304.9273,-246.3539"/>
<polygon fill="#191970" stroke="#191970" points="305.4042,-249.8215 314.8771,-245.0766 304.5128,-242.8785 305.4042,-249.8215"/>
</g>
<!-- Node4 -->
<g id="node5" class="node">
<title>Node4</title>
<g id="a_node5"><a xlink:href="quickjs_8c.html#a2f49d212e519c9e138d8b48148b6f955" target="_top" xlink:title="__attribute__">
<polygon fill="none" stroke="#ff0000" points="651.5,-392.5 651.5,-411.5 724.5,-411.5 724.5,-392.5 651.5,-392.5"/>
<text text-anchor="middle" x="688" y="-399.5" font-family="Helvetica,sans-Serif" font-size="10.00" fill="#000000">__attribute__</text>
</a>
</g>
</g>
<!-- Node3&#45;&gt;Node4 -->
<g id="edge4" class="edge">
<title>Node3&#45;&gt;Node4</title>
<path fill="none" stroke="#191970" d="M411.5826,-247.5196C416.5472,-249.9862 421.1945,-253.0913 425,-257 462.065,-295.0696 420.3727,-336.7578 461,-371 511.2204,-413.3276 591.0972,-413.9487 641.4787,-409.0558"/>
<polygon fill="#191970" stroke="#191970" points="641.8863,-412.5322 651.4523,-407.9778 641.1341,-405.5727 641.8863,-412.5322"/>
</g>
<!-- Node216 -->
<g id="node6" class="node">
<title>Node216</title>
<g id="a_node6"><a xlink:href="quickjs_8c.html#adbffd820afae76d09c641b5b911e3600" target="_top" xlink:title="add_fast_array_element">
<polygon fill="none" stroke="#ff0000" points="627.5,-316.5 627.5,-335.5 748.5,-335.5 748.5,-316.5 627.5,-316.5"/>
<text text-anchor="middle" x="688" y="-323.5" font-family="Helvetica,sans-Serif" font-size="10.00" fill="#000000">add_fast_array_element</text>
</a>
</g>
</g>
<!-- Node3&#45;&gt;Node216 -->
<g id="edge5" class="edge">
<title>Node3&#45;&gt;Node216</title>
<path fill="none" stroke="#191970" d="M399.9547,-247.5519C408.1568,-250.3822 416.9915,-253.6317 425,-257 441.4894,-263.9354 444.1494,-268.9952 461,-275 511.9374,-293.1517 571.6784,-306.2658 617.0853,-314.6471"/>
<polygon fill="#191970" stroke="#191970" points="616.6679,-318.1284 627.1317,-316.4677 617.9161,-311.2406 616.6679,-318.1284"/>
</g>
<!-- Node29 -->
<g id="node7" class="node">
<title>Node29</title>
<g id="a_node7"><a xlink:href="quickjs_8h.html#afaa20c47565bc704c6c85f3d77254e7d" target="_top" xlink:title="JS_FreeValue">
<polygon fill="none" stroke="#ff0000" points="797,-335.5 797,-354.5 875,-354.5 875,-335.5 797,-335.5"/>
<text text-anchor="middle" x="836" y="-342.5" font-family="Helvetica,sans-Serif" font-size="10.00" fill="#000000">JS_FreeValue</text>
</a>
</g>
</g>
<!-- Node3&#45;&gt;Node29 -->
<g id="edge8" class="edge">
<title>Node3&#45;&gt;Node29</title>
<path fill="none" stroke="#191970" d="M394.5183,-228.3639C459.4072,-204.5398 638.9962,-149.6397 761,-219 801.4247,-241.9818 822.3453,-296.3172 831.0141,-325.5619"/>
<polygon fill="#191970" stroke="#191970" points="827.7045,-326.7246 833.7518,-335.4241 834.4494,-324.8522 827.7045,-326.7246"/>
</g>
<!-- Node139 -->
<g id="node8" class="node">
<title>Node139</title>
<g id="a_node8"><a xlink:href="quickjs_8c.html#ab7fc45a99935a1c0ba50b0216d9401a9" target="_top" xlink:title="JS_FreeAtom">
<polygon fill="none" stroke="#ff0000" points="481.5,-152.5 481.5,-171.5 558.5,-171.5 558.5,-152.5 481.5,-152.5"/>
<text text-anchor="middle" x="520" y="-159.5" font-family="Helvetica,sans-Serif" font-size="10.00" fill="#000000">JS_FreeAtom</text>
</a>
</g>
</g>
<!-- Node3&#45;&gt;Node139 -->
<g id="edge7" class="edge">
<title>Node3&#45;&gt;Node139</title>
<path fill="none" stroke="#191970" d="M385.4403,-228.3349C403.2747,-217.3711 433.6741,-199.2925 461,-186 468.6351,-182.286 476.9977,-178.6409 484.9645,-175.3574"/>
<polygon fill="#191970" stroke="#191970" points="486.4432,-178.5351 494.4106,-171.5514 483.8271,-172.0424 486.4432,-178.5351"/>
</g>
<!-- Node278 -->
<g id="node9" class="node">
<title>Node278</title>
<g id="a_node9"><a xlink:href="quickjs_8c.html#ad7f03358a8088ca920ab308225c6b2e6" target="_top" xlink:title="JS_SetPropertyInternal">
<polygon fill="none" stroke="#ff0000" points="461,-342.5 461,-361.5 579,-361.5 579,-342.5 461,-342.5"/>
<text text-anchor="middle" x="520" y="-349.5" font-family="Helvetica,sans-Serif" font-size="10.00" fill="#000000">JS_SetPropertyInternal</text>
</a>
</g>
</g>
<!-- Node3&#45;&gt;Node278 -->
<g id="edge9" class="edge">
<title>Node3&#45;&gt;Node278</title>
<path fill="none" stroke="#191970" d="M424.5402,-247.6044C424.6944,-247.7354 424.8477,-247.8672 425,-248 451.6671,-271.2512 434.9669,-295.041 461,-319 471.0437,-328.2435 485.1189,-334.1529 497.0027,-338.8033"/>
<polygon fill="#191970" stroke="#191970" points="495.7454,-342.0696 506.3331,-342.459 498.2992,-335.5521 495.7454,-342.0696"/>
</g>
<!-- Node177 -->
<g id="node10" class="node">
<title>Node177</title>
<g id="a_node10"><a xlink:href="quickjs_8c.html#a033dd3ebd29c4eb9f0baff1dd0fec0b1" target="_top" xlink:title="JS_ThrowTypeErrorDetached\lArrayBuffer">
<polygon fill="none" stroke="#000000" points="615,-267 615,-297 761,-297 761,-267 615,-267"/>
<text text-anchor="start" x="623" y="-285" font-family="Helvetica,sans-Serif" font-size="10.00" fill="#000000">JS_ThrowTypeErrorDetached</text>
<text text-anchor="middle" x="688" y="-274" font-family="Helvetica,sans-Serif" font-size="10.00" fill="#000000">ArrayBuffer</text>
</a>
</g>
</g>
<!-- Node3&#45;&gt;Node177 -->
<g id="edge18" class="edge">
<title>Node3&#45;&gt;Node177</title>
<path fill="none" stroke="#191970" d="M425.3133,-246.7021C437.0858,-248.5002 449.4488,-250.3483 461,-252 508.5431,-258.798 561.7693,-265.8612 604.7258,-271.4252"/>
<polygon fill="#191970" stroke="#191970" points="604.4847,-274.9231 614.8509,-272.7336 605.3819,-267.9808 604.4847,-274.9231"/>
</g>
<!-- Node167 -->
<g id="node11" class="node">
<title>Node167</title>
<g id="a_node11"><a xlink:href="quickjs_8c.html#a0ec52a675282f321a6f42aa1298a53fe" target="_top" xlink:title="set_value">
<polygon fill="none" stroke="#000000" points="658.5,-430.5 658.5,-449.5 717.5,-449.5 717.5,-430.5 658.5,-430.5"/>
<text text-anchor="middle" x="688" y="-437.5" font-family="Helvetica,sans-Serif" font-size="10.00" fill="#000000">set_value</text>
</a>
</g>
</g>
<!-- Node3&#45;&gt;Node167 -->
<g id="edge23" class="edge">
<title>Node3&#45;&gt;Node167</title>
<path fill="none" stroke="#191970" d="M412.3722,-247.5709C417.0905,-250.0287 421.461,-253.1177 425,-257 470.3142,-306.7098 411.5073,-358.4487 461,-404 511.8461,-450.7969 597.7826,-450.7535 648.0636,-445.8277"/>
<polygon fill="#191970" stroke="#191970" points="648.6656,-449.2829 658.2264,-444.7176 647.9054,-442.3243 648.6656,-449.2829"/>
</g>
<!-- Node178 -->
<g id="node12" class="node">
<title>Node178</title>
<g id="a_node12"><a xlink:href="quickjs_8c.html#a869fa88a646c0a1914ec2e559b193b5c" target="_top" xlink:title="typed_array_is_detached">
<polygon fill="none" stroke="#000000" points="625.5,-228.5 625.5,-247.5 750.5,-247.5 750.5,-228.5 625.5,-228.5"/>
<text text-anchor="middle" x="688" y="-235.5" font-family="Helvetica,sans-Serif" font-size="10.00" fill="#000000">typed_array_is_detached</text>
</a>
</g>
</g>
<!-- Node3&#45;&gt;Node178 -->
<g id="edge24" class="edge">
<title>Node3&#45;&gt;Node178</title>
<path fill="none" stroke="#191970" d="M425.0283,-238C477.685,-238 557.4335,-238 615.3012,-238"/>
<polygon fill="#191970" stroke="#191970" points="615.4774,-241.5001 625.4773,-238 615.4773,-234.5001 615.4774,-241.5001"/>
</g>
<!-- Node198 -->
<g id="node13" class="node">
<title>Node198</title>
<g id="a_node13"><a xlink:href="quickjs_8c.html#ab1b614ef35f1cea05da0ad4927c53118" target="_top" xlink:title="JS_ToFloat64Free">
<polygon fill="none" stroke="#ff0000" points="471.5,-114.5 471.5,-133.5 568.5,-133.5 568.5,-114.5 471.5,-114.5"/>
<text text-anchor="middle" x="520" y="-121.5" font-family="Helvetica,sans-Serif" font-size="10.00" fill="#000000">JS_ToFloat64Free</text>
</a>
</g>
</g>
<!-- Node3&#45;&gt;Node198 -->
<g id="edge19" class="edge">
<title>Node3&#45;&gt;Node198</title>
<path fill="none" stroke="#191970" d="M376.6077,-228.4134C390.2094,-209.3805 423.2484,-166.6276 461,-143 464.3423,-140.9082 467.9365,-139.0259 471.642,-137.3361"/>
<polygon fill="#191970" stroke="#191970" points="473.062,-140.5369 481.0021,-133.5222 470.4207,-134.0544 473.062,-140.5369"/>
</g>
<!-- Node180 -->
<g id="node14" class="node">
<title>Node180</title>
<g id="a_node14"><a xlink:href="quickjs_8c.html#a643088ab23784b7f3c6ff94c37228256" target="_top" xlink:title="JS_ToInt32Free">
<polygon fill="none" stroke="#ff0000" points="477,-76.5 477,-95.5 563,-95.5 563,-76.5 477,-76.5"/>
<text text-anchor="middle" x="520" y="-83.5" font-family="Helvetica,sans-Serif" font-size="10.00" fill="#000000">JS_ToInt32Free</text>
</a>
</g>
</g>
<!-- Node3&#45;&gt;Node180 -->
<g id="edge20" class="edge">
<title>Node3&#45;&gt;Node180</title>
<path fill="none" stroke="#191970" d="M373.9231,-228.3521C384.3322,-203.9546 415.0355,-139.3046 461,-105 463.5064,-103.1294 466.204,-101.4387 469.0173,-99.9111"/>
<polygon fill="#191970" stroke="#191970" points="470.7285,-102.9747 478.3032,-95.5669 467.7622,-96.6342 470.7285,-102.9747"/>
</g>
<!-- Node415 -->
<g id="node15" class="node">
<title>Node415</title>
<g id="a_node15"><a xlink:href="quickjs_8c.html#a4623c0fbf1417b8c089ba0f5037c5362" target="_top" xlink:title="JS_ToUint8ClampFree">
<polygon fill="none" stroke="#ff0000" points="462,-38.5 462,-57.5 578,-57.5 578,-38.5 462,-38.5"/>
<text text-anchor="middle" x="520" y="-45.5" font-family="Helvetica,sans-Serif" font-size="10.00" fill="#000000">JS_ToUint8ClampFree</text>
</a>
</g>
</g>
<!-- Node3&#45;&gt;Node415 -->
<g id="edge21" class="edge">
<title>Node3&#45;&gt;Node415</title>
<path fill="none" stroke="#191970" d="M372.4019,-228.2269C380.0467,-199.1733 406.5752,-112.5304 461,-67 463.0222,-65.3083 465.1977,-63.7664 467.4786,-62.3611"/>
<polygon fill="#191970" stroke="#191970" points="469.4253,-65.2946 476.6978,-57.59 466.208,-59.0778 469.4253,-65.2946"/>
</g>
<!-- Node140 -->
<g id="node16" class="node">
<title>Node140</title>
<g id="a_node16"><a xlink:href="quickjs_8c.html#a859d5c989a2aaecef1653b3ac279e108" target="_top" xlink:title="JS_ValueToAtom">
<polygon fill="none" stroke="#ff0000" points="473.5,-.5 473.5,-19.5 566.5,-19.5 566.5,-.5 473.5,-.5"/>
<text text-anchor="middle" x="520" y="-7.5" font-family="Helvetica,sans-Serif" font-size="10.00" fill="#000000">JS_ValueToAtom</text>
</a>
</g>
</g>
<!-- Node3&#45;&gt;Node140 -->
<g id="edge22" class="edge">
<title>Node3&#45;&gt;Node140</title>
<path fill="none" stroke="#191970" d="M371.3298,-228.4893C376.4144,-195.7202 397.6354,-86.3767 461,-29 462.7499,-27.4155 464.6332,-25.963 466.6141,-24.6315"/>
<polygon fill="#191970" stroke="#191970" points="468.7625,-27.4426 475.8138,-19.535 465.3703,-21.3194 468.7625,-27.4426"/>
</g>
<!-- Node216&#45;&gt;Node29 -->
<g id="edge6" class="edge">
<title>Node216&#45;&gt;Node29</title>
<path fill="none" stroke="#191970" d="M748.6243,-333.7828C761.347,-335.4162 774.6153,-337.1195 786.8568,-338.6911"/>
<polygon fill="#191970" stroke="#191970" points="786.4993,-342.1738 796.8636,-339.9757 787.3907,-335.2308 786.4993,-342.1738"/>
</g>
<!-- Node278&#45;&gt;Node3 -->
<g id="edge13" class="edge">
<title>Node278&#45;&gt;Node3</title>
<path fill="none" stroke="#191970" d="M467.825,-342.3977C465.4099,-340.746 463.1155,-338.947 461,-337 434.9669,-313.041 451.6671,-289.2512 425,-266 416.7764,-258.8298 405.7027,-254.3279 395.6472,-250.8432"/>
<polygon fill="#191970" stroke="#191970" points="396.6683,-247.4942 386.0744,-247.6365 394.4448,-254.1317 396.6683,-247.4942"/>
</g>
<!-- Node278&#45;&gt;Node4 -->
<g id="edge10" class="edge">
<title>Node278&#45;&gt;Node4</title>
<path fill="none" stroke="#191970" d="M551.995,-361.5223C578.6505,-369.4555 616.8247,-380.8169 645.9483,-389.4846"/>
<polygon fill="#191970" stroke="#191970" points="645.2555,-392.9301 655.8385,-392.4281 647.2524,-386.2209 645.2555,-392.9301"/>
</g>
<!-- Node278&#45;&gt;Node216 -->
<g id="edge11" class="edge">
<title>Node278&#45;&gt;Node216</title>
<path fill="none" stroke="#191970" d="M579.2305,-342.8334C591.53,-340.9299 604.6075,-338.906 617.2721,-336.946"/>
<polygon fill="#191970" stroke="#191970" points="617.9705,-340.3797 627.3175,-335.3913 616.8999,-333.462 617.9705,-340.3797"/>
</g>
<!-- Node278&#45;&gt;Node29 -->
<g id="edge12" class="edge">
<title>Node278&#45;&gt;Node29</title>
<path fill="none" stroke="#191970" d="M579.0665,-350.6916C638.9348,-349.3654 730.5137,-347.3367 786.638,-346.0935"/>
<polygon fill="#191970" stroke="#191970" points="786.7694,-349.5915 796.6894,-345.8708 786.6143,-342.5932 786.7694,-349.5915"/>
</g>
<!-- Node278&#45;&gt;Node177 -->
<g id="edge14" class="edge">
<title>Node278&#45;&gt;Node177</title>
<path fill="none" stroke="#191970" d="M538.6471,-342.4013C557.6035,-332.8263 587.9505,-317.9976 615,-307 620.406,-304.8021 626.086,-302.6282 631.7902,-300.534"/>
<polygon fill="#191970" stroke="#191970" points="633.14,-303.7682 641.3686,-297.0944 630.7742,-297.1801 633.14,-303.7682"/>
</g>
<!-- Node278&#45;&gt;Node167 -->
<g id="edge15" class="edge">
<title>Node278&#45;&gt;Node167</title>
<path fill="none" stroke="#191970" d="M530.2694,-361.5015C546.8472,-376.3414 581.0877,-404.9768 615,-421 625.4254,-425.9259 637.3146,-429.7109 648.4276,-432.5572"/>
<polygon fill="#191970" stroke="#191970" points="647.8129,-436.0084 658.3509,-434.913 649.4298,-429.1977 647.8129,-436.0084"/>
</g>
<!-- Node278&#45;&gt;Node178 -->
<g id="edge17" class="edge">
<title>Node278&#45;&gt;Node178</title>
<path fill="none" stroke="#191970" d="M526.888,-342.2384C541.0692,-322.8908 575.5291,-279.6001 615,-257 618.8764,-254.7804 623.0159,-252.815 627.2793,-251.0755"/>
<polygon fill="#191970" stroke="#191970" points="628.5628,-254.3329 636.7571,-247.617 626.1632,-247.7571 628.5628,-254.3329"/>
</g>
<!-- Node167&#45;&gt;Node29 -->
<g id="edge16" class="edge">
<title>Node167&#45;&gt;Node29</title>
<path fill="none" stroke="#191970" d="M717.8122,-435.9796C731.6199,-433.2048 747.842,-428.592 761,-421 786.7053,-406.1685 809.5914,-380.1649 823.1314,-362.7629"/>
<polygon fill="#191970" stroke="#191970" points="826.0975,-364.6427 829.3255,-354.5516 820.5092,-360.4272 826.0975,-364.6427"/>
</g>
</g>
</svg>
        <g id="navigator" transform="translate(0 0)" fill="#404254">
                <rect fill="#f2f5e9" fill-opacity="0.5" stroke="#606060" stroke-width=".5" x="0" y="0" width="60" height="60"/>
                <use id="zoomplus" xlink:href="#zoomPlus" x="17" y="9" onmousedown="handleZoom(evt,'in')"/>
                <use id="zoomminus" xlink:href="#zoomMin" x="42" y="9" onmousedown="handleZoom(evt,'out')"/>
                <use id="reset" xlink:href="#resetDef" x="30" y="36" onmousedown="handleReset()"/>
                <g id="arrowUp" xlink:href="#dirArrow" transform="translate(30 24)" onmousedown="handlePan(0,-1)">
                  <use xlink:href="#rim" fill="#404040">
                        <set attributeName="fill" to="#808080" begin="arrowUp.mouseover" end="arrowUp.mouseout"/>
                  </use>
                  <path fill="none" stroke="white" stroke-width="1.5" d="M0,-3.0v7 M-2.5,-0.5L0,-3.0L2.5,-0.5"/>
                </g>
                <g id="arrowRight" xlink:href="#dirArrow" transform="rotate(90) translate(36 -43)" onmousedown="handlePan(1,0)">
                  <use xlink:href="#rim" fill="#404040">
                        <set attributeName="fill" to="#808080" begin="arrowRight.mouseover" end="arrowRight.mouseout"/>
                  </use>
                  <path fill="none" stroke="white" stroke-width="1.5" d="M0,-3.0v7 M-2.5,-0.5L0,-3.0L2.5,-0.5"/>
                </g>
                <g id="arrowDown" xlink:href="#dirArrow" transform="rotate(180) translate(-30 -48)" onmousedown="handlePan(0,1)">
                  <use xlink:href="#rim" fill="#404040">
                        <set attributeName="fill" to="#808080" begin="arrowDown.mouseover" end="arrowDown.mouseout"/>
                  </use>
                  <path fill="none" stroke="white" stroke-width="1.5" d="M0,-3.0v7 M-2.5,-0.5L0,-3.0L2.5,-0.5"/>
                </g>
                <g id="arrowLeft" xlink:href="#dirArrow" transform="rotate(270) translate(-36 17)" onmousedown="handlePan(-1,0)">
                  <use xlink:href="#rim" fill="#404040">
                        <set attributeName="fill" to="#808080" begin="arrowLeft.mouseover" end="arrowLeft.mouseout"/>
                  </use>
                  <path fill="none" stroke="white" stroke-width="1.5" d="M0,-3.0v7 M-2.5,-0.5L0,-3.0L2.5,-0.5"/>
                </g>
        </g>
        <svg viewBox="0 0 15 15" width="100%" height="30px" preserveAspectRatio="xMaxYMin meet">
         <g id="arrow_out" transform="scale(0.3 0.3)">
          <a xlink:href="structqjs_1_1js__property__traits_3_01uint32__t_01_4_a80956064f81774837d511e8321056418_cgraph_org.svg" target="_base">
           <rect id="button" ry="5" rx="5" y="6" x="6" height="38" width="38"
                fill="#f2f5e9" fill-opacity="0.5" stroke="#606060" stroke-width="1.0"/>
           <path id="arrow"
             d="M 11.500037,31.436501 C 11.940474,20.09759 22.043105,11.32322 32.158766,21.979434 L 37.068811,17.246167 C 37.068811,17.246167 37.088388,32 37.088388,32 L 22.160133,31.978069 C 22.160133,31.978069 26.997745,27.140456 26.997745,27.140456 C 18.528582,18.264221 13.291696,25.230495 11.500037,31.436501 z"
             style="fill:#404040;"/>
          </a>
         </g>
        </svg>
</svg>
