<?xml version="1.0" encoding="UTF-8" standalone="no"?>
<!DOCTYPE svg PUBLIC "-//W3C//DTD SVG 1.1//EN"
 "http://www.w3.org/Graphics/SVG/1.1/DTD/svg11.dtd">
<!-- Generated by graphviz version 2.40.1 (20161225.0304)
 -->
<!-- Title: JSONStringifyContext Pages: 1 -->
<svg width="510pt" height="422pt"
 viewBox="0.00 0.00 510.00 422.00" xmlns="http://www.w3.org/2000/svg" xmlns:xlink="http://www.w3.org/1999/xlink">
<g id="graph0" class="graph" transform="scale(1 1) rotate(0) translate(4 418)">
<title>JSONStringifyContext</title>
<!-- Node1 -->
<g id="node1" class="node">
<title>Node1</title>
<polygon fill="#bfbfbf" stroke="#000000" points="331,-.5 331,-19.5 445,-19.5 445,-.5 331,-.5"/>
<text text-anchor="middle" x="388" y="-7.5" font-family="Helvetica,sans-Serif" font-size="10.00" fill="#000000">JSONStringifyContext</text>
</g>
<!-- Node2 -->
<g id="node2" class="node">
<title>Node2</title>
<g id="a_node2"><a xlink:href="structStringBuffer.html" target="_top" xlink:title="StringBuffer">
<polygon fill="none" stroke="#000000" points="354,-67.5 354,-86.5 422,-86.5 422,-67.5 354,-67.5"/>
<text text-anchor="middle" x="388" y="-74.5" font-family="Helvetica,sans-Serif" font-size="10.00" fill="#000000">StringBuffer</text>
</a>
</g>
</g>
<!-- Node2&#45;&gt;Node1 -->
<g id="edge1" class="edge">
<title>Node2&#45;&gt;Node1</title>
<path fill="none" stroke="#9a32cd" stroke-dasharray="5,2" d="M388,-57.1079C388,-44.714 388,-29.3263 388,-19.5817"/>
<polygon fill="#9a32cd" stroke="#9a32cd" points="384.5001,-57.4005 388,-67.4005 391.5001,-57.4006 384.5001,-57.4005"/>
<text text-anchor="middle" x="392.5" y="-41" font-family="Helvetica,sans-Serif" font-size="10.00" fill="#000000"> b</text>
</g>
<!-- Node3 -->
<g id="node3" class="node">
<title>Node3</title>
<g id="a_node3"><a xlink:href="structJSString.html" target="_top" xlink:title="JSString">
<polygon fill="none" stroke="#000000" points="448,-326.5 448,-345.5 502,-345.5 502,-326.5 448,-326.5"/>
<text text-anchor="middle" x="475" y="-333.5" font-family="Helvetica,sans-Serif" font-size="10.00" fill="#000000">JSString</text>
</a>
</g>
</g>
<!-- Node3&#45;&gt;Node2 -->
<g id="edge2" class="edge">
<title>Node3&#45;&gt;Node2</title>
<path fill="none" stroke="#9a32cd" stroke-dasharray="5,2" d="M473.863,-316.408C472.4268,-297.0272 469.3329,-266.633 463,-241 447.606,-178.6915 408.7727,-111.0088 393.911,-86.5145"/>
<polygon fill="#9a32cd" stroke="#9a32cd" points="470.3734,-316.6813 474.5291,-326.4271 477.358,-316.2169 470.3734,-316.6813"/>
<text text-anchor="middle" x="449.5" y="-175" font-family="Helvetica,sans-Serif" font-size="10.00" fill="#000000"> str</text>
</g>
<!-- Node6 -->
<g id="node6" class="node">
<title>Node6</title>
<g id="a_node6"><a xlink:href="structJSRuntime.html" target="_top" xlink:title="JSRuntime">
<polygon fill="none" stroke="#ff0000" points="373.5,-202.5 373.5,-221.5 438.5,-221.5 438.5,-202.5 373.5,-202.5"/>
<text text-anchor="middle" x="406" y="-209.5" font-family="Helvetica,sans-Serif" font-size="10.00" fill="#000000">JSRuntime</text>
</a>
</g>
</g>
<!-- Node3&#45;&gt;Node6 -->
<g id="edge8" class="edge">
<title>Node3&#45;&gt;Node6</title>
<path fill="none" stroke="#9a32cd" stroke-dasharray="5,2" d="M438.3018,-323.1816C426.0668,-318.1393 414.6171,-312.2988 411,-307 393.0289,-280.6733 399.313,-240.0467 403.4943,-221.6452"/>
<polygon fill="#9a32cd" stroke="#9a32cd" points="437.1066,-326.4723 447.6944,-326.8598 439.6592,-319.9543 437.1066,-326.4723"/>
<text text-anchor="middle" x="437" y="-271.5" font-family="Helvetica,sans-Serif" font-size="10.00" fill="#000000"> atom_array</text>
</g>
<!-- Node4 -->
<g id="node4" class="node">
<title>Node4</title>
<g id="a_node4"><a xlink:href="structJSRefCountHeader.html" target="_top" xlink:title="JSRefCountHeader">
<polygon fill="none" stroke="#000000" points="338,-394.5 338,-413.5 440,-413.5 440,-394.5 338,-394.5"/>
<text text-anchor="middle" x="389" y="-401.5" font-family="Helvetica,sans-Serif" font-size="10.00" fill="#000000">JSRefCountHeader</text>
</a>
</g>
</g>
<!-- Node4&#45;&gt;Node3 -->
<g id="edge3" class="edge">
<title>Node4&#45;&gt;Node3</title>
<path fill="none" stroke="#9a32cd" stroke-dasharray="5,2" d="M409.3865,-387.8805C426.0725,-374.6869 449.1083,-356.4725 462.9784,-345.5054"/>
<polygon fill="#9a32cd" stroke="#9a32cd" points="406.995,-385.3094 401.3217,-394.2573 411.3367,-390.8003 406.995,-385.3094"/>
<text text-anchor="middle" x="453.5" y="-368" font-family="Helvetica,sans-Serif" font-size="10.00" fill="#000000"> header</text>
</g>
<!-- Node10 -->
<g id="node8" class="node">
<title>Node10</title>
<g id="a_node8"><a xlink:href="structJSShape.html" target="_top" xlink:title="JSShape">
<polygon fill="none" stroke="#ff0000" points="276,-326.5 276,-345.5 332,-345.5 332,-326.5 276,-326.5"/>
<text text-anchor="middle" x="304" y="-333.5" font-family="Helvetica,sans-Serif" font-size="10.00" fill="#000000">JSShape</text>
</a>
</g>
</g>
<!-- Node4&#45;&gt;Node10 -->
<g id="edge10" class="edge">
<title>Node4&#45;&gt;Node10</title>
<path fill="none" stroke="#9a32cd" stroke-dasharray="5,2" d="M368.8506,-387.8805C352.3586,-374.6869 329.5907,-356.4725 315.8818,-345.5054"/>
<polygon fill="#9a32cd" stroke="#9a32cd" points="366.8264,-390.7433 376.8216,-394.2573 371.1993,-385.2772 366.8264,-390.7433"/>
<text text-anchor="middle" x="368.5" y="-368" font-family="Helvetica,sans-Serif" font-size="10.00" fill="#000000"> header</text>
</g>
<!-- Node5 -->
<g id="node5" class="node">
<title>Node5</title>
<g id="a_node5"><a xlink:href="structJSContext.html" target="_top" xlink:title="JSContext">
<polygon fill="none" stroke="#000000" points="266.5,-134.5 266.5,-153.5 329.5,-153.5 329.5,-134.5 266.5,-134.5"/>
<text text-anchor="middle" x="298" y="-141.5" font-family="Helvetica,sans-Serif" font-size="10.00" fill="#000000">JSContext</text>
</a>
</g>
</g>
<!-- Node5&#45;&gt;Node2 -->
<g id="edge4" class="edge">
<title>Node5&#45;&gt;Node2</title>
<path fill="none" stroke="#9a32cd" stroke-dasharray="5,2" d="M319.2831,-128.1559C336.6335,-115.2395 360.57,-97.4201 375.1291,-86.5817"/>
<polygon fill="#9a32cd" stroke="#9a32cd" points="316.8261,-125.6216 310.8948,-134.4005 321.0062,-131.2365 316.8261,-125.6216"/>
<text text-anchor="middle" x="357.5" y="-108" font-family="Helvetica,sans-Serif" font-size="10.00" fill="#000000"> ctx</text>
</g>
<!-- Node6&#45;&gt;Node5 -->
<g id="edge5" class="edge">
<title>Node6&#45;&gt;Node5</title>
<path fill="none" stroke="#9a32cd" stroke-dasharray="5,2" d="M381.8274,-196.7802C360.7769,-183.5262 330.9147,-164.7241 313.0969,-153.5054"/>
<polygon fill="#9a32cd" stroke="#9a32cd" points="380.199,-199.8909 390.5262,-202.2573 383.9288,-193.9673 380.199,-199.8909"/>
<text text-anchor="middle" x="364" y="-175" font-family="Helvetica,sans-Serif" font-size="10.00" fill="#000000"> rt</text>
</g>
<!-- Node7 -->
<g id="node7" class="node">
<title>Node7</title>
<g id="a_node7"><a xlink:href="structlist__head.html" target="_top" xlink:title="list_head">
<polygon fill="none" stroke="#000000" points="160,-326.5 160,-345.5 216,-345.5 216,-326.5 160,-326.5"/>
<text text-anchor="middle" x="188" y="-333.5" font-family="Helvetica,sans-Serif" font-size="10.00" fill="#000000">list_head</text>
</a>
</g>
</g>
<!-- Node7&#45;&gt;Node5 -->
<g id="edge12" class="edge">
<title>Node7&#45;&gt;Node5</title>
<path fill="none" stroke="#9a32cd" stroke-dasharray="5,2" d="M187.8497,-315.8647C188.6829,-287.1587 194.2332,-234.2705 222,-201 238.8029,-180.8665 264.051,-163.7544 280.772,-153.6772"/>
<polygon fill="#9a32cd" stroke="#9a32cd" points="184.3456,-316.1979 187.7281,-326.2382 191.3451,-316.28 184.3456,-316.1979"/>
<text text-anchor="middle" x="259" y="-215" font-family="Helvetica,sans-Serif" font-size="10.00" fill="#000000"> loaded_modules</text>
<text text-anchor="middle" x="259" y="-204" font-family="Helvetica,sans-Serif" font-size="10.00" fill="#000000">link</text>
</g>
<!-- Node7&#45;&gt;Node6 -->
<g id="edge6" class="edge">
<title>Node7&#45;&gt;Node6</title>
<path fill="none" stroke="#9a32cd" stroke-dasharray="5,2" d="M198.9756,-317.36C213.9798,-292.5212 240.7655,-250.5785 256,-241 295.3416,-216.2645 313.4683,-232.2988 359,-223 363.6801,-222.0442 368.6062,-220.9687 373.4367,-219.8742"/>
<polygon fill="#9a32cd" stroke="#9a32cd" points="195.7999,-315.8515 193.6779,-326.2316 201.8099,-319.4404 195.7999,-315.8515"/>
<text text-anchor="middle" x="282.5" y="-299" font-family="Helvetica,sans-Serif" font-size="10.00" fill="#000000"> job_list</text>
<text text-anchor="middle" x="282.5" y="-288" font-family="Helvetica,sans-Serif" font-size="10.00" fill="#000000">el_next</text>
<text text-anchor="middle" x="282.5" y="-277" font-family="Helvetica,sans-Serif" font-size="10.00" fill="#000000">tmp_obj_list</text>
<text text-anchor="middle" x="282.5" y="-266" font-family="Helvetica,sans-Serif" font-size="10.00" fill="#000000">free_obj_list</text>
<text text-anchor="middle" x="282.5" y="-255" font-family="Helvetica,sans-Serif" font-size="10.00" fill="#000000">obj_list</text>
<text text-anchor="middle" x="282.5" y="-244" font-family="Helvetica,sans-Serif" font-size="10.00" fill="#000000">context_list</text>
</g>
<!-- Node7&#45;&gt;Node7 -->
<g id="edge7" class="edge">
<title>Node7&#45;&gt;Node7</title>
<path fill="none" stroke="#9a32cd" stroke-dasharray="5,2" d="M226.5533,-341.4491C231.0634,-340.4467 234,-338.6303 234,-336 234,-331.6836 226.0919,-329.5591 216.2994,-329.6266"/>
<polygon fill="#9a32cd" stroke="#9a32cd" points="225.9447,-337.9897 216.2994,-342.3734 226.5733,-344.9614 225.9447,-337.9897"/>
<text text-anchor="middle" x="245" y="-339" font-family="Helvetica,sans-Serif" font-size="10.00" fill="#000000"> prev</text>
<text text-anchor="middle" x="245" y="-328" font-family="Helvetica,sans-Serif" font-size="10.00" fill="#000000">next</text>
</g>
<!-- Node29 -->
<g id="node9" class="node">
<title>Node29</title>
<g id="a_node9"><a xlink:href="structJSStackFrame.html" target="_top" xlink:title="JSStackFrame">
<polygon fill="none" stroke="#000000" points="0,-202.5 0,-221.5 82,-221.5 82,-202.5 0,-202.5"/>
<text text-anchor="middle" x="41" y="-209.5" font-family="Helvetica,sans-Serif" font-size="10.00" fill="#000000">JSStackFrame</text>
</a>
</g>
</g>
<!-- Node7&#45;&gt;Node29 -->
<g id="edge15" class="edge">
<title>Node7&#45;&gt;Node29</title>
<path fill="none" stroke="#9a32cd" stroke-dasharray="5,2" d="M150.3376,-322.9274C140.6212,-318.6462 130.5117,-313.3293 122,-307 88.258,-281.9097 59.1396,-240.2903 47.0144,-221.6026"/>
<polygon fill="#9a32cd" stroke="#9a32cd" points="149.2709,-326.2737 159.8493,-326.8624 151.9469,-319.8054 149.2709,-326.2737"/>
<text text-anchor="middle" x="148" y="-271.5" font-family="Helvetica,sans-Serif" font-size="10.00" fill="#000000"> var_ref_list</text>
</g>
<!-- Node10&#45;&gt;Node5 -->
<g id="edge13" class="edge">
<title>Node10&#45;&gt;Node5</title>
<path fill="none" stroke="#9a32cd" stroke-dasharray="5,2" d="M303.3822,-316.2289C302.1088,-275.4819 299.2336,-183.4738 298.2993,-153.5788"/>
<polygon fill="#9a32cd" stroke="#9a32cd" points="299.8917,-316.5929 303.7025,-326.4787 306.8883,-316.3742 299.8917,-316.5929"/>
<text text-anchor="middle" x="329.5" y="-209.5" font-family="Helvetica,sans-Serif" font-size="10.00" fill="#000000"> array_shape</text>
</g>
<!-- Node10&#45;&gt;Node6 -->
<g id="edge9" class="edge">
<title>Node10&#45;&gt;Node6</title>
<path fill="none" stroke="#9a32cd" stroke-dasharray="5,2" d="M308.9886,-316.5093C315.5673,-292.0937 327.5353,-252.1058 338,-241 347.4177,-231.0053 360.8423,-224.2993 373.2789,-219.8789"/>
<polygon fill="#9a32cd" stroke="#9a32cd" points="305.6036,-315.6199 306.4445,-326.1814 312.3733,-317.4007 305.6036,-315.6199"/>
<text text-anchor="middle" x="366" y="-271.5" font-family="Helvetica,sans-Serif" font-size="10.00" fill="#000000"> shape_hash</text>
</g>
<!-- Node10&#45;&gt;Node10 -->
<g id="edge11" class="edge">
<title>Node10&#45;&gt;Node10</title>
<path fill="none" stroke="#9a32cd" stroke-dasharray="5,2" d="M342.5533,-341.4491C347.0634,-340.4467 350,-338.6303 350,-336 350,-331.6836 342.0919,-329.5591 332.2994,-329.6266"/>
<polygon fill="#9a32cd" stroke="#9a32cd" points="341.9447,-337.9897 332.2994,-342.3734 342.5733,-344.9614 341.9447,-337.9897"/>
<text text-anchor="middle" x="390" y="-333.5" font-family="Helvetica,sans-Serif" font-size="10.00" fill="#000000"> shape_hash_next</text>
</g>
<!-- Node29&#45;&gt;Node5 -->
<g id="edge14" class="edge">
<title>Node29&#45;&gt;Node5</title>
<path fill="none" stroke="#9a32cd" stroke-dasharray="5,2" d="M54.139,-194.2721C61.1705,-186.1233 70.5337,-177.1446 81,-172 112.8743,-156.3323 213.9701,-148.6138 266.1515,-145.5912"/>
<polygon fill="#9a32cd" stroke="#9a32cd" points="51.2477,-192.2824 47.707,-202.2681 56.7021,-196.6699 51.2477,-192.2824"/>
<text text-anchor="middle" x="127.5" y="-175" font-family="Helvetica,sans-Serif" font-size="10.00" fill="#000000"> current_stack_frame</text>
</g>
<!-- Node29&#45;&gt;Node29 -->
<g id="edge16" class="edge">
<title>Node29&#45;&gt;Node29</title>
<path fill="none" stroke="#9a32cd" stroke-dasharray="5,2" d="M92.2579,-217.0941C97.0064,-216.043 100,-214.345 100,-212 100,-208.248 92.3363,-206.1522 82.0831,-205.7125"/>
<polygon fill="#9a32cd" stroke="#9a32cd" points="91.6073,-213.6464 82.0831,-218.2875 92.4228,-220.5987 91.6073,-213.6464"/>
<text text-anchor="middle" x="126" y="-209.5" font-family="Helvetica,sans-Serif" font-size="10.00" fill="#000000"> prev_frame</text>
</g>
</g>
</svg>
